<svg xmlns="http://www.w3.org/2000/svg" width="500pt" height="116pt" viewBox="0 0 499.62 116">
    <g class="graph">
        <path fill="#fff" d="M0 116V0h499.62v116z"/>
        <g class="node" transform="translate(4 112)">
            <ellipse cx="264.52" cy="-90" fill="none" stroke="#000" rx="97.93" ry="18"/>
            <text x="264.52" y="-84.95" font-family="Times,serif" font-size="14" text-anchor="middle">:server:domain:account</text>
        </g>
        <g class="node" transform="translate(4 112)">
            <ellipse cx="80.52" cy="-18" fill="none" stroke="#000" rx="80.52" ry="18"/>
            <text x="80.52" y="-12.95" font-family="Times,serif" font-size="14" text-anchor="middle">:server:core:model</text>
        </g>
        <g stroke="red" stroke-width="2" class="edge">
            <path fill="none" d="M227.23 38.71c-27.34 10.4-63.37 24.11-92.38 35.15"/>
            <path fill="red" d="m137.52 76.58-10.59.29 8.1-6.83z"/>
        </g>
        <g class="node" transform="translate(4 112)">
            <ellipse cx="264.52" cy="-18" fill="none" stroke="#000" rx="85.13" ry="18"/>
            <text x="264.52" y="-12.95" font-family="Times,serif" font-size="14" text-anchor="middle">:common:exception</text>
        </g>
        <g stroke="#000" class="edge">
            <path fill="none" d="M268.52 40.3v24.16"/>
            <path d="m272.02 64.38-3.5 10-3.5-10z"/>
        </g>
        <g class="node" transform="translate(4 112)">
            <ellipse cx="429.52" cy="-18" fill="none" stroke="#000" rx="62.1" ry="18"/>
            <text x="429.52" y="-12.95" font-family="Times,serif" font-size="14" text-anchor="middle">:library:kotlin</text>
        </g>
        <g stroke="#000" class="edge">
            <path fill="none" d="M306.38 39.06c24.67 10.46 56.96 24.16 82.82 35.14"/>
            <path d="m390.26 70.84 7.84 7.13-10.57-.68z"/>
        </g>
    </g>
</svg>
