<svg xmlns="http://www.w3.org/2000/svg" width="7133pt" height="620pt" viewBox="0 0 7133.29 620">
    <g class="graph">
        <path fill="#fff" d="M0 620V0h7133.29v620z"/>
        <g class="node" transform="translate(4 616)">
            <ellipse cx="214.5" cy="-594" fill="none" stroke="#000" rx="74.89" ry="18"/>
            <text x="214.5" y="-588.95" font-family="Times,serif" font-size="14" text-anchor="middle">:app:platform:ios</text>
        </g>
        <g class="node" transform="translate(4 616)">
            <ellipse cx="3895.5" cy="-522" fill="none" stroke="#000" rx="97.41" ry="18"/>
            <text x="3895.5" y="-516.95" font-family="Times,serif" font-size="14" text-anchor="middle">:app:platform:common</text>
        </g>
        <g stroke="red" stroke-width="2" class="edge">
            <path fill="none" d="M292.86 24.41c462.98 8.81 2948.79 56.08 3498.84 66.54"/>
            <path fill="red" d="m3790.21 87.42 9.93 3.69-10.06 3.31z"/>
        </g>
        <g class="node" transform="translate(4 616)">
            <ellipse cx="271.5" cy="-450" fill="none" stroke="#000" rx="86.15" ry="18"/>
            <text x="271.5" y="-444.95" font-family="Times,serif" font-size="14" text-anchor="middle">:app:core:coroutines</text>
        </g>
        <g stroke="#000" class="edge">
            <path fill="none" d="M225.49 40.41c9.71 24.19 27.39 68.23 38.91 96.94"/>
            <path d="m267.59 135.9.48 10.58-6.98-7.97z"/>
        </g>
        <g class="node" transform="translate(4 616)">
            <ellipse cx="1481.5" cy="-162" fill="none" stroke="#000" rx="95.88" ry="18"/>
            <text x="1481.5" y="-156.95" font-family="Times,serif" font-size="14" text-anchor="middle">:app:core:diary-service</text>
        </g>
        <g stroke="#000" class="edge">
            <path fill="none" d="M206.23 39.76C184.5 71.65 144.74 141.65 180.5 184c153.85 182.23 827.35 119.34 1058 180 70.69 18.59 149.75 48.82 198.95 68.8"/>
            <path d="m1438.75 429.56 7.93 7.02-10.58-.55z"/>
        </g>
        <g class="node" transform="translate(4 616)">
            <ellipse cx="1319.5" cy="-90" fill="none" stroke="#000" rx="104.58" ry="18"/>
            <text x="1319.5" y="-84.95" font-family="Times,serif" font-size="14" text-anchor="middle">:app:core:holiday-service</text>
        </g>
        <g stroke="#000" class="edge">
            <path fill="none" d="M174.79 36.93C122.96 56.5 43.5 97.51 43.5 165v146c0 85.92 32.21 118.71 107 161 90.3 51.07 778.61 54.43 1056.85 53.67"/>
            <path d="m1207.15 522.17 10.01 3.47-9.99 3.53z"/>
        </g>
        <g stroke="#000" class="edge">
            <path fill="none" d="M3802.25 95.57C3270.33 98.81 724.42 115.91 375.5 148c-8.91.82-18.23 1.98-27.44 3.32"/>
            <path d="m348.83 154.75-10.42-1.95 9.36-4.97z"/>
        </g>
        <g stroke="#000" class="edge">
            <path fill="none" d="M3802.38 95.79c-431.86 3.69-2158.85 20.4-2204.88 52.21-35.1 24.26-36 46.33-36 89v74c0 45.22-30.33 89.97-52.67 116.81"/>
            <path d="m1511.78 429.75-9.17 5.3 3.86-9.87z"/>
        </g>
        <g stroke="#000" class="edge">
            <path fill="none" d="M3802.4 95.87c-436.24 4.06-2198.53 22.27-2311.9 52.13-65.38 17.22-96.23 15.93-134 72-58.2 86.4-46.73 218.81-38.08 276.5"/>
            <path d="m1321.84 495.71-1.88 10.42-5.03-9.32z"/>
        </g>
        <g class="node" transform="translate(4 616)">
            <ellipse cx="6127.5" cy="-306" fill="none" stroke="#000" rx="81.04" ry="18"/>
            <text x="6127.5" y="-300.95" font-family="Times,serif" font-size="14" text-anchor="middle">:app:core:compose</text>
        </g>
        <g stroke="#000" class="edge">
            <path fill="none" d="M3996.91 95.59C4333.64 97.96 5447.2 108.66 5802.5 148c166.08 18.39 262.76-56.97 369 72 15.53 18.85.88 44.7-14.88 63.68"/>
            <path d="m6159.41 285.81-9.24 5.18 3.99-9.81z"/>
        </g>
        <g class="node" transform="translate(4 616)">
            <ellipse cx="6185.5" cy="-162" fill="none" stroke="#000" rx="101" ry="18"/>
            <text x="6185.5" y="-156.95" font-family="Times,serif" font-size="14" text-anchor="middle">:app:core:design-system</text>
        </g>
        <g stroke="#000" class="edge">
            <path fill="none" d="M3996.78 95.79C4448.56 99.6 6324.99 117.22 6445.5 148c134.44 34.34 204.99 25.4 277 144 47.2 77.73-100.24 103.73-112 108-100.23 36.39-221.71 48.57-308.37 52.29"/>
            <path d="m6302.32 455.79-10.13-3.11 9.85-3.89z"/>
        </g>
        <g class="node" transform="translate(4 616)">
            <ellipse cx="5383.5" cy="-306" fill="none" stroke="#000" rx="86.67" ry="18"/>
            <text x="5383.5" y="-300.95" font-family="Times,serif" font-size="14" text-anchor="middle">:app:core:navigation</text>
        </g>
        <g stroke="#000" class="edge">
            <path fill="none" d="M3996.74 95.99c238.33 2.99 846.57 14.2 1045.76 52.01 97.35 18.48 122.11 28.23 211 72 37.71 18.57 77.4 46.07 103.7 65.58"/>
            <path d="m5359.15 282.66 5.9 8.81-10.1-3.21z"/>
        </g>
        <g class="node" transform="translate(4 616)">
            <ellipse cx="6532.5" cy="-90" fill="none" stroke="#000" rx="59.54" ry="18"/>
            <text x="6532.5" y="-84.95" font-family="Times,serif" font-size="14" text-anchor="middle">:library:color</text>
        </g>
        <g stroke="#000" class="edge">
            <path fill="none" d="M3997.2 94.66c446.94-1.22 2285.66-2.79 2536.3 53.34 123.28 27.61 242.54 55.69 220 180-13.3 73.35-25.96 99.82-86 144-22.81 16.78-51.68 29.21-76.51 37.79"/>
            <path d="m6592.3 513.04-10.6-.17 8.39-6.47z"/>
        </g>
        <g class="node" transform="translate(4 616)">
            <ellipse cx="5702.5" cy="-18" fill="none" stroke="#000" rx="62.1" ry="18"/>
            <text x="5702.5" y="-12.95" font-family="Times,serif" font-size="14" text-anchor="middle">:library:kotlin</text>
        </g>
        <g stroke="#000" class="edge">
            <path fill="none" d="M3997.02 94.9c421.86-.14 2091.83 2.6 2614.48 53.1 228.59 22.09 509-140.65 509 89v218c0 17.07 58.62 26.59-129 89-114.76 38.18-955.75 49.7-1211.46 52.33"/>
            <path d="m5780.22 599.83-10.03-3.4 9.96-3.6z"/>
        </g>
        <g class="node" transform="translate(4 616)">
            <ellipse cx="5682.5" cy="-306" fill="none" stroke="#000" rx="79.5" ry="18"/>
            <text x="5682.5" y="-300.95" font-family="Times,serif" font-size="14" text-anchor="middle">:library:navigation</text>
        </g>
        <g stroke="#000" class="edge">
            <path fill="none" d="M3996.38 96.5c306.2 5 1240.8 22.5 1374.12 51.5 81.78 17.79 103.78 26.46 174 72 19.52 12.66 19 22.58 38 36 17.8 12.57 38.98 23.92 57.58 32.87"/>
            <path d="m5641.46 285.66 7.56 7.42-10.54-1.09z"/>
        </g>
        <g class="node" transform="translate(4 616)">
            <ellipse cx="2030.5" cy="-18" fill="none" stroke="#000" rx="78.99" ry="18"/>
            <text x="2030.5" y="-12.95" font-family="Times,serif" font-size="14" text-anchor="middle">:library:coroutines</text>
        </g>
        <g stroke="#000" class="edge">
            <path fill="none" d="M3802.18 95.15c-492.2.97-2695.79 7.82-2997.68 52.85-344.78 51.42-477.7 3.46-754 216-29.54 22.73-33.09 36.07-43 72-5.72 20.74-3.79 101.31 3 108 34.91 34.37 1544.76 49.08 1933.49 52.3"/>
            <path d="m1943.95 592.8 9.97 3.58-10.03 3.42z"/>
        </g>
        <g class="node" transform="translate(4 616)">
            <ellipse cx="5054.5" cy="-18" fill="none" stroke="#000" rx="72.85" ry="18"/>
            <text x="5054.5" y="-12.95" font-family="Times,serif" font-size="14" text-anchor="middle">:library:datetime</text>
        </g>
        <g stroke="#000" class="edge">
            <path fill="none" d="M3996.47 96.29c240.48 3.73 851.03 16.57 936.03 51.71 55.26 22.85 148.26 150.03 200 180 133.17 77.14 215.42 4.15 329 108 36.85 33.7 64.1 70.61 31 108-22.91 25.88-232.88 41.76-352.16 48.77"/>
            <path d="m5140.79 596.25-10.19-2.92 9.78-4.07z"/>
        </g>
        <g class="node" transform="translate(4 616)">
            <ellipse cx="6543.5" cy="-306" fill="none" stroke="#000" rx="89.23" ry="18"/>
            <text x="6543.5" y="-300.95" font-family="Times,serif" font-size="14" text-anchor="middle">:library:shimmer-m3</text>
        </g>
        <g stroke="#000" class="edge">
            <path fill="none" d="M3997.08 94.88c448.79-.3 2297.5 1.63 2408.42 53.12 60.56 28.11 105.91 95.73 127.67 133.79"/>
            <path d="m6536.13 279.92 1.81 10.44-7.92-7.04z"/>
        </g>
        <g class="node" transform="translate(4 616)">
            <ellipse cx="3023.5" cy="-378" fill="none" stroke="#000" rx="71.31" ry="18"/>
            <text x="3023.5" y="-372.95" font-family="Times,serif" font-size="14" text-anchor="middle">:app:data:memo</text>
        </g>
        <g stroke="#000" class="edge">
            <path fill="none" d="M3802.37 95.86c-172.49 2.55-525 12.58-640.87 52.14-40.96 13.98-81.43 43.65-107 64.89"/>
            <path d="m3056.83 215.51-9.89 3.8 5.36-9.14z"/>
        </g>
        <g class="node" transform="translate(4 616)">
            <ellipse cx="3283.5" cy="-306" fill="none" stroke="#000" rx="58.52" ry="18"/>
            <text x="3283.5" y="-300.95" font-family="Times,serif" font-size="14" text-anchor="middle">:app:data:tag</text>
        </g>
        <g stroke="#000" class="edge">
            <path fill="none" d="M3805.69 99.15c-144.81 7.17-409.88 23.56-445.19 48.85-43.79 31.36-61.85 95.4-68.87 132.56"/>
            <path d="m3295.13 280.86-5.16 9.26-1.74-10.45z"/>
        </g>
        <g class="node" transform="translate(4 616)">
            <ellipse cx="2507.5" cy="-162" fill="none" stroke="#000" rx="75.92" ry="18"/>
            <text x="2507.5" y="-156.95" font-family="Times,serif" font-size="14" text-anchor="middle">:app:data:account</text>
        </g>
        <g stroke="#000" class="edge">
            <path fill="none" d="M3802.47 95.89c-240.11 2.78-857.19 13.56-1058.97 52.11-96.5 18.44-116.58 38.67-209 72-170.68 61.55-278.78-5.22-382 144-9.1 13.16-10.45 23.89 0 36 9.11 10.56 177.45 31.88 280.33 44.01"/>
            <path d="m2433.09 440.52 9.52 4.64-10.34 2.31z"/>
        </g>
        <g class="node" transform="translate(4 616)">
            <ellipse cx="1445.5" cy="-378" fill="none" stroke="#000" rx="83.6" ry="18"/>
            <text x="1445.5" y="-372.95" font-family="Times,serif" font-size="14" text-anchor="middle">:app:data:credential</text>
        </g>
        <g stroke="#000" class="edge">
            <path fill="none" d="M3801.98 95.29C3370.96 96.84 1653.59 105.64 1547.5 148c-32.35 12.92-60.75 41.74-78.53 63.1"/>
            <path d="m1471.74 213.24-9 5.6 3.54-9.98z"/>
        </g>
        <g class="node" transform="translate(4 616)">
            <ellipse cx="2973.5" cy="-162" fill="none" stroke="#000" rx="74.89" ry="18"/>
            <text x="2973.5" y="-156.95" font-family="Times,serif" font-size="14" text-anchor="middle">:app:data:holiday</text>
        </g>
        <g stroke="#000" class="edge">
            <path fill="none" d="M3801.86 94.05c-197.62.71-626.36 16.78-626.36 142.95v74c0 68.05-78.2 106.65-136.31 125.94"/>
            <path d="m3040.27 440.27-10.59-.3 8.46-6.37z"/>
        </g>
        <g class="node" transform="translate(4 616)">
            <ellipse cx="2231.5" cy="-234" fill="none" stroke="#000" rx="73.87" ry="18"/>
            <text x="2231.5" y="-228.95" font-family="Times,serif" font-size="14" text-anchor="middle">:app:data:backup</text>
        </g>
        <g stroke="#000" class="edge">
            <path fill="none" d="M3802.51 96.53c-217.66 4.01-739.45 17.01-912.01 51.47-239.2 47.77-508.94 165.33-611.93 212.71"/>
            <path d="m2280.19 363.82-10.54 1.02 7.61-7.37z"/>
        </g>
        <g class="node" transform="translate(4 616)">
            <ellipse cx="2821.5" cy="-306" fill="none" stroke="#000" rx="65.68" ry="18"/>
            <text x="2821.5" y="-300.95" font-family="Times,serif" font-size="14" text-anchor="middle">:app:data:fetch</text>
        </g>
        <g stroke="#000" class="edge">
            <path fill="none" d="M3802.72 96.56c-184.47 3.76-579.77 15.83-711.22 51.44-96.76 26.21-193.11 99.12-238.73 137.18"/>
            <path d="m2855.13 287.76-9.9 3.79 5.38-9.13z"/>
        </g>
        <g class="node" transform="translate(4 616)">
            <ellipse cx="4622.5" cy="-234" fill="none" stroke="#000" rx="62.1" ry="18"/>
            <text x="4622.5" y="-228.95" font-family="Times,serif" font-size="14" text-anchor="middle">:app:data:fcm</text>
        </g>
        <g stroke="#000" class="edge">
            <path fill="none" d="M3996.25 96.76c146.45 3.79 416.82 15.54 506.25 51.24 95.47 38.12 136.34 51.41 181 144 6.95 14.41 6.39 21.33 0 36-4.99 11.45-13.81 21.55-23.04 29.77"/>
            <path d="m4662.71 360.45-9.95 3.65 5.5-9.06z"/>
        </g>
        <g class="node" transform="translate(4 616)">
            <ellipse cx="1710.5" cy="-450" fill="none" stroke="#000" rx="78.48" ry="18"/>
            <text x="1710.5" y="-444.95" font-family="Times,serif" font-size="14" text-anchor="middle">:app:data:calendar</text>
        </g>
        <g stroke="red" stroke-width="2" class="edge">
            <path fill="none" d="M3802.12 95.43c-358.03 1.9-1601.11 11.38-1995.62 52.57-8 .83-16.34 1.98-24.6 3.29"/>
            <path fill="red" d="m1784.16 154.46-10.44-1.8 9.29-5.1z"/>
        </g>
        <g class="node" transform="translate(4 616)">
            <ellipse cx="2705.5" cy="-234" fill="none" stroke="#000" rx="70.29" ry="18"/>
            <text x="2705.5" y="-228.95" font-family="Times,serif" font-size="14" text-anchor="middle">:app:data:buddy</text>
        </g>
        <g stroke="#000" class="edge">
            <path fill="none" d="M3802.11 95.19c-200.19 1.31-651.45 9.17-798.61 52.81-124.04 36.78-165.52 48.68-253 144-15.91 17.33-26.59 41.91-33.06 60.85"/>
            <path d="m2720.79 353.89-6.37 8.47-.3-10.59z"/>
        </g>
        <g class="node" transform="translate(4 616)">
            <ellipse cx="4206.5" cy="-306" fill="none" stroke="#000" rx="84.11" ry="18"/>
            <text x="4206.5" y="-300.95" font-family="Times,serif" font-size="14" text-anchor="middle">:app:domain:memo</text>
        </g>
        <g stroke="#000" class="edge">
            <path fill="none" d="M3988.45 101.64c40.96 6.73 88.28 20.06 124.05 46.36 46.03 33.84 74.86 96.42 88.54 132.79"/>
            <path d="m4204.33 279.59.11 10.59-6.7-8.21z"/>
        </g>
        <g class="node" transform="translate(4 616)">
            <ellipse cx="3957.5" cy="-234" fill="none" stroke="#000" rx="71.31" ry="18"/>
            <text x="3957.5" y="-228.95" font-family="Times,serif" font-size="14" text-anchor="middle">:app:domain:tag</text>
        </g>
        <g stroke="#000" class="edge">
            <path fill="none" d="M3892.81 112.3c-10.58 29.92-28.47 92.96-13.31 143.7 11.41 38.2 38.65 75.56 58.62 99.34"/>
            <path d="m3940.77 353.05 3.87 9.86-9.18-5.29z"/>
        </g>
        <g class="node" transform="translate(4 616)">
            <ellipse cx="4021.5" cy="-90" fill="none" stroke="#000" rx="88.71" ry="18"/>
            <text x="4021.5" y="-84.95" font-family="Times,serif" font-size="14" text-anchor="middle">:app:domain:account</text>
        </g>
        <g stroke="#000" class="edge">
            <path fill="none" d="M3955.73 109.1c58.84 18.54 142.77 57.34 142.77 127.9v146c0 44.63-28.88 89.3-50.31 116.29"/>
            <path d="m4050.99 501.4-9.05 5.51 3.64-9.95z"/>
        </g>
        <g class="node" transform="translate(4 616)">
            <ellipse cx="4574.5" cy="-306" fill="none" stroke="#000" rx="96.39" ry="18"/>
            <text x="4574.5" y="-300.95" font-family="Times,serif" font-size="14" text-anchor="middle">:app:domain:credential</text>
        </g>
        <g stroke="#000" class="edge">
            <path fill="none" d="M3997.18 94.25c141.2.55 393.9 8.16 471.32 53.75 51.55 30.35 84.35 95.52 99.72 132.97"/>
            <path d="m4571.46 279.64.41 10.59-6.93-8.02z"/>
        </g>
        <g class="node" transform="translate(4 616)">
            <ellipse cx="4634.5" cy="-90" fill="none" stroke="#000" rx="87.69" ry="18"/>
            <text x="4634.5" y="-84.95" font-family="Times,serif" font-size="14" text-anchor="middle">:app:domain:holiday</text>
        </g>
        <g stroke="#000" class="edge">
            <path fill="none" d="M3996.22 96.68c157.34 3.76 461.33 15.54 562.28 51.32 113.1 40.09 144.97 97.21 162 216 6.81 47.52 24.07 65.9 1 108-7.4 13.5-19.86 24.06-32.91 32.08"/>
            <path d="m4690.32 507.12-10.43 1.86 7-7.96z"/>
        </g>
        <g class="node" transform="translate(4 616)">
            <ellipse cx="3903.5" cy="-162" fill="none" stroke="#000" rx="86.67" ry="18"/>
            <text x="3903.5" y="-156.95" font-family="Times,serif" font-size="14" text-anchor="middle">:app:domain:backup</text>
        </g>
        <g stroke="#000" class="edge">
            <path fill="none" d="M3887.75 112.31c-6.08 9.97-12.92 23.01-16.25 35.69-28.48 108.41-19.85 143.96 10 252 2.43 8.79 6.31 17.88 10.34 25.99"/>
            <path d="m3894.84 424.17 1.57 10.48-7.76-7.21z"/>
        </g>
        <g class="node" transform="translate(4 616)">
            <ellipse cx="3714.5" cy="-234" fill="none" stroke="#000" rx="78.48" ry="18"/>
            <text x="3714.5" y="-228.95" font-family="Times,serif" font-size="14" text-anchor="middle">:app:domain:fetch</text>
        </g>
        <g stroke="#000" class="edge">
            <path fill="none" d="M3835.9 107.94c-23.67 7.86-48.78 20.34-65.4 40.06-50 59.33-54.68 156.48-53.58 204.42"/>
            <path d="m3720.41 352.13-3.16 10.12-3.84-9.88z"/>
        </g>
        <g class="node" transform="translate(4 616)">
            <ellipse cx="4609.5" cy="-162" fill="none" stroke="#000" rx="74.89" ry="18"/>
            <text x="4609.5" y="-156.95" font-family="Times,serif" font-size="14" text-anchor="middle">:app:domain:fcm</text>
        </g>
        <g stroke="#000" class="edge">
            <path fill="none" d="M3992.39 99.69c158 10.54 462.11 43.07 462.11 137.31v74c0 59.7 63.12 100.54 109.82 122.59"/>
            <path d="m4565.58 430.31 7.65 7.33-10.55-.96z"/>
        </g>
        <g class="node" transform="translate(4 616)">
            <ellipse cx="3975.5" cy="-378" fill="none" stroke="#000" rx="91.27" ry="18"/>
            <text x="3975.5" y="-372.95" font-family="Times,serif" font-size="14" text-anchor="middle">:app:domain:calendar</text>
        </g>
        <g stroke="#000" class="edge">
            <path fill="none" d="M3909.15 112.13c13.69 24.31 38.9 69.05 55.13 97.86"/>
            <path d="m3967.21 208.06 1.86 10.43-7.95-6.99z"/>
        </g>
        <g class="node" transform="translate(4 616)">
            <ellipse cx="4357.5" cy="-162" fill="none" stroke="#000" rx="83.08" ry="18"/>
            <text x="4357.5" y="-156.95" font-family="Times,serif" font-size="14" text-anchor="middle">:app:domain:buddy</text>
        </g>
        <g stroke="#000" class="edge">
            <path fill="none" d="M3985.69 102.77C4123.6 117.62 4378.5 156.01 4378.5 237v74c0 39.54-6.58 84.84-11.55 113.43"/>
            <path d="m4370.42 424.88-5.21 9.22-1.68-10.46z"/>
        </g>
        <g class="node" transform="translate(4 616)">
            <ellipse cx="267.5" cy="-234" fill="none" stroke="#000" rx="123.52" ry="18"/>
            <text x="267.5" y="-228.95" font-family="Times,serif" font-size="14" text-anchor="middle">:app:core:filter-database-room</text>
        </g>
        <g stroke="#000" class="edge">
            <path fill="none" d="M3801.93 94.98c-477.63.11-2557.8 3.49-2842.43 53.02-250.39 43.57-532.95 162.95-641.83 211.77"/>
            <path d="m319.31 362.87-10.56.91 7.68-7.3z"/>
        </g>
        <g class="node" transform="translate(4 616)">
            <ellipse cx="825.5" cy="-234" fill="none" stroke="#000" rx="132.22" ry="18"/>
            <text x="825.5" y="-228.95" font-family="Times,serif" font-size="14" text-anchor="middle">:app:core:backup-database-room</text>
        </g>
        <g stroke="#000" class="edge">
            <path fill="none" d="M3802.14 95.31C3329.76 97.03 1294.19 106.79 1166.5 148c-133.05 42.94-260.46 157.3-312.45 208.09"/>
            <path d="m856.73 358.36-9.57 4.54 4.65-9.52z"/>
        </g>
        <g class="node" transform="translate(4 616)">
            <ellipse cx="1753.5" cy="-162" fill="none" stroke="#000" rx="158.32" ry="18"/>
            <text x="1753.5" y="-156.95" font-family="Times,serif" font-size="14" text-anchor="middle">:app:core:account-preferences-datastore</text>
        </g>
        <g stroke="#000" class="edge">
            <path fill="none" d="M3802.16 95.74C3373.28 99.17 1671.59 114.85 1627.5 148c-33.14 24.92-28 47.53-28 89v74c0 57.77 59.16 98.01 105.08 120.54"/>
            <path d="m1705.83 428.26 7.55 7.45-10.54-1.12z"/>
        </g>
        <g class="node" transform="translate(4 616)">
            <ellipse cx="1100.5" cy="-234" fill="none" stroke="#000" rx="124.54" ry="18"/>
            <text x="1100.5" y="-228.95" font-family="Times,serif" font-size="14" text-anchor="middle">:app:core:diary-database-room</text>
        </g>
        <g stroke="#000" class="edge">
            <path fill="none" d="M3802.22 95.48C3325.93 98.02 1260.49 111.13 1205.5 148c-69.83 46.83-91.67 153.2-98.27 204.4"/>
            <path d="m1110.74 352.57-4.64 9.52-2.32-10.34z"/>
        </g>
        <g class="node" transform="translate(4 616)">
            <ellipse cx="3223.5" cy="-162" fill="none" stroke="#000" rx="157.3" ry="18"/>
            <text x="3223.5" y="-156.95" font-family="Times,serif" font-size="14" text-anchor="middle">:app:core:holiday-preferences-datastore</text>
        </g>
        <g stroke="#000" class="edge">
            <path fill="none" d="M3808.65 100.9c-150.26 12.27-434.15 47.23-434.15 136.1v74c0 55.84-55.56 96.69-98.36 119.88"/>
            <path d="m3277.95 433.88-10.49 1.53 7.25-7.73z"/>
        </g>
        <g class="node" transform="translate(4 616)">
            <ellipse cx="542.5" cy="-234" fill="none" stroke="#000" rx="133.24" ry="18"/>
            <text x="542.5" y="-228.95" font-family="Times,serif" font-size="14" text-anchor="middle">:app:core:holiday-database-room</text>
        </g>
        <g stroke="#000" class="edge">
            <path fill="none" d="M3802.09 95.77C3321.18 99.7 1217.89 118.51 1082.5 148c-197.92 43.1-413.11 160.67-498.27 210.36"/>
            <path d="m586.2 361.26-10.4 2.04 6.85-8.08z"/>
        </g>
        <g class="node" transform="translate(4 616)">
            <ellipse cx="6076.5" cy="-378" fill="none" stroke="#000" rx="81.55" ry="18"/>
            <text x="6076.5" y="-372.95" font-family="Times,serif" font-size="14" text-anchor="middle">:app:feature:memo</text>
        </g>
        <g stroke="#000" class="edge">
            <path fill="none" d="M3996.95 95.31c324.74 1.44 1368.26 9.4 1701.55 52.69 116.74 15.16 250.01 50.43 324.25 71.74"/>
            <path d="m6023.62 216.35 8.64 6.14-10.58.58z"/>
        </g>
        <g class="node" transform="translate(4 616)">
            <ellipse cx="5171.5" cy="-378" fill="none" stroke="#000" rx="68.75" ry="18"/>
            <text x="5171.5" y="-372.95" font-family="Times,serif" font-size="14" text-anchor="middle">:app:feature:tag</text>
        </g>
        <g stroke="#000" class="edge">
            <path fill="none" d="M3996.95 95.03c229.84.83 800.32 7.55 985.55 52.97 57.9 14.2 119.59 45.92 157.22 67.4"/>
            <path d="m5141 212.09 6.91 8.04-10.41-1.98z"/>
        </g>
        <g class="node" transform="translate(4 616)">
            <ellipse cx="6303.5" cy="-450" fill="none" stroke="#000" rx="88.71" ry="18"/>
            <text x="6303.5" y="-444.95" font-family="Times,serif" font-size="14" text-anchor="middle">:app:feature:calendar</text>
        </g>
        <g stroke="#000" class="edge">
            <path fill="none" d="M3997.09 95.41c381.02 1.91 1768.89 11.57 2207.41 52.59 9.21.86 18.84 2.06 28.36 3.41"/>
            <path d="m6233.08 147.91 9.37 4.94-10.41 1.98z"/>
        </g>
        <g class="node" transform="translate(4 616)">
            <ellipse cx="5896.5" cy="-378" fill="none" stroke="#000" rx="80.52" ry="18"/>
            <text x="5896.5" y="-372.95" font-family="Times,serif" font-size="14" text-anchor="middle">:app:feature:buddy</text>
        </g>
        <g stroke="#000" class="edge">
            <path fill="none" d="M3997.36 94.51c315.74-1.04 1305.24.16 1620.14 53.49 84.98 14.39 179.79 48 235.26 69.55"/>
            <path d="m5853.88 214.23 8.03 6.91-10.59-.4z"/>
        </g>
        <g class="node" transform="translate(4 616)">
            <ellipse cx="5454.5" cy="-378" fill="none" stroke="#000" rx="76.94" ry="18"/>
            <text x="5454.5" y="-372.95" font-family="Times,serif" font-size="14" text-anchor="middle">:app:feature:more</text>
        </g>
        <g stroke="#000" class="edge">
            <path fill="none" d="M3997.01 95.65c300.28 2.43 1198.28 12.93 1323.49 52.35 42.57 13.4 84.68 43.69 110.97 65.21"/>
            <path d="m5433.5 210.34 5.43 9.1-9.92-3.73z"/>
        </g>
        <g class="node" transform="translate(4 616)">
            <ellipse cx="5673.5" cy="-378" fill="none" stroke="#000" rx="86.15" ry="18"/>
            <text x="5673.5" y="-372.95" font-family="Times,serif" font-size="14" text-anchor="middle">:app:feature:account</text>
        </g>
        <g stroke="#000" class="edge">
            <path fill="none" d="M3996.65 96.24c346.8 4.66 1507.22 22.4 1580.85 51.76 32.87 13.11 62.01 42.1 80.23 63.45"/>
            <path d="m5660.22 208.96 3.67 9.94-9.07-5.48z"/>
        </g>
        <g class="node" transform="translate(4 616)">
            <ellipse cx="5194.5" cy="-162" fill="none" stroke="#000" rx="112.26" ry="18"/>
            <text x="5194.5" y="-156.95" font-family="Times,serif" font-size="14" text-anchor="middle">:library:firebase-messaging</text>
        </g>
        <g stroke="#000" class="edge">
            <path fill="none" d="M3995.73 97.03c245.04 5.56 875.76 22.58 910.77 50.97 64.31 52.15-13.58 124.66 48 180 77.61 69.75 158.96-38.51 232 36 15.28 15.58 17.44 40.73 16.25 60.32"/>
            <path d="m5206.25 424.54-4.43 9.62-2.54-10.28z"/>
        </g>
        <g class="node" transform="translate(4 616)">
            <ellipse cx="3524.5" cy="-18" fill="none" stroke="#000" rx="71.31" ry="18"/>
            <text x="3524.5" y="-12.95" font-family="Times,serif" font-size="14" text-anchor="middle">:app:core:model</text>
        </g>
        <g stroke="#000" class="edge">
            <path fill="none" d="M1555.26 466.75c37.66 8.17 84.12 21.25 122.24 41.25 22.07 11.58 19.7 27.15 43 36 81.47 30.96 1381.75 48.09 1725.3 52.08"/>
            <path d="m3445.66 592.58 9.95 3.62-10.04 3.38z"/>
        </g>
        <g class="node" transform="translate(4 616)">
            <ellipse cx="4021.5" cy="-18" fill="none" stroke="#000" rx="85.13" ry="18"/>
            <text x="4021.5" y="-12.95" font-family="Times,serif" font-size="14" text-anchor="middle">:common:exception</text>
        </g>
        <g stroke="#000" class="edge">
            <path fill="none" d="M1553.97 467.01c56.65 10.65 132.1 26.69 159.53 40.99 21.21 11.06 17.75 27.21 40 36 95.87 37.86 1751.97 32.9 1855 36 111.13 3.34 238.86 8.79 323.36 12.61"/>
            <path d="m3931.89 589.11 9.83 3.95-10.15 3.04z"/>
        </g>
        <g class="node" transform="translate(4 616)">
            <ellipse cx="1880.5" cy="-90" fill="none" stroke="#000" rx="121.98" ry="18"/>
            <text x="1880.5" y="-84.95" font-family="Times,serif" font-size="14" text-anchor="middle">:app:core:account-preferences</text>
        </g>
        <g stroke="#000" class="edge">
            <path fill="none" d="M1553.64 466.95c67.22 11.8 170.25 29.87 243.46 42.72"/>
            <path d="m1797.39 506.16 9.25 5.18-10.45 1.72z"/>
        </g>
        <g class="node" transform="translate(4 616)">
            <ellipse cx="1591.5" cy="-90" fill="none" stroke="#000" rx="72.85" ry="18"/>
            <text x="1591.5" y="-84.95" font-family="Times,serif" font-size="14" text-anchor="middle">:common:model</text>
        </g>
        <g stroke="#000" class="edge">
            <path fill="none" d="M1511.85 471.77c14.63 9.31 33.02 21.01 48.82 31.07"/>
            <path d="m1562.29 499.72 6.56 8.32-10.32-2.42z"/>
        </g>
        <g stroke="#000" class="edge">
            <path fill="none" d="M1411.39 536.03c32.1 2.99 68.72 6.04 102.11 7.97 749.11 43.32 1656.94 51.25 1932.08 52.69"/>
            <path d="m3445.55 593.19 9.98 3.55-10.02 3.45z"/>
        </g>
        <g stroke="#000" class="edge">
            <path fill="none" d="M6124.55 328.34c-6.33 18.66-13.15 48.73-2.05 71.66 5.75 11.87 15.59 21.89 25.99 29.92"/>
            <path d="m6150.32 426.93 6.12 8.64-10.18-2.94z"/>
        </g>
        <g stroke="#000" class="edge">
            <path fill="none" d="M6192.27 322.28c78.78 14.71 206.73 38.9 211.23 41.72 50.84 31.86 41.9 62.49 81 108 8.28 9.63 17.88 19.7 26.57 28.44"/>
            <path d="m6513.34 497.76 4.63 9.53-9.56-4.56z"/>
        </g>
        <g stroke="#000" class="edge">
            <path fill="none" d="M6120.15 328.16C6085.8 379.84 5983.86 531.29 5960.5 544c-35.62 19.38-602.3 42.03-818.8 50.03"/>
            <path d="m5142.05 597.52-10.12-3.13 9.86-3.87z"/>
        </g>
        <g stroke="#000" class="edge">
            <path fill="none" d="M6095.03 326.37c-106.91 44.15-429.7 171.17-711.53 217.63-318.47 52.5-1129.41 25.2-1452 36-111.8 3.74-240.98 9.43-322.33 13.18"/>
            <path d="m3609.68 596.66-10.15-3.03 9.83-3.96z"/>
        </g>
        <g class="node" transform="translate(4 616)">
            <ellipse cx="6275.5" cy="-234" fill="none" stroke="#000" rx="115.33" ry="18"/>
            <text x="6275.5" y="-228.95" font-family="Times,serif" font-size="14" text-anchor="middle">:app:core:calendar-compose</text>
        </g>
        <g stroke="#000" class="edge">
            <path fill="none" d="m6164.71 326.71 69.58 32.91"/>
            <path d="m6235.68 356.4 7.55 7.44-10.54-1.11z"/>
        </g>
        <g stroke="#000" class="edge">
            <path fill="none" d="M6254.77 468.17c63.85 12.88 160.28 32.33 222.12 44.8"/>
            <path d="m6477.42 509.51 9.11 5.41-10.49 1.45z"/>
        </g>
        <g stroke="#000" class="edge">
            <path fill="none" d="M6138.65 469.87c-28.04 9.17-62.98 22.22-92.15 38.13-23.41 12.77-22.95 26.86-48 36-79.2 28.9-641.24 45.64-856.45 51.05"/>
            <path d="m5142.43 598.54-10.08-3.25 9.91-3.75z"/>
        </g>
        <g stroke="#000" class="edge">
            <path fill="none" d="M5441.56 324.39c38.92 9.99 92.52 24.48 138.94 39.61 42.93 13.99 158.32 39.82 190 72 34.64 35.18 59.64 71.86 26 108-43.75 47-469.32 52.91-653.62 53.25"/>
            <path d="m5143.15 600.75-10.01-3.49 10-3.51z"/>
        </g>
        <g stroke="#000" class="edge">
            <path fill="none" d="M5716.61 327.11c69.07 38.88 227.65 140.31 155.89 216.89-24.71 26.37-527.73 44.39-730.43 50.6"/>
            <path d="m5142.23 598.1-10.1-3.19 9.89-3.81z"/>
        </g>
        <g stroke="#000" class="edge">
            <path fill="none" d="M6565.24 327.85c8.83 9.64 18.6 22.5 23.26 36.15 15.52 45.42 18.16 63.57 0 108-4.53 11.1-12.64 21.13-21.12 29.4"/>
            <path d="m6569.79 503.94-9.77 4.11 5.08-9.3z"/>
        </g>
        <g stroke="#000" class="edge">
            <path fill="none" d="M2955.91 239.16c-217.35.97-867.36 7.68-1073.41 52.84-136.48 29.91-286.44 102.62-356.6 139.21"/>
            <path d="m1527.56 434.29-10.48 1.55 7.23-7.75z"/>
        </g>
        <g stroke="#000" class="edge">
            <path fill="none" d="M2956.29 240.31c-231.94 4.54-964.25 20.98-1198.79 51.69-146.26 19.15-181.1 35.42-324 72-55.59 14.23-68.15 22.82-124 36-86.63 20.43-134.56-27.43-197 36-33.88 34.42-45.17 72.9-12 108 28.73 30.4 616.13 46.2 844.39 51.2"/>
            <path d="m1944.7 591.7 9.93 3.72-10.08 3.28z"/>
        </g>
        <g stroke="#000" class="edge">
            <path fill="none" d="M3098.56 240.54C3414.59 247.49 4678.6 276.2 4716.5 292c21.47 8.95 17.22 25.54 38 36 82.23 41.41 131.84-21.17 204 36 65.34 51.77 88.73 154.46 96.48 204.4"/>
            <path d="m5058.42 567.72-2.04 10.4-4.89-9.4z"/>
        </g>
        <g stroke="#000" class="edge">
            <path fill="none" d="M3096.22 243.07c201.97 11.95 793.89 46.97 1022.61 60.51"/>
            <path d="m4118.81 300.07 9.78 4.08-10.19 2.91z"/>
        </g>
        <g class="node" transform="translate(4 616)">
            <ellipse cx="2702.5" cy="-162" fill="none" stroke="#000" rx="101.51" ry="18"/>
            <text x="2702.5" y="-156.95" font-family="Times,serif" font-size="14" text-anchor="middle">:app:core:diary-database</text>
        </g>
        <g stroke="#000" class="edge">
            <path fill="none" d="M3007.9 255.58c-36.8 30.69-119.42 97.5-195.4 144.42-18.91 11.68-40.73 22.93-59.64 32.05"/>
            <path d="m2754.6 435.1-10.54 1.13 7.53-7.45z"/>
        </g>
        <g stroke="#000" class="edge">
            <path fill="none" d="M3229.8 313.57c-75.62 3.36-212.39 9.41-329.3 14.43-380.87 16.37-477.64-1.66-857 36-102.52 10.18-126.69 23.84-229 36-49.26 5.86-411.37-.46-445 36-10.85 11.76-8.25 22.29 0 36 17.64 29.3 40.94 15.09 68 36 17.18 13.27 13.56 26.34 33 36 80.84 40.18 335.8 49.99 473.56 52.32"/>
            <path d="m1943.94 592.82 9.94 3.66-10.05 3.34z"/>
        </g>
        <g stroke="#000" class="edge">
            <path fill="none" d="M3346.03 311.94c258.68 4.33 1289.29 23.3 1351.47 52.06 19.7 9.11 13.41 26.66 33 36 118.37 56.44 471.07-21.35 589 36 2.41 1.17 63.05 69.5 64 72 5.69 14.96 10.36 23.81 0 36-30.39 35.74-155.4 47.44-241.22 51.23"/>
            <path d="m5142.62 598.72-10.13-3.09 9.84-3.9z"/>
        </g>
        <g stroke="#000" class="edge">
            <path fill="none" d="M3343.5 315.61c99.68 8.39 314.36 27.23 495 48.39 16.53 1.94 34.27 4.25 50.99 6.54"/>
            <path d="m3889.95 367.07 9.43 4.84-10.39 2.09z"/>
        </g>
        <g stroke="#000" class="edge">
            <path fill="none" d="M3248.47 323.73c-57.54 18.47-168.75 53.04-264.97 76.27-64.34 15.54-137.97 29.44-193.14 39.11"/>
            <path d="m2791.17 442.52-10.45-1.73 9.25-5.17z"/>
        </g>
        <g stroke="#000" class="edge">
            <path fill="none" d="M2461.34 467.8c-31.18 9-71.53 22.58-104.84 40.2-23.57 12.47-23.62 25.19-48 36-59.78 26.5-132.67 39.79-188.24 46.43"/>
            <path d="m2120.86 593.88-10.33-2.34 9.54-4.61z"/>
        </g>
        <g stroke="#000" class="edge">
            <path fill="none" d="M2567.98 466.44c9.2 1.86 18.62 3.77 27.52 5.56 79.55 16.05 101.68 11.37 179 36 37.54 11.96 42.56 27.36 81 36 52.61 11.83 1722.26 43.95 2119.02 51.43"/>
            <path d="m4974.44 591.93 9.93 3.68-10.07 3.32z"/>
        </g>
        <g stroke="#000" class="edge">
            <path fill="none" d="M2565.06 467.19c10.07 1.91 20.54 3.63 30.44 4.81 130.99 15.58 1028.95 41.79 1331.07 50.27"/>
            <path d="m3926.51 518.76 9.9 3.78-10.1 3.22z"/>
        </g>
        <g stroke="#000" class="edge">
            <path fill="none" d="M2443.8 462.56c-108.84 12.15-323.62 36.13-453.04 50.58"/>
            <path d="m1991.49 516.58-10.32-2.37 9.55-4.59z"/>
        </g>
        <g stroke="#000" class="edge">
            <path fill="none" d="M1458.82 256.16c12.19 23.51 32.9 67.45 40.68 107.84 3.89 20.19.09 43.11-4.52 60.63"/>
            <path d="m1498.38 425.46-6.14 8.63-.58-10.58z"/>
        </g>
        <g stroke="#000" class="edge">
            <path fill="none" d="M1365.89 238.71C1107.67 239.06 326.9 249.77 105.5 364c-76.14 39.28-128.77 118.62-69 180 33.71 34.62 1522.25 49.12 1907.66 52.3"/>
            <path d="m1944.02 592.8 9.97 3.58-10.03 3.42z"/>
        </g>
        <g stroke="#000" class="edge">
            <path fill="none" d="M1532.89 239.92c503.14 5.6 3113.59 35.43 3150.61 52.08 19.8 8.9 16.01 22.49 33 36 76.33 60.69 114.32 47.75 191 108 52.61 41.34 103.69 101.17 130.86 135.05"/>
            <path d="m5040.95 568.69 3.48 10-8.96-5.65z"/>
        </g>
        <g stroke="#000" class="edge">
            <path fill="none" d="M1532.8 240.06c409.31 5.29 2210.23 29.42 2770.7 51.94 58.11 2.33 123.05 6.29 175.23 9.79"/>
            <path d="m4478.75 298.29 9.74 4.16-10.22 2.82z"/>
        </g>
        <g stroke="#000" class="edge">
            <path fill="none" d="M1434.99 256.02c-34.07 42.04-112.08 152.02-54.49 215.98 6.49 7.21 243.35 29.65 390.01 42.91"/>
            <path d="m1770.63 511.4 9.65 4.39-10.28 2.58z"/>
        </g>
        <g stroke="#000" class="edge">
            <path fill="none" d="M2912.21 463.11c-28.97 3.29-63.49 6.8-94.71 8.89-578.49 38.66-725.21 2.15-1304 36-29.48 1.72-61.47 4.31-90.65 6.95"/>
            <path d="m1423.17 518.43-10.27-2.57 9.64-4.4z"/>
        </g>
        <g stroke="#000" class="edge">
            <path fill="none" d="M2940.57 470.08c-51.95 20.5-150 56.58-237.07 73.92-204.09 40.64-449.05 50.37-578.5 52.54"/>
            <path d="m2125.16 600.04-10.05-3.35 9.95-3.65z"/>
        </g>
        <g stroke="#000" class="edge">
            <path fill="none" d="M3004.95 470.98c16.35 9.95 37.22 23.4 54.55 37.02 18.29 14.38 16.51 27.1 38 36 43.98 18.22 1507.52 45.05 1876.97 51.55"/>
            <path d="m4974.4 592.04 9.94 3.68-10.06 3.32z"/>
        </g>
        <g stroke="#000" class="edge">
            <path fill="none" d="M3030.16 467.05c10.34 1.97 21.14 3.76 31.34 4.95 9.23 1.08 1136.92 38.44 1479.45 49.78"/>
            <path d="m4540.93 518.27 9.87 3.83-10.11 3.17z"/>
        </g>
        <g class="node" transform="translate(4 616)">
            <ellipse cx="3223.5" cy="-90" fill="none" stroke="#000" rx="120.96" ry="18"/>
            <text x="3223.5" y="-84.95" font-family="Times,serif" font-size="14" text-anchor="middle">:app:core:holiday-preferences</text>
        </g>
        <g stroke="#000" class="edge">
            <path fill="none" d="M3025.11 468.33c38.71 10.84 93.74 26.25 136.65 38.26"/>
            <path d="m3162.52 503.17 8.69 6.07-10.57.67z"/>
        </g>
        <g class="node" transform="translate(4 616)">
            <ellipse cx="2580.5" cy="-90" fill="none" stroke="#000" rx="110.21" ry="18"/>
            <text x="2580.5" y="-84.95" font-family="Times,serif" font-size="14" text-anchor="middle">:app:core:holiday-database</text>
        </g>
        <g stroke="#000" class="edge">
            <path fill="none" d="M2920.55 466.02c-10.64 2.02-21.68 4.09-32.05 5.98-73.68 13.46-157.54 28.02-218.5 38.47"/>
            <path d="m2670.84 513.88-10.45-1.76 9.26-5.14z"/>
        </g>
        <g stroke="#000" class="edge">
            <path fill="none" d="M2164.21 387.02c-119.11 7.13-365.98 23.67-573.71 48.98-8.07.98-16.46 2.13-24.83 3.36"/>
            <path d="m1566.2 442.81-10.41-1.97 9.37-4.95z"/>
        </g>
        <g stroke="#000" class="edge">
            <path fill="none" d="M2164.48 387.36c-205.06 12.6-783.56 48.19-783.98 48.64-10.96 11.66-8.97 22.75 0 36 24.15 35.67 53.02 13.9 90 36 21.39 12.79 20.04 26.31 43 36 75.62 31.9 303.73 45.17 431.62 50.22"/>
            <path d="m1945.05 590.71 9.85 3.88-10.12 3.12z"/>
        </g>
        <g stroke="#000" class="edge">
            <path fill="none" d="M2307.87 386.2c251.37 11.12 1072.18 47.58 1085.63 49.8 170.28 28.14 202.66 80.26 373 108 233.65 38.05 959.21 49.38 1207.6 52.19"/>
            <path d="m4974.08 592.69 9.96 3.61-10.03 3.39z"/>
        </g>
        <g stroke="#000" class="edge">
            <path fill="none" d="M2307.58 386.18c79.18 3.47 210.1 9.16 322.92 13.82 404.42 16.7 505.61 18.64 910 36 92.44 3.97 197.95 8.9 272.04 12.43"/>
            <path d="m3812.36 444.91 9.82 3.97-10.15 3.02z"/>
        </g>
        <g stroke="#000" class="edge">
            <path fill="none" d="M2297.81 392c71.97 10.43 193.93 28.21 298.69 44 7.88 1.19 16.08 2.43 24.29 3.69"/>
            <path d="m2621.11 436.2 9.35 4.97-10.41 1.95z"/>
        </g>
        <g class="node" transform="translate(4 616)">
            <ellipse cx="2228.5" cy="-162" fill="none" stroke="#000" rx="109.19" ry="18"/>
            <text x="2228.5" y="-156.95" font-family="Times,serif" font-size="14" text-anchor="middle">:app:core:backup-database</text>
        </g>
        <g stroke="#000" class="edge">
            <path fill="none" d="M2234.76 400.3c-.31 7.29-.69 15.97-1.04 24.16"/>
            <path d="m2237.22 424.54-3.92 9.84-3.07-10.14z"/>
        </g>
        <g stroke="#000" class="edge">
            <path fill="none" d="M2760.7 313.42c-134.17 5.44-452.01 20.58-717.2 50.58-12.66 1.43-440.42 69.98-453 72l-22.84 3.67"/>
            <path d="m1568.3 443.12-10.43-1.87 9.32-5.04z"/>
        </g>
        <g stroke="#000" class="edge">
            <path fill="none" d="M2759.67 311.04c-407.82.38-2573.83 4.68-2621.17 52.96-233.68 238.34-46.19 131.19 378 180 279.06 32.11 1144.98 47.48 1427.71 51.74"/>
            <path d="m1944.16 592.24 9.95 3.64-10.05 3.35z"/>
        </g>
        <g stroke="#000" class="edge">
            <path fill="none" d="M2890.18 313.81c211.41 9.27 870.98 38.95 915.32 50.19 36.23 9.18 39.81 26.66 76 36 123.32 31.83 460.67-25.86 572 36 51.53 28.63 26.01 78.42 77 108 73.29 42.52 313.87 51.3 443.48 52.87"/>
            <path d="m4973.93 593.37 9.97 3.61-10.04 3.39z"/>
        </g>
        <g stroke="#000" class="edge">
            <path fill="none" d="M2887.94 315.89c156.85 12.3 567.56 44.49 745.89 58.47"/>
            <path d="m3634.03 370.87 9.69 4.27-10.24 2.71z"/>
        </g>
        <g stroke="#000" class="edge">
            <path fill="none" d="M2821.6 328.36c-5.03 19.22-15.3 50.31-33.1 71.64-10.31 12.36-24.26 22.84-37.72 31.14"/>
            <path d="m2752.83 433.99-10.4 2.03 6.86-8.07z"/>
        </g>
        <g stroke="#000" class="edge">
            <path fill="none" d="M4565.02 385.08c-106.57 3.53-332.55 10.74-523.52 14.92-544.59 11.91-1908.36-11.66-2451 36-8.73.77-17.83 1.83-26.87 3.06"/>
            <path d="m1564.15 442.52-10.4-2.04 9.4-4.88z"/>
        </g>
        <g stroke="#000" class="edge">
            <path fill="none" d="M4564.76 384.82C4256.48 393.9 2898.45 434.01 2893.5 436c-22.2 8.91-18.09 26.41-40 36-158.65 69.46-223.03-16.71-388 36-30.35 9.7-31.9 25.54-62 36-92.17 32.02-203.75 44.71-279.92 49.73"/>
            <path d="m2123.85 597.22-10.2-2.87 9.76-4.12z"/>
        </g>
        <g stroke="#000" class="edge">
            <path fill="none" d="M4674.3 393.87c9.35 2.07 19.07 4.2 28.2 6.13 79.81 16.91 116.31-14.98 180 36 41.01 32.82 10.38 71.34 48 108 17.92 17.46 42.41 29.49 65.17 37.61"/>
            <path d="m4996.52 578.2 8.37 6.49-10.59.15z"/>
        </g>
        <g stroke="#000" class="edge">
            <path fill="none" d="M4623.29 400.3c-1.37 7.38-3.01 16.18-4.54 24.45"/>
            <path d="m4622.22 425.21-5.27 9.2-1.61-10.47z"/>
        </g>
        <g stroke="#000" class="edge">
            <path fill="none" d="M4672.96 394.27c9.72 2.11 19.94 4.15 29.54 5.73 72.51 11.94 266.84 31.34 389.63 43.06"/>
            <path d="m5092.28 439.56 9.62 4.44-10.28 2.53z"/>
        </g>
        <g stroke="#000" class="edge">
            <path fill="none" d="M1635.65 166.24c-110.43.62-303.39 8.42-354.15 53.76-61.34 54.79 16.83 123.55-43 180-66.33 62.58-137.88-28.84-202 36-33.96 34.34-45.24 72.97-12 108 31.42 33.11 678.23 47.4 919.93 51.6"/>
            <path d="m1944.18 592.09 9.94 3.67-10.06 3.33z"/>
        </g>
        <g stroke="#000" class="edge">
            <path fill="none" d="M1792.81 167.86c356.32 4.06 1826.91 22.34 2286.69 52.14 298.87 19.37 376.43 12.72 670 72 54.58 11.02 195.4 38.66 240 72 57.15 42.73 59.57 73.56 71 144 3.24 19.98 2.64 42.82 1.29 60.36"/>
            <path d="m5065.27 568.66-4.4 9.64-2.57-10.28z"/>
        </g>
        <g stroke="red" stroke-width="2" class="edge">
            <path fill="none" d="M1791.81 169.39c340.03 10.51 1702.69 52.62 2086.57 64.49"/>
            <path fill="red" d="m3876.81 230.32 9.89 3.81-10.1 3.19z"/>
        </g>
        <g class="node" transform="translate(4 616)">
            <ellipse cx="255.5" cy="-162" fill="none" stroke="#000" rx="100.48" ry="18"/>
            <text x="255.5" y="-156.95" font-family="Times,serif" font-size="14" text-anchor="middle">:app:core:filter-database</text>
        </g>
        <g stroke="#000" class="edge">
            <path fill="none" d="M1644.63 174.48c-92.01 9.93-258.79 28.24-401.13 45.52-245.83 29.85-941.6-42.07-1105 144-10.56 12.02-8.75 22.61 0 36 10.75 16.45 27.86 27.82 45.87 35.68"/>
            <path d="m185.62 432.41 8.01 6.94-10.59-.43z"/>
        </g>
        <g stroke="#000" class="edge">
            <path fill="none" d="M2640.72 386.04c-235.5 10.45-997.93 44.51-1050.22 49.96-8.52.89-17.41 2.01-26.24 3.26"/>
            <path d="m1565.03 442.69-10.4-2.01 9.38-4.92z"/>
        </g>
        <g stroke="#000" class="edge">
            <path fill="none" d="M2639.55 384.27c-66.16 3.58-166.85 15.25-246.05 51.73-22.64 10.43-22.05 22.5-43 36-15.54 10.01-132.82 65.17-150 72-34.7 13.79-74.54 26.61-106.49 36.18"/>
            <path d="m2095.1 583.51-10.58-.51 8.59-6.2z"/>
        </g>
        <g stroke="#000" class="edge">
            <path fill="none" d="M2780.18 382.19c144.17-.5 482.07 4.31 760.32 53.81 166.14 29.56 197.6 79.92 364 108 205.91 34.74 840.38 48.03 1069.97 51.78"/>
            <path d="m4974.3 592.28 9.94 3.66-10.06 3.34z"/>
        </g>
        <g stroke="#000" class="edge">
            <path fill="none" d="M2778.59 385.67c193.44 7.51 756.86 29.63 1224.91 50.33 90.57 4.01 194.02 8.96 266.34 12.48"/>
            <path d="m4269.84 444.98 9.82 3.98-10.16 3.01z"/>
        </g>
        <g stroke="#000" class="edge">
            <path fill="none" d="M2708.76 400.3c-.31 7.29-.69 15.97-1.04 24.16"/>
            <path d="m2711.22 424.54-3.92 9.84-3.07-10.14z"/>
        </g>
        <g stroke="#000" class="edge">
            <path fill="none" d="M4289.24 316.72c117.08 8.74 343.93 26.62 536.26 47.28 31.13 3.34 529.05 62.87 559 72 111.11 33.87 230.59 103.41 287.74 138.98"/>
            <path d="m5673.95 571.92 6.61 8.28-10.33-2.35z"/>
        </g>
        <g stroke="#000" class="edge">
            <path fill="none" d="M4127.07 312.83c-387.91 8.56-1996.71 44.44-2007.57 51.17-43.24 26.82-59.53 61.89-38 108 10.55 22.58 32.45 13.42 43 36 6.77 14.5 7.94 22.11 0 36-8.26 14.45-22.17 25.36-36.62 33.4"/>
            <path d="m2089.7 580.4-10.5 1.43 7.32-7.67z"/>
        </g>
        <g stroke="#000" class="edge">
            <path fill="none" d="M4290.17 316.21c102.36 7.36 285.35 22.76 440.33 47.79 72.81 11.76 89.05 25.1 162 36 101.41 15.16 368.18-9.62 460 36 9.59 4.76 60.2 62 64 72 5.69 14.96 10.45 23.89 0 36-34.66 40.17-179.39 50.4-273.89 52.72"/>
            <path d="m5142.94 600.21-10.08-3.28 9.93-3.72z"/>
        </g>
        <g stroke="red" stroke-width="2" class="edge">
            <path fill="none" d="M4161.01 324.91c-40.97 11.52-99.21 27.89-142.2 39.98"/>
            <path fill="red" d="m4021.44 367.78-10.57-.66 8.68-6.07z"/>
        </g>
        <g stroke="#000" class="edge">
            <path fill="none" d="M4203.3 328.32c-13.81 31.61-46.61 99.48-90.8 143.68-12.29 12.3-27.97 22.97-42.63 31.44"/>
            <path d="m4071.71 506.43-10.44 1.79 7.04-7.91z"/>
        </g>
        <g stroke="#000" class="edge">
            <path fill="none" d="M4181.97 327.24c-33.22 18.63-90 49.57-140.47 72.76-26.44 12.15-56.51 24.19-81.45 33.73"/>
            <path d="m3961.34 436.98-10.59.27 8.11-6.82z"/>
        </g>
        <g stroke="#000" class="edge">
            <path fill="none" d="M4126.27 311.59c-182.68 2.07-602.82 11.28-651.77 52.41-31.23 26.24-56.24 144.59-36 180 8.48 14.84 22.92 25.93 37.77 34.03"/>
            <path d="m3477.82 574.89 7.38 7.6-10.51-1.34z"/>
        </g>
        <g stroke="#000" class="edge">
            <path fill="none" d="M4270.16 323.07c58.23 15.3 143.68 47.93 183.34 112.93 8.33 13.66 9.34 23.01 0 36-29.28 40.75-59.59 19.58-107 36-45.03 15.6-55.33 22.4-101 36-49.71 14.8-106.65 28.43-150.15 38.16"/>
            <path d="m4096.31 585.53-10.52-1.25 9-5.58z"/>
        </g>
        <g stroke="#000" class="edge">
            <path fill="none" d="M4032.01 385.05c180.25 5.58 654.61 22.58 809.49 50.95 105.78 19.37 130.36 34.1 231 72 36.87 13.88 42.9 25.99 81 36 167.41 43.98 371.86 52.34 479.15 53.41"/>
            <path d="m5632.5 593.91 9.98 3.58-10.03 3.42z"/>
        </g>
        <g stroke="#000" class="edge">
            <path fill="none" d="M3898.59 390.88c-28.39 3.29-62.39 6.87-93.09 9.12-104.79 7.7-846.94-1.76-945 36-23.26 8.96-20 26.41-43 36-158.62 66.15-218.27-5.66-385 36-40.2 10.04-46.2 24.46-86 36-76.53 22.2-166.5 36.26-230.1 44.27"/>
            <path d="m2117.09 591.72-10.35-2.25 9.49-4.7z"/>
        </g>
        <g stroke="#000" class="edge">
            <path fill="none" d="M4032.54 384.44c190.85 4.3 704.95 18.8 773.96 51.56 59.1 28.06 45.27 72.17 100 108 26.52 17.37 59.39 29.75 87.77 38.15"/>
            <path d="m4995.19 578.78 8.66 6.1-10.58.63z"/>
        </g>
        <g stroke="#000" class="edge">
            <path fill="none" d="M3977.95 399.85c8.76 9.82 19.03 22.87 25.55 36.15 9.33 19.01 14.91 42.31 18.11 60.3"/>
            <path d="m4025.04 495.59-1.86 10.43-5.05-9.31z"/>
        </g>
        <g stroke="red" stroke-width="2" class="edge">
            <path fill="none" d="M3948.43 399.95c-6.21 8.04-13.77 17.85-20.7 26.82"/>
            <path fill="red" d="m3931.56 427.55-8.88 5.78 3.33-10.06z"/>
        </g>
        <g stroke="#000" class="edge">
            <path fill="none" d="M3913.94 395.86c-32.37 9.45-75.81 23.5-112.44 40.14-90.88 41.28-190.05 104.9-240.12 138.47"/>
            <path d="m3563.54 577.24-10.25 2.68 6.34-8.49z"/>
        </g>
        <g stroke="#000" class="edge">
            <path fill="none" d="M3895.3 389.15c-30.79 6.57-64.74 19.9-83.8 46.85-9.24 13.06-6.12 21.22 0 36 24.61 59.41 93.42 92.06 146.44 108.94"/>
            <path d="m3958.66 577.5 8.54 6.27-10.58.42z"/>
        </g>
        <g stroke="#000" class="edge">
            <path fill="none" d="M4111.75 530.59c293.57 12.23 1250.74 52.08 1522.32 63.39"/>
            <path d="m5633.98 590.48 9.85 3.91-10.14 3.08z"/>
        </g>
        <g stroke="#000" class="edge">
            <path fill="none" d="M3938.95 530.41c-89.67 3.5-233.86 9.07-358.45 13.59-554.19 20.09-1220.22 42.25-1457.09 50.07"/>
            <path d="m2123.75 597.56-10.11-3.16 9.87-3.83z"/>
        </g>
        <g stroke="#000" class="edge">
            <path fill="none" d="M4108.72 532.64c194.44 13.18 676.57 45.85 868.79 58.87"/>
            <path d="m4977.67 588.01 9.74 4.17-10.21 2.82z"/>
        </g>
        <g stroke="red" stroke-width="2" class="edge">
            <path fill="none" d="M3954.03 537.07c-94.09 13.25-258.59 36.42-353.13 49.73"/>
            <path fill="red" d="m3603.11 590.03-10.39-2.08 9.41-4.86z"/>
        </g>
        <g stroke="#000" class="edge">
            <path fill="none" d="M4025.5 544.3v24.16"/>
            <path d="m4029 568.38-3.5 10-3.5-10z"/>
        </g>
        <g stroke="#000" class="edge">
            <path fill="none" d="M4670.35 315.78C4838.4 326.2 5205.6 356.72 5504.5 436c82.49 21.88 121.42 8.12 178 72 14.69 16.59 20.51 41.27 22.76 60.44"/>
            <path d="m5708.74 568.04-2.61 10.27-4.36-9.66z"/>
        </g>
        <g stroke="#000" class="edge">
            <path fill="none" d="M4490 317.49c-53.88 3.69-124.12 8.06-186.5 10.51-59.71 2.34-2100.08 4.72-2151 36-43.35 26.64-54.09 59.73-38 108 6.32 18.97 20.68 17.03 27 36 5.06 15.18 8.44 22.41 0 36-10.19 16.42-27.14 27.91-44.58 35.88"/>
            <path d="m2098.61 582.96-10.58.63 7.88-7.08z"/>
        </g>
        <g stroke="#000" class="edge">
            <path fill="none" d="M4642.16 323.85c108.61 21.82 325.44 64.83 402.34 76.15 76.48 11.26 277.22.72 346 36 38.1 19.54 48.78 31.98 64 72 5.69 14.96 10.54 23.96 0 36-20.38 23.29-204.73 39.86-314.58 47.76"/>
            <path d="m5140.28 595.25-10.22-2.79 9.72-4.19z"/>
        </g>
        <g stroke="#000" class="edge">
            <path fill="none" d="M4516.28 324.17c-125.17 26.49-406.67 86.06-538.36 113.93"/>
            <path d="m3978.79 441.49-10.51-1.35 9.06-5.5z"/>
        </g>
        <g stroke="#000" class="edge">
            <path fill="none" d="M4489.04 317c-132.71 9.08-389.53 27.35-607.54 47-26.78 2.41-56.01 5.36-82.22 8.12"/>
            <path d="m3799.68 375.6-10.31-2.43 9.57-4.53z"/>
        </g>
        <g stroke="#000" class="edge">
            <path fill="none" d="M4567.45 328.28c-10.25 18.34-22.44 47.92-11.95 71.72 5 11.35 13.77 21.32 23 29.47"/>
            <path d="m4580.66 426.71 5.54 9.03-9.96-3.6z"/>
        </g>
        <g stroke="#000" class="edge">
            <path fill="none" d="M4488.41 316.76c-53.69 3.38-123.19 7.68-184.91 11.24-74.65 4.31-603.16 6.81-672 36-86.57 36.71-117.42 57.8-155 144-6.39 14.67-6.05 21.19 0 36 4.46 10.92 12.38 20.8 20.71 29"/>
            <path d="m3499.41 570.27 5.03 9.32-9.75-4.15z"/>
        </g>
        <g stroke="#000" class="edge">
            <path fill="none" d="M4640.99 324c21.66 7.83 43.7 20.27 56.51 40 26.14 40.26 29.88 70.44 0 108-44.3 55.68-87.18 17.92-156 36-54.68 14.36-66.71 24.2-122 36-103.95 22.19-225.42 36.86-305.71 45.03"/>
            <path d="m4114.54 592.47-10.3-2.48 9.6-4.48z"/>
        </g>
        <g stroke="#000" class="edge">
            <path fill="none" d="M4702.28 538.74c12.63 2.01 25.82 3.89 38.22 5.26 331.98 36.66 731.07 48.35 892.71 51.74"/>
            <path d="m5632.99 592.23 9.93 3.71-10.07 3.29z"/>
        </g>
        <g stroke="#000" class="edge">
            <path fill="none" d="M4553.76 530.99c-82.12 3.76-210.21 9.35-321.26 13.01-818.76 27.01-1809.51 45.98-2108.44 51.41"/>
            <path d="m2124.45 598.9-10.06-3.31 9.93-3.69z"/>
        </g>
        <g stroke="#000" class="edge">
            <path fill="none" d="M4705.05 538.09c77.27 12.88 204.18 34.03 283.06 47.18"/>
            <path d="m4988.6 581.8 9.29 5.1-10.44 1.81z"/>
        </g>
        <g stroke="#000" class="edge">
            <path fill="none" d="M4555.52 532.23c-206.87 13.05-743.46 46.89-947.07 59.73"/>
            <path d="m3608.68 595.45-10.2-2.86 9.76-4.13z"/>
        </g>
        <g stroke="#000" class="edge">
            <path fill="none" d="M4573.57 538.44c-12.29 1.99-25.06 3.94-37.07 5.56-147.39 19.91-319.57 36.37-421.72 45.42"/>
            <path d="m4115.37 592.89-10.27-2.61 9.65-4.37z"/>
        </g>
        <g stroke="#000" class="edge">
            <path fill="none" d="M3991.63 458.69c204 9.18 710.72 33.44 743.87 49.31 19.58 9.37 13.39 26.7 33 36 38.9 18.44 651.56 42.51 865.2 50.38"/>
            <path d="m5633.7 590.88 9.86 3.87-10.12 3.13z"/>
        </g>
        <g stroke="#000" class="edge">
            <path fill="none" d="M3847.18 467.21c-100.88 19.86-310.43 58.76-489.68 76.79-461.52 46.42-1017.46 52.59-1232.23 53.12"/>
            <path d="m2125.29 600.62-10.01-3.48 9.99-3.52z"/>
        </g>
        <g stroke="#000" class="edge">
            <path fill="none" d="M3905.79 472.16c-.99 20.57.97 54.43 21.71 71.84 39.97 33.55 791.9 47.91 1047.09 51.83"/>
            <path d="m4974.55 592.33 9.94 3.65-10.05 3.35z"/>
        </g>
        <g stroke="red" stroke-width="2" class="edge">
            <path fill="none" d="M3935.17 471.41c15.71 9.33 35.61 21.13 52.72 31.28"/>
            <path fill="red" d="m3988.18 498.79 6.82 8.11-10.39-2.09z"/>
        </g>
        <g stroke="#000" class="edge">
            <path fill="none" d="M3872.45 470.75c-41.92 18.57-114.38 49.87-177.95 73.25-36.35 13.37-77.86 26.62-110.28 36.53"/>
            <path d="m3585.63 583.76-10.58-.44 8.55-6.26z"/>
        </g>
        <g stroke="#000" class="edge">
            <path fill="none" d="M3898.44 472.3c-8.66 19.17-18.43 50.21-3.94 71.7 12.67 18.79 33.26 30.93 54.4 38.76"/>
            <path d="m3949.83 579.38 8.36 6.51-10.59.12z"/>
        </g>
        <g stroke="#000" class="edge">
            <path fill="none" d="M3787.02 391.1c29.1 3.2 63.41 6.63 94.48 8.9 191.44 13.96 674.64-.93 863 36 46.35 9.09 55.16 21.16 100 36 52.46 17.36 66.32 19.33 119 36 48.64 15.39 59.01 25.8 109 36 199.79 40.75 441.11 50.29 560.18 52.44"/>
            <path d="m5632.71 592.94 9.94 3.67-10.05 3.33z"/>
        </g>
        <g stroke="#000" class="edge">
            <path fill="none" d="M3640.67 384.74c-270.71 6.23-1157.84 28.31-1214.17 51.26-22.15 9.02-20.03 22.84-40 36-31.88 21.01-44.53 17.63-78 36-25.94 14.23-28.8 24.34-56 36-45.52 19.51-99.59 32.71-142.5 41.06"/>
            <path d="m2110.75 588.48-10.48-1.58 9.17-5.3z"/>
        </g>
        <g stroke="#000" class="edge">
            <path fill="none" d="M3787.02 391.07c29.1 3.18 63.41 6.63 94.48 8.93 181.01 13.42 642.94-18.74 816 36 84.99 26.88 87.57 71.74 169 108 39.96 17.8 87.32 30.95 125 39.7"/>
            <path d="m4991.91 580.2 8.97 5.63-10.52 1.2z"/>
        </g>
        <g stroke="#000" class="edge">
            <path fill="none" d="M3734.29 400.08c21.63 23.05 59.79 62.33 77.21 71.92 39.08 21.51 86.93 34.42 127.46 42.1"/>
            <path d="m3939.48 510.64 9.22 5.22-10.46 1.66z"/>
        </g>
        <g stroke="#000" class="edge">
            <path fill="none" d="M3758.58 397.85c28.4 10.51 66.75 24.72 97.42 36.08"/>
            <path d="m3856.92 430.53 8.16 6.76-10.59-.19z"/>
        </g>
        <g stroke="#000" class="edge">
            <path fill="none" d="M3682.5 398.45c-18.26 9.07-39.91 21.84-56 37.55-40.46 39.5-70.95 99.03-86.5 133.55"/>
            <path d="m3543.33 570.69-7.23 7.75.82-10.56z"/>
        </g>
        <g stroke="#000" class="edge">
            <path fill="none" d="M3725.86 400.3c15.01 33.14 52.37 105.66 106.64 143.7 31.72 22.23 72.41 35.15 108.24 42.65"/>
            <path d="m3941.07 583.15 9.13 5.37-10.48 1.5z"/>
        </g>
        <g stroke="#000" class="edge">
            <path fill="none" d="M4664.23 467.61c80.21 19.44 241.47 56.58 380.27 76.39 212.86 30.38 466.89 44.62 589.16 50.12"/>
            <path d="m5633.72 590.62 9.84 3.94-10.15 3.05z"/>
        </g>
        <g stroke="#000" class="edge">
            <path fill="none" d="M4545.61 462.02c-93.25 10.06-255.92 29.2-313.11 45.98-36.64 10.75-40.81 27.34-78 36-100.09 23.3-1638.54 46.28-2029.95 51.77"/>
            <path d="m2124.86 599.26-10.04-3.36 9.95-3.64z"/>
        </g>
        <g stroke="#000" class="edge">
            <path fill="none" d="M4580.12 470.57c-14.68 8.76-30.43 21.22-38.62 37.43-7.22 14.28-10.72 24.12 0 36 28.45 31.51 294.51 45.34 433.42 50.45"/>
            <path d="m4974.95 590.95 9.87 3.85-10.12 3.14z"/>
        </g>
        <g stroke="#000" class="edge">
            <path fill="none" d="M4547.48 462.86c-106.81 12.72-317.46 37.79-435.9 51.89"/>
            <path d="m4112.26 518.2-10.34-2.3 9.51-4.66z"/>
        </g>
        <g stroke="#000" class="edge">
            <path fill="none" d="M4552.21 464.77c-55.25 9.33-138.5 24.69-209.71 43.23-49.78 12.96-59.54 26-110 36-117.19 23.23-464.14 41.82-622.97 49.36"/>
            <path d="m3610.09 596.84-10.15-3.03 9.82-3.97z"/>
        </g>
        <g stroke="#000" class="edge">
            <path fill="none" d="M4575.15 469.92c-51.36 19.49-145.65 53.53-228.65 74.08-79.56 19.7-172.06 34.09-237.27 42.87"/>
            <path d="m4110.07 590.29-10.37-2.15 9.45-4.79z"/>
        </g>
        <g stroke="#000" class="edge">
            <path fill="none" d="M4070.45 240.38c160.53 3.33 504.36 14.55 792.05 51.62 162.7 20.96 571.07 84.65 724 144 57.63 22.37 88.34 18.32 119 72 10.37 18.16 10.06 42 7.46 60.43"/>
            <path d="m5716.43 568.91-5.17 9.25-1.73-10.45z"/>
        </g>
        <g stroke="#000" class="edge">
            <path fill="none" d="M3888.95 240.83c-416.04 8.44-2125.18 43.56-2151.45 51.17-29.87 8.65-31.25 24.15-60 36-123.57 50.95-160.92 45.85-292 72-51.81 10.33-197.4-1.11-235 36-34.37 33.92-45.13 72.86-12 108 27.36 29.03 584.46 45.53 806.15 50.97"/>
            <path d="m1944.47 591.47 9.92 3.74-10.09 3.26z"/>
        </g>
        <g stroke="#000" class="edge">
            <path fill="none" d="M4070.02 241.01c145.09 4.16 438.41 16.43 684.48 50.99 37.86 5.32 641.8 121.89 673 144 42.29 29.97 78.24 69.09 44 108-21.5 24.43-217.08 40.72-331.22 48.23"/>
            <path d="m5140.53 595.72-10.2-2.85 9.75-4.14z"/>
        </g>
        <g stroke="red" stroke-width="2" class="edge">
            <path fill="none" d="M4027.93 253.67c36.4 11.03 86.4 26.19 124.87 37.84"/>
            <path fill="red" d="m4151.87 287.58 8.56 6.25-10.59.45z"/>
        </g>
        <g stroke="#000" class="edge">
            <path fill="none" d="m3977.29 256.41-12.19 96.17"/>
            <path d="m3968.59 352.91-4.73 9.48-2.21-10.36z"/>
        </g>
        <g stroke="#000" class="edge">
            <path fill="none" d="M3991.29 256.23c15.12 23.24 40.54 66.5 50.21 107.77 10.73 45.79.58 100.56-7.73 132.97"/>
            <path d="m4037.22 497.64-5.99 8.74-.77-10.57z"/>
        </g>
        <g stroke="#000" class="edge">
            <path fill="none" d="M3899.04 246.79c-133.33 14.64-391.27 50.94-450.54 117.21-53.7 60.03-62.67 111.07-21 180 9.76 16.14 26.23 27.6 43.08 35.64"/>
            <path d="m3471.9 576.4 7.77 7.21-10.57-.79z"/>
        </g>
        <g stroke="#000" class="edge">
            <path fill="none" d="M3893.3 244.16c-118.17 11.15-310.62 46.23-261.8 155.84 38.92 87.39 75.04 100.01 160 144 45.27 23.44 100.73 36.58 146.3 43.91"/>
            <path d="m3938.31 584.45 9.35 4.97-10.42 1.95z"/>
        </g>
        <g stroke="#000" class="edge">
            <path fill="none" d="M4436.08 462.15c99.88 10.02 271.58 28.91 332.42 45.85 38.34 10.68 43.32 26.63 82 36 147.53 35.75 603.08 48.17 782.39 51.75"/>
            <path d="m5632.86 592.25 9.93 3.69-10.07 3.31z"/>
        </g>
        <g stroke="#000" class="edge">
            <path fill="none" d="M4300.86 466.7c-51.29 10.61-120.17 26.77-144.36 41.3-18.61 11.18-13.24 27.01-33 36-46.13 21-1604.6 45.74-1999.01 51.67"/>
            <path d="m2124.72 599.17-10.05-3.35 9.95-3.65z"/>
        </g>
        <g stroke="#000" class="edge">
            <path fill="none" d="M4362.57 472.3c2.28 20.7 9.46 54.7 31.93 71.7 45.27 34.25 411.76 47.14 580.06 51.29"/>
            <path d="m4974.41 591.78 9.91 3.74-10.08 3.26z"/>
        </g>
        <g stroke="#000" class="edge">
            <path fill="none" d="M4302.97 467.19c-57.26 11.93-144.57 30.12-205.92 42.9"/>
            <path d="m4097.89 513.49-10.5-1.38 9.07-5.47z"/>
        </g>
        <g stroke="#000" class="edge">
            <path fill="none" d="M4301.98 466.96c-33.17 8.32-74.34 21.49-107.48 41.04-20.04 11.82-16.77 26.49-38 36-48.75 21.85-388.66 41.21-547.08 49.16"/>
            <path d="m3610.01 596.64-10.16-3 9.81-4z"/>
        </g>
        <g stroke="#000" class="edge">
            <path fill="none" d="M4334.49 471.42c-32.4 19.21-88.78 51.12-139.99 72.58-34.25 14.35-73.79 26.96-106.01 36.27"/>
            <path d="m4089.45 583.63-10.58-.62 8.66-6.11z"/>
        </g>
        <g stroke="#000" class="edge">
            <path fill="none" d="M303.44 399.83C378.98 439.51 564.61 536.14 595.5 544c130.01 33.06 1053.53 47.94 1348.6 51.89"/>
            <path d="m1944.12 592.38 9.96 3.64-10.05 3.36z"/>
        </g>
        <g stroke="#000" class="edge">
            <path fill="none" d="M268.53 400.3c-1.26 7.38-2.77 16.18-4.19 24.45"/>
            <path d="m267.83 425.14-5.14 9.26-1.76-10.44z"/>
        </g>
        <g class="node" transform="translate(4 616)">
            <ellipse cx="672.5" cy="-162" fill="none" stroke="#000" rx="80.01" ry="18"/>
            <text x="672.5" y="-156.95" font-family="Times,serif" font-size="14" text-anchor="middle">:library:koin-room</text>
        </g>
        <g stroke="#000" class="edge">
            <path fill="none" d="M349.11 396.41c73.25 12.67 182.28 31.51 254.09 43.92"/>
            <path d="m603.65 436.86 9.26 5.15-10.45 1.74z"/>
        </g>
        <g class="node" transform="translate(4 616)">
            <ellipse cx="831.5" cy="-162" fill="none" stroke="#000" rx="60.56" ry="18"/>
            <text x="831.5" y="-156.95" font-family="Times,serif" font-size="14" text-anchor="middle">:library:room</text>
        </g>
        <g stroke="#000" class="edge">
            <path fill="none" d="M360.89 394.77c14.57 1.82 29.5 3.63 43.61 5.23 160.21 18.22 202.05 8.91 361 36 4.85.83 9.86 1.8 14.86 2.86"/>
            <path d="m780.78 435.36 9 5.58-10.52 1.26z"/>
        </g>
        <g stroke="#000" class="edge">
            <path fill="none" d="M860.66 399.93c14.91 9.22 32.22 21.68 44.84 36.07 35.66 40.65 10.51 78.78 56 108 81.59 52.4 738.63 54.64 982.41 53.64"/>
            <path d="m1943.67 594.14 10.02 3.45-9.99 3.55z"/>
        </g>
        <g stroke="#000" class="edge">
            <path fill="none" d="M921.92 395.25c16.17 1.82 32.85 3.51 48.58 4.75 422.98 33.42 530.16 16.31 954 36 64.7 3.01 137 6.97 195.29 10.31"/>
            <path d="m2119.96 442.81 9.79 4.07-10.19 2.92z"/>
        </g>
        <g stroke="#000" class="edge">
            <path fill="none" d="M792.85 399.77c-21.52 9.84-48.88 22.36-71.66 32.78"/>
            <path d="m722.68 435.72-10.55.98 7.64-7.34z"/>
        </g>
        <g stroke="#000" class="edge">
            <path fill="none" d="M830.98 400.3c.63 7.29 1.37 15.97 2.07 24.16"/>
            <path d="m836.54 424.13-2.63 10.26-4.35-9.67z"/>
        </g>
        <g stroke="#000" class="edge">
            <path fill="none" d="M1788.57 472.12c16.77 9.25 37.68 20.77 55.68 30.7"/>
            <path d="m1845.8 499.67 7.07 7.89-10.45-1.76z"/>
        </g>
        <g class="node" transform="translate(4 616)">
            <ellipse cx="2953.5" cy="-90" fill="none" stroke="#000" rx="93.32" ry="18"/>
            <text x="2953.5" y="-84.95" font-family="Times,serif" font-size="14" text-anchor="middle">:library:koin-datastore</text>
        </g>
        <g stroke="#000" class="edge">
            <path fill="none" d="M1901.47 461.78c239 11.38 707.71 34.24 873.03 46.22 29.5 2.14 61.63 4.96 90.62 7.68"/>
            <path d="m2865.35 512.19 9.62 4.43-10.28 2.54z"/>
        </g>
        <g stroke="#000" class="edge">
            <path fill="none" d="M1038.49 397.65c-20.14 7.9-40.09 19.97-51.99 38.35-26.08 40.3-33.07 73.21 0 108 32.76 34.46 709.33 47.97 957.64 51.77"/>
            <path d="m1944.18 592.27 9.94 3.66-10.05 3.34z"/>
        </g>
        <g stroke="#000" class="edge">
            <path fill="none" d="M1229.1 382.48c256.52.01 861.97 5.65 1367.4 53.52 8.96.85 18.3 1.95 27.58 3.19"/>
            <path d="m2624.43 435.7 9.42 4.84-10.38 2.09z"/>
        </g>
        <g stroke="#000" class="edge">
            <path fill="none" d="M1019.39 395.5c-68.64 10.27-167.61 25.52-253.89 40.5-6.25 1.09-12.75 2.25-19.25 3.45"/>
            <path d="m747.29 442.81-10.47-1.61 9.19-5.27z"/>
        </g>
        <g stroke="#000" class="edge">
            <path fill="none" d="M1045.8 398.28c-46.03 11.97-109.65 28.53-154.83 40.29"/>
            <path d="m891.92 441.93-10.55-.87 8.79-5.9z"/>
        </g>
        <g stroke="#000" class="edge">
            <path fill="none" d="M3294.58 470.71c91.89 20.78 262.37 56.73 409.92 73.29 247.94 27.83 1014.58 45.93 1270.13 51.32"/>
            <path d="m4974.61 591.81 9.93 3.71-10.08 3.29z"/>
        </g>
        <g stroke="#000" class="edge">
            <path fill="none" d="M3227.5 472.3v24.16"/>
            <path d="m3231 496.38-3.5 10-3.5-10z"/>
        </g>
        <g stroke="#000" class="edge">
            <path fill="none" d="M3165.9 470.97c-42.81 11.1-99.77 25.87-143.32 37.16"/>
            <path d="m3023.55 511.49-10.56-.88 8.81-5.9z"/>
        </g>
        <g stroke="#000" class="edge">
            <path fill="none" d="M543 400.16c-2.98 19.94-4.33 52.54 13.5 71.84 114.59 124 205.36 51.9 373 72 374.69 44.92 825.16 52.11 1014.36 53.02"/>
            <path d="m1943.62 593.52 9.99 3.54-10.02 3.46z"/>
        </g>
        <g stroke="#000" class="edge">
            <path fill="none" d="M548.95 400.26c4 21.01 14.11 55.65 38.55 71.74 66.29 43.63 1348.67 33.82 1428 36 155.6 4.29 335.12 9.73 450.23 13.29"/>
            <path d="m2465.61 517.78 9.89 3.81-10.11 3.19z"/>
        </g>
        <g stroke="#000" class="edge">
            <path fill="none" d="M577.97 399.95c17.63 9.49 39.78 21.42 58.62 31.56"/>
            <path d="m638.18 428.39 7.15 7.82-10.47-1.65z"/>
        </g>
        <g stroke="#000" class="edge">
            <path fill="none" d="M609.75 398.29C653.5 408.87 713.04 423.28 765.5 436c4.25 1.03 8.65 2.1 13.08 3.17"/>
            <path d="m779.2 435.72 8.89 5.76-10.54 1.04z"/>
        </g>
        <g stroke="#000" class="edge">
            <path fill="none" d="M6092.85 255.95c5.8 7.96 12.85 17.64 19.34 26.54"/>
            <path d="m6114.96 280.36 3.06 10.14-8.71-6.02z"/>
        </g>
        <g stroke="#000" class="edge">
            <path fill="none" d="M6161.65 240.69c148.54 3.95 451.93 16.25 483.85 51.31 10.77 11.83 10.89 24.28 0 36-74.32 79.98-415.68-43.98-490 36-16.26 17.49-3.36 43.56 10.97 62.97"/>
            <path d="m6169.13 424.69 3.44 10.02-8.94-5.69z"/>
        </g>
        <g stroke="#000" class="edge">
            <path fill="none" d="M6022.06 250.91c-10.48 1.88-21.32 3.68-31.56 5.09-49.32 6.81-356.06 32.58-512.07 45.51"/>
            <path d="m5478.77 304.99-10.26-2.66 9.68-4.31z"/>
        </g>
        <g stroke="#000" class="edge">
            <path fill="none" d="M6161.56 240.44c152.26 3.54 468.77 15.23 501.94 51.56 38.37 42.02 30.25 67.98-55 180-9.36 12.3-22.34 23.06-34.7 31.6"/>
            <path d="m6576.08 506.29-10.28 2.58 6.43-8.43z"/>
        </g>
        <g stroke="#000" class="edge">
            <path fill="none" d="M6161.71 240.37c173.56 3.58 575.47 15.61 706.79 51.63 84.53 23.18 176 1.35 176 89v74c0 128.23-984.39 140.96-1264.47 141.98"/>
            <path d="m5780.32 600.48-10.01-3.47 9.99-3.53z"/>
        </g>
        <g stroke="#000" class="edge">
            <path fill="none" d="M6020.5 250.48a5159 5159 0 0 1-30 5.52c-93.19 16.79-116.74 19.57-210 36-7.16 1.26-14.62 2.59-22.07 3.92"/>
            <path d="m5759.12 299.35-10.47-1.67 9.23-5.22z"/>
        </g>
        <g stroke="#000" class="edge">
            <path fill="none" d="M6023.59 251.31c-10.94 1.92-22.33 3.62-33.09 4.69-716.53 71.1-2521.2-6.35-3240 36-150.15 8.85-565.27-32.97-673 72-57.81 56.32-4.94 101.57-24 180-2.01 8.26-4.85 17.03-7.72 25.01"/>
            <path d="m2049.12 570.08-6.8 8.12.25-10.59z"/>
        </g>
        <g stroke="#000" class="edge">
            <path fill="none" d="M6161.84 240.12c157.29 3.02 490.84 13.89 525.66 51.88 79.58 86.83 18.14 190.01-82 252-7.85 4.86-1143.6 40.47-1463.82 50.42"/>
            <path d="m5142.25 597.91-10.1-3.19 9.88-3.81z"/>
        </g>
        <g stroke="#000" class="edge">
            <path fill="none" d="M6147.98 248.43c73.12 10.32 193.19 27.52 296.52 43.57 8 1.24 16.35 2.57 24.68 3.91"/>
            <path d="m6469.69 292.45 9.31 5.06-10.44 1.85z"/>
        </g>
        <g stroke="#000" class="edge">
            <path fill="none" d="M6023.57 251.2c-10.93 1.93-22.32 3.66-33.07 4.8-670.68 70.82-843.24 6.24-1517 36-57.79 2.55-122.65 6.73-173.5 10.31"/>
            <path d="m4300.44 305.78-10.22-2.78 9.73-4.2z"/>
        </g>
        <g stroke="#000" class="edge">
            <path fill="none" d="M6040.79 254.13c-57.5 21.1-167.76 58.47-265.29 73.87-5.42.86-1378.91 40.47-1732.01 50.64"/>
            <path d="m4043.71 382.13-10.1-3.21 9.9-3.78z"/>
        </g>
        <g stroke="#000" class="edge">
            <path fill="none" d="M5239.8 244.82c38.49 3.41 88.38 7.72 132.7 11.18 242.65 18.94 529.21 38.07 670.76 47.31"/>
            <path d="m6043.18 299.8 9.75 4.14-10.21 2.84z"/>
        </g>
        <g stroke="#000" class="edge">
            <path fill="none" d="M5190.86 255.76c20.57 21.17 59.3 56.7 100.64 72.24 231.37 86.99 328.46-62.89 555 36 21.32 9.31 17.21 25.56 38 36 9.89 4.97 133.41 25.5 220.19 39.5"/>
            <path d="m6105.06 436.01 9.32 5.05-10.43 1.86z"/>
        </g>
        <g stroke="#000" class="edge">
            <path fill="none" d="M5217.13 252.75c32.79 10.82 78.79 26.01 114.73 37.88"/>
            <path d="m5332.83 287.26 8.4 6.46-10.59.19z"/>
        </g>
        <g stroke="#000" class="edge">
            <path fill="none" d="M5180.42 256.13c6.99 20.86 21.92 55.36 48.08 71.87 73.61 46.44 303.71 24.6 390 36 23.36 3.09 396.62 62.1 418 72 22.62 10.48 20.1 26.15 43 36 67.94 29.23 276.75 43.9 387.05 49.79"/>
            <path d="m6466.57 518.28 9.8 4.02-10.17 2.97z"/>
        </g>
        <g stroke="#000" class="edge">
            <path fill="none" d="M5173.29 256.26c-1.53 20.35-.5 53.66 19.21 71.74 57.62 52.85 274.7 14.96 350 36 36 10.06 41.21 22.34 76 36 49.46 19.42 82.59-6.86 114 36 29.05 39.63 6.76 99.52-10.61 133.99"/>
            <path d="m5725.18 571.26-7.75 7.22 1.56-10.48z"/>
        </g>
        <g stroke="#000" class="edge">
            <path fill="none" d="M5235.37 247.2c92.59 12.69 270.53 37.06 373.09 51.11"/>
            <path d="m5608.74 294.81 9.43 4.83-10.38 2.11z"/>
        </g>
        <g stroke="#000" class="edge">
            <path fill="none" d="M5106.81 240.08c-475.36 7.45-3257.09 51.09-3262.31 51.92-40.3 6.39-311.27 98.71-351 108-97.33 22.75-130.12-3.35-222 36-48.7 20.86-71.43 24.56-95 72-7.12 14.33-10.96 24.34 0 36 26.03 27.69 554.03 44.87 768.55 50.74"/>
            <path d="m1944.85 591.23 9.9 3.77-10.09 3.23z"/>
        </g>
        <g stroke="#000" class="edge">
            <path fill="none" d="M5160.53 256.06c-15.28 19.53-34.35 51.45-16.03 71.94 48 53.67 254.06 12.17 322 36 28.27 9.92 99.54 45.76 114 72 12.33 22.36-5.64 102.02-12 108-30.44 28.62-290.47 43.76-427.01 49.81"/>
            <path d="m5141.93 597.29-10.14-3.06 9.83-3.93z"/>
        </g>
        <g stroke="#000" class="edge">
            <path fill="none" d="M5238.88 245.18c38.59 3.58 88.91 7.94 133.62 10.82 376.89 24.24 471.75 18.17 849 36 77.17 3.65 164.59 8.23 229.46 11.72"/>
            <path d="m6451.09 300.22 9.8 4.03-10.18 2.96z"/>
        </g>
        <g stroke="#000" class="edge">
            <path fill="none" d="M5109.93 243.76c-168.47 12.22-616.73 44.73-809.37 58.71"/>
            <path d="m4300.81 305.96-10.23-2.77 9.72-4.21z"/>
        </g>
        <g stroke="#000" class="edge">
            <path fill="none" d="M5107.04 240.58c-219.23 5.33-895.1 23.83-989.54 51.42-47.26 13.81-95.57 44.45-125.66 65.9"/>
            <path d="m3994.11 360.57-10.15 3.05 6.04-8.71z"/>
        </g>
        <g stroke="#000" class="edge">
            <path fill="none" d="M6288.92 183.89c-20.32 18.28-54.05 48.03-84.42 72.11-12.81 10.16-27.31 20.84-40 29.94"/>
            <path d="m6166.63 288.72-10.18 2.95 6.12-8.65z"/>
        </g>
        <g stroke="#000" class="edge">
            <path fill="none" d="M6393.78 170.58c92.12 5.4 230.54 18.51 272.72 49.42 40.7 29.83 66.16 68.31 35 108-50.5 64.31-280.04 99.75-414.01 115.29"/>
            <path d="m6288.26 446.72-10.34-2.34 9.54-4.61z"/>
        </g>
        <g stroke="#000" class="edge">
            <path fill="none" d="M6219.38 168.76c-227.36 4.96-818.06 20.74-846.88 51.24-15.35 16.24-8.94 42-.26 61.64"/>
            <path d="m5375.31 279.93 1.21 10.53-7.51-7.47z"/>
        </g>
        <g stroke="#000" class="edge">
            <path fill="none" d="M6395.94 168.38c100.94 3.35 257.85 14.58 302.56 51.62 88.9 73.65 22.47 174.4-63 252-15.56 14.13-35.58 25.76-53.54 34.49"/>
            <path d="m6583.59 509.59-10.55 1.06 7.59-7.4z"/>
        </g>
        <g stroke="#000" class="edge">
            <path fill="none" d="M6396.33 167.24c111.78 2.14 308.89 12.08 472.17 52.76 99.95 24.9 214-14.01 214 89v146c0 32.99 132.02 11.89-172 89-109.18 27.69-886.54 46.3-1130.77 51.51"/>
            <path d="m5780.1 599-10.07-3.29 9.92-3.71z"/>
        </g>
        <g stroke="#000" class="edge">
            <path fill="none" d="M6220.08 169.62c-122.67 4.8-338.82 17.73-409.58 50.38-21.12 9.75-19.55 21.82-38 36-14.71 11.31-31.96 22.33-47.13 31.36"/>
            <path d="m5727.46 290.19-10.4 2.04 6.86-8.08z"/>
        </g>
        <g stroke="#000" class="edge">
            <path fill="none" d="M6218.64 167.33c-662.6 2.5-4808.28 19.48-4862.14 52.67-76.66 47.24-21.05 125.86-93 180-65.54 49.32-126.8-25.56-181 36-31.75 36.07-38.02 73.1-5 108 29.52 31.2 634.19 46.55 866.85 51.32"/>
            <path d="m1944.37 591.82 9.93 3.7-10.07 3.3z"/>
        </g>
        <g stroke="#000" class="edge">
            <path fill="none" d="M6396.14 167.59c107.87 2.48 281.8 12.75 331.36 52.41 116.15 92.95 51.83 263.33-84 324-8.65 3.87-1176.43 40.33-1501.74 50.42"/>
            <path d="m5142.16 597.91-10.1-3.18 9.89-3.81z"/>
        </g>
        <g stroke="#000" class="edge">
            <path fill="none" d="M6335.03 183.29c42.99 25.44 126.16 74.64 174.71 103.37"/>
            <path d="m6511.42 283.59 6.83 8.1-10.39-2.08z"/>
        </g>
        <g stroke="#000" class="edge">
            <path fill="none" d="M6218.87 167.57c-272.62 2.18-1082.7 12.03-1121.37 52.43-28.42 29.69 25.46 98.56 35 108 26.56 26.29 43.36 17.79 76 36 51.35 28.65 82.93 20.33 111 72 7.64 14.06 10.87 24.26 0 36-38.66 41.78-402.42 50.7-581.86 52.55"/>
            <path d="m4737.9 528.05-10.03-3.4 9.96-3.6z"/>
        </g>
        <g stroke="#000" class="edge">
            <path fill="none" d="M6220.14 169.63c-362.98 10.91-1751.13 52.65-2139.28 64.32"/>
            <path d="m4081.01 237.45-10.1-3.2 9.89-3.8z"/>
        </g>
        <g stroke="#000" class="edge">
            <path fill="none" d="M6388.14 173.77C6521.73 187.94 6766 228.11 6678.5 328c-.31.36-183.78 24.62-301.79 40.19"/>
            <path d="m6377.37 371.63-10.37-2.16 9.46-4.78z"/>
        </g>
        <g stroke="#000" class="edge">
            <path fill="none" d="M5946.97 253.08c36.65 11.11 87.95 26.65 127.16 38.54"/>
            <path d="m6075.1 288.25 8.56 6.25-10.59.45z"/>
        </g>
        <g stroke="#000" class="edge">
            <path fill="none" d="M5934.46 254.6c19.49 9.62 43.99 22.87 64.04 37.4 56.52 40.95 59.76 64.08 114 108 12.99 10.52 27.99 21.15 41.29 30.11"/>
            <path d="m6155.46 427.02 6.39 8.45-10.27-2.63z"/>
        </g>
        <g stroke="#000" class="edge">
            <path fill="none" d="M5833.17 248.19c-93.57 12.77-262.78 35.85-363.62 49.61"/>
            <path d="m5470.09 301.26-10.38-2.11 9.43-4.82z"/>
        </g>
        <g stroke="#000" class="edge">
            <path fill="none" d="M5958.3 250.86c10.36 1.89 21.08 3.7 31.2 5.14 167.51 23.9 215.33-6.92 379 36 38.11 9.99 44.42 21.38 81 36 44.25 17.69 73.54-2.95 101 36 27.94 39.62 11.78 99.11-1.67 133.59"/>
            <path d="m6552.23 498.53-7.04 7.92.56-10.58z"/>
        </g>
        <g stroke="#000" class="edge">
            <path fill="none" d="M5957.3 251.02c10.66 1.93 21.74 3.7 32.2 4.98 72.46 8.87 593.15-1.12 656 36 74.19 43.82 86.86 95.13 72 180-5.87 33.51 1.31 51.71-26 72-72.55 53.9-695.22 54.95-911.42 53.66"/>
            <path d="m5780.37 601.16-9.98-3.57 10.02-3.43z"/>
        </g>
        <g stroke="#000" class="edge">
            <path fill="none" d="M5856.42 253.42c-33.38 10.92-79.42 25.98-115.16 37.67"/>
            <path d="m5742.56 294.35-10.6-.22 8.42-6.44z"/>
        </g>
        <g stroke="#000" class="edge">
            <path fill="none" d="M5835.87 249.15c-20.24 2.76-42.69 5.38-63.37 6.85-52.19 3.7-3730.18-1.17-3767 36-56.3 56.84-27.84 105 0 180 7.35 19.79 23.65 16.21 31 36 7.16 19.28 6.33 42.57 3.89 60.48"/>
            <path d="m2043.88 568.85-5.06 9.3-1.85-10.43z"/>
        </g>
        <g stroke="#000" class="edge">
            <path fill="none" d="M5910.03 256.34c13.48 26.19 36.47 77.76 36.47 124.66v74c0 45.59-12.3 64.91-51 89-31.65 19.71-548.72 41.82-753.98 49.86"/>
            <path d="m5141.86 597.35-10.13-3.11 9.86-3.88z"/>
        </g>
        <g stroke="#000" class="edge">
            <path fill="none" d="M5957.8 250.9c10.51 1.91 21.41 3.71 31.7 5.1 201.04 27.07 253.64 11.46 455 36 8.6 1.05 17.58 2.3 26.5 3.64"/>
            <path d="m6471.39 292.16 9.35 4.98-10.42 1.93z"/>
        </g>
        <g stroke="#000" class="edge">
            <path fill="none" d="M5835.52 248.97c-20.15 2.73-42.46 5.38-63.02 7.03-575.71 46.08-722.06 9.37-1299 36-57.68 2.66-122.41 6.83-173.22 10.37"/>
            <path d="m4300.73 305.85-10.22-2.79 9.73-4.19z"/>
        </g>
        <g stroke="#000" class="edge">
            <path fill="none" d="M5883.7 255.81c-22.44 21.23-64.47 56.82-108.2 72.19-131.66 46.28-488.24 21.05-627 36-101.56 10.94-125.43 25.17-227 36-144.29 15.38-516.45-15.79-652 36-23.93 9.14-22.14 24.46-45 36-22.65 11.44-81.36 26.48-129.18 37.62"/>
            <path d="m4096.37 512.97-10.53-1.16 8.95-5.66z"/>
        </g>
        <g stroke="#000" class="edge">
            <path fill="none" d="M5900.52 256.42c-.93 19.87-5.47 52.12-24.02 71.58-9.02 9.46-435.16 141.54-448 144-130.11 24.89-512.12 42.34-692.96 49.45"/>
            <path d="m4735.83 524.94-10.13-3.11 9.85-3.88z"/>
        </g>
        <g stroke="#000" class="edge">
            <path fill="none" d="M5895.23 256.45c-7.29 20.87-22.61 55.03-48.73 71.55-32.94 20.84-659.14 68.87-698 72-274.68 22.14-344.29 14.12-619 36-27.36 2.18-57.18 5.04-84 7.79"/>
            <path d="m4446.02 447.25-10.31-2.45 9.59-4.51z"/>
        </g>
        <g stroke="#000" class="edge">
            <path fill="none" d="M5959.33 250.54c10.06 1.88 20.41 3.77 30.17 5.46 102.82 17.79 144.35-20.62 232 36 22.35 14.44 37.93 40.87 47.27 61.19"/>
            <path d="m6271.98 351.78.75 10.57-7.18-7.79z"/>
        </g>
        <g stroke="#000" class="edge">
            <path fill="none" d="M5522.48 248.27c19.27 2.66 40.49 5.45 60.02 7.73 163.51 19.09 355 36.44 463.14 45.78"/>
            <path d="m6045.64 298.27 9.66 4.34-10.26 2.63z"/>
        </g>
        <g stroke="#000" class="edge">
            <path fill="none" d="M5478.16 255.68c25.63 20.74 72.72 55.45 119.34 72.32 120.89 43.74 162.59 3.62 287 36 41.29 10.75 48.4 22.88 89 36 45.94 14.84 98.53 27.83 140.32 37.23"/>
            <path d="m6114.55 433.81 9 5.59-10.52 1.24z"/>
        </g>
        <g stroke="#000" class="edge">
            <path fill="none" d="M5441.31 255.95c-8.63 8.51-19.25 18.98-28.78 28.37"/>
            <path d="m5415.19 286.62-9.58 4.53 4.66-9.51z"/>
        </g>
        <g stroke="#000" class="edge">
            <path fill="none" d="M5521.47 248.63c19.52 2.71 41.13 5.45 61.03 7.37 141.57 13.67 506.74-16.31 639 36 23.18 9.17 20.58 25.12 43 36 70.27 34.09 107.3-7.75 172 36 48.05 32.49 77.34 96.56 90.92 133.33"/>
            <path d="m6530.59 495.77.04 10.6-6.64-8.25z"/>
        </g>
        <g stroke="#000" class="edge">
            <path fill="none" d="M5521.46 248.66c19.53 2.72 41.14 5.45 61.04 7.34 149.54 14.21 530.76-5.92 675 36 31.34 9.11 33.64 24.03 64 36 62.98 24.83 89.47 1.99 148 36 76.12 44.22 103.48 62.2 136 144 5.91 14.87 10.98 24.36 0 36-28.17 29.88-615.92 46.42-825.53 51.38"/>
            <path d="m5780.08 598.88-10.08-3.26 9.92-3.74z"/>
        </g>
        <g stroke="#000" class="edge">
            <path fill="none" d="M5503.82 252.91c36.2 11.12 87.14 26.76 126.04 38.7"/>
            <path d="m5630.51 288.15 8.53 6.28-10.59.41z"/>
        </g>
        <g stroke="#000" class="edge">
            <path fill="none" d="M5388.84 246.03c-39.63 3.68-90.21 7.86-135.34 9.97-187.08 8.74-3187.66-2.25-3371 36-40.16 8.38-46.45 21.95-85 36-102.23 37.27-128.21 46.54-234 72-89.94 21.64-116.96 7.61-205 36-35 11.29-129.46 40.85-149 72-8.5 13.55-10.94 24.33 0 36 24.86 26.51 526.82 44.25 735.36 50.5"/>
            <path d="m1944.97 591 9.89 3.8-10.1 3.2z"/>
        </g>
        <g stroke="#000" class="edge">
            <path fill="none" d="M5397.02 249.16c-61.15 12.67-141.08 37.82-105.52 78.84 73.82 85.16 154.04-21.45 251 36 17.21 10.19 47.68 53.03 54 72 7.93 23.78-7.01 106.06-9 108-31.21 30.46-304.69 44.83-445.69 50.27"/>
            <path d="m5142.29 597.75-10.12-3.12 9.86-3.87z"/>
        </g>
        <g stroke="#000" class="edge">
            <path fill="none" d="M5521.46 248.69c19.52 2.72 41.14 5.44 61.04 7.31 314.58 29.48 394.58 17.49 710 36 53.1 3.12 112.39 7.04 160.43 10.34"/>
            <path d="m6453.01 298.83 9.74 4.18-10.22 2.81z"/>
        </g>
        <g stroke="#000" class="edge">
            <path fill="none" d="M5388.52 245.83C5157.24 269.06 4419.65 348.37 4198.5 436c-28.21 11.18-31.28 21.62-58 36-21.78 11.72-46.62 23.37-67.63 32.76"/>
            <path d="m4074.53 507.85-10.57.84 7.73-7.24z"/>
        </g>
        <g stroke="#000" class="edge">
            <path fill="none" d="M5386.88 245.02c-39.36 3.28-89.06 7.4-133.38 10.98-204.79 16.53-444.58 35.19-576.12 45.37"/>
            <path d="m4677.9 304.84-10.24-2.72 9.71-4.26z"/>
        </g>
        <g stroke="#000" class="edge">
            <path fill="none" d="M5744.98 249.4c82.86 12.78 223.05 34.4 309.89 47.78"/>
            <path d="m6055.39 293.72 9.35 4.99-10.42 1.93z"/>
        </g>
        <g stroke="#000" class="edge">
            <path fill="none" d="M5714.73 254.56c90.81 37.96 323.67 135.29 425.67 177.92"/>
            <path d="m6141.74 429.25 7.88 7.08-10.58-.63z"/>
        </g>
        <g stroke="#000" class="edge">
            <path fill="none" d="M5622.61 252.25c-48.03 11.59-117.93 28.47-169.03 40.8"/>
            <path d="m5454.67 296.39-10.54-1.06 8.9-5.75z"/>
        </g>
        <g stroke="#000" class="edge">
            <path fill="none" d="M5748.18 248.65c20.11 2.58 42.06 5.24 62.32 7.35 196.91 20.56 249.71-2.05 444 36 52.14 10.21 62.87 21.55 114 36 63.48 17.94 99.67-12.85 144 36 32.84 36.2 32.26 96.97 28.43 132.59"/>
            <path d="m6544.45 496.64-4.71 9.49-2.23-10.36z"/>
        </g>
        <g stroke="#000" class="edge">
            <path fill="none" d="M5747.82 248.75c20.21 2.6 42.29 5.24 62.68 7.25 228.34 22.55 289.1-4.21 515 36 56.5 10.06 68.05 23.24 124 36 47.23 10.77 183.7-.97 215 36 51.69 61.06 54.98 121.89 0 180-30.3 32.02-665.69 47.33-884.62 51.67"/>
            <path d="m5780.11 599.16-10.07-3.3 9.93-3.7z"/>
        </g>
        <g stroke="#000" class="edge">
            <path fill="none" d="M5679.73 256.3c.94 7.38 2.07 16.18 3.14 24.45"/>
            <path d="m5686.3 280.03-2.19 10.36-4.75-9.47z"/>
        </g>
        <g stroke="#000" class="edge">
            <path fill="none" d="M5608.96 249.32c-20.66 2.69-43.44 5.24-64.46 6.68-49.57 3.41-3542.05.69-3577 36-56.28 56.85-35.78 108.45 0 180 11.93 23.85 33.64 13.53 48 36 11.52 18.02 16.17 41.86 17.99 60.34"/>
            <path d="m2036.97 567.84-2.75 10.23-4.23-9.71z"/>
        </g>
        <g stroke="#000" class="edge">
            <path fill="none" d="M5639.26 254.39c-15.93 8.54-32.77 20.88-41.76 37.61-7.57 14.1-8.22 22.28 0 36 13.08 21.83 186.22 88.03 202 108 30.22 38.23 52.24 72.36 19 108-22.81 24.45-483.91 43.35-676.56 50.21"/>
            <path d="m5142.11 597.7-10.12-3.14 9.87-3.85z"/>
        </g>
        <g stroke="#000" class="edge">
            <path fill="none" d="M5747.46 248.88c20.3 2.61 42.53 5.23 63.04 7.12 281.04 25.91 353.48 4.98 634 36 8.84.98 18.07 2.2 27.22 3.55"/>
            <path d="m6471.96 292.04 9.36 4.97-10.42 1.95z"/>
        </g>
        <g stroke="#000" class="edge">
            <path fill="none" d="M5624.48 252.52c-29.91 8.85-67.31 22.03-97.98 39.48-21.66 12.33-19.99 26.43-43 36-20.24 8.42-764.15 70.15-786 72-102.39 8.69-364.03 1.99-461 36-26.87 9.42-27.49 23.35-53 36-29.77 14.75-64.62 26.94-94.01 35.88"/>
            <path d="m4090.55 511.22-10.58-.5 8.58-6.21z"/>
        </g>
        <g stroke="#000" class="edge">
            <path fill="none" d="M5607.54 248.91c-20.3 2.61-42.52 5.22-63.04 7.09-312 28.46-682.19 43.58-860.12 49.7"/>
            <path d="m4684.56 309.19-10.11-3.15 9.87-3.84z"/>
        </g>
        <g class="node" transform="translate(4 616)">
            <ellipse cx="5264.5" cy="-90" fill="none" stroke="#000" rx="106.11" ry="18"/>
            <text x="5264.5" y="-84.95" font-family="Times,serif" font-size="14" text-anchor="middle">:library:firebase-common</text>
        </g>
        <g stroke="#000" class="edge">
            <path fill="none" d="m5215.45 471.95 28.37 28.37"/>
            <path d="m5246.04 497.59 4.6 9.55-9.54-4.6z"/>
        </g>
        <g stroke="#000" class="edge">
            <path fill="none" d="M6257.71 399.95c-11.19 8.7-25.02 19.46-37.3 29.01"/>
            <path d="m6222.64 431.66-10.05 3.38 5.75-8.9z"/>
        </g>
        <g stroke="#000" class="edge">
            <path fill="none" d="M6309.99 399.85c47.15 26.05 137.62 76.04 188.81 104.32"/>
            <path d="m6500.4 501.06 7.06 7.9-10.44-1.78z"/>
        </g>
        <g stroke="#000" class="edge">
            <path fill="none" d="M6290.89 400.17c11.25 19.34 24.65 50.8 8.61 71.83-73.51 96.35-143.37 52.61-263 72-171.22 27.75-690.68 44.93-894.58 50.76"/>
            <path d="m5142.3 598.25-10.09-3.21 9.9-3.78z"/>
        </g>
        <g stroke="#000" class="edge">
            <path fill="none" d="M2727.67 472.01c27.58 21.08 78.16 56.16 127.83 71.99 107.85 34.37 436.12 47.05 590.76 51.2"/>
            <path d="m3446.12 591.7 9.91 3.76-10.09 3.23z"/>
        </g>
        <g stroke="#000" class="edge">
            <path fill="none" d="M2673.57 536.94c23.69 2.48 49.26 5.02 72.93 7.06 256.07 22.11 559.99 40.44 701.74 48.54"/>
            <path d="m3448.1 589.03 9.78 4.06-10.18 2.92z"/>
        </g>
        <g stroke="#000" class="edge">
            <path fill="none" d="M2265.83 471.59c44.33 21.15 125.73 56.85 199.67 72.41 186.75 39.29 764.16 49.68 980.25 52.23"/>
            <path d="m3445.53 592.73 9.96 3.61-10.04 3.39z"/>
        </g>
        <g stroke="#000" class="edge">
            <path fill="none" d="M895.58 456.95c100.41 3.25 308.68 9.9 484.92 15.05 146.99 4.29 1180.45-.13 1323 36 34.3 8.69 36.69 27.38 71 36 54.35 13.66 1793.97 44.53 2199.91 51.56"/>
            <path d="m4974.29 592.05 9.94 3.68-10.06 3.32z"/>
        </g>
    </g>
</svg>
