<svg xmlns="http://www.w3.org/2000/svg" width="1580pt" height="404pt" viewBox="0 0 1580 404">
    <g class="graph">
        <path fill="#fff" d="M0 404V0h1580v404z"/>
        <g class="node" transform="translate(4 400)">
            <ellipse cx="502" cy="-378" fill="none" stroke="#000" rx="86.15" ry="18"/>
            <text x="502" y="-372.95" font-family="Times,serif" font-size="14" text-anchor="middle">:app:feature:account</text>
        </g>
        <g class="node" transform="translate(4 400)">
            <ellipse cx="121" cy="-306" fill="none" stroke="#000" rx="81.04" ry="18"/>
            <text x="121" y="-300.95" font-family="Times,serif" font-size="14" text-anchor="middle">:app:core:compose</text>
        </g>
        <g stroke="#000" class="edge">
            <path fill="none" d="M443.08 34.56c-67.61 12.42-174.9 32.13-245.9 45.18"/>
            <path d="M198.07 83.13 187.6 81.5l9.2-5.25z"/>
        </g>
        <g class="node" transform="translate(4 400)">
            <ellipse cx="101" cy="-234" fill="none" stroke="#000" rx="101" ry="18"/>
            <text x="101" y="-228.95" font-family="Times,serif" font-size="14" text-anchor="middle">:app:core:design-system</text>
        </g>
        <g stroke="#000" class="edge">
            <path fill="none" d="M421.95 26.48C293.45 32.68 60.27 47.72 35 76c-10.67 11.93-7.13 21.67 0 36 6.09 12.26 16.53 22.45 27.52 30.5"/>
            <path d="m64.2 139.42 6.33 8.49-10.24-2.69z"/>
        </g>
        <g class="node" transform="translate(4 400)">
            <ellipse cx="425" cy="-90" fill="none" stroke="#000" rx="86.67" ry="18"/>
            <text x="425" y="-84.95" font-family="Times,serif" font-size="14" text-anchor="middle">:app:core:navigation</text>
        </g>
        <g stroke="#000" class="edge">
            <path fill="none" d="M508.01 40.42c3.87 40.23 9.1 141.77-26.01 215.58-5.08 10.66-13.21 20.43-21.6 28.59"/>
            <path d="m462.9 287.04-9.75 4.13 5.05-9.31z"/>
        </g>
        <g class="node" transform="translate(4 400)">
            <ellipse cx="230" cy="-162" fill="none" stroke="#000" rx="59.54" ry="18"/>
            <text x="230" y="-156.95" font-family="Times,serif" font-size="14" text-anchor="middle">:library:color</text>
        </g>
        <g stroke="#000" class="edge">
            <path fill="none" d="M448.69 35.77C390.37 51.84 301.8 85.26 253 148c-13.29 17.08-17.8 41.37-19.12 60.26"/>
            <path d="m237.38 208.4-3.9 9.85-3.1-10.14z"/>
        </g>
        <g class="node" transform="translate(4 400)">
            <ellipse cx="1496" cy="-18" fill="none" stroke="#000" rx="62.1" ry="18"/>
            <text x="1496" y="-12.95" font-family="Times,serif" font-size="14" text-anchor="middle">:library:kotlin</text>
        </g>
        <g stroke="#000" class="edge">
            <path fill="none" d="M590.85 25.37C843.93 33.55 1576 65.8 1576 165v74c0 45.22-30.33 89.97-52.67 116.81"/>
            <path d="m1526.28 357.75-9.18 5.3 3.87-9.87z"/>
        </g>
        <g class="node" transform="translate(4 400)">
            <ellipse cx="241" cy="-90" fill="none" stroke="#000" rx="79.5" ry="18"/>
            <text x="241" y="-84.95" font-family="Times,serif" font-size="14" text-anchor="middle">:library:navigation</text>
        </g>
        <g stroke="#000" class="edge">
            <path fill="none" d="M503.73 40.35C498.82 72.03 484.64 139.99 449 184c-40.74 50.31-107.49 85.7-153.48 105.68"/>
            <path d="m297.14 292.79-10.57.69 7.84-7.13z"/>
        </g>
        <g class="node" transform="translate(4 400)">
            <ellipse cx="844" cy="-18" fill="none" stroke="#000" rx="78.99" ry="18"/>
            <text x="844" y="-12.95" font-family="Times,serif" font-size="14" text-anchor="middle">:library:coroutines</text>
        </g>
        <g stroke="#000" class="edge">
            <path fill="none" d="M519.49 40.2C557.59 88.29 670.37 227.23 779 328c11.18 10.38 24.28 20.81 36.04 29.65"/>
            <path d="m816.95 354.7 5.96 8.76-10.12-3.12z"/>
        </g>
        <g class="node" transform="translate(4 400)">
            <ellipse cx="578" cy="-18" fill="none" stroke="#000" rx="72.85" ry="18"/>
            <text x="578" y="-12.95" font-family="Times,serif" font-size="14" text-anchor="middle">:library:datetime</text>
        </g>
        <g stroke="#000" class="edge">
            <path fill="none" d="M513.69 40.09C524.79 66.38 544 118.55 544 165v74c0 40.82 14.83 86.07 25.97 114.28"/>
            <path d="m573.19 351.92.54 10.59-7.02-7.94z"/>
        </g>
        <g class="node" transform="translate(4 400)">
            <ellipse cx="347" cy="-234" fill="none" stroke="#000" rx="89.23" ry="18"/>
            <text x="347" y="-228.95" font-family="Times,serif" font-size="14" text-anchor="middle">:library:shimmer-m3</text>
        </g>
        <g stroke="#000" class="edge">
            <path fill="none" d="M487.61 39.85c-27.27 24.98-78.57 71.98-109.96 100.73"/>
            <path d="m380.22 142.98-9.74 4.17 5.01-9.33z"/>
        </g>
        <g class="node" transform="translate(4 400)">
            <ellipse cx="1151" cy="-90" fill="none" stroke="#000" rx="88.71" ry="18"/>
            <text x="1151" y="-84.95" font-family="Times,serif" font-size="14" text-anchor="middle">:app:domain:account</text>
        </g>
        <g stroke="#000" class="edge">
            <path fill="none" d="M591.99 23.53C691.88 26.13 860.75 36.67 1000 76c143.48 40.53 223.35 17.96 303 144 8.54 13.53 9.21 22.92 0 36-14.51 20.61-37.82 33.25-61.68 40.98"/>
            <path d="m1242.38 300.32-10.58-.54 8.61-6.18z"/>
        </g>
        <g class="node" transform="translate(4 400)">
            <ellipse cx="891" cy="-306" fill="none" stroke="#000" rx="96.39" ry="18"/>
            <text x="891" y="-300.95" font-family="Times,serif" font-size="14" text-anchor="middle">:app:domain:credential</text>
        </g>
        <g stroke="red" stroke-width="2" class="edge">
            <path fill="none" d="M569.8 34.48c67.45 12.14 173.93 31.3 246.54 44.36"/>
            <path fill="red" d="m815.04 75.06 9.22 5.21-10.46 1.67z"/>
        </g>
        <g stroke="#000" class="edge">
            <path fill="none" d="M120.05 112.3c-2.13 7.46-4.68 16.38-7.06 24.73"/>
            <path d="m116.41 137.79-6.11 8.65-.62-10.58z"/>
        </g>
        <g stroke="#000" class="edge">
            <path fill="none" d="M135.57 183.59c18.06 9.8 41.09 22.29 60.32 32.73"/>
            <path d="m197.4 213.16 7.12 7.84-10.46-1.69z"/>
        </g>
        <g stroke="#000" class="edge">
            <path fill="none" d="M104.83 184.35c.7 33.57 7.44 107.27 51.17 143.65 50.35 41.89 232.4 51.24 341.55 52.99"/>
            <path d="m497.4 377.49 9.95 3.64-10.05 3.36z"/>
        </g>
        <g stroke="#000" class="edge">
            <path fill="none" d="M463.71 326.88c22.02 10.08 50.71 23.2 74.31 34"/>
            <path d="m539.45 357.69 7.64 7.34-10.55-.98z"/>
        </g>
        <g stroke="#000" class="edge">
            <path fill="none" d="M302.16 322.87c59.32 12.32 151.94 31.56 214.2 44.5"/>
            <path d="m517.06 363.94 9.08 5.46-10.5 1.39z"/>
        </g>
        <g stroke="#000" class="edge">
            <path fill="none" d="M323.27 183.59c-16.04 9.6-36.4 21.78-53.63 32.08"/>
            <path d="m271.6 218.58-10.38 2.13 6.79-8.14z"/>
        </g>
        <g stroke="#000" class="edge">
            <path fill="none" d="M1219.66 322.68c55.62 10.24 137.95 25.88 209.34 41.32 4.53.98 9.21 2.03 13.91 3.1"/>
            <path d="m1443.43 363.63 8.95 5.67-10.54 1.15z"/>
        </g>
        <g stroke="#000" class="edge">
            <path fill="none" d="M1097.61 324.08c-52.28 11.93-129.45 29.52-184.12 41.99"/>
            <path d="M914.53 369.42 904 368.23l8.97-5.63z"/>
        </g>
        <g stroke="#000" class="edge">
            <path fill="none" d="M1080.38 320.12c-109.62 13.39-313.09 38.24-423.1 51.68"/>
            <path d="M657.82 375.26 647.47 373l9.5-4.69z"/>
        </g>
        <g class="node" transform="translate(4 400)">
            <ellipse cx="1012" cy="-18" fill="none" stroke="#000" rx="71.31" ry="18"/>
            <text x="1012" y="-12.95" font-family="Times,serif" font-size="14" text-anchor="middle">:app:core:model</text>
        </g>
        <g stroke="red" stroke-width="2" class="edge">
            <path fill="none" d="M1122.76 327.24c-19.49 9.81-44.52 22.41-65.45 32.95"/>
            <path fill="red" d="m1060.31 362.6-10.5 1.37 7.36-7.62z"/>
        </g>
        <g class="node" transform="translate(4 400)">
            <ellipse cx="1331" cy="-18" fill="none" stroke="#000" rx="85.13" ry="18"/>
            <text x="1331" y="-12.95" font-family="Times,serif" font-size="14" text-anchor="middle">:common:exception</text>
        </g>
        <g stroke="#000" class="edge">
            <path fill="none" d="M1194.94 326.54c26.55 10.32 61.6 23.95 90 34.99"/>
            <path d="m1286.01 358.19 8.05 6.89-10.59-.36z"/>
        </g>
        <g stroke="#000" class="edge">
            <path fill="none" d="M991.38 95.49c77.25 3.47 187 15.43 275.62 52.51 97.42 40.76 121.82 62.52 189 144 15.07 18.28 26.64 42.59 34.13 61.19"/>
            <path d="m1493.39 351.92.32 10.59-6.85-8.08z"/>
        </g>
        <g stroke="#000" class="edge">
            <path fill="none" d="M844.58 109.66C825.95 117.8 806.77 130.02 796 148c-41.11 68.63-30.27 105.94 0 180 4.42 10.83 12.24 20.64 20.5 28.8"/>
            <path d="m818.65 354.02 5.02 9.33-9.74-4.16z"/>
        </g>
        <g stroke="#000" class="edge">
            <path fill="none" d="M847.13 110.04c-23.45 8.79-51.27 21.44-73.13 37.96-79.28 59.92-146.44 158.88-175.95 206.19"/>
            <path d="m601.19 355.77-8.22 6.68 2.26-10.35z"/>
        </g>
        <g stroke="#000" class="edge">
            <path fill="none" d="M891.11 112.37C882.73 154.74 867.76 264.54 921 328c12.06 14.38 29.07 25.58 45.37 33.9"/>
            <path d="m967.52 358.57 7.5 7.49-10.53-1.18z"/>
        </g>
        <g stroke="#000" class="edge">
            <path fill="none" d="M990.89 96.1c98.39 6.47 249.15 32.09 337.11 123.9 33.95 35.44 30.17 59.45 23 108-1.21 8.18-3.41 16.84-5.8 24.74"/>
            <path d="m1348.54 353.77-6.42 8.42-.23-10.59z"/>
        </g>
        <g class="node" transform="translate(4 400)">
            <ellipse cx="997" cy="-234" fill="none" stroke="#000" rx="78.48" ry="18"/>
            <text x="997" y="-228.95" font-family="Times,serif" font-size="14" text-anchor="middle">:app:domain:fetch</text>
        </g>
        <g stroke="red" stroke-width="2" class="edge">
            <path fill="none" d="M920.39 111.77c13.86 9.15 31.23 20.62 46.29 30.57"/>
            <path fill="red" d="m967.24 138.51 6.41 8.43-10.27-2.59z"/>
        </g>
        <g class="node" transform="translate(4 400)">
            <ellipse cx="997" cy="-162" fill="none" stroke="#000" rx="86.67" ry="18"/>
            <text x="997" y="-156.95" font-family="Times,serif" font-size="14" text-anchor="middle">:app:domain:backup</text>
        </g>
        <g stroke="#000" class="edge">
            <path fill="none" d="M894.76 112.33c.58 19.21 4.06 50.28 19.24 71.67 9.56 13.48 23.73 24.18 37.87 32.33"/>
            <path d="m953.13 213.03 7.14 7.83-10.46-1.66z"/>
        </g>
        <g class="node" transform="translate(4 400)">
            <ellipse cx="1215" cy="-162" fill="none" stroke="#000" rx="74.89" ry="18"/>
            <text x="1215" y="-156.95" font-family="Times,serif" font-size="14" text-anchor="middle">:app:domain:fcm</text>
        </g>
        <g stroke="#000" class="edge">
            <path fill="none" d="M960.76 107.42c38.23 8.59 86.7 21.87 127.24 40.58 37.8 17.44 76.71 45.39 102.19 65.31"/>
            <path d="m1192.1 210.35 5.66 8.96-10.01-3.47z"/>
        </g>
        <g stroke="#000" class="edge">
            <path fill="none" d="M1079.52 167.03c68.78 2.9 169.75 14.31 248.48 52.97 65.71 32.28 123.62 98.13 152.51 134.83"/>
            <path d="m1483.27 352.67 3.35 10.05-8.89-5.76z"/>
        </g>
        <g stroke="#000" class="edge">
            <path fill="none" d="M954.77 180.91c-20.59 8.34-43.58 20.92-58.77 39.09-32.06 38.33-42.71 97.45-46.24 132.38"/>
            <path d="m853.26 352.48-4.35 9.66-2.62-10.26z"/>
        </g>
        <g stroke="#000" class="edge">
            <path fill="none" d="M962.72 182.04c-26.21 10.4-61.7 24.71-92.72 37.96-71.72 30.63-92.15 33.58-160 72-35.09 19.87-72.68 46.75-97.99 65.76"/>
            <path d="m614.24 360.46-10.09 3.25 5.86-8.83z"/>
        </g>
        <g stroke="#000" class="edge">
            <path fill="none" d="M1037.92 182.14c19.09 9.06 41.92 21.92 59.08 37.86 18.94 17.61 34.54 42.64 44.77 61.67"/>
            <path d="m1144.83 279.98 1.49 10.49-7.7-7.27z"/>
        </g>
        <g stroke="#000" class="edge">
            <path fill="none" d="M954.58 180.9c-18.84 8.19-38.7 20.66-49.58 39.1-8.14 13.78-5.69 21.04 0 36 15.92 41.93 53.07 78.78 80.01 101.41"/>
            <path d="m987.02 354.53 5.52 9.04-9.96-3.62z"/>
        </g>
        <g stroke="#000" class="edge">
            <path fill="none" d="M1077.16 170.74c78.76 5.49 194.53 18.65 225.84 49.26 35.33 34.55 37.48 96.16 35.19 132.32"/>
            <path d="m1341.7 352.34-4.3 9.69-2.68-10.25z"/>
        </g>
        <g stroke="red" stroke-width="2" class="edge">
            <path fill="none" d="M1001 184.3v24.16"/>
            <path fill="red" d="m1004.5 206.87-3.5 10-3.5-10z"/>
        </g>
        <g stroke="#000" class="edge">
            <path fill="none" d="M1071.6 248.77c51.28 8.31 121.83 22.27 181.4 43.23 33.37 11.74 38.15 22.85 71 36 38.89 15.57 84.18 29.11 119.08 38.61"/>
            <path d="m1443.81 363.18 8.75 5.98-10.56.78z"/>
        </g>
        <g stroke="#000" class="edge">
            <path fill="none" d="M982.84 255.85c-26.91 24.98-77.55 71.98-108.53 100.73"/>
            <path d="m876.95 358.91-9.72 4.24 4.95-9.37z"/>
        </g>
        <g stroke="#000" class="edge">
            <path fill="none" d="M925.25 247.03C875.92 254.28 811.1 267.7 758 292c-24.25 11.1-24.84 22.8-48 36-23.92 13.63-52.04 25.67-75.83 34.81"/>
            <path d="m635.59 366.02-10.59.25 8.12-6.8z"/>
        </g>
        <g stroke="red" stroke-width="2" class="edge">
            <path fill="none" d="M1035.94 254.88c21.78 9.9 50.03 22.75 73.55 33.44"/>
            <path fill="red" d="m1109.51 284.48 7.66 7.33-10.55-.96z"/>
        </g>
        <g stroke="#000" class="edge">
            <path fill="none" d="M993.8 256.26c-6.54 18.07-14.27 47.19-7.8 71.74 2.38 9.06 6.71 18.19 11.35 26.27"/>
            <path d="m1000.19 352.21 2.28 10.35-8.23-6.67z"/>
        </g>
        <g stroke="#000" class="edge">
            <path fill="none" d="M1006.89 256.1c8 20.51 24.32 54.3 50.11 71.9 30.56 20.86 121.39 35.52 190.99 44.05"/>
            <path d="m1248.39 368.58 9.51 4.66-10.35 2.29z"/>
        </g>
        <g stroke="#000" class="edge">
            <path fill="none" d="M1250.14 254.74c51.26 25.9 153.32 77.47 209.85 106.04"/>
            <path d="m1461.29 357.52 7.35 7.63-10.51-1.38z"/>
        </g>
        <g stroke="#000" class="edge">
            <path fill="none" d="M1173.59 252.7c-32.68 10.14-77.67 24.68-116.59 39.3-57.57 21.63-122.55 49.93-164.55 68.75"/>
            <path d="m893.96 363.91-10.56.9 7.69-7.29z"/>
        </g>
        <g stroke="#000" class="edge">
            <path fill="none" d="M1163.15 250.34C1111.84 260.85 1033.7 277.06 966 292c-113.86 25.12-246.24 56.22-322.07 74.22"/>
            <path d="m645.17 369.52-10.54-1.09 8.92-5.72z"/>
        </g>
        <g stroke="#000" class="edge">
            <path fill="none" d="M1203.5 255.95c-7.62 8.34-16.97 18.56-25.42 27.8"/>
            <path d="m1180.7 286.08-9.33 5.01 4.16-9.74z"/>
        </g>
        <g stroke="#000" class="edge">
            <path fill="none" d="M1234.73 255.97c15.81 19.17 35.54 50.47 18.27 72.03-19.79 24.7-97.9 38.66-159.11 45.98"/>
            <path d="m1094.51 377.43-10.33-2.33 9.53-4.62z"/>
        </g>
        <g stroke="#000" class="edge">
            <path fill="none" d="M1244.27 255.32c13.49 9.56 29.75 22.53 41.73 36.68 15.64 18.48 28.6 42.74 37.25 61.26"/>
            <path d="m1326.41 351.74.92 10.56-7.3-7.68z"/>
        </g>
    </g>
</svg>
