<svg xmlns="http://www.w3.org/2000/svg" width="7534pt" height="620pt" viewBox="0 0 7533.58 620">
    <g class="graph">
        <path fill="#fff" d="M0 620V0h7533.58v620z"/>
        <g class="node" transform="translate(4 616)">
            <ellipse cx="623.58" cy="-594" fill="none" stroke="#000" rx="78.99" ry="18"/>
            <text x="623.58" y="-588.95" font-family="Times,serif" font-size="14" text-anchor="middle">:app:platform:jvm</text>
        </g>
        <g class="node" transform="translate(4 616)">
            <ellipse cx="3838.58" cy="-522" fill="none" stroke="#000" rx="97.41" ry="18"/>
            <text x="3838.58" y="-516.95" font-family="Times,serif" font-size="14" text-anchor="middle">:app:platform:common</text>
        </g>
        <g stroke="red" stroke-width="2" class="edge">
            <path fill="none" d="M705.86 24.7c432.49 9.42 2528.4 55.06 3029.12 65.96"/>
            <path fill="red" d="m3733.21 87.12 9.92 3.71-10.07 3.29z"/>
        </g>
        <g class="node" transform="translate(4 616)">
            <ellipse cx="680.58" cy="-450" fill="none" stroke="#000" rx="86.15" ry="18"/>
            <text x="680.58" y="-444.95" font-family="Times,serif" font-size="14" text-anchor="middle">:app:core:coroutines</text>
        </g>
        <g stroke="#000" class="edge">
            <path fill="none" d="M634.57 40.41c9.71 24.19 27.38 68.23 38.91 96.94"/>
            <path d="m676.67 135.9.48 10.58-6.98-7.97z"/>
        </g>
        <g class="node" transform="translate(4 616)">
            <ellipse cx="2021.58" cy="-162" fill="none" stroke="#000" rx="95.88" ry="18"/>
            <text x="2021.58" y="-156.95" font-family="Times,serif" font-size="14" text-anchor="middle">:app:core:diary-service</text>
        </g>
        <g stroke="#000" class="edge">
            <path fill="none" d="M615.18 39.87c-21.95 32.07-62.06 102.38-25.6 144.13 195.31 223.66 1050.89 63.47 1324 180 34.53 14.73 67.34 43.1 88.41 63.86"/>
            <path d="m2004.39 425.31 4.55 9.57-9.52-4.64z"/>
        </g>
        <g class="node" transform="translate(4 616)">
            <ellipse cx="104.58" cy="-162" fill="none" stroke="#000" rx="104.58" ry="18"/>
            <text x="104.58" y="-156.95" font-family="Times,serif" font-size="14" text-anchor="middle">:app:core:holiday-service</text>
        </g>
        <g stroke="#000" class="edge">
            <path fill="none" d="M556.42 30.2C427.98 45.19 170.58 85.19 170.58 165v146c0 43.12-24.31 87.92-42.49 115.39"/>
            <path d="m131.12 428.16-8.54 6.28 2.76-10.23z"/>
        </g>
        <g class="node" transform="translate(4 616)">
            <ellipse cx="345.58" cy="-162" fill="none" stroke="#000" rx="80.01" ry="18"/>
            <text x="345.58" y="-156.95" font-family="Times,serif" font-size="14" text-anchor="middle">:library:koin-room</text>
        </g>
        <g stroke="#000" class="edge">
            <path fill="none" d="M549.54 24.97C455.1 31.99 308.58 59.82 308.58 165v146c0 41.23 16.15 86.64 28.18 114.74"/>
            <path d="m339.82 424.03.85 10.56-7.25-7.73z"/>
        </g>
        <g class="node" transform="translate(4 616)">
            <ellipse cx="7302.58" cy="-162" fill="none" stroke="#000" rx="93.32" ry="18"/>
            <text x="7302.58" y="-156.95" font-family="Times,serif" font-size="14" text-anchor="middle">:library:koin-datastore</text>
        </g>
        <g stroke="#000" class="edge">
            <path fill="none" d="M706.74 23.56C1469.76 29.11 7491.58 75.69 7491.58 165v146c0 40.45 8.15 59.02-19 89-19.37 21.38-47.33 34.18-74.81 41.84"/>
            <path d="m7398.9 445.16-10.55-.92 8.82-5.86z"/>
        </g>
        <g stroke="#000" class="edge">
            <path fill="none" d="M3745.08 94.71c-454.22-1.07-2365.72-2.1-2960.5 53.29-8.75.82-17.9 1.96-26.94 3.27"/>
            <path d="m758.18 154.73-10.42-1.95 9.36-4.97z"/>
        </g>
        <g stroke="#000" class="edge">
            <path fill="none" d="M3745.14 95.73c-331.76 2.81-1405.12 14.73-1555.56 52.27-86.98 21.7-181-.64-181 89v74c0 39.54 6.58 84.84 11.55 113.43"/>
            <path d="m2023.54 423.64-1.67 10.46-5.21-9.22z"/>
        </g>
        <g stroke="#000" class="edge">
            <path fill="none" d="M3744.98 94.82c-503.07-.66-2785.11-.69-2924.4 53.18-22.62 8.75-20.32 23.33-41 36-184.37 112.98-251.39 99.29-452 180-58.21 23.42-125.01 50.61-169.37 68.72"/>
            <path d="m159.69 435.89-10.58.54 7.94-7.02z"/>
        </g>
        <g class="node" transform="translate(4 616)">
            <ellipse cx="5311.58" cy="-306" fill="none" stroke="#000" rx="81.04" ry="18"/>
            <text x="5311.58" y="-300.95" font-family="Times,serif" font-size="14" text-anchor="middle">:app:core:compose</text>
        </g>
        <g stroke="#000" class="edge">
            <path fill="none" d="M3938.63 97.38c228.06 6.02 797.13 23.36 985.95 50.62 134.43 19.41 177.67 7.13 297 72 29.11 15.82 55.86 42.94 73.32 63.09"/>
            <path d="m5297.5 280.74 3.77 9.9-9.12-5.39z"/>
        </g>
        <g class="node" transform="translate(4 616)">
            <ellipse cx="5912.58" cy="-162" fill="none" stroke="#000" rx="101" ry="18"/>
            <text x="5912.58" y="-156.95" font-family="Times,serif" font-size="14" text-anchor="middle">:app:core:design-system</text>
        </g>
        <g stroke="#000" class="edge">
            <path fill="none" d="M3939.38 96.61c304.81 5.35 1232.53 23.73 1365.2 51.39 187.68 39.13 213.18 110.89 392 180 57.92 22.38 81.56 4.37 135 36 7.44 4.41 39.47 38.84 62.01 63.56"/>
            <path d="m5895.95 424.95 4.14 9.76-9.32-5.05z"/>
        </g>
        <g class="node" transform="translate(4 616)">
            <ellipse cx="6073.58" cy="-306" fill="none" stroke="#000" rx="86.67" ry="18"/>
            <text x="6073.58" y="-300.95" font-family="Times,serif" font-size="14" text-anchor="middle">:app:core:navigation</text>
        </g>
        <g stroke="#000" class="edge">
            <path fill="none" d="M3939.88 95.8c418.96 3.62 2049.78 19.78 2091.7 52.2 40.36 31.21 47 95.3 47.19 132.52"/>
            <path d="m6082.27 280.11-3.62 9.96-3.38-10.05z"/>
        </g>
        <g class="node" transform="translate(4 616)">
            <ellipse cx="6041.58" cy="-90" fill="none" stroke="#000" rx="59.54" ry="18"/>
            <text x="6041.58" y="-84.95" font-family="Times,serif" font-size="14" text-anchor="middle">:library:color</text>
        </g>
        <g stroke="#000" class="edge">
            <path fill="none" d="M3940.24 95.09c418.75.68 2051.41 6.3 2276.34 52.91 83.16 17.23 112.28 17.01 177 72 61.75 52.47 72.81 111.84 29 180-29.22 45.46-48.45 50.42-98 72-67.7 29.48-151.68 42.61-209.71 48.42"/>
            <path d="m6115.41 523.89-10.29-2.54 9.63-4.43z"/>
        </g>
        <g class="node" transform="translate(4 616)">
            <ellipse cx="5517.58" cy="-18" fill="none" stroke="#000" rx="62.1" ry="18"/>
            <text x="5517.58" y="-12.95" font-family="Times,serif" font-size="14" text-anchor="middle">:library:kotlin</text>
        </g>
        <g stroke="#000" class="edge">
            <path fill="none" d="M3940.12 95.43c532.77 2.5 3072.83 16.28 3234.46 52.57 169.04 37.95 355-12.25 355 161v146c0 98.99-1573.3 133.99-1934.64 140.73"/>
            <path d="m5595.18 599.22-10.07-3.31 9.94-3.68z"/>
        </g>
        <g class="node" transform="translate(4 616)">
            <ellipse cx="6257.58" cy="-306" fill="none" stroke="#000" rx="79.5" ry="18"/>
            <text x="6257.58" y="-300.95" font-family="Times,serif" font-size="14" text-anchor="middle">:library:navigation</text>
        </g>
        <g stroke="#000" class="edge">
            <path fill="none" d="M3940.21 95.16c409.36.93 1976.12 7.49 2192.37 52.84 82.31 17.26 128.19 2.13 175 72 13.85 20.68-2.15 46.04-18.96 64.4"/>
            <path d="m6291.47 286.48-9.48 4.73 4.46-9.61z"/>
        </g>
        <g class="node" transform="translate(4 616)">
            <ellipse cx="2629.58" cy="-18" fill="none" stroke="#000" rx="78.99" ry="18"/>
            <text x="2629.58" y="-12.95" font-family="Times,serif" font-size="14" text-anchor="middle">:library:coroutines</text>
        </g>
        <g stroke="#000" class="edge">
            <path fill="none" d="M3745.09 94.52C3236.69 92.61 912.58 91.86 912.58 237v74c0 213.47 208.82 201.81 420 233 234.15 34.58 955.75 48.05 1210.67 51.81"/>
            <path d="m2543.2 592.31 9.95 3.64-10.05 3.36z"/>
        </g>
        <g class="node" transform="translate(4 616)">
            <ellipse cx="4876.58" cy="-18" fill="none" stroke="#000" rx="72.85" ry="18"/>
            <text x="4876.58" y="-12.95" font-family="Times,serif" font-size="14" text-anchor="middle">:library:datetime</text>
        </g>
        <g stroke="#000" class="edge">
            <path fill="none" d="M3939.57 96.34c506.13 7.03 2823.88 39.84 2897.01 51.66 131 21.17 285-43.7 285 89v74c0 40.45 9.81 60.62-19 89-14.69 14.47-707.52 141.63-728 144-70.32 8.15-1106.09 40.91-1410.48 50.41"/>
            <path d="m4964.34 597.9-10.1-3.19 9.89-3.81z"/>
        </g>
        <g class="node" transform="translate(4 616)">
            <ellipse cx="5803.58" cy="-306" fill="none" stroke="#000" rx="89.23" ry="18"/>
            <text x="5803.58" y="-300.95" font-family="Times,serif" font-size="14" text-anchor="middle">:library:shimmer-m3</text>
        </g>
        <g stroke="#000" class="edge">
            <path fill="none" d="M3940.25 95.04c355.11.52 1565.6 5.78 1732.33 52.96 61.69 17.46 89.86 18.37 125 72 11.6 17.71 13.69 41.76 13.1 60.4"/>
            <path d="m5814.19 280.46-4.11 9.77-2.88-10.2z"/>
        </g>
        <g class="node" transform="translate(4 616)">
            <ellipse cx="2234.58" cy="-378" fill="none" stroke="#000" rx="71.31" ry="18"/>
            <text x="2234.58" y="-372.95" font-family="Times,serif" font-size="14" text-anchor="middle">:app:data:memo</text>
        </g>
        <g stroke="#000" class="edge">
            <path fill="none" d="M3744.89 94.61c-312.76-.71-1276.57 1.38-1406.31 53.39-32.84 13.17-61.99 42.15-80.22 63.48"/>
            <path d="m2261.27 213.45-9.07 5.47 3.68-9.93z"/>
        </g>
        <g class="node" transform="translate(4 616)">
            <ellipse cx="2417.58" cy="-306" fill="none" stroke="#000" rx="58.52" ry="18"/>
            <text x="2417.58" y="-300.95" font-family="Times,serif" font-size="14" text-anchor="middle">:app:data:tag</text>
        </g>
        <g stroke="#000" class="edge">
            <path fill="none" d="M3745.37 96.04C3444.62 99.62 2546.3 113.2 2494.58 148c-44.81 30.14-62.51 94.91-69.19 132.46"/>
            <path d="m2428.87 280.82-5.05 9.31-1.86-10.43z"/>
        </g>
        <g class="node" transform="translate(4 616)">
            <ellipse cx="4341.58" cy="-162" fill="none" stroke="#000" rx="75.92" ry="18"/>
            <text x="4341.58" y="-156.95" font-family="Times,serif" font-size="14" text-anchor="middle">:app:data:account</text>
        </g>
        <g stroke="#000" class="edge">
            <path fill="none" d="M3927.52 103.09c65.9 7.68 159.03 21.58 238.06 44.91 76.74 22.65 93.09 36.92 165 72 60.41 29.47 98.6 14.25 133 72 24.57 41.24 26.08 67.7 0 108-11.64 17.98-30.98 29.92-50.67 37.82"/>
            <path d="m4414.32 441.03-10.59.15 8.19-6.72z"/>
        </g>
        <g class="node" transform="translate(4 616)">
            <ellipse cx="3669.58" cy="-378" fill="none" stroke="#000" rx="83.6" ry="18"/>
            <text x="3669.58" y="-372.95" font-family="Times,serif" font-size="14" text-anchor="middle">:app:data:credential</text>
        </g>
        <g stroke="#000" class="edge">
            <path fill="none" d="M3822.53 111.85c-29.86 25.08-86.15 72.38-120.33 101.1"/>
            <path d="m3704.67 215.45-9.91 3.75 5.41-9.11z"/>
        </g>
        <g class="node" transform="translate(4 616)">
            <ellipse cx="1621.58" cy="-234" fill="none" stroke="#000" rx="74.89" ry="18"/>
            <text x="1621.58" y="-228.95" font-family="Times,serif" font-size="14" text-anchor="middle">:app:data:holiday</text>
        </g>
        <g stroke="#000" class="edge">
            <path fill="none" d="M3745.52 96.1c-375.6 4.47-1717.12 22.42-1802.94 51.9-126.71 43.52-245.35 157.14-293.9 207.89"/>
            <path d="m1651.42 358.08-9.41 4.86 4.33-9.67z"/>
        </g>
        <g class="node" transform="translate(4 616)">
            <ellipse cx="1826.58" cy="-234" fill="none" stroke="#000" rx="73.87" ry="18"/>
            <text x="1826.58" y="-228.95" font-family="Times,serif" font-size="14" text-anchor="middle">:app:data:backup</text>
        </g>
        <g stroke="#000" class="edge">
            <path fill="none" d="M3745.01 95.38c-370.45 1.77-1672.88 10.95-1750.43 52.62-83.66 44.95-134.07 153.52-154.06 205.01"/>
            <path d="m1843.85 354.12-6.81 8.12.26-10.59z"/>
        </g>
        <g class="node" transform="translate(4 616)">
            <ellipse cx="2275.58" cy="-306" fill="none" stroke="#000" rx="65.68" ry="18"/>
            <text x="2275.58" y="-300.95" font-family="Times,serif" font-size="14" text-anchor="middle">:app:data:fetch</text>
        </g>
        <g stroke="#000" class="edge">
            <path fill="none" d="M3744.89 94.9c-295.86.21-1169.13 4.97-1287.31 53.1-69.91 28.47-130.01 97.26-159.18 135.06"/>
            <path d="m2301.41 284.89-8.83 5.86 3.25-10.09z"/>
        </g>
        <g class="node" transform="translate(4 616)">
            <ellipse cx="3202.58" cy="-234" fill="none" stroke="#000" rx="62.1" ry="18"/>
            <text x="3202.58" y="-228.95" font-family="Times,serif" font-size="14" text-anchor="middle">:app:data:fcm</text>
        </g>
        <g stroke="#000" class="edge">
            <path fill="none" d="M3745.99 96.54c-245.9 4.38-878.41 18.79-909.41 51.46-55.06 58.04-53.02 120.09 0 180 43.62 49.29 229.14 24.8 294 36 5.91 1.02 12.06 2.2 18.18 3.45"/>
            <path d="m3149.15 363.95 9.06 5.49-10.5 1.36z"/>
        </g>
        <g class="node" transform="translate(4 616)">
            <ellipse cx="4001.58" cy="-450" fill="none" stroke="#000" rx="78.48" ry="18"/>
            <text x="4001.58" y="-444.95" font-family="Times,serif" font-size="14" text-anchor="middle">:app:data:calendar</text>
        </g>
        <g stroke="red" stroke-width="2" class="edge">
            <path fill="none" d="M3879.97 111.06c23.61 10.14 54.27 23.31 79.4 34.09"/>
            <path fill="red" d="m3959.17 141.26 7.81 7.16-10.57-.73z"/>
        </g>
        <g class="node" transform="translate(4 616)">
            <ellipse cx="2102.58" cy="-234" fill="none" stroke="#000" rx="70.29" ry="18"/>
            <text x="2102.58" y="-228.95" font-family="Times,serif" font-size="14" text-anchor="middle">:app:data:buddy</text>
        </g>
        <g stroke="#000" class="edge">
            <path fill="none" d="M3745.08 95.57c-319.38 2.26-1321.7 12.49-1461.5 52.43-61.65 17.61-84.67 22.16-125 72-31.57 39.01-44.16 97.67-49.05 132.36"/>
            <path d="m2113.03 352.59-4.73 9.48-2.21-10.37z"/>
        </g>
        <g class="node" transform="translate(4 616)">
            <ellipse cx="4138.58" cy="-306" fill="none" stroke="#000" rx="84.11" ry="18"/>
            <text x="4138.58" y="-300.95" font-family="Times,serif" font-size="14" text-anchor="middle">:app:domain:memo</text>
        </g>
        <g stroke="#000" class="edge">
            <path fill="none" d="M3926.21 103.61c62.88 8.11 142.19 22.34 166.37 44.39 9.98 9.1 31.56 88.77 42.83 132.52"/>
            <path d="m4138.77 279.55-.92 10.55-5.86-8.82z"/>
        </g>
        <g class="node" transform="translate(4 616)">
            <ellipse cx="3956.58" cy="-234" fill="none" stroke="#000" rx="71.31" ry="18"/>
            <text x="3956.58" y="-228.95" font-family="Times,serif" font-size="14" text-anchor="middle">:app:domain:tag</text>
        </g>
        <g stroke="#000" class="edge">
            <path fill="none" d="M3854.52 112.15c6.73 10.13 14.98 23.38 21.06 35.85 34.71 71.25 63.45 160.48 76.86 205.02"/>
            <path d="m3955.73 351.8-.5 10.59-6.21-8.59z"/>
        </g>
        <g class="node" transform="translate(4 616)">
            <ellipse cx="4044.58" cy="-90" fill="none" stroke="#000" rx="88.71" ry="18"/>
            <text x="4044.58" y="-84.95" font-family="Times,serif" font-size="14" text-anchor="middle">:app:domain:account</text>
        </g>
        <g stroke="#000" class="edge">
            <path fill="none" d="M3846.42 112.39c5.56 26.67 15.16 79.34 15.16 124.61v146c0 64.59 71.63 103.62 126.22 123.99"/>
            <path d="m3988.81 503.63 8.23 6.68-10.59-.09z"/>
        </g>
        <g class="node" transform="translate(4 616)">
            <ellipse cx="3701.58" cy="-306" fill="none" stroke="#000" rx="96.39" ry="18"/>
            <text x="3701.58" y="-300.95" font-family="Times,serif" font-size="14" text-anchor="middle">:app:domain:credential</text>
        </g>
        <g stroke="#000" class="edge">
            <path fill="none" d="M3837.1 112.25c-10.37 30.93-35.06 96.94-70.52 143.75-7.98 10.53-18.34 20.49-28.25 28.86"/>
            <path d="m3740.57 287.55-9.97 3.58 5.56-9.02z"/>
        </g>
        <g class="node" transform="translate(4 616)">
            <ellipse cx="2513.58" cy="-90" fill="none" stroke="#000" rx="87.69" ry="18"/>
            <text x="2513.58" y="-84.95" font-family="Times,serif" font-size="14" text-anchor="middle">:app:domain:holiday</text>
        </g>
        <g stroke="#000" class="edge">
            <path fill="none" d="M3744.88 95.2c-247.85 1.16-887.52 8.47-972.3 52.8-144.9 75.77-222.16 275.37-246.46 349.11"/>
            <path d="m2529.53 497.93-6.39 8.45-.27-10.59z"/>
        </g>
        <g class="node" transform="translate(4 616)">
            <ellipse cx="3666.58" cy="-162" fill="none" stroke="#000" rx="86.67" ry="18"/>
            <text x="3666.58" y="-156.95" font-family="Times,serif" font-size="14" text-anchor="middle">:app:domain:backup</text>
        </g>
        <g stroke="#000" class="edge">
            <path fill="none" d="M3772.78 106.95c-62.42 14.79-150.32 46.66-192.2 113.05-8.54 13.53-2.16 20.15 0 36 8.94 65.56 48.11 134.06 71.73 170.49"/>
            <path d="m3655.09 424.35 2.59 10.28-8.43-6.42z"/>
        </g>
        <g class="node" transform="translate(4 616)">
            <ellipse cx="3512.58" cy="-234" fill="none" stroke="#000" rx="78.48" ry="18"/>
            <text x="3512.58" y="-228.95" font-family="Times,serif" font-size="14" text-anchor="middle">:app:domain:fetch</text>
        </g>
        <g stroke="#000" class="edge">
            <path fill="none" d="M3745.91 96.93c-87.26 4.02-206.4 16-236.33 51.07-49.62 58.14-22.22 157.3-4.43 205.32"/>
            <path d="m3508.33 351.84.32 10.59-6.86-8.08z"/>
        </g>
        <g class="node" transform="translate(4 616)">
            <ellipse cx="3112.58" cy="-162" fill="none" stroke="#000" rx="74.89" ry="18"/>
            <text x="3112.58" y="-156.95" font-family="Times,serif" font-size="14" text-anchor="middle">:app:domain:fcm</text>
        </g>
        <g stroke="#000" class="edge">
            <path fill="none" d="M3746.23 96.77c-250.32 5.01-904.3 20.95-939.65 51.23-60.76 52.04-50.69 118.94 1 180 58.83 69.49 162.06 100.78 232.9 114.57"/>
            <path d="m3040.88 439.09 9.19 5.27-10.48 1.61z"/>
        </g>
        <g class="node" transform="translate(4 616)">
            <ellipse cx="4226.58" cy="-378" fill="none" stroke="#000" rx="91.27" ry="18"/>
            <text x="4226.58" y="-372.95" font-family="Times,serif" font-size="14" text-anchor="middle">:app:domain:calendar</text>
        </g>
        <g stroke="#000" class="edge">
            <path fill="none" d="M3934.54 100.2c57.25 6.1 131.12 19.29 191.04 47.8 32.29 15.36 62.7 43.17 82.4 63.63"/>
            <path d="m4210.41 209.1 4.3 9.68-9.4-4.89z"/>
        </g>
        <g class="node" transform="translate(4 616)">
            <ellipse cx="3326.58" cy="-162" fill="none" stroke="#000" rx="83.08" ry="18"/>
            <text x="3326.58" y="-156.95" font-family="Times,serif" font-size="14" text-anchor="middle">:app:domain:buddy</text>
        </g>
        <g stroke="#000" class="edge">
            <path fill="none" d="M3748.92 99.28c-91.35 5.84-222.34 19.2-263.34 48.72-95.8 68.98-136.28 214.69-149.59 276.41"/>
            <path d="m3339.44 425.02-5.45 9.09-1.4-10.51z"/>
        </g>
        <g class="node" transform="translate(4 616)">
            <ellipse cx="2390.58" cy="-234" fill="none" stroke="#000" rx="123.52" ry="18"/>
            <text x="2390.58" y="-228.95" font-family="Times,serif" font-size="14" text-anchor="middle">:app:core:filter-database-room</text>
        </g>
        <g stroke="#000" class="edge">
            <path fill="none" d="M3745.54 96.27c-288.93 4.15-1126.53 18.97-1174.96 51.73-72.66 49.16-21.69 115.36-81 180-11.94 13.01-27.83 23.59-43.2 31.78"/>
            <path d="m2448.26 362.75-10.5 1.38 7.35-7.63z"/>
        </g>
        <g class="node" transform="translate(4 616)">
            <ellipse cx="748.58" cy="-234" fill="none" stroke="#000" rx="132.22" ry="18"/>
            <text x="748.58" y="-228.95" font-family="Times,serif" font-size="14" text-anchor="middle">:app:core:backup-database-room</text>
        </g>
        <g stroke="#000" class="edge">
            <path fill="none" d="M3745.03 95.16c-503.7.99-2789.15 7.99-2846.45 52.84-65.2 51.03 3.27 114.99-48 180-10.51 13.33-25.33 23.74-40.27 31.68"/>
            <path d="m811.87 362.81-10.51 1.3 7.4-7.57z"/>
        </g>
        <g class="node" transform="translate(4 616)">
            <ellipse cx="6931.58" cy="-234" fill="none" stroke="#000" rx="158.32" ry="18"/>
            <text x="6931.58" y="-228.95" font-family="Times,serif" font-size="14" text-anchor="middle">:app:core:account-preferences-datastore</text>
        </g>
        <g stroke="#000" class="edge">
            <path fill="none" d="M3940.01 95.43c504.44 2.41 2798.58 15.37 2861.57 52.57 76.98 45.46 113.79 153.36 127.44 204.8"/>
            <path d="m6932.35 351.71-.93 10.55-5.85-8.83z"/>
        </g>
        <g class="node" transform="translate(4 616)">
            <ellipse cx="1099.58" cy="-234" fill="none" stroke="#000" rx="124.54" ry="18"/>
            <text x="1099.58" y="-228.95" font-family="Times,serif" font-size="14" text-anchor="middle">:app:core:diary-database-room</text>
        </g>
        <g stroke="#000" class="edge">
            <path fill="none" d="M3745.3 96.06c-372.47 4.26-1696.39 21.43-1882.72 51.94-274.98 45.03-588.95 164.23-708.88 212.38"/>
            <path d="m1155.37 363.49-10.59.49 7.97-6.99z"/>
        </g>
        <g class="node" transform="translate(4 616)">
            <ellipse cx="7302.58" cy="-234" fill="none" stroke="#000" rx="157.3" ry="18"/>
            <text x="7302.58" y="-228.95" font-family="Times,serif" font-size="14" text-anchor="middle">:app:core:holiday-preferences-datastore</text>
        </g>
        <g stroke="#000" class="edge">
            <path fill="none" d="M3940.11 95.38c538.08 2.25 3122.67 15.01 3195.47 52.62 85.76 44.31 139.2 153.61 160.46 205.19"/>
            <path d="m7299.16 351.58.47 10.58-6.97-7.97z"/>
        </g>
        <g class="node" transform="translate(4 616)">
            <ellipse cx="465.58" cy="-234" fill="none" stroke="#000" rx="133.24" ry="18"/>
            <text x="465.58" y="-228.95" font-family="Times,serif" font-size="14" text-anchor="middle">:app:core:holiday-database-room</text>
        </g>
        <g stroke="#000" class="edge">
            <path fill="none" d="M3745.22 95.71C3239.81 99.51 935.93 118.45 868.58 148c-60.74 26.65-48.42 70.31-103 108-72.1 49.79-167.15 85.54-229.85 105.73"/>
            <path d="m536.83 365.05-10.59-.31 8.47-6.36z"/>
        </g>
        <g class="node" transform="translate(4 616)">
            <ellipse cx="5126.58" cy="-378" fill="none" stroke="#000" rx="81.55" ry="18"/>
            <text x="5126.58" y="-372.95" font-family="Times,serif" font-size="14" text-anchor="middle">:app:feature:memo</text>
        </g>
        <g stroke="#000" class="edge">
            <path fill="none" d="M3939.01 97.08c215.76 5.15 731.98 20.35 903.57 50.92 86.16 15.35 182.64 48.62 239.2 69.85"/>
            <path d="m5082.68 214.45 8.11 6.81-10.59-.26z"/>
        </g>
        <g class="node" transform="translate(4 616)">
            <ellipse cx="5715.58" cy="-378" fill="none" stroke="#000" rx="68.75" ry="18"/>
            <text x="5715.58" y="-372.95" font-family="Times,serif" font-size="14" text-anchor="middle">:app:feature:tag</text>
        </g>
        <g stroke="#000" class="edge">
            <path fill="none" d="M3939.92 95.8c362.73 3.26 1618.99 17.06 1696.66 52.2 28.75 13.01 52.2 41.13 66.75 62.3"/>
            <path d="m5706.15 208.21 2.58 10.28-8.43-6.42z"/>
        </g>
        <g class="node" transform="translate(4 616)">
            <ellipse cx="5929.58" cy="-450" fill="none" stroke="#000" rx="88.71" ry="18"/>
            <text x="5929.58" y="-444.95" font-family="Times,serif" font-size="14" text-anchor="middle">:app:feature:calendar</text>
        </g>
        <g stroke="#000" class="edge">
            <path fill="none" d="M3939.78 95.83c346.06 3.22 1517.45 16.55 1890.8 52.17 9.21.88 18.84 2.08 28.35 3.45"/>
            <path d="m5859.16 147.94 9.37 4.95-10.41 1.97z"/>
        </g>
        <g class="node" transform="translate(4 616)">
            <ellipse cx="4898.58" cy="-378" fill="none" stroke="#000" rx="80.52" ry="18"/>
            <text x="4898.58" y="-372.95" font-family="Times,serif" font-size="14" text-anchor="middle">:app:feature:buddy</text>
        </g>
        <g stroke="#000" class="edge">
            <path fill="none" d="M3939.34 96.73c227.85 4.59 784.98 18.99 863.24 51.27 32.52 13.41 61.55 42.08 79.84 63.28"/>
            <path d="m4884.88 208.76 3.73 9.91-9.1-5.42z"/>
        </g>
        <g class="node" transform="translate(4 616)">
            <ellipse cx="6217.58" cy="-378" fill="none" stroke="#000" rx="76.94" ry="18"/>
            <text x="6217.58" y="-372.95" font-family="Times,serif" font-size="14" text-anchor="middle">:app:feature:more</text>
        </g>
        <g stroke="#000" class="edge">
            <path fill="none" d="M3939.83 95.84c417.2 3.78 2039.08 20.48 2142.75 52.16 42.9 13.11 85.31 43.47 111.79 65.07"/>
            <path d="m6196.44 210.25 5.44 9.09-9.92-3.72z"/>
        </g>
        <g class="node" transform="translate(4 616)">
            <ellipse cx="5388.58" cy="-378" fill="none" stroke="#000" rx="86.15" ry="18"/>
            <text x="5388.58" y="-372.95" font-family="Times,serif" font-size="14" text-anchor="middle">:app:feature:account</text>
        </g>
        <g stroke="#000" class="edge">
            <path fill="none" d="M3940 95.68c298.9 2.49 1190.24 13.15 1314.58 52.32 42.32 13.33 84.19 43.35 110.52 64.84"/>
            <path d="m5367.14 209.98 5.43 9.09-9.92-3.71z"/>
        </g>
        <g class="node" transform="translate(4 616)">
            <ellipse cx="5073.58" cy="-162" fill="none" stroke="#000" rx="112.26" ry="18"/>
            <text x="5073.58" y="-156.95" font-family="Times,serif" font-size="14" text-anchor="middle">:library:firebase-messaging</text>
        </g>
        <g stroke="#000" class="edge">
            <path fill="none" d="M3930.63 101.98c78.26 7.44 195.37 21.58 294.95 46.02 315.42 77.4 677 228.68 804.51 284.05"/>
            <path d="m5031.48 428.84 7.77 7.2-10.57-.78z"/>
        </g>
        <g class="node" transform="translate(4 616)">
            <ellipse cx="1644.58" cy="-18" fill="none" stroke="#000" rx="71.31" ry="18"/>
            <text x="1644.58" y="-12.95" font-family="Times,serif" font-size="14" text-anchor="middle">:app:core:model</text>
        </g>
        <g stroke="#000" class="edge">
            <path fill="none" d="M1984.16 470.6 1697.8 578.46"/>
            <path d="m1699.25 581.65-10.59.25 8.12-6.8z"/>
        </g>
        <g class="node" transform="translate(4 616)">
            <ellipse cx="3555.58" cy="-18" fill="none" stroke="#000" rx="85.13" ry="18"/>
            <text x="3555.58" y="-12.95" font-family="Times,serif" font-size="14" text-anchor="middle">:common:exception</text>
        </g>
        <g stroke="#000" class="edge">
            <path fill="none" d="M2069.44 470.44c61.65 20.91 177.85 57.48 280.14 73.56 213.93 33.63 866.95 47.45 1113.97 51.57"/>
            <path d="m3463.55 592.07 9.94 3.67-10.06 3.33z"/>
        </g>
        <g class="node" transform="translate(4 616)">
            <ellipse cx="4425.58" cy="-90" fill="none" stroke="#000" rx="121.98" ry="18"/>
            <text x="4425.58" y="-84.95" font-family="Times,serif" font-size="14" text-anchor="middle">:app:core:account-preferences</text>
        </g>
        <g stroke="#000" class="edge">
            <path fill="none" d="M2106.57 463.92c31.22 3.09 67.24 6.24 100.01 8.08 861.01 48.35 1078.29 2.14 1940 36 53.61 2.11 112.88 5.5 163.26 8.71"/>
            <path d="m4309.85 513.2 9.75 4.13-10.2 2.85z"/>
        </g>
        <g class="node" transform="translate(4 616)">
            <ellipse cx="2030.58" cy="-90" fill="none" stroke="#000" rx="72.85" ry="18"/>
            <text x="2030.58" y="-84.95" font-family="Times,serif" font-size="14" text-anchor="middle">:common:model</text>
        </g>
        <g stroke="#000" class="edge">
            <path fill="none" d="M2027.8 472.3c.95 7.38 2.08 16.18 3.15 24.45"/>
            <path d="m2034.38 496.03-2.19 10.36-4.75-9.47z"/>
        </g>
        <g stroke="#000" class="edge">
            <path fill="none" d="M186.99 466.23c13.53 1.93 27.47 3.91 40.59 5.77 228.4 32.31 284.45 49.25 514 72 303.51 30.08 665.97 44.95 825.18 50.44"/>
            <path d="m1566.48 590.92 9.87 3.84-10.11 3.16z"/>
        </g>
        <g stroke="#000" class="edge">
            <path fill="none" d="M5375.78 322.46c11.53 2 23.52 3.94 34.8 5.54 152.65 21.59 201.48-20.29 345 36 24.83 9.74 25.14 22.27 48 36 19.99 12.01 43.16 23.3 63.28 32.34"/>
            <path d="m5868.27 429.13 7.73 7.24-10.56-.84z"/>
        </g>
        <g stroke="#000" class="edge">
            <path fill="none" d="M5386.43 318.96c99.55 11.51 271.68 32.79 298.15 45.04 32.86 15.21 89.74 91.56 122 108 53.75 27.4 121.37 40.71 170.95 47.13"/>
            <path d="m5977.78 515.63 9.5 4.69-10.35 2.26z"/>
        </g>
        <g stroke="#000" class="edge">
            <path fill="none" d="M5339.13 327.64c37.45 27.05 107.67 80.35 120.45 108.36 19.92 43.67 32.36 72.55 0 108-32.69 35.82-342.63 47.73-495.11 51.44"/>
            <path d="m4964.92 598.93-10.08-3.26 9.91-3.74z"/>
        </g>
        <g stroke="#000" class="edge">
            <path fill="none" d="M5234.97 312.33c-179.51 2.96-625.79 10.23-999.39 15.67-37.42.54-2667.72 9.36-2694 36-30.83 31.25 49.35 152.64 87.79 206.73"/>
            <path d="m1632.16 568.62 2.99 10.17-8.67-6.09z"/>
        </g>
        <g class="node" transform="translate(4 616)">
            <ellipse cx="5556.58" cy="-234" fill="none" stroke="#000" rx="115.33" ry="18"/>
            <text x="5556.58" y="-228.95" font-family="Times,serif" font-size="14" text-anchor="middle">:app:core:calendar-compose</text>
        </g>
        <g stroke="#000" class="edge">
            <path fill="none" d="M5363.98 324.83c37.9 10.83 90.94 25.98 132.38 37.82"/>
            <path d="m5497.06 359.21 8.66 6.12-10.58.61z"/>
        </g>
        <g stroke="#000" class="edge">
            <path fill="none" d="M5947.15 471.59c18.06 9.8 41.09 22.29 60.33 32.73"/>
            <path d="m6008.98 501.16 7.12 7.84-10.46-1.69z"/>
        </g>
        <g stroke="#000" class="edge">
            <path fill="none" d="M5868.88 470.26c-65.73 20.35-188.19 55.89-295.3 73.74-217.64 36.26-477.94 47.76-608.91 51.37"/>
            <path d="m4964.77 598.87-10.09-3.23 9.9-3.77z"/>
        </g>
        <g stroke="#000" class="edge">
            <path fill="none" d="M6125.25 325.46c18.46 8.18 37.69 20.51 48.33 38.54 40.66 68.9 55.4 122.28 0 180-10.51 10.95-924.88 41.19-1209.44 50.34"/>
            <path d="m4964.29 597.84-10.11-3.18 9.89-3.82z"/>
        </g>
        <g stroke="#000" class="edge">
            <path fill="none" d="M6263.3 328.44c3.29 44.54 4.97 162.63-62.72 215.56-12.23 9.56-948.77 40.89-1236.72 50.3"/>
            <path d="m4964.29 597.79-10.1-3.17 9.88-3.83z"/>
        </g>
        <g stroke="#000" class="edge">
            <path fill="none" d="M5874.3 322.36c61.32 14.49 148.15 46.28 185.28 113.64 10.32 18.72 5.63 42.81-.98 61.21"/>
            <path d="m6061.88 498.44-6.97 7.98.47-10.58z"/>
        </g>
        <g stroke="#000" class="edge">
            <path fill="none" d="M2225.4 255.72c-7.23 10-15.73 23.25-20.82 36.28-17.73 45.4 12.86 71.12-19 108-17.66 20.44-43.39 33.03-69.07 40.78"/>
            <path d="m2117.56 444.12-10.57-.72 8.71-6.03z"/>
        </g>
        <g stroke="#000" class="edge">
            <path fill="none" d="M2167.05 239.5c-164.46 1.86-565.12 10.68-692.47 52.5-113.51 37.27-169.43 39.31-227 144-7.71 14.02-10.04 23.54 0 36 11.77 14.61 311.4 69.52 330 72 354.93 47.3 782.09 53.29 965.32 53.46"/>
            <path d="m2542.84 593.96 10 3.5-10 3.5z"/>
        </g>
        <g stroke="#000" class="edge">
            <path fill="none" d="M2310.16 239.25c310.33 1.34 1541.05 9.32 1925.42 52.75 80.64 9.11 99.38 20.33 179 36 83.04 16.34 104.58 16.77 187 36 14.7 3.43 251.18 61.48 262 72 35.04 34.06 30.33 96.11 23.7 132.42"/>
            <path d="m4890.71 569.08-5.4 9.11-1.46-10.49z"/>
        </g>
        <g stroke="#000" class="edge">
            <path fill="none" d="M2309.1 240.94c221.3 6.18 921.72 26.45 1501.48 51.06 81.22 3.45 173.57 8.25 240.21 11.87"/>
            <path d="m4050.79 300.36 9.79 4.04-10.17 2.95z"/>
        </g>
        <g class="node" transform="translate(4 616)">
            <ellipse cx="1387.58" cy="-162" fill="none" stroke="#000" rx="101.51" ry="18"/>
            <text x="1387.58" y="-156.95" font-family="Times,serif" font-size="14" text-anchor="middle">:app:core:diary-database</text>
        </g>
        <g stroke="#000" class="edge">
            <path fill="none" d="M2170.54 243.82C1976.26 258.28 1429.5 304 1377.58 364c-14.44 16.69-8.71 42.02-.66 61.39"/>
            <path d="m1380.04 423.8.99 10.55-7.35-7.63z"/>
        </g>
        <g stroke="#000" class="edge">
            <path fill="none" d="M2379.24 322.69c-8.14 1.98-16.63 3.86-24.66 5.31-143.87 26.04-188.71-11.47-327 36-57.75 19.82-87.22 18.7-117 72-13.85 24.79 12.42 104.9 16 108 45.64 39.51 436.47 49.59 616.67 52.14"/>
            <path d="m2543.09 592.64 9.95 3.64-10.05 3.36z"/>
        </g>
        <g stroke="#000" class="edge">
            <path fill="none" d="M2480.11 311.88c172.41 2.95 693.22 14.58 1123.47 52.12 123.68 10.79 153.44 23.94 277 36 121.9 11.9 439.56-16.96 550 36 19.57 9.38 14.99 23.89 33 36 38.16 25.66 54.82 17.69 97 36 32.82 14.25 38.24 24.17 72 36 57.27 20.07 124.75 33.89 174.86 42.38"/>
            <path d="m4807.71 582.87 9.29 5.09-10.43 1.82z"/>
        </g>
        <g stroke="#000" class="edge">
            <path fill="none" d="M2480.08 311.85c190.33 3.08 809.07 15.43 1319.5 52.15 28.21 2.03 59.12 5.09 86.24 8.06"/>
            <path d="m3886.14 368.57 9.55 4.58-10.32 2.38z"/>
        </g>
        <g stroke="#000" class="edge">
            <path fill="none" d="M2380.03 322.98c-8.36 2-17.14 3.82-25.45 5.02-101.47 14.69-836.76-20.96-922 36-20.43 13.65-30.86 40.24-36.07 60.81"/>
            <path d="m1399.98 425.31-5.58 9.01-1.25-10.53z"/>
        </g>
        <g stroke="#000" class="edge">
            <path fill="none" d="M4318.44 471.24c-37.25 21.29-106.97 57.72-171.86 72.76-69.45 16.1-1108.34 42.99-1423.22 50.81"/>
            <path d="m2723.62 598.3-10.08-3.25 9.91-3.75z"/>
        </g>
        <g stroke="#000" class="edge">
            <path fill="none" d="M4325.72 471.63c-20.51 19.14-46.93 50.69-27.14 72.37 32.91 36.05 345.2 47.85 498.26 51.49"/>
            <path d="m4796.59 591.98 9.92 3.73-10.08 3.27z"/>
        </g>
        <g stroke="#000" class="edge">
            <path fill="none" d="M4293.17 467.35c-49.29 11.62-123.32 29.07-177.02 41.72"/>
            <path d="m4117.03 512.46-10.54-1.11 8.93-5.7z"/>
        </g>
        <g stroke="#000" class="edge">
            <path fill="none" d="M4365.49 471.59c10.33 8.61 23.16 19.31 34.62 28.86"/>
            <path d="m4402.33 497.74 5.45 9.09-9.93-3.71z"/>
        </g>
        <g stroke="#000" class="edge">
            <path fill="none" d="M3589.65 238.89c-201.07.51-705.6 6.55-867.07 53.11-95.19 27.45-100.52 78.2-195 108-19.09 6.02-266.55 30.44-406.74 43.93"/>
            <path d="m2121.48 447.38-10.29-2.52 9.62-4.45z"/>
        </g>
        <g stroke="#000" class="edge">
            <path fill="none" d="M3590.29 240.54c-387.36 7.59-2002.71 43.77-2212.71 123.46-50.2 19.05-72.87 24.04-97 72-7.19 14.29-10.35 23.8 0 36 31.61 37.29 169.29 25.37 217 36 57.68 12.86 69.69 26.39 128 36 175.3 28.89 705.29 45.27 918.12 50.83"/>
            <path d="m2543.7 591.32 9.9 3.76-10.08 3.24z"/>
        </g>
        <g stroke="#000" class="edge">
            <path fill="none" d="M3757.3 239.31c183.28 2.7 632.3 20.42 990.28 124.69 2.41.7 164.62 69.9 166 72 26.34 40.13 13.19 61.85 0 108-2.67 9.34-7.51 18.63-12.68 26.76"/>
            <path d="m4903.95 572.51-8.53 6.28 2.75-10.23z"/>
        </g>
        <g stroke="#000" class="edge">
            <path fill="none" d="M3681.49 256.3c3.49 7.63 7.67 16.78 11.57 25.3"/>
            <path d="m3696.16 279.97.97 10.55-7.34-7.64z"/>
        </g>
        <g stroke="#000" class="edge">
            <path fill="none" d="M3756.21 241.37c134.4 4.77 393.95 17.98 479.37 50.63 100.64 38.46 146.46 47.82 195 144 9.37 18.56 8.61 42.19 5.79 60.44"/>
            <path d="m4439.85 496.87-5.28 9.19-1.6-10.48z"/>
        </g>
        <g stroke="#000" class="edge">
            <path fill="none" d="M1552.64 386.35c-77.97 3.54-205.25 9.22-315.06 13.65-434.16 17.51-543.68 3.83-977 36-18.82 1.4-38.9 3.33-58.09 5.39"/>
            <path d="m203.13 444.84-10.32-2.39 9.56-4.57z"/>
        </g>
        <g stroke="#000" class="edge">
            <path fill="none" d="M1622.47 400.32c-4.9 33.52-10.04 107.13 31.11 143.68 32.98 29.29 654.01 45.88 890.03 51.14"/>
            <path d="m2543.45 591.64 9.92 3.72-10.07 3.28z"/>
        </g>
        <g stroke="#000" class="edge">
            <path fill="none" d="M1646.55 399.76c45.17 34.93 156.43 114.74 265.03 144.24 35.77 9.72 2405.23 44.78 2884.88 51.78"/>
            <path d="m4796.31 592.28 9.95 3.64-10.05 3.35z"/>
        </g>
        <g stroke="#000" class="edge">
            <path fill="none" d="M1665.01 397.72c55.98 20.25 162.08 56.22 255.57 74.28 173.7 33.55 379.99 45.91 498.98 50.43"/>
            <path d="m2419.42 518.92 9.87 3.87-10.13 3.13z"/>
        </g>
        <g class="node" transform="translate(4 616)">
            <ellipse cx="4670.58" cy="-162" fill="none" stroke="#000" rx="120.96" ry="18"/>
            <text x="4670.58" y="-156.95" font-family="Times,serif" font-size="14" text-anchor="middle">:app:core:holiday-preferences</text>
        </g>
        <g stroke="#000" class="edge">
            <path fill="none" d="M1686.23 392.98c19.53 2.8 41.31 5.5 61.35 7.02 594.56 45.23 2087.24 11.27 2683 36 42.08 1.75 88.17 4.69 128.86 7.64"/>
            <path d="m4559.54 440.14 9.71 4.22-10.23 2.76z"/>
        </g>
        <g class="node" transform="translate(4 616)">
            <ellipse cx="553.58" cy="-162" fill="none" stroke="#000" rx="110.21" ry="18"/>
            <text x="553.58" y="-156.95" font-family="Times,serif" font-size="14" text-anchor="middle">:app:core:holiday-database</text>
        </g>
        <g stroke="#000" class="edge">
            <path fill="none" d="M1552.28 386.03c-154.86 6.66-526.67 24.1-837.7 49.97-18.84 1.57-38.93 3.52-58.22 5.55"/>
            <path d="m656.93 445.01-10.31-2.43 9.57-4.54z"/>
        </g>
        <g stroke="#000" class="edge">
            <path fill="none" d="M1870.98 397.5c29.27 10.51 69.13 24.82 101.05 36.28"/>
            <path d="m1972.87 430.36 8.23 6.67-10.6-.08z"/>
        </g>
        <g stroke="#000" class="edge">
            <path fill="none" d="M1805.19 399.17c-11.99 9.18-25.08 21.84-31.61 36.83-20 45.9-9.08 79.39 32 108 59.36 41.33 535.25 50.43 737.54 52.44"/>
            <path d="m2543.11 592.93 9.96 3.6-10.03 3.4z"/>
        </g>
        <g stroke="#000" class="edge">
            <path fill="none" d="M1840.88 400.17c23.27 38.16 80.36 127.9 111.7 143.83 16.29 8.28 2366.9 44.46 2844.07 51.73"/>
            <path d="m4796.45 592.22 9.95 3.66-10.06 3.34z"/>
        </g>
        <g stroke="#000" class="edge">
            <path fill="none" d="M1897.53 389.79c38.08 3.6 86.69 7.78 130.05 10.21 619.24 34.68 775.48 6.79 1395 36 51.97 2.45 109.99 6.36 156.84 9.82"/>
            <path d="m3579.55 442.32 9.71 4.23-10.23 2.75z"/>
        </g>
        <g stroke="#000" class="edge">
            <path fill="none" d="M1770 392.66c-76.2 12.15-207.47 33.08-293.62 46.82"/>
            <path d="m1476.98 442.93-10.42-1.89 9.32-5.03z"/>
        </g>
        <g class="node" transform="translate(4 616)">
            <ellipse cx="828.58" cy="-162" fill="none" stroke="#000" rx="109.19" ry="18"/>
            <text x="828.58" y="-156.95" font-family="Times,serif" font-size="14" text-anchor="middle">:app:core:backup-database</text>
        </g>
        <g stroke="#000" class="edge">
            <path fill="none" d="M1769.76 392.56c-19.21 2.75-40.55 5.52-60.18 7.44-285.75 28-358.48 17.51-645 36-40.26 2.6-84.42 5.76-123.31 8.64"/>
            <path d="m941.65 448.12-10.23-2.74 9.71-4.24z"/>
        </g>
        <g stroke="#000" class="edge">
            <path fill="none" d="M2272.33 328.13c-9.42 20.21-27.81 53.39-53.75 71.87-29.75 21.19-67.61 33.92-101.91 41.56"/>
            <path d="m2117.67 444.92-10.51-1.37 9.07-5.48z"/>
        </g>
        <g stroke="#000" class="edge">
            <path fill="none" d="M2230.68 322.44c-10.23 2.1-20.98 4.09-31.1 5.56-49.86 7.25-417.82-1.01-452 36-33.74 36.53-87.37 80.58 20 180 55.93 51.78 564.75 54.81 775.36 53.81"/>
            <path d="m2542.73 594.31 10.02 3.45-9.98 3.55z"/>
        </g>
        <g stroke="#000" class="edge">
            <path fill="none" d="M2325.92 323.04c9.11 1.97 18.64 3.76 27.66 4.96 407.38 54.25 521.95-49.18 924 36 84.7 17.94 104.01 32.41 181 72 39.47 20.3 125.69 94.6 168 108 110.72 35.08 906.81 48.49 1169.87 51.99"/>
            <path d="m4796.36 592.49 9.95 3.63-10.04 3.37z"/>
        </g>
        <g stroke="#000" class="edge">
            <path fill="none" d="M2325.91 323.07c9.12 1.97 18.65 3.75 27.67 4.93 455.49 59.7 575.17-1.83 1033 36 17.67 1.46 36.62 3.6 54.44 5.88"/>
            <path d="m3441.28 366.39 9.46 4.77-10.37 2.17z"/>
        </g>
        <g stroke="#000" class="edge">
            <path fill="none" d="M2231.57 322.54c-10.49 2.15-21.57 4.13-31.99 5.46-44.41 5.67-773.52 4.17-805 36-15.29 15.46-14.69 40.78-11.04 60.48"/>
            <path d="m1386.93 423.59-1.24 10.52-5.59-9z"/>
        </g>
        <g stroke="#000" class="edge">
            <path fill="none" d="M3145.08 385.39c-156.67 6.27-583.49 24.54-938.5 50.61-28.36 2.08-59.17 4.8-87.2 7.46"/>
            <path d="m2119.76 446.94-10.29-2.54 9.62-4.43z"/>
        </g>
        <g stroke="#000" class="edge">
            <path fill="none" d="M3147.74 387.98c-37.12 6-83.79 19.16-115.16 48.02-38.02 34.98-2.5 75.92-43 108-40.21 31.84-175.23 44.64-266.93 49.72"/>
            <path d="m2723.09 597.21-10.17-2.97 9.8-4.02z"/>
        </g>
        <g stroke="#000" class="edge">
            <path fill="none" d="M3263.17 389.69c45.07 7 108.77 20.66 159.41 46.31 22.23 11.26 22.75 21.47 43 36 49.91 35.82 59.21 54.18 118 72 115.41 34.99 944.58 48.52 1213.23 52.02"/>
            <path d="m4796.57 592.51 9.95 3.63-10.04 3.37z"/>
        </g>
        <g stroke="#000" class="edge">
            <path fill="none" d="M3185.71 399.24c-11.54 8.97-26.07 20.27-38.83 30.2"/>
            <path d="m3149.2 432.06-10.04 3.38 5.74-8.9z"/>
        </g>
        <g stroke="#000" class="edge">
            <path fill="none" d="M3265.22 388.27c44.94 3.85 108.52 8.87 164.36 11.73 610.52 31.24 764.28 9 1375 36 52.81 2.34 111.32 5.85 160.58 9.09"/>
            <path d="m4965.24 441.58 9.75 4.16-10.21 2.83z"/>
        </g>
        <g stroke="#000" class="edge">
            <path fill="none" d="M3930.51 171.46C3667.82 187.44 2799.64 243.41 2684.58 292c-68.26 28.82-67.36 64.03-127 108-36.02 26.56-148.45 68.77-170 108-35.29 64.22 71.61 82.84 155.49 87.83"/>
            <path d="m2543.16 592.33 9.8 4.03-10.17 2.96z"/>
        </g>
        <g stroke="#000" class="edge">
            <path fill="none" d="M4083.94 167.76c390.73 3.91 2114.16 22.79 2223.64 52.24 64.16 17.26 97.18 14.82 131 72 68.4 115.65-40.48 206.77-167 252-30.91 11.05-1011.99 41.54-1307.55 50.5"/>
            <path d="m4964.17 597.99-10.11-3.19 9.89-3.8z"/>
        </g>
        <g stroke="red" stroke-width="2" class="edge">
            <path fill="none" d="M4050.84 181.08c34.92 10.87 83.5 25.98 121.35 37.75"/>
            <path fill="red" d="m4171.66 215 8.51 6.32-10.59.37z"/>
        </g>
        <g class="node" transform="translate(4 616)">
            <ellipse cx="2311.58" cy="-162" fill="none" stroke="#000" rx="100.48" ry="18"/>
            <text x="2311.58" y="-156.95" font-family="Times,serif" font-size="14" text-anchor="middle">:app:core:filter-database</text>
        </g>
        <g stroke="#000" class="edge">
            <path fill="none" d="M3926.79 166.74c-175.9.33-613.61 6.28-976.21 53.26-154.04 19.96-211.01-11.48-342 72-50.6 32.25-31.02 74.81-81 108-21.6 14.34-80.55 28.47-130.83 38.53"/>
            <path d="m2397.49 441.96-10.49-1.51 9.14-5.36z"/>
        </g>
        <g stroke="#000" class="edge">
            <path fill="none" d="M2087.38 399.59c-10.04 8.68-22.52 19.46-33.63 29.07"/>
            <path d="m2056.2 431.16-9.85 3.89 5.27-9.18z"/>
        </g>
        <g stroke="#000" class="edge">
            <path fill="none" d="M2047.52 391.96c-48.46 8.71-111.52 23.61-126.94 44.04-23.8 31.53 29.07 105.93 32 108 47.18 33.34 417.14 46.63 591.13 51.08"/>
            <path d="m2543.71 591.58 9.91 3.75-10.09 3.25z"/>
        </g>
        <g stroke="#000" class="edge">
            <path fill="none" d="M2121.61 400.02c18.3 19.79 51 52.26 84.97 71.98 43.39 25.19 164.57 63.36 214 72 119.3 20.85 1958.25 46.36 2376.02 51.9"/>
            <path d="m4796.49 592.4 9.95 3.63-10.04 3.37z"/>
        </g>
        <g stroke="#000" class="edge">
            <path fill="none" d="M2168.71 390.83c28.29 3.31 62.23 6.91 92.87 9.17 416.5 30.79 522.84.89 939 36 16.84 1.42 34.84 3.45 51.92 5.61"/>
            <path d="m3252.6 438.09 9.47 4.76-10.37 2.18z"/>
        </g>
        <g stroke="#000" class="edge">
            <path fill="none" d="M2041.87 389.34c-125.64 12.3-403.26 39.48-551.87 54.02"/>
            <path d="m1490.45 446.84-10.29-2.51 9.61-4.46z"/>
        </g>
        <g stroke="#000" class="edge">
            <path fill="none" d="M4226.37 312.04c150.66 2.83 476.97 13.29 749.21 51.96 73.02 10.37 89.34 23.35 162 36 62.67 10.91 230.46 1.64 284 36 48.81 31.32 77.81 95.84 91.15 132.99"/>
            <path d="m5515.93 567.55-.06 10.59-6.56-8.32z"/>
        </g>
        <g stroke="#000" class="edge">
            <path fill="none" d="M4061.53 315.14c-238.3 12.2-920.41 47.23-925.95 48.86-30.94 9.09-102.57 49.84-126 72-41.56 39.3-22.27 76.48-70 108-35.54 23.47-143.75 38.16-221.4 45.96"/>
            <path d="m2718.76 593.42-10.3-2.5 9.61-4.46z"/>
        </g>
        <g stroke="#000" class="edge">
            <path fill="none" d="M4210.03 321.14c170.03 25.82 604.36 93.52 627.55 114.86 37.01 34.06 43.58 96.11 43.99 132.42"/>
            <path d="m4885.07 568.18-3.55 9.98-3.45-10.02z"/>
        </g>
        <g stroke="red" stroke-width="2" class="edge">
            <path fill="none" d="M4103.09 326.19c-27.66 10.64-64.77 24.91-94.19 36.23"/>
            <path fill="red" d="m4011.85 365.03-10.59.32 8.08-6.85z"/>
        </g>
        <g stroke="#000" class="edge">
            <path fill="none" d="M4121.47 327.75c-25.54 21.76-67.21 62.45-83.89 108.25-7.13 19.56-3.81 42.97.99 60.87"/>
            <path d="m4041.87 495.7-.47 10.59-6.23-8.57z"/>
        </g>
        <g stroke="#000" class="edge">
            <path fill="none" d="M4074.61 320.89c-53.45 8.7-129.42 23.11-194.03 43.11-59.68 18.48-125.56 47.98-167.33 67.9"/>
            <path d="m3714.8 435.04-10.52 1.18 7.49-7.49z"/>
        </g>
        <g stroke="#000" class="edge">
            <path fill="none" d="M4062.45 315.9c-67.23 3.92-165.78 9.22-251.87 12.1-63.92 2.14-2257.13-9.57-2302 36-11.23 11.4-2.36 20.18 0 36 2.47 16.55 7.03 19.75 11 36 11.6 47.42-9.57 69.16 20 108 12.52 16.45 31.49 28.08 50.11 36.17"/>
            <path d="m1590.88 576.88 7.98 6.97-10.59-.48z"/>
        </g>
        <g stroke="#000" class="edge">
            <path fill="none" d="M4149.9 328.39c16.76 42.9 52.35 154.68-3.32 215.61-32.42 35.48-333.38 47.43-491.28 51.27"/>
            <path d="m3655.77 598.76-10.08-3.26 9.92-3.73z"/>
        </g>
        <g stroke="#000" class="edge">
            <path fill="none" d="M4031.72 383.73c250.95 2.87 1085.87 15.15 1199.86 52.27 82.28 26.8 85.66 67.25 162 108 25.41 13.57 55.07 26.04 79.43 35.47"/>
            <path d="m5473.94 576.08 8.09 6.84-10.59-.3z"/>
        </g>
        <g stroke="#000" class="edge">
            <path fill="none" d="M3931.9 398.92c-37.08 19.94-104.18 53.8-165.32 73.08-169.77 53.53-217.4 49.6-394 72-233.49 29.62-510.75 43.97-649.92 49.75"/>
            <path d="m2722.9 597.25-10.13-3.09 9.85-3.91z"/>
        </g>
        <g stroke="#000" class="edge">
            <path fill="none" d="M4031.83 383.54c98.63 2.31 281.61 12.26 431.75 52.46 38.05 10.19 44.52 21.12 81 36 99.77 40.68 218.25 83.5 284.51 106.97"/>
            <path d="m4829.97 575.57 8.27 6.63-10.6-.03z"/>
        </g>
        <g stroke="#000" class="edge">
            <path fill="none" d="M3966.2 400.25c6.48 18.59 18.23 48.6 33.38 71.75 6.42 9.8 14.69 19.52 22.59 27.9"/>
            <path d="m4024.65 497.42 4.49 9.6-9.5-4.7z"/>
        </g>
        <g stroke="red" stroke-width="2" class="edge">
            <path fill="none" d="M3910.4 395.11c-48.13 11.62-121.08 29.23-173.88 41.97"/>
            <path fill="red" d="m3739.06 440.07-10.54-1.06 8.9-5.74z"/>
        </g>
        <g stroke="#000" class="edge">
            <path fill="none" d="M3891.25 386.59c-185.74 9.67-691.75 36.43-858.67 49.41-.64.05-730.38 71.85-731 72-42.7 10.25-49.29 25.84-92 36-166.6 39.64-367.68 49.85-478.18 52.34"/>
            <path d="m1731.6 599.84-10.07-3.29 9.93-3.71z"/>
        </g>
        <g stroke="#000" class="edge">
            <path fill="none" d="M3953.76 400.16c-7.96 18.78-22.32 49.21-40.18 71.84-30.04 38.07-38.47 50.62-82 72-55.94 27.47-124.91 40.71-179.4 47.09"/>
            <path d="m3652.61 594.56-10.33-2.38 9.56-4.58z"/>
        </g>
        <g stroke="#000" class="edge">
            <path fill="none" d="M4130.74 533.1c48.76 3.49 111.81 7.78 167.84 10.9 436.22 24.28 960.48 43.74 1150.1 50.47"/>
            <path d="m5448.77 590.97 9.87 3.85-10.12 3.14z"/>
        </g>
        <g stroke="#000" class="edge">
            <path fill="none" d="M3968.24 533.95c-40.89 3.37-91.4 7.28-136.66 10.05-414.31 25.39-909.94 43.38-1108.91 50.09"/>
            <path d="m2723.04 597.58-10.11-3.16 9.88-3.83z"/>
        </g>
        <g stroke="#000" class="edge">
            <path fill="none" d="M4129.11 533.78c159.5 13.42 513.83 43.23 672.25 56.55"/>
            <path d="m4801.24 586.81 9.68 4.33-10.26 2.65z"/>
        </g>
        <g stroke="red" stroke-width="2" class="edge">
            <path fill="none" d="M3961.03 529.55c-377.57 11.02-1864.05 54.37-2230.48 65.06"/>
            <path fill="red" d="m1732.39 598.06-10.1-3.21 9.9-3.79z"/>
        </g>
        <g stroke="#000" class="edge">
            <path fill="none" d="M3982.13 538.24c-12.15 1.98-24.72 3.97-36.55 5.76-104.55 15.8-225.33 32.07-303.55 42.34"/>
            <path d="m3642.68 589.78-10.37-2.17 9.46-4.77z"/>
        </g>
        <g stroke="#000" class="edge">
            <path fill="none" d="M3795.44 316.89c323.39 21.36 1412.63 94.78 1483.14 119.11 87.8 30.29 174.61 99.9 216.71 136.88"/>
            <path d="m5497.55 570.2 5.14 9.26-9.79-4.03z"/>
        </g>
        <g stroke="#000" class="edge">
            <path fill="none" d="M3609.79 312.45c-153.74 3.41-448.13 14.68-545.21 51.55-24.93 9.47-26.17 20.69-48 36-23.92 16.77-36.07 13.74-55 36-34.03 40.01-6.82 75.39-48 108-29.77 23.58-124.55 37.94-195.65 45.66"/>
            <path d="m2718.55 593.11-10.31-2.43 9.58-4.53z"/>
        </g>
        <g stroke="#000" class="edge">
            <path fill="none" d="M3786.25 320.21c141.7 16.18 444.56 50.74 700.33 79.79 70.66 8.03 260.17-5.39 318 36 22.97 16.44 51.89 91.51 66.55 133.08"/>
            <path d="m4874.4 567.82-.03 10.59-6.59-8.3z"/>
        </g>
        <g stroke="#000" class="edge">
            <path fill="none" d="M3701.29 328.41c-5.94 24.09-16.72 67.84-23.8 96.56"/>
            <path d="m3680.95 425.55-5.79 8.87-1.01-10.55z"/>
        </g>
        <g stroke="#000" class="edge">
            <path fill="none" d="M3663.63 326.54c-28.37 10.51-66.03 24.45-96.13 35.6"/>
            <path d="m3568.8 365.39-10.59.19 8.16-6.75z"/>
        </g>
        <g stroke="#000" class="edge">
            <path fill="none" d="M3635.46 322.72c-56 9.78-136.34 24.75-205.88 41.28-91.26 21.69-195.8 52.68-258.01 71.79"/>
            <path d="m3172.87 439.05-10.59-.4 8.53-6.29z"/>
        </g>
        <g stroke="#000" class="edge">
            <path fill="none" d="M3609.72 312.38c-425.12 6.21-2120.17 32.19-2139.14 51.62-11.18 11.45-5.69 21.04 0 36 7.61 20.01 24.39 15.99 32 36 5.69 14.96 10.55 23.97 0 36-81 92.33-193-56.33-274 36-10.55 12.03-10.58 24 0 36 22.05 25.01 223.86 41.19 339.52 48.5"/>
            <path d="m1568.08 588.99 9.76 4.11-10.2 2.88z"/>
        </g>
        <g stroke="#000" class="edge">
            <path fill="none" d="M3721.63 328.2c26.23 30.29 72.71 94.6 44.95 143.8-31.24 55.35-97.92 88.95-147.2 107.17"/>
            <path d="m3620.85 582.36-10.59.06 8.24-6.65z"/>
        </g>
        <g stroke="#000" class="edge">
            <path fill="none" d="M2604.75 528.61c316.56 5.93 1435.21 27.36 2357.83 51.39 174.42 4.54 379.41 11.08 486.11 14.58"/>
            <path d="m5448.57 591.07 9.88 3.83-10.11 3.17z"/>
        </g>
        <g stroke="#000" class="edge">
            <path fill="none" d="M2544.78 543.41c15.56 9.39 35.29 21.3 52.2 31.5"/>
            <path d="m2598.5 571.75 6.76 8.16-10.37-2.17z"/>
        </g>
        <g stroke="#000" class="edge">
            <path fill="none" d="M2603.78 529.55c370.83 10.99 1828.04 54.16 2193.38 64.98"/>
            <path d="m4797.01 591.02 9.9 3.8-10.1 3.2z"/>
        </g>
        <g stroke="#000" class="edge">
            <path fill="none" d="M2440.07 534.72c-31.21 3.03-67.55 6.44-100.49 9.28-221.67 19.08-483.64 38.25-612.03 47.42"/>
            <path d="m1728.02 594.9-10.22-2.78 9.73-4.2z"/>
        </g>
        <g stroke="#000" class="edge">
            <path fill="none" d="M2599.78 532.52c191.75 12.88 667.54 44.85 868.21 58.33"/>
            <path d="m3468.11 587.35 9.74 4.16-10.21 2.82z"/>
        </g>
        <g stroke="#000" class="edge">
            <path fill="none" d="M3718.79 469.39c34.76 10.46 82.77 25.11 124.79 38.61 47.77 15.35 57.63 27.06 107 36 18.66 3.38 1190.47 40.88 1497.84 50.67"/>
            <path d="m5448.45 591.17 9.88 3.82-10.11 3.18z"/>
        </g>
        <g stroke="#000" class="edge">
            <path fill="none" d="M3618.91 468.86c-75.81 19.8-221.91 55.91-348.33 75.14-194.43 29.58-424.93 43.6-548.39 49.43"/>
            <path d="m2722.61 596.92-10.15-3.03 9.83-3.96z"/>
        </g>
        <g stroke="#000" class="edge">
            <path fill="none" d="M3699.92 471.41c39.45 21.14 112.43 57.01 179.66 72.59 173.25 40.15 707.91 49.97 916.46 52.3"/>
            <path d="m4796.04 592.8 9.97 3.61-10.04 3.39z"/>
        </g>
        <g stroke="red" stroke-width="2" class="edge">
            <path fill="none" d="M3733.85 466.72c66.13 12.24 169.85 31.45 239.98 44.44"/>
            <path fill="red" d="m3972.62 507.37 9.19 5.27-10.47 1.62z"/>
        </g>
        <g stroke="#000" class="edge">
            <path fill="none" d="M3594.58 462.92c-164.85 16.95-567.69 57.14-906 81.08-356.5 25.23-782.57 43.1-958.18 49.93"/>
            <path d="m1730.58 597.43-10.12-3.12 9.85-3.88z"/>
        </g>
        <g stroke="#000" class="edge">
            <path fill="none" d="M3657.19 472.13c-19.17 24.52-54.59 69.84-77.08 98.61"/>
            <path d="m3582.86 572.9-8.91 5.72 3.4-10.04z"/>
        </g>
        <g stroke="#000" class="edge">
            <path fill="none" d="M3592.55 386.98c73.63 3.75 188.46 9.34 288.03 13.02 73.2 2.71 1251.36 5.59 1318 36 19.75 9.01 16.55 21.84 33 36 43.45 37.39 55.07 47.74 107 72 38.97 18.21 85.57 31.59 121.99 40.36"/>
            <path d="m5461.12 580.89 8.94 5.69-10.54 1.13z"/>
        </g>
        <g stroke="#000" class="edge">
            <path fill="none" d="M3448.89 391.45c-70.13 9.55-174.4 26.15-210.31 44.55-20.71 10.61-19.1 22.43-38 36-55.56 39.89-70.76 51.49-136 72-114.03 35.85-252.14 47.62-340.76 51.39"/>
            <path d="m2724.1 598.88-10.13-3.1 9.86-3.89z"/>
        </g>
        <g stroke="#000" class="edge">
            <path fill="none" d="M3523.65 400.16c9.03 19.92 26.47 52.52 50.93 71.84 74.46 58.82 107.92 53.52 201 72 195.12 38.73 797.98 49.48 1020.96 52.18"/>
            <path d="m4796.35 592.68 9.96 3.61-10.05 3.38z"/>
        </g>
        <g stroke="#000" class="edge">
            <path fill="none" d="M3580.47 392.75c51.1 8.69 124.18 23.17 186.11 43.25 37.47 12.15 43.83 22.94 81 36 42.85 15.06 92.16 28.13 131.21 37.52"/>
            <path d="m3979.39 506.06 8.92 5.72-10.54 1.09z"/>
        </g>
        <g stroke="#000" class="edge">
            <path fill="none" d="M3550.76 398.54c22 9.99 50.83 23.1 74.7 33.95"/>
            <path d="m3626.66 429.19 7.66 7.33-10.55-.95z"/>
        </g>
        <g stroke="#000" class="edge">
            <path fill="none" d="M3442.48 388.31c-168.63 12.11-571.23 41.24-632.9 47.69-239.06 24.99-299.5 29.09-536 72-70.44 12.78-86.43 23.95-157 36-135.99 23.22-296 38.85-389.31 46.81"/>
            <path d="m1727.72 594.29-10.26-2.65 9.67-4.33z"/>
        </g>
        <g stroke="#000" class="edge">
            <path fill="none" d="M3520.03 400.15c7.39 36.78 24.82 123.56 33.87 168.61"/>
            <path d="m3557.28 567.79-1.46 10.49-5.4-9.11z"/>
        </g>
        <g stroke="#000" class="edge">
            <path fill="none" d="M3168.5 467.38c87.78 20.29 271.35 60.05 429.08 76.62 603.56 63.4 758.37 18.78 1365 36 174.41 4.95 379.41 11.33 486.11 14.69"/>
            <path d="m5448.56 591.18 9.88 3.82-10.1 3.18z"/>
        </g>
        <g stroke="#000" class="edge">
            <path fill="none" d="M3105 472.07c-15.14 20.81-43.74 55.26-77.42 71.93-52.34 25.9-207.65 40.72-306.93 47.79"/>
            <path d="m2721.16 595.26-10.22-2.79 9.73-4.19z"/>
        </g>
        <g stroke="#000" class="edge">
            <path fill="none" d="M3154.95 469.69c56.67 20.92 166.52 58.5 263.63 74.31 267.99 43.64 1108.11 51.35 1377.78 52.71"/>
            <path d="m4796.12 593.21 9.99 3.55-10.02 3.45z"/>
        </g>
        <g stroke="#000" class="edge">
            <path fill="none" d="M3178.54 464.53c19.21 2.71 40.47 5.47 60.04 7.47 256.62 26.24 560.38 42.05 712.67 48.93"/>
            <path d="m3951.05 517.42 9.83 3.95-10.15 3.04z"/>
        </g>
        <g stroke="#000" class="edge">
            <path fill="none" d="M3044.77 459.58c-165.47 10.67-564.04 37.17-624.19 48.42-54.31 10.16-64.71 25.71-119 36-202.65 38.42-445.86 49-570.48 51.91"/>
            <path d="m1731.37 599.4-10.08-3.27 9.92-3.72z"/>
        </g>
        <g stroke="#000" class="edge">
            <path fill="none" d="M3134.44 471.81c22.92 20.53 64.79 54.69 107.14 72.19 71.61 29.6 158.76 42.68 223.71 48.46"/>
            <path d="m3465.56 588.97 9.67 4.33-10.26 2.65z"/>
        </g>
        <g stroke="#000" class="edge">
            <path fill="none" d="M4311.82 246.49c88.37 8.69 233.62 24.55 357.76 45.51 222.46 37.56 273.61 70.02 496 108 127.59 21.79 177.03-28.94 289 36 34.6 20.07 38.63 35.07 54 72 7.94 19.09 11.15 42.25 12.39 60.16"/>
            <path d="m5524.46 567.93-2.99 10.16-4-9.81z"/>
        </g>
        <g stroke="#000" class="edge">
            <path fill="none" d="M4141.9 242.56c-281.82 11.35-1139.29 46.09-1153.32 49.44-112.99 26.97-130.91 63.02-238 108-40.86 17.16-65.31 1.39-93 36-30.24 37.8-30.76 97.1-27.79 132.21"/>
            <path d="m2633.26 567.73-2.47 10.3-4.49-9.59z"/>
        </g>
        <g stroke="#000" class="edge">
            <path fill="none" d="M4316.06 244.51c78.26 6.53 196.74 20.18 296.52 47.49 39.97 10.94 46.47 23.57 86 36 13.55 4.26 491.08 96.94 500 108 12.63 15.64 10.01 90.56-6 108-30.08 32.76-146.88 45.28-228.7 50.06"/>
            <path d="m4964.27 597.54-10.18-2.94 9.8-4.05z"/>
        </g>
        <g stroke="red" stroke-width="2" class="edge">
            <path fill="none" d="M4209.28 255.95c-11.03 8.77-24.67 19.62-36.74 29.22"/>
            <path fill="red" d="m4176.06 286.84-10.01 3.49 5.65-8.97z"/>
        </g>
        <g stroke="#000" class="edge">
            <path fill="none" d="M4162.83 250.42c-35.47 8-78.61 21.04-113.25 41.58-27.59 16.35-52.79 43.21-69.28 63.15"/>
            <path d="m3983.09 357.26-9 5.59 3.55-9.98z"/>
        </g>
        <g stroke="#000" class="edge">
            <path fill="none" d="M4236.57 256.2c5.45 18.8 10.99 49.25-.99 71.8-40.27 75.76-109.05 38.97-160 108-13.06 17.69-19.86 41.74-23.37 60.38"/>
            <path d="m4055.66 496.94-5.07 9.3-1.83-10.44z"/>
        </g>
        <g stroke="#000" class="edge">
            <path fill="none" d="M4142.07 242.6c-93.36 3.71-244.76 9.5-375.49 13.4-155.44 4.64-2690.29-5.11-2797 108-83.66 88.68 91.3 141.57 207 180 70.72 23.49 276.83 40.23 391.92 48.04"/>
            <path d="m1568.44 588.53 9.74 4.16-10.21 2.82z"/>
        </g>
        <g stroke="#000" class="edge">
            <path fill="none" d="M4240.12 256.07c5.1 10.11 10.85 23.36 13.46 35.93 3.25 15.67 2.92 20.27 0 36-18.76 101.12-.83 154.15-83 216-40.19 30.25-353.95 44.72-515.52 50.22"/>
            <path d="m3655.32 597.72-10.11-3.17 9.87-3.83z"/>
        </g>
        <g stroke="#000" class="edge">
            <path fill="none" d="M3387.08 467.58c93.55 20.22 286.74 59.4 452.5 76.42 20.31 2.08 1288.46 40.97 1609.02 50.77"/>
            <path d="m5448.64 591.27 9.89 3.8-10.1 3.2z"/>
        </g>
        <g stroke="#000" class="edge">
            <path fill="none" d="M3317.67 471.97c-17.1 21.04-49.43 56.08-86.09 72.03-88.75 38.61-363.46 49.09-507.61 51.94"/>
            <path d="m2724.13 599.44-10.06-3.31 9.93-3.69z"/>
        </g>
        <g stroke="#000" class="edge">
            <path fill="none" d="M3355.02 471.58c32.96 21.32 94.27 57.4 152.56 72.42 124.31 32.04 1010.39 47.67 1289.22 51.84"/>
            <path d="m4796.58 592.33 9.95 3.65-10.05 3.35z"/>
        </g>
        <g stroke="#000" class="edge">
            <path fill="none" d="M3405.05 462.26c132.9 12.96 410.4 40.01 553.66 53.98"/>
            <path d="m3958.93 512.74 9.61 4.46-10.29 2.51z"/>
        </g>
        <g stroke="#000" class="edge">
            <path fill="none" d="M3262.52 464.59c-19.94 2.63-41.79 5.32-61.94 7.41-207.06 21.5-262.39-2.36-467 36-54.31 10.18-64.58 26.42-119 36-168.76 29.71-682.16 45.73-883.62 51.01"/>
            <path d="m1731.18 598.5-10.08-3.24 9.9-3.75z"/>
        </g>
        <g stroke="#000" class="edge">
            <path fill="none" d="M3330.57 472.27c.95 20.04 5.64 52.74 25.01 71.73 28.83 28.27 70.72 42.02 109.04 48.51"/>
            <path d="m3465 589.03 9.35 4.97-10.41 1.94z"/>
        </g>
        <g stroke="#000" class="edge">
            <path fill="none" d="M2292.88 392.52c-34.08 2.85-72.31 5.7-107.3 7.48-387.8 19.75-1360.82-4.57-1747 36-7.17.75-14.62 1.78-22.03 2.96"/>
            <path d="m417.32 442.38-10.44-1.78 9.27-5.12z"/>
        </g>
        <g stroke="#000" class="edge">
            <path fill="none" d="M2315.76 396.21c-44.69 9.16-94.53 22.76-109.18 39.79-31.4 36.52-40.94 71.94-9 108 22.65 25.57 227.27 41.32 347.98 48.46"/>
            <path d="m2545.68 588.96 9.78 4.07-10.19 2.92z"/>
        </g>
        <g stroke="#000" class="edge">
            <path fill="none" d="M2375.46 399.95c-9.64 8.53-21.5 19.04-32.11 28.44"/>
            <path d="m2345.74 430.95-9.81 4.01 5.17-9.25z"/>
        </g>
        <g class="node" transform="translate(4 616)">
            <ellipse cx="1130.58" cy="-162" fill="none" stroke="#000" rx="60.56" ry="18"/>
            <text x="1130.58" y="-156.95" font-family="Times,serif" font-size="14" text-anchor="middle">:library:room</text>
        </g>
        <g stroke="#000" class="edge">
            <path fill="none" d="M2291.52 392.23c-33.74 2.8-71.42 5.68-105.94 7.77-401.81 24.32-503.68 4.7-905 36-26.36 2.06-55.31 5.23-80.42 8.29"/>
            <path d="m1200.77 447.74-10.36-2.25 9.5-4.7z"/>
        </g>
        <g stroke="#000" class="edge">
            <path fill="none" d="M669.86 396.46C606.49 406.9 516.93 421.91 438.58 436c-6.25 1.12-12.74 2.32-19.24 3.53"/>
            <path d="m420.39 442.89-10.47-1.6 9.18-5.28z"/>
        </g>
        <g stroke="#000" class="edge">
            <path fill="none" d="M735.25 400.17c-17.43 19.35-39.27 50.82-20.67 71.83 175.12 197.79 326.69 50.72 590 72 465 37.58 1023.78 48.85 1238.71 51.94"/>
            <path d="m2543.34 592.44 9.95 3.64-10.05 3.36z"/>
        </g>
        <g stroke="#000" class="edge">
            <path fill="none" d="M771.95 399.95c9.75 8.53 21.76 19.04 32.51 28.44"/>
            <path d="m806.75 425.75 5.23 9.22-9.83-3.95z"/>
        </g>
        <g stroke="#000" class="edge">
            <path fill="none" d="M829.42 397.08c71.68 13.14 177.22 32.48 243.53 44.63"/>
            <path d="m1073.35 438.22 9.21 5.25-10.47 1.64z"/>
        </g>
        <g stroke="#000" class="edge">
            <path fill="none" d="M7014.71 397.93c63.74 12.03 152.79 28.83 215.72 40.7"/>
            <path d="m7230.81 435.14 9.18 5.3-10.48 1.58z"/>
        </g>
        <g stroke="#000" class="edge">
            <path fill="none" d="M6829.06 395.68c-169.59 19.67-511.54 57.27-802.48 76.32-36.43 2.39-1093.4 36.7-1467.4 48.81"/>
            <path d="m4559.39 524.3-10.1-3.17 9.88-3.82z"/>
        </g>
        <g stroke="#000" class="edge">
            <path fill="none" d="M997.02 391.66c-33.14 2.69-69.81 5.65-103.44 8.34-202.21 16.18-253.96 8.93-455 36-6.75.91-13.77 2-20.76 3.18"/>
            <path d="m418.82 442.55-10.45-1.71 9.24-5.18z"/>
        </g>
        <g stroke="#000" class="edge">
            <path fill="none" d="M1085.99 400.1c-17.71 19.28-39.96 50.69-21.41 71.9 39.56 45.23 212.39 13.24 268 36 24.68 10.1 22.89 27.03 48 36 108.47 38.72 893.58 49.64 1162.74 52.26"/>
            <path d="m2543.11 592.76 9.97 3.6-10.04 3.4z"/>
        </g>
        <g stroke="#000" class="edge">
            <path fill="none" d="M1165.36 398.02c46.06 11.19 108.99 26.49 156.79 38.1"/>
            <path d="m1322.97 432.72 8.89 5.77-10.54 1.03z"/>
        </g>
        <g stroke="#000" class="edge">
            <path fill="none" d="M1111.24 400.3c3.38 7.63 7.43 16.78 11.21 25.3"/>
            <path d="m1125.54 423.95.85 10.56-7.25-7.72z"/>
        </g>
        <g stroke="#000" class="edge">
            <path fill="none" d="M7306.58 400.3v24.16"/>
            <path d="m7310.08 424.38-3.5 10-3.5-10z"/>
        </g>
        <g stroke="#000" class="edge">
            <path fill="none" d="M7251.14 399.29c-119.33 34.23-409.95 113.03-659.56 144.71-20.41 2.59-1287.02 40.39-1627.51 50.52"/>
            <path d="m4964.2 598.02-10.1-3.2 9.9-3.8z"/>
        </g>
        <g stroke="#000" class="edge">
            <path fill="none" d="M7188.28 394.2c-28.07 2.28-57.93 4.41-85.7 5.8-952.72 47.64-1192.8-.71-2146 36-53.65 2.07-112.99 5.47-163.33 8.7"/>
            <path d="m4793.7 448.18-10.2-2.85 9.75-4.14z"/>
        </g>
        <g stroke="#000" class="edge">
            <path fill="none" d="M440.53 399.95c-16 9.33-36.05 21.03-53.25 31.06"/>
            <path d="m389.24 433.91-10.4 2.02 6.88-8.06z"/>
        </g>
        <g stroke="#000" class="edge">
            <path fill="none" d="M368.47 394.04C297.4 405.73 221.43 428.71 260.58 472c53.63 59.3 279.42 21.2 358 36 58.49 11.02 70.14 27.1 129 36 89.56 13.55 1432.72 43.26 1796 51.08"/>
            <path d="m2543.63 591.58 9.92 3.72-10.07 3.28z"/>
        </g>
        <g stroke="#000" class="edge">
            <path fill="none" d="M490.88 399.95c10.95 8.7 24.47 19.46 36.47 29.01"/>
            <path d="m529.34 426.06 5.64 8.97-10-3.49z"/>
        </g>
        <g stroke="#000" class="edge">
            <path fill="none" d="M565.8 394.76c15.31 1.8 30.97 3.6 45.78 5.24 162.95 18.01 354.74 36.84 454.65 46.47"/>
            <path d="m1066.54 442.99 9.61 4.44-10.28 2.52z"/>
        </g>
        <g stroke="#000" class="edge">
            <path fill="none" d="M5170.27 254.02c27.7 10.48 64.91 24.56 94.74 35.85"/>
            <path d="m5266.11 286.54 8.11 6.81-10.59-.26z"/>
        </g>
        <g stroke="#000" class="edge">
            <path fill="none" d="M5142.78 256.02c16.22 21.1 47.03 56.2 82.8 71.98 187.21 82.6 261.99-19.32 459 36 34.06 9.57 38.33 22.43 71 36 31.83 13.22 68.23 25.44 98.36 34.8"/>
            <path d="m5854.76 431.39 8.53 6.28-10.59.41z"/>
        </g>
        <g stroke="#000" class="edge">
            <path fill="none" d="M5202.03 246.94c29.55 3.12 64.18 6.54 95.55 9.06 269.82 21.71 338.14 14.68 608 36 27.61 2.18 57.68 5 84.83 7.71"/>
            <path d="m5990.75 296.23 9.6 4.48-10.3 2.48z"/>
        </g>
        <g stroke="#000" class="edge">
            <path fill="none" d="M5134.01 256.15c4.96 20.23 16.11 53.44 38.57 71.85 51.35 42.09 80.98 18.38 145 36 53.27 14.66 65.21 23.37 119 36 93.47 21.94 121.42 7.18 213 36 35.65 11.22 40.33 24.84 76 36 84.41 26.41 185.71 40.37 251.39 47.21"/>
            <path d="m5977.3 515.72 9.6 4.49-10.31 2.48z"/>
        </g>
        <g stroke="#000" class="edge">
            <path fill="none" d="M5191.25 250.45c55.75 10.57 140.66 26.83 214.33 41.55 77.44 15.47 96.38 21.45 174 36 200.88 37.66 266.93 11.32 447 108 44.52 23.9 66.36 26.33 88 72 6.85 14.46 10.8 24.19 0 36-34.42 37.63-368.21 48.74-519.33 51.85"/>
            <path d="m5595.41 599.35-10.07-3.3 9.93-3.7z"/>
        </g>
        <g stroke="#000" class="edge">
            <path fill="none" d="M5201.6 247.19c29.64 3.16 64.44 6.56 95.98 8.81 388.67 27.74 488.95-9.08 876 36 6.71.78 13.68 1.79 20.63 2.92"/>
            <path d="m6194.69 291.45 9.26 5.15-10.45 1.75z"/>
        </g>
        <g stroke="#000" class="edge">
            <path fill="none" d="M5063.68 248.66c-22.54 2.87-47.86 5.69-71.1 7.34-104.76 7.43-1792.82-3.8-1890 36-21.53 8.82-17.53 24.94-38 36-61.08 33.01-87.6 10.07-152 36-29.2 11.76-32.19 23.32-61 36-50.19 22.09-74.77 2.27-118 36-44.17 34.46-35.11 60.62-65 108-5.5 8.71-11.64 18.13-17.23 26.57"/>
            <path d="m2654.41 572.29-8.46 6.38 2.63-10.26z"/>
        </g>
        <g stroke="#000" class="edge">
            <path fill="none" d="M5129.82 256.43c-.43 33.36 3.81 106.23 45.76 143.57 38.74 34.48 80.5-5.95 111 36 21.91 30.15-26.39 105.96-29 108-44.32 34.67-196.44 46.66-293.37 50.81"/>
            <path d="m4964.61 598.3-10.13-3.09 9.85-3.91z"/>
        </g>
        <g stroke="#000" class="edge">
            <path fill="none" d="M5203.35 246.52c124.9 12.92 379.66 39.26 515.03 53.26"/>
            <path d="m5718.42 296.26 9.59 4.51-10.31 2.46z"/>
        </g>
        <g stroke="#000" class="edge">
            <path fill="none" d="M5062.58 248.2c-22.27 2.8-47.17 5.68-70 7.8-274.51 25.44-600.07 41.94-756.68 49.02"/>
            <path d="m4236.12 308.52-10.14-3.05 9.83-3.94z"/>
        </g>
        <g stroke="#000" class="edge">
            <path fill="none" d="M5060.73 247.63c-21.82 2.69-45.99 5.66-68.15 8.37-358.56 43.8-787.28 95.52-957.28 116"/>
            <path d="m4035.85 375.46-10.35-2.28 9.51-4.67z"/>
        </g>
        <g stroke="#000" class="edge">
            <path fill="none" d="M5663.4 248.73c-71.5 12.39-195.19 33.82-274.18 47.51"/>
            <path d="m5389.84 299.68-10.45-1.74 9.26-5.15z"/>
        </g>
        <g stroke="#000" class="edge">
            <path fill="none" d="M5711.06 256.09c-8.39 19.56-17.8 51.51-1.48 71.91 45.53 56.92 102.11-8.29 160 36 19.72 15.09 32.03 40.85 39.08 60.79"/>
            <path d="m5911.98 423.7-.23 10.59-6.42-8.43z"/>
        </g>
        <g stroke="#000" class="edge">
            <path fill="none" d="M5773.56 249.56c61.62 12.04 162.71 31.81 231.24 45.21"/>
            <path d="m6005.31 291.3 9.14 5.36-10.49 1.51z"/>
        </g>
        <g stroke="#000" class="edge">
            <path fill="none" d="M5776.02 248.66c38.13 8.04 88.77 21.72 129.56 43.34 22.02 11.67 22.05 22.5 43 36 31.08 20.02 46.53 12.41 75 36 30.6 25.35 40.6 34.25 53 72 4.99 15.2 4.18 20.56 0 36-2.51 9.26-7.09 18.56-11.97 26.73"/>
            <path d="m6067.58 500.59-8.36 6.51 2.47-10.3z"/>
        </g>
        <g stroke="#000" class="edge">
            <path fill="none" d="M5787.56 241.4c153.12 5.87 515.37 22.58 563.02 50.6 111.38 65.51 233.85 158.18 145 252-30.87 32.6-679.06 47.56-900.56 51.73"/>
            <path d="m5595.12 599.23-10.06-3.31 9.93-3.69z"/>
        </g>
        <g stroke="#000" class="edge">
            <path fill="none" d="M5783.69 244.96c88.11 8.54 251.48 25.62 389.89 47.04 6.3.98 12.85 2.07 19.39 3.23"/>
            <path d="m6193.23 291.72 9.22 5.24-10.47 1.65z"/>
        </g>
        <g stroke="#000" class="edge">
            <path fill="none" d="M5655.13 244.72c-46.52 3.89-110.86 8.76-167.55 11.28-128.17 5.69-2188.27-7.41-2309 36-24.1 8.67-22.04 24.65-45 36-59.53 29.42-84.62 8.38-145 36-25.23 11.54-28.26 20.1-51 36-23.04 16.11-29.2 19.56-52 36-21.63 15.59-26.63 20.05-48 36-43.03 32.11-51.21 43.97-97 72-19.54 11.96-42.16 23.47-61.55 32.7"/>
            <path d="m2680.54 579.85-10.54 1.08 7.57-7.42z"/>
        </g>
        <g stroke="#000" class="edge">
            <path fill="none" d="M5782.32 245.53c46.15 6.77 109.27 20.22 159.26 46.47 21.17 11.12 20.16 22.64 40 36 30.33 20.43 47.86 10.42 74 36 60.18 58.87 117.24 119.21 59 180-9.98 10.42-875.72 40.79-1150.97 50.19"/>
            <path d="m4964.13 597.68-10.11-3.16 9.87-3.84z"/>
        </g>
        <g stroke="#000" class="edge">
            <path fill="none" d="M5740.43 255.59c11.02 8.76 24.74 19.68 36.91 29.35"/>
            <path d="m5779.43 282.14 5.65 8.96-10.01-3.48z"/>
        </g>
        <g stroke="#000" class="edge">
            <path fill="none" d="M5654.62 244.35c-46.5 3.68-110.59 8.47-167.04 11.65-469.04 26.42-1030.82 44.03-1250.46 50.37"/>
            <path d="m4237.27 309.87-10.1-3.21 9.9-3.79z"/>
        </g>
        <g stroke="#000" class="edge">
            <path fill="none" d="M5681.09 253.15c-58.55 20.79-173.93 58.83-275.51 74.85-265.26 41.84-1096.38 50.76-1362.3 52.57"/>
            <path d="m4043.34 384.07-10.03-3.44 9.98-3.56z"/>
        </g>
        <g stroke="#000" class="edge">
            <path fill="none" d="M5844.85 167.88c-166.19 2.58-510.98 12.68-547.27 52.12-15.22 16.54-7.9 42.27 1.57 61.82"/>
            <path d="m5302.22 280.13 1.58 10.47-7.77-7.2z"/>
        </g>
        <g stroke="#000" class="edge">
            <path fill="none" d="M6022.32 167.01c77.97 2.9 193.04 14.3 285.26 52.99 58.68 24.62 124.03 51.89 94 108-27.22 50.86-54.09 51.47-108 72-85.66 32.62-189.15 45.45-266.01 50.36"/>
            <path d="m6028.13 453.83-10.19-2.89 9.77-4.09z"/>
        </g>
        <g stroke="#000" class="edge">
            <path fill="none" d="M5947.13 184.19c14.95 18.53 40.12 48.5 64.45 71.81 10.61 10.17 23 20.48 34.17 29.27"/>
            <path d="m6047.81 282.44 5.76 8.89-10.05-3.36z"/>
        </g>
        <g stroke="#000" class="edge">
            <path fill="none" d="M6020.09 170.52c106.68 5.58 280.85 19.12 337.49 49.48 37.22 19.95 47.3 32.41 62 72 51.71 139.3-190.35 201.35-310.16 223.18"/>
            <path d="m6110.17 518.6-10.46-1.69 9.23-5.2z"/>
        </g>
        <g stroke="#000" class="edge">
            <path fill="none" d="M6022.46 166.28c196.84-.66 655.93 3.27 703.12 53.72 54.65 58.43 31.12 106.3 0 180-38.26 90.6-75.7 110.06-168 144-89.57 32.94-741.01 47.67-962.51 51.76"/>
            <path d="m5595.17 599.26-10.06-3.32 9.93-3.68z"/>
        </g>
        <g stroke="#000" class="edge">
            <path fill="none" d="M5969.26 182.94c40.3 17.95 107.89 47.9 166.32 73.06 25.9 11.15 54.89 23.37 78.53 33.26"/>
            <path d="m6215.3 285.96 7.87 7.08-10.57-.62z"/>
        </g>
        <g stroke="#000" class="edge">
            <path fill="none" d="M5844.54 166.79c-311.61-.27-1382.04 2.79-2263.96 53.21-87.23 4.99-699.69 45.68-783 72-11.51 3.64-370.95 205.56-377 216-31.19 53.81 53.72 75.09 125.42 83.5"/>
            <path d="m2546.31 588.01 9.57 4.57-10.33 2.39z"/>
        </g>
        <g stroke="#000" class="edge">
            <path fill="none" d="M6020.31 169.88c114.73 5.01 309.87 18.07 373.27 50.12 101.14 51.13 114.93 167.87 39 252-38.65 42.83-53.1 54.27-108 72-32.54 10.51-1057.45 41.57-1360.44 50.55"/>
            <path d="m4964.42 598.04-10.1-3.2 9.9-3.8z"/>
        </g>
        <g stroke="#000" class="edge">
            <path fill="none" d="M5918.38 184.13c-21.95 24.73-62.67 70.63-88.16 99.36"/>
            <path d="m5833.09 285.52-9.25 5.16 4.02-9.8z"/>
        </g>
        <g stroke="#000" class="edge">
            <path fill="none" d="M5844.83 167.44c-262.31 1.75-1056.8 10.44-1714.25 52.56-162.23 10.39-201.83 24.68-364 36-195.69 13.66-692.78-15.74-882 36-65.21 17.83-79.2 32.4-134 72-18.86 13.63-17.87 24.34-38 36-48.19 27.9-73.46 5.44-120 36-24.42 16.03-45.18 42.34-58.62 62.21"/>
            <path d="m2537.02 499.92-8.4 6.46 2.54-10.29z"/>
        </g>
        <g stroke="#000" class="edge">
            <path fill="none" d="M5847.37 170.54c-287.19 11.81-1210.59 49.76-1516.96 62.36"/>
            <path d="m4330.98 236.38-10.13-3.09 9.85-3.91z"/>
        </g>
        <g stroke="#000" class="edge">
            <path fill="none" d="M5852.65 173.6c-74.56 7.5-178.42 21.98-211.07 46.4-43.87 32.8-65.61 96.03-74.98 132.73"/>
            <path d="m5570.07 353.26-5.74 8.91-1.07-10.54z"/>
        </g>
        <g stroke="#000" class="edge">
            <path fill="none" d="M4965.31 249.63c74.09 12.56 197.21 33.43 276 46.78"/>
            <path d="m5241.84 292.95 9.27 5.12-10.44 1.78z"/>
        </g>
        <g stroke="#000" class="edge">
            <path fill="none" d="M4931.96 255c17.88 10.06 40.99 23.62 60.62 37 21.45 14.62 22.05 25.98 46 36 115.34 48.25 156.75 9.81 279 36 54.03 11.58 64.87 24.92 119 36 127.01 25.99 275.71 39.92 373.56 46.88"/>
            <path d="m5810.27 443.38 9.73 4.19-10.21 2.79z"/>
        </g>
        <g stroke="#000" class="edge">
            <path fill="none" d="M4969.36 248.4c22.29 2.84 47.29 5.7 70.22 7.6 383.91 31.75 481.72 9.04 866 36 28.02 1.97 58.54 4.77 85.99 7.53"/>
            <path d="m5991.63 296.02 9.6 4.49-10.31 2.47z"/>
        </g>
        <g stroke="#000" class="edge">
            <path fill="none" d="M4914.07 256.08c14.74 20.48 42.29 54.25 74.51 71.92 70.39 38.6 98.6 18.75 177 36 67.8 14.92 83.77 23.15 152 36 112.91 21.26 145.93 3.03 256 36 35.8 10.72 40.16 25.39 76 36 110.94 32.83 245.42 45.38 325.67 50.14"/>
            <path d="m5975.39 518.64 9.79 4.06-10.18 2.93z"/>
        </g>
        <g stroke="#000" class="edge">
            <path fill="none" d="M4914.81 256.04c15.63 20.45 44.66 54.19 77.77 71.96 69.2 37.13 96.39 18.72 173 36 66.04 14.9 81.5 23.34 148 36 114.6 21.81 164.47-30.96 260 36 41.67 29.21 63.25 63.82 38 108-8.86 15.5-24.21 26.91-39.75 35.09"/>
            <path d="m5573.54 582.15-10.53 1.2 7.48-7.5z"/>
        </g>
        <g stroke="#000" class="edge">
            <path fill="none" d="M4969 248.49c22.38 2.86 47.52 5.72 70.58 7.51 502.74 39.09 632.86-20 1134 36 6.9.77 14.07 1.79 21.2 2.95"/>
            <path d="m6195.17 291.46 9.26 5.15-10.45 1.75z"/>
        </g>
        <g stroke="#000" class="edge">
            <path fill="none" d="M4823.27 241.6c-278.72 9.18-1203.63 40.1-1336.69 50.4-273.06 21.14-349.17-4.99-612 72-35.1 10.28-40.19 22.04-74 36-45.6 18.83-69.47 1.77-105 36-19.58 18.86-42.56 91.91-54.28 132.83"/>
            <path d="m2644.73 569.55-6.08 8.68-.65-10.58z"/>
        </g>
        <g stroke="#000" class="edge">
            <path fill="none" d="M4905.5 256.21c4.27 19.98 14.12 52.64 35.08 71.79 38.28 34.99 64.96 12.12 111 36 23.67 12.28 23.72 24.98 48 36 70.33 31.92 121.37-24 170 36 10.07 12.43 4.09 20.53 0 36-9.43 35.6-10.65 51.14-41 72-41.98 28.85-176.84 42.6-265.82 48.68"/>
            <path d="m4963.05 596.17-10.21-2.83 9.75-4.15z"/>
        </g>
        <g stroke="#000" class="edge">
            <path fill="none" d="M4970.09 248.12c22.12 2.79 46.83 5.69 69.49 7.88 241 23.25 525.49 40.13 671.25 48.02"/>
            <path d="m5710.62 300.5 9.8 4.04-10.17 2.95z"/>
        </g>
        <g stroke="#000" class="edge">
            <path fill="none" d="M4829.36 245.74c-140.73 12.97-448.4 41.3-599.51 55.22"/>
            <path d="m4230.59 304.41-10.28-2.57 9.63-4.4z"/>
        </g>
        <g stroke="#000" class="edge">
            <path fill="none" d="M4838.45 249.22c-165.79 27.31-604.08 105.49-724.87 186.78-22.88 15.39-40.59 41.66-51.71 61.68"/>
            <path d="m4065.01 499.23-7.78 7.2 1.59-10.48z"/>
        </g>
        <g stroke="#000" class="edge">
            <path fill="none" d="M4823 241.44c-110.49 3.37-316.64 9.59-492.42 14.56-149.11 4.22-1196.64 2.52-1342 36-113.2 26.08-130.91 63.02-238 108-40.86 17.16-53.44 16.01-93 36-38.63 19.52-80.15 46.79-107.86 65.99"/>
            <path d="m2551.97 504.69-10.2 2.86 6.19-8.6z"/>
        </g>
        <g stroke="#000" class="edge">
            <path fill="none" d="M4823.42 241.44c-273.19 8.54-1163.09 37.22-1222.84 50.56-80.48 17.96-101.37 27.82-171 72-28.56 18.12-56.82 44.61-75.79 63.97"/>
            <path d="m3356.52 430.19-9.46 4.77 4.42-9.63z"/>
        </g>
        <g stroke="#000" class="edge">
            <path fill="none" d="M4938.58 254.42c48.27 20.04 137.03 54.7 216 73.58 97.06 23.2 209.78 36.9 291.78 44.53"/>
            <path d="m5446.57 369.04 9.64 4.39-10.27 2.58z"/>
        </g>
        <g stroke="#000" class="edge">
            <path fill="none" d="M6149.35 244.58c-164.91 12.74-568.57 43.93-746.78 57.7"/>
            <path d="m5402.91 305.76-10.24-2.72 9.7-4.26z"/>
        </g>
        <g stroke="#000" class="edge">
            <path fill="none" d="M6282.79 249.27c58.25 12.5 132.64 37.24 100.79 78.73-45.28 59-251.67 96.21-374.4 113.53"/>
            <path d="m6009.82 444.98-10.39-2.09 9.42-4.85z"/>
        </g>
        <g stroke="#000" class="edge">
            <path fill="none" d="M6189.26 254.71c-20.26 9.85-46.61 22.66-68.63 33.36"/>
            <path d="m6122.42 291.09-10.52 1.23 7.46-7.52z"/>
        </g>
        <g stroke="#000" class="edge">
            <path fill="none" d="M6289.61 246.75c62.17 10.23 140.43 32.97 111.97 81.25-64.48 109.37-213.91 162.27-297.21 184.09"/>
            <path d="m6105.34 515.45-10.56-.92 8.83-5.86z"/>
        </g>
        <g stroke="#000" class="edge">
            <path fill="none" d="M6294.93 243.82c107.19 7.81 296.17 24.73 316.65 48.18 64.36 73.7 202.2 45.82-90 252-75.06 52.96-707.74 54.6-926.18 53.56"/>
            <path d="m5595.57 601.06-9.98-3.55 10.02-3.45z"/>
        </g>
        <g stroke="#000" class="edge">
            <path fill="none" d="M6231.47 256.3c4.45 7.8 9.82 17.19 14.78 25.87"/>
            <path d="m6249.13 280.16 1.92 10.42-8-6.94z"/>
        </g>
        <g stroke="#000" class="edge">
            <path fill="none" d="M6146.54 242.55c-84.73 3.88-226.72 10-348.96 13.45-976.19 27.56-1222.78-31.84-2197 36-65.22 4.54-524.68 44.5-584 72-21.4 9.92-20.76 21.04-39 36-84.12 69.02-101.92 92.93-198 144-27.42 14.57-59.7 26.76-86.94 35.75"/>
            <path d="m2693.73 583.08-10.59-.26 8.44-6.4z"/>
        </g>
        <g stroke="#000" class="edge">
            <path fill="none" d="M6286.88 247.93c50.9 8.46 115.57 23.02 131.7 44.07 65.83 85.88-149.13 234.48-189 252-29.07 12.77-975.79 41.91-1265.56 50.54"/>
            <path d="m4964.38 598.03-10.1-3.2 9.89-3.79z"/>
        </g>
        <g stroke="#000" class="edge">
            <path fill="none" d="M6160.49 249.33c-73.04 12.35-195.39 33.04-275.12 46.52"/>
            <path d="m5886.35 299.23-10.45-1.78 9.28-5.12z"/>
        </g>
        <g stroke="#000" class="edge">
            <path fill="none" d="M6283.44 248.96c25.22 7.44 51.97 20.41 67.14 43.04 8.91 13.29 11.09 24.47 0 36-35.22 36.63-863.25 33.45-914 36-522.98 26.31-666.06-47.03-1176 72-16.93 3.95-108.94 43.72-166.04 68.74"/>
            <path d="m4096.26 507.81-10.57.81 7.75-7.22z"/>
        </g>
        <g stroke="#000" class="edge">
            <path fill="none" d="M6146.54 242.45c-84.73 3.79-226.72 9.84-348.96 13.55-776.7 23.57-971.42 8.82-1748 36-81.23 2.84-173.19 7.46-241.58 11.17"/>
            <path d="m3808.49 306.64-10.17-2.95 9.79-4.04z"/>
        </g>
        <g stroke="#000" class="edge">
            <path fill="none" d="M5373.94 255.95c-9.46 8.59-21.12 19.19-31.52 28.65"/>
            <path d="m5344.92 287.06-9.75 4.13 5.04-9.31z"/>
        </g>
        <g stroke="#000" class="edge">
            <path fill="none" d="M5417.9 255.66c32.23 20.39 90.26 54.4 144.68 72.34 98.68 32.53 135.26-4.37 231 36 24.57 10.36 26.44 20.3 48 36 13.59 9.89 28.7 20.63 41.78 29.83"/>
            <path d="m5885.06 426.75 6.18 8.61-10.2-2.88z"/>
        </g>
        <g stroke="#000" class="edge">
            <path fill="none" d="M5468.5 246.76c127.99 13.08 385.95 39.44 521.42 53.28"/>
            <path d="m5989.96 296.53 9.59 4.5-10.31 2.46z"/>
        </g>
        <g stroke="#000" class="edge">
            <path fill="none" d="M5438.44 253.55c28.93 9.72 66.81 23.43 99.14 38.45 29.25 13.58 32.56 25.34 63 36 184.34 64.56 298.13-39.65 426 108 14.32 16.54 18.71 41.22 19.72 60.4"/>
            <path d="m6049.79 496.21-3.28 10.07-3.71-9.92z"/>
        </g>
        <g stroke="#000" class="edge">
            <path fill="none" d="M5443.28 252.96c38.51 10.62 92.77 25.65 140.3 39.04 56.06 15.79 68.97 24.17 126 36 343.28 71.18 557.63-100.45 768 180 9.6 12.8 11 24.38 0 36-30.23 31.96-664.3 47.3-882.78 51.66"/>
            <path d="m5595.06 599.15-10.07-3.3 9.93-3.69z"/>
        </g>
        <g stroke="#000" class="edge">
            <path fill="none" d="M5473.6 244.54c48.69 3.33 111.89 7.65 167.98 11.46 236.44 16.07 296.99 5.47 532 36 6.52.85 13.29 1.88 20.05 3.01"/>
            <path d="m6194.2 291.56 9.25 5.17-10.45 1.72z"/>
        </g>
        <g stroke="#000" class="edge">
            <path fill="none" d="M5319.04 247.64c-30.16 3.2-65.44 6.49-97.46 8.36-115.43 6.73-1972.67-4.43-2081 36-23.35 8.71-20.76 24.74-43 36-60.01 30.38-85.72 8.26-147 36-12.72 5.76-91.7 63.8-103 72-65.99 47.87-141.98 105.69-183.31 137.38"/>
            <path d="m2666.53 576.06-10.06 3.31 5.8-8.87z"/>
        </g>
        <g stroke="#000" class="edge">
            <path fill="none" d="M5311.73 244.52c-32.17 6.65-66.21 20.23-86.15 47.48-35.78 48.89 58.97 85.15 78 144 15.07 46.61 15.38 76.34-22 108-46.42 39.32-213.68 49.69-316.95 52.29"/>
            <path d="m4964.89 599.79-10.08-3.27 9.92-3.73z"/>
        </g>
        <g stroke="#000" class="edge">
            <path fill="none" d="M5457.88 250.01c73.54 12.41 192.98 32.56 271.45 45.79"/>
            <path d="m5729.83 292.34 9.28 5.11-10.45 1.79z"/>
        </g>
        <g stroke="#000" class="edge">
            <path fill="none" d="M5317.99 247.27c-228.87 25.98-918.3 109-1128.41 188.73-41.64 15.8-84.16 44.76-111.46 65.35"/>
            <path d="m4080.39 504.02-10.07 3.31 5.81-8.87z"/>
        </g>
        <g stroke="#000" class="edge">
            <path fill="none" d="M5318.6 247.47c-30.07 3.15-65.17 6.46-97.02 8.53-520.04 33.8-651.28 15.14-1172 36-81.07 3.25-172.85 7.83-241.21 11.42"/>
            <path d="m3808.86 306.9-10.17-2.97 9.8-4.02z"/>
        </g>
        <g class="node" transform="translate(4 616)">
            <ellipse cx="5073.58" cy="-90" fill="none" stroke="#000" rx="106.11" ry="18"/>
            <text x="5073.58" y="-84.95" font-family="Times,serif" font-size="14" text-anchor="middle">:library:firebase-common</text>
        </g>
        <g stroke="#000" class="edge">
            <path fill="none" d="M5077.58 472.3v24.16"/>
            <path d="m5081.08 496.38-3.5 10-3.5-10z"/>
        </g>
        <g stroke="#000" class="edge">
            <path fill="none" d="M5630.49 396.75c60.17 11.83 146.87 28.87 209.03 41.1"/>
            <path d="m5839.82 434.34 9.13 5.36-10.48 1.51z"/>
        </g>
        <g stroke="#000" class="edge">
            <path fill="none" d="M5622.47 397.61c31.82 8.81 70.64 21.6 103.11 38.39 23.69 12.25 23.63 25.18 48 36 65.2 28.96 146.13 42.15 202.69 48.13"/>
            <path d="m5976.49 516.63 9.6 4.48-10.3 2.49z"/>
        </g>
        <g stroke="#000" class="edge">
            <path fill="none" d="M5559.52 400.36c-3.11 33.91-15.18 108.69-61.94 143.64-41.79 31.23-374.88 45.57-533.54 50.68"/>
            <path d="m4964.55 598.17-10.11-3.19 9.89-3.81z"/>
        </g>
        <g stroke="#000" class="edge">
            <path fill="none" d="M1307.45 464.46c-71.56 11.32-156.86 34.66-116.87 79.54 24.59 27.6 252.18 42.97 377 49.38"/>
            <path d="m1567.63 589.88 9.81 4-10.16 2.99z"/>
        </g>
        <g stroke="#000" class="edge">
            <path fill="none" d="M607.42 470.47c68.01 20.42 194.03 55.87 304.16 73.53 235.46 37.77 517.59 48.63 654.44 51.75"/>
            <path d="m1565.78 592.24 9.92 3.72-10.07 3.28z"/>
        </g>
        <g stroke="#000" class="edge">
            <path fill="none" d="M855.7 471.97c30.05 21.04 84.98 56.08 137.88 72.03 104.99 31.66 421.66 45.66 572.89 50.67"/>
            <path d="m1566.55 591.17 9.88 3.82-10.11 3.17z"/>
        </g>
        <g stroke="#000" class="edge">
            <path fill="none" d="M1187.39 463.15c121.92 18.42 432.61 63 694.19 80.85 149.13 10.18 2443.91 44.74 2914.9 51.75"/>
            <path d="m4796.46 592.25 9.95 3.65-10.05 3.35z"/>
        </g>
    </g>
</svg>
