<svg xmlns="http://www.w3.org/2000/svg" width="8896" height="548pt" viewBox="0 0 6672.08 548">
    <g class="graph">
        <path fill="#fff" d="M0 548V0h6672.08v548z"/>
        <g class="node" transform="translate(4 544)">
            <ellipse cx="1968.58" cy="-522" fill="none" stroke="#000" rx="78.99" ry="18"/>
            <text x="1968.58" y="-516.95" font-family="Times,serif" font-size="14" text-anchor="middle">:app:platform:jvm</text>
        </g>
        <g class="node" transform="translate(4 544)">
            <ellipse cx="3481.58" cy="-450" fill="none" stroke="#000" rx="97.41" ry="18"/>
            <text x="3481.58" y="-444.95" font-family="Times,serif" font-size="14" text-anchor="middle">:app:platform:common</text>
        </g>
        <g stroke="red" stroke-width="2" class="edge">
            <path fill="none" d="M2049.43 26.56c250.61 11.59 1044.51 48.32 1331.42 61.59"/>
            <path fill="red" d="m3379.22 84.58 9.83 3.95-10.15 3.04z"/>
        </g>
        <g class="node" transform="translate(4 544)">
            <ellipse cx="455.58" cy="-378" fill="none" stroke="#000" rx="86.15" ry="18"/>
            <text x="455.58" y="-372.95" font-family="Times,serif" font-size="14" text-anchor="middle">:app:core:coroutines</text>
        </g>
        <g stroke="#000" class="edge">
            <path fill="none" d="M1896.91 27.55C1685.11 40.75 1068.53 82.33 559.58 148c-8.26 1.07-16.88 2.32-25.44 3.65"/>
            <path d="m534.87 155.08-10.43-1.88 9.32-5.03z"/>
        </g>
        <g class="node" transform="translate(4 544)">
            <ellipse cx="4131.58" cy="-162" fill="none" stroke="#000" rx="95.88" ry="18"/>
            <text x="4131.58" y="-156.95" font-family="Times,serif" font-size="14" text-anchor="middle">:app:core:diary-service</text>
        </g>
        <g stroke="#000" class="edge">
            <path fill="none" d="M2051.45 23.85c303.86 3.5 1389.34 18.28 1540.13 52.15 94.13 21.15 198-7.48 198 89v74c0 53.48 34.45 62.66 81 89 29.77 16.85 111.6 31.7 176.53 41.36"/>
            <path d="m4047.31 365.85 9.39 4.91-10.41 2.02z"/>
        </g>
        <g class="node" transform="translate(4 544)">
            <ellipse cx="104.58" cy="-162" fill="none" stroke="#000" rx="104.58" ry="18"/>
            <text x="104.58" y="-156.95" font-family="Times,serif" font-size="14" text-anchor="middle">:app:core:holiday-service</text>
        </g>
        <g stroke="#000" class="edge">
            <path fill="none" d="M1893.39 23.17C1588.29 24.15 498.66 30.8 350.58 76c-71.24 21.75-142 14.52-142 89v74c0 48.37-39.26 91.87-68.58 117.62"/>
            <path d="m142.31 359.24-9.89 3.81 5.36-9.14z"/>
        </g>
        <g class="node" transform="translate(4 544)">
            <ellipse cx="345.58" cy="-162" fill="none" stroke="#000" rx="80.01" ry="18"/>
            <text x="345.58" y="-156.95" font-family="Times,serif" font-size="14" text-anchor="middle">:library:koin-room</text>
        </g>
        <g stroke="#000" class="edge">
            <path fill="none" d="M1893.96 24.66C1716.85 28.88 1273.21 42.21 903.58 76c-250.09 22.86-558-162.13-558 89v74c0 39.28 1.55 84.64 2.72 113.31"/>
            <path d="M351.78 351.86 348.71 362l-3.92-9.84z"/>
        </g>
        <g class="node" transform="translate(4 544)">
            <ellipse cx="6355.58" cy="-162" fill="none" stroke="#000" rx="93.32" ry="18"/>
            <text x="6355.58" y="-156.95" font-family="Times,serif" font-size="14" text-anchor="middle">:library:koin-datastore</text>
        </g>
        <g stroke="#000" class="edge">
            <path fill="none" d="M2051.58 23.25c615.07 2.23 4614 21.36 4614 141.75v74c0 40.45 9.99 60.8-19 89-26.5 25.78-116.06 39.39-188.17 46.33"/>
            <path d="m6458.79 377.81-10.28-2.56 9.63-4.41z"/>
        </g>
        <g stroke="#000" class="edge">
            <path fill="none" d="M3388.2 95.89C2912.67 100.37 845.79 121.23 559.58 148c-8.75.82-17.9 1.96-26.94 3.28"/>
            <path d="m533.18 154.74-10.42-1.95 9.36-4.97z"/>
        </g>
        <g stroke="#000" class="edge">
            <path fill="none" d="M3569.56 103.43c62.21 7.96 140 22.08 163.02 44.57 58.83 57.48-17.76 124.56 43 180 41.46 37.83 194.49 27.71 250 36 8.76 1.31 17.92 2.69 27.04 4.09"/>
            <path d="m4052.85 364.58 9.36 4.97-10.42 1.95z"/>
        </g>
        <g stroke="#000" class="edge">
            <path fill="none" d="M3387.95 95.16c-451.95 1-2329.98 7.83-2588.37 52.84C547.61 191.89 263 311.61 154.18 360.15"/>
            <path d="m155.84 363.24-10.56.89 7.7-7.28z"/>
        </g>
        <g class="node" transform="translate(4 544)">
            <ellipse cx="5098.58" cy="-306" fill="none" stroke="#000" rx="81.04" ry="18"/>
            <text x="5098.58" y="-300.95" font-family="Times,serif" font-size="14" text-anchor="middle">:app:core:compose</text>
        </g>
        <g stroke="#000" class="edge">
            <path fill="none" d="M3582.96 95.58C3890.71 97.8 4829.8 107.85 4960.58 148c43.54 13.37 86.93 43.67 114.07 65.19"/>
            <path d="m5076.8 210.43 5.57 9.01-9.97-3.57z"/>
        </g>
        <g class="node" transform="translate(4 544)">
            <ellipse cx="5098.58" cy="-234" fill="none" stroke="#000" rx="101" ry="18"/>
            <text x="5098.58" y="-228.95" font-family="Times,serif" font-size="14" text-anchor="middle">:app:core:design-system</text>
        </g>
        <g stroke="#000" class="edge">
            <path fill="none" d="M3582.99 95.76c376.14 3.18 1722.17 16.94 1910.59 52.24 93.27 17.47 146.37-5.59 201 72 9.21 13.08 10.8 24.19 0 36-31.69 34.65-317.56 46.82-480.16 50.96"/>
            <path d="m5214.53 310.46-10.09-3.25 9.91-3.75z"/>
        </g>
        <g class="node" transform="translate(4 544)">
            <ellipse cx="5360.58" cy="-306" fill="none" stroke="#000" rx="86.67" ry="18"/>
            <text x="5360.58" y="-300.95" font-family="Times,serif" font-size="14" text-anchor="middle">:app:core:navigation</text>
        </g>
        <g stroke="#000" class="edge">
            <path fill="none" d="M3582.98 95.68c291.03 2.47 1151.12 12.98 1428.6 52.32 106.77 15.14 228.02 49.63 297.03 70.96"/>
            <path d="m5309.27 215.5 8.51 6.31-10.59.37z"/>
        </g>
        <g class="node" transform="translate(4 544)">
            <ellipse cx="4893.58" cy="-162" fill="none" stroke="#000" rx="59.54" ry="18"/>
            <text x="4893.58" y="-156.95" font-family="Times,serif" font-size="14" text-anchor="middle">:library:color</text>
        </g>
        <g stroke="#000" class="edge">
            <path fill="none" d="M3573.59 102.06c76.86 7.42 190.98 21.51 287.99 45.94 224.17 56.45 262.29 130.03 488 180 189.84 42.03 242.88 13.4 436 36 16.19 1.89 33.63 4.34 49.82 6.79"/>
            <path d="m4835.53 367.27 9.36 4.98-10.42 1.94z"/>
        </g>
        <g class="node" transform="translate(4 544)">
            <ellipse cx="3291.58" cy="-18" fill="none" stroke="#000" rx="62.1" ry="18"/>
            <text x="3291.58" y="-12.95" font-family="Times,serif" font-size="14" text-anchor="middle">:library:kotlin</text>
        </g>
        <g stroke="#000" class="edge">
            <path fill="none" d="M3495.3 112.11c11.07 18.73 30.37 49.13 51.28 71.89 17.09 18.61 25.34 18.96 44 36 49.66 45.36 46.82 76.05 106 108 76.55 41.32 236.68 4.35 182 72-63.64 78.72-370.31 110.12-511.54 120.55"/>
            <path d="m3367.68 524.02-10.23-2.77 9.72-4.22z"/>
        </g>
        <g class="node" transform="translate(4 544)">
            <ellipse cx="5583.58" cy="-306" fill="none" stroke="#000" rx="79.5" ry="18"/>
            <text x="5583.58" y="-300.95" font-family="Times,serif" font-size="14" text-anchor="middle">:library:navigation</text>
        </g>
        <g stroke="#000" class="edge">
            <path fill="none" d="M3583.31 94.68c371.05-.79 1680.58.23 1859.27 53.32 44.52 13.23 89.05 43.78 116.78 65.38"/>
            <path d="m5561.26 210.42 5.65 8.97-10-3.49z"/>
        </g>
        <g class="node" transform="translate(4 544)">
            <ellipse cx="2028.58" cy="-18" fill="none" stroke="#000" rx="78.99" ry="18"/>
            <text x="2028.58" y="-12.95" font-family="Times,serif" font-size="14" text-anchor="middle">:library:coroutines</text>
        </g>
        <g stroke="#000" class="edge">
            <path fill="none" d="M3388.56 96.11c-373.06 4.49-1703.6 22.43-1890.98 51.89-224.65 35.33-354.69-38.03-491 144-50.18 67.01 83.31 71.46 84 72 47.17 37.08 28.18 79.53 81 108 8.45 4.56 556.57 35.86 773.75 48.11"/>
            <path d="m1945.37 516.6 9.79 4.06-10.18 2.93z"/>
        </g>
        <g class="node" transform="translate(4 544)">
            <ellipse cx="4577.58" cy="-18" fill="none" stroke="#000" rx="72.85" ry="18"/>
            <text x="4577.58" y="-12.95" font-family="Times,serif" font-size="14" text-anchor="middle">:library:datetime</text>
        </g>
        <g stroke="#000" class="edge">
            <path fill="none" d="M3583.29 94.71c359.97-.66 1611.7.97 2007.29 53.29 151.87 20.09 333-64.19 333 89v146c0 42.67-1.11 64.43-36 89-49.98 35.19-941.38 48.69-1222.08 52.08"/>
            <path d="m4665.73 527.58-10.04-3.38 9.96-3.62z"/>
        </g>
        <g class="node" transform="translate(4 544)">
            <ellipse cx="4434.58" cy="-306" fill="none" stroke="#000" rx="89.23" ry="18"/>
            <text x="4434.58" y="-300.95" font-family="Times,serif" font-size="14" text-anchor="middle">:library:shimmer-m3</text>
        </g>
        <g stroke="#000" class="edge">
            <path fill="none" d="M3583.41 94.32c225.12-.7 765.45 3.01 829.17 53.68 17.92 14.26 23.96 40.16 25.78 60.35"/>
            <path d="m4441.85 208.05-2.93 10.19-4.06-9.79z"/>
        </g>
        <g class="node" transform="translate(4 544)">
            <ellipse cx="1616.58" cy="-306" fill="none" stroke="#000" rx="71.31" ry="18"/>
            <text x="1616.58" y="-300.95" font-family="Times,serif" font-size="14" text-anchor="middle">:app:data:memo</text>
        </g>
        <g stroke="#000" class="edge">
            <path fill="none" d="M3388.39 95.85C3027.73 99.29 1782.8 113.6 1705.58 148c-29.15 12.98-53.22 41.11-68.21 62.29"/>
            <path d="m1640.31 212.19-8.52 6.3 2.73-10.24z"/>
        </g>
        <g class="node" transform="translate(4 544)">
            <ellipse cx="1840.58" cy="-306" fill="none" stroke="#000" rx="58.52" ry="18"/>
            <text x="1840.58" y="-300.95" font-family="Times,serif" font-size="14" text-anchor="middle">:app:data:tag</text>
        </g>
        <g stroke="#000" class="edge">
            <path fill="none" d="M3388.39 96.08c-332.06 3.98-1404.82 19.32-1470.81 51.92-26.52 13.1-46.77 40.8-59.14 61.84"/>
            <path d="m1861.52 211.49-7.93 7.02 1.82-10.44z"/>
        </g>
        <g class="node" transform="translate(4 544)">
            <ellipse cx="4359.58" cy="-162" fill="none" stroke="#000" rx="75.92" ry="18"/>
            <text x="4359.58" y="-156.95" font-family="Times,serif" font-size="14" text-anchor="middle">:app:data:account</text>
        </g>
        <g stroke="#000" class="edge">
            <path fill="none" d="M3574.78 101.5c65.56 6.73 156.04 20.15 231.8 46.5 155.95 54.24 170.77 121.03 325 180 51.16 19.56 111.55 33.08 157.89 41.56"/>
            <path d="m4289.91 366.08 9.23 5.21-10.46 1.68z"/>
        </g>
        <g class="node" transform="translate(4 544)">
            <ellipse cx="3635.58" cy="-378" fill="none" stroke="#000" rx="83.6" ry="18"/>
            <text x="3635.58" y="-372.95" font-family="Times,serif" font-size="14" text-anchor="middle">:app:data:credential</text>
        </g>
        <g stroke="red" stroke-width="2" class="edge">
            <path fill="none" d="M3520.91 111.06c21.87 9.94 50.16 22.8 73.63 33.47"/>
            <path fill="red" d="m3594.53 140.68 7.66 7.32-10.55-.95z"/>
        </g>
        <g class="node" transform="translate(4 544)">
            <ellipse cx="1658.58" cy="-234" fill="none" stroke="#000" rx="74.89" ry="18"/>
            <text x="1658.58" y="-228.95" font-family="Times,serif" font-size="14" text-anchor="middle">:app:data:holiday</text>
        </g>
        <g stroke="#000" class="edge">
            <path fill="none" d="M3388.3 95.86c-348.68 3.38-1518.96 17.28-1590.72 52.14-15.48 7.52-81.46 91.39-115.1 135"/>
            <path d="m1685.42 284.91-8.87 5.79 3.32-10.06z"/>
        </g>
        <g class="node" transform="translate(4 544)">
            <ellipse cx="1825.58" cy="-234" fill="none" stroke="#000" rx="73.87" ry="18"/>
            <text x="1825.58" y="-228.95" font-family="Times,serif" font-size="14" text-anchor="middle">:app:data:backup</text>
        </g>
        <g stroke="#000" class="edge">
            <path fill="none" d="M3388 94.83c-327.05-.11-1371.98 3.47-1514.42 53.17-50.69 17.69-72.87 24.04-97 72-7.19 14.29-6.12 21.22 0 36 4.52 10.91 12.49 20.75 20.91 28.9"/>
            <path d="m1799.69 282.18 5.12 9.27-9.79-4.06z"/>
        </g>
        <g class="node" transform="translate(4 544)">
            <ellipse cx="2097.58" cy="-306" fill="none" stroke="#000" rx="65.68" ry="18"/>
            <text x="2097.58" y="-300.95" font-family="Times,serif" font-size="14" text-anchor="middle">:app:data:fetch</text>
        </g>
        <g stroke="#000" class="edge">
            <path fill="none" d="M3387.88 94.62c-284.35-.5-1098.27 2.57-1206.3 53.38-27.95 13.15-50.42 41.04-64.35 62.12"/>
            <path d="m2120.21 211.96-8.3 6.58 2.38-10.32z"/>
        </g>
        <g class="node" transform="translate(4 544)">
            <ellipse cx="3937.58" cy="-234" fill="none" stroke="#000" rx="62.1" ry="18"/>
            <text x="3937.58" y="-228.95" font-family="Times,serif" font-size="14" text-anchor="middle">:app:data:fcm</text>
        </g>
        <g stroke="#000" class="edge">
            <path fill="none" d="M3578.56 99.75c56.55 5.95 128.84 19.13 187.02 48.25 66.57 33.32 126.43 99.23 156.18 135.53"/>
            <path d="m3924.16 280.93 3.55 9.98-9-5.59z"/>
        </g>
        <g class="node" transform="translate(4 544)">
            <ellipse cx="2593.58" cy="-234" fill="none" stroke="#000" rx="84.11" ry="18"/>
            <text x="2593.58" y="-228.95" font-family="Times,serif" font-size="14" text-anchor="middle">:app:domain:memo</text>
        </g>
        <g stroke="#000" class="edge">
            <path fill="none" d="M3388.46 95.86c-271.11 2.88-1018.69 14.25-1054.88 52.14-33.15 34.71-30.42 70.87 0 108 3.08 3.76 113.59 25 190.64 39.43"/>
            <path d="m2524.65 291.95 9.19 5.28-10.47 1.6z"/>
        </g>
        <g class="node" transform="translate(4 544)">
            <ellipse cx="3032.58" cy="-234" fill="none" stroke="#000" rx="71.31" ry="18"/>
            <text x="3032.58" y="-228.95" font-family="Times,serif" font-size="14" text-anchor="middle">:app:domain:tag</text>
        </g>
        <g stroke="#000" class="edge">
            <path fill="none" d="M3411.78 106.07c-43.05 8.14-97.67 21.43-143.2 41.93-80.83 36.4-163.23 101.7-204.64 136.92"/>
            <path d="m3066.28 287.52-9.87 3.86 5.31-9.17z"/>
        </g>
        <g class="node" transform="translate(4 544)">
            <ellipse cx="2946.58" cy="-90" fill="none" stroke="#000" rx="88.71" ry="18"/>
            <text x="2946.58" y="-84.95" font-family="Times,serif" font-size="14" text-anchor="middle">:app:domain:account</text>
        </g>
        <g stroke="#000" class="edge">
            <path fill="none" d="M3391.75 99.2c-154.66 9.25-451.61 37.68-507.17 120.8-44.08 65.94 12.65 161.23 45.55 206.8"/>
            <path d="m2932.9 424.66 3.14 10.12-8.77-5.95z"/>
        </g>
        <g class="node" transform="translate(4 544)">
            <ellipse cx="3481.58" cy="-306" fill="none" stroke="#000" rx="96.39" ry="18"/>
            <text x="3481.58" y="-300.95" font-family="Times,serif" font-size="14" text-anchor="middle">:app:domain:credential</text>
        </g>
        <g stroke="#000" class="edge">
            <path fill="none" d="M3485.58 112.41v96.17"/>
            <path d="m3489.08 208.38-3.5 10-3.5-10z"/>
        </g>
        <g class="node" transform="translate(4 544)">
            <ellipse cx="2105.58" cy="-90" fill="none" stroke="#000" rx="87.69" ry="18"/>
            <text x="2105.58" y="-84.95" font-family="Times,serif" font-size="14" text-anchor="middle">:app:domain:holiday</text>
        </g>
        <g stroke="#000" class="edge">
            <path fill="none" d="M3388.18 95.83c-314.04 3.04-1282.82 15.36-1338.6 52.17-91.29 60.23-.44 216.24 41.38 278.64"/>
            <path d="m2093.63 424.33 2.73 10.24-8.52-6.29z"/>
        </g>
        <g class="node" transform="translate(4 544)">
            <ellipse cx="2590.58" cy="-162" fill="none" stroke="#000" rx="86.67" ry="18"/>
            <text x="2590.58" y="-156.95" font-family="Times,serif" font-size="14" text-anchor="middle">:app:domain:backup</text>
        </g>
        <g stroke="#000" class="edge">
            <path fill="none" d="M3388.33 95.76C3113.02 98.4 2345.66 109.21 2308.58 148c-10.94 11.44-19.32 82.86 1 108 44.99 55.68 93.9 2.19 157 36 20.51 10.99 19.41 22.01 38 36 15.21 11.45 33.08 22.42 48.88 31.39"/>
            <path d="m2555.13 356.31 7.03 7.92-10.44-1.8z"/>
        </g>
        <g class="node" transform="translate(4 544)">
            <ellipse cx="2375.58" cy="-234" fill="none" stroke="#000" rx="78.48" ry="18"/>
            <text x="2375.58" y="-228.95" font-family="Times,serif" font-size="14" text-anchor="middle">:app:domain:fetch</text>
        </g>
        <g stroke="#000" class="edge">
            <path fill="none" d="M3388.26 95.77c-290 2.74-1135.59 13.93-1253.68 52.23-54.88 17.8-80.78 21.14-108 72-7.55 14.11-10.44 23.88 0 36 33.29 38.66 169.75 49.51 262.92 52.34"/>
            <path d="m2289.51 304.84 9.9 3.77-10.09 3.22z"/>
        </g>
        <g class="node" transform="translate(4 544)">
            <ellipse cx="3264.58" cy="-162" fill="none" stroke="#000" rx="74.89" ry="18"/>
            <text x="3264.58" y="-156.95" font-family="Times,serif" font-size="14" text-anchor="middle">:app:domain:fcm</text>
        </g>
        <g stroke="#000" class="edge">
            <path fill="none" d="M3470.46 111.98c-20.87 23.68-59.39 68.18-89.88 108.02-35.26 46.07-73.19 102.13-94.63 134.48"/>
            <path d="m3289.12 356.04-8.43 6.41 2.59-10.27z"/>
        </g>
        <g class="node" transform="translate(4 544)">
            <ellipse cx="2980.58" cy="-306" fill="none" stroke="#000" rx="91.27" ry="18"/>
            <text x="2980.58" y="-300.95" font-family="Times,serif" font-size="14" text-anchor="middle">:app:domain:calendar</text>
        </g>
        <g stroke="#000" class="edge">
            <path fill="none" d="M3392.51 99.56c-71.67 5.77-172.31 18.84-255.93 48.44-44.55 15.77-90.7 44.93-120.29 65.57"/>
            <path d="m3018.34 216.41-10.18 2.93 6.13-8.64z"/>
        </g>
        <g class="node" transform="translate(4 544)">
            <ellipse cx="823.58" cy="-234" fill="none" stroke="#000" rx="132.22" ry="18"/>
            <text x="823.58" y="-228.95" font-family="Times,serif" font-size="14" text-anchor="middle">:app:core:backup-database-room</text>
        </g>
        <g stroke="#000" class="edge">
            <path fill="none" d="M3387.78 94.9c-449.8-.16-2302.66 2.26-2414.2 53.1-61.51 28.04-108.43 95.68-131.06 133.77"/>
            <path d="m845.59 283.46-8.04 6.9 1.98-10.41z"/>
        </g>
        <g class="node" transform="translate(4 544)">
            <ellipse cx="6105.58" cy="-234" fill="none" stroke="#000" rx="158.32" ry="18"/>
            <text x="6105.58" y="-228.95" font-family="Times,serif" font-size="14" text-anchor="middle">:app:core:account-preferences-datastore</text>
        </g>
        <g stroke="#000" class="edge">
            <path fill="none" d="M3583.16 95.16c442.49.99 2243.8 7.76 2354.42 52.84 68.44 27.89 125.95 96.62 153.87 134.64"/>
            <path d="m6094.01 280.21 3 10.16-8.68-6.07z"/>
        </g>
        <g class="node" transform="translate(4 544)">
            <ellipse cx="1136.58" cy="-234" fill="none" stroke="#000" rx="124.54" ry="18"/>
            <text x="1136.58" y="-228.95" font-family="Times,serif" font-size="14" text-anchor="middle">:app:core:diary-database-room</text>
        </g>
        <g stroke="#000" class="edge">
            <path fill="none" d="M3388.54 96.26c-353.57 4.81-1561.11 23.17-1731.96 51.74-175.88 29.41-374.97 103.87-465.9 140.29"/>
            <path d="m1192.13 291.49-10.59.49 7.97-6.99z"/>
        </g>
        <g class="node" transform="translate(4 544)">
            <ellipse cx="6476.58" cy="-234" fill="none" stroke="#000" rx="157.3" ry="18"/>
            <text x="6476.58" y="-228.95" font-family="Times,serif" font-size="14" text-anchor="middle">:app:core:holiday-preferences-datastore</text>
        </g>
        <g stroke="#000" class="edge">
            <path fill="none" d="M3583.11 94.86c482.69-.43 2597.8.7 2726.47 53.14 68.23 27.81 125.33 96.57 153.02 134.62"/>
            <path d="m6465.16 280.18 2.96 10.17-8.66-6.11z"/>
        </g>
        <g class="node" transform="translate(4 544)">
            <ellipse cx="540.58" cy="-234" fill="none" stroke="#000" rx="133.24" ry="18"/>
            <text x="540.58" y="-228.95" font-family="Times,serif" font-size="14" text-anchor="middle">:app:core:holiday-database-room</text>
        </g>
        <g stroke="#000" class="edge">
            <path fill="none" d="M3387.78 94.79c-440.08-.63-2225.98.12-2470.2 53.21-128.88 28.02-268.5 101.01-334.4 138.32"/>
            <path d="m584.98 289.32-10.42 1.92 6.95-8z"/>
        </g>
        <g class="node" transform="translate(4 544)">
            <ellipse cx="4317.58" cy="-378" fill="none" stroke="#000" rx="81.55" ry="18"/>
            <text x="4317.58" y="-372.95" font-family="Times,serif" font-size="14" text-anchor="middle">:app:feature:memo</text>
        </g>
        <g stroke="#000" class="edge">
            <path fill="none" d="M3580.73 98.23c142.13 5.63 418.11 19.62 650.85 49.77 6.75.87 13.76 1.93 20.75 3.09"/>
            <path d="m4252.89 147.63 9.26 5.15-10.45 1.75z"/>
        </g>
        <g class="node" transform="translate(4 544)">
            <ellipse cx="5360.58" cy="-378" fill="none" stroke="#000" rx="68.75" ry="18"/>
            <text x="5360.58" y="-372.95" font-family="Times,serif" font-size="14" text-anchor="middle">:app:feature:tag</text>
        </g>
        <g stroke="#000" class="edge">
            <path fill="none" d="M3582.97 95.07c263.74.81 1013.82 7.31 1635.61 52.93 24.39 1.79 50.97 4.62 74.69 7.46"/>
            <path d="m5293.66 151.99 9.5 4.68-10.35 2.26z"/>
        </g>
        <g class="node" transform="translate(4 544)">
            <ellipse cx="4627.58" cy="-378" fill="none" stroke="#000" rx="88.71" ry="18"/>
            <text x="4627.58" y="-372.95" font-family="Times,serif" font-size="14" text-anchor="middle">:app:feature:calendar</text>
        </g>
        <g stroke="#000" class="edge">
            <path fill="none" d="M3579.63 99c172.42 7.59 550.63 25.46 868.95 49 30.61 2.26 64.06 5.23 93.89 8.04"/>
            <path d="m4542.59 152.54 9.62 4.43-10.29 2.54z"/>
        </g>
        <g class="node" transform="translate(4 544)">
            <ellipse cx="4141.58" cy="-378" fill="none" stroke="#000" rx="76.94" ry="18"/>
            <text x="4141.58" y="-372.95" font-family="Times,serif" font-size="14" text-anchor="middle">:app:feature:more</text>
        </g>
        <g stroke="#000" class="edge">
            <path fill="none" d="M3576.05 100.85c112.5 7.87 310.26 23.65 478.53 47.15 7.49 1.05 15.29 2.28 23.05 3.6"/>
            <path d="m4078.18 148.14 9.25 5.18-10.46 1.72z"/>
        </g>
        <g class="node" transform="translate(4 544)">
            <ellipse cx="4861.58" cy="-378" fill="none" stroke="#000" rx="86.15" ry="18"/>
            <text x="4861.58" y="-372.95" font-family="Times,serif" font-size="14" text-anchor="middle">:app:feature:account</text>
        </g>
        <g stroke="#000" class="edge">
            <path fill="none" d="M3582.53 96.43c209.61 3.7 720.53 15.89 1147.05 51.57 17.78 1.49 36.82 3.56 54.85 5.75"/>
            <path d="m4784.81 150.27 9.5 4.71-10.36 2.24z"/>
        </g>
        <g class="node" transform="translate(4 544)">
            <ellipse cx="6095.58" cy="-162" fill="none" stroke="#000" rx="112.26" ry="18"/>
            <text x="6095.58" y="-156.95" font-family="Times,serif" font-size="14" text-anchor="middle">:library:firebase-messaging</text>
        </g>
        <g stroke="#000" class="edge">
            <path fill="none" d="M3583.17 94.6C4015.25 93.18 5745 91.1 5980.58 148c142.21 34.35 218.41 19.97 296 144 25.09 40.1-27.86 62.8-82.24 75.22"/>
            <path d="m6195.1 370.64-10.52-1.31 9.04-5.53z"/>
        </g>
        <g class="node" transform="translate(4 544)">
            <ellipse cx="1628.58" cy="-18" fill="none" stroke="#000" rx="71.31" ry="18"/>
            <text x="1628.58" y="-12.95" font-family="Times,serif" font-size="14" text-anchor="middle">:app:core:model</text>
        </g>
        <g stroke="#000" class="edge">
            <path fill="none" d="M4048.21 389.8c-49.7 3.61-113.12 7.79-169.63 10.2-207.18 8.85-1663.47-8.54-1866 36-38.87 8.55-43.92 24.43-82 36-73.96 22.46-161.31 36.61-222.25 44.58"/>
            <path d="m1709.13 520.01-10.36-2.2 9.47-4.75z"/>
        </g>
        <g class="node" transform="translate(4 544)">
            <ellipse cx="2830.58" cy="-18" fill="none" stroke="#000" rx="85.13" ry="18"/>
            <text x="2830.58" y="-12.95" font-family="Times,serif" font-size="14" text-anchor="middle">:common:exception</text>
        </g>
        <g stroke="#000" class="edge">
            <path fill="none" d="M4054.2 391.88c-232.21 25.35-896.42 97.84-1133.9 123.76"/>
            <path d="m2920.8 519.11-10.32-2.39 9.56-4.57z"/>
        </g>
        <g class="node" transform="translate(4 544)">
            <ellipse cx="4351.58" cy="-90" fill="none" stroke="#000" rx="121.98" ry="18"/>
            <text x="4351.58" y="-84.95" font-family="Times,serif" font-size="14" text-anchor="middle">:app:core:account-preferences</text>
        </g>
        <g stroke="#000" class="edge">
            <path fill="none" d="M4182.77 398.02c32.84 10.45 76.91 24.47 112.33 35.74"/>
            <path d="m4295.88 430.33 8.47 6.37-10.59.3z"/>
        </g>
        <g class="node" transform="translate(4 544)">
            <ellipse cx="4024.58" cy="-90" fill="none" stroke="#000" rx="72.85" ry="18"/>
            <text x="4024.58" y="-84.95" font-family="Times,serif" font-size="14" text-anchor="middle">:common:model</text>
        </g>
        <g stroke="#000" class="edge">
            <path fill="none" d="M4109.95 399.77c-14.1 9.22-31.78 20.79-47.06 30.78"/>
            <path d="m4064.81 433.48-10.28 2.54 6.45-8.4z"/>
        </g>
        <g stroke="#000" class="edge">
            <path fill="none" d="M124.36 399.94c21.13 21.36 60.9 57.09 103.22 72.06 124.34 43.98 1040.17 51.47 1322.42 52.74"/>
            <path d="m1549.87 521.24 9.99 3.55-10.02 3.45z"/>
        </g>
        <g stroke="#000" class="edge">
            <path fill="none" d="M5102.58 256.3v24.16"/>
            <path d="m5106.08 280.38-3.5 10-3.5-10z"/>
        </g>
        <g stroke="#000" class="edge">
            <path fill="none" d="M5057.08 326.54c-32.78 11.19-76.97 26.28-110.52 37.74"/>
            <path d="m4948.09 367.45-10.59-.08 8.33-6.54z"/>
        </g>
        <g stroke="#000" class="edge">
            <path fill="none" d="M5097.05 328.44c-11.81 34.05-42.92 109.07-97.47 143.56-53.99 34.14-228.84 46.36-334.53 50.69"/>
            <path d="m4665.42 526.18-10.13-3.11 9.86-3.89z"/>
        </g>
        <g stroke="#000" class="edge">
            <path fill="none" d="M5362.95 256.48c-5.19 44.62-25.61 162.9-99.37 215.52-47.64 33.98-426.18 47.06-597.86 51.27"/>
            <path d="m4665.81 526.77-10.08-3.26 9.91-3.74z"/>
        </g>
        <g stroke="#000" class="edge">
            <path fill="none" d="M5573.25 255.95c-39.14 44.94-153.39 167.02-278.67 216.05-112.32 43.95-464.99 51.72-628.37 52.91"/>
            <path d="m4666.31 528.41-10.02-3.44 9.98-3.56z"/>
        </g>
        <g stroke="#000" class="edge">
            <path fill="none" d="M4496.81 252.03c33.49 8.77 75.74 22.02 110.77 39.97 23.73 12.16 23.73 24.95 48 36 69.5 31.65 93.45 19.45 168 36 5.49 1.22 11.2 2.5 16.92 3.8"/>
            <path d="m4840.97 364.32 8.97 5.63-10.53 1.19z"/>
        </g>
        <g stroke="#000" class="edge">
            <path fill="none" d="M1551.41 242.91c-61.36 5.43-152.38 18.36-225.83 49.09-25.6 10.71-27.27 21.62-51 36-29.92 18.13-51.78 6.14-70 36-8.33 13.66-9.87 23.41 0 36 45.53 58.08 539.78 102.67 742.25 118.62"/>
            <path d="m1947.08 515.13 9.7 4.27-10.24 2.71z"/>
        </g>
        <g stroke="#000" class="edge">
            <path fill="none" d="M1683.1 246.99c28.47 3.34 62.63 6.92 93.48 9.01 594.41 40.3 746.68-17.98 1340 36 103.48 9.41 127.73 24.47 231 36 58.77 6.56 484.07.01 531 36 40.26 30.88-3.08 76.89 37 108 45.01 34.94 413.26 47.47 582.05 51.4"/>
            <path d="m4497.51 519.9 9.92 3.73-10.08 3.27z"/>
        </g>
        <g stroke="#000" class="edge">
            <path fill="none" d="M1683.88 246.72c28.32 3.24 62.15 6.82 92.7 9.28 306.09 24.64 384.17 8.22 690 36 16.77 1.52 34.69 3.57 51.73 5.72"/>
            <path d="m2518.39 294.2 9.47 4.74-10.37 2.2z"/>
        </g>
        <g class="node" transform="translate(4 544)">
            <ellipse cx="1311.58" cy="-162" fill="none" stroke="#000" rx="101.51" ry="18"/>
            <text x="1311.58" y="-156.95" font-family="Times,serif" font-size="14" text-anchor="middle">:app:core:diary-database</text>
        </g>
        <g stroke="#000" class="edge">
            <path fill="none" d="M1554.78 245.25c-68.21 7.67-169.02 22.7-199.2 46.75-18.83 15-29.08 40.78-34.47 60.74"/>
            <path d="m1324.57 353.32-5.75 8.9-1.06-10.54z"/>
        </g>
        <g stroke="#000" class="edge">
            <path fill="none" d="M1791.39 245.85c-99.81 12.98-305.67 40.37-310.81 46.15-31.91 35.87-22.19 64.44-2 108 20.82 44.92 39.55 52.37 85 72 66.34 28.65 263.89 42.98 380.36 49.12"/>
            <path d="m1943.98 517.62 9.81 4.01-10.17 2.98z"/>
        </g>
        <g stroke="#000" class="edge">
            <path fill="none" d="M1899.06 245.03c36.12 3.77 84.6 8.38 127.52 10.97 146.57 8.83 1185.35-20.21 1321 36 21.49 8.91 16.69 26.66 38 36 107.29 47.06 437.85-41.17 526 36 36.86 32.27-14.64 75.49 22 108 41.32 36.66 398.33 48.24 564.09 51.67"/>
            <path d="m4497.34 520.16 9.93 3.7-10.07 3.3z"/>
        </g>
        <g stroke="#000" class="edge">
            <path fill="none" d="M1899.48 244.72c36.1 3.61 84.37 8.16 127.1 11.28 91.44 6.67 706.01 37.74 929.2 48.95"/>
            <path d="m2955.74 301.44 9.81 4-10.16 2.99z"/>
        </g>
        <g stroke="#000" class="edge">
            <path fill="none" d="M1790.56 245.39c-27.02 3.19-60.23 7.11-89.98 10.61-68.22 8.03-246.2 4.04-307 36-14.31 7.52-40.49 39.41-58.54 62.88"/>
            <path d="m1337.84 356.97-8.84 5.84 3.27-10.08z"/>
        </g>
        <g stroke="#000" class="edge">
            <path fill="none" d="M4319 396.99c-30.16 9.9-70.68 24.02-105.42 39.01-32.12 13.86-36.1 27.34-70 36-6.22 1.59-1620.06 41.03-2021.43 50.82"/>
            <path d="m2122.51 526.31-10.09-3.26 9.91-3.74z"/>
        </g>
        <g stroke="#000" class="edge">
            <path fill="none" d="M4313.1 395.76c-35.31 10.07-77.97 24.93-88.52 40.24-9.08 13.18-10.45 23.88 0 36 34.51 40.01 178.48 50.31 272.72 52.67"/>
            <path d="m4497.1 521.17 9.92 3.72-10.08 3.28z"/>
        </g>
        <g stroke="#000" class="edge">
            <path fill="none" d="M4301.45 392.77c-19.44 2.74-41.01 5.45-60.87 7.23-442.5 39.58-973.08 49.64-1190.1 52.17"/>
            <path d="m3050.69 455.67-10.04-3.39 9.96-3.61z"/>
        </g>
        <g stroke="#000" class="edge">
            <path fill="none" d="M4361.6 400.3c-.83 7.29-1.82 15.97-2.76 24.16"/>
            <path d="m4362.32 424.85-4.61 9.54-2.35-10.33z"/>
        </g>
        <g stroke="#000" class="edge">
            <path fill="none" d="M3644.58 184.43c10.75 34.02 39.56 109 93 143.57 54.15 35.03 224.12 27.07 288 36 8.84 1.24 18.08 2.58 27.28 3.95"/>
            <path d="m4053.16 364.46 9.37 4.95-10.41 1.97z"/>
        </g>
        <g stroke="#000" class="edge">
            <path fill="none" d="M3556.26 168.1c-320.38 4.44-1458.64 22.23-1529.68 51.9-64.4 26.9-62.44 60.97-114 108-53.75 49.03-93 41.73-123 108-6.6 14.58-10.04 23.54 0 36 19.82 24.61 96.43 38.41 158.4 45.71"/>
            <path d="m1948.32 514.22 9.54 4.61-10.33 2.35z"/>
        </g>
        <g stroke="#000" class="edge">
            <path fill="none" d="M3695.35 179.7c90.25 20.95 273.63 65.15 426.23 112.3 45.13 13.94 53.81 26.12 100 36 51.65 11.05 438.09-2.74 474 36 10.12 10.92 15.13 81.75-2 108-11.36 17.4-30.1 29.22-49.02 37.19"/>
            <path d="m4646.07 512.35-10.59.33 8.07-6.86z"/>
        </g>
        <g stroke="red" stroke-width="2" class="edge">
            <path fill="none" d="M3605.02 182.71c-21.69 9.86-49.91 22.68-73.47 33.39"/>
            <path fill="red" d="m3534.4 218.65-10.55.95 7.65-7.32z"/>
        </g>
        <g stroke="#000" class="edge">
            <path fill="none" d="M3656.52 183.92c35.8 34.52 123.36 112.46 214.06 144.08 60.76 21.18 533.94-10.89 578 36 10.96 11.66 8.04 22.17 0 36-7.89 13.58-20.7 23.96-34.33 31.79"/>
            <path d="m4416.07 434.79-10.48 1.55 7.22-7.75z"/>
        </g>
        <g stroke="#000" class="edge">
            <path fill="none" d="M1589.65 314.38c-77.98 3.56-205.25 9.26-315.07 13.62-450.6 17.87-564.27 2.91-1014 36-18.82 1.38-38.9 3.31-58.09 5.37"/>
            <path d="m203.13 372.82-10.32-2.39 9.56-4.57z"/>
        </g>
        <g stroke="#000" class="edge">
            <path fill="none" d="M1665.08 328.33c5.81 33.51 23.49 107.13 70.5 143.67 32.25 25.07 135.47 39.27 211.2 46.53"/>
            <path d="m1947.07 515.05 9.64 4.41-10.29 2.56z"/>
        </g>
        <g stroke="#000" class="edge">
            <path fill="none" d="M1715.23 323.14c10.34 1.96 21.15 3.72 31.35 4.86 88.69 9.89 1524.72-.85 1606 36 19.77 8.96 18.16 20.16 33 36 30.31 32.34 28.65 53.65 69 72 93.96 42.73 797.2 51.03 1042.72 52.62"/>
            <path d="m4497.15 521.12 9.98 3.56-10.02 3.44z"/>
        </g>
        <g stroke="#000" class="edge">
            <path fill="none" d="M1698.42 326.26c45.34 18.94 126.09 51.46 197.16 73.74 47.44 14.87 101.83 28.3 143.91 37.92"/>
            <path d="m2040 434.44 8.98 5.63-10.52 1.2z"/>
        </g>
        <g class="node" transform="translate(4 544)">
            <ellipse cx="3744.58" cy="-162" fill="none" stroke="#000" rx="120.96" ry="18"/>
            <text x="3744.58" y="-156.95" font-family="Times,serif" font-size="14" text-anchor="middle">:app:core:holiday-preferences</text>
        </g>
        <g stroke="#000" class="edge">
            <path fill="none" d="M1715.23 323.14c10.34 1.97 21.15 3.72 31.35 4.86 362.07 40.29 1274.9 23.48 1639 36 79.75 2.74 169.31 6.93 239.51 10.46"/>
            <path d="m3624.87 370.94 9.81 4-10.17 2.99z"/>
        </g>
        <g class="node" transform="translate(4 544)">
            <ellipse cx="553.58" cy="-162" fill="none" stroke="#000" rx="110.21" ry="18"/>
            <text x="553.58" y="-156.95" font-family="Times,serif" font-size="14" text-anchor="middle">:app:core:holiday-database</text>
        </g>
        <g stroke="#000" class="edge">
            <path fill="none" d="M1589.24 314.1c-197.16 8.47-735.55 32.52-912.66 49.9-9.73.95-19.89 2.13-29.99 3.41"/>
            <path d="m647.11 370.87-10.37-2.17 9.46-4.77z"/>
        </g>
        <g stroke="#000" class="edge">
            <path fill="none" d="M1902.14 313.98c91.15 3.67 252.35 9.92 390.44 14.02 704.76 20.94 881.62 4.72 1586 36 52.31 2.32 110.55 6.08 158.34 9.47"/>
            <path d="m4036.97 369.96 9.72 4.21-10.22 2.78z"/>
        </g>
        <g stroke="#000" class="edge">
            <path fill="none" d="M1809.99 327.79c-33.89 31.05-96.37 98.42-58.41 144.21 24.3 29.31 120.35 42.52 193.45 48.41"/>
            <path d="m1944.88 516.89 9.7 4.25-10.24 2.73z"/>
        </g>
        <g stroke="#000" class="edge">
            <path fill="none" d="M1902.15 313.75c91.16 3.43 252.36 9.44 390.43 14.25 121.44 4.23 980.88-10.83 1093 36 21.47 8.97 20.63 20.53 38 36 37.22 33.16 39.58 53.82 86 72 90.91 35.6 751.37 48.43 987.97 51.91"/>
            <path d="m4497.36 520.41 9.95 3.65-10.05 3.35z"/>
        </g>
        <g stroke="#000" class="edge">
            <path fill="none" d="M1897.8 317.24c138.53 12.68 452.72 41.43 607.37 55.58"/>
            <path d="m2505.33 369.32 9.64 4.4-10.27 2.57z"/>
        </g>
        <g stroke="#000" class="edge">
            <path fill="none" d="M1775.67 322.69c-9.66 1.91-19.66 3.77-29.09 5.31-113.69 18.6-245.21 33.88-332.77 43.17"/>
            <path d="m1414.37 374.63-10.32-2.43 9.58-4.53z"/>
        </g>
        <g class="node" transform="translate(4 544)">
            <ellipse cx="790.58" cy="-162" fill="none" stroke="#000" rx="109.19" ry="18"/>
            <text x="790.58" y="-156.95" font-family="Times,serif" font-size="14" text-anchor="middle">:app:core:backup-database</text>
        </g>
        <g stroke="#000" class="edge">
            <path fill="none" d="M1777.1 323.04c-10.09 1.95-20.59 3.73-30.52 4.96-351.44 43.66-442.91 8.8-796 36-18.96 1.46-39.18 3.39-58.56 5.42"/>
            <path d="m892.54 372.88-10.31-2.42 9.57-4.54z"/>
        </g>
        <g stroke="#000" class="edge">
            <path fill="none" d="M2167.39 239.55c193.18 2.08 775.27 11.53 1256.19 52.45 123.26 10.49 153.18 21.21 276 36 144.72 17.43 181.49 16.86 326 36 8.99 1.19 18.38 2.52 27.72 3.89"/>
            <path d="m4053.76 364.42 9.38 4.93-10.41 1.99z"/>
        </g>
        <g stroke="#000" class="edge">
            <path fill="none" d="M2039.87 244.57c-36.93 3.32-84.8 7.63-127.29 11.43-45 4.02-374.5 2.67-405 36-134.53 147.02 260.89 206.49 440.86 225.51"/>
            <path d="m1948.63 514.01 9.58 4.51-10.31 2.45z"/>
        </g>
        <g stroke="#000" class="edge">
            <path fill="none" d="M2166.83 240.42c253.56 5.7 1162.2 27.68 1218.75 51.58 21.43 9.06 16.69 26.66 38 36 53.65 23.53 486.02-6.81 526 36 32.77 35.09-35.51 72.66-3 108 36.55 39.73 386.52 49.69 550.72 52.17"/>
            <path d="m4497.33 520.67 9.95 3.65-10.05 3.35z"/>
        </g>
        <g stroke="#000" class="edge">
            <path fill="none" d="M2148.74 250.87c46.47 11.71 117.73 29.65 168.78 42.5"/>
            <path d="m2318.1 289.91 8.85 5.84-10.56.95z"/>
        </g>
        <g stroke="#000" class="edge">
            <path fill="none" d="M2039.88 244.69c-36.93 3.36-84.79 7.67-127.3 11.31-196.82 16.85-254.44-22.86-443 36-46.02 14.36-93.18 44.3-122.97 65.48"/>
            <path d="m1348.95 360.11-10.16 3.02 6.05-8.69z"/>
        </g>
        <g stroke="#000" class="edge">
            <path fill="none" d="M3979.45 324.66c29.22 10.55 70.03 25.27 102.59 37.02"/>
            <path d="m4083.1 358.34 8.22 6.69-10.59-.1z"/>
        </g>
        <g stroke="#000" class="edge">
            <path fill="none" d="M3988.92 322.05c9.47 2.08 19.37 4.16 28.66 5.95 102.27 19.68 282.47-13.5 223 72-26.26 37.75-58.84 10.34-97 36-18.01 12.11-13.25 27.01-33 36-5.74 2.61-1590.35 41.18-1988.21 50.83"/>
            <path d="m2122.54 526.32-10.08-3.25 9.91-3.74z"/>
        </g>
        <g stroke="#000" class="edge">
            <path fill="none" d="M3987.6 322.4c9.84 2.13 20.22 4.14 29.98 5.6 102.28 15.33 375.63-17.72 464 36 49.69 30.21 78.43 95.43 91.46 132.93"/>
            <path d="m4576.28 495.58-.17 10.59-6.47-8.38z"/>
        </g>
        <g stroke="#000" class="edge">
            <path fill="none" d="M3883.91 317c-120.53 12.54-399.27 41.53-536.34 55.78"/>
            <path d="m3348.17 376.24-10.31-2.45 9.59-4.51z"/>
        </g>
        <g stroke="#000" class="edge">
            <path fill="none" d="M4003.26 313c296.3 9.61 1575.6 51.11 1976.03 64.1"/>
            <path d="m5979.2 373.59 9.88 3.83-10.11 3.17z"/>
        </g>
        <g stroke="#000" class="edge">
            <path fill="none" d="M2627.21 327.19c18.42 10.24 42.5 23.93 63.37 36.81 73.64 45.45 80.82 78.04 162 108 66.43 24.52 263.94 41.05 371.41 48.49"/>
            <path d="m3224.12 517 9.74 4.17-10.22 2.81z"/>
        </g>
        <g stroke="#000" class="edge">
            <path fill="none" d="M2559.28 326.37c-21.6 9.45-48.6 22.61-70.7 37.63-58.8 39.96-53.93 77.18-118 108-43.67 21.01-168.99 36.77-254.13 45.43"/>
            <path d="m2117.04 520.89-10.3-2.48 9.6-4.48z"/>
        </g>
        <g stroke="#000" class="edge">
            <path fill="none" d="M2678.54 315.13c207.64 10.69 745.53 39.15 783.04 48.87 107.77 27.92 118.21 80.19 226 108 151.5 39.09 617.36 49.47 809.64 52.13"/>
            <path d="m4497.19 520.63 9.96 3.63-10.05 3.37z"/>
        </g>
        <g stroke="#000" class="edge">
            <path fill="none" d="M2662.2 321.91c60.1 10.75 144.82 27.62 175.38 42.09 4.71 2.23 51.37 39.43 83.24 65.02"/>
            <path d="m2922.99 426.28 5.6 8.99-9.99-3.54z"/>
        </g>
        <g stroke="#000" class="edge">
            <path fill="none" d="M2596.84 328.3c-.31 7.29-.69 15.97-1.04 24.16"/>
            <path d="m2599.3 352.54-3.92 9.84-3.07-10.14z"/>
        </g>
        <g stroke="#000" class="edge">
            <path fill="none" d="M2527.65 320.25c-205.79 27.29-795.98 106.18-814.07 115.75-7.48 3.96-37.97 38.59-59.32 63.46"/>
            <path d="m1657.01 501.63-9.16 5.32 3.84-9.87z"/>
        </g>
        <g stroke="#000" class="edge">
            <path fill="none" d="M2548.72 324.99c-19.11 8.13-39.07 20.53-50.14 39.01-8.22 13.73-8.56 22.48 0 36 51.18 80.87 162.1 109.69 242.53 119.81"/>
            <path d="m2741.22 516.3 9.52 4.64-10.34 2.31z"/>
        </g>
        <g stroke="#000" class="edge">
            <path fill="none" d="M3056.47 327.44c45.58 37.65 157.68 130.27 210.58 173.99"/>
            <path d="m3268.97 498.48 5.48 9.06-9.94-3.67z"/>
        </g>
        <g stroke="#000" class="edge">
            <path fill="none" d="M2996.23 325.27c-90.51 31.45-317.15 107.07-512.65 146.73-125.59 25.48-273.52 39.97-364.79 47.15"/>
            <path d="m2119.15 522.64-10.24-2.72 9.7-4.26z"/>
        </g>
        <g stroke="#000" class="edge">
            <path fill="none" d="M3105.04 315.47c135.42 9.16 428.11 30.72 470.54 48.53 22.98 9.65 21.21 23.89 43 36 89.55 49.78 118.47 52.21 219 72 235.73 46.41 520.56 53.39 659.5 53.71"/>
            <path d="m4496.94 522.21 10 3.51-10.01 3.49z"/>
        </g>
        <g stroke="#000" class="edge">
            <path fill="none" d="M3024.11 327.88c-7.41 10.26-16.83 23.73-24.53 36.12-12.56 20.19-25.47 43.79-34.89 61.62"/>
            <path d="m2967.89 427.05-7.74 7.24 1.54-10.49z"/>
        </g>
        <g stroke="#000" class="edge">
            <path fill="none" d="M2976.49 320.11c-68.16 10.38-182.59 27.97-280.91 43.89-7.9 1.28-16.15 2.63-24.38 4"/>
            <path d="m2671.96 371.42-10.44-1.81 9.29-5.09z"/>
        </g>
        <g stroke="#000" class="edge">
            <path fill="none" d="M2970.7 317.09C2714.92 340.79 1800.26 426.04 1771.58 436c-11.4 3.96-67.98 41.24-105.35 66.28"/>
            <path d="m1668.23 505.15-10.25 2.67 6.35-8.48z"/>
        </g>
        <g stroke="#000" class="edge">
            <path fill="none" d="M3044.67 328.21c13.74 32.04 37.07 101.41 3.91 143.79-16.24 20.75-76.93 34.52-129.55 42.8"/>
            <path d="m2919.85 518.22-10.41-1.96 9.36-4.96z"/>
        </g>
        <g stroke="#000" class="edge">
            <path fill="none" d="M3011.86 467.43c62.93 12.77 160.28 32.52 223 45.25"/>
            <path d="m3235.18 509.17 9.11 5.42-10.5 1.44z"/>
        </g>
        <g stroke="#000" class="edge">
            <path fill="none" d="M2868.71 461.24c-173.08 13.2-574.65 43.82-750.76 57.25"/>
            <path d="m2118.43 521.96-10.24-2.73 9.71-4.25z"/>
        </g>
        <g stroke="#000" class="edge">
            <path fill="none" d="M3036.32 459.05c74.78 3.51 186.2 8.68 283.26 12.95 444.59 19.58 977.35 41.42 1179.11 49.64"/>
            <path d="m4498.71 518.13 9.85 3.91-10.14 3.09z"/>
        </g>
        <g stroke="red" stroke-width="2" class="edge">
            <path fill="none" d="M2865.45 459.43c-173.32 9.04-579.66 30.29-920.87 48.57-78.66 4.22-168.47 9.12-231.47 12.57"/>
            <path fill="red" d="m1714.86 523.98-10.17-2.95 9.79-4.04z"/>
        </g>
        <g stroke="#000" class="edge">
            <path fill="none" d="M2923.09 471.59c-15.46 9.33-34.96 21.09-51.72 31.21"/>
            <path d="m2873.54 505.58-10.37 2.17 6.75-8.17z"/>
        </g>
        <g stroke="#000" class="edge">
            <path fill="none" d="M3493.09 256.31c12.21 31.02 32.54 97.18 6.49 143.69-31.89 56.94-101.48 91.07-150.48 108.94"/>
            <path d="m3350.39 512.2-10.6.02 8.27-6.62z"/>
        </g>
        <g stroke="#000" class="edge">
            <path fill="none" d="M3392.67 242.92c-280.16 11.84-1097.72 46.6-1100.09 49.08-55.3 57.81 52.65 118.07 2 180-22.02 26.92-108.09 40.49-175.65 47.11"/>
            <path d="m2119.63 522.56-10.29-2.55 9.63-4.42z"/>
        </g>
        <g stroke="#000" class="edge">
            <path fill="none" d="M3579.48 242.49c111.86 5.4 303.98 18.59 466.1 49.51 56.37 10.75 67.51 25.89 124 36 55.05 9.85 463.9-4.93 502 36 32.7 35.13 23.82 66.33 0 108-8.41 14.71-22.67 25.74-37.39 33.82"/>
            <path d="m4635.85 508.9-10.5 1.37 7.36-7.62z"/>
        </g>
        <g stroke="#000" class="edge">
            <path fill="none" d="M3394.73 244.19c-105.8 6.94-285.56 21.54-438.15 47.81-107.77 18.55-230.97 51.38-302.29 71.56"/>
            <path d="m2655.33 366.91-10.57-.63 8.66-6.11z"/>
        </g>
        <g stroke="red" stroke-width="2" class="edge">
            <path fill="none" d="M3392.43 243.06c-210.4 9.34-717.31 32.76-887.85 48.94-16.12 1.53-33.36 3.59-49.72 5.76"/>
            <path fill="red" d="m2457.08 300.99-10.38-2.13 9.44-4.81z"/>
        </g>
        <g stroke="#000" class="edge">
            <path fill="none" d="M3460.26 255.57c-38.98 25.5-113.75 74.43-157.49 103.06"/>
            <path d="m3304.95 361.38-10.28 2.55 6.45-8.41z"/>
        </g>
        <g stroke="#000" class="edge">
            <path fill="none" d="M3393.22 243.4c-81.26 3.76-202.78 9.09-308.64 12.6-41.82 1.39-1476.77 6.06-1506 36-55.38 56.72 1.87 158.43 34.57 206.48"/>
            <path d="m1615.99 496.44 2.84 10.2-8.58-6.2z"/>
        </g>
        <g stroke="#000" class="edge">
            <path fill="none" d="M3475.6 256.35c-19.58 32.58-66.1 103.27-123.02 143.65-127.11 90.18-311.25 115.8-422.31 122.78"/>
            <path d="m2930.79 526.26-10.19-2.91 9.78-4.08z"/>
        </g>
        <g stroke="#000" class="edge">
            <path fill="none" d="M2192.98 459.92c221.74 13.09 823.11 48.58 1030.86 60.85"/>
            <path d="m3223.91 517.26 9.77 4.09-10.19 2.9z"/>
        </g>
        <g stroke="#000" class="edge">
            <path fill="none" d="M2090.94 471.95c-9.46 8.59-21.12 19.19-31.52 28.65"/>
            <path d="m2061.92 503.06-9.75 4.13 5.04-9.31z"/>
        </g>
        <g stroke="#000" class="edge">
            <path fill="none" d="M2195.61 457.7c109.6 3.41 304.85 9.44 471.97 14.3 708.38 20.6 1564.29 43.64 1830.75 50.78"/>
            <path d="m4498.03 519.27 9.9 3.76-10.09 3.24z"/>
        </g>
        <g stroke="#000" class="edge">
            <path fill="none" d="M2043.77 466.21c-12.03 1.98-24.48 3.99-36.19 5.79-104.77 16.13-226.31 32.97-301.94 43.22"/>
            <path d="m1706.24 518.67-10.38-2.13 9.44-4.81z"/>
        </g>
        <g stroke="#000" class="edge">
            <path fill="none" d="M2187.51 462.52c136.29 13.16 416.98 40.26 559.66 54.04"/>
            <path d="m2747.33 513.06 9.62 4.44-10.29 2.53z"/>
        </g>
        <g stroke="#000" class="edge">
            <path fill="none" d="M2625.26 399.18c44.48 23.18 124.99 64.03 156.32 72.82 152.62 42.81 339.42 51.77 440.51 53.22"/>
            <path d="m3221.92 521.72 9.96 3.61-10.04 3.39z"/>
        </g>
        <g stroke="#000" class="edge">
            <path fill="none" d="M2570.41 399.7c-31.08 20.59-87.43 54.98-140.83 72.3-102.18 33.15-225.61 45.59-307.43 50.24"/>
            <path d="m2122.57 525.73-10.17-2.96 9.8-4.03z"/>
        </g>
        <g stroke="#000" class="edge">
            <path fill="none" d="M2640.54 397.62c32.29 10.4 76.43 24.87 115.04 38.38 43.4 15.19 51.87 27.18 97 36 161.98 31.66 1320.72 48.03 1644.91 52.02"/>
            <path d="m4497.2 520.52 9.96 3.62-10.05 3.38z"/>
        </g>
        <g stroke="red" stroke-width="2" class="edge">
            <path fill="none" d="M2655.78 395.03c61.45 12.09 156.16 30.71 221.56 43.57"/>
            <path fill="red" d="m2876.28 434.82 9.14 5.37-10.49 1.5z"/>
        </g>
        <g stroke="#000" class="edge">
            <path fill="none" d="M2514.69 389.38c-40.48 3.22-90.41 7.16-135.11 10.62-211.53 16.36-267.92-5.4-476 36-80.88 16.09-171.21 48.91-224.47 69.88"/>
            <path d="m1680.64 509.04-10.59.44 8-6.94z"/>
        </g>
        <g stroke="#000" class="edge">
            <path fill="none" d="M2612.24 399.85c20.96 19.33 57.6 51.07 93.34 72.15 23.15 13.65 50.48 25.43 74.01 34.39"/>
            <path d="m2780.53 503.01 8.15 6.77-10.59-.21z"/>
        </g>
        <g stroke="#000" class="edge">
            <path fill="none" d="M2398.17 327.68c22.47 19.47 62.04 51.62 100.41 72.32 82.78 44.65 107.17 51.68 199 72 185.7 41.09 410.51 50.53 524.32 52.56"/>
            <path d="m3221.77 521.06 9.94 3.66-10.05 3.34z"/>
        </g>
        <g stroke="#000" class="edge">
            <path fill="none" d="M2349.26 326.97c-13.57 8.91-28.18 21.39-35.68 37.03-6.92 14.43-6.51 21.38 0 36 9.73 21.85 30.27 14.15 40 36 6.51 14.62 10.35 23.8 0 36-29.17 34.38-146.82 46.49-231.23 50.74"/>
            <path d="m2122.6 526.23-10.16-3.02 9.83-3.97z"/>
        </g>
        <g stroke="#000" class="edge">
            <path fill="none" d="M2443.36 320.88c19.59 2.71 41.26 5.38 61.22 7.12 101.8 8.9 824.83-3.68 919 36 21.44 9.03 19.06 22.49 38 36 56.32 40.17 71.28 53.72 138 72 167.97 46.02 691.9 52.35 897.75 53.02"/>
            <path d="m4497.16 521.52 9.99 3.53-10.01 3.47z"/>
        </g>
        <g stroke="#000" class="edge">
            <path fill="none" d="M2443.65 320.67C2520.6 332.51 2645 352.4 2690.58 364c74.67 19.01 158.61 49.46 210.41 69.35"/>
            <path d="m2902.06 430.01 8.06 6.87-10.59-.34z"/>
        </g>
        <g stroke="red" stroke-width="2" class="edge">
            <path fill="none" d="M2423.61 325.33c33.29 10.84 79.23 25.8 115.11 37.48"/>
            <path fill="red" d="m2538.2 358.96 8.42 6.43-10.59.23z"/>
        </g>
        <g stroke="#000" class="edge">
            <path fill="none" d="M2303.9 315.09c-161.66 10.17-533.69 41.78-628.32 120.91-18.6 15.55-29.76 41.04-36.04 60.77"/>
            <path d="m1642.97 497.52-6.15 8.62-.57-10.58z"/>
        </g>
        <g stroke="#000" class="edge">
            <path fill="none" d="M2389.57 328.3c20.52 33.8 70.92 108.4 135.01 143.7 37.32 20.56 144.36 35.75 222.23 44.48"/>
            <path d="m2747.02 512.98 9.56 4.57-10.33 2.38z"/>
        </g>
        <g stroke="#000" class="edge">
            <path fill="none" d="M3271.89 400.41c4.56 23.98 12.82 67.45 18.29 96.17"/>
            <path d="m3293.61 495.92-1.57 10.48-5.3-9.17z"/>
        </g>
        <g stroke="#000" class="edge">
            <path fill="none" d="M3224.66 396.98c-29.98 9.94-70.39 24.13-105.08 39.02-32.51 13.96-36.82 26.88-71 36-88.11 23.5-695.23 43.58-926.66 50.46"/>
            <path d="m2122.14 525.95-10.1-3.2 9.89-3.79z"/>
        </g>
        <g stroke="#000" class="edge">
            <path fill="none" d="M3285.67 399.9c22.83 21.32 65.56 57.01 109.91 72.1 103.41 35.18 848.84 48.44 1102.07 51.96"/>
            <path d="m4497.51 520.46 9.95 3.63-10.05 3.37z"/>
        </g>
        <g stroke="#000" class="edge">
            <path fill="none" d="M3214.64 394.87c-53.61 11.8-136.05 29.95-194.54 42.83"/>
            <path d="m3021.1 441.06-10.51-1.27 9.01-5.57z"/>
        </g>
        <g stroke="#000" class="edge">
            <path fill="none" d="M3194.53 385.02c-256.11 7.12-1095.27 31.7-1214.95 50.98-57.5 9.26-69.67 21.21-126 36-53.19 13.97-113.96 28.44-158.3 38.72"/>
            <path d="m1696.1 514.12-10.54-1.15 8.96-5.67z"/>
        </g>
        <g stroke="#000" class="edge">
            <path fill="none" d="M3236 398.43c-20.16 9.96-46.32 23.61-68.42 37.57-22.55 14.24-23.58 25.28-48 36-61.24 26.88-135.7 40.14-193.15 46.67"/>
            <path d="m2927 522.13-10.32-2.4 9.57-4.56z"/>
        </g>
        <g stroke="#000" class="edge">
            <path fill="none" d="M3039.77 252.64c25.4 8.3 54.72 20.93 76.81 39.36 43.55 36.34 31.73 64.39 68 108 15.08 18.14 22.87 18.79 39 36 18.98 20.26 38.68 44.9 52.66 63.11"/>
            <path d="m3278.81 496.71 3.27 10.08-8.84-5.84z"/>
        </g>
        <g stroke="#000" class="edge">
            <path fill="none" d="M2896.05 242.82c-187.99 8.46-611.95 29.61-636.47 49.18-38.29 30.56-41.93 63.25-22 108 9.73 21.85 30.27 14.15 40 36 6.51 14.62 10.05 23.55 0 36-20.08 24.88-97.81 38.66-160.41 45.89"/>
            <path d="m2117.91 521.33-10.33-2.38 9.55-4.58z"/>
        </g>
        <g stroke="#000" class="edge">
            <path fill="none" d="M3073.23 242.68c245.61 10.31 918.22 39.37 939.35 49.32 19.64 9.25 13.48 26.51 33 36 188 91.45 285.73-64.59 469 36 35.07 19.25 38.63 35.07 54 72 7.94 19.09 11.15 42.25 12.39 60.16"/>
            <path d="m4584.46 495.93-2.99 10.16-4-9.81z"/>
        </g>
        <g stroke="#000" class="edge">
            <path fill="none" d="M2918.93 250.87c-68.57 12.41-175.92 31.83-247.43 44.76"/>
            <path d="m2672.29 299.04-10.46-1.66 9.22-5.23z"/>
        </g>
        <g stroke="#000" class="edge">
            <path fill="none" d="M2997.43 256.3c5.92 7.97 13.08 17.6 19.64 26.44"/>
            <path d="m3019.82 280.57 3.15 10.11-8.77-5.94z"/>
        </g>
        <g stroke="#000" class="edge">
            <path fill="none" d="M2972.88 256.32c-6.07 9.98-12.91 23.01-16.3 35.68-12.06 45.04-10.96 99.69-8.72 132.34"/>
            <path d="m2951.34 423.96-2.71 10.24-4.27-9.7z"/>
        </g>
        <g stroke="#000" class="edge">
            <path fill="none" d="M2893.91 240.79c-311.93 6.37-1323.09 28.71-1348.33 51.21-60.17 53.63-64.75 111.68-22 180 10.78 17.23 28.94 29 47.38 36.98"/>
            <path d="m1572.07 505.66 8.01 6.93-10.59-.42z"/>
        </g>
        <g stroke="#000" class="edge">
            <path fill="none" d="M2969.54 256.05c-27.81 32.53-87.16 106.74-116.96 179.95-7.87 19.34-12.41 42.49-14.97 60.33"/>
            <path d="m2841.09 496.75-4.75 9.47-2.2-10.37z"/>
        </g>
        <g stroke="#000" class="edge">
            <path fill="none" d="M731.45 322.65c-78.86 9.9-193.32 25.07-292.87 41.35-6.37 1.04-12.97 2.18-19.59 3.37"/>
            <path d="m419.86 370.77-10.46-1.64 9.2-5.25z"/>
        </g>
        <g stroke="#000" class="edge">
            <path fill="none" d="M858.06 327.99c16.65 9.77 37.32 22.72 54.52 36.01 18.41 14.23 18.93 22.68 38 36 58.99 41.2 75.44 53.59 145 72 10.21 2.7 618.73 35.8 849.53 48.28"/>
            <path d="m1945.16 516.78 9.8 4.03-10.18 2.96z"/>
        </g>
        <g stroke="#000" class="edge">
            <path fill="none" d="M819.42 328.3c-3.59 7.63-7.91 16.78-11.93 25.3"/>
            <path d="m810.72 354.97-7.43 7.56 1.1-10.54z"/>
        </g>
        <g class="node" transform="translate(4 544)">
            <ellipse cx="1016.58" cy="-162" fill="none" stroke="#000" rx="60.56" ry="18"/>
            <text x="1016.58" y="-156.95" font-family="Times,serif" font-size="14" text-anchor="middle">:library:room</text>
        </g>
        <g stroke="#000" class="edge">
            <path fill="none" d="M872.34 327.24c30.09 10.91 69.69 25.27 100.4 36.41"/>
            <path d="m973.57 360.23 8.2 6.69-10.59-.11z"/>
        </g>
        <g stroke="#000" class="edge">
            <path fill="none" d="M6167.25 327.15c38.88 10.88 90.16 25.24 129.98 36.39"/>
            <path d="m6298 360.12 8.69 6.07-10.58.67z"/>
        </g>
        <g stroke="#000" class="edge">
            <path fill="none" d="M5983.44 321.21c-326.57 26.44-1196.08 96.83-1511.5 122.37"/>
            <path d="m4472.26 447.07-10.25-2.69 9.69-4.29z"/>
        </g>
        <g stroke="#000" class="edge">
            <path fill="none" d="M1041.94 321.27c-23.99 2.36-49.59 4.75-73.36 6.73-235.28 19.61-295.84 5.8-530 36-6.76.87-13.78 1.93-20.77 3.1"/>
            <path d="m418.81 370.48-10.45-1.74 9.25-5.16z"/>
        </g>
        <g stroke="#000" class="edge">
            <path fill="none" d="M1141.96 328.31c3.79 34.52 17.72 111.37 67.62 143.69 15.28 9.9 526.35 37.55 735.3 48.48"/>
            <path d="m1944.79 516.97 9.8 4.01-10.17 2.98z"/>
        </g>
        <g stroke="#000" class="edge">
            <path fill="none" d="m1181.61 327.41 83.5 33.4"/>
            <path d="m1266.32 357.53 7.99 6.96-10.59-.46z"/>
        </g>
        <g stroke="#000" class="edge">
            <path fill="none" d="M1111.53 327.95c-16.35 9.53-36.93 21.54-54.37 31.71"/>
            <path d="m1059.02 362.63-10.4 2.02 6.87-8.07z"/>
        </g>
        <g stroke="#000" class="edge">
            <path fill="none" d="M6450.98 328.12c-16.03 9.27-36 20.83-53.19 30.78"/>
            <path d="m6399.76 361.8-10.41 1.98 6.9-8.04z"/>
        </g>
        <g stroke="#000" class="edge">
            <path fill="none" d="M6481.79 328.43c.39 19.87-2.14 52.13-20.21 71.57-77.84 83.76-134.08 54-247 72-302.86 48.27-1259.19 52.81-1548.96 53.05"/>
            <path d="m4665.88 528.55-10.01-3.49 10-3.51z"/>
        </g>
        <g stroke="#000" class="edge">
            <path fill="none" d="M6362.28 322.21c-28.07 2.29-57.93 4.41-85.7 5.79-997.12 49.48-1248.38-2.05-2246 36-53.65 2.05-112.99 5.45-163.33 8.68"/>
            <path d="m3867.7 376.16-10.2-2.85 9.75-4.14z"/>
        </g>
        <g stroke="#000" class="edge">
            <path fill="none" d="M499.35 327.24c-29.28 10.51-67.51 24.23-98.01 35.18"/>
            <path d="m402.92 365.57-10.59.08 8.23-6.67z"/>
        </g>
        <g stroke="#000" class="edge">
            <path fill="none" d="M448.46 322.82c-77.54 10.53-175.68 26.49-187.88 41.18-10.22 12.31-10.75 24.15 0 36 108.72 119.8 1290.44 99.62 1452 108 78.62 4.08 168.09 8.84 232.4 12.29"/>
            <path d="m1944.98 516.78 9.8 4.03-10.18 2.96z"/>
        </g>
        <g stroke="#000" class="edge">
            <path fill="none" d="M547.79 328.3c1.37 7.38 3.01 16.18 4.54 24.45"/>
            <path d="m555.74 351.94-1.61 10.47-5.27-9.2z"/>
        </g>
        <g stroke="#000" class="edge">
            <path fill="none" d="M634.61 323.63c74.54 10.54 183.19 26.09 277.97 40.37 14.43 2.18 29.94 4.58 44.57 6.87"/>
            <path d="m957.31 367.36 9.34 5.01-10.43 1.9z"/>
        </g>
        <g stroke="#000" class="edge">
            <path fill="none" d="M4397.08 173.08c168.84 13.59 563.29 45.4 577.5 46.92 16.21 1.73 33.54 3.85 50.04 6"/>
            <path d="m5024.94 222.51 9.45 4.78-10.37 2.16z"/>
        </g>
        <g stroke="#000" class="edge">
            <path fill="none" d="M4319.7 184.42c-1.13 20.5.6 53.97 20.88 71.58 24.23 21.04 447.57 40.57 652.54 48.84"/>
            <path d="m4993.14 301.34 9.85 3.89-10.13 3.1z"/>
        </g>
        <g stroke="#000" class="edge">
            <path fill="none" d="M4396.6 173.48c40.54 3.39 91.48 7.45 136.98 10.52 292.66 19.72 366.53 13.57 659 36 27.87 2.14 58.24 4.97 85.59 7.71"/>
            <path d="m5278.19 224.19 9.59 4.49-10.3 2.48z"/>
        </g>
        <g stroke="#000" class="edge">
            <path fill="none" d="M4314.7 184.41c-6.48 19.57-13.03 51.24 2.88 71.59 35.42 45.28 449.61 96.83 506 108 5.59 1.11 11.41 2.33 17.22 3.59"/>
            <path d="m4841.4 364.14 9 5.58-10.52 1.25z"/>
        </g>
        <g stroke="#000" class="edge">
            <path fill="none" d="M4310.39 183.86c-5.98 10.04-12.73 23.29-15.81 36.14-11.69 48.68-6.89 76.47 32 108 59.65 48.36 115.18-18.79 169 36 33.92 34.53 47.47 73.04 14 108-39.56 41.32-883.69 50.67-1140.52 52.56"/>
            <path d="m3369.18 528.06-10.02-3.43 9.97-3.57z"/>
        </g>
        <g stroke="#000" class="edge">
            <path fill="none" d="M4396.09 173.73c40.62 3.48 91.78 7.55 137.49 10.27 411.58 24.48 516.21.61 927 36 16.73 1.44 34.63 3.51 51.56 5.71"/>
            <path d="m5512.15 222.18 9.45 4.79-10.37 2.15z"/>
        </g>
        <g stroke="#000" class="edge">
            <path fill="none" d="M4264.66 179.24c-10.93 1.93-22.32 3.65-33.08 4.76-411.22 42.51-1450.33-19.5-1860 36-64.09 8.68-78.1 20.94-141 36-71.31 17.07-97.81-1.2-161 36-73.79 43.44-97.57 63.96-128 144-5.69 14.96-7.97 22.13 0 36 8.36 14.55 22.43 25.48 37.04 33.52"/>
            <path d="m1980.05 502.32 7.35 7.63-10.5-1.38z"/>
        </g>
        <g stroke="#000" class="edge">
            <path fill="none" d="M4311.72 184.05c-9.39 18.67-20.41 49.02-8.14 71.95 27.22 50.86 53.65 52.65 108 72 78.66 28 304.65-10.49 374 36 30.05 20.15 29.3 36.88 38 72 3.85 15.53 10.03 23.53 0 36-20.21 25.12-99.75 38.99-162.19 46.18"/>
            <path d="m4661.78 521.66-10.33-2.38 9.56-4.58z"/>
        </g>
        <g stroke="#000" class="edge">
            <path fill="none" d="M4349.01 183.41c15.58 9.33 35.31 21.13 52.28 31.28"/>
            <path d="m4402.83 211.53 6.79 8.14-10.38-2.13z"/>
        </g>
        <g stroke="#000" class="edge">
            <path fill="none" d="M4264.65 179.18c-10.93 1.93-22.32 3.67-33.07 4.82-297.74 31.89-1051.56-12.8-1347 36-86.13 14.23-182.29 47.88-238.57 69.49"/>
            <path d="m2647.3 292.74-10.59.35 8.06-6.87z"/>
        </g>
        <g stroke="#000" class="edge">
            <path fill="none" d="M4262.62 178.79c-10.32 1.88-20.98 3.7-31.04 5.21-418.19 62.89-923.47 104.57-1115.64 119.19"/>
            <path d="m3116.31 306.67-10.24-2.74 9.71-4.24z"/>
        </g>
        <g stroke="#000" class="edge">
            <path fill="none" d="M5317.74 179.51c-42.92 11.47-106.75 28.53-153.75 41.08"/>
            <path d="m5165.06 223.93-10.56-.8 8.76-5.96z"/>
        </g>
        <g stroke="#000" class="edge">
            <path fill="none" d="M5432.75 168.68c82.22 3.64 213.26 15.11 243.83 51.32 10.32 12.22 10.78 24.18 0 36-30.52 33.47-304.91 46.1-463 50.64"/>
            <path d="m5214.01 310.13-10.1-3.22 9.9-3.78z"/>
        </g>
        <g stroke="#000" class="edge">
            <path fill="none" d="M5364.58 184.3v24.16"/>
            <path d="m5368.08 208.38-3.5 10-3.5-10z"/>
        </g>
        <g stroke="#000" class="edge">
            <path fill="none" d="M5433.27 167.97c86.67 2.84 228.42 13.44 261.31 52.03 10.38 12.18 10.4 23.84 0 36-12 14.02-544.82 89.73-732.45 116.01"/>
            <path d="m4962.69 375.47-10.39-2.08 9.42-4.86z"/>
        </g>
        <g stroke="#000" class="edge">
            <path fill="none" d="M5429.22 172.38c131.61 12.75 418.36 50.42 418.36 136.62v74c0 63.81-2061.66 127.63-2478.9 139.89"/>
            <path d="m3369.01 526.38-10.1-3.2 9.89-3.79z"/>
        </g>
        <g stroke="#000" class="edge">
            <path fill="none" d="M5407.58 180.5c35.4 11.11 85.84 26.94 124.32 39.02"/>
            <path d="m5532.48 216.04 8.49 6.33-10.58.34z"/>
        </g>
        <g stroke="#000" class="edge">
            <path fill="none" d="M5297.4 170.34c-80.15 3.86-218.23 10.14-336.82 13.66-922.4 27.4-1155.04-22.25-2076 36-18.35 1.16-645.35 58.66-658 72-44.04 46.46-3.89 79.99-3 144 .22 16 9.68 23.26 0 36-14.27 18.77-67.98 32.63-114.82 41.46"/>
            <path d="m2109.6 516.86-10.46-1.65 9.21-5.24z"/>
        </g>
        <g stroke="#000" class="edge">
            <path fill="none" d="M5431.79 169.99c128.18 6.29 397.75 22.64 429.79 50.01 31.15 26.61 24 48.03 24 89v74c0 40.97 8 63.42-24 89-46.72 37.35-918.95 49.35-1196.17 52.23"/>
            <path d="m4665.78 527.73-10.03-3.4 9.96-3.6z"/>
        </g>
        <g stroke="#000" class="edge">
            <path fill="none" d="M5299.08 171.82c-125.08 9.22-406.58 30.04-643.5 48.18-40.64 3.11-85.55 6.62-123.92 9.64"/>
            <path d="m4532.25 233.1-10.25-2.71 9.7-4.27z"/>
        </g>
        <g stroke="#000" class="edge">
            <path fill="none" d="M5297.27 170.28c-116.62 6.19-363.64 21.58-570.69 49.72-85.16 11.57-104.59 26.46-190 36-278.12 31.08-1145.48 47.32-1417.52 51.74"/>
            <path d="m3119.27 311.23-10.05-3.33 9.94-3.66z"/>
        </g>
        <g stroke="#000" class="edge">
            <path fill="none" d="M4704.84 176.51c75.86 10.04 197.77 26.71 302.74 43.49 7.39 1.18 15.1 2.47 22.78 3.79"/>
            <path d="m5030.82 220.32 9.26 5.16-10.46 1.73z"/>
        </g>
        <g stroke="#000" class="edge">
            <path fill="none" d="M4706.16 176.13c93.59 11.82 244.78 32.28 268.42 43.87 20.89 10.24 19.41 22.01 38 36 14.97 11.27 32.53 22.08 48.14 30.96"/>
            <path d="m5062.3 283.84 7.02 7.93-10.43-1.82z"/>
        </g>
        <g stroke="#000" class="edge">
            <path fill="none" d="M4704.37 176.58c21.31 2.62 44.67 5.32 66.21 7.42 218.65 21.34 274.88 9.74 493 36 8.56 1.03 17.51 2.28 26.39 3.63"/>
            <path d="m5290.3 220.14 9.34 5.01-10.42 1.91z"/>
        </g>
        <g stroke="#000" class="edge">
            <path fill="none" d="M4639.65 184.2c16.14 32.64 55.52 103.87 108.93 143.8 15.59 11.66 59.64 26.67 95.83 37.73"/>
            <path d="m4845.34 362.36 8.56 6.24-10.59.46z"/>
        </g>
        <g stroke="#000" class="edge">
            <path fill="none" d="M4632.13 184.23c.67 53.29-5.36 216.19-99.55 287.77-46.48 35.32-905.09 48.86-1163.82 52.15"/>
            <path d="m3369.18 527.65-10.04-3.38 9.95-3.62z"/>
        </g>
        <g stroke="#000" class="edge">
            <path fill="none" d="M4703.62 176.78c21.51 2.66 45.16 5.32 66.96 7.22 305.92 26.66 384.23 7.61 690 36 16.47 1.53 34.08 3.6 50.79 5.78"/>
            <path d="m5511.81 222.31 9.45 4.78-10.37 2.16z"/>
        </g>
        <g stroke="#000" class="edge">
            <path fill="none" d="M4552.07 174.32c-41.53 3.53-93.21 7.47-139.49 9.68-223.45 10.66-1794.18-10.47-2013 36-40.13 8.52-45.69 24.26-85 36-85.7 25.6-122.34-11.71-198 36-66.78 42.11-79.71 68.88-104 144-6.51 20.12-.78 43.46 6.18 61.19"/>
            <path d="m2021.94 495.73.74 10.57-7.17-7.8z"/>
        </g>
        <g stroke="#000" class="edge">
            <path fill="none" d="M4704.74 176.46c21.22 2.6 44.44 5.32 65.84 7.54 93.62 9.71 341.43-12.64 422 36 40.21 24.28 57 42.03 57 89v74c0 117.97-403.67 138.34-583.41 141.56"/>
            <path d="m4666.23 528.06-10.06-3.34 9.94-3.66z"/>
        </g>
        <g stroke="#000" class="edge">
            <path fill="none" d="M4589.7 182.19c-28.86 10.47-67.43 24.46-98.39 35.68"/>
            <path d="m4492.73 221.08-10.6.12 8.21-6.7z"/>
        </g>
        <g stroke="#000" class="edge">
            <path fill="none" d="M4552.07 174.31c-41.53 3.53-93.21 7.47-139.49 9.69-109.06 5.23-1861.74.53-1965 36-25.22 8.66-23.36 25.81-48 36-105.36 43.57-167.35-38.11-254 36-37.94 32.45-40.91 95.34-38.93 132.18"/>
            <path d="m2110.13 423.87-2.78 10.22-4.2-9.73z"/>
        </g>
        <g stroke="#000" class="edge">
            <path fill="none" d="M4551.28 174.06c-41.4 3.43-92.72 7.35-138.7 9.94-458.22 25.77-573.4 18.16-1032 36-101.14 3.93-216.78 8.96-296.87 12.52"/>
            <path d="m3084.31 236-10.15-3.05 9.84-3.94z"/>
        </g>
        <g class="node" transform="translate(4 544)">
            <ellipse cx="4846.58" cy="-306" fill="none" stroke="#000" rx="115.33" ry="18"/>
            <text x="4846.58" y="-300.95" font-family="Times,serif" font-size="14" text-anchor="middle">:app:core:calendar-compose</text>
        </g>
        <g stroke="#000" class="edge">
            <path fill="none" d="M4677.76 181.76c32.86 10.51 77.33 24.72 112.92 36.1"/>
            <path d="m4791.52 214.45 8.46 6.38-10.59.29z"/>
        </g>
        <g stroke="#000" class="edge">
            <path fill="none" d="M4199.8 179.1c10.18 1.91 20.77 3.66 30.78 4.9 328.56 40.58 414.29 6.18 744 36 16.42 1.48 33.96 3.52 50.63 5.66"/>
            <path d="m5025.63 222.19 9.46 4.78-10.37 2.16z"/>
        </g>
        <g stroke="#000" class="edge">
            <path fill="none" d="M4169.6 183.52c32.08 21.07 91.47 56.69 147.98 72.48 123.38 34.47 487.39 46.88 673.17 51.05"/>
            <path d="m4990.75 303.55 9.92 3.72-10.07 3.28z"/>
        </g>
        <g stroke="#000" class="edge">
            <path fill="none" d="M4199.79 179.19c10.18 1.9 20.78 3.63 30.79 4.81 424.91 50.11 535.13 6.94 962 36 28.02 1.91 58.55 4.69 86 7.46"/>
            <path d="m5278.64 223.95 9.59 4.5-10.3 2.46z"/>
        </g>
        <g stroke="#000" class="edge">
            <path fill="none" d="M4157.44 183.94c14.86 20.03 42.19 53.04 73.14 72.06 47.08 28.93 68.32 13.98 119 36 29.22 12.7 31.66 26.25 62 36 158.98 51.1 208.28 15.46 374 36 16.1 1.99 33.44 4.47 49.57 6.91"/>
            <path d="m4835.23 367.38 9.36 4.97-10.42 1.95z"/>
        </g>
        <g stroke="#000" class="edge">
            <path fill="none" d="M4145.26 184.21c.28 18.55 2.6 48.53 13.32 71.79 17.8 38.62 25.66 51.65 63 72 96.64 52.66 162.47-36.81 245 36 36.61 32.29 53.74 72.72 20 108-38.73 40.49-864.12 50.4-1117.62 52.5"/>
            <path d="m3369.23 527.99-10.03-3.41 9.97-3.59z"/>
        </g>
        <g stroke="#000" class="edge">
            <path fill="none" d="M4199.32 179.17c10.33 1.93 21.09 3.67 31.26 4.83 543.39 61.85 684.9-8.34 1230 36 16.73 1.36 34.64 3.4 51.57 5.59"/>
            <path d="m5512.16 222.06 9.45 4.79-10.37 2.15z"/>
        </g>
        <g stroke="#000" class="edge">
            <path fill="none" d="M4070.61 170.46c-82.74 3.74-219.87 9.67-338.03 13.54-163.85 5.37-1315.06.01-1475 36-38.44 8.65-43.74 23.2-81 36-62.8 21.57-84.62 8.38-145 36-50.46 23.08-178.47 94.73-204 144-27.27 52.62 50.99 74.13 118.55 82.92"/>
            <path d="m1946.28 515.42 9.51 4.68-10.35 2.27z"/>
        </g>
        <g stroke="#000" class="edge">
            <path fill="none" d="M4149.43 184.37c5.1 19.52 15.8 51.16 35.15 71.63 48.61 51.42 73.94 52.63 142 72 90.31 25.7 342.73-15.87 421 36 21.21 14.05 53.56 87.87 38 108-15.98 20.66-77.59 34.76-128.96 43.19"/>
            <path d="m4657.42 518.61-10.43-1.89 9.33-5.02z"/>
        </g>
        <g stroke="#000" class="edge">
            <path fill="none" d="M4197.96 179.51c48.49 11.59 120.82 28.87 173.52 41.46"/>
            <path d="m4372.02 217.5 8.91 5.73-10.53 1.08z"/>
        </g>
        <g stroke="#000" class="edge">
            <path fill="none" d="M4082.12 176.47C3886.66 206.04 3296.01 298.6 3113.58 364c-47.04 16.86-96.86 45.92-128.85 66.23"/>
            <path d="m2986.97 432.95-10.31 2.47 6.52-8.36z"/>
        </g>
        <g stroke="#000" class="edge">
            <path fill="none" d="M4076.51 174.33c-119.09 12.63-363.15 38.51-497.35 52.75"/>
            <path d="m3579.52 230.56-10.31-2.43 9.58-4.54z"/>
        </g>
        <g stroke="#000" class="edge">
            <path fill="none" d="M4913.83 181.25c37.73 11.14 90.33 26.68 130.43 38.52"/>
            <path d="m5045.16 216.39 8.6 6.19-10.58.52z"/>
        </g>
        <g stroke="#000" class="edge">
            <path fill="none" d="M4951.27 168.75c86.29 3.79 210.89 15.5 241.31 51.25 10.37 12.19 7.94 22.11 0 36-7.89 13.81-20.94 24.38-34.69 32.3"/>
            <path d="m5159.64 291.34-10.48 1.57 7.21-7.76z"/>
        </g>
        <g stroke="#000" class="edge">
            <path fill="none" d="M4938.31 175.92c79.88 9.98 211.88 26.99 325.27 44.08 8.04 1.21 16.43 2.53 24.78 3.88"/>
            <path d="m5288.91 220.43 9.3 5.07-10.43 1.84z"/>
        </g>
        <g stroke="#000" class="edge">
            <path fill="none" d="M4795.43 176.73c-26.07 7.4-53.1 20.41-68.85 43.27-9.08 13.18-7.24 21.73 0 36 26.11 51.43 84.42 86.76 125.66 106.42"/>
            <path d="m4853.61 359.19 7.61 7.37-10.54-1.01z"/>
        </g>
        <g stroke="#000" class="edge">
            <path fill="none" d="M4951.33 168.37c156.52 3.41 475.58 14.83 509.25 51.63 10.8 11.8 9.6 23.2 0 36-137.23 182.94-271.35 91.77-494 144-176.71 41.46-221.58 52.17-402 72-452.37 49.73-1000.14 53.72-1195.46 53.4"/>
            <path d="m3369.37 528.9-9.99-3.52 10.01-3.48z"/>
        </g>
        <g stroke="#000" class="edge">
            <path fill="none" d="M4948.14 171.47c120.32 7.08 350.74 22.77 545.44 48.53 7.77 1.03 15.87 2.25 23.91 3.57"/>
            <path d="m5518.03 220.11 9.27 5.12-10.44 1.79z"/>
        </g>
        <g stroke="#000" class="edge">
            <path fill="none" d="M4796.53 177.1c-21.41 2.73-45.11 5.36-66.95 6.9-244.54 17.23-1966.06-14.23-2206 36-40.56 8.49-46.05 25-86 36-109.93 30.26-167.35-38.11-254 36-37.23 31.84-43.22 63.85-22 108 11.09 23.08 33.9 12.92 45 36 6.93 14.42 9.52 23.14 0 36-20.1 27.13-53.76 40.84-86.14 47.61"/>
            <path d="m2121.48 522.98-10.47-1.6 9.19-5.28z"/>
        </g>
        <g stroke="#000" class="edge">
            <path fill="none" d="M4949.02 170.94c200.37 9.65 694.59 34.77 727.56 49.06 53.08 23.01 95 31.14 95 89v74c0 111.53-834.83 135.85-1106.02 140.81"/>
            <path d="m4665.8 527.3-10.06-3.32 9.94-3.68z"/>
        </g>
        <g stroke="#000" class="edge">
            <path fill="none" d="M4799.33 177.86c-76.18 12.49-201.13 32.97-282.15 46.26"/>
            <path d="m4517.97 227.53-10.43-1.83 9.3-5.08z"/>
        </g>
        <g stroke="#000" class="edge">
            <path fill="none" d="M4822.05 181.93c-62.38 20.67-181.18 57.34-285.47 74.07-292.69 46.96-370.5 12.52-666 36-305.6 24.28-387.79.91-686 72-1.18.28-114.42 43.42-182.92 69.53"/>
            <path d="m3003.08 436.73-10.59.29 8.1-6.83z"/>
        </g>
        <g stroke="#000" class="edge">
            <path fill="none" d="M4795.81 176.83c-21.23 2.69-44.65 5.36-66.23 7.17-419.82 35.12-921.4 47.48-1136.94 51.39"/>
            <path d="m3592.92 238.88-10.06-3.32 9.93-3.68z"/>
        </g>
        <g class="node" transform="translate(4 544)">
            <ellipse cx="6095.58" cy="-90" fill="none" stroke="#000" rx="106.11" ry="18"/>
            <text x="6095.58" y="-84.95" font-family="Times,serif" font-size="14" text-anchor="middle">:library:firebase-common</text>
        </g>
        <g stroke="#000" class="edge">
            <path fill="none" d="M6099.58 400.3v24.16"/>
            <path d="m6103.08 424.38-3.5 10-3.5-10z"/>
        </g>
        <g stroke="#000" class="edge">
            <path fill="none" d="M1328.9 400.23c16.65 20.31 47.07 53.6 80.68 71.77 45.18 24.43 101.48 37.7 146.21 44.85"/>
            <path d="m1556.04 513.35 9.36 4.96-10.41 1.96z"/>
        </g>
        <g stroke="#000" class="edge">
            <path fill="none" d="M599.83 399.05c56.62 20.73 160.65 56.15 252.75 72.95 250.91 45.77 553.73 52.9 697.07 53.46"/>
            <path d="m1549.43 521.96 9.99 3.53-10.01 3.47z"/>
        </g>
        <g stroke="#000" class="edge">
            <path fill="none" d="M811.48 400.07c22.15 21.14 63.27 56.29 106.1 71.93 114.03 41.65 469.43 50.6 632.15 52.5"/>
            <path d="m1549.63 521 9.96 3.61-10.04 3.39z"/>
        </g>
        <g stroke="#000" class="edge">
            <path fill="none" d="M1076.89 389.03c36.39 3.69 84.79 8.22 127.69 10.97 444.71 28.51 556.96 13.31 1002 36 242.43 12.36 302.52 24.48 545 36 672.98 31.96 1486.16 47.33 1745.96 51.67"/>
            <path d="m4497.3 520.17 9.94 3.66-10.06 3.34z"/>
        </g>
        <g stroke="#000" class="edge">
            <path fill="none" d="M4905.57 254.28c39.27 10.9 92.2 25.6 133.3 37.02"/>
            <path d="m5039.71 287.9 8.69 6.05-10.57.7z"/>
        </g>
        <g stroke="#000" class="edge">
            <path fill="none" d="M4856.34 256.41c7.97 24.09 22.45 67.84 31.96 96.56"/>
            <path d="m4891.62 351.86-.18 10.59-6.46-8.39z"/>
        </g>
        <g stroke="#000" class="edge">
            <path fill="none" d="M4878.55 255.81c43.13 28.2 117.9 87.5 88.03 144.19-26.37 50.06-52.75 50.27-105 72-64.24 26.71-142.39 40.07-199.79 46.69"/>
            <path d="m4662.42 522.14-10.32-2.39 9.56-4.57z"/>
        </g>
    </g>
</svg>
