<svg xmlns="http://www.w3.org/2000/svg" width="500pt" height="116pt" viewBox="0 0 499.62 116">
    <g class="graph">
        <path fill="#fff" d="M0 116V0h499.62v116z"/>
        <g class="node" transform="translate(4 112)">
            <ellipse cx="264.52" cy="-90" fill="none" stroke="#000" rx="80.52" ry="18"/>
            <text x="264.52" y="-84.95" font-family="Times,serif" font-size="14" text-anchor="middle">:server:domain:tag</text>
        </g>
        <g class="node" transform="translate(4 112)">
            <ellipse cx="80.52" cy="-18" fill="none" stroke="#000" rx="80.52" ry="18"/>
            <text x="80.52" y="-12.95" font-family="Times,serif" font-size="14" text-anchor="middle">:server:core:model</text>
        </g>
        <g stroke="red" stroke-width="2" class="edge">
            <path fill="none" d="M229.05 38.02c-27.55 10.48-64.56 24.56-94.23 35.85"/>
            <path fill="red" d="m137.67 76.53-10.59.28 8.1-6.83z"/>
        </g>
        <g class="node" transform="translate(4 112)">
            <ellipse cx="264.52" cy="-18" fill="none" stroke="#000" rx="85.13" ry="18"/>
            <text x="264.52" y="-12.95" font-family="Times,serif" font-size="14" text-anchor="middle">:common:exception</text>
        </g>
        <g stroke="#000" class="edge">
            <path fill="none" d="M268.52 40.3v24.16"/>
            <path d="m272.02 64.38-3.5 10-3.5-10z"/>
        </g>
        <g class="node" transform="translate(4 112)">
            <ellipse cx="429.52" cy="-18" fill="none" stroke="#000" rx="62.1" ry="18"/>
            <text x="429.52" y="-12.95" font-family="Times,serif" font-size="14" text-anchor="middle">:library:kotlin</text>
        </g>
        <g stroke="#000" class="edge">
            <path fill="none" d="M304.73 38.36c24.77 10.51 57.76 24.5 84.15 35.7"/>
            <path d="m390.14 70.79 7.84 7.13-10.57-.68z"/>
        </g>
    </g>
</svg>
