<svg xmlns="http://www.w3.org/2000/svg" width="5219pt" height="404pt" viewBox="0 0 5218.68 404">
    <g class="graph">
        <path fill="#fff" d="M0 404V0h5218.68v404z"/>
        <g class="node" transform="translate(4 400)">
            <ellipse cx="2649.58" cy="-378" fill="none" stroke="#000" rx="74.89" ry="18"/>
            <text x="2649.58" y="-372.95" font-family="Times,serif" font-size="14" text-anchor="middle">:app:platform:ios</text>
        </g>
        <g class="node" transform="translate(4 400)">
            <ellipse cx="2310.58" cy="-306" fill="none" stroke="#000" rx="97.41" ry="18"/>
            <text x="2310.58" y="-300.95" font-family="Times,serif" font-size="14" text-anchor="middle">:app:platform:common</text>
        </g>
        <g stroke="red" stroke-width="2" class="edge">
            <path fill="none" d="M2597.98 34.48c-57.06 11.78-146.17 30.18-209.21 43.2"/>
            <path fill="red" d="m2391.17 80.76-10.5-1.41 9.09-5.45z"/>
        </g>
        <g class="node" transform="translate(4 400)">
            <ellipse cx="883.58" cy="-234" fill="none" stroke="#000" rx="86.15" ry="18"/>
            <text x="883.58" y="-228.95" font-family="Times,serif" font-size="14" text-anchor="middle">:app:core:coroutines</text>
        </g>
        <g stroke="#000" class="edge">
            <path fill="none" d="M2580.26 26.05C2346.92 36.28 1600.82 73.04 987.58 148c-8.33 1.02-17.02 2.25-25.64 3.57"/>
            <path d="m962.58 155.01-10.42-1.89 9.33-5.02z"/>
        </g>
        <g class="node" transform="translate(4 400)">
            <ellipse cx="2969.58" cy="-162" fill="none" stroke="#000" rx="124.54" ry="18"/>
            <text x="2969.58" y="-156.95" font-family="Times,serif" font-size="14" text-anchor="middle">:app:core:diary-database-room</text>
        </g>
        <g stroke="#000" class="edge">
            <path fill="none" d="M2678.16 39.44c56.38 37.7 195.15 130.51 260.42 174.16"/>
            <path d="m2940.41 210.6 6.36 8.47-10.26-2.65z"/>
        </g>
        <g class="node" transform="translate(4 400)">
            <ellipse cx="817.58" cy="-162" fill="none" stroke="#000" rx="95.88" ry="18"/>
            <text x="817.58" y="-156.95" font-family="Times,serif" font-size="14" text-anchor="middle">:app:core:diary-service</text>
        </g>
        <g stroke="#000" class="edge">
            <path fill="none" d="M2578.71 23.72C2378.6 26.16 1814.77 36.29 1347.58 76c-247.84 21.06-390.82-114.85-555 72-15.42 17.55-4.38 43.44 8.26 62.78"/>
            <path d="m803.52 208.51 2.88 10.2-8.61-6.18z"/>
        </g>
        <g class="node" transform="translate(4 400)">
            <ellipse cx="3270.58" cy="-162" fill="none" stroke="#000" rx="158.32" ry="18"/>
            <text x="3270.58" y="-156.95" font-family="Times,serif" font-size="14" text-anchor="middle">:app:core:account-preferences-datastore</text>
        </g>
        <g stroke="#000" class="edge">
            <path fill="none" d="M2695.29 37.37c107.83 37.16 396.1 136.5 520.64 179.42"/>
            <path d="m3217.01 213.46 8.31 6.57-10.59.05z"/>
        </g>
        <g class="node" transform="translate(4 400)">
            <ellipse cx="3717.58" cy="-162" fill="none" stroke="#000" rx="157.3" ry="18"/>
            <text x="3717.58" y="-156.95" font-family="Times,serif" font-size="14" text-anchor="middle">:app:core:holiday-preferences-datastore</text>
        </g>
        <g stroke="#000" class="edge">
            <path fill="none" d="M2709.87 34.28c175.51 35.17 713.62 142.99 925.09 185.36"/>
            <path d="m3635.39 216.16 9.12 5.4-10.49 1.46z"/>
        </g>
        <g class="node" transform="translate(4 400)">
            <ellipse cx="2693.58" cy="-162" fill="none" stroke="#000" rx="133.24" ry="18"/>
            <text x="2693.58" y="-156.95" font-family="Times,serif" font-size="14" text-anchor="middle">:app:core:holiday-database-room</text>
        </g>
        <g stroke="#000" class="edge">
            <path fill="none" d="m2657.11 40.15 34.66 168.61"/>
            <path d="m2695.15 207.79-1.42 10.5-5.44-9.1z"/>
        </g>
        <g class="node" transform="translate(4 400)">
            <ellipse cx="104.58" cy="-90" fill="none" stroke="#000" rx="104.58" ry="18"/>
            <text x="104.58" y="-84.95" font-family="Times,serif" font-size="14" text-anchor="middle">:app:core:holiday-service</text>
        </g>
        <g stroke="#000" class="edge">
            <path fill="none" d="M2578.64 23.93C2257.32 28.08 1004.44 46.05 830.58 76c-262.18 45.17-560.1 164.11-674.15 212.29"/>
            <path d="m157.94 291.45-10.57.69 7.84-7.13z"/>
        </g>
        <g stroke="#000" class="edge">
            <path fill="none" d="M2218.22 97.24c-263.43 6.38-991.87 25.8-1230.64 50.76-8.62.9-17.62 2.08-26.54 3.41"/>
            <path d="m961.74 154.84-10.42-1.92 9.34-5z"/>
        </g>
        <g stroke="#000" class="edge">
            <path fill="none" d="M2218.54 97.36c-284.45 7.23-1106.17 29.8-1159.96 50.64-23.24 9-20.91 24.45-43 36-35.05 18.33-77.07 30.81-113.02 39.04"/>
            <path d="m903.61 226.39-10.52-1.26 9.01-5.57z"/>
        </g>
        <g stroke="#000" class="edge">
            <path fill="none" d="M2217.97 96.92c-291.89 6.05-1148.11 25.87-1202.39 51.08-19.69 9.14-13.77 25.94-33 36-105.73 55.27-147.87 19.36-266 36-185.23 26.09-401.95 58.19-520.13 75.83"/>
            <path d="m197.23 299.26-10.41-1.99 9.37-4.94z"/>
        </g>
        <g class="node" transform="translate(4 400)">
            <ellipse cx="4852.58" cy="-90" fill="none" stroke="#000" rx="101" ry="18"/>
            <text x="4852.58" y="-84.95" font-family="Times,serif" font-size="14" text-anchor="middle">:app:core:design-system</text>
        </g>
        <g stroke="#000" class="edge">
            <path fill="none" d="M2411.84 95.78c396.25 3.4 1877.73 18.26 2084.74 52.22 106.54 17.48 134.99 24.63 232 72 36.45 17.8 74.08 45.26 99.03 64.97"/>
            <path d="m4829.72 282.17 5.62 8.99-9.99-3.52z"/>
        </g>
        <g class="node" transform="translate(4 400)">
            <ellipse cx="3778.58" cy="-90" fill="none" stroke="#000" rx="86.67" ry="18"/>
            <text x="3778.58" y="-84.95" font-family="Times,serif" font-size="14" text-anchor="middle">:app:core:navigation</text>
        </g>
        <g stroke="#000" class="edge">
            <path fill="none" d="M2388.89 106.04c131.63 19.11 414.52 58.21 654.69 77.96 46.77 3.85 811.53 2.11 844 36 11.07 11.55 8.39 22.37 0 36-9.66 15.7-25.56 26.91-42.1 34.86"/>
            <path d="m3847.09 293.97-10.56.82 7.75-7.23z"/>
        </g>
        <g class="node" transform="translate(4 400)">
            <ellipse cx="5057.58" cy="-18" fill="none" stroke="#000" rx="82.57" ry="18"/>
            <text x="5057.58" y="-12.95" font-family="Times,serif" font-size="14" text-anchor="middle">:app:core:resources</text>
        </g>
        <g stroke="#000" class="edge">
            <path fill="none" d="M2411.93 95.86c432.04 3.96 2165.28 21.62 2406.65 52.14 183.31 23.18 313.29-24.1 390 144 6.64 14.56 9.2 22.91 0 36-15.01 21.37-39.52 34.16-64.25 41.8"/>
            <path d="m5145.39 373.14-10.57-.68 8.69-6.06z"/>
        </g>
        <g class="node" transform="translate(4 400)">
            <ellipse cx="4729.58" cy="-18" fill="none" stroke="#000" rx="59.54" ry="18"/>
            <text x="4729.58" y="-12.95" font-family="Times,serif" font-size="14" text-anchor="middle">:library:color</text>
        </g>
        <g stroke="#000" class="edge">
            <path fill="none" d="M2412 95.62c377.17 2.67 1741.77 14.77 2173.58 52.38 212.72 18.53 335.79-89.9 475 72 19.84 23.07-9.77 98.74-20 108-33.98 30.74-157.44 44-237.06 49.46"/>
            <path d="m4803.82 380.95-10.21-2.84 9.75-4.15z"/>
        </g>
        <g class="node" transform="translate(4 400)">
            <ellipse cx="2485.58" cy="-18" fill="none" stroke="#000" rx="62.1" ry="18"/>
            <text x="2485.58" y="-12.95" font-family="Times,serif" font-size="14" text-anchor="middle">:library:kotlin</text>
        </g>
        <g stroke="#000" class="edge">
            <path fill="none" d="M2348.4 111.34c15.75 9 33.72 21.45 46.18 36.66 51.57 62.95 78.39 157.66 89.18 204.58"/>
            <path d="m2487.14 351.69-1.25 10.52-5.58-9.01z"/>
        </g>
        <g class="node" transform="translate(4 400)">
            <ellipse cx="4191.58" cy="-90" fill="none" stroke="#000" rx="79.5" ry="18"/>
            <text x="4191.58" y="-84.95" font-family="Times,serif" font-size="14" text-anchor="middle">:library:navigation</text>
        </g>
        <g stroke="#000" class="edge">
            <path fill="none" d="M2411.82 95.79c340.32 3.09 1465.79 15.95 1623.76 52.21 76.4 17.54 118.36 6.23 161 72 11.5 17.74 10.42 41.94 6.93 60.63"/>
            <path d="m4206.96 281.24-5.59 9-1.25-10.52z"/>
        </g>
        <g class="node" transform="translate(4 400)">
            <ellipse cx="2235.58" cy="-18" fill="none" stroke="#000" rx="78.99" ry="18"/>
            <text x="2235.58" y="-12.95" font-family="Times,serif" font-size="14" text-anchor="middle">:library:coroutines</text>
        </g>
        <g stroke="#000" class="edge">
            <path fill="none" d="M2236.31 104.99c-68.38 13.35-163.56 44.23-208.73 115.01-8.61 13.49-10.22 23.69 0 36 55.76 67.12 130.5-24.9 193 36 15.84 15.43 20.04 40.59 20.59 60.23"/>
            <path d="m2244.67 352.11-3.55 9.98-3.45-10.01z"/>
        </g>
        <g class="node" transform="translate(4 400)">
            <ellipse cx="2729.58" cy="-18" fill="none" stroke="#000" rx="72.85" ry="18"/>
            <text x="2729.58" y="-12.95" font-family="Times,serif" font-size="14" text-anchor="middle">:library:datetime</text>
        </g>
        <g stroke="#000" class="edge">
            <path fill="none" d="M2351.43 111.08c20.88 9.68 47.14 22.84 69.15 36.92 64.72 41.41 67.12 71.99 135 108 47.68 25.3 72.43 4.13 116 36 21.77 15.93 38.59 41.9 49.18 61.69"/>
            <path d="m2723.74 351.82 1.43 10.49-7.66-7.31z"/>
        </g>
        <g class="node" transform="translate(4 400)">
            <ellipse cx="4606.58" cy="-90" fill="none" stroke="#000" rx="89.23" ry="18"/>
            <text x="4606.58" y="-84.95" font-family="Times,serif" font-size="14" text-anchor="middle">:library:shimmer-m3</text>
        </g>
        <g stroke="#000" class="edge">
            <path fill="none" d="M2411.99 95.17c388.33.99 1814.51 7.69 2011.59 52.83 75.62 17.32 107.55 13.95 159 72 14.79 16.69 21.77 41.16 25.06 60.22"/>
            <path d="m4611.1 279.65-2.03 10.4-4.9-9.39z"/>
        </g>
        <g class="node" transform="translate(4 400)">
            <ellipse cx="2310.58" cy="-234" fill="none" stroke="#000" rx="71.31" ry="18"/>
            <text x="2310.58" y="-228.95" font-family="Times,serif" font-size="14" text-anchor="middle">:app:data:memo</text>
        </g>
        <g stroke="red" stroke-width="2" class="edge">
            <path fill="none" d="M2314.58 112.3v24.16"/>
            <path fill="red" d="m2318.08 134.87-3.5 10-3.5-10z"/>
        </g>
        <g class="node" transform="translate(4 400)">
            <ellipse cx="1857.58" cy="-234" fill="none" stroke="#000" rx="75.92" ry="18"/>
            <text x="1857.58" y="-228.95" font-family="Times,serif" font-size="14" text-anchor="middle">:app:data:account</text>
        </g>
        <g stroke="#000" class="edge">
            <path fill="none" d="M2238.35 105.61c-72.54 10.25-184.73 26.53-281.77 42.39-8.16 1.33-16.71 2.79-25.19 4.26"/>
            <path d="m1932.26 155.66-10.45-1.72 9.24-5.17z"/>
        </g>
        <g class="node" transform="translate(4 400)">
            <ellipse cx="1158.58" cy="-162" fill="none" stroke="#000" rx="74.89" ry="18"/>
            <text x="1158.58" y="-156.95" font-family="Times,serif" font-size="14" text-anchor="middle">:app:data:holiday</text>
        </g>
        <g stroke="#000" class="edge">
            <path fill="none" d="M2217.38 95.87c-245.82 2.77-878.98 13.61-965.8 52.13-15.94 7.07-46.6 39.92-67.43 63.66"/>
            <path d="m1186.89 213.84-9.2 5.25 3.92-9.84z"/>
        </g>
        <g class="node" transform="translate(4 400)">
            <ellipse cx="1558.58" cy="-234" fill="none" stroke="#000" rx="73.87" ry="18"/>
            <text x="1558.58" y="-228.95" font-family="Times,serif" font-size="14" text-anchor="middle">:app:data:backup</text>
        </g>
        <g stroke="#000" class="edge">
            <path fill="none" d="M2226.53 102.06c-117.34 9.56-331.4 27.56-513.95 45.94-23.87 2.4-49.84 5.26-73.36 7.94"/>
            <path d="m1639.72 159.41-10.33-2.34 9.53-4.62z"/>
        </g>
        <g class="node" transform="translate(4 400)">
            <ellipse cx="1129.58" cy="-234" fill="none" stroke="#000" rx="65.68" ry="18"/>
            <text x="1129.58" y="-228.95" font-family="Times,serif" font-size="14" text-anchor="middle">:app:data:fetch</text>
        </g>
        <g stroke="#000" class="edge">
            <path fill="none" d="M2216.91 94.43c-192.71.05-635.15 5.91-1003.33 53.57-6.75.87-13.77 2.02-20.73 3.29"/>
            <path d="m1193.99 154.64-10.49-1.53 9.15-5.34z"/>
        </g>
        <g class="node" transform="translate(4 400)">
            <ellipse cx="2116.58" cy="-162" fill="none" stroke="#000" rx="84.11" ry="18"/>
            <text x="2116.58" y="-156.95" font-family="Times,serif" font-size="14" text-anchor="middle">:app:domain:memo</text>
        </g>
        <g stroke="#000" class="edge">
            <path fill="none" d="M2288.29 111.68c-15.78 10.2-36.13 23.67-53.71 36.32-29.37 21.15-61.81 46.69-84.55 64.98"/>
            <path d="m2152.38 215.59-9.98 3.56 5.58-9.01z"/>
        </g>
        <g class="node" transform="translate(4 400)">
            <ellipse cx="2118.58" cy="-90" fill="none" stroke="#000" rx="88.71" ry="18"/>
            <text x="2118.58" y="-84.95" font-family="Times,serif" font-size="14" text-anchor="middle">:app:domain:account</text>
        </g>
        <g stroke="#000" class="edge">
            <path fill="none" d="M2218.84 97.63c-83.6 4.56-195.9 16.92-224.26 50.37-31.05 36.61-26.67 68.09 0 108 12.01 17.97 31.35 29.85 51.41 37.71"/>
            <path d="m2047.16 290.41 8.25 6.65-10.6-.05z"/>
        </g>
        <g class="node" transform="translate(4 400)">
            <ellipse cx="1319.58" cy="-90" fill="none" stroke="#000" rx="87.69" ry="18"/>
            <text x="1319.58" y="-84.95" font-family="Times,serif" font-size="14" text-anchor="middle">:app:domain:holiday</text>
        </g>
        <g stroke="#000" class="edge">
            <path fill="none" d="M2217.13 95.57c-199.74 2.02-649.17 11.16-796.55 52.43-65.86 18.44-100.72 13.41-136 72-12.21 20.28.68 45.06 14.82 63.32"/>
            <path d="m1301.91 280.86 3.68 9.94-9.07-5.47z"/>
        </g>
        <g class="node" transform="translate(4 400)">
            <ellipse cx="1588.58" cy="-162" fill="none" stroke="#000" rx="86.67" ry="18"/>
            <text x="1588.58" y="-156.95" font-family="Times,serif" font-size="14" text-anchor="middle">:app:domain:backup</text>
        </g>
        <g stroke="#000" class="edge">
            <path fill="none" d="M2216.96 94.4c-109.27 1.67-290.63 11.45-440.38 53.6-54.17 15.25-111.84 45.76-147.88 66.77"/>
            <path d="m1630.82 217.58-10.39 2.08 6.83-8.1z"/>
        </g>
        <g class="node" transform="translate(4 400)">
            <ellipse cx="1367.58" cy="-162" fill="none" stroke="#000" rx="78.48" ry="18"/>
            <text x="1367.58" y="-156.95" font-family="Times,serif" font-size="14" text-anchor="middle">:app:domain:fetch</text>
        </g>
        <g stroke="#000" class="edge">
            <path fill="none" d="M2218.82 97.76c-204.75 6.39-672.03 23.68-739.24 50.24-34.36 13.58-66 42.42-86.04 63.61"/>
            <path d="m1396.32 213.76-9.35 5 4.19-9.73z"/>
        </g>
        <g class="node" transform="translate(4 400)">
            <ellipse cx="3940.58" cy="-234" fill="none" stroke="#000" rx="81.55" ry="18"/>
            <text x="3940.58" y="-228.95" font-family="Times,serif" font-size="14" text-anchor="middle">:app:feature:memo</text>
        </g>
        <g stroke="#000" class="edge">
            <path fill="none" d="M2408.66 99.04c288.88 12.41 1160.69 49.85 1445.11 62.06"/>
            <path d="m3853.9 157.6 9.84 3.93-10.14 3.07z"/>
        </g>
        <g class="node" transform="translate(4 400)">
            <ellipse cx="4303.58" cy="-234" fill="none" stroke="#000" rx="88.71" ry="18"/>
            <text x="4303.58" y="-228.95" font-family="Times,serif" font-size="14" text-anchor="middle">:app:feature:calendar</text>
        </g>
        <g stroke="#000" class="edge">
            <path fill="none" d="M2411.87 95.98c335 3.67 1439.51 18.08 1792.71 52.02 9.04.87 18.49 2.05 27.84 3.39"/>
            <path d="m4232.88 147.91 9.37 4.95-10.41 1.98z"/>
        </g>
        <g class="node" transform="translate(4 400)">
            <ellipse cx="4083.58" cy="-162" fill="none" stroke="#000" rx="76.94" ry="18"/>
            <text x="4083.58" y="-156.95" font-family="Times,serif" font-size="14" text-anchor="middle">:app:feature:more</text>
        </g>
        <g stroke="#000" class="edge">
            <path fill="none" d="M2404.31 101.23c243.83 17.1 938.99 66.93 1516.27 118.77 28.44 2.55 59.58 5.64 87.19 8.49"/>
            <path d="m4007.87 224.98 9.58 4.51-10.3 2.45z"/>
        </g>
        <g class="node" transform="translate(4 400)">
            <ellipse cx="4378.58" cy="-162" fill="none" stroke="#000" rx="86.15" ry="18"/>
            <text x="4378.58" y="-156.95" font-family="Times,serif" font-size="14" text-anchor="middle">:app:feature:account</text>
        </g>
        <g stroke="#000" class="edge">
            <path fill="none" d="M2411.85 95.63c407.57 2.89 1958.51 16.24 1993.73 52.37 16.03 16.44 6.77 42.53-4.41 62.21"/>
            <path d="m4404.27 211.85-8.21 6.7 2.24-10.35z"/>
        </g>
        <g stroke="#000" class="edge">
            <path fill="none" d="M3063.16 250.85c104.3 14.01 263.03 36.06 267.42 41.15 10.45 12.12 11.09 24.47 0 36-35.14 36.55-861.41 32.6-912 36-32.04 2.15-67.23 5.32-97.87 8.34"/>
            <path d="m2321.45 375.78-10.3-2.49 9.6-4.47z"/>
        </g>
        <g class="node" transform="translate(4 400)">
            <ellipse cx="3237.58" cy="-90" fill="none" stroke="#000" rx="80.01" ry="18"/>
            <text x="3237.58" y="-84.95" font-family="Times,serif" font-size="14" text-anchor="middle">:library:koin-room</text>
        </g>
        <g stroke="#000" class="edge">
            <path fill="none" d="M3032.06 254.28c43.73 11.42 103.4 27 147.87 38.62"/>
            <path d="m3180.64 289.46 8.79 5.92-10.56.86z"/>
        </g>
        <g class="node" transform="translate(4 400)">
            <ellipse cx="607.58" cy="-90" fill="none" stroke="#000" rx="101.51" ry="18"/>
            <text x="607.58" y="-84.95" font-family="Times,serif" font-size="14" text-anchor="middle">:app:core:diary-database</text>
        </g>
        <g stroke="#000" class="edge">
            <path fill="none" d="M2887.22 251.35c-15.82 1.87-32.2 3.54-47.64 4.65-888.05 64.12-1113.6-5.56-2003 36-40.78 1.91-85.64 5.08-124.51 8.17"/>
            <path d="m712.5 303.64-10.25-2.68 9.69-4.29z"/>
        </g>
        <g class="node" transform="translate(4 400)">
            <ellipse cx="3078.58" cy="-90" fill="none" stroke="#000" rx="60.56" ry="18"/>
            <text x="3078.58" y="-84.95" font-family="Times,serif" font-size="14" text-anchor="middle">:library:room</text>
        </g>
        <g stroke="#000" class="edge">
            <path fill="none" d="M2999.97 255.95c14.6 9.38 32.93 21.14 48.6 31.21"/>
            <path d="m3050.13 284 6.53 8.35-10.31-2.46z"/>
        </g>
        <g class="node" transform="translate(4 400)">
            <ellipse cx="813.58" cy="-18" fill="none" stroke="#000" rx="71.31" ry="18"/>
            <text x="813.58" y="-12.95" font-family="Times,serif" font-size="14" text-anchor="middle">:app:core:model</text>
        </g>
        <g stroke="#000" class="edge">
            <path fill="none" d="M749.4 250.23c-12.6 1.94-25.59 3.92-37.82 5.77-54.2 8.19-208.18-5.49-244 36-10.46 12.11-10.43 23.87 0 36 33.75 39.25 174.66 49.79 267.07 52.41"/>
            <path d="m734.53 376.91 9.91 3.75-10.09 3.25z"/>
        </g>
        <g class="node" transform="translate(4 400)">
            <ellipse cx="1184.58" cy="-18" fill="none" stroke="#000" rx="85.13" ry="18"/>
            <text x="1184.58" y="-12.95" font-family="Times,serif" font-size="14" text-anchor="middle">:common:exception</text>
        </g>
        <g stroke="#000" class="edge">
            <path fill="none" d="M751.56 250.61c-13.25 1.98-27.03 3.87-39.98 5.39-49.93 5.84-416.9-.93-451 36-10.85 11.76-10.99 24.37 0 36 24.35 25.76 601.61 33.97 637 36 66.43 3.82 141.39 8.2 198.59 11.56"/>
            <path d="m1096.07 372.04 9.78 4.09-10.19 2.9z"/>
        </g>
        <g class="node" transform="translate(4 400)">
            <ellipse cx="1889.58" cy="-90" fill="none" stroke="#000" rx="121.98" ry="18"/>
            <text x="1889.58" y="-84.95" font-family="Times,serif" font-size="14" text-anchor="middle">:app:core:account-preferences</text>
        </g>
        <g stroke="#000" class="edge">
            <path fill="none" d="M910.78 244.92c49.44 3.28 112.02 7.42 167.8 11.08 246.46 16.17 534.87 34.87 694.02 45.17"/>
            <path d="m1772.57 297.67 9.75 4.13-10.2 2.85z"/>
        </g>
        <g class="node" transform="translate(4 400)">
            <ellipse cx="338.58" cy="-90" fill="none" stroke="#000" rx="72.85" ry="18"/>
            <text x="338.58" y="-84.95" font-family="Times,serif" font-size="14" text-anchor="middle">:common:model</text>
        </g>
        <g stroke="#000" class="edge">
            <path fill="none" d="M750.02 250.34c-12.79 1.95-26 3.91-38.44 5.66-125.11 17.65-157.26 15.87-282 36-6.88 1.11-14.05 2.36-21.19 3.66"/>
            <path d="m409.2 299.07-10.47-1.6 9.19-5.28z"/>
        </g>
        <g stroke="#000" class="edge">
            <path fill="none" d="M3164.63 251.27c-19.01 1.81-38.59 3.48-57.05 4.73-480.51 32.41-602.99-3.03-1083 36-11.26.92-23.04 2.11-34.71 3.44"/>
            <path d="m1990.56 298.88-10.34-2.31 9.53-4.64z"/>
        </g>
        <g class="node" transform="translate(4 400)">
            <ellipse cx="3542.58" cy="-90" fill="none" stroke="#000" rx="93.32" ry="18"/>
            <text x="3542.58" y="-84.95" font-family="Times,serif" font-size="14" text-anchor="middle">:library:koin-datastore</text>
        </g>
        <g stroke="#000" class="edge">
            <path fill="none" d="M3336.64 254.97c43.13 11.1 100.51 25.87 144.38 37.16"/>
            <path d="m3481.87 288.73 8.81 5.89-10.55.89z"/>
        </g>
        <g stroke="#000" class="edge">
            <path fill="none" d="M3795.36 254.29c55.2 14.59 115.94 39.43 83.22 73.71-36.54 38.27-802.88 49.53-1060.99 52.25"/>
            <path d="m2817.97 383.75-10.04-3.4 9.96-3.6z"/>
        </g>
        <g stroke="#000" class="edge">
            <path fill="none" d="M3679.66 255.77c-25.06 10.02-57.04 22.82-83.38 33.35"/>
            <path d="m3597.75 292.3-10.59.47 7.99-6.97z"/>
        </g>
        <g class="node" transform="translate(4 400)">
            <ellipse cx="2878.58" cy="-90" fill="none" stroke="#000" rx="120.96" ry="18"/>
            <text x="2878.58" y="-84.95" font-family="Times,serif" font-size="14" text-anchor="middle">:app:core:holiday-preferences</text>
        </g>
        <g stroke="#000" class="edge">
            <path fill="none" d="M3584.14 247.01c-142.99 8.86-373.26 24.63-571.56 44.99-10.5 1.08-21.47 2.32-32.38 3.64"/>
            <path d="m2980.72 299.1-10.36-2.25 9.5-4.69z"/>
        </g>
        <g stroke="#000" class="edge">
            <path fill="none" d="M2654.34 255.38c-50.26 18.75-135.89 49.82-210.76 72.62-46.24 14.08-99.07 27.74-139.38 37.66"/>
            <path d="m2305.19 369.02-10.54-1.02 8.88-5.77z"/>
        </g>
        <g stroke="#000" class="edge">
            <path fill="none" d="M2794.58 250.67c15.06 1.8 30.45 3.62 45 5.33 139.07 16.32 174.58 14.85 313 36 6.47.99 13.2 2.11 19.92 3.28"/>
            <path d="m3173.05 291.83 9.22 5.21-10.46 1.68z"/>
        </g>
        <g stroke="#000" class="edge">
            <path fill="none" d="M2784.8 251.96c63.4 9.84 151.18 24.32 227.78 40.04 4.55.93 9.25 1.95 13.96 3.02"/>
            <path d="m3027.07 291.55 8.96 5.66-10.54 1.16z"/>
        </g>
        <g class="node" transform="translate(4 400)">
            <ellipse cx="951.58" cy="-90" fill="none" stroke="#000" rx="110.21" ry="18"/>
            <text x="951.58" y="-84.95" font-family="Times,serif" font-size="14" text-anchor="middle">:app:core:holiday-database</text>
        </g>
        <g stroke="#000" class="edge">
            <path fill="none" d="M2570.07 243.5c-345.28 12.2-1277.05 45.22-1343.49 48.5-52.53 2.59-110.74 6.15-159.7 9.35"/>
            <path d="m1067.33 304.83-10.21-2.84 9.75-4.15z"/>
        </g>
        <g stroke="#000" class="edge">
            <path fill="none" d="M185.32 322.56c14.04 1.95 28.58 3.85 42.26 5.44 182.46 21.21 397.53 38.63 510.88 47.21"/>
            <path d="m738.55 371.71 9.71 4.24-10.23 2.74z"/>
        </g>
        <g stroke="#000" class="edge">
            <path fill="none" d="M4902.08 326.54c31.15 10.63 72.61 24.79 105.46 36.01"/>
            <path d="m5008.55 359.19 8.33 6.55-10.59.08z"/>
        </g>
        <g stroke="#000" class="edge">
            <path fill="none" d="M4827.43 327.59c-17.06 9.71-38.77 22.06-57.01 32.44"/>
            <path d="m4772.16 363.07-10.43 1.91 6.96-7.99z"/>
        </g>
        <g stroke="#000" class="edge">
            <path fill="none" d="M4784.65 322.99c-14.23 1.99-29.1 3.8-43.07 5.01-382.52 33.2-1592.66 48.5-1923.62 52.13"/>
            <path d="m2818.11 383.63-10.04-3.39 9.96-3.61z"/>
        </g>
        <g stroke="#000" class="edge">
            <path fill="none" d="M3719.42 322.74c-12.5 2.01-25.56 3.89-37.84 5.26-318.08 35.55-699 47.66-864.46 51.44"/>
            <path d="m2817.65 382.93-10.08-3.28 9.92-3.72z"/>
        </g>
        <g stroke="#000" class="edge">
            <path fill="none" d="M4125.77 318.91c-30.7 3.24-67.2 6.77-100.19 9.09-455.23 32.07-1002.16 46.63-1208.11 51.26"/>
            <path d="m2817.75 382.76-10.08-3.28 9.92-3.72z"/>
        </g>
        <g stroke="#000" class="edge">
            <path fill="none" d="M4639.42 327.41c17.13 9.75 39.03 22.22 57.4 32.67"/>
            <path d="m4698.33 356.91 6.96 7.99-10.42-1.9z"/>
        </g>
        <g stroke="#000" class="edge">
            <path fill="none" d="M2311.59 184.45c-5.51 30.13-18.73 93.5-40.01 143.55-3.83 9-8.98 18.3-14.03 26.55"/>
            <path d="m2260.68 356.16-8.33 6.56 2.42-10.32z"/>
        </g>
        <g stroke="#000" class="edge">
            <path fill="none" d="M2347.7 182.28c40.73 18.53 112.18 50.19 174.88 73.72 48.56 18.22 66 10.21 111 36 29.68 17.01 58.3 43.89 77.25 63.66"/>
            <path d="m2713.26 353.13 4.29 9.68-9.4-4.89z"/>
        </g>
        <g stroke="red" stroke-width="2" class="edge">
            <path fill="none" d="M2274.85 181.33c-29.48 10.64-69.95 25.25-102.05 36.83"/>
            <path fill="red" d="m2175.71 220.83-10.6.1 8.22-6.68z"/>
        </g>
        <g stroke="#000" class="edge">
            <path fill="none" d="M2245.06 170.31c-73.99 3.5-194.49 9.13-298.48 13.69-96.44 4.23-777.98 1.16-868 36-23.25 9-20.15 26.05-43 36-29.13 12.68-209.11 32.12-325.03 43.6"/>
            <path d="m710.99 303.07-10.29-2.5 9.61-4.46z"/>
        </g>
        <g stroke="#000" class="edge">
            <path fill="none" d="M1791.08 172.88c-42.2 3.44-96.9 7.75-145.5 11.12-266.51 18.48-333.47 17.89-600 36-41.17 2.8-86.57 6.19-125.68 9.2"/>
            <path d="m920.27 232.68-10.24-2.72 9.7-4.26z"/>
        </g>
        <g stroke="#000" class="edge">
            <path fill="none" d="M1838.23 183.35c-40.97 30.62-117.67 97.71-75.65 144.65 25.39 28.37 257.73 43.25 388.53 49.44"/>
            <path d="m2150.94 373.93 9.82 3.96-10.15 3.03z"/>
        </g>
        <g stroke="#000" class="edge">
            <path fill="none" d="M1931.56 173.3c84.2 8.15 229.63 24.04 353.02 46.7 66.58 12.23 82.06 20.7 148 36 72.27 16.77 97.46 1.22 163 36 20.55 10.91 19.1 22.43 38 36 17.21 12.36 37.66 23.71 55.58 32.71"/>
            <path d="m2690.58 357.51 7.43 7.55-10.52-1.27z"/>
        </g>
        <g stroke="#000" class="edge">
            <path fill="none" d="M1875.63 184.15c17.16 19.92 48.01 52.51 80.95 71.85 28.93 16.98 63.94 29.2 94.34 37.59"/>
            <path d="m2051.66 290.17 8.76 5.95-10.56.81z"/>
        </g>
        <g stroke="#000" class="edge">
            <path fill="none" d="M1865.5 184.41c5.43 24.09 15.29 67.84 21.76 96.56"/>
            <path d="m1890.61 279.89-1.22 10.52-5.61-8.98z"/>
        </g>
        <g stroke="#000" class="edge">
            <path fill="none" d="M1092.12 244.41c-46.9 3.51-109.89 8.08-165.54 11.59-295.85 18.65-370.58 11.52-666 36-18.5 1.53-38.22 3.5-57.13 5.54"/>
            <path d="m203.95 301.01-10.33-2.39 9.56-4.57z"/>
        </g>
        <g stroke="#000" class="edge">
            <path fill="none" d="M1106.14 250.12c-10.8 2.03-22.02 4.07-32.56 5.88-108.51 18.6-313.36-7.3-237 72 22.83 23.71 1006.26 45.15 1312.76 51.26"/>
            <path d="m2149.39 375.76 9.92 3.7-10.06 3.3z"/>
        </g>
        <g stroke="#000" class="edge">
            <path fill="none" d="M1218.31 250.36c108.18 21.87 343.19 68.48 425.27 77.64 405.35 45.22 510.09 8.04 917 36 31.64 2.17 66.45 5.43 96.5 8.51"/>
            <path d="m2657.25 369.01 9.59 4.51-10.31 2.45z"/>
        </g>
        <g stroke="#000" class="edge">
            <path fill="none" d="M1197.51 254.19c23.23 10.1 54 23.47 79.32 34.49"/>
            <path d="m1278.15 285.43 7.78 7.2-10.57-.78z"/>
        </g>
        <g stroke="#000" class="edge">
            <path fill="none" d="M1223.56 248.78c19.45 2.78 41.1 5.51 61.02 7.22 144.19 12.4 1113.95 39.77 1468.5 49.49"/>
            <path d="m2753 301.99 9.9 3.77-10.09 3.22z"/>
        </g>
        <g stroke="#000" class="edge">
            <path fill="none" d="M1120.44 253.25c-31.04 10.5-73.6 24.89-107.71 36.42"/>
            <path d="m1014.01 292.94-10.59-.12 8.35-6.52z"/>
        </g>
        <g stroke="#000" class="edge">
            <path fill="none" d="M1494.53 173.43c-132.55 12.52-425.62 40.21-577.51 54.55"/>
            <path d="m917.68 231.44-10.29-2.55 9.63-4.42z"/>
        </g>
        <g stroke="#000" class="edge">
            <path fill="none" d="M1532.6 182.74c-13.67 8.93-28.46 21.49-36.02 37.26-24.52 51.15 16.83 83.52 68 108 100.9 48.26 424.81 54.06 584.4 53.86"/>
            <path d="m2148.66 378.36 10.01 3.47-9.99 3.53z"/>
        </g>
        <g stroke="#000" class="edge">
            <path fill="none" d="M1631.82 172.55c166.95 13.4 578.28 46.47 581.76 47.45 34.05 9.62 37.25 25.37 71 36 108.75 34.24 146.98-3.32 254 36 28.12 10.33 30.22 22.56 57 36 27.1 13.59 58.57 25.93 84.61 35.27"/>
            <path d="m2681.3 359.95 8.26 6.63-10.59-.03z"/>
        </g>
        <g stroke="#000" class="edge">
            <path fill="none" d="M1570 184.3c3.23 7.55 7.1 16.58 10.72 25.02"/>
            <path d="m1583.93 207.93.72 10.57-7.15-7.81z"/>
        </g>
        <g stroke="#000" class="edge">
            <path fill="none" d="M1489.73 169.67c-122.72 5.3-365.06 19.4-444.15 50.33-24.84 9.71-23.32 25.91-48 36-112.06 45.81-150.11 19.22-270 36-9.27 1.3-18.96 2.68-28.61 4.07"/>
            <path d="m699.58 299.52-10.4-2.03 9.4-4.9z"/>
        </g>
        <g stroke="#000" class="edge">
            <path fill="none" d="M1083.8 178.17c-51.64 11.58-132.85 29.81-191.22 42.9"/>
            <path d="m893.6 224.43-10.53-1.23 8.99-5.6z"/>
        </g>
        <g stroke="#000" class="edge">
            <path fill="none" d="M1085.47 178.61c-43.84 11.13-104.85 28.13-125.89 41.39-18.36 11.57-13.52 26.43-33 36-172.35 84.66-559.69-65.83-426 72 14.49 14.94 1294.74 43.48 1649.03 51.09"/>
            <path d="m2149.63 375.59 9.93 3.72-10.08 3.28z"/>
        </g>
        <g stroke="#000" class="edge">
            <path fill="none" d="M1195.67 172.13c102.69 8.66 314.3 27.26 492.91 47.87 237.03 27.35 296.19 35.6 532 72 159.83 24.67 346.83 58.33 444.95 76.36"/>
            <path d="m2666.07 364.9 9.2 5.26-10.47 1.63z"/>
        </g>
        <g stroke="#000" class="edge">
            <path fill="none" d="M1177.23 179.84c38.31 11.27 94.33 27.74 136.39 40.11"/>
            <path d="m1314.48 216.56 8.6 6.18-10.58.53z"/>
        </g>
        <g stroke="#000" class="edge">
            <path fill="none" d="M1094.08 180.75c-25.44 9.54-58.81 23.37-86.5 39.25-23.13 13.27-23.41 25.68-48 36-3.03 1.27-158.74 24.71-260.82 39.99"/>
            <path d="m699.42 299.43-10.41-1.99 9.37-4.94z"/>
        </g>
        <g stroke="#000" class="edge">
            <path fill="none" d="M2164.4 253.73c30.25 10.33 71.33 24.67 107.18 38.27 60.61 22.99 129.77 51.65 173.64 70.13"/>
            <path d="m2446.56 358.89 7.85 7.12-10.57-.67z"/>
        </g>
        <g stroke="#000" class="edge">
            <path fill="none" d="M2187.09 249.28c25.16 7.48 51.36 20.4 66.49 42.72 12.12 17.88 7.09 42.37-.12 61.14"/>
            <path d="m2256.69 354.49-7.14 7.82.71-10.57z"/>
        </g>
        <g stroke="#000" class="edge">
            <path fill="none" d="M2190.69 248.33c97.04 13.06 263.5 36.06 290.89 43.67 39.92 11.1 47.11 21.68 86 36 36.09 13.29 77.27 26.45 109.59 36.33"/>
            <path d="m2677.77 360.86 8.55 6.25-10.58.44z"/>
        </g>
        <g stroke="red" stroke-width="2" class="edge">
            <path fill="none" d="M2121.07 256.3c.21 7.29.46 15.97.69 24.16"/>
            <path fill="red" d="m2125.22 278.77-3.22 10.1-3.78-9.9z"/>
        </g>
        <g stroke="#000" class="edge">
            <path fill="none" d="M2038.7 242.62c-210.63 9.46-760.49 35.19-842.12 49.38-55.7 9.68-67.16 22.28-122 36-63.72 15.94-137.18 30.74-189.2 40.62"/>
            <path d="m886.25 372.02-10.47-1.58 9.17-5.3z"/>
        </g>
        <g stroke="#000" class="edge">
            <path fill="none" d="M2039.04 242.7c-217.48 10.02-795.95 37.68-812.46 49.3-19.64 13.82-29.2 39.96-33.8 60.35"/>
            <path d="m1196.23 352.92-5.35 9.14-1.52-10.48z"/>
        </g>
        <g stroke="#000" class="edge">
            <path fill="none" d="M2185.67 323.03c67.71 12.92 174.58 33.3 241.88 46.14"/>
            <path d="m2428.16 365.72 9.17 5.31-10.48 1.57z"/>
        </g>
        <g stroke="#000" class="edge">
            <path fill="none" d="M2150.01 327.41c15.7 9.39 35.6 21.3 52.65 31.5"/>
            <path d="m2204.24 355.78 6.78 8.13-10.38-2.13z"/>
        </g>
        <g stroke="#000" class="edge">
            <path fill="none" d="M2198.42 319.69c117.22 13.43 341.14 39.08 458.72 52.55"/>
            <path d="m2657.49 368.76 9.53 4.61-10.33 2.34z"/>
        </g>
        <g stroke="red" stroke-width="2" class="edge">
            <path fill="none" d="M2060.02 323.13c-11.74 1.91-23.93 3.65-35.44 4.87-411.36 43.45-516.87 15.33-930 36-66.63 3.33-142.22 8.03-197.58 11.65"/>
            <path fill="red" d="m899.08 379.02-10.2-2.84 9.75-4.15z"/>
        </g>
        <g stroke="#000" class="edge">
            <path fill="none" d="M2059.47 322.98c-11.58 1.91-23.57 3.68-34.89 5.02-267.18 31.55-584.78 45.18-740.4 50.31"/>
            <path d="m1284.43 381.8-10.11-3.17 9.88-3.82z"/>
        </g>
        <g stroke="#000" class="edge">
            <path fill="none" d="M1403.29 317.9c40.75 3.37 91.14 7.29 136.29 10.1 349.91 21.76 438.4 9.69 788 36 30.99 2.33 65.24 5.8 94.22 8.99"/>
            <path d="m2421.99 369.49 9.55 4.58-10.32 2.38z"/>
        </g>
        <g stroke="#000" class="edge">
            <path fill="none" d="M1387.65 322.68c12.54 2.01 25.62 3.9 37.93 5.32 262.39 30.33 574.53 44.6 724.64 50.11"/>
            <path d="m2150.24 374.61 9.87 3.86-10.12 3.13z"/>
        </g>
        <g stroke="#000" class="edge">
            <path fill="none" d="M1406.31 316.26c58.45 3.61 138.64 8.34 209.27 11.74 419.82 20.22 525.67 7.44 945 36 31.64 2.16 66.45 5.41 96.5 8.49"/>
            <path d="m2657.26 368.99 9.58 4.51-10.31 2.45z"/>
        </g>
        <g stroke="#000" class="edge">
            <path fill="none" d="M1252.42 320.84c-95.96 13.28-265.94 36.79-362.5 50.15"/>
            <path d="m890.69 374.42-10.39-2.1 9.43-4.83z"/>
        </g>
        <g stroke="#000" class="edge">
            <path fill="none" d="M1292.27 327.24c-18.57 9.63-42.34 21.95-62.43 32.36"/>
            <path d="m1231.55 362.66-10.49 1.5 7.27-7.71z"/>
        </g>
        <g stroke="#000" class="edge">
            <path fill="none" d="M1611.32 255.79c24.94 21.21 71.38 56.77 118.26 72.21 126.45 41.64 465.32 25.05 598 36 30.85 2.55 64.94 6.02 93.86 9.17"/>
            <path d="m2421.6 369.67 9.55 4.57-10.32 2.38z"/>
        </g>
        <g stroke="#000" class="edge">
            <path fill="none" d="M1582.34 256.11c-10.43 19.88-22.72 52.43-4.76 71.89 37.98 41.14 399.52 50.36 571.69 52.42"/>
            <path d="m2149.11 376.92 9.96 3.61-10.04 3.39z"/>
        </g>
        <g stroke="#000" class="edge">
            <path fill="none" d="M1620.31 255.42c40.23 23.49 113.16 64.72 142.27 72.58 171.38 46.27 620.94 23.32 798 36 31.63 2.27 66.44 5.54 96.49 8.6"/>
            <path d="m2657.25 369.1 9.58 4.51-10.3 2.46z"/>
        </g>
        <g stroke="#000" class="edge">
            <path fill="none" d="M1668.04 247.11c86.34 9.54 231.9 26.44 356.54 44.89 7.15 1.06 14.57 2.22 22 3.43"/>
            <path d="m2047.03 291.96 9.29 5.09-10.44 1.82z"/>
        </g>
        <g stroke="#000" class="edge">
            <path fill="none" d="M1522.09 248.86c-20.45 2.61-42.84 5.23-63.51 7.14-68.93 6.36-569.46-9.08-622 36-16.96 14.55-20.98 40.19-21.18 60.23"/>
            <path d="m818.89 351.94-3.26 10.08-3.73-9.91z"/>
        </g>
        <g stroke="#000" class="edge">
            <path fill="none" d="M1520.63 248.27c-114.54 14.79-325.67 42.24-327.05 43.73-14.72 15.89-14.84 41-11.93 60.51"/>
            <path d="m1185.09 351.84-1.61 10.47-5.27-9.19z"/>
        </g>
        <g stroke="#000" class="edge">
            <path fill="none" d="M1409.36 254.02c54.19 20.77 157.56 57.56 249.22 73.98 293.1 52.5 372.17 12.45 669 36 30.86 2.45 64.95 5.91 93.86 9.07"/>
            <path d="m2421.61 369.57 9.55 4.58-10.32 2.38z"/>
        </g>
        <g stroke="#000" class="edge">
            <path fill="none" d="M1387.88 255.98c23.86 24.66 66.46 67.91 75.7 72.02 61.36 27.29 495.96 44.17 686.66 50.34"/>
            <path d="m2150.23 374.84 9.88 3.82-10.11 3.18z"/>
        </g>
        <g stroke="#000" class="edge">
            <path fill="none" d="M1437.96 247.96c68.46 9.94 170.11 26.86 205.62 44.04 22.13 10.71 19.12 27 42 36 90.55 35.63 777.93 29.24 875 36 31.63 2.2 66.45 5.46 96.5 8.54"/>
            <path d="m2657.25 369.04 9.59 4.51-10.31 2.45z"/>
        </g>
        <g stroke="#000" class="edge">
            <path fill="none" d="M1436.04 248.61c19.42 2.67 40.82 5.38 60.54 7.39 234 23.86 294.48 7.86 528 36 7.63.92 15.57 2.03 23.49 3.25"/>
            <path d="m2048.38 291.75 9.32 5.03-10.42 1.88z"/>
        </g>
        <g stroke="#000" class="edge">
            <path fill="none" d="M1306.78 248.49c-19.34 2.65-40.6 5.38-60.2 7.51-49.1 5.33-409.52-.31-443 36-15.05 16.32-9.11 41.9-.83 61.46"/>
            <path d="m805.92 351.97 1.06 10.54-7.4-7.58z"/>
        </g>
        <g stroke="#000" class="edge">
            <path fill="none" d="M1302.29 246.74c-56.09 7.86-128.63 22.21-146.71 45.26-14.53 18.53-2.57 44.09 10.85 63.07"/>
            <path d="m1169.07 352.77 3.25 10.08-8.83-5.86z"/>
        </g>
        <g stroke="#000" class="edge">
            <path fill="none" d="M4021.99 172c138.73 9.27 424.39 29.83 522.59 48 12.5 2.31 162.52 45.62 249.9 70.96"/>
            <path d="m4795.25 287.54 8.62 6.14-10.57.58z"/>
        </g>
        <g stroke="#000" class="edge">
            <path fill="none" d="M3944.4 184.24c-1.11 19.7-5.82 51.79-23.82 71.76-16.47 18.26-39.94 30.28-62.87 38.17"/>
            <path d="m3858.92 297.46-10.59-.31 8.46-6.36z"/>
        </g>
        <g stroke="#000" class="edge">
            <path fill="none" d="M4021.38 172.35c52.89 3.58 124.79 8.25 188.2 11.65 46.25 2.48 797.11 6.71 833 36 38.27 31.23 33 95.31 25.9 132.52"/>
            <path d="m5071.95 353.03-5.48 9.07-1.38-10.5z"/>
        </g>
        <g stroke="#000" class="edge">
            <path fill="none" d="M4021.24 172.41c143.27 10.42 438.83 33.48 456.34 47.59 39.29 31.66-2.04 73.74 35 108 22.51 20.81 99.11 35.89 155.85 44.52"/>
            <path d="m4668.62 369.01 9.38 4.93-10.41 1.99z"/>
        </g>
        <g stroke="#000" class="edge">
            <path fill="none" d="M3863.35 168.36c-83.67 3.51-216.86 15.03-325.77 51.64-.18.06-188.82 107.95-189 108-148.82 43.66-542.38 23.9-697 36-30.99 2.42-65.23 5.9-94.22 9.08"/>
            <path d="m2557.95 376.54-10.33-2.38 9.55-4.58z"/>
        </g>
        <g stroke="#000" class="edge">
            <path fill="none" d="M4015.45 175.24c58.69 8.25 135.93 22.89 158.13 44.76 15.87 15.63 20.96 40.77 22.32 60.35"/>
            <path d="m4199.39 280.05-3.12 10.13-3.88-9.86z"/>
        </g>
        <g stroke="#000" class="edge">
            <path fill="none" d="M3862.88 167.4c-288.21 1.77-1247.14 10.75-1378.3 52.6-89.18 28.45-176.68 99.12-218.88 136.66"/>
            <path d="m2268.3 359.04-9.78 4.09 5.09-9.29z"/>
        </g>
        <g stroke="#000" class="edge">
            <path fill="none" d="M3862.86 166.08c-102.11.79-268.23 9.19-307.28 53.92-56.09 64.25 76.56 48 93 72 9.04 13.2 10.98 24.36 0 36-28.28 29.97-610.01 46.14-830.91 51.22"/>
            <path d="m2817.75 382.72-10.07-3.27 9.91-3.73z"/>
        </g>
        <g stroke="#000" class="edge">
            <path fill="none" d="M4022.61 171.6c144.78 8.93 444.3 29.4 487.97 48.4 4.42 1.92 45.08 38.71 73.17 64.37"/>
            <path d="m4585.88 281.58 5.02 9.33-9.74-4.17z"/>
        </g>
        <g stroke="#000" class="edge">
            <path fill="none" d="M3863.01 167.98c-296.88 3.79-1319.42 19.01-1644.43 52.02-8.58.87-17.54 2.05-26.4 3.38"/>
            <path d="m2192.95 226.8-10.42-1.9 9.33-5.01z"/>
        </g>
        <g stroke="#000" class="edge">
            <path fill="none" d="M4392.17 171.63c75.67 5.91 188.91 19.14 283.41 48.37 27.8 8.6 95.77 43.54 140.05 66.99"/>
            <path d="m4817.27 283.9 7.19 7.79-10.48-1.61z"/>
        </g>
        <g stroke="#000" class="edge">
            <path fill="none" d="M4224.79 172.71c-62.89 6.37-150.64 19.69-223.21 47.29-28.36 10.79-30.51 23.17-58 36-31.35 14.63-67.86 27-98.18 36.1"/>
            <path d="m3846.57 295.41-10.58-.53 8.6-6.18z"/>
        </g>
        <g stroke="#000" class="edge">
            <path fill="none" d="M4395.93 168.4c171.3 3.52 542.51 15.2 664.65 51.6 71.66 21.36 170.55 45.83 129 108-12.4 18.56-32.64 30.63-53.4 38.48"/>
            <path d="m5137.34 369.78-10.59-.07 8.32-6.55z"/>
        </g>
        <g stroke="#000" class="edge">
            <path fill="none" d="M4396.67 166.79c186.16.49 602.74 6.82 645.91 53.21 23.81 25.59-15.47 99.05-26 108-31.54 26.82-140.74 41.12-213.9 47.88"/>
            <path d="m4803.04 379.36-10.27-2.6 9.65-4.38z"/>
        </g>
        <g stroke="#000" class="edge">
            <path fill="none" d="M4224.12 172.5c-194.29 12.84-661.02 44.01-668.54 47.5-20.24 9.4-16.85 23.02-35 36-30.4 21.74-43.72 17.15-76 36-23.96 13.99-24.77 26.97-51 36-156.09 53.74-577.4 23.38-742 36-30.99 2.38-65.23 5.85-94.22 9.03"/>
            <path d="m2557.94 376.49-10.32-2.38 9.55-4.58z"/>
        </g>
        <g stroke="#000" class="edge">
            <path fill="none" d="M4296.37 184.21c-12.13 18.29-32.36 47.82-51.79 71.79-7.69 9.49-16.63 19.44-24.76 28.12"/>
            <path d="m4222.51 286.37-9.42 4.85 4.34-9.66z"/>
        </g>
        <g stroke="#000" class="edge">
            <path fill="none" d="M4225.19 172.97c-53.91 3.7-125.91 8.27-189.61 11.03-164.34 7.13-1320.53-4.34-1480 36-29.17 7.38-198.03 97.36-276.25 139.49"/>
            <path d="m2281.16 362.48-10.47 1.67 7.14-7.83z"/>
        </g>
        <g stroke="#000" class="edge">
            <path fill="none" d="M4385.29 175.06c56.11 7.47 133 21.13 197.29 44.94 30.24 11.2 109.81 44.11 126 72 8.03 13.84 11.16 24.54 0 36-33.46 34.37-1517.18 49.15-1890.47 52.32"/>
            <path d="m2818.15 383.82-10.03-3.41 9.97-3.59z"/>
        </g>
        <g stroke="#000" class="edge">
            <path fill="none" d="M4394.8 169.71c49.94 5.29 111.64 18.51 157.78 50.29 21.79 15.01 37.37 41.14 46.86 61.21"/>
            <path d="m4602.59 279.7.88 10.55-7.27-7.7z"/>
        </g>
        <g stroke="#000" class="edge">
            <path fill="none" d="M4225.2 173.06c-53.92 3.75-125.92 8.32-189.62 10.94-403.52 16.6-1414.99-2.62-1817 36-8.64.83-17.67 1.99-26.6 3.32"/>
            <path d="m2192.68 226.75-10.42-1.91 9.34-5z"/>
        </g>
        <g stroke="#000" class="edge">
            <path fill="none" d="M4225.19 172.99c-53.91 3.72-125.91 8.28-189.61 11.01-688.89 29.51-863.56-17.48-1551 36-121.14 9.42-150.05 24.38-271 36-287.58 27.63-628.91 43.14-792.75 49.52"/>
            <path d="m1420.98 309.02-10.12-3.11 9.85-3.89z"/>
        </g>
        <g class="node" transform="translate(4 400)">
            <ellipse cx="4914.58" cy="-162" fill="none" stroke="#000" rx="115.33" ry="18"/>
            <text x="4914.58" y="-156.95" font-family="Times,serif" font-size="14" text-anchor="middle">:app:core:calendar-compose</text>
        </g>
        <g stroke="#000" class="edge">
            <path fill="none" d="M4383.42 175.69c109.17 12.51 310.87 35.61 433.05 49.61"/>
            <path d="m4816.63 221.8 9.54 4.61-10.33 2.34z"/>
        </g>
        <g stroke="#000" class="edge">
            <path fill="none" d="M4159.08 245.08c160.39 13.63 535.97 45.57 549.5 46.92 17.79 1.78 36.77 3.84 55 5.9"/>
            <path d="m4763.77 294.4 9.54 4.6-10.33 2.35z"/>
        </g>
        <g stroke="#000" class="edge">
            <path fill="none" d="M4034.1 251.27c-51.06 11.72-128.23 29.43-183.62 42.15"/>
            <path d="m3851.37 296.8-10.53-1.17 8.96-5.65z"/>
        </g>
        <g stroke="#000" class="edge">
            <path fill="none" d="M4085.65 256.48c-1.18 20.56.49 54.09 20.93 71.52 58.92 50.24 618.7 31.46 696 36 56.44 3.31 119.78 7.46 169.69 10.83"/>
            <path d="m4972.43 371.33 9.74 4.17-10.22 2.82z"/>
        </g>
        <g stroke="#000" class="edge">
            <path fill="none" d="M4077.62 256.12c-10.12 19.89-21.97 52.45-4.04 71.88 39.33 42.61 426.7 50.98 589.02 52.61"/>
            <path d="m4662.41 377.11 9.97 3.59-10.04 3.41z"/>
        </g>
        <g stroke="#000" class="edge">
            <path fill="none" d="M4057.64 255.04c-46.09 24.56-130.75 69.08-146.06 72.96-135.76 34.43-1120.25 26.68-1260 36-31.14 2.08-65.53 5.52-94.59 8.77"/>
            <path d="m2557.55 376.23-10.33-2.35 9.54-4.61z"/>
        </g>
        <g stroke="#000" class="edge">
            <path fill="none" d="M4112.9 255.41c14.35 9.31 32.52 21.08 48.16 31.22"/>
            <path d="m4162.66 283.49 6.49 8.38-10.3-2.5z"/>
        </g>
        <g stroke="#000" class="edge">
            <path fill="none" d="M4025.94 249.12c-35.42 7.81-79.63 21.08-114.36 42.88-18.38 11.54-13.24 27.02-33 36-73.86 33.58-1379.01 31.16-1460 36-32.19 1.92-67.56 5.06-98.29 8.12"/>
            <path d="m2321 375.57-10.3-2.48 9.6-4.48z"/>
        </g>
        <g stroke="#000" class="edge">
            <path fill="none" d="M4074.91 255.87c-17.12 21.29-49.85 56.95-87.33 72.13-107.65 43.59-905.78 51.34-1169.61 52.71"/>
            <path d="m2818.09 384.21-10.02-3.45 9.98-3.55z"/>
        </g>
        <g stroke="#000" class="edge">
            <path fill="none" d="M4153.02 247.76c94.58 12.66 269.51 36.07 373.52 49.99"/>
            <path d="m4526.98 294.28 9.45 4.8-10.38 2.14z"/>
        </g>
        <g stroke="#000" class="edge">
            <path fill="none" d="M4017.76 245.88c-38.38 3.54-86.87 7.63-130.18 10.12-166.01 9.54-1318.41 40.98-1665.98 50.34"/>
            <path d="m2221.92 309.84-10.09-3.23 9.9-3.77z"/>
        </g>
        <g stroke="#000" class="edge">
            <path fill="none" d="M4451.5 249.18c84.05 12.41 226.21 33.4 317.82 46.93"/>
            <path d="m4769.63 292.62 9.38 4.92-10.4 2.01z"/>
        </g>
        <g stroke="#000" class="edge">
            <path fill="none" d="M4308.71 247.62c-111.67 13.03-322.91 37.67-440.92 51.44"/>
            <path d="m3868.51 302.5-10.34-2.32 9.53-4.63z"/>
        </g>
        <g stroke="#000" class="edge">
            <path fill="none" d="M4400.69 255.91c23.68 20.97 67.41 55.94 111.89 72.09 42.04 15.26 315.08 36.47 459.59 46.82"/>
            <path d="m4972.39 371.33 9.72 4.2-10.22 2.78z"/>
        </g>
        <g stroke="#000" class="edge">
            <path fill="none" d="M4389.02 256.15c8.65 20.56 26.09 54.41 52.56 71.85 36.01 23.72 149.79 39.08 224.23 46.87"/>
            <path d="m4665.85 371.36 9.59 4.5-10.3 2.46z"/>
        </g>
        <g stroke="#000" class="edge">
            <path fill="none" d="M4372.6 256.16c-14.11 23.56-39.84 63.92-55.02 71.84-82.08 42.82-1573.61 30.16-1666 36-31.15 1.97-65.54 5.4-94.6 8.66"/>
            <path d="m2557.55 376.12-10.33-2.34 9.53-4.61z"/>
        </g>
        <g stroke="#000" class="edge">
            <path fill="none" d="M4342 254.19c-28.12 10.53-65.78 24.62-95.86 35.88"/>
            <path d="m4247.44 293.32-10.59.23 8.14-6.78z"/>
        </g>
        <g stroke="#000" class="edge">
            <path fill="none" d="M4360.55 255.67c-12.91 10.08-29.31 23.44-42.97 36.33-15.79 14.9-13.22 27.07-33 36-94.5 42.66-1762.48 30.09-1866 36-32.2 1.84-67.56 4.96-98.29 8.03"/>
            <path d="m2321 375.48-10.3-2.47 9.59-4.5z"/>
        </g>
        <g stroke="#000" class="edge">
            <path fill="none" d="M4382.87 256.36c-.7 20.77-5.38 54.83-27.29 71.64-61.42 47.13-1213.4 52.4-1537.69 52.95"/>
            <path d="m2818.22 384.45-10-3.49 9.99-3.51z"/>
        </g>
        <g stroke="#000" class="edge">
            <path fill="none" d="M4429.82 253.5c35.5 10.9 84.33 25.89 122.29 37.55"/>
            <path d="m4553.03 287.67 8.53 6.28-10.59.41z"/>
        </g>
        <g stroke="#000" class="edge">
            <path fill="none" d="M4305.23 246.33c-39.38 3.46-88.03 7.35-131.65 9.67-630.86 33.62-789.46 19.48-1421 36-187.74 4.91-406.94 10.88-531.01 14.28"/>
            <path d="m2221.83 309.77-10.09-3.22 9.9-3.77z"/>
        </g>
        <g stroke="#000" class="edge">
            <path fill="none" d="M657.3 326.54c32.08 10.9 75.05 25.5 108.42 36.84"/>
            <path d="m766.41 359.92 8.34 6.53-10.59.09z"/>
        </g>
        <g stroke="#000" class="edge">
            <path fill="none" d="M3037.47 322.31c-8.26 1.97-16.82 3.95-24.89 5.69-71.12 15.38-152.96 30.64-209.53 40.81"/>
            <path d="m2803.68 372.25-10.46-1.68 9.23-5.21z"/>
        </g>
        <g stroke="#000" class="edge">
            <path fill="none" d="M922.88 327.59c-19.37 9.82-44.07 22.35-64.67 32.8"/>
            <path d="m860.01 363.4-10.5 1.4 7.33-7.64z"/>
        </g>
        <g stroke="#000" class="edge">
            <path fill="none" d="M4903.25 256.3c-7.2 8.14-15.95 18.01-23.91 27"/>
            <path d="m4881.98 285.6-9.25 5.16 4.01-9.8z"/>
        </g>
        <g stroke="#000" class="edge">
            <path fill="none" d="M4978.14 253.85c21.43 8.06 44.08 20.19 59.44 38.15 14.32 16.74 20.18 41.21 22.53 60.25"/>
            <path d="m5063.59 351.78-2.54 10.29-4.43-9.63z"/>
        </g>
        <g stroke="#000" class="edge">
            <path fill="none" d="M4958.99 255.19c15.61 8.48 31.8 20.55 40.59 36.81 7.61 14.07 10.15 23.63 0 36-24.4 29.74-126.03 43.11-196.35 48.89"/>
            <path d="m4803.55 380.37-10.25-2.7 9.7-4.27z"/>
        </g>
        <g stroke="#000" class="edge">
            <path fill="none" d="M4939.38 256.19c21.02 19.35 47.68 50.83 27.2 71.81-38.24 39.16-1746.69 50.47-2148.86 52.6"/>
            <path d="m2818.02 384.1-10.02-3.45 9.98-3.55z"/>
        </g>
    </g>
</svg>
