<svg xmlns="http://www.w3.org/2000/svg" width="10128" height="620pt" viewBox="0 0 7596.48 620">
    <g class="graph">
        <path fill="#fff" d="M0 620V0h7596.48v620z"/>
        <g class="node" transform="translate(4 616)">
            <ellipse cx="1665.58" cy="-594" fill="none" stroke="#000" rx="92.3" ry="18"/>
            <text x="1665.58" y="-588.95" font-family="Times,serif" font-size="14" text-anchor="middle">:app:platform:android</text>
        </g>
        <g class="node" transform="translate(4 616)">
            <ellipse cx="3875.58" cy="-522" fill="none" stroke="#000" rx="97.41" ry="18"/>
            <text x="3875.58" y="-516.95" font-family="Times,serif" font-size="14" text-anchor="middle">:app:platform:common</text>
        </g>
        <g stroke="red" stroke-width="2" class="edge">
            <path fill="none" d="M1759.99 25.86c352.49 11.17 1633.79 51.75 2013.1 63.77"/>
            <path fill="red" d="m3771.41 86.07 9.88 3.82-10.11 3.18z"/>
        </g>
        <g class="node" transform="translate(4 616)">
            <ellipse cx="2237.58" cy="-162" fill="none" stroke="#000" rx="95.88" ry="18"/>
            <text x="2237.58" y="-156.95" font-family="Times,serif" font-size="14" text-anchor="middle">:app:core:diary-service</text>
        </g>
        <g stroke="#000" class="edge">
            <path fill="none" d="M1692 39.86c88.63 66.63 414.73 311.76 518 389.4"/>
            <path d="m2211.9 426.31 5.89 8.81-10.09-3.21z"/>
        </g>
        <g class="node" transform="translate(4 616)">
            <ellipse cx="104.58" cy="-90" fill="none" stroke="#000" rx="104.58" ry="18"/>
            <text x="104.58" y="-84.95" font-family="Times,serif" font-size="14" text-anchor="middle">:app:core:holiday-service</text>
        </g>
        <g stroke="#000" class="edge">
            <path fill="none" d="M1579.75 26.59C1251.71 40.27 137.58 92.11 137.58 165v218c0 40.25-11.32 85.64-19.82 114.03"/>
            <path d="m121.19 497.78-6.29 8.52-.39-10.59z"/>
        </g>
        <g class="node" transform="translate(4 616)">
            <ellipse cx="3232.58" cy="-162" fill="none" stroke="#000" rx="74.89" ry="18"/>
            <text x="3232.58" y="-156.95" font-family="Times,serif" font-size="14" text-anchor="middle">:app:domain:fcm</text>
        </g>
        <g stroke="#000" class="edge">
            <path fill="none" d="M1756.3 28.3c266.9 17.41 1072.08 78.25 1305.28 191.7 87.73 42.68 142.59 153.28 164.32 205.25"/>
            <path d="m3229.05 423.71.53 10.58-7.01-7.94z"/>
        </g>
        <g stroke="#000" class="edge">
            <path fill="none" d="M3782.4 95.54c-269.29 2.02-1021.29 11.28-1264.82 52.46-126.25 21.35-274-39.04-274 89v74c0 39.26-.77 84.63-1.36 113.31"/>
            <path d="m2245.73 424.08-3.71 9.92-3.29-10.07z"/>
        </g>
        <g stroke="#000" class="edge">
            <path fill="none" d="M3782.14 95.63C3283.77 98.98 1037.47 115.82 893.58 148c-313.02 70-646.36 282.9-751.36 353.77"/>
            <path d="m144.28 504.61-10.24 2.72 6.31-8.51z"/>
        </g>
        <g stroke="#000" class="edge">
            <path fill="none" d="M3795.7 103.54c-55.55 7.49-129.3 20.98-191.12 44.46-175.86 66.79-267.27 54.66-364 216-10.77 17.96-11.27 41.8-9.35 60.29"/>
            <path d="m3234.68 423.68-2.12 10.37-4.81-9.43z"/>
        </g>
        <g class="node" transform="translate(4 616)">
            <ellipse cx="6286.58" cy="-306" fill="none" stroke="#000" rx="81.04" ry="18"/>
            <text x="6286.58" y="-300.95" font-family="Times,serif" font-size="14" text-anchor="middle">:app:core:compose</text>
        </g>
        <g stroke="#000" class="edge">
            <path fill="none" d="M3976.98 95.37c444.46 1.92 2260.28 12.22 2302.6 52.63 35.38 33.78 27.61 96.38 19.1 132.77"/>
            <path d="m6302.16 281.29-5.85 8.83-.94-10.55z"/>
        </g>
        <g class="node" transform="translate(4 616)">
            <ellipse cx="6158.58" cy="-234" fill="none" stroke="#000" rx="101" ry="18"/>
            <text x="6158.58" y="-228.95" font-family="Times,serif" font-size="14" text-anchor="middle">:app:core:design-system</text>
        </g>
        <g stroke="#000" class="edge">
            <path fill="none" d="M3977.39 94.63c236.22-.05 856.37 4.9 1371.19 53.37 210.83 19.85 263.24 31.02 471 72 133.25 26.29 190.18-11.9 297 72 19.44 15.27 31.47 41.01 38.33 60.89"/>
            <path d="m6158.22 351.77-.31 10.59-6.36-8.48z"/>
        </g>
        <g class="node" transform="translate(4 616)">
            <ellipse cx="6883.58" cy="-306" fill="none" stroke="#000" rx="86.67" ry="18"/>
            <text x="6883.58" y="-300.95" font-family="Times,serif" font-size="14" text-anchor="middle">:app:core:navigation</text>
        </g>
        <g stroke="#000" class="edge">
            <path fill="none" d="M3977.2 95.26c436.26 1.42 2196.45 9.75 2439.38 52.74 162.06 28.68 343.67 103.79 426.05 140.38"/>
            <path d="m6844.03 285.17 7.7 7.28-10.56-.89z"/>
        </g>
        <g class="node" transform="translate(4 616)">
            <ellipse cx="6289.58" cy="-162" fill="none" stroke="#000" rx="59.54" ry="18"/>
            <text x="6289.58" y="-156.95" font-family="Times,serif" font-size="14" text-anchor="middle">:library:color</text>
        </g>
        <g stroke="#000" class="edge">
            <path fill="none" d="M3977.1 95.46c487.06 2.47 2644.49 15.44 2941.48 52.54 138.64 17.32 219.26-37.52 306 72 90.69 114.51-133.7 142.94-275 180-109.02 28.59-439.59 44.59-585.5 50.43"/>
            <path d="m6364.28 453.92-10.13-3.1 9.85-3.89z"/>
        </g>
        <g class="node" transform="translate(4 616)">
            <ellipse cx="5435.58" cy="-18" fill="none" stroke="#000" rx="62.1" ry="18"/>
            <text x="5435.58" y="-12.95" font-family="Times,serif" font-size="14" text-anchor="middle">:library:kotlin</text>
        </g>
        <g stroke="#000" class="edge">
            <path fill="none" d="M3976.85 95.62c500.81 3.33 2777.38 20.16 3090.73 52.38 210.18 21.61 467-122.29 467 89v218c0 44.21 221.38 1.1-205 89-179.91 37.09-1490.23 49.84-1816.56 52.46"/>
            <path d="m5513.38 599.95-10.03-3.42 9.97-3.58z"/>
        </g>
        <g class="node" transform="translate(4 616)">
            <ellipse cx="6699.58" cy="-306" fill="none" stroke="#000" rx="79.5" ry="18"/>
            <text x="6699.58" y="-300.95" font-family="Times,serif" font-size="14" text-anchor="middle">:library:navigation</text>
        </g>
        <g stroke="#000" class="edge">
            <path fill="none" d="M3977.2 94.78c429.21-.67 2137.72.08 2371.38 53.22 123.77 28.15 256.73 101.47 318.98 138.67"/>
            <path d="m6669.24 283.59 6.75 8.16-10.37-2.17z"/>
        </g>
        <g class="node" transform="translate(4 616)">
            <ellipse cx="3027.58" cy="-18" fill="none" stroke="#000" rx="78.99" ry="18"/>
            <text x="3027.58" y="-12.95" font-family="Times,serif" font-size="14" text-anchor="middle">:library:coroutines</text>
        </g>
        <g stroke="#000" class="edge">
            <path fill="none" d="M3782.43 95.72c-406.59 3.22-1955.04 17.73-2052.85 52.28-61.27 21.64-116 24.02-116 89v146c0 40.45 7.18 58.17-19 89-28.42 33.47-67.25-.27-92 36-9.02 13.22-11.17 24.54 0 36 27.52 28.23 1379.73 32.48 1419 36 12.23 1.1 25.17 2.69 37.71 4.48"/>
            <path d="m2959.78 581.02 9.38 4.92-10.41 2z"/>
        </g>
        <g class="node" transform="translate(4 616)">
            <ellipse cx="4553.58" cy="-18" fill="none" stroke="#000" rx="72.85" ry="18"/>
            <text x="4553.58" y="-12.95" font-family="Times,serif" font-size="14" text-anchor="middle">:library:datetime</text>
        </g>
        <g stroke="#000" class="edge">
            <path fill="none" d="M3976.42 96.2c240.94 3.52 854.11 15.94 939.16 51.8 173.58 73.2 235.58 115.37 311 288 20.62 47.19 1.54 80.49-42 108-44.92 28.39-383.79 44.24-543.8 50.21"/>
            <path d="m4641.21 597.7-10.12-3.13 9.86-3.87z"/>
        </g>
        <g class="node" transform="translate(4 616)">
            <ellipse cx="6474.58" cy="-306" fill="none" stroke="#000" rx="89.23" ry="18"/>
            <text x="6474.58" y="-300.95" font-family="Times,serif" font-size="14" text-anchor="middle">:library:shimmer-m3</text>
        </g>
        <g stroke="#000" class="edge">
            <path fill="none" d="M3977.18 95.2c439.47 1.16 2217.96 8.55 2327.4 52.8 69.12 27.95 127.54 96.96 155.8 134.92"/>
            <path d="m6462.94 280.5 3.07 10.14-8.72-6.01z"/>
        </g>
        <g class="node" transform="translate(4 616)">
            <ellipse cx="2977.58" cy="-378" fill="none" stroke="#000" rx="71.31" ry="18"/>
            <text x="2977.58" y="-372.95" font-family="Times,serif" font-size="14" text-anchor="middle">:app:data:memo</text>
        </g>
        <g stroke="#000" class="edge">
            <path fill="none" d="M3782.69 96.33c-174.01 3.31-532.37 14.53-651.11 51.67-45.18 14.13-91.12 44.19-120.04 65.46"/>
            <path d="m3013.73 216.2-10.11 3.19 5.91-8.8z"/>
        </g>
        <g class="node" transform="translate(4 616)">
            <ellipse cx="3064.58" cy="-306" fill="none" stroke="#000" rx="58.52" ry="18"/>
            <text x="3064.58" y="-300.95" font-family="Times,serif" font-size="14" text-anchor="middle">:app:data:tag</text>
        </g>
        <g stroke="#000" class="edge">
            <path fill="none" d="M3783.92 97.68c-179.45 5.7-553.22 20.95-604.34 50.32-52.16 29.96-85.29 95.57-100.74 133.13"/>
            <path d="m3082.1 282.4-6.94 8.01.43-10.59z"/>
        </g>
        <g class="node" transform="translate(4 616)">
            <ellipse cx="2579.58" cy="-162" fill="none" stroke="#000" rx="75.92" ry="18"/>
            <text x="2579.58" y="-156.95" font-family="Times,serif" font-size="14" text-anchor="middle">:app:data:account</text>
        </g>
        <g stroke="#000" class="edge">
            <path fill="none" d="M3782.22 95.74c-253.74 2.47-922 12.71-1013.64 52.26-126.98 54.8-169.92 88.71-224 216-6.26 14.73-4.99 20.8 0 36 3.18 9.67 8.87 19.04 14.94 27.13"/>
            <path d="m2562.17 424.84 3.57 9.98-9.01-5.57z"/>
        </g>
        <g class="node" transform="translate(4 616)">
            <ellipse cx="2370.58" cy="-378" fill="none" stroke="#000" rx="83.6" ry="18"/>
            <text x="2370.58" y="-372.95" font-family="Times,serif" font-size="14" text-anchor="middle">:app:data:credential</text>
        </g>
        <g stroke="#000" class="edge">
            <path fill="none" d="M3782.19 95.86c-250.65 2.76-913.41 13.58-1129.61 52.14-83.02 14.81-175.57 47.97-230.19 69.37"/>
            <path d="m2423.98 220.5-10.58.43 8.01-6.94z"/>
        </g>
        <g class="node" transform="translate(4 616)">
            <ellipse cx="1712.58" cy="-162" fill="none" stroke="#000" rx="74.89" ry="18"/>
            <text x="1712.58" y="-156.95" font-family="Times,serif" font-size="14" text-anchor="middle">:app:data:holiday</text>
        </g>
        <g stroke="#000" class="edge">
            <path fill="none" d="M3782.31 95.61c-318.03 2.35-1325.08 12.81-1647.73 52.39-185.08 22.7-410-97.47-410 89v74c0 39.32-3.1 84.67-5.44 113.33"/>
            <path d="m1722.65 424.35-4.32 9.67-2.65-10.26z"/>
        </g>
        <g class="node" transform="translate(4 616)">
            <ellipse cx="1829.58" cy="-234" fill="none" stroke="#000" rx="73.87" ry="18"/>
            <text x="1829.58" y="-228.95" font-family="Times,serif" font-size="14" text-anchor="middle">:app:data:backup</text>
        </g>
        <g stroke="#000" class="edge">
            <path fill="none" d="M3781.92 95.32c-331.85 1.5-1403.73 9.63-1552.34 52.68-151.58 43.91-305.39 159.11-367.44 209.19"/>
            <path d="m1864.46 359.81-9.97 3.6 5.55-9.03z"/>
        </g>
        <g class="node" transform="translate(4 616)">
            <ellipse cx="2423.58" cy="-306" fill="none" stroke="#000" rx="65.68" ry="18"/>
            <text x="2423.58" y="-300.95" font-family="Times,serif" font-size="14" text-anchor="middle">:app:data:fetch</text>
        </g>
        <g stroke="#000" class="edge">
            <path fill="none" d="M3782.6 96.54c-265.1 4.61-989.03 19.95-1092.02 51.46-94.59 28.94-189.64 99.98-235.22 137.27"/>
            <path d="m2457.77 287.82-9.94 3.68 5.47-9.07z"/>
        </g>
        <g class="node" transform="translate(4 616)">
            <ellipse cx="3333.58" cy="-234" fill="none" stroke="#000" rx="62.1" ry="18"/>
            <text x="3333.58" y="-228.95" font-family="Times,serif" font-size="14" text-anchor="middle">:app:data:fcm</text>
        </g>
        <g stroke="#000" class="edge">
            <path fill="none" d="M3809.17 106.82c-40.55 8.36-91.8 21.61-134.59 41.18-125.92 57.59-255.2 162.32-309.92 209.2"/>
            <path d="m3367.23 359.6-9.85 3.89 5.28-9.19z"/>
        </g>
        <g class="node" transform="translate(4 616)">
            <ellipse cx="3945.58" cy="-450" fill="none" stroke="#000" rx="78.48" ry="18"/>
            <text x="3945.58" y="-444.95" font-family="Times,serif" font-size="14" text-anchor="middle">:app:data:calendar</text>
        </g>
        <g stroke="red" stroke-width="2" class="edge">
            <path fill="none" d="M3896.52 111.95c8.52 8.51 18.99 18.98 28.38 28.37"/>
            <path fill="red" d="m3926.05 136.52 4.6 9.55-9.55-4.6z"/>
        </g>
        <g class="node" transform="translate(4 616)">
            <ellipse cx="3771.58" cy="-234" fill="none" stroke="#000" rx="70.29" ry="18"/>
            <text x="3771.58" y="-228.95" font-family="Times,serif" font-size="14" text-anchor="middle">:app:data:buddy</text>
        </g>
        <g stroke="#000" class="edge">
            <path fill="none" d="M3873.23 112.46c-17.45 47.98-66.24 182.15-87.51 240.66"/>
            <path d="m3789.07 354.14-6.71 8.21.13-10.6z"/>
        </g>
        <g class="node" transform="translate(4 616)">
            <ellipse cx="4603.58" cy="-306" fill="none" stroke="#000" rx="84.11" ry="18"/>
            <text x="4603.58" y="-300.95" font-family="Times,serif" font-size="14" text-anchor="middle">:app:domain:memo</text>
        </g>
        <g stroke="#000" class="edge">
            <path fill="none" d="M3976.71 96.1c90.31 3.5 227.57 15.16 340.87 51.9 100.86 32.71 206.66 101.66 258.11 137.79"/>
            <path d="m4577.58 282.84 6.13 8.64-10.18-2.93z"/>
        </g>
        <g class="node" transform="translate(4 616)">
            <ellipse cx="4766.58" cy="-234" fill="none" stroke="#000" rx="71.31" ry="18"/>
            <text x="4766.58" y="-228.95" font-family="Times,serif" font-size="14" text-anchor="middle">:app:domain:tag</text>
        </g>
        <g stroke="#000" class="edge">
            <path fill="none" d="M3975.63 97.55c100.54 4.47 262.34 16.73 397.95 50.45 167.23 41.58 237.33 22.97 360 144 16.57 16.35 26.06 41.22 31.27 60.51"/>
            <path d="m4768.24 351.66-1.03 10.55-5.77-8.89z"/>
        </g>
        <g class="node" transform="translate(4 616)">
            <ellipse cx="4784.58" cy="-90" fill="none" stroke="#000" rx="88.71" ry="18"/>
            <text x="4784.58" y="-84.95" font-family="Times,serif" font-size="14" text-anchor="middle">:app:domain:account</text>
        </g>
        <g stroke="#000" class="edge">
            <path fill="none" d="M3974.06 98.72c247.45 10.99 895.52 48.37 895.52 138.28v74c0 73.84-7.46 95.22-41 161-4.79 9.4-11.27 18.86-17.62 27.13"/>
            <path d="m4813.87 501.09-8.98 5.62 3.51-10z"/>
        </g>
        <g class="node" transform="translate(4 616)">
            <ellipse cx="3580.58" cy="-306" fill="none" stroke="#000" rx="96.39" ry="18"/>
            <text x="3580.58" y="-300.95" font-family="Times,serif" font-size="14" text-anchor="middle">:app:domain:credential</text>
        </g>
        <g stroke="#000" class="edge">
            <path fill="none" d="M3814.74 107.79c-30.67 8.15-66.71 20.9-95.16 40.21-53.01 35.99-96.84 98.39-119.12 134.02"/>
            <path d="m3603.5 283.75-8.21 6.69 2.25-10.35z"/>
        </g>
        <g class="node" transform="translate(4 616)">
            <ellipse cx="3257.58" cy="-90" fill="none" stroke="#000" rx="87.69" ry="18"/>
            <text x="3257.58" y="-84.95" font-family="Times,serif" font-size="14" text-anchor="middle">:app:domain:holiday</text>
        </g>
        <g stroke="#000" class="edge">
            <path fill="none" d="M3783.02 96.68c-187.27 4-593.27 16.52-728.44 51.32-72.78 18.74-112.73 8.55-153 72-64.76 102.04-104.59 73.49 157 252 33.68 22.98 76.72 36 114.5 43.37"/>
            <path d="m3173.41 511.88 9.2 5.24-10.47 1.64z"/>
        </g>
        <g class="node" transform="translate(4 616)">
            <ellipse cx="4452.58" cy="-162" fill="none" stroke="#000" rx="86.67" ry="18"/>
            <text x="4452.58" y="-156.95" font-family="Times,serif" font-size="14" text-anchor="middle">:app:domain:backup</text>
        </g>
        <g stroke="#000" class="edge">
            <path fill="none" d="M3957.84 104.92c122.51 17.75 345.74 59.98 345.74 132.08v74c0 58 59.79 98.97 104.62 121.55"/>
            <path d="m4409.54 429.31 7.46 7.51-10.52-1.22z"/>
        </g>
        <g class="node" transform="translate(4 616)">
            <ellipse cx="3567.58" cy="-234" fill="none" stroke="#000" rx="78.48" ry="18"/>
            <text x="3567.58" y="-228.95" font-family="Times,serif" font-size="14" text-anchor="middle">:app:domain:fetch</text>
        </g>
        <g stroke="#000" class="edge">
            <path fill="none" d="M3867.09 112.32c-34.98 48.19-134.24 182.48-177.51 215.68-18.82 14.43-42.18 25.98-63.15 34.56"/>
            <path d="m3627.72 365.82-10.59.4 8.02-6.92z"/>
        </g>
        <g class="node" transform="translate(4 616)">
            <ellipse cx="4180.58" cy="-378" fill="none" stroke="#000" rx="91.27" ry="18"/>
            <text x="4180.58" y="-372.95" font-family="Times,serif" font-size="14" text-anchor="middle">:app:domain:calendar</text>
        </g>
        <g stroke="#000" class="edge">
            <path fill="none" d="M3952.3 106.21c39.25 7.99 87.63 21.1 127.28 41.79 31.51 16.45 61.85 43.83 81.75 63.89"/>
            <path d="m4163.68 209.28 4.45 9.61-9.48-4.73z"/>
        </g>
        <g class="node" transform="translate(4 616)">
            <ellipse cx="5096.58" cy="-162" fill="none" stroke="#000" rx="83.08" ry="18"/>
            <text x="5096.58" y="-156.95" font-family="Times,serif" font-size="14" text-anchor="middle">:app:domain:buddy</text>
        </g>
        <g stroke="#000" class="edge">
            <path fill="none" d="M3977.43 94.55c237.8-.3 832.08 3.97 906.15 53.45 73.73 49.25 33.96 108.22 86 180 28.97 39.96 71.68 77.92 100.38 101.31"/>
            <path d="m5071.97 426.43 5.6 8.99-9.99-3.53z"/>
        </g>
        <g class="node" transform="translate(4 616)">
            <ellipse cx="5984.58" cy="-450" fill="none" stroke="#000" rx="86.15" ry="18"/>
            <text x="5984.58" y="-444.95" font-family="Times,serif" font-size="14" text-anchor="middle">:app:core:coroutines</text>
        </g>
        <g stroke="#000" class="edge">
            <path fill="none" d="M3976.9 95.73c348.61 2.92 1534.15 15.39 1911.68 52.27 8.75.85 17.89 2.02 26.93 3.35"/>
            <path d="m5916.04 147.89 9.35 4.98-10.42 1.94z"/>
        </g>
        <g class="node" transform="translate(4 616)">
            <ellipse cx="2673.58" cy="-234" fill="none" stroke="#000" rx="123.52" ry="18"/>
            <text x="2673.58" y="-228.95" font-family="Times,serif" font-size="14" text-anchor="middle">:app:core:filter-database-room</text>
        </g>
        <g stroke="#000" class="edge">
            <path fill="none" d="M3782.1 94.64c-247.25-.17-885.07 4.21-966.52 53.36-76.93 46.42-115.91 153.39-130.72 204.63"/>
            <path d="m2688.28 353.38-6.05 8.7-.69-10.58z"/>
        </g>
        <g class="node" transform="translate(4 616)">
            <ellipse cx="1108.58" cy="-234" fill="none" stroke="#000" rx="132.22" ry="18"/>
            <text x="1108.58" y="-228.95" font-family="Times,serif" font-size="14" text-anchor="middle">:app:core:backup-database-room</text>
        </g>
        <g stroke="#000" class="edge">
            <path fill="none" d="M3782.23 95.74c-434.27 3.49-2178.31 19.5-2289.65 52.26-146.53 43.11-292.99 158.24-352.39 208.72"/>
            <path d="m1142.76 359.12-9.87 3.85 5.31-9.16z"/>
        </g>
        <g class="node" transform="translate(4 616)">
            <ellipse cx="1423.58" cy="-162" fill="none" stroke="#000" rx="158.32" ry="18"/>
            <text x="1423.58" y="-156.95" font-family="Times,serif" font-size="14" text-anchor="middle">:app:core:account-preferences-datastore</text>
        </g>
        <g stroke="#000" class="edge">
            <path fill="none" d="M3782.35 95.87C3353.01 99.91 1646 117.82 1599.58 148c-36.67 23.84-42 45.26-42 89v74c0 42.67-7.84 56.95-36 89-11.15 12.69-26.11 23.02-40.82 31.07"/>
            <path d="m1482.51 434.11-10.49 1.48 7.28-7.7z"/>
        </g>
        <g class="node" transform="translate(4 616)">
            <ellipse cx="1383.58" cy="-234" fill="none" stroke="#000" rx="124.54" ry="18"/>
            <text x="1383.58" y="-228.95" font-family="Times,serif" font-size="14" text-anchor="middle">:app:core:diary-database-room</text>
        </g>
        <g stroke="#000" class="edge">
            <path fill="none" d="M3782.08 94.71c-429.88-.95-2139.05-1.26-2238.5 53.29-81.94 44.95-128.71 153.52-146.98 205.01"/>
            <path d="m1399.99 353.91-6.56 8.32-.06-10.6z"/>
        </g>
        <g class="node" transform="translate(4 616)">
            <ellipse cx="498.58" cy="-162" fill="none" stroke="#000" rx="157.3" ry="18"/>
            <text x="498.58" y="-156.95" font-family="Times,serif" font-size="14" text-anchor="middle">:app:core:holiday-preferences-datastore</text>
        </g>
        <g stroke="#000" class="edge">
            <path fill="none" d="M3781.77 94.52C3273.04 92.65 952.58 92.04 952.58 237v74c0 46.04-14.57 63.65-53 89-11.6 7.65-163.64 26.43-276.13 39.44"/>
            <path d="m624.19 442.88-10.33-2.33 9.53-4.62z"/>
        </g>
        <g class="node" transform="translate(4 616)">
            <ellipse cx="753.58" cy="-234" fill="none" stroke="#000" rx="133.24" ry="18"/>
            <text x="753.58" y="-228.95" font-family="Times,serif" font-size="14" text-anchor="middle">:app:core:holiday-database-room</text>
        </g>
        <g stroke="#000" class="edge">
            <path fill="none" d="M3782.42 95.6c-501.77 3.27-2778.84 19.86-2843.84 52.4-45.38 22.72-128.96 149.88-164.41 206.18"/>
            <path d="m777.21 355.92-8.28 6.62 2.34-10.33z"/>
        </g>
        <g class="node" transform="translate(4 616)">
            <ellipse cx="6926.58" cy="-378" fill="none" stroke="#000" rx="81.55" ry="18"/>
            <text x="6926.58" y="-372.95" font-family="Times,serif" font-size="14" text-anchor="middle">:app:feature:memo</text>
        </g>
        <g stroke="#000" class="edge">
            <path fill="none" d="M3976.81 95.45C4465.33 97.89 6634 110.77 6771.58 148c48.22 13.05 97.45 43.86 128.1 65.56"/>
            <path d="m6901.66 210.68 6.06 8.69-10.16-3.02z"/>
        </g>
        <g class="node" transform="translate(4 616)">
            <ellipse cx="5539.58" cy="-378" fill="none" stroke="#000" rx="68.75" ry="18"/>
            <text x="5539.58" y="-372.95" font-family="Times,serif" font-size="14" text-anchor="middle">:app:feature:tag</text>
        </g>
        <g stroke="#000" class="edge">
            <path fill="none" d="M3977.4 94.2c207.21-.59 705.29 3.88 1119.18 53.8 140.4 16.93 302.63 53.6 387.78 74.2"/>
            <path d="m5484.99 218.75 8.89 5.76-10.54 1.04z"/>
        </g>
        <g class="node" transform="translate(4 616)">
            <ellipse cx="6177.58" cy="-450" fill="none" stroke="#000" rx="88.71" ry="18"/>
            <text x="6177.58" y="-444.95" font-family="Times,serif" font-size="14" text-anchor="middle">:app:feature:calendar</text>
        </g>
        <g stroke="#000" class="edge">
            <path fill="none" d="M3976.98 95.43C4347.06 97.35 5666 106.99 6083.58 148c7.97.78 16.28 1.84 24.53 3.05"/>
            <path d="m6108.45 147.56 9.35 4.98-10.42 1.94z"/>
        </g>
        <g class="node" transform="translate(4 616)">
            <ellipse cx="5356.58" cy="-378" fill="none" stroke="#000" rx="80.52" ry="18"/>
            <text x="5356.58" y="-372.95" font-family="Times,serif" font-size="14" text-anchor="middle">:app:feature:buddy</text>
        </g>
        <g stroke="#000" class="edge">
            <path fill="none" d="M3975.8 97.17c233.61 5.67 825.87 22.44 1021.78 50.83 110.18 15.97 235.72 50.51 306.55 71.55"/>
            <path d="m5304.98 216.16 8.58 6.22-10.58.48z"/>
        </g>
        <g class="node" transform="translate(4 616)">
            <ellipse cx="7134.58" cy="-378" fill="none" stroke="#000" rx="76.94" ry="18"/>
            <text x="7134.58" y="-372.95" font-family="Times,serif" font-size="14" text-anchor="middle">:app:feature:more</text>
        </g>
        <g stroke="#000" class="edge">
            <path fill="none" d="M3976.94 95.25c477.8 1.42 2563.12 10.05 2849.64 52.75 94.67 14.11 201.12 48.7 262.01 70.37"/>
            <path d="m7089.76 215.07 8.23 6.67-10.6-.08z"/>
        </g>
        <g class="node" transform="translate(4 616)">
            <ellipse cx="5720.58" cy="-378" fill="none" stroke="#000" rx="86.15" ry="18"/>
            <text x="5720.58" y="-372.95" font-family="Times,serif" font-size="14" text-anchor="middle">:app:feature:account</text>
        </g>
        <g stroke="#000" class="edge">
            <path fill="none" d="M3977.13 94.42c221.06-.33 776.82 4.29 1238.45 53.58 158.74 16.95 342.74 53.34 440.18 73.95"/>
            <path d="m5656.39 218.51 9.05 5.5-10.51 1.35z"/>
        </g>
        <g class="node" transform="translate(4 616)">
            <ellipse cx="4121.58" cy="-162" fill="none" stroke="#000" rx="112.26" ry="18"/>
            <text x="4121.58" y="-156.95" font-family="Times,serif" font-size="14" text-anchor="middle">:library:firebase-messaging</text>
        </g>
        <g stroke="#000" class="edge">
            <path fill="none" d="M3955.97 105.49c28.67 7.51 59.4 20.4 80.61 42.51 38.81 40.46 72.11 209 84.17 276.68"/>
            <path d="m4124.15 423.79-1.72 10.45-5.18-9.24z"/>
        </g>
        <g class="node" transform="translate(4 616)">
            <ellipse cx="2837.58" cy="-18" fill="none" stroke="#000" rx="71.31" ry="18"/>
            <text x="2837.58" y="-12.95" font-family="Times,serif" font-size="14" text-anchor="middle">:app:core:model</text>
        </g>
        <g stroke="#000" class="edge">
            <path fill="none" d="M2245.86 472.44c6.12 20.84 19.52 54.99 44.72 71.56 38.33 25.21 326.05 42.3 469.78 49.36"/>
            <path d="m2760.39 589.85 9.81 3.98-10.15 3.01z"/>
        </g>
        <g class="node" transform="translate(4 616)">
            <ellipse cx="3867.58" cy="-18" fill="none" stroke="#000" rx="85.13" ry="18"/>
            <text x="3867.58" y="-12.95" font-family="Times,serif" font-size="14" text-anchor="middle">:common:exception</text>
        </g>
        <g stroke="#000" class="edge">
            <path fill="none" d="M2323.95 463.54c161.27 16.58 530.06 53.85 840.63 80.46 220.75 18.92 480.61 37.43 615.44 46.76"/>
            <path d="m3780.24 587.27 9.73 4.18-10.21 2.8z"/>
        </g>
        <g class="node" transform="translate(4 616)">
            <ellipse cx="2117.58" cy="-90" fill="none" stroke="#000" rx="121.98" ry="18"/>
            <text x="2117.58" y="-84.95" font-family="Times,serif" font-size="14" text-anchor="middle">:app:core:account-preferences</text>
        </g>
        <g stroke="#000" class="edge">
            <path fill="none" d="M2213.14 471.59c-15.76 9.19-35.58 20.75-52.74 30.77"/>
            <path d="m2162.36 505.27-10.41 2.01 6.88-8.06z"/>
        </g>
        <g class="node" transform="translate(4 616)">
            <ellipse cx="2368.58" cy="-90" fill="none" stroke="#000" rx="72.85" ry="18"/>
            <text x="2368.58" y="-84.95" font-family="Times,serif" font-size="14" text-anchor="middle">:common:model</text>
        </g>
        <g stroke="#000" class="edge">
            <path fill="none" d="M2272.29 471.41c18.08 9.66 41.14 21.98 60.58 32.37"/>
            <path d="m2334.45 500.66 7.17 7.8-10.46-1.63z"/>
        </g>
        <g stroke="#000" class="edge">
            <path fill="none" d="M183.01 539.05c14.73 1.99 30.11 3.78 44.57 4.95 509.2 41.38 2143.96 50.97 2531.19 52.68"/>
            <path d="m2758.63 593.18 9.99 3.54-10.02 3.46z"/>
        </g>
        <g stroke="#000" class="edge">
            <path fill="none" d="M3302.55 462.91c86.07 10.34 241.32 29 374.03 45.09 131.12 15.9 163.33 25.61 295 36 275.58 21.75 1137.19 44.67 1394.64 51.18"/>
            <path d="m5366.24 591.68 9.9 3.75-10.08 3.25z"/>
        </g>
        <g stroke="#000" class="edge">
            <path fill="none" d="M3173.89 464.18c-84.38 12.66-224.86 34.91-232.31 43.82-10.27 12.27-7.94 22.11 0 36 8.26 14.45 22.17 25.36 36.62 33.4"/>
            <path d="m2979.56 574.16 7.32 7.67-10.5-1.43z"/>
        </g>
        <g stroke="#000" class="edge">
            <path fill="none" d="M3308.63 459.39c77.83 6.03 204.92 19.61 310.95 48.61 39.97 10.93 45.65 26.58 86 36 144.28 33.67 582.89 47.08 768.08 51.33"/>
            <path d="m4473.52 591.83 9.92 3.72-10.08 3.28z"/>
        </g>
        <g stroke="#000" class="edge">
            <path fill="none" d="M3309.87 458.31c253.78 11.44 1095.11 49.39 1381.93 62.33"/>
            <path d="m4691.66 517.12 9.83 3.95-10.15 3.05z"/>
        </g>
        <g stroke="#000" class="edge">
            <path fill="none" d="M3172.63 463.64c-20.17 2.7-42.54 5.68-63.05 8.36-62.64 8.19-240.25-11.42-282 36-14.67 16.66-8.77 42.21-.6 61.66"/>
            <path d="m2830.12 568.1 1.02 10.55-7.38-7.61z"/>
        </g>
        <g stroke="#000" class="edge">
            <path fill="none" d="M3275.75 469.71c53.48 19.57 152.67 54.04 239.83 74.29 90.85 21.11 196.78 35.62 269.33 44.05"/>
            <path d="m3785.22 584.56 9.53 4.62-10.33 2.34z"/>
        </g>
        <g stroke="#000" class="edge">
            <path fill="none" d="M6261.21 327.06c-17.39 9.51-39.67 21.69-58.65 32.07"/>
            <path d="m6204.48 362.08-10.45 1.72 7.09-7.87z"/>
        </g>
        <g stroke="#000" class="edge">
            <path fill="none" d="M6193.62 399.59c18.48 9.87 42.06 22.47 61.68 32.95"/>
            <path d="m6256.93 429.45 7.17 7.8-10.47-1.63z"/>
        </g>
        <g stroke="#000" class="edge">
            <path fill="none" d="M6137.56 399.81c-53.18 34.66-182.55 113.4-303.98 144.19-114.75 29.09-926.15 46.53-1191.94 51.51"/>
            <path d="m4641.73 599.01-10.06-3.31 9.93-3.69z"/>
        </g>
        <g stroke="#000" class="edge">
            <path fill="none" d="M6849.62 326.63c-77.19 31.29-258.53 102.33-416.04 145.37-161.18 44.04-202.99 53-369 72-278.85 31.91-1147.8 47.55-1422.72 51.78"/>
            <path d="m4641.95 599.28-10.05-3.34 9.95-3.66z"/>
        </g>
        <g stroke="#000" class="edge">
            <path fill="none" d="M6679.22 327.57c-28.71 19.06-78.27 50.56-123.64 72.43-82.47 39.76-104.42 48.86-193 72-201.92 52.74-256.29 51.85-464 72-473.36 45.93-1044.41 52.31-1256.42 53.01"/>
            <path d="m4642.35 600.51-10.01-3.47 9.99-3.53z"/>
        </g>
        <g stroke="#000" class="edge">
            <path fill="none" d="M6456.63 327.85c-33.09 25.39-95.83 73.55-133.09 102.16"/>
            <path d="m6325.91 432.6-10.06 3.31 5.8-8.87z"/>
        </g>
        <g stroke="#000" class="edge">
            <path fill="none" d="M2971.12 256.08c-20.69 32.45-69.93 103.37-128.54 143.92-38.16 26.4-71.44-2.05-98 36-9.16 13.12-8.77 22.62 0 36 45.71 69.76 139.74 100.8 207.74 114.48"/>
            <path d="m2952.78 583 9.16 5.32-10.48 1.56z"/>
        </g>
        <g stroke="#000" class="edge">
            <path fill="none" d="M2982.96 256.47c1.98 18.5 6.7 48.21 17.62 71.53 34.49 73.68 41.47 105.25 113 144 161.23 87.33 237.25-22.61 411 36 28.39 9.58 28.45 26.89 57 36 83.73 26.71 671.11 44.9 892.15 50.87"/>
            <path d="m4473.82 591.37 9.91 3.76-10.09 3.23z"/>
        </g>
        <g stroke="#000" class="edge">
            <path fill="none" d="M3051.45 242.01c259.43 11.17 1167.66 50.27 1462.75 62.97"/>
            <path d="m4514.34 301.48 9.84 3.93-10.14 3.07z"/>
        </g>
        <g class="node" transform="translate(4 616)">
            <ellipse cx="1983.58" cy="-162" fill="none" stroke="#000" rx="101.51" ry="18"/>
            <text x="1983.58" y="-156.95" font-family="Times,serif" font-size="14" text-anchor="middle">:app:core:diary-database</text>
        </g>
        <g stroke="#000" class="edge">
            <path fill="none" d="M2948.7 254.34c-18.02 9.35-40.09 22.43-57.12 37.66-44.72 40-28.07 79.75-81 108-66.16 35.32-599.27 29.75-674 36-18.35 1.54-37.93 3.52-56.67 5.59"/>
            <path d="m2080.52 445.04-10.33-2.36 9.55-4.59z"/>
        </g>
        <g stroke="#000" class="edge">
            <path fill="none" d="M3058.51 328c-18 29.98-57.43 93.82-95.93 144-13.03 16.98-24.39 15.99-32 36-5.69 14.96-8.28 22.31 0 36 9.5 15.72 25.38 27 41.76 35"/>
            <path d="m2973.47 575.68 7.7 7.27-10.56-.88z"/>
        </g>
        <g stroke="#000" class="edge">
            <path fill="none" d="M3071.89 328.27c7.55 34.09 29.5 109.69 80.69 143.73 79.66 52.97 341.69-3.1 429 36 21.23 9.51 16.64 26.78 38 36 77.19 33.31 638.51 47.35 854.04 51.54"/>
            <path d="m4473.41 592.04 9.93 3.69-10.07 3.31z"/>
        </g>
        <g stroke="#000" class="edge">
            <path fill="none" d="M3126.43 313.4c79.56 3.3 227.21 9.41 353.15 14.6 457.31 18.84 1005.76 41.32 1209.55 49.67"/>
            <path d="m4689.25 374.17 9.85 3.9-10.14 3.09z"/>
        </g>
        <g stroke="#000" class="edge">
            <path fill="none" d="M3039.7 325.98c-41.91 20.91-122.64 58.07-196.12 74.02-307.47 66.75-393.43 10.15-707 36-18.35 1.51-37.93 3.49-56.67 5.55"/>
            <path d="m2080.52 445.01-10.33-2.37 9.55-4.59z"/>
        </g>
        <g stroke="#000" class="edge">
            <path fill="none" d="M2588.91 472.35c7.36 20.77 22.75 54.82 48.67 71.65 53.36 34.64 221 27.14 284 36 11.46 1.61 23.57 3.4 35.41 5.19"/>
            <path d="m2957.37 581.71 9.35 4.97-10.41 1.95z"/>
        </g>
        <g stroke="#000" class="edge">
            <path fill="none" d="M2650.48 462.9c28.9 3.2 63.13 6.7 94.1 9.1 160.38 12.45 566.12.41 723 36 40.41 9.17 45.6 26.77 86 36 88.49 20.21 696.03 42.57 920.7 50.24"/>
            <path d="m4474.26 590.74 9.88 3.84-10.11 3.15z"/>
        </g>
        <g stroke="#000" class="edge">
            <path fill="none" d="M2649.67 463.21c29.06 3.29 63.64 6.77 94.91 8.79 677.89 43.7 848.97 16.82 1528 36 145.51 4.11 314.08 9.85 417.88 13.49"/>
            <path d="m4690.47 517.99 9.87 3.85-10.12 3.15z"/>
        </g>
        <g stroke="#000" class="edge">
            <path fill="none" d="M2520.79 464.51c-78.63 11.92-214.05 32.44-305.1 46.23"/>
            <path d="m2216.45 514.17-10.42-1.97 9.37-4.95z"/>
        </g>
        <g stroke="#000" class="edge">
            <path fill="none" d="M2353.76 255.89c-11.11 9.74-24.45 22.69-34.18 36.11-31.13 42.92-55.43 100.19-68.16 133.58"/>
            <path d="m2254.86 426.38-6.78 8.14.22-10.59z"/>
        </g>
        <g stroke="#000" class="edge">
            <path fill="none" d="M2365.45 256.12c-4.88 10.12-10.38 23.37-12.87 35.88-3.13 15.69-2.95 20.27 0 36 12.66 67.49 12.02 91.26 56 144 19.55 23.45 88.03 62.36 117 72 167.69 55.79 220.59 14.49 396 36 11.82 1.45 24.33 3.19 36.5 4.99"/>
            <path d="m2958.28 581.48 9.36 4.95-10.41 1.97z"/>
        </g>
        <g stroke="#000" class="edge">
            <path fill="none" d="M2438.65 249.9c24.23 7.58 49.43 20.4 63.93 42.1 44.46 66.53-59.46 122.32-4 180 70.52 73.35 818.22 4.61 915 36 27.44 8.9 26.6 26.97 54 36 47.55 15.67 759.82 41.6 1006.59 50.16"/>
            <path d="m4474.18 590.66 9.87 3.84-10.12 3.15z"/>
        </g>
        <g stroke="#000" class="edge">
            <path fill="none" d="M2454.44 243.62c212.51 12.29 791.69 45.8 1027.84 59.46"/>
            <path d="m3482.32 299.58 9.78 4.07-10.19 2.92z"/>
        </g>
        <g stroke="#000" class="edge">
            <path fill="none" d="M2342.44 255c-53.13 28.33-158.11 92.79-205.86 181-9.99 18.45-13.63 41.95-14.84 60.16"/>
            <path d="m2125.25 496.18-3.93 9.84-3.07-10.14z"/>
        </g>
        <g stroke="#000" class="edge">
            <path fill="none" d="M1655.6 464.86c-19.45 2.77-41.09 5.49-61.02 7.14-591.08 49-742.31-5-1334 36-18.93 1.31-39.14 3.22-58.44 5.28"/>
            <path d="m202.73 516.74-10.32-2.39 9.55-4.57z"/>
        </g>
        <g stroke="#000" class="edge">
            <path fill="none" d="M1739.17 471.62c30.52 21.36 87.43 57.48 142.41 72.38 223.2 60.48 809.77 14.3 1040 36 12.15 1.15 25 2.76 37.47 4.54"/>
            <path d="m2959.48 581.07 9.38 4.93-10.4 1.99z"/>
        </g>
        <g stroke="#000" class="edge">
            <path fill="none" d="M1754.7 469.88c62.6 24.31 182.33 70.26 202.88 74.12 219.3 41.23 1784.91 30.8 2008 36 181.37 4.23 393.94 10.7 508.56 14.32"/>
            <path d="m4474.2 590.82 9.88 3.81-10.1 3.19z"/>
        </g>
        <g stroke="#000" class="edge">
            <path fill="none" d="M1782.27 462.99c28.89 3.25 63.24 6.77 94.31 9.01 481.77 34.77 1059.58 47.6 1286.59 51.52"/>
            <path d="m3162.91 520.01 9.94 3.67-10.06 3.33z"/>
        </g>
        <g class="node" transform="translate(4 616)">
            <ellipse cx="1628.58" cy="-90" fill="none" stroke="#000" rx="120.96" ry="18"/>
            <text x="1628.58" y="-84.95" font-family="Times,serif" font-size="14" text-anchor="middle">:app:core:holiday-preferences</text>
        </g>
        <g stroke="#000" class="edge">
            <path fill="none" d="m1696.67 471.59-34.63 28.86"/>
            <path d="m1664.31 503.12-9.93 3.71 5.44-9.09z"/>
        </g>
        <g class="node" transform="translate(4 616)">
            <ellipse cx="375.58" cy="-90" fill="none" stroke="#000" rx="110.21" ry="18"/>
            <text x="375.58" y="-84.95" font-family="Times,serif" font-size="14" text-anchor="middle">:app:core:holiday-database</text>
        </g>
        <g stroke="#000" class="edge">
            <path fill="none" d="M1655.27 464.7c-19.37 2.75-40.88 5.49-60.69 7.3-399.45 36.46-875.15 47.99-1093.95 51.52"/>
            <path d="m500.71 527.02-10.06-3.34 9.94-3.66z"/>
        </g>
        <g stroke="#000" class="edge">
            <path fill="none" d="M1889.4 394.02c10.67 2.04 21.76 4.11 32.18 5.98 80.39 14.42 172.41 29.51 237.07 39.89"/>
            <path d="m2159.18 436.43 9.32 5.04-10.43 1.87z"/>
        </g>
        <g stroke="#000" class="edge">
            <path fill="none" d="M1831.34 400.16c-1.6 19.04-1.46 49.97 12.24 71.84 31.82 50.78 56.76 54.27 114 72 204.78 63.42 750.6 15.59 964 36 12.15 1.16 25 2.79 37.47 4.57"/>
            <path d="m2959.48 581.1 9.38 4.93-10.41 1.99z"/>
        </g>
        <g stroke="#000" class="edge">
            <path fill="none" d="M1838.75 400.39c6.41 19.25 18.86 50.36 37.83 71.61 9.98 11.18 99.65 67.7 114 72 105.13 31.46 1865.29 33.42 1975 36 181.37 4.26 393.94 10.72 508.56 14.33"/>
            <path d="m4474.2 590.83 9.88 3.81-10.1 3.18z"/>
        </g>
        <g stroke="#000" class="edge">
            <path fill="none" d="M1907.02 384.82c129 3.19 404.72 9.93 637.56 15.18 756.42 17.04 946.37-2.54 1702 36 39.89 2.03 83.96 5.43 121.39 8.65"/>
            <path d="m4368.19 441.15 9.66 4.36-10.27 2.62z"/>
        </g>
        <g stroke="#000" class="edge">
            <path fill="none" d="M1867.38 398.36c21.75 9.89 50.29 22.86 74.11 33.69"/>
            <path d="m1942.68 428.75 7.66 7.32-10.55-.95z"/>
        </g>
        <g class="node" transform="translate(4 616)">
            <ellipse cx="960.58" cy="-162" fill="none" stroke="#000" rx="109.19" ry="18"/>
            <text x="960.58" y="-156.95" font-family="Times,serif" font-size="14" text-anchor="middle">:app:core:backup-database</text>
        </g>
        <g stroke="#000" class="edge">
            <path fill="none" d="M1762.57 387.35c-160.9 9.96-549.38 34.65-679.99 48.65-9.39 1.01-19.19 2.19-28.94 3.47"/>
            <path d="m1054.11 442.94-10.38-2.15 9.45-4.79z"/>
        </g>
        <g stroke="#000" class="edge">
            <path fill="none" d="M2406.24 327.29c-32.72 24.98-95.48 72.9-133.36 101.81"/>
            <path d="m2275.09 431.82-10.07 3.28 5.83-8.85z"/>
        </g>
        <g stroke="#000" class="edge">
            <path fill="none" d="M2421.67 328.4c-9.61 31.75-24.65 99.82 5.91 143.6 26.56 38.05 55.21 18.05 98 36 34.47 14.46 40.05 25.77 76 36 137.66 39.17 178.14 17.07 320 36 11.54 1.54 23.74 3.3 35.65 5.08"/>
            <path d="m2957.67 581.61 9.36 4.96-10.41 1.96z"/>
        </g>
        <g stroke="#000" class="edge">
            <path fill="none" d="M2429.09 328.4c3.66 37.78 14.39 125.37 36.49 143.6 76.61 63.18 796.29 13.43 893 36 38.36 8.95 42.67 26.91 81 36 99.57 23.61 792.3 44.25 1034.57 50.82"/>
            <path d="m4473.93 591.32 9.9 3.76-10.09 3.23z"/>
        </g>
        <g stroke="#000" class="edge">
            <path fill="none" d="M2492.51 313.39c157.32 6.02 571.33 23.34 916.07 50.61 27.05 2.14 56.57 5.05 82.96 7.85"/>
            <path d="m3491.57 368.33 9.57 4.55-10.31 2.41z"/>
        </g>
        <g stroke="#000" class="edge">
            <path fill="none" d="M2386.19 324.36c-78.66 25.38-249.9 80.65-340.19 109.79"/>
            <path d="m2047.17 437.45-10.59-.26 8.44-6.4z"/>
        </g>
        <g stroke="#000" class="edge">
            <path fill="none" d="M3277.29 386.75c-137.88 8.58-486.87 30.38-778.71 49.25A87432 87432 0 0 0 2342 446.29"/>
            <path d="m2342.5 449.76-10.21-2.83 9.74-4.15z"/>
        </g>
        <g stroke="#000" class="edge">
            <path fill="none" d="M3314.41 399.06c-13.28 9.2-30.17 20.91-44.82 31.06"/>
            <path d="m3271.8 432.85-10.21 2.82 6.22-8.58z"/>
        </g>
        <g stroke="#000" class="edge">
            <path fill="none" d="M3339.78 400.25c1.52 20.34.48 53.65-19.2 71.75-56.08 51.58-290.03-20.64-341 36-17.49 19.44 1.93 45.68 21.82 64.63"/>
            <path d="m3003.65 569.95 5.07 9.3-9.76-4.11z"/>
        </g>
        <g stroke="#000" class="edge">
            <path fill="none" d="M3374.91 396.79c104.53 38.58 393.23 145 403.67 147.21 130.83 27.75 522.77 44.21 695.59 50.3"/>
            <path d="m4474.09 590.79 9.88 3.85-10.12 3.15z"/>
        </g>
        <g stroke="#000" class="edge">
            <path fill="none" d="M3393.73 389.93c27.38 3.27 60.81 7.09 90.85 10.07 185.26 18.37 401.08 35.29 529.08 44.86"/>
            <path d="m4013.79 441.36 9.71 4.23-10.23 2.75z"/>
        </g>
        <g stroke="#000" class="edge">
            <path fill="none" d="M3948.14 184.45c-4.63 44.04-23.25 160.09-93.56 215.55-82.96 65.44-132.16 11.76-235 36-50.89 12-60.78 25.51-112 36-84.4 17.28-309.14-2.91-386 36-19.1 9.67-16.97 20.76-32 36-9.53 9.67-20.42 19.83-30.17 28.64"/>
            <path d="m3061.76 575.23-9.78 4.06 5.12-9.28z"/>
        </g>
        <g stroke="#000" class="edge">
            <path fill="none" d="M3954.54 184.08c2.89 10.34 6.46 23.82 9.04 35.92 30.86 144.97-43.84 241.06 79 324 68.33 46.14 303.22 53.37 430.85 53.76"/>
            <path d="m4473.17 594.26 10 3.51-10.01 3.49z"/>
        </g>
        <g stroke="red" stroke-width="2" class="edge">
            <path fill="none" d="M3996.29 180.91c36.83 10.97 88.45 26.35 128.33 38.23"/>
            <path fill="red" d="m4124.04 215.32 8.59 6.21-10.58.49z"/>
        </g>
        <g class="node" transform="translate(4 616)">
            <ellipse cx="2849.58" cy="-162" fill="none" stroke="#000" rx="100.48" ry="18"/>
            <text x="2849.58" y="-156.95" font-family="Times,serif" font-size="14" text-anchor="middle">:app:core:filter-database</text>
        </g>
        <g stroke="#000" class="edge">
            <path fill="none" d="M3872.39 169.54c-198.96 7.73-723.96 36.01-871.81 122.46-51.8 30.29-39.28 64.88-81 108-10.06 10.4-22.14 20.63-33.2 29.3"/>
            <path d="m2888.66 431.96-10.07 3.29 5.82-8.85z"/>
        </g>
        <g stroke="#000" class="edge">
            <path fill="none" d="M3718.01 392.69c-18.89 2.82-40.01 5.6-59.43 7.31-513.82 45.16-644.8 10.97-1160 36-52.2 2.54-110.31 6.3-158.05 9.64"/>
            <path d="m2340.99 449.12-10.22-2.79 9.73-4.19z"/>
        </g>
        <g stroke="#000" class="edge">
            <path fill="none" d="M3727.09 395.43c-37.36 9.95-90.13 24.8-135.51 40.57-39.92 13.87-46.93 26.04-88 36-88.89 21.56-330.85-9.84-410 36-23.76 13.76-40.57 40.71-50.63 61.37"/>
            <path d="m3046.15 570.78-7.35 7.63.99-10.55z"/>
        </g>
        <g stroke="#000" class="edge">
            <path fill="none" d="M3786.27 400.26c22.42 34.44 78.03 111.14 147.31 143.74 93.48 43.98 392.07 51.87 539.71 53.02"/>
            <path d="m4473.02 593.52 9.98 3.56-10.02 3.44z"/>
        </g>
        <g stroke="#000" class="edge">
            <path fill="none" d="M3844.03 386.62c220.89 11.67 914.99 48.34 1165.36 61.56"/>
            <path d="m5009.31 444.67 9.8 4.03-10.17 2.96z"/>
        </g>
        <g stroke="#000" class="edge">
            <path fill="none" d="M4681.92 318.8c118.19 13.99 354.99 48.51 544.66 117.2 67.65 24.5 89.49 26.22 145 72 21.36 17.62 40 43.18 52.33 62.39"/>
            <path d="m5426.82 568.43 2.31 10.33-8.26-6.63z"/>
        </g>
        <g stroke="#000" class="edge">
            <path fill="none" d="M4559.87 325.1c-54.14 18.08-142.3 54.05-199.29 110.9-38.14 38.04-9.67 78.9-55 108-24.93 16-899.57 42.32-1184.95 50.5"/>
            <path d="m3121.12 597.98-10.09-3.21 9.89-3.78z"/>
        </g>
        <g stroke="#000" class="edge">
            <path fill="none" d="M4668.31 322.86c49.35 9.97 120.63 25.12 182.27 41.14 53.48 13.9 65.09 23.87 119 36 52.61 11.84 204.81-4.86 240 36 10.44 12.12 5.57 21 0 36-14.7 39.59-24.44 52.7-62 72-86.05 44.23-364.33 52.07-505.78 53.12"/>
            <path d="m4642.15 600.62-10.02-3.43 9.98-3.57z"/>
        </g>
        <g stroke="red" stroke-width="2" class="edge">
            <path fill="none" d="M4643.75 326.54c24.08 10.33 55.88 23.99 81.62 35.04"/>
            <path fill="red" d="m4725.04 357.63 7.8 7.16-10.57-.73z"/>
        </g>
        <g stroke="#000" class="edge">
            <path fill="none" d="M4622.09 328.15c31.64 37.41 107.01 126.53 144.52 170.87"/>
            <path d="m4769.24 496.72 3.79 9.89-9.13-5.37z"/>
        </g>
        <g stroke="#000" class="edge">
            <path fill="none" d="M4589.66 327.85c-26.56 24.98-76.54 71.98-107.12 100.73"/>
            <path d="m4485.26 430.84-9.69 4.3 4.89-9.4z"/>
        </g>
        <g stroke="#000" class="edge">
            <path fill="none" d="M4534.43 319.23c-41.31 7.15-92.57 20.4-132.85 44.77-36.89 22.32-39.44 37.28-65 72-16.54 22.47-39.95 93.86-64 108-63.67 37.43-1255.48 28.91-1329 36-11.51 1.11-23.69 2.74-35.46 4.55"/>
            <path d="m2908.9 587.97-10.43-1.87 9.32-5.04z"/>
        </g>
        <g stroke="#000" class="edge">
            <path fill="none" d="M4604.84 328.3c-8.54 46.95-39.53 175.88-127.26 215.7-88.34 40.1-361.97 49.94-509.46 52.3"/>
            <path d="m3968.42 599.8-10.06-3.35 9.95-3.65z"/>
        </g>
        <g stroke="#000" class="edge">
            <path fill="none" d="M4836.73 389.2c114.06 10.95 338.84 33.79 372.85 46.8 82.95 31.74 164.34 99.87 204.37 136.5"/>
            <path d="m5416.24 569.85 4.95 9.36-9.71-4.23z"/>
        </g>
        <g stroke="#000" class="edge">
            <path fill="none" d="M4754.38 399.83c-20.04 19.92-56.05 52.82-92.8 72.17-100.8 53.08-133.56 53.68-246 72-126.98 20.69-1008.92 43.83-1294.78 50.86"/>
            <path d="m3121.26 598.35-10.08-3.25 9.91-3.75z"/>
        </g>
        <g stroke="#000" class="edge">
            <path fill="none" d="M4834.96 389.99c116.7 12.81 351.75 39.36 357.62 46.01 10.58 12 7.08 21.65 0 36-23.3 47.19-45.05 52.69-94 72-81.07 31.97-326.71 45.4-457.3 50.4"/>
            <path d="m4641.42 597.89-10.13-3.12 9.87-3.87z"/>
        </g>
        <g stroke="#000" class="edge">
            <path fill="none" d="M4789.17 399.7c9.26 9.58 19.5 22.45 24.41 36.3 7.23 20.39-.08 43.98-8.63 61.75"/>
            <path d="m4808.17 499.15-7.74 7.23 1.54-10.48z"/>
        </g>
        <g stroke="red" stroke-width="2" class="edge">
            <path fill="none" d="M4718.38 394.64c-52.92 11.79-135.07 30.11-193.21 43.07"/>
            <path fill="red" d="m4527.71 440.73-10.52-1.24 9-5.59z"/>
        </g>
        <g stroke="#000" class="edge">
            <path fill="none" d="M4737.08 398.19c-42.38 18.86-117.89 51.29-184.5 73.81-58.01 19.61-76.57 12.22-133 36-29.01 12.22-30.74 27.32-61 36-151.18 43.36-1258.44 21.04-1415 36-11.51 1.1-23.69 2.72-35.47 4.54"/>
            <path d="m2908.9 587.95-10.43-1.87 9.32-5.04z"/>
        </g>
        <g stroke="#000" class="edge">
            <path fill="none" d="M4797.24 399.16c46.86 30.29 134.88 96.86 89.34 144.84-15.73 16.57-670.85 41.04-920.09 49.76"/>
            <path d="m3966.91 597.25-10.11-3.15 9.87-3.85z"/>
        </g>
        <g stroke="#000" class="edge">
            <path fill="none" d="M4865.49 535.27c127.93 13.76 382.47 41.13 505.01 54.3"/>
            <path d="m5370.87 586.09 9.56 4.55-10.31 2.41z"/>
        </g>
        <g stroke="#000" class="edge">
            <path fill="none" d="M4706.51 533.13c-49.97 3.56-115.1 7.92-172.93 10.87-535.59 27.3-1179.33 44.92-1412.33 50.82"/>
            <path d="m3121.4 598.31-10.09-3.24 9.91-3.76z"/>
        </g>
        <g stroke="#000" class="edge">
            <path fill="none" d="M4740.72 541.5c-37.13 11.25-88.65 26.87-127.59 38.67"/>
            <path d="m4614.28 583.47-10.58-.44 8.55-6.25z"/>
        </g>
        <g stroke="red" stroke-width="2" class="edge">
            <path fill="none" d="M4703.6 531.44c-74.78 3.78-186.6 9.13-284.02 12.56-655.79 23.1-822.75-26.09-1476 36-11.51 1.09-23.69 2.71-35.47 4.53"/>
            <path fill="red" d="m2910.39 587.7-10.42-1.87 9.32-5.04z"/>
        </g>
        <g stroke="#000" class="edge">
            <path fill="none" d="M4723.88 538.68c-12.67 2-25.88 3.89-38.3 5.32-259.25 29.76-567.01 44.14-719.14 49.86"/>
            <path d="m3966.95 597.34-10.12-3.12 9.86-3.87z"/>
        </g>
        <g stroke="#000" class="edge">
            <path fill="none" d="M3492.92 315.93c-81.58 6.19-193 19.67-226.34 48.07-17.56 14.95-24.87 40.55-27.9 60.47"/>
            <path d="m3242.18 424.69-4.68 9.51-2.27-10.35z"/>
        </g>
        <g stroke="#000" class="edge">
            <path fill="none" d="M3676.05 316.05c54.38 6.07 123.3 19.29 178.53 47.95 102.67 53.29 81.49 134.87 188 180 61.34 25.99 1045.25 46.39 1323.95 51.67"/>
            <path d="m5366.26 592.16 9.94 3.69-10.07 3.31z"/>
        </g>
        <g stroke="#000" class="edge">
            <path fill="none" d="M3545.95 326.87c-21.66 9.57-48.78 22.68-71.37 37.13-63.56 40.67-61.56 78.46-131 108-64.23 27.32-265.56-16.1-312 36-14.46 16.22-13.03 41.47-8.81 60.94"/>
            <path d="m3026.11 567.88-.92 10.56-5.86-8.83z"/>
        </g>
        <g stroke="#000" class="edge">
            <path fill="none" d="M3609.88 327.84c14.6 10.04 33.1 23.29 48.7 36.16 17.94 14.81 19.14 22.37 38 36 27.4 19.8 39.73 16.02 67 36 55.52 40.68 48.28 79.65 111 108 104.71 47.34 440.5 53.41 598.85 53.54"/>
            <path d="m4473.01 594.04 10 3.5-10 3.5z"/>
        </g>
        <g stroke="#000" class="edge">
            <path fill="none" d="M3657.46 322.07c69.07 10.55 175.7 27 268.12 41.93 161.88 26.14 351.24 58.25 454.41 75.87"/>
            <path d="m4380.46 436.4 9.27 5.13-10.45 1.77z"/>
        </g>
        <g stroke="#000" class="edge">
            <path fill="none" d="M3581.37 328.3c-1.37 7.38-3.01 16.18-4.54 24.45"/>
            <path d="m3580.3 353.21-5.27 9.2-1.61-10.47z"/>
        </g>
        <g stroke="#000" class="edge">
            <path fill="none" d="M3499.75 318.87c-70.28 7.75-172.35 21.87-259.17 45.13-128.04 34.29-151.55 68.25-278 108-64.58 20.3-106.17-17.23-148 36-14.12 17.97-4.37 43.28 7.17 62.32"/>
            <path d="m2824.64 568.35 2.55 10.28-8.41-6.45z"/>
        </g>
        <g stroke="#000" class="edge">
            <path fill="none" d="M3533.4 325.66c-18.73 8.11-37.98 20.33-48.82 38.34-8.25 13.71-7.91 22.09 0 36 64.19 112.89 217.2 163.05 310.45 183.79"/>
            <path d="m3795.58 580.33 9.04 5.52-10.52 1.32z"/>
        </g>
        <g stroke="#000" class="edge">
            <path fill="none" d="M3347.34 530.13c96.38 3.49 257.53 9.26 396.24 13.87 628.3 20.9 1387.6 43.78 1622.92 50.82"/>
            <path d="m5366.57 591.32 9.89 3.8-10.1 3.2z"/>
        </g>
        <g stroke="#000" class="edge">
            <path fill="none" d="M3213.92 541.5c-36.56 11.13-87.14 26.53-125.76 38.28"/>
            <path d="m3089.64 582.99-10.59-.44 8.55-6.26z"/>
        </g>
        <g stroke="#000" class="edge">
            <path fill="none" d="M3325.08 538.8c12.71 2.02 26 3.89 38.5 5.2 215.85 22.69 876.26 43.69 1110.52 50.61"/>
            <path d="m4473.85 591.1 9.89 3.79-10.09 3.21z"/>
        </g>
        <g stroke="#000" class="edge">
            <path fill="none" d="M3195.03 538.09c-77.49 12.92-204.91 34.15-283.73 47.29"/>
            <path d="m2911.97 588.82-10.44-1.81 9.28-5.1z"/>
        </g>
        <g stroke="#000" class="edge">
            <path fill="none" d="M3326.51 538.43c12.29 1.99 25.06 3.94 37.07 5.57 146.38 19.81 317.35 36.28 418.94 45.37"/>
            <path d="m3782.79 585.88 9.65 4.37-10.27 2.6z"/>
        </g>
        <g stroke="#000" class="edge">
            <path fill="none" d="M4495.57 470.54c61.3 24.34 175.33 69.12 195.01 73.46 127.5 28.12 514.07 44.68 676.2 50.56"/>
            <path d="m5366.68 591.05 9.87 3.86-10.12 3.14z"/>
        </g>
        <g stroke="#000" class="edge">
            <path fill="none" d="M4447.94 472.16c-11.75 21.24-34.96 56.48-66.36 71.84-28.36 13.87-964.37 41.91-1260.86 50.47"/>
            <path d="m3121.21 597.95-10.1-3.21 9.9-3.78z"/>
        </g>
        <g stroke="#000" class="edge">
            <path fill="none" d="M4514.91 467.72c21.61 7.84 43.93 20.38 56.67 40.28 11.65 18.19 6.65 42.66-.42 61.34"/>
            <path d="m4574.43 570.59-7.1 7.86.65-10.58z"/>
        </g>
        <g stroke="red" stroke-width="2" class="edge">
            <path fill="none" d="M4515.93 467.51c56.54 11.93 141.7 29.88 201.78 42.55"/>
            <path fill="red" d="m4716.59 506.25 9.07 5.48-10.51 1.36z"/>
        </g>
        <g stroke="#000" class="edge">
            <path fill="none" d="M4436.17 471.68c-27.64 21.43-79.4 57.63-130.59 72.32-145.51 41.76-1211.31 21.52-1362 36-11.51 1.11-23.69 2.73-35.47 4.55"/>
            <path d="m2908.9 587.96-10.43-1.87 9.32-5.04z"/>
        </g>
        <g stroke="#000" class="edge">
            <path fill="none" d="M4462.95 472.17c6.17 19.94 12.24 52.55-5.37 71.83-32.34 35.4-332.42 47.38-490.14 51.25"/>
            <path d="m3967.93 598.74-10.08-3.26 9.91-3.73z"/>
        </g>
        <g stroke="#000" class="edge">
            <path fill="none" d="M3624.78 395.49c38.9 9.66 92.69 24.12 138.8 40.51 112.51 39.99 129.61 81.32 246 108 132.49 30.38 1083.59 47.55 1356.79 51.89"/>
            <path d="m5366.26 592.39 9.95 3.66-10.06 3.34z"/>
        </g>
        <g stroke="#000" class="edge">
            <path fill="none" d="M3553.03 399.96c-27.12 24.64-75.48 67.85-85.45 72.04-84.74 35.58-341.55-23.01-412 36-17.35 14.54-22.86 40.18-24.31 60.22"/>
            <path d="m3034.78 568.16-3.9 9.86-3.1-10.13z"/>
        </g>
        <g stroke="#000" class="edge">
            <path fill="none" d="M3631.56 393.85c32.31 7.91 71.64 21.04 102.02 42.15 50.39 35.01 31.72 79.39 86 108 56.7 29.88 473.6 45.39 654.56 50.77"/>
            <path d="m4474.05 591.26 9.89 3.79-10.1 3.21z"/>
        </g>
        <g stroke="#000" class="edge">
            <path fill="none" d="M3635.36 392.84c19.6 2.71 41.26 5.39 61.22 7.16 379.29 33.69 482.91-40.15 856 36 70.05 14.3 146.75 46.56 193.12 68.06"/>
            <path d="m4747.03 500.82 7.57 7.41-10.54-1.08z"/>
        </g>
        <g stroke="#000" class="edge">
            <path fill="none" d="M3636.03 392.64c19.43 2.67 40.83 5.38 60.55 7.36 243.74 24.52 305.69 18.12 550 36 39.34 2.88 82.8 6.35 119.93 9.4"/>
            <path d="m4366.63 441.9 9.68 4.31-10.25 2.67z"/>
        </g>
        <g stroke="#000" class="edge">
            <path fill="none" d="M3536.66 398.59c-47.74 20.57-136.55 56.17-216.08 73.41-90.9 19.7-336.48-10.56-417 36-23.77 13.74-40.57 40.7-50.64 61.36"/>
            <path d="m2856.15 570.77-7.35 7.63.98-10.55z"/>
        </g>
        <g stroke="#000" class="edge">
            <path fill="none" d="M3591.82 399.86c36.76 30.3 117.38 95.35 189.76 144.14 16.19 10.91 34.68 22.02 50.67 31.23"/>
            <path d="m3833.57 571.95 6.95 8-10.42-1.92z"/>
        </g>
        <g stroke="#000" class="edge">
            <path fill="none" d="M4275.43 240.27c194.35 5.84 661.23 36.77 1011.15 195.73 55.25 25.1 76.69 25.77 116 72 14.9 17.52 24.47 41.89 30.13 60.7"/>
            <path d="m5436.02 567.55-.68 10.57-6.06-8.69z"/>
        </g>
        <g stroke="#000" class="edge">
            <path fill="none" d="M4167.05 255.92c-35.36 33.14-119.09 106.6-203.47 144.08-142.76 63.4-189.39 49.79-344 72-100.4 14.42-361.11-2.37-455 36-23.07 9.43-22.64 21.63-43 36-15.95 11.26-34.4 22.42-50.43 31.58"/>
            <path d="m3073.28 578.39-10.43 1.87 6.99-7.96z"/>
        </g>
        <g stroke="#000" class="edge">
            <path fill="none" d="M4194.26 256.22c17.38 30.32 55.75 94.67 95.32 143.78 28.19 35 36.02 43.78 71 72 51.15 41.27 116.59 80.44 157.67 103.59"/>
            <path d="m4519.8 572.45 7.02 7.93-10.43-1.82z"/>
        </g>
        <g stroke="red" stroke-width="2" class="edge">
            <path fill="none" d="M4253.72 250.07c65.82 10.58 167.63 27.08 255.86 41.93 7.58 1.28 15.49 2.62 23.38 3.98"/>
            <path fill="red" d="m4531.83 292.23 9.26 5.14-10.45 1.76z"/>
        </g>
        <g stroke="#000" class="edge">
            <path fill="none" d="M4275.77 239.91c128.18 2.7 353.91 13.05 424.81 52.09 25.34 13.95 44.67 41.27 56.54 61.98"/>
            <path d="m4760.04 352.03 1.72 10.45-7.87-7.1z"/>
        </g>
        <g stroke="#000" class="edge">
            <path fill="none" d="M4222.19 254.87c76.28 32.41 254.33 109.24 400.39 181.13 44.14 21.72 93.72 48.65 127.11 67.16"/>
            <path d="m4751.15 499.97 7.04 7.92-10.44-1.8z"/>
        </g>
        <g stroke="#000" class="edge">
            <path fill="none" d="M4151.74 255.19c-81.93 40.37-289.34 142.43-297.16 144.81-112.88 34.3-146.5 17.39-263 36-87.89 14.04-108.99 22.71-197 36-133.22 20.12-169.79 5.38-301 36-74.3 17.34-157.12 49.12-206.86 69.64"/>
            <path d="m2888.3 580.78-10.58.61 7.89-7.08z"/>
        </g>
        <g stroke="#000" class="edge">
            <path fill="none" d="M4176.82 256.43c-15.04 32.09-50.97 101.13-99.24 143.57-27.17 23.89-44.63 13.56-73 36-49.56 39.2-93.29 99.65-116.15 134.25"/>
            <path d="m3891.5 571.95-8.39 6.47 2.52-10.29z"/>
        </g>
        <g stroke="#000" class="edge">
            <path fill="none" d="M5137.5 470.47c62.72 26.27 189.8 79.5 257.42 107.82"/>
            <path d="m5395.97 574.94 7.87 7.09-10.57-.64z"/>
        </g>
        <g stroke="#000" class="edge">
            <path fill="none" d="M5071.35 471.29c-42.83 23.53-120.92 65.08-151.77 72.71-44.12 10.92-1428.69 42.69-1798.14 51"/>
            <path d="m3121.62 598.49-10.08-3.27 9.92-3.73z"/>
        </g>
        <g stroke="#000" class="edge">
            <path fill="none" d="M5100.66 472.47c-.94 20.55-5.9 54.07-27.08 71.53-32.68 26.93-295.88 42.9-433.23 49.48"/>
            <path d="m4640.74 596.96-10.15-3.02 9.82-3.97z"/>
        </g>
        <g stroke="#000" class="edge">
            <path fill="none" d="M5044.44 467.6c-52.39 11.75-130.69 29.32-186.87 41.92"/>
            <path d="m4858.65 512.87-10.53-1.23 9-5.6z"/>
        </g>
        <g stroke="#000" class="edge">
            <path fill="none" d="M5034.62 465.35c-35.98 7.77-80.16 20.93-115.04 42.65-18.43 11.47-13.21 27.08-33 36-98.42 44.39-1835.49 26.1-1943 36-11.52 1.06-23.69 2.66-35.47 4.47"/>
            <path d="m2908.89 587.89-10.42-1.88 9.32-5.03z"/>
        </g>
        <g stroke="#000" class="edge">
            <path fill="none" d="M5086.75 472.22c-18.28 21.31-52.7 56.63-91.17 71.78-47.46 18.69-765.88 42.17-1028.66 50.18"/>
            <path d="m3967.12 597.67-10.1-3.19 9.89-3.81z"/>
        </g>
        <g stroke="#000" class="edge">
            <path fill="none" d="M2676.09 400.34c-3.19 39.38-9.72 133.01-.51 143.66 36.13 41.8 191.37 27.78 246 36 11.29 1.7 23.24 3.52 34.93 5.32"/>
            <path d="m2956.76 581.81 9.35 4.98-10.41 1.94z"/>
        </g>
        <g stroke="#000" class="edge">
            <path fill="none" d="M2718.84 399.41c25.1 9.98 57.33 22.8 83.98 33.4"/>
            <path d="m2804.08 429.55 8 6.94-10.59-.44z"/>
        </g>
        <g class="node" transform="translate(4 616)">
            <ellipse cx="753.58" cy="-162" fill="none" stroke="#000" rx="80.01" ry="18"/>
            <text x="753.58" y="-156.95" font-family="Times,serif" font-size="14" text-anchor="middle">:library:koin-room</text>
        </g>
        <g stroke="#000" class="edge">
            <path fill="none" d="M2556.55 385.97C2161.68 395.73 931.42 426.73 846.58 436c-6.98.76-14.23 1.78-21.44 2.93"/>
            <path d="m825.81 442.36-10.45-1.77 9.28-5.13z"/>
        </g>
        <g class="node" transform="translate(4 616)">
            <ellipse cx="1148.58" cy="-162" fill="none" stroke="#000" rx="60.56" ry="18"/>
            <text x="1148.58" y="-156.95" font-family="Times,serif" font-size="14" text-anchor="middle">:library:room</text>
        </g>
        <g stroke="#000" class="edge">
            <path fill="none" d="M2556.06 385.69c-295.52 6.84-1045.78 26.07-1295.48 50.31-14.98 1.45-31.04 3.64-46.08 5.96"/>
            <path d="m1215.16 445.4-10.42-1.88 9.32-5.03z"/>
        </g>
        <g stroke="#000" class="edge">
            <path fill="none" d="M1001.78 392.18c-32.89 2.63-68.99 5.43-102.2 7.82-62.52 4.49-520.11-9.72-563 36-10.95 11.67-10.58 23.99 0 36 20.95 23.79 534.38 69.71 566 72 895.14 64.72 1124.81-40.71 2019 36 12.43 1.07 25.59 2.68 38.32 4.49"/>
            <path d="m2960.07 580.98 9.38 4.92-10.4 2z"/>
        </g>
        <g stroke="#000" class="edge">
            <path fill="none" d="M1077.13 399.77c-20.21 9.56-45.74 21.63-67.38 31.86"/>
            <path d="m1011.39 434.73-10.54 1.11 7.55-7.44z"/>
        </g>
        <g stroke="#000" class="edge">
            <path fill="none" d="M1039.45 397.42c-62.19 12.26-150.91 29.76-212.12 41.83"/>
            <path d="m828.21 442.64-10.49-1.5 9.13-5.37z"/>
        </g>
        <g stroke="#000" class="edge">
            <path fill="none" d="M1122.47 400.3c4.45 7.8 9.82 17.19 14.78 25.87"/>
            <path d="m1140.13 424.16 1.92 10.42-8-6.94z"/>
        </g>
        <g stroke="#000" class="edge">
            <path fill="none" d="M1542.96 466.64c130.29 13.14 340.77 34.37 468.75 47.28"/>
            <path d="m2011.97 510.43 9.59 4.48-10.3 2.48z"/>
        </g>
        <g class="node" transform="translate(4 616)">
            <ellipse cx="1358.58" cy="-90" fill="none" stroke="#000" rx="93.32" ry="18"/>
            <text x="1358.58" y="-84.95" font-family="Times,serif" font-size="14" text-anchor="middle">:library:koin-datastore</text>
        </g>
        <g stroke="#000" class="edge">
            <path fill="none" d="M1411.51 472.3c-7.63 8.23-16.91 18.22-25.33 27.28"/>
            <path d="m1388.86 501.84-9.37 4.95 4.24-9.71z"/>
        </g>
        <g stroke="#000" class="edge">
            <path fill="none" d="M1315.33 396.99c-21.21 7.83-42.1 20.02-54.75 39.01-26.61 39.95-33.57 73.69 0 108 32.28 32.98 1615.03 31.97 1661 36 12.23 1.07 25.17 2.66 37.71 4.44"/>
            <path d="m2959.78 580.98 9.38 4.92-10.4 2z"/>
        </g>
        <g stroke="#000" class="edge">
            <path fill="none" d="M1482.32 394.05c112.38 13.11 298.59 34.84 410.83 47.93"/>
            <path d="m1893.42 438.49 9.52 4.64-10.33 2.31z"/>
        </g>
        <g stroke="#000" class="edge">
            <path fill="none" d="M1297.9 394.86c-14.8 1.81-29.98 3.6-44.32 5.14-180.55 19.43-227.14 10.93-407 36-6.75.94-13.76 2.05-20.76 3.24"/>
            <path d="m826.84 442.62-10.46-1.71 9.24-5.19z"/>
        </g>
        <g stroke="#000" class="edge">
            <path fill="none" d="M1334.84 398.71c-38.67 11.52-90.96 27.09-129.61 38.61"/>
            <path d="m1206.24 440.67-10.58-.5 8.58-6.21z"/>
        </g>
        <g stroke="#000" class="edge">
            <path fill="none" d="M594.77 468.95c142.41 20.84 424.67 59.33 665.81 75.05 599.89 39.1 2103.97 23.37 2705 36 181.38 3.81 393.95 10.44 508.56 14.2"/>
            <path d="m4474.2 590.7 9.88 3.83-10.11 3.17z"/>
        </g>
        <g stroke="#000" class="edge">
            <path fill="none" d="M612.78 467.17c18.61 1.8 37.74 3.5 55.8 4.83 353.18 26.05 442.8 10.16 796 36 20.1 1.47 41.53 3.38 62.12 5.38"/>
            <path d="m1526.92 509.89 9.61 4.46-10.3 2.5z"/>
        </g>
        <g stroke="#000" class="edge">
            <path fill="none" d="M614.6 466.93c18.04 1.79 36.52 3.55 53.98 5.07 221.51 19.33 277.35 18.34 499 36 32.88 2.62 68.85 5.7 100.85 8.51"/>
            <path d="m1268.41 512.99 9.66 4.37-10.27 2.6z"/>
        </g>
        <g stroke="#000" class="edge">
            <path fill="none" d="M638.83 390.43c-128.5 8.99-318.84 25.46-346.25 45.57-40.36 29.62-67.16 72.36-32 108 51.92 52.62 2587.33 29.84 2661 36 12.44 1.04 25.6 2.64 38.33 4.44"/>
            <path d="m2960.08 580.93 9.38 4.93-10.41 2z"/>
        </g>
        <g stroke="#000" class="edge">
            <path fill="none" d="M634.23 389.08c-126.85 7.54-308.9 22.49-330.65 46.92-10.64 11.95-7.4 21.81 0 36 6.58 12.6 17.67 22.82 29.38 30.8"/>
            <path d="m334.51 499.64 6.61 8.27-10.33-2.34z"/>
        </g>
        <g stroke="#000" class="edge">
            <path fill="none" d="M757.58 400.3v24.16"/>
            <path d="m761.08 424.38-3.5 10-3.5-10z"/>
        </g>
        <g stroke="#000" class="edge">
            <path fill="none" d="M846.89 395.68c65.48 9.76 156.41 24.25 235.69 40.32 4.62.94 9.4 1.97 14.18 3.04"/>
            <path d="m1097.45 435.61 8.96 5.65-10.53 1.17z"/>
        </g>
        <g stroke="#000" class="edge">
            <path fill="none" d="M6853.35 244.22c-106.66 7.72-304.91 23.89-472.77 47.78-6.72.96-13.69 2.07-20.66 3.25"/>
            <path d="m6360.98 298.62-10.46-1.72 9.25-5.18z"/>
        </g>
        <g stroke="#000" class="edge">
            <path fill="none" d="M6972.06 253.94c16.97 8.4 34.86 20.76 44.52 38.06 7.8 13.97 10.96 24.34 0 36-25.07 26.68-518.13 43.7-743.41 50.12"/>
            <path d="m6273.6 381.61-10.09-3.22 9.9-3.78z"/>
        </g>
        <g stroke="#000" class="edge">
            <path fill="none" d="M6919.95 256.3c-4.79 7.8-10.56 17.19-15.89 25.87"/>
            <path d="m6907.1 283.92-8.22 6.69 2.25-10.36z"/>
        </g>
        <g stroke="#000" class="edge">
            <path fill="none" d="M6981.84 252.4c20.06 8.02 41.04 20.51 52.74 39.6 8.36 13.64 10.33 23.78 0 36-43.46 51.45-498.89 101.22-673.44 118.55"/>
            <path d="m6361.61 450.02-10.3-2.5 9.61-4.46z"/>
        </g>
        <g stroke="#000" class="edge">
            <path fill="none" d="M6997.73 248.46c89.49 12.88 237.74 35.27 246.85 43.54 30.33 27.54 24 48.03 24 89v74c0 89.63-1414.58 131.44-1755.66 140.21"/>
            <path d="m5513.08 598.71-10.09-3.24 9.91-3.76z"/>
        </g>
        <g stroke="#000" class="edge">
            <path fill="none" d="M6884.37 253.25c-35.87 11.06-85.77 26.45-124.06 38.26"/>
            <path d="m6761.37 294.84-10.59-.4 8.53-6.29z"/>
        </g>
        <g stroke="#000" class="edge">
            <path fill="none" d="M6991.09 250.43c23.3 7.67 47.62 20.43 61.49 41.57 8.77 13.38 9.15 22.87 0 36-83.61 119.99-515.09 125.73-690 144-500.08 52.23-626.69 49.95-1129 72-106.93 4.69-1711.46 41.72-2111.95 50.93"/>
            <path d="m3121.72 598.43-10.07-3.27 9.91-3.73z"/>
        </g>
        <g stroke="#000" class="edge">
            <path fill="none" d="M6998.94 248.13c51.33 8.43 115.46 22.84 131.64 43.87 9.76 12.68 9.96 23.48 0 36-266.41 334.72-513.78 160.81-938 216-154.05 20.04-1239.09 44.54-1551.2 51.24"/>
            <path d="m4641.75 598.73-10.07-3.29 9.92-3.71z"/>
        </g>
        <g stroke="#000" class="edge">
            <path fill="none" d="M6865.34 249.1c-80.92 12.54-218.85 33.9-306.26 47.43"/>
            <path d="m6559.8 299.96-10.42-1.92 9.34-4.99z"/>
        </g>
        <g stroke="#000" class="edge">
            <path fill="none" d="M6850.28 241.42c-353.25 10.64-1768.25 53.28-2148.33 64.74"/>
            <path d="m4702.09 309.65-10.1-3.19 9.89-3.8z"/>
        </g>
        <g stroke="#000" class="edge">
            <path fill="none" d="M6952.54 255.66c22.72 19.15 52.15 50.72 31.04 72.34-18.97 19.43-1731.36 45.89-2130.5 51.8"/>
            <path d="m4853.22 383.3-10.05-3.36 9.95-3.64z"/>
        </g>
        <g stroke="#000" class="edge">
            <path fill="none" d="M5595.26 250.22c11.27 2.17 23.16 4.24 34.32 5.78 199.63 27.59 251.12 19.83 452 36 40.28 3.24 84.93 6.87 122.59 9.94"/>
            <path d="m6204.42 298.45 9.69 4.3-10.26 2.67z"/>
        </g>
        <g stroke="#000" class="edge">
            <path fill="none" d="M5595.27 250.16c11.27 2.17 23.16 4.26 34.31 5.84 91.43 12.97 329.77-1.87 414 36 21.22 9.54 19.75 21.57 38 36 13.6 10.75 29.4 21.45 43.41 30.39"/>
            <path d="m6126.47 355.18 6.61 8.29-10.33-2.36z"/>
        </g>
        <g stroke="#000" class="edge">
            <path fill="none" d="M5594.3 250.46c11.54 2.21 23.79 4.24 35.28 5.54 513.83 58.34 648.66-17.69 1163 36 7.5.78 15.3 1.82 23.06 2.99"/>
            <path d="m6816.13 291.52 9.33 5.03-10.43 1.88z"/>
        </g>
        <g stroke="#000" class="edge">
            <path fill="none" d="M5570.47 254.83c66.11 38.81 233.24 136.18 261.11 145.17 133.37 43.01 298.28 52.06 390.64 53.43"/>
            <path d="m6222.19 449.93 9.96 3.62-10.04 3.38z"/>
        </g>
        <g stroke="#000" class="edge">
            <path fill="none" d="M5555.94 255.74c23.67 31.25 78.2 99.37 135.64 144.26 85.73 67.01 270.3 62.68 198 144-24.62 27.69-256.78 43.33-377.63 49.66"/>
            <path d="m5512.29 597.15-10.17-2.99 9.81-4z"/>
        </g>
        <g stroke="#000" class="edge">
            <path fill="none" d="M5594.3 250.4c11.54 2.21 23.79 4.25 35.28 5.6 418.33 48.99 527.35.02 947 36 16.73 1.43 34.63 3.5 51.56 5.7"/>
            <path d="m6628.15 294.17 9.45 4.79-10.37 2.15z"/>
        </g>
        <g stroke="#000" class="edge">
            <path fill="none" d="M5528.07 255.97c-52.06 55.5-227.92 231.26-416.49 288.03-12.1 3.64-1592.6 41.42-1990.09 50.87"/>
            <path d="m3121.67 598.36-10.08-3.26 9.91-3.73z"/>
        </g>
        <g stroke="#000" class="edge">
            <path fill="none" d="M5549.55 256.1c18.34 55.89 66.83 232.75-32.97 287.9-75.45 41.7-654.81 50.61-874.71 52.5"/>
            <path d="m4641.96 600-10.03-3.42 9.97-3.58z"/>
        </g>
        <g stroke="#000" class="edge">
            <path fill="none" d="M5594.77 250.4c11.41 2.18 23.48 4.22 34.81 5.6 331.7 40.51 418.85-.63 751 36 7.7.85 15.71 1.92 23.69 3.12"/>
            <path d="m6404.65 291.63 9.34 5.01-10.42 1.91z"/>
        </g>
        <g stroke="#000" class="edge">
            <path fill="none" d="M5490.63 249.8c-13.05 2.35-27.02 4.6-40.05 6.2-270.16 33.07-591.7 46.05-748.11 50.68"/>
            <path d="m4702.65 310.18-10.1-3.21 9.9-3.79z"/>
        </g>
        <g stroke="#000" class="edge">
            <path fill="none" d="M5488.61 249.1 4838 368.61"/>
            <path d="m4839.05 371.98-10.47-1.63 9.2-5.25z"/>
        </g>
        <g stroke="#000" class="edge">
            <path fill="none" d="M6193.22 184.03c12.53 18.13 33.25 47.53 52.36 71.97 7.17 9.17 15.33 18.96 22.71 27.6"/>
            <path d="m6270.76 281.1 3.88 9.86-9.18-5.29z"/>
        </g>
        <g stroke="#000" class="edge">
            <path fill="none" d="M6180.06 184.15c-3.26 36.71-10.94 123.19-14.95 168.32"/>
            <path d="m6168.61 352.61-4.37 9.65-2.6-10.27z"/>
        </g>
        <g stroke="#000" class="edge">
            <path fill="none" d="M6264.8 172.45c87.58 6.83 229.08 21.03 348.78 47.55 79.95 17.72 169.7 49.17 224.02 69.55"/>
            <path d="m6838.78 286.25 8.11 6.81-10.59-.26z"/>
        </g>
        <g stroke="#000" class="edge">
            <path fill="none" d="M6247.63 178.28c101.88 18.89 289.74 60.19 328.95 113.72 62.7 85.6-118.71 132.23-219.95 151.02"/>
            <path d="m6357.55 446.41-10.46-1.67 9.22-5.22z"/>
        </g>
        <g stroke="#000" class="edge">
            <path fill="none" d="M6269.46 168.68c216.77 4.6 772.64 19.24 955.12 51.32 138.36 24.33 272 20.52 272 161v74c0 35.8 164.23 22.25-299 89-332.91 47.97-1394.79 52.63-1684.42 52.99"/>
            <path d="m5513.49 600.49-10.01-3.49 10-3.51z"/>
        </g>
        <g stroke="#000" class="edge">
            <path fill="none" d="M6269.99 168.4c79.58 3.75 198.57 15.64 295.59 51.6 41.37 15.33 83.15 44.65 109.73 65.44"/>
            <path d="m6677.22 282.5 5.65 8.96-10.01-3.49z"/>
        </g>
        <g stroke="#000" class="edge">
            <path fill="none" d="M6118.75 179.12c-11.66 1.9-23.75 3.65-35.17 4.88-91 9.84-751.57-21.23-823 36-90.53 72.53 11.72 167.73-68 252-17.53 18.53-192.87 67.61-218 72-46.19 8.08-1477.55 42.1-1853.36 50.91"/>
            <path d="m3121.47 598.4-10.08-3.26 9.92-3.73z"/>
        </g>
        <g stroke="#000" class="edge">
            <path fill="none" d="M6118.75 179.12c-11.66 1.9-23.75 3.64-35.17 4.88-44.95 4.87-781.75 3.33-813 36-11.06 11.56-5.32 20.91 0 36 34.17 96.88 110.83 83.12 145 180 19.52 55.35-22.24 84.44-76 108-62.68 27.47-509.72 44.49-698.36 50.53"/>
            <path d="m4641.34 598.03-10.11-3.19 9.89-3.81z"/>
        </g>
        <g stroke="#000" class="edge">
            <path fill="none" d="M6215.07 183.01c53.96 25.8 160.1 76.55 219.89 105.14"/>
            <path d="m6436.33 284.92 7.51 7.47-10.53-1.15z"/>
        </g>
        <g stroke="#000" class="edge">
            <path fill="none" d="M6119.02 179.15c-11.74 1.91-23.93 3.65-35.44 4.85-110.58 11.53-895.44-1.8-1000 36-123.06 44.49-115.02 123.39-233 180-122.84 58.95-163.06 53.11-298 72-229.98 32.19-932.43 46.98-1192.66 51.46"/>
            <path d="m3360.18 526.95-10.06-3.32 9.94-3.68z"/>
        </g>
        <g stroke="#000" class="edge">
            <path fill="none" d="M6119.29 179.19c-11.82 1.92-24.11 3.65-35.71 4.81-178.75 17.9-1428.75 43.72-1797.09 51.02"/>
            <path d="m4286.65 238.51-10.07-3.3 9.93-3.7z"/>
        </g>
        <g class="node" transform="translate(4 616)">
            <ellipse cx="5882.58" cy="-306" fill="none" stroke="#000" rx="115.33" ry="18"/>
            <text x="5882.58" y="-300.95" font-family="Times,serif" font-size="14" text-anchor="middle">:app:core:calendar-compose</text>
        </g>
        <g stroke="#000" class="edge">
            <path fill="none" d="m6148.31 183.01-216.98 104.45"/>
            <path d="m5932.98 290.55-10.53 1.18 7.5-7.49z"/>
        </g>
        <g stroke="#000" class="edge">
            <path fill="none" d="M5422.07 249.99c14.25 2.26 29.38 4.43 43.51 6.01 255.79 28.6 321.16 19.16 578 36 52.8 3.46 111.93 7.52 159.1 10.81"/>
            <path d="m6202.85 299.31 9.73 4.19-10.22 2.8z"/>
        </g>
        <g stroke="#000" class="edge">
            <path fill="none" d="M5422.07 249.95c14.25 2.27 29.38 4.44 43.51 6.05 120.6 13.71 435.57-16.51 545 36 19.57 9.39 15.38 23.32 33 36 18.83 13.56 41.69 24.76 62.32 33.32"/>
            <path d="m6107.06 358.02 7.98 6.97-10.58-.47z"/>
        </g>
        <g stroke="#000" class="edge">
            <path fill="none" d="M5421.2 250.23c14.49 2.29 29.95 4.41 44.38 5.77 587.4 55.27 740.08-24.13 1327 36 7.5.77 15.3 1.79 23.07 2.96"/>
            <path d="m6816.13 291.49 9.33 5.03-10.42 1.89z"/>
        </g>
        <g stroke="#000" class="edge">
            <path fill="none" d="M5391.45 254.98c65.84 33.27 225.73 109.79 369.13 145.02 162.12 39.83 358.97 49.86 462.12 52.3"/>
            <path d="m6222.46 448.79 9.92 3.72-10.07 3.28z"/>
        </g>
        <g stroke="#000" class="edge">
            <path fill="none" d="M5379.41 255.71c21 18.37 56.21 48.45 88.17 72.29 106.5 79.45 136.86 99.34 262 144 61.32 21.89 102.02-15.38 142 36 9.83 12.63 10.6 24.02 0 36-23.41 26.46-243.18 42.55-359.91 49.29"/>
            <path d="m5512.06 596.78-10.19-2.93 9.79-4.06z"/>
        </g>
        <g stroke="#000" class="edge">
            <path fill="none" d="M5421.21 250.17c14.49 2.3 29.94 4.43 44.37 5.83 491.74 47.58 618.65-4.82 1111 36 16.73 1.39 34.63 3.43 51.56 5.63"/>
            <path d="m6628.16 294.1 9.45 4.79-10.38 2.15z"/>
        </g>
        <g stroke="#000" class="edge">
            <path fill="none" d="M5352.9 256.17c-20.02 42.89-78.07 155.54-160.32 215.83-82.3 60.32-117.49 54.42-218 72-46.19 8.08-1477.55 42.1-1853.36 50.91"/>
            <path d="m3121.47 598.4-10.08-3.26 9.92-3.73z"/>
        </g>
        <g stroke="#000" class="edge">
            <path fill="none" d="M5371.61 256.12c11.61 17.96 30.45 46.99 46.97 71.88 56.04 84.43 142.59 142.34 73 216-28.97 30.66-626.1 46.46-850.1 51.33"/>
            <path d="m4641.73 598.82-10.08-3.28 9.93-3.71z"/>
        </g>
        <g stroke="#000" class="edge">
            <path fill="none" d="M5421.49 250.14c14.41 2.28 29.76 4.42 44.09 5.86 404.95 40.6 510.28-6.87 915 36 7.76.82 15.84 1.88 23.87 3.08"/>
            <path d="m6404.92 291.6 9.34 5-10.42 1.92z"/>
        </g>
        <g stroke="#000" class="edge">
            <path fill="none" d="M5306.58 251.73c-33.93 9.01-78.1 22.63-115 40.27-104.09 49.76-121.81 77.36-216 144-21.77 15.4-24.65 23.12-48 36-25.33 13.97-55.1 25.86-80.58 34.81"/>
            <path d="m4848.39 510.04-10.59-.06 8.32-6.56z"/>
        </g>
        <g stroke="#000" class="edge">
            <path fill="none" d="M5313.59 252.98c-24.7 8.76-54.61 21.7-78.01 39.02-51.24 37.92-95.43 99.09-118.32 134.1"/>
            <path d="m5120.29 427.86-8.35 6.52 2.46-10.3z"/>
        </g>
        <g stroke="#000" class="edge">
            <path fill="none" d="M7076.77 249.02c-17.78 2.6-37.22 5.17-55.19 6.98-283.91 28.54-357.76 1.45-641 36-6.94.85-14.15 1.9-21.34 3.07"/>
            <path d="m6359.96 298.5-10.45-1.76 9.27-5.14z"/>
        </g>
        <g stroke="#000" class="edge">
            <path fill="none" d="M7124.89 256.14c-18.1 21.22-52.2 56.45-90.31 71.86-68.8 27.82-542.1 44.08-761.17 50.2"/>
            <path d="m6273.82 381.69-10.09-3.23 9.89-3.77z"/>
        </g>
        <g stroke="#000" class="edge">
            <path fill="none" d="M7090.48 252.41c-40.33 11.25-98.16 27.38-141.77 39.54"/>
            <path d="m6949.69 295.31-10.57-.68 8.69-6.06z"/>
        </g>
        <g stroke="#000" class="edge">
            <path fill="none" d="M7130.41 256.25c-10.32 20.02-29.92 52.7-55.83 71.75-81.88 60.18-117.56 51.11-217 72-174.82 36.72-385.48 48.01-493.12 51.48"/>
            <path d="m6364.72 454.97-10.1-3.19 9.89-3.81z"/>
        </g>
        <g stroke="#000" class="edge">
            <path fill="none" d="M7205.44 247.15c82.05 10.59 212.43 29.52 229.14 44.85 30.19 27.69 24 48.03 24 89v74c0 243.68-298.53 64.81-541 89-536.57 53.54-1187.45 54.9-1403.99 53.67"/>
            <path d="m5513.57 601.17-9.98-3.56 10.03-3.44z"/>
        </g>
        <g stroke="#000" class="edge">
            <path fill="none" d="M7075.02 248.4c-84.76 12.59-230.3 34.41-283.44 43.6-6.04 1.04-12.3 2.17-18.57 3.32"/>
            <path d="m6773.7 298.76-10.47-1.61 9.19-5.28z"/>
        </g>
        <g stroke="#000" class="edge">
            <path fill="none" d="M7141 256.43c1.75 19.01 1.84 49.64-11.42 71.57-30.05 49.68-55.11 50.4-109 72-167.27 67.03-220.21 49.55-399 72-1255.06 157.6-1579.37 81.19-2844 108-236.84 5.02-515.95 11.54-656.11 14.86"/>
            <path d="m3121.58 598.36-10.08-3.26 9.91-3.74z"/>
        </g>
        <g stroke="#000" class="edge">
            <path fill="none" d="M7203.49 248.02c72.35 10.71 180.88 29.01 193.09 43.98 10.11 12.4 8.56 22.48 0 36-97.03 153.32-205.35 102.61-382 144-199.34 46.71-251.12 53.25-455 72-96.73 8.9-1550.56 42.66-1918.09 51.08"/>
            <path d="m4641.75 598.58-10.07-3.27 9.91-3.73z"/>
        </g>
        <g stroke="#000" class="edge">
            <path fill="none" d="M7075.82 248.78c-17.53 2.55-36.61 5.16-54.24 7.22-180.37 21.06-226.43 16.73-407 36-16.79 1.79-34.72 3.9-51.87 6"/>
            <path d="m6563.43 301.44-10.35-2.24 9.49-4.71z"/>
        </g>
        <g stroke="#000" class="edge">
            <path fill="none" d="M7136.17 256.47c-3.55 19.61-11.9 51.33-30.59 71.53-51.87 56.04-82.55 51.1-156 72-394.76 112.33-1689.15 123.97-2060.55 124.97"/>
            <path d="m4889.04 528.47-10.01-3.47 10-3.53z"/>
        </g>
        <g stroke="#000" class="edge">
            <path fill="none" d="M7077.72 249.37c-18.02 2.66-37.83 5.17-56.14 6.63-555.42 44.15-1949.91 26.91-2507 36-298.26 4.87-650.32 11.56-823.23 14.91"/>
            <path d="m3691.55 310.41-10.07-3.31 9.93-3.69z"/>
        </g>
        <g stroke="#000" class="edge">
            <path fill="none" d="M5797.42 248.01c105.97 13.1 302.02 37.35 412.33 50.99"/>
            <path d="m6210.13 295.52 9.49 4.7-10.35 2.25z"/>
        </g>
        <g stroke="#000" class="edge">
            <path fill="none" d="M5805.27 244.67c90.22 7.43 229.8 22.53 276.31 47.33 27.09 14.45 49.77 41.63 64.18 62.18"/>
            <path d="m6148.6 352.14 2.7 10.25-8.5-6.33z"/>
        </g>
        <g stroke="#000" class="edge">
            <path fill="none" d="M5810.71 239.56c181.93 1.99 618.5 11.08 981.87 52.44 7.38.84 15.06 1.9 22.7 3.08"/>
            <path d="m6815.61 291.58 9.32 5.05-10.43 1.87z"/>
        </g>
        <g stroke="#000" class="edge">
            <path fill="none" d="M5727.55 256.16c4.32 19.93 14.22 52.53 35.03 71.84 67.39 62.53 337.95 102.11 464.77 117.59"/>
            <path d="m6227.42 442.07 9.51 4.67-10.35 2.28z"/>
        </g>
        <g stroke="#000" class="edge">
            <path fill="none" d="M5723.28 256.3c-.68 18.63.34 48.68 11.3 71.7 53.36 112.06 259.72 123.47 177 216-26.11 29.21-273.63 44.26-399.4 50.08"/>
            <path d="m5512.43 597.57-10.15-3.04 9.83-3.95z"/>
        </g>
        <g stroke="#000" class="edge">
            <path fill="none" d="M5808.78 242.26c153.1 6.36 487.19 22.27 767.8 49.74 16.37 1.6 33.88 3.7 50.5 5.87"/>
            <path d="m6627.47 294.39 9.45 4.79-10.37 2.15z"/>
        </g>
        <g stroke="#000" class="edge">
            <path fill="none" d="M5703.49 255.89c-70.52 55.23-306.6 230.28-535.91 288.11-12.61 3.18-1642.61 41.47-2046.34 50.91"/>
            <path d="m3121.54 598.4-10.08-3.26 9.91-3.74z"/>
        </g>
        <g stroke="#000" class="edge">
            <path fill="none" d="M5720.95 256.4c-12.43 54.55-58.87 222.38-171.37 287.6-77.45 44.9-681.87 51.83-907.47 52.85"/>
            <path d="m4642.22 600.35-10.01-3.46 9.98-3.54z"/>
        </g>
        <g stroke="#000" class="edge">
            <path fill="none" d="M5807.42 243.27c124.68 6.96 367.85 22.68 573.16 48.73 7.42.94 15.14 2.05 22.84 3.25"/>
            <path d="m6403.84 291.77 9.32 5.04-10.43 1.87z"/>
        </g>
        <g stroke="#000" class="edge">
            <path fill="none" d="M5666.23 251.67C5517.2 284.58 5126.05 374.43 5008.58 436c-22.08 11.57-21.06 24.18-43 36-32.23 17.35-70.89 29.77-103.85 38.2"/>
            <path d="m4862.81 513.54-10.55-1 8.87-5.8z"/>
        </g>
        <g stroke="#000" class="edge">
            <path fill="none" d="M5662.12 250.72c-13.33 2.11-27.37 4.03-40.54 5.28-192.19 18.27-1537.64 43.92-1929.9 51.08"/>
            <path d="m3691.93 310.57-10.07-3.31 9.94-3.69z"/>
        </g>
        <g class="node" transform="translate(4 616)">
            <ellipse cx="4153.58" cy="-90" fill="none" stroke="#000" rx="106.11" ry="18"/>
            <text x="4153.58" y="-84.95" font-family="Times,serif" font-size="14" text-anchor="middle">:library:firebase-common</text>
        </g>
        <g stroke="#000" class="edge">
            <path fill="none" d="M4133.49 472.3c3.49 7.63 7.67 16.78 11.57 25.3"/>
            <path d="m4148.16 495.97.97 10.55-7.34-7.64z"/>
        </g>
        <g stroke="#000" class="edge">
            <path fill="none" d="M1982.07 472.36c-5.17 20.12-9.7 52.9 8.51 71.64 26.55 27.32 560.68 44.97 768.9 50.84"/>
            <path d="m2759.52 591.34 9.9 3.78-10.09 3.22z"/>
        </g>
        <g stroke="#000" class="edge">
            <path fill="none" d="M457.49 539.06c15.25 1.97 31.14 3.75 46.09 4.94 451.8 35.97 1893.82 49.51 2255.24 52.39"/>
            <path d="m2758.73 592.89 9.97 3.57-10.03 3.43z"/>
        </g>
        <g stroke="#000" class="edge">
            <path fill="none" d="M1001.55 471.38c50.08 21.29 142.79 57.51 226.03 72.62 298.41 54.17 1245.27 54.63 1531.35 53.48"/>
            <path d="m2758.51 593.98 10.02 3.46-9.99 3.54z"/>
        </g>
        <g stroke="#000" class="edge">
            <path fill="none" d="M1203.82 463.97c17.91 2.9 38.18 5.91 56.76 8.03 222.24 25.41 283.64-12.52 502 36 43.67 9.7 50.08 27.49 94 36 230.09 44.59 1874.69 30.64 2109 36 181.37 4.15 393.95 10.66 508.56 14.3"/>
            <path d="m4474.2 590.8 9.88 3.81-10.1 3.18z"/>
        </g>
        <g stroke="#000" class="edge">
            <path fill="none" d="M5945.45 325.93c43.88 11.13 103.87 26.35 149.68 37.96"/>
            <path d="m6095.86 360.47 8.83 5.85-10.55.93z"/>
        </g>
        <g stroke="#000" class="edge">
            <path fill="none" d="M5912.54 327.85c31.81 19.94 87.9 52.86 140.04 72.15 57.96 21.44 127.13 35.55 176.47 43.78"/>
            <path d="m6229.4 440.29 9.31 5.06-10.43 1.85z"/>
        </g>
        <g stroke="#000" class="edge">
            <path fill="none" d="M5885.85 328.24c-2.92 44.57-17.49 163.74-90.27 215.76-46.88 33.51-882.78 48.06-1153.88 51.91"/>
            <path d="m4641.94 599.4-10.05-3.36 9.95-3.64z"/>
        </g>
    </g>
</svg>
