<svg xmlns="http://www.w3.org/2000/svg" width="1246pt" height="260pt" viewBox="0 0 1245.97 260">
    <g class="graph">
        <path fill="#fff" d="M0 260V0h1245.97v260z"/>
        <g class="node" transform="translate(4 256)">
            <ellipse cx="391.99" cy="-234" fill="none" stroke="#000" rx="62.1" ry="18"/>
            <text x="391.99" y="-228.95" font-family="Times,serif" font-size="14" text-anchor="middle">:app:data:fcm</text>
        </g>
        <g class="node" transform="translate(4 256)">
            <ellipse cx="78.99" cy="-18" fill="none" stroke="#000" rx="78.99" ry="18"/>
            <text x="78.99" y="-12.95" font-family="Times,serif" font-size="14" text-anchor="middle">:library:coroutines</text>
        </g>
        <g stroke="#000" class="edge">
            <path fill="none" d="M361.25 37.36C339.07 47.1 310.06 60.92 285.99 76c-67.58 42.34-138.91 103.25-176.39 136.71"/>
            <path d="m112.16 215.11-9.78 4.08 5.1-9.29z"/>
        </g>
        <g class="node" transform="translate(4 256)">
            <ellipse cx="248.99" cy="-18" fill="none" stroke="#000" rx="72.85" ry="18"/>
            <text x="248.99" y="-12.95" font-family="Times,serif" font-size="14" text-anchor="middle">:library:datetime</text>
        </g>
        <g stroke="#000" class="edge">
            <path fill="none" d="M362.74 37.48c-17.18 8.93-37.31 21.89-50.75 38.52-31.97 39.56-47.54 98.03-54.37 132.55"/>
            <path d="m261.09 209-5.26 9.2-1.62-10.47z"/>
        </g>
        <g class="node" transform="translate(4 256)">
            <ellipse cx="738.99" cy="-90" fill="none" stroke="#000" rx="95.88" ry="18"/>
            <text x="738.99" y="-84.95" font-family="Times,serif" font-size="14" text-anchor="middle">:app:core:diary-service</text>
        </g>
        <g stroke="#000" class="edge">
            <path fill="none" d="M430.85 37.27c62.04 25.38 191.75 78.46 262.88 107.57"/>
            <path d="m694.87 141.53 7.93 7.02-10.58-.54z"/>
        </g>
        <g class="node" transform="translate(4 256)">
            <ellipse cx="391.99" cy="-162" fill="none" stroke="#000" rx="74.89" ry="18"/>
            <text x="391.99" y="-156.95" font-family="Times,serif" font-size="14" text-anchor="middle">:app:domain:fcm</text>
        </g>
        <g stroke="red" stroke-width="2" class="edge">
            <path fill="none" d="M395.99 40.3v24.16"/>
            <path fill="red" d="m399.49 62.87-3.5 10-3.5-10z"/>
        </g>
        <g class="node" transform="translate(4 256)">
            <ellipse cx="893.99" cy="-162" fill="none" stroke="#000" rx="112.26" ry="18"/>
            <text x="893.99" y="-156.95" font-family="Times,serif" font-size="14" text-anchor="middle">:library:firebase-messaging</text>
        </g>
        <g stroke="#000" class="edge">
            <path fill="none" d="M451.15 30.69c85.03 11.86 249.14 34.74 353.06 49.23"/>
            <path d="m804.4 76.42 9.43 4.84-10.39 2.09z"/>
        </g>
        <g class="node" transform="translate(4 256)">
            <ellipse cx="740.99" cy="-18" fill="none" stroke="#000" rx="71.31" ry="18"/>
            <text x="740.99" y="-12.95" font-family="Times,serif" font-size="14" text-anchor="middle">:app:core:model</text>
        </g>
        <g stroke="#000" class="edge">
            <path fill="none" d="M743.48 184.3c.21 7.29.46 15.97.69 24.16"/>
            <path d="m747.67 208.29-3.21 10.09-3.79-9.89z"/>
        </g>
        <g class="node" transform="translate(4 256)">
            <ellipse cx="566.99" cy="-18" fill="none" stroke="#000" rx="85.13" ry="18"/>
            <text x="566.99" y="-12.95" font-family="Times,serif" font-size="14" text-anchor="middle">:common:exception</text>
        </g>
        <g stroke="#000" class="edge">
            <path fill="none" d="M703.96 182.88c-25 10.18-57.64 23.46-84.33 34.32"/>
            <path d="m620.96 220.44-10.58.53 7.94-7.01z"/>
        </g>
        <g class="node" transform="translate(4 256)">
            <ellipse cx="1115.99" cy="-18" fill="none" stroke="#000" rx="121.98" ry="18"/>
            <text x="1115.99" y="-12.95" font-family="Times,serif" font-size="14" text-anchor="middle">:app:core:account-preferences</text>
        </g>
        <g stroke="#000" class="edge">
            <path fill="none" d="M809.52 179.35c62.78 11.66 157.18 29.19 225.4 41.85"/>
            <path d="m1035.38 217.73 9.19 5.27-10.47 1.61z"/>
        </g>
        <g class="node" transform="translate(4 256)">
            <ellipse cx="902.99" cy="-18" fill="none" stroke="#000" rx="72.85" ry="18"/>
            <text x="902.99" y="-12.95" font-family="Times,serif" font-size="14" text-anchor="middle">:common:model</text>
        </g>
        <g stroke="#000" class="edge">
            <path fill="none" d="M780.2 182.88c23.98 10.24 55.34 23.62 80.86 34.52"/>
            <path d="m862.39 214.16 7.83 7.14-10.57-.7z"/>
        </g>
        <g stroke="#000" class="edge">
            <path fill="none" d="M361.9 110.47c-56.92 25.82-171.26 77.69-234.43 106.35"/>
            <path d="m128.97 219.98-10.55.95 7.66-7.32z"/>
        </g>
        <g stroke="#000" class="edge">
            <path fill="none" d="M379.02 111.85c-25.05 24.87-72.08 71.58-101.07 100.36"/>
            <path d="m280.57 214.55-9.56 4.56 4.63-9.53z"/>
        </g>
        <g stroke="#000" class="edge">
            <path fill="none" d="M448.41 107.11c36.29 9.2 85.3 23.27 126.58 40.89 29.66 12.66 34.54 20.84 63 36 21.09 11.24 44.88 23.1 64.67 32.75"/>
            <path d="m704.07 213.54 7.47 7.52-10.53-1.22z"/>
        </g>
        <g stroke="#000" class="edge">
            <path fill="none" d="M463.31 102.22c31.53 6.84 67.04 20.1 89.68 45.78 14.43 16.38 18.52 41.08 19.23 60.3"/>
            <path d="m575.72 208.19-3.45 10.02-3.55-9.98z"/>
        </g>
        <g class="node" transform="translate(4 256)">
            <ellipse cx="401.99" cy="-18" fill="none" stroke="#000" rx="62.1" ry="18"/>
            <text x="401.99" y="-12.95" font-family="Times,serif" font-size="14" text-anchor="middle">:library:kotlin</text>
        </g>
        <g stroke="#000" class="edge">
            <path fill="none" d="M379.1 112.01c-8.4 9.68-17.69 22.53-22.11 35.99-4.99 15.2-5.83 21.1 0 36 4.2 10.74 11.72 20.61 19.62 28.84"/>
            <path d="m379 210.29 4.77 9.46-9.63-4.42z"/>
        </g>
        <g class="node" transform="translate(4 256)">
            <ellipse cx="450.99" cy="-90" fill="none" stroke="#000" rx="88.71" ry="18"/>
            <text x="450.99" y="-84.95" font-family="Times,serif" font-size="14" text-anchor="middle">:app:domain:account</text>
        </g>
        <g stroke="red" stroke-width="2" class="edge">
            <path fill="none" d="M410.27 111.95c6.96 8.25 15.47 18.35 23.19 27.51"/>
            <path fill="red" d="m435.12 135.99 3.77 9.91-9.12-5.39z"/>
        </g>
        <g class="node" transform="translate(4 256)">
            <ellipse cx="958.99" cy="-90" fill="none" stroke="#000" rx="106.11" ry="18"/>
            <text x="958.99" y="-84.95" font-family="Times,serif" font-size="14" text-anchor="middle">:library:firebase-common</text>
        </g>
        <g stroke="#000" class="edge">
            <path fill="none" d="M914.06 112.3c7.63 8.23 16.91 18.22 25.32 27.28"/>
            <path d="m941.84 137.08 4.24 9.71-9.37-4.95z"/>
        </g>
        <g stroke="#000" class="edge">
            <path fill="none" d="M390.96 178.83C333.38 189.5 246.5 205.66 170.99 220c-5.92 1.12-12.07 2.3-18.24 3.48"/>
            <path d="m153.64 226.87-10.48-1.55 9.16-5.32z"/>
        </g>
        <g stroke="#000" class="edge">
            <path fill="none" d="M411.65 182.02c-31.24 10.82-73.56 25.49-106.63 36.95"/>
            <path d="m306.21 222.26-10.6-.03 8.31-6.58z"/>
        </g>
        <g stroke="red" stroke-width="2" class="edge">
            <path fill="none" d="M510.56 180.41c49.65 11.99 122.23 29.51 173.46 41.87"/>
            <path fill="red" d="m683.09 218.46 8.9 5.75-10.54 1.05z"/>
        </g>
        <g stroke="#000" class="edge">
            <path fill="none" d="M482.48 183.59c15.46 9.33 34.96 21.09 51.72 31.21"/>
            <path d="m535.65 211.58 6.75 8.17-10.37-2.17z"/>
        </g>
        <g stroke="#000" class="edge">
            <path fill="none" d="M442.88 184.3c-5.58 7.97-12.32 17.6-18.51 26.44"/>
            <path d="m427.43 212.47-8.6 6.19 2.87-10.2z"/>
        </g>
    </g>
</svg>
