<svg xmlns="http://www.w3.org/2000/svg" width="290pt" height="188pt" viewBox="0 0 290.39 188">
    <g class="graph">
        <path fill="#fff" d="M0 188V0h290.39v188z"/>
        <g class="node" transform="translate(4 184)">
            <ellipse cx="134.54" cy="-162" fill="none" stroke="#000" rx="81.04" ry="18"/>
            <text x="134.54" y="-156.95" font-family="Times,serif" font-size="14" text-anchor="middle">:app:core:compose</text>
        </g>
        <g class="node" transform="translate(4 184)">
            <ellipse cx="134.54" cy="-90" fill="none" stroke="#000" rx="101" ry="18"/>
            <text x="134.54" y="-84.95" font-family="Times,serif" font-size="14" text-anchor="middle">:app:core:design-system</text>
        </g>
        <g stroke="red" stroke-width="2" class="edge">
            <path fill="none" d="M138.54 40.3v24.16"/>
            <path fill="red" d="m142.04 62.87-3.5 10-3.5-10z"/>
        </g>
        <g class="node" transform="translate(4 184)">
            <ellipse cx="59.54" cy="-18" fill="none" stroke="#000" rx="59.54" ry="18"/>
            <text x="59.54" y="-12.95" font-family="Times,serif" font-size="14" text-anchor="middle">:library:color</text>
        </g>
        <g stroke="red" stroke-width="2" class="edge">
            <path fill="none" d="M120.38 111.95c-9.28 8.66-20.73 19.35-30.92 28.86"/>
            <path fill="red" d="m93.18 142.12-9.7 4.27 4.93-9.38z"/>
        </g>
        <g class="node" transform="translate(4 184)">
            <ellipse cx="209.54" cy="-18" fill="none" stroke="#000" rx="72.85" ry="18"/>
            <text x="209.54" y="-12.95" font-family="Times,serif" font-size="14" text-anchor="middle">:library:datetime</text>
        </g>
        <g stroke="#000" class="edge">
            <path fill="none" d="M156.7 111.95c9.21 8.59 20.57 19.19 30.7 28.65"/>
            <path d="m189.52 137.8 4.93 9.38-9.7-4.27z"/>
        </g>
    </g>
</svg>
