<svg xmlns="http://www.w3.org/2000/svg" width="500pt" height="188pt" viewBox="0 0 499.62 188">
    <g class="graph">
        <path fill="#fff" d="M0 188V0h499.62v188z"/>
        <g class="node" transform="translate(4 184)">
            <ellipse cx="302.52" cy="-162" fill="none" stroke="#000" rx="92.3" ry="18"/>
            <text x="302.52" y="-156.95" font-family="Times,serif" font-size="14" text-anchor="middle">:server:domain:buddy</text>
        </g>
        <g class="node" transform="translate(4 184)">
            <ellipse cx="80.52" cy="-18" fill="none" stroke="#000" rx="80.52" ry="18"/>
            <text x="80.52" y="-12.95" font-family="Times,serif" font-size="14" text-anchor="middle">:server:core:model</text>
        </g>
        <g stroke="#000" class="edge">
            <path fill="none" d="M247.14 36.14c-28.81 8.29-62.89 21.07-89.62 39.86-23.52 16.54-43.67 42.61-56.8 62.27"/>
            <path d="m103.7 140.11-8.36 6.5 2.48-10.3z"/>
        </g>
        <g class="node" transform="translate(4 184)">
            <ellipse cx="264.52" cy="-18" fill="none" stroke="#000" rx="85.13" ry="18"/>
            <text x="264.52" y="-12.95" font-family="Times,serif" font-size="14" text-anchor="middle">:common:exception</text>
        </g>
        <g stroke="#000" class="edge">
            <path fill="none" d="M322.59 40.11c15.05 18.21 33.48 47.67 20.93 71.89-6.65 12.85-18.01 23.25-29.9 31.32"/>
            <path d="m315.66 146.17-10.33 2.32 6.63-8.26z"/>
        </g>
        <g class="node" transform="translate(4 184)">
            <ellipse cx="429.52" cy="-18" fill="none" stroke="#000" rx="62.1" ry="18"/>
            <text x="429.52" y="-12.95" font-family="Times,serif" font-size="14" text-anchor="middle">:library:kotlin</text>
        </g>
        <g stroke="#000" class="edge">
            <path fill="none" d="M324.12 39.8c10.51 10.23 24 23.7 35.4 36.2 18.92 20.73 39.22 45.33 53.76 63.41"/>
            <path d="m415.87 137.04 3.51 9.99-8.98-5.62z"/>
        </g>
        <g class="node" transform="translate(4 184)">
            <ellipse cx="246.52" cy="-90" fill="none" stroke="#000" rx="84.11" ry="18"/>
            <text x="246.52" y="-84.95" font-family="Times,serif" font-size="14" text-anchor="middle">:server:domain:fcm</text>
        </g>
        <g stroke="red" stroke-width="2" class="edge">
            <path fill="none" d="M292.97 39.95c-6.61 8.25-14.68 18.35-22.02 27.51"/>
            <path fill="red" d="m274.83 68.22-8.98 5.63 3.51-10z"/>
        </g>
        <g stroke="red" stroke-width="2" class="edge">
            <path fill="none" d="M213.68 110.54c-24.26 10.23-56.24 23.71-82.3 34.7"/>
            <path fill="red" d="m134.34 147.79-10.57.66 7.85-7.11z"/>
        </g>
        <g stroke="#000" class="edge">
            <path fill="none" d="M254.97 112.3c1.9 7.38 4.16 16.18 6.29 24.45"/>
            <path d="m264.65 135.87-.9 10.56-5.88-8.81z"/>
        </g>
        <g stroke="#000" class="edge">
            <path fill="none" d="M290.23 110.19c28.28 10.81 66.39 25.39 96.2 36.8"/>
            <path d="m387.5 143.65 8.09 6.84-10.59-.3z"/>
        </g>
    </g>
</svg>
