<svg xmlns="http://www.w3.org/2000/svg" width="6892" height="404pt" viewBox="0 0 5169.16 404">
    <g class="graph">
        <path fill="#fff" d="M0 404V0h5169.16v404z"/>
        <g class="node" transform="translate(4 400)">
            <ellipse cx="736.58" cy="-378" fill="none" stroke="#000" rx="92.3" ry="18"/>
            <text x="736.58" y="-372.95" font-family="Times,serif" font-size="14" text-anchor="middle">:app:platform:android</text>
        </g>
        <g class="node" transform="translate(4 400)">
            <ellipse cx="3246.58" cy="-306" fill="none" stroke="#000" rx="97.41" ry="18"/>
            <text x="3246.58" y="-300.95" font-family="Times,serif" font-size="14" text-anchor="middle">:app:platform:common</text>
        </g>
        <g stroke="red" stroke-width="2" class="edge">
            <path fill="none" d="M831.39 25.53c386.72 10.79 1895.43 52.86 2312.08 64.48"/>
            <path fill="red" d="m3141.96 86.47 9.9 3.78-10.09 3.22z"/>
        </g>
        <g class="node" transform="translate(4 400)">
            <ellipse cx="541.58" cy="-162" fill="none" stroke="#000" rx="124.54" ry="18"/>
            <text x="541.58" y="-156.95" font-family="Times,serif" font-size="14" text-anchor="middle">:app:core:diary-database-room</text>
        </g>
        <g stroke="#000" class="edge">
            <path fill="none" d="M724.95 40.15 569 211.3"/>
            <path d="m571.62 213.61-9.32 5.04 4.15-9.75z"/>
        </g>
        <g class="node" transform="translate(4 400)">
            <ellipse cx="1975.58" cy="-162" fill="none" stroke="#000" rx="95.88" ry="18"/>
            <text x="1975.58" y="-156.95" font-family="Times,serif" font-size="14" text-anchor="middle">:app:core:diary-service</text>
        </g>
        <g stroke="#000" class="edge">
            <path fill="none" d="M808.07 34.66C1020 71.26 1671.58 183.8 1899.7 223.2"/>
            <path d="m1900.13 219.73 9.26 5.15-10.45 1.74z"/>
        </g>
        <g class="node" transform="translate(4 400)">
            <ellipse cx="1665.58" cy="-162" fill="none" stroke="#000" rx="158.32" ry="18"/>
            <text x="1665.58" y="-156.95" font-family="Times,serif" font-size="14" text-anchor="middle">:app:core:account-preferences-datastore</text>
        </g>
        <g stroke="#000" class="edge">
            <path fill="none" d="M778.11 38.84c79.01 32.67 268.98 107.6 435.47 145.16 31.62 7.13 207.18 26.6 330.98 39.85"/>
            <path d="m1544.92 220.37 9.57 4.54-10.31 2.42z"/>
        </g>
        <g class="node" transform="translate(4 400)">
            <ellipse cx="1331.58" cy="-162" fill="none" stroke="#000" rx="157.3" ry="18"/>
            <text x="1331.58" y="-156.95" font-family="Times,serif" font-size="14" text-anchor="middle">:app:core:holiday-preferences-datastore</text>
        </g>
        <g stroke="#000" class="edge">
            <path fill="none" d="M748.34 40.32C764.68 74.49 806.16 150.23 866.58 184c7.52 4.2 207.5 25.75 343.87 40.04"/>
            <path d="m1210.7 220.55 9.58 4.52-10.31 2.44z"/>
        </g>
        <g class="node" transform="translate(4 400)">
            <ellipse cx="817.58" cy="-162" fill="none" stroke="#000" rx="133.24" ry="18"/>
            <text x="817.58" y="-156.95" font-family="Times,serif" font-size="14" text-anchor="middle">:app:core:holiday-database-room</text>
        </g>
        <g stroke="#000" class="edge">
            <path fill="none" d="M732.89 40.42c-12.52 31.19-33.3 97.61-6.31 143.58 8 13.63 20.93 24.01 34.7 31.81"/>
            <path d="m762.78 212.65 7.27 7.7-10.49-1.48z"/>
        </g>
        <g class="node" transform="translate(4 400)">
            <ellipse cx="104.58" cy="-90" fill="none" stroke="#000" rx="104.58" ry="18"/>
            <text x="104.58" y="-84.95" font-family="Times,serif" font-size="14" text-anchor="middle">:app:core:holiday-service</text>
        </g>
        <g stroke="#000" class="edge">
            <path fill="none" d="M686.16 36.9C587.79 63.4 375.72 126.95 215.58 220c-30.71 17.85-61.43 44.54-82.03 64.04"/>
            <path d="m136.1 286.45-9.63 4.41 4.77-9.46z"/>
        </g>
        <g stroke="#000" class="edge">
            <path fill="none" d="M3153.4 95.58c-261.09 2.09-964.57 11.49-1060.82 52.42-21.41 9.1-20.01 21.25-38 36-12.58 10.31-27.04 20.82-39.88 29.73"/>
            <path d="m2016.72 216.59-10.23 2.76 6.27-8.54z"/>
        </g>
        <g stroke="#000" class="edge">
            <path fill="none" d="M3153.37 96.12c-377.93 4.54-1749.98 22.69-2184.79 51.88-288.68 19.38-366.9-.51-647 72-61.88 16.02-129.33 46.62-171.39 67.42"/>
            <path d="m151.93 290.46-10.51 1.34 7.38-7.6z"/>
        </g>
        <g class="node" transform="translate(4 400)">
            <ellipse cx="4730.58" cy="-90" fill="none" stroke="#000" rx="101" ry="18"/>
            <text x="4730.58" y="-84.95" font-family="Times,serif" font-size="14" text-anchor="middle">:app:core:design-system</text>
        </g>
        <g stroke="#000" class="edge">
            <path fill="none" d="M3348.17 94.88c331.79.62 1401.21 11.5 1499.41 125.12 10.46 12.11 8.58 22.5 0 36-9.96 15.67-25.92 26.79-42.74 34.65"/>
            <path d="m4806.26 293.85-10.57.69 7.83-7.13z"/>
        </g>
        <g class="node" transform="translate(4 400)">
            <ellipse cx="3878.58" cy="-90" fill="none" stroke="#000" rx="86.67" ry="18"/>
            <text x="3878.58" y="-84.95" font-family="Times,serif" font-size="14" text-anchor="middle">:app:core:navigation</text>
        </g>
        <g stroke="#000" class="edge">
            <path fill="none" d="M3343.63 99.57c72.3 5.79 174.19 18.86 258.95 48.43 97.04 33.85 198.65 101.76 248.55 137.6"/>
            <path d="m3853.13 282.73 6.04 8.71-10.15-3.04z"/>
        </g>
        <g class="node" transform="translate(4 400)">
            <ellipse cx="4601.58" cy="-18" fill="none" stroke="#000" rx="82.57" ry="18"/>
            <text x="4601.58" y="-12.95" font-family="Times,serif" font-size="14" text-anchor="middle">:app:core:resources</text>
        </g>
        <g stroke="#000" class="edge">
            <path fill="none" d="M3347.86 95.69c289.11 2.48 1140.08 13.02 1414.72 52.31 175.5 25.11 295.64-16 372 144 6.89 14.44 10.73 24.14 0 36-7.33 8.1-293.12 33.2-441.51 45.73"/>
            <path d="m4693.52 377.21-10.26-2.65 9.67-4.33z"/>
        </g>
        <g class="node" transform="translate(4 400)">
            <ellipse cx="4878.58" cy="-18" fill="none" stroke="#000" rx="59.54" ry="18"/>
            <text x="4878.58" y="-12.95" font-family="Times,serif" font-size="14" text-anchor="middle">:library:color</text>
        </g>
        <g stroke="#000" class="edge">
            <path fill="none" d="M3347.49 96.34c331.89 4.84 1410.88 22.65 1564.09 51.66 93.65 17.73 129.96 9.6 202 72 38.46 33.31 70.32 68.7 38 108-24.82 30.19-128.49 43.46-199.63 49.09"/>
            <path d="m4952.57 380.55-10.23-2.74 9.7-4.24z"/>
        </g>
        <g class="node" transform="translate(4 400)">
            <ellipse cx="3809.58" cy="-18" fill="none" stroke="#000" rx="62.1" ry="18"/>
            <text x="3809.58" y="-12.95" font-family="Times,serif" font-size="14" text-anchor="middle">:library:kotlin</text>
        </g>
        <g stroke="#000" class="edge">
            <path fill="none" d="M3347.32 96.48c247.93 4.27 888.88 18.46 920.26 51.52 68.23 71.88 65.04 74.86-120 180-43.74 24.85-178.59 40.18-262.97 47.6"/>
            <path d="m3885.08 379.07-10.27-2.63 9.67-4.34z"/>
        </g>
        <g class="node" transform="translate(4 400)">
            <ellipse cx="3694.58" cy="-90" fill="none" stroke="#000" rx="79.5" ry="18"/>
            <text x="3694.58" y="-84.95" font-family="Times,serif" font-size="14" text-anchor="middle">:library:navigation</text>
        </g>
        <g stroke="#000" class="edge">
            <path fill="none" d="M3336.95 102.63c79.79 8.27 191.54 23.3 229.63 45.37 55.36 32.08 97.28 96.78 117.87 133.65"/>
            <path d="m3687.49 279.91 1.7 10.45-7.85-7.11z"/>
        </g>
        <g class="node" transform="translate(4 400)">
            <ellipse cx="2182.58" cy="-18" fill="none" stroke="#000" rx="78.99" ry="18"/>
            <text x="2182.58" y="-12.95" font-family="Times,serif" font-size="14" text-anchor="middle">:library:coroutines</text>
        </g>
        <g stroke="#000" class="edge">
            <path fill="none" d="M3153.41 96.16c-325.04 4.15-1372.77 19.74-1708.83 51.84-198.57 18.97-313.76-79.94-443 72-10.37 12.19-8.41 22.39 0 36 18.81 30.43 42.44 15.85 72 36 19.76 13.47 17.83 27.02 40 36 101.51 41.1 876.19 23.58 985 36 6.9.79 14.07 1.82 21.2 2.98"/>
            <path d="m2120.17 363.5 9.26 5.15-10.45 1.74z"/>
        </g>
        <g class="node" transform="translate(4 400)">
            <ellipse cx="3396.58" cy="-18" fill="none" stroke="#000" rx="72.85" ry="18"/>
            <text x="3396.58" y="-12.95" font-family="Times,serif" font-size="14" text-anchor="middle">:library:datetime</text>
        </g>
        <g stroke="#000" class="edge">
            <path fill="none" d="M3308.25 108.94c54.2 16.51 132.23 49.84 168.33 111.06 11.12 18.87-3.07 95.79-10 108-6.73 11.86-17.26 22.09-27.94 30.31"/>
            <path d="m3440.7 361.14-10.17 2.98 6.09-8.67z"/>
        </g>
        <g class="node" transform="translate(4 400)">
            <ellipse cx="5014.58" cy="-90" fill="none" stroke="#000" rx="89.23" ry="18"/>
            <text x="5014.58" y="-84.95" font-family="Times,serif" font-size="14" text-anchor="middle">:library:shimmer-m3</text>
        </g>
        <g stroke="#000" class="edge">
            <path fill="none" d="M3347.34 96.52c302.45 5.02 1217.63 22.46 1348.24 51.48 114.53 25.45 234.33 99.81 290.41 137.91"/>
            <path d="m4987.88 282.96 6.26 8.55-10.22-2.78z"/>
        </g>
        <g class="node" transform="translate(4 400)">
            <ellipse cx="2711.58" cy="-234" fill="none" stroke="#000" rx="71.31" ry="18"/>
            <text x="2711.58" y="-228.95" font-family="Times,serif" font-size="14" text-anchor="middle">:app:data:memo</text>
        </g>
        <g stroke="red" stroke-width="2" class="edge">
            <path fill="none" d="M3164.29 102.63c-91.77 8.68-240.99 24.41-368.71 45.37-5.55.91-11.3 1.95-17.05 3.05"/>
            <path fill="red" d="m2780.98 154.13-10.49-1.49 9.13-5.38z"/>
        </g>
        <g class="node" transform="translate(4 400)">
            <ellipse cx="2876.58" cy="-234" fill="none" stroke="#000" rx="75.92" ry="18"/>
            <text x="2876.58" y="-228.95" font-family="Times,serif" font-size="14" text-anchor="middle">:app:data:account</text>
        </g>
        <g stroke="#000" class="edge">
            <path fill="none" d="M3184.43 107.51c-66.12 12.51-167.37 31.67-234.57 44.38"/>
            <path d="m2950.52 155.33-10.48-1.58 9.17-5.3z"/>
        </g>
        <g class="node" transform="translate(4 400)">
            <ellipse cx="1081.58" cy="-162" fill="none" stroke="#000" rx="74.89" ry="18"/>
            <text x="1081.58" y="-156.95" font-family="Times,serif" font-size="14" text-anchor="middle">:app:data:holiday</text>
        </g>
        <g stroke="#000" class="edge">
            <path fill="none" d="M3154.18 96.87c-221.12 4.7-781.81 19.04-1249.6 51.13-327.46 22.47-410.39 23.38-735 72-6.07.91-12.37 1.97-18.65 3.1"/>
            <path d="m1151.62 226.53-10.47-1.6 9.18-5.28z"/>
        </g>
        <g class="node" transform="translate(4 400)">
            <ellipse cx="2171.58" cy="-234" fill="none" stroke="#000" rx="73.87" ry="18"/>
            <text x="2171.58" y="-228.95" font-family="Times,serif" font-size="14" text-anchor="middle">:app:data:backup</text>
        </g>
        <g stroke="#000" class="edge">
            <path fill="none" d="M3153.18 95.81c-177.53 2.46-565.35 12.36-889.6 52.19-7.47.92-15.26 2.1-22.98 3.4"/>
            <path d="m2241.33 154.83-10.46-1.7 9.23-5.19z"/>
        </g>
        <g class="node" transform="translate(4 400)">
            <ellipse cx="1975.58" cy="-234" fill="none" stroke="#000" rx="65.68" ry="18"/>
            <text x="1975.58" y="-228.95" font-family="Times,serif" font-size="14" text-anchor="middle">:app:data:fetch</text>
        </g>
        <g stroke="#000" class="edge">
            <path fill="none" d="M3154.45 97.23c-244.18 6-883.91 23.85-1094.87 50.77-6.76.86-13.79 2-20.77 3.28"/>
            <path d="m2039.56 154.7-10.49-1.53 9.15-5.34z"/>
        </g>
        <g class="node" transform="translate(4 400)">
            <ellipse cx="3358.58" cy="-162" fill="none" stroke="#000" rx="84.11" ry="18"/>
            <text x="3358.58" y="-156.95" font-family="Times,serif" font-size="14" text-anchor="middle">:app:domain:memo</text>
        </g>
        <g stroke="#000" class="edge">
            <path fill="none" d="M3264.09 112.13c19.42 24.63 55.39 70.23 78.07 98.99"/>
            <path d="m3344.64 208.6 3.44 10.02-8.94-5.68z"/>
        </g>
        <g class="node" transform="translate(4 400)">
            <ellipse cx="3241.58" cy="-90" fill="none" stroke="#000" rx="88.71" ry="18"/>
            <text x="3241.58" y="-84.95" font-family="Times,serif" font-size="14" text-anchor="middle">:app:domain:account</text>
        </g>
        <g stroke="#000" class="edge">
            <path fill="none" d="M3250.18 112.15c-.86 36.71-2.88 123.19-3.93 168.32"/>
            <path d="m3249.75 280.34-3.73 9.91-3.27-10.07z"/>
        </g>
        <g class="node" transform="translate(4 400)">
            <ellipse cx="2290.58" cy="-90" fill="none" stroke="#000" rx="87.69" ry="18"/>
            <text x="2290.58" y="-84.95" font-family="Times,serif" font-size="14" text-anchor="middle">:app:domain:holiday</text>
        </g>
        <g stroke="#000" class="edge">
            <path fill="none" d="M3156.72 99.12c-147.2 7.13-425.39 23.49-521.14 48.88-73.81 19.57-86.93 39.45-156 72-48.77 22.99-104.5 49.88-141.94 68.04"/>
            <path d="m2339.47 291.04-10.52 1.22 7.47-7.51z"/>
        </g>
        <g class="node" transform="translate(4 400)">
            <ellipse cx="2987.58" cy="-162" fill="none" stroke="#000" rx="86.67" ry="18"/>
            <text x="2987.58" y="-156.95" font-family="Times,serif" font-size="14" text-anchor="middle">:app:domain:backup</text>
        </g>
        <g stroke="#000" class="edge">
            <path fill="none" d="M3161.58 101.66c-39.98 6.75-85.75 20.11-120 46.34-20.09 15.39-33.32 41.29-41.1 61.2"/>
            <path d="m3003.84 210.2-6.7 8.2.13-10.6z"/>
        </g>
        <g class="node" transform="translate(4 400)">
            <ellipse cx="2766.58" cy="-162" fill="none" stroke="#000" rx="78.48" ry="18"/>
            <text x="2766.58" y="-156.95" font-family="Times,serif" font-size="14" text-anchor="middle">:app:domain:fetch</text>
        </g>
        <g stroke="#000" class="edge">
            <path fill="none" d="M3167.09 103.57c-47.91 7.27-108.16 20.52-157.51 44.43-22.74 11.02-21.54 24.43-44 36-37.9 19.52-83.75 32.45-121.47 40.64"/>
            <path d="m2845.18 228-10.5-1.37 9.07-5.48z"/>
        </g>
        <g class="node" transform="translate(4 400)">
            <ellipse cx="3132.58" cy="-234" fill="none" stroke="#000" rx="86.15" ry="18"/>
            <text x="3132.58" y="-228.95" font-family="Times,serif" font-size="14" text-anchor="middle">:app:core:coroutines</text>
        </g>
        <g stroke="#000" class="edge">
            <path fill="none" d="m3223.56 111.59-50.36 30.92"/>
            <path d="m3175.04 145.49-10.35 2.25 6.69-8.22z"/>
        </g>
        <g class="node" transform="translate(4 400)">
            <ellipse cx="4172.58" cy="-234" fill="none" stroke="#000" rx="81.55" ry="18"/>
            <text x="4172.58" y="-228.95" font-family="Times,serif" font-size="14" text-anchor="middle">:app:feature:memo</text>
        </g>
        <g stroke="#000" class="edge">
            <path fill="none" d="M3343.15 99.85c146.19 7.98 439.42 25.3 687.43 48.15 21.22 1.95 44.12 4.44 65.36 6.91"/>
            <path d="m4096.19 151.41 9.52 4.65-10.34 2.31z"/>
        </g>
        <g class="node" transform="translate(4 400)">
            <ellipse cx="3878.58" cy="-234" fill="none" stroke="#000" rx="88.71" ry="18"/>
            <text x="3878.58" y="-228.95" font-family="Times,serif" font-size="14" text-anchor="middle">:app:feature:calendar</text>
        </g>
        <g stroke="#000" class="edge">
            <path fill="none" d="M3336.36 102.72c102.32 9.47 278.47 26.58 429.22 45.28 11.85 1.47 24.36 3.15 36.62 4.87"/>
            <path d="m3802.45 149.37 9.4 4.87-10.39 2.06z"/>
        </g>
        <g class="node" transform="translate(4 400)">
            <ellipse cx="4029.58" cy="-162" fill="none" stroke="#000" rx="76.94" ry="18"/>
            <text x="4029.58" y="-156.95" font-family="Times,serif" font-size="14" text-anchor="middle">:app:feature:more</text>
        </g>
        <g stroke="#000" class="edge">
            <path fill="none" d="M3346.91 97.07c186.01 4.71 581.03 18.43 633.67 50.93 22.21 13.71 36.27 40.48 44.28 61.09"/>
            <path d="m4028.11 207.77.08 10.6-6.67-8.23z"/>
        </g>
        <g class="node" transform="translate(4 400)">
            <ellipse cx="4411.58" cy="-162" fill="none" stroke="#000" rx="86.15" ry="18"/>
            <text x="4411.58" y="-156.95" font-family="Times,serif" font-size="14" text-anchor="middle">:app:feature:account</text>
        </g>
        <g stroke="#000" class="edge">
            <path fill="none" d="M3347.39 96.16c245.65 3.44 880.06 15.77 968.19 51.84 32.56 13.33 61.58 42.01 79.86 63.23"/>
            <path d="m4397.9 208.72 3.72 9.92-9.09-5.43z"/>
        </g>
        <g stroke="#000" class="edge">
            <path fill="none" d="M519.22 255.89c-26.26 18.81-59.73 49.52-37.64 72.11 31.41 32.12 1572.33 31.22 1617 36 7.01.75 14.29 1.77 21.53 2.93"/>
            <path d="m2120.64 363.47 9.27 5.14-10.45 1.76z"/>
        </g>
        <g class="node" transform="translate(4 400)">
            <ellipse cx="566.58" cy="-90" fill="none" stroke="#000" rx="80.01" ry="18"/>
            <text x="566.58" y="-84.95" font-family="Times,serif" font-size="14" text-anchor="middle">:library:koin-room</text>
        </g>
        <g stroke="#000" class="edge">
            <path fill="none" d="M551.76 256.3c2.69 7.55 5.92 16.58 8.93 25.02"/>
            <path d="m563.89 279.88.07 10.59-6.66-8.24z"/>
        </g>
        <g class="node" transform="translate(4 400)">
            <ellipse cx="328.58" cy="-90" fill="none" stroke="#000" rx="101.51" ry="18"/>
            <text x="328.58" y="-84.95" font-family="Times,serif" font-size="14" text-anchor="middle">:app:core:diary-database</text>
        </g>
        <g stroke="#000" class="edge">
            <path fill="none" d="m496.98 254.97-106.93 35.14"/>
            <path d="m391.54 293.31-10.6-.2 8.41-6.45z"/>
        </g>
        <g class="node" transform="translate(4 400)">
            <ellipse cx="725.58" cy="-90" fill="none" stroke="#000" rx="60.56" ry="18"/>
            <text x="725.58" y="-84.95" font-family="Times,serif" font-size="14" text-anchor="middle">:library:room</text>
        </g>
        <g stroke="#000" class="edge">
            <path fill="none" d="M588.26 255.24c28.24 10.74 65.28 24.83 94.36 35.89"/>
            <path d="m683.82 287.85 8.1 6.82-10.59-.28z"/>
        </g>
        <g class="node" transform="translate(4 400)">
            <ellipse cx="2014.58" cy="-18" fill="none" stroke="#000" rx="71.31" ry="18"/>
            <text x="2014.58" y="-12.95" font-family="Times,serif" font-size="14" text-anchor="middle">:app:core:model</text>
        </g>
        <g stroke="#000" class="edge">
            <path fill="none" d="M1905.84 249.85c-69.63 11-165.05 28.32-176.26 42.15-10.07 12.43-10.24 23.71 0 36 26.01 31.22 131.58 44.11 207.61 49.39"/>
            <path d="m1937.39 373.89 9.75 4.15-10.21 2.84z"/>
        </g>
        <g class="node" transform="translate(4 400)">
            <ellipse cx="2820.58" cy="-18" fill="none" stroke="#000" rx="85.13" ry="18"/>
            <text x="2820.58" y="-12.95" font-family="Times,serif" font-size="14" text-anchor="middle">:common:exception</text>
        </g>
        <g stroke="#000" class="edge">
            <path fill="none" d="M2011.06 255.43c41.5 20.8 117.36 55.94 186.52 72.57 183.85 44.21 405.74 52.86 530.17 53.83"/>
            <path d="m2727.62 378.33 9.98 3.56-10.03 3.44z"/>
        </g>
        <g class="node" transform="translate(4 400)">
            <ellipse cx="2556.58" cy="-90" fill="none" stroke="#000" rx="121.98" ry="18"/>
            <text x="2556.58" y="-84.95" font-family="Times,serif" font-size="14" text-anchor="middle">:app:core:account-preferences</text>
        </g>
        <g stroke="#000" class="edge">
            <path fill="none" d="M2059.18 248.34c89.05 10.48 237.58 28.06 365.4 43.66 10.98 1.34 22.46 2.75 33.9 4.17"/>
            <path d="m2458.88 292.7 9.49 4.7-10.35 2.24z"/>
        </g>
        <g class="node" transform="translate(4 400)">
            <ellipse cx="1807.58" cy="-90" fill="none" stroke="#000" rx="72.85" ry="18"/>
            <text x="1807.58" y="-84.95" font-family="Times,serif" font-size="14" text-anchor="middle">:common:model</text>
        </g>
        <g stroke="#000" class="edge">
            <path fill="none" d="M1941.46 254.88c-24.76 10.32-57.19 23.83-83.46 34.78"/>
            <path d="m1859.51 292.82-10.58.62 7.89-7.08z"/>
        </g>
        <g stroke="#000" class="edge">
            <path fill="none" d="M1793.13 249.6c26.85 2.2 55.09 4.44 81.45 6.4 244.3 18.12 306.13 12.8 550 36 11.88 1.13 24.32 2.47 36.65 3.89"/>
            <path d="m2461.48 292.4 9.52 4.64-10.34 2.31z"/>
        </g>
        <g class="node" transform="translate(4 400)">
            <ellipse cx="1547.58" cy="-90" fill="none" stroke="#000" rx="93.32" ry="18"/>
            <text x="1547.58" y="-84.95" font-family="Times,serif" font-size="14" text-anchor="middle">:library:koin-datastore</text>
        </g>
        <g stroke="#000" class="edge">
            <path fill="none" d="M1640.71 256.12c-15.62 9.27-35.11 20.83-51.87 30.78"/>
            <path d="m1591.02 289.67-10.38 2.09 6.81-8.11z"/>
        </g>
        <g stroke="#000" class="edge">
            <path fill="none" d="M1445.99 251.2c18.86 1.81 38.28 3.5 56.59 4.8 98.61 7.01 797.92-2.45 889 36 21.43 9.05 16.63 26.8 38 36 40.46 17.41 660.44 41.66 888.03 50.03"/>
            <path d="m3317.42 374.52 9.87 3.86-10.12 3.13z"/>
        </g>
        <g stroke="#000" class="edge">
            <path fill="none" d="M1386.49 255.5c32.53 10.54 74.75 24.22 108.35 35.11"/>
            <path d="m1495.55 287.16 8.43 6.42-10.59.24z"/>
        </g>
        <g class="node" transform="translate(4 400)">
            <ellipse cx="1315.58" cy="-90" fill="none" stroke="#000" rx="120.96" ry="18"/>
            <text x="1315.58" y="-84.95" font-family="Times,serif" font-size="14" text-anchor="middle">:app:core:holiday-preferences</text>
        </g>
        <g stroke="#000" class="edge">
            <path fill="none" d="M1331.62 256.3c-1.68 7.38-3.69 16.18-5.58 24.45"/>
            <path d="m1329.47 281.45-5.64 8.97-1.19-10.53z"/>
        </g>
        <g stroke="#000" class="edge">
            <path fill="none" d="M911.78 251.63c40.02 7.96 86.79 20.61 125.8 40.37 22.23 11.26 19.73 27.08 43 36 105.68 40.53 905.54 23.23 1018 36 6.9.78 14.07 1.81 21.2 2.97"/>
            <path d="m2120.17 363.49 9.26 5.15-10.45 1.75z"/>
        </g>
        <g stroke="#000" class="edge">
            <path fill="none" d="M765.25 254.71c-40.12 11.19-93.95 26.2-134.83 37.6"/>
            <path d="m631.55 295.63-10.57-.68 8.69-6.06z"/>
        </g>
        <g stroke="#000" class="edge">
            <path fill="none" d="M799.31 255.95c-11.81 8.98-26.5 20.15-39.34 29.93"/>
            <path d="m762.29 288.51-10.07 3.27 5.83-8.84z"/>
        </g>
        <g class="node" transform="translate(4 400)">
            <ellipse cx="914.58" cy="-90" fill="none" stroke="#000" rx="110.21" ry="18"/>
            <text x="914.58" y="-84.95" font-family="Times,serif" font-size="14" text-anchor="middle">:app:core:holiday-database</text>
        </g>
        <g stroke="#000" class="edge">
            <path fill="none" d="m845.06 255.95 40.59 29.29"/>
            <path d="m887.69 282.39 6.06 8.69-10.16-3.01z"/>
        </g>
        <g stroke="#000" class="edge">
            <path fill="none" d="M181.37 323.26c13.34 1.87 27.17 3.57 40.21 4.74 339.53 30.44 1408.02 47.52 1714.23 51.88"/>
            <path d="m1935.78 376.38 9.95 3.64-10.05 3.36z"/>
        </g>
        <g stroke="#000" class="edge">
            <path fill="none" d="M4704.01 327.59c-17.48 9.48-39.6 21.49-58.44 31.71"/>
            <path d="m4647.28 362.36-10.46 1.69 7.12-7.85z"/>
        </g>
        <g stroke="#000" class="edge">
            <path fill="none" d="M4768.91 327.24c21.52 10.18 49.41 23.36 72.17 34.13"/>
            <path d="m4842.55 358.2 7.55 7.44-10.54-1.12z"/>
        </g>
        <g stroke="#000" class="edge">
            <path fill="none" d="M4641.31 317.26c-51.27 3.36-116 7.47-173.73 10.74-322.1 18.25-402.78 19.99-725 36-88.73 4.41-190.4 9.46-259.67 12.91"/>
            <path d="m3483.32 380.39-10.16-3 9.81-3.99z"/>
        </g>
        <g stroke="#000" class="edge">
            <path fill="none" d="M3819.28 322.7c-10.58 1.85-21.44 3.68-31.7 5.3-108.06 17.06-233.6 33.66-311.69 43.61"/>
            <path d="m3476.59 375.05-10.36-2.21 9.47-4.73z"/>
        </g>
        <g stroke="#000" class="edge">
            <path fill="none" d="M3644.96 323.6c-51.16 12.01-128.19 30.11-182.06 42.76"/>
            <path d="m3463.79 369.75-10.54-1.12 8.94-5.7z"/>
        </g>
        <g stroke="#000" class="edge">
            <path fill="none" d="M4987.04 327.24c-19.47 10.02-44.6 22.95-65.33 33.62"/>
            <path d="m4923.47 363.89-10.49 1.46 7.29-7.68z"/>
        </g>
        <g stroke="#000" class="edge">
            <path fill="none" d="M2645.56 170.09c-139.21 6.67-440.8 23.95-479.98 49.91-42.54 28.19-59.98 61.48-39 108 5.2 11.54 14.3 21.58 23.87 29.73"/>
            <path d="m2152.38 354.79 5.69 8.94-10.02-3.44z"/>
        </g>
        <g stroke="#000" class="edge">
            <path fill="none" d="M2767.08 178.73c9.45 1.93 19.25 3.78 28.5 5.27 71.74 11.57 270.28-11.81 325 36 37.26 32.55-8.65 73.69 27 108 24.59 23.67 109.29 37.92 173.98 45.59"/>
            <path d="m3321.94 370.11 9.53 4.62-10.33 2.34z"/>
        </g>
        <g stroke="red" stroke-width="2" class="edge">
            <path fill="none" d="M2767.06 178.86c9.45 1.91 19.26 3.73 28.52 5.14 46.05 7.02 331.6 32.43 479.05 45.35"/>
            <path fill="red" d="m3273.2 225.71 9.65 4.36-10.26 2.61z"/>
        </g>
        <g stroke="#000" class="edge">
            <path fill="none" d="M2645.52 169.99c-89.67 3.74-249.84 10.12-386.94 14.01-102.59 2.91-1753.81-6.99-1847 36-3.84 1.77-35.07 37.67-57.09 63.32"/>
            <path d="m357.29 285.43-9.16 5.32 3.84-9.87z"/>
        </g>
        <g stroke="#000" class="edge">
            <path fill="none" d="M2826.35 179.02c-10.18 1.93-20.77 3.7-30.77 4.98-278.19 35.59-350.31 15.23-630 36-29.82 2.21-62.29 5.04-91.64 7.75"/>
            <path d="m2074.65 231.2-10.28-2.56 9.63-4.41z"/>
        </g>
        <g stroke="#000" class="edge">
            <path fill="none" d="M2826.34 178.9c-10.19 1.93-20.77 3.74-30.76 5.1-218.13 29.64-282.33-24.48-494 36-66.14 18.9-101.43 13.12-137 72-11.35 18.79-4.09 43.17 5.03 61.66"/>
            <path d="m2172.69 351.98 1.66 10.47-7.83-7.15z"/>
        </g>
        <g stroke="#000" class="edge">
            <path fill="none" d="M2948.31 174.43c28.75 3.08 62.63 6.62 93.27 9.57 45.96 4.42 382.8 1.97 414 36 35.36 38.57-4.56 100.87-32.51 135.57"/>
            <path d="m3425.98 357.56-9.08 5.46 3.69-9.93z"/>
        </g>
        <g stroke="#000" class="edge">
            <path fill="none" d="M2947.13 175.02c70.25 9.29 175.68 25.78 211.45 44.98 28.1 15.08 52.73 42.37 68.54 62.76"/>
            <path d="m3229.83 280.55 3.2 10.1-8.8-5.9z"/>
        </g>
        <g stroke="#000" class="edge">
            <path fill="none" d="M2823.92 178.37c-63.08 12.92-158.2 33.29-173.34 41.63-28.38 15.62-53.92 42.76-70.48 62.98"/>
            <path d="m2583.06 284.89-8.97 5.64 3.49-10z"/>
        </g>
        <g stroke="#000" class="edge">
            <path fill="none" d="M1024.27 248.64c-19.37 2.75-40.89 5.5-60.69 7.36-328.73 30.81-413.45 3.4-742 36-9.22.92-18.84 2.06-28.41 3.33"/>
            <path d="m193.88 298.76-10.39-2.11 9.44-4.82z"/>
        </g>
        <g stroke="#000" class="edge">
            <path fill="none" d="M1093.51 256.14c10.85 21.22 32.55 56.44 63.07 71.86 93.49 47.23 837.94 24.03 942 36 6.9.79 14.07 1.83 21.2 2.99"/>
            <path d="m2120.17 363.51 9.25 5.15-10.45 1.75z"/>
        </g>
        <g stroke="#000" class="edge">
            <path fill="none" d="M1106.63 255.63c12.86 10.28 29.54 23.87 43.95 36.37 17.82 15.46 17.12 27.18 39 36 89.11 35.91 1632.96 33.31 1729 36 140.15 3.93 303.17 9.99 399.18 13.72"/>
            <path d="m3317.76 374.21 9.86 3.89-10.13 3.11z"/>
        </g>
        <g stroke="#000" class="edge">
            <path fill="none" d="M1138.7 251.02c10.21 1.95 20.84 3.73 30.88 4.98 50.58 6.27 765.19 37.49 1028.5 48.85"/>
            <path d="m2198.17 301.36 9.84 3.92-10.15 3.07z"/>
        </g>
        <g stroke="#000" class="edge">
            <path fill="none" d="M1131.25 252.66c35.75 10.7 85.85 25.68 125.39 37.51"/>
            <path d="m1257.47 286.77 8.58 6.22-10.59.48z"/>
        </g>
        <g stroke="#000" class="edge">
            <path fill="none" d="M1049.34 254.19c-23.86 10-55.4 23.22-81.52 34.17"/>
            <path d="m969.33 291.52-10.57.64 7.87-7.1z"/>
        </g>
        <g stroke="#000" class="edge">
            <path fill="none" d="M2135.44 181.33c-29.48 10.53-69.85 24.95-102.11 36.47"/>
            <path d="m2034.74 221.02-10.59.06 8.24-6.66z"/>
        </g>
        <g stroke="#000" class="edge">
            <path fill="none" d="M2160.07 183.91c-21.25 22.85-58.68 61.89-75.49 72.09-43.98 26.68-79.81-5.65-110 36-9.39 12.95-9.85 23.39 0 36 4.63 5.93 84.92 24.86 145.33 38.4"/>
            <path d="m2120.46 362.94 9 5.6-10.53 1.23z"/>
        </g>
        <g stroke="#000" class="edge">
            <path fill="none" d="M2247.89 170.16c212.76 9.42 822.81 37.45 839.69 49.84 41.39 30.37 1.74 74.92 41 108 28.62 24.12 122.92 38.5 192.5 46.07"/>
            <path d="m3321.37 370.58 9.58 4.53-10.32 2.43z"/>
        </g>
        <g stroke="#000" class="edge">
            <path fill="none" d="M2247.85 170.14c129.29 6.1 408.56 21.54 642.73 49.86 8.56 1.04 17.51 2.29 26.38 3.64"/>
            <path d="m2917.3 220.15 9.34 5.01-10.42 1.91z"/>
        </g>
        <g stroke="#000" class="edge">
            <path fill="none" d="M2115.73 176.84c-19.45 2.81-41.17 5.55-61.15 7.16-92.83 7.49-1596.98-13.28-1676 36-21.32 13.3-33.23 39.92-39.55 60.61"/>
            <path d="m342.42 281.48-6.03 8.72-.72-10.57z"/>
        </g>
        <g stroke="#000" class="edge">
            <path fill="none" d="M1979.58 184.3v24.16"/>
            <path d="m1983.08 208.38-3.5 10-3.5-10z"/>
        </g>
        <g stroke="#000" class="edge">
            <path fill="none" d="M1944.58 181.56c-21.14 9.53-48.12 23.05-70 38.44-19.03 13.38-18.06 24.01-38 36-43 25.86-77.72-4.75-107 36-9.34 12.99-10.75 24.15 0 36 27.68 30.51 328.23 30.09 369 36 6.41.93 13.07 2.01 19.71 3.16"/>
            <path d="m2118.72 363.68 9.22 5.21-10.46 1.68z"/>
        </g>
        <g stroke="#000" class="edge">
            <path fill="none" d="M2034.33 176.39c18.45 2.86 39.2 5.73 58.25 7.61 84.68 8.34 686.71 2.65 765 36 21.4 9.12 19.75 21.57 38 36 45.84 36.24 55.24 51.61 110 72 102.39 38.13 228.75 49.38 310.55 52.41"/>
            <path d="m3316.23 376.91 9.88 3.83-10.11 3.17z"/>
        </g>
        <g stroke="#000" class="edge">
            <path fill="none" d="M2034.94 176.13c18.31 2.81 38.82 5.72 57.64 7.87 211.65 24.16 461.75 40.59 590.97 48.19"/>
            <path d="m2683.62 228.69 9.78 4.07-10.19 2.91z"/>
        </g>
        <g stroke="#000" class="edge">
            <path fill="none" d="M1913.83 167.95C1611.65 172.44 369.66 192.54 340.58 220c-15.96 15.07-16.72 40.65-14.21 60.54"/>
            <path d="m329.8 279.82-1.85 10.43-5.06-9.31z"/>
        </g>
        <g stroke="#000" class="edge">
            <path fill="none" d="M3401.56 254.3c48.37 18.69 133.56 50.67 208.02 73.7 48.57 15.03 104.51 29.35 145.51 39.31"/>
            <path d="m3755.87 363.9 8.9 5.75-10.54 1.06z"/>
        </g>
        <g stroke="#000" class="edge">
            <path fill="none" d="M3301.38 250.76c-99.73 18.79-303.67 55.66-477.8 77.24-195.97 24.29-427.28 40.42-550.11 48"/>
            <path d="m2273.99 379.47-10.19-2.88 9.77-4.1z"/>
        </g>
        <g stroke="#000" class="edge">
            <path fill="none" d="M3367.24 256.41c6.44 24.09 18.15 67.84 25.84 96.56"/>
            <path d="m3396.41 351.86-.8 10.57-5.97-8.76z"/>
        </g>
        <g stroke="red" stroke-width="2" class="edge">
            <path fill="none" d="M3335.15 255.41c-15.59 9.33-35.31 21.13-52.28 31.28"/>
            <path fill="red" d="m3286.22 288.76-10.38 2.13 6.79-8.13z"/>
        </g>
        <g stroke="#000" class="edge">
            <path fill="none" d="M3283.18 244.36c-54.91 3.59-129.68 8.27-195.6 11.64-197.68 10.11-698.26-13.15-890 36-53.7 13.76-110.08 45-144.88 66.55"/>
            <path d="m2054.65 361.45-10.32 2.36 6.6-8.28z"/>
        </g>
        <g stroke="#000" class="edge">
            <path fill="none" d="M3364.36 256.31c1.03 20.39-.79 53.76-20.78 71.69-30.9 27.71-283.59 42.91-424.65 49.31"/>
            <path d="m2919.38 380.79-10.15-3.05 9.84-3.94z"/>
        </g>
        <g stroke="#000" class="edge">
            <path fill="none" d="M3319.84 320.15c111.12 13.7 319.04 39.32 426.14 52.52"/>
            <path d="m3746.28 369.18 9.5 4.7-10.36 2.25z"/>
        </g>
        <g stroke="#000" class="edge">
            <path fill="none" d="M3172.85 320.65c-21.91 2.67-46.04 5.37-68.27 7.35-303.58 27.04-664.93 43.22-829.04 49.71"/>
            <path d="m2275.71 381.2-10.12-3.1 9.85-3.89z"/>
        </g>
        <g stroke="#000" class="edge">
            <path fill="none" d="M3280.75 326.88c22.41 10.12 51.63 23.32 75.6 34.15"/>
            <path d="m3357.56 357.73 7.67 7.31-10.55-.93z"/>
        </g>
        <g stroke="red" stroke-width="2" class="edge">
            <path fill="none" d="M3158.09 313.19c-231.24 6.09-854.87 24.52-1059.51 50.81-5.99.77-12.19 1.75-18.37 2.85"/>
            <path fill="red" d="m2082.6 369.96-10.48-1.57 9.18-5.3z"/>
        </g>
        <g stroke="#000" class="edge">
            <path fill="none" d="M3178.41 322.17c-75.61 12.57-198.2 32.95-277.4 46.12"/>
            <path d="m2902.06 371.67-10.44-1.82 9.29-5.09z"/>
        </g>
        <g stroke="#000" class="edge">
            <path fill="none" d="M2364.87 321.08c20.79 2.65 43.63 5.24 64.71 6.92 466.79 37.29 585.15 15.99 1053 36 89.26 3.82 192.01 9.26 259.04 12.95"/>
            <path d="m3741.59 373.44 9.79 4.05-10.18 2.94z"/>
        </g>
        <g stroke="#000" class="edge">
            <path fill="none" d="M2268.98 327.59c-14.25 9.24-32.2 20.87-47.71 30.92"/>
            <path d="m2223.56 361.2-10.3 2.51 6.49-8.38z"/>
        </g>
        <g stroke="#000" class="edge">
            <path fill="none" d="M2358.36 322.76c12.63 2.01 25.82 3.88 38.22 5.24 177.64 19.43 713.39 41.68 920.77 49.81"/>
            <path d="m3317.38 374.31 9.86 3.89-10.13 3.11z"/>
        </g>
        <g stroke="#000" class="edge">
            <path fill="none" d="m2241.04 324.58-162.75 41.27"/>
            <path d="m2079.37 369.19-10.56-.93 8.84-5.85z"/>
        </g>
        <g stroke="#000" class="edge">
            <path fill="none" d="M2360.09 322.33c12.12 1.98 24.67 3.95 36.49 5.67 118.6 17.22 256.21 33.63 342.7 43.5"/>
            <path d="m2739.57 368.01 9.53 4.61-10.33 2.35z"/>
        </g>
        <g stroke="#000" class="edge">
            <path fill="none" d="M3063.64 248.28c71.33 9.55 183.53 25.57 279.94 43.72 71.2 13.4 87.93 21.91 159 36 84.59 16.77 182.77 32.96 245.83 42.94"/>
            <path d="m3748.93 367.48 9.34 5.01-10.43 1.9z"/>
        </g>
        <g stroke="#000" class="edge">
            <path fill="none" d="M2957.63 254.9c-45.57 20.57-129.52 55.82-205.05 73.1-165.1 37.77-363.19 48.72-475.85 51.83"/>
            <path d="m2277.03 383.33-10.09-3.24 9.91-3.76z"/>
        </g>
        <g stroke="#000" class="edge">
            <path fill="none" d="M2995.61 256.22c5.79 20.62 18.57 54.54 42.97 71.78 43.7 30.88 186.66 44.07 279.31 49.48"/>
            <path d="m3317.91 373.97 9.79 4.06-10.18 2.93z"/>
        </g>
        <g stroke="#000" class="edge">
            <path fill="none" d="M3042.37 253c40.62 11.19 97.74 26.93 141.09 38.88"/>
            <path d="m3184.27 288.47 8.71 6.04-10.57.71z"/>
        </g>
        <g stroke="#000" class="edge">
            <path fill="none" d="M2921.45 248.96c-20.55 2.63-43.08 5.24-63.87 7.04-85.22 7.39-692.95-3.16-769 36-13.69 7.05-36.83 38.79-52.73 62.36"/>
            <path d="m2038.81 356.23-8.45 6.38 2.62-10.26z"/>
        </g>
        <g stroke="#000" class="edge">
            <path fill="none" d="M2971.77 255.85c-29.51 25.08-85.13 72.38-118.91 101.1"/>
            <path d="m2855.41 359.38-9.89 3.81 5.35-9.14z"/>
        </g>
        <g stroke="#000" class="edge">
            <path fill="none" d="M2818.02 252.67c71.02 19.89 209.47 56.49 329.56 75.33 112.94 17.72 446.8 39.57 594.42 48.69"/>
            <path d="m3741.88 373.18 9.76 4.1-10.19 2.88z"/>
        </g>
        <g stroke="#000" class="edge">
            <path fill="none" d="M2766.87 256.4c-5.42 20.8-17.68 54.91-42.29 71.6-36.32 24.64-306.82 41.57-449.87 48.9"/>
            <path d="m2275.05 380.39-10.16-2.99 9.81-4z"/>
        </g>
        <g stroke="#000" class="edge">
            <path fill="none" d="M2792.64 255.74c28.7 20.8 81.19 55.58 131.94 72.26 71.29 23.42 278.66 40.16 394.8 48"/>
            <path d="m3319.41 372.49 9.75 4.16-10.21 2.83z"/>
        </g>
        <g stroke="#000" class="edge">
            <path fill="none" d="M2835.13 248.51c85.35 12.58 235.78 34.75 328.89 48.47"/>
            <path d="m3164.49 293.51 9.38 4.92-10.4 2.01z"/>
        </g>
        <g stroke="#000" class="edge">
            <path fill="none" d="M2692.1 240.01c-176.11 2.95-591.36 13.9-641.52 51.99-18.6 14.13-26.41 40.04-29.68 60.28"/>
            <path d="m2024.37 352.73-4.75 9.47-2.19-10.37z"/>
        </g>
        <g stroke="#000" class="edge">
            <path fill="none" d="M2777.2 256.41c9.2 24.19 25.95 68.23 36.86 96.94"/>
            <path d="m2817.25 351.88.28 10.59-6.82-8.1z"/>
        </g>
        <g stroke="#000" class="edge">
            <path fill="none" d="M4258.28 167.58c166.64 2.04 533.3 11.21 571.3 52.42 10.85 11.76 8.1 22.2 0 36-8.39 14.29-22.19 25.01-36.71 32.93"/>
            <path d="m4794.63 291.97-10.51 1.33 7.38-7.6z"/>
        </g>
        <g stroke="#000" class="edge">
            <path fill="none" d="M4098.28 171.46c-46.95 5.84-106.01 19.02-150.7 48.54-23.01 15.2-40.71 41.48-51.79 61.56"/>
            <path d="m3898.93 283.12-7.76 7.23 1.56-10.48z"/>
        </g>
        <g stroke="#000" class="edge">
            <path fill="none" d="M4257.83 168.17c175.74 3.2 586.09 14.55 719.75 51.83 67.02 18.69 102.85 12.56 139 72 8.31 13.67 10.71 24.12 0 36-7.02 7.79-279.76 32.76-423.83 45.45"/>
            <path d="m4693.11 376.93-10.27-2.61 9.66-4.36z"/>
        </g>
        <g stroke="#000" class="edge">
            <path fill="none" d="M4257.34 169.12c201.6 5.7 715.99 22.81 788.24 50.88 47.42 18.42 67.08 26.08 89 72 6.89 14.44 10.08 23.58 0 36-22.67 27.93-116.43 41.69-182.94 48.06"/>
            <path d="m4952.17 379.52-10.27-2.57 9.63-4.4z"/>
        </g>
        <g stroke="#000" class="edge">
            <path fill="none" d="M4185.01 184.26c7.81 18.6 16.68 48.62 5.57 71.74-22.19 46.17-43.41 50.71-90 72-68.73 31.41-154.78 44.21-214.65 49.42"/>
            <path d="m3886.45 380.89-10.25-2.67 9.68-4.3z"/>
        </g>
        <g stroke="#000" class="edge">
            <path fill="none" d="M4108.74 176.36c-54.98 8.54-134.06 22.99-201.16 43.64-59.81 18.41-125.78 48.19-167.29 68.18"/>
            <path d="m3741.91 291.28-10.52 1.22 7.47-7.52z"/>
        </g>
        <g stroke="#000" class="edge">
            <path fill="none" d="M4103.59 174.36c-36.85 3.45-82.26 7.31-123.01 9.64-35.98 2.06-1271.87 10.16-1297 36-33.56 34.5 40.21 72.23 8 108-27.26 30.27-278.33 44.45-415.87 50"/>
            <path d="m2276.03 381.49-10.14-3.1 9.86-3.89z"/>
        </g>
        <g stroke="#000" class="edge">
            <path fill="none" d="M4168.32 184.21c-18.12 35.44-65.21 115.56-132.74 143.79-49.78 20.81-392.39 40.68-552.66 48.96"/>
            <path d="m3483.38 380.44-10.17-2.98 9.81-4.01z"/>
        </g>
        <g stroke="#000" class="edge">
            <path fill="none" d="M4257.23 169.03c184.54 5.14 626.32 20.49 686.35 50.97 26.63 13.52 47.51 41.1 60.41 61.99"/>
            <path d="m5006.83 279.93 2.06 10.39-8.09-6.84z"/>
        </g>
        <g stroke="#000" class="edge">
            <path fill="none" d="M4101.66 173.52c-36.53 3.17-81.1 7.03-121.08 10.48-188.64 16.27-409.69 35.19-529.63 45.45"/>
            <path d="m3451.43 232.92-10.26-2.64 9.66-4.33z"/>
        </g>
        <g stroke="#000" class="edge">
            <path fill="none" d="M3962.07 174.27c37.45 3.26 82.75 6.99 123.51 9.73 39.46 2.65 683.75 7.34 711 36 19.1 20.09-4.26 46.5-27.57 65.32"/>
            <path d="m4771.42 287.88-10.05 3.33 5.78-8.88z"/>
        </g>
        <g stroke="#000" class="edge">
            <path fill="none" d="M3882.58 184.41v96.17"/>
            <path d="m3886.08 280.38-3.5 10-3.5-10z"/>
        </g>
        <g stroke="#000" class="edge">
            <path fill="none" d="M3963.34 173.79c169.51 14.24 546.88 45.98 547.24 46.21 25.23 15.85 63.13 91.77 82.55 133.45"/>
            <path d="m4596.23 351.82 1.01 10.54-7.36-7.61z"/>
        </g>
        <g stroke="#000" class="edge">
            <path fill="none" d="M3962.07 174.29c37.45 3.27 82.75 7 123.51 9.71 80.92 5.38 657.05-1.42 729 36 35.97 18.7 40.3 34.62 56 72 7.99 19.04 10.93 42.2 11.9 60.12"/>
            <path d="m4885.97 351.95-3.15 10.11-3.84-9.87z"/>
        </g>
        <g stroke="#000" class="edge">
            <path fill="none" d="M3962.19 174.23c60.95 7.37 137.78 21.3 157.39 45.77 10 12.49 4.92 20.78 0 36-12.15 37.56-18.89 50.52-52 72-53.98 35.02-126.8 47.46-180.63 51.62"/>
            <path d="m3887.49 383.09-10.21-2.81 9.73-4.18z"/>
        </g>
        <g stroke="#000" class="edge">
            <path fill="none" d="M3856.46 183.47c-15.65 10.12-35.75 23.59-52.88 36.53-27.53 20.8-57.4 46.44-78.22 64.86"/>
            <path d="m3727.95 287.23-9.79 4.03 5.14-9.26z"/>
        </g>
        <g stroke="#000" class="edge">
            <path fill="none" d="M3794.87 169.23c-286.79 7.44-1185.82 32.01-1315.29 50.77-64.01 9.27-239.26 23.46-282 72-14.25 16.18-16.3 40.9-15.18 60.18"/>
            <path d="m2185.88 351.85-2.56 10.28-4.41-9.63z"/>
        </g>
        <g stroke="#000" class="edge">
            <path fill="none" d="M3843.4 182.61c-25.25 10.24-58.68 24.14-87.82 37.39-65.86 29.95-85.39 32.5-146 72-20.88 13.61-21.16 23.98-43 36-31.53 17.35-69.61 30.02-101.34 38.62"/>
            <path d="m3466.33 369.95-10.56-.85 8.78-5.92z"/>
        </g>
        <g stroke="#000" class="edge">
            <path fill="none" d="M3962.07 174.35c37.44 3.29 82.75 7.01 123.51 9.65 173.6 11.26 615.27-13.63 782 36 24.16 7.19 80.3 42.36 116.91 66.27"/>
            <path d="m4986.09 283.14 6.44 8.42-10.28-2.57z"/>
        </g>
        <g stroke="#000" class="edge">
            <path fill="none" d="m3810.28 176.73-366.78 49.38"/>
            <path d="m3444.07 229.56-10.38-2.13 9.45-4.81z"/>
        </g>
        <g stroke="#000" class="edge">
            <path fill="none" d="M3795.39 169.73c-262.22 8.36-1032.58 34-1144.81 50.27-107.43 15.58-229.55 49.84-299.23 71.02"/>
            <path d="m2352.67 294.28-10.59-.42 8.54-6.27z"/>
        </g>
        <g class="node" transform="translate(4 400)">
            <ellipse cx="4668.58" cy="-162" fill="none" stroke="#000" rx="115.33" ry="18"/>
            <text x="4668.58" y="-156.95" font-family="Times,serif" font-size="14" text-anchor="middle">:app:core:calendar-compose</text>
        </g>
        <g stroke="#000" class="edge">
            <path fill="none" d="M3963.08 173.84c37.27 3.14 82.14 6.88 122.5 10.16 203.51 16.52 254.93 14.65 458 36 10.95 1.15 22.41 2.48 33.79 3.88"/>
            <path d="m4577.7 220.39 9.49 4.72-10.36 2.23z"/>
        </g>
        <g stroke="#000" class="edge">
            <path fill="none" d="M4103.36 245.97c125.51 12.53 389.63 38.91 533.23 53.24"/>
            <path d="m4636.87 295.73 9.61 4.47-10.3 2.49z"/>
        </g>
        <g stroke="#000" class="edge">
            <path fill="none" d="M4000.07 254.54c-21.4 9.92-49.4 22.89-72.69 33.69"/>
            <path d="m3928.96 291.36-10.54 1.03 7.6-7.38z"/>
        </g>
        <g stroke="#000" class="edge">
            <path fill="none" d="M4080.94 252.54c63.92 18.09 181.47 50.75 282.64 75.46 57.95 14.15 124.14 28.53 172.63 38.73"/>
            <path d="m4536.66 363.25 9.07 5.47-10.51 1.38z"/>
        </g>
        <g stroke="#000" class="edge">
            <path fill="none" d="M4092.04 250.12c92.35 17.43 277.75 51.89 435.54 77.88 101.41 16.7 219.5 33.88 290.68 43.99"/>
            <path d="m4818.37 368.47 9.41 4.87-10.4 2.06z"/>
        </g>
        <g stroke="#000" class="edge">
            <path fill="none" d="M4043.79 256.02c10.23 19.49 22.27 51.39 5.79 71.98-20.47 25.58-103.67 39.67-165.52 46.77"/>
            <path d="m3884.61 378.23-10.32-2.38 9.55-4.58z"/>
        </g>
        <g stroke="#000" class="edge">
            <path fill="none" d="M3977.51 250.72c-57.95 12.11-148.48 31.02-210.58 44"/>
            <path d="m3767.66 298.14-10.5-1.38 9.07-5.47z"/>
        </g>
        <g stroke="#000" class="edge">
            <path fill="none" d="M4025.47 256.11c-11.53 23.49-32.81 63.77-46.89 71.89-60.09 34.65-1178.67 33.92-1248 36-160.16 4.81-346.83 10.71-454.61 14.14"/>
            <path d="m2276.12 381.64-10.11-3.18 9.89-3.82z"/>
        </g>
        <g stroke="#000" class="edge">
            <path fill="none" d="M4034.76 256.43c.34 20.51-2.62 53.98-23.18 71.57-19.82 16.95-367.18 39-529.12 48.41"/>
            <path d="m3482.82 379.9-10.18-2.92 9.78-4.07z"/>
        </g>
        <g stroke="#000" class="edge">
            <path fill="none" d="M4107.33 243.51c171.86 10.57 595.12 36.91 737.25 48.49 27.53 2.24 57.47 5.04 84.64 7.71"/>
            <path d="m4929.56 296.23 9.61 4.47-10.3 2.5z"/>
        </g>
        <g stroke="#000" class="edge">
            <path fill="none" d="M3962.61 245.3c-143.35 12.74-467.23 41.51-625.92 55.61"/>
            <path d="m3337.33 304.36-10.27-2.6 9.65-4.37z"/>
        </g>
        <g stroke="#000" class="edge">
            <path fill="none" d="M4473.35 251.68c52.77 11.58 131.03 28.75 188.14 41.28"/>
            <path d="m4662.12 289.52 9.01 5.56-10.51 1.27z"/>
        </g>
        <g stroke="#000" class="edge">
            <path fill="none" d="M4343.97 248.4c-98.24 12.91-274.43 36.05-378.34 49.69"/>
            <path d="m3966.13 301.56-10.37-2.17 9.45-4.77z"/>
        </g>
        <g stroke="#000" class="edge">
            <path fill="none" d="M4432.41 255.84c19.2 18.76 51.99 49.44 83.17 72.16 15.65 11.41 33.92 22.52 49.88 31.61"/>
            <path d="m4566.73 356.3 7.01 7.94-10.43-1.83z"/>
        </g>
        <g stroke="#000" class="edge">
            <path fill="none" d="M4447.76 255.1c40.4 19.65 112.26 52.74 176.82 72.9 64.86 20.25 141.35 34.85 194.12 43.53"/>
            <path d="m4819.11 368.05 9.31 5.06-10.43 1.85z"/>
        </g>
        <g stroke="#000" class="edge">
            <path fill="none" d="M4402.15 256.24c-17.44 20.98-50.01 55.6-86.57 71.76-75.03 33.17-308.79 46.17-428.99 50.76"/>
            <path d="m3886.95 382.25-10.12-3.13 9.86-3.87z"/>
        </g>
        <g stroke="#000" class="edge">
            <path fill="none" d="M4332.59 243.16c-120.63 6.7-351.29 21.91-546.01 48.84-6.52.9-13.28 1.97-20.04 3.12"/>
            <path d="m3767.19 298.56-10.46-1.69 9.23-5.2z"/>
        </g>
        <g stroke="#000" class="edge">
            <path fill="none" d="M4355.69 251.3c-51.09 10.57-126.49 26.33-192.11 40.7-70.35 15.41-86.55 26.94-158 36-281.2 35.66-991.68 27.57-1275 36-160.16 4.76-346.83 10.68-454.62 14.12"/>
            <path d="m2276.12 381.62-10.11-3.18 9.89-3.82z"/>
        </g>
        <g stroke="#000" class="edge">
            <path fill="none" d="M4380.56 254.79c-47.9 20.78-137.02 56.63-216.98 73.21-65.28 13.53-497.66 38.45-681.03 48.56"/>
            <path d="m3482.79 380.05-10.17-2.94 9.79-4.05z"/>
        </g>
        <g stroke="#000" class="edge">
            <path fill="none" d="M4486.99 248.33c19.93 2.54 41.6 5.27 61.59 7.67 132.99 16 287.32 33.13 381.8 43.45"/>
            <path d="m4930.54 295.95 9.56 4.56-10.32 2.39z"/>
        </g>
        <g stroke="#000" class="edge">
            <path fill="none" d="M4333.77 243.89c-210.12 12.58-767.98 45.95-992.55 59.39"/>
            <path d="m3341.51 306.77-10.19-2.9 9.78-4.09z"/>
        </g>
        <g stroke="#000" class="edge">
            <path fill="none" d="M405.14 322.91c14.36 1.99 29.35 3.82 43.44 5.09 566.63 50.92 1252.28 54.05 1486.75 53.46"/>
            <path d="m1935.29 377.96 10.01 3.47-9.99 3.53z"/>
        </g>
        <g stroke="#000" class="edge">
            <path fill="none" d="M772.61 323.03c8.86 2.03 18.16 3.84 26.97 4.97 467.13 59.94 1648.2 23.7 2119 36 140.16 3.66 303.17 9.81 399.19 13.62"/>
            <path d="m3317.77 374.12 9.85 3.89-10.13 3.1z"/>
        </g>
        <g stroke="#000" class="edge">
            <path fill="none" d="M997.85 322.85c14.84 1.94 30.24 3.77 44.73 5.15 330.3 31.56 725.42 45.83 893.65 50.81"/>
            <path d="m1936.3 375.31 9.89 3.79-10.1 3.21z"/>
        </g>
        <g stroke="#000" class="edge">
            <path fill="none" d="M4687.91 256.3c7.2 8.14 15.94 18.01 23.91 27"/>
            <path d="m4714.42 280.96 4.01 9.8-9.25-5.16z"/>
        </g>
        <g stroke="#000" class="edge">
            <path fill="none" d="M4653.05 255.81c-9.98 9.62-21.46 22.49-28.47 36.19-9.64 18.83-14.39 42.31-16.74 60.42"/>
            <path d="m4611.34 352.65-4.57 9.56-2.39-10.32z"/>
        </g>
        <g stroke="#000" class="edge">
            <path fill="none" d="M4758.71 250.31c30.07 7.62 62.19 20.36 85.87 41.69 17.55 15.81 27.29 41.1 32.5 60.69"/>
            <path d="m4880.45 351.72-1.09 10.54-5.72-8.92z"/>
        </g>
        <g stroke="#000" class="edge">
            <path fill="none" d="M4613.22 253.87c-83.34 20.26-240.01 56.05-375.64 74.13-73.41 9.79-558.77 37.49-754.95 48.45"/>
            <path d="m3482.95 379.94-10.18-2.94 9.79-4.05z"/>
        </g>
    </g>
</svg>
