<svg xmlns="http://www.w3.org/2000/svg" width="764" height="260pt" viewBox="0 0 572.59 260">
    <g class="graph">
        <path fill="#fff" d="M0 260V0h572.59v260z"/>
        <g class="node" transform="translate(4 256)">
            <ellipse cx="107.46" cy="-234" fill="none" stroke="#000" rx="79.5" ry="18"/>
            <text x="107.46" y="-228.95" font-family="Times,serif" font-size="14" text-anchor="middle">:server:data:buddy</text>
        </g>
        <g class="node" transform="translate(4 256)">
            <ellipse cx="133.46" cy="-18" fill="none" stroke="#000" rx="80.52" ry="18"/>
            <text x="133.46" y="-12.95" font-family="Times,serif" font-size="14" text-anchor="middle">:server:core:model</text>
        </g>
        <g stroke="#000" class="edge">
            <path fill="none" d="M88.15 39.47C49.42 68.89-20.7 132.25 13.46 184c12.09 18.3 31.93 30.31 52.23 38.17"/>
            <path d="m66.62 218.79 8.27 6.63-10.6-.03z"/>
        </g>
        <g class="node" transform="translate(4 256)">
            <ellipse cx="107.46" cy="-90" fill="none" stroke="#000" rx="88.71" ry="18"/>
            <text x="107.46" y="-84.95" font-family="Times,serif" font-size="14" text-anchor="middle">:server:core:database</text>
        </g>
        <g stroke="#000" class="edge">
            <path fill="none" d="M111.46 40.41v96.17"/>
            <path d="m114.96 136.38-3.5 10-3.5-10z"/>
        </g>
        <g class="node" transform="translate(4 256)">
            <ellipse cx="262.46" cy="-162" fill="none" stroke="#000" rx="92.3" ry="18"/>
            <text x="262.46" y="-156.95" font-family="Times,serif" font-size="14" text-anchor="middle">:server:domain:buddy</text>
        </g>
        <g stroke="red" stroke-width="2" class="edge">
            <path fill="none" d="M145.86 38.54c22.07 9.96 50.97 23.01 74.94 33.84"/>
            <path fill="red" d="m220.65 68.47 7.68 7.31-10.56-.93z"/>
        </g>
        <g stroke="#000" class="edge">
            <path fill="none" d="M117.89 184.3c2.8 7.55 6.16 16.58 9.29 25.02"/>
            <path d="m130.38 207.88.2 10.6-6.76-8.16z"/>
        </g>
        <g stroke="#000" class="edge">
            <path fill="none" d="M257.82 112.37c-9.96 18.95-27.65 49.54-48.36 71.63-10.46 11.17-23.55 21.6-35.69 30.2"/>
            <path d="m175.78 217.07-10.22 2.76 6.26-8.54z"/>
        </g>
        <g class="node" transform="translate(4 256)">
            <ellipse cx="479.46" cy="-18" fill="none" stroke="#000" rx="85.13" ry="18"/>
            <text x="479.46" y="-12.95" font-family="Times,serif" font-size="14" text-anchor="middle">:common:exception</text>
        </g>
        <g stroke="#000" class="edge">
            <path fill="none" d="M340.02 105.24c51.42 8.72 113.9 23 131.44 42.76 14.33 16.15 16.67 40.86 15.8 60.16"/>
            <path d="m490.75 208.42-4.28 9.7-2.7-10.25z"/>
        </g>
        <g class="node" transform="translate(4 256)">
            <ellipse cx="307.46" cy="-18" fill="none" stroke="#000" rx="62.1" ry="18"/>
            <text x="307.46" y="-12.95" font-family="Times,serif" font-size="14" text-anchor="middle">:library:kotlin</text>
        </g>
        <g stroke="#000" class="edge">
            <path fill="none" d="M268.88 112.4c2.83 18.2 8.21 47.41 16.58 71.6 2.99 8.62 7.04 17.65 11.06 25.77"/>
            <path d="m299.52 207.96 1.47 10.49-7.69-7.28z"/>
        </g>
        <g class="node" transform="translate(4 256)">
            <ellipse cx="374.46" cy="-90" fill="none" stroke="#000" rx="84.11" ry="18"/>
            <text x="374.46" y="-84.95" font-family="Times,serif" font-size="14" text-anchor="middle">:server:domain:fcm</text>
        </g>
        <g stroke="red" stroke-width="2" class="edge">
            <path fill="none" d="M293.01 111.59c14.78 9.24 33.4 20.87 49.48 30.92"/>
            <path fill="red" d="m342.92 138.66 6.63 8.27-10.34-2.34z"/>
        </g>
        <g stroke="red" stroke-width="2" class="edge">
            <path fill="none" d="M329.98 181.08c-38.65 11.23-92.92 26.99-133.99 38.92"/>
            <path fill="red" d="m198.53 222.91-10.58-.57 8.63-6.15z"/>
        </g>
        <g stroke="#000" class="edge">
            <path fill="none" d="M403.35 183.59c13.73 9.15 30.98 20.65 45.96 30.64"/>
            <path d="m451.12 211.23 6.38 8.46-10.26-2.63z"/>
        </g>
        <g stroke="#000" class="edge">
            <path fill="none" d="M362.25 183.95c-8.07 8.42-17.98 18.77-26.89 28.08"/>
            <path d="m338.02 214.31-9.44 4.81 4.39-9.65z"/>
        </g>
    </g>
</svg>
