<svg xmlns="http://www.w3.org/2000/svg" width="1224" height="332pt" viewBox="0 0 917.64 332">
    <g class="graph">
        <path fill="#fff" d="M0 332V0h917.64v332z"/>
        <g class="node" transform="translate(4 328)">
            <ellipse cx="269.51" cy="-306" fill="none" stroke="#000" rx="58.52" ry="18"/>
            <text x="269.51" y="-300.95" font-family="Times,serif" font-size="14" text-anchor="middle">:app:data:tag</text>
        </g>
        <g class="node" transform="translate(4 328)">
            <ellipse cx="336.51" cy="-18" fill="none" stroke="#000" rx="78.99" ry="18"/>
            <text x="336.51" y="-12.95" font-family="Times,serif" font-size="14" text-anchor="middle">:library:coroutines</text>
        </g>
        <g stroke="#000" class="edge">
            <path fill="none" d="M275.02 40.12c2.85 29.63 9.88 92.27 22.49 143.88 8.36 34.22 22.15 72.34 31.86 97.38"/>
            <path d="m332.55 279.91.4 10.59-6.91-8.03z"/>
        </g>
        <g class="node" transform="translate(4 328)">
            <ellipse cx="506.51" cy="-18" fill="none" stroke="#000" rx="72.85" ry="18"/>
            <text x="506.51" y="-12.95" font-family="Times,serif" font-size="14" text-anchor="middle">:library:datetime</text>
        </g>
        <g stroke="#000" class="edge">
            <path fill="none" d="M281.25 40.03C300.59 81.17 354.54 187.6 424.51 256c12.74 12.45 28.9 23.36 43.77 32"/>
            <path d="m469.97 284.93 7.02 7.94-10.44-1.83z"/>
        </g>
        <g class="node" transform="translate(4 328)">
            <ellipse cx="101.51" cy="-162" fill="none" stroke="#000" rx="101.51" ry="18"/>
            <text x="101.51" y="-156.95" font-family="Times,serif" font-size="14" text-anchor="middle">:app:core:diary-database</text>
        </g>
        <g stroke="#000" class="edge">
            <path fill="none" d="M254.24 39.29c-29.43 24.88-85.77 72.49-120.02 101.45"/>
            <path d="m136.65 143.26-9.9 3.78 5.38-9.12z"/>
        </g>
        <g class="node" transform="translate(4 328)">
            <ellipse cx="414.51" cy="-234" fill="none" stroke="#000" rx="71.31" ry="18"/>
            <text x="414.51" y="-228.95" font-family="Times,serif" font-size="14" text-anchor="middle">:app:domain:tag</text>
        </g>
        <g stroke="red" stroke-width="2" class="edge">
            <path fill="none" d="M303.91 37.67c20.95 10.12 49.09 23.71 72.24 34.88"/>
            <path fill="red" d="m376.18 68.68 7.49 7.5-10.53-1.2z"/>
        </g>
        <g class="node" transform="translate(4 328)">
            <ellipse cx="168.51" cy="-18" fill="none" stroke="#000" rx="71.31" ry="18"/>
            <text x="168.51" y="-12.95" font-family="Times,serif" font-size="14" text-anchor="middle">:app:core:model</text>
        </g>
        <g stroke="#000" class="edge">
            <path fill="none" d="M113.72 184.41c11.47 24.3 32.38 68.62 45.92 97.32"/>
            <path d="m162.69 279.98 1.1 10.54-7.43-7.55z"/>
        </g>
        <g stroke="#000" class="edge">
            <path fill="none" d="M400.63 111.54c-9.46 9.73-20.46 22.79-27.12 36.46-21.02 43.18-28.67 99.19-31.44 132.48"/>
            <path d="m345.59 280.42-4.22 9.72-2.77-10.23z"/>
        </g>
        <g stroke="#000" class="edge">
            <path fill="none" d="M416.93 112.13c-2 31.32-2.17 98.71 27.58 143.87 7.7 11.7 18.82 22.03 29.74 30.39"/>
            <path d="m476.02 283.36 6.05 8.7-10.15-3.03z"/>
        </g>
        <g stroke="#000" class="edge">
            <path fill="none" d="M398.55 111.6c-12.44 10.39-28.74 24.1-43.04 36.4-55.74 47.96-120.13 104.99-155.74 136.68"/>
            <path d="m202.28 287.13-9.79 4.04 5.14-9.27z"/>
        </g>
        <g class="node" transform="translate(4 328)">
            <ellipse cx="824.51" cy="-18" fill="none" stroke="#000" rx="85.13" ry="18"/>
            <text x="824.51" y="-12.95" font-family="Times,serif" font-size="14" text-anchor="middle">:common:exception</text>
        </g>
        <g stroke="#000" class="edge">
            <path fill="none" d="M487.43 98.95c52.38 5.45 124.78 18.39 181.08 49.05 61.63 33.57 114.94 98.34 141.68 134.67"/>
            <path d="m812.8 280.3 3.03 10.15-8.7-6.05z"/>
        </g>
        <g class="node" transform="translate(4 328)">
            <ellipse cx="659.51" cy="-18" fill="none" stroke="#000" rx="62.1" ry="18"/>
            <text x="659.51" y="-12.95" font-family="Times,serif" font-size="14" text-anchor="middle">:library:kotlin</text>
        </g>
        <g stroke="#000" class="edge">
            <path fill="none" d="M489.01 97.42c46.6 4.86 106.75 17.72 149.5 50.58 40.46 31.1 45.57 57.39 39 108-1.07 8.24-3.04 17.03-5.17 25.03"/>
            <path d="m675.72 281.93-6.12 8.65-.61-10.57z"/>
        </g>
        <g class="node" transform="translate(4 328)">
            <ellipse cx="538.51" cy="-90" fill="none" stroke="#000" rx="88.71" ry="18"/>
            <text x="538.51" y="-84.95" font-family="Times,serif" font-size="14" text-anchor="middle">:app:domain:account</text>
        </g>
        <g stroke="#000" class="edge">
            <path fill="none" d="M420.1 112.2c2.58 19.37 9.28 50.86 26.41 71.8 11.37 13.9 27.4 24.75 43.1 32.92"/>
            <path d="m491.02 213.71 7.46 7.53-10.53-1.24z"/>
        </g>
        <g class="node" transform="translate(4 328)">
            <ellipse cx="538.51" cy="-162" fill="none" stroke="#000" rx="86.67" ry="18"/>
            <text x="538.51" y="-156.95" font-family="Times,serif" font-size="14" text-anchor="middle">:app:domain:backup</text>
        </g>
        <g stroke="red" stroke-width="2" class="edge">
            <path fill="none" d="M446.65 110.88c16.88 9.53 38.59 21.79 57.08 32.23"/>
            <path fill="red" d="m504 139.24 6.99 7.96-10.43-1.86z"/>
        </g>
        <g stroke="#000" class="edge">
            <path fill="none" d="M499.17 254.02c-30.93 10.72-72.71 25.2-105.64 36.61"/>
            <path d="m394.76 293.91-10.6-.04 8.31-6.58z"/>
        </g>
        <g stroke="#000" class="edge">
            <path fill="none" d="M534.6 256.3c-3.49 7.63-7.67 16.78-11.57 25.3"/>
            <path d="m526.3 282.88-7.34 7.64.97-10.55z"/>
        </g>
        <g stroke="red" stroke-width="2" class="edge">
            <path fill="none" d="M476.76 250.46c-58.85 10.39-147.43 26.36-224.25 41.54-5.21 1.03-10.61 2.12-16.02 3.23"/>
            <path fill="red" d="m238.86 298.32-10.5-1.4 9.08-5.46z"/>
        </g>
        <g stroke="#000" class="edge">
            <path fill="none" d="M597.65 252.5c47.39 11.59 115.79 28.34 165.83 40.58"/>
            <path d="m764.15 289.65 8.88 5.77-10.54 1.02z"/>
        </g>
        <g stroke="#000" class="edge">
            <path fill="none" d="m570.88 255.41 55.84 32.31"/>
            <path d="m628.35 284.62 6.9 8.03-10.41-1.97z"/>
        </g>
        <g stroke="#000" class="edge">
            <path fill="none" d="M508.82 182.99c-19.4 9.74-43.9 22.99-64.31 37.01-28.33 19.45-57.84 45.33-78.15 64.16"/>
            <path d="m368.77 286.7-9.69 4.28 4.9-9.39z"/>
        </g>
        <g stroke="#000" class="edge">
            <path fill="none" d="M591.15 181.22c18.84 8.15 38.46 20.5 49.36 38.78 8.19 13.74 8.92 22.72 0 36-8.79 13.07-41.85 26.46-72.42 36.5"/>
            <path d="m569.45 295.74-10.59-.29 8.46-6.38z"/>
        </g>
        <g stroke="#000" class="edge">
            <path fill="none" d="M499.59 182.04c-29.39 10.41-69.21 24.72-104.08 37.96-61.2 23.24-131.24 51.46-176.24 69.8"/>
            <path d="m220.65 293.02-10.58.54 7.94-7.02z"/>
        </g>
        <g stroke="#000" class="edge">
            <path fill="none" d="M585.82 182.01c26.85 9.8 61.81 23.43 91.69 37.99 41.17 20.06 86.11 47.29 116.17 66.33"/>
            <path d="m795.45 283.31 6.55 8.32-10.31-2.42z"/>
        </g>
        <g stroke="#000" class="edge">
            <path fill="none" d="M599.57 179.95c21.69 7.89 44.41 20.41 57.94 40.05 11.96 17.37 12.89 41.44 11.15 60.17"/>
            <path d="m672.13 280.6-4.73 9.48-2.21-10.36z"/>
        </g>
        <g stroke="red" stroke-width="2" class="edge">
            <path fill="none" d="M542.51 184.3v24.16"/>
            <path fill="red" d="m546.01 206.87-3.5 10-3.5-10z"/>
        </g>
    </g>
</svg>
