<svg xmlns="http://www.w3.org/2000/svg" width="792" height="260pt" viewBox="0 0 594.37 260">
    <g class="graph">
        <path fill="#fff" d="M0 260V0h594.37v260z"/>
        <g class="node" transform="translate(4 256)">
            <ellipse cx="337.52" cy="-234" fill="none" stroke="#000" rx="89.74" ry="18"/>
            <text x="337.52" y="-228.95" font-family="Times,serif" font-size="14" text-anchor="middle">:server:feature:buddy</text>
        </g>
        <g class="node" transform="translate(4 256)">
            <ellipse cx="80.52" cy="-18" fill="none" stroke="#000" rx="80.52" ry="18"/>
            <text x="80.52" y="-12.95" font-family="Times,serif" font-size="14" text-anchor="middle">:server:core:model</text>
        </g>
        <g stroke="#000" class="edge">
            <path fill="none" d="M268.35 32.73C234.38 40.16 195.08 53.19 165.52 76c-43.35 33.47-65.29 96.45-74.83 132.93"/>
            <path d="m94.17 209.43-5.79 8.87-1-10.55z"/>
        </g>
        <g class="node" transform="translate(4 256)">
            <ellipse cx="513.52" cy="-162" fill="none" stroke="#000" rx="72.85" ry="18"/>
            <text x="513.52" y="-156.95" font-family="Times,serif" font-size="14" text-anchor="middle">:common:model</text>
        </g>
        <g stroke="#000" class="edge">
            <path fill="none" d="M380.58 38.54C406.9 49 441.77 62.87 469.73 73.99"/>
            <path d="m470.68 70.6 8 6.95-10.59-.44z"/>
        </g>
        <g class="node" transform="translate(4 256)">
            <ellipse cx="406.52" cy="-18" fill="none" stroke="#000" rx="85.13" ry="18"/>
            <text x="406.52" y="-12.95" font-family="Times,serif" font-size="14" text-anchor="middle">:common:exception</text>
        </g>
        <g stroke="#000" class="edge">
            <path fill="none" d="M351.07 40.29c5.35 10.18 11.85 23.43 16.45 35.71 17 45.36 30.16 100.26 37.23 132.81"/>
            <path d="m408.1 207.75-1.34 10.51-5.51-9.06z"/>
        </g>
        <g class="node" transform="translate(4 256)">
            <ellipse cx="262.52" cy="-162" fill="none" stroke="#000" rx="92.3" ry="18"/>
            <text x="262.52" y="-156.95" font-family="Times,serif" font-size="14" text-anchor="middle">:server:domain:buddy</text>
        </g>
        <g stroke="red" stroke-width="2" class="edge">
            <path fill="none" d="M323.37 39.95c-9.15 8.53-20.4 19.04-30.48 28.44"/>
            <path fill="red" d="m296.68 69.64-9.69 4.26 4.92-9.38z"/>
        </g>
        <g stroke="#000" class="edge">
            <path fill="none" d="M227.83 110.77c-20.22 9.24-44.77 22.06-64.31 37.23-23.31 18.1-45.21 43.71-60.01 62.82"/>
            <path d="m106.39 212.82-8.83 5.85 3.25-10.08z"/>
        </g>
        <g stroke="#000" class="edge">
            <path fill="none" d="M304.47 110.87c18.2 8.96 39.4 21.51 55.05 37.13 17.6 17.56 31.18 42.43 39.88 61.42"/>
            <path d="m402.54 207.87.81 10.57-7.22-7.76z"/>
        </g>
        <g class="node" transform="translate(4 256)">
            <ellipse cx="241.52" cy="-18" fill="none" stroke="#000" rx="62.1" ry="18"/>
            <text x="241.52" y="-12.95" font-family="Times,serif" font-size="14" text-anchor="middle">:library:kotlin</text>
        </g>
        <g stroke="#000" class="edge">
            <path fill="none" d="M220.3 109.81c-17.89 8.24-36.5 20.52-46.78 38.19-8.03 13.83-7.21 21.72 0 36 6.69 13.23 18.41 23.96 30.47 32.22"/>
            <path d="m205.77 213.21 6.59 8.29-10.32-2.37z"/>
        </g>
        <g class="node" transform="translate(4 256)">
            <ellipse cx="262.52" cy="-90" fill="none" stroke="#000" rx="84.11" ry="18"/>
            <text x="262.52" y="-84.95" font-family="Times,serif" font-size="14" text-anchor="middle">:server:domain:fcm</text>
        </g>
        <g stroke="red" stroke-width="2" class="edge">
            <path fill="none" d="M266.52 112.3v24.16"/>
            <path fill="red" d="m270.02 134.87-3.5 10-3.5-10z"/>
        </g>
        <g stroke="red" stroke-width="2" class="edge">
            <path fill="none" d="M227.03 182.19c-27.19 10.46-63.52 24.43-92.7 35.65"/>
            <path fill="red" d="m137.35 220.43-10.59.32 8.08-6.85z"/>
        </g>
        <g stroke="#000" class="edge">
            <path fill="none" d="M299.2 182.88c20.11 9.78 46.12 22.43 67.95 33.03"/>
            <path d="m368.65 212.75 7.47 7.52-10.53-1.22z"/>
        </g>
        <g stroke="#000" class="edge">
            <path fill="none" d="M261.33 184.3c-2.23 7.46-4.91 16.38-7.42 24.73"/>
            <path d="m257.32 209.87-6.23 8.58-.48-10.59z"/>
        </g>
    </g>
</svg>
