<svg xmlns="http://www.w3.org/2000/svg" width="545pt" height="188pt" viewBox="0 0 544.66 188">
    <g class="graph">
        <path fill="#fff" d="M0 188V0h544.66v188z"/>
        <g class="node" transform="translate(4 184)">
            <ellipse cx="230.52" cy="-162" fill="none" stroke="#000" rx="95.37" ry="18"/>
            <text x="230.52" y="-156.95" font-family="Times,serif" font-size="14" text-anchor="middle">:server:feature:account</text>
        </g>
        <g class="node" transform="translate(4 184)">
            <ellipse cx="80.52" cy="-18" fill="none" stroke="#000" rx="80.52" ry="18"/>
            <text x="80.52" y="-12.95" font-family="Times,serif" font-size="14" text-anchor="middle">:server:core:model</text>
        </g>
        <g stroke="#000" class="edge">
            <path fill="none" d="M144.84 28.3C112.34 35.1 78.7 48.85 58.52 76c-13.59 18.29-4.2 43.57 6.91 62.51"/>
            <path d="m68.26 136.43 2.4 10.32-8.31-6.57z"/>
        </g>
        <g class="node" transform="translate(4 184)">
            <ellipse cx="136.52" cy="-90" fill="none" stroke="#000" rx="72.85" ry="18"/>
            <text x="136.52" y="-84.95" font-family="Times,serif" font-size="14" text-anchor="middle">:common:model</text>
        </g>
        <g stroke="#000" class="edge">
            <path fill="none" d="M211.77 39.95c-11.98 8.92-26.85 19.99-39.91 29.71"/>
            <path d="m174.07 72.38-10.11 3.17 5.93-8.78z"/>
        </g>
        <g class="node" transform="translate(4 184)">
            <ellipse cx="451.52" cy="-18" fill="none" stroke="#000" rx="85.13" ry="18"/>
            <text x="451.52" y="-12.95" font-family="Times,serif" font-size="14" text-anchor="middle">:common:exception</text>
        </g>
        <g stroke="#000" class="edge">
            <path fill="none" d="M307.65 33.95c50.25 9.01 111 23.33 128.87 42.05 15.27 15.99 19.53 41.1 20.24 60.57"/>
            <path d="m460.26 136.31-3.45 10.02-3.55-9.98z"/>
        </g>
        <g class="node" transform="translate(4 184)">
            <ellipse cx="325.52" cy="-90" fill="none" stroke="#000" rx="97.93" ry="18"/>
            <text x="325.52" y="-84.95" font-family="Times,serif" font-size="14" text-anchor="middle">:server:domain:account</text>
        </g>
        <g stroke="red" stroke-width="2" class="edge">
            <path fill="none" d="M257.52 39.95c12.02 8.85 26.92 19.83 40.04 29.5"/>
            <path fill="red" d="m298.33 65.67 5.97 8.75-10.12-3.12z"/>
        </g>
        <g stroke="red" stroke-width="2" class="edge">
            <path fill="none" d="M278.16 109.67c-39.2 11.2-93.27 26.66-134.32 38.38"/>
            <path fill="red" d="m146.39 150.96-10.58-.61 8.65-6.12z"/>
        </g>
        <g stroke="#000" class="edge">
            <path fill="none" d="M359.38 111.59c17.07 9.48 38.68 21.49 57.09 31.71"/>
            <path d="m417.95 140.12 7.04 7.92-10.44-1.8z"/>
        </g>
        <g class="node" transform="translate(4 184)">
            <ellipse cx="286.52" cy="-18" fill="none" stroke="#000" rx="62.1" ry="18"/>
            <text x="286.52" y="-12.95" font-family="Times,serif" font-size="14" text-anchor="middle">:library:kotlin</text>
        </g>
        <g stroke="#000" class="edge">
            <path fill="none" d="M319.88 112.3c-4.29 7.72-9.46 16.99-14.25 25.59"/>
            <path d="m308.72 139.54-7.93 7.03 1.81-10.44z"/>
        </g>
    </g>
</svg>
