<svg xmlns="http://www.w3.org/2000/svg" width="2880" height="476pt" viewBox="0 0 2160.23 476">
    <g class="graph">
        <path fill="#fff" d="M0 476V0h2160.23v476z"/>
        <g class="node" transform="translate(4 472)">
            <ellipse cx="729.23" cy="-450" fill="none" stroke="#000" rx="88.71" ry="18"/>
            <text x="729.23" y="-444.95" font-family="Times,serif" font-size="14" text-anchor="middle">:app:feature:calendar</text>
        </g>
        <g class="node" transform="translate(4 472)">
            <ellipse cx="601.23" cy="-378" fill="none" stroke="#000" rx="81.04" ry="18"/>
            <text x="601.23" y="-372.95" font-family="Times,serif" font-size="14" text-anchor="middle">:app:core:compose</text>
        </g>
        <g stroke="#000" class="edge">
            <path fill="none" d="M703.21 39.41c-17.45 9.55-39.66 21.69-58.52 32.01"/>
            <path d="m646.39 74.48-10.46 1.73 7.1-7.87z"/>
        </g>
        <g class="node" transform="translate(4 472)">
            <ellipse cx="492.23" cy="-306" fill="none" stroke="#000" rx="101" ry="18"/>
            <text x="492.23" y="-300.95" font-family="Times,serif" font-size="14" text-anchor="middle">:app:core:design-system</text>
        </g>
        <g stroke="#000" class="edge">
            <path fill="none" d="M659.73 32.39C604.57 40.95 535.25 55.4 515.23 76c-15.42 15.85-19.66 40.97-20.33 60.49"/>
            <path d="m498.4 136.28-3.53 9.99-3.47-10.01z"/>
        </g>
        <g class="node" transform="translate(4 472)">
            <ellipse cx="811.23" cy="-162" fill="none" stroke="#000" rx="86.67" ry="18"/>
            <text x="811.23" y="-156.95" font-family="Times,serif" font-size="14" text-anchor="middle">:app:core:navigation</text>
        </g>
        <g stroke="#000" class="edge">
            <path fill="none" d="M733.01 40.26c.12 39.89 4.08 140.76 38.22 215.74 4.51 9.91 11.38 19.48 18.36 27.69"/>
            <path d="m791.99 281.13 4.09 9.77-9.29-5.09z"/>
        </g>
        <g class="node" transform="translate(4 472)">
            <ellipse cx="237.23" cy="-234" fill="none" stroke="#000" rx="59.54" ry="18"/>
            <text x="237.23" y="-228.95" font-family="Times,serif" font-size="14" text-anchor="middle">:library:color</text>
        </g>
        <g stroke="#000" class="edge">
            <path fill="none" d="M646.1 25.93C509.23 31.45 256.54 45.66 229.23 76c-32.67 36.28-15.34 97.7-.92 133.28"/>
            <path d="m231.53 207.89.7 10.57-7.14-7.82z"/>
        </g>
        <g class="node" transform="translate(4 472)">
            <ellipse cx="1988.23" cy="-18" fill="none" stroke="#000" rx="62.1" ry="18"/>
            <text x="1988.23" y="-12.95" font-family="Times,serif" font-size="14" text-anchor="middle">:library:kotlin</text>
        </g>
        <g stroke="#000" class="edge">
            <path fill="none" d="M821.36 24.45C1089.33 29.17 1882.91 45.59 1995.23 76c78.91 21.37 161 7.24 161 89v146c0 61.75-67.28 102.66-115.66 124.08"/>
            <path d="m2042.23 438.18-10.58.71 7.83-7.15z"/>
        </g>
        <g class="node" transform="translate(4 472)">
            <ellipse cx="856.23" cy="-234" fill="none" stroke="#000" rx="79.5" ry="18"/>
            <text x="856.23" y="-228.95" font-family="Times,serif" font-size="14" text-anchor="middle">:library:navigation</text>
        </g>
        <g stroke="#000" class="edge">
            <path fill="none" d="M744.05 40.11c6.5 10.34 14.9 23.82 22.18 35.89 28.23 46.81 60.13 101.94 78.56 134.03"/>
            <path d="m847.81 208.26 1.94 10.41-8.01-6.93z"/>
        </g>
        <g class="node" transform="translate(4 472)">
            <ellipse cx="1829.23" cy="-18" fill="none" stroke="#000" rx="78.99" ry="18"/>
            <text x="1829.23" y="-12.95" font-family="Times,serif" font-size="14" text-anchor="middle">:library:coroutines</text>
        </g>
        <g stroke="#000" class="edge">
            <path fill="none" d="M822.23 22.76c306 .31 1296 11.45 1296 142.24v74c0 110.73-139.29 171.23-223.11 197.61"/>
            <path d="m1896.21 439.93-10.59-.41 8.54-6.28z"/>
        </g>
        <g class="node" transform="translate(4 472)">
            <ellipse cx="964.23" cy="-18" fill="none" stroke="#000" rx="72.85" ry="18"/>
            <text x="964.23" y="-12.95" font-family="Times,serif" font-size="14" text-anchor="middle">:library:datetime</text>
        </g>
        <g stroke="#000" class="edge">
            <path fill="none" d="M726.24 40.18C707.42 89.4 660.92 233.49 719.23 328c39.18 63.52 121.6 95.88 180.89 111.57"/>
            <path d="m900.97 436.17 8.84 5.85-10.56.94z"/>
        </g>
        <g class="node" transform="translate(4 472)">
            <ellipse cx="89.23" cy="-306" fill="none" stroke="#000" rx="89.23" ry="18"/>
            <text x="89.23" y="-300.95" font-family="Times,serif" font-size="14" text-anchor="middle">:library:shimmer-m3</text>
        </g>
        <g stroke="#000" class="edge">
            <path fill="none" d="M645.54 25.25C514.57 29.68 274.83 42.26 196.23 76c-32.88 14.11-62.89 42.65-81.93 63.63"/>
            <path d="m117.08 141.77-9.24 5.18 3.99-9.81z"/>
        </g>
        <g class="node" transform="translate(4 472)">
            <ellipse cx="349.23" cy="-378" fill="none" stroke="#000" rx="115.33" ry="18"/>
            <text x="349.23" y="-372.95" font-family="Times,serif" font-size="14" text-anchor="middle">:app:core:calendar-compose</text>
        </g>
        <g stroke="#000" class="edge">
            <path fill="none" d="M669.19 34.8c-63.94 11.78-162.54 29.94-232.57 42.84"/>
            <path d="m437.59 81.02-10.47-1.63 9.21-5.26z"/>
        </g>
        <g class="node" transform="translate(4 472)">
            <ellipse cx="1247.23" cy="-378" fill="none" stroke="#000" rx="91.27" ry="18"/>
            <text x="1247.23" y="-372.95" font-family="Times,serif" font-size="14" text-anchor="middle">:app:domain:calendar</text>
        </g>
        <g stroke="red" stroke-width="2" class="edge">
            <path fill="none" d="M805.52 32.77c94.57 12.78 260.01 35.14 360.54 48.72"/>
            <path fill="red" d="m1164.95 77.81 9.44 4.81-10.38 2.13z"/>
        </g>
        <g class="node" transform="translate(4 472)">
            <ellipse cx="1694.23" cy="-90" fill="none" stroke="#000" rx="87.69" ry="18"/>
            <text x="1694.23" y="-84.95" font-family="Times,serif" font-size="14" text-anchor="middle">:app:domain:holiday</text>
        </g>
        <g stroke="#000" class="edge">
            <path fill="none" d="M820.02 26.2c145.92 6.09 433.99 21.35 531.21 49.8 157.42 46.07 284.76 213.17 329.63 278.53"/>
            <path d="m1683.55 352.27 2.71 10.24-8.5-6.32z"/>
        </g>
        <g stroke="#000" class="edge">
            <path fill="none" d="M579.67 111.41c-14.28 9.17-32.29 20.74-47.92 30.78"/>
            <path d="m533.96 144.93-10.31 2.46 6.52-8.35z"/>
        </g>
        <g stroke="#000" class="edge">
            <path fill="none" d="M442.77 181.67c-43.4 11.92-104.3 28.64-147.78 40.57"/>
            <path d="m296.09 225.57-10.57-.73 8.71-6.02z"/>
        </g>
        <g stroke="#000" class="edge">
            <path fill="none" d="M504.72 184.23c22.69 44.01 89.3 160.97 181.51 215.77 59.94 35.63 138.64 48.14 197.67 52.16"/>
            <path d="m883.77 448.65 9.77 4.1-10.19 2.88z"/>
        </g>
        <g stroke="#000" class="edge">
            <path fill="none" d="M833.38 327.85c26.91 24.98 77.55 71.98 108.54 100.73"/>
            <path d="m944.04 425.78 4.95 9.37-9.71-4.24z"/>
        </g>
        <g stroke="#000" class="edge">
            <path fill="none" d="M880.03 255.76c10.45 9.7 22.81 22.66 31.2 36.24 14.03 22.73 36.55 93.24 48.66 133"/>
            <path d="m963.17 423.76-.46 10.59-6.24-8.56z"/>
        </g>
        <g stroke="#000" class="edge">
            <path fill="none" d="M127.18 183.06c21.61 10.22 49.74 23.53 72.65 34.36"/>
            <path d="m201.04 214.12 7.55 7.44-10.54-1.11z"/>
        </g>
        <g stroke="#000" class="edge">
            <path fill="none" d="M387.11 111.59c19.65 9.61 44.58 21.82 65.66 32.14"/>
            <path d="m454.27 140.57 7.44 7.54-10.52-1.26z"/>
        </g>
        <g stroke="#000" class="edge">
            <path fill="none" d="M339.72 112.13c-19.53 24.76-55.79 70.73-78.45 99.45"/>
            <path d="m264.31 213.38-8.94 5.68 3.45-10.02z"/>
        </g>
        <g stroke="#000" class="edge">
            <path fill="none" d="M354.64 112.48c2.05 26.78 5.59 79.6 5.59 124.52v74c0 106.43 357.72 133.13 524.38 139.8"/>
            <path d="m884.42 447.29 9.86 3.88-10.13 3.11z"/>
        </g>
        <g stroke="#000" class="edge">
            <path fill="none" d="M1340.09 98.49c147.34 9.91 445.53 47.93 643.14 193.51 42.89 31.6 69.8 57.79 52 108-3.67 10.33-10.3 20.12-17.28 28.41"/>
            <path d="m2020.7 430.59-9.31 5.05 4.12-9.75z"/>
        </g>
        <g stroke="#000" class="edge">
            <path fill="none" d="M1323.7 105.29c47.81 8.21 111.23 21.85 164.53 42.71 178.03 69.68 276.61 50.31 372 216 11.16 19.39 2.33 43.87-8.13 62.24"/>
            <path d="m1855.1 428.05-8.23 6.67 2.27-10.35z"/>
        </g>
        <g stroke="#000" class="edge">
            <path fill="none" d="M1168.23 101.85c-83.51 11.98-200 44.86-200 135.15v187.31"/>
            <path d="m971.73 424-3.5 10-3.5-10z"/>
        </g>
        <g class="node" transform="translate(4 472)">
            <ellipse cx="1269.23" cy="-18" fill="none" stroke="#000" rx="71.31" ry="18"/>
            <text x="1269.23" y="-12.95" font-family="Times,serif" font-size="14" text-anchor="middle">:app:core:model</text>
        </g>
        <g stroke="#000" class="edge">
            <path fill="none" d="M1193.29 108.25c-61.24 17.83-149.06 56.08-149.06 128.75v74c0 76.22 92.75 112.94 160.2 129.56"/>
            <path d="m1205.03 437.11 8.94 5.7-10.54 1.11z"/>
        </g>
        <g class="node" transform="translate(4 472)">
            <ellipse cx="1521.23" cy="-18" fill="none" stroke="#000" rx="85.13" ry="18"/>
            <text x="1521.23" y="-12.95" font-family="Times,serif" font-size="14" text-anchor="middle">:common:exception</text>
        </g>
        <g stroke="#000" class="edge">
            <path fill="none" d="M1329.21 103.68c40.29 7.22 88.87 20.38 127.02 44.32 35.52 22.29 34.85 39.21 61 72 24.93 31.27 41.35 34.05 54 72 5.35 16.08 3.06 91.97-3 108-3.78 9.98-10.23 19.51-16.99 27.65"/>
            <path d="m1553.87 429.96-9.28 5.13 4.06-9.79z"/>
        </g>
        <g class="node" transform="translate(4 472)">
            <ellipse cx="1347.23" cy="-90" fill="none" stroke="#000" rx="88.71" ry="18"/>
            <text x="1347.23" y="-84.95" font-family="Times,serif" font-size="14" text-anchor="middle">:app:domain:account</text>
        </g>
        <g stroke="#000" class="edge">
            <path fill="none" d="M1233.22 111.68c-29.55 29.49-82.53 92.59-55.99 144.32 25.82 50.34 82.38 84.99 124.04 104.82"/>
            <path d="m1302.52 357.55 7.62 7.36-10.55-1.01z"/>
        </g>
        <g class="node" transform="translate(4 472)">
            <ellipse cx="1359.23" cy="-306" fill="none" stroke="#000" rx="84.11" ry="18"/>
            <text x="1359.23" y="-300.95" font-family="Times,serif" font-size="14" text-anchor="middle">:app:domain:memo</text>
        </g>
        <g stroke="red" stroke-width="2" class="edge">
            <path fill="none" d="M1277.77 111.59c14.78 9.24 33.4 20.87 49.48 30.92"/>
            <path fill="red" d="m1327.68 138.66 6.63 8.27-10.34-2.34z"/>
        </g>
        <g class="node" transform="translate(4 472)">
            <ellipse cx="1253.23" cy="-234" fill="none" stroke="#000" rx="71.31" ry="18"/>
            <text x="1253.23" y="-228.95" font-family="Times,serif" font-size="14" text-anchor="middle">:app:domain:tag</text>
        </g>
        <g stroke="#000" class="edge">
            <path fill="none" d="M1251.96 112.41c1.01 23.98 2.85 67.45 4.06 96.17"/>
            <path d="m1259.51 208.24-3.07 10.14-3.92-9.85z"/>
        </g>
        <g stroke="#000" class="edge">
            <path fill="none" d="M1754.14 396.26c45.1 10.71 110.19 26.17 167.09 39.74 4.31 1.03 8.77 2.1 13.26 3.17"/>
            <path d="m1935.25 435.75 8.91 5.73-10.54 1.08z"/>
        </g>
        <g stroke="#000" class="edge">
            <path fill="none" d="M1729.54 399.24c18.7 9.69 42.67 22.12 62.85 32.59"/>
            <path d="m1793.94 428.69 7.27 7.71-10.49-1.5z"/>
        </g>
        <g stroke="#000" class="edge">
            <path fill="none" d="M1620.1 390.49c-140.29 13.45-433.33 41.55-573.68 55.01"/>
            <path d="m1047.16 448.95-10.29-2.53 9.62-4.44z"/>
        </g>
        <g stroke="#000" class="edge">
            <path fill="none" d="M1631.35 394.01c-78.7 12.97-208.74 34.39-288.58 47.54"/>
            <path d="m1343.78 444.93-10.44-1.83 9.3-5.08z"/>
        </g>
        <g stroke="#000" class="edge">
            <path fill="none" d="M1659.83 398.54c-25.31 10.24-58.67 23.74-85.85 34.73"/>
            <path d="m1575.5 436.43-10.58.51 7.95-6.99z"/>
        </g>
        <g stroke="#000" class="edge">
            <path fill="none" d="M1433.42 389.19c134.59 10.39 396.19 31.66 487.81 46.81 4.91.81 9.99 1.78 15.07 2.83"/>
            <path d="m1936.85 435.36 9.02 5.55-10.51 1.29z"/>
        </g>
        <g stroke="#000" class="edge">
            <path fill="none" d="M1421.83 393.25c89.36 12.98 242.71 35.25 334.82 48.63"/>
            <path d="m1756.96 438.39 9.39 4.9-10.4 2.02z"/>
        </g>
        <g stroke="#000" class="edge">
            <path fill="none" d="M1287.12 394.72c-69.33 12.67-179.44 32.79-250.43 45.77"/>
            <path d="m1037.6 443.88-10.46-1.65 9.2-5.24z"/>
        </g>
        <g stroke="red" stroke-width="2" class="edge">
            <path fill="none" d="M1332.34 399.95c-9.58 8.59-21.39 19.19-31.93 28.65"/>
            <path fill="red" d="m1303.97 430.11-9.78 4.08 5.1-9.28z"/>
        </g>
        <g stroke="#000" class="edge">
            <path fill="none" d="M1389.84 398.54c25.46 10.24 59.02 23.74 86.35 34.73"/>
            <path d="m1477.34 429.96 7.97 6.98-10.58-.48z"/>
        </g>
        <g stroke="#000" class="edge">
            <path fill="none" d="M1425.93 178.33c49.82 9.53 121.05 24.36 182.3 41.67 185.85 52.52 298.33-13.58 410 144 13.11 18.51 3.91 43.6-7.01 62.43"/>
            <path d="m2014.19 428.27-8.28 6.61 2.36-10.33z"/>
        </g>
        <g stroke="#000" class="edge">
            <path fill="none" d="M1414.39 180.62c71.76 19.99 205.54 60.46 312.84 111.38 54.81 26.02 86.5 18.97 116 72 10.32 18.57 6.78 42.67 1.23 61.11"/>
            <path d="m1847.86 425.98-6.53 8.34-.1-10.59z"/>
        </g>
        <g stroke="#000" class="edge">
            <path fill="none" d="M1288.79 174.67c-41.98 6.97-93.98 20.22-134.56 45.33-84.27 52.14-146.53 156.61-172.56 205.98"/>
            <path d="m984.92 427.29-7.7 7.28 1.49-10.49z"/>
        </g>
        <g stroke="#000" class="edge">
            <path fill="none" d="M1296.92 177.29c-47.3 8.86-105.03 23.28-119.69 42.71-26.53 35.15-39.72 69.64 28 180 7.4 12.06 18.6 22.44 29.8 30.74"/>
            <path d="m1236.88 427.76 6.22 8.58-10.21-2.83z"/>
        </g>
        <g stroke="#000" class="edge">
            <path fill="none" d="M1407.07 181.81c45.63 18.05 114.61 53.36 145.16 110.19 23 42.8 3.08 100.48-12.58 133.92"/>
            <path d="m1542.98 427.07-7.55 7.44 1.26-10.52z"/>
        </g>
        <g stroke="#000" class="edge">
            <path fill="none" d="M1362.26 184.15c-2.05 36.71-6.9 123.19-9.43 168.32"/>
            <path d="m1356.33 352.47-4.05 9.79-2.94-10.18z"/>
        </g>
        <g stroke="red" stroke-width="2" class="edge">
            <path fill="none" d="M1338.1 183.59c-13.96 9.22-31.53 20.82-46.72 30.86"/>
            <path fill="red" d="m1294.6 216.51-10.27 2.59 6.41-8.43z"/>
        </g>
        <g class="node" transform="translate(4 472)">
            <ellipse cx="1452.23" cy="-162" fill="none" stroke="#000" rx="86.67" ry="18"/>
            <text x="1452.23" y="-156.95" font-family="Times,serif" font-size="14" text-anchor="middle">:app:domain:backup</text>
        </g>
        <g stroke="#000" class="edge">
            <path fill="none" d="M1374.44 184.13c15.99 24.41 45.49 69.44 64.34 98.23"/>
            <path d="m1441.59 280.26 2.55 10.28-8.41-6.44z"/>
        </g>
        <g stroke="#000" class="edge">
            <path fill="none" d="M1328.73 239.68c93.4 2.55 261.18 12.85 398.5 52.32 71.07 20.43 87.07 33.15 150 72 31.71 19.58 65.1 46.18 87.68 65.19"/>
            <path d="m1967.09 426.45 5.35 9.15-9.88-3.82z"/>
        </g>
        <g stroke="#000" class="edge">
            <path fill="none" d="M1324.87 244.12c135.47 11.76 432.65 45.59 497.36 119.88 14.15 16.26 16.22 40.96 15.12 60.23"/>
            <path d="m1840.84 424.52-4.39 9.64-2.58-10.27z"/>
        </g>
        <g stroke="#000" class="edge">
            <path fill="none" d="M1235.03 255.44c-50.96 37.73-176.46 130.66-235.34 174.26"/>
            <path d="m1001.83 432.47-10.12 3.14 5.96-8.77z"/>
        </g>
        <g stroke="#000" class="edge">
            <path fill="none" d="M1241.57 255.69c-8.07 9.77-17.1 22.82-21.34 36.31-14.41 45.79-18.37 63.65 0 108 4.55 11 12.62 20.91 21.11 29.1"/>
            <path d="m1243.59 426.42 5.14 9.27-9.8-4.05z"/>
        </g>
        <g stroke="#000" class="edge">
            <path fill="none" d="M1250.2 256.39c-11.79 32.33-31.11 102.18 3.03 143.61 12.17 14.78 114.36 31.67 189.92 42.33"/>
            <path d="m1443.17 438.8 9.42 4.85-10.39 2.08z"/>
        </g>
        <g stroke="#000" class="edge">
            <path fill="none" d="M1268.56 256.13c16.17 24.41 45.97 69.44 65.03 98.23"/>
            <path d="m1336.41 352.28 2.6 10.27-8.44-6.41z"/>
        </g>
        <g stroke="red" stroke-width="2" class="edge">
            <path fill="none" d="M1297.5 253.17c30.43 10.7 72.49 25.5 105.67 37.17"/>
            <path fill="red" d="m1402.48 286.38 8.27 6.62-10.59-.01z"/>
        </g>
        <g stroke="#000" class="edge">
            <path fill="none" d="M1539.8 315.06c75.38 5.54 188.51 18.54 282.43 48.94 49.97 16.18 102.88 46.19 136.15 66.86"/>
            <path d="m1960.17 427.85 6.6 8.29-10.33-2.36z"/>
        </g>
        <g stroke="#000" class="edge">
            <path fill="none" d="M1539.97 314.92c87.24 5.65 216.53 18.95 255.26 49.08 18.84 14.66 28.47 40.47 33.31 60.53"/>
            <path d="m1831.92 423.57-1.36 10.5-5.49-9.06z"/>
        </g>
        <g stroke="#000" class="edge">
            <path fill="none" d="M1402.18 324.37c-41.01 10.32-98.71 25.23-148.95 39.63-81.29 23.29-174.7 53.04-231.78 71.55"/>
            <path d="m1022.56 438.87-10.59-.24 8.43-6.42z"/>
        </g>
        <g stroke="#000" class="edge">
            <path fill="none" d="M1460.1 328.13c3.37 19.6 5.47 51.6-10.87 71.87-22.86 28.36-60.33 41.97-94.83 48.34"/>
            <path d="m1355.25 451.74-10.43-1.82 9.3-5.08z"/>
        </g>
        <g stroke="#000" class="edge">
            <path fill="none" d="M1464.68 328.17c5.1 10.37 11.71 23.85 17.55 35.83 10.01 20.57 21.26 43.86 29.74 61.45"/>
            <path d="m1515.01 423.7 1.18 10.53-7.49-7.49z"/>
        </g>
        <g stroke="red" stroke-width="2" class="edge">
            <path fill="none" d="M1431.34 327.59c-13.63 9.09-30.73 20.49-45.63 30.42"/>
            <path fill="red" d="m1389.07 359.97-10.26 2.64 6.38-8.46z"/>
        </g>
    </g>
</svg>
