<svg xmlns="http://www.w3.org/2000/svg" width="865pt" height="332pt" viewBox="0 0 864.98 332">
    <g class="graph">
        <path fill="#fff" d="M0 332V0h864.98v332z"/>
        <g class="node" transform="translate(4 328)">
            <ellipse cx="406.13" cy="-306" fill="none" stroke="#000" rx="96.39" ry="18"/>
            <text x="406.13" y="-300.95" font-family="Times,serif" font-size="14" text-anchor="middle">:app:domain:credential</text>
        </g>
        <g class="node" transform="translate(4 328)">
            <ellipse cx="415.13" cy="-18" fill="none" stroke="#000" rx="71.31" ry="18"/>
            <text x="415.13" y="-12.95" font-family="Times,serif" font-size="14" text-anchor="middle">:app:core:model</text>
        </g>
        <g stroke="#000" class="edge">
            <path fill="none" d="M377.99 39.32C332.16 65.13 255.32 119.14 272.13 184c9.18 35.44 13.51 46.73 40 72 15.43 14.72 35.74 26.17 54.52 34.6"/>
            <path d="m367.96 287.35 7.82 7.15-10.57-.71z"/>
        </g>
        <g class="node" transform="translate(4 328)">
            <ellipse cx="85.13" cy="-18" fill="none" stroke="#000" rx="85.13" ry="18"/>
            <text x="85.13" y="-12.95" font-family="Times,serif" font-size="14" text-anchor="middle">:common:exception</text>
        </g>
        <g stroke="#000" class="edge">
            <path fill="none" d="M345.11 35.63c-29.52 8.03-63.64 20.74-89.98 40.37-75.55 56.32-130.29 157.13-153.57 205.56"/>
            <path d="m104.77 282.95-7.43 7.56 1.1-10.54z"/>
        </g>
        <g class="node" transform="translate(4 328)">
            <ellipse cx="614.13" cy="-18" fill="none" stroke="#000" rx="78.99" ry="18"/>
            <text x="614.13" y="-12.95" font-family="Times,serif" font-size="14" text-anchor="middle">:library:coroutines</text>
        </g>
        <g stroke="#000" class="edge">
            <path fill="none" d="M493.12 31.4C564.7 43.67 663.27 73.85 707.13 148c13.49 22.8-10.71 101.41-15 108-8.1 12.43-20.21 22.88-32.3 31.12"/>
            <path d="m661.8 290.01-10.32 2.42 6.55-8.32z"/>
        </g>
        <g class="node" transform="translate(4 328)">
            <ellipse cx="784.13" cy="-18" fill="none" stroke="#000" rx="72.85" ry="18"/>
            <text x="784.13" y="-12.95" font-family="Times,serif" font-size="14" text-anchor="middle">:library:datetime</text>
        </g>
        <g stroke="#000" class="edge">
            <path fill="none" d="M501.44 28.11C553.3 34.23 617.9 47.48 669.13 76c71.08 39.57 87.95 66.6 113 144 6.32 19.51 7.7 42.66 7.57 60.45"/>
            <path d="m793.2 280.39-3.75 9.9-3.24-10.08z"/>
        </g>
        <g class="node" transform="translate(4 328)">
            <ellipse cx="250.13" cy="-18" fill="none" stroke="#000" rx="62.1" ry="18"/>
            <text x="250.13" y="-12.95" font-family="Times,serif" font-size="14" text-anchor="middle">:library:kotlin</text>
        </g>
        <g stroke="#000" class="edge">
            <path fill="none" d="M351.35 36.63c-23.09 8.02-48.11 20.44-65.22 39.37-55.29 61.18-54.89 98.13-45 180 .99 8.22 2.82 16.99 4.8 25"/>
            <path d="m249.28 279.98-.81 10.56-5.95-8.76z"/>
        </g>
        <g class="node" transform="translate(4 328)">
            <ellipse cx="462.13" cy="-234" fill="none" stroke="#000" rx="78.48" ry="18"/>
            <text x="462.13" y="-228.95" font-family="Times,serif" font-size="14" text-anchor="middle">:app:domain:fetch</text>
        </g>
        <g stroke="red" stroke-width="2" class="edge">
            <path fill="none" d="M423.97 40.3c6.45 8.06 14.25 17.81 21.37 26.72"/>
            <path fill="red" d="m447.04 63.54 3.52 9.99-8.98-5.62z"/>
        </g>
        <g class="node" transform="translate(4 328)">
            <ellipse cx="570.13" cy="-162" fill="none" stroke="#000" rx="86.67" ry="18"/>
            <text x="570.13" y="-156.95" font-family="Times,serif" font-size="14" text-anchor="middle">:app:domain:backup</text>
        </g>
        <g stroke="#000" class="edge">
            <path fill="none" d="M480.74 34.61c26.09 7.66 53.81 20.36 72.39 41.39 14.56 16.47 19.51 41.16 20.99 60.36"/>
            <path d="m577.61 136.1-3.03 10.15-3.96-9.82z"/>
        </g>
        <g class="node" transform="translate(4 328)">
            <ellipse cx="352.13" cy="-162" fill="none" stroke="#000" rx="74.89" ry="18"/>
            <text x="352.13" y="-156.95" font-family="Times,serif" font-size="14" text-anchor="middle">:app:domain:fcm</text>
        </g>
        <g stroke="#000" class="edge">
            <path fill="none" d="M398.53 40.04c-6.45 10.1-14.2 23.35-19.4 35.96-8.09 19.63-13.99 42.9-17.78 60.73"/>
            <path d="m364.82 137.23-5.41 9.11-1.45-10.5z"/>
        </g>
        <g stroke="#000" class="edge">
            <path fill="none" d="M533.46 103.57c52.73 8.26 119.88 22.72 136.67 44.43 9.79 12.66 5.69 21.04 0 36-26.81 70.51-113.11 101.46-177.08 114.9"/>
            <path d="m493.77 302.33-10.49-1.48 9.12-5.39z"/>
        </g>
        <g stroke="#000" class="edge">
            <path fill="none" d="M395.59 102.31c-44.3 6.91-101.38 20.23-146.46 45.69-61.11 34.51-114.62 98.92-141.54 134.93"/>
            <path d="m110.66 284.65-8.74 5.99 3.1-10.13z"/>
        </g>
        <g stroke="#000" class="edge">
            <path fill="none" d="M536.16 102.4c57.48 7.69 132.34 21.98 150.97 45.6 33.33 42.27-12.41 103.05-43.82 136.54"/>
            <path d="m646.2 286.58-9.46 4.77 4.42-9.63z"/>
        </g>
        <g stroke="#000" class="edge">
            <path fill="none" d="M534.17 103.35c61.51 8.71 146.36 23.98 172.96 44.65 43.14 33.52 65.11 96.21 74.73 132.69"/>
            <path d="m785.17 279.52-.98 10.55-5.81-8.86z"/>
        </g>
        <g stroke="#000" class="edge">
            <path fill="none" d="M401.65 104.68c-49.66 8.84-112.61 23.56-129.52 43.32-31.54 36.86-28.75 97.15-23.57 132.55"/>
            <path d="m251.95 279.61-1.83 10.43-5.08-9.3z"/>
        </g>
        <g stroke="red" stroke-width="2" class="edge">
            <path fill="none" d="M491.45 111.41c14.25 9.24 32.26 20.91 47.82 31"/>
            <path fill="red" d="m539.57 138.43 6.48 8.37-10.29-2.5z"/>
        </g>
        <g class="node" transform="translate(4 328)">
            <ellipse cx="415.13" cy="-90" fill="none" stroke="#000" rx="88.71" ry="18"/>
            <text x="415.13" y="-84.95" font-family="Times,serif" font-size="14" text-anchor="middle">:app:domain:account</text>
        </g>
        <g stroke="#000" class="edge">
            <path fill="none" d="M461.61 112.21c-4.85 18.04-13.01 47.13-21.48 71.79-2.87 8.37-6.3 17.35-9.54 25.5"/>
            <path d="m433.92 210.61-7 7.95.51-10.58z"/>
        </g>
        <g stroke="#000" class="edge">
            <path fill="none" d="M583.64 184.16c9.28 19.33 19.95 50.79 4.49 71.84-12.46 16.97-59.95 30.95-101.43 40.28"/>
            <path d="m487.47 299.7-10.51-1.29 9.02-5.55z"/>
        </g>
        <g stroke="#000" class="edge">
            <path fill="none" d="M506.08 177.48c-51.48 8.83-123.54 23.14-184.95 42.52-38.73 12.22-46.2 21.15-84 36-30.72 12.07-65.45 24.57-93.54 34.39"/>
            <path d="m144.8 293.67-10.59-.01 8.29-6.6z"/>
        </g>
        <g stroke="#000" class="edge">
            <path fill="none" d="M597.34 183.63c10.95 9.3 22.89 21.93 28.79 36.37 7.85 19.2 5.32 42.63 1.1 60.62"/>
            <path d="m630.67 281.34-5.96 8.76-.81-10.56z"/>
        </g>
        <g stroke="#000" class="edge">
            <path fill="none" d="M621.77 181.47c25.15 8.9 55.8 21.82 80.36 38.53 25.65 17.45 49.72 43.53 65.83 62.95"/>
            <path d="m770.68 280.73 3.58 9.97-9.02-5.56z"/>
        </g>
        <g stroke="#000" class="edge">
            <path fill="none" d="M567.87 184.42c-8.31 20.5-24.99 53.97-50.74 71.58-.53.36-124.43 25.23-201.96 40.77"/>
            <path d="m316.07 300.16-10.5-1.46 9.12-5.4z"/>
        </g>
        <g stroke="red" stroke-width="2" class="edge">
            <path fill="none" d="M538.96 182.88c-22.02 9.95-50.61 22.86-74.35 33.58"/>
            <path fill="red" d="m467.74 218.89-10.55.92 7.67-7.3z"/>
        </g>
        <g stroke="#000" class="edge">
            <path fill="none" d="M340.69 183.82C325.7 202.3 307.1 232.47 321.13 256c9.43 15.82 25.41 27.21 41.76 35.27"/>
            <path d="m364.01 287.93 7.67 7.31-10.56-.93z"/>
        </g>
        <g stroke="#000" class="edge">
            <path fill="none" d="M326.28 182.88c-48.07 25.56-142.69 75.88-196.75 104.63"/>
            <path d="m131.42 290.47-10.48 1.61 7.19-7.79z"/>
        </g>
        <g stroke="#000" class="edge">
            <path fill="none" d="M409.88 178.86c32.43 8.55 73.8 21.98 107.25 41.14 29.86 17.1 58.77 43.97 77.96 63.71"/>
            <path d="m597.53 281.2 4.37 9.66-9.44-4.83z"/>
        </g>
        <g stroke="#000" class="edge">
            <path fill="none" d="M408.1 179.26c40.41 9.91 97.7 24.8 147.03 40.74 65.75 21.25 140.06 50.59 186.71 69.67"/>
            <path d="m742.91 286.33 7.92 7.03-10.58-.56z"/>
        </g>
        <g stroke="#000" class="edge">
            <path fill="none" d="M341.35 183.78c-8.79 10.23-19.99 23.71-29.22 36.22-14.98 20.32-30.52 44.36-41.75 62.33"/>
            <path d="m273.51 283.93-8.24 6.66 2.29-10.34z"/>
        </g>
        <g stroke="#000" class="edge">
            <path fill="none" d="M371.38 183.95c7.51 8.34 16.71 18.56 25.02 27.8"/>
            <path d="m398.92 209.31 4.09 9.78-9.29-5.1z"/>
        </g>
        <g stroke="red" stroke-width="2" class="edge">
            <path fill="none" d="M419.13 256.3v24.16"/>
            <path fill="red" d="m422.63 278.87-3.5 10-3.5-10z"/>
        </g>
        <g stroke="#000" class="edge">
            <path fill="none" d="M359.37 251.68c-56.45 11.97-141.1 29.93-200.58 42.54"/>
            <path d="m159.6 297.63-10.5-1.35 9.05-5.5z"/>
        </g>
        <g stroke="#000" class="edge">
            <path fill="none" d="M461.82 254.02c30.48 10.72 71.64 25.2 104.08 36.61"/>
            <path d="m566.83 287.25 8.28 6.62-10.6-.02z"/>
        </g>
        <g stroke="#000" class="edge">
            <path fill="none" d="M484.18 250.59c58.22 10.48 145.87 26.5 221.95 41.41 5.48 1.07 11.16 2.21 16.85 3.36"/>
            <path d="m723.33 291.86 9.1 5.42-10.5 1.44z"/>
        </g>
        <g stroke="#000" class="edge">
            <path fill="none" d="M382.1 254.71c-24.72 10.49-57.36 24.33-83.48 35.42"/>
            <path d="m300.19 293.26-10.57.68 7.84-7.12z"/>
        </g>
    </g>
</svg>
