<svg xmlns="http://www.w3.org/2000/svg" width="1574pt" height="260pt" viewBox="0 0 1574.01 260">
    <g class="graph">
        <path fill="#fff" d="M0 260V0h1574.01v260z"/>
        <g class="node" transform="translate(4 256)">
            <ellipse cx="678.32" cy="-234" fill="none" stroke="#000" rx="51.86" ry="18"/>
            <text x="678.32" y="-228.95" font-family="Times,serif" font-size="14" text-anchor="middle">:server:app</text>
        </g>
        <g class="node" transform="translate(4 256)">
            <ellipse cx="331.32" cy="-90" fill="none" stroke="#000" rx="88.71" ry="18"/>
            <text x="331.32" y="-84.95" font-family="Times,serif" font-size="14" text-anchor="middle">:server:core:database</text>
        </g>
        <g stroke="#000" class="edge">
            <path fill="none" d="M630.33 23c-87.54 1.23-258.47 9.31-296.01 53-14.08 16.38-12.48 41.41-8.13 60.76"/>
            <path d="m329.51 135.64-.85 10.56-5.92-8.79z"/>
        </g>
        <g class="node" transform="translate(4 256)">
            <ellipse cx="622.32" cy="-162" fill="none" stroke="#000" rx="85.13" ry="18"/>
            <text x="622.32" y="-156.95" font-family="Times,serif" font-size="14" text-anchor="middle">:server:data:account</text>
        </g>
        <g stroke="red" stroke-width="2" class="edge">
            <path fill="none" d="M669.05 39.59c-6.6 8.25-14.72 18.4-22.11 27.63"/>
            <path fill="red" d="m650.76 68.06-8.98 5.62 3.51-10z"/>
        </g>
        <g class="node" transform="translate(4 256)">
            <ellipse cx="202.32" cy="-162" fill="none" stroke="#000" rx="80.52" ry="18"/>
            <text x="202.32" y="-156.95" font-family="Times,serif" font-size="14" text-anchor="middle">:server:data:memo</text>
        </g>
        <g stroke="#000" class="edge">
            <path fill="none" d="M634.12 29.1C561.73 38.39 420.7 57.02 301.32 76c-7.45 1.18-15.22 2.48-22.96 3.8"/>
            <path d="m279.02 83.24-10.45-1.73 9.25-5.16z"/>
        </g>
        <g class="node" transform="translate(4 256)">
            <ellipse cx="410.32" cy="-162" fill="none" stroke="#000" rx="71.31" ry="18"/>
            <text x="410.32" y="-156.95" font-family="Times,serif" font-size="14" text-anchor="middle">:server:data:fcm</text>
        </g>
        <g stroke="#000" class="edge">
            <path fill="none" d="M641.62 33.63c-44.75 11.69-117.05 30.57-168.07 43.9"/>
            <path d="m474.7 80.85-10.56-.86 8.79-5.92z"/>
        </g>
        <g class="node" transform="translate(4 256)">
            <ellipse cx="798.32" cy="-90" fill="none" stroke="#000" rx="97.93" ry="18"/>
            <text x="798.32" y="-84.95" font-family="Times,serif" font-size="14" text-anchor="middle">:server:domain:account</text>
        </g>
        <g stroke="#000" class="edge">
            <path fill="none" d="M696.32 39.57c20.75 24.55 59.86 70.83 84.33 99.78"/>
            <path d="m783.28 137.05 3.78 9.89-9.13-5.38z"/>
        </g>
        <g class="node" transform="translate(4 256)">
            <ellipse cx="93.32" cy="-90" fill="none" stroke="#000" rx="93.32" ry="18"/>
            <text x="93.32" y="-84.95" font-family="Times,serif" font-size="14" text-anchor="middle">:server:domain:memo</text>
        </g>
        <g stroke="#000" class="edge">
            <path fill="none" d="M630.81 24.4C498.49 28.45 154.35 42.18 116.32 76c-16.7 14.85-20.75 40.46-21.02 60.41"/>
            <path d="m98.79 136.08-3.3 10.07-3.7-9.93z"/>
        </g>
        <g class="node" transform="translate(4 256)">
            <ellipse cx="560.32" cy="-90" fill="none" stroke="#000" rx="84.11" ry="18"/>
            <text x="560.32" y="-84.95" font-family="Times,serif" font-size="14" text-anchor="middle">:server:domain:fcm</text>
        </g>
        <g stroke="#000" class="edge">
            <path fill="none" d="M631.59 26.34c-34.18 5.2-76.94 18.09-99.27 49.66-13.4 18.95-2.25 44.11 10.43 62.84"/>
            <path d="m545.46 136.61 3.05 10.15-8.71-6.03z"/>
        </g>
        <g class="node" transform="translate(4 256)">
            <ellipse cx="1478.32" cy="-162" fill="none" stroke="#000" rx="87.69" ry="18"/>
            <text x="1478.32" y="-156.95" font-family="Times,serif" font-size="14" text-anchor="middle">:server:feature:home</text>
        </g>
        <g stroke="#000" class="edge">
            <path fill="none" d="M733.65 25.14c116.32 5.23 408.77 20.49 651.67 50.86 7.47.93 15.23 2.05 22.97 3.25"/>
            <path d="m1408.77 75.79 9.32 5.05-10.43 1.86z"/>
        </g>
        <g class="node" transform="translate(4 256)">
            <ellipse cx="1277.32" cy="-162" fill="none" stroke="#000" rx="95.37" ry="18"/>
            <text x="1277.32" y="-156.95" font-family="Times,serif" font-size="14" text-anchor="middle">:server:feature:account</text>
        </g>
        <g stroke="#000" class="edge">
            <path fill="none" d="M732.14 27.61c88.67 8.38 279.64 27.2 440.18 48.39 8.84 1.17 18.07 2.47 27.26 3.83"/>
            <path d="m1199.87 76.33 9.37 4.94-10.41 1.98z"/>
        </g>
        <g class="node" transform="translate(4 256)">
            <ellipse cx="854.32" cy="-162" fill="none" stroke="#000" rx="90.76" ry="18"/>
            <text x="854.32" y="-156.95" font-family="Times,serif" font-size="14" text-anchor="middle">:server:feature:memo</text>
        </g>
        <g stroke="#000" class="edge">
            <path fill="none" d="M715.42 36.17c26.17 10.4 63.11 25.09 92.87 36.93"/>
            <path d="m809.5 69.82 8 6.94-10.59-.44z"/>
        </g>
        <g class="node" transform="translate(4 256)">
            <ellipse cx="1044.32" cy="-162" fill="none" stroke="#000" rx="81.55" ry="18"/>
            <text x="1044.32" y="-156.95" font-family="Times,serif" font-size="14" text-anchor="middle">:server:feature:fcm</text>
        </g>
        <g stroke="#000" class="edge">
            <path fill="none" d="M726.83 31.51c62.25 11.91 175.97 33.66 250.12 47.84"/>
            <path d="m977.39 75.87 9.17 5.32-10.48 1.56z"/>
        </g>
        <g class="node" transform="translate(4 256)">
            <ellipse cx="1139.32" cy="-90" fill="none" stroke="#000" rx="72.85" ry="18"/>
            <text x="1139.32" y="-84.95" font-family="Times,serif" font-size="14" text-anchor="middle">:common:model</text>
        </g>
        <g stroke="#000" class="edge">
            <path fill="none" d="M733.6 25.26c113.56 5.53 378.43 21.45 405.72 50.74 14.83 15.91 14.57 41.19 11.33 60.75"/>
            <path d="m1154.13 137.18-5.41 9.11-1.45-10.49z"/>
        </g>
        <g class="node" transform="translate(4 256)">
            <ellipse cx="696.32" cy="-18" fill="none" stroke="#000" rx="80.52" ry="18"/>
            <text x="696.32" y="-12.95" font-family="Times,serif" font-size="14" text-anchor="middle">:server:core:model</text>
        </g>
        <g stroke="red" stroke-width="2" class="edge">
            <path fill="none" d="m398.07 179.03 231.54 44.41"/>
            <path fill="red" d="m628.37 219.64 9.17 5.32-10.48 1.55z"/>
        </g>
        <g stroke="red" stroke-width="2" class="edge">
            <path fill="none" d="M571.58 108.17c-48.16 11.58-118.41 28.48-169.79 40.84"/>
            <path fill="red" d="m404.28 152.01-10.54-1.06 8.91-5.75z"/>
        </g>
        <g stroke="#000" class="edge">
            <path fill="none" d="M664.94 110.36c25.55 10.16 59.31 23.59 86.97 34.59"/>
            <path d="m753.16 141.68 8 6.95-10.59-.44z"/>
        </g>
        <g stroke="#000" class="edge">
            <path fill="none" d="M636.72 111.99c6.19 10.3 14.08 23.78 20.6 36.01 10.83 20.32 22.12 43.78 30.41 61.51"/>
            <path d="m690.8 207.82 1.04 10.54-7.39-7.59z"/>
        </g>
        <g stroke="#000" class="edge">
            <path fill="none" d="M235.91 111.06c17.66 9.58 40.31 21.87 59.53 32.3"/>
            <path d="m296.97 140.21 7.12 7.84-10.46-1.69z"/>
        </g>
        <g stroke="#000" class="edge">
            <path fill="none" d="M180.76 111.41c-14.38 9.24-32.55 20.91-48.26 31"/>
            <path d="m134.67 145.17-10.3 2.46 6.52-8.35z"/>
        </g>
        <g stroke="#000" class="edge">
            <path fill="none" d="M207.03 112.2c1.85 20.61 8.29 54.52 30.29 71.8 65.48 51.45 290.56 24.26 373 36 6.74.96 13.74 2.07 20.72 3.26"/>
            <path d="m631.62 219.81 9.24 5.18-10.45 1.71z"/>
        </g>
        <g stroke="#000" class="edge">
            <path fill="none" d="M395.6 111.59c-9.8 8.68-21.97 19.46-32.81 29.07"/>
            <path d="m365.39 143.03-9.8 4.01 5.16-9.25z"/>
        </g>
        <g stroke="#000" class="edge">
            <path fill="none" d="M447.24 110.36c21.39 9.98 49.53 23.12 72.86 34"/>
            <path d="m521.49 141.15 7.58 7.4-10.54-1.06z"/>
        </g>
        <g stroke="#000" class="edge">
            <path fill="none" d="M420.67 112.3c8.39 20.37 25.16 53.72 50.65 71.7 13.05 9.21 95.83 26.98 158.14 39.4"/>
            <path d="m629.83 219.9 9.13 5.38-10.49 1.49z"/>
        </g>
        <g stroke="#000" class="edge">
            <path fill="none" d="M777.89 183.77c-13.25 9.09-29.81 20.46-44.23 30.35"/>
            <path d="m736.03 216.74-10.23 2.77 6.26-8.54z"/>
        </g>
        <g class="node" transform="translate(4 256)">
            <ellipse cx="962.32" cy="-18" fill="none" stroke="#000" rx="85.13" ry="18"/>
            <text x="962.32" y="-12.95" font-family="Times,serif" font-size="14" text-anchor="middle">:common:exception</text>
        </g>
        <g stroke="#000" class="edge">
            <path fill="none" d="M839.94 183.06c23.59 10.07 54.18 23.12 79.35 33.87"/>
            <path d="m920.5 213.64 7.82 7.14-10.57-.7z"/>
        </g>
        <g class="node" transform="translate(4 256)">
            <ellipse cx="535.32" cy="-18" fill="none" stroke="#000" rx="62.1" ry="18"/>
            <text x="535.32" y="-12.95" font-family="Times,serif" font-size="14" text-anchor="middle">:library:kotlin</text>
        </g>
        <g stroke="#000" class="edge">
            <path fill="none" d="M748.14 181.42c-44.77 11.92-108.1 28.77-153.25 40.79"/>
            <path d="m595.85 225.58-10.56-.81 8.76-5.96z"/>
        </g>
        <g stroke="#000" class="edge">
            <path fill="none" d="M165.72 178.59c12.8 1.96 26.09 3.86 38.6 5.41 179.78 22.23 226.56 11.16 406 36 6.74.93 13.74 2.03 20.73 3.21"/>
            <path d="m631.62 219.75 9.25 5.17-10.45 1.73z"/>
        </g>
        <g stroke="#000" class="edge">
            <path fill="none" d="M172.8 176.95c20.88 2.54 43.55 5.1 64.52 7.05 245.24 22.85 307.5 16.16 553 36 29.17 2.36 61.03 5.32 89.52 8.1"/>
            <path d="m879.88 224.59 9.61 4.46-10.29 2.51z"/>
        </g>
        <g stroke="#000" class="edge">
            <path fill="none" d="M167.54 178.16c12.26 1.95 24.89 3.95 36.78 5.84 93.87 14.88 202.55 32.07 270.04 42.74"/>
            <path d="m474.82 223.27 9.33 5.01-10.42 1.9z"/>
        </g>
        <g stroke="#000" class="edge">
            <path fill="none" d="M595.52 183.06c18.92 9.74 43.28 22.27 63.75 32.81"/>
            <path d="m660.63 212.63 7.29 7.69-10.5-1.46z"/>
        </g>
        <g stroke="#000" class="edge">
            <path fill="none" d="M628.02 178.09c71.53 12.46 187.51 32.65 263.35 45.86"/>
            <path d="m891.51 220.42 9.25 5.16-10.45 1.74z"/>
        </g>
        <g stroke="#000" class="edge">
            <path fill="none" d="M558.14 184.3c-2.69 7.55-5.92 16.58-8.93 25.02"/>
            <path d="m552.6 210.23-6.66 8.24.06-10.59z"/>
        </g>
        <g stroke="#000" class="edge">
            <path fill="none" d="M1422.1 107.43c-59.82 12.36-151.31 31.25-213.01 43.99"/>
            <path d="m1209.92 154.82-10.5-1.4 9.08-5.45z"/>
        </g>
        <g stroke="#000" class="edge">
            <path fill="none" d="M1449.34 111.1c-43.86 20.62-124.31 55.73-197.02 72.9-165.11 38.98-211.14 19.66-380 36-28.74 2.78-60.19 5.87-88.23 8.65"/>
            <path d="m784.51 232.13-10.3-2.5 9.61-4.47z"/>
        </g>
        <g stroke="#000" class="edge">
            <path fill="none" d="M1471.3 112.13c-14.45 20.87-41.91 55.38-74.98 71.87-57.13 28.49-227.55 42.5-335.9 48.71"/>
            <path d="m1060.85 236.19-10.18-2.94 9.79-4.05z"/>
        </g>
        <g stroke="#000" class="edge">
            <path fill="none" d="M1207.53 105.78c-86.07 12.58-228.14 33.34-319.15 46.64"/>
            <path d="m888.89 155.89-10.41-2.02 9.39-4.91z"/>
        </g>
        <g stroke="#000" class="edge">
            <path fill="none" d="M1248.96 111.41c-19.35 9.82-44.12 22.39-64.82 32.88"/>
            <path d="m1185.9 147.32-10.5 1.41 7.34-7.65z"/>
        </g>
        <g stroke="#000" class="edge">
            <path fill="none" d="M1272.74 112.37c-11.93 23.39-33.61 63.07-47.42 71.63-1.16.72-293.28 29.91-441.21 44.66"/>
            <path d="m784.65 232.12-10.3-2.49 9.61-4.47z"/>
        </g>
        <g stroke="#000" class="edge">
            <path fill="none" d="M1282 112.49c-.23 20.24-3.92 53.15-23.68 71.51-28.59 26.56-125.57 40.25-200.01 46.99"/>
            <path d="m1058.81 234.46-10.26-2.61 9.65-4.36z"/>
        </g>
        <g stroke="#000" class="edge">
            <path fill="none" d="M784.27 104.79c-20.68 2.55-43.17 5.16-63.95 7.21-214.22 21.17-268.76 15.02-483 36-17.09 1.67-35.33 3.71-52.79 5.78"/>
            <path d="m185.03 157.24-10.35-2.28 9.51-4.67z"/>
        </g>
        <g stroke="#000" class="edge">
            <path fill="none" d="M913.95 108.66c48.34 11.88 118.25 29.05 168.17 41.31"/>
            <path d="m1082.74 146.52 8.87 5.78-10.54 1.01z"/>
        </g>
        <g stroke="#000" class="edge">
            <path fill="none" d="M879.91 111.95c21.05 18.59 47.45 48.86 29.41 72.05-16.01 20.57-76.46 34.45-128.26 42.82"/>
            <path d="m781.73 230.26-10.42-1.91 9.34-5z"/>
        </g>
        <g stroke="#000" class="edge">
            <path fill="none" d="M895.55 110.77c16.53 8.74 34.89 21.13 46.77 37.23 12.94 17.54 18.9 41.6 21.65 60.28"/>
            <path d="m967.44 207.81-2.27 10.35-4.68-9.51z"/>
        </g>
        <g stroke="#000" class="edge">
            <path fill="none" d="M988.85 106.69c-10.17 1.87-20.64 3.71-30.53 5.31-30.08 4.86-206.09 28.23-312.43 42.26"/>
            <path d="m646.43 157.72-10.37-2.16 9.45-4.78z"/>
        </g>
        <g stroke="#000" class="edge">
            <path fill="none" d="M1070.83 111.59c12.31 9.07 27.74 20.44 41.2 30.35"/>
            <path d="m1113.77 138.88 5.98 8.75-10.13-3.11z"/>
        </g>
        <g stroke="#000" class="edge">
            <path fill="none" d="M1030.38 111.73c-22.57 20.14-63.32 53.57-104.06 72.27-46.16 21.19-101.65 34.36-146.09 42.27"/>
            <path d="m780.83 229.72-10.44-1.76 9.26-5.14z"/>
        </g>
        <g stroke="#000" class="edge">
            <path fill="none" d="M1044.9 112.39c-4.21 18.7-12.59 48.82-26.58 71.61-6.27 10.22-14.85 20.01-23.23 28.33"/>
            <path d="m997.63 214.74-9.66 4.34 4.85-9.42z"/>
        </g>
    </g>
</svg>
