<svg xmlns="http://www.w3.org/2000/svg" width="6892pt" height="620pt" viewBox="0 0 6891.58 620">
    <g class="graph">
        <path fill="#fff" d="M0 620V0h6891.58v620z"/>
        <g class="node" transform="translate(4 616)">
            <ellipse cx="1381.58" cy="-594" fill="none" stroke="#000" rx="78.99" ry="18"/>
            <text x="1381.58" y="-588.95" font-family="Times,serif" font-size="14" text-anchor="middle">:app:platform:jvm</text>
        </g>
        <g class="node" transform="translate(4 616)">
            <ellipse cx="3640.58" cy="-522" fill="none" stroke="#000" rx="97.41" ry="18"/>
            <text x="3640.58" y="-516.95" font-family="Times,serif" font-size="14" text-anchor="middle">:app:platform:common</text>
        </g>
        <g stroke="red" stroke-width="2" class="edge">
            <path fill="none" d="M1463.67 25.42C1802.73 35.93 3147.75 77.6 3537.95 89.7"/>
            <path fill="red" d="m3536.3 86.14 9.88 3.81-10.1 3.19z"/>
        </g>
        <g class="node" transform="translate(4 616)">
            <ellipse cx="1514.58" cy="-450" fill="none" stroke="#000" rx="86.15" ry="18"/>
            <text x="1514.58" y="-444.95" font-family="Times,serif" font-size="14" text-anchor="middle">:app:core:coroutines</text>
        </g>
        <g stroke="#000" class="edge">
            <path fill="none" d="M1401.36 39.85c23.2 24.76 66.67 71.18 93.65 99.99"/>
            <path d="m1497.5 137.38 4.29 9.69-9.39-4.91z"/>
        </g>
        <g class="node" transform="translate(4 616)">
            <ellipse cx="3115.58" cy="-234" fill="none" stroke="#000" rx="95.88" ry="18"/>
            <text x="3115.58" y="-228.95" font-family="Times,serif" font-size="14" text-anchor="middle">:app:core:diary-service</text>
        </g>
        <g stroke="#000" class="edge">
            <path fill="none" d="M1387.14 40.33c3.78 37.64 14.74 124.96 36.44 143.67 54.13 46.67 1211.31 97.47 1282 108 124.14 18.49 266.82 51.9 348.11 72.11"/>
            <path d="m3054.42 360.68 8.85 5.82-10.55.97z"/>
        </g>
        <g class="node" transform="translate(4 616)">
            <ellipse cx="104.58" cy="-234" fill="none" stroke="#000" rx="104.58" ry="18"/>
            <text x="104.58" y="-228.95" font-family="Times,serif" font-size="14" text-anchor="middle">:app:core:holiday-service</text>
        </g>
        <g stroke="#000" class="edge">
            <path fill="none" d="M1306.58 23.86c-203.95 2.77-744.38 13.61-919 52.14-103.8 22.9-222-17.3-222 89v74c0 42.64-22.4 87.62-39.12 115.26"/>
            <path d="m129.46 356.05-8.27 6.63 2.34-10.34z"/>
        </g>
        <g class="node" transform="translate(4 616)">
            <ellipse cx="345.58" cy="-234" fill="none" stroke="#000" rx="80.01" ry="18"/>
            <text x="345.58" y="-228.95" font-family="Times,serif" font-size="14" text-anchor="middle">:library:koin-room</text>
        </g>
        <g stroke="#000" class="edge">
            <path fill="none" d="M1307.41 24.99C1058.17 32.36 298.58 63.18 298.58 165v74c0 40.45 4.12 51.39 19 89 3.6 9.1 8.68 18.42 13.74 26.66"/>
            <path d="m334.1 352.52 2.46 10.3-8.35-6.52z"/>
        </g>
        <g class="node" transform="translate(4 616)">
            <ellipse cx="1638.58" cy="-234" fill="none" stroke="#000" rx="93.32" ry="18"/>
            <text x="1638.58" y="-228.95" font-family="Times,serif" font-size="14" text-anchor="middle">:library:koin-datastore</text>
        </g>
        <g stroke="#000" class="edge">
            <path fill="none" d="M1380.51 40.37c-8.14 31.7-20.3 99.69 10.07 143.63 71.38 103.27 191.24 3.63 261 108 11.86 17.75 8.39 42.1 2.63 60.84"/>
            <path d="m1657.53 353.95-6.59 8.3-.02-10.59z"/>
        </g>
        <g stroke="#000" class="edge">
            <path fill="none" d="M3547.34 95.71c-350.4 2.84-1547.71 15.11-1928.76 52.29-8.75.85-17.89 2.02-26.94 3.35"/>
            <path d="m1592.19 154.8-10.42-1.93 9.35-4.98z"/>
        </g>
        <g stroke="#000" class="edge">
            <path fill="none" d="M3557.35 102.32c-59.26 7-138.58 20.42-204.77 45.68-114.44 43.68-175.15 37.13-235 144-10.22 18.25-9.08 42.08-5.73 60.49"/>
            <path d="m3115.26 351.7-1.3 10.51-5.54-9.03z"/>
        </g>
        <g stroke="#000" class="edge">
            <path fill="none" d="M3546.98 95.48c-389.14 2.16-1813.23 12.78-1900.4 52.52-19.75 9-13.51 26.44-33 36-64.87 31.82-1225.87 90.63-1296 108-61.1 15.14-127.25 45.99-168.41 67.09"/>
            <path d="m150.85 362.16-10.49 1.5 7.26-7.71z"/>
        </g>
        <g class="node" transform="translate(4 616)">
            <ellipse cx="6146.58" cy="-306" fill="none" stroke="#000" rx="81.04" ry="18"/>
            <text x="6146.58" y="-300.95" font-family="Times,serif" font-size="14" text-anchor="middle">:app:core:compose</text>
        </g>
        <g stroke="#000" class="edge">
            <path fill="none" d="M3741.84 95.55c450.18 2.73 2311.92 16.21 2359.74 52.45 40.87 30.97 48.73 95.15 49.63 132.44"/>
            <path d="m6154.71 279.99-3.42 10.03-3.58-9.98z"/>
        </g>
        <g class="node" transform="translate(4 616)">
            <ellipse cx="6130.58" cy="-234" fill="none" stroke="#000" rx="101" ry="18"/>
            <text x="6130.58" y="-228.95" font-family="Times,serif" font-size="14" text-anchor="middle">:app:core:design-system</text>
        </g>
        <g stroke="#000" class="edge">
            <path fill="none" d="M3741.98 95.05c438.33.47 2217.14 5.34 2461.6 52.95 88.23 17.18 137.99-2.02 189 72 52.25 75.82-86.45 123.06-180.16 145.47"/>
            <path d="m6213.24 368.87-10.54-1.14 8.95-5.68z"/>
        </g>
        <g class="node" transform="translate(4 616)">
            <ellipse cx="5206.58" cy="-306" fill="none" stroke="#000" rx="86.67" ry="18"/>
            <text x="5206.58" y="-300.95" font-family="Times,serif" font-size="14" text-anchor="middle">:app:core:navigation</text>
        </g>
        <g stroke="#000" class="edge">
            <path fill="none" d="M3741.71 96.18c251.63 3.52 920.28 16.06 1138.87 51.82 113.69 18.6 151.21 11.11 249 72 25.91 16.13 48.63 42.84 63.36 62.79"/>
            <path d="m5195.65 280.57 2.97 10.17-8.66-6.09z"/>
        </g>
        <g class="node" transform="translate(4 616)">
            <ellipse cx="5628.58" cy="-162" fill="none" stroke="#000" rx="59.54" ry="18"/>
            <text x="5628.58" y="-156.95" font-family="Times,serif" font-size="14" text-anchor="middle">:library:color</text>
        </g>
        <g stroke="#000" class="edge">
            <path fill="none" d="M3742.31 94.55c267.1-.56 1005.22 2.68 1242.27 53.45 83.85 17.96 100.76 36.9 179 72 162.54 72.93 351.04 170.73 430.52 212.59"/>
            <path d="m5595.59 429.42 7.21 7.76-10.48-1.57z"/>
        </g>
        <g class="node" transform="translate(4 616)">
            <ellipse cx="5339.58" cy="-18" fill="none" stroke="#000" rx="62.1" ry="18"/>
            <text x="5339.58" y="-12.95" font-family="Times,serif" font-size="14" text-anchor="middle">:library:kotlin</text>
        </g>
        <g stroke="#000" class="edge">
            <path fill="none" d="M3741.93 95.26c415.49 1.39 2042.26 9.52 2552.65 52.74 265.56 22.49 593-177.51 593 89v218c0 44.32-7.66 65.12-45 89-60.58 38.75-1132.97 50.09-1425.7 52.47"/>
            <path d="m5417.11 599.97-10.03-3.42 9.98-3.58z"/>
        </g>
        <g class="node" transform="translate(4 616)">
            <ellipse cx="5815.58" cy="-306" fill="none" stroke="#000" rx="79.5" ry="18"/>
            <text x="5815.58" y="-300.95" font-family="Times,serif" font-size="14" text-anchor="middle">:library:navigation</text>
        </g>
        <g stroke="#000" class="edge">
            <path fill="none" d="M3742.25 95.21c359.48 1.13 1597.04 8.26 1768.33 52.79 108.85 28.3 222.58 100.42 276.69 137.78"/>
            <path d="m5789.22 282.87 6.2 8.59-10.21-2.85z"/>
        </g>
        <g class="node" transform="translate(4 616)">
            <ellipse cx="3224.58" cy="-18" fill="none" stroke="#000" rx="78.99" ry="18"/>
            <text x="3224.58" y="-12.95" font-family="Times,serif" font-size="14" text-anchor="middle">:library:coroutines</text>
        </g>
        <g stroke="#000" class="edge">
            <path fill="none" d="M3547.58 95.9c-271.6 2.97-1035.95 14.51-1284 52.1-30.49 4.62-517.24 119.53-536 144-9.74 12.7-5.35 20.92 0 36 13.79 38.85 86.56 116.19 117 144 42.31 38.67 52.44 54.42 107 72 122.63 39.51 1030.65 24.8 1159 36 14.38 1.25 29.68 3.09 44.33 5.09"/>
            <path d="m3155.05 581.57 9.41 4.87-10.39 2.07z"/>
        </g>
        <g class="node" transform="translate(4 616)">
            <ellipse cx="4692.58" cy="-18" fill="none" stroke="#000" rx="72.85" ry="18"/>
            <text x="4692.58" y="-12.95" font-family="Times,serif" font-size="14" text-anchor="middle">:library:datetime</text>
        </g>
        <g stroke="#000" class="edge">
            <path fill="none" d="M3741.67 95.88c184.52 2.58 579 12.69 708.91 52.12 183.68 55.75 258.44 62.73 374 216 49.11 65.14 84.01 114.03 36 180-19.22 26.4-51.85 39.93-82.97 46.75"/>
            <path d="m4778.66 594.11-10.49-1.5 9.14-5.36z"/>
        </g>
        <g class="node" transform="translate(4 616)">
            <ellipse cx="5628.58" cy="-306" fill="none" stroke="#000" rx="89.23" ry="18"/>
            <text x="5628.58" y="-300.95" font-family="Times,serif" font-size="14" text-anchor="middle">:library:shimmer-m3</text>
        </g>
        <g stroke="#000" class="edge">
            <path fill="none" d="M3742.06 95.75c349.44 2.96 1527.39 15.61 1692.52 52.25 78.91 17.51 111.94 12.83 167 72 15.51 16.66 23.31 41.5 27.21 60.71"/>
            <path d="m5632.2 279.87-1.72 10.45-5.18-9.24z"/>
        </g>
        <g class="node" transform="translate(4 616)">
            <ellipse cx="3637.58" cy="-378" fill="none" stroke="#000" rx="71.31" ry="18"/>
            <text x="3637.58" y="-372.95" font-family="Times,serif" font-size="14" text-anchor="middle">:app:data:memo</text>
        </g>
        <g stroke="#000" class="edge">
            <path fill="none" d="M3644.21 112.41c-.5 23.98-1.42 67.45-2.03 96.17"/>
            <path d="m3645.68 208.45-3.71 9.93-3.28-10.08z"/>
        </g>
        <g class="node" transform="translate(4 616)">
            <ellipse cx="2429.58" cy="-306" fill="none" stroke="#000" rx="58.52" ry="18"/>
            <text x="2429.58" y="-300.95" font-family="Times,serif" font-size="14" text-anchor="middle">:app:data:tag</text>
        </g>
        <g stroke="#000" class="edge">
            <path fill="none" d="M3547.89 96.81c-235.15 4.88-823.85 20.07-907.31 51.19-77.8 29.01-149.81 98.4-184.79 135.91"/>
            <path d="m2458.47 286.17-9.34 4.99 4.18-9.73z"/>
        </g>
        <g class="node" transform="translate(4 616)">
            <ellipse cx="2531.58" cy="-234" fill="none" stroke="#000" rx="75.92" ry="18"/>
            <text x="2531.58" y="-228.95" font-family="Times,serif" font-size="14" text-anchor="middle">:app:data:account</text>
        </g>
        <g stroke="#000" class="edge">
            <path fill="none" d="M3546.8 94.53c-167.87.48-503.15 7.41-610.22 53.47-109.25 47-93.44 123.34-198 180-23.45 12.71-86.48 28.22-136.15 39.17"/>
            <path d="m2603.41 370.53-10.52-1.28 9.02-5.55z"/>
        </g>
        <g class="node" transform="translate(4 616)">
            <ellipse cx="2991.58" cy="-378" fill="none" stroke="#000" rx="83.6" ry="18"/>
            <text x="2991.58" y="-372.95" font-family="Times,serif" font-size="14" text-anchor="middle">:app:data:credential</text>
        </g>
        <g stroke="#000" class="edge">
            <path fill="none" d="M3548.07 97c-135.79 4.05-375.51 16.05-454.49 51-31.67 14.02-60.02 42.37-77.97 63.33"/>
            <path d="m3018.39 213.45-9.08 5.46 3.69-9.93z"/>
        </g>
        <g class="node" transform="translate(4 616)">
            <ellipse cx="1231.58" cy="-306" fill="none" stroke="#000" rx="74.89" ry="18"/>
            <text x="1231.58" y="-300.95" font-family="Times,serif" font-size="14" text-anchor="middle">:app:data:holiday</text>
        </g>
        <g stroke="#000" class="edge">
            <path fill="none" d="M3547.13 95.16c-367.65.93-1653.49 7.44-1727.55 52.84-46.63 28.58-13.13 78.2-59 108-82.45 53.57-343.64 22.22-441 36-6.32.89-12.89 1.97-19.43 3.13"/>
            <path d="m1301.15 298.51-10.47-1.62 9.19-5.27z"/>
        </g>
        <g class="node" transform="translate(4 616)">
            <ellipse cx="2618.58" cy="-306" fill="none" stroke="#000" rx="73.87" ry="18"/>
            <text x="2618.58" y="-300.95" font-family="Times,serif" font-size="14" text-anchor="middle">:app:data:backup</text>
        </g>
        <g stroke="#000" class="edge">
            <path fill="none" d="M3548.29 97.3c-238.81 6.11-841.55 24.08-875.71 50.7-40.34 31.44-48.9 94.98-50.28 132.14"/>
            <path d="m2625.8 280.21-3.69 9.93-3.31-10.07z"/>
        </g>
        <g class="node" transform="translate(4 616)">
            <ellipse cx="3188.58" cy="-306" fill="none" stroke="#000" rx="65.68" ry="18"/>
            <text x="3188.58" y="-300.95" font-family="Times,serif" font-size="14" text-anchor="middle">:app:data:fetch</text>
        </g>
        <g stroke="#000" class="edge">
            <path fill="none" d="M3567.62 105.42c-44.88 7.92-101.76 21.2-149.04 42.58-79.37 35.89-159.37 101.41-199.51 136.79"/>
            <path d="m3221.59 287.23-9.8 4.04 5.14-9.27z"/>
        </g>
        <g class="node" transform="translate(4 616)">
            <ellipse cx="3372.58" cy="-306" fill="none" stroke="#000" rx="62.1" ry="18"/>
            <text x="3372.58" y="-300.95" font-family="Times,serif" font-size="14" text-anchor="middle">:app:data:fcm</text>
        </g>
        <g stroke="#000" class="edge">
            <path fill="none" d="M3558.3 102.6c-36.33 7-76.99 20.29-106.72 45.4-40.85 34.5-60.77 96.13-69.37 132.31"/>
            <path d="m3385.63 281.05-5.59 9-1.24-10.52z"/>
        </g>
        <g class="node" transform="translate(4 616)">
            <ellipse cx="3534.58" cy="-450" fill="none" stroke="#000" rx="78.48" ry="18"/>
            <text x="3534.58" y="-444.95" font-family="Times,serif" font-size="14" text-anchor="middle">:app:data:calendar</text>
        </g>
        <g stroke="red" stroke-width="2" class="edge">
            <path fill="none" d="M3619.19 111.77c-13.87 9.15-31.23 20.62-46.29 30.57"/>
            <path fill="red" d="m3576.2 144.35-10.28 2.59 6.42-8.43z"/>
        </g>
        <g class="node" transform="translate(4 616)">
            <ellipse cx="4067.58" cy="-306" fill="none" stroke="#000" rx="84.11" ry="18"/>
            <text x="4067.58" y="-300.95" font-family="Times,serif" font-size="14" text-anchor="middle">:app:domain:memo</text>
        </g>
        <g stroke="#000" class="edge">
            <path fill="none" d="M3734.84 101.08c83.64 7.12 200.69 21.34 238.74 46.92 47.87 32.18 76.28 96.37 89.33 133.24"/>
            <path d="m4066.09 279.71-.1 10.59-6.53-8.34z"/>
        </g>
        <g class="node" transform="translate(4 616)">
            <ellipse cx="3984.58" cy="-234" fill="none" stroke="#000" rx="71.31" ry="18"/>
            <text x="3984.58" y="-228.95" font-family="Times,serif" font-size="14" text-anchor="middle">:app:domain:tag</text>
        </g>
        <g stroke="#000" class="edge">
            <path fill="none" d="M3705.97 108.41c62.11 16.49 157.2 50.15 216.61 111.59 36.22 37.46 53.6 97.54 61.08 132.74"/>
            <path d="m3987.02 351.69-1.49 10.49-5.38-9.13z"/>
        </g>
        <g class="node" transform="translate(4 616)">
            <ellipse cx="4040.58" cy="-90" fill="none" stroke="#000" rx="88.71" ry="18"/>
            <text x="4040.58" y="-84.95" font-family="Times,serif" font-size="14" text-anchor="middle">:app:domain:account</text>
        </g>
        <g stroke="#000" class="edge">
            <path fill="none" d="M3548.91 97.72c-192.6 6.05-613.84 22.3-673.33 50.28-79.94 37.59-76.71 79.44-137 144-14.81 15.86-13.79 25.89-33 36-101.28 53.32-150.98-11.76-255 36-22.04 10.12-21 22.29-41 36-28.53 19.55-51.07 6.42-69 36-8.29 13.68-11.14 24.51 0 36 14.05 14.49 1242.71 42.8 1604.71 50.83"/>
            <path d="m3945.34 519.33 9.92 3.72-10.08 3.28z"/>
        </g>
        <g class="node" transform="translate(4 616)">
            <ellipse cx="4587.58" cy="-306" fill="none" stroke="#000" rx="96.39" ry="18"/>
            <text x="4587.58" y="-300.95" font-family="Times,serif" font-size="14" text-anchor="middle">:app:domain:credential</text>
        </g>
        <g stroke="#000" class="edge">
            <path fill="none" d="M3742.14 94.18c177.58-.24 546.07 5.37 663.44 53.82 71.33 29.45 134.63 97.53 165.7 135.04"/>
            <path d="m4573.92 280.74 3.59 9.96-9.02-5.54z"/>
        </g>
        <g class="node" transform="translate(4 616)">
            <ellipse cx="4615.58" cy="-90" fill="none" stroke="#000" rx="87.69" ry="18"/>
            <text x="4615.58" y="-84.95" font-family="Times,serif" font-size="14" text-anchor="middle">:app:domain:holiday</text>
        </g>
        <g stroke="#000" class="edge">
            <path fill="none" d="M3741.91 95.7c151.22 2.34 434.76 12.15 526.67 52.3 43.53 19.02 289.05 248.88 316 288 12.81 18.59 21.89 42.55 27.58 60.92"/>
            <path d="m4615.47 495.78-.55 10.58-6.17-8.62z"/>
        </g>
        <g class="node" transform="translate(4 616)">
            <ellipse cx="4126.58" cy="-162" fill="none" stroke="#000" rx="86.67" ry="18"/>
            <text x="4126.58" y="-156.95" font-family="Times,serif" font-size="14" text-anchor="middle">:app:domain:backup</text>
        </g>
        <g stroke="#000" class="edge">
            <path fill="none" d="M3732.74 102.03c90.92 8.29 225.86 23.81 272.84 45.97 86.22 40.68 120.35 56.85 159 144 19.75 44.54-1.9 101.19-18.56 134.04"/>
            <path d="m4149.32 427.29-7.77 7.2 1.58-10.47z"/>
        </g>
        <g class="node" transform="translate(4 616)">
            <ellipse cx="4317.58" cy="-234" fill="none" stroke="#000" rx="78.48" ry="18"/>
            <text x="4317.58" y="-228.95" font-family="Times,serif" font-size="14" text-anchor="middle">:app:domain:fetch</text>
        </g>
        <g stroke="#000" class="edge">
            <path fill="none" d="M3738.54 99.18c147.82 7.29 421.81 23.97 459.04 48.82 72.68 48.52 105.89 154.06 118.1 204.73"/>
            <path d="m4319.06 351.8-1.18 10.53-5.65-8.96z"/>
        </g>
        <g class="node" transform="translate(4 616)">
            <ellipse cx="4496.58" cy="-162" fill="none" stroke="#000" rx="74.89" ry="18"/>
            <text x="4496.58" y="-156.95" font-family="Times,serif" font-size="14" text-anchor="middle">:app:domain:fcm</text>
        </g>
        <g stroke="#000" class="edge">
            <path fill="none" d="M3742.29 94.8c144.28 1.2 406.13 9.58 488.29 53.2 91.23 48.44 67.95 113.52 147 180 24.98 21 40.1 13.78 64 36 19.04 17.7 34.93 42.72 45.4 61.73"/>
            <path d="m4490.05 424.04 1.61 10.47-7.79-7.18z"/>
        </g>
        <g class="node" transform="translate(4 616)">
            <ellipse cx="3818.58" cy="-378" fill="none" stroke="#000" rx="91.27" ry="18"/>
            <text x="3818.58" y="-372.95" font-family="Times,serif" font-size="14" text-anchor="middle">:app:domain:calendar</text>
        </g>
        <g stroke="#000" class="edge">
            <path fill="none" d="M3665.7 111.85c31.58 25.19 91.24 72.78 127.19 101.47"/>
            <path d="m3794.67 210.26 5.64 8.97-10-3.5z"/>
        </g>
        <g class="node" transform="translate(4 616)">
            <ellipse cx="1856.58" cy="-306" fill="none" stroke="#000" rx="123.52" ry="18"/>
            <text x="1856.58" y="-300.95" font-family="Times,serif" font-size="14" text-anchor="middle">:app:core:filter-database-room</text>
        </g>
        <g stroke="#000" class="edge">
            <path fill="none" d="M3547.75 96.43c-246.78 4.11-894.71 17.85-1107.17 51.57-196.92 31.25-422.49 105.35-524.62 141.07"/>
            <path d="m1917.32 292.3-10.59.02 8.27-6.62z"/>
        </g>
        <g class="node" transform="translate(4 616)">
            <ellipse cx="1006.58" cy="-306" fill="none" stroke="#000" rx="132.22" ry="18"/>
            <text x="1006.58" y="-300.95" font-family="Times,serif" font-size="14" text-anchor="middle">:app:core:backup-database-room</text>
        </g>
        <g stroke="#000" class="edge">
            <path fill="none" d="M3547.19 95.24c-371.27 1.22-1680.97 8.67-1757.61 52.76-48.96 28.17-18.53 78.99-67 108-54.55 32.64-507.7 30.19-571 36-11.75 1.08-24.03 2.35-36.24 3.7"/>
            <path d="m1116 299.14-10.33-2.35 9.55-4.6z"/>
        </g>
        <g class="node" transform="translate(4 616)">
            <ellipse cx="2156.58" cy="-306" fill="none" stroke="#000" rx="158.32" ry="18"/>
            <text x="2156.58" y="-300.95" font-family="Times,serif" font-size="14" text-anchor="middle">:app:core:account-preferences-datastore</text>
        </g>
        <g stroke="#000" class="edge">
            <path fill="none" d="M3547.49 95.74c-228.28 2.4-793.8 12.31-978.91 52.26-139.23 30.05-292.82 102.14-365.45 138.79"/>
            <path d="m2204.86 289.84-10.5 1.41 7.33-7.65z"/>
        </g>
        <g class="node" transform="translate(4 616)">
            <ellipse cx="731.58" cy="-306" fill="none" stroke="#000" rx="124.54" ry="18"/>
            <text x="731.58" y="-300.95" font-family="Times,serif" font-size="14" text-anchor="middle">:app:core:diary-database-room</text>
        </g>
        <g stroke="#000" class="edge">
            <path fill="none" d="M3547.36 95.76c-374.62 3.19-1707.85 16.97-1790.78 52.24-63.05 26.82-47.2 80.61-110 108-79.22 34.55-690.9 28.56-777 36-11.33.98-23.18 2.2-34.94 3.53"/>
            <path d="m835.25 298.98-10.34-2.32 9.53-4.63z"/>
        </g>
        <g class="node" transform="translate(4 616)">
            <ellipse cx="1481.58" cy="-306" fill="none" stroke="#000" rx="157.3" ry="18"/>
            <text x="1481.58" y="-300.95" font-family="Times,serif" font-size="14" text-anchor="middle">:app:core:holiday-preferences-datastore</text>
        </g>
        <g stroke="#000" class="edge">
            <path fill="none" d="M3546.9 95.02c-364.7.43-1629.35 5.36-1700.32 52.98-43.62 29.27-6.51 75.79-48 108-27.27 21.17-102.83 34.32-172.87 42.22"/>
            <path d="m1626.35 301.67-10.32-2.39 9.56-4.57z"/>
        </g>
        <g class="node" transform="translate(4 616)">
            <ellipse cx="455.58" cy="-306" fill="none" stroke="#000" rx="133.24" ry="18"/>
            <text x="455.58" y="-300.95" font-family="Times,serif" font-size="14" text-anchor="middle">:app:core:holiday-database-room</text>
        </g>
        <g stroke="#000" class="edge">
            <path fill="none" d="M3547.05 94.89C3179.09 94.85 1886.9 98.3 1709.58 148c-31.05 8.7-32.3 26.13-63 36-444.51 142.91-580.96 56.25-1045 108a6831 6831 0 0 0-34.32 3.92"/>
            <path d="m568.02 299.36-10.34-2.31 9.53-4.65z"/>
        </g>
        <g class="node" transform="translate(4 616)">
            <ellipse cx="4868.58" cy="-378" fill="none" stroke="#000" rx="81.55" ry="18"/>
            <text x="4868.58" y="-372.95" font-family="Times,serif" font-size="14" text-anchor="middle">:app:feature:memo</text>
        </g>
        <g stroke="#000" class="edge">
            <path fill="none" d="M3741.47 96.01c255.07 3.16 932.07 14.96 1026.11 51.99 33.66 13.25 64.22 41.95 83.59 63.2"/>
            <path d="m4853.75 208.83 4 9.81-9.24-5.17z"/>
        </g>
        <g class="node" transform="translate(4 616)">
            <ellipse cx="5047.58" cy="-378" fill="none" stroke="#000" rx="68.75" ry="18"/>
            <text x="5047.58" y="-372.95" font-family="Times,serif" font-size="14" text-anchor="middle">:app:feature:tag</text>
        </g>
        <g stroke="#000" class="edge">
            <path fill="none" d="M3741.88 95.62c241.57 2.15 863.78 11.61 1066.7 52.38 72.89 14.65 153.09 47.55 200.68 68.98"/>
            <path d="m5010.46 213.68 7.65 7.33-10.55-.96z"/>
        </g>
        <g class="node" transform="translate(4 616)">
            <ellipse cx="5999.58" cy="-450" fill="none" stroke="#000" rx="88.71" ry="18"/>
            <text x="5999.58" y="-444.95" font-family="Times,serif" font-size="14" text-anchor="middle">:app:feature:calendar</text>
        </g>
        <g stroke="#000" class="edge">
            <path fill="none" d="M3741.73 95.93c300.01 3.2 1238.36 15.62 2014.85 52.07 51.07 2.4 108 6.24 154.33 9.66"/>
            <path d="m5910.92 154.15 9.71 4.24-10.23 2.74z"/>
        </g>
        <g class="node" transform="translate(4 616)">
            <ellipse cx="5511.58" cy="-378" fill="none" stroke="#000" rx="76.94" ry="18"/>
            <text x="5511.58" y="-372.95" font-family="Times,serif" font-size="14" text-anchor="middle">:app:feature:more</text>
        </g>
        <g stroke="#000" class="edge">
            <path fill="none" d="M3742.39 94.75c344.35-.43 1488.19 2.04 1644.19 53.25 40.06 13.15 78.89 42.99 103.3 64.5"/>
            <path d="m5491.99 209.69 5.08 9.3-9.77-4.1z"/>
        </g>
        <g class="node" transform="translate(4 616)">
            <ellipse cx="6293.58" cy="-378" fill="none" stroke="#000" rx="86.15" ry="18"/>
            <text x="6293.58" y="-372.95" font-family="Times,serif" font-size="14" text-anchor="middle">:app:feature:account</text>
        </g>
        <g stroke="#000" class="edge">
            <path fill="none" d="M3741.95 95.63c447.88 3.09 2293.21 17.86 2410.63 52.37 44.56 13.09 89.08 43.67 116.8 65.32"/>
            <path d="m6271.29 210.37 5.64 8.97-10-3.49z"/>
        </g>
        <g class="node" transform="translate(4 616)">
            <ellipse cx="2851.58" cy="-234" fill="none" stroke="#000" rx="112.26" ry="18"/>
            <text x="2851.58" y="-228.95" font-family="Times,serif" font-size="14" text-anchor="middle">:library:firebase-messaging</text>
        </g>
        <g stroke="#000" class="edge">
            <path fill="none" d="M3550.02 98.73c-145.54 6.52-417.37 21.94-510.44 49.27-66 19.38-93.46 18.75-137 72-31.58 38.61-41.94 97.64-45.34 132.47"/>
            <path d="m2860.75 352.53-4.32 9.67-2.66-10.25z"/>
        </g>
        <g class="node" transform="translate(4 616)">
            <ellipse cx="3026.58" cy="-18" fill="none" stroke="#000" rx="71.31" ry="18"/>
            <text x="3026.58" y="-12.95" font-family="Times,serif" font-size="14" text-anchor="middle">:app:core:model</text>
        </g>
        <g stroke="#000" class="edge">
            <path fill="none" d="M3055.04 395.58c-38.55 8.74-87.92 22.12-129.46 40.42-27.42 12.08-99.54 45.76-114 72-31.89 57.86 62.93 78.15 137.71 85.23"/>
            <path d="m2949.46 589.73 9.66 4.36-10.27 2.62z"/>
        </g>
        <g class="node" transform="translate(4 616)">
            <ellipse cx="4174.58" cy="-18" fill="none" stroke="#000" rx="85.13" ry="18"/>
            <text x="4174.58" y="-12.95" font-family="Times,serif" font-size="14" text-anchor="middle">:common:exception</text>
        </g>
        <g stroke="#000" class="edge">
            <path fill="none" d="M3051.71 395.08c-56.9 13.15-124.26 37.71-93.13 76.92 69.65 87.74 849.32 115.7 1124.52 122.87"/>
            <path d="m4082.83 591.36 9.9 3.76-10.08 3.24z"/>
        </g>
        <g class="node" transform="translate(4 616)">
            <ellipse cx="2479.58" cy="-162" fill="none" stroke="#000" rx="121.98" ry="18"/>
            <text x="2479.58" y="-156.95" font-family="Times,serif" font-size="14" text-anchor="middle">:app:core:account-preferences</text>
        </g>
        <g stroke="#000" class="edge">
            <path fill="none" d="M3040.94 392.62c-20.91 2.49-43.48 5.1-64.36 7.38-160.73 17.54-201.37 17.59-362 36a3415 3415 0 0 0-31.81 3.81"/>
            <path d="m2583.48 443.25-10.36-2.23 9.49-4.72z"/>
        </g>
        <g class="node" transform="translate(4 616)">
            <ellipse cx="3036.58" cy="-162" fill="none" stroke="#000" rx="72.85" ry="18"/>
            <text x="3036.58" y="-156.95" font-family="Times,serif" font-size="14" text-anchor="middle">:common:model</text>
        </g>
        <g stroke="#000" class="edge">
            <path fill="none" d="M3100.46 399.95c-9.71 8.59-21.67 19.19-32.35 28.65"/>
            <path d="m3070.47 431.19-9.81 4.02 5.16-9.25z"/>
        </g>
        <g stroke="#000" class="edge">
            <path fill="none" d="M125.84 400.11c21.77 20.52 61.27 54.33 101.74 71.89 166.91 72.44 221.95 53.94 403 72 463.83 46.27 1949.49 52.15 2317.12 52.89"/>
            <path d="m2947.52 593.39 9.99 3.52-10.01 3.48z"/>
        </g>
        <g stroke="#000" class="edge">
            <path fill="none" d="M6146.62 328.3c-1.68 7.38-3.69 16.18-5.58 24.45"/>
            <path d="m6144.47 353.45-5.64 8.97-1.19-10.53z"/>
        </g>
        <g stroke="#000" class="edge">
            <path fill="none" d="M6056.69 393.86c-98.77 13.77-267.28 37.27-359.35 50.11"/>
            <path d="m5697.84 447.43-10.39-2.08 9.42-4.85z"/>
        </g>
        <g stroke="#000" class="edge">
            <path fill="none" d="M6098.07 399.24c-44.53 19.34-122.4 51.66-191.49 72.76-139.84 42.71-176.22 51.58-321 72-293.79 41.43-646.65 50.53-804.95 52.49"/>
            <path d="m4781.13 599.98-10.04-3.38 9.95-3.62z"/>
        </g>
        <g stroke="#000" class="edge">
            <path fill="none" d="M5221.05 328.3c24.33 42.67 78.55 153.99 22.53 215.7-30.51 33.61-317.9 46.54-463.42 50.96"/>
            <path d="m4780.69 598.45-10.1-3.21 9.9-3.79z"/>
        </g>
        <g stroke="#000" class="edge">
            <path fill="none" d="M5811.99 328.16c-15.62 33.22-54.61 106.34-110.41 143.84-54.76 36.79-84.43 7.65-144 36-24.08 11.46-22.99 26.75-48 36-67.11 24.82-536.05 43.52-729.67 50.26"/>
            <path d="m4780.3 597.75-10.12-3.15 9.88-3.84z"/>
        </g>
        <g stroke="#000" class="edge">
            <path fill="none" d="M5632.58 328.41v96.17"/>
            <path d="m5636.08 424.38-3.5 10-3.5-10z"/>
        </g>
        <g stroke="#000" class="edge">
            <path fill="none" d="M3610.32 254.48c-88.59 44.56-337.65 174.98-380.74 253.52-10.06 18.34-9.76 42.16-7.25 60.55"/>
            <path d="m3225.76 567.8-1.79 10.44-5.12-9.28z"/>
        </g>
        <g stroke="#000" class="edge">
            <path fill="none" d="M3646.42 256.18c16.18 53.86 74.02 219.91 189.16 287.82 33.17 19.56 569.01 41.91 778.23 49.93"/>
            <path d="m4613.65 590.42 9.86 3.88-10.13 3.12z"/>
        </g>
        <g stroke="#000" class="edge">
            <path fill="none" d="M3694.22 250.49c9.42 1.94 19.17 3.85 28.36 5.51 91.59 16.55 197.34 32.12 268.21 42.04"/>
            <path d="m3990.94 294.53 9.42 4.85-10.39 2.08z"/>
        </g>
        <g class="node" transform="translate(4 616)">
            <ellipse cx="2221.58" cy="-234" fill="none" stroke="#000" rx="101.51" ry="18"/>
            <text x="2221.58" y="-228.95" font-family="Times,serif" font-size="14" text-anchor="middle">:app:core:diary-database</text>
        </g>
        <g stroke="#000" class="edge">
            <path fill="none" d="M3571.13 241.04c-235.63 7-984.09 30.71-1031.55 50.96-21.4 9.13-17.3 25.38-38 36-17.03 8.74-116.91 26.68-191.66 39.26"/>
            <path d="m2310.56 370.7-10.45-1.8 9.29-5.1z"/>
        </g>
        <g stroke="#000" class="edge">
            <path fill="none" d="M2389.33 322.05c-9.45 2.16-19.4 4.26-28.75 5.95-61.52 11.1-237.72-10.95-279 36-67.81 77.12-58.18 92.04 124 180 90.62 43.76 804.78 26.81 905 36 14.29 1.31 29.49 3.16 44.07 5.15"/>
            <path d="m3154.73 581.63 9.42 4.86-10.39 2.07z"/>
        </g>
        <g stroke="#000" class="edge">
            <path fill="none" d="M2388.92 322.02c-9.33 2.13-19.13 4.24-28.34 5.98-111.93 21.19-311.51-21.2-246 72 114.85 163.41 522.38 74.17 839 108 102.01 10.9 125.87 26.29 228 36 482.97 45.92 606.17 18.28 1091 36 118.6 4.33 255.83 9.95 341.29 13.51"/>
            <path d="m4613.96 590.01 9.84 3.92-10.13 3.07z"/>
        </g>
        <g stroke="#000" class="edge">
            <path fill="none" d="M2482.76 320.17c17.84 2.99 38.18 6 56.82 7.83 268.15 26.31 1101.03 45.68 1366.69 51.32"/>
            <path d="m3906.3 375.82 9.92 3.71-10.07 3.29z"/>
        </g>
        <g stroke="#000" class="edge">
            <path fill="none" d="M2395.43 323.84c-31.67 10.66-77.19 25.98-113.13 38.07"/>
            <path d="m2283.5 365.2-10.59-.13 8.36-6.51z"/>
        </g>
        <g stroke="#000" class="edge">
            <path fill="none" d="M2465.84 389.4c-91.8 9.15-243.58 27.03-260.26 46.6-10.38 12.18-10.62 24.03 0 36 134.46 151.46 704.19 81.56 905 108 13.6 1.79 28.07 3.79 42.04 5.78"/>
            <path d="m3152.8 582.27 9.4 4.88-10.39 2.05z"/>
        </g>
        <g stroke="#000" class="edge">
            <path fill="none" d="M2469.16 391.02c-72.39 11.21-172.43 35.51-128.58 80.98 38.32 39.74 940.95 17.6 993 36 25.14 8.89 22.88 27.06 48 36l1232.15 49.66"/>
            <path d="m4613.58 590.15 9.85 3.9-10.13 3.1z"/>
        </g>
        <g stroke="#000" class="edge">
            <path fill="none" d="M2481.98 395.08c-51.08 12.06-121.4 30.28-129.4 40.92-9.61 12.79-11.14 24.51 0 36 6.97 7.2 1231.9 40.65 1592.95 50.35"/>
            <path d="m3945.57 518.85 9.9 3.77-10.09 3.23z"/>
        </g>
        <g stroke="#000" class="edge">
            <path fill="none" d="M2522.99 399.95c-5.91 7.96-13.11 17.64-19.72 26.54"/>
            <path d="m2506.09 428.57-8.77 5.94 3.15-10.11z"/>
        </g>
        <g stroke="#000" class="edge">
            <path fill="none" d="M3010.54 256.13c21.6 24.73 61.67 70.63 86.76 99.36"/>
            <path d="m3099.63 352.84 3.94 9.83-9.21-5.23z"/>
        </g>
        <g stroke="#000" class="edge">
            <path fill="none" d="M2996.67 256.27c1.26 30.4.92 94.86-20.09 143.73-8.23 19.13-16.73 19.95-30 36-26.35 31.89-45.08 33.04-59 72-5.39 15.07-10.41 23.85 0 36 2.16 2.52 165.1 27 264.93 41.8"/>
            <path d="m3152.89 582.31 9.38 4.93-10.41 2z"/>
        </g>
        <g stroke="#000" class="edge">
            <path fill="none" d="M3078.42 241.01c112.91 4.03 308.06 15.99 369.16 50.99 87 49.84 63.96 110.26 136 180 39.87 38.6 49.57 53.83 102 72 21.84 7.57 690.87 38.5 928.37 49.28"/>
            <path d="m4613.92 589.77 9.84 3.95-10.15 3.05z"/>
        </g>
        <g stroke="#000" class="edge">
            <path fill="none" d="M3076.92 242.57c266.54 11.69 1113.51 48.84 1410.52 61.86"/>
            <path d="m4487.28 300.92 9.83 3.94-10.14 3.06z"/>
        </g>
        <g stroke="#000" class="edge">
            <path fill="none" d="M2963.05 254.92c-62.23 30.17-202.76 96.95-324.47 145.08-30.72 12.15-65.48 24.18-94.28 33.71"/>
            <path d="m2545.61 436.96-10.6-.2 8.41-6.45z"/>
        </g>
        <g stroke="#000" class="edge">
            <path fill="none" d="M1182.46 323.08c-10.2 1.94-20.84 3.71-30.88 4.92-393.47 47.46-495.82 5.96-891 36-18.81 1.43-38.89 3.38-58.09 5.44"/>
            <path d="m203.14 372.89-10.32-2.39 9.55-4.57z"/>
        </g>
        <g stroke="#000" class="edge">
            <path fill="none" d="M1206.49 326.94c-13.26 8.98-27.6 21.52-34.91 37.06-6.81 14.48-9.85 23.39 0 36 163.01 208.6 315.68 108.29 578 144 599.57 81.62 758.07-15.23 1361 36 14.46 1.23 29.85 3.06 44.58 5.07"/>
            <path d="m3155.36 581.56 9.41 4.87-10.39 2.07z"/>
        </g>
        <g stroke="#000" class="edge">
            <path fill="none" d="M1226.58 328.03c-9.07 19.8-19.45 52.28-2 71.97 176.68 199.35 330.36 41.68 595 72 295.79 33.88 368.88 52.98 666 72 792.76 50.74 992.98 12.09 1787 36 118.62 3.57 255.85 9.38 341.3 13.2"/>
            <path d="m4613.98 589.7 9.83 3.94-10.14 3.05z"/>
        </g>
        <g stroke="#000" class="edge">
            <path fill="none" d="M1231.06 328.13c-4.18 20.2-7.26 53.39 11.52 71.87 45.46 44.75 509.34 31.87 573 36 238.7 15.5 298.02 25.59 537 36 794.96 34.62 994.59 13.83 1790 36 131.73 3.67 283.88 9.34 380.24 13.11"/>
            <path d="m4522.92 517.61 9.86 3.89-10.13 3.11z"/>
        </g>
        <g class="node" transform="translate(4 616)">
            <ellipse cx="1368.58" cy="-234" fill="none" stroke="#000" rx="120.96" ry="18"/>
            <text x="1368.58" y="-228.95" font-family="Times,serif" font-size="14" text-anchor="middle">:app:core:holiday-preferences</text>
        </g>
        <g stroke="#000" class="edge">
            <path fill="none" d="M1266.32 326.71c18.77 9.59 43.02 21.98 63.62 32.51"/>
            <path d="m1331.37 356.01 7.31 7.67-10.5-1.43z"/>
        </g>
        <g class="node" transform="translate(4 616)">
            <ellipse cx="553.58" cy="-234" fill="none" stroke="#000" rx="110.21" ry="18"/>
            <text x="553.58" y="-228.95" font-family="Times,serif" font-size="14" text-anchor="middle">:app:core:holiday-database</text>
        </g>
        <g stroke="#000" class="edge">
            <path fill="none" d="M1181.97 322.83c-10.06 1.94-20.52 3.77-30.39 5.17-192.95 27.38-243 17.51-437 36-18.39 1.75-37.98 3.76-56.87 5.77"/>
            <path d="m658.2 373.24-10.31-2.42 9.57-4.54z"/>
        </g>
        <g stroke="#000" class="edge">
            <path fill="none" d="M2685.27 319.83c88.07 12.4 248.74 35.03 348.04 49.02"/>
            <path d="m3033.59 365.35 9.42 4.87-10.39 2.07z"/>
        </g>
        <g stroke="#000" class="edge">
            <path fill="none" d="M2565.77 321.9c-66.46 12.99-169.59 33.96-186.19 42.1-22.38 10.97-20.8 24.67-43 36-58.38 29.79-102.71-15.69-143 36-9.84 12.62-5.51 20.98 0 36 14.44 39.38 23.33 53.57 61 72 85.51 41.83 761.21 27.2 856 36 14.29 1.33 29.49 3.18 44.07 5.18"/>
            <path d="m3154.73 581.66 9.41 4.86-10.39 2.07z"/>
        </g>
        <g stroke="#000" class="edge">
            <path fill="none" d="M2567.84 322.43c-51.37 11.22-124.12 28.49-150.26 41.57-22.91 11.46-24.83 20.21-45 36-20.72 16.22-35.35 12.41-47 36-7.08 14.35-11.07 24.45 0 36 32.94 34.36 808.85 29.49 856 36 68.77 9.5 83.21 26.63 152 36 413.81 56.39 521.68 19.63 939 36 118.41 4.64 255.42 10.16 340.9 13.63"/>
            <path d="m4613.57 590.13 9.85 3.9-10.13 3.09z"/>
        </g>
        <g stroke="#000" class="edge">
            <path fill="none" d="M2637.22 327.92c19.66 21.35 56.83 57.07 97.36 72.08 60.73 22.49 992.07 44.35 1298.84 50.97"/>
            <path d="m4033.07 447.46 9.92 3.72-10.07 3.28z"/>
        </g>
        <g stroke="#000" class="edge">
            <path fill="none" d="M2566.28 322.06a3945 3945 0 0 1-31.7 5.94c-76.12 13.88-162.98 28.69-225.18 39.11"/>
            <path d="m2310.01 370.56-10.44-1.8 9.29-5.11z"/>
        </g>
        <g class="node" transform="translate(4 616)">
            <ellipse cx="1006.58" cy="-234" fill="none" stroke="#000" rx="109.19" ry="18"/>
            <text x="1006.58" y="-228.95" font-family="Times,serif" font-size="14" text-anchor="middle">:app:core:backup-database</text>
        </g>
        <g stroke="#000" class="edge">
            <path fill="none" d="M2562.41 320.8c-19.37 2.79-40.96 5.53-60.83 7.2-557.81 47.01-699.94 7.54-1259 36-40.84 2.08-85.67 5.17-124.94 8.15"/>
            <path d="m1117.93 375.64-10.24-2.72 9.7-4.26z"/>
        </g>
        <g stroke="#000" class="edge">
            <path fill="none" d="M3175.28 327.59c-8.87 8.5-19.86 19.04-29.72 28.5"/>
            <path d="m3148 358.6-9.65 4.4 4.8-9.45z"/>
        </g>
        <g stroke="#000" class="edge">
            <path fill="none" d="M3206.81 327.96c13.54 18.33 30.16 48.13 17.77 72.04-25.53 49.27-53.63 44.82-102 72-35.05 19.7-60.94 2.38-83 36-8.78 13.38-9.67 23.25 0 36 14.07 18.56 67.03 32.42 113.31 41.3"/>
            <path d="m3153.5 581.85 9.19 5.26-10.47 1.62z"/>
        </g>
        <g stroke="#000" class="edge">
            <path fill="none" d="M3207.16 327.84c40.34 45.2 159.06 168.97 288.42 216.16 13.15 4.8 848.73 38.82 1118.21 49.68"/>
            <path d="m4613.69 590.17 9.85 3.9-10.14 3.09z"/>
        </g>
        <g stroke="#000" class="edge">
            <path fill="none" d="M3247.33 320.39c18.45 2.85 39.2 5.73 58.25 7.61 337.85 33.3 424.06 16.62 763 36 55.96 3.2 118.85 7.42 167.92 10.86"/>
            <path d="m4236.47 371.35 9.73 4.19-10.22 2.79z"/>
        </g>
        <g stroke="#000" class="edge">
            <path fill="none" d="M3129.54 315.41c-127.98 8.99-427.48 30.11-678.96 48.59-39.91 2.93-83.81 6.23-122.14 9.14"/>
            <path d="m2329 376.61-10.23-2.74 9.7-4.24z"/>
        </g>
        <g stroke="#000" class="edge">
            <path fill="none" d="M3332.4 323.03c-41.06 11.19-102.67 27.97-149.05 40.6"/>
            <path d="m3184.53 366.94-10.57-.75 8.73-6.01z"/>
        </g>
        <g stroke="#000" class="edge">
            <path fill="none" d="M3363.85 327.83c-14.95 19.02-41.16 50.2-68.27 72.17-49.21 39.88-65.85 44.68-123 72-40.74 19.47-69.35-1.16-95 36-9.09 13.17-9.25 22.95 0 36 16.03 22.61 42.49 35.65 68.83 43.14"/>
            <path d="m3146.98 583.67 8.81 5.88-10.56.9z"/>
        </g>
        <g stroke="#000" class="edge">
            <path fill="none" d="M3391.17 327.68c40.9 45.35 162.36 170.57 294.41 216.32 21.84 7.57 690.87 38.5 928.37 49.28"/>
            <path d="m4613.92 589.77 9.84 3.95-10.15 3.05z"/>
        </g>
        <g stroke="#000" class="edge">
            <path fill="none" d="M3438.03 312.96c215.44 7.05 925.92 31.64 970.55 51.04 8.33 3.62 43.55 38.93 67.92 63.96"/>
            <path d="m4478.79 425.3 4.44 9.61-9.47-4.74z"/>
        </g>
        <g stroke="#000" class="edge">
            <path fill="none" d="M3323.4 319.59c-17.74 2.78-37.62 5.82-55.82 8.41-106.83 15.2-229.52 30.74-313.04 41.02"/>
            <path d="m2955.13 372.48-10.35-2.26 9.5-4.69z"/>
        </g>
        <g stroke="#000" class="edge">
            <path fill="none" d="M3499.13 181.92c-49.07 19.88-133.67 58.62-193.55 110.08-45.51 39.1-37.97 66.19-81 108-39.8 38.67-55.98 40.99-102 72-24.54 16.54-41.82 10.03-56 36-7.67 14.04-9.39 23.05 0 36 17.87 24.64 47.53 38.04 76.62 45.25"/>
            <path d="m3143.82 585.8 9 5.59-10.52 1.24z"/>
        </g>
        <g stroke="#000" class="edge">
            <path fill="none" d="M3540.98 184.44c3.01 18.48 9.22 48.17 20.6 71.56 70.91 145.83 79.51 214.39 224 288 36.53 18.61 609.87 41.79 827.81 49.97"/>
            <path d="m4613.36 590.47 9.87 3.87-10.13 3.12z"/>
        </g>
        <g stroke="red" stroke-width="2" class="edge">
            <path fill="none" d="M3590.67 179.84c46.6 11.48 115.14 28.38 165.63 40.82"/>
            <path fill="red" d="m3755.62 216.89 8.87 5.79-10.55 1.01z"/>
        </g>
        <g class="node" transform="translate(4 616)">
            <ellipse cx="1925.58" cy="-234" fill="none" stroke="#000" rx="100.48" ry="18"/>
            <text x="1925.58" y="-228.95" font-family="Times,serif" font-size="14" text-anchor="middle">:app:core:filter-database</text>
        </g>
        <g stroke="#000" class="edge">
            <path fill="none" d="M3464.05 171.99c-118.91 8.24-358.79 25.99-561.47 48.01-239.39 26.01-319.74-31.84-537 72-20.99 10.03-16.97 26.04-38 36-114.99 54.45-157.96 18.62-284 36-9.12 1.26-18.64 2.61-28.13 3.99"/>
            <path d="m2016.26 371.41-10.4-2.02 9.38-4.91z"/>
        </g>
        <g stroke="#000" class="edge">
            <path fill="none" d="M4149.11 317.33c97.32 8.41 269.25 24.79 415.47 46.67 83.81 12.54 685.16 88.26 749 144 17.37 15.17 24.71 40.75 27.79 60.6"/>
            <path d="m5344.81 567.93-2.23 10.36-4.71-9.49z"/>
        </g>
        <g stroke="#000" class="edge">
            <path fill="none" d="M4015.36 323.78c-41.87 9.9-100.29 24.55-150.78 40.22-222.91 69.18-482.47 171.14-587.86 213.47"/>
            <path d="m3278.11 580.69-10.59.48 7.97-6.98z"/>
        </g>
        <g stroke="#000" class="edge">
            <path fill="none" d="M4147.41 318.14c178.35 18.59 615.45 75.2 696.17 189.86 9.21 13.08 9.2 22.91 0 36-16.17 23.02-43.37 36.09-70 43.49"/>
            <path d="m4774.65 590.83-10.55-.96 8.85-5.83z"/>
        </g>
        <g stroke="red" stroke-width="2" class="edge">
            <path fill="none" d="M4051.49 327.95c-10.38 8.74-23.21 19.56-34.57 29.15"/>
            <path fill="red" d="m4020.41 358.73-9.9 3.77 5.39-9.12z"/>
        </g>
        <g stroke="#000" class="edge">
            <path fill="none" d="M4074.48 328.16c2.35 18.5 3.86 48.44-5.9 71.84-8.47 20.31-25.87 15.55-34 36-5.91 14.87-1.49 20.07 0 36 .76 8.14 2.17 16.9 3.69 24.9"/>
            <path d="m4041.65 495.95-1.43 10.5-5.43-9.1z"/>
        </g>
        <g stroke="#000" class="edge">
            <path fill="none" d="M4082.49 328.21c6.13 10.16 13.63 23.41 19.09 35.79 8.67 19.67 16.12 42.77 21.3 60.51"/>
            <path d="m4126.24 423.53-.64 10.57-6.1-8.66z"/>
        </g>
        <g stroke="#000" class="edge">
            <path fill="none" d="M4000.25 319.84c-64.85 8.76-162.92 23.8-246.67 44.16-258.53 62.84-558.59 171.34-674.17 214.51"/>
            <path d="m3080.81 581.72-10.59.22 8.14-6.78z"/>
        </g>
        <g stroke="#000" class="edge">
            <path fill="none" d="M4006.06 321.7c-31.85 7.7-69.25 20.68-97.48 42.3-66.32 50.77-108.08 116.35-54 180 28.85 33.95 143.26 46.2 228 50.59"/>
            <path d="m4082.73 591.1 9.82 3.98-10.16 3.01z"/>
        </g>
        <g stroke="#000" class="edge">
            <path fill="none" d="M4056.69 387.8c134.06 9.66 427.86 31.92 527.89 48.2 68.1 11.08 83.07 23.96 151 36 135.27 23.97 172.42 8.42 307 36 90.52 18.55 193.19 51.57 252.19 71.76"/>
            <path d="m5295.88 576.44 8.31 6.56-10.59.06z"/>
        </g>
        <g stroke="#000" class="edge">
            <path fill="none" d="M3939.78 395.48c-78.94 20.64-239.13 64.42-371.2 112.52-37.78 13.76-44.66 23.88-83 36-59.69 18.88-129.35 32.76-181.08 41.57"/>
            <path d="m3305.35 588.98-10.44-1.8 9.28-5.11z"/>
        </g>
        <g stroke="#000" class="edge">
            <path fill="none" d="M3975.3 400.04c-23.56 32.38-66.73 103.17-28.72 143.96 22.46 24.1 475.89 43.15 666.61 50.13"/>
            <path d="m4613.17 590.62 9.86 3.86-10.12 3.14z"/>
        </g>
        <g stroke="#000" class="edge">
            <path fill="none" d="M3988.43 400.47c.45 18.51 2.93 48.22 13.15 71.53 4.29 9.78 10.88 19.24 17.63 27.39"/>
            <path d="m4021.8 497.03 3.98 9.82-9.23-5.19z"/>
        </g>
        <g stroke="red" stroke-width="2" class="edge">
            <path fill="none" d="M4020.09 398.54c19.95 9.83 45.98 22.66 67.77 33.4"/>
            <path fill="red" d="m4088.03 428.12 7.42 7.56-10.51-1.28z"/>
        </g>
        <g stroke="#000" class="edge">
            <path fill="none" d="M3928.97 392.2c-62.55 9.88-163.64 26.52-250.39 43.8-141.27 28.15-176.19 37.35-316 72-96.78 23.99-208.65 54.58-274.69 72.93"/>
            <path d="m3088.93 584.27-10.57-.69 8.69-6.05z"/>
        </g>
        <g stroke="#000" class="edge">
            <path fill="none" d="M3943.6 396.31c-20.18 8.24-42.44 20.92-56.02 39.69-28.31 39.13-43.07 71.02-12 108 26.28 31.27 129.35 44.1 208.05 49.35"/>
            <path d="m4083.78 589.85 9.76 4.13-10.2 2.86z"/>
        </g>
        <g stroke="#000" class="edge">
            <path fill="none" d="M4129.31 531.57c239.61 12.91 919.16 49.53 1142.3 61.55"/>
            <path d="m5271.52 589.61 9.8 4.03-10.17 2.96z"/>
        </g>
        <g stroke="#000" class="edge">
            <path fill="none" d="M3964.11 533.9c-155.01 13.3-493.57 42.34-651.4 55.88"/>
            <path d="m3313.43 593.23-10.26-2.63 9.66-4.34z"/>
        </g>
        <g stroke="#000" class="edge">
            <path fill="none" d="M4121.61 535.27c125.48 13.47 372.57 40 498.01 53.47"/>
            <path d="m4619.93 585.25 9.57 4.55-10.32 2.41z"/>
        </g>
        <g stroke="red" stroke-width="2" class="edge">
            <path fill="none" d="M3958.72 530.99c-193.92 9.19-661.12 32.31-818.14 49.01-13.36 1.42-27.58 3.32-41.2 5.34"/>
            <path fill="red" d="m3101.51 588.56-10.41-1.96 9.36-4.96z"/>
        </g>
        <g stroke="#000" class="edge">
            <path fill="none" d="M4075.66 543.24c18.43 9.63 42.02 21.95 61.96 32.36"/>
            <path d="m4139.08 572.42 7.25 7.73-10.49-1.53z"/>
        </g>
        <g stroke="#000" class="edge">
            <path fill="none" d="M4673.66 319.73c69.57 8.35 171.64 22.87 258.92 44.27 96.85 23.75 366.89 62.96 425 144 12.72 17.75 7.41 42.6-.06 61.54"/>
            <path d="m5360.81 570.75-7.21 7.77.8-10.57z"/>
        </g>
        <g stroke="#000" class="edge">
            <path fill="none" d="M4666.26 321.78c24.97 7.56 50.25 20.41 65.32 42.22 27.28 39.5 31.7 71.96 0 108-41.44 47.1-218.25 24.93-280 36-70.04 12.55-85.52 26.2-156 36-358.97 49.93-791.61 54.52-976.3 53.89"/>
            <path d="m3319.5 601.39-9.98-3.54 10.01-3.46z"/>
        </g>
        <g stroke="#000" class="edge">
            <path fill="none" d="M4682.79 316.21c115.39 12.36 306.81 53.74 370.79 191.79 6.73 14.52 10.45 23.88 0 36-34.51 40.01-178.48 50.31-272.72 52.67"/>
            <path d="m4781.22 600.17-10.08-3.28 9.92-3.72z"/>
        </g>
        <g stroke="#000" class="edge">
            <path fill="none" d="M4519.41 322.24c-12.61 1.94-25.6 3.92-37.83 5.76-109.71 16.47-145.99-9.87-247 36-2.27 1.03-46.07 38.8-76.1 64.8"/>
            <path d="m4161.04 431.21-9.85 3.91 5.26-9.2z"/>
        </g>
        <g stroke="#000" class="edge">
            <path fill="none" d="m4536.94 325.17-153.81 39.87"/>
            <path d="m4384.06 368.42-10.56-.88 8.8-5.9z"/>
        </g>
        <g stroke="#000" class="edge">
            <path fill="none" d="M4580.6 328.13c-15.64 24.41-44.5 69.44-62.95 98.23"/>
            <path d="m4520.75 428.01-8.34 6.53 2.45-10.31z"/>
        </g>
        <g stroke="#000" class="edge">
            <path fill="none" d="M4597.17 328.25c9.43 32.72 24.06 104.09-12.59 143.75-44.52 48.18-229.34 20.15-293 36-43.41 10.81-50.15 27.12-94 36-230.35 46.67-823.01 14.01-1057 36-13.45 1.26-27.76 3.11-41.46 5.12"/>
            <path d="m3099.7 588.57-10.41-1.96 9.36-4.96z"/>
        </g>
        <g stroke="#000" class="edge">
            <path fill="none" d="M4657.28 323.54c90.17 20.49 236.01 67.19 188.3 148.46-56.92 96.96-399.73 118.82-570.49 123.67"/>
            <path d="m4275.2 599.17-10.09-3.23 9.9-3.77z"/>
        </g>
        <g stroke="#000" class="edge">
            <path fill="none" d="M4697.75 534.56c142.11 13.74 440.64 42.6 576.2 55.71"/>
            <path d="m5274.26 586.78 9.62 4.45-10.29 2.52z"/>
        </g>
        <g stroke="#000" class="edge">
            <path fill="none" d="M4556.08 538.83c-12.71 2.02-26 3.88-38.5 5.17-448.18 46.38-987.97 52.6-1198.63 53.13"/>
            <path d="m3319.18 600.63-10-3.48 9.99-3.52z"/>
        </g>
        <g stroke="#000" class="edge">
            <path fill="none" d="M4638.22 543.95c9.46 8.59 21.12 19.19 31.52 28.65"/>
            <path d="m4671.95 569.88 5.04 9.31-9.75-4.13z"/>
        </g>
        <g stroke="#000" class="edge">
            <path fill="none" d="M4535.19 531.23c-74.58 3.66-186.31 8.95-283.61 12.77-493.66 19.4-619.09-9.81-1111 36-13.53 1.26-27.92 3.11-41.69 5.13"/>
            <path d="m3099.42 588.59-10.41-1.96 9.36-4.96z"/>
        </g>
        <g stroke="#000" class="edge">
            <path fill="none" d="M4553.21 538.16c-11.86 1.97-24.11 3.98-35.63 5.84-89.13 14.39-191.55 30.32-260.28 40.92"/>
            <path d="m4258.06 588.35-10.42-1.94 9.35-4.98z"/>
        </g>
        <g stroke="#000" class="edge">
            <path fill="none" d="M4212.89 459.96c116.47 7.54 335.92 23.62 521.69 48.04 91.72 12.05 113.56 21.98 205 36 118.04 18.1 256.07 35.37 336.41 45.04"/>
            <path d="m5275.92 585.51 9.51 4.66-10.35 2.29z"/>
        </g>
        <g stroke="#000" class="edge">
            <path fill="none" d="M4063.15 465.62c-164.9 25.96-587.63 92.5-759.86 119.62"/>
            <path d="m3303.99 588.67-10.43-1.9 9.34-5.01z"/>
        </g>
        <g stroke="#000" class="edge">
            <path fill="none" d="M4211.28 460.89c158.7 11.78 496.87 37.88 505.3 47.11 15.3 16.75 7.22 42.62-2.88 62.16"/>
            <path d="m4716.88 571.66-7.95 7.02 1.84-10.44z"/>
        </g>
        <g stroke="red" stroke-width="2" class="edge">
            <path fill="none" d="M4109.76 471.95c-10.77 8.77-24.11 19.62-35.9 29.22"/>
            <path fill="red" d="m4077.52 502.7-9.97 3.6 5.55-9.03z"/>
        </g>
        <g stroke="#000" class="edge">
            <path fill="none" d="M4051.88 461.75c-102.14 9.04-285.82 26.29-442.3 46.25-209.19 26.68-260.57 39.9-469 72-12.63 1.95-26.08 4.02-39.07 6.03"/>
            <path d="m3102.15 589.47-10.42-1.93 9.35-4.99z"/>
        </g>
        <g stroke="#000" class="edge">
            <path fill="none" d="M4136.47 472.41c8.17 24.19 23.06 68.23 32.76 96.94"/>
            <path d="m4172.42 567.86-.11 10.6-6.52-8.36z"/>
        </g>
        <g stroke="#000" class="edge">
            <path fill="none" d="M4388.61 391.68c217.82 28.22 891.77 115.59 892.97 116.32 23.46 14.25 40.31 41.14 50.47 61.65"/>
            <path d="m5335.17 568.06 1.06 10.54-7.4-7.58z"/>
        </g>
        <g stroke="#000" class="edge">
            <path fill="none" d="M4319.58 400.44c-3.08 19.58-10.69 51.28-29 71.56-25.31 28.04-43.04 19.46-77 36-31.81 15.49-36.84 26.78-71 36-153.36 41.39-624.39 50.46-823.57 52.44"/>
            <path d="m3319.27 599.94-10.03-3.4 9.96-3.6z"/>
        </g>
        <g stroke="#000" class="edge">
            <path fill="none" d="M4334.15 400.19c16.39 20.94 47.14 55.51 82.43 71.81 64.56 29.83 270.62-17.04 318 36 16.23 18.17 1.88 44.32-13.62 63.57"/>
            <path d="m4723.77 573.67-9.16 5.32 3.84-9.87z"/>
        </g>
        <g stroke="#000" class="edge">
            <path fill="none" d="M4314.22 400.25c-9.57 20.32-28.26 53.62-54.64 71.75-22.25 15.29-84.8 29.75-136.73 39.7"/>
            <path d="m4123.57 515.12-10.47-1.59 9.18-5.29z"/>
        </g>
        <g stroke="#000" class="edge">
            <path fill="none" d="M4281.07 397.85c-28.7 10.51-67.45 24.72-98.44 36.08"/>
            <path d="m4184.03 437.14-10.59.15 8.18-6.72z"/>
        </g>
        <g stroke="#000" class="edge">
            <path fill="none" d="M4300.64 399.82c-12.28 10.13-27.92 23.49-41.06 36.18-15.61 15.08-13.59 26.29-33 36-27.11 13.57-1055.93 104.18-1086 108-13.11 1.66-27.05 3.65-40.46 5.67"/>
            <path d="m3100.92 589.09-10.41-1.95 9.35-4.97z"/>
        </g>
        <g stroke="#000" class="edge">
            <path fill="none" d="M4330.02 400.27c7.82 18.6 16.7 48.62 5.56 71.73-23.19 48.11-74.91 83.43-112.67 104.02"/>
            <path d="m4224.96 578.89-10.47 1.59 7.2-7.78z"/>
        </g>
        <g stroke="#000" class="edge">
            <path fill="none" d="M4564.51 463.79c20.17 2.71 42.54 5.65 63.07 8.21 138.51 17.26 174.33 12.95 312 36 125.07 20.94 269.8 55.33 347.57 74.66"/>
            <path d="m5287.81 579.21 8.85 5.82-10.55.98z"/>
        </g>
        <g stroke="#000" class="edge">
            <path fill="none" d="M4463.25 469.84c-54.06 20.74-157.75 57.7-249.67 74.16-170.39 30.52-685.9 45.89-895.22 51"/>
            <path d="m3318.72 598.49-10.08-3.25 9.91-3.74z"/>
        </g>
        <g stroke="#000" class="edge">
            <path fill="none" d="M4563.37 464.2c93.27 13.81 257.97 38.81 262.21 43.8 10.36 12.19 8.91 22.71 0 36-13.32 19.88-35.58 32.31-57.9 40.07"/>
            <path d="m4768.8 587.39-10.59-.32 8.48-6.35z"/>
        </g>
        <g stroke="#000" class="edge">
            <path fill="none" d="M4437.73 464.15c-70.63 10.36-188.68 27.86-290.15 43.85-8 1.26-16.35 2.6-24.67 3.95"/>
            <path d="m4123.52 515.4-10.43-1.85 9.31-5.06z"/>
        </g>
        <g stroke="#000" class="edge">
            <path fill="none" d="M4435.18 463.2c-56.8 8.13-140.82 22.62-211.6 44.8-37.59 11.78-42.62 27.13-81 36-217.09 50.16-780.19 14.95-1002 36-13.45 1.28-27.76 3.12-41.46 5.14"/>
            <path d="m3099.7 588.59-10.41-1.96 9.36-4.96z"/>
        </g>
        <g stroke="#000" class="edge">
            <path fill="none" d="M4479.8 471.66c-25.54 19.74-70.83 52.47-114.22 72.34-36.84 16.87-80.26 29.58-115.99 38.31"/>
            <path d="m4250.78 585.63-10.54-1.08 8.92-5.73z"/>
        </g>
        <g stroke="#000" class="edge">
            <path fill="none" d="M3823.43 256.48c3.67 54.02 22.97 218.83 123.15 287.52 13.78 9.45 1038.57 41.89 1323.96 50.75"/>
            <path d="m5270.58 591.25 9.88 3.81-10.1 3.19z"/>
        </g>
        <g stroke="#000" class="edge">
            <path fill="none" d="M3778.49 254.16c-26.14 9.61-59.58 23-87.91 37.84-22.58 11.83-325.04 213.53-427.98 282.27"/>
            <path d="m3264.8 577.01-10.26 2.64 6.37-8.46z"/>
        </g>
        <g stroke="#000" class="edge">
            <path fill="none" d="M3816.01 256.19c-14.36 40.58-44.2 144.32-4.43 215.81 29.5 53.03 58.25 53.36 116 72 63.93 20.63 500.68 41.5 686.06 49.55"/>
            <path d="m4613.6 590.04 9.84 3.93-10.14 3.07z"/>
        </g>
        <g stroke="red" stroke-width="2" class="edge">
            <path fill="none" d="M3873.57 253.33c39.84 11.2 95.31 26.8 137.42 38.64"/>
            <path fill="red" d="m4010.34 288.15 8.68 6.07-10.58.67z"/>
        </g>
        <g stroke="#000" class="edge">
            <path fill="none" d="M3848.32 255.7c14.83 9.99 33.58 23.24 49.26 36.3 24.18 20.15 49.63 45.43 67.44 63.89"/>
            <path d="m3967.45 353.37 4.38 9.64-9.44-4.8z"/>
        </g>
        <g stroke="#000" class="edge">
            <path fill="none" d="M3835.75 256.14c7.47 10.13 16.72 23.38 23.83 35.86 26.08 45.8 18.09 65.31 49 108 29.49 40.72 73.87 78.45 103.84 101.58"/>
            <path d="m4014.18 498.52 5.84 8.84-10.08-3.27z"/>
        </g>
        <g stroke="#000" class="edge">
            <path fill="none" d="M3764.25 252.11c-38.1 9.33-88.58 23.15-131.67 39.89-222.9 86.58-473.03 228.97-565.29 283.15"/>
            <path d="m3069.29 578.04-10.39 2.06 6.84-8.1z"/>
        </g>
        <g stroke="#000" class="edge">
            <path fill="none" d="M3777.63 254.11c-20.1 8.56-42.85 21-59.05 37.89-24.37 25.4-25.49 37.61-33 72-18.52 84.84 4.61 130.55 76 180 50.43 34.93 214.47 46.84 321.15 50.9"/>
            <path d="m4082.78 591.4 9.86 3.86-10.12 3.14z"/>
        </g>
        <g stroke="#000" class="edge">
            <path fill="none" d="M1758.07 320.4c-33.88 2.82-71.78 5.67-106.49 7.6-538.52 29.87-676.86-22.78-1213 36-6.98.77-14.23 1.78-21.44 2.93"/>
            <path d="m417.81 370.37-10.44-1.78 9.27-5.12z"/>
        </g>
        <g stroke="#000" class="edge">
            <path fill="none" d="M1842.99 328.16c-16.77 18.5-37.4 48.45-22.41 71.84 82.61 128.93 164.05 108.49 313 144 211.34 50.38 760.62 16.48 977 36 14.37 1.3 29.67 3.15 44.32 5.16"/>
            <path d="m3155.04 581.64 9.42 4.86-10.39 2.07z"/>
        </g>
        <g stroke="#000" class="edge">
            <path fill="none" d="M1877.64 328.3c8.18 8.31 18.15 18.42 27.16 27.56"/>
            <path d="m1907.13 353.24 4.53 9.58-9.52-4.67z"/>
        </g>
        <g class="node" transform="translate(4 616)">
            <ellipse cx="780.58" cy="-234" fill="none" stroke="#000" rx="60.56" ry="18"/>
            <text x="780.58" y="-228.95" font-family="Times,serif" font-size="14" text-anchor="middle">:library:room</text>
        </g>
        <g stroke="#000" class="edge">
            <path fill="none" d="M1756.98 320.12c-33.6 2.78-71.07 5.67-105.4 7.88-337.02 21.69-423.04 1.69-759 36-14.9 1.52-30.87 3.72-45.84 6.03"/>
            <path d="m847.44 373.46-10.42-1.88 9.33-5.03z"/>
        </g>
        <g stroke="#000" class="edge">
            <path fill="none" d="M915.83 322.91c-15.45 1.8-31.29 3.56-46.25 5.09-191.23 19.51-240.55 9.93-431 36-6.75.92-13.76 2.02-20.76 3.21"/>
            <path d="m418.83 370.58-10.45-1.71 9.24-5.18z"/>
        </g>
        <g stroke="#000" class="edge">
            <path fill="none" d="M943.95 325.9c-19.93 7.9-39.6 19.91-51.37 38.1-8.69 13.43-9.23 22.93 0 36 110.16 156.08 217.07 109.66 405 144 396.4 72.43 1411.37 3.21 1813 36 14.47 1.18 29.86 2.99 44.59 5"/>
            <path d="m3155.36 581.49 9.42 4.86-10.39 2.07z"/>
        </g>
        <g stroke="#000" class="edge">
            <path fill="none" d="M1010.58 328.3v24.16"/>
            <path d="m1014.08 352.38-3.5 10-3.5-10z"/>
        </g>
        <g stroke="#000" class="edge">
            <path fill="none" d="M959.01 326.97c-36.71 11.37-85.86 26.6-122.63 37.99"/>
            <path d="m837.42 368.3-10.58-.39 8.51-6.3z"/>
        </g>
        <g stroke="#000" class="edge">
            <path fill="none" d="M2061.32 324.41c-96.45 13.04-241.38 32.62-332.96 45"/>
            <path d="m1729.06 372.84-10.37-2.12 9.44-4.81z"/>
        </g>
        <g stroke="#000" class="edge">
            <path fill="none" d="M2285.86 321.32c132.35 11.53 323.59 30.19 334.72 42.68 10.65 11.94 9.04 22.8 0 36-11.38 16.61-28.77 28.01-47.38 35.84"/>
            <path d="m2574.45 439.11-10.59.3 8.1-6.84z"/>
        </g>
        <g stroke="#000" class="edge">
            <path fill="none" d="M658.3 324.53c-59.97 10.56-145.17 25.7-219.72 39.47-5.99 1.11-12.21 2.27-18.45 3.44"/>
            <path d="m420.89 370.86-10.48-1.58 9.18-5.3z"/>
        </g>
        <g stroke="#000" class="edge">
            <path fill="none" d="M724.16 328.37c-10.87 18.96-23.67 49.55-9.58 71.63 81.72 128.07 161.95 109.95 310 144 225.91 51.96 1854.93 17.44 2086 36 14.47 1.16 29.86 2.96 44.59 4.97"/>
            <path d="m3155.37 581.46 9.41 4.86-10.39 2.07z"/>
        </g>
        <g stroke="#000" class="edge">
            <path fill="none" d="M822.67 323.27c15.6 1.85 31.71 3.53 46.91 4.73 518.2 40.76 650.16 4.46 1169 36 29.16 1.77 60.81 4.39 89.65 7.04"/>
            <path d="m2128.41 367.54 9.63 4.41-10.28 2.56z"/>
        </g>
        <g stroke="#000" class="edge">
            <path fill="none" d="M747.69 328.3c5.58 7.97 12.32 17.6 18.5 26.44"/>
            <path d="m768.87 352.46 2.87 10.2-8.6-6.19z"/>
        </g>
        <g stroke="#000" class="edge">
            <path fill="none" d="M1523.58 327.95c21.88 9.75 49.54 22.08 72.68 32.4"/>
            <path d="m1597.45 357.05 7.71 7.27-10.56-.88z"/>
        </g>
        <g stroke="#000" class="edge">
            <path fill="none" d="M1491.08 328.4c7.57 20.8 23.31 54.9 49.5 71.6 14.32 9.13 590.11 70.24 607 72 357.72 37.19 446.96 51.08 806 72 585.45 34.11 732.89 16.25 1319 36 118.61 4 255.84 9.69 341.29 13.37"/>
            <path d="m4613.97 589.87 9.84 3.93-10.14 3.07z"/>
        </g>
        <g stroke="#000" class="edge">
            <path fill="none" d="m1457.94 328.12-48.53 30.06"/>
            <path d="m1411.57 360.96-10.35 2.3 6.66-8.25z"/>
        </g>
        <g stroke="#000" class="edge">
            <path fill="none" d="M432.95 327.95c-14.53 9.24-32.7 20.81-48.37 30.78"/>
            <path d="m386.8 361.46-10.32 2.42 6.56-8.32z"/>
        </g>
        <g stroke="#000" class="edge">
            <path fill="none" d="M360.36 322.38c-65.51 11.68-133.56 34.49-99.78 77.62 164.55 210.14 318.32 109.66 583 144 499.65 64.82 1764.75-4 2267 36 14.47 1.15 29.86 2.95 44.59 4.95"/>
            <path d="m3155.37 581.44 9.41 4.86-10.39 2.07z"/>
        </g>
        <g stroke="#000" class="edge">
            <path fill="none" d="m483.55 328.12 41.31 29.51"/>
            <path d="m526.52 354.51 6.1 8.66-10.17-2.96z"/>
        </g>
        <g stroke="#000" class="edge">
            <path fill="none" d="M528.5 325.85c58.58 12.61 141.75 30.53 197.24 42.48"/>
            <path d="m726.28 364.86 9.04 5.53-10.51 1.32z"/>
        </g>
        <g stroke="#000" class="edge">
            <path fill="none" d="M4933.03 250.47c13.31 2.17 27.37 4.17 40.55 5.53 413.68 42.6 519.75 13.43 935 36 51.47 2.8 109.03 6.81 155.1 10.23"/>
            <path d="m6063.91 298.73 9.71 4.24-10.23 2.75z"/>
        </g>
        <g stroke="#000" class="edge">
            <path fill="none" d="M4900.53 255.27c37.95 21.16 108.6 57.23 174.05 72.73 177.29 41.98 713.24 50.73 947.91 52.54"/>
            <path d="m6022.29 377.03 9.97 3.58-10.03 3.42z"/>
        </g>
        <g stroke="#000" class="edge">
            <path fill="none" d="M4930.68 251.03c57.84 11.98 146.7 30.39 208.74 43.23"/>
            <path d="m5140.11 290.83 9.09 5.46-10.51 1.4z"/>
        </g>
        <g stroke="#000" class="edge">
            <path fill="none" d="M4886.28 256.02c17.75 20.76 50.8 55.15 87.3 71.98 102.74 47.38 141.69 10.88 252 36 51.81 11.8 62.42 23.25 114 36 77.9 19.26 169.07 34.65 228.77 43.79"/>
            <path d="m5568.63 440.29 9.36 4.96-10.41 1.96z"/>
        </g>
        <g stroke="#000" class="edge">
            <path fill="none" d="M4876.84 256.37c5.84 20.13 18.24 52.92 40.74 71.63 65.69 54.63 293.31 68.36 369 108 45.07 23.61 67.08 26.08 89 72 9.79 20.51-.36 44.85-11.74 62.89"/>
            <path d="m5366.87 572.65-8.52 6.29 2.74-10.23z"/>
        </g>
        <g stroke="#000" class="edge">
            <path fill="none" d="M4933.3 250.43c13.24 2.15 27.2 4.16 40.28 5.57 334.89 36.02 422.52-3.7 757 36 6.97.83 14.22 1.88 21.43 3.06"/>
            <path d="m5752.52 291.6 9.26 5.14-10.45 1.76z"/>
        </g>
        <g stroke="#000" class="edge">
            <path fill="none" d="M4862.97 256.08c-5.74 10.33-13.12 23.81-19.39 35.92-40.94 79.08-15.8 127.88-88 180-96.73 69.83-150.03 8-266 36-46.73 11.28-54.81 26.8-102 36-204.12 39.79-833.03 49.87-1068.63 52.28"/>
            <path d="m3319.24 599.78-10.04-3.4 9.97-3.6z"/>
        </g>
        <g stroke="#000" class="edge">
            <path fill="none" d="M4861.92 256.09c-10.33 18.98-22.53 49.85-8.34 71.91 20.87 32.45 45.67 16.55 79 36 46.99 27.42 63.16 31.07 99 72 33.62 38.39 72.46 69.47 39 108-36.71 42.27-190.81 51.73-289.39 53.35"/>
            <path d="m4781.31 600.85-10.05-3.37 9.95-3.63z"/>
        </g>
        <g stroke="#000" class="edge">
            <path fill="none" d="M4933.88 250.19c13.07 2.14 26.82 4.21 39.7 5.81 199.02 24.71 433.36 40.38 562.09 47.84"/>
            <path d="m5535.74 300.33 9.78 4.07-10.18 2.92z"/>
        </g>
        <g stroke="#000" class="edge">
            <path fill="none" d="M4797.94 245.52c-148.39 12.97-479.81 41.93-638.45 55.8"/>
            <path d="m4160.14 304.77-10.26-2.61 9.66-4.36z"/>
        </g>
        <g stroke="#000" class="edge">
            <path fill="none" d="M4800.47 246.72c-83.65 9.27-225.59 26.02-346.89 45.28-143.82 22.84-311.3 56.69-400.8 75.38"/>
            <path d="m4053.72 370.76-10.5-1.38 9.07-5.48z"/>
        </g>
        <g stroke="#000" class="edge">
            <path fill="none" d="M5118.26 242.93c144.21 8.55 495.8 29.62 790.32 49.07 51.14 3.38 108.34 7.39 154.29 10.66"/>
            <path d="m6063.06 299.17 9.73 4.2-10.23 2.78z"/>
        </g>
        <g stroke="#000" class="edge">
            <path fill="none" d="M5058.26 256.39c9.16 21.13 27.8 55.9 56.32 71.61 77.83 42.86 658.97 51.09 907.64 52.65"/>
            <path d="m6021.96 377.15 9.98 3.56-10.02 3.44z"/>
        </g>
        <g stroke="#000" class="edge">
            <path fill="none" d="M5085.69 254.02c22.91 10.09 53.39 23.5 78.51 34.56"/>
            <path d="m5165.47 285.31 7.74 7.24-10.56-.83z"/>
        </g>
        <g stroke="#000" class="edge">
            <path fill="none" d="M5050.76 256.28c.05 20.37 3.54 53.7 23.82 71.72 44.42 39.48 207.66 20.39 265 36 39.98 10.88 46.71 22.83 86 36 49.13 16.48 106.28 30.75 148.07 40.32"/>
            <path d="m5574.28 436.88 8.98 5.62-10.53 1.2z"/>
        </g>
        <g stroke="#000" class="edge">
            <path fill="none" d="M5045.77 256.18c-5.46 19.65-10.58 51.69 5.81 71.82 49.86 61.24 99.42 10.02 174 36 59.82 20.84 216.73 87.82 246 144 7.39 14.19 8.89 22.7 0 36-14.31 21.42-39.05 34.19-62.99 41.8"/>
            <path d="m5409.72 589.12-10.58-.59 8.64-6.14z"/>
        </g>
        <g stroke="#000" class="edge">
            <path fill="none" d="M5119.3 241.8c122.45 5.61 388.62 20.34 611.28 50.2 6.85.92 13.98 2.02 21.08 3.22"/>
            <path d="m5752.02 291.73 9.25 5.18-10.46 1.72z"/>
        </g>
        <g stroke="#000" class="edge">
            <path fill="none" d="M5038.66 255.87c-34.91 44.21-136.29 163.61-251.08 216.13-108.09 49.45-151.63.31-265 36-33.37 10.51-36.18 27.04-70 36-108.45 28.75-869.55 46.11-1133.85 51.33"/>
            <path d="m3318.86 598.83-10.07-3.31 9.93-3.69z"/>
        </g>
        <g stroke="#000" class="edge">
            <path fill="none" d="M5042.18 256.1c-9.03 19-19.45 49.88-5.6 71.9 19.69 31.29 55.31 4.71 75 36 26.64 42.33 56.37 103.48-21 180-42.39 41.93-207.03 51.4-309.59 53.13"/>
            <path d="m4781.29 600.63-10.05-3.36 9.95-3.64z"/>
        </g>
        <g stroke="#000" class="edge">
            <path fill="none" d="M5113.21 246.42c103.97 12.53 314.47 37.89 433.07 52.18"/>
            <path d="m5546.46 295.1 9.51 4.67-10.35 2.28z"/>
        </g>
        <g stroke="#000" class="edge">
            <path fill="none" d="M4999.64 250.21c-11.8 2.22-24.33 4.31-36.06 5.79-152.33 19.15-602.34 40.37-798.65 49.01"/>
            <path d="m4165.16 308.51-10.14-3.06 9.83-3.94z"/>
        </g>
        <g stroke="#000" class="edge">
            <path fill="none" d="M4999.63 250.07c-11.81 2.23-24.33 4.36-36.05 5.93-210.72 28.21-268.2-4.02-477 36-52.6 10.08-62.74 24.29-115 36-104.42 23.4-227.3 38.21-305.17 46.05"/>
            <path d="m4067.06 377.5-10.3-2.49 9.61-4.47z"/>
        </g>
        <g stroke="#000" class="edge">
            <path fill="none" d="M6021.31 184.13c25.86 24.97 74.04 71.52 103.72 100.19"/>
            <path d="m6127.39 281.74 4.76 9.46-9.62-4.43z"/>
        </g>
        <g stroke="#000" class="edge">
            <path fill="none" d="M6044.03 182.4c61.68 24.41 174.45 72.95 196.55 109.6 8.26 13.7 8.41 22.39 0 36-9.41 15.22-24.65 26.21-40.68 34.1"/>
            <path d="m6201.79 365.08-10.55.91 7.68-7.29z"/>
        </g>
        <g stroke="#000" class="edge">
            <path fill="none" d="M5914.74 167.17c-113.95 2.04-316.95 11.84-485.16 52.83-64.28 15.66-134.45 46.89-177.6 67.87"/>
            <path d="m5253.76 290.9-10.52 1.27 7.43-7.55z"/>
        </g>
        <g stroke="#000" class="edge">
            <path fill="none" d="M6085.81 173.11c187.11 15.6 623.38 62.34 554.77 154.89-65.56 88.44-128.73 52.1-237 72-254.52 46.78-563.18 53.16-699.92 53.46"/>
            <path d="m5703.67 456.96-10-3.49 9.99-3.51z"/>
        </g>
        <g stroke="#000" class="edge">
            <path fill="none" d="M6087.4 172.33c213.71 14.71 762.18 59.92 762.18 136.67v146c0 42.67-1.06 64.51-36 89-57.66 40.4-1107.07 50.53-1396.57 52.56"/>
            <path d="m5417.35 600.05-10.02-3.43 9.97-3.57z"/>
        </g>
        <g stroke="#000" class="edge">
            <path fill="none" d="M5981.75 183.85c-32.73 25.26-94.65 73.04-131.78 101.7"/>
            <path d="m5852.35 288.13-10.06 3.34 5.78-8.88z"/>
        </g>
        <g stroke="#000" class="edge">
            <path fill="none" d="M6001.56 184.29c-2.57 18.35-7.94 47.93-17.98 71.71-14.87 35.2-20.74 44.24-47 72-18.57 19.63-28.04 18.94-49 36-18.55 15.1-20.62 21.99-40 36-26.13 18.89-36.53 17.58-63 36-20.46 14.24-19.78 26.94-43 36-158.34 61.79-595.48 13.91-764 36-74.85 9.81-91.08 26.7-166 36-147.88 18.36-1180.23 43.63-1493.24 50.94"/>
            <path d="m3318.66 598.43-10.08-3.26 9.91-3.73z"/>
        </g>
        <g stroke="#000" class="edge">
            <path fill="none" d="M6011.29 184.43c12.53 31.2 33.35 97.64 6.29 143.57-33.53 56.9-71.24 41.85-130 72-66.51 34.13-81.5 47.14-152 72-64.66 22.8-89.73 3.31-150 36-20.45 11.09-16.67 26.72-38 36-69.08 30.05-566.31 45.82-767.17 51.02"/>
            <path d="m4780.66 598.52-10.09-3.25 9.91-3.75z"/>
        </g>
        <g stroke="#000" class="edge">
            <path fill="none" d="M5963.17 182.47c-68.02 26.03-205.24 78.55-279.71 107.06"/>
            <path d="m5684.94 292.71-10.59.3 8.09-6.84z"/>
        </g>
        <g stroke="#000" class="edge">
            <path fill="none" d="M5996.47 184.08c-13.6 31.22-45.73 98.48-87.89 143.92-4.76 5.13-200.37 141.74-207 144-158.39 53.87-584.9 27.7-752 36-79.08 3.93-168.81 8.56-234.72 12"/>
            <path d="m4715.35 523.48-10.17-2.98 9.8-4.01z"/>
        </g>
        <g stroke="#000" class="edge">
            <path fill="none" d="M5916.4 169.8c-346.23 11.11-1623.22 52.1-1992.92 63.96"/>
            <path d="m3923.64 237.26-10.11-3.18 9.88-3.82z"/>
        </g>
        <g class="node" transform="translate(4 616)">
            <ellipse cx="6512.58" cy="-306" fill="none" stroke="#000" rx="115.33" ry="18"/>
            <text x="6512.58" y="-300.95" font-family="Times,serif" font-size="14" text-anchor="middle">:app:core:calendar-compose</text>
        </g>
        <g stroke="#000" class="edge">
            <path fill="none" d="M6086.13 172.86c97.49 7.85 253.15 23.58 306.45 47.14 22.8 10.08 22.98 21.15 43 36 14.04 10.41 30.04 21.11 44.09 30.15"/>
            <path d="m6481.2 282.98 6.56 8.32-10.31-2.42z"/>
        </g>
        <g stroke="#000" class="edge">
            <path fill="none" d="M5584.14 246.56c117.67 12.97 357.6 39.42 484.12 53.37"/>
            <path d="m6068.34 296.41 9.56 4.58-10.33 2.38z"/>
        </g>
        <g stroke="#000" class="edge">
            <path fill="none" d="M5589.03 243.6c79.73 6.21 210.28 19.96 319.55 48.4 65.17 16.96 136.98 47.4 181.78 67.89"/>
            <path d="m6091.61 356.61 7.62 7.37-10.55-1.01z"/>
        </g>
        <g stroke="#000" class="edge">
            <path fill="none" d="M5462.1 251.27c-51.06 11.72-128.23 29.43-183.62 42.15"/>
            <path d="m5279.37 296.8-10.53-1.17 8.96-5.65z"/>
        </g>
        <g stroke="#000" class="edge">
            <path fill="none" d="M5516.96 256.47c1.99 18.5 6.71 48.2 17.62 71.53 18.21 38.93 50.57 76.79 73.11 100.45"/>
            <path d="m5609.99 425.8 4.45 9.62-9.47-4.74z"/>
        </g>
        <g stroke="#000" class="edge">
            <path fill="none" d="M5514.23 256.35c-2.3 41.86-2.49 149.76 49.35 215.65 19.23 24.44 44.68 8.94 60 36 7.88 13.92 10.21 23.68 0 36-25.89 31.26-133.62 44.22-207.64 49.5"/>
            <path d="m5416.55 596.96-10.22-2.81 9.74-4.17z"/>
        </g>
        <g stroke="#000" class="edge">
            <path fill="none" d="M5568.88 251.27c51.62 11.89 129.99 29.93 185.34 42.68"/>
            <path d="m5754.88 290.51 8.96 5.66-10.53 1.16z"/>
        </g>
        <g stroke="#000" class="edge">
            <path fill="none" d="M5487.41 255.08c-33.76 18.89-92.34 50.5-144.83 72.92-270.66 115.62-336.65 162.17-626 216-136.9 25.47-1097.57 45.61-1398.25 51.35"/>
            <path d="m3318.64 598.85-10.07-3.31 9.93-3.69z"/>
        </g>
        <g stroke="#000" class="edge">
            <path fill="none" d="M5507.79 256.13c-25.45 53.73-111.97 219.41-240.21 287.87-82.06 43.81-348.58 51.9-486.53 53.08"/>
            <path d="m4781.27 600.57-10.03-3.42 9.97-3.58z"/>
        </g>
        <g stroke="#000" class="edge">
            <path fill="none" d="M5542.72 255.24c15.68 9.38 35.64 21.32 52.77 31.57"/>
            <path d="m5597.1 283.7 6.79 8.13-10.38-2.13z"/>
        </g>
        <g stroke="#000" class="edge">
            <path fill="none" d="M5460.33 250.9c-33.37 8.56-76.03 21.99-110.75 41.1-21.84 12.02-20.52 25.23-43 36-295.07 141.42-398.34 95.96-722 144-155.47 23.07-337.66 38.58-445.7 46.59"/>
            <path d="m4139.43 522.06-10.23-2.76 9.71-4.22z"/>
        </g>
        <g stroke="#000" class="edge">
            <path fill="none" d="M5443.07 244.49c-164.18 12.44-564.62 42.78-751.89 56.96"/>
            <path d="m4691.45 304.94-10.24-2.73 9.71-4.25z"/>
        </g>
        <g stroke="#000" class="edge">
            <path fill="none" d="M6264.22 254.88c-20.77 9.89-47.7 22.72-70.14 33.4"/>
            <path d="m6195.7 291.39-10.53 1.14 7.52-7.46z"/>
        </g>
        <g stroke="#000" class="edge">
            <path fill="none" d="M6297.41 256.25c-1.1 19.71-5.8 51.8-23.83 71.75-15.7 17.37-37.72 29.09-59.6 36.97"/>
            <path d="m6215.3 368.22-10.59-.16 8.38-6.48z"/>
        </g>
        <g stroke="#000" class="edge">
            <path fill="none" d="m6216.32 244.23-912.87 58.79"/>
            <path d="m5303.92 306.5-10.2-2.85 9.75-4.14z"/>
        </g>
        <g stroke="#000" class="edge">
            <path fill="none" d="M6300.4 256.23c2.31 18.31 4.06 47.85-3.82 71.77-12.36 37.49-17.66 52.53-52 72-46.2 26.2-391.01 43.71-541.78 50.2"/>
            <path d="m5703.08 453.69-10.14-3.07 9.84-3.92z"/>
        </g>
        <g stroke="#000" class="edge">
            <path fill="none" d="M6380.94 242.93c131.77 6.97 376.42 23.23 406.64 49.07 31.13 26.63 24 48.03 24 89v74c0 40.97 8.06 63.49-24 89-54.04 42.99-1083.46 51.24-1370.34 52.7"/>
            <path d="m5417.27 600.2-10.02-3.45 9.99-3.55z"/>
        </g>
        <g stroke="#000" class="edge">
            <path fill="none" d="M6228.58 249.1c-88.23 12.92-240.55 35.23-332.32 48.67"/>
            <path d="m5897 301.2-10.41-2.01 9.39-4.92z"/>
        </g>
        <g stroke="#000" class="edge">
            <path fill="none" d="M6383.89 239.21c95.3 2.28 239.9 12.52 274.69 52.79 10.46 12.11 7.61 21.93 0 36-93.15 172.3-445.95 131.43-558 144-248.51 27.87-873.21 60.21-1123 72-635.38 29.99-1401.45 46.38-1659.36 51.35"/>
            <path d="m3318.64 598.84-10.07-3.3 9.94-3.7z"/>
        </g>
        <g stroke="#000" class="edge">
            <path fill="none" d="M6379.95 243.69c122.75 7.73 342.25 24.68 369.63 48.31 31.01 26.77 24 48.03 24 89v74c0 197.66-687.86 74.72-885 89-415.53 30.11-913.86 45.62-1108.43 50.89"/>
            <path d="m4780.49 598.38-10.09-3.23 9.9-3.77z"/>
        </g>
        <g stroke="#000" class="edge">
            <path fill="none" d="M6216.6 244.56c-110.22 8.02-313.54 24.45-486.02 47.44-7.36.98-15.01 2.11-22.65 3.31"/>
            <path d="m5708.71 298.73-10.43-1.85 9.31-5.06z"/>
        </g>
        <g stroke="#000" class="edge">
            <path fill="none" d="M6370.45 247.82c98.07 12.23 261.38 33.97 270.13 44.18 10.41 12.15 9.53 23.15 0 36-140.65 189.73-1881.95 172.2-2118 180-131.52 4.35-283.39 9.83-380.01 13.37"/>
            <path d="m4143 524.86-10.13-3.13 9.87-3.87z"/>
        </g>
        <g stroke="#000" class="edge">
            <path fill="none" d="M6213.56 242.45c-283.54 11.63-1204.75 49.43-1517.21 62.25"/>
            <path d="m4696.7 308.19-10.14-3.09 9.85-3.9z"/>
        </g>
        <g class="node" transform="translate(4 616)">
            <ellipse cx="2725.58" cy="-162" fill="none" stroke="#000" rx="106.11" ry="18"/>
            <text x="2725.58" y="-156.95" font-family="Times,serif" font-size="14" text-anchor="middle">:library:firebase-common</text>
        </g>
        <g stroke="#000" class="edge">
            <path fill="none" d="M2825.4 399.77c-16.75 9.3-37.8 21-55.9 31.05"/>
            <path d="m2771.28 433.84-10.44 1.8 7.04-7.92z"/>
        </g>
        <g stroke="#000" class="edge">
            <path fill="none" d="M2144.43 393.13c-52.04 8.35-112.76 22.22-128.85 42.87-29.5 37.87-33.04 73.19 0 108 31.93 33.64 696.4 47.78 932.58 51.75"/>
            <path d="m2947.96 592.25 9.94 3.66-10.05 3.34z"/>
        </g>
        <g stroke="#000" class="edge">
            <path fill="none" d="M564.65 400.24c15.32 34.75 55.23 112.53 116.93 143.76 102.99 52.13 1860.8 53.51 2266.11 53.13"/>
            <path d="m2947.48 593.63 10 3.49-9.99 3.51z"/>
        </g>
        <g stroke="#000" class="edge">
            <path fill="none" d="M1017.57 400.21c15.14 34.69 54.64 112.37 116.01 143.79 81.71 41.83 1459.28 51 1814.15 52.67"/>
            <path d="m2947.68 593.17 9.98 3.54-10.01 3.46z"/>
        </g>
        <g stroke="#000" class="edge">
            <path fill="none" d="M836.35 391.7c172.25 28.49 742.03 119.07 1217.23 152.3 983.95 68.8 1233.04 8.24 2219 36 118.63 3.34 255.86 9.21 341.3 13.1"/>
            <path d="m4613.99 589.6 9.83 3.95-10.15 3.04z"/>
        </g>
        <g stroke="#000" class="edge">
            <path fill="none" d="M6443.83 324.33c-65.62 12.03-161.94 29.68-229.6 42.07"/>
            <path d="m6215.16 369.79-10.47-1.64 9.21-5.24z"/>
        </g>
        <g stroke="#000" class="edge">
            <path fill="none" d="M6492.52 328.02c-31.27 21.09-88.34 56.18-142.94 71.98-119.9 34.7-490.06 47.53-646.28 51.48"/>
            <path d="m5703.57 454.98-10.08-3.25 9.91-3.75z"/>
        </g>
        <g stroke="#000" class="edge">
            <path fill="none" d="M6500.29 327.98c-20.56 20.38-57.97 54.06-96.71 72.02-290.94 134.85-388.91 103.4-707 144-176.45 22.52-709.76 42.9-916.68 50.17"/>
            <path d="m4780.15 597.67-10.12-3.15 9.87-3.85z"/>
        </g>
    </g>
</svg>
