<svg xmlns="http://www.w3.org/2000/svg" width="6445pt" height="548pt" viewBox="0 0 6444.58 548">
    <g class="graph">
        <path fill="#fff" d="M0 548V0h6444.58v548z"/>
        <g class="node" transform="translate(4 544)">
            <ellipse cx="1478.58" cy="-522" fill="none" stroke="#000" rx="74.89" ry="18"/>
            <text x="1478.58" y="-516.95" font-family="Times,serif" font-size="14" text-anchor="middle">:app:platform:ios</text>
        </g>
        <g class="node" transform="translate(4 544)">
            <ellipse cx="3275.58" cy="-450" fill="none" stroke="#000" rx="97.41" ry="18"/>
            <text x="3275.58" y="-444.95" font-family="Times,serif" font-size="14" text-anchor="middle">:app:platform:common</text>
        </g>
        <g stroke="red" stroke-width="2" class="edge">
            <path fill="none" d="m1556.09 25.86 1617.32 63"/>
            <path fill="red" d="m3172 85.31 9.86 3.88-10.13 3.11z"/>
        </g>
        <g class="node" transform="translate(4 544)">
            <ellipse cx="1535.58" cy="-378" fill="none" stroke="#000" rx="86.15" ry="18"/>
            <text x="1535.58" y="-372.95" font-family="Times,serif" font-size="14" text-anchor="middle">:app:core:coroutines</text>
        </g>
        <g stroke="#000" class="edge">
            <path fill="none" d="M1489.57 40.41c9.71 24.19 27.38 68.23 38.91 96.94"/>
            <path d="m1531.67 135.9.48 10.58-6.98-7.97z"/>
        </g>
        <g class="node" transform="translate(4 544)">
            <ellipse cx="2422.58" cy="-162" fill="none" stroke="#000" rx="95.88" ry="18"/>
            <text x="2422.58" y="-156.95" font-family="Times,serif" font-size="14" text-anchor="middle">:app:core:diary-service</text>
        </g>
        <g stroke="#000" class="edge">
            <path fill="none" d="M1469.84 40.18c-22.54 32.62-63.62 103.8-25.26 143.82 65.33 68.16 764.45-6.03 849 36 58.16 28.92 100.05 96.21 119.96 134.01"/>
            <path d="m2416.44 351.98 1.44 10.5-7.67-7.31z"/>
        </g>
        <g class="node" transform="translate(4 544)">
            <ellipse cx="104.58" cy="-90" fill="none" stroke="#000" rx="104.58" ry="18"/>
            <text x="104.58" y="-84.95" font-family="Times,serif" font-size="14" text-anchor="middle">:app:core:holiday-service</text>
        </g>
        <g stroke="#000" class="edge">
            <path fill="none" d="M1407.73 22.81C1121.01 23.06 108.58 33.25 108.58 165v259.31"/>
            <path d="m112.08 424-3.5 10-3.5-10z"/>
        </g>
        <g stroke="#000" class="edge">
            <path fill="none" d="M3182.67 96.4c-304.7 4.67-1240.96 21.18-1543.09 51.6-8.69.87-17.76 2.05-26.74 3.37"/>
            <path d="m1613.46 154.82-10.42-1.93 9.35-4.99z"/>
        </g>
        <g stroke="#000" class="edge">
            <path fill="none" d="M3182.46 96.14c-164.11 2.96-488.86 13.62-595.88 51.86-90.09 32.19-128.56 53.64-160 144-6.72 19.33-6.49 42.48-4.7 60.32"/>
            <path d="m2425.35 351.86-2.23 10.35-4.72-9.49z"/>
        </g>
        <g stroke="#000" class="edge">
            <path fill="none" d="M3182.38 96.12c-338.07 4.17-1445.87 20.19-1514.8 51.88-19.72 9.07-13.36 26.77-33 36-72.59 34.12-641 30.16-721 36-333.09 24.33-484.82-133.62-748 72-10.83 8.46-35.88 89.14-48.86 132.97"/>
            <path d="m120.15 425.7-6.18 8.61-.54-10.58z"/>
        </g>
        <g class="node" transform="translate(4 544)">
            <ellipse cx="5351.58" cy="-306" fill="none" stroke="#000" rx="81.04" ry="18"/>
            <text x="5351.58" y="-300.95" font-family="Times,serif" font-size="14" text-anchor="middle">:app:core:compose</text>
        </g>
        <g stroke="#000" class="edge">
            <path fill="none" d="M3376.87 95.71c358.11 2.88 1591.1 15.41 1763.71 52.29 64.28 13.73 133.7 45.96 175.76 67.63"/>
            <path d="m5317.84 212.46 7.25 7.73-10.49-1.52z"/>
        </g>
        <g class="node" transform="translate(4 544)">
            <ellipse cx="5381.58" cy="-234" fill="none" stroke="#000" rx="101" ry="18"/>
            <text x="5381.58" y="-228.95" font-family="Times,serif" font-size="14" text-anchor="middle">:app:core:design-system</text>
        </g>
        <g stroke="#000" class="edge">
            <path fill="none" d="M3377.06 95.21c457.74 1.2 2373.5 8.85 2416.52 52.79 34.78 35.52-31.44 99.15-45 108-41.08 26.83-164.2 40.56-255.73 47.24"/>
            <path d="m5493.31 306.72-10.23-2.78 9.73-4.2z"/>
        </g>
        <g class="node" transform="translate(4 544)">
            <ellipse cx="5013.58" cy="-306" fill="none" stroke="#000" rx="86.67" ry="18"/>
            <text x="5013.58" y="-300.95" font-family="Times,serif" font-size="14" text-anchor="middle">:app:core:navigation</text>
        </g>
        <g stroke="#000" class="edge">
            <path fill="none" d="M3377.19 94.68c286-.33 1118.58 3.18 1385.39 53.32 75.99 14.28 159.89 47.09 209.98 68.64"/>
            <path d="m4973.86 213.38 7.77 7.2-10.57-.78z"/>
        </g>
        <g class="node" transform="translate(4 544)">
            <ellipse cx="5539.58" cy="-162" fill="none" stroke="#000" rx="59.54" ry="18"/>
            <text x="5539.58" y="-156.95" font-family="Times,serif" font-size="14" text-anchor="middle">:library:color</text>
        </g>
        <g stroke="#000" class="edge">
            <path fill="none" d="M3376.97 95.81c435.2 3.78 2191.29 20.87 2435.61 52.19 136.86 17.54 216.49-36.29 302 72 42.11 53.32-60.22 102.37-72 108-74.06 35.38-309.42 47.39-428.52 51.27"/>
            <path d="m5614.52 382.75-10.11-3.18 9.89-3.81z"/>
        </g>
        <g class="node" transform="translate(4 544)">
            <ellipse cx="4786.58" cy="-18" fill="none" stroke="#000" rx="62.1" ry="18"/>
            <text x="4786.58" y="-12.95" font-family="Times,serif" font-size="14" text-anchor="middle">:library:kotlin</text>
        </g>
        <g stroke="#000" class="edge">
            <path fill="none" d="M3376.99 95.09c418.53.67 2066.24 6.27 2582.59 52.91 216.52 19.56 481-128.41 481 89v146c0 56.57-38.99 66.75-91 89-68.99 29.5-1187.21 47.65-1486.05 51.99"/>
            <path d="m4863.97 527.48-10.05-3.35 9.95-3.65z"/>
        </g>
        <g class="node" transform="translate(4 544)">
            <ellipse cx="4829.58" cy="-306" fill="none" stroke="#000" rx="79.5" ry="18"/>
            <text x="4829.58" y="-300.95" font-family="Times,serif" font-size="14" text-anchor="middle">:library:navigation</text>
        </g>
        <g stroke="#000" class="edge">
            <path fill="none" d="M3377.22 95.12c303.44.85 1217.21 7.22 1342.36 52.88 36.23 13.22 70.03 42.62 91.27 64.02"/>
            <path d="m4813.13 209.35 4.43 9.63-9.46-4.76z"/>
        </g>
        <g class="node" transform="translate(4 544)">
            <ellipse cx="2933.58" cy="-18" fill="none" stroke="#000" rx="78.99" ry="18"/>
            <text x="2933.58" y="-12.95" font-family="Times,serif" font-size="14" text-anchor="middle">:library:coroutines</text>
        </g>
        <g stroke="#000" class="edge">
            <path fill="none" d="M3182.61 96.32c-164.48 3.25-483.77 14.34-518.03 51.68-109.12 118.92 36.13 225.53 164 324 17.51 13.49 39.01 24.83 58.26 33.52"/>
            <path d="m2888.12 502.25 7.77 7.21-10.57-.79z"/>
        </g>
        <g class="node" transform="translate(4 544)">
            <ellipse cx="4061.58" cy="-18" fill="none" stroke="#000" rx="72.85" ry="18"/>
            <text x="4061.58" y="-12.95" font-family="Times,serif" font-size="14" text-anchor="middle">:library:datetime</text>
        </g>
        <g stroke="#000" class="edge">
            <path fill="none" d="M3377.06 95.37c145.52 2 427.71 11.45 663.52 52.63 231.17 40.37 302.22 31.2 508 144 42.24 23.15 61.27 28.06 81 72 20.18 44.95 13.7 77.51-25 108-35.01 27.58-313.86 43.38-456.13 49.72"/>
            <path d="m4148.86 525.21-10.14-3.06 9.83-3.94z"/>
        </g>
        <g class="node" transform="translate(4 544)">
            <ellipse cx="5539.58" cy="-306" fill="none" stroke="#000" rx="89.23" ry="18"/>
            <text x="5539.58" y="-300.95" font-family="Times,serif" font-size="14" text-anchor="middle">:library:shimmer-m3</text>
        </g>
        <g stroke="#000" class="edge">
            <path fill="none" d="M3377.25 94.69c340.27-.61 1472.3 1.41 1831.33 53.31 100.78 14.57 214.69 48.76 280.35 70.27"/>
            <path d="m5489.99 214.94 8.4 6.46-10.6.18z"/>
        </g>
        <g class="node" transform="translate(4 544)">
            <ellipse cx="2833.58" cy="-306" fill="none" stroke="#000" rx="71.31" ry="18"/>
            <text x="2833.58" y="-300.95" font-family="Times,serif" font-size="14" text-anchor="middle">:app:data:memo</text>
        </g>
        <g stroke="#000" class="edge">
            <path fill="none" d="M3190.42 101.6c-90.16 7.85-222.49 22.91-267.84 46.4-28.17 14.59-52.26 42.2-67.52 62.81"/>
            <path d="m2858.03 212.67-8.66 6.1 2.97-10.17z"/>
        </g>
        <g class="node" transform="translate(4 544)">
            <ellipse cx="3019.58" cy="-306" fill="none" stroke="#000" rx="58.52" ry="18"/>
            <text x="3019.58" y="-300.95" font-family="Times,serif" font-size="14" text-anchor="middle">:app:data:tag</text>
        </g>
        <g stroke="#000" class="edge">
            <path fill="none" d="M3205.34 105.97c-35.1 7.72-76.31 20.64-108.76 42.03-24.15 15.92-44.33 42.3-57.31 62.21"/>
            <path d="m3042.24 212.06-8.28 6.61 2.35-10.33z"/>
        </g>
        <g class="node" transform="translate(4 544)">
            <ellipse cx="3106.58" cy="-162" fill="none" stroke="#000" rx="75.92" ry="18"/>
            <text x="3106.58" y="-156.95" font-family="Times,serif" font-size="14" text-anchor="middle">:app:data:account</text>
        </g>
        <g stroke="#000" class="edge">
            <path fill="none" d="M3269.51 112.03c-28.28 47.88-108.67 183.91-143.03 242.07"/>
            <path d="m3129.68 355.56-8.1 6.83 2.07-10.39z"/>
        </g>
        <g class="node" transform="translate(4 544)">
            <ellipse cx="2753.58" cy="-378" fill="none" stroke="#000" rx="83.6" ry="18"/>
            <text x="2753.58" y="-372.95" font-family="Times,serif" font-size="14" text-anchor="middle">:app:data:credential</text>
        </g>
        <g stroke="red" stroke-width="2" class="edge">
            <path fill="none" d="M3200.14 104.74C3117.5 115 2984.36 131.87 2869.58 148c-11.22 1.58-23.06 3.3-34.67 5.03"/>
            <path fill="red" d="m2837.28 156.22-10.41-1.98 9.37-4.94z"/>
        </g>
        <g class="node" transform="translate(4 544)">
            <ellipse cx="951.58" cy="-162" fill="none" stroke="#000" rx="74.89" ry="18"/>
            <text x="951.58" y="-156.95" font-family="Times,serif" font-size="14" text-anchor="middle">:app:data:holiday</text>
        </g>
        <g stroke="#000" class="edge">
            <path fill="none" d="M3182.36 96.06C2895.23 99.58 2063.7 112.72 1946.58 148c-88.6 26.69-91 76.49-178 108-303.01 109.73-398.98 55.9-717 108-8.52 1.39-17.45 2.91-26.29 4.44"/>
            <path d="m1026.12 371.85-10.45-1.73 9.25-5.17z"/>
        </g>
        <g class="node" transform="translate(4 544)">
            <ellipse cx="1941.58" cy="-234" fill="none" stroke="#000" rx="73.87" ry="18"/>
            <text x="1941.58" y="-228.95" font-family="Times,serif" font-size="14" text-anchor="middle">:app:data:backup</text>
        </g>
        <g stroke="#000" class="edge">
            <path fill="none" d="M3182.61 96.53c-284.56 4.84-1100.51 21.29-1149.03 51.47-47.92 29.81-71.66 95.47-81.74 133.09"/>
            <path d="m1955.35 281.48-5.84 8.84-.95-10.55z"/>
        </g>
        <g class="node" transform="translate(4 544)">
            <ellipse cx="2214.58" cy="-306" fill="none" stroke="#000" rx="65.68" ry="18"/>
            <text x="2214.58" y="-300.95" font-family="Times,serif" font-size="14" text-anchor="middle">:app:data:fetch</text>
        </g>
        <g stroke="#000" class="edge">
            <path fill="none" d="M3183.56 97.26c-224 5.72-768.06 22.37-845.98 50.74-37.24 13.56-72.63 42.89-94.99 64.18"/>
            <path d="m2245.08 214.64-9.59 4.49 4.7-9.5z"/>
        </g>
        <g class="node" transform="translate(4 544)">
            <ellipse cx="2513.58" cy="-234" fill="none" stroke="#000" rx="62.1" ry="18"/>
            <text x="2513.58" y="-228.95" font-family="Times,serif" font-size="14" text-anchor="middle">:app:data:fcm</text>
        </g>
        <g stroke="#000" class="edge">
            <path fill="none" d="M3184.52 98.35c-168.45 6.59-506.12 22.96-552.94 49.65-52.94 30.18-87.36 96.19-103.43 133.64"/>
            <path d="m2531.56 282.53-7.06 7.9.6-10.58z"/>
        </g>
        <g class="node" transform="translate(4 544)">
            <ellipse cx="4005.58" cy="-234" fill="none" stroke="#000" rx="84.11" ry="18"/>
            <text x="4005.58" y="-228.95" font-family="Times,serif" font-size="14" text-anchor="middle">:app:domain:memo</text>
        </g>
        <g stroke="#000" class="edge">
            <path fill="none" d="M3374.87 98.17c130.08 5.42 355.77 19.02 431.71 49.83 39.17 15.89 130.26 95.25 175.91 136.3"/>
            <path d="m3984.79 281.66 5.07 9.3-9.77-4.11z"/>
        </g>
        <g class="node" transform="translate(4 544)">
            <ellipse cx="4292.58" cy="-234" fill="none" stroke="#000" rx="71.31" ry="18"/>
            <text x="4292.58" y="-228.95" font-family="Times,serif" font-size="14" text-anchor="middle">:app:domain:tag</text>
        </g>
        <g stroke="#000" class="edge">
            <path fill="none" d="M3373.34 99.23c138.01 6.98 388.84 22.8 475.24 48.77 97.5 29.3 106.42 72.94 202 108 56.41 20.69 123.21 34.45 172.96 42.75"/>
            <path d="m4224.04 295.29 9.31 5.06-10.44 1.84z"/>
        </g>
        <g class="node" transform="translate(4 544)">
            <ellipse cx="4061.58" cy="-90" fill="none" stroke="#000" rx="88.71" ry="18"/>
            <text x="4061.58" y="-84.95" font-family="Times,serif" font-size="14" text-anchor="middle">:app:domain:account</text>
        </g>
        <g stroke="#000" class="edge">
            <path fill="none" d="M3363.27 103.56c65.25 7.94 157.66 21.97 236.31 44.44 80.47 22.99 103.49 26.92 174 72 99.37 63.54 99.19 111.21 195 180 16.55 11.88 36.05 23.02 53.22 32"/>
            <path d="m4022.94 428.65 7.3 7.68-10.49-1.45z"/>
        </g>
        <g class="node" transform="translate(4 544)">
            <ellipse cx="3664.58" cy="-306" fill="none" stroke="#000" rx="96.39" ry="18"/>
            <text x="3664.58" y="-300.95" font-family="Times,serif" font-size="14" text-anchor="middle">:app:domain:credential</text>
        </g>
        <g stroke="#000" class="edge">
            <path fill="none" d="M3370.34 100.92c56.31 6.38 128.97 19.61 188.24 47.08 33.5 15.52 65.58 43.5 86.36 63.95"/>
            <path d="m3647.23 209.29 4.56 9.56-9.53-4.63z"/>
        </g>
        <g class="node" transform="translate(4 544)">
            <ellipse cx="3144.58" cy="-90" fill="none" stroke="#000" rx="87.69" ry="18"/>
            <text x="3144.58" y="-84.95" font-family="Times,serif" font-size="14" text-anchor="middle">:app:domain:holiday</text>
        </g>
        <g stroke="#000" class="edge">
            <path fill="none" d="M3186.03 99.41c-79.82 9.6-188.19 38.09-230.45 120.59-27.7 54.07-1.9 129.47 47 180 18.21 18.82 43.62 30.99 68.15 38.84"/>
            <path d="m3071.49 435.42 8.59 6.2-10.59.51z"/>
        </g>
        <g class="node" transform="translate(4 544)">
            <ellipse cx="3683.58" cy="-162" fill="none" stroke="#000" rx="86.67" ry="18"/>
            <text x="3683.58" y="-156.95" font-family="Times,serif" font-size="14" text-anchor="middle">:app:domain:backup</text>
        </g>
        <g stroke="#000" class="edge">
            <path fill="none" d="M3303.58 111.82c69.59 48.79 271.6 190.39 351.2 246.19"/>
            <path d="m3656.45 354.9 6.18 8.61-10.2-2.88z"/>
        </g>
        <g class="node" transform="translate(4 544)">
            <ellipse cx="3423.58" cy="-234" fill="none" stroke="#000" rx="78.48" ry="18"/>
            <text x="3423.58" y="-228.95" font-family="Times,serif" font-size="14" text-anchor="middle">:app:domain:fetch</text>
        </g>
        <g stroke="#000" class="edge">
            <path fill="none" d="M3291.44 112.15c25.76 37.25 86.99 125.78 117.79 170.31"/>
            <path d="m3411.99 280.31 2.81 10.21-8.57-6.23z"/>
        </g>
        <g class="node" transform="translate(4 544)">
            <ellipse cx="3275.58" cy="-162" fill="none" stroke="#000" rx="74.89" ry="18"/>
            <text x="3275.58" y="-156.95" font-family="Times,serif" font-size="14" text-anchor="middle">:app:domain:fcm</text>
        </g>
        <g stroke="#000" class="edge">
            <path fill="none" d="M3279.58 112.46v239.93"/>
            <path d="m3283.08 352.25-3.5 10-3.5-10z"/>
        </g>
        <g class="node" transform="translate(4 544)">
            <ellipse cx="4146.58" cy="-306" fill="none" stroke="#000" rx="91.27" ry="18"/>
            <text x="4146.58" y="-300.95" font-family="Times,serif" font-size="14" text-anchor="middle">:app:domain:calendar</text>
        </g>
        <g stroke="#000" class="edge">
            <path fill="none" d="M3375.74 97.18c166.14 4.61 499.91 17.75 611.84 50.82 48.62 14.36 99 44.66 130.64 65.89"/>
            <path d="m4119.88 210.79 6.29 8.52-10.23-2.74z"/>
        </g>
        <g class="node" transform="translate(4 544)">
            <ellipse cx="854.58" cy="-234" fill="none" stroke="#000" rx="132.22" ry="18"/>
            <text x="854.58" y="-228.95" font-family="Times,serif" font-size="14" text-anchor="middle">:app:core:backup-database-room</text>
        </g>
        <g stroke="#000" class="edge">
            <path fill="none" d="M3182.29 95.65c-321.55 2.5-1333.11 13.44-1390.71 52.35-43.53 29.4-4.83 78.07-48 108-59.31 41.12-506.74 50.44-741.75 52.48"/>
            <path d="m1001.99 311.98-10.02-3.42 9.97-3.58z"/>
        </g>
        <g class="node" transform="translate(4 544)">
            <ellipse cx="1610.58" cy="-162" fill="none" stroke="#000" rx="158.32" ry="18"/>
            <text x="1610.58" y="-156.95" font-family="Times,serif" font-size="14" text-anchor="middle">:app:core:account-preferences-datastore</text>
        </g>
        <g stroke="#000" class="edge">
            <path fill="none" d="M3182.27 95.11c-253.57.92-921.11 7.68-1009.69 52.89-22.81 11.64-121.67 167.46-144 180-12.75 7.16-174.02 26.36-291.44 39.57"/>
            <path d="m1737.75 371.03-10.33-2.37 9.55-4.59z"/>
        </g>
        <g class="node" transform="translate(4 544)">
            <ellipse cx="579.58" cy="-234" fill="none" stroke="#000" rx="124.54" ry="18"/>
            <text x="579.58" y="-228.95" font-family="Times,serif" font-size="14" text-anchor="middle">:app:core:diary-database-room</text>
        </g>
        <g stroke="#000" class="edge">
            <path fill="none" d="M3182.14 95.78c-325.19 2.97-1356.15 15.24-1416.56 52.22-46.83 28.67-13.19 79.3-60 108-46.82 28.71-933.26 31.54-988 36-11.51.94-23.56 2.14-35.5 3.48"/>
            <path d="m682.52 298.95-10.34-2.33 9.53-4.62z"/>
        </g>
        <g class="node" transform="translate(4 544)">
            <ellipse cx="1239.58" cy="-162" fill="none" stroke="#000" rx="157.3" ry="18"/>
            <text x="1239.58" y="-156.95" font-family="Times,serif" font-size="14" text-anchor="middle">:app:core:holiday-preferences-datastore</text>
        </g>
        <g stroke="#000" class="edge">
            <path fill="none" d="M3181.81 94.87c-281.55.19-1081.01 5.02-1188.23 53.13-50.76 22.77-123.83 155.95-174 180-2.49 1.2-274.7 25.88-443.97 41.13"/>
            <path d="m1376.14 372.6-10.27-2.59 9.64-4.38z"/>
        </g>
        <g class="node" transform="translate(4 544)">
            <ellipse cx="303.58" cy="-234" fill="none" stroke="#000" rx="133.24" ry="18"/>
            <text x="303.58" y="-228.95" font-family="Times,serif" font-size="14" text-anchor="middle">:app:core:holiday-database-room</text>
        </g>
        <g stroke="#000" class="edge">
            <path fill="none" d="M3182.24 95.8c-317.04 2.97-1307.65 15.13-1446.66 52.2-33.04 8.81-35.24 26.19-68 36-322.48 96.6-418.62 42.98-754 72-206.07 17.83-258.16 15.7-464 36-11.63 1.15-23.79 2.45-35.89 3.81"/>
            <path d="m414.45 299.24-10.33-2.34 9.54-4.61z"/>
        </g>
        <g class="node" transform="translate(4 544)">
            <ellipse cx="4624.58" cy="-378" fill="none" stroke="#000" rx="81.55" ry="18"/>
            <text x="4624.58" y="-372.95" font-family="Times,serif" font-size="14" text-anchor="middle">:app:feature:memo</text>
        </g>
        <g stroke="#000" class="edge">
            <path fill="none" d="M3377.42 94.39c212.1-.29 729.85 4.6 1160.16 53.61 7.21.82 14.71 1.88 22.17 3.07"/>
            <path d="m4560.22 147.6 9.29 5.11-10.45 1.8z"/>
        </g>
        <g class="node" transform="translate(4 544)">
            <ellipse cx="5711.58" cy="-378" fill="none" stroke="#000" rx="68.75" ry="18"/>
            <text x="5711.58" y="-372.95" font-family="Times,serif" font-size="14" text-anchor="middle">:app:feature:tag</text>
        </g>
        <g stroke="#000" class="edge">
            <path fill="none" d="M3377.22 94.66c386.89-.96 1812.96-.67 2261.36 53.34 5.71.69 11.63 1.61 17.52 2.67"/>
            <path d="m5656.72 147.22 9.15 5.34-10.48 1.53z"/>
        </g>
        <g class="node" transform="translate(4 544)">
            <ellipse cx="5536.58" cy="-378" fill="none" stroke="#000" rx="88.71" ry="18"/>
            <text x="5536.58" y="-372.95" font-family="Times,serif" font-size="14" text-anchor="middle">:app:feature:calendar</text>
        </g>
        <g stroke="#000" class="edge">
            <path fill="none" d="M3376.64 96.19c360.51 4.6 1622.48 22.49 2023.94 51.81 18.59 1.36 38.5 3.41 57.31 5.63"/>
            <path d="m5458.12 150.13 9.5 4.67-10.34 2.28z"/>
        </g>
        <g class="node" transform="translate(4 544)">
            <ellipse cx="5050.58" cy="-378" fill="none" stroke="#000" rx="76.94" ry="18"/>
            <text x="5050.58" y="-372.95" font-family="Times,serif" font-size="14" text-anchor="middle">:app:feature:more</text>
        </g>
        <g stroke="#000" class="edge">
            <path fill="none" d="M3376.67 95.88c250.47 2.79 938.9 13.62 1510.91 52.12 28.88 1.94 60.48 4.94 88.36 7.87"/>
            <path d="m4976.15 152.38 9.57 4.54-10.31 2.42z"/>
        </g>
        <g class="node" transform="translate(4 544)">
            <ellipse cx="4438.58" cy="-378" fill="none" stroke="#000" rx="86.15" ry="18"/>
            <text x="4438.58" y="-372.95" font-family="Times,serif" font-size="14" text-anchor="middle">:app:feature:account</text>
        </g>
        <g stroke="#000" class="edge">
            <path fill="none" d="M3376.04 97.05c184.16 4.54 598.43 17.8 945.54 50.95 13.75 1.31 28.33 3.06 42.43 4.93"/>
            <path d="m4364.25 149.43 9.44 4.82-10.38 2.12z"/>
        </g>
        <g class="node" transform="translate(4 544)">
            <ellipse cx="2120.58" cy="-162" fill="none" stroke="#000" rx="112.26" ry="18"/>
            <text x="2120.58" y="-156.95" font-family="Times,serif" font-size="14" text-anchor="middle">:library:firebase-messaging</text>
        </g>
        <g stroke="#000" class="edge">
            <path fill="none" d="M3182.11 94.62c-218.02.05-739.08 5.37-907.53 53.38-63.89 18.21-93.88 16.9-131 72-26.87 39.88-26.34 98.24-23.01 132.65"/>
            <path d="m2124.01 351.92-2.36 10.33-4.6-9.54z"/>
        </g>
        <g class="node" transform="translate(4 544)">
            <ellipse cx="2667.58" cy="-18" fill="none" stroke="#000" rx="71.31" ry="18"/>
            <text x="2667.58" y="-12.95" font-family="Times,serif" font-size="14" text-anchor="middle">:app:core:model</text>
        </g>
        <g stroke="#000" class="edge">
            <path fill="none" d="M2345.54 391.87c-106.29 12.02-280.52 33.24-289.96 44.13-10.48 12.09-10.82 24.21 0 36 35.37 38.54 374.09 49.12 533.64 51.97"/>
            <path d="m2588.94 520.47 9.93 3.67-10.05 3.32z"/>
        </g>
        <g class="node" transform="translate(4 544)">
            <ellipse cx="3773.58" cy="-18" fill="none" stroke="#000" rx="85.13" ry="18"/>
            <text x="3773.58" y="-12.95" font-family="Times,serif" font-size="14" text-anchor="middle">:common:exception</text>
        </g>
        <g stroke="#000" class="edge">
            <path fill="none" d="M2358.13 394.93c-61.71 13.52-137.52 38.79-100.55 77.07 12.42 12.86 1092.75 41.92 1424.32 50.54"/>
            <path d="m3681.96 519.04 9.9 3.76-10.08 3.24z"/>
        </g>
        <g class="node" transform="translate(4 544)">
            <ellipse cx="2384.58" cy="-90" fill="none" stroke="#000" rx="121.98" ry="18"/>
            <text x="2384.58" y="-84.95" font-family="Times,serif" font-size="14" text-anchor="middle">:app:core:account-preferences</text>
        </g>
        <g stroke="#000" class="edge">
            <path fill="none" d="M2417.19 400.3c-4.19 7.72-9.22 16.99-13.89 25.59"/>
            <path d="m2406.43 427.45-7.84 7.12 1.69-10.46z"/>
        </g>
        <g class="node" transform="translate(4 544)">
            <ellipse cx="2133.58" cy="-90" fill="none" stroke="#000" rx="72.85" ry="18"/>
            <text x="2133.58" y="-84.95" font-family="Times,serif" font-size="14" text-anchor="middle">:common:model</text>
        </g>
        <g stroke="#000" class="edge">
            <path fill="none" d="M2369.48 396.83c-49.09 11.89-119.74 29-170.14 41.21"/>
            <path d="m2200.29 441.41-10.55-1.05 8.9-5.75z"/>
        </g>
        <g stroke="#000" class="edge">
            <path fill="none" d="M183.01 467.03c14.74 1.99 30.11 3.79 44.57 4.97 473.74 38.83 1989.6 50.29 2361.18 52.54"/>
            <path d="m2588.71 521.04 9.98 3.56-10.02 3.44z"/>
        </g>
        <g stroke="#000" class="edge">
            <path fill="none" d="M5363 256.3c3.23 7.55 7.1 16.58 10.72 25.02"/>
            <path d="m5376.93 279.93.72 10.57-7.15-7.81z"/>
        </g>
        <g stroke="#000" class="edge">
            <path fill="none" d="M5422.22 327.24c23.35 10.34 53.71 23.79 78.21 34.65"/>
            <path d="m5501.78 358.65 7.73 7.25-10.56-.85z"/>
        </g>
        <g stroke="#000" class="edge">
            <path fill="none" d="M5362.97 327.99c-47.57 34.65-162.76 112.8-273.39 144.01-89.3 25.19-712.28 44.5-940.48 50.8"/>
            <path d="m4149.49 526.29-10.09-3.22 9.9-3.77z"/>
        </g>
        <g stroke="#000" class="edge">
            <path fill="none" d="M5021.17 256.35c7.94 43.79 21.66 159.31-40.59 215.65-30.55 27.65-610.88 45.26-831.16 50.97"/>
            <path d="m4149.55 526.47-10.09-3.25 9.91-3.75z"/>
        </g>
        <g stroke="#000" class="edge">
            <path fill="none" d="M4858.99 255.44c29.89 21.02 77.92 60.52 97.59 108.56 18.19 44.42 32.92 73.07 0 108-27.44 29.12-590.65 45.75-807.19 51.09"/>
            <path d="m4149.7 526.58-10.09-3.25 9.92-3.74z"/>
        </g>
        <g stroke="#000" class="edge">
            <path fill="none" d="M5543.58 256.41v96.17"/>
            <path d="m5547.08 352.38-3.5 10-3.5-10z"/>
        </g>
        <g stroke="#000" class="edge">
            <path fill="none" d="M2837.87 256.5c1.35 40.38 8.68 142.23 47.71 215.5 5.59 10.49 13.9 20.31 22.25 28.57"/>
            <path d="m2910.07 497.86 4.92 9.39-9.7-4.27z"/>
        </g>
        <g stroke="#000" class="edge">
            <path fill="none" d="M2848.97 256.23c23.81 34.37 82.57 110.97 153.61 143.77 79.02 36.49 304.11 21.94 390 36 68.51 11.22 83.54 24.46 152 36 82.81 13.96 317.4 35.37 441.6 46.21"/>
            <path d="m3986.32 514.71 9.66 4.35-10.27 2.62z"/>
        </g>
        <g stroke="#000" class="edge">
            <path fill="none" d="M2896.27 248.55c18.89 2.78 39.94 5.57 59.31 7.45 184.96 17.93 738.57 40.72 960.48 49.41"/>
            <path d="m3915.96 301.91 9.86 3.89-10.13 3.1z"/>
        </g>
        <g class="node" transform="translate(4 544)">
            <ellipse cx="1888.58" cy="-162" fill="none" stroke="#000" rx="101.51" ry="18"/>
            <text x="1888.58" y="-156.95" font-family="Times,serif" font-size="14" text-anchor="middle">:app:core:diary-database</text>
        </g>
        <g stroke="#000" class="edge">
            <path fill="none" d="M2771.6 245.14c-89.82 8.69-255.49 25.88-396.02 46.86-144.85 21.63-312.77 54.3-407.59 73.46"/>
            <path d="m1968.78 368.87-10.5-1.44 9.11-5.42z"/>
        </g>
        <g stroke="#000" class="edge">
            <path fill="none" d="M3007.51 255.65c-29.49 31.86-91.31 105-113.93 180.35-4.6 15.32-5.43 20.95 0 36 3.7 10.24 10.33 19.91 17.35 28.1"/>
            <path d="m2913.33 497.55 4.21 9.72-9.35-4.98z"/>
        </g>
        <g stroke="#000" class="edge">
            <path fill="none" d="M3017.15 256.33c-10.94 32.86-28.62 104.45 8.43 143.67 39.7 42.02 466.07 12.76 519 36 21.3 9.35 16.89 26.22 38 36 18.08 8.38 272.71 33.27 404.76 45.73"/>
            <path d="m3987.43 514.22 9.63 4.42-10.28 2.55z"/>
        </g>
        <g stroke="#000" class="edge">
            <path fill="none" d="M3081.52 241.06c161.67 5.93 631.39 24.31 1021.06 50.94 38.65 2.64 81.58 6.33 117.2 9.59"/>
            <path d="m4219.93 298.09 9.64 4.4-10.28 2.57z"/>
        </g>
        <g stroke="#000" class="edge">
            <path fill="none" d="M2973.82 247.85c-17.71 2.92-37.82 5.97-56.24 8.15-208.49 24.64-263.32 5.29-471 36-73.39 10.85-89.91 23.26-163 36-123.6 21.55-155.76 18.5-280 36-8.26 1.16-16.85 2.41-25.44 3.68"/>
            <path d="m1978.78 371.13-10.4-1.99 9.37-4.94z"/>
        </g>
        <g stroke="#000" class="edge">
            <path fill="none" d="M3044.46 391.19c-53.51 8.15-122.71 22.67-139.88 44.81-14.43 18.61-2.47 44.16 10.91 63.12"/>
            <path d="m2918.12 496.8 3.24 10.09-8.82-5.87z"/>
        </g>
        <g stroke="#000" class="edge">
            <path fill="none" d="M3165.3 394.82c10.04 1.92 20.45 3.74 30.28 5.18 85.46 12.49 308.33.34 387 36 21.19 9.6 16.94 26.12 38 36 32.29 15.14 246.56 35.78 365.6 46.27"/>
            <path d="m3986.23 514.76 9.65 4.36-10.26 2.62z"/>
        </g>
        <g stroke="#000" class="edge">
            <path fill="none" d="M3164.81 394.99c10.18 1.93 20.77 3.71 30.77 5.01 146.85 19.07 577.71 39.96 772.45 48.74"/>
            <path d="m3968.04 445.24 9.83 3.94-10.15 3.05z"/>
        </g>
        <g stroke="#000" class="edge">
            <path fill="none" d="M3039.69 388.63c-110.26 8.92-329.5 27.38-515.11 47.37-11.47 1.24-23.48 2.61-35.41 4.03"/>
            <path d="m2489.63 443.5-10.35-2.27 9.51-4.67z"/>
        </g>
        <g stroke="#000" class="edge">
            <path fill="none" d="M2685.53 175.37c-72.19 12.42-180.72 42.86-238.95 116.63-13.51 17.11-18.27 41.55-19.79 60.49"/>
            <path d="m2430.3 352.42-4.01 9.8-2.98-10.16z"/>
        </g>
        <g stroke="#000" class="edge">
            <path fill="none" d="M2743.6 183.96c-7.21 9.86-15.27 22.91-19.02 36.04-4.4 15.38-4.56 20.66 0 36 32.69 109.88 62.25 132.69 141 216 10.52 11.13 23.62 21.55 35.75 30.15"/>
            <path d="m2903.27 499.24 6.27 8.55-10.23-2.78z"/>
        </g>
        <g stroke="#000" class="edge">
            <path fill="none" d="M2753.27 184.4c-3.69 18.71-6.82 48.83 4.31 71.6 45.76 93.61 88.17 105.52 185 144 156.42 62.17 215.08-9.98 377 36 34.8 9.88 38.1 26.47 73 36 205.95 56.24 266.21 18.68 479 36 38.01 3.09 80.18 6.76 115.48 9.9"/>
            <path d="m3987.1 514.39 9.65 4.37-10.27 2.6z"/>
        </g>
        <g stroke="red" stroke-width="2" class="edge">
            <path fill="none" d="M2835.25 172.97c165.24 12.69 551.39 42.37 734.12 56.41"/>
            <path fill="red" d="m3568.12 225.77 9.71 4.26-10.24 2.72z"/>
        </g>
        <g stroke="#000" class="edge">
            <path fill="none" d="M2724.61 182.92c-17.46 9.36-38.62 22.26-55.03 37.08-74.8 67.58-56.43 120.77-138 180-20.81 15.11-46.41 26.38-70.18 34.56"/>
            <path d="m2462.67 437.82-10.59-.2 8.4-6.45z"/>
        </g>
        <g stroke="#000" class="edge">
            <path fill="none" d="M893.61 392.44c-19.21 2.7-40.47 5.48-60.03 7.56-59.73 6.34-431.51 32.56-618.23 45.58"/>
            <path d="m215.87 449.06-10.22-2.8 9.73-4.19z"/>
        </g>
        <g stroke="#000" class="edge">
            <path fill="none" d="M957.43 400.24c3.28 20.97 12.2 55.59 36.15 71.76 40.48 27.33 1709.23 33.28 1758 36 34.32 1.92 72.11 5.16 104.61 8.31"/>
            <path d="m2856.33 512.8 9.61 4.46-10.29 2.51z"/>
        </g>
        <g stroke="#000" class="edge">
            <path fill="none" d="M971.42 399.74c21.6 21.49 62.63 57.76 106.16 72.26 147.28 49.06 2638.96 28.22 2794 36 38.54 1.93 81.28 5.52 116.82 8.91"/>
            <path d="m3988.54 513.4 9.62 4.45-10.29 2.52z"/>
        </g>
        <g stroke="#000" class="edge">
            <path fill="none" d="M1016.56 392.88c19.45 2.78 41.09 5.49 61.02 7.12 638.95 52.32 801.13 19.34 1442 36 187.97 4.89 407.53 10.89 531.22 14.29"/>
            <path d="m3050.69 446.79 9.9 3.77-10.1 3.23z"/>
        </g>
        <g class="node" transform="translate(4 544)">
            <ellipse cx="1203.58" cy="-90" fill="none" stroke="#000" rx="120.96" ry="18"/>
            <text x="1203.58" y="-84.95" font-family="Times,serif" font-size="14" text-anchor="middle">:app:core:holiday-preferences</text>
        </g>
        <g stroke="#000" class="edge">
            <path fill="none" d="M1003.27 396.25c38.99 10.83 94.55 26.26 137.89 38.3"/>
            <path d="m1142.02 431.16 8.7 6.05-10.57.69z"/>
        </g>
        <g class="node" transform="translate(4 544)">
            <ellipse cx="469.58" cy="-90" fill="none" stroke="#000" rx="110.21" ry="18"/>
            <text x="469.58" y="-84.95" font-family="Times,serif" font-size="14" text-anchor="middle">:app:core:holiday-database</text>
        </g>
        <g stroke="#000" class="edge">
            <path fill="none" d="M892.57 392.15C808.99 404.29 660.88 425.8 565 439.72"/>
            <path d="m565.77 443.15-10.4-2.03 9.39-4.9z"/>
        </g>
        <g stroke="#000" class="edge">
            <path fill="none" d="M2007.48 320.01c84.97 12.36 238.08 34.65 333.85 48.58"/>
            <path d="m2341.82 365.13 9.39 4.9-10.4 2.03z"/>
        </g>
        <g stroke="#000" class="edge">
            <path fill="none" d="M1884.18 320.36c-20.5 2.83-43.5 5.71-64.6 7.64-41.1 3.76-713.53 6.12-742 36-33.11 34.75-33.57 73.7 0 108 32.53 33.24 1627.56 33.38 1674 36 34.32 1.93 72.11 5.18 104.61 8.32"/>
            <path d="m2856.33 512.82 9.61 4.46-10.29 2.51z"/>
        </g>
        <g stroke="#000" class="edge">
            <path fill="none" d="M1890.8 322.49c-10.97 2.04-22.43 4-33.22 5.51-45.29 6.35-379.11 2.28-410 36-10.81 11.8-9.71 23.28 0 36l264 72c475.27 67.68 1680.58 11.03 2160 36 38.54 2.01 81.28 5.6 116.81 8.97"/>
            <path d="m3988.54 513.47 9.62 4.44-10.29 2.53z"/>
        </g>
        <g stroke="#000" class="edge">
            <path fill="none" d="M2018.28 313.57c250.83 8.9 1079.2 38.48 1345.3 50.43 77.37 3.48 165.09 8.12 229.73 11.68"/>
            <path d="m3593.39 372.18 9.79 4.04-10.17 2.95z"/>
        </g>
        <g stroke="#000" class="edge">
            <path fill="none" d="M1932.75 327.95c-6.09 8.04-13.52 17.85-20.31 26.82"/>
            <path d="m1915.4 356.66-8.83 5.86 3.25-10.09z"/>
        </g>
        <g class="node" transform="translate(4 544)">
            <ellipse cx="711.58" cy="-162" fill="none" stroke="#000" rx="109.19" ry="18"/>
            <text x="711.58" y="-156.95" font-family="Times,serif" font-size="14" text-anchor="middle">:app:core:backup-database</text>
        </g>
        <g stroke="#000" class="edge">
            <path fill="none" d="M1872.56 313.11c-173.69 5.35-625.05 21.16-1000.98 50.89-18.84 1.49-38.93 3.42-58.21 5.45"/>
            <path d="m813.95 372.9-10.31-2.42 9.57-4.54z"/>
        </g>
        <g stroke="#000" class="edge">
            <path fill="none" d="M2230.54 256.15c14.43 19.62 40.35 51.63 69.04 71.85 20.22 14.25 44.87 25.65 67.04 34.16"/>
            <path d="m2367.7 358.83 8.16 6.76-10.59-.2z"/>
        </g>
        <g stroke="#000" class="edge">
            <path fill="none" d="M2203.96 255.77c-14.2 18.44-31.78 48.57-18.38 72.23 15.32 27.06 44.68 8.94 60 36 7.88 13.92 10.37 23.82 0 36-65.09 76.44-157.91-40.44-223 36-10.37 12.18-11.03 24.41 0 36 27.96 29.37 688.55 33.15 729 36 34 2.39 71.43 5.69 103.75 8.74"/>
            <path d="m2855.41 513.23 9.62 4.43-10.29 2.54z"/>
        </g>
        <g stroke="#000" class="edge">
            <path fill="none" d="M2226.91 256.11c17.35 36.78 54.23 121.83 35.67 143.89-60.11 71.46-146.89-35.46-207 36-10.3 12.24-11.2 24.57 0 36 35.32 36.03 1765.62 33.3 1816 36 38.54 2.07 81.28 5.67 116.81 9.03"/>
            <path d="m3988.53 513.53 9.62 4.44-10.28 2.53z"/>
        </g>
        <g stroke="#000" class="edge">
            <path fill="none" d="M2282.3 242.69c201.87 11.69 827.51 47.91 1058.47 61.28"/>
            <path d="m3340.83 300.47 9.78 4.07-10.18 2.92z"/>
        </g>
        <g stroke="#000" class="edge">
            <path fill="none" d="M2194.14 255.03c-30.19 19.27-83.56 51.69-132.56 72.97-32.67 14.19-70.38 26.39-101.88 35.5"/>
            <path d="m1960.87 366.8-10.57-.63 8.66-6.1z"/>
        </g>
        <g stroke="#000" class="edge">
            <path fill="none" d="M2496.47 327.24c-11.57 8.9-26.14 20.11-38.98 29.98"/>
            <path d="m2459.78 359.88-10.06 3.32 5.79-8.87z"/>
        </g>
        <g stroke="#000" class="edge">
            <path fill="none" d="M2525.14 328.25c15.75 33.71 55.49 108.15 113.44 143.75 35.3 21.69 139.97 36.72 215.52 45.1"/>
            <path d="m2854.42 513.61 9.56 4.56-10.31 2.4z"/>
        </g>
        <g stroke="#000" class="edge">
            <path fill="none" d="M2553.36 325c53.36 20.23 157.37 57.16 249.22 75 193.91 37.67 248.92-.81 443 36 54.29 10.3 64.66 25.98 119 36 222.16 40.96 281.81 18.14 507 36 38.01 3.02 80.19 6.67 115.48 9.82"/>
            <path d="m3987.11 514.31 9.65 4.38-10.27 2.6z"/>
        </g>
        <g stroke="#000" class="edge">
            <path fill="none" d="M2579.09 313.3c119.35 5.02 390.52 19.12 616.49 50.7 6.32.88 12.89 1.95 19.44 3.11"/>
            <path d="m3215.29 363.6 9.19 5.26-10.47 1.62z"/>
        </g>
        <g stroke="#000" class="edge">
            <path fill="none" d="M2465.8 320.22c-65.46 11.66-179 31.89-257 45.78"/>
            <path d="m2209.5 369.43-10.45-1.69 9.23-5.2z"/>
        </g>
        <g stroke="#000" class="edge">
            <path fill="none" d="M4064.5 323.97c43.53 10.42 105.83 25.63 160.08 40.03 189.45 50.28 412.83 115.62 512.88 145.21"/>
            <path d="m4738.43 505.85 8.59 6.19-10.58.52z"/>
        </g>
        <g stroke="#000" class="edge">
            <path fill="none" d="M3980.41 327.24c-37.02 19.95-103.36 53.51-163.83 72.76-279.16 88.88-628.32 114.69-789.66 122.08"/>
            <path d="m3027.29 525.57-10.15-3.05 9.84-3.94z"/>
        </g>
        <g stroke="#000" class="edge">
            <path fill="none" d="M4084.73 318.32c36.97 6.85 80.25 20.09 111.85 45.68 28.12 22.77 29.3 36.88 38 72 3.85 15.53 9.47 23.1 0 36-20.2 27.5-54.63 41.12-87.17 47.72"/>
            <path d="m4148.42 523.09-10.46-1.66 9.21-5.22z"/>
        </g>
        <g stroke="#000" class="edge">
            <path fill="none" d="M4016.45 328.41c9.54 24.19 26.9 68.23 38.22 96.94"/>
            <path d="m4057.86 423.89.42 10.59-6.93-8.02z"/>
        </g>
        <g stroke="#000" class="edge">
            <path fill="none" d="M3952.01 323.51c-54.63 11.88-136.83 29.75-195.06 42.41"/>
            <path d="m3758 369.27-10.51-1.29 9.02-5.55z"/>
        </g>
        <g stroke="#000" class="edge">
            <path fill="none" d="M3940.18 320.37c-38.53 7.5-86.09 20.71-123.6 43.63-18.52 11.32-13.74 25.99-33 36-109.77 57.05-153.39 19.58-276 36-116.5 15.6-145.22 22.68-262 36-175.59 20.03-220.04 19.6-396 36-33.17 3.09-69.81 6.58-101.19 9.59"/>
            <path d="m2748.88 521.06-10.28-2.53 9.62-4.44z"/>
        </g>
        <g stroke="#000" class="edge">
            <path fill="none" d="M4045.11 326.76c59.11 28.32 166.64 90 118.47 145.24-9.79 11.23-188.96 32.11-299.71 44.03"/>
            <path d="m3864.53 519.48-10.32-2.41 9.57-4.55z"/>
        </g>
        <g stroke="#000" class="edge">
            <path fill="none" d="M4359.79 318.7c49.91 7.52 120.6 21.42 178.79 45.3 55.44 22.75 63.49 39.76 114 72 35.68 22.78 76.4 49.07 104.31 67.14"/>
            <path d="m4758.44 499.98 6.48 8.37-10.29-2.5z"/>
        </g>
        <g stroke="#000" class="edge">
            <path fill="none" d="M4300.22 328.31c5.91 33.5 13.17 107.08-27.64 143.69-23.21 20.83-950 44.07-1245.48 50.97"/>
            <path d="m3027.61 526.46-10.07-3.27 9.91-3.73z"/>
        </g>
        <g stroke="#000" class="edge">
            <path fill="none" d="M4338.52 324.83c18.16 8.31 37.62 20.91 48.06 39.17 7.94 13.89 8.23 22.28 0 36-48.98 81.63-161.15 110.07-238.99 119.91"/>
            <path d="m4148.21 523.36-10.34-2.3 9.52-4.65z"/>
        </g>
        <g stroke="#000" class="edge">
            <path fill="none" d="M4270.53 327.01c-41.11 25.28-121.19 74.5-168.15 103.37"/>
            <path d="m4104.24 433.34-10.35 2.26 6.69-8.22z"/>
        </g>
        <g stroke="#000" class="edge">
            <path fill="none" d="M4232.56 318.36c-110.17 12.66-335.63 38.58-459.23 52.78"/>
            <path d="m3773.89 374.6-10.33-2.33 9.53-4.62z"/>
        </g>
        <g stroke="#000" class="edge">
            <path fill="none" d="M4288.61 328.25c-17.13 34.77-61.16 112.59-125.03 143.75-65.63 32.02-1241.11 31.53-1314 36-33.67 2.07-70.82 5.44-102.44 8.64"/>
            <path d="m2747.57 520.12-10.3-2.46 9.59-4.51z"/>
        </g>
        <g stroke="#000" class="edge">
            <path fill="none" d="M4305.31 328.16c15.2 32.58 41.62 103.7 5.27 143.84-7.36 8.13-293.49 33.07-443.41 45.62"/>
            <path d="m3867.51 521.11-10.26-2.66 9.67-4.32z"/>
        </g>
        <g stroke="#000" class="edge">
            <path fill="none" d="M4144.2 462.59c142.48 13.76 441.13 42.59 576.74 55.69"/>
            <path d="m4721.25 514.79 9.61 4.44-10.29 2.53z"/>
        </g>
        <g stroke="#000" class="edge">
            <path fill="none" d="M3981.72 460.2c-208.06 12.92-746.35 46.32-957.41 59.42"/>
            <path d="m3024.7 523.1-10.2-2.87 9.77-4.12z"/>
        </g>
        <g stroke="#000" class="edge">
            <path fill="none" d="M4065.58 472.3v24.16"/>
            <path d="m4069.08 496.38-3.5 10-3.5-10z"/>
        </g>
        <g stroke="red" stroke-width="2" class="edge">
            <path fill="none" d="M3979.4 458.63C3711.19 469.96 2905.74 504.1 2849.58 508c-33.51 2.33-70.5 5.73-102.03 8.87"/>
            <path fill="red" d="m2749.51 520.19-10.3-2.48 9.59-4.48z"/>
        </g>
        <g stroke="#000" class="edge">
            <path fill="none" d="M4010.39 468.41c-47.68 11.59-116.67 28.36-167.17 40.64"/>
            <path d="m3844.11 512.43-10.55-1.04 8.89-5.76z"/>
        </g>
        <g stroke="#000" class="edge">
            <path fill="none" d="M3759.91 243.97c183.42 10.21 584.32 33.79 645.67 48.03 83.13 19.3 102.38 32.44 178 72 51.77 27.08 63.88 36.13 110 72 25.97 20.2 53.4 45.82 72.45 64.38"/>
            <path d="m4768.39 497.8 4.68 9.51-9.59-4.52z"/>
        </g>
        <g stroke="#000" class="edge">
            <path fill="none" d="M3647.53 255.92c-43.82 34.15-149.34 110.89-251.95 144.08-164.36 53.16-235.51-47.01-387 36-17.78 9.74-15.39 20.13-28 36-7.04 8.86-14.81 18.48-21.78 27.06"/>
            <path d="m2961.6 501.17-9.03 5.54 3.6-9.96z"/>
        </g>
        <g stroke="#000" class="edge">
            <path fill="none" d="M3761.26 243.3c186.41 9 591.08 30.53 615.32 48.7 64.89 48.65 39.4 138.04-30 180-59.47 35.95-137.92 48.44-196.81 52.36"/>
            <path d="m4150.34 527.84-10.19-2.91 9.78-4.08z"/>
        </g>
        <g stroke="#000" class="edge">
            <path fill="none" d="M3670.91 256.41c3.21 23.98 9.02 67.45 12.87 96.17"/>
            <path d="m3687.23 352.01-2.14 10.38-4.8-9.45z"/>
        </g>
        <g stroke="red" stroke-width="2" class="edge">
            <path fill="none" d="M3618.06 253.67c-38.61 11.22-91.88 26.69-132.27 38.42"/>
            <path fill="red" d="m3488.25 295.02-10.58-.57 8.62-6.15z"/>
        </g>
        <g stroke="#000" class="edge">
            <path fill="none" d="M3580.07 245.45c-83.24 7.45-200.7 21.96-239.49 46.55-22.93 14.54-39.45 41.15-49.47 61.49"/>
            <path d="m3294.37 354.79-7.39 7.59 1.04-10.54z"/>
        </g>
        <g stroke="#000" class="edge">
            <path fill="none" d="M3587.82 248.09c-74.46 9-187.85 24.26-285.24 43.91-209.17 42.19-263.77 55.66-458 144-47.15 21.45-99.9 49.14-134.61 67.89"/>
            <path d="m2712.03 506.76-10.46 1.69 7.12-7.84z"/>
        </g>
        <g stroke="#000" class="edge">
            <path fill="none" d="M3692.13 255.65c27.97 21.38 73.13 61.37 91.45 108.35 17.11 43.86 9.12 99.65 1.65 132.72"/>
            <path d="m3788.65 497.44-5.75 8.9-1.05-10.54z"/>
        </g>
        <g stroke="#000" class="edge">
            <path fill="none" d="M3233.69 458.63c287.01 12.23 1216.27 51.85 1484.05 63.26"/>
            <path d="m4717.89 518.4 9.84 3.92-10.14 3.07z"/>
        </g>
        <g stroke="#000" class="edge">
            <path fill="none" d="M3103.83 469.85c-32.64 10.82-77.04 25.55-111.75 37.07"/>
            <path d="m2993.21 510.23-10.59-.17 8.38-6.47z"/>
        </g>
        <g stroke="#000" class="edge">
            <path fill="none" d="M3220.79 464.6c21.76 2.66 45.72 5.38 67.79 7.4 258.52 23.66 324.12 16.67 583 36 38.03 2.84 80.21 6.48 115.5 9.66"/>
            <path d="m3987.13 514.15 9.64 4.39-10.28 2.58z"/>
        </g>
        <g stroke="#000" class="edge">
            <path fill="none" d="M3078.71 465.25c-89.71 13.17-244.59 35.9-335.26 49.2"/>
            <path d="m2744.08 517.9-10.4-2.01 9.39-4.92z"/>
        </g>
        <g stroke="#000" class="edge">
            <path fill="none" d="M3213.51 466.47c12.29 1.99 25.06 3.93 37.07 5.53 153.24 20.45 332.5 36.9 437.51 45.78"/>
            <path d="m3688.09 514.27 9.67 4.33-10.26 2.65z"/>
        </g>
        <g stroke="#000" class="edge">
            <path fill="none" d="M3748.75 395.12c64.86 13.09 160.12 33.12 175.83 40.88 22.35 11.03 19.86 26.74 43 36 68.56 27.44 561.11 45.07 749.75 50.89"/>
            <path d="m4717.37 519.39 9.89 3.8-10.1 3.19z"/>
        </g>
        <g stroke="#000" class="edge">
            <path fill="none" d="M3615.87 392.46c-21.6 2.66-45.39 5.41-67.29 7.54-110.21 10.72-394.36-5.55-497 36-23.1 9.35-23.45 20.54-43 36-12.6 9.96-26.72 20.61-39.04 29.73"/>
            <path d="m2971.87 504.36-10.12 3.11 5.97-8.75z"/>
        </g>
        <g stroke="#000" class="edge">
            <path fill="none" d="M3728.39 398.33c69.87 26.25 212.15 79.7 287.62 108.05"/>
            <path d="m4017.09 503.05 8.13 6.79-10.59-.24z"/>
        </g>
        <g stroke="red" stroke-width="2" class="edge">
            <path fill="none" d="M3750.85 394.72c66.13 12.24 169.85 31.45 239.98 44.44"/>
            <path fill="red" d="m3989.62 435.37 9.19 5.27-10.47 1.62z"/>
        </g>
        <g stroke="#000" class="edge">
            <path fill="none" d="M3604.7 387.52c-155.81 8.81-486.92 29.13-600.12 48.48-100.65 17.2-215.06 51.01-280.18 71.65"/>
            <path d="m2725.64 510.93-10.59-.3 8.46-6.37z"/>
        </g>
        <g stroke="#000" class="edge">
            <path fill="none" d="M3698.44 400.13c15.47 24.41 44.01 69.44 62.26 98.23"/>
            <path d="m3763.48 496.21 2.39 10.32-8.31-6.57z"/>
        </g>
        <g stroke="#000" class="edge">
            <path fill="none" d="M3451.67 327.45c30.96 20.33 87.05 54.44 139.91 72.55 93.31 31.97 123.06 13.09 219 36 51.68 12.34 61.76 26.3 114 36 151.26 28.07 612.48 45.09 792.72 50.82"/>
            <path d="m4717.37 519.32 9.88 3.81-10.1 3.19z"/>
        </g>
        <g stroke="#000" class="edge">
            <path fill="none" d="M3420.6 328.2c-9.49 20.94-28.62 55.52-57.02 71.8-148.33 85.03-242.59-61.55-383 36-20.24 14.06-31.3 40.36-37.12 60.73"/>
            <path d="m2946.92 497.33-5.86 8.82-.92-10.55z"/>
        </g>
        <g stroke="#000" class="edge">
            <path fill="none" d="M3433.22 328.19c7.7 20.59 23.58 54.48 49.36 71.81 80.04 53.82 119.82 15.19 214 36 58.96 13.03 72.4 21.43 131 36 58 14.42 124.41 29.05 172.32 39.28"/>
            <path d="m4000.52 507.83 9.05 5.51-10.51 1.34z"/>
        </g>
        <g stroke="#000" class="edge">
            <path fill="none" d="M3498.11 318.17c72.27 8.13 187.59 23.25 285.47 45.83 81.6 18.83 173.71 49.8 229.8 69.79"/>
            <path d="m4014.45 430.46 8.23 6.67-10.59-.08z"/>
        </g>
        <g stroke="red" stroke-width="2" class="edge">
            <path fill="none" d="M3477.1 324.33c42.05 11.32 102.64 27.64 148.03 39.86"/>
            <path fill="red" d="m3624.35 360.35 8.75 5.98-10.57.78z"/>
        </g>
        <g stroke="#000" class="edge">
            <path fill="none" d="M3352.05 315.37c-81.6 6-214.92 19.57-326.47 48.63-83.78 21.83-102.19 36.16-181 72-47.15 21.45-99.9 49.14-134.61 67.89"/>
            <path d="m2712.03 506.76-10.46 1.69 7.12-7.84z"/>
        </g>
        <g stroke="#000" class="edge">
            <path fill="none" d="M3426.19 328.16c-.64 19.62 1.36 51.63 18.39 71.84 61.25 72.69 169.24 103.16 245.61 115.9"/>
            <path d="m3690.4 512.39 9.33 5.02-10.43 1.89z"/>
        </g>
        <g stroke="#000" class="edge">
            <path fill="none" d="M3346.53 390.43c82.5 9.4 226.88 26.67 350.05 45.57 89.27 13.7 110.32 25.31 200 36 303.5 36.18 668.04 48.05 820.92 51.61"/>
            <path d="m4717.14 520.1 9.92 3.72-10.08 3.28z"/>
        </g>
        <g stroke="#000" class="edge">
            <path fill="none" d="M3224.54 394.62c-9.63 1.89-19.58 3.76-28.96 5.38-55.97 9.64-214.59-5.83-253 36-14.65 15.95-14.78 41.06-11.88 60.55"/>
            <path d="m2934.13 495.87-1.62 10.47-5.26-9.2z"/>
        </g>
        <g stroke="#000" class="edge">
            <path fill="none" d="M3345.74 390.72c69.05 8.66 180.23 24.29 274.84 45.28 56.02 12.43 68.03 23.3 124 36 83.7 18.99 181.14 34.11 246.51 43.26"/>
            <path d="m3991.18 511.74 9.43 4.84-10.39 2.1z"/>
        </g>
        <g stroke="#000" class="edge">
            <path fill="none" d="M3348.99 389.18c142.15 12.66 466.36 41.54 625.31 55.69"/>
            <path d="m3974.3 441.36 9.65 4.37-10.27 2.6z"/>
        </g>
        <g stroke="#000" class="edge">
            <path fill="none" d="M3225.51 394.86c-9.92 1.92-20.21 3.73-29.93 5.14-178.84 25.96-236.22-28.57-405 36-36.8 14.08-72.05 43.04-94.49 64.11"/>
            <path d="m2698.57 502.57-9.63 4.41 4.78-9.45z"/>
        </g>
        <g stroke="#000" class="edge">
            <path fill="none" d="M3309.03 398.94c38.09 19.95 106.96 53.84 169.55 73.06 70.19 21.56 152.5 35.35 212.98 43.44"/>
            <path d="m3692.01 511.97 9.46 4.77-10.37 2.17z"/>
        </g>
        <g stroke="#000" class="edge">
            <path fill="none" d="M4239.26 242.62c81.82 5.25 205.91 18.08 309.32 49.38 139.26 42.15 217 20.55 294 144 8.47 13.58 6.05 21.19 0 36-4.5 11.01-12.51 20.96-20.91 29.2"/>
            <path d="m4824.13 503.69-9.76 4.13 5.06-9.31z"/>
        </g>
        <g stroke="#000" class="edge">
            <path fill="none" d="M4158.9 256.23c19.44 43.01 61.99 155.93 4.68 215.77-19.64 20.51-857.63 43.64-1136.67 50.78"/>
            <path d="m3027.23 526.27-10.08-3.24 9.91-3.76z"/>
        </g>
        <g stroke="#000" class="edge">
            <path fill="none" d="M4227.42 247.98c83.67 10.34 211.76 27.97 258.16 44.02 70.67 24.44 146.98 35.42 129 108-8.7 35.12-8.02 51.74-38 72-67.61 45.69-299.63 53.14-426.49 53.68"/>
            <path d="m4150.42 529.17-10.01-3.47 9.99-3.53z"/>
        </g>
        <g stroke="#000" class="edge">
            <path fill="none" d="M4117.88 255.24c-19.72 9.78-45.03 22.35-66.23 32.87"/>
            <path d="m4053.49 291.11-10.52 1.31 7.4-7.58z"/>
        </g>
        <g stroke="#000" class="edge">
            <path fill="none" d="M4184.07 255.06c20.79 9.97 47.69 22.86 69.98 33.55"/>
            <path d="m4255.38 285.36 7.5 7.48-10.53-1.17z"/>
        </g>
        <g stroke="#000" class="edge">
            <path fill="none" d="M4149.44 256.17c-1.61 18.25-5.37 47.74-13.86 71.83-12.71 36.08-35.42 73.93-51.52 98.4"/>
            <path d="m4087.14 428.09-8.47 6.36 2.65-10.26z"/>
        </g>
        <g stroke="#000" class="edge">
            <path fill="none" d="M4145.95 256.18c-6.37 20.27-19.8 53.51-43.37 71.82-104.18 80.95-158.87 44.94-288 72-187.08 39.21-234.17 49.63-424 72-239.32 28.21-300.81 16.54-541 36-33.35 2.7-70.16 6.14-101.61 9.22"/>
            <path d="m2748.44 520.69-10.3-2.5 9.61-4.47z"/>
        </g>
        <g stroke="#000" class="edge">
            <path fill="none" d="M4230.07 247.22c57.54 7.78 128.27 21.76 146.51 44.78 37.4 47.19 49.09 103.99-44 180-8.91 7.27-310.68 32.97-465.42 45.72"/>
            <path d="m3867.59 521.2-10.25-2.67 9.68-4.31z"/>
        </g>
        <g stroke="#000" class="edge">
            <path fill="none" d="M857.44 328.3c-.46 18.89 1.21 49.42 14.14 71.7 26.06 44.91 43.09 54.58 92 72 93.6 33.33 1688.8 30.48 1788 36 34.32 1.91 72.11 5.15 104.61 8.3"/>
            <path d="m2856.33 512.8 9.61 4.46-10.29 2.5z"/>
        </g>
        <g stroke="#000" class="edge">
            <path fill="none" d="m824.33 327.77-65.05 31.84"/>
            <path d="m760.94 362.69-10.52 1.26 7.44-7.54z"/>
        </g>
        <g class="node" transform="translate(4 544)">
            <ellipse cx="364.58" cy="-162" fill="none" stroke="#000" rx="80.01" ry="18"/>
            <text x="364.58" y="-156.95" font-family="Times,serif" font-size="14" text-anchor="middle">:library:koin-room</text>
        </g>
        <g stroke="#000" class="edge">
            <path fill="none" d="M763.82 322.89c-99.45 12.59-249.13 31.89-306.24 41.11-6.37 1.03-12.98 2.16-19.59 3.34"/>
            <path d="m438.86 370.74-10.47-1.65 9.21-5.23z"/>
        </g>
        <g class="node" transform="translate(4 544)">
            <ellipse cx="523.58" cy="-162" fill="none" stroke="#000" rx="60.56" ry="18"/>
            <text x="523.58" y="-156.95" font-family="Times,serif" font-size="14" text-anchor="middle">:library:room</text>
        </g>
        <g stroke="#000" class="edge">
            <path fill="none" d="M784.45 325.28c-52.33 10.26-124.03 24.71-186.87 38.72-4.34.97-8.82 1.99-13.33 3.04"/>
            <path d="m585.09 370.44-10.53-1.1 8.92-5.71z"/>
        </g>
        <g stroke="#000" class="edge">
            <path fill="none" d="M1728.19 394.86c17.86 1.78 36.12 3.55 53.39 5.14 194.5 17.89 243.49 18.22 438 36 19.48 1.78 40.22 3.78 60.25 5.77"/>
            <path d="m2280.09 438.27 9.6 4.48-10.3 2.49z"/>
        </g>
        <g class="node" transform="translate(4 544)">
            <ellipse cx="1473.58" cy="-90" fill="none" stroke="#000" rx="93.32" ry="18"/>
            <text x="1473.58" y="-84.95" font-family="Times,serif" font-size="14" text-anchor="middle">:library:koin-datastore</text>
        </g>
        <g stroke="#000" class="edge">
            <path fill="none" d="M1581.42 399.95c-18.62 9.5-42.02 21.46-61.9 31.62"/>
            <path d="m1521.34 434.57-10.5 1.43 7.31-7.66z"/>
        </g>
        <g stroke="#000" class="edge">
            <path fill="none" d="M497.15 323.3c-87.35 12.85-210.49 32.28-217.57 40.7-10.3 12.25-10.65 24.06 0 36 46.59 52.26 243.87 24.94 313 36 78.41 12.55 96.08 27.24 175 36 438.27 48.63 1543.7 11.92 1984 36 34.32 1.88 72.11 5.11 104.61 8.26"/>
            <path d="m2856.34 512.76 9.6 4.46-10.29 2.51z"/>
        </g>
        <g stroke="#000" class="edge">
            <path fill="none" d="M670.68 323.23c15.59 1.86 31.71 3.55 46.9 4.77 471.65 37.82 592.88-7.89 1064 36 9.28.86 18.96 2 28.57 3.27"/>
            <path d="m1810.45 363.78 9.43 4.84-10.39 2.09z"/>
        </g>
        <g stroke="#000" class="edge">
            <path fill="none" d="M534.52 326.97c-33.1 10.78-76.82 25.02-111.08 36.17"/>
            <path d="m424.71 366.41-10.6-.24 8.43-6.42z"/>
        </g>
        <g stroke="#000" class="edge">
            <path fill="none" d="M569.74 328.3c-6.54 8.18-14.48 18.1-21.69 27.12"/>
            <path d="m550.8 357.57-8.98 5.63 3.52-10z"/>
        </g>
        <g stroke="#000" class="edge">
            <path fill="none" d="M1278.32 399.97c18.3 9.57 40.72 22.34 59.26 36.03 18.72 13.82 16.45 27.23 38 36 128.46 52.26 2357.5 28.94 2496 36 38.54 1.96 81.28 5.56 116.82 8.93"/>
            <path d="m3988.54 513.43 9.62 4.45-10.29 2.52z"/>
        </g>
        <g stroke="#000" class="edge">
            <path fill="none" d="M1234.68 400.3c-3.97 7.72-8.73 16.99-13.16 25.59"/>
            <path d="m1224.75 427.26-7.68 7.29 1.46-10.49z"/>
        </g>
        <g stroke="#000" class="edge">
            <path fill="none" d="M1298.15 399.32c35.89 10.74 82.86 24.79 119.75 35.83"/>
            <path d="m1418.48 431.67 8.58 6.22-10.59.48z"/>
        </g>
        <g stroke="#000" class="edge">
            <path fill="none" d="M272.79 327.82c-13.93 8.71-28.49 20.78-36.21 36.18-7.17 14.3-7.83 22.05 0 36 30.07 53.57 58.98 54.94 118 72 127.94 36.99 2264.01 28.93 2397 36 34.32 1.82 72.11 5.05 104.61 8.21"/>
            <path d="m2856.34 512.71 9.61 4.46-10.3 2.5z"/>
        </g>
        <g stroke="#000" class="edge">
            <path fill="none" d="M278.86 327.93c-12.37 8.99-25.53 21.26-32.28 36.07-6.64 14.56-9.95 23.47 0 36 16.09 20.27 72.76 33.52 125.45 41.7"/>
            <path d="m372.33 438.2 9.37 4.94-10.4 1.99z"/>
        </g>
        <g stroke="#000" class="edge">
            <path fill="none" d="m322.66 328.3 23.52 27"/>
            <path d="m348.75 352.92 3.93 9.83-9.21-5.24z"/>
        </g>
        <g stroke="#000" class="edge">
            <path fill="none" d="M358.05 327.06c35.53 11.3 82.9 26.38 118.54 37.72"/>
            <path d="m477.34 361.34 8.47 6.37-10.59.3z"/>
        </g>
        <g stroke="#000" class="edge">
            <path fill="none" d="M4702.29 174.1c135.84 13.08 424.9 40.91 568.58 54.74"/>
            <path d="m5271.09 225.35 9.62 4.44-10.29 2.53z"/>
        </g>
        <g stroke="#000" class="edge">
            <path fill="none" d="M4644.33 184.01c20.71 21.09 59.28 56.17 100.25 71.99 48.37 18.68 363.96 38.15 533.56 47.43"/>
            <path d="m5278.29 299.94 9.8 4.04-10.18 2.95z"/>
        </g>
        <g stroke="#000" class="edge">
            <path fill="none" d="M4690.22 178.09c68.47 12.32 179.01 32.21 252.42 45.43"/>
            <path d="m4942.93 220.01 9.22 5.22-10.46 1.67z"/>
        </g>
        <g stroke="#000" class="edge">
            <path fill="none" d="M4633.91 184.36c7.36 20.76 22.74 54.82 48.67 71.64 53.55 34.75 221.78 27.13 285 36 187.08 26.26 407.64 61.56 513.35 78.74"/>
            <path d="m5481.22 367.24 9.3 5.06-10.43 1.85z"/>
        </g>
        <g stroke="#000" class="edge">
            <path fill="none" d="M4626.79 184.41c-1.03 20.18.7 53.01 19.79 71.59 66.93 65.12 117.19 10.44 207 36 82.47 23.48 101.39 35.53 179 72 60.83 28.59 98.6 14.25 133 72 8.19 13.75 10.49 23.92 0 36-38.21 43.99-203.25 52.47-301.19 53.53"/>
            <path d="m4864.62 529.03-10.03-3.42 9.97-3.58z"/>
        </g>
        <g stroke="#000" class="edge">
            <path fill="none" d="M4671.55 181.67c31.68 10.82 74.96 25.6 108.83 37.16"/>
            <path d="m4781.25 215.43 8.33 6.55-10.59.08z"/>
        </g>
        <g stroke="#000" class="edge">
            <path fill="none" d="M4617.04 184.16c-37.84 54.55-164.57 224.13-318.46 287.84-58.65 24.28-976.68 45.12-1270.97 51.21"/>
            <path d="m3027.74 526.7-10.07-3.29 9.92-3.7z"/>
        </g>
        <g stroke="#000" class="edge">
            <path fill="none" d="M4622.87 184.21c-5.17 18.81-10.3 49.27 1.71 71.79 40.55 76.03 120.45 31.97 161 108 23.14 43.39 14.77 77.75-24 108-47.25 36.86-437.02 48.4-611.78 51.74"/>
            <path d="m4149.93 527.24-10.06-3.31 9.93-3.69z"/>
        </g>
        <g stroke="#000" class="edge">
            <path fill="none" d="M4707.51 171.04c176.09 9.19 596.66 32.16 738.07 48.96 7.63.91 15.58 2.01 23.49 3.22"/>
            <path d="m5469.38 219.73 9.33 5.02-10.43 1.89z"/>
        </g>
        <g stroke="#000" class="edge">
            <path fill="none" d="M4569.99 178.93c-10.75 1.91-21.89 3.7-32.41 5.07-107.61 13.99-397.83-25.85-487 36-19.98 13.86-30.43 39.99-35.77 60.37"/>
            <path d="m4018.23 281.13-5.66 8.96-1.16-10.53z"/>
        </g>
        <g stroke="#000" class="edge">
            <path fill="none" d="M4567.9 178.44a6058 6058 0 0 1-30.32 5.56c-91.46 16.53-134-22.77-206 36-18.19 14.85-26.97 40.46-31.18 60.41"/>
            <path d="m4303.86 280.95-5.22 9.22-1.67-10.46z"/>
        </g>
        <g stroke="#000" class="edge">
            <path fill="none" d="M5664.68 178.48c-8.69 1.9-17.65 3.8-26.1 5.52-85.5 17.41-107.24 19.9-193 36-6.21 1.17-12.66 2.38-19.12 3.6"/>
            <path d="m5427.57 226.95-10.48-1.59 9.18-5.29z"/>
        </g>
        <g stroke="#000" class="edge">
            <path fill="none" d="M5725.76 184.24c10.15 19.7 21.96 51.78 4.82 71.76-29.76 34.67-144.17 46.89-233.18 51.07"/>
            <path d="m5497.79 310.56-10.15-3.06 9.84-3.93z"/>
        </g>
        <g stroke="#000" class="edge">
            <path fill="none" d="M5666.47 178.86c-9.23 1.94-18.82 3.76-27.89 5.14-99.3 15.13-381.2 36.19-528.61 46.62"/>
            <path d="m5110.46 234.1-10.22-2.79 9.72-4.2z"/>
        </g>
        <g stroke="#000" class="edge">
            <path fill="none" d="M5784.48 166.22c98.82.51 273.31 8.08 313.1 53.78 10.51 12.07 7.61 21.93 0 36-27.79 51.4-55.1 52.01-110 72-67.21 24.47-267.74 41.18-374.82 48.61"/>
            <path d="m5613.17 380.09-10.22-2.8 9.74-4.18z"/>
        </g>
        <g stroke="#000" class="edge">
            <path fill="none" d="M5784.16 168.07c160.31 3.13 549.44 14.54 594.42 51.93 31.5 26.19 24 48.03 24 89v74c0 62.89-51.1 66.98-110 89-134.32 50.22-1145.49 53.27-1428.56 53.13"/>
            <path d="m4864.19 528.63-10-3.5 10-3.5z"/>
        </g>
        <g stroke="#000" class="edge">
            <path fill="none" d="M5666.92 179.03c-9.36 1.95-19.11 3.73-28.34 4.97-316.22 42.54-400.25-2.35-717 36-6.71.81-13.68 1.84-20.62 2.98"/>
            <path d="m4901.67 226.41-10.45-1.74 9.25-5.16z"/>
        </g>
        <g stroke="#000" class="edge">
            <path fill="none" d="M5769.58 177.47c12.76 2.31 26.34 4.63 39 6.53 67.71 10.16 260.5-15.17 306 36 36.49 41.04-42.52 100.92-53 108-106.1 71.72-152.47 52.23-279 72-137.67 21.51-1112.8 65.68-1252 72-572.46 25.98-1261.18 44.61-1503.46 50.78"/>
            <path d="m3027.52 526.27-10.08-3.24 9.91-3.76z"/>
        </g>
        <g stroke="#000" class="edge">
            <path fill="none" d="M5783.53 169.27c113.18 4.67 334.81 17.81 405.05 50.73 78.63 36.85 132.64 114.17 76 180-139.83 162.53-263.47 52.67-477 72-82.25 7.45-1304.51 41.5-1638.31 50.7"/>
            <path d="m4149.38 526.2-10.1-3.22 9.9-3.78z"/>
        </g>
        <g stroke="#000" class="edge">
            <path fill="none" d="M5679.52 181.67c-25.22 10.27-59.21 24.1-86.89 35.37"/>
            <path d="m5593.96 220.27-10.58.53 7.94-7.01z"/>
        </g>
        <g stroke="#000" class="edge">
            <path fill="none" d="M5707.12 184.15c-11.53 21.23-34.36 56.47-65.54 71.85-56.68 27.96-978.41 46.52-1262.38 51.59"/>
            <path d="m4379.34 311.09-10.06-3.32 9.93-3.68z"/>
        </g>
        <g stroke="#000" class="edge">
            <path fill="none" d="M5499.98 182.36c-27.66 10.47-64.48 24.4-94.01 35.57"/>
            <path d="m5407.45 221.11-10.59.27 8.12-6.81z"/>
        </g>
        <g stroke="#000" class="edge">
            <path fill="none" d="M5609.13 177.76c61.93 12.59 138.42 37.14 103.45 78.24-27.57 32.4-132.49 45.05-216.15 49.96"/>
            <path d="m5496.73 309.45-10.18-2.94 9.79-4.05z"/>
        </g>
        <g stroke="#000" class="edge">
            <path fill="none" d="M5468.13 176.7c-96.4 12.9-266.45 35.66-367.8 49.22"/>
            <path d="m5100.8 229.39-10.37-2.14 9.45-4.8z"/>
        </g>
        <g stroke="#000" class="edge">
            <path fill="none" d="M5603.85 178.95c11.21 1.87 22.79 3.65 33.73 5.05 48.87 6.26 408.6-.23 442 36 10.84 11.76 9.95 23.47 0 36-57.72 72.73-336.69 107.07-467.73 119.4"/>
            <path d="m5612.56 378.84-10.28-2.56 9.64-4.41z"/>
        </g>
        <g stroke="#000" class="edge">
            <path fill="none" d="M5603.3 179.09c11.37 1.88 23.16 3.62 34.28 4.91 69.32 8.04 579.09-14.74 627 36 76.89 81.43 77.76 171.39 0 252-49.04 50.84-1108.83 53.41-1400.36 53.15"/>
            <path d="m4864.46 528.66-9.99-3.52 10-3.48z"/>
        </g>
        <g stroke="#000" class="edge">
            <path fill="none" d="M5455.41 171.44c-119.64 6.89-344.07 22.18-533.83 48.56-6.42.89-13.08 1.94-19.73 3.08"/>
            <path d="m4902.66 226.49-10.46-1.7 9.24-5.19z"/>
        </g>
        <g stroke="#000" class="edge">
            <path fill="none" d="M5591.19 181.09c19.25 8.09 39.22 20.44 50.39 38.91 8.28 13.69 10.75 24.15 0 36-27.44 30.28-325.6 29.87-366 36-391.67 59.47-479.68 132.67-873 180-135.97 16.36-1078.86 42.67-1375.72 50.64"/>
            <path d="m3027.33 526.13-10.09-3.23 9.91-3.77z"/>
        </g>
        <g stroke="#000" class="edge">
            <path fill="none" d="M5603.84 179.01c11.21 1.86 22.8 3.62 33.74 4.99 137.95 17.25 613-14.03 613 125v74c0 206.5-718.99 74.77-925 89-442.45 30.57-973.61 45.95-1176.07 51.03"/>
            <path d="m4149.69 526.53-10.08-3.25 9.91-3.75z"/>
        </g>
        <g stroke="#000" class="edge">
            <path fill="none" d="M5541.32 184.3c.31 7.29.69 15.97 1.04 24.16"/>
            <path d="m5545.85 208.24-3.07 10.14-3.92-9.84z"/>
        </g>
        <g stroke="#000" class="edge">
            <path fill="none" d="M5603.84 178.98c11.21 1.87 22.8 3.64 33.74 5.02 50.86 6.43 425.19-1.64 460 36 10.86 11.75 7.61 21.93 0 36-81.35 150.46-440.23 139.25-485 144-14.96 1.59-1908.02 41.35-2365.38 50.93"/>
            <path d="m3247.28 454.43-10.07-3.29 9.92-3.71z"/>
        </g>
        <g stroke="#000" class="edge">
            <path fill="none" d="M5455.2 171.3c-244.3 12.3-945.25 47.6-1205.65 60.72"/>
            <path d="m4249.9 235.5-10.16-2.99 9.81-4z"/>
        </g>
        <g class="node" transform="translate(4 544)">
            <ellipse cx="5951.58" cy="-306" fill="none" stroke="#000" rx="115.33" ry="18"/>
            <text x="5951.58" y="-300.95" font-family="Times,serif" font-size="14" text-anchor="middle">:app:core:calendar-compose</text>
        </g>
        <g stroke="#000" class="edge">
            <path fill="none" d="M5606.05 178.55c10.54 1.84 21.33 3.71 31.53 5.45 77.42 13.24 165.51 27.89 229.31 38.42"/>
            <path d="m5867.32 218.95 9.3 5.08-10.44 1.82z"/>
        </g>
        <g stroke="#000" class="edge">
            <path fill="none" d="M5107.7 179.35c50.84 11.83 127.67 29.69 182.3 42.4"/>
            <path d="m5290.54 218.28 8.94 5.67-10.53 1.15z"/>
        </g>
        <g stroke="#000" class="edge">
            <path fill="none" d="M5110.5 178.8c33.78 8.52 76.94 21.95 112.08 41.2 21.86 11.98 21.84 22.84 43 36 20.68 12.86 45.02 24.23 66.36 33.1"/>
            <path d="m5333.11 285.8 7.95 7.01-10.58-.52z"/>
        </g>
        <g stroke="#000" class="edge">
            <path fill="none" d="M5045.43 184.3c-4.07 7.72-8.97 16.99-13.52 25.59"/>
            <path d="m5035.1 211.35-7.77 7.21 1.58-10.48z"/>
        </g>
        <g stroke="#000" class="edge">
            <path fill="none" d="M5102.82 180.46c25.8 8.67 57.22 21.69 81.76 39.54 50.76 36.92 36.94 76.11 91 108 60.29 35.56 140.13 47.74 196.95 51.67"/>
            <path d="m5472.65 376.17 9.77 4.11-10.2 2.88z"/>
        </g>
        <g stroke="#000" class="edge">
            <path fill="none" d="M5096.06 181.48c18.25 8.45 38.29 20.98 50.52 38.52 64.75 92.86 111.5 166.77 37 252-20.79 23.79-213.83 40.71-321.4 48.38"/>
            <path d="m4862.5 523.87-10.22-2.79 9.73-4.19z"/>
        </g>
        <g stroke="#000" class="edge">
            <path fill="none" d="M5010.12 181.08c-34.87 11.05-83.61 26.49-121.05 38.34"/>
            <path d="m4890.38 222.68-10.59-.32 8.47-6.35z"/>
        </g>
        <g stroke="#000" class="edge">
            <path fill="none" d="M4980.7 171.42c-64.2 5.75-158.78 18.86-236.12 48.58-195.43 75.1-198.05 189.92-398 252-63.01 19.56-1019.29 43.77-1319.52 50.92"/>
            <path d="m3027.4 526.41-10.08-3.26 9.91-3.74z"/>
        </g>
        <g stroke="#000" class="edge">
            <path fill="none" d="M5081.14 183.2c12.33 9.12 25.71 21.71 32.44 36.8 6.52 14.61 3.62 20.41 0 36-24.18 104.17-16.87 156.91-106 216-35.48 23.52-634.52 43.79-858.44 50.58"/>
            <path d="m4149.42 526.07-10.1-3.19 9.89-3.8z"/>
        </g>
        <g stroke="#000" class="edge">
            <path fill="none" d="M5121.45 175.3c77.94 9.85 210.56 27.16 324.13 44.7 6.94 1.07 14.15 2.23 21.37 3.43"/>
            <path d="m5467.49 219.97 9.29 5.1-10.45 1.8z"/>
        </g>
        <g stroke="#000" class="edge">
            <path fill="none" d="M4984.48 173.83c-69.89 7.74-179.92 22.45-272.9 46.17-119.11 30.38-465.46 162.99-595.7 213.43"/>
            <path d="m4117.42 436.59-10.59.35 8.06-6.88z"/>
        </g>
        <g stroke="#000" class="edge">
            <path fill="none" d="M4980.07 170.79c-67.89 3.45-170.92 8.68-260.49 13.21-347.34 17.57-759.26 38.32-947.65 47.8"/>
            <path d="m3772.34 235.28-10.17-2.99 9.82-4z"/>
        </g>
        <g stroke="#000" class="edge">
            <path fill="none" d="M4503.75 179.01c11.22 1.9 22.85 3.67 33.83 4.99 254.66 30.64 320.06 19.01 576 36 51.14 3.39 108.34 7.4 154.29 10.67"/>
            <path d="m5268.06 227.18 9.72 4.2-10.22 2.78z"/>
        </g>
        <g stroke="#000" class="edge">
            <path fill="none" d="M4484.51 182.18c28.98 10.52 68.41 24.92 103.07 37.82 42.32 15.75 50.92 26.2 95 36 110.01 24.45 425.49 41.15 593.93 48.6"/>
            <path d="m5276.54 301.09 9.84 3.94-10.15 3.06z"/>
        </g>
        <g stroke="#000" class="edge">
            <path fill="none" d="M4504.55 178.86c10.98 1.88 22.32 3.68 33.03 5.14 170.29 23.16 214.71 12.84 385 36 6.97.95 14.21 2.04 21.45 3.21"/>
            <path d="m4944.57 219.75 9.29 5.1-10.44 1.81z"/>
        </g>
        <g stroke="#000" class="edge">
            <path fill="none" d="M4473.16 183.11c39.15 19.97 109.58 53.72 173.42 72.89 89.43 26.86 116.27 13.89 207 36 51.62 12.58 61.91 25.51 114 36 179.7 36.21 395.99 47.73 505.32 51.36"/>
            <path d="m5472.71 375.85 9.88 3.81-10.11 3.18z"/>
        </g>
        <g stroke="#000" class="edge">
            <path fill="none" d="M4475.27 182.95c110.98 54.28 467.23 229.79 481.31 253.05 8.28 13.69 9.44 23.08 0 36-21.5 29.43-59.52 42.9-93.75 48.91"/>
            <path d="m4863.78 524.3-10.42-1.92 9.35-4.99z"/>
        </g>
        <g stroke="#000" class="edge">
            <path fill="none" d="M4506.27 178.4c69.98 12.53 182.14 32.61 255.28 45.7"/>
            <path d="m4761.78 220.59 9.22 5.21-10.46 1.68z"/>
        </g>
        <g stroke="#000" class="edge">
            <path fill="none" d="M4357.86 169.52c-100.84 4.47-273.76 16.77-418.28 50.48-319.57 74.55-376.32 169.76-694 252-76.52 19.81-165.7 34.24-228.34 42.99"/>
            <path d="m3017.75 518.46-10.39-2.11 9.43-4.83z"/>
        </g>
        <g stroke="#000" class="edge">
            <path fill="none" d="M4459.99 183.97c20.69 19.44 56.91 51.29 92.59 72.03 92.1 53.55 161.17 15.48 214 108 25.23 44.19 4.49 80.01-38 108-47.32 31.17-411.77 45.7-579.28 50.78"/>
            <path d="m4149.44 526.28-10.1-3.2 9.89-3.8z"/>
        </g>
        <g stroke="#000" class="edge">
            <path fill="none" d="M4503.22 179.13c11.37 1.91 23.2 3.66 34.36 4.87 401.5 43.67 506.38-6.61 908 36 7.76.82 15.84 1.89 23.87 3.08"/>
            <path d="m5469.92 219.61 9.34 4.99-10.42 1.92z"/>
        </g>
        <g stroke="#000" class="edge">
            <path fill="none" d="M4361.83 172.47c-104.83 7.91-281.55 24.17-342.25 47.53-52.13 20.06-77.19 22.47-103 72-7.39 14.19-7.43 21.83 0 36 13.05 24.9 30.04 18.46 52 36 25.55 20.41 52.84 45.81 71.95 64.24"/>
            <path d="m4042.88 425.64 4.73 9.48-9.61-4.46z"/>
        </g>
        <g stroke="#000" class="edge">
            <path fill="none" d="M4362.47 173.01c-119.13 9.12-349.99 27.45-545.89 46.99-18.52 1.85-38.33 4-57.23 6.14"/>
            <path d="m3759.87 229.6-10.34-2.34 9.54-4.61z"/>
        </g>
        <g class="node" transform="translate(4 544)">
            <ellipse cx="1822.58" cy="-90" fill="none" stroke="#000" rx="106.11" ry="18"/>
            <text x="1822.58" y="-84.95" font-family="Times,serif" font-size="14" text-anchor="middle">:library:firebase-common</text>
        </g>
        <g stroke="#000" class="edge">
            <path fill="none" d="M2063.19 397.42c-47.91 11.25-114.58 26.91-164.94 38.74"/>
            <path d="m1899.13 439.55-10.54-1.12 8.94-5.69z"/>
        </g>
        <g stroke="#000" class="edge">
            <path fill="none" d="M1817.21 394.35c-65.31 12.83-143.78 37.34-105.63 77.65 29.95 31.65 650.08 46.94 877.41 51.49"/>
            <path d="m2589.04 519.99 9.93 3.7-10.07 3.3z"/>
        </g>
        <g stroke="#000" class="edge">
            <path fill="none" d="M551.82 467.06c15.15 1.96 30.92 3.74 45.76 4.94 397.13 32.2 1656.83 48.33 1991.62 52.11"/>
            <path d="m2588.78 520.61 9.96 3.61-10.04 3.39z"/>
        </g>
        <g stroke="#000" class="edge">
            <path fill="none" d="M635.62 394.58C529.46 409.97 355.16 435.33 354.58 436c-10.46 12.11-11.18 24.56 0 36 39.84 40.76 1825.05 50.89 2234.1 52.68"/>
            <path d="m2588.59 521.18 9.99 3.54-10.02 3.46z"/>
        </g>
        <g stroke="#000" class="edge">
            <path fill="none" d="M573.05 394.23c85.05 20.36 274.27 62.67 436.53 77.77 633.31 58.94 2226.74 4.22 2862 36 38.54 1.93 81.29 5.52 116.82 8.9"/>
            <path d="m3988.54 513.4 9.62 4.45-10.29 2.52z"/>
        </g>
        <g stroke="#000" class="edge">
            <path fill="none" d="M5869.9 250.43a8887 8887 0 0 1-43.32 5.57c-119.78 15.09-257.98 31.54-347.28 42.05"/>
            <path d="m5479.96 301.5-10.35-2.31 9.53-4.64z"/>
        </g>
        <g stroke="#000" class="edge">
            <path fill="none" d="M5909.52 254.88c-78.32 26.99-236.71 81.58-316.96 109.24"/>
            <path d="m5593.79 367.4-10.59-.06 8.31-6.56z"/>
        </g>
        <g stroke="#000" class="edge">
            <path fill="none" d="M5927.33 255.68c-57.27 33.04-192.07 106.83-314.75 144.32-199.16 60.86-255.82 50.89-463 72-371.38 37.85-817.2 48.86-999.79 51.9"/>
            <path d="m4149.98 527.4-10.06-3.34 9.95-3.66z"/>
        </g>
    </g>
</svg>
