<svg xmlns="http://www.w3.org/2000/svg" width="9816" height="620pt" viewBox="0 0 7362 620">
    <g class="graph">
        <path fill="#fff" d="M0 620V0h7362v620z"/>
        <g class="node" transform="translate(4 616)">
            <ellipse cx="1305" cy="-594" fill="none" stroke="#000" rx="92.3" ry="18"/>
            <text x="1305" y="-588.95" font-family="Times,serif" font-size="14" text-anchor="middle">:app:platform:android</text>
        </g>
        <g class="node" transform="translate(4 616)">
            <ellipse cx="4182" cy="-522" fill="none" stroke="#000" rx="97.41" ry="18"/>
            <text x="4182" y="-516.95" font-family="Times,serif" font-size="14" text-anchor="middle">:app:platform:common</text>
        </g>
        <g stroke="red" stroke-width="2" class="edge">
            <path fill="none" d="M1400.26 25.22c426.16 10.37 2218.99 53.99 2678.22 65.16"/>
            <path fill="red" d="m4076.79 86.84 9.91 3.74-10.08 3.26z"/>
        </g>
        <g class="node" transform="translate(4 616)">
            <ellipse cx="1491" cy="-162" fill="none" stroke="#000" rx="95.88" ry="18"/>
            <text x="1491" y="-156.95" font-family="Times,serif" font-size="14" text-anchor="middle">:app:core:diary-service</text>
        </g>
        <g stroke="#000" class="edge">
            <path fill="none" d="M1295.98 40.29c-6.91 9.96-14.98 23-19.98 35.71-40.97 104.24-50.47 152.02 0 252 29.21 57.86 97.88 90.6 150.6 107.93"/>
            <path d="m1427.32 432.49 8.49 6.35-10.59.32z"/>
        </g>
        <g class="node" transform="translate(4 616)">
            <ellipse cx="3235" cy="-90" fill="none" stroke="#000" rx="104.58" ry="18"/>
            <text x="3235" y="-84.95" font-family="Times,serif" font-size="14" text-anchor="middle">:app:core:holiday-service</text>
        </g>
        <g stroke="#000" class="edge">
            <path fill="none" d="M1305.16 40.39C1299.6 67.06 1290 119.73 1290 165v74c0 189.58 209.46 122.07 395 161 146.85 30.82 1213.47-26.25 1350 36 19.75 9 14.66 24.38 33 36 27.24 17.26 60.49 29.23 90.4 37.37"/>
            <path d="m3159 505.91 8.79 5.91-10.56.86z"/>
        </g>
        <g class="node" transform="translate(4 616)">
            <ellipse cx="3995" cy="-162" fill="none" stroke="#000" rx="74.89" ry="18"/>
            <text x="3995" y="-156.95" font-family="Times,serif" font-size="14" text-anchor="middle">:app:domain:fcm</text>
        </g>
        <g stroke="#000" class="edge">
            <path fill="none" d="M1314.34 40.38c14.82 44.9 61.13 164.8 146.66 215.62 58.19 34.57 2362.75 172.34 2430 180 12.06 1.37 24.83 3.12 37.2 4.97"/>
            <path d="m3928.57 437.49 9.36 4.97-10.42 1.94z"/>
        </g>
        <g stroke="#000" class="edge">
            <path fill="none" d="M4088.38 94.65C3672.63 93.5 2060.85 92.67 1841 148c-84.62 21.3-175 1.74-175 89v74c0 61.06-65.34 100.89-115.24 122.41"/>
            <path d="m1552.35 436.54-10.58.6 7.9-7.07z"/>
        </g>
        <g stroke="#000" class="edge">
            <path fill="none" d="M4088.48 95.01c-336.59.47-1437.26 5.64-1588.48 52.99-56.12 17.57-72.05 27.94-111 72-33.42 37.8-68.68 70.43-35 108 49.1 54.76 263.39 2.76 329 36 19.36 9.81 13.6 26.26 33 36 140.54 70.57 207.12-25.16 352 36 22.96 9.69 21.68 23.08 43 36 21.93 13.29 47.8 24.7 70.51 33.5"/>
            <path d="m3182.51 502.13 8.12 6.81-10.59-.26z"/>
        </g>
        <g stroke="#000" class="edge">
            <path fill="none" d="M4101.73 103.37C4043.5 111.1 3973.36 124.95 3955 148c-66.05 82.93-3.48 220.23 28.16 278.03"/>
            <path d="m3986.1 424.11 1.84 10.44-7.95-7.02z"/>
        </g>
        <g class="node" transform="translate(4 616)">
            <ellipse cx="5881" cy="-306" fill="none" stroke="#000" rx="81.04" ry="18"/>
            <text x="5881" y="-300.95" font-family="Times,serif" font-size="14" text-anchor="middle">:app:core:compose</text>
        </g>
        <g stroke="#000" class="edge">
            <path fill="none" d="M4282.74 96.61c249.79 4.57 912.03 19.41 1129.26 51.39 128.4 18.9 160.8 28.28 283 72 53.45 19.12 112.24 47.95 150.06 67.57"/>
            <path d="m5846.56 284.41 7.24 7.74-10.48-1.53z"/>
        </g>
        <g class="node" transform="translate(4 616)">
            <ellipse cx="6187" cy="-162" fill="none" stroke="#000" rx="101" ry="18"/>
            <text x="6187" y="-156.95" font-family="Times,serif" font-size="14" text-anchor="middle">:app:core:design-system</text>
        </g>
        <g stroke="#000" class="edge">
            <path fill="none" d="M4283.19 95.73C4648.38 98.74 5921.66 111.8 6000 148c19.65 9.08 170.51 198.54 178 216 8.15 19.01 11.35 42.17 12.54 60.1"/>
            <path d="m6194.03 423.89-3.03 10.16-3.96-9.83z"/>
        </g>
        <g class="node" transform="translate(4 616)">
            <ellipse cx="6409" cy="-306" fill="none" stroke="#000" rx="86.67" ry="18"/>
            <text x="6409" y="-300.95" font-family="Times,serif" font-size="14" text-anchor="middle">:app:core:navigation</text>
        </g>
        <g stroke="#000" class="edge">
            <path fill="none" d="M4283.51 95.68C4652.94 98.52 5954.93 111.08 6137 148c86.06 17.45 110.11 24.54 184 72 27.24 17.5 53.27 43.9 70.65 63.41"/>
            <path d="m6394.06 280.86 3.94 9.83-9.21-5.23z"/>
        </g>
        <g class="node" transform="translate(4 616)">
            <ellipse cx="6514" cy="-90" fill="none" stroke="#000" rx="59.54" ry="18"/>
            <text x="6514" y="-84.95" font-family="Times,serif" font-size="14" text-anchor="middle">:library:color</text>
        </g>
        <g stroke="#000" class="edge">
            <path fill="none" d="M4283.65 95.24c441.51 1.32 2240.3 9.35 2488.35 52.76 173.82 30.42 274.72-4.52 370 144 65.16 101.57-390.66 192.39-561.3 222.48"/>
            <path d="m6581.34 517.92-10.45-1.72 9.24-5.17z"/>
        </g>
        <g class="node" transform="translate(4 616)">
            <ellipse cx="5696" cy="-18" fill="none" stroke="#000" rx="62.1" ry="18"/>
            <text x="5696" y="-12.95" font-family="Times,serif" font-size="14" text-anchor="middle">:library:kotlin</text>
        </g>
        <g stroke="#000" class="edge">
            <path fill="none" d="M4283.84 94.61C4707.06 93.29 6382.38 91.78 6906 148c203.58 21.86 452-115.75 452 89v218c0 61.86-49.2 66.98-107 89-138.75 52.86-1188.49 53.98-1477.53 53.28"/>
            <path d="m5773.8 600.78-9.99-3.53 10.01-3.47z"/>
        </g>
        <g class="node" transform="translate(4 616)">
            <ellipse cx="6866" cy="-306" fill="none" stroke="#000" rx="79.5" ry="18"/>
            <text x="6866" y="-300.95" font-family="Times,serif" font-size="14" text-anchor="middle">:library:navigation</text>
        </g>
        <g stroke="#000" class="edge">
            <path fill="none" d="M4283.55 94.67C4717.44 93.54 6461.15 92.51 6699 148c73.58 17.17 107.61 12.36 154 72 13.29 17.09 17.21 41.53 17.98 60.48"/>
            <path d="m6874.48 280.17-3.38 10.04-3.62-9.96z"/>
        </g>
        <g class="node" transform="translate(4 616)">
            <ellipse cx="2072" cy="-18" fill="none" stroke="#000" rx="78.99" ry="18"/>
            <text x="2072" y="-12.95" font-family="Times,serif" font-size="14" text-anchor="middle">:library:coroutines</text>
        </g>
        <g stroke="#000" class="edge">
            <path fill="none" d="M4088.56 95.51C3615.6 98.15 1555.93 111.56 915 148 711.92 159.55 4 33.59 4 237v218c0 54.7 35 66.82 85 89 87.59 38.86 1519.26 50.19 1896.49 52.5"/>
            <path d="m1985.38 593 9.98 3.56-10.02 3.44z"/>
        </g>
        <g class="node" transform="translate(4 616)">
            <ellipse cx="5126" cy="-18" fill="none" stroke="#000" rx="72.85" ry="18"/>
            <text x="5126" y="-12.95" font-family="Times,serif" font-size="14" text-anchor="middle">:library:datetime</text>
        </g>
        <g stroke="#000" class="edge">
            <path fill="none" d="M4282.2 97c273.81 6.98 1037.8 35.77 1037.8 140v74c0 103.83 85.64 155.09 17 233-17.62 20-80.69 34.25-132.63 42.9"/>
            <path d="m5205.07 590.33-10.43-1.86 9.31-5.05z"/>
        </g>
        <g class="node" transform="translate(4 616)">
            <ellipse cx="6641" cy="-306" fill="none" stroke="#000" rx="89.23" ry="18"/>
            <text x="6641" y="-300.95" font-family="Times,serif" font-size="14" text-anchor="middle">:library:shimmer-m3</text>
        </g>
        <g stroke="#000" class="edge">
            <path fill="none" d="M4283.73 95.13c428.92.81 2127.99 6.95 2231.27 52.87 58.96 26.21 99.18 94.9 117.93 133.55"/>
            <path d="m6635.92 279.69 1.09 10.54-7.42-7.56z"/>
        </g>
        <g class="node" transform="translate(4 616)">
            <ellipse cx="4064" cy="-378" fill="none" stroke="#000" rx="71.31" ry="18"/>
            <text x="4064" y="-372.95" font-family="Times,serif" font-size="14" text-anchor="middle">:app:data:memo</text>
        </g>
        <g stroke="#000" class="edge">
            <path fill="none" d="M4171.77 112.13c-20.58 24.76-58.78 70.73-82.65 99.45"/>
            <path d="m4091.97 213.63-9.09 5.46 3.7-9.93z"/>
        </g>
        <g class="node" transform="translate(4 616)">
            <ellipse cx="4076" cy="-306" fill="none" stroke="#000" rx="58.52" ry="18"/>
            <text x="4076" y="-300.95" font-family="Times,serif" font-size="14" text-anchor="middle">:app:data:tag</text>
        </g>
        <g stroke="#000" class="edge">
            <path fill="none" d="M4185.6 112.43c-1.48 31.2-8.14 97.64-37.6 143.57-7.91 12.33-19.7 22.97-31.26 31.42"/>
            <path d="m4119.07 290.07-10.22 2.79 6.25-8.55z"/>
        </g>
        <g class="node" transform="translate(4 616)">
            <ellipse cx="3192" cy="-162" fill="none" stroke="#000" rx="75.92" ry="18"/>
            <text x="3192" y="-156.95" font-family="Times,serif" font-size="14" text-anchor="middle">:app:data:account</text>
        </g>
        <g stroke="#000" class="edge">
            <path fill="none" d="M4089.06 96.5c-306.4 5.02-1241.63 22.55-1375.06 51.5-163.98 35.58-255.68 4.55-349 144-8.9 13.3-10.72 24.12 0 36 52.54 58.2 279.74 3.29 351 36 21.14 9.7 16.85 26.3 38 36 142.93 65.58 196.37 13.39 352 36 7.21 1.05 14.72 2.27 22.2 3.56"/>
            <path d="m3128.75 436.1 9.23 5.2-10.46 1.69z"/>
        </g>
        <g class="node" transform="translate(4 616)">
            <ellipse cx="1550" cy="-378" fill="none" stroke="#000" rx="83.6" ry="18"/>
            <text x="1550" y="-372.95" font-family="Times,serif" font-size="14" text-anchor="middle">:app:data:credential</text>
        </g>
        <g stroke="#000" class="edge">
            <path fill="none" d="M4088.58 95.13C3637.3 95.97 1766.97 102.2 1652 148c-32.36 12.89-60.76 41.72-78.54 63.09"/>
            <path d="m1576.23 213.23-8.99 5.6 3.54-9.98z"/>
        </g>
        <g class="node" transform="translate(4 616)">
            <ellipse cx="2947" cy="-162" fill="none" stroke="#000" rx="74.89" ry="18"/>
            <text x="2947" y="-156.95" font-family="Times,serif" font-size="14" text-anchor="middle">:app:data:holiday</text>
        </g>
        <g stroke="#000" class="edge">
            <path fill="none" d="M4088.49 95.34C3699.68 97.01 2276.92 105.94 2191 148c-45.95 22.49-73 37.84-73 89v74c0 181.69 219.94 58.17 399 89 66.49 11.45 249.92 32.55 355.82 44.38"/>
            <path d="m2873.02 440.89 9.55 4.58-10.33 2.37z"/>
        </g>
        <g class="node" transform="translate(4 616)">
            <ellipse cx="2596" cy="-234" fill="none" stroke="#000" rx="73.87" ry="18"/>
            <text x="2596" y="-228.95" font-family="Times,serif" font-size="14" text-anchor="middle">:app:data:backup</text>
        </g>
        <g stroke="#000" class="edge">
            <path fill="none" d="M4088.88 95.79C3696.93 99.22 2250.97 114.13 2218 148c-57.03 58.59-28.59 132.56 38 180 40.72 29.01 172.56 42.66 260.69 48.69"/>
            <path d="m2516.75 373.19 9.75 4.15-10.21 2.83z"/>
        </g>
        <g class="node" transform="translate(4 616)">
            <ellipse cx="2436" cy="-306" fill="none" stroke="#000" rx="65.68" ry="18"/>
            <text x="2436" y="-300.95" font-family="Times,serif" font-size="14" text-anchor="middle">:app:data:fetch</text>
        </g>
        <g stroke="#000" class="edge">
            <path fill="none" d="M4088.32 94.52C3820.42 93.9 3078.25 96.97 2840 148c-138.9 29.75-291.66 103.86-361.41 140.22"/>
            <path d="m2480.33 291.25-10.48 1.55 7.23-7.75z"/>
        </g>
        <g class="node" transform="translate(4 616)">
            <ellipse cx="1986" cy="-234" fill="none" stroke="#000" rx="62.1" ry="18"/>
            <text x="1986" y="-228.95" font-family="Times,serif" font-size="14" text-anchor="middle">:app:data:fcm</text>
        </g>
        <g stroke="#000" class="edge">
            <path fill="none" d="M4088.7 95.91C3678.21 99.96 2107.06 117.41 2066 148c-64.94 48.37-75.33 153.59-76.38 204.4"/>
            <path d="m1993.12 352.32-3.59 9.97-3.41-10.03z"/>
        </g>
        <g class="node" transform="translate(4 616)">
            <ellipse cx="4459" cy="-450" fill="none" stroke="#000" rx="78.48" ry="18"/>
            <text x="4459" y="-444.95" font-family="Times,serif" font-size="14" text-anchor="middle">:app:data:calendar</text>
        </g>
        <g stroke="red" stroke-width="2" class="edge">
            <path fill="none" d="m4242.06 109.17 158.55 40.06"/>
            <path fill="red" d="m4399.93 145.45 8.83 5.84-10.55.95z"/>
        </g>
        <g class="node" transform="translate(4 616)">
            <ellipse cx="1760" cy="-234" fill="none" stroke="#000" rx="70.29" ry="18"/>
            <text x="1760" y="-228.95" font-family="Times,serif" font-size="14" text-anchor="middle">:app:data:buddy</text>
        </g>
        <g stroke="#000" class="edge">
            <path fill="none" d="M4088.68 95.9c-431.79 4.17-2155.2 22.62-2202.68 52.1-74.16 46.05-105.59 153.26-116.76 204.6"/>
            <path d="m1772.68 353.24-5.44 9.09-1.41-10.5z"/>
        </g>
        <g class="node" transform="translate(4 616)">
            <ellipse cx="4465" cy="-306" fill="none" stroke="#000" rx="84.11" ry="18"/>
            <text x="4465" y="-300.95" font-family="Times,serif" font-size="14" text-anchor="middle">:app:domain:memo</text>
        </g>
        <g stroke="#000" class="edge">
            <path fill="none" d="M4214.72 111.54c14.17 9.28 30.67 21.92 42.28 36.46 32.78 41.04 8.95 72.87 48 108 22.98 20.67 54.12 33.29 83.09 40.99"/>
            <path d="m4388.73 293.54 8.87 5.8-10.55 1z"/>
        </g>
        <g class="node" transform="translate(4 616)">
            <ellipse cx="4799" cy="-234" fill="none" stroke="#000" rx="71.31" ry="18"/>
            <text x="4799" y="-228.95" font-family="Times,serif" font-size="14" text-anchor="middle">:app:domain:tag</text>
        </g>
        <g stroke="#000" class="edge">
            <path fill="none" d="M4223.2 111c23.58 10.28 54.64 24.08 81.8 37 31.95 15.2 37.99 23.28 71 36 170.23 65.59 262.64-16.48 396 108 16.74 15.62 24.44 40.77 27.98 60.35"/>
            <path d="m4803.44 351.78-1.97 10.41-4.95-9.37z"/>
        </g>
        <g class="node" transform="translate(4 616)">
            <ellipse cx="4819" cy="-90" fill="none" stroke="#000" rx="88.71" ry="18"/>
            <text x="4819" y="-84.95" font-family="Times,serif" font-size="14" text-anchor="middle">:app:domain:account</text>
        </g>
        <g stroke="#000" class="edge">
            <path fill="none" d="M4280.16 98.82C4525.94 110.03 5168 147.86 5168 237v74c0 8.96-217.81 138.79-307.3 191.75"/>
            <path d="m4862.63 505.67-10.39 2.08 6.83-8.1z"/>
        </g>
        <g class="node" transform="translate(4 616)">
            <ellipse cx="4663" cy="-306" fill="none" stroke="#000" rx="96.39" ry="18"/>
            <text x="4663" y="-300.95" font-family="Times,serif" font-size="14" text-anchor="middle">:app:domain:credential</text>
        </g>
        <g stroke="#000" class="edge">
            <path fill="none" d="M4224.31 110.85c18.38 8.95 39.81 21.5 55.69 37.15 39.58 39 17.21 76.51 63 108 .63.43 146.17 24.13 241.95 39.69"/>
            <path d="m4585.27 292.19 9.31 5.06-10.43 1.85z"/>
        </g>
        <g class="node" transform="translate(4 616)">
            <ellipse cx="3978" cy="-90" fill="none" stroke="#000" rx="87.69" ry="18"/>
            <text x="3978" y="-84.95" font-family="Times,serif" font-size="14" text-anchor="middle">:app:domain:holiday</text>
        </g>
        <g stroke="#000" class="edge">
            <path fill="none" d="M4137.94 110.02C4090.2 127.8 4019.7 162.51 3988 220c-50.63 91.84 64.93 115.53 95 216 4.59 15.33 8.28 22.31 0 36-9.16 15.15-24.24 26.19-39.99 34.13"/>
            <path d="m4044.54 509.28-10.55 1 7.62-7.36z"/>
        </g>
        <g class="node" transform="translate(4 616)">
            <ellipse cx="4441" cy="-162" fill="none" stroke="#000" rx="86.67" ry="18"/>
            <text x="4441" y="-156.95" font-family="Times,serif" font-size="14" text-anchor="middle">:app:domain:backup</text>
        </g>
        <g stroke="#000" class="edge">
            <path fill="none" d="M4192.87 111.99c13.14 31.08 44.21 98.11 85.13 144.01 35.97 40.34 49.66 47.83 98 72 49.42 24.71 86.07-8.37 119 36 15.18 20.45-2.44 46-20.83 64.46"/>
            <path d="m4476.83 430.77-9.66 4.35 4.84-9.43z"/>
        </g>
        <g class="node" transform="translate(4 616)">
            <ellipse cx="4404" cy="-234" fill="none" stroke="#000" rx="78.48" ry="18"/>
            <text x="4404" y="-228.95" font-family="Times,serif" font-size="14" text-anchor="middle">:app:domain:fetch</text>
        </g>
        <g stroke="#000" class="edge">
            <path fill="none" d="M4188.13 112.21c6.46 51.13 26.32 199.62 40.87 215.79 23.47 26.08 59.1 39.58 92.41 46.48"/>
            <path d="m4321.93 371.01 9.18 5.28-10.47 1.61z"/>
        </g>
        <g class="node" transform="translate(4 616)">
            <ellipse cx="4901" cy="-378" fill="none" stroke="#000" rx="91.27" ry="18"/>
            <text x="4901" y="-372.95" font-family="Times,serif" font-size="14" text-anchor="middle">:app:domain:calendar</text>
        </g>
        <g stroke="#000" class="edge">
            <path fill="none" d="M4266.64 104.37c74.03 9.16 186.57 24.5 283.36 43.63 103.99 20.55 223.2 52.11 293.64 71.61"/>
            <path d="m4844.36 216.17 8.69 6.05-10.57.7z"/>
        </g>
        <g class="node" transform="translate(4 616)">
            <ellipse cx="3743" cy="-162" fill="none" stroke="#000" rx="83.08" ry="18"/>
            <text x="3743" y="-156.95" font-family="Times,serif" font-size="14" text-anchor="middle">:app:domain:buddy</text>
        </g>
        <g stroke="#000" class="edge">
            <path fill="none" d="M4088.32 95.18C3780.99 97.01 2854 112.83 2854 237v74c0 40.67 585.4 108.57 808.25 132.94"/>
            <path d="m3662.48 440.45 9.56 4.56-10.32 2.4z"/>
        </g>
        <g class="node" transform="translate(4 616)">
            <ellipse cx="6398" cy="-450" fill="none" stroke="#000" rx="86.15" ry="18"/>
            <text x="6398" y="-444.95" font-family="Times,serif" font-size="14" text-anchor="middle">:app:core:coroutines</text>
        </g>
        <g stroke="#000" class="edge">
            <path fill="none" d="M4283.5 95.59C4644.17 98.04 5902.52 109.24 6302 148c8.75.85 17.89 2.01 26.94 3.34"/>
            <path d="m6329.46 147.88 9.35 4.98-10.42 1.94z"/>
        </g>
        <g class="node" transform="translate(4 616)">
            <ellipse cx="718" cy="-234" fill="none" stroke="#000" rx="123.52" ry="18"/>
            <text x="718" y="-228.95" font-family="Times,serif" font-size="14" text-anchor="middle">:app:core:filter-database-room</text>
        </g>
        <g stroke="#000" class="edge">
            <path fill="none" d="M4088.48 94.97C3602.23 95.05 1457.75 98.22 1326 148c-115.63 43.69-99.1 129.69-212 180-6.65 2.96-176.54 25.26-290.46 39.98"/>
            <path d="m824.22 371.42-10.37-2.19 9.47-4.75z"/>
        </g>
        <g class="node" transform="translate(4 616)">
            <ellipse cx="444" cy="-234" fill="none" stroke="#000" rx="132.22" ry="18"/>
            <text x="444" y="-228.95" font-family="Times,serif" font-size="14" text-anchor="middle">:app:core:backup-database-room</text>
        </g>
        <g stroke="#000" class="edge">
            <path fill="none" d="M4088.61 95.26C3613.04 96.73 1546.1 105.51 1262 148c-38.22 5.72-563.1 159.32-749.17 213.94"/>
            <path d="m513.89 365.28-10.58-.54 8.61-6.18z"/>
        </g>
        <g class="node" transform="translate(4 616)">
            <ellipse cx="1003" cy="-162" fill="none" stroke="#000" rx="158.32" ry="18"/>
            <text x="1003" y="-156.95" font-family="Times,serif" font-size="14" text-anchor="middle">:app:core:account-preferences-datastore</text>
        </g>
        <g stroke="#000" class="edge">
            <path fill="none" d="M4088.52 95.72C3631.43 99.23 1717.56 115.82 1595 148c-65.39 17.17-75.22 38.6-134 72-135.19 76.82-159.05 114.34-300 180-27.72 12.91-59.5 24.37-86.97 33.3"/>
            <path d="m1075.38 436.55-10.59-.29 8.45-6.38z"/>
        </g>
        <g class="node" transform="translate(4 616)">
            <ellipse cx="1023" cy="-234" fill="none" stroke="#000" rx="124.54" ry="18"/>
            <text x="1023" y="-228.95" font-family="Times,serif" font-size="14" text-anchor="middle">:app:core:diary-database-room</text>
        </g>
        <g stroke="#000" class="edge">
            <path fill="none" d="M4088.27 94.94C3608.21 94.88 1517.86 97.54 1390 148c-111.24 43.9-96.43 120.21-200 180-26.5 15.3-58.02 26.86-86.24 35.22"/>
            <path d="m1104.74 366.58-10.58-.62 8.66-6.11z"/>
        </g>
        <g class="node" transform="translate(4 616)">
            <ellipse cx="1762" cy="-162" fill="none" stroke="#000" rx="157.3" ry="18"/>
            <text x="1762" y="-156.95" font-family="Times,serif" font-size="14" text-anchor="middle">:app:core:holiday-preferences-datastore</text>
        </g>
        <g stroke="#000" class="edge">
            <path fill="none" d="M4088.62 95.85C3681.1 99.62 2128.98 116.03 2030 148c-66.63 21.52-130 18.98-130 89v74c0 53.75-51.41 95.39-90.54 119.3"/>
            <path d="m1811.51 433.16-10.39 2.07 6.83-8.1z"/>
        </g>
        <g class="node" transform="translate(4 616)">
            <ellipse cx="161" cy="-234" fill="none" stroke="#000" rx="133.24" ry="18"/>
            <text x="161" y="-228.95" font-family="Times,serif" font-size="14" text-anchor="middle">:app:core:holiday-database-room</text>
        </g>
        <g stroke="#000" class="edge">
            <path fill="none" d="M4088.64 95.41C3599.94 97.65 1425.99 109.68 1127 148c-347.33 44.52-751.25 165.8-901.59 213.42"/>
            <path d="m226.63 364.71-10.59-.31 8.47-6.36z"/>
        </g>
        <g class="node" transform="translate(4 616)">
            <ellipse cx="6190" cy="-378" fill="none" stroke="#000" rx="81.55" ry="18"/>
            <text x="6190" y="-372.95" font-family="Times,serif" font-size="14" text-anchor="middle">:app:feature:memo</text>
        </g>
        <g stroke="#000" class="edge">
            <path fill="none" d="M4283.14 95.8C4660.63 99.13 6013.41 113.46 6098 148c31.89 13.02 59.67 41.82 77.03 63.15"/>
            <path d="m6177.66 208.84 3.43 10.03-8.93-5.7z"/>
        </g>
        <g class="node" transform="translate(4 616)">
            <ellipse cx="5983" cy="-378" fill="none" stroke="#000" rx="68.75" ry="18"/>
            <text x="5983" y="-372.95" font-family="Times,serif" font-size="14" text-anchor="middle">:app:feature:tag</text>
        </g>
        <g stroke="#000" class="edge">
            <path fill="none" d="M4282.99 96.15C4651.66 100.74 5946.75 118.9 5978 148c16.08 14.97 17.13 40.57 14.86 60.48"/>
            <path d="m5996.35 208.84-4.95 9.37-1.97-10.41z"/>
        </g>
        <g class="node" transform="translate(4 616)">
            <ellipse cx="5876" cy="-450" fill="none" stroke="#000" rx="88.71" ry="18"/>
            <text x="5876" y="-444.95" font-family="Times,serif" font-size="14" text-anchor="middle">:app:feature:calendar</text>
        </g>
        <g stroke="#000" class="edge">
            <path fill="none" d="M4282.89 96.57c298.55 5.1 1201.89 22.57 1494.11 51.43 9.04.89 18.49 2.09 27.84 3.43"/>
            <path d="m5805.3 147.96 9.36 4.95-10.4 1.97z"/>
        </g>
        <g class="node" transform="translate(4 616)">
            <ellipse cx="5601" cy="-378" fill="none" stroke="#000" rx="80.52" ry="18"/>
            <text x="5601" y="-372.95" font-family="Times,serif" font-size="14" text-anchor="middle">:app:feature:buddy</text>
        </g>
        <g stroke="#000" class="edge">
            <path fill="none" d="M4283.2 96.11c239 3.26 850.4 15.07 1050.8 51.89 80.88 14.86 170.86 47.89 224.1 69.27"/>
            <path d="m5559.21 213.94 7.96 7-10.59-.51z"/>
        </g>
        <g class="node" transform="translate(4 616)">
            <ellipse cx="6459" cy="-378" fill="none" stroke="#000" rx="76.94" ry="18"/>
            <text x="6459" y="-372.95" font-family="Times,serif" font-size="14" text-anchor="middle">:app:feature:more</text>
        </g>
        <g stroke="#000" class="edge">
            <path fill="none" d="M4283.46 95.39C4717.82 97.38 6457.73 107.82 6497 148c16.79 17.18 3.59 43.51-10.98 63.08"/>
            <path d="m6488.78 213.23-8.96 5.66 3.48-10.01z"/>
        </g>
        <g class="node" transform="translate(4 616)">
            <ellipse cx="6754" cy="-378" fill="none" stroke="#000" rx="86.15" ry="18"/>
            <text x="6754" y="-372.95" font-family="Times,serif" font-size="14" text-anchor="middle">:app:feature:account</text>
        </g>
        <g stroke="#000" class="edge">
            <path fill="none" d="M4283.61 95.21C4728.31 96.4 6545.85 103.94 6658 148c32.93 12.94 62.06 41.97 80.27 63.37"/>
            <path d="m6740.76 208.89 3.66 9.95-9.06-5.5z"/>
        </g>
        <g class="node" transform="translate(4 616)">
            <ellipse cx="2050" cy="-162" fill="none" stroke="#000" rx="112.26" ry="18"/>
            <text x="2050" y="-156.95" font-family="Times,serif" font-size="14" text-anchor="middle">:library:firebase-messaging</text>
        </g>
        <g stroke="#000" class="edge">
            <path fill="none" d="M4088.44 94.89C3691.77 94.78 2217 97.75 2132 148c-39.44 23.31-52 43.19-52 89v74c0 40.09-10.15 85.52-17.77 113.97"/>
            <path d="m2065.71 425.54-6.04 8.7-.71-10.57z"/>
        </g>
        <g class="node" transform="translate(4 616)">
            <ellipse cx="3615" cy="-18" fill="none" stroke="#000" rx="71.31" ry="18"/>
            <text x="3615" y="-12.95" font-family="Times,serif" font-size="14" text-anchor="middle">:app:core:model</text>
        </g>
        <g stroke="#000" class="edge">
            <path fill="none" d="M1555.99 468.31c33.59 8.69 75.36 21.78 110.01 39.69 23.37 12.08 22.2 27.21 47 36 86.96 30.83 1468.22 48.16 1823.3 52.12"/>
            <path d="m3536.27 592.62 9.97 3.61-10.04 3.39z"/>
        </g>
        <g class="node" transform="translate(4 616)">
            <ellipse cx="4436" cy="-18" fill="none" stroke="#000" rx="85.13" ry="18"/>
            <text x="4436" y="-12.95" font-family="Times,serif" font-size="14" text-anchor="middle">:common:exception</text>
        </g>
        <g stroke="#000" class="edge">
            <path fill="none" d="M1562.33 467.19c12.49 1.89 25.45 3.61 37.67 4.81 229.49 22.47 812.3-15.77 1037 36 38.39 8.85 42.59 27.23 81 36 39.89 9.11 1270.32 41.38 1626.37 50.55"/>
            <path d="m4344.23 591.05 9.91 3.76-10.09 3.24z"/>
        </g>
        <g class="node" transform="translate(4 616)">
            <ellipse cx="1367" cy="-90" fill="none" stroke="#000" rx="121.98" ry="18"/>
            <text x="1367" y="-84.95" font-family="Times,serif" font-size="14" text-anchor="middle">:app:core:account-preferences</text>
        </g>
        <g stroke="#000" class="edge">
            <path fill="none" d="M1465.61 471.59c-16.48 9.3-37.26 21.03-55.14 31.13"/>
            <path d="m1412.35 505.68-10.43 1.86 6.99-7.96z"/>
        </g>
        <g class="node" transform="translate(4 616)">
            <ellipse cx="1580" cy="-90" fill="none" stroke="#000" rx="72.85" ry="18"/>
            <text x="1580" y="-84.95" font-family="Times,serif" font-size="14" text-anchor="middle">:common:model</text>
        </g>
        <g stroke="#000" class="edge">
            <path fill="none" d="M1516.54 471.95c11.24 8.83 25.16 19.78 37.43 29.43"/>
            <path d="m1556.08 498.58 5.69 8.94-10.02-3.43z"/>
        </g>
        <g stroke="#000" class="edge">
            <path fill="none" d="M3308.7 539.84c69.21 12.75 174.6 32.16 242.97 44.76"/>
            <path d="m3552.04 581.11 9.2 5.25-10.47 1.63z"/>
        </g>
        <g stroke="#000" class="edge">
            <path fill="none" d="M4060.51 464.64c119.46 18.37 391.36 58.41 621.49 79.36 353.23 32.16 777.32 46.45 944.83 51.14"/>
            <path d="m5626.79 591.64 9.9 3.77-10.1 3.22z"/>
        </g>
        <g stroke="#000" class="edge">
            <path fill="none" d="M3944.52 466.64c-95 19.77-297.41 59.48-470.52 77.36-491.26 50.74-1084.12 54.31-1307.23 53.64"/>
            <path d="m2166.97 601.14-9.99-3.54 10.01-3.46z"/>
        </g>
        <g stroke="#000" class="edge">
            <path fill="none" d="M4051.5 467.24c102.28 23.8 319.78 74.26 336.5 76.76 236.99 35.36 520.2 47.3 658.16 51.2"/>
            <path d="m5046.03 591.7 9.9 3.77-10.09 3.22z"/>
        </g>
        <g stroke="#000" class="edge">
            <path fill="none" d="M4070.87 459.57c124.58 8.14 388.62 26.39 611.13 48.43 18.19 1.8 37.66 3.98 56.15 6.18"/>
            <path d="m4738.5 510.69 9.52 4.67-10.35 2.28z"/>
        </g>
        <g stroke="#000" class="edge">
            <path fill="none" d="M3958.05 469.53c-29.53 10.54-70.32 25.2-106.05 38.47-64.02 23.77-137.6 52.03-184.65 70.23"/>
            <path d="m3668.85 581.4-10.59.34 8.07-6.87z"/>
        </g>
        <g stroke="#000" class="edge">
            <path fill="none" d="M3944.44 466.67c-22.41 7.77-46.18 20.54-59.44 41.33-8.6 13.49-10.76 24.16 0 36 30.22 33.24 308.53 46.14 459.18 50.72"/>
            <path d="m4344.28 591.23 9.89 3.79-10.1 3.2z"/>
        </g>
        <g stroke="#000" class="edge">
            <path fill="none" d="M5947.01 321.84c38.49 8.25 88.23 21.73 128.99 42.16 4.72 2.37 52.37 39.64 84.83 65.19"/>
            <path d="m6162.66 426.17 5.69 8.94-10.02-3.44z"/>
        </g>
        <g stroke="#000" class="edge">
            <path fill="none" d="M5950.69 320.91c29.82 7.46 63.63 20.46 87.31 43.09 37.35 35.69 2.07 76.48 43 108 55.7 42.9 257.06 51.51 365.94 52.96"/>
            <path d="m6446.67 521.46 9.96 3.61-10.04 3.39z"/>
        </g>
        <g stroke="#000" class="edge">
            <path fill="none" d="M5944.23 322.57c23.02 7.7 47.09 20.44 60.77 41.43 8.73 13.41 9.38 23.04 0 36-90.27 124.64-189.27 43.49-329 108-27.89 12.88-29.92 26.1-59 36-72.92 24.83-286.51 41.06-405.16 48.42"/>
            <path d="m5212.37 595.9-10.2-2.88 9.77-4.11z"/>
        </g>
        <g stroke="#000" class="edge">
            <path fill="none" d="M5839.95 325.25C5703.37 367.73 5281.23 493.63 4921 544c-237.09 33.15-972.04 47.71-1219.62 51.76"/>
            <path d="m3701.53 599.26-10.06-3.34 9.94-3.66z"/>
        </g>
        <g class="node" transform="translate(4 616)">
            <ellipse cx="5877" cy="-234" fill="none" stroke="#000" rx="115.33" ry="18"/>
            <text x="5877" y="-228.95" font-family="Times,serif" font-size="14" text-anchor="middle">:app:core:calendar-compose</text>
        </g>
        <g stroke="#000" class="edge">
            <path fill="none" d="M5884.01 328.3c-.42 7.29-.91 15.97-1.38 24.16"/>
            <path d="m5886.13 352.6-4.07 9.78-2.92-10.18z"/>
        </g>
        <g stroke="#000" class="edge">
            <path fill="none" d="m6254.05 468.5 205.06 43.89"/>
            <path d="m6459.74 508.95 9.05 5.51-10.52 1.33z"/>
        </g>
        <g stroke="#000" class="edge">
            <path fill="none" d="M6124.99 468.03c-97.75 18.92-286.91 54.13-448.99 75.97-164.83 22.21-358.86 38.78-465.55 47.07"/>
            <path d="m5210.89 594.55-10.24-2.72 9.7-4.26z"/>
        </g>
        <g stroke="#000" class="edge">
            <path fill="none" d="M6458.2 325.79c20.58 8.56 44.04 21.07 60.8 38.21 59.79 61.15 127.36 118.44 68 180-3 3.12-1066.36 39.66-1374.34 50.18"/>
            <path d="m5213.22 597.67-10.12-3.16 9.88-3.84z"/>
        </g>
        <g stroke="#000" class="edge">
            <path fill="none" d="M6857.92 328.18C6824.77 373.7 6727.07 497.07 6611 544c-4.08 1.65-1086.05 39.3-1397.84 50.12"/>
            <path d="m5213.59 597.6-10.12-3.15 9.88-3.84z"/>
        </g>
        <g stroke="#000" class="edge">
            <path fill="none" d="M6634.82 328.15c-22.07 37.19-74.46 125.48-100.93 170.08"/>
            <path d="m6536.94 499.95-8.12 6.81 2.1-10.38z"/>
        </g>
        <g stroke="#000" class="edge">
            <path fill="none" d="M3996.51 239.67C3749.65 242.26 2910.16 253.54 2218 292c-388.28 21.58-494.82-22.63-872 72-39 9.78-43.91 26.57-83 36-60.39 14.58-515.51-9.32-558 36-32.83 35.02-33.28 73.41 0 108 44.41 46.16 982.18 52.17 1280.64 52.91"/>
            <path d="m1985.32 593.41 9.99 3.52-10 3.48z"/>
        </g>
        <g stroke="#000" class="edge">
            <path fill="none" d="M4139.44 239.52c132.28 1.98 423.9 11.12 665.56 52.48 219.85 37.63 364.87 11.1 453 216 6.32 14.7 8.89 22.7 0 36-13.21 19.76-35.29 32.17-57.43 39.95"/>
            <path d="m5201.76 587.24-10.59-.29 8.46-6.38z"/>
        </g>
        <g stroke="#000" class="edge">
            <path fill="none" d="M4125.45 249.03c70.7 12.34 190.9 33.32 268.75 46.91"/>
            <path d="m4394.62 292.46 9.25 5.17-10.45 1.73z"/>
        </g>
        <g class="node" transform="translate(4 616)">
            <ellipse cx="3426" cy="-162" fill="none" stroke="#000" rx="101.51" ry="18"/>
            <text x="3426" y="-156.95" font-family="Times,serif" font-size="14" text-anchor="middle">:app:core:diary-database</text>
        </g>
        <g stroke="#000" class="edge">
            <path fill="none" d="M4026.63 252.88c-110.68 37.12-413.71 138.77-540.1 181.16"/>
            <path d="m3487.96 437.25-10.59-.14 8.37-6.5z"/>
        </g>
        <g stroke="#000" class="edge">
            <path fill="none" d="M4021.28 311.39c-320.54 2.27-1861.69 15-2336.28 52.61-117.61 9.32-145.59 24.48-263 36-66.8 6.56-556.98-12.85-603 36-18.18 19.3-1.32 94.81 14 108 43.57 37.5 874.54 49.29 1152.96 52.19"/>
            <path d="m1985.74 592.69 9.96 3.6-10.03 3.4z"/>
        </g>
        <g stroke="#000" class="edge">
            <path fill="none" d="M4136.99 314.53c98.14 6.7 294.59 22.99 358.01 49.47 119.78 50.01 110.29 129.8 230 180 56.83 23.83 223.17 39.73 324.13 47.49"/>
            <path d="m5049.28 587.99 9.71 4.24-10.24 2.74z"/>
        </g>
        <g stroke="#000" class="edge">
            <path fill="none" d="M4135.23 316.35c127.81 12.37 444.16 43 590.83 57.2"/>
            <path d="m4726.05 370.03 9.61 4.45-10.29 2.52z"/>
        </g>
        <g stroke="#000" class="edge">
            <path fill="none" d="M4054.63 326.64c-34.81 20.61-99.99 56.27-160.63 73.36-149.66 42.18-193.71 16.72-348 36-9.61 1.2-19.66 2.54-29.65 3.93"/>
            <path d="m3517.02 443.37-10.39-2.07 9.41-4.86z"/>
        </g>
        <g stroke="#000" class="edge">
            <path fill="none" d="M3253.13 466.16c58.48 13.79 136.04 40.14 99.87 77.84-41 42.74-902.13 51.05-1186.65 52.64"/>
            <path d="m2166.39 600.14-10.02-3.45 9.98-3.55z"/>
        </g>
        <g stroke="#000" class="edge">
            <path fill="none" d="M3251.47 466.55c97.78 19.81 307.41 59.84 486.53 77.45 129.75 12.76 1028.56 41.63 1308.77 50.41"/>
            <path d="m5046.67 590.91 9.88 3.81-10.1 3.19z"/>
        </g>
        <g stroke="#000" class="edge">
            <path fill="none" d="M3257.8 464.8c19.53 2.76 41.23 5.47 61.2 7.2 274.21 23.72 1115.75 44.29 1405.08 50.84"/>
            <path d="m4723.95 519.33 9.92 3.73-10.08 3.27z"/>
        </g>
        <g stroke="#000" class="edge">
            <path fill="none" d="M3129.91 463.21c-29.06 3.29-63.64 6.78-94.91 8.79-680.11 43.82-853.46-15.93-1533 36-11.35.87-23.22 2.04-34.99 3.36"/>
            <path d="m1467.62 514.81-10.34-2.31 9.53-4.64z"/>
        </g>
        <g stroke="#000" class="edge">
            <path fill="none" d="M1549.27 256.15c-10.14 36.78-34.06 123.56-46.48 168.61"/>
            <path d="m1506.19 425.6-6.04 8.71-.71-10.57z"/>
        </g>
        <g stroke="#000" class="edge">
            <path fill="none" d="M1524.59 255.23c-34.24 18.61-92.72 49.54-144.59 72.77-80.9 36.23-99.45 52.83-186 72-58.6 12.98-498-7.83-539 36-32.79 35.05-33.3 73.43 0 108 46.2 47.96 1024.16 52.72 1330.25 53.04"/>
            <path d="m1985.21 593.54 10 3.51-10.01 3.49z"/>
        </g>
        <g stroke="#000" class="edge">
            <path fill="none" d="M1637.56 239.47C2136.07 242.37 4698.41 258.9 4772 292c19.8 8.9 14.1 25.33 33 36 70.68 39.87 103.85 5.38 179 36 54.46 22.19 72.3 27.72 111 72 23.29 26.65 26.06 37.51 34 72 4.56 19.82 4.7 42.79 3.75 60.43"/>
            <path d="m5136.26 568.44-4.19 9.73-2.79-10.22z"/>
        </g>
        <g stroke="#000" class="edge">
            <path fill="none" d="M1637.97 238.86c424.1-.48 2333.4.4 2924.03 53.14 8.66.77 17.7 1.84 26.67 3.06"/>
            <path d="m4589.06 291.58 9.4 4.89-10.39 2.04z"/>
        </g>
        <g stroke="#000" class="edge">
            <path fill="none" d="M1534.83 255.87C1500.15 287.52 1427.15 359.55 1390 436c-9.24 19.03-14.02 42.5-16.47 60.56"/>
            <path d="m1377.03 496.78-4.64 9.53-2.31-10.35z"/>
        </g>
        <g stroke="#000" class="edge">
            <path fill="none" d="M3002.16 467.43c46.45 11.3 115.39 28.05 166.92 40.58"/>
            <path d="m3169.77 504.57 8.89 5.76-10.55 1.04z"/>
        </g>
        <g stroke="#000" class="edge">
            <path fill="none" d="M2975.02 471.25c24.92 18.78 57.48 50 35.98 72.75-28.76 30.43-616.79 46.21-845.29 51.21"/>
            <path d="m2166.03 598.7-10.07-3.28 9.92-3.72z"/>
        </g>
        <g stroke="#000" class="edge">
            <path fill="none" d="M2986.75 470.19c22.97 10.08 53.26 23.95 79.25 37.81 27.11 14.45 29.54 27.31 59 36 150.21 44.29 1252.45 31.77 1409 36 183.01 4.95 397.62 11.17 512.81 14.55"/>
            <path d="m5046.58 591.04 9.89 3.79-10.1 3.21z"/>
        </g>
        <g stroke="#000" class="edge">
            <path fill="none" d="M3017.1 462.7c28.82 3.18 63 6.72 93.9 9.3 281.22 23.48 614.36 40.85 774.95 48.57"/>
            <path d="m3885.88 517.07 9.82 3.97-10.15 3.02z"/>
        </g>
        <g class="node" transform="translate(4 616)">
            <ellipse cx="2877" cy="-90" fill="none" stroke="#000" rx="120.96" ry="18"/>
            <text x="2877" y="-84.95" font-family="Times,serif" font-size="14" text-anchor="middle">:app:core:holiday-preferences</text>
        </g>
        <g stroke="#000" class="edge">
            <path fill="none" d="m2934.05 471.95-27.67 27.67"/>
            <path d="m2908.89 502.06-9.54 4.59 4.59-9.54z"/>
        </g>
        <g class="node" transform="translate(4 616)">
            <ellipse cx="2514" cy="-90" fill="none" stroke="#000" rx="110.21" ry="18"/>
            <text x="2514" y="-84.95" font-family="Times,serif" font-size="14" text-anchor="middle">:app:core:holiday-database</text>
        </g>
        <g stroke="#000" class="edge">
            <path fill="none" d="M2894.56 466.1c-10.8 2.03-22.02 4.08-32.56 5.9-85.18 14.69-182.56 29.51-251.92 39.73"/>
            <path d="m2610.66 515.18-10.4-2.01 9.38-4.91z"/>
        </g>
        <g stroke="#000" class="edge">
            <path fill="none" d="M2526.39 384.19C2360.57 387.47 1945.3 399.01 1600 436c-8.36.9-17.07 2.01-25.74 3.24"/>
            <path d="m1574.82 442.69-10.41-2 9.39-4.92z"/>
        </g>
        <g stroke="#000" class="edge">
            <path fill="none" d="M2585.56 399.82c-20.23 23.14-56.42 62.99-73.56 72.18-73.44 39.37-107.86 2.15-184 36-24.37 10.83-23.97 24.43-48 36-40.6 19.55-89.33 32.56-128.99 40.79"/>
            <path d="m2151.79 588.2-10.49-1.46 9.11-5.4z"/>
        </g>
        <g stroke="#000" class="edge">
            <path fill="none" d="M2673.99 383.29C2934.3 384.7 3807.02 392.6 4083 436c173.87 27.34 207.77 76.87 381 108 207.23 37.24 455.43 48.32 582.31 51.61"/>
            <path d="m5046.04 592.1 9.91 3.75-10.09 3.25z"/>
        </g>
        <g stroke="#000" class="edge">
            <path fill="none" d="M2673.24 384.87c222.6 5.81 910.77 24.76 1480.76 51.13 66.23 3.06 140.89 7.44 198 10.99"/>
            <path d="m4351.91 443.48 9.76 4.11-10.2 2.87z"/>
        </g>
        <g stroke="#000" class="edge">
            <path fill="none" d="M2666.18 390.44c29.86 3.2 65.59 6.84 97.82 9.56 244.1 20.63 306.39 10.22 550 36 10.03 1.06 20.53 2.35 30.94 3.74"/>
            <path d="m3345.23 436.24 9.43 4.83-10.38 2.11z"/>
        </g>
        <g class="node" transform="translate(4 616)">
            <ellipse cx="2669" cy="-162" fill="none" stroke="#000" rx="109.19" ry="18"/>
            <text x="2669" y="-156.95" font-family="Times,serif" font-size="14" text-anchor="middle">:app:core:backup-database</text>
        </g>
        <g stroke="#000" class="edge">
            <path fill="none" d="M2617.67 399.95c8.81 8.44 19.64 18.83 29.37 28.16"/>
            <path d="m2649.35 425.47 4.8 9.45-9.64-4.39z"/>
        </g>
        <g stroke="#000" class="edge">
            <path fill="none" d="M2374.11 310.59c-100.17.95-295.94 9.04-455.11 53.41-36 10.04-40.24 25.14-76 36-104.47 31.71-135.11 19.27-243 36-7.57 1.17-15.44 2.41-23.31 3.66"/>
            <path d="m1577.5 443.08-10.43-1.88 9.33-5.03z"/>
        </g>
        <g stroke="#000" class="edge">
            <path fill="none" d="M2375.3 313.68c-202.61 8.51-816.66 35.23-905.3 50.32-56.57 9.63-67.45 26.26-124 36-67.46 11.62-568.03-13.8-615 36-32.93 34.92-33.27 73.4 0 108 43.45 45.2 959.48 51.86 1254.39 52.84"/>
            <path d="m1985.37 593.34 9.99 3.53-10.01 3.47z"/>
        </g>
        <g stroke="#000" class="edge">
            <path fill="none" d="M2505.85 310.59c230.79-.35 1023.69 7.68 1664.15 125.41 109.53 20.13 135.49 33.54 240 72 37.35 13.74 43.42 26.22 82 36 102.84 26.07 407.08 42.73 555.16 49.52"/>
            <path d="m5047.07 590.01 9.83 3.95-10.15 3.04z"/>
        </g>
        <g stroke="#000" class="edge">
            <path fill="none" d="M2505.87 311.24c235.47 1.23 1057.54 8.62 1734.13 52.76 28.8 1.88 60.29 4.83 88.14 7.74"/>
            <path d="m4328.35 368.25 9.58 4.53-10.32 2.43z"/>
        </g>
        <g stroke="#000" class="edge">
            <path fill="none" d="M2500.82 317.08c63.94 7.36 167.02 21.97 253.18 46.92 39.8 11.52 45.71 26.31 86 36 205.41 49.42 264.02 12.67 474 36 9.95 1.11 20.37 2.41 30.69 3.81"/>
            <path d="m3344.91 436.3 9.43 4.84-10.38 2.1z"/>
        </g>
        <g stroke="#000" class="edge">
            <path fill="none" d="M1936.1 391.25c-18.99 2.84-40.48 6.01-60.1 8.75-122.51 17.12-153.59 18.11-276 36-7.7 1.13-15.71 2.34-23.72 3.59"/>
            <path d="m1576.91 443.03-10.43-1.9 9.34-5.01z"/>
        </g>
        <g stroke="#000" class="edge">
            <path fill="none" d="M2051.66 385.1c98.39 3.33 296.98 9.95 465.34 14.9 602.17 17.71 754.48-12.03 1355 36 17.55 1.4 36.39 3.57 54.05 5.88"/>
            <path d="m3926.51 438.41 9.44 4.81-10.38 2.13z"/>
        </g>
        <g stroke="#000" class="edge">
            <path fill="none" d="M1934.61 390.46c-27.5 3.43-61.25 7.24-91.61 9.54-55.6 4.21-964.29-4.13-1003 36-11.11 11.51-8.12 22.22 0 36 33.53 56.9 66.47 53.95 130 72 96.42 27.4 769.83 45.33 1016.08 51.04"/>
            <path d="m1986.05 591.54 9.92 3.72-10.08 3.27z"/>
        </g>
        <g stroke="#000" class="edge">
            <path fill="none" d="M2051.66 385.09c98.39 3.31 296.98 9.9 465.34 14.91 146.88 4.37 1179.09 1.81 1322 36 36.35 8.7 40.32 24.86 76 36 94.16 29.4 123.88 9.88 219 36 42.34 11.63 49.11 26.6 92 36 154.82 33.93 626.55 47.29 819.94 51.44"/>
            <path d="m5046.01 591.94 9.92 3.71-10.07 3.28z"/>
        </g>
        <g stroke="#000" class="edge">
            <path fill="none" d="M2005.17 399.59c7.69 8.42 17.21 18.83 25.79 28.21"/>
            <path d="m2033.31 425.18 4.17 9.75-9.33-5.02z"/>
        </g>
        <g stroke="#000" class="edge">
            <path fill="none" d="M4384.27 167.34C3924.93 169.45 1606.33 181.94 1461 220c-16.3 4.27-253.7 133.64-267 144-17.12 13.34-13.44 26.59-33 36-53.39 25.67-491.55-7.28-532 36-32.78 35.07-33.31 73.44 0 108 47.17 48.92 1047.31 53.01 1356.65 53.1"/>
            <path d="m1985.28 593.6 10 3.5-10 3.5z"/>
        </g>
        <g stroke="#000" class="edge">
            <path fill="none" d="M4538.84 170.94c127.85 7.23 380.72 24.18 466.16 49.06 67.94 19.78 82.3 34.01 142 72 113.15 72 246.57 144.78 166 252-13.81 18.38-66.6 32.43-111.96 41.43"/>
            <path d="m5201.97 588.82-10.48-1.55 9.16-5.33z"/>
        </g>
        <g stroke="red" stroke-width="2" class="edge">
            <path fill="none" d="M4526.33 177.03c78.47 12.43 212.28 33.62 298.02 47.2"/>
            <path fill="red" d="m4823.28 220.51 9.33 5.03-10.43 1.89z"/>
        </g>
        <g class="node" transform="translate(4 616)">
            <ellipse cx="423" cy="-162" fill="none" stroke="#000" rx="100.48" ry="18"/>
            <text x="423" y="-156.95" font-family="Times,serif" font-size="14" text-anchor="middle">:app:core:filter-database</text>
        </g>
        <g stroke="#000" class="edge">
            <path fill="none" d="M4384.6 167.57C3923.23 171.05 1577.04 190.14 1428 220c-127.54 25.55-146.2 74.94-272 108-114.1 29.99-156.62-15.02-263 36-20.98 10.06-16.94 26.12-38 36-121.97 57.23-167.34 19.06-301 36-12.2 1.55-25.06 3.22-37.72 4.89"/>
            <path d="m517.1 444.31-10.37-2.16 9.45-4.78z"/>
        </g>
        <g stroke="#000" class="edge">
            <path fill="none" d="M1715.91 395.51c-43.32 11.28-107.39 27.95-155.38 40.44"/>
            <path d="m1561.64 439.27-10.55-.86 8.79-5.91z"/>
        </g>
        <g stroke="#000" class="edge">
            <path fill="none" d="M1696.5 387.5c-53.76 3.54-130.94 8.52-198.5 12.5-37.16 2.19-643.4 8.98-669 36-11.01 11.61-3.68 20.43 0 36 8.22 34.82 5.98 52.53 36 72 46.83 30.38 848.1 46.81 1120.9 51.54"/>
            <path d="m1985.87 592.04 9.94 3.68-10.06 3.32z"/>
        </g>
        <g stroke="#000" class="edge">
            <path fill="none" d="M1825.74 390.96c28.37 3.35 62.47 6.95 93.26 9.04 151.04 10.26 1222.12-21.89 1362 36 21.5 8.9 16.93 26.14 38 36 124.03 58.05 170.17 18.61 306 36 115.71 14.82 143.81 25.51 260 36 226.43 20.45 920.29 43.05 1161.4 50.48"/>
            <path d="m5046.47 590.98 9.89 3.81-10.1 3.19z"/>
        </g>
        <g stroke="#000" class="edge">
            <path fill="none" d="M1825.74 391.02c28.36 3.36 62.47 6.95 93.26 8.98 719.51 47.35 901.92-1.67 1622 36 39.46 2.06 83.08 5.5 119.99 8.74"/>
            <path d="m3661.06 441.23 9.65 4.38-10.27 2.6z"/>
        </g>
        <g stroke="#000" class="edge">
            <path fill="none" d="M4529.42 322.79c10.82 1.9 22.02 3.72 32.58 5.21 160.98 22.64 204.44 4.9 364 36 222.38 43.34 272.2 78.23 489 144 81.85 24.83 176.58 54.62 233.59 72.67"/>
            <path d="m5649.56 577.3 8.47 6.36-10.59.32z"/>
        </g>
        <g stroke="#000" class="edge">
            <path fill="none" d="M4388.89 315.94c-64.92 3.83-158.77 9-240.89 12.06-46.2 1.72-1625.51 10.39-1664 36-43.73 29.1-6.92 75.26-48 108-65.16 51.93-107.86 2.15-184 36-24.37 10.83-24.83 22.8-48 36-23.65 13.48-51.4 25.4-75.01 34.5"/>
            <path d="m2130.47 581.68-10.59.27 8.12-6.81z"/>
        </g>
        <g stroke="#000" class="edge">
            <path fill="none" d="M4529.93 322.76c10.67 1.88 21.68 3.71 32.07 5.24 142.03 20.92 190.75-24.36 321 36 103.55 47.99 191.74 156.64 228.58 206.77"/>
            <path d="m5114.33 568.6 3.04 10.15-8.7-6.04z"/>
        </g>
        <g stroke="red" stroke-width="2" class="edge">
            <path fill="none" d="M4527.56 323.27c59 12.37 149.82 31.4 210.88 44.2"/>
            <path fill="red" d="m4737.44 363.68 9.07 5.48-10.5 1.38z"/>
        </g>
        <g stroke="#000" class="edge">
            <path fill="none" d="M4529.62 322.82c34.42 8.33 77.47 21.55 112.38 41.18 65.23 36.67 127.22 100.14 158.96 135.44"/>
            <path d="m4803.34 496.84 4.02 9.8-9.26-5.15z"/>
        </g>
        <g stroke="#000" class="edge">
            <path fill="none" d="M4495.87 327.43c12.24 9.1 25.46 21.61 32.13 36.57 6.52 14.61 7.69 21.97 0 36-7.4 13.5-19.86 24.06-32.91 32.08"/>
            <path d="m4496.82 435.12-10.43 1.86 7-7.96z"/>
        </g>
        <g stroke="#000" class="edge">
            <path fill="none" d="M4416.34 324.36c-79.19 19.58-233.88 55.9-367.34 75.64-46.66 6.9-387.7 4.71-423 36-36.65 32.48-26.45 95.82-16.34 132.63"/>
            <path d="m3612.99 567.55-.53 10.58-6.18-8.61z"/>
        </g>
        <g stroke="#000" class="edge">
            <path fill="none" d="M4504.98 326.6c15.26 8.64 31.46 21 40.02 37.4 7.14 13.68 4.08 87.03-4 108-15.51 40.29-49.18 77.55-73.38 100.72"/>
            <path d="m4470.3 575-9.7 4.27 4.92-9.38z"/>
        </g>
        <g stroke="#000" class="edge">
            <path fill="none" d="M4853.47 395.04c155.17 37.02 624.58 149.01 788.94 188.22"/>
            <path d="m5642.86 579.77 8.92 5.73-10.54 1.08z"/>
        </g>
        <g stroke="#000" class="edge">
            <path fill="none" d="M4734.53 387.43c-62.4 3.88-157.12 9.39-239.53 12.57-90.4 3.49-1543.9 2.66-1628 36-22.23 8.82-18.05 26.5-40 36-175.2 75.81-251.47-36.66-428 36-23.05 9.49-20.47 25.34-43 36-60.58 28.67-135.45 41.84-192.53 47.88"/>
            <path d="m2164.11 595.34-10.3-2.49 9.6-4.48z"/>
        </g>
        <g stroke="#000" class="edge">
            <path fill="none" d="M4826.21 399.5c42.07 29.74 133.94 93.94 213.79 144.5 16.87 10.68 35.89 21.99 52.08 31.4"/>
            <path d="m5093.53 572.19 6.91 8.04-10.41-1.98z"/>
        </g>
        <g stroke="#000" class="edge">
            <path fill="none" d="M4804.23 400.46c1.39 18 3.97 46.83 7.77 71.54 1.25 8.11 2.93 16.86 4.59 24.86"/>
            <path d="m4819.97 495.9-1.31 10.52-5.53-9.04z"/>
        </g>
        <g stroke="red" stroke-width="2" class="edge">
            <path fill="none" d="M4747.85 393.78c-61.78 12.08-162.16 31.71-230.26 45.03"/>
            <path fill="red" d="m4519.98 441.91-10.49-1.52 9.15-5.35z"/>
        </g>
        <g stroke="#000" class="edge">
            <path fill="none" d="M4762.23 397.08c-51.47 17.73-142.78 48.99-221.23 74.92-99.29 32.82-121.38 51.9-224 72-219.31 42.95-483.71 51.54-615.26 52.98"/>
            <path d="m3702.13 600.47-10.03-3.4 9.96-3.6z"/>
        </g>
        <g stroke="#000" class="edge">
            <path fill="none" d="M4815.48 399.89c14.05 18.54 37.98 48.76 61.52 72.11 17.94 17.8 33.18 13.17 44 36 6.85 14.46 10.68 24.08 0 36-25.28 28.22-253.71 42.98-386.48 49.24"/>
            <path d="m4534.83 596.73-10.15-3.03 9.83-3.96z"/>
        </g>
        <g stroke="#000" class="edge">
            <path fill="none" d="M4904.33 533.49c170.74 13.63 564.05 45.02 725.03 57.87"/>
            <path d="m5629.34 587.85 9.69 4.28-10.24 2.7z"/>
        </g>
        <g stroke="#000" class="edge">
            <path fill="none" d="M4735.86 529.82c-109.97 3.51-304.92 9.62-471.86 14.18-814.71 22.26-1800.19 44.42-2098.34 51.03"/>
            <path d="m2166.09 598.52-10.08-3.28 9.92-3.72z"/>
        </g>
        <g stroke="#000" class="edge">
            <path fill="none" d="M4880.38 540.08c53.02 12.09 131.62 30.01 186.41 42.51"/>
            <path d="m5067.31 579.12 8.97 5.63-10.52 1.19z"/>
        </g>
        <g stroke="red" stroke-width="2" class="edge">
            <path fill="none" d="M4738.82 531.89c-222.16 12.92-822.06 47.8-1039.62 60.45"/>
            <path fill="red" d="m3701.1 595.73-10.19-2.91 9.78-4.08z"/>
        </g>
        <g stroke="#000" class="edge">
            <path fill="none" d="M4758.89 538.72c-67.61 12.35-174 31.8-245.08 44.79"/>
            <path d="m4514.68 586.91-10.47-1.65 9.21-5.24z"/>
        </g>
        <g stroke="#000" class="edge">
            <path fill="none" d="M4596.14 322.59c-11.41 1.84-23.1 3.69-34.14 5.41-107.01 16.65-142.23-8.42-241 36-22.73 10.22-20.47 25.33-43 36-61.51 29.14-137.81 42.26-195.07 48.17"/>
            <path d="m4083.55 451.63-10.3-2.52 9.62-4.45z"/>
        </g>
        <g stroke="#000" class="edge">
            <path fill="none" d="M4757.32 316.52C4949.49 329.49 5392.1 366.2 5524 436c65.63 34.73 125.66 99.79 155.75 135.66"/>
            <path d="m5682.1 569.01 3.67 9.94-9.07-5.48z"/>
        </g>
        <g stroke="#000" class="edge">
            <path fill="none" d="M4599.96 323.32c-12.57 1.89-25.64 3.58-37.96 4.68-56.59 5.05-1996.61 6.24-2045 36-46.23 28.43-13.51 75.53-57 108-65.38 48.81-107.56-1.52-180 36-20.66 10.7-17.97 24.16-38 36-29.94 17.69-66.46 30.18-97.61 38.57"/>
            <path d="m2145.63 585.87-10.56-.88 8.8-5.9z"/>
        </g>
        <g stroke="#000" class="edge">
            <path fill="none" d="M4740.07 322.08c50.03 8.67 117.46 22.54 174.93 41.92 71.21 24.01 101.81 16.97 153 72 35.04 37.67 50.97 97.26 57.66 132.4"/>
            <path d="m5129.11 567.79-1.72 10.46-5.18-9.24z"/>
        </g>
        <g stroke="#000" class="edge">
            <path fill="none" d="M4646.05 327.71c-23.81 18.64-64.15 49.22-101.05 72.29-18.1 11.32-38.86 22.58-56.75 31.79"/>
            <path d="m4489.94 434.86-10.5 1.42 7.32-7.66z"/>
        </g>
        <g stroke="#000" class="edge">
            <path fill="none" d="M4613.65 325.42c-42.32 11.44-101.47 27.42-145.47 39.32"/>
            <path d="m4469.36 368.04-10.56-.77 8.74-5.99z"/>
        </g>
        <g stroke="#000" class="edge">
            <path fill="none" d="M4596.73 322.72c-11.59 1.83-23.49 3.66-34.73 5.28-125.93 18.17-159.56 9.49-284 36-54.04 11.51-65.08 23.93-119 36-106.97 23.94-139.1 4.19-244 36-35.77 10.85-42.03 20.41-76 36-35.8 16.43-46.31 17.33-81 36-37.92 20.41-79.22 47.53-106.86 66.45"/>
            <path d="m3653.42 577.12-10.22 2.79 6.25-8.55z"/>
        </g>
        <g stroke="#000" class="edge">
            <path fill="none" d="M4741.5 321.75c53.78 9.13 120.48 23.69 141.5 42.25 62.71 55.36 110.93 117.8 55 180-26.4 29.36-266.06 43.74-403.05 49.61"/>
            <path d="m4535.3 597.1-10.14-3.07 9.85-3.92z"/>
        </g>
        <g stroke="#000" class="edge">
            <path fill="none" d="M4058.14 535.3c31.5 3.17 68.4 6.53 101.86 8.7 466.85 30.25 584.45 19.86 1052 36 147.36 5.09 319.74 11.11 415.13 14.45"/>
            <path d="m5626.99 590.94 9.87 3.85-10.12 3.15z"/>
        </g>
        <g stroke="#000" class="edge">
            <path fill="none" d="M3900.82 533.15c-49.84 3.6-114.99 7.99-172.82 10.85-595.63 29.48-1312.93 46.02-1561.79 51.21"/>
            <path d="m2166.29 598.71-10.07-3.3 9.93-3.7z"/>
        </g>
        <g stroke="#000" class="edge">
            <path fill="none" d="M4045.51 538.74c12.71 2.02 26 3.91 38.49 5.26 356.21 38.58 783.78 49.17 961.81 52"/>
            <path d="m5045.72 592.5 9.94 3.65-10.05 3.35z"/>
        </g>
        <g stroke="#000" class="edge">
            <path fill="none" d="M3919.6 539.03c-65.25 12.59-167.26 32.26-234.03 45.13"/>
            <path d="m3686.32 587.58-10.48-1.54 9.16-5.33z"/>
        </g>
        <g stroke="#000" class="edge">
            <path fill="none" d="M4048.09 538.19c11.95 1.97 24.29 3.98 35.91 5.81 94.62 14.93 203.58 30.98 275.77 41.46"/>
            <path d="m4360.14 581.98 9.4 4.9-10.4 2.03z"/>
        </g>
        <g stroke="#000" class="edge">
            <path fill="none" d="M4510.6 466.08c59.31 10.66 141.72 27.27 171.4 41.92 22.35 11.03 19.81 26.86 43 36 41.78 16.48 682.75 42 902.07 50.3"/>
            <path d="m5627.05 590.79 9.86 3.88-10.12 3.12z"/>
        </g>
        <g stroke="#000" class="edge">
            <path fill="none" d="M4398.8 469.59C4329.96 490.56 4196 528.41 4079 544c-377.18 50.27-1572.51 53.33-1912.18 53.15"/>
            <path d="m2166.85 600.65-9.99-3.5 10-3.5z"/>
        </g>
        <g stroke="#000" class="edge">
            <path fill="none" d="M4469.5 471.58c32.11 20.79 90.88 55.74 146.5 72.42 78.75 23.61 308.19 40.58 432.2 48.32"/>
            <path d="m5048.22 588.81 9.76 4.11-10.19 2.88z"/>
        </g>
        <g stroke="red" stroke-width="2" class="edge">
            <path fill="none" d="M4508.27 466.72c66.13 12.24 169.85 31.45 239.98 44.44"/>
            <path fill="red" d="m4747.04 507.37 9.19 5.27-10.47 1.62z"/>
        </g>
        <g stroke="#000" class="edge">
            <path fill="none" d="M4415.36 471.27c-42.98 23.3-120.81 64.29-151.36 72.73-103.9 28.7-414.4 44.15-563.42 50.09"/>
            <path d="m3700.91 597.58-10.13-3.1 9.85-3.89z"/>
        </g>
        <g stroke="#000" class="edge">
            <path fill="none" d="M4444.39 472.41c-.85 23.98-2.38 67.45-3.39 96.17"/>
            <path d="m4444.51 568.51-3.85 9.87-3.15-10.12z"/>
        </g>
        <g stroke="#000" class="edge">
            <path fill="none" d="M4467.36 394.15c145.66 27.22 532.5 98.53 856.64 149.85 107.92 17.08 233.7 34.26 308.98 44.25"/>
            <path d="m5633.22 584.75 9.45 4.78-10.37 2.16z"/>
        </g>
        <g stroke="#000" class="edge">
            <path fill="none" d="M4329.17 382.65c-299.25-.9-1355.11-.22-1495.17 53.35-23.28 8.9-19.95 26.51-43 36-175.28 72.2-247.86-31.49-425 36-24.92 9.49-23.76 24.89-48 36-50.59 23.17-111.85 36.46-160.08 43.94"/>
            <path d="m2158.48 591.39-10.4-1.99 9.37-4.93z"/>
        </g>
        <g stroke="#000" class="edge">
            <path fill="none" d="M4381.44 399.2c-12.33 9.12-25.71 21.71-32.44 36.8-6.52 14.61-9.84 23.38 0 36 40.29 51.69 85.56 4.44 143 36 20.39 11.2 16.79 26.44 38 36 89.87 40.48 372.75 50.08 515.64 52.33"/>
            <path d="m5045.48 592.83 9.94 3.65-10.05 3.35z"/>
        </g>
        <g stroke="#000" class="edge">
            <path fill="none" d="M4450.46 397.53c75.72 25.91 233.96 80.05 317.76 108.72"/>
            <path d="m4769.28 502.92 8.33 6.55-10.6.07z"/>
        </g>
        <g stroke="#000" class="edge">
            <path fill="none" d="M4417.15 400.3c4.07 7.72 8.97 16.99 13.52 25.59"/>
            <path d="m4433.67 424.08 1.58 10.48-7.77-7.21z"/>
        </g>
        <g stroke="#000" class="edge">
            <path fill="none" d="M4335.57 389.27c-39.48 3.35-89.19 7.44-133.57 10.73-60.74 4.5-500-2.74-547 36-38.62 31.83-41.29 95.22-39.1 132.26"/>
            <path d="m3619.39 567.97-2.72 10.24-4.26-9.7z"/>
        </g>
        <g stroke="#000" class="edge">
            <path fill="none" d="M4363.71 397.26c-18.14 8.27-37.29 20.71-47.71 38.74-8.01 13.85-6.09 21.21 0 36 17.86 43.36 58.84 79.64 88.82 101.75"/>
            <path d="m4406.8 570.87 6.09 8.67-10.17-2.98z"/>
        </g>
        <g stroke="#000" class="edge">
            <path fill="none" d="M4976.53 249.57C5102.27 270.42 5368.24 324.8 5565 436c43.4 24.53 54.33 33.51 86 72 15.39 18.7 28.36 42.94 37.09 61.4"/>
            <path d="m5691.23 567.85.98 10.55-7.35-7.64z"/>
        </g>
        <g stroke="#000" class="edge">
            <path fill="none" d="M4814.69 241.1c-141.92 3.3-425.85 9.81-666.69 14.9-100.89 2.13-1722.63-2.28-1816 36-43.05 17.65-49.14 34.01-76 72-30.32 42.89-6.92 75.26-48 108-65.16 51.93-131.04-28.33-184 36-16.52 20.07 2.45 46.01 21.95 64.71"/>
            <path d="m2048.07 569.91 5.05 9.31-9.76-4.13z"/>
        </g>
        <g stroke="#000" class="edge">
            <path fill="none" d="M4981.29 248.25c39.46 7.37 87.1 20.51 124.71 43.75 108.76 67.22 144.87 96.37 190 216 5.65 14.97 9.44 23.08 0 36-19.55 26.77-52.78 40.33-84.4 47.09"/>
            <path d="m5212.48 594.49-10.48-1.57 9.17-5.31z"/>
        </g>
        <g stroke="red" stroke-width="2" class="edge">
            <path fill="none" d="M4833.3 249.49c-69.46 10.31-177.72 26.73-271.3 42.51a2477 2477 0 0 0-19.79 3.42"/>
            <path fill="red" d="m4544.43 298.58-10.46-1.69 9.23-5.2z"/>
        </g>
        <g stroke="#000" class="edge">
            <path fill="none" d="M4903.9 256.24c-1.98 19.12-7.49 50.12-22.9 71.76-9.08 12.75-22.26 23.37-35.21 31.68"/>
            <path d="m4847.67 362.63-10.37 2.16 6.76-8.16z"/>
        </g>
        <g stroke="#000" class="edge">
            <path fill="none" d="M4905.87 256.17c.62 18 .79 47.06-2.87 71.83-9.48 64.15-43.62 133.02-64.11 169.92"/>
            <path d="m4841.97 499.59-7.97 6.98 1.88-10.43z"/>
        </g>
        <g stroke="#000" class="edge">
            <path fill="none" d="M4814.84 241.26C4695.13 245.53 4477.57 257.7 4295 292c-111.96 21.03-137.93 35.98-246 72-43.23 14.41-51.64 25.6-96 36-76.55 17.95-297.31-20.5-352 36-34.3 35.44-13.16 97.87 3.56 133.69"/>
            <path d="m3607.63 568.01 1.24 10.52-7.53-7.45z"/>
        </g>
        <g stroke="#000" class="edge">
            <path fill="none" d="M4916.89 256.07c34.29 51.48 126 206.6 46.11 287.93-29.34 29.87-285.42 44.15-428.05 49.84"/>
            <path d="m4535.26 597.33-10.13-3.1 9.86-3.89z"/>
        </g>
        <g stroke="#000" class="edge">
            <path fill="none" d="M3816.24 464.26c77.45 10.41 206.65 27.93 317.76 43.74 108.53 15.44 134.86 25.79 244 36 124.29 11.63 990.82 41.73 1249.35 50.54"/>
            <path d="m5627.09 591.03 9.87 3.84-10.11 3.16z"/>
        </g>
        <g stroke="#000" class="edge">
            <path fill="none" d="M3699.9 469.27c-70.52 20.66-208.09 58.22-327.9 74.73-233.57 32.19-952.2 47.18-1206.05 51.57"/>
            <path d="m2166.15 599.07-10.05-3.33 9.93-3.67z"/>
        </g>
        <g stroke="#000" class="edge">
            <path fill="none" d="M3809.58 466.17c11.44 1.99 23.29 4 34.42 5.83 104.27 17.12 133.6 6.28 235 36 37.8 11.08 42.7 26.77 81 36 84.92 20.46 667.64 42.51 886.85 50.18"/>
            <path d="m5046.88 590.68 9.87 3.85-10.11 3.15z"/>
        </g>
        <g stroke="#000" class="edge">
            <path fill="none" d="M3819.71 463.04c29.54 3.09 64.02 6.47 95.29 8.96 295.05 23.53 644.82 41.02 811 48.69"/>
            <path d="m4725.82 517.18 9.83 3.96-10.15 3.04z"/>
        </g>
        <g stroke="#000" class="edge">
            <path fill="none" d="M3712.75 470.61c-16.93 9.04-36.69 21.73-50.75 37.39-15.84 17.64-27.1 42.15-34.12 60.98"/>
            <path d="m3631.27 569.89-6.62 8.28.02-10.6z"/>
        </g>
        <g stroke="#000" class="edge">
            <path fill="none" d="M3764.61 471.93c23.04 21 65.67 56 109.39 72.07 83.9 30.85 332.49 44.58 470.67 49.97"/>
            <path d="m4344.68 590.47 9.86 3.88-10.12 3.11z"/>
        </g>
        <g stroke="#000" class="edge">
            <path fill="none" d="M631.77 394.65C512.89 410.03 318.65 435.26 318 436c-10.55 12.03-9.51 23.14 0 36 64.95 87.83 127.27 53.95 235 72 277.95 46.58 1148.07 52.34 1432.24 52.96"/>
            <path d="m1985.21 593.46 9.99 3.52-10.01 3.48z"/>
        </g>
        <g stroke="#000" class="edge">
            <path fill="none" d="M659.08 397.93c-47.57 11.29-112.86 26.78-162.08 38.46"/>
            <path d="m497.82 439.79-10.54-1.09 8.93-5.72z"/>
        </g>
        <g class="node" transform="translate(4 616)">
            <ellipse cx="187" cy="-162" fill="none" stroke="#000" rx="80.01" ry="18"/>
            <text x="187" y="-156.95" font-family="Times,serif" font-size="14" text-anchor="middle">:library:koin-room</text>
        </g>
        <g stroke="#000" class="edge">
            <path fill="none" d="M631.87 394.63c-14.34 1.82-29.01 3.66-42.87 5.37-135.04 16.63-169.44 15.88-304 36-7.49 1.12-15.31 2.38-23.09 3.7"/>
            <path d="m262.52 443.15-10.45-1.75 9.26-5.15z"/>
        </g>
        <g class="node" transform="translate(4 616)">
            <ellipse cx="1278" cy="-162" fill="none" stroke="#000" rx="60.56" ry="18"/>
            <text x="1278" y="-156.95" font-family="Times,serif" font-size="14" text-anchor="middle">:library:room</text>
        </g>
        <g stroke="#000" class="edge">
            <path fill="none" d="M820.66 393.17C951.41 406.75 1169.96 429.8 1207 436a515 515 0 0 1 18.47 3.47"/>
            <path d="m1226.02 436 9.05 5.51-10.51 1.34z"/>
        </g>
        <g stroke="#000" class="edge">
            <path fill="none" d="M351.47 394.67C251.97 407.16 110.18 426.48 102 436c-10.42 12.14-9.61 23.21 0 36 68.92 91.78 134.63 54.1 248 72 319.66 50.48 1327.72 53.51 1635.73 53.22"/>
            <path d="m1985.3 593.72 10.01 3.49-10 3.51z"/>
        </g>
        <g stroke="#000" class="edge">
            <path fill="none" d="M539.65 395.36c16.41 1.84 33.36 3.5 49.35 4.64 703.28 50.26 881.21 15.97 1586 36 130.52 3.71 280.24 8.95 381.16 12.63"/>
            <path d="m2556.22 445.13 9.87 3.87-10.12 3.13z"/>
        </g>
        <g stroke="#000" class="edge">
            <path fill="none" d="M390.64 398.62c-41.42 11.28-97.24 26.49-139.32 37.95"/>
            <path d="m252.42 439.9-10.57-.75 8.73-6z"/>
        </g>
        <g stroke="#000" class="edge">
            <path fill="none" d="M541.58 395.1c15.81 1.81 32.07 3.53 47.42 4.9 274.04 24.48 345.58-2.54 618 36 6.11.86 12.47 1.97 18.77 3.21"/>
            <path d="m1226.45 435.77 9.08 5.46-10.5 1.4z"/>
        </g>
        <g stroke="#000" class="edge">
            <path fill="none" d="M1085.09 470.02c59.58 11.46 141.52 27.21 202.41 38.92"/>
            <path d="m1287.97 505.47 9.15 5.32-10.48 1.55z"/>
        </g>
        <g class="node" transform="translate(4 616)">
            <ellipse cx="1068" cy="-90" fill="none" stroke="#000" rx="93.32" ry="18"/>
            <text x="1068" y="-84.95" font-family="Times,serif" font-size="14" text-anchor="middle">:library:koin-datastore</text>
        </g>
        <g stroke="#000" class="edge">
            <path fill="none" d="M1023.07 472.3c7.63 8.23 16.91 18.22 25.33 27.28"/>
            <path d="m1050.85 497.08 4.24 9.71-9.37-4.95z"/>
        </g>
        <g stroke="#000" class="edge">
            <path fill="none" d="M934.3 394.41c-15.46 1.88-31.33 3.8-46.3 5.59-68.64 8.2-263.03-15.63-309 36-31.92 35.85-33.34 73.46 0 108 48.96 50.73 1089.42 53.54 1406.25 53.22"/>
            <path d="m1985.15 593.72 10 3.49-10 3.51z"/>
        </g>
        <g stroke="#000" class="edge">
            <path fill="none" d="M1148.57 386.26c132.06 3.51 349.22 9.21 536.43 13.74 709.31 17.16 888.13-12.26 1596 36 18.69 1.27 38.65 3.18 57.69 5.25"/>
            <path d="m3339.04 437.77 9.54 4.59-10.32 2.36z"/>
        </g>
        <g stroke="#000" class="edge">
            <path fill="none" d="M928.36 393.29c-23.99 2.35-49.59 4.74-73.36 6.71-238.38 19.77-298.99 12.12-537 36-16.19 1.62-33.49 3.71-49.95 5.86"/>
            <path d="m268.69 445.3-10.37-2.15 9.45-4.79z"/>
        </g>
        <g stroke="#000" class="edge">
            <path fill="none" d="M1083.28 398.45c42.95 11.79 101.77 27.94 144.26 39.6"/>
            <path d="m1228.34 434.64 8.72 6.02-10.57.73z"/>
        </g>
        <g stroke="#000" class="edge">
            <path fill="none" d="M1876.87 467.13c18.72 1.81 37.97 3.52 56.13 4.87 168.39 12.55 597.57-13.52 759 36 29.37 9.01 29.51 27.39 59 36 95.11 27.76 1683.95 33.59 1783 36 183.02 4.46 397.62 10.87 512.81 14.41"/>
            <path d="m5046.59 590.9 9.88 3.81-10.1 3.19z"/>
        </g>
        <g stroke="#000" class="edge">
            <path fill="none" d="M1876.41 467.14c18.87 1.82 38.28 3.52 56.59 4.86 360.73 26.33 452.61 5.38 813 36 12.2 1.04 24.99 2.35 37.63 3.79"/>
            <path d="m2783.66 508.26 9.52 4.64-10.33 2.32z"/>
        </g>
        <g stroke="#000" class="edge">
            <path fill="none" d="M1651.7 466.74c-17.32 1.77-34.98 3.57-51.7 5.26-159.98 16.19-200.01 19.91-360 36-24.54 2.47-51.09 5.15-75.68 7.64"/>
            <path d="m1164.98 519.09-10.3-2.48 9.6-4.49z"/>
        </g>
        <g stroke="#000" class="edge">
            <path fill="none" d="M127.91 399.62C113.32 408.23 98.14 420.28 90 436c-23.76 45.88-1.58 81.89 43 108 80.72 47.28 1479.75 52.42 1852.42 52.95"/>
            <path d="m1985.42 593.45 9.99 3.51-10 3.49z"/>
        </g>
        <g stroke="#000" class="edge">
            <path fill="none" d="M258.08 395.19c16.29 1.83 33.08 3.53 48.92 4.81 96.11 7.74 778.19-1.54 867 36 21.43 9.06 16.57 26.95 38 36 27.14 11.46 870.29 39.22 1187.18 49.28"/>
            <path d="m2399.29 517.78 9.88 3.82-10.11 3.18z"/>
        </g>
        <g stroke="#000" class="edge">
            <path fill="none" d="M171.43 400.3c2.8 7.55 6.15 16.58 9.29 25.02"/>
            <path d="m183.92 423.88.2 10.6-6.76-8.16z"/>
        </g>
        <g stroke="#000" class="edge">
            <path fill="none" d="M258.08 395.21c16.28 1.83 33.08 3.53 48.92 4.79 399.05 31.82 503.13-16.47 900 36 6.36.84 12.97 1.96 19.52 3.24"/>
            <path d="m1226.86 435.73 9.09 5.45-10.51 1.41z"/>
        </g>
        <g stroke="#000" class="edge">
            <path fill="none" d="M6138.4 251.6c-52.42 11.87-131.06 29.68-186.81 42.31"/>
            <path d="m5952.42 297.32-10.53-1.21 8.98-5.62z"/>
        </g>
        <g stroke="#000" class="edge">
            <path fill="none" d="M6194.94 256.5c1.4 18.26 4.81 47.54 13.06 71.5 5.96 17.31 15.41 18.28 20 36 4.01 15.49 4.8 20.74 0 36-3 9.54-8.4 18.86-14.16 26.96"/>
            <path d="m6216.82 428.83-8.86 5.81 3.3-10.06z"/>
        </g>
        <g stroke="#000" class="edge">
            <path fill="none" d="M6239.11 253.42c33.93 10.84 80.65 25.78 117.12 37.43"/>
            <path d="m6357.29 287.52 8.46 6.38-10.59.29z"/>
        </g>
        <g stroke="#000" class="edge">
            <path fill="none" d="M6206.12 256.24c15.53 20.64 44.46 54.58 77.88 71.76 84.22 43.29 143.77-31.69 210 36 34.27 35.03 33.13 96.47 28.82 132.47"/>
            <path d="m6526.32 496.7-4.83 9.43-2.1-10.38z"/>
        </g>
        <g stroke="#000" class="edge">
            <path fill="none" d="M6220.85 255.35c16.06 10.07 36.68 23.53 54.15 36.65 19.66 14.76 19.78 25.47 42 36 82.41 39.05 129.57-19.41 202 36 67.92 51.96 126.64 117.75 68 180-27.76 29.46-606.34 46.24-813.79 51.33"/>
            <path d="m5773.45 598.82-10.09-3.25 9.92-3.74z"/>
        </g>
        <g stroke="#000" class="edge">
            <path fill="none" d="M6267.96 245.99C6406.87 259.13 6696.98 286.7 6743 292c16.07 1.85 33.26 4.02 49.63 6.18"/>
            <path d="m6792.86 294.68 9.45 4.79-10.37 2.15z"/>
        </g>
        <g stroke="#000" class="edge">
            <path fill="none" d="M6128.86 249.14c-20.39 2.76-43.02 5.38-63.86 6.86-96.13 6.81-3378.23 3.63-3469 36-24.12 8.6-21.78 25.19-45 36-74.36 34.6-111.85-8.11-181 36-50.14 31.98-29.42 75.15-79 108-58.23 38.58-95.22-3.25-153 36-22.45 15.25-39.27 41.53-49.68 61.59"/>
            <path d="m2091.56 570.93-7.57 7.42 1.29-10.52z"/>
        </g>
        <g stroke="#000" class="edge">
            <path fill="none" d="M6201.55 256.32c8.04 18.12 21.39 47.28 34.45 71.68 33.13 61.91 110.96 90.91 65 144-71.13 82.16-831.78 114.07-1087.6 122.52"/>
            <path d="m5213.58 598.02-10.1-3.17 9.88-3.83z"/>
        </g>
        <g stroke="#000" class="edge">
            <path fill="none" d="M6259.1 249.1c80.74 12.54 218.36 33.9 305.58 47.43"/>
            <path d="m6565.01 293.04 9.35 5-10.42 1.92z"/>
        </g>
        <g stroke="#000" class="edge">
            <path fill="none" d="M6128.52 249.01c-20.31 2.73-42.8 5.38-63.52 6.99-666.19 51.72-838.31-32.29-1503 36-7.46.77-15.22 1.8-22.93 2.98"/>
            <path d="m4539.76 298.42-10.43-1.86 9.31-5.05z"/>
        </g>
        <g stroke="#000" class="edge">
            <path fill="none" d="M6127.14 248.63c-19.96 2.65-41.91 5.35-62.14 7.37-235.38 23.46-296.77 2.99-531 36-75.18 10.6-91.96 24.43-167 36-171.33 26.42-374.1 41.58-483.8 48.47"/>
            <path d="m4883.62 379.95-10.2-2.88 9.77-4.11z"/>
        </g>
        <g stroke="#000" class="edge">
            <path fill="none" d="m5963.34 255.24-44.84 30.77"/>
            <path d="m5920.71 288.74-10.22 2.77 6.26-8.54z"/>
        </g>
        <g stroke="#000" class="edge">
            <path fill="none" d="M5996.27 256.06c11.58 19.83 33.13 52.34 59.73 71.94 36.68 27.03 62.92 4.66 96 36 17.12 16.22 27.17 41.26 32.77 60.65"/>
            <path d="m6188.1 423.56-.85 10.57-5.92-8.79z"/>
        </g>
        <g stroke="#000" class="edge">
            <path fill="none" d="M6044.01 248.37c75 12.32 207.11 34.03 291.23 47.85"/>
            <path d="m6335.73 292.76 9.3 5.07-10.43 1.83z"/>
        </g>
        <g stroke="#000" class="edge">
            <path fill="none" d="M6034.7 251.38c35.14 9.66 83.84 24.17 125.3 40.62 33.63 13.34 39.01 23.62 73 36 63.21 23.01 89.7.77 147 36 55.61 34.19 100.4 98.26 122.67 134.42"/>
            <path d="m6505.39 496.16 2.17 10.37-8.16-6.76z"/>
        </g>
        <g stroke="#000" class="edge">
            <path fill="none" d="M6015.61 254.84C6090 296.31 6284.9 406.89 6301 436c7.74 14 10.1 23.59 0 36-65.97 81.1-383.79 111.31-528.71 121"/>
            <path d="m5772.62 596.48-10.2-2.84 9.75-4.14z"/>
        </g>
        <g stroke="#000" class="edge">
            <path fill="none" d="M6044.11 248.4c18.72 2.81 39.65 5.65 58.89 7.6 283.45 28.68 356.38 9.08 640 36 16.37 1.55 33.88 3.63 50.51 5.79"/>
            <path d="m6793.9 294.31 9.45 4.79-10.38 2.15z"/>
        </g>
        <g stroke="#000" class="edge">
            <path fill="none" d="M5921.23 243.71c-59.16 4.02-148.46 9.58-226.23 12.29-87.09 3.03-3055.27 5.77-3137 36-23.38 8.65-20.51 25.26-43 36-74.8 35.73-114.5-10.69-183 36-47.07 32.08-22.31 75.38-69 108-60.82 42.49-109.35-15.24-163 36-16.2 15.47-21.86 40.62-23.66 60.25"/>
            <path d="m2079.84 568.34-4.09 9.77-2.9-10.19z"/>
        </g>
        <g stroke="#000" class="edge">
            <path fill="none" d="M5928.45 247.83c-39.49 7.67-91.79 21.26-133.45 44.17-18.26 10.05-259.11 243.19-278 252-52.77 24.6-208.84 40.04-305.91 47.55"/>
            <path d="m5211.59 595.02-10.23-2.73 9.7-4.25z"/>
        </g>
        <g stroke="#000" class="edge">
            <path fill="none" d="M6044.74 248.12c18.57 2.76 39.26 5.65 58.26 7.88 179.91 21.14 225.87 16.76 406 36 16.79 1.79 34.72 3.9 51.87 6"/>
            <path d="m6561.01 294.5 9.49 4.7-10.35 2.24z"/>
        </g>
        <g stroke="#000" class="edge">
            <path fill="none" d="M5920.92 243.35c-59.16 3.77-148.3 9.16-225.92 12.65-503.3 22.64-632.03-17.44-1133 36-7.46.8-15.21 1.85-22.93 3.04"/>
            <path d="m4539.77 298.47-10.43-1.84 9.3-5.06z"/>
        </g>
        <g stroke="#000" class="edge">
            <path fill="none" d="M5923.78 245.41c-93.54 9.58-274.3 28.45-427.78 46.59-226.33 26.75-493.72 62.17-619.99 79.13"/>
            <path d="m4876.48 374.6-10.38-2.14 9.44-4.8z"/>
        </g>
        <g stroke="#000" class="edge">
            <path fill="none" d="M5877.89 184.42c-1.86 17.96-3.98 46.77-1.89 71.58.68 8.03 1.92 16.67 3.27 24.6"/>
            <path d="m5882.71 279.95-1.64 10.47-5.24-9.21z"/>
        </g>
        <g stroke="#000" class="edge">
            <path fill="none" d="M5881.79 184.22c2.81 19.39 9.87 50.9 27.21 71.78 21.35 25.7 38.5 17.02 66 36 20.24 13.96 20.83 23.49 42 36 39.23 23.18 58.52 10.08 96 36 13.14 9.09 39.12 40 57.47 62.85"/>
            <path d="m6173.13 424.57 3.5 10.01-8.97-5.64z"/>
        </g>
        <g stroke="#000" class="edge">
            <path fill="none" d="M5963.28 172.39c101.3 7.51 265.71 23.03 321.72 47.61 22.82 10.02 22.82 21.37 43 36 14.9 10.8 32 21.73 46.95 30.83"/>
            <path d="m6376.35 283.59 6.76 8.16-10.37-2.16z"/>
        </g>
        <g stroke="#000" class="edge">
            <path fill="none" d="M5966.2 170.68c221.74 9.62 800.64 35.68 886.8 49.32 123.09 19.49 195.03-26.79 271 72 9.75 12.68 9.58 23.18 0 36-33.85 45.28-68.54 17.62-122 36-123.78 42.56-149.4 67.9-274 108-50.44 16.23-108.97 30.65-151.41 40.34"/>
            <path d="m6577.62 515.69-10.53-1.21 8.98-5.62z"/>
        </g>
        <g stroke="#000" class="edge">
            <path fill="none" d="M5966.23 170.64C6217.59 181.3 6934.97 212.24 6985 220c152.24 23.6 335-65.05 335 89v146c0 16.79 57.52 27.41-128 89-135.11 44.85-1137.24 51.76-1418.68 52.81"/>
            <path d="m5773.56 600.31-10.01-3.46 9.99-3.54z"/>
        </g>
        <g stroke="#000" class="edge">
            <path fill="none" d="M5967.23 169.81c161.63 5.82 501.6 21.15 615.77 50.19 37.79 9.61 43.2 23.12 80 36 45.45 15.91 98.02 29.31 138.81 38.66"/>
            <path d="m6802.53 291.23 8.98 5.62-10.52 1.21z"/>
        </g>
        <g stroke="#000" class="edge">
            <path fill="none" d="M5792.1 168.86C5247.51 180.55 2354.44 244.77 2277 292c-78.51 47.87-28.15 125.21-102 180-58.89 43.69-115.16-21.22-161 36-10 12.49-6.7 21.47 0 36 5.4 11.72 14.81 21.81 24.69 29.95"/>
            <path d="m2040.74 571.11 5.85 8.83-10.08-3.26z"/>
        </g>
        <g stroke="#000" class="edge">
            <path fill="none" d="M5792.01 168.49c-95.05 3.5-238.15 14.9-277.01 51.51-107.04 100.83 38.97 222.06-67 324-32.79 31.55-152.22 44.4-235 49.58"/>
            <path d="m5213.28 597.07-10.19-2.9 9.77-4.09z"/>
        </g>
        <g stroke="#000" class="edge">
            <path fill="none" d="M5966.02 170.66c168.64 7.64 530.86 26.48 582.98 49.34 8.51 3.73 45.31 39.01 70.8 64.01"/>
            <path d="m6622.2 281.46 4.67 9.51-9.58-4.52z"/>
        </g>
        <g stroke="#000" class="edge">
            <path fill="none" d="M5790.93 166.43C5502.17 165.78 4595.39 173.46 4332 292c-113.96 51.29-108.54 116.21-216 180-23.71 14.07-51.83 25.85-76.18 34.7"/>
            <path d="m4041.31 509.89-10.6.04 8.26-6.64z"/>
        </g>
        <g stroke="#000" class="edge">
            <path fill="none" d="M5797.71 172.91c-179.51 12.89-605.5 43.47-796.79 57.2"/>
            <path d="m5001.22 233.6-10.22-2.77 9.72-4.21z"/>
        </g>
        <g stroke="#000" class="edge">
            <path fill="none" d="M5863.56 183.83c-20.69 22.46-55.13 64.53-68.56 108.17-4.71 15.29-7.8 22.03 0 36 7.36 13.18 19.49 23.49 32.35 31.36"/>
            <path d="m5828.93 356.24 7.01 7.94-10.43-1.84z"/>
        </g>
        <g stroke="#000" class="edge">
            <path fill="none" d="M5657.34 252.08c46.5 11.63 114.59 28.65 164.19 41.05"/>
            <path d="m5822.12 289.67 8.86 5.82-10.55.97z"/>
        </g>
        <g stroke="#000" class="edge">
            <path fill="none" d="M5615.38 256.31C5636.92 290.48 5690.1 366.2 5757 400c55.21 27.89 216.03 41.75 325.61 48.14"/>
            <path d="m6082.75 444.64 9.78 4.07-10.18 2.92z"/>
        </g>
        <g stroke="#000" class="edge">
            <path fill="none" d="M5678.85 245.4c148.56 12.87 483.09 41.85 644.15 55.8"/>
            <path d="m6323.13 297.7 9.66 4.35-10.27 2.62z"/>
        </g>
        <g stroke="#000" class="edge">
            <path fill="none" d="M5609.3 256.27c5.09 18.59 14.7 48.62 28.7 71.73 22.34 36.87 28.31 49.36 65 72 124.81 77 571.92 110.82 745.46 121.25"/>
            <path d="m6448.44 517.74 9.78 4.09-10.19 2.9z"/>
        </g>
        <g stroke="#000" class="edge">
            <path fill="none" d="M5605.45 256.49c.9 18.27 3.59 47.54 11.55 71.51 11.53 34.74 18.9 42.09 40 72 36.85 52.24 72.44 48.19 95 108 5.65 14.97 6.05 21.19 0 36-4.5 11.01-12.51 20.96-20.91 29.2"/>
            <path d="m5733.55 575.69-9.76 4.13 5.06-9.31z"/>
        </g>
        <g stroke="#000" class="edge">
            <path fill="none" d="M5682.14 243.59c61.44 3.58 149.65 8.58 226.86 12.41 370.56 18.36 464.43 3.36 834 36 16.47 1.46 34.09 3.5 50.8 5.67"/>
            <path d="m6794.24 294.19 9.45 4.79-10.37 2.15z"/>
        </g>
        <g stroke="#000" class="edge">
            <path fill="none" d="M5525.91 241.61c-114.77 3.71-334.16 10.47-520.91 14.39-73.32 1.54-2572.54 7.24-2640 36-20.67 8.81-57.53 54.01-71 72-32.91 43.95-15.79 75.43-60 108-62.88 46.33-122.76-24.62-172 36-13.92 17.13-8.24 42.41-.34 61.66"/>
            <path d="m2064.74 567.98.94 10.55-7.32-7.67z"/>
        </g>
        <g stroke="#000" class="edge">
            <path fill="none" d="M5604.01 256.27C5599.99 309 5580.2 468.86 5486 544c-40.93 32.65-180.83 45.26-272.58 50.08"/>
            <path d="m5213.59 597.58-10.16-2.99 9.81-4z"/>
        </g>
        <g stroke="#000" class="edge">
            <path fill="none" d="M5682.22 243.39c211.3 12.03 785.95 44.87 826.78 48.61 17.01 1.56 35.17 3.58 52.5 5.68"/>
            <path d="m6561.75 294.19 9.5 4.7-10.35 2.24z"/>
        </g>
        <g stroke="#000" class="edge">
            <path fill="none" d="M5563.07 253.78C5533.6 264.25 5493.3 278.73 5458 292c-123.3 46.34-152.45 62.33-276 108-106.8 39.47-232.69 82.51-303.44 106.38"/>
            <path d="m4879.72 509.69-10.6-.13 8.36-6.51z"/>
        </g>
        <g stroke="#000" class="edge">
            <path fill="none" d="M5525.84 241.65c-267.62 9.07-1123.4 38.9-1149.84 50.35-26.24 11.37-159.05 166.02-184 180-38.15 21.38-84.97 34.27-124.72 41.98"/>
            <path d="m4067.96 517.41-10.47-1.62 9.2-5.26z"/>
        </g>
        <g stroke="#000" class="edge">
            <path fill="none" d="M5525.35 241.04C5256.87 248.11 4398.7 272.13 4343 292c-25.12 8.96-23.8 24.81-48 36-65.77 30.41-89.94 14.07-159 36-39.88 12.67-46.82 24.31-87 36-72.42 21.06-157.18 35.05-218.44 43.33"/>
            <path d="m3831.28 446.77-10.38-2.15 9.45-4.79z"/>
        </g>
        <g stroke="#000" class="edge">
            <path fill="none" d="M5632.07 255.41c30.95 18.51 83.36 49.09 129.93 72.59 22.37 11.29 47.66 22.73 69.16 32.08"/>
            <path d="m5832.52 356.86 7.79 7.17-10.57-.75z"/>
        </g>
        <g stroke="#000" class="edge">
            <path fill="none" d="M6395.85 247.13c-106.81 12.94-315.03 38.16-429.91 52.07"/>
            <path d="m5966.63 302.64-10.35-2.27 9.51-4.68z"/>
        </g>
        <g stroke="#000" class="edge">
            <path fill="none" d="M6482.55 255.7c19.79 18.9 45.03 49.97 26.45 72.3-56.38 67.74-113.98 1.32-195 36-36.74 15.73-73.11 44.05-96.66 64.52"/>
            <path d="m6219.91 430.93-9.81 4.01 5.16-9.25z"/>
        </g>
        <g stroke="#000" class="edge">
            <path fill="none" d="M6450.9 255.95c-5.69 7.96-12.61 17.64-18.96 26.54"/>
            <path d="m6434.88 284.39-8.66 6.1 2.96-10.17z"/>
        </g>
        <g stroke="#000" class="edge">
            <path fill="none" d="M6525.56 248.78c80.39 12.87 210.49 34.83 217.44 43.22 70.01 84.51-97.47 175.57-181.04 214.09"/>
            <path d="m6563.65 509.17-10.55.94 7.65-7.32z"/>
        </g>
        <g stroke="#000" class="edge">
            <path fill="none" d="M6534.27 245.15C6676.57 257.55 6983.09 285 6992 292c91.97 72.29 157.1 167.69 76 252-45.18 46.96-1017.14 52.36-1294.63 52.94"/>
            <path d="m5773.75 600.44-10-3.48 9.99-3.52z"/>
        </g>
        <g stroke="#000" class="edge">
            <path fill="none" d="M6524.5 249.21c63.15 10.52 164.23 27.51 251.5 42.79 7.3 1.28 14.91 2.63 22.51 3.99"/>
            <path d="m6798.88 292.49 9.22 5.21-10.46 1.68z"/>
        </g>
        <g stroke="#000" class="edge">
            <path fill="none" d="M6395.06 246.85c-33.15 3.48-73.64 7.22-110.06 9.15-756.09 40.03-2652.35-25.48-3407 36-26.33 2.14-447.11 58.82-470 72-53.42 30.75-35.04 74.84-87 108-55.97 35.72-86.27 5.03-145 36-2.14 1.13-43.92 38.55-72.79 64.5"/>
            <path d="m2105.62 575.04-9.77 4.08 5.09-9.29z"/>
        </g>
        <g stroke="#000" class="edge">
            <path fill="none" d="M6533.9 245.35c135.41 12.29 418.06 38.82 425.1 46.65 10.7 11.9 7.29 21.76 0 36-75.23 146.87-145.6 163.36-302 216-2.16.73-1124.86 39.23-1443.56 50.14"/>
            <path d="m5213.63 597.64-10.12-3.16 9.88-3.84z"/>
        </g>
        <g stroke="#000" class="edge">
            <path fill="none" d="M6501.6 253.85c27.04 10.4 63.45 24.4 92.81 35.69"/>
            <path d="m6595.39 286.17 8.08 6.86-10.59-.33z"/>
        </g>
        <g stroke="#000" class="edge">
            <path fill="none" d="M6393.29 246.01c-32.84 3.22-72.56 6.97-108.29 9.99-217.59 18.38-274.23 2.44-490 36-1.44.22-686.12 164.43-905.34 217.01"/>
            <path d="m4890.67 512.37-10.54-1.07 8.91-5.74z"/>
        </g>
        <g stroke="#000" class="edge">
            <path fill="none" d="M6394.61 246.54c-33.07 3.39-73.36 7.14-109.61 9.46-568.63 36.43-1251.37 48.4-1510.87 51.8"/>
            <path d="m4774.4 311.3-10.04-3.37 9.95-3.63z"/>
        </g>
        <g stroke="#000" class="edge">
            <path fill="none" d="M6679.1 245.45c-39.13 3.19-87.1 7.09-130.1 10.55-207.28 16.7-450.99 36.09-577.67 46.15"/>
            <path d="m5971.94 305.61-10.25-2.69 9.7-4.28z"/>
        </g>
        <g stroke="#000" class="edge">
            <path fill="none" d="M6832.44 247.3c73.63 11.02 169.55 34.69 126.56 80.7-40.38 43.21-473.21 23.47-531 36-69.54 15.07-145.9 46.67-192.65 67.87"/>
            <path d="m6236.9 435.01-10.55.98 7.64-7.35z"/>
        </g>
        <g stroke="#000" class="edge">
            <path fill="none" d="M6697.91 251.19c-59.38 12.05-150.21 30.48-213.3 43.28"/>
            <path d="m6485.54 297.85-10.49-1.44 9.1-5.42z"/>
        </g>
        <g stroke="#000" class="edge">
            <path fill="none" d="M6844.12 239.77c91.9 2.86 228.77 13.7 261.88 52.23 10.43 12.14 10.14 23.63 0 36-51.72 63.09-102.05 11.91-180 36-117.2 36.22-139.49 64.01-254 108-34.32 13.18-73.51 26.65-103.76 36.71"/>
            <path d="m6569.55 511.96-10.59-.18 8.39-6.47z"/>
        </g>
        <g stroke="#000" class="edge">
            <path fill="none" d="M6840.27 243.48c105.68 6.74 282.53 21.67 341.73 48.52 54.18 24.58 100 29.5 100 89v74c0 92.04-97.62 67.02-187 89-128.48 31.59-1052.75 47.85-1321.74 51.95"/>
            <path d="m5773.64 599.44-10.05-3.35 9.95-3.65z"/>
        </g>
        <g stroke="#000" class="edge">
            <path fill="none" d="M6784.54 255.59c14.89 9.31 33.67 21.04 49.83 31.14"/>
            <path d="m6836.13 283.7 6.62 8.27-10.33-2.33z"/>
        </g>
        <g stroke="#000" class="edge">
            <path fill="none" d="M6681.15 246.49c-39.46 3.53-88.33 7.42-132.15 9.51-1126.39 53.74-1409.85 1.92-2537 36-86.44 2.61-1476.14 36.51-1555 72-61.05 27.47-46.87 74.79-105 108-58.78 33.58-89.46 1.99-148 36-19.03 11.06-16.66 22.44-34 36-15.52 12.14-34.15 23.25-50.72 32.13"/>
            <path d="m2121.1 579.12-10.49 1.53 7.25-7.73z"/>
        </g>
        <g stroke="#000" class="edge">
            <path fill="none" d="M6844.21 239c96.59 2.05 244.34 12.04 279.79 53 10.47 12.1 7.99 22.14 0 36-101.15 175.35-204.26 168.35-401 216-118.2 28.63-972.45 31.93-1094 36-146.25 4.9-316.61 10.73-415.68 14.13"/>
            <path d="m5213.52 597.63-10.12-3.16 9.88-3.84z"/>
        </g>
        <g stroke="#000" class="edge">
            <path fill="none" d="M6731.22 255.59c-14.92 9.24-33.7 20.87-49.92 30.92"/>
            <path d="m6683.22 289.44-10.35 2.29 6.66-8.24z"/>
        </g>
        <g stroke="#000" class="edge">
            <path fill="none" d="M6838.57 244.79c79.08 8.81 182.08 30.53 139.43 83.21-6.05 7.47-667.46 142.82-677 144-267.82 33.03-1092.23 47.55-1378.69 51.69"/>
            <path d="m4922.68 527.18-10.05-3.35 9.95-3.65z"/>
        </g>
        <g stroke="#000" class="edge">
            <path fill="none" d="M6680.65 246.28c-39.38 3.45-88.03 7.33-131.65 9.72-674.75 36.92-1487.07 48.77-1774.71 51.97"/>
            <path d="m4774.6 311.47-10.04-3.39 9.96-3.61z"/>
        </g>
        <g class="node" transform="translate(4 616)">
            <ellipse cx="1824" cy="-90" fill="none" stroke="#000" rx="106.11" ry="18"/>
            <text x="1824" y="-84.95" font-family="Times,serif" font-size="14" text-anchor="middle">:library:firebase-common</text>
        </g>
        <g stroke="#000" class="edge">
            <path fill="none" d="M2003.84 470.54c-34.06 10.54-79.28 24.55-115.34 35.72"/>
            <path d="m1889.66 509.57-10.59-.39 8.52-6.3z"/>
        </g>
        <g stroke="#000" class="edge">
            <path fill="none" d="M5944.86 397.42c50.71 11.45 121.62 27.46 174.31 39.36"/>
            <path d="m6119.67 433.3 8.98 5.62-10.52 1.21z"/>
        </g>
        <g stroke="#000" class="edge">
            <path fill="none" d="M5905.71 400.05c31.49 20.78 88.32 55.2 142.29 71.95 136.83 42.47 305.46 51.67 398.99 53.22"/>
            <path d="m6446.83 521.72 9.95 3.64-10.05 3.36z"/>
        </g>
        <g stroke="#000" class="edge">
            <path fill="none" d="M5838.56 399.18c-23.24 9.53-52.19 22.5-76.56 36.82-22.99 13.51-25.17 22.22-48 36-32 19.31-116.1 61.59-152 72-118.02 34.22-260.42 46.35-348.61 50.65"/>
            <path d="m5213.78 598.13-10.15-3.03 9.83-3.96z"/>
        </g>
        <g stroke="#000" class="edge">
            <path fill="none" d="M3433.95 472.47c5.36 19.92 16.81 52.22 38.05 71.53 21.7 19.73 51.28 32.25 78.23 40.13"/>
            <path d="m3551 580.71 8.73 6.02-10.57.73z"/>
        </g>
        <g stroke="#000" class="edge">
            <path fill="none" d="M2597.27 538.85c14.84 1.94 30.24 3.77 44.73 5.15 330.64 31.58 726.17 45.84 894.57 50.81"/>
            <path d="m3536.65 591.31 9.89 3.79-10.1 3.21z"/>
        </g>
        <g stroke="#000" class="edge">
            <path fill="none" d="M2768.08 463.17c68.55 7.51 162.73 21.17 242.92 44.83 37.79 11.15 42.92 25.9 81 36 153.14 40.61 338.85 50.56 443.93 52.73"/>
            <path d="m3535.95 593.23 9.94 3.69-10.07 3.31z"/>
        </g>
        <g stroke="#000" class="edge">
            <path fill="none" d="M1332.38 464.29c18.11 2.98 38.72 5.96 57.62 7.71 138.02 12.8 1115.5-7.83 1247 36 26.32 8.77 24.64 27.35 51 36 97.46 31.98 1743.45 33.54 1846 36 183.02 4.39 397.62 10.83 512.82 14.39"/>
            <path d="m5046.59 590.88 9.88 3.81-10.1 3.19z"/>
        </g>
    </g>
</svg>
