<svg xmlns="http://www.w3.org/2000/svg" width="708" height="188pt" viewBox="0 0 530.66 188">
    <g class="graph">
        <path fill="#fff" d="M0 188V0h530.66v188z"/>
        <g class="node" transform="translate(4 184)">
            <ellipse cx="237.52" cy="-162" fill="none" stroke="#000" rx="81.55" ry="18"/>
            <text x="237.52" y="-156.95" font-family="Times,serif" font-size="14" text-anchor="middle">:server:feature:fcm</text>
        </g>
        <g class="node" transform="translate(4 184)">
            <ellipse cx="80.52" cy="-18" fill="none" stroke="#000" rx="80.52" ry="18"/>
            <text x="80.52" y="-12.95" font-family="Times,serif" font-size="14" text-anchor="middle">:server:core:model</text>
        </g>
        <g stroke="#000" class="edge">
            <path fill="none" d="M163.68 27.5C130 33.79 93.55 47.37 72.52 76c-12.88 17.54-8.14 42.42-1.17 61.41"/>
            <path d="m74.48 135.84.54 10.58-7.02-7.94z"/>
        </g>
        <g class="node" transform="translate(4 184)">
            <ellipse cx="150.52" cy="-90" fill="none" stroke="#000" rx="72.85" ry="18"/>
            <text x="150.52" y="-84.95" font-family="Times,serif" font-size="14" text-anchor="middle">:common:model</text>
        </g>
        <g stroke="#000" class="edge">
            <path fill="none" d="M220.91 39.59c-10.97 8.83-24.66 19.84-36.75 29.57"/>
            <path d="m186.46 71.8-9.99 3.54 5.6-9z"/>
        </g>
        <g class="node" transform="translate(4 184)">
            <ellipse cx="437.52" cy="-18" fill="none" stroke="#000" rx="85.13" ry="18"/>
            <text x="437.52" y="-12.95" font-family="Times,serif" font-size="14" text-anchor="middle">:common:exception</text>
        </g>
        <g stroke="#000" class="edge">
            <path fill="none" d="M319.24 27.83c36.15 6.26 76.89 19.73 103.28 48.17 14.89 16.04 19.23 40.76 20.08 60.09"/>
            <path d="m446.1 136.02-3.38 10.04-3.62-9.95z"/>
        </g>
        <g class="node" transform="translate(4 184)">
            <ellipse cx="325.52" cy="-90" fill="none" stroke="#000" rx="84.11" ry="18"/>
            <text x="325.52" y="-84.95" font-family="Times,serif" font-size="14" text-anchor="middle">:server:domain:fcm</text>
        </g>
        <g stroke="red" stroke-width="2" class="edge">
            <path fill="none" d="m262.38 39.59 37.17 29.57"/>
            <path fill="red" d="m300.5 65.44 5.65 8.96-10.01-3.48z"/>
        </g>
        <g stroke="red" stroke-width="2" class="edge">
            <path fill="none" d="M280.53 109c-39.48 11.28-95.13 27.18-137.05 39.15"/>
            <path fill="red" d="m146.08 151.05-10.57-.62 8.65-6.11z"/>
        </g>
        <g stroke="#000" class="edge">
            <path fill="none" d="m355.78 111.41 49.59 31"/>
            <path d="m407.13 139.38 6.63 8.27-10.34-2.34z"/>
        </g>
        <g class="node" transform="translate(4 184)">
            <ellipse cx="272.52" cy="-18" fill="none" stroke="#000" rx="62.1" ry="18"/>
            <text x="272.52" y="-12.95" font-family="Times,serif" font-size="14" text-anchor="middle">:library:kotlin</text>
        </g>
        <g stroke="#000" class="edge">
            <path fill="none" d="M316.69 111.95c-6.18 8.16-13.73 18.14-20.61 27.23"/>
            <path d="m298.98 141.14-8.83 5.86 3.25-10.08z"/>
        </g>
    </g>
</svg>
