<svg xmlns="http://www.w3.org/2000/svg" width="1720" height="404pt" viewBox="0 0 1289.85 404">
    <g class="graph">
        <path fill="#fff" d="M0 404V0h1289.85v404z"/>
        <g class="node" transform="translate(4 400)">
            <ellipse cx="562" cy="-378" fill="none" stroke="#000" rx="71.31" ry="18"/>
            <text x="562" y="-372.95" font-family="Times,serif" font-size="14" text-anchor="middle">:app:data:memo</text>
        </g>
        <g class="node" transform="translate(4 400)">
            <ellipse cx="89" cy="-18" fill="none" stroke="#000" rx="78.99" ry="18"/>
            <text x="89" y="-12.95" font-family="Times,serif" font-size="14" text-anchor="middle">:library:coroutines</text>
        </g>
        <g stroke="#000" class="edge">
            <path fill="none" d="M496.76 26.63C388.57 33.07 184.91 48.47 118 76 58.56 100.46 4 100.72 4 165v74c0 46.99 35.43 91.21 61.58 117.45"/>
            <path d="m67.86 353.79 4.74 9.48-9.61-4.45z"/>
        </g>
        <g class="node" transform="translate(4 400)">
            <ellipse cx="259" cy="-18" fill="none" stroke="#000" rx="72.85" ry="18"/>
            <text x="259" y="-12.95" font-family="Times,serif" font-size="14" text-anchor="middle">:library:datetime</text>
        </g>
        <g stroke="#000" class="edge">
            <path fill="none" d="M498.93 28.5C365.61 41.29 80 78.75 80 165v74c0 64.9 72.72 104.4 126.48 124.74"/>
            <path d="m207.67 360.45 8.2 6.71-10.59-.13z"/>
        </g>
        <g class="node" transform="translate(4 400)">
            <ellipse cx="896" cy="-234" fill="none" stroke="#000" rx="101.51" ry="18"/>
            <text x="896" y="-228.95" font-family="Times,serif" font-size="14" text-anchor="middle">:app:core:diary-database</text>
        </g>
        <g stroke="#000" class="edge">
            <path fill="none" d="M601.43 38.06c60.16 25.58 182.35 77.53 250.28 106.41"/>
            <path d="m852.91 141.18 7.83 7.13-10.57-.69z"/>
        </g>
        <g class="node" transform="translate(4 400)">
            <ellipse cx="996" cy="-90" fill="none" stroke="#000" rx="95.88" ry="18"/>
            <text x="996" y="-84.95" font-family="Times,serif" font-size="14" text-anchor="middle">:app:core:diary-service</text>
        </g>
        <g stroke="#000" class="edge">
            <path fill="none" d="M628.11 31.21C739.19 47.3 964.65 86.84 1011 148c29.24 38.58 13.99 98.44 1 133.26"/>
            <path d="m1015.39 282.2-6.92 8.02.4-10.58z"/>
        </g>
        <g class="node" transform="translate(4 400)">
            <ellipse cx="562" cy="-306" fill="none" stroke="#000" rx="84.11" ry="18"/>
            <text x="562" y="-300.95" font-family="Times,serif" font-size="14" text-anchor="middle">:app:domain:memo</text>
        </g>
        <g stroke="red" stroke-width="2" class="edge">
            <path fill="none" d="M566 40.3v24.16"/>
            <path fill="red" d="m569.5 62.87-3.5 10-3.5-10z"/>
        </g>
        <g class="node" transform="translate(4 400)">
            <ellipse cx="785" cy="-18" fill="none" stroke="#000" rx="71.31" ry="18"/>
            <text x="785" y="-12.95" font-family="Times,serif" font-size="14" text-anchor="middle">:app:core:model</text>
        </g>
        <g stroke="#000" class="edge">
            <path fill="none" d="M892.38 184.22C879.05 214.01 850.2 276.87 822 328c-4.84 8.77-10.48 18.12-15.72 26.48"/>
            <path d="m809.3 356.25-8.32 6.56 2.41-10.32z"/>
        </g>
        <g stroke="#000" class="edge">
            <path fill="none" d="M954.22 326.19c-33.03 10.96-77.71 25.78-112.27 37.24"/>
            <path d="m843.14 366.73-10.59-.18 8.38-6.47z"/>
        </g>
        <g class="node" transform="translate(4 400)">
            <ellipse cx="611" cy="-18" fill="none" stroke="#000" rx="85.13" ry="18"/>
            <text x="611" y="-12.95" font-family="Times,serif" font-size="14" text-anchor="middle">:common:exception</text>
        </g>
        <g stroke="#000" class="edge">
            <path fill="none" d="M932.94 323.19c-68.1 12.38-173.29 31.51-243.83 44.33"/>
            <path d="m690.06 370.91-10.47-1.65 9.22-5.24z"/>
        </g>
        <g class="node" transform="translate(4 400)">
            <ellipse cx="996" cy="-18" fill="none" stroke="#000" rx="121.98" ry="18"/>
            <text x="996" y="-12.95" font-family="Times,serif" font-size="14" text-anchor="middle">:app:core:account-preferences</text>
        </g>
        <g stroke="#000" class="edge">
            <path fill="none" d="M1000 328.3v24.16"/>
            <path d="m1003.5 352.38-3.5 10-3.5-10z"/>
        </g>
        <g class="node" transform="translate(4 400)">
            <ellipse cx="1209" cy="-18" fill="none" stroke="#000" rx="72.85" ry="18"/>
            <text x="1209" y="-12.95" font-family="Times,serif" font-size="14" text-anchor="middle">:common:model</text>
        </g>
        <g stroke="#000" class="edge">
            <path fill="none" d="M1046.22 326.19c33.48 11 78.83 25.91 113.78 37.39"/>
            <path d="m1160.65 360.11 8.4 6.45-10.59.2z"/>
        </g>
        <g stroke="#000" class="edge">
            <path fill="none" d="M490.59 102.33C435.25 109.47 359.08 123.05 296 148c-112.15 44.35-171.58 38.49-230 144-10.77 19.46-2.14 43.74 8.14 62.02"/>
            <path d="m77.07 352.1 2.22 10.36-8.2-6.71z"/>
        </g>
        <g stroke="#000" class="edge">
            <path fill="none" d="M493.5 103.45c-60.42 8.4-140.36 23.16-164.5 44.55-59.46 52.7-67.1 154.57-67.02 204.29"/>
            <path d="m265.48 352.19-3.37 10.05-3.63-9.95z"/>
        </g>
        <g stroke="#000" class="edge">
            <path fill="none" d="M638.81 103.4c31.02 7.14 65.27 20.31 88.19 44.6 53.91 57.13 62.1 155.71 62.63 204.27"/>
            <path d="m793.13 352.24-3.51 10-3.49-10z"/>
        </g>
        <g stroke="#000" class="edge">
            <path fill="none" d="M635.91 104.4c26.48 7.34 54.06 20.4 70.09 43.6 46.74 67.67-25.47 162.73-66.22 207.62"/>
            <path d="m642.49 357.85-9.37 4.95 4.24-9.72z"/>
        </g>
        <g class="node" transform="translate(4 400)">
            <ellipse cx="435" cy="-18" fill="none" stroke="#000" rx="62.1" ry="18"/>
            <text x="435" y="-12.95" font-family="Times,serif" font-size="14" text-anchor="middle">:library:kotlin</text>
        </g>
        <g stroke="#000" class="edge">
            <path fill="none" d="M576.37 111.97c5.53 10.07 11.78 23.32 14.63 36.03 17.73 79.14 22.83 118.47-30 180-16.03 18.67-39.86 30.98-62.21 38.99"/>
            <path d="m500.01 370.27-10.59-.16 8.38-6.48z"/>
        </g>
        <g class="node" transform="translate(4 400)">
            <ellipse cx="459" cy="-90" fill="none" stroke="#000" rx="88.71" ry="18"/>
            <text x="459" y="-84.95" font-family="Times,serif" font-size="14" text-anchor="middle">:app:domain:account</text>
        </g>
        <g stroke="#000" class="edge">
            <path fill="none" d="M570.32 112.08c6.87 31.23 16.83 98.5-11.32 143.92-9.05 14.6-23.65 25.49-38.76 33.48"/>
            <path d="m522.18 292.43-10.53 1.22 7.47-7.52z"/>
        </g>
        <g class="node" transform="translate(4 400)">
            <ellipse cx="459" cy="-162" fill="none" stroke="#000" rx="86.67" ry="18"/>
            <text x="459" y="-156.95" font-family="Times,serif" font-size="14" text-anchor="middle">:app:domain:backup</text>
        </g>
        <g stroke="#000" class="edge">
            <path fill="none" d="M553.58 112.13c-17.79 24.52-50.66 69.84-71.53 98.61"/>
            <path d="m485.06 212.55-8.7 6.04 3.04-10.15z"/>
        </g>
        <g class="node" transform="translate(4 400)">
            <ellipse cx="405" cy="-234" fill="none" stroke="#000" rx="71.31" ry="18"/>
            <text x="405" y="-228.95" font-family="Times,serif" font-size="14" text-anchor="middle">:app:domain:tag</text>
        </g>
        <g stroke="red" stroke-width="2" class="edge">
            <path fill="none" d="M530.77 110.71c-22.84 10.18-52.79 23.53-77.26 34.45"/>
            <path fill="red" d="m456.36 147.72-10.56.87 7.71-7.27z"/>
        </g>
        <g stroke="#000" class="edge">
            <path fill="none" d="M399.14 322.91C341.98 333.59 255.87 349.73 181 364c-5.92 1.13-12.07 2.31-18.24 3.49"/>
            <path d="m163.66 370.88-10.49-1.55 9.16-5.32z"/>
        </g>
        <g stroke="#000" class="edge">
            <path fill="none" d="M420.09 326.02c-30.93 10.82-72.83 25.49-105.58 36.95"/>
            <path d="M315.81 366.22h-10.6l8.29-6.6z"/>
        </g>
        <g stroke="red" stroke-width="2" class="edge">
            <path fill="none" d="M522.41 323.76c57.28 12.3 143.71 30.85 202.51 43.48"/>
            <path fill="red" d="m723.93 363.45 9.04 5.52-10.51 1.32z"/>
        </g>
        <g stroke="#000" class="edge">
            <path fill="none" d="M497.49 326.88c21.57 9.94 49.58 22.84 72.84 33.55"/>
            <path d="m571.65 357.18 7.62 7.37-10.55-1.01z"/>
        </g>
        <g stroke="#000" class="edge">
            <path fill="none" d="M457.07 328.3c-2.56 7.46-5.62 16.38-8.48 24.73"/>
            <path d="m451.91 354.14-6.55 8.32-.07-10.59z"/>
        </g>
        <g stroke="#000" class="edge">
            <path fill="none" d="M418.55 253.82C388.13 264.13 346.94 278.41 311 292c-59.7 22.58-127.66 50.72-171.61 69.24"/>
            <path d="m141 364.36-10.58.67 7.85-7.12z"/>
        </g>
        <g stroke="#000" class="edge">
            <path fill="none" d="M424.14 254.53c-21.32 9.37-47.69 22.4-69.14 37.47-26.21 18.42-52.08 44.32-69.68 63.43"/>
            <path d="m287.94 357.76-9.31 5.06 4.12-9.76z"/>
        </g>
        <g stroke="#000" class="edge">
            <path fill="none" d="M500.58 254.57c25.09 10.45 58.8 24.61 88.42 37.43 53.95 23.35 115.72 50.97 156.16 69.18"/>
            <path d="m746.42 357.91 7.68 7.3-10.56-.92z"/>
        </g>
        <g stroke="#000" class="edge">
            <path fill="none" d="M502.35 254.43C521.6 263.35 544.19 276 561 292c18.36 17.47 32.81 42.52 42.13 61.59"/>
            <path d="m606.17 351.84 1.07 10.54-7.41-7.57z"/>
        </g>
        <g stroke="#000" class="edge">
            <path fill="none" d="M414.36 253.22c-18.84 8.15-38.47 20.5-49.36 38.78-8.19 13.74-7.31 21.77 0 36 6.96 13.55 19.18 24.41 31.7 32.69"/>
            <path d="m398.25 357.53 6.72 8.2-10.36-2.22z"/>
        </g>
        <g stroke="red" stroke-width="2" class="edge">
            <path fill="none" d="M463 256.3v24.16"/>
            <path fill="red" d="m466.5 278.87-3.5 10-3.5-10z"/>
        </g>
        <g stroke="#000" class="edge">
            <path fill="none" d="M378.59 182.51C359.42 192.6 334.34 206.38 313 220c-70.51 45.01-148.52 104.6-190.06 137.2"/>
            <path d="m125.12 359.93-10.02 3.44 5.69-8.94z"/>
        </g>
        <g stroke="#000" class="edge">
            <path fill="none" d="M383.05 183c-13.8 9.47-30.29 22.45-42.05 37-33.34 41.23-56.9 99.06-68.89 133.02"/>
            <path d="m275.53 353.81-6.56 8.32-.06-10.59z"/>
        </g>
        <g stroke="#000" class="edge">
            <path fill="none" d="M464.11 177.81C500.13 186.23 547.46 199.9 586 220c71.45 37.26 142.3 101.21 178.41 136.25"/>
            <path d="m766.64 353.53 4.69 9.5-9.59-4.5z"/>
        </g>
        <g stroke="#000" class="edge">
            <path fill="none" d="M468.78 176.23c30.24 7.38 65.65 20.51 90.22 43.77 37.27 35.27 49.74 96.63 53.91 132.55"/>
            <path d="m616.36 351.87-2.48 10.3-4.48-9.6z"/>
        </g>
        <g stroke="#000" class="edge">
            <path fill="none" d="M386.74 183.59c-10.75 9.38-22.62 22.08-28.74 36.41-18.87 44.15-26.19 65.95-3 108 8.12 14.72 22.24 25.92 36.61 34.14"/>
            <path d="m392.97 358.9 7.22 7.76-10.48-1.57z"/>
        </g>
        <g stroke="#000" class="edge">
            <path fill="none" d="M391.11 183.87C374 202.13 352.76 231.87 367 256c8.69 14.73 23.1 25.64 38.15 33.61"/>
            <path d="m406.25 286.25 7.46 7.52-10.52-1.22z"/>
        </g>
        <g stroke="red" stroke-width="2" class="edge">
            <path fill="none" d="M422.07 183.95c6.21 8.04 13.77 17.85 20.7 26.82"/>
            <path fill="red" d="m444.49 207.27 3.33 10.06-8.87-5.78z"/>
        </g>
    </g>
</svg>
