<svg xmlns="http://www.w3.org/2000/svg" width="708" height="188pt" viewBox="0 0 531.24 188">
    <g class="graph">
        <path fill="#fff" d="M0 188V0h531.24v188z"/>
        <g class="node" transform="translate(4 184)">
            <ellipse cx="104.14" cy="-162" fill="none" stroke="#000" rx="80.52" ry="18"/>
            <text x="104.14" y="-156.95" font-family="Times,serif" font-size="14" text-anchor="middle">:server:data:memo</text>
        </g>
        <g class="node" transform="translate(4 184)">
            <ellipse cx="104.14" cy="-18" fill="none" stroke="#000" rx="80.52" ry="18"/>
            <text x="104.14" y="-12.95" font-family="Times,serif" font-size="14" text-anchor="middle">:server:core:model</text>
        </g>
        <g stroke="#000" class="edge">
            <path fill="none" d="M60.28 36.89C41.2 45.03 21.19 57.47 10.14 76c-8.19 13.74-8.19 22.26 0 36 9.06 15.2 24.16 26.3 39.82 34.29"/>
            <path d="m51.32 143.07 7.59 7.4-10.55-1.06z"/>
        </g>
        <g class="node" transform="translate(4 184)">
            <ellipse cx="104.14" cy="-90" fill="none" stroke="#000" rx="88.71" ry="18"/>
            <text x="104.14" y="-84.95" font-family="Times,serif" font-size="14" text-anchor="middle">:server:core:database</text>
        </g>
        <g stroke="red" stroke-width="2" class="edge">
            <path fill="none" d="M108.14 40.3v24.16"/>
            <path fill="red" d="m111.64 62.87-3.5 10-3.5-10z"/>
        </g>
        <g class="node" transform="translate(4 184)">
            <ellipse cx="304.14" cy="-90" fill="none" stroke="#000" rx="93.32" ry="18"/>
            <text x="304.14" y="-84.95" font-family="Times,serif" font-size="14" text-anchor="middle">:server:domain:memo</text>
        </g>
        <g stroke="#000" class="edge">
            <path fill="none" d="M150.07 37.67c30.15 10.56 71.09 24.88 103.74 36.31"/>
            <path d="m254.83 70.63 8.29 6.61h-10.6z"/>
        </g>
        <g stroke="red" stroke-width="2" class="edge">
            <path fill="none" d="M108.14 112.3v24.16"/>
            <path fill="red" d="m111.64 134.87-3.5 10-3.5-10z"/>
        </g>
        <g stroke="#000" class="edge">
            <path fill="none" d="M264.75 110.19c-30.56 10.69-71.62 25.06-104.03 36.41"/>
            <path d="M162.11 149.82h-10.6l8.29-6.61z"/>
        </g>
        <g class="node" transform="translate(4 184)">
            <ellipse cx="296.14" cy="-18" fill="none" stroke="#000" rx="85.13" ry="18"/>
            <text x="296.14" y="-12.95" font-family="Times,serif" font-size="14" text-anchor="middle">:common:exception</text>
        </g>
        <g stroke="#000" class="edge">
            <path fill="none" d="M306.17 112.3c-.84 7.29-1.83 15.97-2.76 24.16"/>
            <path d="m306.88 136.85-4.61 9.54-2.34-10.33z"/>
        </g>
        <g class="node" transform="translate(4 184)">
            <ellipse cx="461.14" cy="-18" fill="none" stroke="#000" rx="62.1" ry="18"/>
            <text x="461.14" y="-12.95" font-family="Times,serif" font-size="14" text-anchor="middle">:library:kotlin</text>
        </g>
        <g stroke="#000" class="edge">
            <path fill="none" d="M344.16 111.06c23.11 10.3 53.24 23.74 77.65 34.62"/>
            <path d="m423.15 142.44 7.7 7.27-10.56-.87z"/>
        </g>
    </g>
</svg>
