<svg xmlns="http://www.w3.org/2000/svg" width="1246pt" height="260pt" viewBox="0 0 1245.97 260">
    <g class="graph">
        <path fill="#fff" d="M0 260V0h1245.97v260z"/>
        <g class="node" transform="translate(4 256)">
            <ellipse cx="345.99" cy="-234" fill="none" stroke="#000" rx="65.68" ry="18"/>
            <text x="345.99" y="-228.95" font-family="Times,serif" font-size="14" text-anchor="middle">:app:data:fetch</text>
        </g>
        <g class="node" transform="translate(4 256)">
            <ellipse cx="78.99" cy="-18" fill="none" stroke="#000" rx="78.99" ry="18"/>
            <text x="78.99" y="-12.95" font-family="Times,serif" font-size="14" text-anchor="middle">:library:coroutines</text>
        </g>
        <g stroke="#000" class="edge">
            <path fill="none" d="M314.85 37.38c-21.18 9.46-48.17 22.97-69.86 38.62-56.68 40.88-112.1 101.79-141.13 135.76"/>
            <path d="m106.83 213.67-9.13 5.37 3.79-9.9z"/>
        </g>
        <g class="node" transform="translate(4 256)">
            <ellipse cx="248.99" cy="-18" fill="none" stroke="#000" rx="72.85" ry="18"/>
            <text x="248.99" y="-12.95" font-family="Times,serif" font-size="14" text-anchor="middle">:library:datetime</text>
        </g>
        <g stroke="#000" class="edge">
            <path fill="none" d="M311.25 36.81c-17.83 8.45-37.39 21.17-48.26 39.19-24.72 40.97-20.9 98.97-15.62 133.01"/>
            <path d="M250.76 208.05 249 218.5l-5.14-9.27z"/>
        </g>
        <g class="node" transform="translate(4 256)">
            <ellipse cx="596.99" cy="-162" fill="none" stroke="#000" rx="101.51" ry="18"/>
            <text x="596.99" y="-156.95" font-family="Times,serif" font-size="14" text-anchor="middle">:app:core:diary-database</text>
        </g>
        <g stroke="#000" class="edge">
            <path fill="none" d="M394.86 35.51c39.65 11.06 97.92 27.31 142.39 39.72"/>
            <path d="m538.09 71.83 8.7 6.05-10.58.69z"/>
        </g>
        <g class="node" transform="translate(4 256)">
            <ellipse cx="766.99" cy="-90" fill="none" stroke="#000" rx="95.88" ry="18"/>
            <text x="766.99" y="-84.95" font-family="Times,serif" font-size="14" text-anchor="middle">:app:core:diary-service</text>
        </g>
        <g stroke="#000" class="edge">
            <path fill="none" d="M414.37 26.17C504.8 31.65 663.79 45.42 711.99 76c22.69 14.4 38.6 41.02 48.13 61.41"/>
            <path d="m763.21 135.75.83 10.56-7.23-7.74z"/>
        </g>
        <g class="node" transform="translate(4 256)">
            <ellipse cx="345.99" cy="-162" fill="none" stroke="#000" rx="78.48" ry="18"/>
            <text x="345.99" y="-156.95" font-family="Times,serif" font-size="14" text-anchor="middle">:app:domain:fetch</text>
        </g>
        <g stroke="red" stroke-width="2" class="edge">
            <path fill="none" d="M349.99 40.3v24.16"/>
            <path fill="red" d="m353.49 62.87-3.5 10-3.5-10z"/>
        </g>
        <g class="node" transform="translate(4 256)">
            <ellipse cx="740.99" cy="-18" fill="none" stroke="#000" rx="71.31" ry="18"/>
            <text x="740.99" y="-12.95" font-family="Times,serif" font-size="14" text-anchor="middle">:app:core:model</text>
        </g>
        <g stroke="#000" class="edge">
            <path fill="none" d="M610.95 112.11c11.61 18.99 32.14 49.88 55.04 71.89 12.17 11.69 27.21 22.5 40.9 31.26"/>
            <path d="m708.61 212.21 6.65 8.25-10.34-2.3z"/>
        </g>
        <g stroke="#000" class="edge">
            <path fill="none" d="M764.56 184.3c-2.8 7.55-6.16 16.58-9.29 25.02"/>
            <path d="m758.63 210.32-6.76 8.16.2-10.6z"/>
        </g>
        <g class="node" transform="translate(4 256)">
            <ellipse cx="566.99" cy="-18" fill="none" stroke="#000" rx="85.13" ry="18"/>
            <text x="566.99" y="-12.95" font-family="Times,serif" font-size="14" text-anchor="middle">:common:exception</text>
        </g>
        <g stroke="#000" class="edge">
            <path fill="none" d="M727.1 182.36c-30.27 10.6-70.68 24.74-102.8 35.98"/>
            <path d="M625.77 221.53h-10.59l8.28-6.6z"/>
        </g>
        <g class="node" transform="translate(4 256)">
            <ellipse cx="1115.99" cy="-18" fill="none" stroke="#000" rx="121.98" ry="18"/>
            <text x="1115.99" y="-12.95" font-family="Times,serif" font-size="14" text-anchor="middle">:app:core:account-preferences</text>
        </g>
        <g stroke="#000" class="edge">
            <path fill="none" d="M834.6 179.76c57.31 11.49 141.87 28.45 204.07 40.93"/>
            <path d="m1039.02 217.19 9.12 5.4-10.49 1.46z"/>
        </g>
        <g class="node" transform="translate(4 256)">
            <ellipse cx="902.99" cy="-18" fill="none" stroke="#000" rx="72.85" ry="18"/>
            <text x="902.99" y="-12.95" font-family="Times,serif" font-size="14" text-anchor="middle">:common:model</text>
        </g>
        <g stroke="#000" class="edge">
            <path fill="none" d="m802.88 183.41 63.6 32.74"/>
            <path d="m868.07 213.03 7.29 7.69-10.5-1.47z"/>
        </g>
        <g stroke="#000" class="edge">
            <path fill="none" d="M319.88 111.01c-48.3 25.69-143.13 76.13-197.01 104.78"/>
            <path d="m124.8 218.73-10.48 1.6 7.19-7.78z"/>
        </g>
        <g stroke="#000" class="edge">
            <path fill="none" d="M338.29 112.13c-16.68 24.41-47.44 69.44-67.11 98.23"/>
            <path d="m274.12 212.28-8.54 6.28 2.76-10.23z"/>
        </g>
        <g stroke="#000" class="edge">
            <path fill="none" d="M414.46 104.56c45.72 8.13 107.87 21.97 159.53 43.44 28.02 11.64 31.33 21.53 58 36 21.91 11.89 46.96 23.8 67.89 33.31"/>
            <path d="m701.04 213.99 7.68 7.3-10.55-.92z"/>
        </g>
        <g stroke="#000" class="edge">
            <path fill="none" d="M414.78 104.49c51.64 8.88 118.34 23.74 137.21 43.51 15.27 15.99 19.52 41.1 20.24 60.57"/>
            <path d="m575.73 208.31-3.45 10.02-3.55-9.98z"/>
        </g>
        <g class="node" transform="translate(4 256)">
            <ellipse cx="401.99" cy="-18" fill="none" stroke="#000" rx="62.1" ry="18"/>
            <text x="401.99" y="-12.95" font-family="Times,serif" font-size="14" text-anchor="middle">:library:kotlin</text>
        </g>
        <g stroke="#000" class="edge">
            <path fill="none" d="M347.82 112.2c-1.6 18.55-2 48.53 8.17 71.8 4.71 10.78 12.59 20.72 20.73 29.01"/>
            <path d="m378.89 210.25 4.84 9.43-9.66-4.35z"/>
        </g>
        <g class="node" transform="translate(4 256)">
            <ellipse cx="449.99" cy="-90" fill="none" stroke="#000" rx="88.71" ry="18"/>
            <text x="449.99" y="-84.95" font-family="Times,serif" font-size="14" text-anchor="middle">:app:domain:account</text>
        </g>
        <g stroke="red" stroke-width="2" class="edge">
            <path fill="none" d="M374.37 111.41c13.6 9.15 30.73 20.69 45.63 30.71"/>
            <path fill="red" d="m420.55 138.27 6.34 8.49-10.25-2.68z"/>
        </g>
        <g stroke="#000" class="edge">
            <path fill="none" d="M390.18 178.84c-57.37 10.68-143.94 26.84-219.19 41.16-5.92 1.13-12.07 2.3-18.24 3.49"/>
            <path d="m153.64 226.88-10.48-1.55 9.16-5.33z"/>
        </g>
        <g stroke="#000" class="edge">
            <path fill="none" d="M410.87 182.02c-31.09 10.82-73.2 25.49-106.11 36.95"/>
            <path d="m306 222.24-10.59-.01 8.29-6.6z"/>
        </g>
        <g stroke="red" stroke-width="2" class="edge">
            <path fill="none" d="M509.75 180.41c49.82 11.99 122.66 29.51 174.06 41.87"/>
            <path fill="red" d="m682.91 218.47 8.91 5.74-10.54 1.06z"/>
        </g>
        <g stroke="#000" class="edge">
            <path fill="none" d="M481.42 183.41c15.7 9.39 35.6 21.3 52.65 31.5"/>
            <path d="m535.65 211.78 6.78 8.13-10.38-2.13z"/>
        </g>
        <g stroke="#000" class="edge">
            <path fill="none" d="M442.12 184.3c-5.4 7.89-11.92 17.4-17.93 26.15"/>
            <path d="m427.12 212.38-8.55 6.27 2.77-10.23z"/>
        </g>
    </g>
</svg>
