<svg xmlns="http://www.w3.org/2000/svg" width="500pt" height="116pt" viewBox="0 0 499.62 116">
    <g class="graph">
        <path fill="#fff" d="M0 116V0h499.62v116z"/>
        <g class="node" transform="translate(4 112)">
            <ellipse cx="264.52" cy="-90" fill="none" stroke="#000" rx="84.11" ry="18"/>
            <text x="264.52" y="-84.95" font-family="Times,serif" font-size="14" text-anchor="middle">:server:domain:fcm</text>
        </g>
        <g class="node" transform="translate(4 112)">
            <ellipse cx="80.52" cy="-18" fill="none" stroke="#000" rx="80.52" ry="18"/>
            <text x="80.52" y="-12.95" font-family="Times,serif" font-size="14" text-anchor="middle">:server:core:model</text>
        </g>
        <g stroke="red" stroke-width="2" class="edge">
            <path fill="none" d="M228.6 38.19c-27.58 10.49-64.47 24.53-94.02 35.77"/>
            <path fill="red" d="m137.48 76.6-10.6.28 8.11-6.82z"/>
        </g>
        <g class="node" transform="translate(4 112)">
            <ellipse cx="264.52" cy="-18" fill="none" stroke="#000" rx="85.13" ry="18"/>
            <text x="264.52" y="-12.95" font-family="Times,serif" font-size="14" text-anchor="middle">:common:exception</text>
        </g>
        <g stroke="#000" class="edge">
            <path fill="none" d="M268.52 40.3v24.16"/>
            <path d="m272.02 64.38-3.5 10-3.5-10z"/>
        </g>
        <g class="node" transform="translate(4 112)">
            <ellipse cx="429.52" cy="-18" fill="none" stroke="#000" rx="62.1" ry="18"/>
            <text x="429.52" y="-12.95" font-family="Times,serif" font-size="14" text-anchor="middle">:library:kotlin</text>
        </g>
        <g stroke="#000" class="edge">
            <path fill="none" d="M305.14 38.54c24.79 10.51 57.67 24.46 83.95 35.61"/>
            <path d="m390.31 70.86 7.84 7.13-10.58-.68z"/>
        </g>
    </g>
</svg>
