<svg xmlns="http://www.w3.org/2000/svg" width="6938pt" height="620pt" viewBox="0 0 6937.85 620">
    <g class="graph">
        <path fill="#fff" d="M0 620V0h6937.85v620z"/>
        <g class="node" transform="translate(4 616)">
            <ellipse cx="2278.58" cy="-594" fill="none" stroke="#000" rx="92.3" ry="18"/>
            <text x="2278.58" y="-588.95" font-family="Times,serif" font-size="14" text-anchor="middle">:app:platform:android</text>
        </g>
        <g class="node" transform="translate(4 616)">
            <ellipse cx="3738.58" cy="-522" fill="none" stroke="#000" rx="97.41" ry="18"/>
            <text x="3738.58" y="-516.95" font-family="Times,serif" font-size="14" text-anchor="middle">:app:platform:common</text>
        </g>
        <g stroke="red" stroke-width="2" class="edge">
            <path fill="none" d="M2371.44 27.26c255.75 12.26 992.78 47.6 1266.85 60.74"/>
            <path fill="red" d="m3636.58 84.41 9.82 3.98-10.16 3.02z"/>
        </g>
        <g class="node" transform="translate(4 616)">
            <ellipse cx="2141.58" cy="-162" fill="none" stroke="#000" rx="95.88" ry="18"/>
            <text x="2141.58" y="-156.95" font-family="Times,serif" font-size="14" text-anchor="middle">:app:core:diary-service</text>
        </g>
        <g stroke="#000" class="edge">
            <path fill="none" d="M2192.12 25.84c-167.46 7.37-515.5 33.27-589.54 122.16-10.24 12.29-8.44 22.41 0 36 28.77 46.36 367.5 194.23 494.93 248.65"/>
            <path d="m2098.88 429.43 7.83 7.14-10.57-.7z"/>
        </g>
        <g class="node" transform="translate(4 616)">
            <ellipse cx="104.58" cy="-90" fill="none" stroke="#000" rx="104.58" ry="18"/>
            <text x="104.58" y="-84.95" font-family="Times,serif" font-size="14" text-anchor="middle">:app:core:holiday-service</text>
        </g>
        <g stroke="#000" class="edge">
            <path fill="none" d="M2190.55 24.12C1776.77 29.74 108.58 58.98 108.58 165v331.31"/>
            <path d="m112.08 496-3.5 10-3.5-10z"/>
        </g>
        <g class="node" transform="translate(4 616)">
            <ellipse cx="4468.58" cy="-162" fill="none" stroke="#000" rx="74.89" ry="18"/>
            <text x="4468.58" y="-156.95" font-family="Times,serif" font-size="14" text-anchor="middle">:app:domain:fcm</text>
        </g>
        <g stroke="#000" class="edge">
            <path fill="none" d="M2374.73 23.79C2959.76 29.07 6137.95 61.63 6322.58 148c77.56 36.28 97.57 63.96 128 144 95.38 250.88 149.35 52.02-477 108-560.22 50.07-703.26 7.79-1265 36-51.53 2.59-109.31 6.73-154.8 10.28"/>
            <path d="m4554.25 449.75-10.25-2.71 9.7-4.27z"/>
        </g>
        <g stroke="#000" class="edge">
            <path fill="none" d="M3645.41 96.23c-297.07 4.1-1180.61 18.93-1305.83 51.77-83.64 21.93-173 2.53-173 89v74c0 39.69-8.13 84.95-14.27 113.49"/>
            <path d="m2155.75 425.16-5.59 9-1.24-10.53z"/>
        </g>
        <g stroke="#000" class="edge">
            <path fill="none" d="M3645.43 95.76C3159.74 99.7 1012.78 118.72 874.58 148c-322.29 68.28-412.91 99.37-683 288-25.01 17.47-48.21 43.54-63.68 62.95"/>
            <path d="m130.78 500.95-8.91 5.74 3.38-10.04z"/>
        </g>
        <g stroke="#000" class="edge">
            <path fill="none" d="M3837.56 98.46c164.1 6.65 487.5 22.95 532.02 49.54 98.42 58.78 108.31 106.12 141 216 4.56 15.34 4.9 20.77 0 36-3.14 9.76-8.81 19.25-14.83 27.44"/>
            <path d="m4498.54 429.54-8.95 5.66 3.47-10.01z"/>
        </g>
        <g class="node" transform="translate(4 616)">
            <ellipse cx="5684.58" cy="-306" fill="none" stroke="#000" rx="81.04" ry="18"/>
            <text x="5684.58" y="-300.95" font-family="Times,serif" font-size="14" text-anchor="middle">:app:core:compose</text>
        </g>
        <g stroke="#000" class="edge">
            <path fill="none" d="M3840.23 94.56c287.63-.68 1128.32 1.93 1397.35 53.44 155.32 29.74 328.81 104.17 407.72 140.46"/>
            <path d="m5646.37 285.09 7.61 7.38-10.55-1.02z"/>
        </g>
        <g class="node" transform="translate(4 616)">
            <ellipse cx="5859.58" cy="-234" fill="none" stroke="#000" rx="101" ry="18"/>
            <text x="5859.58" y="-228.95" font-family="Times,serif" font-size="14" text-anchor="middle">:app:core:design-system</text>
        </g>
        <g stroke="#000" class="edge">
            <path fill="none" d="M3840.15 94.57c355.1-1.12 1578-.85 1964.43 53.43 126.39 17.75 199.88-28.93 278 72 18.54 23.95-12.47 100.55-20 108-24.66 24.4-59.22 37.92-92.62 45.3"/>
            <path d="m5970.67 376.72-10.5-1.45 9.11-5.41z"/>
        </g>
        <g class="node" transform="translate(4 616)">
            <ellipse cx="5498.58" cy="-306" fill="none" stroke="#000" rx="86.67" ry="18"/>
            <text x="5498.58" y="-300.95" font-family="Times,serif" font-size="14" text-anchor="middle">:app:core:navigation</text>
        </g>
        <g stroke="#000" class="edge">
            <path fill="none" d="M3839.83 95.58c274.18 2.14 1049.76 11.72 1300.75 52.42 112.87 18.3 145.11 20.1 247 72 33.61 17.12 67.16 44.57 89.27 64.47"/>
            <path d="m5479.18 281.85 5.02 9.34-9.74-4.17z"/>
        </g>
        <g class="node" transform="translate(4 616)">
            <ellipse cx="6103.58" cy="-162" fill="none" stroke="#000" rx="59.54" ry="18"/>
            <text x="6103.58" y="-156.95" font-family="Times,serif" font-size="14" text-anchor="middle">:library:color</text>
        </g>
        <g stroke="#000" class="edge">
            <path fill="none" d="M3840.11 95.45c456.18 2.31 2362.29 14.24 2482.47 52.55 98.41 31.37 193.42 87.73 147 180-24.13 47.96-47.93 50.21-97 72-35.27 15.66-134.61 33.08-201.14 43.53"/>
            <path d="m6172.16 446.96-10.42-1.92 9.34-5z"/>
        </g>
        <g class="node" transform="translate(4 616)">
            <ellipse cx="4647.58" cy="-18" fill="none" stroke="#000" rx="62.1" ry="18"/>
            <text x="4647.58" y="-12.95" font-family="Times,serif" font-size="14" text-anchor="middle">:library:kotlin</text>
        </g>
        <g stroke="#000" class="edge">
            <path fill="none" d="M3840.17 94.71c414.64-.87 2032.05-.66 2538.41 53.29 195.36 20.82 433-107.47 433 89v218c0 49.5 454.83-5.11-400 89-334.9 36.87-1397.96 49.54-1686.9 52.35"/>
            <path d="m4725.06 599.85-10.03-3.41 9.96-3.59z"/>
        </g>
        <g class="node" transform="translate(4 616)">
            <ellipse cx="5085.58" cy="-306" fill="none" stroke="#000" rx="79.5" ry="18"/>
            <text x="5085.58" y="-300.95" font-family="Times,serif" font-size="14" text-anchor="middle">:library:navigation</text>
        </g>
        <g stroke="#000" class="edge">
            <path fill="none" d="M3840.23 94.47c175.56.34 555.73 7.03 872.35 53.53 134.81 19.8 181.2 1.83 298 72 25.87 15.54 47.94 42.33 62.13 62.47"/>
            <path d="m5075.43 280.25 2.73 10.24-8.51-6.3z"/>
        </g>
        <g class="node" transform="translate(4 616)">
            <ellipse cx="2834.58" cy="-18" fill="none" stroke="#000" rx="78.99" ry="18"/>
            <text x="2834.58" y="-12.95" font-family="Times,serif" font-size="14" text-anchor="middle">:library:coroutines</text>
        </g>
        <g stroke="#000" class="edge">
            <path fill="none" d="M3645.07 95.29c-309.41 1.35-1266.74 9.05-1573.49 52.71-157.63 22.44-347-70.21-347 89v218c0 47.46 17.69 65.63 59 89 78.6 44.47 721.84 30.85 812 36 52.46 3 111.24 7.09 157.85 10.51"/>
            <path d="m2753.48 587 9.71 4.23-10.23 2.75z"/>
        </g>
        <g class="node" transform="translate(4 616)">
            <ellipse cx="4193.58" cy="-18" fill="none" stroke="#000" rx="72.85" ry="18"/>
            <text x="4193.58" y="-12.95" font-family="Times,serif" font-size="14" text-anchor="middle">:library:datetime</text>
        </g>
        <g stroke="#000" class="edge">
            <path fill="none" d="M3839.45 96.39c165.95 3.37 497.36 14.64 607.13 51.61 139.49 46.98 149.55 108.12 278 180 48.57 27.18 196.31 60.91 226 108 11.24 17.82 7.22 94.94-6 108-11.72 11.58-473.36 38.06-664.96 48.57"/>
            <path d="m4279.91 596.06-10.18-2.94 9.8-4.05z"/>
        </g>
        <g class="node" transform="translate(4 616)">
            <ellipse cx="5872.58" cy="-306" fill="none" stroke="#000" rx="89.23" ry="18"/>
            <text x="5872.58" y="-300.95" font-family="Times,serif" font-size="14" text-anchor="middle">:library:shimmer-m3</text>
        </g>
        <g stroke="#000" class="edge">
            <path fill="none" d="M3840.12 95.12c297.81.87 1192.42 7.3 1479.46 52.88 190.97 30.33 408.97 105.79 505.9 141.58"/>
            <path d="m5826.57 286.25 8.15 6.76-10.59-.2z"/>
        </g>
        <g class="node" transform="translate(4 616)">
            <ellipse cx="3162.58" cy="-378" fill="none" stroke="#000" rx="71.31" ry="18"/>
            <text x="3162.58" y="-372.95" font-family="Times,serif" font-size="14" text-anchor="middle">:app:data:memo</text>
        </g>
        <g stroke="#000" class="edge">
            <path fill="none" d="M3646.69 97.59c-122.79 4.64-327.77 17.22-395.11 50.41-28.46 14.03-52.5 41.72-67.67 62.51"/>
            <path d="m3186.87 212.39-8.62 6.16 2.89-10.19z"/>
        </g>
        <g class="node" transform="translate(4 616)">
            <ellipse cx="3348.58" cy="-306" fill="none" stroke="#000" rx="58.52" ry="18"/>
            <text x="3348.58" y="-300.95" font-family="Times,serif" font-size="14" text-anchor="middle">:app:data:tag</text>
        </g>
        <g stroke="#000" class="edge">
            <path fill="none" d="M3653.89 101.77c-47.39 6.67-105.28 19.93-151.31 46.23-58.97 33.69-108.38 98.24-133.07 134.53"/>
            <path d="m3372.52 284.33-8.46 6.38 2.64-10.26z"/>
        </g>
        <g class="node" transform="translate(4 616)">
            <ellipse cx="2483.58" cy="-162" fill="none" stroke="#000" rx="75.92" ry="18"/>
            <text x="2483.58" y="-156.95" font-family="Times,serif" font-size="14" text-anchor="middle">:app:data:account</text>
        </g>
        <g stroke="#000" class="edge">
            <path fill="none" d="M3644.88 95.03c-310.34 1.36-1253.3 15.87-1253.3 141.97v74c0 40.45-3.47 55.37 19 89 8.55 12.79 21.33 23.38 34.04 31.64"/>
            <path d="m2446.23 428.53 6.72 8.19-10.36-2.21z"/>
        </g>
        <g class="node" transform="translate(4 616)">
            <ellipse cx="2787.58" cy="-378" fill="none" stroke="#000" rx="83.6" ry="18"/>
            <text x="2787.58" y="-372.95" font-family="Times,serif" font-size="14" text-anchor="middle">:app:data:credential</text>
        </g>
        <g stroke="#000" class="edge">
            <path fill="none" d="M3644.7 94.23c-190.26-.36-602.89 4.77-735.12 53.77-36.75 13.62-71.65 42.66-93.82 63.88"/>
            <path d="m2818.29 214.3-9.59 4.5 4.69-9.5z"/>
        </g>
        <g class="node" transform="translate(4 616)">
            <ellipse cx="1617.58" cy="-162" fill="none" stroke="#000" rx="74.89" ry="18"/>
            <text x="1617.58" y="-156.95" font-family="Times,serif" font-size="14" text-anchor="middle">:app:data:holiday</text>
        </g>
        <g stroke="#000" class="edge">
            <path fill="none" d="M3645.09 94.96C3251.28 95.11 1795 99.02 1710.58 148c-40.02 23.22-54 42.73-54 89v74c0 40.62-13.67 85.92-23.92 114.19"/>
            <path d="m1635.98 426.3-6.79 8.13.24-10.59z"/>
        </g>
        <g class="node" transform="translate(4 616)">
            <ellipse cx="1822.58" cy="-234" fill="none" stroke="#000" rx="73.87" ry="18"/>
            <text x="1822.58" y="-228.95" font-family="Times,serif" font-size="14" text-anchor="middle">:app:data:backup</text>
        </g>
        <g stroke="#000" class="edge">
            <path fill="none" d="M3644.96 94.97c-324.07.37-1351.67 5.31-1492.38 53.03-129.23 43.82-251.82 157.28-302.07 207.94"/>
            <path d="m1853.09 358.3-9.5 4.69 4.5-9.59z"/>
        </g>
        <g class="node" transform="translate(4 616)">
            <ellipse cx="2293.58" cy="-306" fill="none" stroke="#000" rx="65.68" ry="18"/>
            <text x="2293.58" y="-300.95" font-family="Times,serif" font-size="14" text-anchor="middle">:app:data:fetch</text>
        </g>
        <g stroke="#000" class="edge">
            <path fill="none" d="M3645.54 96.07c-303.06 3.68-1214.88 17.59-1267.96 51.93-46.11 29.83-66.63 94.72-74.95 132.37"/>
            <path d="m2306.07 280.99-5.43 9.09-1.42-10.5z"/>
        </g>
        <g class="node" transform="translate(4 616)">
            <ellipse cx="4417.58" cy="-234" fill="none" stroke="#000" rx="62.1" ry="18"/>
            <text x="4417.58" y="-228.95" font-family="Times,serif" font-size="14" text-anchor="middle">:app:data:fcm</text>
        </g>
        <g stroke="#000" class="edge">
            <path fill="none" d="M3838.08 97.87c158.61 5.59 462.85 20.11 501.5 50.13 64.29 49.95 78.32 153.95 81.28 204.37"/>
            <path d="m4424.35 352.02-3.03 10.16-3.96-9.83z"/>
        </g>
        <g class="node" transform="translate(4 616)">
            <ellipse cx="3952.58" cy="-450" fill="none" stroke="#000" rx="78.48" ry="18"/>
            <text x="3952.58" y="-444.95" font-family="Times,serif" font-size="14" text-anchor="middle">:app:data:calendar</text>
        </g>
        <g stroke="red" stroke-width="2" class="edge">
            <path fill="none" d="M3789.01 110.19c33.31 10.89 78.3 25.61 113.27 37.05"/>
            <path fill="red" d="m3901.5 143.3 8.41 6.44-10.59.21z"/>
        </g>
        <g class="node" transform="translate(4 616)">
            <ellipse cx="3738.58" cy="-306" fill="none" stroke="#000" rx="84.11" ry="18"/>
            <text x="3738.58" y="-300.95" font-family="Times,serif" font-size="14" text-anchor="middle">:app:domain:memo</text>
        </g>
        <g stroke="#000" class="edge">
            <path fill="none" d="M3742.58 112.15v168.32"/>
            <path d="m3746.08 280.25-3.5 10-3.5-10z"/>
        </g>
        <g class="node" transform="translate(4 616)">
            <ellipse cx="3871.58" cy="-234" fill="none" stroke="#000" rx="71.31" ry="18"/>
            <text x="3871.58" y="-228.95" font-family="Times,serif" font-size="14" text-anchor="middle">:app:domain:tag</text>
        </g>
        <g stroke="#000" class="edge">
            <path fill="none" d="M3750.9 112.34c16.4 34.25 53.98 113.02 84.68 179.66 9.46 20.54 19.94 43.87 27.79 61.49"/>
            <path d="m3866.52 351.95.87 10.56-7.26-7.71z"/>
        </g>
        <g class="node" transform="translate(4 616)">
            <ellipse cx="3810.58" cy="-90" fill="none" stroke="#000" rx="88.71" ry="18"/>
            <text x="3810.58" y="-84.95" font-family="Times,serif" font-size="14" text-anchor="middle">:app:domain:account</text>
        </g>
        <g stroke="#000" class="edge">
            <path fill="none" d="M3716.6 111.74c-33.08 23.6-86.02 70-86.02 125.26v74c0 88.1 90.77 158.02 144.81 191.83"/>
            <path d="m3777.02 499.72 6.71 8.21-10.36-2.23z"/>
        </g>
        <g class="node" transform="translate(4 616)">
            <ellipse cx="4089.58" cy="-306" fill="none" stroke="#000" rx="96.39" ry="18"/>
            <text x="4089.58" y="-300.95" font-family="Times,serif" font-size="14" text-anchor="middle">:app:domain:credential</text>
        </g>
        <g stroke="#000" class="edge">
            <path fill="none" d="M3833.63 100.71c76.92 6.64 179.34 20.33 209.95 47.29 38.19 33.63 47.57 95.83 49.65 132.29"/>
            <path d="m4096.72 279.94-3.09 10.14-3.9-9.85z"/>
        </g>
        <g class="node" transform="translate(4 616)">
            <ellipse cx="3121.58" cy="-90" fill="none" stroke="#000" rx="87.69" ry="18"/>
            <text x="3121.58" y="-84.95" font-family="Times,serif" font-size="14" text-anchor="middle">:app:domain:holiday</text>
        </g>
        <g stroke="#000" class="edge">
            <path fill="none" d="M3647.54 98.27c-108.58 5.13-291.12 18.01-444.96 49.73-127.48 26.28-279-41.16-279 89v74c0 91.76 99.43 160.1 158.77 192.72"/>
            <path d="m3083.74 500.49 7.15 7.81-10.47-1.64z"/>
        </g>
        <g class="node" transform="translate(4 616)">
            <ellipse cx="3528.58" cy="-162" fill="none" stroke="#000" rx="86.67" ry="18"/>
            <text x="3528.58" y="-156.95" font-family="Times,serif" font-size="14" text-anchor="middle">:app:domain:backup</text>
        </g>
        <g stroke="#000" class="edge">
            <path fill="none" d="M3675.69 107.47c-66.64 16.74-159.11 53.65-159.11 129.53v74c0 39.51 6.19 84.81 10.87 113.41"/>
            <path d="m3530.87 423.65-1.78 10.44-5.12-9.28z"/>
        </g>
        <g class="node" transform="translate(4 616)">
            <ellipse cx="3367.58" cy="-234" fill="none" stroke="#000" rx="78.48" ry="18"/>
            <text x="3367.58" y="-228.95" font-family="Times,serif" font-size="14" text-anchor="middle">:app:domain:fetch</text>
        </g>
        <g stroke="#000" class="edge">
            <path fill="none" d="M3648.92 99.33c-59.29 5.75-136.2 18.88-198.34 48.67-88.07 42.22-125.45 55.15-166 144-6.64 14.56-7.84 22.05 0 36 8.02 14.28 21.63 25.17 35.73 33.25"/>
            <path d="m3321.53 357.93 7.22 7.76-10.48-1.56z"/>
        </g>
        <g class="node" transform="translate(4 616)">
            <ellipse cx="3927.58" cy="-378" fill="none" stroke="#000" rx="91.27" ry="18"/>
            <text x="3927.58" y="-372.95" font-family="Times,serif" font-size="14" text-anchor="middle">:app:domain:calendar</text>
        </g>
        <g stroke="#000" class="edge">
            <path fill="none" d="M3770.85 111.47c16.61 10.02 37.79 23.37 55.73 36.53 3.99 2.93 46.88 39.42 76.59 64.75"/>
            <path d="m3905.42 210.07 5.34 9.15-9.88-3.82z"/>
        </g>
        <g class="node" transform="translate(4 616)">
            <ellipse cx="4240.58" cy="-450" fill="none" stroke="#000" rx="86.15" ry="18"/>
            <text x="4240.58" y="-444.95" font-family="Times,serif" font-size="14" text-anchor="middle">:app:core:coroutines</text>
        </g>
        <g stroke="#000" class="edge">
            <path fill="none" d="M3822.41 104.63c81.2 10.01 210.62 26.54 322.17 43.37 7.9 1.19 16.14 2.5 24.36 3.83"/>
            <path d="m4169.29 148.35 9.3 5.08-10.44 1.82z"/>
        </g>
        <g class="node" transform="translate(4 616)">
            <ellipse cx="2539.58" cy="-234" fill="none" stroke="#000" rx="123.52" ry="18"/>
            <text x="2539.58" y="-228.95" font-family="Times,serif" font-size="14" text-anchor="middle">:app:core:filter-database-room</text>
        </g>
        <g stroke="#000" class="edge">
            <path fill="none" d="M3645.4 95.96c-199.78 2.74-650.33 13.18-798.82 52.04-70.77 18.52-88.83 28.99-148 72-54.94 39.93-107.21 100.53-134.78 134.86"/>
            <path d="m2566.59 356.97-8.95 5.65 3.47-10z"/>
        </g>
        <g class="node" transform="translate(4 616)">
            <ellipse cx="772.58" cy="-234" fill="none" stroke="#000" rx="132.22" ry="18"/>
            <text x="772.58" y="-228.95" font-family="Times,serif" font-size="14" text-anchor="middle">:app:core:backup-database-room</text>
        </g>
        <g stroke="#000" class="edge">
            <path fill="none" d="M3645.35 95.56c-489.4 3-2662.27 18.21-2722.77 52.44-79.59 45.04-121.82 153.15-138.04 204.72"/>
            <path d="m787.91 353.68-6.25 8.55-.45-10.58z"/>
        </g>
        <g class="node" transform="translate(4 616)">
            <ellipse cx="640.58" cy="-162" fill="none" stroke="#000" rx="158.32" ry="18"/>
            <text x="640.58" y="-156.95" font-family="Times,serif" font-size="14" text-anchor="middle">:app:core:account-preferences-datastore</text>
        </g>
        <g stroke="#000" class="edge">
            <path fill="none" d="M3644.77 94.73C3148.93 93.98 936.58 98.4 936.58 237v74c0 40.45 9.86 60.67-19 89-20.39 20.02-80.29 32.85-138.81 40.87"/>
            <path d="m779.36 444.32-10.37-2.16 9.45-4.77z"/>
        </g>
        <g class="node" transform="translate(4 616)">
            <ellipse cx="1369.58" cy="-234" fill="none" stroke="#000" rx="124.54" ry="18"/>
            <text x="1369.58" y="-228.95" font-family="Times,serif" font-size="14" text-anchor="middle">:app:core:diary-database-room</text>
        </g>
        <g stroke="#000" class="edge">
            <path fill="none" d="M3645.05 95.18c-409.99 1.04-1976.87 7.94-2071.47 52.82-93.08 44.16-159.6 154.43-186.62 205.83"/>
            <path d="m1390.18 355.22-7.69 7.29 1.46-10.49z"/>
        </g>
        <g class="node" transform="translate(4 616)">
            <ellipse cx="1367.58" cy="-162" fill="none" stroke="#000" rx="157.3" ry="18"/>
            <text x="1367.58" y="-156.95" font-family="Times,serif" font-size="14" text-anchor="middle">:app:core:holiday-preferences-datastore</text>
        </g>
        <g stroke="#000" class="edge">
            <path fill="none" d="M3645.13 95.3c-398.87 1.5-1890.16 9.98-1980.55 52.7-47.29 22.35-77 36.7-77 89v74c0 66.68-72.76 103.79-133.82 123.2"/>
            <path d="m1454.94 437.5-10.59-.44 8.55-6.26z"/>
        </g>
        <g class="node" transform="translate(4 616)">
            <ellipse cx="1093.58" cy="-234" fill="none" stroke="#000" rx="133.24" ry="18"/>
            <text x="1093.58" y="-228.95" font-family="Times,serif" font-size="14" text-anchor="middle">:app:core:holiday-database-room</text>
        </g>
        <g stroke="#000" class="edge">
            <path fill="none" d="M3644.77 94.56c-402.88-1.42-1922.34-2.95-2129.19 53.44-158.53 43.22-321.59 158.72-387.57 209.03"/>
            <path d="m1130.26 359.72-10.07 3.32 5.8-8.87z"/>
        </g>
        <g class="node" transform="translate(4 616)">
            <ellipse cx="5987.58" cy="-378" fill="none" stroke="#000" rx="81.55" ry="18"/>
            <text x="5987.58" y="-372.95" font-family="Times,serif" font-size="14" text-anchor="middle">:app:feature:memo</text>
        </g>
        <g stroke="#000" class="edge">
            <path fill="none" d="M3839.93 95.93c372.74 3.78 1697.59 19.42 1883.65 52.07 80.41 14.11 169.61 47.52 222.14 69.16"/>
            <path d="m5946.75 213.79 7.89 7.08-10.57-.61z"/>
        </g>
        <g class="node" transform="translate(4 616)">
            <ellipse cx="4724.58" cy="-378" fill="none" stroke="#000" rx="68.75" ry="18"/>
            <text x="4724.58" y="-372.95" font-family="Times,serif" font-size="14" text-anchor="middle">:app:feature:tag</text>
        </g>
        <g stroke="#000" class="edge">
            <path fill="none" d="M3839.88 95.52c189.76 1.94 602.49 10.95 737.7 52.48 45.73 14.05 92.25 44.41 121.33 65.75"/>
            <path d="m4700.96 210.91 5.91 8.79-10.1-3.19z"/>
        </g>
        <g class="node" transform="translate(4 616)">
            <ellipse cx="6220.58" cy="-450" fill="none" stroke="#000" rx="88.71" ry="18"/>
            <text x="6220.58" y="-444.95" font-family="Times,serif" font-size="14" text-anchor="middle">:app:feature:calendar</text>
        </g>
        <g stroke="#000" class="edge">
            <path fill="none" d="M3839.98 95.33c388.43 1.61 1827.71 10.37 2281.6 52.67 9.21.86 18.84 2.05 28.36 3.41"/>
            <path d="m6150.16 147.9 9.37 4.94-10.41 1.98z"/>
        </g>
        <g class="node" transform="translate(4 616)">
            <ellipse cx="4920.58" cy="-378" fill="none" stroke="#000" rx="76.94" ry="18"/>
            <text x="4920.58" y="-372.95" font-family="Times,serif" font-size="14" text-anchor="middle">:app:feature:more</text>
        </g>
        <g stroke="#000" class="edge">
            <path fill="none" d="M3838.26 97.92c196.77 6.45 640.88 23.52 790.32 50.08 88.6 15.75 188.13 49.05 246.26 70.16"/>
            <path d="m4875.94 214.83 8.19 6.73-10.59-.15z"/>
        </g>
        <g class="node" transform="translate(4 616)">
            <ellipse cx="5288.58" cy="-378" fill="none" stroke="#000" rx="86.15" ry="18"/>
            <text x="5288.58" y="-372.95" font-family="Times,serif" font-size="14" text-anchor="middle">:app:feature:account</text>
        </g>
        <g stroke="#000" class="edge">
            <path fill="none" d="M3840.22 94.51c265.94-.64 999 2.42 1234.36 53.49 64.82 14.07 135.04 46.05 177.78 67.59"/>
            <path d="m5253.95 212.48 7.32 7.66-10.5-1.43z"/>
        </g>
        <g class="node" transform="translate(4 616)">
            <ellipse cx="4825.58" cy="-162" fill="none" stroke="#000" rx="112.26" ry="18"/>
            <text x="4825.58" y="-156.95" font-family="Times,serif" font-size="14" text-anchor="middle">:library:firebase-messaging</text>
        </g>
        <g stroke="#000" class="edge">
            <path fill="none" d="M3840.26 94.42c160.04.43 470.17 7.44 568.32 53.58 91.97 43.23 63.57 114.18 141 180 62.62 53.23 151.55 87.72 212.28 106.71"/>
            <path d="m4762.87 431.36 8.54 6.28-10.59.42z"/>
        </g>
        <g class="node" transform="translate(4 616)">
            <ellipse cx="2511.58" cy="-18" fill="none" stroke="#000" rx="71.31" ry="18"/>
            <text x="2511.58" y="-12.95" font-family="Times,serif" font-size="14" text-anchor="middle">:app:core:model</text>
        </g>
        <g stroke="#000" class="edge">
            <path fill="none" d="M2075.98 466.78c-83.53 14.29-212.91 37.02-216.4 41.22-10.23 12.3-10.85 24.24 0 36 38.11 41.31 405.14 50.43 572.98 52.44"/>
            <path d="m2432.58 592.94 9.96 3.61-10.04 3.39z"/>
        </g>
        <g class="node" transform="translate(4 616)">
            <ellipse cx="3446.58" cy="-18" fill="none" stroke="#000" rx="85.13" ry="18"/>
            <text x="3446.58" y="-12.95" font-family="Times,serif" font-size="14" text-anchor="middle">:common:exception</text>
        </g>
        <g stroke="#000" class="edge">
            <path fill="none" d="M2104.16 470.62c-16.32 8.43-33.34 20.62-42.58 37.38-7.73 14.01-11.1 24.47 0 36 5.62 5.84 981.79 39.26 1294.09 49.81"/>
            <path d="m3355.55 590.3 9.88 3.84-10.11 3.16z"/>
        </g>
        <g class="node" transform="translate(4 616)">
            <ellipse cx="2188.58" cy="-90" fill="none" stroke="#000" rx="121.98" ry="18"/>
            <text x="2188.58" y="-84.95" font-family="Times,serif" font-size="14" text-anchor="middle">:app:core:account-preferences</text>
        </g>
        <g stroke="#000" class="edge">
            <path fill="none" d="M2157.2 472.3c5.29 7.89 11.68 17.4 17.56 26.15"/>
            <path d="m2177.58 496.39 2.67 10.25-8.48-6.35z"/>
        </g>
        <g class="node" transform="translate(4 616)">
            <ellipse cx="1937.58" cy="-90" fill="none" stroke="#000" rx="72.85" ry="18"/>
            <text x="1937.58" y="-84.95" font-family="Times,serif" font-size="14" text-anchor="middle">:common:model</text>
        </g>
        <g stroke="#000" class="edge">
            <path fill="none" d="M2100.81 470.36c-31.61 10.85-74.07 25.42-107.19 36.78"/>
            <path d="m1994.8 510.44-10.59-.07 8.32-6.55z"/>
        </g>
        <g stroke="#000" class="edge">
            <path fill="none" d="M183.01 539.02c14.74 1.98 30.11 3.78 44.57 4.98 441.19 36.49 1847.91 49.61 2204.97 52.4"/>
            <path d="m2432.57 592.9 9.98 3.58-10.03 3.42z"/>
        </g>
        <g stroke="#000" class="edge">
            <path fill="none" d="M4487.21 472.03c16.78 18.93 45.69 49.76 74.37 71.97 15.55 12.04 34.09 23.4 50.28 32.48"/>
            <path d="m4613.19 573.22 7.08 7.88-10.45-1.75z"/>
        </g>
        <g stroke="#000" class="edge">
            <path fill="none" d="M4426.41 468.53c-78.38 22.74-234.43 66.97-290.83 75.47-59.55 8.97-924.17 39.92-1207.69 49.88"/>
            <path d="m2928.07 597.38-10.12-3.15 9.87-3.85z"/>
        </g>
        <g stroke="#000" class="edge">
            <path fill="none" d="M4471.07 472.16c-2.73 20.24-10.35 53.46-31.49 71.84-24.45 21.25-103.9 35.84-165.17 44.26"/>
            <path d="m4275.07 591.7-10.37-2.15 9.44-4.79z"/>
        </g>
        <g stroke="#000" class="edge">
            <path fill="none" d="M4405.25 462.16c-119.58 12.72-368.98 39.26-502.24 53.43"/>
            <path d="m3903.48 519.06-10.32-2.42 9.58-4.54z"/>
        </g>
        <g stroke="#000" class="edge">
            <path fill="none" d="M4410.64 464.46c-68.35 10.48-181.59 27.95-279.06 43.54-97.4 15.57-120.82 26.45-219 36-514.27 50.01-646 9.35-1162 36-52.25 2.7-110.96 6.94-156.62 10.52"/>
            <path d="m2594.4 593.99-10.25-2.7 9.69-4.27z"/>
        </g>
        <g stroke="#000" class="edge">
            <path fill="none" d="M4446.86 471.35c-34.64 21.07-98.94 56.87-159.28 72.65-137.44 35.95-551.68 47.89-740.88 51.53"/>
            <path d="m3546.97 599.03-10.06-3.31 9.93-3.69z"/>
        </g>
        <g stroke="#000" class="edge">
            <path fill="none" d="M5726.55 326.19c25.38 10.15 59.05 23.62 86.67 34.66"/>
            <path d="m5814.47 357.59 7.98 6.96-10.58-.46z"/>
        </g>
        <g stroke="#000" class="edge">
            <path fill="none" d="M5915.33 397.85c41 11.76 98.07 28.13 139.37 39.98"/>
            <path d="m6055.53 434.43 8.65 6.12-10.58.61z"/>
        </g>
        <g stroke="#000" class="edge">
            <path fill="none" d="M5825.21 398.96c-57.06 23.75-167.65 69.79-261.63 109.04-38.24 15.97-45.55 27.03-86 36-194.76 43.2-697.68 27.58-897 36-103.63 4.38-223.02 9.73-300.58 13.24"/>
            <path d="m4280.53 596.72-10.15-3.04 9.83-3.95z"/>
        </g>
        <g stroke="#000" class="edge">
            <path fill="none" d="M5501.09 328.3c-4.89 44.71-24.7 164.21-99.51 215.7-37.61 25.88-775.39 33.99-821 36-103.62 4.57-223.01 9.88-300.57 13.33"/>
            <path d="m4280.53 596.81-10.14-3.05 9.83-3.94z"/>
        </g>
        <g stroke="#000" class="edge">
            <path fill="none" d="M5114.79 327.49c29.65 21.08 77.29 60.62 96.79 108.51 18.1 44.46 33.04 73.18 0 108-7.99 8.42-690.35 38.91-931.07 49.41"/>
            <path d="m4280.7 596.91-10.15-3.06 9.84-3.93z"/>
        </g>
        <g stroke="#000" class="edge">
            <path fill="none" d="M5907.98 327.28c19.18 10.15 44.08 23.73 65.6 36.72 35.56 21.47 75.03 48.03 101.87 66.53"/>
            <path d="m6077.25 427.52 6.24 8.57-10.22-2.81z"/>
        </g>
        <g stroke="#000" class="edge">
            <path fill="none" d="M3147.86 255.68c-47.06 41.25-175.29 149.59-297.28 216.32-39.25 21.47-68.65-.86-94 36-9.07 13.18-7.65 21.95 0 36 7.5 13.78 20.29 24.52 33.57 32.62"/>
            <path d="m2791.51 573.37 7.01 7.95-10.44-1.85z"/>
        </g>
        <g stroke="#000" class="edge">
            <path fill="none" d="M3175.52 256.14c23.2 42.8 89.54 155.26 176.06 215.86 67.21 47.07 90.29 52.54 170 72 110.25 26.91 437.86 43.35 592.9 49.83"/>
            <path d="m4114.43 590.32 9.85 3.91-10.14 3.08z"/>
        </g>
        <g stroke="#000" class="edge">
            <path fill="none" d="M3229.87 246.69c104.64 12.72 313.69 38.12 429.93 52.25"/>
            <path d="m3660.09 295.45 9.5 4.68-10.35 2.27z"/>
        </g>
        <g class="node" transform="translate(4 616)">
            <ellipse cx="1926.58" cy="-162" fill="none" stroke="#000" rx="101.51" ry="18"/>
            <text x="1926.58" y="-156.95" font-family="Times,serif" font-size="14" text-anchor="middle">:app:core:diary-database</text>
        </g>
        <g stroke="#000" class="edge">
            <path fill="none" d="M3111.99 249.96c-44.67 9.5-109.25 24.47-164.41 42.04-123.54 39.35-144.41 79.97-271 108-276.43 61.2-354.44 6.34-636 36-8.81.93-18 2.07-27.14 3.32"/>
            <path d="m2014.23 442.74-10.39-2.07 9.41-4.86z"/>
        </g>
        <g stroke="#000" class="edge">
            <path fill="none" d="M3303.52 320.17c-44.12 8.93-110.35 24.04-165.94 43.83-70.42 25.07-88 33.38-152 72-22.83 13.78-23.72 24.98-48 36-70.33 31.92-121.37-24-170 36-10.07 12.43-7.17 21.7 0 36 6.3 12.57 17.15 22.92 28.51 31.03"/>
            <path d="m2797.95 572.07 6.43 8.42-10.27-2.57z"/>
        </g>
        <g stroke="#000" class="edge">
            <path fill="none" d="M3398.18 321.72c22.31 7.78 47.15 20.84 60.4 42.28 25.75 41.67-51.37 68.8-22 108 34.15 45.58 69.76 15.75 123 36 34.93 13.29 39.96 26.1 76 36 88.15 24.23 346.29 41.29 479.84 48.76"/>
            <path d="m4115.47 589.26 9.8 4.05-10.18 2.94z"/>
        </g>
        <g stroke="#000" class="edge">
            <path fill="none" d="M3405.61 318.1c93.96 12.57 289.82 38.79 396.63 53.08"/>
            <path d="m3802.61 367.7 9.45 4.8-10.38 2.14z"/>
        </g>
        <g stroke="#000" class="edge">
            <path fill="none" d="M3301.24 318.97c-64.77 10.13-179.57 28.3-277.66 45.03-89.03 15.18-110.25 25.9-200 36-346.18 38.94-436.36 1.35-783 36-8.89.89-18.15 2.01-27.36 3.25"/>
            <path d="m2013.92 442.69-10.39-2.08 9.42-4.86z"/>
        </g>
        <g stroke="#000" class="edge">
            <path fill="none" d="M2499.79 472.07c15.62 20.47 44.64 54.24 77.79 71.93 53.4 28.49 120.43 41.7 173.18 47.81"/>
            <path d="m2751.07 588.32 9.56 4.56-10.32 2.4z"/>
        </g>
        <g stroke="#000" class="edge">
            <path fill="none" d="M2550.04 464.64c19.36 2.71 40.8 5.45 60.54 7.36 285.78 27.68 361.98-12.34 645 36 56.57 9.66 67.48 26.09 124 36 264.86 46.45 584.37 53.21 733.56 53.56"/>
            <path d="m4112.94 594.06 10 3.51-10 3.49z"/>
        </g>
        <g stroke="#000" class="edge">
            <path fill="none" d="M2549.71 464.74c19.44 2.73 41.01 5.45 60.87 7.26 213.7 19.43 857.91 41.75 1105.55 49.85"/>
            <path d="m3716.22 518.35 9.88 3.83-10.11 3.17z"/>
        </g>
        <g stroke="#000" class="edge">
            <path fill="none" d="M2435.18 467.43c-46.99 11.15-116.43 27.63-168.99 40.1"/>
            <path d="m2267.25 510.88-10.53-1.1 8.92-5.71z"/>
        </g>
        <g stroke="#000" class="edge">
            <path fill="none" d="M2762.21 255.27c-14.44 9.21-31.15 21.87-42.63 36.73-31.58 40.89-1.52 77.2-43 108-75.39 55.97-327.77 24.82-421 36-9.24 1.11-18.9 2.4-28.48 3.77"/>
            <path d="m2227.8 443.2-10.4-2.01 9.39-4.91z"/>
        </g>
        <g stroke="#000" class="edge">
            <path fill="none" d="M2802.03 256.05c24.05 41.65 77.45 149.95 26.55 215.95-38.45 49.85-98.55-13.85-137 36-9.77 12.67-9.2 22.91 0 36 15.42 21.95 40.86 34.85 66.27 42.42"/>
            <path d="m2758.51 582.97 8.74 5.98-10.56.78z"/>
        </g>
        <g stroke="#000" class="edge">
            <path fill="none" d="M2823.34 254.93c123.84 62.11 568.38 284.79 584.24 289.07 131.1 35.35 530.35 47.7 705.79 51.5"/>
            <path d="m4113.41 592 9.93 3.71-10.08 3.29z"/>
        </g>
        <g stroke="#000" class="edge">
            <path fill="none" d="M2871.39 243.81c59.34 3.52 142.32 8.34 215.19 12.19 332.81 17.59 416.27 17.04 749 36 52.07 2.97 110.02 6.74 157.78 9.98"/>
            <path d="m3993.4 298.48 9.74 4.17-10.22 2.81z"/>
        </g>
        <g stroke="#000" class="edge">
            <path fill="none" d="M2780.12 255.92c-6.81 10.28-15.47 23.75-22.54 36.08-26.8 46.73-10.66 77.42-55 108-61.27 42.26-261.61 14.94-333 36-51.65 15.23-106.32 45.12-141 66.04"/>
            <path d="m2230.56 504.93-10.35 2.23 6.7-8.21z"/>
        </g>
        <g stroke="#000" class="edge">
            <path fill="none" d="M1568.47 467.11c-10.21 1.94-20.84 3.7-30.89 4.89-32.55 3.87-984.24 37.44-1316.14 49.06"/>
            <path d="m222 524.54-10.11-3.15 9.87-3.84z"/>
        </g>
        <g stroke="#000" class="edge">
            <path fill="none" d="M1625.99 472.33c6.38 21.08 20.39 55.8 46.59 71.67 43.89 26.59 871.76 33.21 923 36 52.47 2.86 111.25 6.95 157.86 10.4"/>
            <path d="m2753.49 586.89 9.71 4.23-10.23 2.75z"/>
        </g>
        <g stroke="#000" class="edge">
            <path fill="none" d="M1648.96 471.19c37.93 21.42 109.29 58.18 175.62 72.81 186.67 41.17 1528.9 31.51 1720 36 204.77 4.81 445.63 11.29 569.74 14.7"/>
            <path d="m4114.18 591.19 9.9 3.77-10.09 3.23z"/>
        </g>
        <g stroke="#000" class="edge">
            <path fill="none" d="M1689.79 461.62c38.15 3.51 86.58 7.65 129.79 10.38 450.82 28.49 990.2 44.72 1207.83 50.53"/>
            <path d="m3027.36 519.03 9.91 3.76-10.09 3.23z"/>
        </g>
        <g class="node" transform="translate(4 616)">
            <ellipse cx="1457.58" cy="-90" fill="none" stroke="#000" rx="120.96" ry="18"/>
            <text x="1457.58" y="-84.95" font-family="Times,serif" font-size="14" text-anchor="middle">:app:core:holiday-preferences</text>
        </g>
        <g stroke="#000" class="edge">
            <path fill="none" d="M1586.47 470.36c-22.54 9.86-52.11 22.8-76.81 33.61"/>
            <path d="m1511.35 507.04-10.56.81 7.76-7.22z"/>
        </g>
        <g class="node" transform="translate(4 616)">
            <ellipse cx="1006.58" cy="-90" fill="none" stroke="#000" rx="110.21" ry="18"/>
            <text x="1006.58" y="-84.95" font-family="Times,serif" font-size="14" text-anchor="middle">:app:core:holiday-database</text>
        </g>
        <g stroke="#000" class="edge">
            <path fill="none" d="M1567.5 466.77c-9.92 1.92-20.21 3.76-29.92 5.23-142.99 21.61-309.19 36.67-416.11 45.07"/>
            <path d="m1121.77 520.56-10.24-2.71 9.7-4.27z"/>
        </g>
        <g stroke="#000" class="edge">
            <path fill="none" d="M1879.97 394.72c53.16 11.66 135.08 29.64 193.89 42.54"/>
            <path d="m2074.43 433.8 9.02 5.57-10.52 1.27z"/>
        </g>
        <g stroke="#000" class="edge">
            <path fill="none" d="M1809.26 399.93c-8.61 9.66-18.14 22.52-22.68 36.07-16.16 48.25-4.95 80.72 38 108 72.39 45.98 685.38 31.01 771 36 52.36 3.05 111.02 7.14 157.59 10.54"/>
            <path d="m2753.2 587.03 9.72 4.22-10.23 2.76z"/>
        </g>
        <g stroke="#000" class="edge">
            <path fill="none" d="M1823.74 400.13c-1.58 10.35-3.37 23.83-4.16 35.87-3.36 51.08-3.84 81.57 40 108 40.09 24.17 1638.2 34.89 1685 36 204.77 4.85 445.63 11.32 569.74 14.71"/>
            <path d="m4114.18 591.2 9.9 3.77-10.09 3.23z"/>
        </g>
        <g stroke="#000" class="edge">
            <path fill="none" d="M1899.07 385.97c271.79 11.16 1230.5 50.49 1537.9 63.11"/>
            <path d="m3436.7 445.56 9.85 3.91-10.13 3.09z"/>
        </g>
        <g stroke="#000" class="edge">
            <path fill="none" d="M1850.96 399.41c13.5 9.08 30.49 20.52 45.3 30.49"/>
            <path d="m1898.03 426.87 6.34 8.49-10.25-2.68z"/>
        </g>
        <g class="node" transform="translate(4 616)">
            <ellipse cx="317.58" cy="-162" fill="none" stroke="#000" rx="109.19" ry="18"/>
            <text x="317.58" y="-156.95" font-family="Times,serif" font-size="14" text-anchor="middle">:app:core:backup-database</text>
        </g>
        <g stroke="#000" class="edge">
            <path fill="none" d="M1755.33 387.17c-64.64 3.7-162.56 9.07-247.75 12.83-457.61 20.19-573.12 3.17-1030 36-19.08 1.37-39.43 3.27-58.92 5.3"/>
            <path d="m419.12 444.77-10.31-2.42 9.57-4.54z"/>
        </g>
        <g stroke="#000" class="edge">
            <path fill="none" d="M2279.85 327.57c-26.63 24.87-77.11 72.03-108.02 100.9"/>
            <path d="m2174.47 430.8-9.69 4.27 4.92-9.39z"/>
        </g>
        <g stroke="#000" class="edge">
            <path fill="none" d="M2296.16 328.38c-1.65 32.32-.48 102.15 35.42 143.62 55 63.54 296.26 100.61 425.15 116.22"/>
            <path d="m2757.06 584.74 9.52 4.66-10.35 2.29z"/>
        </g>
        <g stroke="#000" class="edge">
            <path fill="none" d="M2302.91 328.31c11.65 34.52 43 111.37 99.67 143.69 158.43 90.37 654.69-41.09 820 36 19.67 9.17 13.39 26.71 33 36 76.34 36.18 641.43 48.47 857.93 51.87"/>
            <path d="m4113.33 592.37 9.95 3.65-10.05 3.35z"/>
        </g>
        <g stroke="#000" class="edge">
            <path fill="none" d="M2361.15 315.14c183.74 11.98 715.66 46.65 924.67 60.27"/>
            <path d="m3285.76 371.9 9.75 4.14-10.21 2.84z"/>
        </g>
        <g stroke="#000" class="edge">
            <path fill="none" d="M2260.71 325.27c-65.75 25.44-203.37 78.68-278.49 107.75"/>
            <path d="m1983.61 436.24-10.59.34 8.06-6.87z"/>
        </g>
        <g stroke="#000" class="edge">
            <path fill="none" d="M4360.15 385.5c-89.13 3.57-259.52 10.17-404.57 14.5-690.1 20.59-863.28 5.21-1553 36-52.32 2.34-110.55 6.09-158.34 9.48"/>
            <path d="m2244.69 448.96-10.22-2.78 9.72-4.21z"/>
        </g>
        <g stroke="#000" class="edge">
            <path fill="none" d="M4433.93 399.95c5.95 8.16 13.21 18.14 19.83 27.23"/>
            <path d="m4456.4 424.84 3.06 10.15-8.72-6.02z"/>
        </g>
        <g stroke="#000" class="edge">
            <path fill="none" d="M4391.31 398.09c-37.22 18.34-102.49 49.82-159.73 73.91-42 17.68-57.36 11.85-96 36-19.73 12.33-16.57 26.94-38 36-26.92 11.39-886.9 40.72-1169.79 50.08"/>
            <path d="m2927.99 597.58-10.11-3.17 9.88-3.83z"/>
        </g>
        <g stroke="#000" class="edge">
            <path fill="none" d="M4409.06 399.88c-6.93 10.05-15.18 23.3-20.48 36.12-18.83 45.53 8.39 71.77-25 108-22.47 24.38-56.11 37.6-87.26 44.74"/>
            <path d="m4277.42 592.09-10.5-1.37 9.07-5.48z"/>
        </g>
        <g stroke="#000" class="edge">
            <path fill="none" d="M4474.08 392.01c68.14 11.69 187.95 32.24 269.47 46.23"/>
            <path d="m4744.03 434.77 9.26 5.14-10.44 1.76z"/>
        </g>
        <g stroke="#000" class="edge">
            <path fill="none" d="M4014.12 178.65c58.02 15.14 144.55 47.82 184.46 113.35 86.15 141.46 196.81 73.16-247 252-47.16 19-767.72 42.55-1023.65 50.35"/>
            <path d="m2928.08 597.85-10.11-3.2 9.89-3.8z"/>
        </g>
        <g stroke="#000" class="edge">
            <path fill="none" d="M4018.92 177.34c106.64 19.46 312.66 65.61 312.66 131.66v74c0 79.06-66.51 152.94-105.82 189.7"/>
            <path d="m4228.21 575.2-9.74 4.17 5.02-9.33z"/>
        </g>
        <g stroke="red" stroke-width="2" class="edge">
            <path fill="none" d="M3950.4 184.3c-2.69 7.55-5.92 16.58-8.93 25.02"/>
            <path fill="red" d="m3945.37 208.8-6.66 8.24.06-10.59z"/>
        </g>
        <g class="node" transform="translate(4 616)">
            <ellipse cx="2715.58" cy="-162" fill="none" stroke="#000" rx="100.48" ry="18"/>
            <text x="2715.58" y="-156.95" font-family="Times,serif" font-size="14" text-anchor="middle">:app:core:filter-database</text>
        </g>
        <g stroke="#000" class="edge">
            <path fill="none" d="M3893.71 177c-119.34 19.36-386.65 64.5-609.13 115-120.28 27.3-149.36 38.29-268 72-82.5 23.44-177.36 52.18-237.23 70.54"/>
            <path d="m2780.62 437.81-10.58-.41 8.53-6.28z"/>
        </g>
        <g stroke="#000" class="edge">
            <path fill="none" d="M3821.54 316.5c192.25 13.41 669.1 46.74 671.04 47.5 47.71 18.65 58.98 31.24 90 72 31.3 41.13 51.45 98.61 61.46 132.6"/>
            <path d="m4647.38 567.55-.63 10.58-6.1-8.67z"/>
        </g>
        <g stroke="#000" class="edge">
            <path fill="none" d="M3660.33 313.99c-92.59 4.86-246.92 17.49-375.75 50.01-125.72 31.73-147.25 69.31-271 108-67.91 21.23-106.1-14.73-156 36-15.51 15.76-19.74 40.89-20.39 60.43"/>
            <path d="m2840.69 568.23-3.51 10-3.49-10z"/>
        </g>
        <g stroke="#000" class="edge">
            <path fill="none" d="M3815.08 319.46c42.9 7.27 97.15 20.57 140.5 44.54 98.09 54.25 185.29 158.36 222.67 206.9"/>
            <path d="m4180.86 568.55 3.27 10.08-8.84-5.84z"/>
        </g>
        <g stroke="red" stroke-width="2" class="edge">
            <path fill="none" d="M3773.09 327.06c18.55 9.76 42.44 22.34 62.49 32.89"/>
            <path fill="red" d="m3835.77 356.09 7.22 7.76-10.48-1.56z"/>
        </g>
        <g stroke="#000" class="edge">
            <path fill="none" d="M3752.79 327.87c18.89 31.36 57.65 96.5 60.79 108.13 5.3 19.64 5.42 42.61 4.28 60.29"/>
            <path d="m3821.36 496.41-4.32 9.67-2.66-10.26z"/>
        </g>
        <g stroke="#000" class="edge">
            <path fill="none" d="M3674.06 320.79c-31.91 7.44-68.66 20.48-95.48 43.21-18.74 15.89-30.81 41.35-37.86 60.97"/>
            <path d="m3544.1 425.92-6.48 8.38-.17-10.59z"/>
        </g>
        <g stroke="#000" class="edge">
            <path fill="none" d="M3661.54 315.16c-110.27 6.45-313.49 21.09-484.96 48.84-8.75 1.42-303.22 67.75-311 72-20.14 10.99-16.55 25.6-37 36-84.8 43.11-125.06-4.8-211 36-31.95 15.17-61.59 43.26-80.59 63.84"/>
            <path d="m2539.83 573.92-9.29 5.1 4.08-9.78z"/>
        </g>
        <g stroke="#000" class="edge">
            <path fill="none" d="M3733.23 327.94c-17.66 30.99-58.3 97.89-104.65 144.06-42.49 42.32-100.76 80.24-138.88 102.93"/>
            <path d="m3491.68 577.82-10.39 2.05 6.84-8.08z"/>
        </g>
        <g stroke="#000" class="edge">
            <path fill="none" d="M3946.65 384.33c164.6 3.66 561.65 16.11 609.93 51.67 41.6 30.64 14.8 64.71 43 108 6.7 10.29 15.61 20.26 24.17 28.72"/>
            <path d="m4626.14 570.17 4.84 9.43-9.66-4.35z"/>
        </g>
        <g stroke="#000" class="edge">
            <path fill="none" d="M3851.54 399.27c-32.73 21.15-93.9 57.23-151.96 72.73-288.55 77.03-381.33-36.68-671 36-7.72 1.94-93.52 42.74-147.15 68.42"/>
            <path d="m2883.06 579.52-10.53 1.17 7.51-7.48z"/>
        </g>
        <g stroke="#000" class="edge">
            <path fill="none" d="M3900.05 399.26c56.95 37.85 198.5 131.93 263.69 175.25"/>
            <path d="m4165.5 571.48 6.39 8.45-10.27-2.62z"/>
        </g>
        <g stroke="#000" class="edge">
            <path fill="none" d="M3872.74 400.34c-3.42 18.4-10.13 48.02-21.16 71.66-4.3 9.21-10.18 18.54-16 26.74"/>
            <path d="m3838.55 500.62-8.76 5.96 3.13-10.13z"/>
        </g>
        <g stroke="red" stroke-width="2" class="edge">
            <path fill="none" d="M3821.23 394.09c-58.84 12.01-152.92 31.21-217.58 44.41"/>
            <path fill="red" d="m3606.2 441.55-10.5-1.43 9.1-5.43z"/>
        </g>
        <g stroke="#000" class="edge">
            <path fill="none" d="M3826.23 395.35c-35.73 9.54-84.88 23.92-126.65 40.65-32.85 13.15-36.82 26.87-71 36-292.39 78.12-381.34-12.97-680 36-58.74 9.63-70.94 22.87-129 36-78.71 17.8-170.04 33-231.89 42.5"/>
            <path d="m2588.4 589.93-10.41-1.95 9.36-4.97z"/>
        </g>
        <g stroke="#000" class="edge">
            <path fill="none" d="M3887.89 399.95c21.79 32.21 61.53 102.74 24.69 144.05-24.03 26.94-239.98 42.11-367.96 48.8"/>
            <path d="m3544.96 596.29-10.17-2.98 9.81-4.01z"/>
        </g>
        <g stroke="#000" class="edge">
            <path fill="none" d="M3895.21 533.74c163.49 13.68 531.53 44.46 686.01 57.38"/>
            <path d="m4581.23 587.6 9.67 4.33-10.26 2.65z"/>
        </g>
        <g stroke="#000" class="edge">
            <path fill="none" d="M3732.21 532.91c-182.99 13.12-621.8 44.59-807.89 57.94"/>
            <path d="m2924.71 594.33-10.23-2.77 9.73-4.21z"/>
        </g>
        <g stroke="#000" class="edge">
            <path fill="none" d="M3878.69 538.72c69.33 12.67 179.43 32.79 250.42 45.77"/>
            <path d="m4129.46 580.99 9.21 5.24-10.47 1.65z"/>
        </g>
        <g stroke="red" stroke-width="2" class="edge">
            <path fill="none" d="M3728.35 530.64c-181.16 7.79-614.56 27.18-977.77 49.36-52.13 3.18-110.72 7.42-156.35 10.87"/>
            <path fill="red" d="m2596.17 594.23-10.24-2.73 9.71-4.25z"/>
        </g>
        <g stroke="#000" class="edge">
            <path fill="none" d="M3752.01 539.03c-63.51 12.22-161.75 31.11-228.69 43.98"/>
            <path d="m3524 586.44-10.48-1.54 9.16-5.33z"/>
        </g>
        <g stroke="#000" class="edge">
            <path fill="none" d="M4173.48 320.28c114.95 13.54 313.87 37.75 319.1 43.72 14.79 16.89 7.07 42.36-2.77 61.73"/>
            <path d="m4492.89 427.39-7.9 7.06 1.78-10.44z"/>
        </g>
        <g stroke="#000" class="edge">
            <path fill="none" d="M4173.84 320.26c21.96 2.53 45.77 5.25 67.74 7.74 71.54 8.11 258.06 2.9 322 36 38.02 19.69 45.87 33.21 64 72 20.15 43.09 24.17 99.12 24.57 132.45"/>
            <path d="m4655.65 568.12-3.49 10-3.51-10z"/>
        </g>
        <g stroke="#000" class="edge">
            <path fill="none" d="M4086.44 328.34c-19.72 45.34-79.81 167.26-173.86 215.66-21.8 11.22-731.52 39.73-985.07 49.59"/>
            <path d="m2927.79 597.08-10.13-3.11 9.86-3.89z"/>
        </g>
        <g stroke="#000" class="edge">
            <path fill="none" d="M4118.54 327.78c12.49 9.43 27.04 22.13 37.04 36.22 39.74 56 43.34 76.51 56 144 3.81 20.33-.05 43.41-4.68 60.97"/>
            <path d="m4210.31 569.8-6.14 8.63-.59-10.58z"/>
        </g>
        <g stroke="#000" class="edge">
            <path fill="none" d="M4017.27 321.34c-60.61 8.99-147.25 23.56-221.69 42.66-75.41 19.35-160.35 49.71-212.78 69.48"/>
            <path d="m3584.12 436.72-10.59.28 8.11-6.82z"/>
        </g>
        <g stroke="#000" class="edge">
            <path fill="none" d="M4009.7 319.13c-139.42 13.52-417.19 40.45-555.66 53.88"/>
            <path d="m3454.49 376.48-10.29-2.52 9.62-4.45z"/>
        </g>
        <g stroke="#000" class="edge">
            <path fill="none" d="M4072.35 327.79c-26.1 19.88-72.39 52.73-116.77 72.21-116.48 51.12-151.32 52.39-277 72-285.87 44.61-364.49-10.88-650 36-59.16 9.71-71.29 23.86-130 36-105.26 21.76-228.69 37.03-306.37 45.42"/>
            <path d="m2592.91 592.87-10.32-2.42 9.57-4.54z"/>
        </g>
        <g stroke="#000" class="edge">
            <path fill="none" d="M4097.18 328.31c5.55 31.6 12.64 99.45-17.6 143.69-40.83 59.73-76.54 51.75-146 72-130.29 37.99-287.57 49.16-386.47 52.22"/>
            <path d="m3547.25 599.72-10.09-3.22 9.89-3.78z"/>
        </g>
        <g stroke="#000" class="edge">
            <path fill="none" d="M3210.34 530.89c271.38 12.45 1115.8 51.18 1368.86 62.79"/>
            <path d="m4579.1 590.17 9.83 3.96-10.15 3.03z"/>
        </g>
        <g stroke="#000" class="edge">
            <path fill="none" d="M3070.58 540.41c-48.12 11.74-118.02 28.79-168.51 41.1"/>
            <path d="m2902.99 584.89-10.55-1.03 8.89-5.77z"/>
        </g>
        <g stroke="#000" class="edge">
            <path fill="none" d="M3189.36 538.74c12.63 2.01 25.82 3.89 38.22 5.26 326.35 36 717.3 47.9 885.87 51.53"/>
            <path d="m4113.52 592.03 9.92 3.71-10.07 3.29z"/>
        </g>
        <g stroke="#000" class="edge">
            <path fill="none" d="M3060.65 538.43c-12.29 1.99-25.06 3.94-37.07 5.57-151.88 20.56-330.24 37.52-430.09 46.36"/>
            <path d="m2594.08 593.83-10.27-2.61 9.65-4.37z"/>
        </g>
        <g stroke="#000" class="edge">
            <path fill="none" d="M3184.43 539.68c55.43 11.93 138.45 29.82 197 42.43"/>
            <path d="m3381.92 578.63 9.04 5.53-10.52 1.31z"/>
        </g>
        <g stroke="#000" class="edge">
            <path fill="none" d="M3582.38 469.16c27.86 9.03 62.63 22.17 91.2 38.84 21.53 12.56 19.82 26.83 43 36 20.02 7.92 647.12 39.02 862.9 49.52"/>
            <path d="m4579.33 590.01 9.82 3.98-10.16 3.01z"/>
        </g>
        <g stroke="#000" class="edge">
            <path fill="none" d="M3452.61 461.22c-152.6 12.02-472.3 38.04-495.03 46.78-36.78 14.14-72.03 43.08-94.48 64.14"/>
            <path d="m2865.59 574.6-9.64 4.4 4.79-9.45z"/>
        </g>
        <g stroke="#000" class="edge">
            <path fill="none" d="M3566.77 470.8c20.44 9.88 46.65 23.33 68.81 37.2 22.6 14.15 23.17 26.28 48 36 76.45 29.93 306.34 44.15 431.17 49.83"/>
            <path d="m4114.78 590.33 9.83 3.94-10.14 3.05z"/>
        </g>
        <g stroke="red" stroke-width="2" class="edge">
            <path fill="none" d="M3586.62 468.41c46.39 11.52 113.38 28.15 162.74 40.4"/>
            <path fill="red" d="m3748.44 504.98 8.87 5.8-10.55.99z"/>
        </g>
        <g stroke="#000" class="edge">
            <path fill="none" d="M3447.73 458.06c-122.69 5.32-356.5 18.86-553.15 49.94-115.73 18.29-248.51 52.62-322.18 72.88"/>
            <path d="m2573.56 584.19-10.57-.71 8.7-6.04z"/>
        </g>
        <g stroke="#000" class="edge">
            <path fill="none" d="M3496.56 470.72c-15.37 8.66-31.84 21.01-40.98 37.28-10.26 18.26-11.07 42.09-9.55 60.5"/>
            <path d="m3449.48 567.86-2.37 10.33-4.59-9.55z"/>
        </g>
        <g stroke="#000" class="edge">
            <path fill="none" d="M3379.65 400.05c10.38 20.14 30.31 53.25 56.93 71.95 46.61 32.74 68.59 19.14 123 36 49.13 15.23 59.44 26.53 110 36 44.51 8.34 689.97 39.27 909.52 49.61"/>
            <path d="m4579.13 590.11 9.82 3.96-10.15 3.03z"/>
        </g>
        <g stroke="#000" class="edge">
            <path fill="none" d="M3341.82 398.98c-39.22 20.32-110.91 54.94-176.24 73.02-117.1 32.4-168.75-29.63-271 36-22.17 14.23-37.14 40.69-45.98 61.07"/>
            <path d="m2851.88 570.3-7 7.95.51-10.58z"/>
        </g>
        <g stroke="#000" class="edge">
            <path fill="none" d="M3364.2 400.1c-7.17 19.57-14.82 51.54 1.38 71.9 44.3 55.68 91.48 6 156 36 24.18 11.24 23.08 26.51 48 36 97.23 37.02 396.55 48.29 544.07 51.63"/>
            <path d="m4113.42 592.13 9.93 3.72-10.08 3.28z"/>
        </g>
        <g stroke="#000" class="edge">
            <path fill="none" d="M3437.7 392.1c52.61 8.32 127.63 22.6 190.88 43.9 53.03 17.86 110.64 47.09 147.47 67.14"/>
            <path d="m3777.46 499.93 7.08 7.88-10.45-1.75z"/>
        </g>
        <g stroke="#000" class="edge">
            <path fill="none" d="M3406.91 398.36c23.17 10.07 53.71 23.35 78.88 34.3"/>
            <path d="m3487.05 429.39 7.78 7.2-10.57-.78z"/>
        </g>
        <g stroke="#000" class="edge">
            <path fill="none" d="M3308.32 393.04c-142.39 22.9-484.28 79.76-595.74 114.96-56.83 17.95-118.97 47.88-157.95 68.02"/>
            <path d="m2556.58 578.95-10.49 1.52 7.25-7.73z"/>
        </g>
        <g stroke="#000" class="edge">
            <path fill="none" d="M3352.56 399.62c-9.46 9.56-19.95 22.43-24.98 36.38-5.43 15.05-6.06 21.19 0 36 17.7 43.22 58.35 79.53 88.09 101.69"/>
            <path d="m3417.63 570.78 6.05 8.71-10.15-3.04z"/>
        </g>
        <g stroke="#000" class="edge">
            <path fill="none" d="M4003.99 249.28c162.57 23.56 546.22 81.9 595.59 114.72 58.32 38.78 56.36 74.38 64 144 1.75 15.9 1.78 20.1 0 36-.92 8.19-2.6 16.96-4.43 24.96"/>
            <path d="m4662.59 569.63-5.78 8.88-1.02-10.55z"/>
        </g>
        <g stroke="#000" class="edge">
            <path fill="none" d="M3841.69 241.48c-119.23 4.56-322.26 17.1-388.11 50.52-19.36 9.82-13.83 25.83-33 36-96.84 51.36-139.73 2.18-244 36-32.9 10.67-37.46 21.79-69 36-40.79 18.38-56.15 12.16-94 36-19.69 12.4-17.64 24.74-38 36-56.23 31.08-100.63-14.77-140 36-13.1 16.9-11.17 41.51-6.63 60.57"/>
            <path d="m2832.31 567.58-.71 10.57-6.04-8.7z"/>
        </g>
        <g stroke="#000" class="edge">
            <path fill="none" d="M4015.83 245.15c68.69 6.85 158.22 20.62 182.75 46.85 76.97 82.31 55.92 142.82 28 252-2.28 8.9-6.39 17.92-10.82 25.93"/>
            <path d="m4218.79 571.69-8.13 6.79 2.11-10.38z"/>
        </g>
        <g stroke="red" stroke-width="2" class="edge">
            <path fill="none" d="M3890.1 254.36c-28.26 10.47-65.87 24.4-96.04 35.57"/>
            <path fill="red" d="m3796.74 292.67-10.59.19 8.16-6.75z"/>
        </g>
        <g stroke="#000" class="edge">
            <path fill="none" d="M3924.71 256.41c-9.54 24.19-26.9 68.23-38.23 96.94"/>
            <path d="m3889.81 354.46-6.93 8.02.42-10.59z"/>
        </g>
        <g stroke="#000" class="edge">
            <path fill="none" d="M3940.15 256.3c13.82 30.45 37.34 94.99 15.43 143.7-20.58 45.75-67.11 81.55-101.1 102.9"/>
            <path d="M3856.46 505.78 3846.1 508l6.72-8.19z"/>
        </g>
        <g stroke="#000" class="edge">
            <path fill="none" d="M3843.32 242.99c-124.88 6.38-360.08 21.1-558.74 49.01-242.37 34.05-298.04 71.15-540 108-75.55 11.51-290.87-20.8-342 36-41.04 45.59 31.14 106.47 77.87 138.73"/>
            <path d="m2482.12 571.64 6.32 8.49-10.24-2.69z"/>
        </g>
        <g stroke="#000" class="edge">
            <path fill="none" d="M3866.53 251.01c-163.19 30.2-577.29 107.31-581.95 112.99-40.02 48.68-25.27 87.77 61 180 13.58 14.52 32.03 25.67 49.67 33.9"/>
            <path d="m3396.37 574.57 7.74 7.23-10.56-.82z"/>
        </g>
        <g stroke="#000" class="edge">
            <path fill="none" d="M2553.79 400.39c5.82 10.21 13.07 23.46 18.79 35.61 22 46.75 3.91 74.22 43 108 21.73 18.77 89.82 33.22 145.1 42.26"/>
            <path d="m2761.08 582.78 9.33 5.03-10.43 1.88z"/>
        </g>
        <g stroke="#000" class="edge">
            <path fill="none" d="M2584.84 399.41c25.1 9.98 57.33 22.8 83.98 33.4"/>
            <path d="m2670.08 429.55 8 6.94-10.59-.44z"/>
        </g>
        <g class="node" transform="translate(4 616)">
            <ellipse cx="934.58" cy="-162" fill="none" stroke="#000" rx="80.01" ry="18"/>
            <text x="934.58" y="-156.95" font-family="Times,serif" font-size="14" text-anchor="middle">:library:koin-room</text>
        </g>
        <g stroke="#000" class="edge">
            <path fill="none" d="M2422.87 386.15c-334.64 8.89-1258.55 34.49-1395.29 49.85-6.98.78-14.22 1.81-21.44 2.97"/>
            <path d="m1006.82 442.41-10.45-1.77 9.27-5.13z"/>
        </g>
        <g class="node" transform="translate(4 616)">
            <ellipse cx="1093.58" cy="-162" fill="none" stroke="#000" rx="60.56" ry="18"/>
            <text x="1093.58" y="-156.95" font-family="Times,serif" font-size="14" text-anchor="middle">:library:room</text>
        </g>
        <g stroke="#000" class="edge">
            <path fill="none" d="M2422.6 385.98c-283.21 7.28-982.98 27.04-1217.02 50.02-14.98 1.47-31.04 3.66-46.07 5.98"/>
            <path d="m1160.16 445.42-10.42-1.88 9.32-5.03z"/>
        </g>
        <g stroke="#000" class="edge">
            <path fill="none" d="M647.23 385.93c-159.82 4.99-414.35 17.93-443.65 50.07-10.78 11.82-9.91 23.44 0 36 85.2 107.99 164.54 54.71 301 72 461.05 58.4 1626.7 15.78 2091 36 52.69 2.3 111.72 6.39 158.4 9.98"/>
            <path d="m2754.06 586.48 9.7 4.26-10.25 2.72z"/>
        </g>
        <g stroke="#000" class="edge">
            <path fill="none" d="M691.26 396.13c-80.11 12.32-199.5 30.69-280.77 43.19"/>
            <path d="m411.2 442.75-10.42-1.93 9.35-4.98z"/>
        </g>
        <g stroke="#000" class="edge">
            <path fill="none" d="M814.97 399.59c23.15 10 52.79 22.81 77.24 33.37"/>
            <path d="m893.5 429.71 7.79 7.18-10.56-.75z"/>
        </g>
        <g stroke="#000" class="edge">
            <path fill="none" d="M848.11 397.51c50.29 10.34 119.1 24.79 179.47 38.49 4.33.98 8.82 2.02 13.32 3.08"/>
            <path d="m1041.67 435.67 8.92 5.72-10.54 1.09z"/>
        </g>
        <g stroke="#000" class="edge">
            <path fill="none" d="M765.1 466.05c27.73 2.25 57.11 4.4 84.48 5.95 521.18 29.58 653.09 1.86 1174 36 20.45 1.34 42.26 3.21 63.17 5.21"/>
            <path d="m2086.81 509.7 9.61 4.46-10.29 2.51z"/>
        </g>
        <g class="node" transform="translate(4 616)">
            <ellipse cx="712.58" cy="-90" fill="none" stroke="#000" rx="93.32" ry="18"/>
            <text x="712.58" y="-84.95" font-family="Times,serif" font-size="14" text-anchor="middle">:library:koin-datastore</text>
        </g>
        <g stroke="#000" class="edge">
            <path fill="none" d="M662.38 472.3c8.63 8.4 19.16 18.63 28.63 27.84"/>
            <path d="m693.17 497.36 4.73 9.48-9.61-4.46z"/>
        </g>
        <g stroke="#000" class="edge">
            <path fill="none" d="M1273.8 392.95c-26.35 7.71-51.95 20.85-68.22 43.05-9.46 12.9-7.72 21.99 0 36 105.32 191.09 277.59 53.42 1390 108 52.58 2.58 111.49 6.67 158.13 10.19"/>
            <path d="m2753.77 586.69 9.71 4.25-10.24 2.73z"/>
        </g>
        <g stroke="#000" class="edge">
            <path fill="none" d="M1465.24 394.52c103.14 12.96 269.73 33.9 373.1 46.89"/>
            <path d="m1838.7 437.93 9.49 4.72-10.36 2.22z"/>
        </g>
        <g stroke="#000" class="edge">
            <path fill="none" d="M1287.05 395.35c-70.07 10.23-171.28 25.48-259.47 40.65-6.26 1.08-12.75 2.24-19.26 3.43"/>
            <path d="m1009.37 442.79-10.47-1.62 9.19-5.26z"/>
        </g>
        <g stroke="#000" class="edge">
            <path fill="none" d="m1313.69 398.19-160.22 40.63"/>
            <path d="m1154.41 442.2-10.56-.94 8.84-5.85z"/>
        </g>
        <g stroke="#000" class="edge">
            <path fill="none" d="M1353.57 472.13c-18.49 19.59-41.95 51.58-21.99 71.87 43.12 43.83 2151.53 34.7 2213 36 204.78 4.33 445.64 11.01 569.74 14.57"/>
            <path d="m4114.19 591.07 9.89 3.78-10.09 3.21z"/>
        </g>
        <g stroke="#000" class="edge">
            <path fill="none" d="M1393.83 472.3c11.11 8.65 24.74 19.25 36.86 28.67"/>
            <path d="m1432.65 498.06 5.74 8.91-10.04-3.38z"/>
        </g>
        <g stroke="#000" class="edge">
            <path fill="none" d="M1259.35 466.99c-127.67 13.65-333.7 35.67-451.79 48.29"/>
            <path d="m808.23 518.73-10.32-2.42 9.57-4.55z"/>
        </g>
        <g stroke="#000" class="edge">
            <path fill="none" d="M991.47 393.24c-24.27 2.29-49.97 4.65-73.89 6.76-48.86 4.31-406.76-.07-440 36-10.84 11.77-8.27 22.31 0 36 35.57 58.88 70.37 54.91 137 72 213.25 54.68 1761.07 26.31 1981 36 52.69 2.32 111.72 6.41 158.4 10"/>
            <path d="m2754.06 586.5 9.69 4.26-10.24 2.72z"/>
        </g>
        <g stroke="#000" class="edge">
            <path fill="none" d="M1010.91 396.08C943.6 407.12 859.98 423.14 849.58 436c-28.84 35.66 25.34 59.32 78.47 73.22"/>
            <path d="m928.67 505.77 8.85 5.82-10.55.97z"/>
        </g>
        <g stroke="#000" class="edge">
            <path fill="none" d="M1059.9 399.59c-22.72 10-51.81 22.81-75.81 33.37"/>
            <path d="m985.76 436.05-10.56.83 7.74-7.23z"/>
        </g>
        <g stroke="#000" class="edge">
            <path fill="none" d="M1097.58 400.3v24.16"/>
            <path d="m1101.08 424.38-3.5 10-3.5-10z"/>
        </g>
        <g stroke="#000" class="edge">
            <path fill="none" d="M5936.71 251.68c-51.3 11.85-127.95 29.56-182.47 42.15"/>
            <path d="m5755.3 297.18-10.53-1.16 8.96-5.66z"/>
        </g>
        <g stroke="#000" class="edge">
            <path fill="none" d="M6013.98 255.7c21.89 18.37 49.5 48.45 31.6 72.3-12.47 16.61-56.88 29.73-98.71 38.76"/>
            <path d="m5947.72 370.15-10.5-1.38 9.07-5.47z"/>
        </g>
        <g stroke="#000" class="edge">
            <path fill="none" d="M5921.53 247.56c-78.7 9.83-210.2 26.86-322.95 44.44-6.91 1.08-14.1 2.25-21.29 3.46"/>
            <path d="m5577.97 298.9-10.44-1.77 9.26-5.13z"/>
        </g>
        <g stroke="#000" class="edge">
            <path fill="none" d="M6021.57 255.09c14.32 9.09 30.57 21.69 41.01 36.91 27.92 40.72 38.6 98.41 42.63 132.54"/>
            <path d="m6108.69 424.16-2.44 10.31-4.52-9.58z"/>
        </g>
        <g stroke="#000" class="edge">
            <path fill="none" d="M6071.74 241.72c120.04 5.06 340.07 18.47 411.84 50.28 54.39 24.11 100 29.5 100 89v74c0 95.01-1505.58 132.93-1858.57 140.52"/>
            <path d="m4725.26 599.02-10.07-3.29 9.92-3.71z"/>
        </g>
        <g stroke="#000" class="edge">
            <path fill="none" d="M5915.84 244.88c-166.81 12.94-565.02 43.85-740.6 57.47"/>
            <path d="m5175.75 305.82-10.24-2.71 9.7-4.27z"/>
        </g>
        <g stroke="#000" class="edge">
            <path fill="none" d="M5999.25 256.34c7.43 19.79 15.33 51.97-1.67 71.66-35.82 41.49-190.23 25.39-244 36-326.15 64.34-396.47 136.15-726 180-368.17 48.99-1299.72 25.91-1671 36-150.63 4.09-325.87 10.11-429.05 13.78"/>
            <path d="m2927.87 597.27-10.12-3.15 9.87-3.85z"/>
        </g>
        <g stroke="#000" class="edge">
            <path fill="none" d="M6070.95 242.51c124.69 6.34 354.86 21.7 379.63 49.49 10.64 11.94 7.8 22.03 0 36-59.57 106.6-117.68 106.84-234 144-228.71 73.05-304.41-15.1-539 36-44.12 9.61-50.74 27.07-95 36-218.41 44.06-779.37 27.06-1002 36-103.64 4.16-223.02 9.56-300.58 13.14"/>
            <path d="m4280.53 596.62-10.15-3.03 9.83-3.96z"/>
        </g>
        <g stroke="#000" class="edge">
            <path fill="none" d="M5964.62 255.41c-15.32 9.33-34.71 21.13-51.39 31.28"/>
            <path d="m5915.43 289.45-10.37 2.21 6.73-8.19z"/>
        </g>
        <g stroke="#000" class="edge">
            <path fill="none" d="M5910.98 241.33c-115.8 3.33-335.96 9.62-523.4 14.67-621.76 16.75-777.71 6.55-1399 36-52.05 2.47-110.21 6.43-156.91 9.91"/>
            <path d="m3832.1 305.39-10.23-2.74 9.71-4.24z"/>
        </g>
        <g stroke="#000" class="edge">
            <path fill="none" d="M5993.99 256.17c1.81 20.58 1.13 54.46-19.41 71.83-34.45 29.14-1578.9 34.69-1624 36-138.17 4-298.9 10.05-393.5 13.75"/>
            <path d="m3957.23 381.24-10.13-3.1 9.86-3.89z"/>
        </g>
        <g stroke="#000" class="edge">
            <path fill="none" d="M4784.68 248.84c17.24 2.71 36.31 5.39 53.9 7.16 336.46 33.87 424.16-3.48 760 36 6.94.82 14.16 1.85 21.34 3.01"/>
            <path d="m5620.38 291.54 9.28 5.12-10.45 1.78z"/>
        </g>
        <g stroke="#000" class="edge">
            <path fill="none" d="M4758.82 254.43c42.62 20.91 123.37 57.47 196.76 73.57 148.71 32.63 588.55 46.17 796.58 50.87"/>
            <path d="m5751.97 375.37 9.92 3.72-10.08 3.27z"/>
        </g>
        <g stroke="#000" class="edge">
            <path fill="none" d="M4785.28 248.58c17.09 2.67 35.93 5.39 53.3 7.42 202.5 23.7 441.01 39.89 569.89 47.68"/>
            <path d="m5408.55 300.18 9.77 4.09-10.19 2.89z"/>
        </g>
        <g stroke="#000" class="edge">
            <path fill="none" d="M4744.7 255.95c20.76 20.69 58.94 55 98.88 72.05 24.9 10.63 455.08 69.08 482 72 261.85 28.38 574.78 44.14 711.86 50.14"/>
            <path d="m6037.23 446.63 9.84 3.93-10.15 3.07z"/>
        </g>
        <g stroke="#000" class="edge">
            <path fill="none" d="M4733.8 256.23c7.2 20.64 22.29 54.57 47.78 71.77 86.86 58.6 132.57 6.11 233 36 74.35 22.13 116.96 6.81 159 72 26.01 40.34 32.18 72.39 0 108-29.55 32.7-312.83 46.25-449.26 50.92"/>
            <path d="m4724.8 598.4-10.11-3.16 9.87-3.83z"/>
        </g>
        <g stroke="#000" class="edge">
            <path fill="none" d="M4782.62 249.48c63.07 12.23 167.54 32.49 236.81 45.92"/>
            <path d="m5020.02 291.95 9.16 5.34-10.49 1.53z"/>
        </g>
        <g stroke="#000" class="edge">
            <path fill="none" d="M4722.37 256.21c-5.74 19.1-11.48 50.07 2.21 71.79 59.37 94.17 166.63 13.83 226 108 11.36 18.02 7.47 95.32-6 108-32.13 30.24-1543.9 34.78-1588 36-150.63 4.18-325.86 10.17-429.05 13.81"/>
            <path d="m2927.87 597.3-10.12-3.15 9.87-3.85z"/>
        </g>
        <g stroke="#000" class="edge">
            <path fill="none" d="M4726.68 256.28c-1.17 20.04.27 52.76 18.9 71.72 54.74 55.71 97.24 13.41 172 36 10.31 3.12 171.99 64.79 180 72 37.82 34.04 72.95 71.02 38 108-7.32 7.75-628.45 38.2-855.81 49.09"/>
            <path d="m4280.26 596.57-10.15-3.01 9.82-3.98z"/>
        </g>
        <g stroke="#000" class="edge">
            <path fill="none" d="M4784.38 248.9c17.32 2.73 36.5 5.4 54.2 7.1 416.17 39.99 524.22-7.83 940 36 7.76.82 15.84 1.88 23.87 3.07"/>
            <path d="m5802.92 291.6 9.34 4.99-10.42 1.92z"/>
        </g>
        <g stroke="#000" class="edge">
            <path fill="none" d="M4662.38 243.29c-133.63 8.71-445.21 29.3-706.8 48.71-40.91 3.03-86.22 6.62-124.5 9.71"/>
            <path d="m3831.72 305.17-10.25-2.68 9.69-4.29z"/>
        </g>
        <g stroke="#000" class="edge">
            <path fill="none" d="M4659.59 238.81c-159.57.39-549.77 6.26-671.01 53.19-35.62 13.79-69 42.86-90.12 64.04"/>
            <path d="m3900.99 358.46-9.47 4.74 4.45-9.62z"/>
        </g>
        <g stroke="#000" class="edge">
            <path fill="none" d="M6142.12 172.86c-71.26 6.65-176.37 20.27-264.54 47.14-54.86 16.72-114.06 46.74-151.31 67.25"/>
            <path d="m5728.13 290.22-10.44 1.81 7.04-7.92z"/>
        </g>
        <g stroke="#000" class="edge">
            <path fill="none" d="M6218.72 184.34c-12.29 33.54-44.09 107.2-97.14 143.66-26.57 18.26-102.17 32.49-164.71 41.58"/>
            <path d="m5957.65 373.01-10.39-2.06 9.4-4.87z"/>
        </g>
        <g stroke="#000" class="edge">
            <path fill="none" d="M6140.9 172.37c-89.28 6.82-234.47 21.04-357.32 47.63-82.06 17.76-174.35 49.31-230.06 69.68"/>
            <path d="m5554.9 292.9-10.59.18 8.17-6.74z"/>
        </g>
        <g stroke="#000" class="edge">
            <path fill="none" d="M6279.21 180.53c82.07 23.03 222.4 74.55 171.37 147.47-33.41 47.74-195.8 91.39-284.63 112.2"/>
            <path d="m6166.97 443.55-10.53-1.15 8.95-5.67z"/>
        </g>
        <g stroke="#000" class="edge">
            <path fill="none" d="M6313.25 167.98c121.74 2.79 333 13.27 398.33 52.02 41.46 24.59 62 40.79 62 89v146c0 14.01.69 37.77-536 89-299.44 28.58-1241.99 46.97-1512.66 51.75"/>
            <path d="m4725.25 599.25-10.06-3.33 9.94-3.67z"/>
        </g>
        <g stroke="#000" class="edge">
            <path fill="none" d="M6136.42 168.39c-232.9 4.12-852.61 18.12-938.84 51.61-34.64 13.45-66.43 42.59-86.42 63.88"/>
            <path d="m5113.94 286.02-9.33 5.03 4.16-9.75z"/>
        </g>
        <g stroke="#000" class="edge">
            <path fill="none" d="M6299.28 176.04c59.73 8.61 137.3 23.32 161.3 43.96 60.81 52.31 46.76 126.51-13 180-60.22 53.91-88.39 53.2-167 72-249.9 59.75-320.57 19.8-577 36-250.24 15.81-312.49 25.47-563 36-792.35 33.31-991.23 14.99-1784 36-150.64 3.99-325.87 10.04-429.05 13.74"/>
            <path d="m2927.87 597.23-10.12-3.14 9.87-3.86z"/>
        </g>
        <g stroke="#000" class="edge">
            <path fill="none" d="M6309.34 171.74c103.06 6.83 270.19 21.64 326.24 48.26 78.44 37.25 127.15 109.83 76 180-61.6 84.5-121.47 51.42-224 72-416.16 83.54-1482.87 91.41-1907 108-103.8 4.06-223.39 9.49-300.94 13.11"/>
            <path d="m4280.18 596.59-10.16-3.03 9.83-3.97z"/>
        </g>
        <g stroke="#000" class="edge">
            <path fill="none" d="M6138.69 170.72c-83.95 5.41-203.96 18.42-238.11 49.28-16.72 15.1-22.31 40.51-23.95 60.32"/>
            <path d="m5880.13 280.47-4 9.81-2.99-10.16z"/>
        </g>
        <g stroke="#000" class="edge">
            <path fill="none" d="M6306.36 173.33c40.16 6.6 87.29 19.91 122.22 46.67 40.76 31.22 64.07 62.14 41 108-65.21 129.62-150.33 117.55-293 144-268.78 49.84-2186.7 30.07-2460 36-173.8 3.77-376.3 9.99-493.46 13.77"/>
            <path d="m3223.32 525.27-10.11-3.18 9.88-3.82z"/>
        </g>
        <g stroke="#000" class="edge">
            <path fill="none" d="M6137.14 169.67c-359.32 10.97-1721.33 52.55-2104.64 64.25"/>
            <path d="m4032.79 237.41-10.1-3.19 9.89-3.81z"/>
        </g>
        <g class="node" transform="translate(4 616)">
            <ellipse cx="6322.58" cy="-306" fill="none" stroke="#000" rx="115.33" ry="18"/>
            <text x="6322.58" y="-300.95" font-family="Times,serif" font-size="14" text-anchor="middle">:app:core:calendar-compose</text>
        </g>
        <g stroke="#000" class="edge">
            <path fill="none" d="M6236.88 184.13c17.62 24.52 50.17 69.84 70.84 98.61"/>
            <path d="m6310.36 280.42 2.99 10.16-8.68-6.08z"/>
        </g>
        <g stroke="#000" class="edge">
            <path fill="none" d="M4998.07 243.77c149.84 9.89 486.13 32.98 600.51 48.23 6.74.9 13.75 1.97 20.74 3.14"/>
            <path d="m5619.89 291.68 9.25 5.16-10.45 1.74z"/>
        </g>
        <g stroke="#000" class="edge">
            <path fill="none" d="M4933.45 256.05c12.03 21.13 35.67 56.26 67.13 71.95 33.17 16.55 529.13 39.12 753.82 48.56"/>
            <path d="m5754.51 373.06 9.84 3.92-10.13 3.08z"/>
        </g>
        <g stroke="#000" class="edge">
            <path fill="none" d="M4991.73 247.13c105.66 12.8 310.55 37.61 426.16 51.61"/>
            <path d="m5418.13 295.25 9.51 4.67-10.35 2.28z"/>
        </g>
        <g stroke="#000" class="edge">
            <path fill="none" d="M4925.7 256.23c2.33 20.64 9.56 54.57 31.88 71.77 65.08 50.16 287.19 21.14 368 36 59.81 11 72.11 25.48 132 36 208.5 36.61 459.16 48.01 579.18 51.5"/>
            <path d="m6036.55 448 9.9 3.77-10.09 3.22z"/>
        </g>
        <g stroke="#000" class="edge">
            <path fill="none" d="M4919.96 256.31c-4.15 19.77-7.27 51.93 9.62 71.69 49.34 57.71 97.61 5.17 167 36 50.05 22.24 74.69 23.43 100 72 22.18 42.57 33.26 72.46 1 108-31.2 34.37-331.58 47.13-473.02 51.26"/>
            <path d="m4725.03 598.75-10.09-3.22 9.89-3.78z"/>
        </g>
        <g stroke="#000" class="edge">
            <path fill="none" d="M4960.38 254.19c24.16 10.25 56.28 23.88 82.45 34.98"/>
            <path d="m5044.04 285.88 7.84 7.13-10.57-.69z"/>
        </g>
        <g stroke="#000" class="edge">
            <path fill="none" d="M4914.72 256.12c-9.07 17.96-20.14 46.99-13.14 71.88 15.24 54.15 50.76 53.85 66 108 6 21.34 1.81 102.38-4 108-32.09 31.05-1562.37 34.77-1607 36-150.63 4.16-325.87 10.15-429.05 13.8"/>
            <path d="m2927.87 597.29-10.12-3.14 9.87-3.86z"/>
        </g>
        <g stroke="#000" class="edge">
            <path fill="none" d="M4916.13 256.1c-8.07 19-17.16 49.88-3.55 71.9 7.05 11.41 206.96 98.08 216 108 33.4 36.65 62.08 71.98 28 108-7.51 7.93-645.51 38.4-876.6 49.19"/>
            <path d="m4280.29 596.68-10.15-3.03 9.82-3.97z"/>
        </g>
        <g stroke="#000" class="edge">
            <path fill="none" d="M4998.16 243.59c54.94 3.42 131.88 8.21 199.42 12.41 258.22 16.04 324.05 5.84 581 36 7.63.9 15.58 1.99 23.49 3.2"/>
            <path d="m5802.38 291.7 9.33 5.02-10.42 1.9z"/>
        </g>
        <g stroke="#000" class="edge">
            <path fill="none" d="M4855.86 246.38c-29.14 6.92-60.43 20.2-78.28 45.62-9.2 13.09-7.76 22.01 0 36 48.52 87.49 242.07 71.63 173 144-35.49 37.18-765.04 48.94-1035.91 52.04"/>
            <path d="m3914.83 527.54-10.04-3.39 9.96-3.61z"/>
        </g>
        <g stroke="#000" class="edge">
            <path fill="none" d="M4861.91 248.85c-17.85 2.58-37.33 5.19-55.33 7.15-216.34 23.6-470.77 39.73-609.65 47.56"/>
            <path d="m4197.19 307.05-10.18-2.94 9.78-4.05z"/>
        </g>
        <g stroke="#000" class="edge">
            <path fill="none" d="M5357.99 250.03c61.99 10.53 157.69 26.96 240.59 41.97 6.21 1.13 12.67 2.31 19.13 3.51"/>
            <path d="m5617.9 291.98 9.18 5.28-10.47 1.6z"/>
        </g>
        <g stroke="#000" class="edge">
            <path fill="none" d="M5315.53 255.63c14.02 10.29 32.24 23.87 48.05 36.37 19.55 15.46 20.1 26.15 43 36 60.8 26.15 234.41 40.66 349.29 47.63"/>
            <path d="m5755.86 372.13 9.77 4.09-10.19 2.89z"/>
        </g>
        <g stroke="#000" class="edge">
            <path fill="none" d="M5337.12 253.85c32.15 10.71 75.79 25.26 110.17 36.72"/>
            <path d="m5448.29 287.21 8.38 6.49-10.59.16z"/>
        </g>
        <g stroke="#000" class="edge">
            <path fill="none" d="M5304.13 256.23c15.93 23.23 44.36 62.73 59.45 71.77 113.82 68.23 513.61 106.76 675.33 119.86"/>
            <path d="m6038.94 444.35 9.69 4.29-10.25 2.69z"/>
        </g>
        <g stroke="#000" class="edge">
            <path fill="none" d="M5295.24 256.25c7.22 54.1 20.8 220.76-73.66 287.75-39.71 28.16-352.56 44.26-497.17 50.27"/>
            <path d="m4724.69 597.76-10.13-3.09 9.85-3.9z"/>
        </g>
        <g stroke="#000" class="edge">
            <path fill="none" d="M5249.53 253.85c-31.3 10.79-73.84 25.46-107.18 36.95"/>
            <path d="m5143.9 293.97-10.6-.05 8.32-6.57z"/>
        </g>
        <g stroke="#000" class="edge">
            <path fill="none" d="M5282.28 256.03c-34.36 54.92-151.39 227.27-301.7 287.97-83.68 33.79-1533.79 33.52-1624 36-150.63 4.14-325.87 10.14-429.05 13.79"/>
            <path d="m2927.87 597.28-10.12-3.14 9.87-3.85z"/>
        </g>
        <g stroke="#000" class="edge">
            <path fill="none" d="M5292.05 256.21c-2.21 58.69-12.68 249.49-56.47 287.79-4.49 3.93-711 37.59-955.71 49.13"/>
            <path d="m4280.24 596.62-10.15-3.03 9.82-3.96z"/>
        </g>
        <g stroke="#000" class="edge">
            <path fill="none" d="M5370.63 245.98c96.16 8.95 264.45 25.77 407.95 46.02 7.21 1.02 14.7 2.16 22.19 3.36"/>
            <path d="m5801.3 291.9 9.3 5.07-10.43 1.84z"/>
        </g>
        <g stroke="#000" class="edge">
            <path fill="none" d="M5269.63 255.63c-14.02 10.29-32.25 23.87-48.05 36.37-107.39 84.93-120.33 136.05-250 180-98.57 33.41-794.52 47.45-1057.07 51.59"/>
            <path d="m3914.65 527.09-10.05-3.34 9.95-3.66z"/>
        </g>
        <g stroke="#000" class="edge">
            <path fill="none" d="M5210.83 243.98c-56.29 3.42-132.81 8.04-200.25 12.02-295.67 17.46-645 37.48-814.49 47.16"/>
            <path d="m4196.39 306.65-10.19-2.93 9.79-4.06z"/>
        </g>
        <g class="node" transform="translate(4 616)">
            <ellipse cx="4825.58" cy="-90" fill="none" stroke="#000" rx="106.11" ry="18"/>
            <text x="4825.58" y="-84.95" font-family="Times,serif" font-size="14" text-anchor="middle">:library:firebase-common</text>
        </g>
        <g stroke="#000" class="edge">
            <path fill="none" d="M4829.58 472.3v24.16"/>
            <path d="m4833.08 496.38-3.5 10-3.5-10z"/>
        </g>
        <g stroke="#000" class="edge">
            <path fill="none" d="M1889.64 470.73c-16.13 8.45-32.94 20.63-42.06 37.27-7.69 14.03-10.86 24.25 0 36 38.95 42.16 414.79 50.81 584.99 52.57"/>
            <path d="m2432.49 593.07 9.96 3.59-10.03 3.41z"/>
        </g>
        <g stroke="#000" class="edge">
            <path fill="none" d="M1089.17 538.95c15.04 1.96 30.69 3.76 45.41 5.05 491.11 42.99 1083.5 51.11 1298.23 52.64"/>
            <path d="m2432.78 593.14 9.98 3.57-10.02 3.43z"/>
        </g>
        <g stroke="#000" class="edge">
            <path fill="none" d="M337.98 472.02c21.94 21.46 63.15 57.29 106.6 71.98 95.56 32.3 1614.37 48.69 1988.31 52.25"/>
            <path d="m2432.66 592.75 9.96 3.59-10.03 3.41z"/>
        </g>
        <g stroke="#000" class="edge">
            <path fill="none" d="M1125.97 470.33c41.24 21.33 120.75 59 193.61 73.67 242.39 48.81 1977.8 30.78 2225 36 204.78 4.32 445.64 11.01 569.74 14.57"/>
            <path d="m4114.19 591.06 9.89 3.79-10.09 3.21z"/>
        </g>
        <g stroke="#000" class="edge">
            <path fill="none" d="M6245.67 323.23c-82.86 12.53-211.19 31.93-295.91 44.74"/>
            <path d="m5950.53 371.39-10.41-1.96 9.36-4.96z"/>
        </g>
        <g stroke="#000" class="edge">
            <path fill="none" d="M6300.6 327.85c-39.63 25.69-115.19 74.68-159.1 103.15"/>
            <path d="m6143.42 433.93-10.3 2.51 6.49-8.38z"/>
        </g>
        <g stroke="#000" class="edge">
            <path fill="none" d="M6316.72 328.38c-20.75 34.64-72.62 111.7-140.14 143.62-115.74 54.72-451.88.89-575 36-32.51 9.27-34.38 27.13-67 36-204.72 55.64-742.03 27.3-954 36-103.64 4.26-223.02 9.63-300.58 13.18"/>
            <path d="m4280.53 596.66-10.15-3.04 9.83-3.95z"/>
        </g>
    </g>
</svg>
