<svg xmlns="http://www.w3.org/2000/svg" width="2040" height="404pt" viewBox="0 0 1530.23 404">
    <g class="graph">
        <path fill="#fff" d="M0 404V0h1530.23v404z"/>
        <g class="node" transform="translate(4 400)">
            <ellipse cx="502.23" cy="-378" fill="none" stroke="#000" rx="68.75" ry="18"/>
            <text x="502.23" y="-372.95" font-family="Times,serif" font-size="14" text-anchor="middle">:app:feature:tag</text>
        </g>
        <g class="node" transform="translate(4 400)">
            <ellipse cx="355.23" cy="-306" fill="none" stroke="#000" rx="81.04" ry="18"/>
            <text x="355.23" y="-300.95" font-family="Times,serif" font-size="14" text-anchor="middle">:app:core:compose</text>
        </g>
        <g stroke="#000" class="edge">
            <path fill="none" d="M473.97 38.36c-20.97 9.98-48.54 23.12-71.41 34"/>
            <path d="m404.33 75.4-10.54 1.14 7.53-7.46z"/>
        </g>
        <g class="node" transform="translate(4 400)">
            <ellipse cx="335.23" cy="-234" fill="none" stroke="#000" rx="101" ry="18"/>
            <text x="335.23" y="-228.95" font-family="Times,serif" font-size="14" text-anchor="middle">:app:core:design-system</text>
        </g>
        <g stroke="#000" class="edge">
            <path fill="none" d="M441.59 28.5c-62.6 6.83-151.11 20.97-172.36 47.5-10.01 12.49-7.13 21.67 0 36 6.09 12.26 16.53 22.45 27.51 30.5"/>
            <path d="m298.43 139.42 6.33 8.49-10.25-2.69z"/>
        </g>
        <g class="node" transform="translate(4 400)">
            <ellipse cx="565.23" cy="-90" fill="none" stroke="#000" rx="86.67" ry="18"/>
            <text x="565.23" y="-84.95" font-family="Times,serif" font-size="14" text-anchor="middle">:app:core:navigation</text>
        </g>
        <g stroke="#000" class="edge">
            <path fill="none" d="M504.19 40.48C500.25 80.4 494.5 180.65 525.23 256c4.11 10.08 10.86 19.7 17.86 27.91"/>
            <path d="m545.49 281.34 4.15 9.75-9.32-5.03z"/>
        </g>
        <g class="node" transform="translate(4 400)">
            <ellipse cx="206.23" cy="-162" fill="none" stroke="#000" rx="59.54" ry="18"/>
            <text x="206.23" y="-156.95" font-family="Times,serif" font-size="14" text-anchor="middle">:library:color</text>
        </g>
        <g stroke="#000" class="edge">
            <path fill="none" d="M443.58 29.78C379.9 37.81 286.79 53.08 259.23 76c-39.16 32.56-47.71 95.42-49.18 132.22"/>
            <path d="m213.55 208.19-3.73 9.92-3.27-10.08z"/>
        </g>
        <g class="node" transform="translate(4 400)">
            <ellipse cx="1449.23" cy="-18" fill="none" stroke="#000" rx="62.1" ry="18"/>
            <text x="1449.23" y="-12.95" font-family="Times,serif" font-size="14" text-anchor="middle">:library:kotlin</text>
        </g>
        <g stroke="#000" class="edge">
            <path fill="none" d="M574.34 25.29c228.25 8.57 951.89 43.33 951.89 139.71v74c0 44.63-28.88 89.3-50.31 116.29"/>
            <path d="m1478.72 357.4-9.05 5.51 3.64-9.95z"/>
        </g>
        <g class="node" transform="translate(4 400)">
            <ellipse cx="610.23" cy="-162" fill="none" stroke="#000" rx="79.5" ry="18"/>
            <text x="610.23" y="-156.95" font-family="Times,serif" font-size="14" text-anchor="middle">:library:navigation</text>
        </g>
        <g stroke="#000" class="edge">
            <path fill="none" d="M514.88 40.15c18.68 37.02 62.92 124.67 85.52 169.46"/>
            <path d="m603.47 207.91 1.38 10.51-7.63-7.35z"/>
        </g>
        <g class="node" transform="translate(4 400)">
            <ellipse cx="1290.23" cy="-18" fill="none" stroke="#000" rx="78.99" ry="18"/>
            <text x="1290.23" y="-12.95" font-family="Times,serif" font-size="14" text-anchor="middle">:library:coroutines</text>
        </g>
        <g stroke="#000" class="edge">
            <path fill="none" d="M573.86 25.96C703.15 32.18 980.64 48.35 1072.23 76c103.82 31.35 140.23 51.59 197 144 18.05 29.39 22.43 38.13 29 72 3.04 15.71.6 20.01 0 36-.3 7.96-.86 16.58-1.46 24.51"/>
            <path d="m1300.27 352.64-4.3 9.68-2.67-10.25z"/>
        </g>
        <g class="node" transform="translate(4 400)">
            <ellipse cx="699.23" cy="-18" fill="none" stroke="#000" rx="72.85" ry="18"/>
            <text x="699.23" y="-12.95" font-family="Times,serif" font-size="14" text-anchor="middle">:library:datetime</text>
        </g>
        <g stroke="#000" class="edge">
            <path fill="none" d="M501.33 40.11C485.3 97.66 437.49 283.09 473.23 328c18.84 23.68 92.53 37.68 151.49 45.29"/>
            <path d="m624.92 369.79 9.49 4.7-10.35 2.24z"/>
        </g>
        <g class="node" transform="translate(4 400)">
            <ellipse cx="89.23" cy="-234" fill="none" stroke="#000" rx="89.23" ry="18"/>
            <text x="89.23" y="-228.95" font-family="Times,serif" font-size="14" text-anchor="middle">:library:shimmer-m3</text>
        </g>
        <g stroke="#000" class="edge">
            <path fill="none" d="M437.78 24.23c-65 3.54-164.03 15.18-241.55 51.77-31.98 15.09-61.77 42.95-81 63.49"/>
            <path d="m118.01 141.64-9.33 5.03 4.16-9.75z"/>
        </g>
        <g class="node" transform="translate(4 400)">
            <ellipse cx="947.23" cy="-306" fill="none" stroke="#000" rx="84.11" ry="18"/>
            <text x="947.23" y="-300.95" font-family="Times,serif" font-size="14" text-anchor="middle">:app:domain:memo</text>
        </g>
        <g stroke="red" stroke-width="2" class="edge">
            <path fill="none" d="M563.94 32.08c79.08 12.44 221.34 34.82 309.68 48.71"/>
            <path fill="red" d="m872.59 77.09 9.33 5.01L871.5 84z"/>
        </g>
        <g class="node" transform="translate(4 400)">
            <ellipse cx="1084.23" cy="-234" fill="none" stroke="#000" rx="71.31" ry="18"/>
            <text x="1084.23" y="-228.95" font-family="Times,serif" font-size="14" text-anchor="middle">:app:domain:tag</text>
        </g>
        <g stroke="#000" class="edge">
            <path fill="none" d="M573.76 26.01C709.62 32.59 1006.3 49.78 1044.23 76c20.36 14.08 31.72 40.37 37.77 60.74"/>
            <path d="m1085.32 135.6-.8 10.56-5.96-8.75z"/>
        </g>
        <g stroke="#000" class="edge">
            <path fill="none" d="M354.28 112.3c-2.13 7.46-4.68 16.38-7.06 24.73"/>
            <path d="m350.64 137.79-6.11 8.65-.62-10.58z"/>
        </g>
        <g stroke="#000" class="edge">
            <path fill="none" d="m308.65 183.59-60.32 32.73"/>
            <path d="M250.16 219.31 239.7 221l7.12-7.84z"/>
        </g>
        <g stroke="#000" class="edge">
            <path fill="none" d="M344.86 184.35c11.85 33.56 42.7 107.26 95.37 143.65 29.65 20.49 119.6 35.58 186.09 44.31"/>
            <path d="m626.63 368.82 9.47 4.75-10.36 2.19z"/>
        </g>
        <g stroke="#000" class="edge">
            <path fill="none" d="M600.3 327.24c18.7 9.76 42.7 22.3 62.82 32.81"/>
            <path d="m664.65 356.9 7.24 7.73-10.48-1.52z"/>
        </g>
        <g stroke="#000" class="edge">
            <path fill="none" d="M633.45 255.74c10.4 9.8 22.89 22.84 31.78 36.26 12.53 18.94 22.42 42.69 28.97 60.89"/>
            <path d="m697.48 351.65-.05 10.6-6.57-8.31z"/>
        </g>
        <g stroke="#000" class="edge">
            <path fill="none" d="M120.95 183.59c16.05 9.6 36.4 21.78 53.63 32.08"/>
            <path d="m176.22 212.57 6.78 8.14-10.38-2.13z"/>
        </g>
        <g stroke="#000" class="edge">
            <path fill="none" d="M1030.55 100.25c52.33 6.09 121.05 19.27 175.68 47.75 100.7 52.5 189.72 157.94 227.61 206.91"/>
            <path d="m1436.51 352.64 3.29 10.07-8.85-5.82z"/>
        </g>
        <g stroke="#000" class="edge">
            <path fill="none" d="M1027.14 102.06c43.77 6.77 98.41 20.02 141.09 45.94 69.06 41.94 81.21 68.88 111 144 7.64 19.29 11.39 42.44 13.23 60.3"/>
            <path d="m1295.94 351.92-2.62 10.27-4.35-9.66z"/>
        </g>
        <g stroke="#000" class="edge">
            <path fill="none" d="M905.54 109.42c-21.92 8.61-47.45 21.28-66.31 38.58-64.9 59.52-107.83 157.28-126.05 205.01"/>
            <path d="m716.48 354.18-6.78 8.15.22-10.59z"/>
        </g>
        <g stroke="red" stroke-width="2" class="edge">
            <path fill="none" d="M982.66 111.06c19.32 9.88 44.29 22.63 65.08 33.26"/>
            <path fill="red" d="m1047.87 140.45 7.32 7.67-10.5-1.43z"/>
        </g>
        <g class="node" transform="translate(4 400)">
            <ellipse cx="912.23" cy="-18" fill="none" stroke="#000" rx="71.31" ry="18"/>
            <text x="912.23" y="-12.95" font-family="Times,serif" font-size="14" text-anchor="middle">:app:core:model</text>
        </g>
        <g stroke="#000" class="edge">
            <path fill="none" d="M906.92 109.59c-17.8 8.29-36.49 20.66-46.69 38.41-39.87 69.36-31.63 106.52 0 180 4.85 11.27 13.41 21.27 22.4 29.46"/>
            <path d="m884.72 354.65 5.4 9.12-9.91-3.77z"/>
        </g>
        <g class="node" transform="translate(4 400)">
            <ellipse cx="1101.23" cy="-18" fill="none" stroke="#000" rx="85.13" ry="18"/>
            <text x="1101.23" y="-12.95" font-family="Times,serif" font-size="14" text-anchor="middle">:common:exception</text>
        </g>
        <g stroke="#000" class="edge">
            <path fill="none" d="M946.38 112.25c-10.81 42.56-31.86 153.64 22.85 215.75 16.12 18.3 39.34 30.34 62.05 38.23"/>
            <path d="m1032.11 362.82 8.45 6.39-10.59.27z"/>
        </g>
        <g class="node" transform="translate(4 400)">
            <ellipse cx="1063.23" cy="-90" fill="none" stroke="#000" rx="88.71" ry="18"/>
            <text x="1063.23" y="-84.95" font-family="Times,serif" font-size="14" text-anchor="middle">:app:domain:account</text>
        </g>
        <g stroke="#000" class="edge">
            <path fill="none" d="M948.61 112.25c-3.83 31.5-7.54 99.2 22.62 143.75 9.8 14.49 24.93 25.4 40.3 33.44"/>
            <path d="m1012.78 286.15 7.47 7.51-10.52-1.2z"/>
        </g>
        <g class="node" transform="translate(4 400)">
            <ellipse cx="1063.23" cy="-162" fill="none" stroke="#000" rx="86.67" ry="18"/>
            <text x="1063.23" y="-156.95" font-family="Times,serif" font-size="14" text-anchor="middle">:app:domain:backup</text>
        </g>
        <g stroke="#000" class="edge">
            <path fill="none" d="M960.47 112.34c10.36 18.65 28.27 48.73 47.76 71.66 8.6 10.12 19.09 20.14 28.83 28.7"/>
            <path d="m1039.25 209.96 5.32 9.16-9.87-3.84z"/>
        </g>
        <g stroke="#000" class="edge">
            <path fill="none" d="M1133.39 180.24c28.84 9.29 66.55 23.03 97.84 39.76 75.16 40.21 153.78 102.93 194.26 137.01"/>
            <path d="m1427.71 354.31 5.36 9.13-9.89-3.8z"/>
        </g>
        <g stroke="#000" class="edge">
            <path fill="none" d="M1132.84 180.44c22.75 8.55 49.7 21.46 69.39 39.56 41.05 37.75 68.68 98.14 82.24 133.24"/>
            <path d="m1287.62 351.68.23 10.59-6.78-8.14z"/>
        </g>
        <g stroke="#000" class="edge">
            <path fill="none" d="M1042.95 180.27c-29.45 9.39-68.28 23.23-100.72 39.73-80.19 40.78-165.64 103.7-209.4 137.54"/>
            <path d="m735.12 360.19-10.04 3.38 5.74-8.9z"/>
        </g>
        <g stroke="#000" class="edge">
            <path fill="none" d="M1040.97 179.88c-23.33 8.32-50.51 21.19-69.74 40.12-36.41 35.84-48.73 96.73-52.89 132.47"/>
            <path d="m921.86 352.46-4.49 9.59-2.47-10.3z"/>
        </g>
        <g stroke="#000" class="edge">
            <path fill="none" d="M1130.85 180.74c18.5 8.29 38.42 20.9 49.38 39.26 24.59 41.23 24.33 65.51 2 108-6.86 13.03-18.53 23.49-30.74 31.55"/>
            <path d="m1153.33 362.53-10.37 2.2 6.74-8.18z"/>
        </g>
        <g stroke="#000" class="edge">
            <path fill="none" d="M1122.57 182.03c15.39 8.7 32 21.26 40.66 37.97 7.35 14.21 8.13 22.22 0 36-8.7 14.73-23.11 25.64-38.15 33.61"/>
            <path d="m1127.03 292.55-10.52 1.22 7.47-7.52z"/>
        </g>
        <g stroke="red" stroke-width="2" class="edge">
            <path fill="none" d="M1083.03 184.3c-2.23 7.46-4.91 16.38-7.42 24.73"/>
            <path fill="red" d="m1079.45 208.42-6.22 8.58-.48-10.59z"/>
        </g>
        <g stroke="#000" class="edge">
            <path fill="none" d="M1137.23 321.37c64 9.82 161.17 25.56 245 42.63 4.61.94 9.37 1.96 14.15 3.03"/>
            <path d="m1397.05 363.59 8.97 5.64-10.53 1.18z"/>
        </g>
        <g stroke="#000" class="edge">
            <path fill="none" d="M1114.54 325.59c35.83 11.05 85.19 26.27 123.11 37.97"/>
            <path d="m1238.55 360.17 8.53 6.29-10.59.4z"/>
        </g>
        <g stroke="#000" class="edge">
            <path fill="none" d="M1004.65 323.03c-65.23 12.55-167.12 32.14-234.08 45.02"/>
            <path d="m771.28 371.48-10.48-1.55 9.16-5.33z"/>
        </g>
        <g stroke="red" stroke-width="2" class="edge">
            <path fill="none" d="M1032.96 326.88c-21.73 10.08-50.04 23.2-73.33 34"/>
            <path fill="red" d="m962.61 363.36-10.55 1.03 7.6-7.38z"/>
        </g>
        <g stroke="#000" class="edge">
            <path fill="none" d="M1076.62 328.3c4.19 7.72 9.22 16.99 13.89 25.59"/>
            <path d="m1093.52 352.11 1.7 10.46-7.85-7.12z"/>
        </g>
        <g stroke="#000" class="edge">
            <path fill="none" d="M1111.21 253.83c30.65 10.43 72.43 24.85 109.02 38.17 65.11 23.71 139.87 52.56 186.77 70.85"/>
            <path d="m1407.98 359.48 8.04 6.9-10.59-.38z"/>
        </g>
        <g stroke="#000" class="edge">
            <path fill="none" d="M1106.75 254.44c22.76 9.56 51.51 22.81 75.48 37.56 31.04 19.11 63.3 45.56 85.18 64.66"/>
            <path d="m1269.52 353.85 5.18 9.24-9.81-4z"/>
        </g>
        <g stroke="#000" class="edge">
            <path fill="none" d="M1027.58 254.47c-67.13 26.18-202.94 79.16-275.71 107.55"/>
            <path d="m753.18 365.27-10.59.37 8.04-6.89z"/>
        </g>
        <g stroke="#000" class="edge">
            <path fill="none" d="M1027.82 254.37c-19.27 8.91-41.85 21.56-58.59 37.63-18.12 17.38-32.24 42.27-41.33 61.31"/>
            <path d="m931.1 354.73-7.34 7.64.97-10.55z"/>
        </g>
        <g stroke="#000" class="edge">
            <path fill="none" d="M1115.86 253.22c18.85 8.15 38.47 20.5 49.37 38.78 8.19 13.74 6.57 21.41 0 36-5.21 11.54-14.31 21.58-23.87 29.73"/>
            <path d="m1143.76 360.29-10.03 3.44 5.7-8.94z"/>
        </g>
        <g stroke="red" stroke-width="2" class="edge">
            <path fill="none" d="M1067.23 256.3v24.16"/>
            <path fill="red" d="m1070.73 278.87-3.5 10-3.5-10z"/>
        </g>
    </g>
</svg>
