<svg xmlns="http://www.w3.org/2000/svg" width="1624pt" height="332pt" viewBox="0 0 1624.32 332">
    <g class="graph">
        <path fill="#fff" d="M0 332V0h1624.32v332z"/>
        <g class="node" transform="translate(4 328)">
            <ellipse cx="816.23" cy="-306" fill="none" stroke="#000" rx="80.52" ry="18"/>
            <text x="816.23" y="-300.95" font-family="Times,serif" font-size="14" text-anchor="middle">:app:feature:buddy</text>
        </g>
        <g class="node" transform="translate(4 328)">
            <ellipse cx="477.23" cy="-234" fill="none" stroke="#000" rx="81.04" ry="18"/>
            <text x="477.23" y="-228.95" font-family="Times,serif" font-size="14" text-anchor="middle">:app:core:compose</text>
        </g>
        <g stroke="red" stroke-width="2" class="edge">
            <path fill="none" d="M762.72 34.87c-58.81 12.15-150.17 31.01-212.76 43.94"/>
            <path fill="red" d="m552.48 81.86-10.5-1.4 9.08-5.45z"/>
        </g>
        <g class="node" transform="translate(4 328)">
            <ellipse cx="477.23" cy="-90" fill="none" stroke="#000" rx="101" ry="18"/>
            <text x="477.23" y="-84.95" font-family="Times,serif" font-size="14" text-anchor="middle">:app:core:design-system</text>
        </g>
        <g stroke="#000" class="edge">
            <path fill="none" d="M745.74 29.01C702.82 35.42 649.56 48.66 609.23 76c-49.02 33.22-40.28 62.37-78 108-7.74 9.36-16.71 19.15-24.89 27.74"/>
            <path d="m509.01 214.01-9.47 4.76 4.43-9.62z"/>
        </g>
        <g class="node" transform="translate(4 328)">
            <ellipse cx="701.23" cy="-234" fill="none" stroke="#000" rx="86.67" ry="18"/>
            <text x="701.23" y="-228.95" font-family="Times,serif" font-size="14" text-anchor="middle">:app:core:navigation</text>
        </g>
        <g stroke="#000" class="edge">
            <path fill="none" d="M793.26 39.41c-15.31 9.33-34.7 21.13-51.39 31.28"/>
            <path d="m744.07 73.45-10.36 2.21 6.72-8.19z"/>
        </g>
        <g class="node" transform="translate(4 328)">
            <ellipse cx="244.23" cy="-18" fill="none" stroke="#000" rx="59.54" ry="18"/>
            <text x="244.23" y="-12.95" font-family="Times,serif" font-size="14" text-anchor="middle">:library:color</text>
        </g>
        <g stroke="#000" class="edge">
            <path fill="none" d="M739.49 23.41C648.8 25.97 498.2 36.53 375.23 76c-63.26 20.3-93.69 17.03-131 72-26.95 39.7-15.97 98.52-5.81 132.99"/>
            <path d="m241.67 279.65-.34 10.58-6.34-8.49z"/>
        </g>
        <g class="node" transform="translate(4 328)">
            <ellipse cx="1554.23" cy="-90" fill="none" stroke="#000" rx="62.1" ry="18"/>
            <text x="1554.23" y="-84.95" font-family="Times,serif" font-size="14" text-anchor="middle">:library:kotlin</text>
        </g>
        <g stroke="#000" class="edge">
            <path fill="none" d="M898.98 26.19c165.61 8.35 542.07 36.47 632.25 121.81 16.41 15.53 22.95 40.68 25.5 60.29"/>
            <path d="m1560.2 207.85-2.49 10.29-4.47-9.6z"/>
        </g>
        <g class="node" transform="translate(4 328)">
            <ellipse cx="752.23" cy="-162" fill="none" stroke="#000" rx="79.5" ry="18"/>
            <text x="752.23" y="-156.95" font-family="Times,serif" font-size="14" text-anchor="middle">:library:navigation</text>
        </g>
        <g stroke="#000" class="edge">
            <path fill="none" d="M819.06 40.21c-1.82 18.55-6.4 48.54-17.83 71.79-4.93 10.02-12.18 19.72-19.42 28.03"/>
            <path d="m784.43 142.34-9.35 4.98 4.21-9.72z"/>
        </g>
        <g class="node" transform="translate(4 328)">
            <ellipse cx="1131.23" cy="-90" fill="none" stroke="#000" rx="78.99" ry="18"/>
            <text x="1131.23" y="-84.95" font-family="Times,serif" font-size="14" text-anchor="middle">:library:coroutines</text>
        </g>
        <g stroke="#000" class="edge">
            <path fill="none" d="M852.1 38.96c19.05 9.94 43.48 23.39 64.13 37.04 21.65 14.32 25.47 20.11 46 36 41.61 32.22 51.23 41.33 94 72 14.39 10.32 30.59 21.3 44.55 30.57"/>
            <path d="m1102.37 211.42 6.41 8.43-10.27-2.59z"/>
        </g>
        <g class="node" transform="translate(4 328)">
            <ellipse cx="752.23" cy="-18" fill="none" stroke="#000" rx="72.85" ry="18"/>
            <text x="752.23" y="-12.95" font-family="Times,serif" font-size="14" text-anchor="middle">:library:datetime</text>
        </g>
        <g stroke="#000" class="edge">
            <path fill="none" d="M828.01 40.32c12.33 29.94 33.41 93.03 17.22 143.68-12.52 39.15-42.28 76.52-63.95 100.02"/>
            <path d="m783.88 286.37-9.41 4.86 4.32-9.67z"/>
        </g>
        <g class="node" transform="translate(4 328)">
            <ellipse cx="89.23" cy="-234" fill="none" stroke="#000" rx="89.23" ry="18"/>
            <text x="89.23" y="-228.95" font-family="Times,serif" font-size="14" text-anchor="middle">:library:shimmer-m3</text>
        </g>
        <g stroke="#000" class="edge">
            <path fill="none" d="M743.17 27.58C625.13 35.05 392.58 51.5 196.23 76c-8.54 1.07-17.45 2.32-26.3 3.66"/>
            <path d="m170.69 83.08-10.42-1.93 9.34-4.99z"/>
        </g>
        <g class="node" transform="translate(4 328)">
            <ellipse cx="387.23" cy="-162" fill="none" stroke="#000" rx="115.33" ry="18"/>
            <text x="387.23" y="-156.95" font-family="Times,serif" font-size="14" text-anchor="middle">:app:core:calendar-compose</text>
        </g>
        <g stroke="#000" class="edge">
            <path fill="none" d="M742.46 27.11C625.13 34.12 414.06 50.17 391.23 76c-14.31 16.18-12.99 41.23-8.85 60.63"/>
            <path d="m385.72 135.56-.96 10.55-5.83-8.85z"/>
        </g>
        <g class="node" transform="translate(4 328)">
            <ellipse cx="1167.23" cy="-162" fill="none" stroke="#000" rx="88.71" ry="18"/>
            <text x="1167.23" y="-156.95" font-family="Times,serif" font-size="14" text-anchor="middle">:app:domain:account</text>
        </g>
        <g stroke="#000" class="edge">
            <path fill="none" d="M898.85 26.24c84.58 5.11 211.77 17.96 247.38 49.76 16.85 15.05 22.72 40.46 24.6 60.29"/>
            <path d="m1174.32 136.06-2.87 10.2-4.11-9.76z"/>
        </g>
        <g class="node" transform="translate(4 328)">
            <ellipse cx="1050.23" cy="-234" fill="none" stroke="#000" rx="83.08" ry="18"/>
            <text x="1050.23" y="-228.95" font-family="Times,serif" font-size="14" text-anchor="middle">:app:domain:buddy</text>
        </g>
        <g stroke="#000" class="edge">
            <path fill="none" d="M867.02 37c37.06 11.08 89.03 26.63 128.82 38.53"/>
            <path d="m996.69 72.13 8.57 6.22-10.58.49z"/>
        </g>
        <g class="node" transform="translate(4 328)">
            <ellipse cx="1400.23" cy="-162" fill="none" stroke="#000" rx="87.69" ry="18"/>
            <text x="1400.23" y="-156.95" font-family="Times,serif" font-size="14" text-anchor="middle">:app:domain:holiday</text>
        </g>
        <g stroke="#000" class="edge">
            <path fill="none" d="M893.88 29.54c71.47 7.43 182.58 21.83 276.35 46.46 67.47 17.72 142.31 48.21 188.77 68.48"/>
            <path d="m1360.19 141.18 7.74 7.23-10.56-.82z"/>
        </g>
        <g stroke="#000" class="edge">
            <path fill="none" d="M495.63 111.9c7.42 9.84 15.72 22.88 19.6 36.1 4.5 15.35 4.5 20.65 0 36-2.76 9.4-7.75 18.71-13.07 26.84"/>
            <path d="m505.12 212.71-8.62 6.16 2.9-10.19z"/>
        </g>
        <g stroke="#000" class="edge">
            <path fill="none" d="M411.58 103.62c-54.93 8.31-125.34 22.81-144.35 44.38-32.2 36.51-29.57 97.17-24.47 132.69"/>
            <path d="m246.16 279.77-1.86 10.43-5.05-9.31z"/>
        </g>
        <g stroke="#000" class="edge">
            <path fill="none" d="M500.91 111.7c35.3 29.79 112 93.7 179.32 144.3 13.65 10.27 29.06 21.14 42.42 30.34"/>
            <path d="m724.43 283.33 6.27 8.54-10.22-2.77z"/>
        </g>
        <g stroke="red" stroke-width="2" class="edge">
            <path fill="none" d="M459.9 111.59c-11.38 8.85-25.58 19.89-38.11 29.64"/>
            <path fill="red" d="m425.46 142.81-10.04 3.38 5.74-8.91z"/>
        </g>
        <g class="node" transform="translate(4 328)">
            <ellipse cx="963.23" cy="-90" fill="none" stroke="#000" rx="71.31" ry="18"/>
            <text x="963.23" y="-84.95" font-family="Times,serif" font-size="14" text-anchor="middle">:app:core:model</text>
        </g>
        <g stroke="#000" class="edge">
            <path fill="none" d="M549.42 104.07c101.59 13.63 282.26 38.4 295.81 43.93 37.23 15.19 73.65 44.14 96.86 64.89"/>
            <path d="m944.17 210.06 5.02 9.32-9.74-4.16z"/>
        </g>
        <g stroke="red" stroke-width="2" class="edge">
            <path fill="none" d="M431.24 254.02c-38.66 11.61-92.02 27.64-131.15 39.4"/>
            <path fill="red" d="m302.68 296.29-10.58-.47 8.57-6.23z"/>
        </g>
        <g stroke="#000" class="edge">
            <path fill="none" d="M537.54 253.33c46.11 11.74 111.21 28.31 158.38 40.32"/>
            <path d="m696.61 290.21 8.82 5.86-10.55.93z"/>
        </g>
        <g stroke="#000" class="edge">
            <path fill="none" d="M688.76 112.08c-8.19 9.7-17.24 22.55-21.53 35.92-4.9 15.23-4.88 20.76 0 36 12.51 39.15 42.27 76.52 63.94 100.02"/>
            <path d="m733.66 281.56 4.32 9.67-9.41-4.86z"/>
        </g>
        <g stroke="#000" class="edge">
            <path fill="none" d="M756.23 184.41v96.17"/>
            <path d="m759.73 280.38-3.5 10-3.5-10z"/>
        </g>
        <g stroke="#000" class="edge">
            <path fill="none" d="M102.67 112.23c16.96 30.34 54.49 94.71 93.56 143.77 7.91 9.93 17.43 20.07 26.15 28.78"/>
            <path d="m224.64 282.09 4.7 9.5-9.6-4.49z"/>
        </g>
        <g stroke="red" stroke-width="2" class="edge">
            <path fill="none" d="M413.01 183.95c11.19 8.7 25.03 19.46 37.3 29.01"/>
            <path fill="red" d="m451.19 209.21 5.75 8.9-10.04-3.38z"/>
        </g>
        <g stroke="#000" class="edge">
            <path fill="none" d="M373.98 184.13c-25.16 24.97-72.03 71.52-100.9 100.19"/>
            <path d="m275.73 286.62-9.56 4.57 4.63-9.53z"/>
        </g>
        <g stroke="#000" class="edge">
            <path fill="none" d="M379.56 184.21c-11.74 19.67-25.82 51.74-8.33 71.79 38.15 43.77 199.03 52.64 300.37 53.76"/>
            <path d="m671.55 306.25 9.97 3.59-10.03 3.41z"/>
        </g>
        <g stroke="#000" class="edge">
            <path fill="none" d="M1236 178.72c72.2 13.06 188.16 34.03 259.52 46.94"/>
            <path d="m1495.87 222.16 9.21 5.23-10.46 1.66z"/>
        </g>
        <g stroke="#000" class="edge">
            <path fill="none" d="M1162.33 184.3c-3.97 7.72-8.74 16.99-13.16 25.59"/>
            <path d="m1152.4 211.26-7.69 7.29 1.46-10.49z"/>
        </g>
        <g stroke="#000" class="edge">
            <path fill="none" d="M1192.93 183.71c22.01 18.92 50.2 50 30.3 72.29-25.1 28.1-257.02 43.24-384.3 49.49"/>
            <path d="m839.37 308.98-10.16-3.02 9.82-3.98z"/>
        </g>
        <g stroke="#000" class="edge">
            <path fill="none" d="M1127.46 182.02a446431 446431 0 0 0-108.8 37.33"/>
            <path d="m1020.16 222.53-10.59-.06 8.32-6.56z"/>
        </g>
        <g class="node" transform="translate(4 328)">
            <ellipse cx="1351.23" cy="-90" fill="none" stroke="#000" rx="85.13" ry="18"/>
            <text x="1351.23" y="-84.95" font-family="Times,serif" font-size="14" text-anchor="middle">:common:exception</text>
        </g>
        <g stroke="#000" class="edge">
            <path fill="none" d="M1211.6 182.36c27.42 10.43 63.88 24.3 93.21 35.46"/>
            <path d="m1305.74 214.43 8.1 6.83-10.59-.29z"/>
        </g>
        <g stroke="#000" class="edge">
            <path fill="none" d="M1137.01 96.48c112.19 3.4 305.27 14.6 364.22 51.52 22.43 14.05 37.68 40.54 46.72 60.97"/>
            <path d="m1551.18 207.61.58 10.58-7.05-7.9z"/>
        </g>
        <g stroke="#000" class="edge">
            <path fill="none" d="M1054.67 112.25c1.18 18.85 5.22 49.35 18.56 71.75 6.71 11.27 16.68 21.33 26.67 29.57"/>
            <path d="m1102.04 210.79 5.76 8.9-10.05-3.36z"/>
        </g>
        <g stroke="#000" class="edge">
            <path fill="none" d="M1031.24 111.6c-32.48 23.58-93.48 68.38-144.01 108.4-19.54 15.47-22.71 21.53-43 36-15.61 11.13-33.62 22.25-49.26 31.42"/>
            <path d="m796.79 290.4-10.41 1.98 6.91-8.04z"/>
        </g>
        <g stroke="#000" class="edge">
            <path fill="none" d="M1081.66 111.41c15.58 9.33 35.31 21.13 52.28 31.28"/>
            <path d="m1135.48 139.53 6.78 8.14-10.38-2.13z"/>
        </g>
        <g stroke="#000" class="edge">
            <path fill="none" d="M1043.73 112.13c-14.96 24.41-42.55 69.44-60.19 98.23"/>
            <path d="m986.76 211.82-8.21 6.7 2.24-10.36z"/>
        </g>
        <g stroke="#000" class="edge">
            <path fill="none" d="M1127.72 102.77c43.42 7.03 98.19 20.31 141.51 45.23 7.58 4.36 40.3 39.17 63.11 63.94"/>
            <path d="m1334.73 209.36 4.19 9.74-9.34-5z"/>
        </g>
        <g stroke="#000" class="edge">
            <path fill="none" d="M1439.17 182.88c22.65 10.3 52.3 23.78 76.35 34.71"/>
            <path d="m1516.75 214.3 7.66 7.33-10.56-.95z"/>
        </g>
        <g stroke="#000" class="edge">
            <path fill="none" d="M1351.4 180.75c-44.48 11.57-108.14 28.14-154.86 40.29"/>
            <path d="m1197.68 224.37-10.56-.87 8.79-5.91z"/>
        </g>
        <g stroke="#000" class="edge">
            <path fill="none" d="M1423.53 183.76c19.91 19.24 45.46 50.9 25.7 72.24-40.6 43.82-433.06 51.56-608.73 52.82"/>
            <path d="m840.78 312.32-10.02-3.44 9.98-3.56z"/>
        </g>
        <g stroke="#000" class="edge">
            <path fill="none" d="M1331.53 176.45c-72.29 9.71-186.26 25.87-284.3 43.55-5.31.96-10.81 2.01-16.32 3.1"/>
            <path d="m1031.61 226.52-10.49-1.44 9.1-5.42z"/>
        </g>
        <g stroke="#000" class="edge">
            <path fill="none" d="M1392.11 184.3c-5.57 7.97-12.32 17.6-18.5 26.44"/>
            <path d="m1376.67 212.47-8.6 6.19 2.86-10.2z"/>
        </g>
    </g>
</svg>
