<svg xmlns="http://www.w3.org/2000/svg" width="842pt" height="332pt" viewBox="0 0 842.12 332">
    <g class="graph">
        <path fill="#fff" d="M0 332V0h842.12v332z"/>
        <g class="node" transform="translate(4 328)">
            <ellipse cx="513.13" cy="-306" fill="none" stroke="#000" rx="84.11" ry="18"/>
            <text x="513.13" y="-300.95" font-family="Times,serif" font-size="14" text-anchor="middle">:app:domain:memo</text>
        </g>
        <g class="node" transform="translate(4 328)">
            <ellipse cx="259.13" cy="-18" fill="none" stroke="#000" rx="71.31" ry="18"/>
            <text x="259.13" y="-12.95" font-family="Times,serif" font-size="14" text-anchor="middle">:app:core:model</text>
        </g>
        <g stroke="#000" class="edge">
            <path fill="none" d="M442.06 30.43C370.7 42.06 267.85 71.83 223.13 148c-5.62 9.58-8.7 79.14 1 108 3.33 9.91 9.27 19.51 15.52 27.76"/>
            <path d="m242.16 281.3 3.6 9.96-9.03-5.54z"/>
        </g>
        <g class="node" transform="translate(4 328)">
            <ellipse cx="85.13" cy="-18" fill="none" stroke="#000" rx="85.13" ry="18"/>
            <text x="85.13" y="-12.95" font-family="Times,serif" font-size="14" text-anchor="middle">:common:exception</text>
        </g>
        <g stroke="#000" class="edge">
            <path fill="none" d="M435.67 26.8C380.09 32.24 306.3 45.23 248.13 76c-76.75 40.59-91.1 67.42-132 144-10.23 19.16-17.17 42.76-21.44 60.84"/>
            <path d="m98.16 281.35-5.58 9-1.25-10.52z"/>
        </g>
        <g class="node" transform="translate(4 328)">
            <ellipse cx="755.13" cy="-18" fill="none" stroke="#000" rx="78.99" ry="18"/>
            <text x="755.13" y="-12.95" font-family="Times,serif" font-size="14" text-anchor="middle">:library:coroutines</text>
        </g>
        <g stroke="#000" class="edge">
            <path fill="none" d="M587.9 31.93C619.06 39.16 654 52.27 678.13 76c57.42 56.48 74.19 155.72 79.05 204.41"/>
            <path d="m760.64 279.87-2.6 10.27-4.37-9.65z"/>
        </g>
        <g class="node" transform="translate(4 328)">
            <ellipse cx="582.13" cy="-18" fill="none" stroke="#000" rx="72.85" ry="18"/>
            <text x="582.13" y="-12.95" font-family="Times,serif" font-size="14" text-anchor="middle">:library:datetime</text>
        </g>
        <g stroke="#000" class="edge">
            <path fill="none" d="M587.04 32.4c26.48 7.34 54.07 20.4 70.09 43.6 45.43 65.78-14.96 161.47-49.65 207.03"/>
            <path d="m610.35 285.03-8.91 5.73 3.4-10.03z"/>
        </g>
        <g class="node" transform="translate(4 328)">
            <ellipse cx="423.13" cy="-18" fill="none" stroke="#000" rx="62.1" ry="18"/>
            <text x="423.13" y="-12.95" font-family="Times,serif" font-size="14" text-anchor="middle">:library:kotlin</text>
        </g>
        <g stroke="#000" class="edge">
            <path fill="none" d="M531.97 40.18c33.57 41 108.61 146.37 58.16 215.82-6.63 9.13-62.6 26.04-107.13 38.31"/>
            <path d="m483.99 297.67-10.57-.75 8.72-6.01z"/>
        </g>
        <g class="node" transform="translate(4 328)">
            <ellipse cx="488.13" cy="-90" fill="none" stroke="#000" rx="88.71" ry="18"/>
            <text x="488.13" y="-84.95" font-family="Times,serif" font-size="14" text-anchor="middle">:app:domain:account</text>
        </g>
        <g stroke="#000" class="edge">
            <path fill="none" d="M526.67 40.07c5.1 10.11 10.85 23.36 13.46 35.93 3.25 15.67 2.92 20.27 0 36-6.5 35.04-22.43 72.94-34.16 97.71"/>
            <path d="m509.25 210.96-7.51 7.47 1.21-10.52z"/>
        </g>
        <g class="node" transform="translate(4 328)">
            <ellipse cx="334.13" cy="-162" fill="none" stroke="#000" rx="86.67" ry="18"/>
            <text x="334.13" y="-156.95" font-family="Times,serif" font-size="14" text-anchor="middle">:app:domain:backup</text>
        </g>
        <g stroke="#000" class="edge">
            <path fill="none" d="M458.11 35.24c-26.42 7.94-56.42 20.69-77.98 40.76-17.48 16.27-28.39 41.31-34.7 60.69"/>
            <path d="m348.81 137.59-6.22 8.57-.48-10.58z"/>
        </g>
        <g class="node" transform="translate(4 328)">
            <ellipse cx="456.13" cy="-234" fill="none" stroke="#000" rx="71.31" ry="18"/>
            <text x="456.13" y="-228.95" font-family="Times,serif" font-size="14" text-anchor="middle">:app:domain:tag</text>
        </g>
        <g stroke="red" stroke-width="2" class="edge">
            <path fill="none" d="M503.33 39.95c-6.72 8.25-14.94 18.35-22.4 27.51"/>
            <path fill="red" d="m484.74 68.32-9.03 5.54 3.6-9.96z"/>
        </g>
        <g stroke="red" stroke-width="2" class="edge">
            <path fill="none" d="M444.4 253.59c-36.9 11.28-88.03 26.91-126.58 38.69"/>
            <path fill="red" d="m320.78 295.04-10.58-.43 8.54-6.27z"/>
        </g>
        <g stroke="#000" class="edge">
            <path fill="none" d="M425.5 250.25c-62.61 10.61-158.88 27.04-242.37 41.75-6.43 1.13-13.11 2.32-19.81 3.52"/>
            <path d="m164.02 298.95-10.46-1.68 9.22-5.21z"/>
        </g>
        <g stroke="#000" class="edge">
            <path fill="none" d="M544.88 252.83c43.95 11.52 106.59 27.94 152.8 40.06"/>
            <path d="m698.5 289.49 8.79 5.92-10.56.85z"/>
        </g>
        <g stroke="#000" class="edge">
            <path fill="none" d="M514.41 255.59c12.06 8.98 27.15 20.22 40.37 30.07"/>
            <path d="m556.87 282.85 5.93 8.78-10.11-3.17z"/>
        </g>
        <g stroke="#000" class="edge">
            <path fill="none" d="M476.4 255.95c-7.83 8.42-17.44 18.77-26.09 28.08"/>
            <path d="m453.12 286.16-9.37 4.94 4.24-9.71z"/>
        </g>
        <g stroke="#000" class="edge">
            <path fill="none" d="M316.45 183.77c-10.91 9.51-23.45 22.29-31.32 36.23-10.47 18.56-16.01 42.05-18.91 60.24"/>
            <path d="m269.7 280.67-4.85 9.42-2.09-10.39z"/>
        </g>
        <g stroke="#000" class="edge">
            <path fill="none" d="M309.57 183.29c-44.82 25.56-131.72 75.11-181.98 103.78"/>
            <path d="m129.48 290.02-10.42 1.91 6.95-7.99z"/>
        </g>
        <g stroke="#000" class="edge">
            <path fill="none" d="M409.37 176.58c51.29 8.18 121.56 22.08 180.76 43.42 48.48 17.48 100.39 46.54 133.69 66.68"/>
            <path d="m725.54 283.62 6.7 8.21-10.35-2.24z"/>
        </g>
        <g stroke="#000" class="edge">
            <path fill="none" d="M344.41 184.12c8.29 20.19 24.81 53.36 49.72 71.88 19.91 14.8 77.83 29.66 124.89 39.86"/>
            <path d="m519.57 292.4 9.05 5.51-10.51 1.34z"/>
        </g>
        <g stroke="#000" class="edge">
            <path fill="none" d="M328.67 184.39c-8.91 18.96-19.05 49.57-5.54 71.61 10.67 17.41 29.06 29.33 47.43 37.38"/>
            <path d="m371.64 290.04 7.97 6.97-10.58-.47z"/>
        </g>
        <g stroke="red" stroke-width="2" class="edge">
            <path fill="none" d="M373.08 182.88c21.77 9.9 50.03 22.75 73.55 33.44"/>
            <path fill="red" d="m446.65 212.48 7.65 7.33-10.55-.96z"/>
        </g>
        <g stroke="#000" class="edge">
            <path fill="none" d="M395.47 101.94c-57.23 7.63-134.5 22.1-153.34 46.06-30.31 38.56-9.71 99.08 6.59 133.9"/>
            <path d="m251.66 279.94 1.25 10.52-7.54-7.44z"/>
        </g>
        <g stroke="#000" class="edge">
            <path fill="none" d="M390.86 98.66c-49.78 5.33-116.82 18.24-167.73 49.34-54.8 33.47-97.75 97.36-119.13 133.79"/>
            <path d="m107.07 283.47-8.01 6.93 1.94-10.41z"/>
        </g>
        <g stroke="#000" class="edge">
            <path fill="none" d="M494.78 110.08c21.01 9.72 47.98 23.26 70.35 37.92 64.73 42.42 132.6 103.05 168.38 136.5"/>
            <path d="m735.5 281.56 4.88 9.4-9.68-4.3z"/>
        </g>
        <g stroke="#000" class="edge">
            <path fill="none" d="M486.95 111.08c31.55 20.66 82.27 59.8 103.18 108.92 8.11 19.05 6.65 42.52 3.4 60.58"/>
            <path d="m596.96 281.28-5.49 9.06-1.36-10.51z"/>
        </g>
        <g stroke="#000" class="edge">
            <path fill="none" d="M457.97 112.22c-2.99 18.82-9.71 49.29-23.84 71.78-12.73 20.25-30.27 14.15-40 36-9.22 20.7.99 44.85 12.42 62.76"/>
            <path d="m409.27 280.54 2.78 10.22-8.55-6.25z"/>
        </g>
        <g stroke="#000" class="edge">
            <path fill="none" d="M464.05 112.41c5.43 24.09 15.29 67.84 21.76 96.56"/>
            <path d="m489.16 207.89-1.22 10.52-5.61-8.98z"/>
        </g>
        <g stroke="red" stroke-width="2" class="edge">
            <path fill="none" d="M432.45 110.88c-16.54 9.49-37.78 21.68-55.91 32.08"/>
            <path fill="red" d="m379.59 145.25-10.41 1.94 6.93-8.02z"/>
        </g>
    </g>
</svg>
