<svg xmlns="http://www.w3.org/2000/svg" width="824" height="116pt" viewBox="0 0 618.17 116">
    <g class="graph">
        <path fill="#fff" d="M0 116V0h618.17v116z"/>
        <g class="node" transform="translate(4 112)">
            <ellipse cx="325.32" cy="-90" fill="none" stroke="#000" rx="157.3" ry="18"/>
            <text x="325.32" y="-84.95" font-family="Times,serif" font-size="14" text-anchor="middle">:app:core:holiday-preferences-datastore</text>
        </g>
        <g class="node" transform="translate(4 112)">
            <ellipse cx="93.32" cy="-18" fill="none" stroke="#000" rx="93.32" ry="18"/>
            <text x="93.32" y="-12.95" font-family="Times,serif" font-size="14" text-anchor="middle">:library:koin-datastore</text>
        </g>
        <g stroke="red" stroke-width="2" class="edge">
            <path fill="none" d="M275.22 39.32C239.79 50.01 193.46 63.99 156.96 75"/>
            <path fill="red" d="m159.46 77.91-10.59-.46 8.57-6.24z"/>
        </g>
        <g class="node" transform="translate(4 112)">
            <ellipse cx="325.32" cy="-18" fill="none" stroke="#000" rx="120.96" ry="18"/>
            <text x="325.32" y="-12.95" font-family="Times,serif" font-size="14" text-anchor="middle">:app:core:holiday-preferences</text>
        </g>
        <g stroke="#000" class="edge">
            <path fill="none" d="M329.32 40.3v24.16"/>
            <path d="m332.82 64.38-3.5 10-3.5-10z"/>
        </g>
        <g class="node" transform="translate(4 112)">
            <ellipse cx="537.32" cy="-18" fill="none" stroke="#000" rx="72.85" ry="18"/>
            <text x="537.32" y="-12.95" font-family="Times,serif" font-size="14" text-anchor="middle">:library:datetime</text>
        </g>
        <g stroke="#000" class="edge">
            <path fill="none" d="M379.29 39.5c32.67 10.79 75.29 24.86 108.63 35.87"/>
            <path d="m489 72.04 8.4 6.46-10.6.19z"/>
        </g>
    </g>
</svg>
