<svg xmlns="http://www.w3.org/2000/svg" width="737pt" height="260pt" viewBox="0 0 736.98 260">
    <g class="graph">
        <path fill="#fff" d="M0 260V0h736.98v260z"/>
        <g class="node" transform="translate(4 256)">
            <ellipse cx="480.13" cy="-234" fill="none" stroke="#000" rx="89.74" ry="18"/>
            <text x="480.13" y="-228.95" font-family="Times,serif" font-size="14" text-anchor="middle">:server:feature:buddy</text>
        </g>
        <g class="node" transform="translate(4 256)">
            <ellipse cx="485.13" cy="-18" fill="none" stroke="#000" rx="80.52" ry="18"/>
            <text x="485.13" y="-12.95" font-family="Times,serif" font-size="14" text-anchor="middle">:server:core:model</text>
        </g>
        <g stroke="#000" class="edge">
            <path fill="none" d="M493.38 40.04c14.82 29.52 40.83 91.99 26.75 143.96-2.47 9.12-6.94 18.27-11.74 26.34"/>
            <path d="m511.43 212.09-8.34 6.54 2.44-10.31z"/>
        </g>
        <g class="node" transform="translate(4 256)">
            <ellipse cx="656.13" cy="-162" fill="none" stroke="#000" rx="72.85" ry="18"/>
            <text x="656.13" y="-156.95" font-family="Times,serif" font-size="14" text-anchor="middle">:common:model</text>
        </g>
        <g stroke="#000" class="edge">
            <path fill="none" d="M523.19 38.54C549.5 49 584.37 62.87 612.34 73.99"/>
            <path d="m613.28 70.6 8 6.95-10.58-.44z"/>
        </g>
        <g class="node" transform="translate(4 256)">
            <ellipse cx="85.13" cy="-18" fill="none" stroke="#000" rx="85.13" ry="18"/>
            <text x="85.13" y="-12.95" font-family="Times,serif" font-size="14" text-anchor="middle">:common:exception</text>
        </g>
        <g stroke="#000" class="edge">
            <path fill="none" d="M412.16 32.97C300.61 50.1 94.47 89.09 53.13 148c-13.59 19.38-1.03 44.64 12.86 63.3"/>
            <path d="m68.59 208.94 3.49 10.01-8.97-5.65z"/>
        </g>
        <g class="node" transform="translate(4 256)">
            <ellipse cx="349.13" cy="-162" fill="none" stroke="#000" rx="92.3" ry="18"/>
            <text x="349.13" y="-156.95" font-family="Times,serif" font-size="14" text-anchor="middle">:server:domain:buddy</text>
        </g>
        <g stroke="red" stroke-width="2" class="edge">
            <path fill="none" d="M453.75 39.24c-17.81 9.51-40.54 21.66-59.89 32"/>
            <path fill="red" d="m396.94 73.56-10.47 1.62 7.17-7.8z"/>
        </g>
        <g stroke="#000" class="edge">
            <path fill="none" d="M430.54 104.09c27.18 7.33 55.05 20.47 71.59 43.91 12.51 17.73 7.61 42.43.51 61.31"/>
            <path d="m505.87 210.66-7.08 7.88.63-10.58z"/>
        </g>
        <g stroke="#000" class="edge">
            <path fill="none" d="M264.03 99.17c-75.28 5.6-174.75 18.66-199.9 48.83-14.63 17.56-5.25 43.12 5.96 62.35"/>
            <path d="m73.01 208.42 2.36 10.32-8.29-6.59z"/>
        </g>
        <g class="node" transform="translate(4 256)">
            <ellipse cx="293.13" cy="-18" fill="none" stroke="#000" rx="62.1" ry="18"/>
            <text x="293.13" y="-12.95" font-family="Times,serif" font-size="14" text-anchor="middle">:library:kotlin</text>
        </g>
        <g stroke="#000" class="edge">
            <path fill="none" d="M338.56 112.09c-7.74 9.9-16.79 22.94-22.43 35.91-8.38 19.28-13.18 42.57-15.86 60.48"/>
            <path d="m303.77 208.7-4.8 9.45-2.14-10.38z"/>
        </g>
        <g class="node" transform="translate(4 256)">
            <ellipse cx="405.13" cy="-90" fill="none" stroke="#000" rx="84.11" ry="18"/>
            <text x="405.13" y="-84.95" font-family="Times,serif" font-size="14" text-anchor="middle">:server:domain:fcm</text>
        </g>
        <g stroke="red" stroke-width="2" class="edge">
            <path fill="none" d="M366.69 111.95c6.6 8.25 14.68 18.35 22.01 27.51"/>
            <path fill="red" d="m390.29 135.85 3.52 10-8.98-5.63z"/>
        </g>
        <g class="node" transform="translate(4 256)">
            <ellipse cx="167.13" cy="-90" fill="none" stroke="#000" rx="97.93" ry="18"/>
            <text x="167.13" y="-84.95" font-family="Times,serif" font-size="14" text-anchor="middle">:server:domain:account</text>
        </g>
        <g stroke="#000" class="edge">
            <path fill="none" d="M312.74 110.54c-26.56 10.21-61.55 23.67-90.1 34.65"/>
            <path d="m224.04 148.4-10.59.32 8.08-6.85z"/>
        </g>
        <g stroke="red" stroke-width="2" class="edge">
            <path fill="none" d="m428.5 183.95 33.07 28.94"/>
            <path fill="red" d="m462.44 209 5.23 9.22-9.84-3.95z"/>
        </g>
        <g stroke="#000" class="edge">
            <path fill="none" d="M351.92 179.51c-54.27 11.88-135.9 29.73-193.76 42.39"/>
            <path d="m158.92 225.32-10.52-1.29 9.02-5.55z"/>
        </g>
        <g stroke="#000" class="edge">
            <path fill="none" d="M382.87 183.41c-15.24 9.53-34.62 21.64-51.1 31.94"/>
            <path d="m334.07 218.04-10.33 2.33 6.62-8.27z"/>
        </g>
        <g stroke="#000" class="edge">
            <path fill="none" d="M232.07 180.41c54.44 11.99 134.05 29.51 190.22 41.88"/>
            <path d="m422.7 218.79 9.02 5.57-10.52 1.27z"/>
        </g>
        <g stroke="#000" class="edge">
            <path fill="none" d="M151.28 183.95c-10.17 8.68-22.74 19.41-33.9 28.94"/>
            <path d="m119.83 215.4-9.88 3.83 5.33-9.16z"/>
        </g>
        <g stroke="#000" class="edge">
            <path fill="none" d="M200.99 183.59c17.44 9.69 39.61 22.01 58.27 32.37"/>
            <path d="m260.85 212.84 7.04 7.91-10.44-1.79z"/>
        </g>
    </g>
</svg>
