<svg xmlns="http://www.w3.org/2000/svg" width="6616pt" height="548pt" viewBox="0 0 6615.79 548">
    <g class="graph">
        <path fill="#fff" d="M0 548V0h6615.79v548z"/>
        <g class="node" transform="translate(4 544)">
            <ellipse cx="2122.58" cy="-522" fill="none" stroke="#000" rx="92.3" ry="18"/>
            <text x="2122.58" y="-516.95" font-family="Times,serif" font-size="14" text-anchor="middle">:app:platform:android</text>
        </g>
        <g class="node" transform="translate(4 544)">
            <ellipse cx="3420.58" cy="-450" fill="none" stroke="#000" rx="97.41" ry="18"/>
            <text x="3420.58" y="-444.95" font-family="Times,serif" font-size="14" text-anchor="middle">:app:platform:common</text>
        </g>
        <g stroke="red" stroke-width="2" class="edge">
            <path fill="none" d="M2214.52 27.74c231.73 12.5 858.26 46.29 1106.62 59.68"/>
            <path fill="red" d="m3319.5 83.83 9.8 4.03-10.18 2.96z"/>
        </g>
        <g class="node" transform="translate(4 544)">
            <ellipse cx="1109.58" cy="-162" fill="none" stroke="#000" rx="95.88" ry="18"/>
            <text x="1109.58" y="-156.95" font-family="Times,serif" font-size="14" text-anchor="middle">:app:core:diary-service</text>
        </g>
        <g stroke="#000" class="edge">
            <path fill="none" d="M2037.04 26.62c-247.77 10.93-928.6 47.49-994.46 121.38-53.57 60.1 11.81 159.67 48.84 206.77"/>
            <path d="m1094.13 352.56 3.54 9.99-8.99-5.6z"/>
        </g>
        <g class="node" transform="translate(4 544)">
            <ellipse cx="104.58" cy="-90" fill="none" stroke="#000" rx="104.58" ry="18"/>
            <text x="104.58" y="-84.95" font-family="Times,serif" font-size="14" text-anchor="middle">:app:core:holiday-service</text>
        </g>
        <g stroke="#000" class="edge">
            <path fill="none" d="M2034.96 24.58C1640.71 31.99 108.58 67.07 108.58 165v259.31"/>
            <path d="m112.08 424-3.5 10-3.5-10z"/>
        </g>
        <g class="node" transform="translate(4 544)">
            <ellipse cx="4249.58" cy="-162" fill="none" stroke="#000" rx="74.89" ry="18"/>
            <text x="4249.58" y="-156.95" font-family="Times,serif" font-size="14" text-anchor="middle">:app:domain:fcm</text>
        </g>
        <g stroke="#000" class="edge">
            <path fill="none" d="M2218.86 23.34c553.05 2.39 3417.16 19.8 3792.72 124.66 62.87 17.55 95.05 15.66 128 72 164.4 281.09 1247.03-44.36-556 108-468.32 39.58-1031.98 49.72-1243.89 52.22"/>
            <path d="m4339.9 383.72-10.04-3.39 9.96-3.61z"/>
        </g>
        <g stroke="#000" class="edge">
            <path fill="none" d="M3326.98 95.23c-367.5 1.21-1655.98 8.58-1834.4 52.77-70.23 17.39-87.19 29.86-146 72-36.79 26.36-40.7 39.31-72 72-15.01 15.68-15.22 23.55-33 36-20.49 14.34-45.45 25.78-67.87 34.3"/>
            <path d="m1174.95 365.57-10.6.16 8.19-6.73z"/>
        </g>
        <g stroke="#000" class="edge">
            <path fill="none" d="M3326.98 94.71c-405.56-.84-1959.27-.41-2446.4 53.29-322.21 35.52-470.15-68.43-715 144-10.36 8.99-35.51 89.04-48.66 132.77"/>
            <path d="m120.35 425.52-6.22 8.58-.49-10.59z"/>
        </g>
        <g stroke="#000" class="edge">
            <path fill="none" d="M3516.34 100.38c63.88 6.16 150.04 19.36 221.24 47.62 80.43 31.93 84.6 69.3 162 108 99.11 49.57 222.72 88.43 294.57 108.94"/>
            <path d="m4194.67 361.45 8.67 6.1-10.58.64z"/>
        </g>
        <g class="node" transform="translate(4 544)">
            <ellipse cx="5373.58" cy="-306" fill="none" stroke="#000" rx="81.04" ry="18"/>
            <text x="5373.58" y="-300.95" font-family="Times,serif" font-size="14" text-anchor="middle">:app:core:compose</text>
        </g>
        <g stroke="#000" class="edge">
            <path fill="none" d="M3522.33 94.92c352.53.13 1546.39 4.2 1710.25 53.08 44.5 13.28 89.03 43.82 116.77 65.41"/>
            <path d="m5351.25 210.44 5.66 8.96-10.01-3.47z"/>
        </g>
        <g class="node" transform="translate(4 544)">
            <ellipse cx="5469.58" cy="-234" fill="none" stroke="#000" rx="101" ry="18"/>
            <text x="5469.58" y="-228.95" font-family="Times,serif" font-size="14" text-anchor="middle">:app:core:design-system</text>
        </g>
        <g stroke="#000" class="edge">
            <path fill="none" d="M3522.15 94.64c424.26-1.22 2091.74-2.43 2187.43 53.36 44.63 26.02 75.95 68.2 43 108-22 26.58-103.34 39.93-172.56 46.58"/>
            <path d="m5580.37 306.07-10.27-2.57 9.63-4.4z"/>
        </g>
        <g class="node" transform="translate(4 544)">
            <ellipse cx="5035.58" cy="-306" fill="none" stroke="#000" rx="86.67" ry="18"/>
            <text x="5035.58" y="-300.95" font-family="Times,serif" font-size="14" text-anchor="middle">:app:core:navigation</text>
        </g>
        <g stroke="#000" class="edge">
            <path fill="none" d="M3522.27 94.36c274.45-1.1 1048.51.71 1296.31 53.64 65.77 14.05 137.14 46.15 180.47 67.71"/>
            <path d="m5000.47 212.51 7.36 7.62-10.51-1.37z"/>
        </g>
        <g class="node" transform="translate(4 544)">
            <ellipse cx="5598.58" cy="-162" fill="none" stroke="#000" rx="59.54" ry="18"/>
            <text x="5598.58" y="-156.95" font-family="Times,serif" font-size="14" text-anchor="middle">:library:color</text>
        </g>
        <g stroke="#000" class="edge">
            <path fill="none" d="M3521.89 95.82c456.26 3.97 2366.73 22.36 2489.69 52.18 70.7 17.15 108.5 10.27 147 72 46.06 73.85-95.3 104.36-105 108-68.19 25.59-272.88 41.85-381.52 48.92"/>
            <path d="m5672.3 380.41-10.21-2.85 9.76-4.14z"/>
        </g>
        <g class="node" transform="translate(4 544)">
            <ellipse cx="4922.58" cy="-18" fill="none" stroke="#000" rx="62.1" ry="18"/>
            <text x="4922.58" y="-12.95" font-family="Times,serif" font-size="14" text-anchor="middle">:library:kotlin</text>
        </g>
        <g stroke="#000" class="edge">
            <path fill="none" d="M3522.33 94.58c417.17-1.41 2050.42-3.15 2561.25 53.42 197.46 21.87 417-37.67 417 161v74c0 56.89-39.65 66.73-92 89-130.05 55.33-1127.33 54.74-1408.45 53.45"/>
            <path d="m5000.35 528.95-9.98-3.55 10.02-3.45z"/>
        </g>
        <g class="node" transform="translate(4 544)">
            <ellipse cx="4851.58" cy="-306" fill="none" stroke="#000" rx="79.5" ry="18"/>
            <text x="4851.58" y="-300.95" font-family="Times,serif" font-size="14" text-anchor="middle">:library:navigation</text>
        </g>
        <g stroke="#000" class="edge">
            <path fill="none" d="M3521.52 96.57c301.64 5.18 1206.88 23.02 1263.06 51.43 26.1 13.2 45.75 40.88 57.69 61.89"/>
            <path d="m4845.26 208.07 1.67 10.46-7.83-7.13z"/>
        </g>
        <g class="node" transform="translate(4 544)">
            <ellipse cx="3159.58" cy="-18" fill="none" stroke="#000" rx="78.99" ry="18"/>
            <text x="3159.58" y="-12.95" font-family="Times,serif" font-size="14" text-anchor="middle">:library:coroutines</text>
        </g>
        <g stroke="#000" class="edge">
            <path fill="none" d="M3327 95.44c-415.75 2.11-2022.71 12.81-2122.42 52.56-16.62 6.63-231.74 199.64-239 216-6.49 14.62-4.18 20.55 0 36 9.67 35.76 10.04 53.27 42 72 98.85 57.93 1947.98 24.77 2062 36 8.38.83 17.13 1.99 25.77 3.33"/>
            <path d="m3095.82 507.86 9.31 5.07-10.44 1.84z"/>
        </g>
        <g class="node" transform="translate(4 544)">
            <ellipse cx="4083.58" cy="-18" fill="none" stroke="#000" rx="72.85" ry="18"/>
            <text x="4083.58" y="-12.95" font-family="Times,serif" font-size="14" text-anchor="middle">:library:datetime</text>
        </g>
        <g stroke="#000" class="edge">
            <path fill="none" d="M3514.9 100.96c107.18 7.76 291.1 23.2 447.68 47.04 19.09 2.91 663.89 133.35 680 144 32.71 21.62 39.11 34.63 51 72 20.21 63.5-41.53 84.81-104 108-74.89 27.79-297.71 42.88-419.78 49.26"/>
            <path d="m4170.35 524.74-10.16-2.98 9.8-4.01z"/>
        </g>
        <g class="node" transform="translate(4 544)">
            <ellipse cx="5561.58" cy="-306" fill="none" stroke="#000" rx="89.23" ry="18"/>
            <text x="5561.58" y="-300.95" font-family="Times,serif" font-size="14" text-anchor="middle">:library:shimmer-m3</text>
        </g>
        <g stroke="#000" class="edge">
            <path fill="none" d="M3521.67 96.19c357.4 4.62 1588.05 22.48 1761.91 51.81 84.24 14.21 178.12 47.55 233.51 69.15"/>
            <path d="m5518.21 213.83 8.02 6.92-10.58-.41z"/>
        </g>
        <g class="node" transform="translate(4 544)">
            <ellipse cx="2648.58" cy="-306" fill="none" stroke="#000" rx="71.31" ry="18"/>
            <text x="2648.58" y="-300.95" font-family="Times,serif" font-size="14" text-anchor="middle">:app:data:memo</text>
        </g>
        <g stroke="#000" class="edge">
            <path fill="none" d="M3330.63 99.11c-143.09 6.98-408.66 22.97-500.05 48.89-52.79 14.97-108.59 45.62-143.35 66.73"/>
            <path d="m2689.22 217.62-10.35 2.27 6.67-8.23z"/>
        </g>
        <g class="node" transform="translate(4 544)">
            <ellipse cx="3240.58" cy="-306" fill="none" stroke="#000" rx="58.52" ry="18"/>
            <text x="3240.58" y="-300.95" font-family="Times,serif" font-size="14" text-anchor="middle">:app:data:tag</text>
        </g>
        <g stroke="#000" class="edge">
            <path fill="none" d="M3403.22 111.85c-32.19 25.39-93.23 73.55-129.49 102.16"/>
            <path d="m3276.28 216.45-10.02 3.44 5.69-8.94z"/>
        </g>
        <g class="node" transform="translate(4 544)">
            <ellipse cx="2468.58" cy="-162" fill="none" stroke="#000" rx="75.92" ry="18"/>
            <text x="2468.58" y="-156.95" font-family="Times,serif" font-size="14" text-anchor="middle">:app:data:account</text>
        </g>
        <g stroke="#000" class="edge">
            <path fill="none" d="M3329.73 98.52c-160.81 6.61-480.14 22.67-589.15 49.48-78.89 19.4-106.39 19.05-168 72-43.46 37.35-74.07 98.39-89.2 133.61"/>
            <path d="m2486.68 354.79-7.08 7.88.62-10.58z"/>
        </g>
        <g class="node" transform="translate(4 544)">
            <ellipse cx="1624.58" cy="-378" fill="none" stroke="#000" rx="83.6" ry="18"/>
            <text x="1624.58" y="-372.95" font-family="Times,serif" font-size="14" text-anchor="middle">:app:data:credential</text>
        </g>
        <g stroke="red" stroke-width="2" class="edge">
            <path fill="none" d="M3329.09 97.85c-235.01 7.14-860.19 26.91-1381.51 50.15-76.83 3.43-164.03 8.13-227.82 11.72"/>
            <path fill="red" d="m1721.73 163.11-10.18-2.93 9.79-4.06z"/>
        </g>
        <g class="node" transform="translate(4 544)">
            <ellipse cx="1746.58" cy="-162" fill="none" stroke="#000" rx="74.89" ry="18"/>
            <text x="1746.58" y="-156.95" font-family="Times,serif" font-size="14" text-anchor="middle">:app:data:holiday</text>
        </g>
        <g stroke="#000" class="edge">
            <path fill="none" d="M3328.31 97.3c-207.03 5.44-688.89 20.96-849.73 50.7-265.15 49.03-568.03 167.02-681.7 213.61"/>
            <path d="m1798.46 364.74-10.58.57 7.91-7.04z"/>
        </g>
        <g class="node" transform="translate(4 544)">
            <ellipse cx="1154.58" cy="-234" fill="none" stroke="#000" rx="73.87" ry="18"/>
            <text x="1154.58" y="-228.95" font-family="Times,serif" font-size="14" text-anchor="middle">:app:data:backup</text>
        </g>
        <g stroke="#000" class="edge">
            <path fill="none" d="M3327.07 94.67C2915.36 93.63 1336.4 93.24 1246.58 148c-48.19 29.38-71.83 95.21-81.81 132.96"/>
            <path d="m1168.27 281.38-5.81 8.86-.98-10.55z"/>
        </g>
        <g class="node" transform="translate(4 544)">
            <ellipse cx="2998.58" cy="-306" fill="none" stroke="#000" rx="65.68" ry="18"/>
            <text x="2998.58" y="-300.95" font-family="Times,serif" font-size="14" text-anchor="middle">:app:data:fetch</text>
        </g>
        <g stroke="#000" class="edge">
            <path fill="none" d="M3336.22 101.93c-86.42 7.97-211.04 23.01-253.64 46.07-27.01 14.62-49.5 42.03-63.68 62.58"/>
            <path d="m3021.9 212.38-8.45 6.4 2.62-10.27z"/>
        </g>
        <g class="node" transform="translate(4 544)">
            <ellipse cx="2814.58" cy="-234" fill="none" stroke="#000" rx="62.1" ry="18"/>
            <text x="2814.58" y="-228.95" font-family="Times,serif" font-size="14" text-anchor="middle">:app:data:fcm</text>
        </g>
        <g stroke="#000" class="edge">
            <path fill="none" d="M3330.93 99.38c-142.65 7.42-401.58 24.07-436.35 48.62-44.32 31.29-63.59 95.35-71.33 132.54"/>
            <path d="m2826.74 280.95-5.33 9.16-1.55-10.48z"/>
        </g>
        <g class="node" transform="translate(4 544)">
            <ellipse cx="3608.58" cy="-234" fill="none" stroke="#000" rx="84.11" ry="18"/>
            <text x="3608.58" y="-228.95" font-family="Times,serif" font-size="14" text-anchor="middle">:app:domain:memo</text>
        </g>
        <g stroke="#000" class="edge">
            <path fill="none" d="M3424.72 112.43c.93 19.02 4.74 49.65 18.86 71.57 30.47 47.32 85.56 82.99 124.55 103.87"/>
            <path d="m3569.58 284.68 7.25 7.74-10.49-1.53z"/>
        </g>
        <g class="node" transform="translate(4 544)">
            <ellipse cx="3857.58" cy="-234" fill="none" stroke="#000" rx="71.31" ry="18"/>
            <text x="3857.58" y="-228.95" font-family="Times,serif" font-size="14" text-anchor="middle">:app:domain:tag</text>
        </g>
        <g stroke="#000" class="edge">
            <path fill="none" d="M3521.27 96.74c56.89 4.9 128.23 18.04 183.31 51.26 52.54 31.69 41.94 65.3 86 108 11.16 10.81 24.56 21.34 36.7 30.13"/>
            <path d="m3829.3 283.27 6.15 8.63-10.19-2.91z"/>
        </g>
        <g class="node" transform="translate(4 544)">
            <ellipse cx="4083.58" cy="-90" fill="none" stroke="#000" rx="88.71" ry="18"/>
            <text x="4083.58" y="-84.95" font-family="Times,serif" font-size="14" text-anchor="middle">:app:domain:account</text>
        </g>
        <g stroke="#000" class="edge">
            <path fill="none" d="M3514.32 101.38c44.01 6.61 96.05 19.93 136.26 46.62 82.43 54.72 55.23 116.37 131 180 27.85 23.39 113.34 58.22 147 72 32.26 13.21 69.14 25.66 99.26 35.17"/>
            <path d="m4028.66 431.76 8.5 6.33-10.59.35z"/>
        </g>
        <g class="node" transform="translate(4 544)">
            <ellipse cx="4201.58" cy="-306" fill="none" stroke="#000" rx="96.39" ry="18"/>
            <text x="4201.58" y="-300.95" font-family="Times,serif" font-size="14" text-anchor="middle">:app:domain:credential</text>
        </g>
        <g stroke="#000" class="edge">
            <path fill="none" d="M3513.74 101.6c91.41 7.67 237.39 22.44 361.84 46.4 96.53 18.59 206.32 50.39 271.79 70.52"/>
            <path d="m4148.31 215.14 8.52 6.3-10.59.39z"/>
        </g>
        <g class="node" transform="translate(4 544)">
            <ellipse cx="3432.58" cy="-90" fill="none" stroke="#000" rx="87.69" ry="18"/>
            <text x="3432.58" y="-84.95" font-family="Times,serif" font-size="14" text-anchor="middle">:app:domain:holiday</text>
        </g>
        <g stroke="#000" class="edge">
            <path fill="none" d="M3359.06 107.71c-86.34 20.21-222.83 66.02-182.48 148.29 43.49 88.68 148.4 147.97 210.86 176.75"/>
            <path d="m3388.78 429.51 7.67 7.3-10.55-.92z"/>
        </g>
        <g class="node" transform="translate(4 544)">
            <ellipse cx="3537.58" cy="-162" fill="none" stroke="#000" rx="86.67" ry="18"/>
            <text x="3537.58" y="-156.95" font-family="Times,serif" font-size="14" text-anchor="middle">:app:domain:backup</text>
        </g>
        <g stroke="#000" class="edge">
            <path fill="none" d="M3422.17 112.43c-1.92 18.22-3.31 47.46 3.41 71.57 18.77 67.39 66.68 135.36 94.71 171.18"/>
            <path d="m3522.86 352.79 3.49 10.01-8.97-5.65z"/>
        </g>
        <g class="node" transform="translate(4 544)">
            <ellipse cx="3384.58" cy="-234" fill="none" stroke="#000" rx="78.48" ry="18"/>
            <text x="3384.58" y="-228.95" font-family="Times,serif" font-size="14" text-anchor="middle">:app:domain:fetch</text>
        </g>
        <g stroke="#000" class="edge">
            <path fill="none" d="M3513.81 101.59c70.21 9.14 151.33 30.87 119.77 82.41-38.01 62.07-117.62 94.54-175.81 110.65"/>
            <path d="m3458.83 297.99-10.56-.81 8.76-5.95z"/>
        </g>
        <g class="node" transform="translate(4 544)">
            <ellipse cx="3995.58" cy="-306" fill="none" stroke="#000" rx="91.27" ry="18"/>
            <text x="3995.58" y="-300.95" font-family="Times,serif" font-size="14" text-anchor="middle">:app:domain:calendar</text>
        </g>
        <g stroke="#000" class="edge">
            <path fill="none" d="M3518.33 99.1c80.99 5.53 200.38 18.51 300.25 48.9 52.6 16 108.76 45.85 144.33 66.54"/>
            <path d="m3964.67 211.52 6.84 8.09-10.39-2.06z"/>
        </g>
        <g class="node" transform="translate(4 544)">
            <ellipse cx="3534.58" cy="-378" fill="none" stroke="#000" rx="86.15" ry="18"/>
            <text x="3534.58" y="-372.95" font-family="Times,serif" font-size="14" text-anchor="middle">:app:core:coroutines</text>
        </g>
        <g stroke="#000" class="edge">
            <path fill="none" d="M3451.6 111.59c15.04 9.24 33.99 20.87 50.36 30.92"/>
            <path d="m3503.78 139.52 6.69 8.22-10.36-2.25z"/>
        </g>
        <g class="node" transform="translate(4 544)">
            <ellipse cx="302.58" cy="-234" fill="none" stroke="#000" rx="132.22" ry="18"/>
            <text x="302.58" y="-228.95" font-family="Times,serif" font-size="14" text-anchor="middle">:app:core:backup-database-room</text>
        </g>
        <g stroke="#000" class="edge">
            <path fill="none" d="M3326.85 94.83c-428.73-.46-2132.04 1.05-2365.27 53.17-38.45 8.59-43.56 23.75-81 36-163.92 53.65-361.77 90.97-477.18 110.12"/>
            <path d="m404.08 297.56-10.44-1.83 9.3-5.08z"/>
        </g>
        <g class="node" transform="translate(4 544)">
            <ellipse cx="1419.58" cy="-162" fill="none" stroke="#000" rx="158.32" ry="18"/>
            <text x="1419.58" y="-156.95" font-family="Times,serif" font-size="14" text-anchor="middle">:app:core:account-preferences-datastore</text>
        </g>
        <g stroke="#000" class="edge">
            <path fill="none" d="M3326.87 94.94c-376.45.11-1715.64 3.99-1791.29 53.06-71.81 46.58-98.79 153.07-107.87 204.35"/>
            <path d="m1431.18 352.78-5.08 9.29-1.82-10.44z"/>
        </g>
        <g class="node" transform="translate(4 544)">
            <ellipse cx="577.58" cy="-234" fill="none" stroke="#000" rx="124.54" ry="18"/>
            <text x="577.58" y="-228.95" font-family="Times,serif" font-size="14" text-anchor="middle">:app:core:diary-database-room</text>
        </g>
        <g stroke="#000" class="edge">
            <path fill="none" d="M3326.77 94.75c-440.36-.8-2222.19-.69-2327.19 53.25-53.37 27.42-29.59 77.07-81 108-10.27 6.18-142.24 25.73-237.93 39.27"/>
            <path d="m681.35 298.71-10.39-2.07 9.41-4.86z"/>
        </g>
        <g class="node" transform="translate(4 544)">
            <ellipse cx="1996.58" cy="-162" fill="none" stroke="#000" rx="157.3" ry="18"/>
            <text x="1996.58" y="-156.95" font-family="Times,serif" font-size="14" text-anchor="middle">:app:core:holiday-preferences-datastore</text>
        </g>
        <g stroke="#000" class="edge">
            <path fill="none" d="M3329.05 97.76c-183.2 5.87-577.52 21.47-710.47 50.24-223.56 48.38-473.96 162.84-573.62 211.02"/>
            <path d="m2046.56 362.13-10.53 1.22 7.47-7.51z"/>
        </g>
        <g class="node" transform="translate(4 544)">
            <ellipse cx="853.58" cy="-234" fill="none" stroke="#000" rx="133.24" ry="18"/>
            <text x="853.58" y="-228.95" font-family="Times,serif" font-size="14" text-anchor="middle">:app:core:holiday-database-room</text>
        </g>
        <g stroke="#000" class="edge">
            <path fill="none" d="M3327.09 94.87c-434.85-.31-2180.74 1.68-2284.51 53.13-54.97 27.26-38.87 68.71-86 108-14.76 12.3-32.82 22.99-49.46 31.48"/>
            <path d="m908.86 290.52-10.52 1.28 7.42-7.56z"/>
        </g>
        <g class="node" transform="translate(4 544)">
            <ellipse cx="4499.58" cy="-378" fill="none" stroke="#000" rx="81.55" ry="18"/>
            <text x="4499.58" y="-372.95" font-family="Times,serif" font-size="14" text-anchor="middle">:app:feature:memo</text>
        </g>
        <g stroke="#000" class="edge">
            <path fill="none" d="M3520.54 97.67c172.61 5.4 546.78 19.79 861.04 50.33 14.67 1.43 30.29 3.32 45.27 5.32"/>
            <path d="m4427.23 149.84 9.44 4.82-10.38 2.11z"/>
        </g>
        <g class="node" transform="translate(4 544)">
            <ellipse cx="5150.58" cy="-378" fill="none" stroke="#000" rx="68.75" ry="18"/>
            <text x="5150.58" y="-372.95" font-family="Times,serif" font-size="14" text-anchor="middle">:app:feature:tag</text>
        </g>
        <g stroke="#000" class="edge">
            <path fill="none" d="M3521.64 96.17c244.91 3.42 907.72 15.55 1458.94 51.83 33.04 2.17 69.52 5.58 100.51 8.78"/>
            <path d="m5081.16 153.27 9.58 4.52-10.31 2.44z"/>
        </g>
        <g class="node" transform="translate(4 544)">
            <ellipse cx="5909.58" cy="-378" fill="none" stroke="#000" rx="88.71" ry="18"/>
            <text x="5909.58" y="-372.95" font-family="Times,serif" font-size="14" text-anchor="middle">:app:feature:calendar</text>
        </g>
        <g stroke="#000" class="edge">
            <path fill="none" d="M3521.94 95.33c389.08 1.58 1833.29 10.25 2288.64 52.67 9.21.86 18.84 2.05 28.36 3.41"/>
            <path d="m5839.16 147.9 9.37 4.94-10.41 1.98z"/>
        </g>
        <g class="node" transform="translate(4 544)">
            <ellipse cx="5619.58" cy="-378" fill="none" stroke="#000" rx="76.94" ry="18"/>
            <text x="5619.58" y="-372.95" font-family="Times,serif" font-size="14" text-anchor="middle">:app:feature:more</text>
        </g>
        <g stroke="#000" class="edge">
            <path fill="none" d="M3521.9 95.87c357.09 3.44 1594.97 17.65 1988.68 52.13 13.36 1.17 27.53 2.91 41.17 4.83"/>
            <path d="m5552.16 149.35 9.39 4.91-10.4 2.02z"/>
        </g>
        <g class="node" transform="translate(4 544)">
            <ellipse cx="4685.58" cy="-378" fill="none" stroke="#000" rx="86.15" ry="18"/>
            <text x="4685.58" y="-372.95" font-family="Times,serif" font-size="14" text-anchor="middle">:app:feature:account</text>
        </g>
        <g stroke="#000" class="edge">
            <path fill="none" d="M3521.99 95.08c201.1 1.13 676.52 8.71 1072.59 52.92 7.44.83 15.18 1.89 22.88 3.07"/>
            <path d="m4617.87 147.59 9.32 5.05-10.43 1.86z"/>
        </g>
        <g class="node" transform="translate(4 544)">
            <ellipse cx="2826.58" cy="-162" fill="none" stroke="#000" rx="112.26" ry="18"/>
            <text x="2826.58" y="-156.95" font-family="Times,serif" font-size="14" text-anchor="middle">:library:firebase-messaging</text>
        </g>
        <g stroke="#000" class="edge">
            <path fill="none" d="M3327.59 96.35c-80.31 3.88-196.2 15.99-291.01 51.65-54.34 20.44-73.28 26.23-109 72-31.31 40.11-9.75 65.68-38 108-7.14 10.7-16.93 20.64-26.47 28.96"/>
            <path d="m2865.58 359.46-9.93 3.69 5.46-9.08z"/>
        </g>
        <g class="node" transform="translate(4 544)">
            <ellipse cx="2985.58" cy="-18" fill="none" stroke="#000" rx="71.31" ry="18"/>
            <text x="2985.58" y="-12.95" font-family="Times,serif" font-size="14" text-anchor="middle">:app:core:model</text>
        </g>
        <g stroke="#000" class="edge">
            <path fill="none" d="M1163.98 397.71c27.23 9.04 60.87 22.02 88.6 38.29 21.5 12.61 19.71 27.12 43 36 75.91 28.93 1281.93 47.39 1611.39 51.91"/>
            <path d="m2906.85 520.41 9.96 3.64-10.05 3.36z"/>
        </g>
        <g class="node" transform="translate(4 544)">
            <ellipse cx="3860.58" cy="-18" fill="none" stroke="#000" rx="85.13" ry="18"/>
            <text x="3860.58" y="-12.95" font-family="Times,serif" font-size="14" text-anchor="middle">:common:exception</text>
        </g>
        <g stroke="#000" class="edge">
            <path fill="none" d="M1178.66 395.52c34.18 8.32 75.91 21.3 109.92 40.48 20.83 11.75 17.75 27.22 40 36 99.4 39.21 1816.18 33.52 1923 36 183.28 4.26 397.34 10.48 517.86 14.1"/>
            <path d="m3769.4 518.59 9.89 3.8-10.1 3.2z"/>
        </g>
        <g class="node" transform="translate(4 544)">
            <ellipse cx="1455.58" cy="-90" fill="none" stroke="#000" rx="121.98" ry="18"/>
            <text x="1455.58" y="-84.95" font-family="Times,serif" font-size="14" text-anchor="middle">:app:core:account-preferences</text>
        </g>
        <g stroke="#000" class="edge">
            <path fill="none" d="M1177.04 395.84c56.66 11.46 139.95 28.31 201.43 40.75"/>
            <path d="m1379.09 433.15 9.11 5.41-10.5 1.45z"/>
        </g>
        <g class="node" transform="translate(4 544)">
            <ellipse cx="1166.58" cy="-90" fill="none" stroke="#000" rx="72.85" ry="18"/>
            <text x="1166.58" y="-84.95" font-family="Times,serif" font-size="14" text-anchor="middle">:common:model</text>
        </g>
        <g stroke="#000" class="edge">
            <path fill="none" d="M1127.38 399.95c6.72 8.25 14.94 18.35 22.4 27.51"/>
            <path d="m1152.35 425.07 3.6 9.97-9.03-5.55z"/>
        </g>
        <g stroke="#000" class="edge">
            <path fill="none" d="M182.69 467.02c14.83 2 30.33 3.8 44.89 4.98 540.1 43.59 2278.56 51.52 2679.14 52.78"/>
            <path d="m2906.67 521.28 9.99 3.53-10.01 3.47z"/>
        </g>
        <g stroke="#000" class="edge">
            <path fill="none" d="M4308.65 394.62c124.79 26.33 428.27 90.36 557.77 117.69"/>
            <path d="m4867.11 508.88 9.07 5.48-10.51 1.36z"/>
        </g>
        <g stroke="#000" class="edge">
            <path fill="none" d="M4252.19 400.44c-2.68 20.85-10.56 54.99-33.61 71.56-38.89 27.95-717.03 45.58-965.07 51.12"/>
            <path d="m3253.61 526.62-10.07-3.28 9.92-3.72z"/>
        </g>
        <g stroke="#000" class="edge">
            <path fill="none" d="M4309.53 394.31c23 7.7 47.39 20.51 61.05 41.69 8.67 13.45 10.22 23.69 0 36-25.13 30.27-126.36 43.36-200.6 48.94"/>
            <path d="m4170.5 524.41-10.22-2.77 9.72-4.21z"/>
        </g>
        <g stroke="#000" class="edge">
            <path fill="none" d="M4217.56 398.19c-24.05 10.14-55.95 23.59-82.13 34.63"/>
            <path d="m4136.94 435.99-10.58.66 7.86-7.11z"/>
        </g>
        <g stroke="#000" class="edge">
            <path fill="none" d="M4179.75 385.46c-187.53 6.54-678.77 25.57-840.17 50.54-106.68 16.5-228.17 51.06-296.3 71.93"/>
            <path d="m3044.44 511.23-10.58-.4 8.52-6.29z"/>
        </g>
        <g stroke="#000" class="edge">
            <path fill="none" d="M4271.49 399.73c18.45 19.22 42.02 50.86 23.09 72.27-.71.81-221.39 27.69-346.29 42.85"/>
            <path d="m3948.74 518.33-10.35-2.27 9.5-4.68z"/>
        </g>
        <g stroke="#000" class="edge">
            <path fill="none" d="M5400.33 255.59c12.25 8.93 27.58 20.11 41.04 29.92"/>
            <path d="m5443.08 282.43 6.02 8.72-10.14-3.06z"/>
        </g>
        <g stroke="#000" class="edge">
            <path fill="none" d="M5504.15 327.59c18.06 9.8 41.09 22.29 60.33 32.73"/>
            <path d="m5565.98 357.16 7.12 7.84-10.46-1.69z"/>
        </g>
        <g stroke="#000" class="edge">
            <path fill="none" d="M5445.91 327.62c-63.6 37.85-219.15 128.44-277.33 144.38-95.06 26.04-760.43 45-997.42 50.99"/>
            <path d="m4171.46 526.48-10.08-3.24 9.91-3.75z"/>
        </g>
        <g stroke="#000" class="edge">
            <path fill="none" d="M5043.26 256.34c8.15 43.76 22.42 159.23-39.68 215.66-30.53 27.74-611.52 45.29-832.06 50.98"/>
            <path d="m4171.63 526.48-10.08-3.25 9.9-3.75z"/>
        </g>
        <g stroke="#000" class="edge">
            <path fill="none" d="M4889.19 254.6c16.95 9.1 36.94 21.87 51.39 37.4 55.7 59.86 94.07 120.49 38 180-27.44 29.12-590.65 45.75-807.19 51.09"/>
            <path d="m4171.7 526.58-10.09-3.25 9.92-3.74z"/>
        </g>
        <g stroke="#000" class="edge">
            <path fill="none" d="M5571.93 256.03c3.7 10.31 8.29 23.79 11.65 35.97 5.52 20.05 10.39 43.01 13.81 60.59"/>
            <path d="m5600.81 351.83-1.57 10.48-5.3-9.17z"/>
        </g>
        <g stroke="#000" class="edge">
            <path fill="none" d="M2640.46 255.96c-28.72 42.4-94.31 154.01-36.88 216.04 35.28 38.11 414.49 29.37 466 36 7.97 1.03 16.29 2.27 24.55 3.62"/>
            <path d="m3094.54 508.14 9.27 5.12-10.44 1.78z"/>
        </g>
        <g stroke="#000" class="edge">
            <path fill="none" d="M2648.87 256.26c-10.01 48.66-34.86 185.35-5.29 215.74 50.96 52.38 1242.15 30.22 1315 36 18.55 1.47 38.53 3.76 57.09 6.18"/>
            <path d="m4016.07 510.7 9.44 4.8-10.37 2.14z"/>
        </g>
        <g stroke="#000" class="edge">
            <path fill="none" d="M2721.16 243.31c190.94 12 717.13 45.18 754.42 48.69 18.18 1.71 37.67 3.91 56.09 6.15"/>
            <path d="m3531.97 294.67 9.5 4.7-10.36 2.24z"/>
        </g>
        <g class="node" transform="translate(4 544)">
            <ellipse cx="2273.58" cy="-162" fill="none" stroke="#000" rx="101.51" ry="18"/>
            <text x="2273.58" y="-156.95" font-family="Times,serif" font-size="14" text-anchor="middle">:app:core:diary-database</text>
        </g>
        <g stroke="#000" class="edge">
            <path fill="none" d="M2614.21 253.53c-67.66 25.62-208.22 78.85-284.57 107.76"/>
            <path d="m2331.32 364.39-10.59.27 8.11-6.81z"/>
        </g>
        <g stroke="#000" class="edge">
            <path fill="none" d="M3223.58 255.13c-37.72 30.46-115.7 100.63-145 180.87-5.49 15.03-7.76 22.01 0 36 7.74 13.95 20.85 24.71 34.48 32.77"/>
            <path d="m3114.56 501.6 7.12 7.85-10.45-1.7z"/>
        </g>
        <g stroke="#000" class="edge">
            <path fill="none" d="M3253.38 256.22c19.03 35.08 67.8 114 135.2 143.78 104.29 46.08 144.8 3.22 254 36 35.8 10.74 40.21 25.22 76 36 13.96 4.2 191.18 28.76 294.85 42.93"/>
            <path d="m4013.83 511.45 9.44 4.82-10.38 2.12z"/>
        </g>
        <g stroke="#000" class="edge">
            <path fill="none" d="M3298.79 245.15c110.47 12.53 361.8 41.05 487.82 55.34"/>
            <path d="m3786.63 296.97 9.54 4.61-10.33 2.35z"/>
        </g>
        <g stroke="#000" class="edge">
            <path fill="none" d="M3189.94 244.67c-126.9 13.2-431.63 45.01-442.36 47.33-49.87 10.77-59.33 24.33-109 36-109.71 25.77-139.53 19.39-251 36-7.95 1.18-16.22 2.43-24.5 3.69"/>
            <path d="m2363.73 371.13-10.41-1.94 9.35-4.98z"/>
        </g>
        <g stroke="#000" class="edge">
            <path fill="none" d="M2465.3 400.26c-7.16 20.02-14.64 52.71 3.28 71.74 45.87 48.7 534.58 28.03 601 36 8.04.96 16.43 2.18 24.74 3.51"/>
            <path d="m3094.8 508.04 9.28 5.1-10.44 1.81z"/>
        </g>
        <g stroke="#000" class="edge">
            <path fill="none" d="M2486.86 399.99c19.21 21.42 55.61 57.22 95.72 72.01 143.5 52.9 1223.53 23.99 1376 36 18.56 1.46 38.53 3.74 57.09 6.17"/>
            <path d="m4016.07 510.69 9.45 4.8-10.38 2.14z"/>
        </g>
        <g stroke="#000" class="edge">
            <path fill="none" d="M2543.58 388.71c47.06 3.63 110.19 8.22 166 11.29 479.03 26.39 1052.47 43.94 1278.99 50.32"/>
            <path d="m3988.66 446.82 9.9 3.78-10.1 3.22z"/>
        </g>
        <g stroke="#000" class="edge">
            <path fill="none" d="M2419 395.03c-10.07 1.93-20.53 3.7-30.42 4.97-281.24 36.22-353.9 19.76-637 36-55.5 3.18-116.92 6.75-169.06 9.8"/>
            <path d="m1582.89 449.28-10.18-2.91 9.78-4.08z"/>
        </g>
        <g stroke="#000" class="edge">
            <path fill="none" d="M1554.46 174.72c-46.69 7.09-107.15 20.43-155.88 45.28-65.11 33.2-60.48 71.86-124 108-28.01 15.94-61.52 27.94-90.69 36.45"/>
            <path d="m1184.97 367.78-10.58-.65 8.68-6.08z"/>
        </g>
        <g stroke="#000" class="edge">
            <path fill="none" d="M1624.73 184.39c-5.55 26.67-15.15 79.34-15.15 124.61v74c0 58.51 42.76 67.06 97 89 140.44 56.81 1212.3 20.47 1363 36 8.37.86 17.12 2.05 25.77 3.4"/>
            <path d="m3095.82 507.93 9.3 5.08-10.44 1.83z"/>
        </g>
        <g stroke="#000" class="edge">
            <path fill="none" d="M1630.09 184.47c4.32 47.39 17.59 177.32 36.49 215.53 19.51 39.46 27.72 54.25 68 72 113.08 49.83 2100.76 26.91 2224 36 18.56 1.37 38.54 3.62 57.1 6.04"/>
            <path d="m4016.08 510.56 9.45 4.8-10.38 2.14z"/>
        </g>
        <g stroke="red" stroke-width="2" class="edge">
            <path fill="none" d="M1712.32 167.25c375.74 1.35 1908.63 9.44 2387.26 52.75 8.91.81 18.2 1.91 27.42 3.16"/>
            <path fill="red" d="m4125.78 219.45 9.4 4.89-10.39 2.04z"/>
        </g>
        <g stroke="#000" class="edge">
            <path fill="none" d="M1596.24 182.99c-88.68 43.99-329.83 164.67-339.66 181.01-8.25 13.71-9.78 23.34 0 36 13.52 17.51 59.93 30.34 104.96 38.98"/>
            <path d="m1361.95 435.5 9.19 5.26-10.47 1.62z"/>
        </g>
        <g stroke="#000" class="edge">
            <path fill="none" d="M1684.89 391.03c-28.88 3.26-63.24 6.77-94.31 8.97-265.44 18.82-1068.52 41.81-1367.89 49.96"/>
            <path d="m223 453.45-10.09-3.23 9.9-3.77z"/>
        </g>
        <g stroke="#000" class="edge">
            <path fill="none" d="M1735.3 399.96c-15.93 19.74-36.08 52.16-16.72 72.04 52.38 53.79 1276.31 28.3 1351 36 8.37.86 17.12 2.05 25.77 3.41"/>
            <path d="m3095.82 507.94 9.3 5.08-10.44 1.82z"/>
        </g>
        <g stroke="#000" class="edge">
            <path fill="none" d="M1744.47 400.44c-5.85 20.19-11.31 53.05 7.11 71.56 43.24 43.47 2145.85 31.49 2207 36 18.56 1.37 38.54 3.62 57.1 6.04"/>
            <path d="m4016.08 510.56 9.44 4.8-10.37 2.14z"/>
        </g>
        <g stroke="#000" class="edge">
            <path fill="none" d="M1803.24 395.05c10.34 1.97 21.14 3.76 31.34 4.95 37.48 4.38 1162.21 39.41 1504.27 49.99"/>
            <path d="m3338.8 446.48 9.89 3.81-10.11 3.19z"/>
        </g>
        <g class="node" transform="translate(4 544)">
            <ellipse cx="2081.58" cy="-90" fill="none" stroke="#000" rx="120.96" ry="18"/>
            <text x="2081.58" y="-84.95" font-family="Times,serif" font-size="14" text-anchor="middle">:app:core:holiday-preferences</text>
        </g>
        <g stroke="#000" class="edge">
            <path fill="none" d="M1805.9 394.56c54.58 11.4 138.58 28.96 200.28 41.85"/>
            <path d="m2006.88 432.98 9.07 5.47-10.5 1.38z"/>
        </g>
        <g class="node" transform="translate(4 544)">
            <ellipse cx="851.58" cy="-90" fill="none" stroke="#000" rx="110.21" ry="18"/>
            <text x="851.58" y="-84.95" font-family="Times,serif" font-size="14" text-anchor="middle">:app:core:holiday-database</text>
        </g>
        <g stroke="#000" class="edge">
            <path fill="none" d="M1684.07 390.58c-28.73 3.14-62.74 6.68-93.49 9.42-222.8 19.82-278.9 19.86-502 36-40.04 2.9-83.95 6.09-122.75 8.93"/>
            <path d="m966.23 448.41-10.22-2.76 9.71-4.22z"/>
        </g>
        <g stroke="#000" class="edge">
            <path fill="none" d="M1147.69 327.95c-5.07 7.87-11.21 17.43-16.89 26.26"/>
            <path d="m1133.86 355.93-8.36 6.52 2.47-10.3z"/>
        </g>
        <g stroke="#000" class="edge">
            <path fill="none" d="M1105.93 322.86c-51.16 12.05-122.3 30.43-130.35 41.14-9.61 12.79-6.51 21.38 0 36 4.86 10.92 68.87 67.62 80 72 104.12 41.02 1902.63 25.01 2014 36 8.38.83 17.13 1.99 25.77 3.33"/>
            <path d="m3095.82 507.86 9.31 5.08-10.44 1.83z"/>
        </g>
        <g stroke="#000" class="edge">
            <path fill="none" d="M1105.74 322.83c-38.37 9.79-85.52 24.71-97.16 41.17-9.24 13.06-6.51 21.38 0 36 .61 1.37 78.61 71.46 80 72 148.51 58.06 2710.95 24.56 2870 36 18.66 1.34 38.74 3.59 57.38 6.03"/>
            <path d="m4016.41 510.56 9.44 4.8-10.37 2.13z"/>
        </g>
        <g stroke="#000" class="edge">
            <path fill="none" d="M1231.85 313.15c346.5 10.18 1820.17 53.47 2213.11 65.01"/>
            <path d="m3444.87 374.66 9.89 3.79-10.1 3.2z"/>
        </g>
        <g stroke="#000" class="edge">
            <path fill="none" d="M1232.13 312.36c166.68 3.64 585.8 15.86 934.45 51.64 9.03.93 18.45 2.08 27.81 3.34"/>
            <path d="m2194.85 363.87 9.41 4.85-10.38 2.08z"/>
        </g>
        <g class="node" transform="translate(4 544)">
            <ellipse cx="500.58" cy="-162" fill="none" stroke="#000" rx="109.19" ry="18"/>
            <text x="500.58" y="-156.95" font-family="Times,serif" font-size="14" text-anchor="middle">:app:core:backup-database</text>
        </g>
        <g stroke="#000" class="edge">
            <path fill="none" d="M1092.05 318.12c-28.48 3.05-62.1 6.64-92.47 9.88-150.66 16.05-188.36 19.79-339 36-17.95 1.93-37.05 4-55.51 6.01"/>
            <path d="m605.5 373.48-10.32-2.4 9.56-4.56z"/>
        </g>
        <g stroke="#000" class="edge">
            <path fill="none" d="M2939.38 243.13c-272.17 17.82-1345.66 88.78-1682.8 120.87-17.54 1.67-36.26 3.71-54.18 5.79"/>
            <path d="m1202.91 373.25-10.34-2.31 9.52-4.64z"/>
        </g>
        <g stroke="#000" class="edge">
            <path fill="none" d="M3002.38 256.28c.47 42.62 7.67 153.84 67.2 215.72 13.01 13.53 30.24 24.59 46.39 33.04"/>
            <path d="m3117.1 501.69 7.39 7.59-10.52-1.33z"/>
        </g>
        <g stroke="#000" class="edge">
            <path fill="none" d="M3028.3 254.77c53.95 32.37 183.8 106.5 302.28 145.23 87.1 28.47 114.16 13.57 203 36 49.47 12.49 59.17 25.05 109 36 138.06 30.33 175.7 18.77 316 36 17.83 2.19 37.04 4.66 55.04 7.03"/>
            <path d="m4013.99 511.54 9.46 4.78-10.38 2.16z"/>
        </g>
        <g stroke="#000" class="edge">
            <path fill="none" d="M3056.25 248.73c67.98 12.33 185.34 33.61 260.85 47.31"/>
            <path d="m3317.68 292.59 9.22 5.22-10.47 1.66z"/>
        </g>
        <g stroke="#000" class="edge">
            <path fill="none" d="M2948.65 248.61c-57.91 10.39-152.59 27.6-234.07 43.39-127.43 24.7-275.38 55.22-362.31 73.34"/>
            <path d="m2353.18 368.73-10.51-1.39 9.08-5.47z"/>
        </g>
        <g stroke="#000" class="edge">
            <path fill="none" d="M2756.35 311.23c-210.89 1.17-917.75 8.38-1499.77 52.77-17.96 1.37-37.14 3.32-55.43 5.4"/>
            <path d="m1201.74 372.86-10.33-2.32 9.52-4.63z"/>
        </g>
        <g stroke="#000" class="edge">
            <path fill="none" d="M2879.32 313.96c227.21 11.09 1027.4 50.12 1290.05 62.93"/>
            <path d="m4169.39 373.39 9.82 3.98-10.16 3.01z"/>
        </g>
        <g stroke="#000" class="edge">
            <path fill="none" d="M2770.61 321.79c-29.16 8.2-66.04 21.65-94.03 42.21-43.58 32.01-92.67 68.27-56 108 33.95 36.78 399.37 29.54 449 36 7.91 1.03 16.17 2.27 24.37 3.61"/>
            <path d="m3094.28 508.12 9.28 5.12-10.44 1.78z"/>
        </g>
        <g stroke="#000" class="edge">
            <path fill="none" d="M2780.29 324.57c-22.11 9.01-49.62 22.34-70.71 39.43-31.49 25.53-42.84 33.65-56 72-5.19 15.13-11.16 24.53 0 36 50.57 51.99 1232.7 30.25 1305 36 18.55 1.47 38.53 3.76 57.09 6.18"/>
            <path d="m4016.07 510.71 9.44 4.79-10.37 2.14z"/>
        </g>
        <g stroke="#000" class="edge">
            <path fill="none" d="M2821.55 328.3c1.26 7.38 2.77 16.18 4.19 24.45"/>
            <path d="m2829.15 351.96-1.76 10.44-5.14-9.26z"/>
        </g>
        <g stroke="#000" class="edge">
            <path fill="none" d="M3686.15 318.98c29.63 3.06 64.13 6.43 95.43 9.02 246.79 20.4 312.91-11.21 556 36 50.08 9.73 60.25 20.96 109 36 110.9 34.2 138.65 42.91 251 72 57.12 14.79 122.76 29.78 169.08 40.03"/>
            <path d="m4867.22 508.56 9.01 5.57-10.52 1.27z"/>
        </g>
        <g stroke="#000" class="edge">
            <path fill="none" d="M3546.19 321.44c-79.18 14.94-212.81 48.28-308.61 114.56-23.78 16.45-44.21 42.53-57.54 62.22"/>
            <path d="m3182.97 500.13-8.41 6.45 2.55-10.29z"/>
        </g>
        <g stroke="#000" class="edge">
            <path fill="none" d="M3642.02 327.22c33.95 18.48 91.63 49.15 142.56 72.78 88.2 40.92 193.64 82.9 254.02 106.3"/>
            <path d="m4039.86 503.03 8.06 6.87-10.59-.34z"/>
        </g>
        <g stroke="#000" class="edge">
            <path fill="none" d="M3662.31 324.93c34.58 10.02 81.58 24.33 122.27 39.07 38.96 14.12 46.64 23.04 86 36 47.34 15.58 101.84 28.88 144.38 38.25"/>
            <path d="m4015.55 434.8 9.03 5.55-10.52 1.29z"/>
        </g>
        <g stroke="#000" class="edge">
            <path fill="none" d="M3595.39 327.95c-8.63 8.51-19.26 18.98-28.78 28.37"/>
            <path d="m3569.26 358.62-9.57 4.53 4.66-9.51z"/>
        </g>
        <g stroke="#000" class="edge">
            <path fill="none" d="M3540.75 319.72C3407.3 337.08 3127.6 379.23 3049.58 436c-21.61 15.73-37.84 41.77-47.94 61.63"/>
            <path d="m3004.83 499.08-7.5 7.48 1.2-10.52z"/>
        </g>
        <g stroke="#000" class="edge">
            <path fill="none" d="M3632.35 327.79c44.44 37.74 152.35 129.37 203.9 173.15"/>
            <path d="m3838.39 498.17 5.35 9.14-9.88-3.81z"/>
        </g>
        <g stroke="#000" class="edge">
            <path fill="none" d="M3932.6 312.12c110.88 2.92 331.34 13.53 513.98 51.88 164.85 34.62 351.89 107.63 435.5 142.16"/>
            <path d="m4883.42 502.92 7.89 7.07-10.58-.61z"/>
        </g>
        <g stroke="#000" class="edge">
            <path fill="none" d="M3845.98 327.98c-20.51 21.04-58.74 56.09-99.4 72.02-169.08 66.25-236.22-25.74-407 36-26.44 9.56-27.4 22.41-52 36-23.26 12.85-50.28 24.73-73.14 33.97"/>
            <path d="m3215.91 509.15-10.59.44 8-6.95z"/>
        </g>
        <g stroke="#000" class="edge">
            <path fill="none" d="M3933.01 311.89c115.67 2.6 337.78 12.73 404.57 52.11 33.78 19.92 39.11 34.63 51 72 4.85 15.25 10.29 23.74 0 36-27.31 32.54-138.22 45.11-217.46 49.96"/>
            <path d="m4171.37 525.45-10.19-2.92 9.78-4.07z"/>
        </g>
        <g stroke="#000" class="edge">
            <path fill="none" d="M3882.24 327.44c23.92 18.67 64.83 49.52 102.34 72.56 18.71 11.49 40.19 22.82 58.68 32.04"/>
            <path d="m4044.69 428.84 7.43 7.56-10.52-1.28z"/>
        </g>
        <g stroke="#000" class="edge">
            <path fill="none" d="M3809.1 322.48c-54.06 11.82-138.58 30.31-198.13 43.34"/>
            <path d="m3611.78 369.23-10.52-1.29 9.02-5.55z"/>
        </g>
        <g stroke="#000" class="edge">
            <path fill="none" d="M3827.29 326.1c-52.9 23.04-152.21 65.21-189.71 73.9-202.37 46.88-265.82-19.48-466 36-34.48 9.56-39.88 20.23-72 36-22.2 10.9-47.01 22.87-67.44 32.67"/>
            <path d="m3033.78 507.77-10.53 1.16 7.51-7.48z"/>
        </g>
        <g stroke="#000" class="edge">
            <path fill="none" d="M3929.8 315.55c76.85 9.19 198.48 36.93 255.78 120.45 9.05 13.19 10.35 23.8 0 36-7.75 9.13-146.24 29.44-238.76 42.1"/>
            <path d="m3947.38 517.56-10.38-2.12 9.44-4.82z"/>
        </g>
        <g stroke="#000" class="edge">
            <path fill="none" d="M4168.41 461.74c163.97 13.68 533.25 44.49 687.93 57.4"/>
            <path d="m4856.36 515.63 9.67 4.32-10.26 2.65z"/>
        </g>
        <g stroke="#000" class="edge">
            <path fill="none" d="M4006.18 461.44c-40.72 3.21-90.76 7.12-135.6 10.56-224.19 17.19-488.43 36.83-621.4 46.68"/>
            <path d="m3249.63 522.15-10.23-2.75 9.72-4.23z"/>
        </g>
        <g stroke="#000" class="edge">
            <path fill="none" d="M4087.58 472.3v24.16"/>
            <path d="m4091.08 496.38-3.5 10-3.5-10z"/>
        </g>
        <g stroke="red" stroke-width="2" class="edge">
            <path fill="none" d="M4007.24 461.93c-40.89 3.36-91.4 7.27-136.66 10.07-353.02 21.82-443.86-6.41-795 36-7.41.9-15.14 2.07-22.79 3.39"/>
            <path fill="red" d="m3055.12 514.52-10.46-1.66 9.21-5.23z"/>
        </g>
        <g stroke="#000" class="edge">
            <path fill="none" d="M4040.83 469.67c-34.75 10.91-82.36 25.86-119.33 37.46"/>
            <path d="m3922.92 510.36-10.59-.35 8.49-6.33z"/>
        </g>
        <g stroke="#000" class="edge">
            <path fill="none" d="M4211.47 256.41c8.17 24.19 23.06 68.23 32.76 96.94"/>
            <path d="m4247.42 351.86-.11 10.6-6.52-8.36z"/>
        </g>
        <g stroke="#000" class="edge">
            <path fill="none" d="M4295.57 244.82c88.95 6.94 228.54 21.04 347.01 47.18 101.29 22.35 132.82 19.03 222 72 40 23.76 57.61 29.26 76 72 8.35 19.42 3.98 43.15-2.01 61.22"/>
            <path d="m4941.9 498.32-6.74 8.17.17-10.59z"/>
        </g>
        <g stroke="#000" class="edge">
            <path fill="none" d="M4233.65 255.52c32.07 20.7 82.85 59.48 103.93 108.48 25.03 58.19-33.58 86.05-93 108-46.19 17.07-741.74 41.73-992.08 50.1"/>
            <path d="m3252.9 525.58-10.11-3.16 9.88-3.83z"/>
        </g>
        <g stroke="#000" class="edge">
            <path fill="none" d="M4285.23 248.47c110.76 13.36 299.38 36.85 313.35 43.53 52.95 25.33 111.12 60.97 76 108-59.66 79.89-358.2 110.19-505.1 120.4"/>
            <path d="m4170.04 523.87-10.22-2.82 9.74-4.16z"/>
        </g>
        <g stroke="#000" class="edge">
            <path fill="none" d="M4135.52 250.71c-11.98 1.86-24.31 3.7-35.94 5.29-140.93 19.27-181.21-2.97-318 36-35.95 10.24-41.26 22.22-76 36-33.84 13.42-72.55 26.05-103.87 35.62"/>
            <path d="m3603 366.88-10.59-.45 8.56-6.25z"/>
        </g>
        <g stroke="red" stroke-width="2" class="edge">
            <path fill="none" d="M4137 250.99c-12.42 1.89-25.29 3.66-37.42 5.01-256.7 28.48-322.9 11.37-580 36-17.69 1.69-36.67 3.92-54.54 6.2"/>
            <path fill="red" d="m3467.15 301.46-10.37-2.19 9.47-4.76z"/>
        </g>
        <g stroke="#000" class="edge">
            <path fill="none" d="M4175.8 255.47c-57.02 31.1-186.12 99.38-300.22 144.53-100.78 39.88-126.39 52.43-233 72-248.36 45.59-316.6 3.45-567 36-7.22.94-14.74 2.12-22.2 3.42"/>
            <path d="m3054.11 514.84-10.46-1.64 9.21-5.24z"/>
        </g>
        <g stroke="#000" class="edge">
            <path fill="none" d="M4281.88 249.25c91.29 12.64 232.91 33.55 240.7 42.75 31.02 36.63 27.13 68.4 0 108-66.34 96.82-400.4 94.63-517 108-18.65 2.14-38.68 4.51-57.61 6.78"/>
            <path d="m3948.5 518.24-10.34-2.27 9.51-4.68z"/>
        </g>
        <g stroke="#000" class="edge">
            <path fill="none" d="M3520.67 459.47c66.68 3.51 162.25 8.46 245.91 12.53 411.27 19.99 904.67 41.82 1087.36 49.83"/>
            <path d="m4853.92 518.32 9.83 3.94-10.14 3.06z"/>
        </g>
        <g stroke="#000" class="edge">
            <path fill="none" d="M3383.29 468.66c-45.25 11.61-110.23 28.27-157.79 40.46"/>
            <path d="m3226.44 512.49-10.55-.9 8.82-5.88z"/>
        </g>
        <g stroke="#000" class="edge">
            <path fill="none" d="M3514.45 462.62c123.83 12.16 360.21 35.59 444.13 45.38 17.85 2.08 37.05 4.51 55.06 6.87"/>
            <path d="m4014.01 511.39 9.46 4.78-10.38 2.16z"/>
        </g>
        <g stroke="#000" class="edge">
            <path fill="none" d="M3364.5 464.52c-72.99 9.88-189.04 26.29-288.92 43.48-6.71 1.16-13.7 2.43-20.67 3.74"/>
            <path d="m3055.6 515.17-10.48-1.56 9.17-5.32z"/>
        </g>
        <g stroke="#000" class="edge">
            <path fill="none" d="M3502.96 466.1c11.86 1.98 24.11 4 35.62 5.9 85.04 14 182.6 29.83 248.66 40.52"/>
            <path d="m3787.58 509.02 9.31 5.06-10.43 1.85z"/>
        </g>
        <g stroke="#000" class="edge">
            <path fill="none" d="M3604.42 394.69c9.76 1.79 19.73 3.61 29.16 5.31 91.04 16.4 114.41 17.27 205 36 67.56 13.97 82.73 26.01 151 36 318.89 46.65 704.38 52.85 863.18 53.26"/>
            <path d="m4852.74 521.76 10 3.52-10.01 3.48z"/>
        </g>
        <g stroke="#000" class="edge">
            <path fill="none" d="M3470.55 392.66c-47.62 7.99-111.06 21.63-163.97 43.34-41.38 16.98-84.37 45.44-112.26 65.6"/>
            <path d="m3196.46 504.37-10.13 3.09 5.99-8.73z"/>
        </g>
        <g stroke="#000" class="edge">
            <path fill="none" d="M3596.45 396.19c43.49 10.54 105.78 25.81 160.13 39.81 95.74 24.67 206.62 54.8 272.67 72.92"/>
            <path d="m4030.07 505.52 8.72 6.02-10.57.73z"/>
        </g>
        <g stroke="red" stroke-width="2" class="edge">
            <path fill="none" d="M3606.16 394.35c12.09 1.99 24.63 3.96 36.42 5.65 134.68 19.3 168.91 19.86 304 36 17.84 2.13 36.95 4.43 55.16 6.62"/>
            <path fill="red" d="m4000.43 438.94 9.51 4.67-10.35 2.28z"/>
        </g>
        <g stroke="#000" class="edge">
            <path fill="none" d="M3460 388.47c-105.39 7.87-282.53 24.08-343.42 47.53-38.54 14.85-76.5 43.86-100.73 64.73"/>
            <path d="m3018.22 503.3-9.82 3.98 5.2-9.23z"/>
        </g>
        <g stroke="#000" class="edge">
            <path fill="none" d="M3577.38 398.74c58.97 25.92 176.45 77.57 241.39 106.12"/>
            <path d="m3819.98 501.57 7.75 7.23-10.57-.82z"/>
        </g>
        <g stroke="#000" class="edge">
            <path fill="none" d="M3397.37 328.34c12.21 23.36 34.36 63.01 48.21 71.66 118.02 73.7 177.04-1.63 311 36 36.76 10.32 40.92 26.91 78 36 98.24 24.09 790.04 44.81 1018.77 51.07"/>
            <path d="m4853.45 519.57 9.9 3.77-10.09 3.23z"/>
        </g>
        <g stroke="#000" class="edge">
            <path fill="none" d="M3342.08 324.93c-25.4 8.87-56.64 21.94-81.5 39.07-36.25 24.97-45.52 34.16-68 72-11.16 18.8-18.6 42.42-23.15 60.6"/>
            <path d="m3172.88 497.24-5.69 8.94-1.13-10.53z"/>
        </g>
        <g stroke="#000" class="edge">
            <path fill="none" d="M3387.91 328.36c.25 20.45 4.08 53.86 24.67 71.64 51.82 44.75 242.42 10.58 306 36 24.76 9.9 23.48 25.53 48 36 22.36 9.55 159.88 30.23 247.52 42.75"/>
            <path d="m4014.42 511.26 9.4 4.87-10.39 2.06z"/>
        </g>
        <g stroke="#000" class="edge">
            <path fill="none" d="M3446.07 322.61c50.56 10.36 126.07 26.19 191.51 41.39 63.84 14.82 78.88 22.42 143 36 76.21 16.15 163.85 30.9 225.93 40.72"/>
            <path d="m4006.96 437.25 9.34 5.01-10.42 1.9z"/>
        </g>
        <g stroke="red" stroke-width="2" class="edge">
            <path fill="none" d="M3422.54 326.54c21.85 9.99 50.5 23.1 74.22 33.95"/>
            <path fill="red" d="m3496.53 356.54 7.64 7.35-10.55-.98z"/>
        </g>
        <g stroke="#000" class="edge">
            <path fill="none" d="M3322.32 319.85c-109.49 16.24-319.87 54.87-357.74 116.15-11.69 18.92-3.4 43.43 6.66 61.94"/>
            <path d="m2974.22 496.1 2.08 10.39-8.1-6.82z"/>
        </g>
        <g stroke="#000" class="edge">
            <path fill="none" d="M3378.94 328.04c-9.61 19.52-20.76 51.43-4.36 71.96 45.22 56.61 88.79 18.11 159 36 56.85 14.48 70.38 20.62 127 36 46.8 12.71 99.82 26.47 140.08 36.78"/>
            <path d="m3801.37 505.35 8.82 5.87-10.55.91z"/>
        </g>
        <g stroke="#000" class="edge">
            <path fill="none" d="M4065.77 250.72c11.59 1.89 23.54 3.73 34.81 5.28 148.34 20.44 190.34-2.71 335 36 153.01 40.95 183.74 74.35 326 144 44.64 21.86 94.73 49.3 127.89 67.9"/>
            <path d="m4890.87 500.67 7 7.96-10.43-1.86z"/>
        </g>
        <g stroke="#000" class="edge">
            <path fill="none" d="M4019.85 255.71c55.43 46.59 202.97 177.07 165.73 216.29-15.98 16.82-686.62 41.49-932.69 49.99"/>
            <path d="m3253.13 525.48-10.12-3.15 9.88-3.84z"/>
        </g>
        <g stroke="#000" class="edge">
            <path fill="none" d="M4066.06 250.68c11.49 1.88 23.34 3.73 34.52 5.32 68.22 9.72 262.19-15.48 308 36 53.19 59.77 49.98 120.04-3 180-30.2 34.19-150.88 46.32-234.56 50.63"/>
            <path d="m4171.4 526.12-10.16-3.01 9.82-3.98z"/>
        </g>
        <g stroke="#000" class="edge">
            <path fill="none" d="M3933.93 250.87c-68.57 12.41-175.92 31.83-247.43 44.76"/>
            <path d="m3687.29 299.04-10.46-1.66 9.22-5.23z"/>
        </g>
        <g stroke="#000" class="edge">
            <path fill="none" d="M3967.57 255.24c-19.34 9.81-44.19 22.41-64.97 32.95"/>
            <path d="m3904.31 291.25-10.5 1.4 7.34-7.65z"/>
        </g>
        <g stroke="#000" class="edge">
            <path fill="none" d="M4005.39 256.17c10.21 29.7 32.45 92.44 55.19 143.83 3.78 8.54 8.25 17.65 12.46 25.87"/>
            <path d="m4076.13 424.21 1.51 10.49-7.72-7.25z"/>
        </g>
        <g stroke="#000" class="edge">
            <path fill="none" d="M3992.53 256.18c-9.02 19.94-26.45 52.56-50.95 71.82-151.17 118.85-219.88 104.13-408 144-199.75 42.34-255.72 8.15-458 36-7.21.99-14.73 2.21-22.18 3.53"/>
            <path d="m3054.13 514.95-10.47-1.63 9.2-5.25z"/>
        </g>
        <g stroke="#000" class="edge">
            <path fill="none" d="M4048.68 253.59c33.01 10.1 77.36 24.23 115.9 38.41 78.16 28.76 126.79 2.71 173 72 8.88 13.31 2.76 20.24 0 36-5.87 33.51.65 50.85-26 72-53.64 42.55-238.01 27.9-306 36-18.54 2.21-38.44 4.6-57.29 6.87"/>
            <path d="m3948.88 518.32-10.35-2.28 9.51-4.67z"/>
        </g>
        <g stroke="#000" class="edge">
            <path fill="none" d="M254.08 326.95c-17.62 8.13-35.35 20.02-45.5 37.05-8.19 13.74-10.44 23.87 0 36 139.83 162.53 263.33 54.34 477 72 528.04 43.64 1856.65-15.32 2384 36 8.38.82 17.13 1.98 25.78 3.31"/>
            <path d="m3095.83 507.84 9.3 5.07-10.43 1.84z"/>
        </g>
        <g stroke="#000" class="edge">
            <path fill="none" d="M352.75 327.32c28.7 10.15 65.78 23.26 96.11 33.98"/>
            <path d="m450.01 358 8.26 6.63-10.59-.03z"/>
        </g>
        <g class="node" transform="translate(4 544)">
            <ellipse cx="293.58" cy="-162" fill="none" stroke="#000" rx="80.01" ry="18"/>
            <text x="293.58" y="-156.95" font-family="Times,serif" font-size="14" text-anchor="middle">:library:koin-room</text>
        </g>
        <g stroke="#000" class="edge">
            <path fill="none" d="M304.35 328.3c-.94 7.38-2.07 16.18-3.14 24.45"/>
            <path d="m304.72 352.92-4.75 9.47-2.19-10.36z"/>
        </g>
        <g class="node" transform="translate(4 544)">
            <ellipse cx="726.58" cy="-162" fill="none" stroke="#000" rx="60.56" ry="18"/>
            <text x="726.58" y="-156.95" font-family="Times,serif" font-size="14" text-anchor="middle">:library:room</text>
        </g>
        <g stroke="#000" class="edge">
            <path fill="none" d="M388.58 324.54c81.52 13.46 204.8 33.81 278.95 46.05"/>
            <path d="m667.76 367.08 9.29 5.08-10.43 1.83z"/>
        </g>
        <g stroke="#000" class="edge">
            <path fill="none" d="M1432.48 400.3c3.97 7.72 8.73 16.99 13.16 25.59"/>
            <path d="m1448.63 424.06 1.46 10.49-7.69-7.29z"/>
        </g>
        <g class="node" transform="translate(4 544)">
            <ellipse cx="1849.58" cy="-90" fill="none" stroke="#000" rx="93.32" ry="18"/>
            <text x="1849.58" y="-84.95" font-family="Times,serif" font-size="14" text-anchor="middle">:library:koin-datastore</text>
        </g>
        <g stroke="#000" class="edge">
            <path fill="none" d="M1511.63 397.33c76.66 12.48 186.86 30.42 261.26 42.54"/>
            <path d="m1773.26 436.38 9.31 5.06-10.44 1.85z"/>
        </g>
        <g stroke="#000" class="edge">
            <path fill="none" d="M595.55 328.13c32.7 39.85 112.74 136.03 130.03 143.87 118.6 53.81 2214.38 23.37 2344 36 8.38.82 17.13 1.98 25.78 3.31"/>
            <path d="m3095.83 507.84 9.3 5.07-10.44 1.84z"/>
        </g>
        <g stroke="#000" class="edge">
            <path fill="none" d="M668.31 323.31c15.7 1.85 31.95 3.53 47.27 4.69 643.25 48.66 808.43-20.94 1451 36 9.35.83 19.11 1.95 28.8 3.22"/>
            <path d="m2195.75 363.74 9.43 4.82-10.38 2.11z"/>
        </g>
        <g stroke="#000" class="edge">
            <path fill="none" d="M520.31 326.1c-46.95 11.57-111.53 27.49-159.07 39.21"/>
            <path d="m362.18 368.68-10.55-1 8.87-5.79z"/>
        </g>
        <g stroke="#000" class="edge">
            <path fill="none" d="M616.89 327.59c21.54 10.12 49.2 23.11 71.84 33.75"/>
            <path d="m690.14 358.13 7.56 7.42-10.54-1.08z"/>
        </g>
        <g stroke="#000" class="edge">
            <path fill="none" d="M2071.5 398.52c99.53 21.01 286.58 57.7 448.08 73.48 636.72 62.23 801.19-13.86 1439 36 18.56 1.45 38.53 3.73 57.09 6.15"/>
            <path d="m4016.07 510.67 9.45 4.8-10.38 2.14z"/>
        </g>
        <g stroke="#000" class="edge">
            <path fill="none" d="M2021.59 400.3c10.4 8.56 23.12 19.04 34.48 28.4"/>
            <path d="m2058.15 425.87 5.49 9.06-9.94-3.65z"/>
        </g>
        <g stroke="#000" class="edge">
            <path fill="none" d="M1964.99 399.95c-20.22 9.63-45.72 21.77-67.22 32.01"/>
            <path d="m1899.47 435.02-10.53 1.14 7.52-7.46z"/>
        </g>
        <g stroke="#000" class="edge">
            <path fill="none" d="M849.78 328.16c-9.45 19.34-26.92 50.8-49.2 71.84-23.73 22.41-47.52 7.83-64 36-8.08 13.81-11.23 24.6 0 36 45.47 46.18 2268.49 29.71 2333 36 8.38.82 17.13 1.98 25.78 3.31"/>
            <path d="m3095.83 507.85 9.3 5.06-10.44 1.84z"/>
        </g>
        <g stroke="#000" class="edge">
            <path fill="none" d="M857.33 328.41c-.33 23.98-.95 67.45-1.35 96.17"/>
            <path d="m859.48 424.43-3.64 9.95-3.36-10.05z"/>
        </g>
        <g stroke="#000" class="edge">
            <path fill="none" d="M760.97 322.7c-15.19 1.8-30.71 3.62-45.39 5.3-146.14 16.74-183.53 14.18-329 36-6.48.97-13.2 2.08-19.92 3.25"/>
            <path d="M367.34 370.68 356.88 369l9.23-5.21z"/>
        </g>
        <g stroke="#000" class="edge">
            <path fill="none" d="M826.84 327.95c-17.59 9.69-39.8 21.93-58.46 32.21"/>
            <path d="m770.21 363.15-10.44 1.76 7.06-7.89z"/>
        </g>
        <g stroke="#000" class="edge">
            <path fill="none" d="M4561.67 178.91c10.9 1.93 22.23 3.74 32.91 5.09 239.08 30.18 300.58 19.56 541 36 51.13 3.5 108.33 7.51 154.28 10.76"/>
            <path d="m5290.05 227.26 9.73 4.2-10.22 2.79z"/>
        </g>
        <g stroke="#000" class="edge">
            <path fill="none" d="M4534.26 183.05c41.61 20.9 118.86 56.7 189.32 72.95 226.17 52.17 289.49 19.41 521 36 41.17 2.95 86.49 6.29 125.88 9.23"/>
            <path d="m5370.71 297.74 9.72 4.24-10.24 2.74z"/>
        </g>
        <g stroke="#000" class="edge">
            <path fill="none" d="M4562.69 178.77c10.59 1.9 21.55 3.74 31.89 5.23 154.77 22.38 195.15 14.21 350 36 6.91.97 14.09 2.08 21.27 3.25"/>
            <path d="m4966.31 219.78 9.28 5.1-10.44 1.8z"/>
        </g>
        <g stroke="#000" class="edge">
            <path fill="none" d="M4531.15 183.3c36.03 20.49 101.72 55.12 162.43 72.7 122.63 35.51 158.47 18.99 285 36 204.99 27.56 447.43 62.94 560.28 79.57"/>
            <path d="m5539.14 368.07 9.39 4.92-10.41 2.01z"/>
        </g>
        <g stroke="#000" class="edge">
            <path fill="none" d="M4516.22 184.05c16.45 20.78 47.28 55.2 82.36 71.95 158.44 75.65 293.21-44.63 380 108 25.11 44.16-7.43 102.12-31.2 135.09"/>
            <path d="m4950.36 500.96-8.79 5.92 3.18-10.11z"/>
        </g>
        <g stroke="#000" class="edge">
            <path fill="none" d="M4562.5 178.72c61.7 12.27 158.53 31.52 223.84 44.51"/>
            <path d="m4786.74 219.74 9.13 5.39-10.5 1.48z"/>
        </g>
        <g stroke="#000" class="edge">
            <path fill="none" d="M4422.65 168.79c-236.06 6.27-919.81 32.02-1121.07 123.21-78.27 35.46-102.85 62.15-129 144-6.22 19.47-8.42 42.45-9.1 60.18"/>
            <path d="m3166.99 496.07-3.72 9.92-3.28-10.07z"/>
        </g>
        <g stroke="#000" class="edge">
            <path fill="none" d="M4498.01 184.17c-5.28 19.94-10.06 52.56 7.57 71.83 48.44 52.97 266.67-10.91 321 36 61.89 53.43 93.81 120.25 38 180-46.47 49.75-500.67 54.02-692.34 53.58"/>
            <path d="m4172.33 529.09-9.99-3.53 10.01-3.47z"/>
        </g>
        <g stroke="#000" class="edge">
            <path fill="none" d="M4561.16 179.05c11.05 1.94 22.56 3.72 33.42 4.95 385.85 43.77 486.87-5.27 873 36 7.76.83 15.84 1.9 23.87 3.09"/>
            <path d="m5491.92 219.62 9.34 5-10.42 1.92z"/>
        </g>
        <g stroke="#000" class="edge">
            <path fill="none" d="M4421.69 166.38c-124.93.68-369.93 8.4-572.11 53.62-69.84 15.62-146.71 47.37-193.42 68.42"/>
            <path d="m3657.74 291.54-10.55.96 7.65-7.33z"/>
        </g>
        <g stroke="#000" class="edge">
            <path fill="none" d="M4422.19 167.93c-163.08 2.7-517.61 13.03-555.61 52.07-15.18 15.59-15.19 40.91-12.12 60.56"/>
            <path d="m3857.85 279.67-1.54 10.49-5.33-9.16z"/>
        </g>
        <g stroke="#000" class="edge">
            <path fill="none" d="M5197.58 180.5c35.28 11.07 85.51 26.84 123.95 38.9"/>
            <path d="m5322.1 215.91 8.49 6.34-10.59.34z"/>
        </g>
        <g stroke="#000" class="edge">
            <path fill="none" d="M5183.71 182.54c18 10 41.31 23.66 60.87 37.46 20.36 14.37 20.98 24.33 43 36 32.79 17.38 71.95 29.63 105.85 37.94"/>
            <path d="m5393.84 290.44 8.93 5.72-10.54 1.1z"/>
        </g>
        <g stroke="#000" class="edge">
            <path fill="none" d="M5128.2 183.06c-15.41 9.38-35.09 21.36-51.99 31.64"/>
            <path d="m5078.29 217.53-10.36 2.21 6.72-8.19z"/>
        </g>
        <g stroke="#000" class="edge">
            <path fill="none" d="M5171.21 183.87c23.78 24.06 65.53 66.02 73.37 72.13 48.76 38 61.62 49 119 72 56.55 22.66 124.7 36.56 173.73 44.41"/>
            <path d="m5537.56 368.91 9.35 4.99-10.42 1.92z"/>
        </g>
        <g stroke="#000" class="edge">
            <path fill="none" d="M5163.42 184.34c9.68 18.39 26.09 48.01 43.16 71.66 68.69 95.19 229.79 128.09 152 216-23.41 26.46-243.18 42.55-359.91 49.29"/>
            <path d="m4999.06 524.78-10.19-2.93 9.79-4.06z"/>
        </g>
        <g stroke="#000" class="edge">
            <path fill="none" d="M5104.53 178.72c-50.47 11.81-128.61 30.11-183.87 43.04"/>
            <path d="m4921.59 225.14-10.53-1.13 8.94-5.69z"/>
        </g>
        <g stroke="#000" class="edge">
            <path fill="none" d="M5086.14 168.36c-78.99 3.37-211.86 14.64-319.56 51.64-210.95 72.47-219.99 189.14-434 252-51.53 15.14-815.69 41.43-1079.91 50.12"/>
            <path d="m3252.84 525.62-10.11-3.17 9.88-3.83z"/>
        </g>
        <g stroke="#000" class="edge">
            <path fill="none" d="M5154.58 184.49V383c0 67.84-60.03 66.42-124 89-79.8 28.17-644.08 45.37-859.6 50.98"/>
            <path d="m4171.35 526.47-10.09-3.24 9.91-3.76z"/>
        </g>
        <g stroke="#000" class="edge">
            <path fill="none" d="M5211.42 176.55c62.73 10.56 166.66 28.11 256.16 43.45 6.81 1.17 13.89 2.39 20.99 3.61"/>
            <path d="m5488.94 220.12 9.26 5.16-10.45 1.74z"/>
        </g>
        <g stroke="#000" class="edge">
            <path fill="none" d="M5087.41 170.19c-74.14 3.5-196.99 9.23-302.83 13.81-49.16 2.13-844.5 8.05-885 36-19.88 13.72-29.42 40.1-33.96 60.6"/>
            <path d="m3869.07 281.18-5.3 9.18-1.57-10.48z"/>
        </g>
        <g stroke="#000" class="edge">
            <path fill="none" d="M5835.21 174.67c-89.24 9.12-239.31 25.61-367.63 45.33-6.44.99-13.13 2.1-19.82 3.26"/>
            <path d="m5448.49 226.69-10.46-1.69 9.23-5.2z"/>
        </g>
        <g stroke="#000" class="edge">
            <path fill="none" d="M5899.5 183.93c-18.23 20.67-52.05 54.97-88.92 72.07-70.62 32.75-157.55 45.85-225.44 50.83"/>
            <path d="m5585.71 310.3-10.21-2.81 9.74-4.17z"/>
        </g>
        <g stroke="#000" class="edge">
            <path fill="none" d="M5833.17 173.78c-37.55 3.14-82.85 6.91-123.59 10.22-206.74 16.79-449.41 35.82-578.44 45.88"/>
            <path d="m5131.53 233.36-10.25-2.71 9.7-4.27z"/>
        </g>
        <g stroke="#000" class="edge">
            <path fill="none" d="M5997.99 171.9c80.07 8 182.53 29.02 141.59 84.1-55.55 74.75-336.89 108.08-468.69 119.77"/>
            <path d="m5671.53 379.23-10.27-2.62 9.66-4.35z"/>
        </g>
        <g stroke="#000" class="edge">
            <path fill="none" d="M6002.25 167.98c121.74 2.79 333 13.27 398.33 52.02 41.46 24.59 62 40.79 62 89v74c0 63.58-52.37 66.94-112 89-126.88 46.94-1076.52 52.36-1350.32 52.94"/>
            <path d="m5000.4 528.44-10-3.48 9.99-3.52z"/>
        </g>
        <g stroke="#000" class="edge">
            <path fill="none" d="M5834.19 174.29c-37.73 3.29-83.47 7.03-124.61 9.71-340.1 22.16-427.59-4.43-766 36-6.71.8-13.68 1.82-20.63 2.96"/>
            <path d="m4923.67 226.39-10.45-1.74 9.25-5.16z"/>
        </g>
        <g stroke="#000" class="edge">
            <path fill="none" d="M5996.78 172.59c68 6.5 156.43 20.06 178.8 47.41 34.6 42.31-47.21 104.07-53 108-103.77 70.55-149.04 52.49-273 72-290.63 45.75-1028.11 58.29-1322 72-480.83 22.43-1057.32 42.63-1274.98 50.02"/>
            <path d="m3252.89 525.51-10.12-3.16 9.88-3.83z"/>
        </g>
        <g stroke="#000" class="edge">
            <path fill="none" d="M6002.3 166.77c98.44 1.85 248.21 11.68 284.28 53.23 31.46 36.25 30.79 71.18 0 108-115.86 138.58-221.99 41.32-400 72-193.98 33.44-241.16 52.13-437 72-249.84 25.34-1021.56 45.09-1278.11 51.1"/>
            <path d="m4171.6 526.6-10.07-3.26 9.91-3.74z"/>
        </g>
        <g stroke="#000" class="edge">
            <path fill="none" d="M5852.17 179.35c-59.74 12.02-150.49 30.27-213.82 43.01"/>
            <path d="m5639.23 225.75-10.49-1.45 9.11-5.41z"/>
        </g>
        <g stroke="#000" class="edge">
            <path fill="none" d="M5977.55 178.78c70.64 13.32 175.27 34.08 181.03 41.22 10.05 12.45 7.46 21.84 0 36-82.87 157.31-442.46 139.36-487 144-371.85 38.76-1308.26 26.26-1682 36-159.51 4.16-344.86 10.08-455.35 13.72"/>
            <path d="m3534.4 453.22-10.11-3.17 9.88-3.83z"/>
        </g>
        <g stroke="#000" class="edge">
            <path fill="none" d="M5835.19 174.65c-37.91 3.42-84.09 7.16-125.61 9.35-714.3 37.72-896.91-31.54-1609 36-8.37.79-17.09 1.87-25.75 3.11"/>
            <path d="m4075.42 226.56-10.41-1.98 9.37-4.94z"/>
        </g>
        <g class="node" transform="translate(4 544)">
            <ellipse cx="6011.58" cy="-306" fill="none" stroke="#000" rx="115.33" ry="18"/>
            <text x="6011.58" y="-300.95" font-family="Times,serif" font-size="14" text-anchor="middle">:app:core:calendar-compose</text>
        </g>
        <g stroke="#000" class="edge">
            <path fill="none" d="M5938.01 183.77c13.03 8.94 29.26 20.08 43.5 29.85"/>
            <path d="m5983.48 210.73 6.27 8.54-10.23-2.77z"/>
        </g>
        <g stroke="#000" class="edge">
            <path fill="none" d="M5576.15 180.5c-39.69 11.29-96.51 27.46-139.21 39.61"/>
            <path d="m5438.16 223.4-10.58-.63 8.66-6.1z"/>
        </g>
        <g stroke="#000" class="edge">
            <path fill="none" d="M5677.32 179.24c21.66 7.86 44.5 20.53 57.26 40.76 8.53 13.53 10.13 23.61 0 36-20.05 24.53-93.41 37.98-157.27 45.19"/>
            <path d="m5577.75 304.66-10.32-2.4 9.57-4.56z"/>
        </g>
        <g stroke="#000" class="edge">
            <path fill="none" d="M5556.3 175.06c-106.81 12.81-315.04 37.77-431.92 51.78"/>
            <path d="m5124.86 230.3-10.34-2.28 9.51-4.67z"/>
        </g>
        <g stroke="#000" class="edge">
            <path fill="none" d="M5685.44 176.96c25.22 7.44 51.97 20.41 67.14 43.04 8.91 13.29 6.79 21.51 0 36-22.47 47.98-73.42 83.97-109.7 104.72"/>
            <path d="m5644.84 363.64-10.44 1.8 7.04-7.92z"/>
        </g>
        <g stroke="#000" class="edge">
            <path fill="none" d="M5694.49 173.29c155.89 13.85 514.76 45.82 516.09 46.71 102.31 68.15 199.26 163.45 114 252-46.26 48.05-1042.81 52.66-1324.45 53"/>
            <path d="m5000.35 528.5-10.01-3.49 10-3.51z"/>
        </g>
        <g stroke="#000" class="edge">
            <path fill="none" d="M5548.07 170.09c-125.81 5.78-386.08 20.4-604.49 49.91-6.52.88-13.29 1.93-20.04 3.08"/>
            <path d="m4924.18 226.52-10.46-1.7 9.24-5.19z"/>
        </g>
        <g stroke="#000" class="edge">
            <path fill="none" d="M5647.18 183.46c23.98 18.69 54.92 49.57 34.4 72.54-47.38 53.04-247.66 25.52-318 36-434.55 64.75-535.46 130.41-972 180-220.72 25.07-894.63 44.42-1138.62 50.77"/>
            <path d="m3253.27 526.26-10.09-3.24 9.91-3.76z"/>
        </g>
        <g stroke="#000" class="edge">
            <path fill="none" d="M5693.91 173.62c140.32 13.28 441.97 42.28 445.67 46.38 10.72 11.88 9.09 22.83 0 36-102.62 148.62-205.21 98.53-380 144-211.75 55.09-269.21 51.08-487 72-411.52 39.52-906.34 49.65-1100.75 52.18"/>
            <path d="m4172.13 527.68-10.04-3.37 9.96-3.63z"/>
        </g>
        <g stroke="#000" class="edge">
            <path fill="none" d="M5609.54 183.95c-6.84 8.25-15.21 18.35-22.8 27.51"/>
            <path d="m5589.53 213.58-9.07 5.47 3.68-9.94z"/>
        </g>
        <g stroke="#000" class="edge">
            <path fill="none" d="M5641.25 183.81c18.17 19.3 41.34 51.01 22.33 72.19-49.72 55.39-259.08 27.34-333 36-253.61 29.72-316.76 39.26-570 72-212.46 27.47-462.49 60.8-589.64 77.82"/>
            <path d="m4171.64 445.25-10.37-2.14 9.44-4.79z"/>
        </g>
        <g stroke="#000" class="edge">
            <path fill="none" d="M5548.84 170.69c-236.23 11.66-967.23 47.75-1239.59 61.19"/>
            <path d="m4309.48 235.38-10.16-3.01 9.81-3.99z"/>
        </g>
        <g stroke="#000" class="edge">
            <path fill="none" d="M4765.84 174.76c129.99 13.22 393.47 40.03 528.25 53.74"/>
            <path d="m5294.04 224.98 9.59 4.5-10.3 2.47z"/>
        </g>
        <g stroke="#000" class="edge">
            <path fill="none" d="M4698.86 184.38c12.33 21.13 36.29 55.91 67.72 71.62 102.81 51.4 401.41 26.9 516 36 29.87 2.37 62.34 5.18 91.9 7.82"/>
            <path d="m5374.5 296.3 9.64 4.38-10.27 2.6z"/>
        </g>
        <g stroke="#000" class="edge">
            <path fill="none" d="M4750.15 179.11c60.35 12.07 153.04 30.61 217.2 43.44"/>
            <path d="m4967.98 219.11 9.12 5.39-10.49 1.47z"/>
        </g>
        <g stroke="#000" class="edge">
            <path fill="none" d="M4690.41 184.32c2.02 20.73 8.77 54.75 31.17 71.68 92.94 70.24 414.69-6.91 523 36 23.49 9.31 21 25.55 44 36 78.23 35.54 177.2 47.46 242.9 51.34"/>
            <path d="m5531.63 375.85 9.8 4.03-10.17 2.96z"/>
        </g>
        <g stroke="#000" class="edge">
            <path fill="none" d="M4684.51 184.19c-4.72 19.96-8.65 52.6 9.07 71.81 43.28 46.92 223.72 18.11 285 36 129.05 37.67 201.11 26.26 266 144 7.72 14.01 10.34 23.79 0 36-30.74 36.29-160.8 47.75-244.77 51.36"/>
            <path d="m5000.18 526.85-10.13-3.1 9.85-3.9z"/>
        </g>
        <g stroke="#000" class="edge">
            <path fill="none" d="M4726.42 182.54c24.26 10.23 56.24 23.71 82.31 34.7"/>
            <path d="m4809.88 213.93 7.85 7.11-10.57-.66z"/>
        </g>
        <g stroke="#000" class="edge">
            <path fill="none" d="M4628.73 179.06c-61.09 12.5-147.99 31.5-161.15 40.94-110.39 79.19-51.36 191.51-173 252-46.34 23.04-781.99 44.04-1041.35 50.77"/>
            <path d="m3253.59 526.26-10.09-3.24 9.91-3.76z"/>
        </g>
        <g stroke="#000" class="edge">
            <path fill="none" d="M4680.13 184.13c-9.39 19.6-20.19 51.59-3.55 71.87 52.03 63.4 113.5-10.6 181 36 66.87 46.17 92.6 125.87 32 180-52.61 47-522.54 52.82-717.66 53.19"/>
            <path d="m4172.11 528.69-10-3.49 9.99-3.51z"/>
        </g>
        <g stroke="#000" class="edge">
            <path fill="none" d="M4774.18 169.89c143.18 5.53 442.22 19.85 693.4 50.11 7.49.9 15.27 1.99 23.03 3.18"/>
            <path d="m5491.11 219.71 9.33 5.03-10.43 1.89z"/>
        </g>
        <g stroke="#000" class="edge">
            <path fill="none" d="M4625.71 178.44c-10.41 1.86-21.07 3.77-31.13 5.56-90.21 16.07-117.75 2.4-203 36-109.41 43.13-132.12 68.16-222 144-22.67 19.12-45.27 44.22-60.98 62.88"/>
            <path d="m4111.3 429.11-9.08 5.46 3.69-9.93z"/>
        </g>
        <g stroke="#000" class="edge">
            <path fill="none" d="M4626.8 178.68c-10.74 1.87-21.79 3.71-32.22 5.32-123.57 19.02-155.21 18.45-279 36-8.77 1.24-17.93 2.59-27.06 3.96"/>
            <path d="m4289.34 227.37-10.41-1.97 9.36-4.95z"/>
        </g>
        <g class="node" transform="translate(4 544)">
            <ellipse cx="2764.58" cy="-90" fill="none" stroke="#000" rx="106.11" ry="18"/>
            <text x="2764.58" y="-84.95" font-family="Times,serif" font-size="14" text-anchor="middle">:library:firebase-common</text>
        </g>
        <g stroke="#000" class="edge">
            <path fill="none" d="M2815.25 400.3c-7.2 8.14-15.95 18.01-23.91 27"/>
            <path d="m2793.98 429.6-9.25 5.16 4.01-9.8z"/>
        </g>
        <g stroke="#000" class="edge">
            <path fill="none" d="M2303.15 399.78c33.18 20.84 93.56 55.66 150.43 72.22 83.34 24.27 327.68 41.21 455.69 48.69"/>
            <path d="m2909.24 517.18 9.78 4.07-10.18 2.92z"/>
        </g>
        <g stroke="#000" class="edge">
            <path fill="none" d="M933.82 467.05c15.15 1.96 30.92 3.74 45.76 4.95 383.82 31.28 1599.05 48.01 1927.49 52.04"/>
            <path d="m2906.91 520.53 9.95 3.63-10.04 3.37z"/>
        </g>
        <g stroke="#000" class="edge">
            <path fill="none" d="M520.97 400.04c21.94 21.48 63.14 57.34 106.61 71.96 110.05 37.01 1873.56 50.01 2279.24 52.52"/>
            <path d="m2906.65 521.02 9.98 3.56-10.02 3.44z"/>
        </g>
        <g stroke="#000" class="edge">
            <path fill="none" d="M725.68 400.26c-4.6 20.34-8.23 53.65 10.9 71.74 32.52 30.74 3177.36 32.82 3222 36 18.66 1.33 38.75 3.58 57.38 6.01"/>
            <path d="m4016.41 510.54 9.44 4.8-10.37 2.14z"/>
        </g>
        <g stroke="#000" class="edge">
            <path fill="none" d="M5929.54 250.38c-14.34 1.89-29.07 3.81-42.96 5.62-110.51 14.37-237.7 30.66-321.4 41.34"/>
            <path d="m5565.79 300.79-10.37-2.21 9.48-4.74z"/>
        </g>
        <g stroke="#000" class="edge">
            <path fill="none" d="M5989.46 255.88c-32 19.97-88.43 52.92-140.88 72.12-59.69 21.85-130.99 35.98-181.43 44.11"/>
            <path d="m5668 375.52-10.42-1.9 9.33-5.01z"/>
        </g>
        <g stroke="#000" class="edge">
            <path fill="none" d="M5997.86 256c-21.46 19.78-59.47 52.24-97.28 72-94.55 49.42-124.43 50.84-229 72-165.84 33.56-216.76-12.03-379 36-33.17 9.82-35.61 26.98-69 36-100.56 27.16-807.25 45.55-1052.45 51.18"/>
            <path d="m4171.4 526.68-10.08-3.27 9.92-3.73z"/>
        </g>
    </g>
</svg>
