<svg xmlns="http://www.w3.org/2000/svg" width="6539pt" height="476pt" viewBox="0 0 6538.58 476">
    <g class="graph">
        <path fill="#fff" d="M0 476V0h6538.58v476z"/>
        <g class="node" transform="translate(4 472)">
            <ellipse cx="3626.58" cy="-450" fill="none" stroke="#000" rx="97.41" ry="18"/>
            <text x="3626.58" y="-444.95" font-family="Times,serif" font-size="14" text-anchor="middle">:app:platform:common</text>
        </g>
        <g class="node" transform="translate(4 472)">
            <ellipse cx="5445.58" cy="-306" fill="none" stroke="#000" rx="81.04" ry="18"/>
            <text x="5445.58" y="-300.95" font-family="Times,serif" font-size="14" text-anchor="middle">:app:core:compose</text>
        </g>
        <g stroke="#000" class="edge">
            <path fill="none" d="M3727.94 23.57c331.5 2.27 1403.97 12.67 1553.64 52.43 50.59 13.44 102.98 44.38 135.52 65.99"/>
            <path d="m5418.95 139.02 6.33 8.49-10.25-2.69z"/>
        </g>
        <g class="node" transform="translate(4 472)">
            <ellipse cx="5485.58" cy="-234" fill="none" stroke="#000" rx="101" ry="18"/>
            <text x="5485.58" y="-228.95" font-family="Times,serif" font-size="14" text-anchor="middle">:app:core:design-system</text>
        </g>
        <g stroke="#000" class="edge">
            <path fill="none" d="M3728 23.51C4149.33 25.93 5795.32 37.83 5832.58 76c15.51 15.89 8.27 90.15-9 108-30.43 31.45-138.65 44.24-223.77 49.44"/>
            <path d="m5600.19 236.93-10.18-2.92 9.78-4.07z"/>
        </g>
        <g class="node" transform="translate(4 472)">
            <ellipse cx="5107.58" cy="-306" fill="none" stroke="#000" rx="86.67" ry="18"/>
            <text x="5107.58" y="-300.95" font-family="Times,serif" font-size="14" text-anchor="middle">:app:core:navigation</text>
        </g>
        <g stroke="#000" class="edge">
            <path fill="none" d="M3727.87 23.77c248.74 2.52 903.29 12.8 1116.71 52.23 79.56 14.7 167.91 47.62 220.39 69.04"/>
            <path d="m5065.98 141.67 7.91 7.05-10.58-.58z"/>
        </g>
        <g class="node" transform="translate(4 472)">
            <ellipse cx="5633.58" cy="-162" fill="none" stroke="#000" rx="59.54" ry="18"/>
            <text x="5633.58" y="-156.95" font-family="Times,serif" font-size="14" text-anchor="middle">:library:color</text>
        </g>
        <g stroke="#000" class="edge">
            <path fill="none" d="M3728.33 22.61c427.79-1.37 2124.12-3.14 2355.25 53.39 70.28 17.19 107.79 10.56 146 72 45.01 72.38-94.97 105.34-102 108-75.14 28.39-303.62 43.64-420.11 49.76"/>
            <path d="m5707.9 309.24-10.17-2.98 9.81-4.01z"/>
        </g>
        <g class="node" transform="translate(4 472)">
            <ellipse cx="5070.58" cy="-18" fill="none" stroke="#000" rx="62.1" ry="18"/>
            <text x="5070.58" y="-12.95" font-family="Times,serif" font-size="14" text-anchor="middle">:library:kotlin</text>
        </g>
        <g stroke="#000" class="edge">
            <path fill="none" d="M3727.98 23.84c434.26 3.91 2183.16 21.44 2426.6 52.16 172.09 21.72 380-84.46 380 89v146c0 96.89-104.69 66.79-199 89-227.7 53.62-952.8 54.67-1187.17 53.54"/>
            <path d="m5148.46 457.04-9.98-3.56 10.02-3.44z"/>
        </g>
        <g class="node" transform="translate(4 472)">
            <ellipse cx="4923.58" cy="-306" fill="none" stroke="#000" rx="79.5" ry="18"/>
            <text x="4923.58" y="-300.95" font-family="Times,serif" font-size="14" text-anchor="middle">:library:navigation</text>
        </g>
        <g stroke="#000" class="edge">
            <path fill="none" d="M3727.35 24.33c261.8 4.04 971.13 17.98 1071.23 51.67 39.96 13.45 78.81 43.23 103.26 64.64"/>
            <path d="m4903.93 137.81 5.11 9.28-9.79-4.06z"/>
        </g>
        <g class="node" transform="translate(4 472)">
            <ellipse cx="3160.58" cy="-18" fill="none" stroke="#000" rx="78.99" ry="18"/>
            <text x="3160.58" y="-12.95" font-family="Times,serif" font-size="14" text-anchor="middle">:library:coroutines</text>
        </g>
        <g stroke="#000" class="edge">
            <path fill="none" d="M3533.22 23.85C3201.1 27.05 2124.85 40.1 1973.58 76c-91.51 21.72-192-5.06-192 89v146c0 43.55 4.66 64.99 41 89 58.15 38.42 1184.72 28.37 1254 36 6.9.76 14.07 1.77 21.21 2.93"/>
            <path d="m3098.17 435.44 9.26 5.14-10.45 1.76z"/>
        </g>
        <g class="node" transform="translate(4 472)">
            <ellipse cx="4071.58" cy="-18" fill="none" stroke="#000" rx="72.85" ry="18"/>
            <text x="4071.58" y="-12.95" font-family="Times,serif" font-size="14" text-anchor="middle">:library:datetime</text>
        </g>
        <g stroke="#000" class="edge">
            <path fill="none" d="M3718.47 29.99c92.17 8.08 241.02 23.26 368.11 46.01 133.27 23.86 169.14 24.71 296 72 32.78 12.22 37.09 24.13 70 36 69.79 25.17 104.75-9.95 163 36 27.94 22.03 27.02 37.33 35 72 12.13 52.69-8.7 81.81-56 108-72.68 40.25-307.74 50.03-435.11 52.34"/>
            <path d="m4159.81 455.84-10.06-3.34 9.94-3.66z"/>
        </g>
        <g class="node" transform="translate(4 472)">
            <ellipse cx="5633.58" cy="-306" fill="none" stroke="#000" rx="89.23" ry="18"/>
            <text x="5633.58" y="-300.95" font-family="Times,serif" font-size="14" text-anchor="middle">:library:shimmer-m3</text>
        </g>
        <g stroke="#000" class="edge">
            <path fill="none" d="M3728.39 22.72c314.4-.37 1296.91 2.67 1610.19 53.28 89.59 14.47 190.01 48.13 248.69 69.66"/>
            <path d="m5588.14 142.25 8.17 6.75-10.6-.18z"/>
        </g>
        <g class="node" transform="translate(4 472)">
            <ellipse cx="3359.58" cy="-306" fill="none" stroke="#000" rx="71.31" ry="18"/>
            <text x="3359.58" y="-300.95" font-family="Times,serif" font-size="14" text-anchor="middle">:app:data:memo</text>
        </g>
        <g stroke="#000" class="edge">
            <path fill="none" d="M3590.36 38.8c-24.11 9.88-55.15 23.33-81.78 37.2-39.25 20.44-82.23 47.44-111.12 66.32"/>
            <path d="m3399.4 145.24-10.28 2.57 6.43-8.42z"/>
        </g>
        <g class="node" transform="translate(4 472)">
            <ellipse cx="3173.58" cy="-306" fill="none" stroke="#000" rx="58.52" ry="18"/>
            <text x="3173.58" y="-300.95" font-family="Times,serif" font-size="14" text-anchor="middle">:app:data:tag</text>
        </g>
        <g stroke="#000" class="edge">
            <path fill="none" d="M3538.4 28.17c-96.32 6.74-239.96 20.99-287.82 47.83-25.65 14.39-45.93 41.64-58.54 62.21"/>
            <path d="m3195.16 139.81-8.08 6.86 2.04-10.4z"/>
        </g>
        <g class="node" transform="translate(4 472)">
            <ellipse cx="2502.58" cy="-162" fill="none" stroke="#000" rx="75.92" ry="18"/>
            <text x="2502.58" y="-156.95" font-family="Times,serif" font-size="14" text-anchor="middle">:app:data:account</text>
        </g>
        <g stroke="#000" class="edge">
            <path fill="none" d="M3533.74 24.53c-200.91 3.85-656.88 16.29-808.16 51.47-80.32 18.68-115.95 10.61-171 72-33.44 37.3-43.62 97.01-46.69 132.28"/>
            <path d="m2511.39 280.43-4.21 9.72-2.78-10.22z"/>
        </g>
        <g class="node" transform="translate(4 472)">
            <ellipse cx="2158.58" cy="-378" fill="none" stroke="#000" rx="83.6" ry="18"/>
            <text x="2158.58" y="-372.95" font-family="Times,serif" font-size="14" text-anchor="middle">:app:data:credential</text>
        </g>
        <g stroke="red" stroke-width="2" class="edge">
            <path fill="none" d="M3536.82 27.11C3340.97 35.74 2874.15 56.56 2482.58 76c-77.06 3.83-164.53 8.49-228.52 11.97"/>
            <path fill="red" d="m2255.99 91.37-10.18-2.95 9.8-4.04z"/>
        </g>
        <g class="node" transform="translate(4 472)">
            <ellipse cx="1674.58" cy="-162" fill="none" stroke="#000" rx="74.89" ry="18"/>
            <text x="1674.58" y="-156.95" font-family="Times,serif" font-size="14" text-anchor="middle">:app:data:holiday</text>
        </g>
        <g stroke="#000" class="edge">
            <path fill="none" d="M3532.82 22.79c-373.47-.41-1692.8 1.8-1765.24 53.21-67.2 47.69-83.68 153.24-87.7 204.27"/>
            <path d="m1683.37 280.46-4.16 9.75-2.82-10.22z"/>
        </g>
        <g class="node" transform="translate(4 472)">
            <ellipse cx="1923.58" cy="-234" fill="none" stroke="#000" rx="73.87" ry="18"/>
            <text x="1923.58" y="-228.95" font-family="Times,serif" font-size="14" text-anchor="middle">:app:data:backup</text>
        </g>
        <g stroke="#000" class="edge">
            <path fill="none" d="M3533.19 23.54C3193.81 25.78 2080.33 36.15 2015.58 76c-48.06 29.58-71.75 95.33-81.78 133.02"/>
            <path d="m1937.31 209.42-5.83 8.85-.96-10.55z"/>
        </g>
        <g class="node" transform="translate(4 472)">
            <ellipse cx="2625.58" cy="-306" fill="none" stroke="#000" rx="65.68" ry="18"/>
            <text x="2625.58" y="-300.95" font-family="Times,serif" font-size="14" text-anchor="middle">:app:data:fetch</text>
        </g>
        <g stroke="#000" class="edge">
            <path fill="none" d="M3534.13 24.89c-184.39 4.35-580.34 17.39-712.55 51.11-57.27 14.61-118.39 46-155.9 67.32"/>
            <path d="m2667.48 146.32-10.41 1.96 6.91-8.02z"/>
        </g>
        <g class="node" transform="translate(4 472)">
            <ellipse cx="3007.58" cy="-234" fill="none" stroke="#000" rx="62.1" ry="18"/>
            <text x="3007.58" y="-228.95" font-family="Times,serif" font-size="14" text-anchor="middle">:app:data:fcm</text>
        </g>
        <g stroke="#000" class="edge">
            <path fill="none" d="M3573.43 36.87c-37.39 9.64-87.05 23.53-129.85 39.13-73.27 26.7-95.23 28.58-160 72-19.32 12.96-17.48 25.04-38 36-.99.53-105.9 24.19-174.9 39.71"/>
            <path d="m3071.52 227.11-10.53-1.22 8.99-5.61z"/>
        </g>
        <g class="node" transform="translate(4 472)">
            <ellipse cx="3833.58" cy="-234" fill="none" stroke="#000" rx="84.11" ry="18"/>
            <text x="3833.58" y="-228.95" font-family="Times,serif" font-size="14" text-anchor="middle">:app:domain:memo</text>
        </g>
        <g stroke="#000" class="edge">
            <path fill="none" d="M3678.87 38.02c20.81 8.44 44.11 20.8 60.71 37.98 36.5 37.77 18.9 64.27 48 108 6.62 9.95 15.17 19.78 23.32 28.22"/>
            <path d="m3813.16 209.53 4.6 9.54-9.55-4.59z"/>
        </g>
        <g class="node" transform="translate(4 472)">
            <ellipse cx="4158.58" cy="-234" fill="none" stroke="#000" rx="71.31" ry="18"/>
            <text x="4158.58" y="-228.95" font-family="Times,serif" font-size="14" text-anchor="middle">:app:domain:tag</text>
        </g>
        <g stroke="#000" class="edge">
            <path fill="none" d="M3683.75 37.52c25.86 8.63 56.52 21.29 80.83 38.48 51.95 36.75 38.57 76.74 94 108 37.91 21.39 150.19 36.98 227.15 45.51"/>
            <path d="m4085.75 226 9.56 4.56-10.32 2.39z"/>
        </g>
        <g class="node" transform="translate(4 472)">
            <ellipse cx="4071.58" cy="-90" fill="none" stroke="#000" rx="88.71" ry="18"/>
            <text x="4071.58" y="-84.95" font-family="Times,serif" font-size="14" text-anchor="middle">:app:domain:account</text>
        </g>
        <g stroke="#000" class="edge">
            <path fill="none" d="M3643.02 40.2c7.06 10.15 15.81 23.4 22.56 35.8 41.78 76.73 12.9 122.87 79 180 45.68 39.48 79.02 5.28 131 36 19.21 11.35 16.04 24.24 35 36 28.01 17.37 62.26 29.58 92.28 37.87"/>
            <path d="m4003.48 362.41 8.77 5.94-10.56.82z"/>
        </g>
        <g class="node" transform="translate(4 472)">
            <ellipse cx="4273.58" cy="-306" fill="none" stroke="#000" rx="96.39" ry="18"/>
            <text x="4273.58" y="-300.95" font-family="Times,serif" font-size="14" text-anchor="middle">:app:domain:credential</text>
        </g>
        <g stroke="#000" class="edge">
            <path fill="none" d="M3710.02 32.72c44.03 7.6 98.75 20.79 143.56 43.28 22.28 11.18 20.22 25.89 43 36 48.91 21.7 185.86 37 281.47 45.41"/>
            <path d="m4178.33 153.92 9.66 4.35-10.26 2.62z"/>
        </g>
        <g class="node" transform="translate(4 472)">
            <ellipse cx="3496.58" cy="-90" fill="none" stroke="#000" rx="87.69" ry="18"/>
            <text x="3496.58" y="-84.95" font-family="Times,serif" font-size="14" text-anchor="middle">:app:domain:holiday</text>
        </g>
        <g stroke="#000" class="edge">
            <path fill="none" d="M3631.4 40.41c1.5 49.24.09 192.11-59.82 287.59-7.54 12.01-18.85 22.25-30.25 30.42"/>
            <path d="m3543.33 361.3-10.25 2.66 6.35-8.48z"/>
        </g>
        <g class="node" transform="translate(4 472)">
            <ellipse cx="3739.58" cy="-162" fill="none" stroke="#000" rx="86.67" ry="18"/>
            <text x="3739.58" y="-156.95" font-family="Times,serif" font-size="14" text-anchor="middle">:app:domain:backup</text>
        </g>
        <g stroke="#000" class="edge">
            <path fill="none" d="M3635.29 40.44c10.93 39.43 39.89 138.03 76.29 215.56 4.11 8.76 9.29 17.91 14.27 26.09"/>
            <path d="m3728.81 280.23 2.35 10.33-8.28-6.61z"/>
        </g>
        <g class="node" transform="translate(4 472)">
            <ellipse cx="3432.58" cy="-234" fill="none" stroke="#000" rx="78.48" ry="18"/>
            <text x="3432.58" y="-228.95" font-family="Times,serif" font-size="14" text-anchor="middle">:app:domain:fetch</text>
        </g>
        <g stroke="#000" class="edge">
            <path fill="none" d="M3600.15 39.5c-15.81 9.44-34.86 22.24-49.57 36.5-42.56 41.26-79.69 100.33-99.27 134.26"/>
            <path d="m3454.54 211.66-7.98 6.96 1.9-10.42z"/>
        </g>
        <g class="node" transform="translate(4 472)">
            <ellipse cx="3483.58" cy="-162" fill="none" stroke="#000" rx="74.89" ry="18"/>
            <text x="3483.58" y="-156.95" font-family="Times,serif" font-size="14" text-anchor="middle">:app:domain:fcm</text>
        </g>
        <g stroke="#000" class="edge">
            <path fill="none" d="M3618.82 40.24c-6.66 10.16-14.91 23.41-21.24 35.76-39.44 76.98-33.04 103.82-74 180-4.85 9.01-10.86 18.39-16.57 26.71"/>
            <path d="m3510.02 284.51-8.63 6.16 2.91-10.19z"/>
        </g>
        <g class="node" transform="translate(4 472)">
            <ellipse cx="3954.58" cy="-306" fill="none" stroke="#000" rx="91.27" ry="18"/>
            <text x="3954.58" y="-300.95" font-family="Times,serif" font-size="14" text-anchor="middle">:app:domain:calendar</text>
        </g>
        <g stroke="#000" class="edge">
            <path fill="none" d="M3696.08 35.63c36.4 8.5 81.8 21.63 119.5 40.37 23.88 11.87 25.64 21.47 48 36 17.05 11.08 36.56 22.21 53.45 31.39"/>
            <path d="m3918.67 140.31 7.15 7.82-10.46-1.66z"/>
        </g>
        <g class="node" transform="translate(4 472)">
            <ellipse cx="3987.58" cy="-378" fill="none" stroke="#000" rx="86.15" ry="18"/>
            <text x="3987.58" y="-372.95" font-family="Times,serif" font-size="14" text-anchor="middle">:app:core:coroutines</text>
        </g>
        <g stroke="#000" class="edge">
            <path fill="none" d="M3695.95 35.68c62.91 12.19 157.83 30.6 223.05 43.25"/>
            <path d="m3919.37 75.43 9.15 5.34-10.48 1.53z"/>
        </g>
        <g class="node" transform="translate(4 472)">
            <ellipse cx="658.58" cy="-234" fill="none" stroke="#000" rx="132.22" ry="18"/>
            <text x="658.58" y="-228.95" font-family="Times,serif" font-size="14" text-anchor="middle">:app:core:backup-database-room</text>
        </g>
        <g stroke="#000" class="edge">
            <path fill="none" d="M3533.25 23.65c-422.14 3-2083.66 16.98-2314.67 52.35-189.39 28.99-405.06 104.1-502.83 140.55"/>
            <path d="m716.99 219.82-10.59.24 8.13-6.79z"/>
        </g>
        <g class="node" transform="translate(4 472)">
            <ellipse cx="1423.58" cy="-162" fill="none" stroke="#000" rx="158.32" ry="18"/>
            <text x="1423.58" y="-156.95" font-family="Times,serif" font-size="14" text-anchor="middle">:app:core:account-preferences-datastore</text>
        </g>
        <g stroke="#000" class="edge">
            <path fill="none" d="M3533.45 24.04C3157.57 28.28 1815.1 45.51 1729.58 76c-121.8 43.43-233.51 156.18-279.64 207.22"/>
            <path d="m1452.63 285.46-9.28 5.13 4.05-9.79z"/>
        </g>
        <g class="node" transform="translate(4 472)">
            <ellipse cx="383.58" cy="-234" fill="none" stroke="#000" rx="124.54" ry="18"/>
            <text x="383.58" y="-228.95" font-family="Times,serif" font-size="14" text-anchor="middle">:app:core:diary-database-room</text>
        </g>
        <g stroke="#000" class="edge">
            <path fill="none" d="M3533.12 23.74C3092.45 27.24 1296.99 43.42 1047.58 76 822.12 105.45 561.95 181.85 447.2 217.78"/>
            <path d="m448.59 221.01-10.59-.33 8.49-6.34z"/>
        </g>
        <g class="node" transform="translate(4 472)">
            <ellipse cx="2015.58" cy="-162" fill="none" stroke="#000" rx="95.88" ry="18"/>
            <text x="2015.58" y="-156.95" font-family="Times,serif" font-size="14" text-anchor="middle">:app:core:diary-service</text>
        </g>
        <g stroke="#000" class="edge">
            <path fill="none" d="M3532.85 23.04c-333.18.54-1407.08 5.95-1463.27 52.96-60.24 50.4-58.63 154.19-53.78 204.46"/>
            <path d="m2019.26 279.92-2.39 10.32-4.56-9.56z"/>
        </g>
        <g class="node" transform="translate(4 472)">
            <ellipse cx="104.58" cy="-90" fill="none" stroke="#000" rx="104.58" ry="18"/>
            <text x="104.58" y="-84.95" font-family="Times,serif" font-size="14" text-anchor="middle">:app:core:holiday-service</text>
        </g>
        <g stroke="#000" class="edge">
            <path fill="none" d="M3533.05 23.43C3104.41 25.51 1385.19 36.26 846.58 76c-154.18 11.38-690-65.6-690 89v74c0 41.58-18.7 86.58-32.76 114.53"/>
            <path d="m126.94 355.11-7.72 7.25 1.52-10.48z"/>
        </g>
        <g class="node" transform="translate(4 472)">
            <ellipse cx="1052.58" cy="-162" fill="none" stroke="#000" rx="157.3" ry="18"/>
            <text x="1052.58" y="-156.95" font-family="Times,serif" font-size="14" text-anchor="middle">:app:core:holiday-preferences-datastore</text>
        </g>
        <g stroke="#000" class="edge">
            <path fill="none" d="M3533.32 23.64C3160.94 26.36 1837.45 38.58 1652.58 76c-217.78 44.09-459.05 161.5-554.19 210.76"/>
            <path d="m1100.15 289.79-10.49 1.52 7.26-7.73z"/>
        </g>
        <g class="node" transform="translate(4 472)">
            <ellipse cx="941.58" cy="-234" fill="none" stroke="#000" rx="133.24" ry="18"/>
            <text x="941.58" y="-228.95" font-family="Times,serif" font-size="14" text-anchor="middle">:app:core:holiday-database-room</text>
        </g>
        <g stroke="#000" class="edge">
            <path fill="none" d="M3533.08 23.19c-408.79 1.09-1973.4 8.15-2189.5 52.81-137.06 28.32-287.17 101.71-357.46 138.82"/>
            <path d="m988.15 217.7-10.47 1.61 7.18-7.79z"/>
        </g>
        <g class="node" transform="translate(4 472)">
            <ellipse cx="4511.58" cy="-378" fill="none" stroke="#000" rx="81.55" ry="18"/>
            <text x="4511.58" y="-372.95" font-family="Times,serif" font-size="14" text-anchor="middle">:app:feature:memo</text>
        </g>
        <g stroke="#000" class="edge">
            <path fill="none" d="M3725.72 26.32c147.96 5.87 441.97 20.32 689.86 49.68 9.01 1.07 18.45 2.39 27.78 3.83"/>
            <path d="m4443.82 76.36 9.33 5.03-10.43 1.89z"/>
        </g>
        <g class="node" transform="translate(4 472)">
            <ellipse cx="5750.58" cy="-378" fill="none" stroke="#000" rx="68.75" ry="18"/>
            <text x="5750.58" y="-372.95" font-family="Times,serif" font-size="14" text-anchor="middle">:app:feature:tag</text>
        </g>
        <g stroke="#000" class="edge">
            <path fill="none" d="M3728.13 23.31c284.89 1.42 1140.25 9.28 1848.45 52.69 34.51 2.12 72.68 5.61 104.79 8.88"/>
            <path d="m5681.37 81.36 9.59 4.51-10.31 2.45z"/>
        </g>
        <g class="node" transform="translate(4 472)">
            <ellipse cx="5981.58" cy="-378" fill="none" stroke="#000" rx="88.71" ry="18"/>
            <text x="5981.58" y="-372.95" font-family="Times,serif" font-size="14" text-anchor="middle">:app:feature:calendar</text>
        </g>
        <g stroke="#000" class="edge">
            <path fill="none" d="M3728.16 23.48C4103.58 25.59 5455 35.88 5882.58 76c9.21.86 18.84 2.06 28.36 3.42"/>
            <path d="m5911.16 75.91 9.37 4.95-10.41 1.98z"/>
        </g>
        <g class="node" transform="translate(4 472)">
            <ellipse cx="5191.58" cy="-378" fill="none" stroke="#000" rx="76.94" ry="18"/>
            <text x="5191.58" y="-372.95" font-family="Times,serif" font-size="14" text-anchor="middle">:app:feature:more</text>
        </g>
        <g stroke="#000" class="edge">
            <path fill="none" d="M3727.91 23.16C3960.82 24.3 4568.5 31.65 5073.58 76c15.84 1.39 32.76 3.41 48.81 5.57"/>
            <path d="m5122.42 78.04 9.42 4.84-10.38 2.09z"/>
        </g>
        <g class="node" transform="translate(4 472)">
            <ellipse cx="4699.58" cy="-378" fill="none" stroke="#000" rx="86.15" ry="18"/>
            <text x="4699.58" y="-372.95" font-family="Times,serif" font-size="14" text-anchor="middle">:app:feature:account</text>
        </g>
        <g stroke="#000" class="edge">
            <path fill="none" d="M3727.52 24.44c175.76 3.46 558.52 14.9 879.06 51.56 7.79.89 15.91 2.01 23.98 3.24"/>
            <path d="m4631.09 75.78 9.32 5.04-10.43 1.88z"/>
        </g>
        <g class="node" transform="translate(4 472)">
            <ellipse cx="2784.58" cy="-162" fill="none" stroke="#000" rx="112.26" ry="18"/>
            <text x="2784.58" y="-156.95" font-family="Times,serif" font-size="14" text-anchor="middle">:library:firebase-messaging</text>
        </g>
        <g stroke="#000" class="edge">
            <path fill="none" d="M3535.04 25.88c-86.98 4.75-218.13 17.25-327.46 50.12-138.19 41.55-166.75 70.61-291 144-34.3 20.26-71.48 46.65-96.88 65.42"/>
            <path d="m2821.9 288.14-10.11 3.16 5.93-8.77z"/>
        </g>
        <g stroke="#000" class="edge">
            <path fill="none" d="M5459.47 184.3c4.45 7.8 9.82 17.19 14.78 25.87"/>
            <path d="m5477.13 208.16 1.92 10.42-8-6.94z"/>
        </g>
        <g stroke="#000" class="edge">
            <path fill="none" d="M5523.91 255.24c21.52 10.18 49.41 23.36 72.17 34.13"/>
            <path d="m5597.55 286.2 7.55 7.44-10.54-1.12z"/>
        </g>
        <g stroke="#000" class="edge">
            <path fill="none" d="M5464.88 255.74c-52.5 34.54-180.24 113.06-300.3 144.26-189.41 49.23-783.33 53.51-1004.72 53.34"/>
            <path d="m4160.17 456.84-10-3.52 10.01-3.48z"/>
        </g>
        <g stroke="#000" class="edge">
            <path fill="none" d="M5106.87 184.45c-13.19 45.06-55.18 165.33-139.29 215.55-68.22 40.74-598.56 50.22-807.65 52.38"/>
            <path d="m4159.97 455.88-10.04-3.4 9.97-3.6z"/>
        </g>
        <g stroke="#000" class="edge">
            <path fill="none" d="M4936.34 184.23c11.46 23.6 30.94 67.62 38.24 107.77 9.1 50.06 4.75 80.4-38 108-64.17 41.43-572.9 50.49-776.85 52.46"/>
            <path d="m4160.04 455.95-10.04-3.4 9.97-3.6z"/>
        </g>
        <g stroke="#000" class="edge">
            <path fill="none" d="M5637.58 184.41v96.17"/>
            <path d="m5641.08 280.38-3.5 10-3.5-10z"/>
        </g>
        <g stroke="#000" class="edge">
            <path fill="none" d="M3316.62 179.86c-51.56 16.75-132.39 51.33-173.04 112.14-26.77 40.04-21.27 61.42-9 108 2.39 9.06 6.71 18.19 11.35 26.27"/>
            <path d="m3148.77 424.21 2.29 10.35-8.24-6.67z"/>
        </g>
        <g stroke="#000" class="edge">
            <path fill="none" d="M3357.9 183.96c-3.14 10.3-6.73 23.77-8.32 36.04-6.65 51.23-.41 79.98 43 108 118.01 76.19 186.69-23.36 314 36 21.08 9.83 17.14 25.7 38 36 43.16 21.31 168.71 37.2 252.18 45.79"/>
            <path d="m3996.89 442.28 9.6 4.49-10.3 2.48z"/>
        </g>
        <g stroke="#000" class="edge">
            <path fill="none" d="M3424.09 175.94c85.14 12.57 240.39 35.5 334.52 49.4"/>
            <path d="m3758.9 221.84 9.38 4.93-10.4 2z"/>
        </g>
        <g class="node" transform="translate(4 472)">
            <ellipse cx="2307.58" cy="-162" fill="none" stroke="#000" rx="101.51" ry="18"/>
            <text x="2307.58" y="-156.95" font-family="Times,serif" font-size="14" text-anchor="middle">:app:core:diary-database</text>
        </g>
        <g stroke="#000" class="edge">
            <path fill="none" d="M3303.29 175.99c-18.5 2.68-38.93 5.55-57.71 8.01-135.34 17.73-169.61 18.62-305 36-230.98 29.65-288.59 38.22-519 72-7.95 1.17-16.23 2.4-24.5 3.65"/>
            <path d="m2397.72 299.1-10.41-1.96 9.36-4.96z"/>
        </g>
        <g stroke="#000" class="edge">
            <path fill="none" d="M3121.51 171.6c-62.79 6.45-158.69 20.64-180.93 48.4-38.5 48.06-34.89 96.57 53 180 15.28 14.5 62.33 28.51 103.22 38.48"/>
            <path d="m3097.47 435.04 8.92 5.72-10.54 1.09z"/>
        </g>
        <g stroke="#000" class="edge">
            <path fill="none" d="M3190 184.07c25.87 34.08 89.27 110.17 162.58 143.93 121.98 56.18 174.02-10.52 300 36 27.06 9.99 27.06 25.7 54 36 51.5 19.7 197.92 36.65 290.08 45.79"/>
            <path d="m3996.79 442.29 9.61 4.46-10.3 2.5z"/>
        </g>
        <g stroke="#000" class="edge">
            <path fill="none" d="M3227.05 176.02c17.77 2.95 38 5.98 56.53 7.98 286.34 30.84 359.6 17.48 647 36 50.98 3.29 108.22 7.47 153.09 10.87"/>
            <path d="m4083.88 227.38 9.7 4.25-10.23 2.73z"/>
        </g>
        <g stroke="#000" class="edge">
            <path fill="none" d="M3119.6 169.26c-132.92 5.6-456.26 21.85-561.02 50.74-35.26 9.72-39.97 22.6-74 36-34.8 13.7-74.64 26.12-107.31 35.48"/>
            <path d="m2378.51 294.77-10.57-.64 8.66-6.1z"/>
        </g>
        <g stroke="#000" class="edge">
            <path fill="none" d="M2506.18 328.22c.54 20.63 4.93 54.55 26.4 71.78 47.24 37.92 483.92 28.24 544 36 6.7.87 13.67 1.93 20.61 3.09"/>
            <path d="m3097.68 435.63 9.24 5.18-10.45 1.71z"/>
        </g>
        <g stroke="#000" class="edge">
            <path fill="none" d="M2519.55 327.96c17.51 21.37 50.95 57.13 89.03 72.04 128.66 50.38 1105.02 28.77 1243 36 48.27 2.53 102.29 6.59 145.19 10.11"/>
            <path d="m3996.81 442.6 9.68 4.32-10.26 2.66z"/>
        </g>
        <g stroke="#000" class="edge">
            <path fill="none" d="M2573.07 319.04c28.99 3.24 63.39 6.73 94.51 8.96 65.13 4.66 1001.35 38.43 1310.06 49.5"/>
            <path d="m3977.41 373.99 9.87 3.85-10.12 3.14z"/>
        </g>
        <g class="node" transform="translate(4 472)">
            <ellipse cx="2243.58" cy="-90" fill="none" stroke="#000" rx="121.98" ry="18"/>
            <text x="2243.58" y="-84.95" font-family="Times,serif" font-size="14" text-anchor="middle">:app:core:account-preferences</text>
        </g>
        <g stroke="#000" class="edge">
            <path fill="none" d="M2457.86 324.17c-40.25 10.88-97.85 26.44-142.59 38.53"/>
            <path d="m2316.22 366.07-10.57-.77 8.74-5.98z"/>
        </g>
        <g stroke="#000" class="edge">
            <path fill="none" d="M2102.83 106.91c-98.27 21.32-283.25 69.51-283.25 130.09v74c0 43.19 3.2 64.84 39 89 56.11 37.87 1150.71 28.56 1218 36 6.9.76 14.07 1.78 21.2 2.93"/>
            <path d="m3098.17 435.45 9.26 5.14-10.45 1.75z"/>
        </g>
        <g stroke="#000" class="edge">
            <path fill="none" d="M2162.94 112.21c1.37 48.51 7.86 184.86 37.64 215.79 55.98 58.14 98.92 19.82 178 36 77.37 15.83 95.56 26.87 174 36 573.68 66.77 722.22 6.14 1299 36 48.27 2.5 102.29 6.56 145.2 10.09"/>
            <path d="m3996.81 442.58 9.68 4.32-10.26 2.66z"/>
        </g>
        <g stroke="red" stroke-width="2" class="edge">
            <path fill="none" d="M2245.8 95.86c264.93 3.04 1112.35 15.19 1812.78 52.14 40.12 2.12 84.31 5.37 122.42 8.47"/>
            <path fill="red" d="m4179.4 152.82 9.68 4.31-10.25 2.67z"/>
        </g>
        <g stroke="#000" class="edge">
            <path fill="none" d="M2151.12 112.15c-24.89 37.25-84.05 125.78-113.81 170.31"/>
            <path d="m2040.4 284.14-8.46 6.37 2.64-10.26z"/>
        </g>
        <g stroke="#000" class="edge">
            <path fill="none" d="M2157.89 112.17c-10.06 40.56-29.75 144.24 9.69 215.83 6.98 12.67 18.42 22.84 30.5 30.75"/>
            <path d="m2199.76 355.68 6.77 8.15-10.37-2.16z"/>
        </g>
        <g stroke="#000" class="edge">
            <path fill="none" d="M1682.96 328.38c6.34 21.13 20.33 55.91 46.62 71.62 64.26 38.4 1272.58 27.87 1347 36 6.9.75 14.07 1.76 21.21 2.91"/>
            <path d="m3098.17 435.43 9.26 5.13-10.44 1.77z"/>
        </g>
        <g stroke="#000" class="edge">
            <path fill="none" d="M1705.96 327.21c37.92 21.45 109.27 58.25 175.62 72.79 213.85 46.86 1751.32 25.71 1970 36 48.28 2.27 102.31 6.33 145.2 9.91"/>
            <path d="m3996.83 442.4 9.67 4.33-10.26 2.64z"/>
        </g>
        <g stroke="#000" class="edge">
            <path fill="none" d="M1748.5 316.75c46.94 3.68 110.19 8.3 166.08 11.25 291.91 15.39 1189.68 41.68 1488.28 50.23"/>
            <path d="m3402.67 374.72 9.89 3.79-10.09 3.21z"/>
        </g>
        <g stroke="#000" class="edge">
            <path fill="none" d="M1625.47 323.12c-10.21 1.94-20.84 3.69-30.89 4.88-264.74 31.3-1069.51 46.59-1370.64 51.33"/>
            <path d="m224.14 382.83-10.05-3.34 9.94-3.66z"/>
        </g>
        <g class="node" transform="translate(4 472)">
            <ellipse cx="1276.58" cy="-90" fill="none" stroke="#000" rx="120.96" ry="18"/>
            <text x="1276.58" y="-84.95" font-family="Times,serif" font-size="14" text-anchor="middle">:app:core:holiday-preferences</text>
        </g>
        <g stroke="#000" class="edge">
            <path fill="none" d="M1623.05 322.5c-9.49 1.89-19.25 3.79-28.47 5.5-74.74 13.87-159.77 28.13-222.48 38.36"/>
            <path d="m1372.98 369.76-10.44-1.85 9.31-5.06z"/>
        </g>
        <g class="node" transform="translate(4 472)">
            <ellipse cx="1525.58" cy="-90" fill="none" stroke="#000" rx="110.21" ry="18"/>
            <text x="1525.58" y="-84.95" font-family="Times,serif" font-size="14" text-anchor="middle">:app:core:holiday-database</text>
        </g>
        <g stroke="#000" class="edge">
            <path fill="none" d="M1645.51 326.54c-20.82 9.78-47.96 22.53-70.75 33.24"/>
            <path d="m1576.54 362.8-10.54 1.09 7.56-7.42z"/>
        </g>
        <g stroke="#000" class="edge">
            <path fill="none" d="M1907.72 255.45c-9.9 9.52-20.86 22.4-26.14 36.55-16.79 44.97-33.43 73.55 0 108 46.25 47.67 1128.99 28.68 1195 36 6.9.77 14.07 1.78 21.2 2.94"/>
            <path d="m3098.17 435.45 9.26 5.14-10.45 1.76z"/>
        </g>
        <g stroke="#000" class="edge">
            <path fill="none" d="M1918.84 256.18c-15.39 32.93-42.27 105.1-4.26 143.82 37.7 38.4 1883.24 33.46 1937 36 48.28 2.28 102.31 6.34 145.2 9.91"/>
            <path d="m3996.83 442.41 9.67 4.32-10.26 2.65z"/>
        </g>
        <g stroke="#000" class="edge">
            <path fill="none" d="M2001.4 239.64c231.63 2.37 964.65 12.72 1570.18 52.36 28.16 1.84 58.84 4.63 86.39 7.41"/>
            <path d="m3658.07 295.9 9.59 4.5-10.31 2.47z"/>
        </g>
        <g stroke="#000" class="edge">
            <path fill="none" d="M1949.38 255.59c11.63 8.85 26.15 19.89 38.96 29.64"/>
            <path d="m1990.25 282.29 5.84 8.84-10.08-3.27z"/>
        </g>
        <g stroke="#000" class="edge">
            <path fill="none" d="M1985.48 249.56c65.47 11.93 172.48 31.44 245.95 44.83"/>
            <path d="m2231.77 290.89 9.21 5.24-10.47 1.65z"/>
        </g>
        <g class="node" transform="translate(4 472)">
            <ellipse cx="730.58" cy="-162" fill="none" stroke="#000" rx="109.19" ry="18"/>
            <text x="730.58" y="-156.95" font-family="Times,serif" font-size="14" text-anchor="middle">:app:core:backup-database</text>
        </g>
        <g stroke="#000" class="edge">
            <path fill="none" d="M1854.56 241.29c-169.5 5.63-602.79 21.82-963.98 50.71-18.84 1.51-38.93 3.45-58.2 5.47"/>
            <path d="m832.96 300.93-10.32-2.42 9.57-4.54z"/>
        </g>
        <g stroke="#000" class="edge">
            <path fill="none" d="M2624.89 184.18c-12.75 48.44-45.22 184.6-16.31 215.82 35.44 38.27 416.31 29.04 468 36 6.52.88 13.29 1.93 20.04 3.07"/>
            <path d="m3097.2 435.62 9.24 5.19-10.46 1.7z"/>
        </g>
        <g stroke="#000" class="edge">
            <path fill="none" d="M2629.15 184.32c-1.08 51.44-2.88 200.7 12.43 215.68 48.07 47.04 1142.84 32.45 1210 36 48.26 2.55 102.29 6.61 145.19 10.13"/>
            <path d="m3996.81 442.62 9.68 4.31-10.26 2.67z"/>
        </g>
        <g stroke="#000" class="edge">
            <path fill="none" d="M2691.56 172.38c143.45 12.44 498.44 43.23 661.13 57.34"/>
            <path d="m3352.9 226.23 9.66 4.35-10.26 2.62z"/>
        </g>
        <g stroke="#000" class="edge">
            <path fill="none" d="M2580.69 178.38c-107.99 25.14-367.15 85.47-491.82 114.49"/>
            <path d="m2089.97 296.21-10.54-1.14 8.95-5.68z"/>
        </g>
        <g stroke="#000" class="edge">
            <path fill="none" d="M2596.15 181.93c-56.95 25.43-172.9 77.2-237.84 106.2"/>
            <path d="m2359.9 291.26-10.56.88 7.71-7.28z"/>
        </g>
        <g stroke="#000" class="edge">
            <path fill="none" d="M3002.86 256.17c-4.66 10.14-9.91 23.39-12.28 35.83-9.54 49.98.03 74.13 38 108 19.51 17.41 45.4 29.39 69.34 37.5"/>
            <path d="m3098.85 434.12 8.46 6.38-10.59.29z"/>
        </g>
        <g stroke="#000" class="edge">
            <path fill="none" d="M3039.72 254.47c38.92 20.6 111.97 56.42 178.86 73.53 163.93 41.92 215.33-6.92 379 36 38.11 9.99 43.09 25.28 81 36 106.25 30.03 233.42 43.2 314.69 48.87"/>
            <path d="m3993.17 445.35 9.75 4.17-10.22 2.82z"/>
        </g>
        <g stroke="#000" class="edge">
            <path fill="none" d="m3066.18 247.03 347.42 51.09"/>
            <path d="m3414.09 294.66 9.38 4.91-10.4 2.01z"/>
        </g>
        <g stroke="#000" class="edge">
            <path fill="none" d="M2951 242.37c-134.88 7.63-470.17 27.32-750.42 49.63-28.21 2.25-58.85 5-86.77 7.64"/>
            <path d="m2114.23 303.11-10.29-2.53 9.63-4.43z"/>
        </g>
        <g stroke="#000" class="edge">
            <path fill="none" d="M2970.42 251.92c-34.17 10.73-83.22 26.12-121.78 38.23"/>
            <path d="m2850.1 293.36-10.59-.35 8.5-6.33z"/>
        </g>
        <g stroke="#000" class="edge">
            <path fill="none" d="M3906.28 248.75c70.83 10.21 184.42 26.97 282.3 43.25 310.07 51.57 679.59 121.44 823.93 149.06"/>
            <path d="m5013.08 437.61 9.17 5.32-10.48 1.55z"/>
        </g>
        <g stroke="#000" class="edge">
            <path fill="none" d="M3754.29 240.84c-88.65 3.86-232.19 15.64-350.71 51.16-68.92 20.66-86 30.81-145 72-26.69 18.63-53.26 44.66-71.31 63.76"/>
            <path d="m3190.01 429.95-9.37 4.94 4.25-9.7z"/>
        </g>
        <g stroke="#000" class="edge">
            <path fill="none" d="M3916.69 244.44c81.33 6.93 201.25 21.3 238.89 47.56 42.11 29.38 69.09 65.03 41 108-12.24 18.72-32.7 30.86-53.36 38.73"/>
            <path d="m4144.47 442-10.59-.03 8.3-6.58z"/>
        </g>
        <g stroke="#000" class="edge">
            <path fill="none" d="M3860.66 255.62c14.4 10.4 33.29 24.1 49.92 36.38 21.46 15.83 25.05 22.42 48 36 21.09 12.49 45.65 24.02 66.8 33.12"/>
            <path d="m4026.53 357.81 7.85 7.12-10.58-.67z"/>
        </g>
        <g stroke="#000" class="edge">
            <path fill="none" d="M3815.3 255.59c-11.97 8.91-26.93 20.05-40.09 29.85"/>
            <path d="m3777.35 288.22-10.11 3.16 5.93-8.78z"/>
        </g>
        <g class="node" transform="translate(4 472)">
            <ellipse cx="2992.58" cy="-18" fill="none" stroke="#000" rx="71.31" ry="18"/>
            <text x="2992.58" y="-12.95" font-family="Times,serif" font-size="14" text-anchor="middle">:app:core:model</text>
        </g>
        <g stroke="#000" class="edge">
            <path fill="none" d="M3757.54 243.96c-126.18 8.33-365.48 26.38-447.96 48.04-76.99 20.22-93.25 35.52-164 72-40.3 20.78-84.71 47.88-114.47 66.7"/>
            <path d="m3033.2 433.52-10.32 2.41 6.57-8.32z"/>
        </g>
        <g class="node" transform="translate(4 472)">
            <ellipse cx="3753.58" cy="-18" fill="none" stroke="#000" rx="85.13" ry="18"/>
            <text x="3753.58" y="-12.95" font-family="Times,serif" font-size="14" text-anchor="middle">:common:exception</text>
        </g>
        <g stroke="#000" class="edge">
            <path fill="none" d="M3910.22 247.33c121.34 16.66 344.37 60.68 263.36 152.67-21.04 23.89-207.56 39.88-323.59 47.61"/>
            <path d="m3850.36 451.09-10.21-2.84 9.75-4.14z"/>
        </g>
        <g stroke="#000" class="edge">
            <path fill="none" d="M4224.42 247.24c117.28 16.42 379.48 56.83 594.16 116.76 74.31 20.75 158.45 51.43 209.34 70.81"/>
            <path d="m5029.07 431.5 8.09 6.84-10.59-.3z"/>
        </g>
        <g stroke="#000" class="edge">
            <path fill="none" d="M4182.9 255.73c35.97 31.54 103.32 100.54 61.68 144.27-17.01 17.87-734.68 42.14-990.55 50.24"/>
            <path d="m3254.18 453.74-10.1-3.18 9.88-3.82z"/>
        </g>
        <g stroke="#000" class="edge">
            <path fill="none" d="M4227.57 245.57c122.74 14.81 368.96 57.37 283.01 154.43-22.97 25.93-233.42 41.79-352.97 48.79"/>
            <path d="m4158.03 452.27-10.19-2.92 9.79-4.07z"/>
        </g>
        <g stroke="#000" class="edge">
            <path fill="none" d="M4142.81 255.58c-10.66 9.74-23.39 22.79-32.23 36.42-12.21 18.83-21.28 42.59-27.13 60.82"/>
            <path d="m4086.86 353.64-6.27 8.54-.43-10.58z"/>
        </g>
        <g stroke="#000" class="edge">
            <path fill="none" d="M4108.68 250.12c-10.31 2.03-21.03 4.07-31.1 5.88-86.49 15.51-186.02 31-253.77 41.19"/>
            <path d="m3824.71 300.59-10.41-1.97 9.37-4.95z"/>
        </g>
        <g stroke="#000" class="edge">
            <path fill="none" d="M4170.97 256.14c14.73 32.85 40.31 104.9 2.61 143.86-42.4 43.82-1036.47 28.63-1097 36-6.08.74-12.38 1.71-18.66 2.82"/>
            <path d="m3058.67 442.24-10.47-1.59 9.17-5.29z"/>
        </g>
        <g stroke="#000" class="edge">
            <path fill="none" d="M4204.52 252.83c18.16 8.31 37.62 20.91 48.06 39.17 26.83 46.94-8.94 81.37-56 108-29.65 16.78-229.28 35.77-348.89 45.84"/>
            <path d="m3848.14 449.32-10.26-2.66 9.67-4.32z"/>
        </g>
        <g stroke="#000" class="edge">
            <path fill="none" d="M4158.18 388.79c191.78 13.44 664.57 46.56 844.92 59.2"/>
            <path d="m5003.31 444.5 9.73 4.19-10.22 2.79z"/>
        </g>
        <g stroke="#000" class="edge">
            <path fill="none" d="M3993.93 389.27c-171.71 13.2-568.75 43.71-743.81 57.16"/>
            <path d="m3250.41 449.92-10.24-2.73 9.7-4.25z"/>
        </g>
        <g stroke="#000" class="edge">
            <path fill="none" d="M4075.58 400.3v24.16"/>
            <path d="m4079.08 424.38-3.5 10-3.5-10z"/>
        </g>
        <g stroke="red" stroke-width="2" class="edge">
            <path fill="none" d="M3988.49 385.87c-209.43 7.18-736.82 27.03-911.91 50.13-5.98.79-12.18 1.79-18.37 2.9"/>
            <path fill="red" d="m3060.61 442-10.48-1.56 9.17-5.31z"/>
        </g>
        <g stroke="#000" class="edge">
            <path fill="none" d="M4016.88 395.92c-53.92 11.87-133.86 29.47-190.7 41.98"/>
            <path d="m3827.13 441.27-10.52-1.26 9.01-5.57z"/>
        </g>
        <g stroke="#000" class="edge">
            <path fill="none" d="M4349.98 178.22c97.36 15.12 259.14 40.3 265.6 41.78 53.55 12.29 440.3 99.86 473 144 13 17.55 7.66 42.42.11 61.41"/>
            <path d="m5091.96 426.69-7.23 7.74.82-10.56z"/>
        </g>
        <g stroke="#000" class="edge">
            <path fill="none" d="M4331.47 181.32c29.42 8.96 65.89 21.99 96.11 38.68 22.57 12.46 79.77 48.79 91 72 26.49 54.74-27.42 85.72-84 108-27.45 10.81-895.75 40.56-1180.52 50.05"/>
            <path d="m3254.18 453.55-10.11-3.17 9.88-3.83z"/>
        </g>
        <g stroke="#000" class="edge">
            <path fill="none" d="M4349.89 178.31c86.2 13.68 219.93 35.64 229.69 41.69 45.44 28.17 75.05 59.29 53 108-20 44.18-37.63 52.41-82 72-68.23 30.13-274.85 44.08-391.87 49.71"/>
            <path d="m4158.99 453.2-10.15-3.02 9.83-3.97z"/>
        </g>
        <g stroke="#000" class="edge">
            <path fill="none" d="M4206.73 178.58c-38.25 8.12-85.43 21.2-124.15 41.42-22.09 11.54-20.42 25.45-43 36-62.99 29.43-140.54 42.58-200.46 48.43"/>
            <path d="m3839.55 307.91-10.28-2.58 9.64-4.4z"/>
        </g>
        <g stroke="red" stroke-width="2" class="edge">
            <path fill="none" d="M4191.14 174.19c-162.2 13.51-510.24 42.47-670.56 55.82"/>
            <path fill="red" d="m3522.64 233.35-10.25-2.66 9.67-4.32z"/>
        </g>
        <g stroke="#000" class="edge">
            <path fill="none" d="M4212.5 179.66c-48.08 9.8-114.97 24.36-172.92 40.34-49.18 13.56-59.2 24.91-109 36-34.62 7.71-246.45 31.51-364.21 44.44"/>
            <path d="m3566.76 303.92-10.32-2.39 9.56-4.57z"/>
        </g>
        <g stroke="#000" class="edge">
            <path fill="none" d="M4277.88 184.2c-.28 45.02-8.08 166.21-81.3 215.8-51.55 34.91-1058.2 28.5-1120 36-6.08.74-12.38 1.71-18.66 2.81"/>
            <path d="m3058.67 442.24-10.47-1.59 9.17-5.29z"/>
        </g>
        <g stroke="#000" class="edge">
            <path fill="none" d="M4346.87 178.92c101.79 20.51 273.18 68.26 209.71 149.08-43.49 55.38-509.45 100.72-709.07 117.75"/>
            <path d="m3847.96 449.23-10.26-2.64 9.67-4.34z"/>
        </g>
        <g stroke="#000" class="edge">
            <path fill="none" d="M3584.66 387.54c66.69 3.55 162.26 8.52 245.92 12.46 444.9 20.94 979.48 42.5 1171.19 50.12"/>
            <path d="m5001.72 446.62 9.85 3.89-10.13 3.1z"/>
        </g>
        <g stroke="#000" class="edge">
            <path fill="none" d="M3440.51 395.51c-58.38 12.17-146.9 30.61-207.85 43.31"/>
            <path d="m3233.59 442.2-10.5-1.39 9.08-5.47z"/>
        </g>
        <g stroke="#000" class="edge">
            <path fill="none" d="M3574.57 392.01c109.71 13.35 314.45 38.28 425.2 51.76"/>
            <path d="m4000.16 440.29 9.5 4.69-10.35 2.26z"/>
        </g>
        <g stroke="#000" class="edge">
            <path fill="none" d="M3422.92 390.7c-85.25 8.93-226 25.03-346.34 45.3-5.55.93-11.29 1.99-17.04 3.1"/>
            <path d="m3060.5 442.47-10.49-1.47 9.13-5.39z"/>
        </g>
        <g stroke="#000" class="edge">
            <path fill="none" d="M3551.97 397c41.46 11.29 99.91 27.21 143.89 39.19"/>
            <path d="m3696.53 432.74 8.73 6.01-10.57.75z"/>
        </g>
        <g stroke="#000" class="edge">
            <path fill="none" d="M3800.03 323.96c35.22 9.06 81.01 22.64 119.55 40.04 27.65 12.48 29.03 26.98 58 36 97.07 30.23 793.79 46.87 1023.64 51.59"/>
            <path d="m5001.02 448.08 9.92 3.71-10.06 3.29z"/>
        </g>
        <g stroke="#000" class="edge">
            <path fill="none" d="M3666.38 318.54c-69.51 7.84-174.08 22.28-262.8 45.46-69.15 18.07-146.13 48.74-193.56 68.93"/>
            <path d="m3211.45 436.13-10.57.72 7.81-7.16z"/>
        </g>
        <g stroke="#000" class="edge">
            <path fill="none" d="M3778.29 326.78c39.95 18.06 107.6 48.36 166.29 73.22 27.25 11.54 57.92 23.98 82.72 33.9"/>
            <path d="m4028.5 430.61 7.99 6.96-10.59-.46z"/>
        </g>
        <g stroke="red" stroke-width="2" class="edge">
            <path fill="none" d="M3802.93 323.51c56.54 11.93 141.7 29.88 201.78 42.55"/>
            <path fill="red" d="m4003.59 362.25 9.07 5.48-10.51 1.36z"/>
        </g>
        <g stroke="#000" class="edge">
            <path fill="none" d="M3667.05 318.82c-118.96 12.33-338.3 35.86-373.47 45.18-39.66 10.5-46.09 22.99-85 36-27.49 9.19-97.68 26.29-149.81 38.59"/>
            <path d="m3059.62 441.98-10.54-1.12 8.94-5.69z"/>
        </g>
        <g stroke="#000" class="edge">
            <path fill="none" d="M3745.3 328.41c2.36 23.98 6.65 67.45 9.48 96.17"/>
            <path d="m3758.25 424.09-2.51 10.29-4.46-9.61z"/>
        </g>
        <g stroke="#000" class="edge">
            <path fill="none" d="M3476.45 253.83c27.03 10.26 63.47 24.48 95.13 38.17 34.3 14.84 40.36 24.75 76 36 90.72 28.63 122.17 1.94 211 36 27.98 10.73 28.41 27.02 57 36 103.04 32.38 847.01 47.71 1085.58 51.83"/>
            <path d="m5001.02 448.32 9.94 3.67-10.06 3.33z"/>
        </g>
        <g stroke="#000" class="edge">
            <path fill="none" d="M3366.9 246.68c-65.42 8.4-157.43 23.6-186.32 45.32-40.67 30.58-47.95 58.1-38 108 1.71 8.6 4.85 17.55 8.23 25.59"/>
            <path d="m3153.9 423.95.93 10.55-7.31-7.67z"/>
        </g>
        <g stroke="#000" class="edge">
            <path fill="none" d="M3421 256.02c-15.94 19.5-35.94 51.4-17.42 71.98 50.97 56.64 271.79 4.11 341 36 21.13 9.74 17.24 25.49 38 36 65.56 33.19 148.65 45.86 209.6 50.57"/>
            <path d="m3992.05 447.05 9.73 4.2-10.23 2.79z"/>
        </g>
        <g stroke="#000" class="edge">
            <path fill="none" d="M3511.27 243.82c99.89 7.3 271.05 23.03 328.31 48.18 22.82 10.02 20.92 24.43 43 36 35.57 18.63 78.34 31.24 114.58 39.47"/>
            <path d="m3997.68 364 9.02 5.56-10.52 1.28z"/>
        </g>
        <g stroke="red" stroke-width="2" class="edge">
            <path fill="none" d="m3490.76 251.35 184.89 42.16"/>
            <path fill="red" d="m3674.9 289.75 8.97 5.64-10.53 1.19z"/>
        </g>
        <g stroke="#000" class="edge">
            <path fill="none" d="M3368.38 247.14c-114.57 15.34-337.19 52.87-377.8 116.86-11.41 17.98-8.83 42.31-4 60.99"/>
            <path d="m2989.86 423.75-.52 10.58-6.19-8.59z"/>
        </g>
        <g stroke="#000" class="edge">
            <path fill="none" d="M3385.86 252.18c-20.22 8.02-41.48 20.55-53.28 39.82-28.69 46.82 12.08 81.19 60 108 45.46 25.44 180.59 39.95 273.03 47.15"/>
            <path d="m3665.73 443.65 9.71 4.25-10.24 2.73z"/>
        </g>
        <g stroke="#000" class="edge">
            <path fill="none" d="M3544.01 322.15c10.8 2.03 22.02 4.07 32.57 5.85 108.08 18.29 142.82-6.18 244 36 24.61 10.26 22.89 27.01 48 36 106.22 38.02 887.01 49.58 1132.41 52.29"/>
            <path d="m5000.79 448.79 9.96 3.61-10.04 3.39z"/>
        </g>
        <g stroke="#000" class="edge">
            <path fill="none" d="M3441.76 324.57c-31.24 9.77-73.29 23.9-109.18 39.43-46.26 20.01-97.11 47.82-130.61 67"/>
            <path d="m3203.88 433.94-10.42 1.96 6.92-8.03z"/>
        </g>
        <g stroke="#000" class="edge">
            <path fill="none" d="M3544.53 322.02c10.64 2.02 21.68 4.08 32.05 5.98 91.43 16.72 120.69-.9 206 36 24.47 10.59 23.74 24.93 48 36 52.98 24.19 117.52 37.57 167.06 44.83"/>
            <path d="m3998.01 441.35 9.42 4.86-10.39 2.07z"/>
        </g>
        <g stroke="#000" class="edge">
            <path fill="none" d="M3553.6 318.86c106.81 12.72 317.46 37.79 435.9 51.89"/>
            <path d="m3989.65 367.24 9.51 4.66-10.34 2.3z"/>
        </g>
        <g stroke="#000" class="edge">
            <path fill="none" d="M3431.65 322.31c-46.61 9.81-114.59 25.04-173.07 41.69-75.05 21.37-160.35 51.46-212.67 70.59"/>
            <path d="m3047.27 437.82-10.59.16 8.18-6.73z"/>
        </g>
        <g stroke="#000" class="edge">
            <path fill="none" d="M3447.92 325.72c-16.84 8.46-34.76 20.92-44.34 38.28-7.73 14.01-10.44 23.88 0 36 32.66 37.91 164.3 49.1 257.48 52.18"/>
            <path d="m3661.1 448.68 9.89 3.8-10.1 3.2z"/>
        </g>
        <g stroke="#000" class="edge">
            <path fill="none" d="M4041.86 173.67c85.75 7.74 222.95 22.58 339.72 46.33 229.54 46.7 287.89 61.15 507 144 52.64 19.91 110.78 48.93 147.8 68.36"/>
            <path d="m5037.7 429.1 7.21 7.77-10.48-1.58z"/>
        </g>
        <g stroke="#000" class="edge">
            <path fill="none" d="M3982.12 183.79c63.5 46.21 230.96 174.59 191.46 216.21-15.75 16.6-676.33 41.35-919.96 49.94"/>
            <path d="m3253.97 453.43-10.12-3.15 9.87-3.85z"/>
        </g>
        <g stroke="#000" class="edge">
            <path fill="none" d="M4046.36 171.3c73.14 5.65 179.19 18.68 267.22 48.7 110.61 37.72 169.09 38.81 220 144 6.97 14.4 10.64 24.05 0 36-24.5 27.49-250.4 42.84-375.52 49.31"/>
            <path d="m4158.32 452.8-10.16-2.99 9.81-4z"/>
        </g>
        <g stroke="#000" class="edge">
            <path fill="none" d="M3930.21 183.41c-16.38 9.48-37.2 21.52-54.94 31.79"/>
            <path d="m3877.49 217.95-10.41 1.98 6.9-8.03z"/>
        </g>
        <g stroke="#000" class="edge">
            <path fill="none" d="M4002.84 182.19c31.83 10.92 74.84 25.68 108.22 37.13"/>
            <path d="m4111.77 215.87 8.32 6.55-10.59.07z"/>
        </g>
        <g stroke="#000" class="edge">
            <path fill="none" d="M3958.9 184.49c.94 18.53 4.13 48.25 14.68 71.51 17.82 39.3 51.14 76.58 74.84 100.03"/>
            <path d="m4050.84 353.49 4.75 9.48-9.62-4.45z"/>
        </g>
        <g stroke="#000" class="edge">
            <path fill="none" d="M3891.92 178.55c-105.09 18.98-315.15 60.04-488.34 113.45-135.48 41.78-289.66 108.18-363.33 141.12"/>
            <path d="m3041.92 436.21-10.56.9 7.69-7.29z"/>
        </g>
        <g stroke="#000" class="edge">
            <path fill="none" d="M4032.17 177c78.63 11.28 194.23 29.75 210.41 43 38.45 31.49 40.95 59.76 29 108-8.7 35.12-8.1 51.63-38 72-15.77 10.74-253.56 33.32-386.94 45.24"/>
            <path d="m3847.03 448.72-10.27-2.6 9.65-4.37z"/>
        </g>
        <g stroke="#000" class="edge">
            <path fill="none" d="M569.38 251.06c-106.36 13.99-266.35 35.79-270.8 40.94-10.47 12.1-10.61 24.02 0 36 175.74 198.41 327.58 53.79 592 72 484.7 33.37 1702.76-14.27 2186 36 7.01.73 14.29 1.73 21.53 2.89"/>
            <path d="m3098.65 435.43 9.26 5.13-10.44 1.77z"/>
        </g>
        <g stroke="#000" class="edge">
            <path fill="none" d="M680.38 256.3c8.63 8.4 19.16 18.63 28.63 27.84"/>
            <path d="m711.17 281.36 4.73 9.48-9.61-4.46z"/>
        </g>
        <g class="node" transform="translate(4 472)">
            <ellipse cx="383.58" cy="-162" fill="none" stroke="#000" rx="80.01" ry="18"/>
            <text x="383.58" y="-156.95" font-family="Times,serif" font-size="14" text-anchor="middle">:library:koin-room</text>
        </g>
        <g stroke="#000" class="edge">
            <path fill="none" d="M601.89 254.45c-45.15 11.49-106.58 27.13-152.09 38.71"/>
            <path d="m450.9 296.49-10.55-.92 8.83-5.86z"/>
        </g>
        <g class="node" transform="translate(4 472)">
            <ellipse cx="542.58" cy="-162" fill="none" stroke="#000" rx="60.56" ry="18"/>
            <text x="542.58" y="-156.95" font-family="Times,serif" font-size="14" text-anchor="middle">:library:room</text>
        </g>
        <g stroke="#000" class="edge">
            <path fill="none" d="M634.5 255.95c-15.81 9.53-35.7 21.54-52.56 31.71"/>
            <path d="m584.08 290.46-10.37 2.17 6.76-8.17z"/>
        </g>
        <g stroke="#000" class="edge">
            <path fill="none" d="M1540.73 322.94c18 1.78 36.43 3.53 53.85 5.06 214.87 18.92 269.11 17.2 484 36 19.61 1.72 40.49 3.69 60.64 5.68"/>
            <path d="m2139.54 366.19 9.61 4.47-10.3 2.5z"/>
        </g>
        <g class="node" transform="translate(4 472)">
            <ellipse cx="1044.58" cy="-90" fill="none" stroke="#000" rx="93.32" ry="18"/>
            <text x="1044.58" y="-84.95" font-family="Times,serif" font-size="14" text-anchor="middle">:library:koin-datastore</text>
        </g>
        <g stroke="#000" class="edge">
            <path fill="none" d="M1347.2 325.85c-65.39 12.07-157.07 29.01-221.55 40.92"/>
            <path d="m1126.3 370.2-10.47-1.62 9.2-5.26z"/>
        </g>
        <g stroke="#000" class="edge">
            <path fill="none" d="M333.51 254.58c-18.15 8.09-36.43 20.05-46.93 37.42-26.9 44.5-.32 82.49 45 108 66.45 37.4 2669.14 28.24 2745 36 7.01.72 14.29 1.71 21.53 2.87"/>
            <path d="m3098.65 435.41 9.27 5.12-10.45 1.78z"/>
        </g>
        <g stroke="#000" class="edge">
            <path fill="none" d="M473.95 251.29c15.81 1.87 32.19 3.56 47.63 4.71 710.66 52.92 891.51-4.28 1603 36 29.31 1.66 61.13 4.25 90.08 6.92"/>
            <path d="m2214.89 295.43 9.63 4.42-10.29 2.55z"/>
        </g>
        <g stroke="#000" class="edge">
            <path fill="none" d="M387.58 256.3v24.16"/>
            <path d="m391.08 280.38-3.5 10-3.5-10z"/>
        </g>
        <g stroke="#000" class="edge">
            <path fill="none" d="M425.26 255.59c23.44 10.32 53.66 23.62 78.07 34.37"/>
            <path d="m504.62 286.7 7.74 7.24-10.56-.83z"/>
        </g>
        <g stroke="#000" class="edge">
            <path fill="none" d="M2068.21 325.93c34.28 10.53 80.48 24.71 117.4 36.04"/>
            <path d="m2186.27 358.52 8.54 6.28-10.59.41z"/>
        </g>
        <g stroke="#000" class="edge">
            <path fill="none" d="M1965.36 325.28c-19.48 8.03-39.44 20.29-50.78 38.72-8.39 13.63-11.03 24.41 0 36 34.33 36.05 752.24 48.73 999.32 52.03"/>
            <path d="m2913.84 448.53 9.95 3.63-10.05 3.37z"/>
        </g>
        <g stroke="#000" class="edge">
            <path fill="none" d="M2038.83 328.06c11.58 10.33 26.59 23.8 39.75 35.94 17.1 15.77 16.53 27.05 38 36 116.56 48.6 1009.78 31.88 1136 36 142.89 4.67 308.5 10.28 410.01 13.75"/>
            <path d="m3662.64 446.25 9.88 3.84-10.11 3.15z"/>
        </g>
        <g class="node" transform="translate(4 472)">
            <ellipse cx="1992.58" cy="-90" fill="none" stroke="#000" rx="72.85" ry="18"/>
            <text x="1992.58" y="-84.95" font-family="Times,serif" font-size="14" text-anchor="middle">:common:model</text>
        </g>
        <g stroke="#000" class="edge">
            <path fill="none" d="M2013.89 328.3c-2.45 7.46-5.38 16.38-8.12 24.73"/>
            <path d="m2009.12 354.05-6.45 8.41-.2-10.6z"/>
        </g>
        <g stroke="#000" class="edge">
            <path fill="none" d="M182.69 395.02c14.83 2 30.33 3.81 44.89 4.98 541.46 43.69 2284.34 51.55 2685.93 52.79"/>
            <path d="m2913.49 449.29 9.99 3.53-10.01 3.47z"/>
        </g>
        <g stroke="#000" class="edge">
            <path fill="none" d="M994.36 326.91c-18.59 7.97-36.9 19.77-47.78 37.09-8.51 13.55-11.24 24.62 0 36 28.35 28.71 2864.69 34.22 2905 36 48.46 2.14 102.71 6.21 145.69 9.83"/>
            <path d="m3997.33 442.33 9.67 4.33-10.27 2.64z"/>
        </g>
        <g stroke="#000" class="edge">
            <path fill="none" d="M1109.1 327.41c33.02 10.32 75.76 23.68 110.31 34.47"/>
            <path d="m1220.37 358.52 8.5 6.32-10.59.36z"/>
        </g>
        <g stroke="#000" class="edge">
            <path fill="none" d="M1054.6 328.3c-.83 7.29-1.82 15.97-2.76 24.16"/>
            <path d="m1055.32 352.85-4.61 9.54-2.35-10.33z"/>
        </g>
        <g stroke="#000" class="edge">
            <path fill="none" d="M920.2 256.05c-11.34 9.16-23.5 21.55-29.62 35.95-20.34 47.86-.27 82.41 45 108 103.56 58.54 2022.68 23.67 2141 36 7.01.73 14.29 1.73 21.53 2.89"/>
            <path d="m3098.65 435.43 9.26 5.14-10.44 1.76z"/>
        </g>
        <g stroke="#000" class="edge">
            <path fill="none" d="M1063.59 246.7c51.07 7.01 110.19 20.28 158.99 45.3 20.7 10.61 17.33 25.33 38 36 16.32 8.42 110.72 25.95 183.13 38.55"/>
            <path d="m1443.93 363.03 9.26 5.16-10.45 1.74z"/>
        </g>
        <g stroke="#000" class="edge">
            <path fill="none" d="M848.58 250.74c-15.06 1.78-30.45 3.59-45 5.26-145.26 16.69-182.41 14.27-327 36-6.48.97-13.2 2.08-19.92 3.25"/>
            <path d="M457.34 298.68 446.88 297l9.23-5.21z"/>
        </g>
        <g stroke="#000" class="edge">
            <path fill="none" d="M855.17 251.61c-66.29 9.72-158.34 24.21-238.59 40.39-4.62.93-9.4 1.96-14.19 3.03"/>
            <path d="m603.28 298.42-10.53-1.17 8.96-5.65z"/>
        </g>
        <g stroke="#000" class="edge">
            <path fill="none" d="M4574.45 106.87c11.29 1.96 23.05 3.79 34.13 5.13 264.77 32.04 332.86 18.66 599 36 51.24 3.34 108.56 7.35 154.55 10.64"/>
            <path d="m5362.33 155.15 9.73 4.2-10.23 2.78z"/>
        </g>
        <g stroke="#000" class="edge">
            <path fill="none" d="M4553.8 110.27c53.23 20.55 153.15 56.5 241.78 73.73 202.48 39.36 443.5 49.79 581.64 52.38"/>
            <path d="m5377.17 232.88 9.94 3.67-10.06 3.33z"/>
        </g>
        <g stroke="#000" class="edge">
            <path fill="none" d="M4574.98 106.71c11.14 1.95 22.7 3.82 33.6 5.29 180.4 24.39 227.56 11.94 408 36 6.97.93 14.22 2.01 21.45 3.17"/>
            <path d="m5038.57 147.71 9.3 5.09-10.44 1.82z"/>
        </g>
        <g stroke="#000" class="edge">
            <path fill="none" d="M4551.99 110.53c44.35 18.64 121.76 50.28 189.59 73.47 108.2 36.99 134.55 51.24 247 72 207.85 38.37 458.28 48.97 578.22 51.89"/>
            <path d="m5566.56 304.38 9.92 3.73-10.08 3.27z"/>
        </g>
        <g stroke="#000" class="edge">
            <path fill="none" d="M4535.72 111.73c24.3 19.51 67 51.71 107.86 72.27 44.82 22.55 59.94 18.58 107 36 40.02 14.81 332.15 108.62 356 144 12.97 19.25 1.86 44.37-10.69 63.02"/>
            <path d="m5098.9 428.84-8.7 6.05 3.02-10.16z"/>
        </g>
        <g stroke="#000" class="edge">
            <path fill="none" d="M4576.59 106.3c10.65 1.93 21.64 3.89 31.99 5.7 83.61 14.59 179.71 30.43 244.4 40.95"/>
            <path d="m4853.48 149.49 9.31 5.06-10.44 1.85z"/>
        </g>
        <g stroke="#000" class="edge">
            <path fill="none" d="M4434.34 95.84c-90.57 2.85-228.72 13.62-261.76 52.16-49.31 57.52 69.74 71.64 70 72 47.32 65.31 78.64 121.62 23 180-8.72 9.14-752.66 39.28-1012.58 49.54"/>
            <path d="m3253.38 453.03-10.13-3.1 9.85-3.89z"/>
        </g>
        <g stroke="#000" class="edge">
            <path fill="none" d="M4494.05 111.56c-21.85 18.78-49.9 49.73-30.47 72.44 33.63 39.31 180.22 21.91 230 36 39.87 11.29 47.01 21.98 86 36 52 18.69 86.07-8.37 119 36 26.13 35.2-37.05 107.38-38 108-57.66 37.47-510.39 48.79-700.94 51.91"/>
            <path d="m4159.87 455.41-10.06-3.34 9.95-3.66z"/>
        </g>
        <g stroke="#000" class="edge">
            <path fill="none" d="M4573.93 106.98c11.45 1.97 23.39 3.78 34.65 5.02 411.6 45.34 519.2-7.48 931 36 7.76.82 15.84 1.88 23.87 3.07"/>
            <path d="m5563.92 147.6 9.34 5-10.42 1.92z"/>
        </g>
        <g stroke="#000" class="edge">
            <path fill="none" d="M4436.54 98.9c-169.89 8.73-556.33 30.52-577.96 49.1-17.03 14.63-21.65 40.27-22.38 60.28"/>
            <path d="m3839.7 208.07-3.53 9.99-3.47-10.01z"/>
        </g>
        <g stroke="#000" class="edge">
            <path fill="none" d="M4437.73 99.49c-113.76 7.37-314.34 23.73-336.15 48.51-18.25 20.73 4.75 47.1 27.55 65.74"/>
            <path d="m4131.16 210.89 5.74 8.9-10.04-3.38z"/>
        </g>
        <g stroke="#000" class="edge">
            <path fill="none" d="M5704.21 106.56c-51.63 11.85-132.17 30.33-188.81 43.33"/>
            <path d="m5516.41 153.25-10.53-1.17 8.96-5.65z"/>
        </g>
        <g stroke="#000" class="edge">
            <path fill="none" d="M5776.07 111.52c21.81 18.75 49.82 49.67 30.51 72.48-26.39 31.16-126.22 44.02-206.9 49.31"/>
            <path d="m5600.14 236.79-10.19-2.87 9.76-4.12z"/>
        </g>
        <g stroke="#000" class="edge">
            <path fill="none" d="M5692.05 101.81c-115.46 12.57-362.28 39.44-493.79 53.75"/>
            <path d="m5198.89 159.02-10.32-2.4 9.56-4.56z"/>
        </g>
        <g stroke="#000" class="edge">
            <path fill="none" d="M5785.88 110.44c14.29 8.85 29.75 21.44 37.7 37.56 7.07 14.35 7.52 21.88 0 36-28.79 54.04-92.48 88.88-137.28 107.7"/>
            <path d="m5687.9 294.83-10.58.52 7.95-7.01z"/>
        </g>
        <g stroke="#000" class="edge">
            <path fill="none" d="M5814.79 103.04c22.79 2.95 48.97 6.24 72.79 8.96 39.61 4.53 330.26 6.43 357 36 32.19 35.6 16.52 62.93 0 108-14.44 39.38-24 52.26-61 72-180.54 96.32-818.12 118.79-1035.65 123.71"/>
            <path d="m5148.25 455.2-10.07-3.28 9.92-3.72z"/>
        </g>
        <g stroke="#000" class="edge">
            <path fill="none" d="M5686.55 97.17c-130.57 4.75-425.17 18.39-670.97 50.83-6.52.86-13.29 1.9-20.05 3.04"/>
            <path d="m4996.17 154.48-10.46-1.71 9.25-5.18z"/>
        </g>
        <g stroke="#000" class="edge">
            <path fill="none" d="M5761.75 112.15c7.04 19.92 14.42 52.51-3.17 71.85-28.46 31.29-337.22 29.4-379 36-364.26 57.55-444.24 132.86-810 180-32.72 4.22-1012.44 39.12-1316.14 49.86"/>
            <path d="m3253.7 453.36-10.12-3.15 9.87-3.85z"/>
        </g>
        <g stroke="#000" class="edge">
            <path fill="none" d="M5815.13 102.95c22.72 2.93 48.76 6.22 72.45 9.05 71.93 8.59 275.69-17.98 324 36 10.67 11.92 8.86 22.68 0 36-100.06 150.36-204.27 102.32-380 144-235.59 55.88-298.81 50.71-540 72-424.11 37.44-933.89 48.78-1131.76 51.91"/>
            <path d="m4159.94 455.41-10.06-3.35 9.95-3.65z"/>
        </g>
        <g stroke="#000" class="edge">
            <path fill="none" d="M5728.03 110.88c-15.67 9.38-35.75 21.39-53.01 31.72"/>
            <path d="m5676.92 145.54-10.38 2.13 6.79-8.14z"/>
        </g>
        <g stroke="#000" class="edge">
            <path fill="none" d="M5756.54 112.18c1.27 20.59-.25 54.48-20.96 71.82-28.81 24.12-1170.12 45.93-1490.27 51.58"/>
            <path d="m4245.39 239.08-10.06-3.32 9.94-3.68z"/>
        </g>
        <g stroke="#000" class="edge">
            <path fill="none" d="M5909.33 103.42c-108.07 12.05-300.39 33.92-369.75 44.58-6.44.99-13.13 2.1-19.82 3.26"/>
            <path d="m5520.49 154.69-10.46-1.69 9.23-5.2z"/>
        </g>
        <g stroke="#000" class="edge">
            <path fill="none" d="M5971.56 112.06c-18.16 20.81-51.92 55.24-88.98 71.94-50.09 22.57-190.47 37.6-289.1 45.71"/>
            <path d="m5594.03 233.18-10.25-2.68 9.69-4.3z"/>
        </g>
        <g stroke="#000" class="edge">
            <path fill="none" d="M5910.54 103.9c-24.8 2.79-52.55 5.75-77.96 8.1-119.42 11.02-462.35 35.12-628.53 46.63"/>
            <path d="m5204.61 162.1-10.22-2.8 9.74-4.18z"/>
        </g>
        <g stroke="#000" class="edge">
            <path fill="none" d="M6070.26 99.63c79.57 7.78 180.96 28.61 141.32 84.37-57.98 81.56-364.34 111.53-504.23 121.08"/>
            <path d="m5707.67 308.56-10.21-2.83 9.75-4.15z"/>
        </g>
        <g stroke="#000" class="edge">
            <path fill="none" d="M6074.4 94.06c115.29.67 307.91 8.79 360.18 53.94 31 26.78 24 48.03 24 89v74c0 132.97-1023.96 142.25-1310.36 142.25"/>
            <path d="m5148.25 456.75-10-3.51 10-3.49z"/>
        </g>
        <g stroke="#000" class="edge">
            <path fill="none" d="M5911.36 104.25c-25 2.85-53.07 5.76-78.78 7.75-362.38 28.08-456.04-6.58-817 36-6.71.79-13.68 1.8-20.63 2.94"/>
            <path d="m4995.66 154.37-10.45-1.75 9.26-5.15z"/>
        </g>
        <g stroke="#000" class="edge">
            <path fill="none" d="M6049.1 106.88c76.23 14.41 194.32 37.25 197.48 41.12 41.24 50.45-56.21 101.3-68 108-31.87 18.12-285.7 66.86-322 72-257.26 36.46-907.48 59.49-1167 72-71.88 3.47-1120.65 39.24-1435.98 49.97"/>
            <path d="m3253.88 453.46-10.11-3.15 9.87-3.84z"/>
        </g>
        <g stroke="#000" class="edge">
            <path fill="none" d="M6069.95 100c113.97 7.63 305.43 23.89 326.63 48 10.56 12.02 7.12 21.67 0 36-75.25 151.45-431.62 143.93-432 144-210.49 38.37-262.98 51.96-476 72-502.43 47.27-1109.09 52.8-1328.6 53.14"/>
            <path d="m4160.09 456.64-10.01-3.48 10-3.52z"/>
        </g>
        <g stroke="#000" class="edge">
            <path fill="none" d="M5924.17 107.35c-59.74 12.02-150.49 30.27-213.82 43.01"/>
            <path d="m5711.23 153.75-10.49-1.45 9.11-5.41z"/>
        </g>
        <g stroke="#000" class="edge">
            <path fill="none" d="M6049.6 106.85c70.35 13.33 174.25 34.04 179.98 41.15 10.04 12.46 7.36 21.79 0 36-25.53 49.27-50.72 50.8-102 72-87.71 36.26-326.52 62.99-421 72-382.57 36.49-1344.85 25.16-1729 36-131.73 3.72-283.88 9.38-380.24 13.13"/>
            <path d="m3597.51 380.63-10.13-3.11 9.86-3.89z"/>
        </g>
        <g stroke="#000" class="edge">
            <path fill="none" d="M5912.16 104.5c-25.19 2.9-53.58 5.78-79.58 7.5-736.34 48.79-922.99-1.23-1660 36-39.81 2.01-83.7 5.31-121.32 8.47"/>
            <path d="m4051.57 159.95-10.26-2.64 9.67-4.33z"/>
        </g>
        <g class="node" transform="translate(4 472)">
            <ellipse cx="6083.58" cy="-306" fill="none" stroke="#000" rx="115.33" ry="18"/>
            <text x="6083.58" y="-300.95" font-family="Times,serif" font-size="14" text-anchor="middle">:app:core:calendar-compose</text>
        </g>
        <g stroke="#000" class="edge">
            <path fill="none" d="M6010.01 111.77c13.03 8.94 29.26 20.08 43.5 29.85"/>
            <path d="m6055.48 138.73 6.27 8.54-10.23-2.77z"/>
        </g>
        <g stroke="#000" class="edge">
            <path fill="none" d="M5243.95 108.33c41.27 11.37 100.8 27.78 145.2 40.01"/>
            <path d="m5389.92 144.93 8.71 6.03-10.57.72z"/>
        </g>
        <g stroke="#000" class="edge">
            <path fill="none" d="M5236.53 109.57c24.14 9.4 54.81 22.78 80.05 38.43 21.18 13.13 21.65 23.14 43 36 22.35 13.46 48.74 24.93 71.88 33.72"/>
            <path d="m5432.6 214.41 8.16 6.76-10.59-.19z"/>
        </g>
        <g stroke="#000" class="edge">
            <path fill="none" d="M5175.67 111.59c-10.51 8.76-23.61 19.68-35.22 29.35"/>
            <path d="m5143.01 143.36-9.92 3.71 5.44-9.09z"/>
        </g>
        <g stroke="#000" class="edge">
            <path fill="none" d="M5224.46 111.01c16.54 9.75 37.29 23 54.12 36.99 50.53 42.01 43.67 75.87 101 108 58 32.5 133.35 45.18 187.63 50.07"/>
            <path d="m5567.27 302.56 9.68 4.31-10.26 2.67z"/>
        </g>
        <g stroke="#000" class="edge">
            <path fill="none" d="M5210.15 112.1c30.34 35.59 99.45 116.57 123.43 143.9 42.55 48.5 73.92 47.75 97 108 5.72 14.94 10.45 23.88 0 36-35.69 41.4-188.87 50.97-282.28 52.88"/>
            <path d="m5148.51 456.37-10.06-3.32 9.94-3.68z"/>
        </g>
        <g stroke="#000" class="edge">
            <path fill="none" d="M5145.49 108.08c-44.19 11.54-108.73 28.4-156.11 40.78"/>
            <path d="m4990.36 152.22-10.56-.86 8.79-5.91z"/>
        </g>
        <g stroke="#000" class="edge">
            <path fill="none" d="M5118.27 95.07c-74.51 2.65-188.99 13.64-279.69 52.93-165.48 71.68-148.89 189.39-318 252-14.9 5.51-967.6 39.37-1266.98 49.89"/>
            <path d="m3254 453.37-10.11-3.14 9.87-3.85z"/>
        </g>
        <g stroke="#000" class="edge">
            <path fill="none" d="M5202.9 112.35c6.64 18.41 14.07 48.03 4.68 71.65-48.79 122.7-84.28 160.29-204 216-75.29 35.03-629.46 47.99-843.74 51.73"/>
            <path d="m4159.93 455.23-10.06-3.33 9.94-3.67z"/>
        </g>
        <g stroke="#000" class="edge">
            <path fill="none" d="M5259.35 104.46c69.11 10.33 182.58 27.55 280.23 43.54 6.88 1.13 14.02 2.32 21.18 3.53"/>
            <path d="m5561.22 148.06 9.27 5.13-10.45 1.77z"/>
        </g>
        <g stroke="#000" class="edge">
            <path fill="none" d="M5120.43 98.25c-92.86 5.23-255.21 18.31-390.85 49.75-121.35 28.12-473.07 162.72-604.06 213.53"/>
            <path d="m4127 364.7-10.58.36 8.05-6.88z"/>
        </g>
        <g stroke="#000" class="edge">
            <path fill="none" d="M5123.16 100.52c-163.28 12.45-560.37 42.73-746.38 56.92"/>
            <path d="m4377.13 160.92-10.24-2.73 9.71-4.25z"/>
        </g>
        <g stroke="#000" class="edge">
            <path fill="none" d="M4780.95 102.26c140.86 13.22 438.04 41.1 584.05 54.8"/>
            <path d="m5364.96 153.54 9.63 4.42-10.28 2.55z"/>
        </g>
        <g stroke="#000" class="edge">
            <path fill="none" d="M4734.65 111.13c18.23 9.9 41.44 23.25 60.93 36.87 20.43 14.28 19.94 26.54 43 36 .79.32 366.51 29.97 549.37 44.77"/>
            <path d="m5388 225.27 9.68 4.29-10.25 2.68z"/>
        </g>
        <g stroke="#000" class="edge">
            <path fill="none" d="M4769.56 105.99c63.36 10.59 161.77 27.17 247.02 42.01 6.45 1.12 13.14 2.3 19.86 3.49"/>
            <path d="m5036.99 148.03 9.24 5.19-10.46 1.7z"/>
        </g>
        <g stroke="#000" class="edge">
            <path fill="none" d="M4715.02 112c14.96 20.74 43.22 55.11 76.56 72 34.98 17.72 588.61 91.35 780.85 116.52"/>
            <path d="m5572.79 297.04 9.46 4.77-10.37 2.17z"/>
        </g>
        <g stroke="#000" class="edge">
            <path fill="none" d="M4706.36 112.37c4.13 20.14 13.85 52.94 35.22 71.63 28.25 24.7 628.28 150.14 651 180 9.69 12.73 10.34 23.79 0 36-30.74 36.29-160.8 47.75-244.77 51.36"/>
            <path d="m5148.18 454.85-10.13-3.1 9.85-3.9z"/>
        </g>
        <g stroke="#000" class="edge">
            <path fill="none" d="M4749.99 109.5c35.34 11.05 84.13 26.3 121.63 38.01"/>
            <path d="m4872.43 144.1 8.5 6.32-10.59.36z"/>
        </g>
        <g stroke="#000" class="edge">
            <path fill="none" d="M4697.35 112.43c-20.6 54.63-92.28 222.69-215.77 287.57-13.62 7.16-934.37 39.71-1228.04 49.93"/>
            <path d="m3253.74 453.42-10.12-3.15 9.87-3.85z"/>
        </g>
        <g stroke="#000" class="edge">
            <path fill="none" d="M4701.05 112.34c-1.86 19.22-1.96 50.3 12.53 71.66 14.28 21.07 188.92 86.17 202 108 25.49 42.53 11.99 78.68-28 108-57.64 42.25-531.45 50.82-727.54 52.56"/>
            <path d="m4160.2 456.06-10.03-3.42 9.97-3.58z"/>
        </g>
        <g stroke="#000" class="edge">
            <path fill="none" d="M4786.72 99.12c181.56 9.18 608.79 31.87 752.86 48.88 7.63.9 15.58 2 23.49 3.21"/>
            <path d="m5563.38 147.71 9.33 5.03-10.43 1.89z"/>
        </g>
        <g stroke="#000" class="edge">
            <path fill="none" d="M4641.09 106.81c-11.45 1.92-23.32 3.75-34.51 5.19-47.99 6.18-401.23.4-434 36-10.84 11.77-8.33 22.34 0 36 18.22 29.86 51.78 6.14 70 36 8.33 13.66 7.16 21.69 0 36-24.68 49.3-79.07 84.18-119.11 104.34"/>
            <path d="m4125.26 363.37-10.52 1.24 7.45-7.53z"/>
        </g>
        <g stroke="#000" class="edge">
            <path fill="none" d="M4639.42 106.37c-10.95 1.91-22.22 3.84-32.84 5.63-83.6 14.06-179.28 29.39-245.82 39.93"/>
            <path d="m4361.43 155.36-10.43-1.89 9.33-5.02z"/>
        </g>
        <g class="node" transform="translate(4 472)">
            <ellipse cx="2752.58" cy="-90" fill="none" stroke="#000" rx="106.11" ry="18"/>
            <text x="2752.58" y="-84.95" font-family="Times,serif" font-size="14" text-anchor="middle">:library:firebase-common</text>
        </g>
        <g stroke="#000" class="edge">
            <path fill="none" d="M2780.67 328.3c-3.49 7.63-7.67 16.78-11.57 25.3"/>
            <path d="m2772.37 354.88-7.34 7.64.97-10.55z"/>
        </g>
        <g stroke="#000" class="edge">
            <path fill="none" d="M2340.36 327.62c37.27 20.67 104.86 55.32 167.22 72.38 139.24 38.1 307.83 48.99 406.28 52"/>
            <path d="m2913.81 448.49 9.9 3.79-10.1 3.21z"/>
        </g>
        <g stroke="#000" class="edge">
            <path fill="none" d="M1608.17 394.94c15.04 1.96 30.69 3.76 45.41 5.06 475.88 41.91 1049.56 50.68 1260.25 52.52"/>
            <path d="m2913.6 449.02 9.97 3.58-10.03 3.41z"/>
        </g>
        <g stroke="#000" class="edge">
            <path fill="none" d="M748.01 328.35c17.8 21.45 51.43 56.92 89.57 71.65 98.39 38 1692.13 50.15 2076.21 52.53"/>
            <path d="m2913.57 449.03 9.98 3.56-10.02 3.44z"/>
        </g>
        <g stroke="#000" class="edge">
            <path fill="none" d="M587.8 323.53c70.46 20.71 218.94 61.31 347.78 76.47 321.8 37.88 2592.29 21.73 2916 36 48.46 2.14 102.71 6.21 145.69 9.83"/>
            <path d="m3997.33 442.33 9.67 4.33-10.27 2.64z"/>
        </g>
        <g stroke="#000" class="edge">
            <path fill="none" d="M5997.41 177.56c-111.52 13.05-300.43 35.16-413.72 48.42"/>
            <path d="m5584.13 229.46-10.34-2.32 9.53-4.64z"/>
        </g>
        <g stroke="#000" class="edge">
            <path fill="none" d="M6068.63 184.16c-23.84 20.56-66.91 54.42-110.05 71.84-82.06 33.14-183.92 45.57-250.6 50.22"/>
            <path d="m5708.49 309.7-10.21-2.85 9.75-4.14z"/>
        </g>
        <g stroke="#000" class="edge">
            <path fill="none" d="M6076.27 184.25c-14.25 20.33-40.68 53.63-71.69 71.75-117.65 68.72-163.61 49.52-298 72-167.32 27.99-214.57-1.56-380 36-45.25 10.27-52.51 26.83-98 36-204.52 41.24-839.2 50.46-1068.92 52.46"/>
            <path d="m4159.92 455.96-10.03-3.42 9.97-3.58z"/>
        </g>
    </g>
</svg>
