<svg xmlns="http://www.w3.org/2000/svg" width="6698pt" height="620pt" viewBox="0 0 6697.58 620">
    <g class="graph">
        <path fill="#fff" d="M0 620V0h6697.58v620z"/>
        <g class="node" transform="translate(4 616)">
            <ellipse cx="513.58" cy="-594" fill="none" stroke="#000" rx="74.89" ry="18"/>
            <text x="513.58" y="-588.95" font-family="Times,serif" font-size="14" text-anchor="middle">:app:platform:ios</text>
        </g>
        <g class="node" transform="translate(4 616)">
            <ellipse cx="3385.58" cy="-522" fill="none" stroke="#000" rx="97.41" ry="18"/>
            <text x="3385.58" y="-516.95" font-family="Times,serif" font-size="14" text-anchor="middle">:app:platform:common</text>
        </g>
        <g stroke="red" stroke-width="2" class="edge">
            <path fill="none" d="M591.82 24.81c392.5 9.57 2225.27 54.24 2690.28 65.57"/>
            <path fill="red" d="m3280.55 86.84 9.91 3.74-10.08 3.26z"/>
        </g>
        <g class="node" transform="translate(4 616)">
            <ellipse cx="570.58" cy="-450" fill="none" stroke="#000" rx="86.15" ry="18"/>
            <text x="570.58" y="-444.95" font-family="Times,serif" font-size="14" text-anchor="middle">:app:core:coroutines</text>
        </g>
        <g stroke="#000" class="edge">
            <path fill="none" d="M524.57 40.41c9.71 24.19 27.38 68.23 38.91 96.94"/>
            <path d="m566.67 135.9.48 10.58-6.98-7.97z"/>
        </g>
        <g class="node" transform="translate(4 616)">
            <ellipse cx="2364.58" cy="-162" fill="none" stroke="#000" rx="95.88" ry="18"/>
            <text x="2364.58" y="-156.95" font-family="Times,serif" font-size="14" text-anchor="middle">:app:core:diary-service</text>
        </g>
        <g stroke="#000" class="edge">
            <path fill="none" d="M505.11 39.93c-22.08 32.19-62.4 102.69-25.53 144.07 231.56 259.89 1214.06 114.89 1556 180 97.53 18.57 208.5 50.45 274.53 70.59"/>
            <path d="m2311.13 431.24 8.53 6.28-10.58.41z"/>
        </g>
        <g class="node" transform="translate(4 616)">
            <ellipse cx="104.58" cy="-90" fill="none" stroke="#000" rx="104.58" ry="18"/>
            <text x="104.58" y="-84.95" font-family="Times,serif" font-size="14" text-anchor="middle">:app:core:holiday-service</text>
        </g>
        <g stroke="#000" class="edge">
            <path fill="none" d="M447.89 28.96C314.59 42.3 36.58 80.27 36.58 165v218c0 44.51 28.48 89.2 49.62 116.24"/>
            <path d="m88.8 496.89 3.56 9.97-9.01-5.57z"/>
        </g>
        <g stroke="#000" class="edge">
            <path fill="none" d="M3291.96 94.96c-422.3.11-2094.04 3.72-2617.38 53.04-8.75.82-17.89 1.97-26.94 3.29"/>
            <path d="m648.18 154.75-10.42-1.94 9.36-4.98z"/>
        </g>
        <g stroke="#000" class="edge">
            <path fill="none" d="M3293.07 96.7c-201.33 4.21-652.55 17.34-713.49 51.3-57.79 32.2-158.77 209.25-196.36 277.84"/>
            <path d="m2386.33 427.45-7.85 7.1 1.71-10.45z"/>
        </g>
        <g stroke="#000" class="edge">
            <path fill="none" d="M3292.25 95.73C2829.21 99.37 866.48 116.57 740.58 148c-34.33 8.57-39 20.9-71 36-252.71 119.23-423.06 18.15-576 252-11.85 18.11-6.54 42.59.85 61.29"/>
            <path d="m97.63 495.86.8 10.56-7.22-7.75z"/>
        </g>
        <g class="node" transform="translate(4 616)">
            <ellipse cx="5528.58" cy="-306" fill="none" stroke="#000" rx="81.04" ry="18"/>
            <text x="5528.58" y="-300.95" font-family="Times,serif" font-size="14" text-anchor="middle">:app:core:compose</text>
        </g>
        <g stroke="#000" class="edge">
            <path fill="none" d="M3486.79 95.92c354.17 3.63 1563.68 18.38 1733.79 52.08 88.58 17.55 110.59 29 190 72 34.19 18.51 69.72 45.45 93.55 64.83"/>
            <path d="m5506.31 282.09 5.49 9.06-9.94-3.65z"/>
        </g>
        <g class="node" transform="translate(4 616)">
            <ellipse cx="5575.58" cy="-234" fill="none" stroke="#000" rx="101" ry="18"/>
            <text x="5575.58" y="-228.95" font-family="Times,serif" font-size="14" text-anchor="middle">:app:core:design-system</text>
        </g>
        <g stroke="#000" class="edge">
            <path fill="none" d="M3486.98 95.17C3904.6 96.18 5532.92 103 5757.58 148c86.1 17.25 125.15 6.82 184 72 32.71 36.23 52.06 71.19 20 108-34.4 39.5-169.46 50.52-269.27 53.11"/>
            <path d="m5692.52 384.6-10.08-3.26 9.92-3.73z"/>
        </g>
        <g class="node" transform="translate(4 616)">
            <ellipse cx="4898.58" cy="-306" fill="none" stroke="#000" rx="86.67" ry="18"/>
            <text x="4898.58" y="-300.95" font-family="Times,serif" font-size="14" text-anchor="middle">:app:core:navigation</text>
        </g>
        <g stroke="#000" class="edge">
            <path fill="none" d="M3486.31 96.71c281.66 5.3 1088.62 22.8 1204.27 51.29 72.58 17.88 95.31 23.27 152 72 20.03 17.22 36.28 42.66 46.78 61.93"/>
            <path d="m4892.35 280.09 1.55 10.48-7.75-7.23z"/>
        </g>
        <g class="node" transform="translate(4 616)">
            <ellipse cx="5716.58" cy="-162" fill="none" stroke="#000" rx="59.54" ry="18"/>
            <text x="5716.58" y="-156.95" font-family="Times,serif" font-size="14" text-anchor="middle">:library:color</text>
        </g>
        <g stroke="#000" class="edge">
            <path fill="none" d="M3486.77 95.64c426.35 2.98 2120.44 16.99 2355.81 52.36 231.64 34.81 365.79-42.9 507 144 62.98 83.36-57.35 85.07-130 108-78.29 24.72-311.77 41.77-429.5 49.04"/>
            <path d="m5790.42 452.53-10.2-2.89 9.77-4.1z"/>
        </g>
        <g class="node" transform="translate(4 616)">
            <ellipse cx="5579.58" cy="-18" fill="none" stroke="#000" rx="62.1" ry="18"/>
            <text x="5579.58" y="-12.95" font-family="Times,serif" font-size="14" text-anchor="middle">:library:kotlin</text>
        </g>
        <g stroke="#000" class="edge">
            <path fill="none" d="M3487.07 95.43c416.06 2.06 2045.08 12.59 2556.51 52.57 145.35 11.36 650-56.79 650 89v218c0 56.57-39.19 66.29-91 89-85.82 37.62-725.89 49.26-945.39 52.16"/>
            <path d="m5657.38 599.66-10.05-3.37 9.96-3.63z"/>
        </g>
        <g class="node" transform="translate(4 616)">
            <ellipse cx="5197.58" cy="-306" fill="none" stroke="#000" rx="79.5" ry="18"/>
            <text x="5197.58" y="-300.95" font-family="Times,serif" font-size="14" text-anchor="middle">:library:navigation</text>
        </g>
        <g stroke="#000" class="edge">
            <path fill="none" d="M3486.49 96.42c316.29 4.92 1306.15 22.47 1447.09 51.58 86 17.76 111.21 22.88 184 72 25.43 17.16 48.89 43.27 64.52 62.78"/>
            <path d="m5184.78 280.53 3.4 10.04-8.91-5.73z"/>
        </g>
        <g class="node" transform="translate(4 616)">
            <ellipse cx="3144.58" cy="-18" fill="none" stroke="#000" rx="78.99" ry="18"/>
            <text x="3144.58" y="-12.95" font-family="Times,serif" font-size="14" text-anchor="middle">:library:coroutines</text>
        </g>
        <g stroke="#000" class="edge">
            <path fill="none" d="M3300.81 101.79c-144.4 13.51-414.23 50.14-414.23 135.21v146c0 73.52-13.97 109 38 161 20.28 20.3 88.3 34.5 144.11 43.06"/>
            <path d="m3069.16 583.59 9.38 4.93-10.41 1.99z"/>
        </g>
        <g class="node" transform="translate(4 616)">
            <ellipse cx="4788.58" cy="-18" fill="none" stroke="#000" rx="72.85" ry="18"/>
            <text x="4788.58" y="-12.95" font-family="Times,serif" font-size="14" text-anchor="middle">:library:datetime</text>
        </g>
        <g stroke="#000" class="edge">
            <path fill="none" d="M3485.99 96.9c198.26 4.55 645.54 18.19 794.59 51.1 213.16 47.07 249.46 112.33 457 180 60.26 19.65 82.01 6.29 138 36 42.84 22.73 61.69 27.96 82 72 20.1 43.59 29.31 69.24 1 108-19.55 26.77-52.78 40.33-84.4 47.09"/>
            <path d="m4875.06 594.49-10.48-1.57 9.16-5.31z"/>
        </g>
        <g class="node" transform="translate(4 616)">
            <ellipse cx="5716.58" cy="-306" fill="none" stroke="#000" rx="89.23" ry="18"/>
            <text x="5716.58" y="-300.95" font-family="Times,serif" font-size="14" text-anchor="middle">:library:shimmer-m3</text>
        </g>
        <g stroke="#000" class="edge">
            <path fill="none" d="M3486.81 95.9c426.4 4.12 2111.9 22.27 2157.77 52.1 45.59 29.65 64.41 94.6 71.73 132.32"/>
            <path d="m5719.73 279.58-1.7 10.46-5.19-9.23z"/>
        </g>
        <g class="node" transform="translate(4 616)">
            <ellipse cx="3560.58" cy="-378" fill="none" stroke="#000" rx="71.31" ry="18"/>
            <text x="3560.58" y="-372.95" font-family="Times,serif" font-size="14" text-anchor="middle">:app:data:memo</text>
        </g>
        <g stroke="#000" class="edge">
            <path fill="none" d="M3480.52 100.78c68.99 6.5 155.65 19.97 178.06 47.22 10.16 12.36 8.07 22.18 0 36-8.99 15.39-24.29 26.67-39.96 34.75"/>
            <path d="m3620.24 221.86-10.54 1.11 7.55-7.44z"/>
        </g>
        <g class="node" transform="translate(4 616)">
            <ellipse cx="3347.58" cy="-306" fill="none" stroke="#000" rx="58.52" ry="18"/>
            <text x="3347.58" y="-300.95" font-family="Times,serif" font-size="14" text-anchor="middle">:app:data:tag</text>
        </g>
        <g stroke="#000" class="edge">
            <path fill="none" d="M3384.56 112.07c-2.91 10.33-6.48 23.81-8.98 35.93-9.5 46.14-16.81 100.46-20.75 132.74"/>
            <path d="m3358.33 280.95-4.66 9.52-2.29-10.35z"/>
        </g>
        <g class="node" transform="translate(4 616)">
            <ellipse cx="3176.58" cy="-162" fill="none" stroke="#000" rx="75.92" ry="18"/>
            <text x="3176.58" y="-156.95" font-family="Times,serif" font-size="14" text-anchor="middle">:app:data:account</text>
        </g>
        <g stroke="#000" class="edge">
            <path fill="none" d="M3309.09 104.47c-53.82 8.19-117.74 22.12-134.51 43.53-64.46 82.27-25.97 218.95-4.95 277.26"/>
            <path d="m3172.83 423.83.2 10.59-6.76-8.15z"/>
        </g>
        <g class="node" transform="translate(4 616)">
            <ellipse cx="2994.58" cy="-378" fill="none" stroke="#000" rx="83.6" ry="18"/>
            <text x="2994.58" y="-372.95" font-family="Times,serif" font-size="14" text-anchor="middle">:app:data:credential</text>
        </g>
        <g stroke="#000" class="edge">
            <path fill="none" d="M3295.37 98.8c-59.59 5.53-136.78 18.62-198.79 49.2-30.71 15.14-58.86 42.79-77.03 63.27"/>
            <path d="m3022.33 213.4-9.18 5.28 3.89-9.85z"/>
        </g>
        <g class="node" transform="translate(4 616)">
            <ellipse cx="447.58" cy="-162" fill="none" stroke="#000" rx="74.89" ry="18"/>
            <text x="447.58" y="-156.95" font-family="Times,serif" font-size="14" text-anchor="middle">:app:data:holiday</text>
        </g>
        <g stroke="#000" class="edge">
            <path fill="none" d="M3292.09 95.05c-426.68.51-2118.74 5.51-2351.51 52.95-100.93 20.57-214-14.01-214 89v74c0 48.56-137.09 99.34-217.68 124.99"/>
            <path d="m509.95 439.33-10.59-.34 8.49-6.34z"/>
        </g>
        <g class="node" transform="translate(4 616)">
            <ellipse cx="2304.58" cy="-234" fill="none" stroke="#000" rx="73.87" ry="18"/>
            <text x="2304.58" y="-228.95" font-family="Times,serif" font-size="14" text-anchor="middle">:app:data:backup</text>
        </g>
        <g stroke="#000" class="edge">
            <path fill="none" d="M3293.25 96.8c-249.42 5.1-899.43 21.19-934.67 51.2-59.8 50.92-58.4 154.46-53.69 204.57"/>
            <path d="m2308.35 351.99-2.42 10.32-4.54-9.58z"/>
        </g>
        <g class="node" transform="translate(4 616)">
            <ellipse cx="3014.58" cy="-306" fill="none" stroke="#000" rx="65.68" ry="18"/>
            <text x="3014.58" y="-300.95" font-family="Times,serif" font-size="14" text-anchor="middle">:app:data:fetch</text>
        </g>
        <g stroke="#000" class="edge">
            <path fill="none" d="M3306.37 103.73c-64.12 8.26-146.03 22.65-171.79 44.27-39.57 33.22-11.29 67.21-43 108-9.5 12.22-22.54 22.9-34.98 31.41"/>
            <path d="m3058.84 290.13-10.29 2.53 6.47-8.39z"/>
        </g>
        <g class="node" transform="translate(4 616)">
            <ellipse cx="2711.58" cy="-234" fill="none" stroke="#000" rx="62.1" ry="18"/>
            <text x="2711.58" y="-228.95" font-family="Times,serif" font-size="14" text-anchor="middle">:app:data:fcm</text>
        </g>
        <g stroke="#000" class="edge">
            <path fill="none" d="M3292.11 95.29c-129.8 2.02-350.99 11.63-419.53 52.71-79.96 47.93-128.03 154.15-147.26 204.92"/>
            <path d="m2728.6 354.12-6.73 8.18.16-10.59z"/>
        </g>
        <g class="node" transform="translate(4 616)">
            <ellipse cx="3567.58" cy="-450" fill="none" stroke="#000" rx="78.48" ry="18"/>
            <text x="3567.58" y="-444.95" font-family="Times,serif" font-size="14" text-anchor="middle">:app:data:calendar</text>
        </g>
        <g stroke="red" stroke-width="2" class="edge">
            <path fill="none" d="M3430.42 110.71c27.05 10.4 62.68 24.11 91.38 35.15"/>
            <path fill="red" d="m3521.53 142 8.08 6.86-10.59-.33z"/>
        </g>
        <g class="node" transform="translate(4 616)">
            <ellipse cx="4291.58" cy="-306" fill="none" stroke="#000" rx="84.11" ry="18"/>
            <text x="4291.58" y="-300.95" font-family="Times,serif" font-size="14" text-anchor="middle">:app:domain:memo</text>
        </g>
        <g stroke="#000" class="edge">
            <path fill="none" d="M3486.43 96.38c201.4 3.59 651.67 15.58 711.15 51.62 49.46 29.97 77.33 95.28 89.85 132.86"/>
            <path d="m4290.68 279.53-.3 10.59-6.37-8.47z"/>
        </g>
        <g class="node" transform="translate(4 616)">
            <ellipse cx="4363.58" cy="-234" fill="none" stroke="#000" rx="71.31" ry="18"/>
            <text x="4363.58" y="-228.95" font-family="Times,serif" font-size="14" text-anchor="middle">:app:domain:tag</text>
        </g>
        <g stroke="#000" class="edge">
            <path fill="none" d="M3484.81 98.28c183.96 8.23 578.94 35.69 679.77 121.72 38.71 33.03 1.53 72.52 38 108 24.02 23.37 58.36 36.43 89.51 43.74"/>
            <path d="m4292.44 368.23 9.03 5.54-10.51 1.3z"/>
        </g>
        <g class="node" transform="translate(4 616)">
            <ellipse cx="4500.58" cy="-90" fill="none" stroke="#000" rx="88.71" ry="18"/>
            <text x="4500.58" y="-84.95" font-family="Times,serif" font-size="14" text-anchor="middle">:app:domain:account</text>
        </g>
        <g stroke="#000" class="edge">
            <path fill="none" d="M3485.32 97.54c205.96 5.96 677.96 22.5 745.26 50.46 133.75 55.57 157.74 99.66 244 216 20.96 28.28 25.49 37.61 33 72 3.41 15.63.45 20.01 0 36-.23 7.95-.64 16.57-1.09 24.5"/>
            <path d="m4509.99 496.55-4.1 9.76-2.88-10.19z"/>
        </g>
        <g class="node" transform="translate(4 616)">
            <ellipse cx="3964.58" cy="-306" fill="none" stroke="#000" rx="96.39" ry="18"/>
            <text x="3964.58" y="-300.95" font-family="Times,serif" font-size="14" text-anchor="middle">:app:domain:credential</text>
        </g>
        <g stroke="#000" class="edge">
            <path fill="none" d="M3409.84 112.06c10.54 9.69 23.01 22.55 31.74 35.94 28.2 43.29 1.89 76.71 43 108 .48.37 250.68 27.63 391.11 42.9"/>
            <path d="m3875.78 295.39 9.57 4.56-10.32 2.4z"/>
        </g>
        <g class="node" transform="translate(4 616)">
            <ellipse cx="3279.58" cy="-90" fill="none" stroke="#000" rx="87.69" ry="18"/>
            <text x="3279.58" y="-84.95" font-family="Times,serif" font-size="14" text-anchor="middle">:app:domain:holiday</text>
        </g>
        <g stroke="#000" class="edge">
            <path fill="none" d="M3332.52 109.01c-59.43 18.41-143.94 57.07-143.94 127.99v74c0 65.25 53.05 64.3 77 125 7.66 19.42 12.21 42.57 14.82 60.39"/>
            <path d="m3283.87 495.89-2.16 10.37-4.78-9.45z"/>
        </g>
        <g class="node" transform="translate(4 616)">
            <ellipse cx="4172.58" cy="-162" fill="none" stroke="#000" rx="86.67" ry="18"/>
            <text x="4172.58" y="-156.95" font-family="Times,serif" font-size="14" text-anchor="middle">:app:domain:backup</text>
        </g>
        <g stroke="#000" class="edge">
            <path fill="none" d="M3391.42 112.27c4.53 33.42 19.43 106.87 65.16 143.73 52.06 41.96 533.47 75.67 592 108 19 10.49 15.97 22.54 33 36 15.34 12.12 33.8 23.11 50.36 31.89"/>
            <path d="m4133.34 428.67 7.27 7.7-10.49-1.48z"/>
        </g>
        <g class="node" transform="translate(4 616)">
            <ellipse cx="3957.58" cy="-234" fill="none" stroke="#000" rx="78.48" ry="18"/>
            <text x="3957.58" y="-228.95" font-family="Times,serif" font-size="14" text-anchor="middle">:app:domain:fetch</text>
        </g>
        <g stroke="#000" class="edge">
            <path fill="none" d="M3386.45 112.44c-4.78 32.73-9.84 103.65 27.13 143.56 62.17 67.1 327.18 102.96 464.6 117.35"/>
            <path d="m3878.36 369.85 9.59 4.51-10.3 2.45z"/>
        </g>
        <g class="node" transform="translate(4 616)">
            <ellipse cx="3840.58" cy="-162" fill="none" stroke="#000" rx="74.89" ry="18"/>
            <text x="3840.58" y="-156.95" font-family="Times,serif" font-size="14" text-anchor="middle">:app:domain:fcm</text>
        </g>
        <g stroke="#000" class="edge">
            <path fill="none" d="M3370.25 112.08c-43.87 40.78-142.96 145.71-86.67 215.92 59.1 73.72 337.74 106.77 478.79 118.99"/>
            <path d="m3762.34 443.47 9.67 4.33-10.26 2.65z"/>
        </g>
        <g class="node" transform="translate(4 616)">
            <ellipse cx="4060.58" cy="-378" fill="none" stroke="#000" rx="91.27" ry="18"/>
            <text x="4060.58" y="-372.95" font-family="Times,serif" font-size="14" text-anchor="middle">:app:domain:calendar</text>
        </g>
        <g stroke="#000" class="edge">
            <path fill="none" d="M3458.8 106.99c58.02 10.26 142.97 25.74 216.78 41.01 113.48 23.49 244.74 54.28 322.1 72.8"/>
            <path d="m3998.32 217.35 8.9 5.74-10.54 1.07z"/>
        </g>
        <g class="node" transform="translate(4 616)">
            <ellipse cx="1898.58" cy="-234" fill="none" stroke="#000" rx="123.52" ry="18"/>
            <text x="1898.58" y="-228.95" font-family="Times,serif" font-size="14" text-anchor="middle">:app:core:filter-database-room</text>
        </g>
        <g stroke="#000" class="edge">
            <path fill="none" d="M3292.03 94.29c-227.17-.76-785.78 2.79-965.45 53.71-159.77 45.28-325.64 159.58-392.91 209.3"/>
            <path d="m1936.17 359.8-10.11 3.17 5.93-8.78z"/>
        </g>
        <g class="node" transform="translate(4 616)">
            <ellipse cx="1034.58" cy="-234" fill="none" stroke="#000" rx="132.22" ry="18"/>
            <text x="1034.58" y="-228.95" font-family="Times,serif" font-size="14" text-anchor="middle">:app:core:backup-database-room</text>
        </g>
        <g stroke="#000" class="edge">
            <path fill="none" d="M3292.25 95.8c-349.6 3.18-1530 16.45-1695.67 52.2-204.82 44.2-429.46 161.12-518.5 210.49"/>
            <path d="m1079.91 361.48-10.44 1.81 7.03-7.93z"/>
        </g>
        <g class="node" transform="translate(4 616)">
            <ellipse cx="1684.58" cy="-162" fill="none" stroke="#000" rx="158.32" ry="18"/>
            <text x="1684.58" y="-156.95" font-family="Times,serif" font-size="14" text-anchor="middle">:app:core:account-preferences-datastore</text>
        </g>
        <g stroke="#000" class="edge">
            <path fill="none" d="M3291.95 94.87c-200.38.74-672.34 7.66-1065.37 53.13-213.8 24.74-476-126.22-476 89v74c0 40.45-1.55 52.51-19 89-4.61 9.63-11.29 19.05-18.03 27.21"/>
            <path d="m1716.24 429.45-9.21 5.24 3.93-9.84z"/>
        </g>
        <g class="node" transform="translate(4 616)">
            <ellipse cx="1309.58" cy="-234" fill="none" stroke="#000" rx="124.54" ry="18"/>
            <text x="1309.58" y="-228.95" font-family="Times,serif" font-size="14" text-anchor="middle">:app:core:diary-database-room</text>
        </g>
        <g stroke="#000" class="edge">
            <path fill="none" d="M3292.05 95.08c-338.64.69-1451.24 6.5-1604.47 52.92-144.21 43.68-287.9 158.07-346.51 208.51"/>
            <path d="m1343.39 359.13-9.84 3.91 5.25-9.2z"/>
        </g>
        <g class="node" transform="translate(4 616)">
            <ellipse cx="697.58" cy="-162" fill="none" stroke="#000" rx="157.3" ry="18"/>
            <text x="697.58" y="-156.95" font-family="Times,serif" font-size="14" text-anchor="middle">:app:core:holiday-preferences-datastore</text>
        </g>
        <g stroke="#000" class="edge">
            <path fill="none" d="M3291.86 95.08c-475.8 1-2527.28 12.81-2527.28 141.92v74c0 40.97-6.22 52.09-24 89-4.49 9.32-10.68 18.68-16.81 26.88"/>
            <path d="m726.55 429-8.91 5.72 3.4-10.03z"/>
        </g>
        <g class="node" transform="translate(4 616)">
            <ellipse cx="1585.58" cy="-234" fill="none" stroke="#000" rx="133.24" ry="18"/>
            <text x="1585.58" y="-228.95" font-family="Times,serif" font-size="14" text-anchor="middle">:app:core:holiday-database-room</text>
        </g>
        <g stroke="#000" class="edge">
            <path fill="none" d="M3292.08 95.61c-344.56 2.49-1487.83 13.65-1555.5 52.39-79.52 45.53-122.35 153.4-138.87 204.81"/>
            <path d="m1601.08 353.78-6.3 8.51-.39-10.58z"/>
        </g>
        <g class="node" transform="translate(4 616)">
            <ellipse cx="5022.58" cy="-378" fill="none" stroke="#000" rx="81.55" ry="18"/>
            <text x="5022.58" y="-372.95" font-family="Times,serif" font-size="14" text-anchor="middle">:app:feature:memo</text>
        </g>
        <g stroke="#000" class="edge">
            <path fill="none" d="M3487.05 95.56c310.34 2.2 1262.86 12.19 1395.53 52.44 44.22 13.41 88.44 43.92 115.98 65.47"/>
            <path d="m5000.42 210.47 5.63 8.98-10-3.5z"/>
        </g>
        <g class="node" transform="translate(4 616)">
            <ellipse cx="5833.58" cy="-378" fill="none" stroke="#000" rx="68.75" ry="18"/>
            <text x="5833.58" y="-372.95" font-family="Times,serif" font-size="14" text-anchor="middle">:app:feature:tag</text>
        </g>
        <g stroke="#000" class="edge">
            <path fill="none" d="M3486.77 95.65c426.61 3.03 2116.79 17.24 2223.81 52.35 39.7 13.02 77.93 42.96 101.89 64.52"/>
            <path d="m5814.84 209.94 4.98 9.35-9.73-4.2z"/>
        </g>
        <g class="node" transform="translate(4 616)">
            <ellipse cx="5542.58" cy="-450" fill="none" stroke="#000" rx="88.71" ry="18"/>
            <text x="5542.58" y="-444.95" font-family="Times,serif" font-size="14" text-anchor="middle">:app:feature:calendar</text>
        </g>
        <g stroke="#000" class="edge">
            <path fill="none" d="M3486.94 95.73c353.65 2.94 1569.78 15.53 1956.64 52.27 9.21.87 18.84 2.08 28.35 3.44"/>
            <path d="m5472.16 147.93 9.37 4.95-10.41 1.98z"/>
        </g>
        <g class="node" transform="translate(4 616)">
            <ellipse cx="4752.58" cy="-378" fill="none" stroke="#000" rx="76.94" ry="18"/>
            <text x="4752.58" y="-372.95" font-family="Times,serif" font-size="14" text-anchor="middle">:app:feature:more</text>
        </g>
        <g stroke="#000" class="edge">
            <path fill="none" d="M3487.11 95.52c276.98 1.97 1055.28 11.16 1162.47 52.48 34.48 13.29 65.95 42.46 85.7 63.8"/>
            <path d="m4737.66 209.21 4.08 9.77-9.29-5.09z"/>
        </g>
        <g class="node" transform="translate(4 616)">
            <ellipse cx="5311.58" cy="-378" fill="none" stroke="#000" rx="86.15" ry="18"/>
            <text x="5311.58" y="-372.95" font-family="Times,serif" font-size="14" text-anchor="middle">:app:feature:account</text>
        </g>
        <g stroke="#000" class="edge">
            <path fill="none" d="M3487.25 95.01c348.72.42 1520.19 5.41 1681.33 52.99 44.99 13.28 90.16 43.82 118.33 65.41"/>
            <path d="m5288.87 210.5 5.72 8.92-10.03-3.41z"/>
        </g>
        <g class="node" transform="translate(4 616)">
            <ellipse cx="2628.58" cy="-162" fill="none" stroke="#000" rx="112.26" ry="18"/>
            <text x="2628.58" y="-156.95" font-family="Times,serif" font-size="14" text-anchor="middle">:library:firebase-messaging</text>
        </g>
        <g stroke="#000" class="edge">
            <path fill="none" d="M3293.21 97.05c-113.15 4.02-305.92 15.88-467.63 50.95-118.13 25.62-257-31.88-257 89v74c0 43.35 25.1 88.09 43.86 115.48"/>
            <path d="m2615.21 424.34 2.92 10.18-8.63-6.14z"/>
        </g>
        <g class="node" transform="translate(4 616)">
            <ellipse cx="1842.58" cy="-18" fill="none" stroke="#000" rx="71.31" ry="18"/>
            <text x="1842.58" y="-12.95" font-family="Times,serif" font-size="14" text-anchor="middle">:app:core:model</text>
        </g>
        <g stroke="#000" class="edge">
            <path fill="none" d="M2289.8 464.64c-100.43 12.55-264.34 33.97-291.22 43.36-44.87 15.67-91.29 45.12-120.83 65.84"/>
            <path d="m1879.81 576.67-10.18 2.95 6.12-8.65z"/>
        </g>
        <g class="node" transform="translate(4 616)">
            <ellipse cx="4117.58" cy="-18" fill="none" stroke="#000" rx="85.13" ry="18"/>
            <text x="4117.58" y="-12.95" font-family="Times,serif" font-size="14" text-anchor="middle">:common:exception</text>
        </g>
        <g stroke="#000" class="edge">
            <path fill="none" d="M2300.46 467.06c-61.4 13.63-136.82 38.97-99.88 76.94 16.08 16.53 1438.61 44.06 1825.05 51.24"/>
            <path d="m4025.59 591.74 9.93 3.69-10.06 3.31z"/>
        </g>
        <g class="node" transform="translate(4 616)">
            <ellipse cx="2327.58" cy="-90" fill="none" stroke="#000" rx="121.98" ry="18"/>
            <text x="2327.58" y="-84.95" font-family="Times,serif" font-size="14" text-anchor="middle">:app:core:account-preferences</text>
        </g>
        <g stroke="#000" class="edge">
            <path fill="none" d="M2359.43 472.3c-4.07 7.72-8.97 16.99-13.52 25.59"/>
            <path d="m2349.1 499.35-7.77 7.21 1.58-10.48z"/>
        </g>
        <g class="node" transform="translate(4 616)">
            <ellipse cx="2076.58" cy="-90" fill="none" stroke="#000" rx="72.85" ry="18"/>
            <text x="2076.58" y="-84.95" font-family="Times,serif" font-size="14" text-anchor="middle">:common:model</text>
        </g>
        <g stroke="#000" class="edge">
            <path fill="none" d="M2311.68 468.83c-48.92 11.89-119.33 29-169.55 41.21"/>
            <path d="m2143.11 513.4-10.54-1.04 8.89-5.76z"/>
        </g>
        <g stroke="#000" class="edge">
            <path fill="none" d="M183.96 538.86c15.07 2.01 30.83 3.86 45.62 5.14 586.11 50.63 1295.53 53.89 1534.17 53.4"/>
            <path d="m1763.57 593.9 10.01 3.48-9.99 3.52z"/>
        </g>
        <g stroke="#000" class="edge">
            <path fill="none" d="M5544.2 328.3c5.29 7.89 11.68 17.4 17.56 26.15"/>
            <path d="m5564.58 352.39 2.67 10.25-8.48-6.35z"/>
        </g>
        <g stroke="#000" class="edge">
            <path fill="none" d="M5612.64 399.41c20.28 10.07 46.4 23.04 67.86 33.69"/>
            <path d="m5681.85 429.87 7.41 7.58-10.52-1.31z"/>
        </g>
        <g stroke="#000" class="edge">
            <path fill="none" d="M5567.54 400.27c-25.13 34.45-86.92 111.18-159.96 143.73-92.78 41.34-385.36 50.52-530.98 52.5"/>
            <path d="m4877.08 599.99-10.04-3.37 9.95-3.63z"/>
        </g>
        <g stroke="#000" class="edge">
            <path fill="none" d="M4963.76 323.08c58.13 15.19 141.82 47.61 177.82 112.92 23.17 42.04 31.29 71.6 0 108-33.46 38.93-172.56 49.6-264.73 52.33"/>
            <path d="m4877.18 599.83-10.09-3.24 9.9-3.76z"/>
        </g>
        <g stroke="#000" class="edge">
            <path fill="none" d="M5214.34 328.11c29.86 42.25 97.63 152.68 41.24 215.89-24.83 27.84-254.2 43.07-380.5 49.42"/>
            <path d="m4875.61 596.89-10.17-3 9.82-3.99z"/>
        </g>
        <g stroke="#000" class="edge">
            <path fill="none" d="M5720.58 328.41v96.17"/>
            <path d="m5724.08 424.38-3.5 10-3.5-10z"/>
        </g>
        <g stroke="#000" class="edge">
            <path fill="none" d="M3498.03 244.79c-58.12 6.62-143.97 20.26-214.45 47.21-57.74 22.08-69.03 35.61-119 72-39.48 28.74-62.73 27.57-83 72-8.45 18.51.91 96.07 7 108 5.81 11.37 15.17 21.41 24.8 29.6"/>
            <path d="m3115.35 570.7 5.66 8.95-10.01-3.47z"/>
        </g>
        <g stroke="#000" class="edge">
            <path fill="none" d="M3634.52 242.02c198.14 8.74 751.19 34.39 787.06 49.98 21.34 9.27 17.02 25.94 38 36 106.79 51.18 157.21-15.18 264 36 20.98 10.06 17.95 24.2 38 36 45.79 26.96 82.59-6.86 114 36 28.37 38.72 23.06 65.9 0 108-7.67 14-20.78 24.83-34.35 32.95"/>
            <path d="m4843.12 579.91-10.45 1.75 7.08-7.89z"/>
        </g>
        <g stroke="#000" class="edge">
            <path fill="none" d="M3630.42 245.3c132.28 12.67 430.29 41.21 578.33 55.38"/>
            <path d="m4208.88 297.18 9.62 4.44-10.29 2.53z"/>
        </g>
        <g class="node" transform="translate(4 616)">
            <ellipse cx="974.58" cy="-162" fill="none" stroke="#000" rx="101.51" ry="18"/>
            <text x="974.58" y="-156.95" font-family="Times,serif" font-size="14" text-anchor="middle">:app:core:diary-database</text>
        </g>
        <g stroke="#000" class="edge">
            <path fill="none" d="M3494.46 241.58C3071.45 257.2 877.1 339.37 853.58 364c-11.05 11.57-8.83 22.66 0 36 11.09 16.75 28.66 28.23 47.16 36.08"/>
            <path d="m901.9 432.77 8.07 6.87-10.59-.33z"/>
        </g>
        <g stroke="#000" class="edge">
            <path fill="none" d="M3320.41 325.69c-67.53 31.91-221.56 105.07-224.83 110.31-26.96 43.16 6.69 101.48 31.36 134.78"/>
            <path d="m3129.69 568.61 3.31 10.06-8.86-5.8z"/>
        </g>
        <g stroke="#000" class="edge">
            <path fill="none" d="M3403.23 318.81c20.07 2.97 43.27 6.33 64.35 9.19 127.82 17.35 162.41 6.55 288 36 47.21 11.07 161.83 51.99 206 72 88.83 40.25 97.8 79.31 191 108 101.71 31.31 407.62 45.4 556.62 50.54"/>
            <path d="m4709.13 591.03 9.88 3.84-10.11 3.16z"/>
        </g>
        <g stroke="#000" class="edge">
            <path fill="none" d="M3408.38 314.91c171.07 11.79 681.72 46.97 879.61 60.61"/>
            <path d="m4288.2 372.02 9.73 4.18-10.21 2.81z"/>
        </g>
        <g stroke="#000" class="edge">
            <path fill="none" d="M3295.25 315.52c-52.23 3.99-132.15 9.62-201.67 12.48-60.96 2.51-2153.22-7.49-2196 36-11.22 11.41-7.61 21.93 0 36 7.07 13.08 18.92 23.44 31.41 31.41"/>
            <path d="m930.44 428.2 6.85 8.08-10.39-2.04z"/>
        </g>
        <g stroke="#000" class="edge">
            <path fill="none" d="M3169.66 471.93c-5.89 10.06-12.64 23.31-16.08 36.07-5.31 19.67-6.48 42.64-6.37 60.32"/>
            <path d="m3150.71 568.02-3.28 10.07-3.72-9.92z"/>
        </g>
        <g stroke="#000" class="edge">
            <path fill="none" d="M3246.44 463.23c76.76 9.78 207.36 27.02 319.14 44.77 89.2 14.16 110.28 25.65 200 36 182.21 21.02 733.52 42.44 944.05 50.08"/>
            <path d="m4709.53 590.57 9.86 3.86-10.12 3.14z"/>
        </g>
        <g stroke="#000" class="edge">
            <path fill="none" d="M3254.12 458.89c224.62 11.87 901.72 47.67 1154.18 61.02"/>
            <path d="m4408.32 516.41 9.81 4.02-10.17 2.97z"/>
        </g>
        <g stroke="#000" class="edge">
            <path fill="none" d="M3107.33 459.06c-130.01 7.52-409.57 25.02-644.75 48.94-10.58 1.08-21.63 2.32-32.63 3.64"/>
            <path d="m2430.38 515.11-10.35-2.26 9.5-4.69z"/>
        </g>
        <g stroke="#000" class="edge">
            <path fill="none" d="M2918.49 243.61c-75.57 5.97-191.34 19.29-287.91 48.39-71.57 21.57-88.72 32.21-152 72-30.39 19.11-61.92 45.4-83.4 64.45"/>
            <path d="m2397.53 431.04-9.78 4.08 5.11-9.29z"/>
        </g>
        <g stroke="#000" class="edge">
            <path fill="none" d="M2973.86 255.62c-11.47 9.22-23.95 21.78-30.28 36.38-22.27 51.38-34.9 208.2 0 252 15.97 20.05 75.37 33.98 126.15 42.51"/>
            <path d="m3070.28 583.05 9.31 5.06-10.43 1.85z"/>
        </g>
        <g stroke="#000" class="edge">
            <path fill="none" d="M3080.62 241.92c297.2 10.6 1300.49 46.62 1307.96 50.08 19.7 9.12 14.11 25.3 33 36 69.47 39.35 99.96 11.64 176 36 75.03 24.04 102.26 20.63 162 72 28.79 24.76 35.35 35.55 46 72 5.82 19.92 2.09 43.14-2.84 60.87"/>
            <path d="m4806.16 569.67-6.29 8.52-.4-10.59z"/>
        </g>
        <g stroke="#000" class="edge">
            <path fill="none" d="M3076.73 244.64c174.94 12.62 597.91 43.15 791.76 57.14"/>
            <path d="m3868.57 298.27 9.72 4.21-10.22 2.78z"/>
        </g>
        <g stroke="#000" class="edge">
            <path fill="none" d="M2951 253.19c-68.84 21.1-199.64 63.4-306.42 110.81-61.44 27.27-78.58 32.55-133 72-18.84 13.65-18.26 23.69-38 36-22.85 14.26-50.13 25.59-74.64 34.05"/>
            <path d="m2400.29 509.29-10.59-.15 8.37-6.49z"/>
        </g>
        <g stroke="#000" class="edge">
            <path fill="none" d="M395.71 466.4c-57.22 11.68-146.57 29.91-210.4 42.94"/>
            <path d="m186.08 512.75-10.49-1.42 9.09-5.43z"/>
        </g>
        <g stroke="#000" class="edge">
            <path fill="none" d="M479.03 470.98c16.35 9.95 37.22 23.4 54.55 37.02 18.29 14.38 16.48 27.17 38 36 29.38 12.06 2034.73 44.43 2487.04 51.59"/>
            <path d="m3058.51 592.09 9.95 3.65-10.06 3.34z"/>
        </g>
        <g stroke="#000" class="edge">
            <path fill="none" d="M504.7 467.07c10.2 1.95 20.83 3.71 30.88 4.93 386.4 46.75 486.29 16.11 875 36 261.48 13.38 326.37 25.87 588 36 984.73 38.12 1231.79 13.49 2217 36 175.81 4.02 381.7 10.51 493.83 14.2"/>
            <path d="m4709.23 590.7 9.88 3.82-10.11 3.17z"/>
        </g>
        <g stroke="#000" class="edge">
            <path fill="none" d="M504.22 467.19c10.35 1.96 21.15 3.7 31.36 4.81 476.6 51.76 1677.72 25.11 2157 36 173.8 3.95 376.3 10.11 493.46 13.83"/>
            <path d="m3186.06 518.33 9.88 3.82-10.1 3.18z"/>
        </g>
        <g class="node" transform="translate(4 616)">
            <ellipse cx="697.58" cy="-90" fill="none" stroke="#000" rx="120.96" ry="18"/>
            <text x="697.58" y="-84.95" font-family="Times,serif" font-size="14" text-anchor="middle">:app:core:holiday-preferences</text>
        </g>
        <g stroke="#000" class="edge">
            <path fill="none" d="M499.19 468.33c38.71 10.84 93.74 26.25 136.64 38.26"/>
            <path d="m636.6 503.17 8.69 6.07-10.57.67z"/>
        </g>
        <g class="node" transform="translate(4 616)">
            <ellipse cx="410.58" cy="-90" fill="none" stroke="#000" rx="110.21" ry="18"/>
            <text x="410.58" y="-84.95" font-family="Times,serif" font-size="14" text-anchor="middle">:app:core:holiday-database</text>
        </g>
        <g stroke="#000" class="edge">
            <path fill="none" d="M442.43 472.3c-4.07 7.72-8.97 16.99-13.52 25.59"/>
            <path d="m432.1 499.35-7.77 7.21 1.58-10.48z"/>
        </g>
        <g stroke="#000" class="edge">
            <path fill="none" d="M2323.1 399.95c6.97 8.13 15.48 18.05 23.24 27.11"/>
            <path d="m2348.94 424.71 3.85 9.87-9.17-5.32z"/>
        </g>
        <g stroke="#000" class="edge">
            <path fill="none" d="M2294.18 399.89c-20.18 23.24-56.31 63.2-73.6 72.11-92.2 47.52-293.64-3.01-222 72 36.43 38.14 794.84 49.42 1059.69 52.2"/>
            <path d="m3058.27 592.7 9.96 3.6-10.03 3.4z"/>
        </g>
        <g stroke="#000" class="edge">
            <path fill="none" d="M2380.17 386.74c214.79 11.23 841.62 44.26 885.41 49.26 46.39 5.3 368.57 61.22 414 72 53.76 12.76 64.57 26.46 119 36 173.95 30.49 703.73 46.08 910.29 51.12"/>
            <path d="m4708.81 591.62 9.91 3.74-10.08 3.26z"/>
        </g>
        <g stroke="#000" class="edge">
            <path fill="none" d="M2380 387.08c68.01 3.78 173.24 9.33 264.58 12.92 570.45 22.43 713.77 8.47 1284 36 51.97 2.51 109.99 6.42 156.84 9.87"/>
            <path d="m4085.55 442.37 9.71 4.23-10.23 2.75z"/>
        </g>
        <g stroke="#000" class="edge">
            <path fill="none" d="M2238.18 387.79c-55.12 3.65-133.72 8.64-202.6 12.21-386.48 20.03-483.85 10.47-870 36-29 1.92-60.49 4.56-89.21 7.19"/>
            <path d="m1076.88 446.66-10.28-2.56 9.63-4.41z"/>
        </g>
        <g class="node" transform="translate(4 616)">
            <ellipse cx="207.58" cy="-162" fill="none" stroke="#000" rx="109.19" ry="18"/>
            <text x="207.58" y="-156.95" font-family="Times,serif" font-size="14" text-anchor="middle">:app:core:backup-database</text>
        </g>
        <g stroke="#000" class="edge">
            <path fill="none" d="M2238.48 388.15c-55.12 3.86-133.87 8.96-202.9 11.85-740.86 31.05-928.06-12.21-1668 36-19.41 1.26-40.12 3.15-59.91 5.2"/>
            <path d="m308.29 444.66-10.31-2.43 9.57-4.54z"/>
        </g>
        <g stroke="#000" class="edge">
            <path fill="none" d="M2956.77 316.49c-74.65 7.37-203.71 22.53-312.19 47.51-79.8 18.38-169.62 49.33-224.51 69.46"/>
            <path d="m2421.59 436.63-10.59.18 8.16-6.74z"/>
        </g>
        <g stroke="#000" class="edge">
            <path fill="none" d="M3006.17 327.86c-28.72 41.2-93.5 148.6-42.59 216.14 13.7 18.18 65.23 32.02 110.44 40.99"/>
            <path d="m3074.4 581.5 9.16 5.33-10.48 1.55z"/>
        </g>
        <g stroke="#000" class="edge">
            <path fill="none" d="M3077.86 318.02c195.99 23.35 812.74 98.08 850.72 117.98 19.22 10.07 16.46 21.95 33 36 22.27 18.91 82.33 62.63 110 72 115.73 39.19 472.48 49.42 636.69 52.08"/>
            <path d="m4708.3 592.58 9.94 3.65-10.05 3.35z"/>
        </g>
        <g stroke="#000" class="edge">
            <path fill="none" d="M3081.69 315.31c127.41 8.76 424.48 29.43 673.89 48.69 40.21 3.1 84.81 6.76 122.2 9.88"/>
            <path d="m3877.96 370.39 9.67 4.32-10.26 2.65z"/>
        </g>
        <g stroke="#000" class="edge">
            <path fill="none" d="M2953.58 313.36c-98.14 3.51-289.97 10.17-453 14.64-45.44 1.25-1604.21 3.51-1636 36-11.19 11.44-8.61 22.51 0 36 10.01 15.7 26.01 26.82 42.89 34.67"/>
            <path d="m908.81 431.43 7.84 7.12-10.57-.67z"/>
        </g>
        <g stroke="#000" class="edge">
            <path fill="none" d="M2665.86 393.03c-58.22 11.75-155.26 31.32-222.56 44.9"/>
            <path d="m2444.33 441.29-10.5-1.45 9.11-5.41z"/>
        </g>
        <g stroke="#000" class="edge">
            <path fill="none" d="M2728.6 399.94c30.48 39.46 105.06 134.82 120.98 144.06 35.88 20.84 140.7 36.09 216.1 44.74"/>
            <path d="m3065.99 585.26 9.55 4.6-10.33 2.35z"/>
        </g>
        <g stroke="#000" class="edge">
            <path fill="none" d="M2777.66 383.82c131.84 2.5 449.23 12.49 711.92 52.18 12.92 1.95 445.07 106.08 458 108 276.43 40.96 608.32 50.31 760.83 52.41"/>
            <path d="m4708.06 592.91 9.95 3.63-10.04 3.37z"/>
        </g>
        <g stroke="#000" class="edge">
            <path fill="none" d="M2775.88 386.74c188.77 11.7 768.66 47.66 985.62 61.11"/>
            <path d="m3761.52 444.34 9.76 4.12-10.19 2.87z"/>
        </g>
        <g stroke="#000" class="edge">
            <path fill="none" d="M2696.33 399.24c-10.38 8.75-23.4 19.73-34.96 29.48"/>
            <path d="m2663.94 431.13-9.9 3.77 5.39-9.12z"/>
        </g>
        <g stroke="#000" class="edge">
            <path fill="none" d="M3504.15 175.49c-102.87 16.69-297.76 63.75-399.57 188.51-51.15 62.67-64.76 108.46-27 180 6.56 12.43 17.49 22.75 28.83 30.87"/>
            <path d="m3108.27 571.9 6.41 8.43-10.27-2.59z"/>
        </g>
        <g stroke="#000" class="edge">
            <path fill="none" d="M3647.25 171.03c113.04 6.63 332.48 21.89 517.33 48.97 158 23.14 197.93 30.02 352 72 47.6 12.97 57.28 23.49 105 36 85.25 22.35 112.62 4.68 195 36 57.78 21.97 88.64 18.15 119 72 23.57 41.81 27.42 68.6 0 108-15.48 22.25-41.45 35.18-67.04 42.69"/>
            <path d="m4869.65 590.01-10.56-.82 8.77-5.94z"/>
        </g>
        <g stroke="red" stroke-width="2" class="edge">
            <path fill="none" d="M3637.05 176.3c88.56 12.57 246.6 35.01 343.73 48.8"/>
            <path fill="red" d="m3979.62 221.4 9.41 4.87-10.4 2.06z"/>
        </g>
        <g class="node" transform="translate(4 616)">
            <ellipse cx="1998.58" cy="-162" fill="none" stroke="#000" rx="100.48" ry="18"/>
            <text x="1998.58" y="-156.95" font-family="Times,serif" font-size="14" text-anchor="middle">:app:core:filter-database</text>
        </g>
        <g stroke="#000" class="edge">
            <path fill="none" d="M3495.16 170.56c-124.09 6.36-376.95 21.65-589.58 49.44-353.45 46.2-463.77-1.9-789 144-34.43 15.45-67.73 43.43-89.35 63.91"/>
            <path d="m2029.69 430.4-9.62 4.44 4.75-9.47z"/>
        </g>
        <g stroke="#000" class="edge">
            <path fill="none" d="M4369.06 319.12c156.56 17.71 534.35 62.59 848.52 116.88 153.06 26.45 229.14-34.72 342 72 16.27 15.39 21.93 40.55 23.71 60.2"/>
            <path d="m5586.78 567.89-2.91 10.19-4.08-9.78z"/>
        </g>
        <g stroke="#000" class="edge">
            <path fill="none" d="M4218.78 317.66c-103.36 9.48-281.51 27.79-344.2 46.34-70.53 20.87-90.32 27.66-149 72-51.24 38.72-38.95 78.52-96 108-66.16 34.19-271.36 46.44-391.3 50.75"/>
            <path d="m3238.58 598.24-10.12-3.15 9.88-3.85z"/>
        </g>
        <g stroke="#000" class="edge">
            <path fill="none" d="M4353.68 323.37c102.12 22.5 308.78 71.56 369.9 112.63 35.53 23.88 47.67 32.42 64 72 7.82 18.95 8.88 42.11 8.09 60.05"/>
            <path d="m4799.17 568.28-4.18 9.74-2.81-10.22z"/>
        </g>
        <g stroke="red" stroke-width="2" class="edge">
            <path fill="none" d="M4313.01 327.95c8.75 8.51 19.53 18.98 29.18 28.37"/>
            <path fill="red" d="m4343.41 352.62 4.73 9.48-9.61-4.46z"/>
        </g>
        <g stroke="#000" class="edge">
            <path fill="none" d="M4363.15 321.09c29.24 7.47 61.85 20.44 84.43 42.91 36.35 36.18 49.6 96.95 54.37 132.58"/>
            <path d="m4505.38 495.78-2.29 10.35-4.66-9.52z"/>
        </g>
        <g stroke="#000" class="edge">
            <path fill="none" d="M4281.23 328.13c-20.64 24.63-58.86 70.23-82.96 98.99"/>
            <path d="m4201.06 429.23-9.1 5.42 3.74-9.91z"/>
        </g>
        <g stroke="#000" class="edge">
            <path fill="none" d="M4219.36 317.91c-42.81 3.62-97.23 7.76-145.78 10.09-51.28 2.46-1804.39 8.9-1848 36-45.93 28.54-11.93 76.67-56 108-91.14 64.79-151.43-18.62-249 36-25.8 14.44-46.39 41.69-59.23 62.24"/>
            <path d="m1864.43 571.91-8.14 6.79 2.13-10.38z"/>
        </g>
        <g stroke="#000" class="edge">
            <path fill="none" d="M4359.55 321.97c35.6 8.01 79.72 21.19 115.03 42.03 88.71 52.36 214.88 103.41 146 180-26.47 29.43-266.91 43.79-404.13 49.64"/>
            <path d="m4216.78 597.13-10.14-3.08 9.84-3.91z"/>
        </g>
        <g stroke="#000" class="edge">
            <path fill="none" d="M4431.96 390.01c206.94 22.67 846.91 93.94 937.62 117.99 63.28 16.78 132.57 48.18 174.67 68.84"/>
            <path d="m5545.58 573.6 7.41 7.57-10.52-1.3z"/>
        </g>
        <g stroke="#000" class="edge">
            <path fill="none" d="M4354.5 400.12c-16.66 20.52-47.48 54.34-81.92 71.88-180.55 91.94-800.56 116.88-1034.07 123.1"/>
            <path d="m3238.62 598.59-10.09-3.24 9.9-3.75z"/>
        </g>
        <g stroke="#000" class="edge">
            <path fill="none" d="M4414 396.1c31.32 9.5 73.22 23.53 108.58 39.9 89.61 41.49 187.43 104.76 237.09 138.29"/>
            <path d="m4761.38 571.22 6.31 8.52-10.24-2.72z"/>
        </g>
        <g stroke="#000" class="edge">
            <path fill="none" d="M4384.03 399.65c10.26 10.42 23.71 24.12 35.55 36.35 20.69 21.37 44.01 45.82 60.99 63.68"/>
            <path d="m4482.96 497.11 4.35 9.67-9.42-4.84z"/>
        </g>
        <g stroke="red" stroke-width="2" class="edge">
            <path fill="none" d="M4328.47 397.33c-28.8 10.56-68.26 25.02-99.75 36.56"/>
            <path fill="red" d="m4231.39 436.64-10.59.16 8.18-6.73z"/>
        </g>
        <g stroke="#000" class="edge">
            <path fill="none" d="M4298.52 386.99c-64.6 3.66-163.79 9.09-249.94 13.01-423.42 19.28-533.23-22.71-953 36-133.23 18.63-168.26 24.16-294 72-31.96 12.16-35.07 26.77-68 36-149.75 41.98-613.86 50.71-804.23 52.52"/>
            <path d="m1929.57 600.02-10.03-3.41 9.97-3.59z"/>
        </g>
        <g stroke="#000" class="edge">
            <path fill="none" d="M4398.82 398.54c62.59 31.29 197.91 99.73 203.76 109.46 8.24 13.72 10.68 24.08 0 36-25.28 28.22-253.71 42.98-386.48 49.24"/>
            <path d="m4216.41 596.73-10.15-3.03 9.82-3.96z"/>
        </g>
        <g stroke="#000" class="edge">
            <path fill="none" d="M4587.9 532.41c205.15 13.3 731.93 47.48 924.13 59.95"/>
            <path d="m5512.12 588.86 9.75 4.14-10.2 2.84z"/>
        </g>
        <g stroke="#000" class="edge">
            <path fill="none" d="M4420.6 532.05c-58.57 3.48-138.55 8.15-209.02 11.95-361.72 19.51-792.83 40.22-974.92 48.85"/>
            <path d="m3236.96 596.34-10.15-3.02 9.82-3.97z"/>
        </g>
        <g stroke="#000" class="edge">
            <path fill="none" d="M4559.77 540.41c48.89 11.89 120.2 29.22 171 41.57"/>
            <path d="m4731.56 578.57 8.89 5.76-10.54 1.04z"/>
        </g>
        <g stroke="red" stroke-width="2" class="edge">
            <path fill="none" d="M4416.9 529.31c-405.38 10.67-2094.91 55.17-2488.24 65.53"/>
            <path fill="red" d="m1930.52 598.29-10.09-3.23 9.91-3.77z"/>
        </g>
        <g stroke="#000" class="edge">
            <path fill="none" d="M4440.47 538.72c-67.61 12.35-174 31.8-245.08 44.79"/>
            <path d="m4196.26 586.91-10.47-1.65 9.21-5.24z"/>
        </g>
        <g stroke="#000" class="edge">
            <path fill="none" d="M4055.4 318.07c106.49 9.01 292.42 25.86 451.18 45.93 103.96 13.14 129.32 20.81 233 36 115.43 16.91 144.67 18.47 260 36 .76.12 434.28 71.74 435 72 43.97 16.11 89.48 45.47 118.44 66.05"/>
            <path d="m5554.89 571.08 6.07 8.69-10.16-3.01z"/>
        </g>
        <g stroke="#000" class="edge">
            <path fill="none" d="M3876.39 315.51c-81.58 5.89-192.56 19.16-224.81 48.49-61.26 55.7 14.62 125.84-48 180-27.2 23.52-243.05 40.26-367.43 48.06"/>
            <path d="m3236.48 595.55-10.19-2.88 9.76-4.11z"/>
        </g>
        <g stroke="#000" class="edge">
            <path fill="none" d="M4054.34 318.57c127.72 11.55 356.86 33.52 393.24 45.43 121.86 39.9 146.97 67.66 250 144 26.14 19.37 52.92 45.1 71.36 63.91"/>
            <path d="m4771.29 569.31 4.44 9.62-9.47-4.75z"/>
        </g>
        <g stroke="#000" class="edge">
            <path fill="none" d="M4009.99 326.72c22.14 9.3 49.35 22.2 71.59 37.28 27.09 18.36 53.93 44.43 72.14 63.61"/>
            <path d="m4156.15 425.08 4.26 9.7-9.38-4.92z"/>
        </g>
        <g stroke="#000" class="edge">
            <path fill="none" d="m3966.85 328.3-2.42 24.16"/>
            <path d="m3967.92 352.79-4.48 9.6-2.49-10.3z"/>
        </g>
        <g stroke="#000" class="edge">
            <path fill="none" d="M3926.47 326.64c-18.15 8.6-38.27 20.91-51.89 37.36-14.31 17.29-21.9 41.72-25.87 60.61"/>
            <path d="m3852.18 425.13-5.26 9.2-1.63-10.47z"/>
        </g>
        <g stroke="#000" class="edge">
            <path fill="none" d="M3874.35 313.96c-109.36 3.43-295.12 9.23-454.77 14.04-68.17 2.06-1170.37-2-1227 36-43.62 29.27-5.4 77.27-48 108-66.82 48.2-313.64-25.02-369 36-10.75 11.85-7.17 21.7 0 36 6.42 12.8 17.56 23.3 29.14 31.48"/>
            <path d="m1806.29 572.33 6.46 8.39-10.29-2.53z"/>
        </g>
        <g stroke="#000" class="edge">
            <path fill="none" d="M4022.77 325.23c79.62 22.16 221.84 66.93 249.81 110.77 36.29 56.87-48.74 111.66-105.39 140.34"/>
            <path d="m4168.85 579.42-10.52 1.29 7.42-7.57z"/>
        </g>
        <g stroke="#000" class="edge">
            <path fill="none" d="M3369.89 529.63c367.67 11.19 1799.99 54.78 2140.68 65.15"/>
            <path d="m5510.59 591.28 9.88 3.8-10.1 3.19z"/>
        </g>
        <g stroke="#000" class="edge">
            <path fill="none" d="M3252.27 543.24c-18.71 9.69-42.68 22.12-62.86 32.59"/>
            <path d="m3191.09 578.9-10.49 1.5 7.27-7.71z"/>
        </g>
        <g stroke="#000" class="edge">
            <path fill="none" d="M3359.73 535.21c31.49 3.15 68.4 6.53 101.85 8.79 244.42 16.53 995.93 42 1247.77 50.29"/>
            <path d="m4709.21 590.78 9.88 3.83-10.11 3.17z"/>
        </g>
        <g stroke="#000" class="edge">
            <path fill="none" d="M3207.43 535.17c-31.5 3.15-68.4 6.53-101.85 8.83-443.45 30.49-976.06 45.97-1176.96 51.06"/>
            <path d="m1928.89 598.55-10.08-3.25 9.91-3.75z"/>
        </g>
        <g stroke="#000" class="edge">
            <path fill="none" d="M3361.1 534.66c31.21 3.02 67.55 6.45 100.48 9.34 203.41 17.88 442.32 36.47 569.52 46.17"/>
            <path d="m4031.09 586.66 9.7 4.25-10.23 2.73z"/>
        </g>
        <g stroke="#000" class="edge">
            <path fill="none" d="M4231.37 468.27c34.19 9.18 78.68 22.78 116.21 39.73 27.99 12.64 29.62 27.03 59 36 105.08 32.09 862.85 47.65 1103.71 51.82"/>
            <path d="m5510.25 592.32 9.94 3.67-10.06 3.33z"/>
        </g>
        <g stroke="#000" class="edge">
            <path fill="none" d="M4126.41 469.1c-72.89 19.92-212.63 55.97-333.83 74.9-196.7 30.72-430.15 44.32-554.89 49.77"/>
            <path d="m3237.99 597.26-10.15-3.07 9.85-3.92z"/>
        </g>
        <g stroke="#000" class="edge">
            <path fill="none" d="M4210.2 470.85c51.75 24.3 146.72 68.45 163.38 73.15 113.68 32.08 250.21 44.78 335.81 49.78"/>
            <path d="m4709.56 590.28 9.79 4.05-10.18 2.94z"/>
        </g>
        <g stroke="red" stroke-width="2" class="edge">
            <path fill="none" d="M4235.6 467.6c55.62 11.87 139.03 29.67 198.2 42.3"/>
            <path fill="red" d="m4432.92 506.13 9.05 5.51-10.51 1.33z"/>
        </g>
        <g stroke="#000" class="edge">
            <path fill="none" d="M4095.91 460.94c-48.49 3.47-111.43 7.79-167.33 11.06-329.6 19.29-413.51 2.75-742 36-104.25 10.55-128.75 25.48-233 36-381.39 38.49-839.61 49.17-1024.09 52.01"/>
            <path d="m1929.57 599.51-10.05-3.35 9.94-3.65z"/>
        </g>
        <g stroke="#000" class="edge">
            <path fill="none" d="m4169.84 472.41-37.55 96.94"/>
            <path d="m4135.63 570.42-6.88 8.06.35-10.59z"/>
        </g>
        <g stroke="#000" class="edge">
            <path fill="none" d="M4028.44 391.82c263.09 34.71 1225.44 161.68 1488.37 196.37"/>
            <path d="m5517.11 584.7 9.46 4.78-10.38 2.16z"/>
        </g>
        <g stroke="#000" class="edge">
            <path fill="none" d="M3890.77 389.99c-40.84 6.76-91.57 20.01-130.19 46.01-49.77 33.51-28.74 78.53-81 108-73.17 41.26-309.12 50.66-440.52 52.63"/>
            <path d="m3239.4 600.13-10.05-3.36 9.96-3.64z"/>
        </g>
        <g stroke="#000" class="edge">
            <path fill="none" d="M3982.34 399.76c28.34 22.67 77.94 61.51 98.24 72.24 87.23 46.11 113.66 50.69 210 72 145.22 32.13 318.51 44.95 418.84 49.95"/>
            <path d="m4709.36 590.44 9.82 3.98-10.16 3.01z"/>
        </g>
        <g stroke="#000" class="edge">
            <path fill="none" d="M4030.68 390.8c63.6 8.11 160.16 22.79 241.9 45.2 66.58 18.25 140.58 48.46 186.71 68.55"/>
            <path d="m4460.4 501.22 7.75 7.22-10.56-.81z"/>
        </g>
        <g stroke="#000" class="edge">
            <path fill="none" d="M4005.61 397.33c33.29 10.84 79.23 25.8 115.11 37.48"/>
            <path d="m4121.64 431.43 8.42 6.42-10.59.24z"/>
        </g>
        <g stroke="#000" class="edge">
            <path fill="none" d="M3883.07 384c-239.55 3.42-950.75 16.48-1048.49 52-74.52 27.09-67.69 80.34-142 108-138.21 51.46-578.58 54.83-763.25 53.87"/>
            <path d="m1929.56 601.37-9.98-3.56 10.02-3.44z"/>
        </g>
        <g stroke="#000" class="edge">
            <path fill="none" d="M3974.4 400.15c27.91 37.33 94.32 126.16 127.55 170.59"/>
            <path d="m4104.6 568.45 3.19 10.11-8.79-5.92z"/>
        </g>
        <g stroke="#000" class="edge">
            <path fill="none" d="M3898.14 466.99c91.01 19.82 281.87 59.01 445.44 77.01 228.4 25.13 936.87 45.18 1167 51.16"/>
            <path d="m5510.4 591.66 9.9 3.76-10.08 3.24z"/>
        </g>
        <g stroke="#000" class="edge">
            <path fill="none" d="M3833.38 471.96c-14.94 21.04-43.54 56.07-77.8 72.04-89.35 41.66-370.38 50.75-516.6 52.61"/>
            <path d="m3239.39 600.11-10.04-3.38 9.96-3.62z"/>
        </g>
        <g stroke="#000" class="edge">
            <path fill="none" d="M3874.49 470.93c44.28 23.28 125.44 64.76 157.09 73.07 125.84 33.06 506.81 46.59 677.14 51.1"/>
            <path d="m4708.7 591.6 9.91 3.76-10.09 3.23z"/>
        </g>
        <g stroke="#000" class="edge">
            <path fill="none" d="M3912.11 462.16c119.95 12.72 370.11 39.26 503.77 53.43"/>
            <path d="m4416.19 512.11 9.57 4.53-10.31 2.43z"/>
        </g>
        <g stroke="#000" class="edge">
            <path fill="none" d="M3771.75 458.56c-136.41 6.99-439.66 24.07-694.17 49.44-123.1 12.27-152.82 24.56-276 36-322.65 29.95-708.32 45.04-873.45 50.52"/>
            <path d="m1928.72 598-10.11-3.17 9.88-3.83z"/>
        </g>
        <g stroke="#000" class="edge">
            <path fill="none" d="M3861.58 472.01c20.62 19.79 57.22 52.25 94 71.99 30.64 16.44 67.23 28.8 98.26 37.43"/>
            <path d="m4054.36 577.95 8.74 5.99-10.57.77z"/>
        </g>
        <g stroke="#000" class="edge">
            <path fill="none" d="M4154.41 241.7c118.31 3.51 332.83 9.74 516.17 14.3 46.16 1.15 1626.42 6.57 1662 36 31.17 25.78 19 48.55 19 89v74c0 70.55-507.6 120.24-697.46 136.36"/>
            <path d="m5654.65 594.83-10.26-2.65 9.67-4.33z"/>
        </g>
        <g stroke="#000" class="edge">
            <path fill="none" d="M4002.97 251.62c-51.67 10.62-127.39 26.3-193.39 40.38-146.39 31.23-202.05-7.29-329 72-34.62 21.62-36.57 36.67-57 72-25.86 44.73-3.76 74.39-43 108-22.84 19.56-94.7 34.01-152.46 42.84"/>
            <path d="m3228.68 590.29-10.41-1.98 9.38-4.94z"/>
        </g>
        <g stroke="#000" class="edge">
            <path fill="none" d="M4151.01 244.04c80.9 6.24 204.56 19.74 308.57 47.96 39.99 10.85 46.19 24.52 86 36 93.51 26.97 123.13 6.89 216 36 8.92 2.79 147 64.1 152 72 25.67 40.56 26.26 67.82 0 108-12.24 18.72-32.7 30.86-53.36 38.73"/>
            <path d="m4861.47 586-10.59-.03 8.3-6.58z"/>
        </g>
        <g stroke="red" stroke-width="2" class="edge">
            <path fill="none" d="M4113 253.67c36.4 11.03 86.41 26.19 124.88 37.84"/>
            <path fill="red" d="m4236.95 287.58 8.56 6.25-10.59.45z"/>
        </g>
        <g stroke="#000" class="edge">
            <path fill="none" d="M4082.63 256c24.7 22.96 68.11 62.14 86.95 72 23.25 12.17 85.45 27.92 133.99 39.07"/>
            <path d="m4304.19 363.62 8.97 5.63-10.53 1.2z"/>
        </g>
        <g stroke="#000" class="edge">
            <path fill="none" d="M4071.88 256.18c9.11 19.64 26.36 51.68 49.7 71.82 29.52 25.47 44.99 18.84 80 36 96.13 47.11 206.61 107.42 263.92 139.18"/>
            <path d="m4466.87 499.93 7.04 7.92-10.44-1.8z"/>
        </g>
        <g stroke="#000" class="edge">
            <path fill="none" d="M3975.91 242.67c-228.26 9.55-832.14 35.34-1032.33 49.33-346.41 24.21-491.34-123.99-778 72-44.3 30.29-9.87 77.47-54 108-63.75 44.11-295.09-21.58-347 36-10.71 11.88-7.65 21.95 0 36 7.63 14.02 20.74 24.89 34.26 33.04"/>
            <path d="m1800.32 573.86 7.05 7.9-10.44-1.78z"/>
        </g>
        <g stroke="#000" class="edge">
            <path fill="none" d="M3984.85 247.16c-39.23 7.07-85.62 20.25-121.27 44.84-75.87 52.34-150.9 101.25-103 180 54.07 88.89 177.43 115.78 264.86 123.27"/>
            <path d="m4025.51 591.77 9.7 4.26-10.24 2.72z"/>
        </g>
        <g stroke="#000" class="edge">
            <path fill="none" d="M1895.75 400.28c-6.22 18.61-12.95 48.64-2.17 71.72 21.09 45.17 39.54 53.92 86 72 99.35 38.67 821.66 49.56 1078.59 52.22"/>
            <path d="m3058.2 592.72 9.97 3.61-10.04 3.39z"/>
        </g>
        <g stroke="#000" class="edge">
            <path fill="none" d="M1927.04 400.12c12.69 8.88 28.37 19.86 42.15 29.51"/>
            <path d="m1970.94 426.58 6.19 8.6-10.2-2.86z"/>
        </g>
        <g class="node" transform="translate(4 616)">
            <ellipse cx="1250.58" cy="-162" fill="none" stroke="#000" rx="80.01" ry="18"/>
            <text x="1250.58" y="-156.95" font-family="Times,serif" font-size="14" text-anchor="middle">:library:koin-room</text>
        </g>
        <g stroke="#000" class="edge">
            <path fill="none" d="M1802.83 392.97c-139.55 13.99-380.62 38.25-421.25 43.03-15.98 1.88-33.06 4.06-49.35 6.21"/>
            <path d="m1332.98 445.64-10.38-2.15 9.45-4.79z"/>
        </g>
        <g class="node" transform="translate(4 616)">
            <ellipse cx="1447.58" cy="-162" fill="none" stroke="#000" rx="60.56" ry="18"/>
            <text x="1447.58" y="-156.95" font-family="Times,serif" font-size="14" text-anchor="middle">:library:room</text>
        </g>
        <g stroke="#000" class="edge">
            <path fill="none" d="M1806.63 393.65c-77.3 9.23-188.61 23.98-285.05 42.35-4.63.88-9.41 1.87-14.21 2.92"/>
            <path d="m1508.25 442.31-10.53-1.2 8.98-5.62z"/>
        </g>
        <g stroke="#000" class="edge">
            <path fill="none" d="M1054.44 400.16c20.46 20.89 58.19 55.43 98.14 71.84 31.72 13.03 578.81 69.34 613 72 486.58 37.84 1071.65 49 1292.62 51.99"/>
            <path d="m3058.24 592.49 9.95 3.64-10.04 3.36z"/>
        </g>
        <g stroke="#000" class="edge">
            <path fill="none" d="M918.48 389.76c-140.3 8.43-379.3 24.42-583.9 46.24-10.5 1.12-21.49 2.43-32.39 3.83"/>
            <path d="m302.76 443.28-10.37-2.18 9.46-4.76z"/>
        </g>
        <g stroke="#000" class="edge">
            <path fill="none" d="M1088.13 399.06c33.27 10.78 77.13 24.99 111.47 36.12"/>
            <path d="m1200.51 431.8 8.44 6.41-10.59.25z"/>
        </g>
        <g stroke="#000" class="edge">
            <path fill="none" d="M1119.19 396.66c78.88 13.37 197.39 33.46 269.54 45.69"/>
            <path d="m1389.13 438.87 9.27 5.12-10.44 1.78z"/>
        </g>
        <g stroke="#000" class="edge">
            <path fill="none" d="M1800.21 467.15c119.24 12.98 306.87 33.41 424.32 46.2"/>
            <path d="m2224.61 509.83 9.56 4.57-10.32 2.39z"/>
        </g>
        <g class="node" transform="translate(4 616)">
            <ellipse cx="1304.58" cy="-90" fill="none" stroke="#000" rx="93.32" ry="18"/>
            <text x="1304.58" y="-84.95" font-family="Times,serif" font-size="14" text-anchor="middle">:library:koin-datastore</text>
        </g>
        <g stroke="#000" class="edge">
            <path fill="none" d="M1607.99 469.85c-65.7 12.1-157.87 29.08-222.54 40.99"/>
            <path d="m1386.47 514.21-10.47-1.63 9.2-5.25z"/>
        </g>
        <g stroke="#000" class="edge">
            <path fill="none" d="M1248.28 397.69c-53.19 14.82-114.67 40.37-82.7 74.31 45.79 48.62 535.31 19.4 600 36 36.2 9.29 39.71 27.06 76 36 117.24 28.87 941.74 46.35 1217.45 51.44"/>
            <path d="m3058.73 591.93 9.93 3.69-10.06 3.31z"/>
        </g>
        <g stroke="#000" class="edge">
            <path fill="none" d="M1244.57 397.42c-55.66 11.63-133.84 27.97-191.03 39.92"/>
            <path d="m1054.38 440.74-10.51-1.38 9.08-5.48z"/>
        </g>
        <g stroke="#000" class="edge">
            <path fill="none" d="M1299 400.3c-6.86 8.14-15.18 18.01-22.76 27"/>
            <path d="m1279.09 429.35-9.12 5.39 3.77-9.9z"/>
        </g>
        <g stroke="#000" class="edge">
            <path fill="none" d="M1346.63 399.77c19.65 9.96 44.69 22.66 65.38 33.16"/>
            <path d="m1413.4 429.71 7.33 7.64-10.5-1.4z"/>
        </g>
        <g stroke="#000" class="edge">
            <path fill="none" d="M809.52 467.44c19.31 1.83 39.26 3.46 58.06 4.56 278.78 16.24 2237.62-10.32 2513 36 50.31 8.46 58.8 26.88 109 36 60.01 10.91 942.42 41.01 1220.04 50.26"/>
            <path d="m4709.42 590.75 9.88 3.83-10.11 3.17z"/>
        </g>
        <g stroke="#000" class="edge">
            <path fill="none" d="M701.58 472.3v24.16"/>
            <path d="m705.08 496.38-3.5 10-3.5-10z"/>
        </g>
        <g stroke="#000" class="edge">
            <path fill="none" d="M809.4 467.43c116.64 13.46 300.51 34.66 409.53 47.23"/>
            <path d="m1219.18 511.17 9.53 4.62-10.33 2.33z"/>
        </g>
        <g stroke="#000" class="edge">
            <path fill="none" d="M1489.4 394.25c-71.09 11.84-147.42 34.93-107.82 77.75 34.81 37.64 410.64 22.14 460 36 34.06 9.56 36.77 27.04 71 36 109.78 28.74 880.67 46.15 1146.3 51.35"/>
            <path d="m3058.56 591.84 9.93 3.69-10.06 3.31z"/>
        </g>
        <g stroke="#000" class="edge">
            <path fill="none" d="M1496.89 395.26c-16.41 1.84-33.34 3.52-49.31 4.74-59.86 4.57-1038.26-7.15-1080 36-17.78 18.38.13 44.83 18.73 64.12"/>
            <path d="m388.74 497.6 4.68 9.5-9.59-4.51z"/>
        </g>
        <g stroke="#000" class="edge">
            <path fill="none" d="M1519.35 397.67c-57.74 12.07-139.07 29.06-196.32 41.03"/>
            <path d="m1323.9 442.09-10.5-1.38 9.07-5.47z"/>
        </g>
        <g stroke="#000" class="edge">
            <path fill="none" d="M1556.53 399.77c-19.65 9.96-44.69 22.66-65.38 33.16"/>
            <path d="m1492.93 435.95-10.5 1.4 7.33-7.64z"/>
        </g>
        <g stroke="#000" class="edge">
            <path fill="none" d="M5094.3 248.37c93.25 12.9 260.85 36.08 359.57 49.74"/>
            <path d="m5454.34 294.64 9.42 4.84-10.38 2.1z"/>
        </g>
        <g stroke="#000" class="edge">
            <path fill="none" d="M5040.56 256.01c19.6 23.36 54.77 63.49 72.02 71.99 60.8 29.96 239.38 43.35 357.25 49.07"/>
            <path d="m5469.71 373.56 9.82 3.96-10.15 3.03z"/>
        </g>
        <g stroke="#000" class="edge">
            <path fill="none" d="M4997.82 255.24c-16.7 9.43-37.98 21.43-56.18 31.71"/>
            <path d="m4943.36 290-10.43 1.87 6.99-7.97z"/>
        </g>
        <g stroke="#000" class="edge">
            <path fill="none" d="M5030.07 256.33c5.06 20.42 16.45 53.8 39.51 71.67 46.34 35.92 431.39 93.86 586.56 116"/>
            <path d="m5656.44 440.51 9.41 4.87-10.39 2.06z"/>
        </g>
        <g stroke="#000" class="edge">
            <path fill="none" d="M5099.28 246.38c36.39 3.43 81.13 7.27 121.3 9.62 67.75 3.96 1167.74-6.06 1221 36 32.15 25.39 24 48.03 24 89v74c0 40.97 7.74 63.09-24 89-60.05 49.01-587.62 53.38-784.41 53.28"/>
            <path d="m5657.32 600.79-10-3.51 10-3.49z"/>
        </g>
        <g stroke="#000" class="edge">
            <path fill="none" d="M5064.55 254.19c26.03 10.41 60.78 24.31 88.77 35.5"/>
            <path d="m5154.29 286.31 7.99 6.97-10.59-.47z"/>
        </g>
        <g stroke="#000" class="edge">
            <path fill="none" d="M4954.56 246.68c-33.93 3.35-75 7.04-111.98 9.32-127.82 7.89-1029.48-1.27-1152 36-57.69 17.55-70.73 31.06-115 72-73.22 67.71-49.14 127.6-134 180-34.41 21.25-136.21 36.32-210.17 44.83"/>
            <path d="m3232.08 592.28-10.33-2.36 9.55-4.6z"/>
        </g>
        <g stroke="#000" class="edge">
            <path fill="none" d="M5024.8 256.36c-1.05 19.23.04 50.32 14.78 71.64 18.78 27.16 39.64 14.85 65 36 31.77 26.5 44.54 33.24 59 72 16.78 44.98 33.47 71.74 2 108-36.6 42.17-190.3 51.66-288.62 53.31"/>
            <path d="m4877.12 600.81-10.05-3.36 9.95-3.64z"/>
        </g>
        <g stroke="#000" class="edge">
            <path fill="none" d="M5101.34 245.57c157.17 13.81 508.46 44.76 521.24 46.43 7.36.96 15.02 2.08 22.66 3.28"/>
            <path d="m5645.57 291.79 9.32 5.05-10.43 1.86z"/>
        </g>
        <g stroke="#000" class="edge">
            <path fill="none" d="M4952.8 246.06c-136.02 13.03-425.66 40.77-570.7 54.65"/>
            <path d="m4382.86 304.16-10.28-2.53 9.62-4.44z"/>
        </g>
        <g stroke="#000" class="edge">
            <path fill="none" d="M4969.54 251.29c-122.32 26.36-409.13 88.16-537.67 115.86"/>
            <path d="m4432.67 370.55-10.51-1.31 9.03-5.53z"/>
        </g>
        <g stroke="#000" class="edge">
            <path fill="none" d="M5787.21 250.56c-51.63 11.85-132.17 30.33-188.81 43.33"/>
            <path d="m5599.41 297.25-10.53-1.17 8.96-5.65z"/>
        </g>
        <g stroke="#000" class="edge">
            <path fill="none" d="M5879.05 252.62c18.3 8.31 38 20.96 48.53 39.38 7.94 13.89 10.43 23.86 0 36-30.13 35.06-146.17 47.19-236.07 51.25"/>
            <path d="m5691.78 382.74-10.14-3.08 9.84-3.91z"/>
        </g>
        <g stroke="#000" class="edge">
            <path fill="none" d="M5772.09 243.62c-127.16 9-416.34 29.65-659.51 48.38-39.17 3.02-82.43 6.49-119.45 9.51"/>
            <path d="m4993.61 304.99-10.26-2.68 9.69-4.3z"/>
        </g>
        <g stroke="#000" class="edge">
            <path fill="none" d="M5887.2 250.88c21.54 7.89 44.7 20.69 57.38 41.12 8.44 13.59 8.1 22.2 0 36-5.27 8.98-122.47 71.59-185.19 104.65"/>
            <path d="m5761.27 435.62-10.48 1.56 7.22-7.75z"/>
        </g>
        <g stroke="#000" class="edge">
            <path fill="none" d="M5906.48 239.19c164.63 1.18 570.19 8.59 611.1 52.81 76.06 82.22 76.92 170.59 0 252-29.44 31.15-645.52 46.97-860.65 51.56"/>
            <path d="m5657.06 599.05-10.08-3.28 9.93-3.71z"/>
        </g>
        <g stroke="#000" class="edge">
            <path fill="none" d="M5775.15 245.87c-115.75 12.74-363.55 40.01-492.24 54.18"/>
            <path d="m5283.42 303.51-10.32-2.38 9.55-4.57z"/>
        </g>
        <g stroke="#000" class="edge">
            <path fill="none" d="M5844.78 256.18c7.08 19.95 14.48 52.57-3.2 71.82-31.99 34.82-377.26 28.89-424 36-366.73 55.81-447.03 133.05-815 180-265.7 33.9-1089.05 48.01-1363.75 51.85"/>
            <path d="m3238.89 599.35-10.04-3.36 9.95-3.64z"/>
        </g>
        <g stroke="#000" class="edge">
            <path fill="none" d="M5859 255.47c22.16 18.97 50.91 50.38 30.58 72.53-63.35 69.01-336.07-5.6-420 36-96.7 47.93-66.72 131.23-163 180-73.14 37.05-303.9 48.21-429.89 51.57"/>
            <path d="m4876.81 599.06-10.09-3.24 9.91-3.75z"/>
        </g>
        <g stroke="#000" class="edge">
            <path fill="none" d="M5811.03 254.88c-15.67 9.38-35.75 21.39-53.01 31.72"/>
            <path d="m5759.92 289.54-10.38 2.13 6.79-8.14z"/>
        </g>
        <g stroke="#000" class="edge">
            <path fill="none" d="M5839.53 256.17c1.27 20.58-.26 54.46-20.95 71.83-26.37 22.14-1065.38 45.11-1368.68 51.35"/>
            <path d="m4450.15 382.85-10.07-3.3 9.92-3.7z"/>
        </g>
        <g stroke="#000" class="edge">
            <path fill="none" d="M5544.86 184.41c-2.36 23.98-6.65 67.45-9.48 96.17"/>
            <path d="m5538.88 280.77-4.47 9.61-2.5-10.29z"/>
        </g>
        <g stroke="#000" class="edge">
            <path fill="none" d="M5633.95 169.67c95.04 4.58 239.11 16.97 281.63 50.33 27.14 21.29 22.44 38.13 29 72 3.04 15.71 10.47 23.9 0 36-32.26 37.28-157.78 48.89-252.69 52.22"/>
            <path d="m5692.1 383.71-10.11-3.17 9.88-3.82z"/>
        </g>
        <g stroke="#000" class="edge">
            <path fill="none" d="M5459.04 169.46c-159.03 5.22-482.78 19.54-523.46 50.54-18.74 14.28-26.84 40.36-30.34 60.61"/>
            <path d="m4908.75 280.82-4.87 9.41-2.07-10.39z"/>
        </g>
        <g stroke="#000" class="edge">
            <path fill="none" d="M5635.72 166.41c188.14.97 615.24 15.49 696.86 125.59 67.43 90.96-370.47 139.82-543.67 155.4"/>
            <path d="m5789.42 450.87-10.27-2.6 9.65-4.37z"/>
        </g>
        <g stroke="#000" class="edge">
            <path fill="none" d="M5635.04 167.96c194.88 2.81 655.85 13.44 806.54 52.04 115.3 29.53 214 41.98 214 161v74c0 62.89-51.32 66.4-110 89-82.05 31.6-678.25 47.04-888.69 51.56"/>
            <path d="m5657.26 599.05-10.08-3.29 9.93-3.71z"/>
        </g>
        <g stroke="#000" class="edge">
            <path fill="none" d="M5459.82 170.28c-84.74 5.06-205.71 17.79-239.24 49.72-16.02 15.25-20.2 40.42-20.7 60.11"/>
            <path d="m5203.38 279.99-3.42 10.03-3.58-9.98z"/>
        </g>
        <g stroke="#000" class="edge">
            <path fill="none" d="M5458.07 168.07c-357.56 4.49-1680.32 22.99-1764.49 51.93-25.56 8.79-24.34 24.95-49 36-70.48 31.57-100.79 1.72-170 36-54.93 27.2-157.37 146.96-209 180-32.5 20.8-52.05 8.39-79 36-16.33 16.73-26.13 41.56-31.68 60.75"/>
            <path d="m3158.29 569.6-5.93 8.78-.84-10.57z"/>
        </g>
        <g stroke="#000" class="edge">
            <path fill="none" d="M5630.86 171.99c181.83 10.95 596.94 36.96 625.72 48.01 59.13 22.71 125.16 53.43 93 108-33.53 56.9-68.22 48.66-130 72-278.42 105.2-359.39 101.7-654 144-249.07 35.76-546.87 47.56-689.2 51.32"/>
            <path d="m4876.76 598.81-10.09-3.24 9.91-3.76z"/>
        </g>
        <g stroke="#000" class="edge">
            <path fill="none" d="M5567.22 183.85c30.74 25.08 88.7 72.38 123.89 101.1"/>
            <path d="m5693.26 282.18 5.53 9.04-9.96-3.61z"/>
        </g>
        <g stroke="#000" class="edge">
            <path fill="none" d="M5458.2 168.35c-288.44 4.68-1200.52 21.52-1493.62 51.65-93.33 9.59-328.79 37.41-416 72-114.58 45.44-124.68 92-211 180-9.06 9.24-19.15 19.22-28.13 27.99"/>
            <path d="m3311.95 502.45-9.61 4.47 4.72-9.48z"/>
        </g>
        <g stroke="#000" class="edge">
            <path fill="none" d="M5460.77 171.05c-257.61 12.17-1023.33 48.34-1297.32 61.28"/>
            <path d="m4164.01 235.81-10.15-3.03 9.82-3.96z"/>
        </g>
        <g class="node" transform="translate(4 616)">
            <ellipse cx="6204.58" cy="-306" fill="none" stroke="#000" rx="115.33" ry="18"/>
            <text x="6204.58" y="-300.95" font-family="Times,serif" font-size="14" text-anchor="middle">:app:core:calendar-compose</text>
        </g>
        <g stroke="#000" class="edge">
            <path fill="none" d="M5635.34 166.4c100.67 1.62 268.68 11.33 406.24 53.6 49.09 15.09 100.5 44.94 133.09 65.89"/>
            <path d="m6176.43 282.86 6.46 8.4-10.29-2.54z"/>
        </g>
        <g stroke="#000" class="edge">
            <path fill="none" d="M4826.7 245.76c33.03 3.16 72.98 6.94 108.88 10.24 182 16.72 395.31 35.45 511.27 45.56"/>
            <path d="m5446.94 298.05 9.66 4.36-10.27 2.61z"/>
        </g>
        <g stroke="#000" class="edge">
            <path fill="none" d="M4760.87 256.2c6.23 20.94 19.94 55.51 45.71 71.8 54.48 34.44 460.64 47.02 661.37 51.17"/>
            <path d="m5467.96 375.66 9.93 3.71-10.07 3.29z"/>
        </g>
        <g stroke="#000" class="edge">
            <path fill="none" d="M4789.34 254.71c20.54 9.85 47.26 22.66 69.59 33.36"/>
            <path d="m4860.3 284.85 7.5 7.47-10.53-1.16z"/>
        </g>
        <g stroke="#000" class="edge">
            <path fill="none" d="M4754.25 256.47c-1.63 20.23-.78 53.13 18.33 71.53 41.22 39.7 198.71 25.67 255 36 71.27 13.08 87.48 24.4 159 36 165.59 26.86 362.42 42.15 464.62 48.87"/>
            <path d="m5651.33 445.37 9.75 4.14-10.21 2.84z"/>
        </g>
        <g stroke="#000" class="edge">
            <path fill="none" d="M4824.92 246.61c33.33 3.43 74.05 7.19 110.66 9.39 79.33 4.76 1360.02-1.66 1430 36 42.45 22.85 62 40.79 62 89v74c0 48.21-20.05 65.26-62 89-60.72 34.37-526.1 47.69-708.76 51.62"/>
            <path d="m5657.05 599.12-10.07-3.29 9.93-3.71z"/>
        </g>
        <g stroke="#000" class="edge">
            <path fill="none" d="M4818.92 248.81c80.7 12.69 221.18 34.79 307.63 48.39"/>
            <path d="m5127.03 293.73 9.33 5.01-10.42 1.9z"/>
        </g>
        <g stroke="#000" class="edge">
            <path fill="none" d="M4680.57 241.07c-247.47 6.94-1017 30.08-1065.99 50.93-21.41 9.11-21.01 20.11-38 36-17.23 16.11-23.32 18.38-39 36-65.78 73.91-47.81 126.43-131 180-49.88 32.12-115.46 45.3-168.02 50.48"/>
            <path d="m3238.99 597.95-10.27-2.59 9.65-4.38z"/>
        </g>
        <g stroke="#000" class="edge">
            <path fill="none" d="M4749.3 256.25c-7.03 19.71-14.4 51.8 2.28 71.75 57.93 69.29 113.99 8.43 200 36l152 72c25.67 40.56 30.96 71.32 0 108-28.59 33.88-145.39 46.1-227.4 50.51"/>
            <path d="m4876.53 598-10.17-2.99 9.81-4z"/>
        </g>
        <g stroke="#000" class="edge">
            <path fill="none" d="M4825.8 246.26c33.18 3.31 73.51 7.07 109.78 9.74 304.93 22.46 383.16 1.81 687 36 7.7.87 15.71 1.95 23.68 3.15"/>
            <path d="m5646.65 291.67 9.33 5.01-10.42 1.9z"/>
        </g>
        <g stroke="#000" class="edge">
            <path fill="none" d="M4730.44 255.4c-12.22 9.17-25.63 21.74-32.86 36.6-35.07 72.1 38.18 117.47-12 180-20.62 25.7-53 39.38-84.71 46.53"/>
            <path d="m4601.68 521.93-10.49-1.44 9.1-5.42z"/>
        </g>
        <g stroke="#000" class="edge">
            <path fill="none" d="M4685.61 245.3c-141.59 12.58-459.32 40.81-620.02 55.08"/>
            <path d="m4066.07 303.85-10.27-2.6 9.65-4.37z"/>
        </g>
        <g stroke="#000" class="edge">
            <path fill="none" d="M5361.07 253.67c33.79 10.9 80.05 25.83 116.02 37.43"/>
            <path d="m5478.01 287.72 8.44 6.4-10.59.26z"/>
        </g>
        <g stroke="#000" class="edge">
            <path fill="none" d="M5343.43 255.28c16.66 10.05 38.04 23.51 56.15 36.72 20.14 14.68 21.53 23.33 43 36 23.63 13.94 51.59 25.53 76.07 34.27"/>
            <path d="m5519.55 358.88 8.29 6.59-10.6.02z"/>
        </g>
        <g stroke="#000" class="edge">
            <path fill="none" d="M5250.14 250.09c-73.6 12.48-193 32.71-270.9 45.92"/>
            <path d="m4979.99 299.43-10.44-1.78 9.27-5.12z"/>
        </g>
        <g stroke="#000" class="edge">
            <path fill="none" d="M5330.7 255.92c35.35 39.39 121.73 134.63 138.88 144.08 56.14 30.95 128.5 43.85 181.09 49.21"/>
            <path d="m5650.78 445.71 9.63 4.42-10.29 2.55z"/>
        </g>
        <g stroke="#000" class="edge">
            <path fill="none" d="M5399.83 242.18c265.72 10.11 1069.22 41.37 1079.75 49.82 31.95 25.65 24 48.03 24 89v74c0 40.97 7.77 63.14-24 89-63.09 51.36-619.43 54.19-822.35 53.5"/>
            <path d="m5657.32 601-9.99-3.54 10.01-3.46z"/>
        </g>
        <g stroke="#000" class="edge">
            <path fill="none" d="M5288.85 255.41c-15.29 9.39-34.68 21.3-51.3 31.5"/>
            <path d="m5239.78 289.65-10.35 2.25 6.69-8.22z"/>
        </g>
        <g stroke="#000" class="edge">
            <path fill="none" d="M5239.02 246.6c-36.7 3.38-81.31 7.1-121.44 9.4-278.33 15.93-978.81-8.59-1254 36-109.51 17.75-146.67 10.5-239 72-86.2 57.42-58.19 128.41-148 180-40.35 23.18-160.11 38.19-243.17 46.13"/>
            <path d="m3233.99 593.59-10.28-2.56 9.63-4.41z"/>
        </g>
        <g stroke="#000" class="edge">
            <path fill="none" d="M5320.05 256.42c12.29 52.46 40.52 210.1-41.47 287.58-28.7 27.12-272.44 42.82-403.46 49.37"/>
            <path d="m4875.64 596.85-10.16-3.01 9.81-3.99z"/>
        </g>
        <g stroke="#000" class="edge">
            <path fill="none" d="M5380.56 250.2c62.14 10.72 158.48 27.34 242.02 41.8 6.67 1.16 13.61 2.36 20.56 3.56"/>
            <path d="m5643.68 292.1 9.25 5.16-10.45 1.74z"/>
        </g>
        <g stroke="#000" class="edge">
            <path fill="none" d="M5315.62 256.3c-.93 20.06-5.59 52.79-25.04 71.7-26.24 25.51-529.31 139.75-716.56 181.58"/>
            <path d="m4574.94 512.96-10.52-1.23 9-5.6z"/>
        </g>
        <g stroke="#000" class="edge">
            <path fill="none" d="M5238.54 246.45c-36.62 3.33-81.02 7.05-120.96 9.55-406.19 25.41-508.66 13.25-915 36-44.52 2.49-93.75 5.96-135.52 9.12"/>
            <path d="m4067.51 304.59-10.23-2.73 9.7-4.25z"/>
        </g>
        <g class="node" transform="translate(4 616)">
            <ellipse cx="2573.58" cy="-90" fill="none" stroke="#000" rx="106.11" ry="18"/>
            <text x="2573.58" y="-84.95" font-family="Times,serif" font-size="14" text-anchor="middle">:library:firebase-common</text>
        </g>
        <g stroke="#000" class="edge">
            <path fill="none" d="M2618.98 472.3c-6.32 8.06-13.98 17.81-20.99 26.72"/>
            <path d="m2600.88 501-8.93 5.71 3.43-10.03z"/>
        </g>
        <g stroke="#000" class="edge">
            <path fill="none" d="M1011.6 471.41c43.5 20.8 122.95 55.92 194.98 72.59 196.18 45.4 434.11 53.12 557.22 53.73"/>
            <path d="m1763.49 594.23 9.99 3.53-10.01 3.47z"/>
        </g>
        <g stroke="#000" class="edge">
            <path fill="none" d="M493.5 538.97c14.94 1.94 30.47 3.74 45.08 5.03 461.86 40.92 1018.3 50.28 1225.24 52.39"/>
            <path d="m1763.7 592.89 9.96 3.6-10.03 3.4z"/>
        </g>
        <g stroke="#000" class="edge">
            <path fill="none" d="M221.78 472.23c13.72 21.31 40.3 56.64 73.8 71.77 67.31 30.4 1157.37 47.61 1468.62 51.92"/>
            <path d="m1763.91 592.41 9.95 3.64-10.04 3.36z"/>
        </g>
        <g stroke="#000" class="edge">
            <path fill="none" d="M1494.62 467.02c8.85 2.03 18.15 3.84 26.96 4.98 216.91 27.98 1755.07-13.93 1968 36 36.39 8.53 39.72 27.02 76 36 55.41 13.72 876.91 41.58 1143.88 50.32"/>
            <path d="m4709.22 590.81 9.88 3.82-10.11 3.17z"/>
        </g>
        <g stroke="#000" class="edge">
            <path fill="none" d="M6123.62 322.51c-14.68 1.9-29.8 3.8-44.04 5.49-139.39 16.57-300.94 33.23-401.82 43.34"/>
            <path d="m5678.17 374.81-10.3-2.48 9.61-4.48z"/>
        </g>
        <g stroke="#000" class="edge">
            <path fill="none" d="M6125.96 322.87c-67.48 10.46-156.95 26.3-190.38 41.13-24.38 10.82-24.29 23.79-48 36-34.5 17.76-76.09 30.98-109.14 39.78"/>
            <path d="m5779.61 443.09-10.56-.88 8.81-5.89z"/>
        </g>
        <g stroke="#000" class="edge">
            <path fill="none" d="M6171.7 327.44c-72.14 31.66-237.54 101.72-382.12 144.56-328.19 97.24-739 118.85-912.97 123.64"/>
            <path d="m4876.84 599.14-10.08-3.24 9.9-3.76z"/>
        </g>
    </g>
</svg>
