<svg xmlns="http://www.w3.org/2000/svg" width="2584" height="404pt" viewBox="0 0 1937.5 404">
    <g class="graph">
        <path fill="#fff" d="M0 404V0h1937.5v404z"/>
        <g class="node" transform="translate(4 400)">
            <ellipse cx="859.5" cy="-378" fill="none" stroke="#000" rx="86.15" ry="18"/>
            <text x="859.5" y="-372.95" font-family="Times,serif" font-size="14" text-anchor="middle">:app:feature:account</text>
        </g>
        <g class="node" transform="translate(4 400)">
            <ellipse cx="638.5" cy="-306" fill="none" stroke="#000" rx="81.04" ry="18"/>
            <text x="638.5" y="-300.95" font-family="Times,serif" font-size="14" text-anchor="middle">:app:core:compose</text>
        </g>
        <g stroke="#000" class="edge">
            <path fill="none" d="M817.44 37.59c-34.65 10.98-82.31 26.07-119.13 37.73"/>
            <path d="m699.78 78.53-10.59-.32 8.47-6.35z"/>
        </g>
        <g class="node" transform="translate(4 400)">
            <ellipse cx="692.5" cy="-162" fill="none" stroke="#000" rx="101" ry="18"/>
            <text x="692.5" y="-156.95" font-family="Times,serif" font-size="14" text-anchor="middle">:app:core:design-system</text>
        </g>
        <g stroke="#000" class="edge">
            <path fill="none" d="M852.22 39.98C832.09 69.93 788.19 133.73 746.5 184c-7.75 9.35-16.72 19.14-24.9 27.72"/>
            <path d="m724.27 214-9.47 4.76 4.43-9.63z"/>
        </g>
        <g class="node" transform="translate(4 400)">
            <ellipse cx="782.5" cy="-90" fill="none" stroke="#000" rx="86.67" ry="18"/>
            <text x="782.5" y="-84.95" font-family="Times,serif" font-size="14" text-anchor="middle">:app:core:navigation</text>
        </g>
        <g stroke="#000" class="edge">
            <path fill="none" d="M869.32 40.44c3.11 10.23 6.61 23.48 8.18 35.56 6.18 47.6 11.54 61.41 0 108-8.7 35.12-16.52 42.88-38 72-7.37 10-16.62 19.91-25.32 28.41"/>
            <path d="m816.85 286.7-9.66 4.35 4.85-9.43z"/>
        </g>
        <g class="node" transform="translate(4 400)">
            <ellipse cx="459.5" cy="-90" fill="none" stroke="#000" rx="59.54" ry="18"/>
            <text x="459.5" y="-84.95" font-family="Times,serif" font-size="14" text-anchor="middle">:library:color</text>
        </g>
        <g stroke="#000" class="edge">
            <path fill="none" d="M779.68 26.51C626.01 34.98 309.29 62.63 248.5 148c-49.53 69.57 81.83 121.99 160.62 146.2"/>
            <path d="m409.85 290.77 8.57 6.23-10.58.47z"/>
        </g>
        <g class="node" transform="translate(4 400)">
            <ellipse cx="1835.5" cy="-18" fill="none" stroke="#000" rx="62.1" ry="18"/>
            <text x="1835.5" y="-12.95" font-family="Times,serif" font-size="14" text-anchor="middle">:library:kotlin</text>
        </g>
        <g stroke="#000" class="edge">
            <path fill="none" d="M948.36 25.37C1201.43 33.55 1933.5 65.8 1933.5 165v74c0 47.96-37.74 92.16-65.4 118.1"/>
            <path d="m1870.77 359.4-9.75 4.13 5.05-9.31z"/>
        </g>
        <g class="node" transform="translate(4 400)">
            <ellipse cx="79.5" cy="-306" fill="none" stroke="#000" rx="79.5" ry="18"/>
            <text x="79.5" y="-300.95" font-family="Times,serif" font-size="14" text-anchor="middle">:library:navigation</text>
        </g>
        <g stroke="#000" class="edge">
            <path fill="none" d="M779.8 26.72C650.29 33.08 393.72 48.17 177.5 76c-7.91 1.02-16.18 2.26-24.37 3.59"/>
            <path d="m153.96 83-10.44-1.79 9.28-5.11z"/>
        </g>
        <g class="node" transform="translate(4 400)">
            <ellipse cx="1642.5" cy="-18" fill="none" stroke="#000" rx="78.99" ry="18"/>
            <text x="1642.5" y="-12.95" font-family="Times,serif" font-size="14" text-anchor="middle">:library:coroutines</text>
        </g>
        <g stroke="#000" class="edge">
            <path fill="none" d="M947.08 26.67C1180.02 38.02 1819.5 77.17 1819.5 165v74c0 62.4-68.07 102.39-118.81 123.53"/>
            <path d="m1702.14 365.72-10.58.47 7.98-6.97z"/>
        </g>
        <g class="node" transform="translate(4 400)">
            <ellipse cx="782.5" cy="-18" fill="none" stroke="#000" rx="72.85" ry="18"/>
            <text x="782.5" y="-12.95" font-family="Times,serif" font-size="14" text-anchor="middle">:library:datetime</text>
        </g>
        <g stroke="#000" class="edge">
            <path fill="none" d="M864.61 40.28c1.74 42.63.1 153.84-58.11 215.72-36.99 39.32-83.98-7.46-116 36-9.49 12.88-8.13 22.22 0 36 9.09 15.4 24.43 26.63 40.22 34.69"/>
            <path d="m732.14 359.49 7.58 7.4-10.54-1.06z"/>
        </g>
        <g class="node" transform="translate(4 400)">
            <ellipse cx="342.5" cy="-234" fill="none" stroke="#000" rx="89.23" ry="18"/>
            <text x="342.5" y="-228.95" font-family="Times,serif" font-size="14" text-anchor="middle">:library:shimmer-m3</text>
        </g>
        <g stroke="#000" class="edge">
            <path fill="none" d="M787.57 30.8C723.88 38.55 631 52.72 552.5 76c-59.1 17.53-123.84 47.39-164.67 67.64"/>
            <path d="m389.6 146.67-10.51 1.35 7.37-7.61z"/>
        </g>
        <g class="node" transform="translate(4 400)">
            <ellipse cx="1470.5" cy="-90" fill="none" stroke="#000" rx="88.71" ry="18"/>
            <text x="1470.5" y="-84.95" font-family="Times,serif" font-size="14" text-anchor="middle">:app:domain:account</text>
        </g>
        <g stroke="#000" class="edge">
            <path fill="none" d="M949.17 24.64c92.89 3.68 244.7 15.28 370.33 51.36 143.31 41.16 223.35 17.96 303 144 8.55 13.53 9.21 22.92 0 36-14.51 20.61-37.81 33.25-61.68 40.98"/>
            <path d="m1561.88 300.32-10.58-.54 8.61-6.18z"/>
        </g>
        <g class="node" transform="translate(4 400)">
            <ellipse cx="1210.5" cy="-306" fill="none" stroke="#000" rx="96.39" ry="18"/>
            <text x="1210.5" y="-300.95" font-family="Times,serif" font-size="14" text-anchor="middle">:app:domain:credential</text>
        </g>
        <g stroke="red" stroke-width="2" class="edge">
            <path fill="none" d="M924.24 35.11c59.6 11.89 150.65 30.05 214.85 42.85"/>
            <path fill="red" d="m1138.26 74.23 9.12 5.38-10.49 1.48z"/>
        </g>
        <g stroke="#000" class="edge">
            <path fill="none" d="M684.92 109.71c17.36 8.36 35.67 20.74 45.58 38.29 11.31 20.02.31 44.54-12.1 62.77"/>
            <path d="m721.32 212.71-8.74 6 3.09-10.14z"/>
        </g>
        <g stroke="#000" class="edge">
            <path fill="none" d="M569.3 101.88c-31.38 6.82-65.62 20.16-86.8 46.12-30.55 37.46-28.66 97.12-24.11 132.34"/>
            <path d="m461.85 279.79-2.01 10.41-4.91-9.39z"/>
        </g>
        <g stroke="#000" class="edge">
            <path fill="none" d="M565.71 99.96C456.98 107.78 269.03 124.52 248.5 148c-10.53 12.04-6.17 21.24 0 36 35.17 84.08 64.19 103.83 146 144 53.07 26.06 212.08 41.04 310.52 48.06"/>
            <path d="m705.18 372.56 9.73 4.19-10.22 2.79z"/>
        </g>
        <g class="node" transform="translate(4 400)">
            <ellipse cx="602.5" cy="-234" fill="none" stroke="#000" rx="115.33" ry="18"/>
            <text x="602.5" y="-228.95" font-family="Times,serif" font-size="14" text-anchor="middle">:app:core:calendar-compose</text>
        </g>
        <g stroke="#000" class="edge">
            <path fill="none" d="M633.6 112.3c-3.97 7.72-8.73 16.99-13.16 25.59"/>
            <path d="m623.68 139.26-7.69 7.29 1.46-10.49z"/>
        </g>
        <g class="node" transform="translate(4 400)">
            <ellipse cx="1163.5" cy="-18" fill="none" stroke="#000" rx="71.31" ry="18"/>
            <text x="1163.5" y="-12.95" font-family="Times,serif" font-size="14" text-anchor="middle">:app:core:model</text>
        </g>
        <g stroke="#000" class="edge">
            <path fill="none" d="M674.51 110.96c20.64 10.37 48.01 24.3 71.99 37.04 142.68 75.81 310.06 170.06 383.39 211.62"/>
            <path d="m1131.31 356.4 6.97 7.98-10.42-1.89z"/>
        </g>
        <g stroke="#000" class="edge">
            <path fill="none" d="M646.52 254.02c-38.67 11.61-92.03 27.64-131.16 39.4"/>
            <path d="m516.51 296.73-10.59-.48 8.57-6.22z"/>
        </g>
        <g stroke="#000" class="edge">
            <path fill="none" d="M679.35 255.98C662.68 274.59 642 304.88 657.5 328c13.32 19.88 35.58 32.31 57.9 40.07"/>
            <path d="m716.39 364.72 8.48 6.35-10.59.32z"/>
        </g>
        <g stroke="#000" class="edge">
            <path fill="none" d="M786.5 328.3v24.16"/>
            <path d="m790 352.38-3.5 10-3.5-10z"/>
        </g>
        <g stroke="#000" class="edge">
            <path fill="none" d="M94.93 112.01C125.91 156.54 216.56 276.65 325.5 328c65.08 30.68 263.77 44.35 377.94 49.81"/>
            <path d="m703.55 374.31 9.83 3.96-10.15 3.03z"/>
        </g>
        <g stroke="#000" class="edge">
            <path fill="none" d="M360.61 184.13c20.41 24.76 58.28 70.73 81.95 99.45"/>
            <path d="m445.08 281.14 3.66 9.94-9.06-5.49z"/>
        </g>
        <g stroke="#000" class="edge">
            <path fill="none" d="M1537.25 323.03c67.24 12.9 173.32 33.24 240.27 46.08"/>
            <path d="m1778.08 365.66 9.17 5.32-10.48 1.55z"/>
        </g>
        <g stroke="#000" class="edge">
            <path fill="none" d="M1512.67 326.54c25.34 10.31 58.8 23.92 85.92 34.96"/>
            <path d="m1599.68 358.17 7.95 7.01-10.59-.53z"/>
        </g>
        <g stroke="#000" class="edge">
            <path fill="none" d="M1396.58 318.93c-132.46 13.48-400.04 40.7-532.37 54.16"/>
            <path d="m864.8 376.55-10.3-2.47 9.6-4.49z"/>
        </g>
        <g stroke="red" stroke-width="2" class="edge">
            <path fill="none" d="M1417.12 324.08c-53.18 12.13-132.1 30.12-186.91 42.62"/>
            <path fill="red" d="m1232.72 369.72-10.53-1.19 8.97-5.64z"/>
        </g>
        <g class="node" transform="translate(4 400)">
            <ellipse cx="1337.5" cy="-18" fill="none" stroke="#000" rx="85.13" ry="18"/>
            <text x="1337.5" y="-12.95" font-family="Times,serif" font-size="14" text-anchor="middle">:common:exception</text>
        </g>
        <g stroke="#000" class="edge">
            <path fill="none" d="M1443.65 327.24c-18.29 9.63-41.7 21.95-61.5 32.36"/>
            <path d="m1384 362.59-10.48 1.56 7.22-7.76z"/>
        </g>
        <g stroke="#000" class="edge">
            <path fill="none" d="M1305.66 100.15c68.69 6.08 164.32 19.27 243.84 47.85 115.99 41.69 150.82 55.88 237 144 17.45 17.84 31.55 42.49 40.81 61.33"/>
            <path d="m1830.44 351.74 1.11 10.54-7.44-7.54z"/>
        </g>
        <g stroke="#000" class="edge">
            <path fill="none" d="M1285.8 106.48c109.62 19.1 311.99 60.6 360.7 113.52 33.06 35.92 28.76 59.98 20 108-1.53 8.42-4.34 17.23-7.37 25.21"/>
            <path d="m1662.4 354.46-7.02 7.93.55-10.58z"/>
        </g>
        <g stroke="#000" class="edge">
            <path fill="none" d="M1170.96 110.48c-23.75 9.31-53.16 22.3-77.46 37.52-104.46 65.43-109.64 109.85-211 180-17.14 11.86-37.19 23.28-54.51 32.45"/>
            <path d="m829.97 363.36-10.48 1.52 7.25-7.72z"/>
        </g>
        <g stroke="#000" class="edge">
            <path fill="none" d="M1164.08 109.66c-18.63 8.14-37.81 20.36-48.58 38.34-41.1 68.63-30.26 105.94 0 180 4.46 10.92 12.38 20.8 20.71 29"/>
            <path d="m1138.41 354.27 5.03 9.32-9.75-4.15z"/>
        </g>
        <g stroke="#000" class="edge">
            <path fill="none" d="M1210.59 112.48c-8.43 42.62-23.42 152.95 30.91 215.52 12.32 14.19 29.4 25.18 45.95 33.37"/>
            <path d="m1288.68 358.08 7.59 7.4-10.54-1.05z"/>
        </g>
        <g class="node" transform="translate(4 400)">
            <ellipse cx="1316.5" cy="-234" fill="none" stroke="#000" rx="78.48" ry="18"/>
            <text x="1316.5" y="-228.95" font-family="Times,serif" font-size="14" text-anchor="middle">:app:domain:fetch</text>
        </g>
        <g stroke="red" stroke-width="2" class="edge">
            <path fill="none" d="M1239.89 111.77c13.87 9.15 31.23 20.62 46.29 30.57"/>
            <path fill="red" d="m1286.74 138.51 6.42 8.43-10.28-2.59z"/>
        </g>
        <g class="node" transform="translate(4 400)">
            <ellipse cx="1316.5" cy="-162" fill="none" stroke="#000" rx="86.67" ry="18"/>
            <text x="1316.5" y="-156.95" font-family="Times,serif" font-size="14" text-anchor="middle">:app:domain:backup</text>
        </g>
        <g stroke="#000" class="edge">
            <path fill="none" d="M1214.27 112.33c.57 19.21 4.06 50.28 19.23 71.67 9.56 13.48 23.73 24.18 37.88 32.33"/>
            <path d="m1272.63 213.03 7.14 7.83-10.46-1.66z"/>
        </g>
        <g class="node" transform="translate(4 400)">
            <ellipse cx="1534.5" cy="-162" fill="none" stroke="#000" rx="74.89" ry="18"/>
            <text x="1534.5" y="-156.95" font-family="Times,serif" font-size="14" text-anchor="middle">:app:domain:fcm</text>
        </g>
        <g stroke="#000" class="edge">
            <path fill="none" d="M1280.27 107.42c38.22 8.59 86.69 21.87 127.23 40.58 37.8 17.44 76.71 45.39 102.2 65.31"/>
            <path d="m1511.6 210.35 5.66 8.96-10.01-3.47z"/>
        </g>
        <g stroke="#000" class="edge">
            <path fill="none" d="M628.29 183.95c11.19 8.7 25.02 19.46 37.3 29.01"/>
            <path d="m667.66 210.14 5.75 8.9-10.04-3.38z"/>
        </g>
        <g stroke="#000" class="edge">
            <path fill="none" d="M589.25 184.13c-25.15 24.97-72.03 71.52-100.9 100.19"/>
            <path d="m491 286.62-9.56 4.57 4.63-9.53z"/>
        </g>
        <g stroke="#000" class="edge">
            <path fill="none" d="M596.94 184.12c-8.86 18.22-19.42 47.68-10.44 71.88 14.7 39.59 27.47 47.69 62 72 23.32 16.41 52.4 28.57 77.84 37.06"/>
            <path d="m727.1 361.63 8.46 6.39-10.6.27z"/>
        </g>
        <g stroke="#000" class="edge">
            <path fill="none" d="M1398.6 168.2c68.22 3.67 168.48 15.55 247.9 51.8 71.85 32.79 138.57 99.69 171.51 136.08"/>
            <path d="m1820.21 353.29 4.04 9.79-9.27-5.13z"/>
        </g>
        <g stroke="#000" class="edge">
            <path fill="none" d="M1396.95 170.46c79.01 5.24 194.99 18.18 225.55 49.54 34.2 35.09 33.08 96.51 28.8 132.49"/>
            <path d="m1654.8 352.71-4.82 9.43-2.11-10.38z"/>
        </g>
        <g stroke="#000" class="edge">
            <path fill="none" d="M1282.52 182.22c-95.15 38.13-343.65 137.72-448.38 179.69"/>
            <path d="m835.56 365.11-10.58.47 7.98-6.97z"/>
        </g>
        <g stroke="#000" class="edge">
            <path fill="none" d="M1357.42 182.14c19.1 9.06 41.93 21.92 59.08 37.86 18.95 17.61 34.54 42.64 44.77 61.67"/>
            <path d="m1464.34 279.98 1.49 10.49-7.71-7.27z"/>
        </g>
        <g stroke="#000" class="edge">
            <path fill="none" d="M1274.27 180.91c-20.59 8.34-43.57 20.92-58.77 39.09-32.05 38.33-42.7 97.45-46.24 132.38"/>
            <path d="m1172.76 352.48-4.35 9.66-2.62-10.26z"/>
        </g>
        <g stroke="#000" class="edge">
            <path fill="none" d="M1274.09 180.9c-18.85 8.19-38.7 20.66-49.59 39.1-8.13 13.78-5.88 21.12 0 36 16.8 42.53 55.67 79.09 84.01 101.49"/>
            <path d="m1310.31 354.46 5.79 8.87-10.06-3.32z"/>
        </g>
        <g stroke="red" stroke-width="2" class="edge">
            <path fill="none" d="M1320.5 184.3v24.16"/>
            <path fill="red" d="m1324 206.87-3.5 10-3.5-10z"/>
        </g>
        <g stroke="#000" class="edge">
            <path fill="none" d="M1384.94 250.45c51.2 9.6 124.45 24.46 187.56 41.55 5.42 1.47 140.92 46.78 216.75 72.17"/>
            <path d="m1790.18 360.79 8.37 6.49-10.6.15z"/>
        </g>
        <g stroke="#000" class="edge">
            <path fill="none" d="M1326.55 256.44c8.06 20.51 24.36 54 49.95 71.56 30.08 20.65 120.39 35.52 188.34 44.16"/>
            <path d="m1564.98 368.65 9.49 4.71-10.36 2.24z"/>
        </g>
        <g stroke="#000" class="edge">
            <path fill="none" d="M1244.76 247.03c-49.34 7.25-114.15 20.67-167.26 44.97-24.25 11.1-23.75 24.9-48 36-52.45 24-116.34 37.39-165.44 44.7"/>
            <path d="m864.76 376.13-10.39-2.05 9.4-4.88z"/>
        </g>
        <g stroke="red" stroke-width="2" class="edge">
            <path fill="none" d="M1355.45 254.88c21.77 9.9 50.03 22.75 73.55 33.44"/>
            <path fill="red" d="m1429.02 284.48 7.65 7.33-10.55-.96z"/>
        </g>
        <g stroke="#000" class="edge">
            <path fill="none" d="M1302.35 255.85c-26.92 24.98-77.56 71.98-108.54 100.73"/>
            <path d="m1196.45 358.91-9.71 4.24 4.95-9.37z"/>
        </g>
        <g stroke="#000" class="edge">
            <path fill="none" d="M1312.9 256.37c-6.87 18.17-14.86 47.37-7.4 71.63 2.96 9.63 8.33 19.08 14.04 27.27"/>
            <path d="m1322.16 352.93 3.2 10.1-8.8-5.9z"/>
        </g>
        <g stroke="#000" class="edge">
            <path fill="none" d="M1581.77 253.04c28.74 9.81 67.06 23.82 99.73 38.96 43.82 20.31 91.86 48.23 123.32 67.36"/>
            <path d="m1806.43 356.24 6.71 8.21-10.36-2.24z"/>
        </g>
        <g stroke="#000" class="edge">
            <path fill="none" d="M1564.5 255.21c13.55 9.45 29.63 22.34 41 36.79 14.37 18.27 25.08 42.39 31.95 60.91"/>
            <path d="m1640.69 351.6.03 10.59-6.63-8.26z"/>
        </g>
        <g stroke="#000" class="edge">
            <path fill="none" d="M1480.86 249.9c-88.78 16.78-264.33 49.96-413.36 78.1a856143 856143 0 0 1-213.2 40.22"/>
            <path d="m855.24 371.6-10.47-1.58 9.18-5.3z"/>
        </g>
        <g stroke="#000" class="edge">
            <path fill="none" d="M1523.01 255.95c-7.63 8.34-16.97 18.56-25.42 27.8"/>
            <path d="m1500.2 286.08-9.33 5.01 4.17-9.74z"/>
        </g>
        <g stroke="#000" class="edge">
            <path fill="none" d="M1493.1 252.7c-32.68 10.14-77.68 24.68-116.6 39.3-57.9 21.75-123.31 50.26-165.29 69.08"/>
            <path d="m1212.74 364.23-10.56.91 7.69-7.29z"/>
        </g>
        <g stroke="#000" class="edge">
            <path fill="none" d="M1554.21 255.96c15.79 19.14 35.5 50.43 18.29 72.04-18.02 22.63-85.95 36.39-143.52 44.2"/>
            <path d="m1429.5 375.66-10.37-2.18 9.46-4.76z"/>
        </g>
    </g>
</svg>
