<svg xmlns="http://www.w3.org/2000/svg" width="1234pt" height="332pt" viewBox="0 0 1233.76 332">
    <g class="graph">
        <path fill="#fff" d="M0 332V0h1233.76v332z"/>
        <g class="node" transform="translate(4 328)">
            <ellipse cx="391.77" cy="-306" fill="none" stroke="#000" rx="81.55" ry="18"/>
            <text x="391.77" y="-300.95" font-family="Times,serif" font-size="14" text-anchor="middle">:app:feature:memo</text>
        </g>
        <g class="node" transform="translate(4 328)">
            <ellipse cx="204.77" cy="-234" fill="none" stroke="#000" rx="101" ry="18"/>
            <text x="204.77" y="-228.95" font-family="Times,serif" font-size="14" text-anchor="middle">:app:core:design-system</text>
        </g>
        <g stroke="#000" class="edge">
            <path fill="none" d="M355.66 38.02c-27.53 10.3-64.34 24.08-94.22 35.27"/>
            <path d="m262.78 76.52-10.59.23 8.13-6.78z"/>
        </g>
        <g class="node" transform="translate(4 328)">
            <ellipse cx="129.77" cy="-90" fill="none" stroke="#000" rx="86.67" ry="18"/>
            <text x="129.77" y="-84.95" font-family="Times,serif" font-size="14" text-anchor="middle">:app:core:navigation</text>
        </g>
        <g stroke="#000" class="edge">
            <path fill="none" d="M317.9 27.8C238.74 34.15 123 48.01 88.77 76c-38.38 31.39-50.52 63.82-28 108 6.39 12.54 17.29 22.8 28.74 30.84"/>
            <path d="m91.4 211.9 6.5 8.36-10.3-2.48z"/>
        </g>
        <g class="node" transform="translate(4 328)">
            <ellipse cx="148.77" cy="-162" fill="none" stroke="#000" rx="82.57" ry="18"/>
            <text x="148.77" y="-156.95" font-family="Times,serif" font-size="14" text-anchor="middle">:app:core:resources</text>
        </g>
        <g stroke="#000" class="edge">
            <path fill="none" d="M316.07 26.03C237.71 30.89 126.01 43.47 98.77 76c-16.85 20.13 2.81 46.07 22.97 64.74"/>
            <path d="m123.96 138.04 5.2 9.22-9.82-3.96z"/>
        </g>
        <g class="node" transform="translate(4 328)">
            <ellipse cx="347.77" cy="-162" fill="none" stroke="#000" rx="59.54" ry="18"/>
            <text x="347.77" y="-156.95" font-family="Times,serif" font-size="14" text-anchor="middle">:library:color</text>
        </g>
        <g stroke="#000" class="edge">
            <path fill="none" d="M379.18 40.11c-8.31 9.71-17.61 22.56-22.41 35.89-6.93 19.29-8.03 42.44-7.47 60.29"/>
            <path d="m352.79 136.01-2.98 10.17-4.01-9.8z"/>
        </g>
        <g class="node" transform="translate(4 328)">
            <ellipse cx="639.77" cy="-18" fill="none" stroke="#000" rx="62.1" ry="18"/>
            <text x="639.77" y="-12.95" font-family="Times,serif" font-size="14" text-anchor="middle">:library:kotlin</text>
        </g>
        <g stroke="#000" class="edge">
            <path fill="none" d="M470.77 29.47c34.8 6.67 74.28 20 101 46.53 56.51 56.1 68.85 155.52 71.42 204.33"/>
            <path d="m646.68 279.95-3.09 10.14-3.91-9.85z"/>
        </g>
        <g class="node" transform="translate(4 328)">
            <ellipse cx="459.77" cy="-90" fill="none" stroke="#000" rx="79.5" ry="18"/>
            <text x="459.77" y="-84.95" font-family="Times,serif" font-size="14" text-anchor="middle">:library:navigation</text>
        </g>
        <g stroke="#000" class="edge">
            <path fill="none" d="M470.67 29.51c30.62 6.78 63.23 20.2 82.1 46.49 32.76 45.64-21.51 104.57-58.69 136.98"/>
            <path d="m496.57 215.46-9.89 3.8 5.36-9.14z"/>
        </g>
        <g class="node" transform="translate(4 328)">
            <ellipse cx="1146.77" cy="-18" fill="none" stroke="#000" rx="78.99" ry="18"/>
            <text x="1146.77" y="-12.95" font-family="Times,serif" font-size="14" text-anchor="middle">:library:coroutines</text>
        </g>
        <g stroke="#000" class="edge">
            <path fill="none" d="M476.83 24.46C573.22 27.91 738.24 39.23 874.77 76c76.48 20.6 96.93 28.34 163 72 39.09 25.83 50.48 33.37 77 72 12.83 18.69 22.19 42.64 28.15 60.98"/>
            <path d="m1146.22 279.82-.4 10.59-6.29-8.53z"/>
        </g>
        <g class="node" transform="translate(4 328)">
            <ellipse cx="459.77" cy="-18" fill="none" stroke="#000" rx="72.85" ry="18"/>
            <text x="459.77" y="-12.95" font-family="Times,serif" font-size="14" text-anchor="middle">:library:datetime</text>
        </g>
        <g stroke="#000" class="edge">
            <path fill="none" d="M314.7 24.56C225.06 28.12 88.68 39.55 53.77 76c-55.55 58-69.17 119.8-16 180 22.36 25.31 226.53 41.34 343.9 48.55"/>
            <path d="m381.82 301.05 9.77 4.1-10.19 2.89z"/>
        </g>
        <g class="node" transform="translate(4 328)">
            <ellipse cx="450.77" cy="-234" fill="none" stroke="#000" rx="89.23" ry="18"/>
            <text x="450.77" y="-228.95" font-family="Times,serif" font-size="14" text-anchor="middle">:library:shimmer-m3</text>
        </g>
        <g stroke="#000" class="edge">
            <path fill="none" d="M410.06 39.95c6.95 8.25 15.47 18.35 23.19 27.51"/>
            <path d="m435.88 65.15 3.77 9.9-9.12-5.39z"/>
        </g>
        <g class="node" transform="translate(4 328)">
            <ellipse cx="777.77" cy="-234" fill="none" stroke="#000" rx="84.11" ry="18"/>
            <text x="777.77" y="-228.95" font-family="Times,serif" font-size="14" text-anchor="middle">:app:domain:memo</text>
        </g>
        <g stroke="red" stroke-width="2" class="edge">
            <path fill="none" d="M457.36 34.17c68.23 12.37 178.18 32.31 250.87 45.49"/>
            <path fill="red" d="m706.93 75.87 9.21 5.23-10.46 1.66z"/>
        </g>
        <g stroke="#000" class="edge">
            <path fill="none" d="M194.93 112.3c-6.44 8.06-14.24 17.81-21.37 26.72"/>
            <path d="m176.38 141.09-8.98 5.62 3.52-9.99z"/>
        </g>
        <g stroke="#000" class="edge">
            <path fill="none" d="M242.3 111.41c20.57 10.07 47.06 23.04 68.82 33.69"/>
            <path d="m312.58 141.92 7.44 7.54-10.52-1.26z"/>
        </g>
        <g stroke="#000" class="edge">
            <path fill="none" d="M221.41 112.33c14 18.64 37.72 48.71 61.36 71.67 37.26 36.17 49.17 42.66 92 72 16.22 11.11 34.82 22.39 50.8 31.68"/>
            <path d="m426.91 284.41 6.92 8.02-10.41-1.95z"/>
        </g>
        <g stroke="#000" class="edge">
            <path fill="none" d="M192.77 251.51c57.82 12.27 145.77 30.92 205.67 43.63"/>
            <path d="m399.13 291.71 9.05 5.5-10.51 1.35z"/>
        </g>
        <g stroke="#000" class="edge">
            <path fill="none" d="M463.77 256.3v24.16"/>
            <path d="m467.27 280.38-3.5 10-3.5-10z"/>
        </g>
        <g stroke="#000" class="edge">
            <path fill="none" d="M430.1 111.77c-13.67 9.29-30.84 20.95-45.61 31"/>
            <path d="m386.67 145.51-10.24 2.73 6.31-8.52z"/>
        </g>
        <g stroke="#000" class="edge">
            <path fill="none" d="M765.54 111.96c-9.24 10.07-20.74 23.32-29.77 36.04-31.62 44.59-61.77 100.86-78.49 133.7"/>
            <path d="m660.45 283.18-7.62 7.35 1.37-10.5z"/>
        </g>
        <g stroke="#000" class="edge">
            <path fill="none" d="M856.94 102.42c43.99 6.9 99.26 20.17 142.83 45.58 58.7 34.23 108.54 98.29 133.62 134.43"/>
            <path d="m1136.2 280.35 2.74 10.23-8.52-6.29z"/>
        </g>
        <g stroke="#000" class="edge">
            <path fill="none" d="M759.09 111.81C718.41 141.76 630.06 205.92 552.77 256c-16.62 10.77-35.41 22.08-51.43 31.48"/>
            <path d="m503.48 290.28-10.41 2.02 6.88-8.06z"/>
        </g>
        <g class="node" transform="translate(4 328)">
            <ellipse cx="978.77" cy="-18" fill="none" stroke="#000" rx="71.31" ry="18"/>
            <text x="978.77" y="-12.95" font-family="Times,serif" font-size="14" text-anchor="middle">:app:core:model</text>
        </g>
        <g stroke="#000" class="edge">
            <path fill="none" d="M849.42 104.97c62.85 13.52 151.28 44.67 182.35 115.03 6.47 14.64 5.84 21.1 0 36-4.17 10.65-11.59 20.45-19.42 28.64"/>
            <path d="m1014.86 287.07-9.61 4.45 4.74-9.47z"/>
        </g>
        <g class="node" transform="translate(4 328)">
            <ellipse cx="804.77" cy="-18" fill="none" stroke="#000" rx="85.13" ry="18"/>
            <text x="804.77" y="-12.95" font-family="Times,serif" font-size="14" text-anchor="middle">:common:exception</text>
        </g>
        <g stroke="#000" class="edge">
            <path fill="none" d="M764.88 112.01c-8.4 9.68-17.69 22.53-22.11 35.99-4.99 15.2-3.84 20.47 0 36 9.08 36.64 31.08 74.37 47.19 98.66"/>
            <path d="m792.66 280.41 2.72 10.23-8.51-6.3z"/>
        </g>
        <g class="node" transform="translate(4 328)">
            <ellipse cx="912.77" cy="-90" fill="none" stroke="#000" rx="88.71" ry="18"/>
            <text x="912.77" y="-84.95" font-family="Times,serif" font-size="14" text-anchor="middle">:app:domain:account</text>
        </g>
        <g stroke="#000" class="edge">
            <path fill="none" d="M856.81 102.47c29.26 7.01 60.03 20.34 77.96 45.53 12.75 17.9 6.27 42.7-2.27 61.58"/>
            <path d="m935.76 210.88-7.58 7.4 1.31-10.51z"/>
        </g>
        <g class="node" transform="translate(4 328)">
            <ellipse cx="834.77" cy="-162" fill="none" stroke="#000" rx="86.67" ry="18"/>
            <text x="834.77" y="-156.95" font-family="Times,serif" font-size="14" text-anchor="middle">:app:domain:backup</text>
        </g>
        <g stroke="red" stroke-width="2" class="edge">
            <path fill="none" d="M795.57 111.95c6.72 8.25 14.95 18.35 22.41 27.51"/>
            <path fill="red" d="m819.59 135.9 3.6 9.96-9.03-5.54z"/>
        </g>
        <g stroke="#000" class="edge">
            <path fill="none" d="M863.16 252.75c-47.01 12.05-115.12 29.52-162.95 41.78"/>
            <path d="m701.14 297.9-10.56-.9 8.82-5.88z"/>
        </g>
        <g stroke="#000" class="edge">
            <path fill="none" d="m965.26 253.5 128.09 38.32"/>
            <path d="m1094.32 288.46 8.57 6.22-10.58.48z"/>
        </g>
        <g stroke="#000" class="edge">
            <path fill="none" d="M847.58 249.62C778.11 260.3 668.02 277.24 572.77 292c-12.1 1.88-24.95 3.87-37.43 5.82"/>
            <path d="m535.94 301.27-10.42-1.92 9.34-5z"/>
        </g>
        <g stroke="red" stroke-width="2" class="edge">
            <path fill="none" d="M932.75 255.95c7.95 8.42 17.7 18.77 26.48 28.08"/>
            <path fill="red" d="m960.55 280.33 4.32 9.68-9.41-4.88z"/>
        </g>
        <g stroke="#000" class="edge">
            <path fill="none" d="M891.18 255.59c-14.26 9.24-32.21 20.87-47.71 30.92"/>
            <path d="m845.75 289.2-10.3 2.51 6.49-8.38z"/>
        </g>
        <g stroke="#000" class="edge">
            <path fill="none" d="M816.02 183.57c-34.88 25.4-101.65 74.02-141.03 102.7"/>
            <path d="m677.45 288.81-10.15 3.06 6.03-8.72z"/>
        </g>
        <g stroke="#000" class="edge">
            <path fill="none" d="M903.08 178.35c38.61 8.34 87.96 21.72 128.69 41.65 34.78 17.02 69.68 44.67 92.61 64.64"/>
            <path d="m1126.55 281.89 5.16 9.25-9.8-4.01z"/>
        </g>
        <g stroke="#000" class="edge">
            <path fill="none" d="M798.29 182.33c-69.32 26.25-210.47 79.7-285.34 108.05"/>
            <path d="m514.41 293.57-10.59.27 8.11-6.82z"/>
        </g>
        <g stroke="#000" class="edge">
            <path fill="none" d="M922.49 171.13c34.29 6.33 70.87 20.06 92.28 48.87 13.93 18.74 2.51 44.13-10.39 62.99"/>
            <path d="m1007.25 284.98-8.74 5.99 3.1-10.13z"/>
        </g>
        <g stroke="#000" class="edge">
            <path fill="none" d="M830.98 184.32c-4.26 10.19-9.26 23.44-12.21 35.68-4.79 19.9-7.3 42.86-8.6 60.48"/>
            <path d="m813.68 280.45-4.14 9.76-2.85-10.21z"/>
        </g>
        <g stroke="red" stroke-width="2" class="edge">
            <path fill="none" d="M857.66 183.95c9.51 8.53 21.21 19.04 31.7 28.44"/>
            <path fill="red" d="m890.44 208.66 5.1 9.29-9.78-4.08z"/>
        </g>
    </g>
</svg>
