<svg xmlns="http://www.w3.org/2000/svg" width="317pt" height="188pt" viewBox="0 0 317.39 188">
    <g class="graph">
        <path fill="#fff" d="M0 188V0h317.39v188z"/>
        <g class="node" transform="translate(4 184)">
            <ellipse cx="134.54" cy="-162" fill="none" stroke="#000" rx="115.33" ry="18"/>
            <text x="134.54" y="-156.95" font-family="Times,serif" font-size="14" text-anchor="middle">:app:core:calendar-compose</text>
        </g>
        <g class="node" transform="translate(4 184)">
            <ellipse cx="134.54" cy="-90" fill="none" stroke="#000" rx="101" ry="18"/>
            <text x="134.54" y="-84.95" font-family="Times,serif" font-size="14" text-anchor="middle">:app:core:design-system</text>
        </g>
        <g stroke="red" stroke-width="2" class="edge">
            <path fill="none" d="M138.54 40.3v24.16"/>
            <path fill="red" d="m142.04 62.87-3.5 10-3.5-10z"/>
        </g>
        <g class="node" transform="translate(4 184)">
            <ellipse cx="59.54" cy="-18" fill="none" stroke="#000" rx="59.54" ry="18"/>
            <text x="59.54" y="-12.95" font-family="Times,serif" font-size="14" text-anchor="middle">:library:color</text>
        </g>
        <g stroke="#000" class="edge">
            <path fill="none" d="M78.92 37.82C59.45 45.8 39.93 57.87 28.54 76c-12.48 19.87-.51 44.94 12.72 63.4"/>
            <path d="m43.93 137.13 3.32 10.06-8.87-5.8z"/>
        </g>
        <g class="node" transform="translate(4 184)">
            <ellipse cx="236.54" cy="-18" fill="none" stroke="#000" rx="72.85" ry="18"/>
            <text x="236.54" y="-12.95" font-family="Times,serif" font-size="14" text-anchor="middle">:library:datetime</text>
        </g>
        <g stroke="#000" class="edge">
            <path fill="none" d="M198.16 37.82c19.47 7.98 38.99 20.05 50.38 38.18 11.34 18.06 8.2 42.39 2.85 61.04"/>
            <path d="m254.78 137.95-6.42 8.43-.24-10.59z"/>
        </g>
        <g stroke="red" stroke-width="2" class="edge">
            <path fill="none" d="M120.38 111.95c-9.28 8.66-20.73 19.35-30.92 28.86"/>
            <path fill="red" d="m93.18 142.12-9.7 4.27 4.93-9.38z"/>
        </g>
        <g stroke="#000" class="edge">
            <path fill="none" d="M162.97 111.77c13.35 9.15 30.06 20.62 44.55 30.57"/>
            <path d="m209.15 139.21 6.26 8.55-10.22-2.78z"/>
        </g>
    </g>
</svg>
