<svg xmlns="http://www.w3.org/2000/svg" width="712" height="260pt" viewBox="0 0 533.85 260">
    <g class="graph">
        <path fill="#fff" d="M0 260V0h533.85v260z"/>
        <g class="node" transform="translate(4 256)">
            <ellipse cx="307.54" cy="-234" fill="none" stroke="#000" rx="81.04" ry="18"/>
            <text x="307.54" y="-228.95" font-family="Times,serif" font-size="14" text-anchor="middle">:app:core:compose</text>
        </g>
        <g class="node" transform="translate(4 256)">
            <ellipse cx="164.54" cy="-162" fill="none" stroke="#000" rx="115.33" ry="18"/>
            <text x="164.54" y="-156.95" font-family="Times,serif" font-size="14" text-anchor="middle">:app:core:calendar-compose</text>
        </g>
        <g stroke="red" stroke-width="2" class="edge">
            <path fill="none" d="M279.09 38.88c-19.61 9.61-44.89 21.98-66.32 32.47"/>
            <path fill="red" d="m215.84 73.74-10.52 1.25 7.45-7.54z"/>
        </g>
        <g class="node" transform="translate(4 256)">
            <ellipse cx="226.54" cy="-90" fill="none" stroke="#000" rx="101" ry="18"/>
            <text x="226.54" y="-84.95" font-family="Times,serif" font-size="14" text-anchor="middle">:app:core:design-system</text>
        </g>
        <g stroke="#000" class="edge">
            <path fill="none" d="M311.1 40.25c-1.19 18.85-5.23 49.35-18.56 71.75-6.65 11.18-16.52 21.16-26.43 29.36"/>
            <path d="m268.32 144.08-10.04 3.37 5.75-8.9z"/>
        </g>
        <g class="node" transform="translate(4 256)">
            <ellipse cx="454.54" cy="-162" fill="none" stroke="#000" rx="71.31" ry="18"/>
            <text x="454.54" y="-156.95" font-family="Times,serif" font-size="14" text-anchor="middle">:app:core:model</text>
        </g>
        <g stroke="#000" class="edge">
            <path fill="none" d="M344.53 38.71c21.05 10.02 48.54 23.11 71.25 33.93"/>
            <path d="m417.28 69.47 7.52 7.46-10.53-1.14z"/>
        </g>
        <g class="node" transform="translate(4 256)">
            <ellipse cx="59.54" cy="-18" fill="none" stroke="#000" rx="59.54" ry="18"/>
            <text x="59.54" y="-12.95" font-family="Times,serif" font-size="14" text-anchor="middle">:library:color</text>
        </g>
        <g stroke="#000" class="edge">
            <path fill="none" d="M234.2 27.7C164.08 33.76 68.19 47.19 44.54 76c-31.24 38.05-10.92 99.26 5.09 134.22"/>
            <path d="m52.58 208.28 1.16 10.53-7.48-7.51z"/>
        </g>
        <g class="node" transform="translate(4 256)">
            <ellipse cx="226.54" cy="-18" fill="none" stroke="#000" rx="72.85" ry="18"/>
            <text x="226.54" y="-12.95" font-family="Times,serif" font-size="14" text-anchor="middle">:library:datetime</text>
        </g>
        <g stroke="#000" class="edge">
            <path fill="none" d="M321.78 39.98c17.27 31.07 47.62 98.09 18.76 144.02-10.8 17.19-28.9 28.93-47.34 36.9"/>
            <path d="m294.66 224.09-10.59.41 8.02-6.92z"/>
        </g>
        <g stroke="red" stroke-width="2" class="edge">
            <path fill="none" d="M183.87 112.3c7.2 8.14 15.95 18.01 23.91 27"/>
            <path fill="red" d="m209.37 135.82 4.01 9.81-9.25-5.17z"/>
        </g>
        <g stroke="#000" class="edge">
            <path fill="none" d="M146.88 112.17c-11.4 9.73-25.09 22.57-35.34 35.83-14.74 19.07-27.48 43.28-36.12 61.63"/>
            <path d="m78.68 210.93-7.34 7.64.97-10.55z"/>
        </g>
        <g stroke="#000" class="edge">
            <path fill="none" d="M148.11 112.11c-19.17 18.2-42.79 47.66-27.57 71.89 10.8 17.19 28.9 28.93 47.34 36.9"/>
            <path d="m168.99 217.58 8.02 6.92-10.59-.41z"/>
        </g>
        <g stroke="red" stroke-width="2" class="edge">
            <path fill="none" d="M192.23 183.06c-25.14 10.54-58.1 24.35-84.36 35.36"/>
            <path fill="red" d="m110.8 220.99-10.58.64 7.87-7.1z"/>
        </g>
        <g stroke="#000" class="edge">
            <path fill="none" d="M230.54 184.3v24.16"/>
            <path d="m234.04 208.38-3.5 10-3.5-10z"/>
        </g>
    </g>
</svg>
