<svg xmlns="http://www.w3.org/2000/svg" width="9144" height="548pt" viewBox="0 0 6858.24 548">
    <g class="graph">
        <path fill="#fff" d="M0 548V0h6858.24v548z"/>
        <g class="node" transform="translate(4 544)">
            <ellipse cx="3129" cy="-522" fill="none" stroke="#000" rx="97.41" ry="18"/>
            <text x="3129" y="-516.95" font-family="Times,serif" font-size="14" text-anchor="middle">:app:platform:common</text>
        </g>
        <g class="node" transform="translate(4 544)">
            <ellipse cx="889" cy="-306" fill="none" stroke="#000" rx="81.04" ry="18"/>
            <text x="889" y="-300.95" font-family="Times,serif" font-size="14" text-anchor="middle">:app:core:compose</text>
        </g>
        <g stroke="#000" class="edge">
            <path fill="none" d="M3035.32 22.87C2664.47 22.74 1355.54 25.89 1176 76c-101.02 28.19-204.27 100.09-253.45 137.53"/>
            <path d="m924.99 216.07-10.06 3.33 5.79-8.87z"/>
        </g>
        <g class="node" transform="translate(4 544)">
            <ellipse cx="955" cy="-234" fill="none" stroke="#000" rx="101" ry="18"/>
            <text x="955" y="-228.95" font-family="Times,serif" font-size="14" text-anchor="middle">:app:core:design-system</text>
        </g>
        <g stroke="#000" class="edge">
            <path fill="none" d="M3035.34 23.07C2627.69 23.64 1073.18 28.94 859 76c-78.55 17.26-121.88 4.77-166 72-27.27 41.55-8.89 75.83 29 108 21.92 18.61 87.77 32.44 144.51 41.29"/>
            <path d="m866.86 293.81 9.36 4.96-10.41 1.96z"/>
        </g>
        <g class="node" transform="translate(4 544)">
            <ellipse cx="1714" cy="-306" fill="none" stroke="#000" rx="86.67" ry="18"/>
            <text x="1714" y="-300.95" font-family="Times,serif" font-size="14" text-anchor="middle">:app:core:navigation</text>
        </g>
        <g stroke="#000" class="edge">
            <path fill="none" d="M3036.31 24.78C2806.02 29.48 2230.18 44.13 2040 76c-112.77 18.9-151.17 9.61-247 72-24.63 16.03-45.48 42.57-58.89 62.51"/>
            <path d="m1737.17 212.22-8.39 6.47 2.52-10.29z"/>
        </g>
        <g class="node" transform="translate(4 544)">
            <ellipse cx="1166" cy="-162" fill="none" stroke="#000" rx="59.54" ry="18"/>
            <text x="1166" y="-156.95" font-family="Times,serif" font-size="14" text-anchor="middle">:library:color</text>
        </g>
        <g stroke="#000" class="edge">
            <path fill="none" d="M3035.72 23.54C2569.54 26.3 581.31 40.16 455 76c-60.57 17.19-83.36 22.29-122 72-49.64 63.87-43.04 139.52 27 180 63.12 36.48 553.38 48.61 739.05 51.93"/>
            <path d="m1098.86 376.42 9.93 3.68-10.06 3.32z"/>
        </g>
        <g class="node" transform="translate(4 544)">
            <ellipse cx="1654" cy="-18" fill="none" stroke="#000" rx="62.1" ry="18"/>
            <text x="1654" y="-12.95" font-family="Times,serif" font-size="14" text-anchor="middle">:library:kotlin</text>
        </g>
        <g stroke="#000" class="edge">
            <path fill="none" d="M3035.52 23.66C2575.52 26.94 632.93 42.67 364 76 200.43 96.27 4 .18 4 165v218c0 46.97 16.17 65.78 57 89 66.92 38.06 1218.95 49.97 1523.6 52.46"/>
            <path d="m1584.44 520.96 9.97 3.58-10.03 3.42z"/>
        </g>
        <g class="node" transform="translate(4 544)">
            <ellipse cx="1530" cy="-306" fill="none" stroke="#000" rx="79.5" ry="18"/>
            <text x="1530" y="-300.95" font-family="Times,serif" font-size="14" text-anchor="middle">:library:navigation</text>
        </g>
        <g stroke="#000" class="edge">
            <path fill="none" d="M3036.62 24.68C2758.96 29.85 1969.93 46.93 1857 76c-113.05 29.1-232.63 101.12-289.36 138.17"/>
            <path d="m1569.66 217.04-10.28 2.58 6.42-8.43z"/>
        </g>
        <g class="node" transform="translate(4 544)">
            <ellipse cx="3526" cy="-18" fill="none" stroke="#000" rx="78.99" ry="18"/>
            <text x="3526" y="-12.95" font-family="Times,serif" font-size="14" text-anchor="middle">:library:coroutines</text>
        </g>
        <g stroke="#000" class="edge">
            <path fill="none" d="M3223.67 28.84C3331.33 36.7 3503.89 52.46 3564 76c51 19.97 64.5 30.3 100 72 94.4 110.9 138.9 209.42 49 324-13.83 17.63-64.3 31.45-108.74 40.55"/>
            <path d="m3605.09 515.95-10.49-1.49 9.13-5.37z"/>
        </g>
        <g class="node" transform="translate(4 544)">
            <ellipse cx="2149" cy="-18" fill="none" stroke="#000" rx="72.85" ry="18"/>
            <text x="2149" y="-12.95" font-family="Times,serif" font-size="14" text-anchor="middle">:library:datetime</text>
        </g>
        <g stroke="#000" class="edge">
            <path fill="none" d="M3036.08 24.27C2703.48 28.87 1620.55 46.03 1467 76c-90.67 17.7-142.19-3.8-195 72-48.77 70-106.85 144.23 235 324 48.66 25.59 399.52 43 562.81 49.8"/>
            <path d="m2069.87 518.3 9.85 3.91-10.14 3.08z"/>
        </g>
        <g class="node" transform="translate(4 544)">
            <ellipse cx="1115" cy="-306" fill="none" stroke="#000" rx="89.23" ry="18"/>
            <text x="1115" y="-300.95" font-family="Times,serif" font-size="14" text-anchor="middle">:library:shimmer-m3</text>
        </g>
        <g stroke="#000" class="edge">
            <path fill="none" d="M3035.29 23.18C2656.44 24.22 1301.47 31.06 1222 76c-51.17 28.94-80.85 94.94-94.27 132.84"/>
            <path d="m1131.08 209.84-6.52 8.35-.11-10.59z"/>
        </g>
        <g class="node" transform="translate(4 544)">
            <ellipse cx="3179" cy="-378" fill="none" stroke="#000" rx="71.31" ry="18"/>
            <text x="3179" y="-372.95" font-family="Times,serif" font-size="14" text-anchor="middle">:app:data:memo</text>
        </g>
        <g stroke="#000" class="edge">
            <path fill="none" d="M3139.13 40.41c8.52 24.19 24.02 68.23 34.13 96.94"/>
            <path d="m3176.45 135.87.02 10.59-6.62-8.27z"/>
        </g>
        <g class="node" transform="translate(4 544)">
            <ellipse cx="3610" cy="-306" fill="none" stroke="#000" rx="58.52" ry="18"/>
            <text x="3610" y="-300.95" font-family="Times,serif" font-size="14" text-anchor="middle">:app:data:tag</text>
        </g>
        <g stroke="#000" class="edge">
            <path fill="none" d="M3220.91 29.98c86.4 8.03 211.31 23.13 254.09 46.02 58.18 31.13 102.87 97.25 124.55 134.34"/>
            <path d="m3602.38 208.25 1.92 10.42-8-6.96z"/>
        </g>
        <g class="node" transform="translate(4 544)">
            <ellipse cx="3627" cy="-162" fill="none" stroke="#000" rx="75.92" ry="18"/>
            <text x="3627" y="-156.95" font-family="Times,serif" font-size="14" text-anchor="middle">:app:data:account</text>
        </g>
        <g stroke="#000" class="edge">
            <path fill="none" d="M3221.93 29.69C3317.25 37.87 3461.67 53.47 3512 76c90.38 40.45 128.36 54.16 170 144 21.12 45.56-8.85 102.23-31 134.74"/>
            <path d="m3653.94 356.64-8.63 6.14 2.92-10.18z"/>
        </g>
        <g class="node" transform="translate(4 544)">
            <ellipse cx="3921" cy="-378" fill="none" stroke="#000" rx="83.6" ry="18"/>
            <text x="3921" y="-372.95" font-family="Times,serif" font-size="14" text-anchor="middle">:app:data:credential</text>
        </g>
        <g stroke="#000" class="edge">
            <path fill="none" d="M3230.82 22.71C3396 23.51 3722.47 30.97 3827 76c31.81 13.7 60.13 42.11 78.04 63.17"/>
            <path d="m3907.67 136.85 3.66 9.94-9.06-5.49z"/>
        </g>
        <g class="node" transform="translate(4 544)">
            <ellipse cx="5926" cy="-162" fill="none" stroke="#000" rx="74.89" ry="18"/>
            <text x="5926" y="-156.95" font-family="Times,serif" font-size="14" text-anchor="middle">:app:data:holiday</text>
        </g>
        <g stroke="#000" class="edge">
            <path fill="none" d="M3230.76 22.94C3713.97 23.3 5824 32.43 5824 165v74c0 49.7 42.21 93.22 73.36 118.57"/>
            <path d="m5899.33 354.67 5.69 8.93-10.02-3.43z"/>
        </g>
        <g class="node" transform="translate(4 544)">
            <ellipse cx="4592" cy="-234" fill="none" stroke="#000" rx="73.87" ry="18"/>
            <text x="4592" y="-228.95" font-family="Times,serif" font-size="14" text-anchor="middle">:app:data:backup</text>
        </g>
        <g stroke="#000" class="edge">
            <path fill="none" d="M3230.37 23.82C3535.55 26.78 4456.29 38.77 4508 76c66.78 48.09 82.9 153.44 86.78 204.35"/>
            <path d="m4598.27 280.05-2.85 10.2-4.14-9.75z"/>
        </g>
        <g class="node" transform="translate(4 544)">
            <ellipse cx="4024" cy="-306" fill="none" stroke="#000" rx="65.68" ry="18"/>
            <text x="4024" y="-300.95" font-family="Times,serif" font-size="14" text-anchor="middle">:app:data:fetch</text>
        </g>
        <g stroke="#000" class="edge">
            <path fill="none" d="M3228.98 25.55C3399.51 30.81 3748.39 45.06 3866 76c72.29 19.02 108.56 11.17 152 72 12.3 17.23 14.35 41.31 13.57 60.08"/>
            <path d="m4035.06 208.3-4.23 9.71-2.75-10.23z"/>
        </g>
        <g class="node" transform="translate(4 544)">
            <ellipse cx="4281" cy="-234" fill="none" stroke="#000" rx="62.1" ry="18"/>
            <text x="4281" y="-228.95" font-family="Times,serif" font-size="14" text-anchor="middle">:app:data:fcm</text>
        </g>
        <g stroke="#000" class="edge">
            <path fill="none" d="M3230.71 23.09c185.11 1.22 579.9 9.05 708.29 52.91 134.7 46.01 266.53 158.73 320.49 208.59"/>
            <path d="m4261.73 281.9 4.92 9.38-9.69-4.27z"/>
        </g>
        <g class="node" transform="translate(4 544)">
            <ellipse cx="3384" cy="-450" fill="none" stroke="#000" rx="78.48" ry="18"/>
            <text x="3384" y="-444.95" font-family="Times,serif" font-size="14" text-anchor="middle">:app:data:calendar</text>
        </g>
        <g stroke="red" stroke-width="2" class="edge">
            <path fill="none" d="M3185.84 37.5c41.46 11.39 99.2 27.24 142.36 39.08"/>
            <path fill="red" d="m3327.48 72.76 8.72 6.02-10.57.73z"/>
        </g>
        <g class="node" transform="translate(4 544)">
            <ellipse cx="2721" cy="-306" fill="none" stroke="#000" rx="84.11" ry="18"/>
            <text x="2721" y="-300.95" font-family="Times,serif" font-size="14" text-anchor="middle">:app:domain:memo</text>
        </g>
        <g stroke="#000" class="edge">
            <path fill="none" d="M3060.6 34.39C2985.54 49.34 2868.32 81.89 2789 148c-20.72 17.27-38.12 42.7-49.52 61.96"/>
            <path d="m2742.53 211.68-8 6.94 1.93-10.42z"/>
        </g>
        <g class="node" transform="translate(4 544)">
            <ellipse cx="2794" cy="-234" fill="none" stroke="#000" rx="71.31" ry="18"/>
            <text x="2794" y="-228.95" font-family="Times,serif" font-size="14" text-anchor="middle">:app:domain:tag</text>
        </g>
        <g stroke="#000" class="edge">
            <path fill="none" d="M3110.63 39.76c-12.56 9.9-28.16 23.05-40.63 36.24-41.22 43.6-37.24 66.95-81 108-46.4 43.52-109.71 81.61-150.48 103.97"/>
            <path d="m2840.2 291.04-10.46 1.68 7.13-7.84z"/>
        </g>
        <g class="node" transform="translate(4 544)">
            <ellipse cx="2763" cy="-90" fill="none" stroke="#000" rx="88.71" ry="18"/>
            <text x="2763" y="-84.95" font-family="Times,serif" font-size="14" text-anchor="middle">:app:domain:account</text>
        </g>
        <g stroke="#000" class="edge">
            <path fill="none" d="M3042.72 29.09C2893.81 41.64 2613 76.97 2613 165v146c0 58.03 59.83 98.89 104.91 121.44"/>
            <path d="m2719.29 429.22 7.49 7.49-10.53-1.19z"/>
        </g>
        <g class="node" transform="translate(4 544)">
            <ellipse cx="2295" cy="-306" fill="none" stroke="#000" rx="96.39" ry="18"/>
            <text x="2295" y="-300.95" font-family="Times,serif" font-size="14" text-anchor="middle">:app:domain:credential</text>
        </g>
        <g stroke="#000" class="edge">
            <path fill="none" d="M3036.92 25.41C2852.44 30.72 2462.11 45.43 2409 76c-51.85 29.84-84.53 95.2-99.8 132.83"/>
            <path d="m2312.46 210.09-6.89 8.04.37-10.59z"/>
        </g>
        <g class="node" transform="translate(4 544)">
            <ellipse cx="2226" cy="-90" fill="none" stroke="#000" rx="87.69" ry="18"/>
            <text x="2226" y="-84.95" font-family="Times,serif" font-size="14" text-anchor="middle">:app:domain:holiday</text>
        </g>
        <g stroke="#000" class="edge">
            <path fill="none" d="M3036.37 24.82C2915.47 28.59 2716.56 40.22 2653 76c-158.26 89.1-99.69 220.61-249 324-27.99 19.38-63.25 31.83-94.71 39.76"/>
            <path d="m2310.36 443.1-10.54-1.07 8.91-5.73z"/>
        </g>
        <g class="node" transform="translate(4 544)">
            <ellipse cx="2990" cy="-162" fill="none" stroke="#000" rx="86.67" ry="18"/>
            <text x="2990" y="-156.95" font-family="Times,serif" font-size="14" text-anchor="middle">:app:domain:backup</text>
        </g>
        <g stroke="#000" class="edge">
            <path fill="none" d="M3126.3 40.27c-22.3 57.42-94.09 242.31-121.51 312.94"/>
            <path d="m3008.07 354.44-6.89 8.06.36-10.59z"/>
        </g>
        <g class="node" transform="translate(4 544)">
            <ellipse cx="3189" cy="-234" fill="none" stroke="#000" rx="78.48" ry="18"/>
            <text x="3189" y="-228.95" font-family="Times,serif" font-size="14" text-anchor="middle">:app:domain:fetch</text>
        </g>
        <g stroke="#000" class="edge">
            <path fill="none" d="M3160.66 39.63c31.6 20.8 81.61 59.68 102.34 108.37 20.52 48.19-18.05 104.23-45.63 135.87"/>
            <path d="m3220.25 285.9-9.29 5.09 4.09-9.77z"/>
        </g>
        <g class="node" transform="translate(4 544)">
            <ellipse cx="2316" cy="-162" fill="none" stroke="#000" rx="74.89" ry="18"/>
            <text x="2316" y="-156.95" font-family="Times,serif" font-size="14" text-anchor="middle">:app:domain:fcm</text>
        </g>
        <g stroke="#000" class="edge">
            <path fill="none" d="M3036.08 24.26C2857.53 27.49 2490.78 38.62 2447 76c-62.55 53.41-9.98 104.67-43 180-16.22 37-43.45 74.86-62.5 99.08"/>
            <path d="m2344.32 357.16-8.98 5.62 3.51-9.99z"/>
        </g>
        <g class="node" transform="translate(4 544)">
            <ellipse cx="2885" cy="-378" fill="none" stroke="#000" rx="91.27" ry="18"/>
            <text x="2885" y="-372.95" font-family="Times,serif" font-size="14" text-anchor="middle">:app:domain:calendar</text>
        </g>
        <g stroke="#000" class="edge">
            <path fill="none" d="M3082.23 37.75c-27.18 9.01-60.66 21.96-88.23 38.25-30.24 17.87-60.38 44.56-80.55 64.05"/>
            <path d="m2916.11 142.35-9.59 4.51 4.68-9.5z"/>
        </g>
        <g class="node" transform="translate(4 544)">
            <ellipse cx="6234" cy="-450" fill="none" stroke="#000" rx="86.15" ry="18"/>
            <text x="6234" y="-444.95" font-family="Times,serif" font-size="14" text-anchor="middle">:app:core:coroutines</text>
        </g>
        <g stroke="#000" class="edge">
            <path fill="none" d="M3230.68 22.74C3680.37 21.85 5554.34 21.56 6138 76c8.75.82 17.9 1.96 26.94 3.27"/>
            <path d="m6165.46 75.81 9.36 4.98-10.42 1.94z"/>
        </g>
        <g class="node" transform="translate(4 544)">
            <ellipse cx="4901" cy="-234" fill="none" stroke="#000" rx="123.52" ry="18"/>
            <text x="4901" y="-228.95" font-family="Times,serif" font-size="14" text-anchor="middle">:app:core:filter-database-room</text>
        </g>
        <g stroke="#000" class="edge">
            <path fill="none" d="M3230.26 23.72C3528.12 26.35 4415.12 37.37 4539 76c141.29 44.06 281.31 157.75 338.77 208.22"/>
            <path d="m4879.97 281.5 5.16 9.26-9.8-4.02z"/>
        </g>
        <g class="node" transform="translate(4 544)">
            <ellipse cx="6166" cy="-234" fill="none" stroke="#000" rx="132.22" ry="18"/>
            <text x="6166" y="-228.95" font-family="Times,serif" font-size="14" text-anchor="middle">:app:core:backup-database-room</text>
        </g>
        <g stroke="#000" class="edge">
            <path fill="none" d="M3230.43 23.19C3728.35 24.35 5967.8 32 6024 76c65.19 51.04-3.27 114.99 48 180 10.51 13.33 25.33 23.74 40.27 31.68"/>
            <path d="m6113.81 284.54 7.41 7.57-10.51-1.3z"/>
        </g>
        <g class="node" transform="translate(4 544)">
            <ellipse cx="5342" cy="-162" fill="none" stroke="#000" rx="158.32" ry="18"/>
            <text x="5342" y="-156.95" font-family="Times,serif" font-size="14" text-anchor="middle">:app:core:account-preferences-datastore</text>
        </g>
        <g stroke="#000" class="edge">
            <path fill="none" d="M3230.35 23.53C3543.3 25.63 4521.39 35.36 4835 76c174.6 22.63 386-87.06 386 89v74c0 52.31 48.38 94.49 84.95 118.9"/>
            <path d="m5307.64 354.83 6.51 8.37-10.3-2.48z"/>
        </g>
        <g class="node" transform="translate(4 544)">
            <ellipse cx="6441" cy="-234" fill="none" stroke="#000" rx="124.54" ry="18"/>
            <text x="6441" y="-228.95" font-family="Times,serif" font-size="14" text-anchor="middle">:app:core:diary-database-room</text>
        </g>
        <g stroke="#000" class="edge">
            <path fill="none" d="M3230.46 23.23C3731.16 24.61 5993.02 33.18 6051 76c67.72 50.01-5.09 125.41 59 180 9.01 7.68 139 26.64 234.35 39.67"/>
            <path d="m6344.57 292.16 9.44 4.82-10.38 2.12z"/>
        </g>
        <g class="node" transform="translate(4 544)">
            <ellipse cx="4495" cy="-162" fill="none" stroke="#000" rx="95.88" ry="18"/>
            <text x="4495" y="-156.95" font-family="Times,serif" font-size="14" text-anchor="middle">:app:core:diary-service</text>
        </g>
        <g stroke="#000" class="edge">
            <path fill="none" d="M3230.61 22.95C3542.39 24.06 4494 37.86 4494 165v74c0 39.28 1.93 84.64 3.4 113.32"/>
            <path d="m4500.88 351.84-2.97 10.17-4.02-9.8z"/>
        </g>
        <g class="node" transform="translate(4 544)">
            <ellipse cx="5996" cy="-90" fill="none" stroke="#000" rx="104.58" ry="18"/>
            <text x="5996" y="-84.95" font-family="Times,serif" font-size="14" text-anchor="middle">:app:core:holiday-service</text>
        </g>
        <g stroke="#000" class="edge">
            <path fill="none" d="M3230.79 22.6C3734.18 21.19 6010 22.67 6010 165v74c0 71.58 13.22 90.02 4 161-1.05 8.12-2.98 16.76-5.07 24.66"/>
            <path d="m6012.34 425.45-6.1 8.65-.63-10.57z"/>
        </g>
        <g class="node" transform="translate(4 544)">
            <ellipse cx="5676" cy="-162" fill="none" stroke="#000" rx="157.3" ry="18"/>
            <text x="5676" y="-156.95" font-family="Times,serif" font-size="14" text-anchor="middle">:app:core:holiday-preferences-datastore</text>
        </g>
        <g stroke="#000" class="edge">
            <path fill="none" d="M3230.43 23.47C3567.2 25.44 4680.9 34.96 5036 76c195.6 22.6 434-107.9 434 89v74c0 65.77 71.57 103.15 131.14 122.86"/>
            <path d="m5602.19 358.52 8.48 6.36-10.59.31z"/>
        </g>
        <g class="node" transform="translate(4 544)">
            <ellipse cx="6717" cy="-234" fill="none" stroke="#000" rx="133.24" ry="18"/>
            <text x="6717" y="-228.95" font-family="Times,serif" font-size="14" text-anchor="middle">:app:core:holiday-database-room</text>
        </g>
        <g stroke="#000" class="edge">
            <path fill="none" d="M3230.37 23.43C3724.6 25.78 5937.65 38.38 6078 76c31.9 8.55 34.81 22.62 65 36 179.21 79.42 401.07 146.88 510.48 178.23"/>
            <path d="m6654.24 286.81 8.66 6.11-10.58.62z"/>
        </g>
        <g class="node" transform="translate(4 544)">
            <ellipse cx="780" cy="-378" fill="none" stroke="#000" rx="81.55" ry="18"/>
            <text x="780" y="-372.95" font-family="Times,serif" font-size="14" text-anchor="middle">:app:feature:memo</text>
        </g>
        <g stroke="#000" class="edge">
            <path fill="none" d="M3035.27 22.64C2637.15 21.57 1149.01 21.28 946 76c-49.14 13.25-99.57 44.24-130.83 65.9"/>
            <path d="m817.53 144.52-10.19 2.91 6.16-8.63z"/>
        </g>
        <g class="node" transform="translate(4 544)">
            <ellipse cx="2039" cy="-378" fill="none" stroke="#000" rx="68.75" ry="18"/>
            <text x="2039" y="-372.95" font-family="Times,serif" font-size="14" text-anchor="middle">:app:feature:tag</text>
        </g>
        <g stroke="#000" class="edge">
            <path fill="none" d="M3035.11 22.02C2882.65 22.15 2579.8 29.08 2328 76c-85.75 15.98-181.92 49.41-237.75 70.44"/>
            <path d="m2091.64 149.66-10.59.28 8.1-6.83z"/>
        </g>
        <g class="node" transform="translate(4 544)">
            <ellipse cx="549" cy="-450" fill="none" stroke="#000" rx="88.71" ry="18"/>
            <text x="549" y="-444.95" font-family="Times,serif" font-size="14" text-anchor="middle">:app:feature:calendar</text>
        </g>
        <g stroke="#000" class="edge">
            <path fill="none" d="M3035.34 23.23C2636.5 24.47 1130.07 32.03 656 76c-9.21.85-18.84 2.04-28.36 3.4"/>
            <path d="m628.46 82.82-10.41-1.98 9.37-4.95z"/>
        </g>
        <g class="node" transform="translate(4 544)">
            <ellipse cx="1875" cy="-378" fill="none" stroke="#000" rx="76.94" ry="18"/>
            <text x="1875" y="-372.95" font-family="Times,serif" font-size="14" text-anchor="middle">:app:feature:more</text>
        </g>
        <g stroke="#000" class="edge">
            <path fill="none" d="M3037.11 25.68C2830.86 31.89 2350.77 48.83 2190 76c-93.57 15.82-199.12 49.53-260.06 70.62"/>
            <path d="m1931.11 149.92-10.59-.01 8.29-6.6z"/>
        </g>
        <g class="node" transform="translate(4 544)">
            <ellipse cx="1363" cy="-378" fill="none" stroke="#000" rx="86.15" ry="18"/>
            <text x="1363" y="-372.95" font-family="Times,serif" font-size="14" text-anchor="middle">:app:feature:account</text>
        </g>
        <g stroke="#000" class="edge">
            <path fill="none" d="M3036.07 24.23C2717.92 28.56 1717.8 44.54 1576 76c-62.16 13.79-129.04 45.58-169.97 67.19"/>
            <path d="m1407.76 146.23-10.47 1.64 7.17-7.81z"/>
        </g>
        <g class="node" transform="translate(4 544)">
            <ellipse cx="5053" cy="-162" fill="none" stroke="#000" rx="112.26" ry="18"/>
            <text x="5053" y="-156.95" font-family="Times,serif" font-size="14" text-anchor="middle">:library:firebase-messaging</text>
        </g>
        <g stroke="#000" class="edge">
            <path fill="none" d="M3229.78 24.55C3511.87 29.39 4330.14 45.7 4596 76c207.33 23.63 461-119.67 461 89v187.31"/>
            <path d="m5060.5 352-3.5 10-3.5-10z"/>
        </g>
        <g stroke="#000" class="edge">
            <path fill="none" d="m908.98 255.95 26.48 28.08"/>
            <path d="m937.82 281.43 4.31 9.68-9.4-4.88z"/>
        </g>
        <g stroke="#000" class="edge">
            <path fill="none" d="M1005.3 326.36c33.94 11.26 79.95 26.52 114.72 38.06"/>
            <path d="m1121.06 361.08 8.39 6.47-10.6.17z"/>
        </g>
        <g stroke="#000" class="edge">
            <path fill="none" d="M980.29 327.81c26.68 20.21 74.52 53.71 120.71 72.19 148.67 59.47 194.41 49.9 353 72 221.22 30.82 484.5 44.69 615.84 50.07"/>
            <path d="m2069.62 518.56 9.85 3.9-10.13 3.1z"/>
        </g>
        <g stroke="#000" class="edge">
            <path fill="none" d="M1704.87 256.17c-35.8 47.78-130.39 181.1-98.87 215.83 30.51 33.61 317.9 46.54 463.42 50.96"/>
            <path d="m2069.09 519.45 9.89 3.79-10.09 3.21z"/>
        </g>
        <g stroke="#000" class="edge">
            <path fill="none" d="M1532.61 256.45c-2.46 44.04-2.09 160.09 63.39 215.55 35.35 29.95 327.36 44.69 473.85 50.26"/>
            <path d="m2069.62 518.75 9.86 3.87-10.12 3.13z"/>
        </g>
        <g stroke="#000" class="edge">
            <path fill="none" d="M1125.25 256.41c8.69 24.19 24.51 68.23 34.82 96.94"/>
            <path d="m1163.26 351.87.08 10.59-6.67-8.22z"/>
        </g>
        <g stroke="#000" class="edge">
            <path fill="none" d="M3243.82 175.72C3309.96 188.68 3413.13 219.8 3465 292c28.12 39.15-8.84 63.63 10 108 8.25 19.43 21.12 17.34 31 36 10.03 18.93 16.13 42.41 19.67 60.49"/>
            <path d="m3529.11 495.81-1.69 10.46-5.2-9.22z"/>
        </g>
        <g stroke="#000" class="edge">
            <path fill="none" d="M3169.34 184.04c-17.69 23.03-48.06 66.05-63.34 107.96-16.62 45.59 12.94 69.05-16 108-44.82 60.32-80.25 53.14-153 72-130.37 33.8-525.98 46.99-700.16 51.25"/>
            <path d="m2237.04 526.75-10.08-3.26 9.91-3.74z"/>
        </g>
        <g stroke="#000" class="edge">
            <path fill="none" d="M3123.12 176.15c-81.96 12.53-229.24 35.04-319.86 48.89"/>
            <path d="m2803.86 228.49-10.41-1.95 9.36-4.97z"/>
        </g>
        <g class="node" transform="translate(4 544)">
            <ellipse cx="4165" cy="-162" fill="none" stroke="#000" rx="101.51" ry="18"/>
            <text x="4165" y="-156.95" font-family="Times,serif" font-size="14" text-anchor="middle">:app:core:diary-database</text>
        </g>
        <g stroke="#000" class="edge">
            <path fill="none" d="M3254 168.64c102.82 3.6 298.63 15.04 461 51.36 153.48 34.33 326.46 105.1 407.47 140.25"/>
            <path d="m4123.66 356.95 7.77 7.21-10.57-.79z"/>
        </g>
        <g stroke="#000" class="edge">
            <path fill="none" d="M3596.94 255.33c-29.85 30.57-85.26 97.59-50.94 144.67 30.8 42.25 81.2-6.25 112 36 9.43 12.93 8.89 22.7 0 36-12.69 18.99-33.58 31.18-54.83 39.01"/>
            <path d="m3604.43 514.28-10.6-.15 8.38-6.49z"/>
        </g>
        <g stroke="#000" class="edge">
            <path fill="none" d="M3589.95 254.85C3515.16 303.76 3286.69 450.35 3202 472c-92.35 23.61-733.66 44.01-965.56 50.69"/>
            <path d="m2236.66 526.19-10.1-3.21 9.9-3.79z"/>
        </g>
        <g stroke="#000" class="edge">
            <path fill="none" d="M3558.23 243.78c-142.14 12.2-518.32 44.47-682.15 58.52"/>
            <path d="m2876.43 305.78-10.26-2.63 9.66-4.34z"/>
        </g>
        <g stroke="#000" class="edge">
            <path fill="none" d="M3656.75 250.7c63.6 17.33 186.95 50.63 292.25 77.3 49.92 12.64 106.41 26.24 149.64 36.49"/>
            <path d="m4099.22 361.03 8.92 5.71-10.54 1.1z"/>
        </g>
        <g stroke="#000" class="edge">
            <path fill="none" d="M3660.54 398.84c13.46 8.96 28.03 21.51 35.46 37.16 6.86 14.45 9.44 23.08 0 36-18.59 25.46-49.56 38.97-79.73 46.05"/>
            <path d="m3617.19 521.43-10.5-1.37 9.06-5.48z"/>
        </g>
        <g stroke="#000" class="edge">
            <path fill="none" d="M3590.9 397.55c-59.21 20.75-173.92 58.11-274.9 74.45-105.51 17.08-830.61 42.12-1079.42 50.3"/>
            <path d="m2236.72 525.8-10.11-3.17 9.88-3.83z"/>
        </g>
        <g stroke="#000" class="edge">
            <path fill="none" d="m3559.93 388.76-700.25 56.73"/>
            <path d="m2860.03 448.97-10.25-2.68 9.69-4.29z"/>
        </g>
        <g class="node" transform="translate(4 544)">
            <ellipse cx="4284" cy="-90" fill="none" stroke="#000" rx="121.98" ry="18"/>
            <text x="4284" y="-84.95" font-family="Times,serif" font-size="14" text-anchor="middle">:app:core:account-preferences</text>
        </g>
        <g stroke="#000" class="edge">
            <path fill="none" d="M3699.14 390.26c114.07 12.15 344.53 36.71 480.87 51.23"/>
            <path d="m4180.2 437.99 9.57 4.54-10.31 2.42z"/>
        </g>
        <g stroke="#000" class="edge">
            <path fill="none" d="M3924.99 184.49c-1.11 54.8-12.97 223.31-114.99 287.51-32.39 20.38-127.91 35.49-198.41 44.25"/>
            <path d="m3612.35 519.68-10.35-2.26 9.5-4.69z"/>
        </g>
        <g stroke="#000" class="edge">
            <path fill="none" d="M3910.81 184.01C3867.91 235.27 3740.95 385.62 3716 400c-67.66 39.01-95.94 18.27-172 36-62.57 14.58-76.45 26.59-140 36-114.68 16.98-906.94 42.47-1167.87 50.49"/>
            <path d="m2236.46 525.98-10.1-3.19 9.89-3.81z"/>
        </g>
        <g stroke="#000" class="edge">
            <path fill="none" d="M3843.3 170.06c-204.24 7.73-753.46 28.87-1211.3 49.94-77.21 3.55-164.47 8.02-230.29 11.49"/>
            <path d="m2402.19 234.97-10.17-2.97 9.8-4.02z"/>
        </g>
        <g stroke="#000" class="edge">
            <path fill="none" d="M4006.84 170.21c107.7 5.39 290.25 18.86 349.16 49.79 59 30.97 105.16 96.87 127.77 134.04"/>
            <path d="m4486.64 352.02 2.09 10.38-8.11-6.81z"/>
        </g>
        <g stroke="#000" class="edge">
            <path fill="none" d="M3992.96 176.72C4103 194.01 4312.31 233.83 4356 292c31.95 42.54-11.76 102.33-42.48 135.79"/>
            <path d="m4316.11 430.14-9.41 4.85 4.33-9.66z"/>
        </g>
        <g stroke="#000" class="edge">
            <path fill="none" d="M5916.27 399.84c-19.66 23.58-55.42 64.45-73.27 72.16-97.84 42.26-1811.48 32.71-1918 36-105.82 3.27-227.52 8.77-307.55 12.63"/>
            <path d="m3618.11 524.1-10.16-3.01 9.82-3.98z"/>
        </g>
        <g stroke="#000" class="edge">
            <path fill="none" d="M5899.62 398.72c-17.38 9.65-39.13 22.9-56.62 37.28-16.77 13.78-13.18 27.14-33 36-77.12 34.47-2956.54 34.33-3041 36-190.47 3.76-414.01 10.51-532.46 14.28"/>
            <path d="m2236.69 525.77-10.11-3.18 9.88-3.81z"/>
        </g>
        <g stroke="#000" class="edge">
            <path fill="none" d="M5877.36 395.23c-10.34 1.96-21.15 3.69-31.36 4.77-351.06 37.18-2824.09 27.17-3177 36-118.15 2.96-254.12 8.56-343.04 12.53"/>
            <path d="m2326.21 452.02-10.15-3.05 9.83-3.94z"/>
        </g>
        <g stroke="#000" class="edge">
            <path fill="none" d="m5946.95 399.95 28.37 28.37"/>
            <path d="m5977.54 425.59 4.6 9.55-9.55-4.6z"/>
        </g>
        <g class="node" transform="translate(4 544)">
            <ellipse cx="5676" cy="-90" fill="none" stroke="#000" rx="120.96" ry="18"/>
            <text x="5676" y="-84.95" font-family="Times,serif" font-size="14" text-anchor="middle">:app:core:holiday-preferences</text>
        </g>
        <g stroke="#000" class="edge">
            <path fill="none" d="M5882.39 396.33c-38.71 10.84-93.74 26.25-136.65 38.26"/>
            <path d="m5746.86 437.91-10.57-.67 8.69-6.07z"/>
        </g>
        <g class="node" transform="translate(4 544)">
            <ellipse cx="6687" cy="-90" fill="none" stroke="#000" rx="110.21" ry="18"/>
            <text x="6687" y="-84.95" font-family="Times,serif" font-size="14" text-anchor="middle">:app:core:holiday-database</text>
        </g>
        <g stroke="#000" class="edge">
            <path fill="none" d="M5992.29 392.36c19.13 2.69 40.26 5.48 59.71 7.64 184.32 20.47 399.36 36.74 527.07 45.61"/>
            <path d="m6579.15 442.11 9.73 4.18-10.21 2.8z"/>
        </g>
        <g stroke="#000" class="edge">
            <path fill="none" d="M4612 327.91c28.51 32.16 81.58 102.6 42 144.09-4.46 4.68-771.28 37.91-1035.64 49.23"/>
            <path d="m3618.56 524.73-10.14-3.07 9.84-3.93z"/>
        </g>
        <g stroke="#000" class="edge">
            <path fill="none" d="M4606.6 328.12c18.83 32.82 52.72 104.8 14.4 143.88-36.03 36.74-1800.56 34.79-1852 36-190.46 4.48-414 10.95-532.45 14.48"/>
            <path d="m2236.68 525.98-10.1-3.2 9.89-3.8z"/>
        </g>
        <g stroke="#000" class="edge">
            <path fill="none" d="M4526.46 316.51c-47.89 3.66-113.01 8.34-170.46 11.49-474.36 26.02-1042.34 43.83-1265.38 50.3"/>
            <path d="m3090.91 381.79-10.09-3.21 9.89-3.79z"/>
        </g>
        <g stroke="#000" class="edge">
            <path fill="none" d="M4573.01 327.59c-12.47 9-28.09 20.27-41.76 30.14"/>
            <path d="m4533.54 360.39-10.15 3.01 6.06-8.69z"/>
        </g>
        <g stroke="#000" class="edge">
            <path fill="none" d="M4536.18 320.81c-73.84 12.1-199.86 32.76-283.32 46.44"/>
            <path d="m4253.55 370.69-10.43-1.84 9.3-5.07z"/>
        </g>
        <g class="node" transform="translate(4 544)">
            <ellipse cx="6166" cy="-162" fill="none" stroke="#000" rx="109.19" ry="18"/>
            <text x="6166" y="-156.95" font-family="Times,serif" font-size="14" text-anchor="middle">:app:core:backup-database</text>
        </g>
        <g stroke="#000" class="edge">
            <path fill="none" d="M4661.94 318.43c33.01 3.45 73.6 7.28 110.06 9.57 551.15 34.57 691.07-1.94 1242 36 19.2 1.32 39.68 3.21 59.27 5.25"/>
            <path d="m6073.61 365.76 9.58 4.54-10.32 2.43z"/>
        </g>
        <g stroke="#000" class="edge">
            <path fill="none" d="M4023.43 256.43C4010.6 301.46 3969.6 421.66 3886 472c-44.02 26.51-178.41 40.83-268.89 47.68"/>
            <path d="m3617.49 523.17-10.23-2.76 9.72-4.23z"/>
        </g>
        <g stroke="#000" class="edge">
            <path fill="none" d="M4005.37 255.32C3938.83 302.06 3736.39 435.41 3544 472c-64.35 12.24-1017.79 41.77-1307.88 50.52"/>
            <path d="m2236.46 526.01-10.1-3.2 9.89-3.8z"/>
        </g>
        <g stroke="#000" class="edge">
            <path fill="none" d="M3965.92 244.2c-147.88 12.4-521.11 43.69-688.91 57.76"/>
            <path d="m3277.53 305.43-10.25-2.66 9.67-4.32z"/>
        </g>
        <g stroke="#000" class="edge">
            <path fill="none" d="M4092.49 241.91c67.57 4.75 175.87 17.26 263.51 50.09 42.13 15.78 85.27 44.74 112.99 65.34"/>
            <path d="m4471.05 354.51 5.87 8.82-10.09-3.24z"/>
        </g>
        <g stroke="#000" class="edge">
            <path fill="none" d="M4044.73 255.85c24.7 24.87 71.07 71.58 99.66 100.36"/>
            <path d="m4146.66 353.54 4.57 9.56-9.53-4.63z"/>
        </g>
        <g stroke="#000" class="edge">
            <path fill="none" d="M4298.75 327.84c14.02 19.33 31.45 51.07 14.25 72.16-6.29 7.71-341.18 70.39-351 72-120.97 19.79-262.09 35.78-349.25 44.84"/>
            <path d="m3613.15 520.32-10.3-2.46 9.58-4.5z"/>
        </g>
        <g stroke="#000" class="edge">
            <path fill="none" d="M4289.89 328.27c4.51 20.03 8.09 52.73-9.89 71.73-49.49 52.3-250.66 26.28-322 36-99.91 13.61-123.64 26.29-224 36-74.93 7.25-1181.57 40.97-1497.42 50.49"/>
            <path d="m2236.85 525.98-10.1-3.19 9.89-3.8z"/>
        </g>
        <g stroke="#000" class="edge">
            <path fill="none" d="M4223.49 313.19 2405.3 377.96"/>
            <path d="m2405.49 381.46-10.11-3.15 9.87-3.85z"/>
        </g>
        <g stroke="#000" class="edge">
            <path fill="none" d="M4325.25 324.17c32.95 10.77 79.96 26.15 116.77 38.19"/>
            <path d="m4442.75 358.92 8.42 6.43-10.6.22z"/>
        </g>
        <g stroke="#000" class="edge">
            <path fill="none" d="M4344.21 315.72c109.43 8.81 350.71 28.65 553.79 48.28 18.51 1.79 38.22 3.81 57.23 5.81"/>
            <path d="m4955.56 366.32 9.58 4.54-10.32 2.43z"/>
        </g>
        <g stroke="#000" class="edge">
            <path fill="none" d="M3398.4 112.27c28.58 48.69 107.53 192.11 128.6 323.73 3.2 20 3.91 42.83 3.84 60.36"/>
            <path d="m3534.34 496.35-3.63 9.95-3.37-10.04z"/>
        </g>
        <g stroke="#000" class="edge">
            <path fill="none" d="M3381.91 112.21C3367.44 151.99 3328.55 252.67 3280 328c-22.88 35.5-86.09 125.39-124 144-40.98 20.12-686.39 42.8-919.68 50.38"/>
            <path d="m2236.48 525.87-10.11-3.17 9.88-3.82z"/>
        </g>
        <g stroke="red" stroke-width="2" class="edge">
            <path fill="none" d="M3322.25 104.22c-89.73 12.59-250.63 35.16-349.08 48.97"/>
            <path fill="red" d="m2975.17 156.45-10.39-2.08 9.42-4.86z"/>
        </g>
        <g class="node" transform="translate(4 544)">
            <ellipse cx="4785" cy="-162" fill="none" stroke="#000" rx="100.48" ry="18"/>
            <text x="4785" y="-156.95" font-family="Times,serif" font-size="14" text-anchor="middle">:app:core:filter-database</text>
        </g>
        <g stroke="#000" class="edge">
            <path fill="none" d="M3442.8 107.29c83.61 18.45 248.19 53.62 389.2 76.71 374.5 61.33 497.99-41.02 847 108 34.15 14.58 66.33 42.98 86.95 63.79"/>
            <path d="m4768.31 353.19 4.43 9.62-9.46-4.76z"/>
        </g>
        <g stroke="#000" class="edge">
            <path fill="none" d="M2643.03 242.42c-140.4 8.09-434.08 34.82-665.03 121.58-107.37 40.33-226.12 106.11-284.12 139.74"/>
            <path d="m1695.81 506.66-10.4 2.02 6.87-8.06z"/>
        </g>
        <g stroke="#000" class="edge">
            <path fill="none" d="M2718.09 256.09c-6.48 18.99-13.36 49.87-.09 71.91 35.28 58.59 72.81 45.83 136 72 100.53 41.64 127.55 49.43 234 72 122.05 25.88 265.92 40.19 355.57 47.24"/>
            <path d="m3443.83 515.75 9.7 4.26-10.24 2.72z"/>
        </g>
        <g stroke="#000" class="edge">
            <path fill="none" d="M2660.42 249.92C2476.03 281.74 1957.29 375.91 1910 436c-46.65 59.27 72.4 79.08 159.88 85.69"/>
            <path d="m2069.95 518.19 9.72 4.19-10.22 2.79z"/>
        </g>
        <g stroke="red" stroke-width="2" class="edge">
            <path fill="none" d="M2742.67 255.95c8.88 8.51 19.8 18.98 29.59 28.37"/>
            <path fill="red" d="m2773.51 280.67 4.8 9.45-9.64-4.4z"/>
        </g>
        <g stroke="#000" class="edge">
            <path fill="none" d="M2707.68 255.93c-8.61 9.66-18.14 22.52-22.68 36.07-5.08 15.17-4.58 20.67 0 36 11.41 38.2 38.65 75.56 58.62 99.34"/>
            <path d="m2746.27 425.05 3.87 9.86-9.18-5.29z"/>
        </g>
        <g stroke="#000" class="edge">
            <path fill="none" d="M2792.26 249.04c37.03 7.7 82.65 20.89 118.74 42.96 26.33 16.11 49.64 42.81 64.8 62.78"/>
            <path d="m2978.56 352.62 3.11 10.12-8.75-5.97z"/>
        </g>
        <g class="node" transform="translate(4 544)">
            <ellipse cx="4001" cy="-18" fill="none" stroke="#000" rx="71.31" ry="18"/>
            <text x="4001" y="-12.95" font-family="Times,serif" font-size="14" text-anchor="middle">:app:core:model</text>
        </g>
        <g stroke="#000" class="edge">
            <path fill="none" d="M2806.42 242.92C3029.57 254.49 3646.93 292.25 3836 364c53.25 20.21 65.34 32.12 106 72 18.93 18.57 36 43.46 47.59 62.2"/>
            <path d="m3992.49 496.23 2.16 10.37-8.16-6.76z"/>
        </g>
        <g class="node" transform="translate(4 544)">
            <ellipse cx="2859" cy="-18" fill="none" stroke="#000" rx="85.13" ry="18"/>
            <text x="2859" y="-12.95" font-family="Times,serif" font-size="14" text-anchor="middle">:common:exception</text>
        </g>
        <g stroke="#000" class="edge">
            <path fill="none" d="M2704.11 255.88c-10.1 9.45-21.27 22.15-27.11 36.12-30.87 73.89-56.59 116.35-8 180 14.22 18.63 66.87 32.29 113.74 41.08"/>
            <path d="m2783.17 509.6 9.21 5.23-10.46 1.66z"/>
        </g>
        <g stroke="#000" class="edge">
            <path fill="none" d="M2730.02 315.81c-128.16 9.33-400.99 30.53-494.02 48.19-169.98 32.26-207.15 62.24-374 108-49.51 13.58-106.03 28.19-147 38.63"/>
            <path d="m1715.89 514.01-10.55-.92 8.83-5.86z"/>
        </g>
        <g stroke="#000" class="edge">
            <path fill="none" d="M2816.53 327.6c28.58 25.59 80.26 71.81 81.47 72.4 77.12 37.94 105.94 18.09 190 36 67.9 14.47 84.05 21.75 152 36 73.41 15.39 157.81 30.53 216.56 40.66"/>
            <path d="m3456.84 509.16 9.26 5.14-10.45 1.76z"/>
        </g>
        <g stroke="#000" class="edge">
            <path fill="none" d="M2749.15 323.53c-74.18 18.68-219.86 54.04-345.15 76.47-59.8 10.7-230.97-9.7-271 36-14.79 16.89-7.07 42.36 2.77 61.73"/>
            <path d="m2138.81 496.01 1.78 10.44-7.9-7.06z"/>
        </g>
        <g stroke="#000" class="edge">
            <path fill="none" d="M2777.71 327.37c-10.1 9.49-21.3 22.37-26.71 36.63-7.48 19.72-2.71 43.25 3.52 61.17"/>
            <path d="m2757.74 423.77.32 10.59-6.86-8.08z"/>
        </g>
        <g stroke="red" stroke-width="2" class="edge">
            <path fill="none" d="M2838.14 325.33c29.78 10.64 70.67 25.25 103.1 36.83"/>
            <path fill="red" d="m2940.79 358.28 8.24 6.66-10.59-.07z"/>
        </g>
        <g stroke="#000" class="edge">
            <path fill="none" d="M2866.94 314.88c212.58 11.96 843.97 47.6 849.06 49.12 23.09 6.88 166.89 96.4 188 108 19.68 10.81 41.74 22.44 60.21 32.04"/>
            <path d="m3965.73 500.89 7.27 7.71-10.49-1.49z"/>
        </g>
        <g stroke="#000" class="edge">
            <path fill="none" d="M2810.73 328.07c16.32 23.07 43.78 66.14 54.27 107.93 4.95 19.73 4.29 42.7 2.47 60.36"/>
            <path d="m2870.96 496.64-4.7 9.49-2.25-10.35z"/>
        </g>
        <g stroke="#000" class="edge">
            <path fill="none" d="M2683.19 460.29c-210.27 13.27-757.34 47.8-953.71 60.2"/>
            <path d="m1729.88 523.97-10.2-2.86 9.76-4.13z"/>
        </g>
        <g stroke="#000" class="edge">
            <path fill="none" d="m2846.5 462.29 599.95 55.05"/>
            <path d="m3446.56 513.83 9.63 4.4-10.27 2.57z"/>
        </g>
        <g stroke="#000" class="edge">
            <path fill="none" d="M2691.1 463.65c-117.84 13.44-343.5 39.16-461.67 52.64"/>
            <path d="m2229.83 519.76-10.33-2.34 9.54-4.61z"/>
        </g>
        <g stroke="red" stroke-width="2" class="edge">
            <path fill="none" d="M2851.61 459.78c227.63 12.88 850.92 48.12 1073.27 60.69"/>
            <path fill="red" d="m3923.3 516.87 9.79 4.06-10.18 2.93z"/>
        </g>
        <g stroke="#000" class="edge">
            <path fill="none" d="M2789.75 471.59c12.34 9 27.8 20.27 41.33 30.14"/>
            <path d="m2832.84 498.68 6.02 8.72-10.15-3.07z"/>
        </g>
        <g stroke="#000" class="edge">
            <path fill="none" d="M2206.6 243.48c-116.98 6.68-311.25 21.49-377.6 48.52-96.49 39.31-139.24 50.39-185 144-9.33 19.08-4.82 42.97 1.47 61.19"/>
            <path d="m1648.65 495.7.32 10.59-6.85-8.08z"/>
        </g>
        <g stroke="#000" class="edge">
            <path fill="none" d="M2275.65 255.82c-40.01 30.81-113.61 97.42-72.65 144.18 40.03 45.7 214.76 13.03 271 36 24.69 10.08 22.93 26.91 48 36 42.8 15.53 680.55 40.78 918.96 49.73"/>
            <path d="m3440.98 518.23 9.86 3.87-10.12 3.12z"/>
        </g>
        <g stroke="#000" class="edge">
            <path fill="none" d="M2215.6 247.36c-120.27 12.33-329.63 35-343.6 44.64-59.55 41.12-58.6 73.76-76 144-3.85 15.53-10.45 23.88 0 36 34.51 40.01 178.48 50.31 272.72 52.67"/>
            <path d="m2068.52 521.17 9.92 3.72-10.08 3.28z"/>
        </g>
        <g stroke="#000" class="edge">
            <path fill="none" d="M2390.86 243.77c152.3 8.46 444.63 27.17 487.14 48.23 19.45 9.64 16.38 22.04 33 36 13.51 11.35 29.61 22.16 44.03 31.02"/>
            <path d="m2956.62 355.89 6.76 8.16-10.37-2.16z"/>
        </g>
        <g stroke="#000" class="edge">
            <path fill="none" d="M2386.35 245.84c171.9 13.46 552.14 43.23 721.91 56.52"/>
            <path d="m3108.42 298.87 9.7 4.27-10.25 2.71z"/>
        </g>
        <g stroke="#000" class="edge">
            <path fill="none" d="M2301.58 256.41c3.54 23.98 9.97 67.45 14.22 96.17"/>
            <path d="m2319.25 351.99-2 10.4-4.93-9.38z"/>
        </g>
        <g stroke="#000" class="edge">
            <path fill="none" d="M2287.92 256.33c-22.87 36.82-71.58 121.28-51.92 143.67 40.81 46.48 216.85 17.92 276 36 34.21 10.46 37.33 27.18 72 36 222.81 56.71 804.26 26.95 1034 36 105.84 4.17 227.94 9.64 306.22 13.24"/>
            <path d="m3924.11 517.73 9.83 3.95-10.15 3.04z"/>
        </g>
        <g stroke="#000" class="edge">
            <path fill="none" d="M2220.36 248.73c-52.58 8.3-115.01 22.28-131.36 43.27-33.28 42.72-62.7 98.98 30 180 47.69 41.68 456.96 50.61 647.34 52.5"/>
            <path d="m2766.25 521 9.97 3.59-10.04 3.41z"/>
        </g>
        <g stroke="#000" class="edge">
            <path fill="none" d="M2156.1 464.04c-111.75 13.68-322.13 39.42-430.21 52.65"/>
            <path d="m1726.34 520.16-10.35-2.26 9.5-4.69z"/>
        </g>
        <g stroke="#000" class="edge">
            <path fill="none" d="M2293.5 466.8c12.71 2.02 26 3.89 38.5 5.2 214.79 22.57 868.32 43.37 1108.35 50.44"/>
            <path d="m3440.4 518.94 9.89 3.79-10.1 3.21z"/>
        </g>
        <g stroke="#000" class="edge">
            <path fill="none" d="M2211.36 471.95c-9.46 8.59-21.12 19.19-31.52 28.65"/>
            <path d="m2182.34 503.06-9.75 4.13 5.04-9.31z"/>
        </g>
        <g stroke="#000" class="edge">
            <path fill="none" d="M2312.73 460.38c58.44 3.66 138.63 8.4 209.27 11.62 486.87 22.17 608.98 17.31 1096 36 105.85 4.06 227.94 9.56 306.22 13.19"/>
            <path d="m3924.11 517.68 9.83 3.96-10.15 3.03z"/>
        </g>
        <g stroke="#000" class="edge">
            <path fill="none" d="M2294.93 466.48c12.29 1.98 25.06 3.92 37.07 5.52 154.62 20.58 335.54 37.01 441.28 45.85"/>
            <path d="m2773.35 514.35 9.68 4.31-10.26 2.66z"/>
        </g>
        <g stroke="#000" class="edge">
            <path fill="none" d="M2959 398.87c-18.97 9.43-42.3 22.41-61 37.13-17.06 13.42-13.33 26.83-33 36-6.47 3.02-875.29 39.25-1134.69 50.01"/>
            <path d="m1730.8 525.49-10.14-3.08 9.85-3.91z"/>
        </g>
        <g stroke="#000" class="edge">
            <path fill="none" d="M3056.27 394.88c49.94 9.9 121.69 24.95 183.73 41.12 83.3 21.71 178.46 51.99 236.37 71.03"/>
            <path d="m3477.26 503.64 8.4 6.46-10.6.19z"/>
        </g>
        <g stroke="#000" class="edge">
            <path fill="none" d="M2981.64 400.07c-16.41 21.14-47.57 56.28-83.64 71.93-59.43 25.78-480.06 43.61-661.75 50.19"/>
            <path d="m2236.53 525.68-10.12-3.14 9.87-3.85z"/>
        </g>
        <g stroke="red" stroke-width="2" class="edge">
            <path fill="none" d="M2946.97 397.5c-35.34 10.9-83.96 25.89-121.75 37.55"/>
            <path fill="red" d="m2827.84 437.9-10.58-.4 8.52-6.29z"/>
        </g>
        <g stroke="#000" class="edge">
            <path fill="none" d="M3064.29 392.87c184.55 25.92 681.49 95.72 868.35 121.97"/>
            <path d="m3933.05 511.36 9.42 4.86-10.39 2.07z"/>
        </g>
        <g stroke="#000" class="edge">
            <path fill="none" d="M2994.41 400.29c-.43 19.46-3.92 51.03-20.41 71.71-12.47 15.63-30.66 26.92-48.73 34.95"/>
            <path d="m2926.68 510.16-10.58.57 7.91-7.05z"/>
        </g>
        <g stroke="#000" class="edge">
            <path fill="none" d="M3177.31 327.81c-19.05 19.59-52.93 51.86-87.31 72.19-79.17 46.81-103.85 53.81-194 72-7.19 1.45-900.96 38.91-1165.22 49.96"/>
            <path d="m1731.07 525.45-10.14-3.08 9.84-3.91z"/>
        </g>
        <g stroke="#000" class="edge">
            <path fill="none" d="M3218.88 327.44c59.94 38.06 208.31 132.27 276.2 175.38"/>
            <path d="m3496.65 499.67 6.56 8.32-10.32-2.41z"/>
        </g>
        <g stroke="#000" class="edge">
            <path fill="none" d="M3191.8 328.24c-3.42 34.39-16.5 111.01-65.8 143.76-36.77 24.42-660.4 44.25-889.48 50.74"/>
            <path d="m2236.87 526.24-10.09-3.22 9.89-3.78z"/>
        </g>
        <g stroke="#000" class="edge">
            <path fill="none" d="M3118.17 315.78c-61.11 5.92-148.74 19.09-220.17 48.22-38.77 15.81-77.78 44.31-103.01 64.8"/>
            <path d="m2797.44 431.31-9.94 3.68 5.48-9.07z"/>
        </g>
        <g stroke="#000" class="edge">
            <path fill="none" d="M3151.28 325.67c-30.2 10.63-71.28 25.08-103.89 36.55"/>
            <path d="m3048.71 365.46-10.59.02 8.27-6.62z"/>
        </g>
        <g stroke="#000" class="edge">
            <path fill="none" d="M3265.85 316.98c155.97 12.89 509.09 42.45 521.15 47.02 80.16 30.41 156.66 99.1 194.09 136.17"/>
            <path d="m3983.25 497.38 4.58 9.55-9.54-4.61z"/>
        </g>
        <g stroke="#000" class="edge">
            <path fill="none" d="M3195.44 328.14c1.35 10.36 2.88 23.84 3.56 35.86 2.84 50.38 5.28 77.61-35 108-32.5 24.52-134.19 38.69-210.44 46.1"/>
            <path d="m2954.29 521.55-10.28-2.54 9.62-4.43z"/>
        </g>
        <g stroke="#000" class="edge">
            <path fill="none" d="M2257.71 392.36c-62.21 9.67-160.44 25.83-244.71 43.64-107.03 22.62-230.66 55.07-300.16 73.9"/>
            <path d="m1713.78 513.27-10.57-.76 8.74-6z"/>
        </g>
        <g stroke="#000" class="edge">
            <path fill="none" d="M2368.18 396.11c38.86 10.62 94.91 26.04 143.82 39.89 55.22 15.64 67.45 26.24 124 36 152.76 26.36 609.95 43.81 804.63 50.24"/>
            <path d="m3440.56 518.73 9.88 3.83-10.11 3.17z"/>
        </g>
        <g stroke="#000" class="edge">
            <path fill="none" d="M2257.1 392.17c-84.66 12.65-225.62 34.9-233.1 43.83-10.27 12.27-8.91 22.71 0 36 13.32 19.88 35.58 32.31 57.9 40.07"/>
            <path d="m2082.89 508.72 8.48 6.35-10.59.32z"/>
        </g>
        <g stroke="#000" class="edge">
            <path fill="none" d="M2382.18 392.37c68.92 10.44 183.36 27.92 281.82 43.63 8 1.28 16.34 2.62 24.67 3.98"/>
            <path d="m2689.18 436.52 9.3 5.07-10.43 1.84z"/>
        </g>
        <g stroke="#000" class="edge">
            <path fill="none" d="M2384.36 391.6c54.93 8.32 135.59 22.85 203.64 44.4 37.56 11.9 42.62 27.09 81 36 205.58 47.72 738.14 27.37 949 36 105.68 4.33 227.56 9.75 305.86 13.29"/>
            <path d="m3923.75 517.79 9.83 3.94-10.15 3.05z"/>
        </g>
        <g stroke="#000" class="edge">
            <path fill="none" d="M2255.55 391.43c-69.18 11.54-163.93 36.08-122.55 80.57 42.24 45.42 444.74 52.39 633.35 53.14"/>
            <path d="m2766.14 521.64 9.99 3.53-10.02 3.47z"/>
        </g>
        <g stroke="#000" class="edge">
            <path fill="none" d="M2807.47 174.4c-76.08 7.89-192.43 22.47-291.47 45.6-12.47 2.91-206.86 67.91-219 72-92.69 31.28-115.95 38.88-208 72-73.82 26.56-288.11 107.15-383.84 143.22"/>
            <path d="m1706.64 510.4-10.59.25 8.13-6.8z"/>
        </g>
        <g stroke="#000" class="edge">
            <path fill="none" d="M2959.08 177.88C3043.71 193.33 3188.1 227.23 3296 292c94.04 56.45 178.21 158.66 214.74 206.71"/>
            <path d="m3513.48 496.52 3.21 10.1-8.8-5.89z"/>
        </g>
        <g stroke="#000" class="edge">
            <path fill="none" d="M2821.32 178.43c-52.16 9.41-125.87 24.04-189.32 41.57-35.11 9.7-597.91 186.3-619 216-9.26 13.04-9.09 22.83 0 36 14.99 21.7 40.09 34.53 64.94 42.1"/>
            <path d="m2078.75 510.69 8.71 6.04-10.57.71z"/>
        </g>
        <g stroke="red" stroke-width="2" class="edge">
            <path fill="none" d="M2851.79 182.88c-23.65 10.1-54.47 23.25-79.8 34.07"/>
            <path fill="red" d="m2774.86 219.52-10.57.71 7.82-7.14z"/>
        </g>
        <g stroke="#000" class="edge">
            <path fill="none" d="M2883.78 184.38c-6.09 18.69-17.35 48.79-32.78 71.62-6.96 10.29-16.1 20.28-24.83 28.76"/>
            <path d="m2828.82 287.08-9.7 4.27 4.92-9.38z"/>
        </g>
        <g stroke="#000" class="edge">
            <path fill="none" d="M2892.25 184.26c4.91 30.94 11.17 96.97-14.25 143.74-12.73 23.43-29.41 16.89-48 36-18.38 18.89-35.4 43.56-47.1 62.13"/>
            <path d="m2785.99 427.78-8.23 6.68 2.27-10.35z"/>
        </g>
        <g stroke="#000" class="edge">
            <path fill="none" d="M2971.8 173.91c39.68 3.23 87.89 7.02 131.2 10.09 128.59 9.1 462.67-19.55 579 36 19.59 9.35 16.4 22.02 33 36 106.37 89.61 174.62 67.2 256 180 13.16 18.24 21.93 42.22 27.27 60.69"/>
            <path d="m4001.6 495.62-.77 10.57-5.99-8.75z"/>
        </g>
        <g stroke="#000" class="edge">
            <path fill="none" d="M2909.83 183.88c26.62 20.61 74.93 54.85 122.17 72.12 107.8 39.4 278.81-38.56 248 72-20.07 72.03-25 102.2-87 144-37.95 25.59-154.43 39.77-238.25 46.88"/>
            <path d="m2955.17 522.36-10.26-2.67 9.68-4.31z"/>
        </g>
        <g stroke="#000" class="edge">
            <path fill="none" d="M4908.87 328.43c3.26 19.57 5.17 51.26-10.87 71.57-64.55 81.73-120.52 53.43-223 72-25.91 4.7-792.17 37.88-1056.43 49.21"/>
            <path d="m3618.77 524.71-10.14-3.07 9.84-3.93z"/>
        </g>
        <g stroke="#000" class="edge">
            <path fill="none" d="M4876.92 327.95c-15.21 9.18-34.21 20.64-50.65 30.56"/>
            <path d="m4828.09 361.5-10.37 2.17 6.75-8.16z"/>
        </g>
        <g class="node" transform="translate(4 544)">
            <ellipse cx="6551" cy="-162" fill="none" stroke="#000" rx="80.01" ry="18"/>
            <text x="6551" y="-156.95" font-family="Times,serif" font-size="14" text-anchor="middle">:library:koin-room</text>
        </g>
        <g stroke="#000" class="edge">
            <path fill="none" d="M5028.63 311.19c259.66 1.31 880.66 9.17 1399.37 52.81 16.48 1.39 34.1 3.4 50.8 5.56"/>
            <path d="m6479.25 366.09 9.45 4.79-10.37 2.15z"/>
        </g>
        <g class="node" transform="translate(4 544)">
            <ellipse cx="6354" cy="-162" fill="none" stroke="#000" rx="60.56" ry="18"/>
            <text x="6354" y="-156.95" font-family="Times,serif" font-size="14" text-anchor="middle">:library:room</text>
        </g>
        <g stroke="#000" class="edge">
            <path fill="none" d="M5027.77 312.56C5319.25 316.77 6046.59 330.41 6288 364c5.01.7 10.19 1.6 15.35 2.62"/>
            <path d="m6304.05 363.19 9.04 5.52-10.51 1.33z"/>
        </g>
        <g stroke="#000" class="edge">
            <path fill="none" d="M6259.1 323.68c70.19 10.91 157.99 26.94 168.9 40.32 10.11 12.4 9.54 23.16 0 36-134.17 180.54 530.92 18.61-2503 108-105.83 3.12-227.53 8.65-307.55 12.56"/>
            <path d="m3618.11 524.03-10.16-3.01 9.82-3.98z"/>
        </g>
        <g stroke="#000" class="edge">
            <path fill="none" d="M6170 328.3v24.16"/>
            <path d="m6173.5 352.38-3.5 10-3.5-10z"/>
        </g>
        <g stroke="#000" class="edge">
            <path fill="none" d="M6246.99 325c68.76 12.5 168.74 30.68 235.96 42.9"/>
            <path d="m6483.57 364.45 9.21 5.24-10.46 1.65z"/>
        </g>
        <g stroke="#000" class="edge">
            <path fill="none" d="M6214.08 327.41c29 10.8 66.92 24.92 96.56 35.96"/>
            <path d="m6311.59 359.98 8.15 6.77-10.6-.21z"/>
        </g>
        <g stroke="#000" class="edge">
            <path fill="none" d="M5234.47 395.09c-18.84 1.81-38.2 3.53-56.47 4.91-319.93 24.16-401.06 11.94-721 36-20.1 1.51-41.51 3.43-62.1 5.42"/>
            <path d="m4395.36 444.9-10.3-2.51 9.61-4.46z"/>
        </g>
        <g class="node" transform="translate(4 544)">
            <ellipse cx="5358" cy="-90" fill="none" stroke="#000" rx="93.32" ry="18"/>
            <text x="5358" y="-84.95" font-family="Times,serif" font-size="14" text-anchor="middle">:library:koin-datastore</text>
        </g>
        <g stroke="#000" class="edge">
            <path fill="none" d="M5349.96 400.3c1.68 7.38 3.69 16.18 5.58 24.45"/>
            <path d="m5358.94 423.89-1.19 10.53-5.64-8.97z"/>
        </g>
        <g stroke="#000" class="edge">
            <path fill="none" d="M6542.34 321.55c65.35 11.27 134.07 33.93 101.66 78.45-15.32 21.05-197.31 67.77-223 72-273.67 45.11-2218.75 28.04-2496 36-105.83 3.04-227.53 8.59-307.55 12.52"/>
            <path d="m3618.11 523.99-10.16-3 9.82-3.99z"/>
        </g>
        <g stroke="#000" class="edge">
            <path fill="none" d="M6358.64 323.34c-15.82 1.87-32.2 3.54-47.64 4.66-849.91 61.71-1065.79-4.12-1917 36-40.78 1.92-85.64 5.1-124.51 8.18"/>
            <path d="m4269.92 375.66-10.24-2.69 9.68-4.29z"/>
        </g>
        <g stroke="#000" class="edge">
            <path fill="none" d="M6471.63 327.95c14.53 9.24 32.7 20.81 48.37 30.78"/>
            <path d="m6521.54 355.56 6.56 8.32-10.32-2.42z"/>
        </g>
        <g stroke="#000" class="edge">
            <path fill="none" d="M6423.94 327.95c-11.06 8.89-24.79 19.94-36.85 29.64"/>
            <path d="m6389.43 360.2-9.98 3.54 5.59-8.99z"/>
        </g>
        <g stroke="#000" class="edge">
            <path fill="none" d="M4453.22 398.19c-31.28 10.38-73.01 24.22-106.7 35.39"/>
            <path d="m4347.92 436.81-10.59-.17 8.39-6.48z"/>
        </g>
        <g stroke="#000" class="edge">
            <path fill="none" d="M4563.35 395.74c22.09 7.79 44.54 20.27 57.65 40.26 8.77 13.38 10.82 24.21 0 36-35.37 38.54-374.09 49.12-533.64 51.97"/>
            <path d="m4087.76 527.46-10.05-3.32 9.93-3.67z"/>
        </g>
        <g stroke="#000" class="edge">
            <path fill="none" d="M4484.96 400.01c-20.57 24.7-57.39 67.99-65.96 71.99-16.63 7.75-1125.33 40.51-1460.85 50.25"/>
            <path d="m2958.63 525.74-10.09-3.21 9.89-3.79z"/>
        </g>
        <g class="node" transform="translate(4 544)">
            <ellipse cx="4535" cy="-90" fill="none" stroke="#000" rx="72.85" ry="18"/>
            <text x="4535" y="-84.95" font-family="Times,serif" font-size="14" text-anchor="middle">:common:model</text>
        </g>
        <g stroke="#000" class="edge">
            <path fill="none" d="M4508.89 400.3c4.45 7.8 9.82 17.19 14.78 25.87"/>
            <path d="m4526.55 424.16 1.93 10.42-8.01-6.94z"/>
        </g>
        <g stroke="#000" class="edge">
            <path fill="none" d="M5925.56 466.96c-14.73 1.99-30.11 3.81-44.56 5.04-355.96 30.35-1478.63 47.6-1793.29 51.92"/>
            <path d="m4087.97 527.41-10.04-3.36 9.95-3.64z"/>
        </g>
        <g stroke="#000" class="edge">
            <path fill="none" d="M5638.68 399.73c-25.57 10.38-59.06 24.03-88.68 36.27-38.3 15.82-45.43 27.57-86 36-146.6 30.47-2545.3 32.93-2695 36-190.47 3.9-414.01 10.6-532.46 14.32"/>
            <path d="m2236.68 525.81-10.1-3.18 9.88-3.81z"/>
        </g>
        <g stroke="#000" class="edge">
            <path fill="none" d="M5680 400.3v24.16"/>
            <path d="m5683.5 424.38-3.5 10-3.5-10z"/>
        </g>
        <g stroke="#000" class="edge">
            <path fill="none" d="M5609.43 398.54c-52.53 11.56-123.94 27.28-176.55 38.86"/>
            <path d="m5433.95 440.74-10.52-1.26 9.02-5.57z"/>
        </g>
        <g stroke="#000" class="edge">
            <path fill="none" d="M6743.29 328.22c38.56 31.76 109.69 100.26 66.71 143.78-28.16 28.51-2844.94 34.89-2885 36-105.83 2.94-227.53 8.51-307.55 12.47"/>
            <path d="m3618.11 523.94-10.16-3 9.81-3.99z"/>
        </g>
        <g stroke="#000" class="edge">
            <path fill="none" d="M6717.32 328.41c-5.09 24.09-14.33 67.84-20.4 96.56"/>
            <path d="m6700.42 425.35-5.49 9.06-1.36-10.51z"/>
        </g>
        <g stroke="#000" class="edge">
            <path fill="none" d="M6681.66 327.59c-23.91 10.08-54.57 23.01-79.74 33.63"/>
            <path d="m6603.47 364.36-10.57.66 7.85-7.11z"/>
        </g>
        <g stroke="#000" class="edge">
            <path fill="none" d="M6646.67 325.33c-67.18 12.96-164.86 31.79-227.58 43.89"/>
            <path d="m6419.76 372.65-10.48-1.54 9.16-5.33z"/>
        </g>
        <g stroke="#000" class="edge">
            <path fill="none" d="M809.56 183.41c14.48 9.31 32.81 21.08 48.6 31.22"/>
            <path d="m859.81 211.52 6.52 8.35-10.3-2.46z"/>
        </g>
        <g stroke="#000" class="edge">
            <path fill="none" d="M762.39 183.64C740.88 202.22 713.54 232.73 732 256c16.59 20.91 76.36 34.34 130.4 42.45"/>
            <path d="m862.57 294.94 9.4 4.9-10.4 2.03z"/>
        </g>
        <g stroke="#000" class="edge">
            <path fill="none" d="M864.68 169.04c149.88 4.47 481.2 17.52 758.32 50.96 7.24.87 14.75 1.94 22.25 3.11"/>
            <path d="m1645.77 219.65 9.31 5.06-10.43 1.85z"/>
        </g>
        <g stroke="#000" class="edge">
            <path fill="none" d="M755.79 183.14C742.94 192.17 729.05 204.7 722 220c-6.7 14.53-8.05 22.18 0 36 32.66 56.06 65.82 50.38 127 72 83.7 29.58 185.61 42.81 251.82 48.63"/>
            <path d="m1100.77 373.11 9.67 4.32-10.26 2.65z"/>
        </g>
        <g stroke="#000" class="edge">
            <path fill="none" d="M702.17 167c-129.02 1.35-372.6 9.77-446.17 53-41.56 24.42-62 40.79-62 89v74c0 48.21 19.7 65.89 62 89 58.67 32.06 1048.17 48.11 1328.51 52.03"/>
            <path d="m1584.29 520.53 9.96 3.64-10.05 3.36z"/>
        </g>
        <g stroke="#000" class="edge">
            <path fill="none" d="M857.97 173.9c140.37 13.11 444.56 41.5 592.23 55.28"/>
            <path d="m1450.28 225.67 9.63 4.41-10.28 2.56z"/>
        </g>
        <g stroke="#000" class="edge">
            <path fill="none" d="M776.81 184.42c-6.91 19.86-14.01 52.1 3.19 71.58 42.84 48.51 225.15 25.41 289 36 232.86 38.62 285.85 78.16 520 108 81.44 10.38 663.68 1.12 738 36 19.65 9.22 13.34 26.81 33 36 24.43 11.41 812.27 40.32 1081.12 49.88"/>
            <path d="m3441 518.37 9.87 3.86-10.12 3.14z"/>
        </g>
        <g stroke="#000" class="edge">
            <path fill="none" d="M702.73 168.18C588.58 171.22 387.88 181.97 327 220c-39.84 24.88-57 42.03-57 89v74c0 158.87 830.2 100.86 1459 125 118.42 4.55 255.42 10.09 340.9 13.58"/>
            <path d="m2070 518.09 9.85 3.9-10.14 3.09z"/>
        </g>
        <g stroke="#000" class="edge">
            <path fill="none" d="M841.59 179.03c56.97 11.91 144.32 30.16 205.75 43"/>
            <path d="m1047.94 218.58 9.07 5.47-10.51 1.38z"/>
        </g>
        <g stroke="#000" class="edge">
            <path fill="none" d="M863.88 169.86c96.64 3.44 264.3 9.35 408.12 14.14 503.09 16.76 629.09 14.69 1132 36 77.45 3.28 165.36 8.01 229.58 11.64"/>
            <path d="m2633.59 228.14 9.78 4.06-10.18 2.93z"/>
        </g>
        <g stroke="#000" class="edge">
            <path fill="none" d="M782.02 184.21c-1.29 20.61.2 54.52 20.98 71.79 37.34 31.04 1540.04 48.37 1912.25 52.19"/>
            <path d="m2715.24 304.69 9.96 3.6-10.03 3.4z"/>
        </g>
        <g stroke="#000" class="edge">
            <path fill="none" d="M1994.13 179.03c-9.6 1.97-19.64 3.76-29.13 4.97-416.51 52.91-525.66.32-944 36-16.67 1.42-34.51 3.46-51.41 5.63"/>
            <path d="m970.52 229.04-10.37-2.16 9.45-4.78z"/>
        </g>
        <g stroke="#000" class="edge">
            <path fill="none" d="M2016.1 183c-36.91 21.04-105.97 57.17-170.1 73-73.65 18.18-557.81 39.71-778.14 48.71"/>
            <path d="m1068.26 308.2-10.14-3.09 9.85-3.9z"/>
        </g>
        <g stroke="#000" class="edge">
            <path fill="none" d="M1991.4 178.27c-8.81 1.92-17.87 3.88-26.4 5.73-59.65 12.9-127.44 27.44-176.89 38.02"/>
            <path d="m1788.89 225.43-10.51-1.33 9.05-5.51z"/>
        </g>
        <g stroke="#000" class="edge">
            <path fill="none" d="M2018.74 183.27c-32.09 20.63-91.09 55.58-146.74 72.73-130.02 40.06-169.88 13.12-304 36-123.57 21.08-266.58 55.57-343.04 74.84"/>
            <path d="m1226.2 370.14-10.56-.94 8.84-5.85z"/>
        </g>
        <g stroke="#000" class="edge">
            <path fill="none" d="M2026.03 183.62c-21.37 20.03-60.02 53.35-99.03 72.38-57.35 27.98-79.85 12.06-139 36-60.14 24.34-85.16 22.41-127 72-31.84 37.74-36.04 59.66-26 108 1.79 8.64 5.07 17.61 8.6 25.65"/>
            <path d="m1646.71 496.02 1.1 10.54-7.43-7.55z"/>
        </g>
        <g stroke="#000" class="edge">
            <path fill="none" d="M1993.22 178.7c-9.34 1.96-19.05 3.82-28.22 5.3-151.33 24.36-191.39 13.44-343 36-6.41.95-13.06 2.05-19.71 3.21"/>
            <path d="m1603.11 226.62-10.47-1.67 9.22-5.22z"/>
        </g>
        <g stroke="#000" class="edge">
            <path fill="none" d="M2089.94 179.47c21.7 8.11 45.96 20.92 61.06 40.53 49.76 64.65-23.22 123.88 36 180 81.17 76.91 148.36-12.74 249 36 20.94 10.14 16.61 26.85 38 36 44.08 18.86 719.6 42.24 966.51 50.2"/>
            <path d="m3440.54 518.7 9.89 3.82-10.11 3.17z"/>
        </g>
        <g stroke="#000" class="edge">
            <path fill="none" d="M2058.14 183.92c15.48 19.4 34.9 51.21 16.86 72.08-72.26 83.6-159.16-32.32-246 36-64.64 50.86-96.84 117.82-43 180 35.82 41.37 185.94 51.17 282.73 53.08"/>
            <path d="m2068.52 521.58 9.94 3.67-10.06 3.33z"/>
        </g>
        <g stroke="#000" class="edge">
            <path fill="none" d="M1993.69 178.93c-9.48 1.96-19.36 3.77-28.69 5.07-72.46 10.11-542.86 36.49-749.22 47.77"/>
            <path d="m1216.05 235.26-10.17-2.95 9.79-4.04z"/>
        </g>
        <g stroke="#000" class="edge">
            <path fill="none" d="M2106.24 173.49c122.86 12.61 393.88 40.43 532.87 54.69"/>
            <path d="m2639.42 224.7 9.59 4.5-10.31 2.46z"/>
        </g>
        <g stroke="#000" class="edge">
            <path fill="none" d="M2112.07 166.48c180.98-.66 658.29 2.51 705.93 53.52 15.49 16.58 7.38 42.47-2.77 62.06"/>
            <path d="m2818.38 283.6-7.95 7.01 1.85-10.44z"/>
        </g>
        <g stroke="#000" class="edge">
            <path fill="none" d="M639.55 98.4c83.72 5.14 202.62 17.94 235.45 49.6 15.88 15.31 19.78 40.48 20.05 60.16"/>
            <path d="m898.55 208.12-3.7 9.92-3.3-10.06z"/>
        </g>
        <g stroke="#000" class="edge">
            <path fill="none" d="M558.68 112.22C570.73 145.88 602.28 220.23 656 256c32.61 21.71 127.37 35.95 202.32 44.14"/>
            <path d="m858.62 296.65 9.57 4.54-10.31 2.42z"/>
        </g>
        <g stroke="#000" class="edge">
            <path fill="none" d="M641.47 96.32c202.25 3.6 693.36 15.86 854.53 51.68 65.72 14.61 137.24 46.41 180.85 67.77"/>
            <path d="m1678.29 212.58 7.41 7.57-10.52-1.3z"/>
        </g>
        <g stroke="#000" class="edge">
            <path fill="none" d="M498.22 108.49C416.36 131.39 276.83 182.63 327 256c49.81 72.83 99.01 52.25 185 72 209.38 48.09 464.93 54.17 586.77 53.98"/>
            <path d="m1098.61 378.48 10.02 3.47-9.99 3.53z"/>
        </g>
        <g stroke="#000" class="edge">
            <path fill="none" d="M465.25 96.92C352.17 100.82 163.08 112.59 104 148c-41.35 24.78-62 40.79-62 89v146c0 82.54 83.41 67.13 163 89 133.33 36.63 1102.78 49.38 1379.46 52.3"/>
            <path d="m1584.47 520.8 9.96 3.6-10.03 3.4z"/>
        </g>
        <g stroke="#000" class="edge">
            <path fill="none" d="M641.4 96.11c214.24 3.27 748.88 15.06 820.6 51.89 26.16 13.44 46.14 41.08 58.34 62.02"/>
            <path d="m1523.33 208.19 1.78 10.44-7.91-7.05z"/>
        </g>
        <g stroke="#000" class="edge">
            <path fill="none" d="M472.94 102.14C408.84 109.58 326 123.64 303 148c-55.03 58.27-44.08 121.78 11 180 300.6 317.77-891.99 32.44 1819 144 494.3 20.34 1087.1 41.89 1308.18 49.83"/>
            <path d="m3440.99 518.32 9.87 3.86-10.12 3.13z"/>
        </g>
        <g stroke="#000" class="edge">
            <path fill="none" d="M465.25 97C360.4 100.96 192.76 112.77 142 148 8.4 240.72 159.32 416.02 312 472c73.93 27.11 1338.29 33.42 1417 36 118.62 3.88 255.85 9.61 341.29 13.32"/>
            <path d="m2070.39 517.83 9.84 3.93-10.14 3.06z"/>
        </g>
        <g stroke="#000" class="edge">
            <path fill="none" d="M633.22 102.04C703.85 109.48 809.02 123.6 898 148c63.75 17.48 134.04 47.82 177.85 68.16"/>
            <path d="m1077.19 212.92 7.57 7.41-10.54-1.07z"/>
        </g>
        <g stroke="#000" class="edge">
            <path fill="none" d="M480.09 104.58C424.52 113.31 354.07 127.9 333 148c-58.41 55.7-44.62 137.52 24 180 145.79 90.26 1683.99 99.26 1771 108 8.95.9 18.31 2.1 27.57 3.44"/>
            <path d="m2155.93 435.96 9.36 4.96-10.42 1.96z"/>
        </g>
        <g stroke="#000" class="edge">
            <path fill="none" d="M640.31 97.62c363.87 10.9 1758.82 52.7 2147.58 64.35"/>
            <path d="m2787.97 158.47 9.89 3.8-10.1 3.2z"/>
        </g>
        <g class="node" transform="translate(4 544)">
            <ellipse cx="447" cy="-306" fill="none" stroke="#000" rx="115.33" ry="18"/>
            <text x="447" y="-300.95" font-family="Times,serif" font-size="14" text-anchor="middle">:app:core:calendar-compose</text>
        </g>
        <g stroke="#000" class="edge">
            <path fill="none" d="M540.7 112.13c-17.62 24.52-50.17 69.84-70.84 98.61"/>
            <path d="m472.91 212.5-8.68 6.08 2.99-10.16z"/>
        </g>
        <g stroke="#000" class="edge">
            <path fill="none" d="M1803.4 169.88c-149.64 6.1-494.04 22.1-782.4 50.12-16.32 1.59-33.75 3.65-50.34 5.8"/>
            <path d="m971.2 229.25-10.37-2.16 9.46-4.78z"/>
        </g>
        <g stroke="#000" class="edge">
            <path fill="none" d="M1871.92 184.35c-9.63 21.1-29.05 55.84-57.92 71.65-16.2 8.87-522.07 35.89-747.92 47.55"/>
            <path d="m1066.56 307.03-10.17-2.98 9.81-4.01z"/>
        </g>
        <g stroke="#000" class="edge">
            <path fill="none" d="M1843.67 182.36c-23.17 10.07-53.71 23.35-78.88 34.3"/>
            <path d="m1766.32 219.81-10.57.78 7.78-7.2z"/>
        </g>
        <g stroke="#000" class="edge">
            <path fill="none" d="M1877.92 184.28c-2.29 20.69-9.48 54.67-31.92 71.72-76.36 58-336.32 15.51-430 36-73.84 16.15-155.63 48.91-203.83 69.86"/>
            <path d="m1213.77 364.98-10.56.81 7.75-7.22z"/>
        </g>
        <g stroke="#000" class="edge">
            <path fill="none" d="M1883.41 184.31c3.98 20.07 6.74 52.81-11.41 71.69-47.15 49.04-237.49 21.69-304 36-103.89 22.35-165.18-13.71-228 72-28.37 38.72-31.03 71.38 0 108 30.74 36.29 160.8 47.75 244.77 51.36"/>
            <path d="m1584.68 519.85 9.85 3.9-10.13 3.1z"/>
        </g>
        <g stroke="#000" class="edge">
            <path fill="none" d="M1822.42 178.48c-60.06 12.19-154.99 31.45-219.4 44.52"/>
            <path d="m1603.75 226.42-10.5-1.44 9.1-5.42z"/>
        </g>
        <g stroke="#000" class="edge">
            <path fill="none" d="M1893.4 184.08c38.35 44.18 148.18 162.5 267.6 215.92 97.25 43.51 141.28-10.78 237 36 20.9 10.21 16.6 26.87 38 36 45.89 19.58 751.99 42.68 1004.81 50.37"/>
            <path d="m3440.74 518.86 9.89 3.81-10.1 3.19z"/>
        </g>
        <g stroke="#000" class="edge">
            <path fill="none" d="M1888.4 184.08c9.2 19.27 19.78 50.66 4.6 71.92-28.67 40.14-68.43 2.89-105 36-60.02 54.33-83.37 120.93-28 180 40.73 43.45 205.91 52.38 308.72 53.6"/>
            <path d="m2068.53 522.1 9.97 3.59-10.03 3.41z"/>
        </g>
        <g stroke="#000" class="edge">
            <path fill="none" d="m1808.52 173.49-598.51 55.13"/>
            <path d="m1210.57 232.08-10.28-2.57 9.64-4.4z"/>
        </g>
        <g stroke="#000" class="edge">
            <path fill="none" d="M1934.36 178.9c10.16 1.91 20.69 3.71 30.64 5.1 96.95 13.51 349.37-3.34 439 36 108 47.41 92.97 120.83 195 180 29.45 17.08 65.06 29.33 95.9 37.72"/>
            <path d="m2695.78 434.33 8.78 5.92-10.56.85z"/>
        </g>
        <g stroke="#000" class="edge">
            <path fill="none" d="M1935.84 178.55c9.72 1.89 19.72 3.77 29.16 5.45 84.59 15.07 181.63 30.23 249.23 40.45"/>
            <path d="m2214.37 220.94 9.37 4.95-10.41 1.97z"/>
        </g>
        <g stroke="#000" class="edge">
            <path fill="none" d="M1294.93 176.25c-76.34 9.99-200.31 26.76-306.93 43.75-7.39 1.18-15.1 2.46-22.78 3.78"/>
            <path d="m965.95 227.2-10.45-1.73 9.26-5.16z"/>
        </g>
        <g stroke="#000" class="edge">
            <path fill="none" d="M1285.44 172.1c-88.06 6.78-221.5 21.15-264.44 47.9-23.17 14.43-39.98 41.05-50.2 61.44"/>
            <path d="m974.02 282.81-7.44 7.53 1.12-10.53z"/>
        </g>
        <g stroke="#000" class="edge">
            <path fill="none" d="M1427.74 179.11c60.62 12.09 153.77 30.67 218.12 43.5"/>
            <path d="m1646.52 219.18 9.12 5.38-10.49 1.48z"/>
        </g>
        <g stroke="#000" class="edge">
            <path fill="none" d="M1342.51 183.56c-13.74 9.84-30.83 22.99-44.51 36.44-44.03 43.3-86.98 101.57-110.22 134.82"/>
            <path d="m1190.92 356.43-8.57 6.23 2.82-10.22z"/>
        </g>
        <g stroke="#000" class="edge">
            <path fill="none" d="M1355.99 183.99c-31.26 50.57-113.7 201.99-39.99 288.01 33.85 39.5 178.38 49.81 268.38 52.35"/>
            <path d="m1584.46 520.85 9.91 3.75-10.09 3.25z"/>
        </g>
        <g stroke="#000" class="edge">
            <path fill="none" d="M1404.06 182.54c24.41 10.23 56.58 23.71 82.8 34.7"/>
            <path d="m1488.06 213.95 7.87 7.09-10.57-.63z"/>
        </g>
        <g stroke="#000" class="edge">
            <path fill="none" d="M1368.89 184.22c3.18 20.31 11.53 53.58 33.11 71.78 240.14 202.53 382.38 90.9 692 144 117.58 20.16 158.39-15.51 266 36 20.98 10.04 16.6 26.89 38 36 47.68 20.31 783.99 43.1 1042.84 50.52"/>
            <path d="m3440.66 519.01 9.89 3.79-10.09 3.21z"/>
        </g>
        <g stroke="#000" class="edge">
            <path fill="none" d="M1365.2 184.16c-1.23 18.51-1.16 48.45 8.8 71.84 8.39 19.7 17.85 19.93 32 36 70.15 79.67 62.43 131.78 157 180 44.16 22.52 356.45 41.18 507.95 49.02"/>
            <path d="m2070.7 517.5 9.81 4.01-10.17 2.98z"/>
        </g>
        <g stroke="#000" class="edge">
            <path fill="none" d="M1317.11 181.08c-39.47 11.14-94.77 26.75-136.91 38.65"/>
            <path d="m1181.26 223.06-10.57-.65 8.67-6.08z"/>
        </g>
        <g stroke="#000" class="edge">
            <path fill="none" d="M1376.57 184.17c12.67 20.91 37.11 55.46 68.43 71.83 95.03 49.67 853.48 88.95 959 108 64.92 11.72 79.94 20.24 144 36 51.02 12.55 108.78 26.52 152.17 36.97"/>
            <path d="m2700.79 433.51 8.9 5.75-10.54 1.06z"/>
        </g>
        <g stroke="#000" class="edge">
            <path fill="none" d="M1446.86 173c169.93 12.76 566.92 42.58 752.81 56.54"/>
            <path d="m2199.85 226.04 9.71 4.24-10.23 2.74z"/>
        </g>
        <g class="node" transform="translate(4 544)">
            <ellipse cx="5053" cy="-90" fill="none" stroke="#000" rx="106.11" ry="18"/>
            <text x="5053" y="-84.95" font-family="Times,serif" font-size="14" text-anchor="middle">:library:firebase-common</text>
        </g>
        <g stroke="#000" class="edge">
            <path fill="none" d="M5057 400.3v24.16"/>
            <path d="m5060.5 424.38-3.5 10-3.5-10z"/>
        </g>
        <g stroke="#000" class="edge">
            <path fill="none" d="M4152.44 400.05c-18.16 18.41-48.46 48.27-76.44 71.95-12.26 10.37-26.32 21.1-38.69 30.17"/>
            <path d="m4039.62 504.81-10.14 3.04 6.03-8.7z"/>
        </g>
        <g stroke="#000" class="edge">
            <path fill="none" d="M6613.1 467.08c-15.26 1.97-31.15 3.74-46.1 4.92-498.37 39.19-2096.14 50.42-2478.99 52.57"/>
            <path d="m4088.04 528.07-10.02-3.44 9.98-3.56z"/>
        </g>
        <g stroke="#000" class="edge">
            <path fill="none" d="M6164.68 400.44c-7.49 21.2-23.39 56.04-50.68 71.56-89.41 50.85-1646.29 53.27-2026 53.1"/>
            <path d="m4088.09 528.6-9.99-3.51 10-3.49z"/>
        </g>
        <g stroke="#000" class="edge">
            <path fill="none" d="M6327.74 397.85c-45.21 21.3-133.67 59.56-213.74 74.15-182.83 33.32-3159.19 32.44-3345 36-190.47 3.65-414.01 10.45-532.46 14.25"/>
            <path d="m2236.69 525.75-10.11-3.18 9.88-3.82z"/>
        </g>
        <g stroke="#000" class="edge">
            <path fill="none" d="M535.46 250.64c92.45 12.74 240.04 33.07 334.33 46.07"/>
            <path d="m870.09 293.22 9.43 4.83-10.38 2.1z"/>
        </g>
        <g stroke="#000" class="edge">
            <path fill="none" d="M468.93 255.96C492.38 276.98 535.73 312 580 328c93.75 33.88 383.82 46.84 519.14 51.14"/>
            <path d="m1099.17 375.63 9.88 3.81-10.1 3.19z"/>
        </g>
        <g stroke="#000" class="edge">
            <path fill="none" d="M458.05 256.41c9.24 20.48 27.45 53.94 53.95 71.59 261.46 174.14 380.53 103.13 692 144 166.31 21.82 666.99 42.41 866.06 49.96"/>
            <path d="m2069.94 518.45 9.86 3.88-10.13 3.12z"/>
        </g>
    </g>
</svg>
