<svg xmlns="http://www.w3.org/2000/svg" width="9072" height="620pt" viewBox="0 0 6803.58 620">
    <g class="graph">
        <path fill="#fff" d="M0 620V0h6803.58v620z"/>
        <g class="node" transform="translate(4 616)">
            <ellipse cx="6525" cy="-594" fill="none" stroke="#000" rx="92.3" ry="18"/>
            <text x="6525" y="-588.95" font-family="Times,serif" font-size="14" text-anchor="middle">:app:platform:android</text>
        </g>
        <g class="node" transform="translate(4 616)">
            <ellipse cx="3547" cy="-522" fill="none" stroke="#000" rx="97.41" ry="18"/>
            <text x="3547" y="-516.95" font-family="Times,serif" font-size="14" text-anchor="middle">:app:platform:common</text>
        </g>
        <g stroke="red" stroke-width="2" class="edge">
            <path fill="none" d="M6437.84 25.14C6001.58 35.4 4128.75 79.42 3658.46 90.47"/>
            <path fill="red" d="m3660.39 93.93-10.08-3.26 9.91-3.74z"/>
        </g>
        <g class="node" transform="translate(4 616)">
            <ellipse cx="6567" cy="-162" fill="none" stroke="#000" rx="95.88" ry="18"/>
            <text x="6567" y="-156.95" font-family="Times,serif" font-size="14" text-anchor="middle">:app:core:diary-service</text>
        </g>
        <g stroke="#000" class="edge">
            <path fill="none" d="M6531.83 40.43C6535.92 67.16 6543 119.91 6543 165v146c0 40.19 10.93 85.6 19.13 114.01"/>
            <path d="m6565.39 423.69-.49 10.59-6.21-8.58z"/>
        </g>
        <g class="node" transform="translate(4 616)">
            <ellipse cx="6691" cy="-90" fill="none" stroke="#000" rx="104.58" ry="18"/>
            <text x="6691" y="-84.95" font-family="Times,serif" font-size="14" text-anchor="middle">:app:core:holiday-service</text>
        </g>
        <g stroke="#000" class="edge">
            <path fill="none" d="M6586.1 36.51C6646.45 54.58 6733 93.04 6733 165v218c0 40.82-14.84 86.07-25.97 114.28"/>
            <path d="m6710.28 498.57-7.02 7.94.54-10.59z"/>
        </g>
        <g class="node" transform="translate(4 616)">
            <ellipse cx="3938" cy="-162" fill="none" stroke="#000" rx="74.89" ry="18"/>
            <text x="3938" y="-156.95" font-family="Times,serif" font-size="14" text-anchor="middle">:app:domain:fcm</text>
        </g>
        <g stroke="#000" class="edge">
            <path fill="none" d="M6460.45 34.4C6249.13 69.41 5588.82 177.71 5040 256c-371.76 53.03-472.28 22.76-838 108-76.35 17.79-161.8 49.41-213.22 69.78"/>
            <path d="m3990.34 436.93-10.59.45 7.99-6.96z"/>
        </g>
        <g stroke="#000" class="edge">
            <path fill="none" d="M3648.59 94.66C4148.38 93.52 6398 96.23 6398 237v74c0 61.49 66.1 101.22 116.59 122.59"/>
            <path d="m6515.75 430.29 7.94 7.02-10.58-.54z"/>
        </g>
        <g stroke="#000" class="edge">
            <path fill="none" d="M3648.28 95.67C4088.13 98.9 5880.27 114.04 6129 148c127.74 17.44 165.85 14.02 281 72 136.02 68.49 186.46 86.13 266 216 11.12 18.15 15.79 41.84 17.73 60.22"/>
            <path d="m6697.22 495.93-2.68 10.25-4.3-9.69z"/>
        </g>
        <g stroke="#000" class="edge">
            <path fill="none" d="M3638.32 102.28c67.45 7.43 153.41 21.39 178.68 45.72 59.25 57.05 10.4 104.49 43 180 15.89 36.81 42.47 74.72 61.04 98.99"/>
            <path d="m3923.67 424.66 3.37 10.05-8.9-5.75z"/>
        </g>
        <g class="node" transform="translate(4 616)">
            <ellipse cx="1085" cy="-306" fill="none" stroke="#000" rx="81.04" ry="18"/>
            <text x="1085" y="-300.95" font-family="Times,serif" font-size="14" text-anchor="middle">:app:core:compose</text>
        </g>
        <g stroke="#000" class="edge">
            <path fill="none" d="M3453.43 95.44C3005.05 97.69 1162.03 109.28 1117 148c-37.66 32.38-36.91 95.76-32.67 132.6"/>
            <path d="m1087.74 279.68-2.15 10.38-4.79-9.45z"/>
        </g>
        <g class="node" transform="translate(4 616)">
            <ellipse cx="1065" cy="-234" fill="none" stroke="#000" rx="101" ry="18"/>
            <text x="1065" y="-228.95" font-family="Times,serif" font-size="14" text-anchor="middle">:app:core:design-system</text>
        </g>
        <g stroke="#000" class="edge">
            <path fill="none" d="M3453.64 95.26C2993.09 96.72 1044.28 105.36 776 148c-206.97 32.89-326.82-26.27-449 144-9.33 13-10.9 24.29 0 36 41.92 45.03 432.54 52.39 629.52 53.21"/>
            <path d="m956.27 377.71 9.99 3.53-10.01 3.47z"/>
        </g>
        <g class="node" transform="translate(4 616)">
            <ellipse cx="1829" cy="-306" fill="none" stroke="#000" rx="86.67" ry="18"/>
            <text x="1829" y="-300.95" font-family="Times,serif" font-size="14" text-anchor="middle">:app:core:navigation</text>
        </g>
        <g stroke="#000" class="edge">
            <path fill="none" d="M3453.79 96.08c-308.95 3.77-1255.98 18-1389.79 51.92-69.75 17.68-86.93 29.51-145 72-24.89 18.21-48.9 43.97-65.19 63.1"/>
            <path d="m1856.53 285.3-9.1 5.43 3.72-9.92z"/>
        </g>
        <g class="node" transform="translate(4 616)">
            <ellipse cx="538" cy="-162" fill="none" stroke="#000" rx="59.54" ry="18"/>
            <text x="538" y="-156.95" font-family="Times,serif" font-size="14" text-anchor="middle">:library:color</text>
        </g>
        <g stroke="#000" class="edge">
            <path fill="none" d="M3453.72 95.42C2961.7 97.71 758.86 110.01 456 148 285.61 169.37 80 65.27 80 237v74c0 81.55 266.37 121.13 394.59 135.45"/>
            <path d="m474.75 442.95 9.56 4.57-10.32 2.39z"/>
        </g>
        <g class="node" transform="translate(4 616)">
            <ellipse cx="1341" cy="-18" fill="none" stroke="#000" rx="62.1" ry="18"/>
            <text x="1341" y="-12.95" font-family="Times,serif" font-size="14" text-anchor="middle">:library:kotlin</text>
        </g>
        <g stroke="#000" class="edge">
            <path fill="none" d="M3453.51 95.44C2899.16 98.09 166.02 112.92 87 148c-49.44 21.95-83 34.91-83 89v218c0 46.73 15.56 65.57 56 89 52.62 30.49 946.52 47.47 1211.53 51.85"/>
            <path d="m1271.47 592.35 9.94 3.67-10.05 3.33z"/>
        </g>
        <g class="node" transform="translate(4 616)">
            <ellipse cx="1530" cy="-306" fill="none" stroke="#000" rx="79.5" ry="18"/>
            <text x="1530" y="-300.95" font-family="Times,serif" font-size="14" text-anchor="middle">:library:navigation</text>
        </g>
        <g stroke="#000" class="edge">
            <path fill="none" d="M3453.67 95.83C3106.86 99.06 1943.39 112.45 1780 148c-80.58 17.53-104.59 23.12-171 72-23.28 17.14-43.96 42.91-57.68 62.32"/>
            <path d="m1554.21 284.3-8.55 6.27 2.77-10.23z"/>
        </g>
        <g class="node" transform="translate(4 616)">
            <ellipse cx="4098" cy="-18" fill="none" stroke="#000" rx="78.99" ry="18"/>
            <text x="4098" y="-12.95" font-family="Times,serif" font-size="14" text-anchor="middle">:library:coroutines</text>
        </g>
        <g stroke="#000" class="edge">
            <path fill="none" d="M3648.67 94.85c255.34.28 929.11 5.58 1017.33 53.15 87.09 46.97 59.32 111.79 131 180 42.33 40.28 59.26 43.02 110 72 31.41 17.94 53.9 5.28 73 36 8.45 13.59 9.58 23.18 0 36-33.85 45.28-73.01 7.78-122 36-20.16 11.61-16.72 26.6-38 36-109.96 48.58-460.05 54.08-627.32 53.81"/>
            <path d="m4192.7 601.31-9.99-3.52 10.01-3.48z"/>
        </g>
        <g class="node" transform="translate(4 616)">
            <ellipse cx="2700" cy="-18" fill="none" stroke="#000" rx="72.85" ry="18"/>
            <text x="2700" y="-12.95" font-family="Times,serif" font-size="14" text-anchor="middle">:library:datetime</text>
        </g>
        <g stroke="#000" class="edge">
            <path fill="none" d="M3453.41 94.57C3090.52 93.4 1831.1 93.37 1660 148c-109.56 34.98-142.53 54.7-215 144-21.74 26.79-18.13 39.26-29 72-25.25 76.07-69.62 125.34-11 180 44.45 41.44 933.66 50.67 1214.66 52.55"/>
            <path d="m2619.5 593.05 9.98 3.56-10.03 3.44z"/>
        </g>
        <g class="node" transform="translate(4 616)">
            <ellipse cx="421" cy="-306" fill="none" stroke="#000" rx="89.23" ry="18"/>
            <text x="421" y="-300.95" font-family="Times,serif" font-size="14" text-anchor="middle">:library:shimmer-m3</text>
        </g>
        <g stroke="#000" class="edge">
            <path fill="none" d="M3453.52 94.96C3051.1 95.12 1517.6 99.02 1036 148c-176.23 17.92-221.95 22.4-392 72-62.6 18.26-131.86 48.14-175.4 68.18"/>
            <path d="m470.29 291.26-10.54 1.03 7.6-7.38z"/>
        </g>
        <g class="node" transform="translate(4 616)">
            <ellipse cx="4434" cy="-378" fill="none" stroke="#000" rx="71.31" ry="18"/>
            <text x="4434" y="-372.95" font-family="Times,serif" font-size="14" text-anchor="middle">:app:data:memo</text>
        </g>
        <g stroke="#000" class="edge">
            <path fill="none" d="M3646.97 97.45c199.04 5.63 643.53 21.34 706.03 50.55 28.91 13.51 53.02 41.55 68.09 62.56"/>
            <path d="m4423.89 208.47 2.8 10.22-8.56-6.25z"/>
        </g>
        <g class="node" transform="translate(4 616)">
            <ellipse cx="4172" cy="-306" fill="none" stroke="#000" rx="58.52" ry="18"/>
            <text x="4172" y="-300.95" font-family="Times,serif" font-size="14" text-anchor="middle">:app:data:tag</text>
        </g>
        <g stroke="#000" class="edge">
            <path fill="none" d="M3642.43 100.52c69.24 6.27 165.89 19.54 246.57 47.48 99.66 34.51 204.83 102.97 255.74 138.47"/>
            <path d="m4146.48 283.42 6.17 8.61-10.19-2.89z"/>
        </g>
        <g class="node" transform="translate(4 616)">
            <ellipse cx="4873" cy="-162" fill="none" stroke="#000" rx="75.92" ry="18"/>
            <text x="4873" y="-156.95" font-family="Times,serif" font-size="14" text-anchor="middle">:app:data:account</text>
        </g>
        <g stroke="#000" class="edge">
            <path fill="none" d="M3648.57 94.26c250.77-1.13 903.9 1.07 985.43 53.74 75.46 48.75 35.79 109.91 92 180 33.52 41.8 82.93 79.47 116 102.28"/>
            <path d="m4843.73 427.22 6.31 8.52-10.24-2.73z"/>
        </g>
        <g class="node" transform="translate(4 616)">
            <ellipse cx="4943" cy="-378" fill="none" stroke="#000" rx="83.6" ry="18"/>
            <text x="4943" y="-372.95" font-family="Times,serif" font-size="14" text-anchor="middle">:app:data:credential</text>
        </g>
        <g stroke="#000" class="edge">
            <path fill="none" d="M3648.41 95.68C3928.01 98.1 4720.1 108.4 4830 148c36.88 13.29 71.63 42.68 93.52 64.05"/>
            <path d="m4925.88 209.47 4.59 9.55-9.54-4.61z"/>
        </g>
        <g class="node" transform="translate(4 616)">
            <ellipse cx="4628" cy="-162" fill="none" stroke="#000" rx="74.89" ry="18"/>
            <text x="4628" y="-156.95" font-family="Times,serif" font-size="14" text-anchor="middle">:app:data:holiday</text>
        </g>
        <g stroke="#000" class="edge">
            <path fill="none" d="M3647.36 96.78c253.77 5.1 923.59 21.34 960.64 51.22 31.89 25.72 24 48.03 24 89v187.31"/>
            <path d="m4635.5 424-3.5 10-3.5-10z"/>
        </g>
        <g class="node" transform="translate(4 616)">
            <ellipse cx="6088" cy="-234" fill="none" stroke="#000" rx="73.87" ry="18"/>
            <text x="6088" y="-228.95" font-family="Times,serif" font-size="14" text-anchor="middle">:app:data:backup</text>
        </g>
        <g stroke="#000" class="edge">
            <path fill="none" d="M3648.26 95.81C3942.57 98.65 4820.73 110.14 5104 148c361.71 48.34 784.68 170.92 933.15 216.01"/>
            <path d="m6037.79 360.55 8.54 6.26-10.58.43z"/>
        </g>
        <g class="node" transform="translate(4 616)">
            <ellipse cx="4868" cy="-306" fill="none" stroke="#000" rx="65.68" ry="18"/>
            <text x="4868" y="-300.95" font-family="Times,serif" font-size="14" text-anchor="middle">:app:data:fetch</text>
        </g>
        <g stroke="#000" class="edge">
            <path fill="none" d="M3648.5 94.49c269.2-.73 1009.24 2.02 1105.5 53.51 54.37 29.08 90.17 95.52 106.94 133.33"/>
            <path d="m4864.04 279.67.72 10.57-7.16-7.82z"/>
        </g>
        <g class="node" transform="translate(4 616)">
            <ellipse cx="2955" cy="-234" fill="none" stroke="#000" rx="62.1" ry="18"/>
            <text x="2955" y="-228.95" font-family="Times,serif" font-size="14" text-anchor="middle">:app:data:fcm</text>
        </g>
        <g stroke="#000" class="edge">
            <path fill="none" d="M3458.55 100.07c-59.92 6.02-138.45 19.19-202.55 47.93-116.21 52.11-227.13 159.37-273.83 208.02"/>
            <path d="m2984.93 358.19-9.42 4.84 4.35-9.66z"/>
        </g>
        <g class="node" transform="translate(4 616)">
            <ellipse cx="2531" cy="-450" fill="none" stroke="#000" rx="78.48" ry="18"/>
            <text x="2531" y="-444.95" font-family="Times,serif" font-size="14" text-anchor="middle">:app:data:calendar</text>
        </g>
        <g stroke="red" stroke-width="2" class="edge">
            <path fill="none" d="M3454.21 96.56c-168.61 3.61-526.9 15.23-827.21 51.44-7.67.93-15.67 2.09-23.61 3.38"/>
            <path fill="red" d="m2605.68 154.54-10.45-1.77 9.28-5.13z"/>
        </g>
        <g class="node" transform="translate(4 616)">
            <ellipse cx="3687" cy="-306" fill="none" stroke="#000" rx="84.11" ry="18"/>
            <text x="3687" y="-300.95" font-family="Times,serif" font-size="14" text-anchor="middle">:app:domain:memo</text>
        </g>
        <g stroke="#000" class="edge">
            <path fill="none" d="M3562.22 112.15c24.32 37.17 82.04 125.41 111.23 170.03"/>
            <path d="m3676.35 280.22 2.55 10.28-8.41-6.45z"/>
        </g>
        <g class="node" transform="translate(4 616)">
            <ellipse cx="3560" cy="-234" fill="none" stroke="#000" rx="71.31" ry="18"/>
            <text x="3560" y="-228.95" font-family="Times,serif" font-size="14" text-anchor="middle">:app:domain:tag</text>
        </g>
        <g stroke="#000" class="edge">
            <path fill="none" d="M3551.79 112.46c2.18 47.78 8.23 181.03 10.91 239.93"/>
            <path d="m3566.19 352.11-3.04 10.15-3.95-9.83z"/>
        </g>
        <g class="node" transform="translate(4 616)">
            <ellipse cx="3772" cy="-90" fill="none" stroke="#000" rx="88.71" ry="18"/>
            <text x="3772" y="-84.95" font-family="Times,serif" font-size="14" text-anchor="middle">:app:domain:account</text>
        </g>
        <g stroke="#000" class="edge">
            <path fill="none" d="M3584.87 111.31c54.01 28.16 157.77 91.56 199.13 180.69 31.5 67.89 13.32 159.26.8 204.78"/>
            <path d="m3788.24 497.48-6.13 8.64-.6-10.58z"/>
        </g>
        <g class="node" transform="translate(4 616)">
            <ellipse cx="3961" cy="-306" fill="none" stroke="#000" rx="96.39" ry="18"/>
            <text x="3961" y="-300.95" font-family="Times,serif" font-size="14" text-anchor="middle">:app:domain:credential</text>
        </g>
        <g stroke="#000" class="edge">
            <path fill="none" d="M3637.47 102.55c76.86 8.05 182.34 22.79 217.53 45.45 50.17 32.3 83.4 96.45 99.24 133.27"/>
            <path d="m3957.41 279.78.6 10.58-7.07-7.89z"/>
        </g>
        <g class="node" transform="translate(4 616)">
            <ellipse cx="4496" cy="-90" fill="none" stroke="#000" rx="87.69" ry="18"/>
            <text x="4496" y="-84.95" font-family="Times,serif" font-size="14" text-anchor="middle">:app:domain:holiday</text>
        </g>
        <g stroke="#000" class="edge">
            <path fill="none" d="M3648.2 95.77c190.13 2.37 604.53 12.14 740.8 52.23 71.73 21.1 154.22 37.61 129 108-17.47 48.75-130.53 131.25-148 180-5.4 15.06-8.93 22.72 0 36 12.33 18.34 32.24 30.34 52.81 38.19"/>
            <path d="m4423.86 506.85 8.3 6.58-10.59.03z"/>
        </g>
        <g class="node" transform="translate(4 616)">
            <ellipse cx="4156" cy="-162" fill="none" stroke="#000" rx="86.67" ry="18"/>
            <text x="4156" y="-156.95" font-family="Times,serif" font-size="14" text-anchor="middle">:app:domain:backup</text>
        </g>
        <g stroke="#000" class="edge">
            <path fill="none" d="M3644.44 99.36c80.74 5.71 199.8 18.79 299.56 48.64 141.69 42.4 221.23 18.82 300 144 8.52 13.54 6.69 21.46 0 36-10.27 22.34-27.09 16.45-42 36-14.16 18.56-25.17 42.67-32.36 61.11"/>
            <path d="m4172.97 426.19-6.77 8.15.22-10.6z"/>
        </g>
        <g class="node" transform="translate(4 616)">
            <ellipse cx="4285" cy="-234" fill="none" stroke="#000" rx="78.48" ry="18"/>
            <text x="4285" y="-228.95" font-family="Times,serif" font-size="14" text-anchor="middle">:app:domain:fetch</text>
        </g>
        <g stroke="#000" class="edge">
            <path fill="none" d="M3648.78 94.52c195.92.06 621.69 5.75 666.22 53.48 52.79 56.58 12.83 157.63-11.23 205.89"/>
            <path d="m4307 355.25-7.68 7.3 1.46-10.5z"/>
        </g>
        <g class="node" transform="translate(4 616)">
            <ellipse cx="3428" cy="-378" fill="none" stroke="#000" rx="91.27" ry="18"/>
            <text x="3428" y="-372.95" font-family="Times,serif" font-size="14" text-anchor="middle">:app:domain:calendar</text>
        </g>
        <g stroke="#000" class="edge">
            <path fill="none" d="M3536.65 112.13c-20.64 24.63-58.86 70.23-82.96 98.99"/>
            <path d="m3456.48 213.23-9.1 5.42 3.74-9.91z"/>
        </g>
        <g class="node" transform="translate(4 616)">
            <ellipse cx="2267" cy="-450" fill="none" stroke="#000" rx="86.15" ry="18"/>
            <text x="2267" y="-444.95" font-family="Times,serif" font-size="14" text-anchor="middle">:app:core:coroutines</text>
        </g>
        <g stroke="#000" class="edge">
            <path fill="none" d="M3453.56 95.31c-202.31 1.55-682.4 9.86-1082.56 52.69-8.62.92-17.62 2.12-26.54 3.45"/>
            <path d="m2345.16 154.88-10.42-1.92 9.34-4.99z"/>
        </g>
        <g class="node" transform="translate(4 616)">
            <ellipse cx="3159" cy="-234" fill="none" stroke="#000" rx="123.52" ry="18"/>
            <text x="3159" y="-228.95" font-family="Times,serif" font-size="14" text-anchor="middle">:app:core:filter-database-room</text>
        </g>
        <g stroke="#000" class="edge">
            <path fill="none" d="M3471.15 104.65c-63.11 8.91-144.96 23.73-172.15 43.35-72.09 52-112.04 154.96-127.88 204.74"/>
            <path d="m3174.5 353.65-6.29 8.53-.4-10.58z"/>
        </g>
        <g class="node" transform="translate(4 616)">
            <ellipse cx="5160" cy="-234" fill="none" stroke="#000" rx="132.22" ry="18"/>
            <text x="5160" y="-228.95" font-family="Times,serif" font-size="14" text-anchor="middle">:app:core:backup-database-room</text>
        </g>
        <g stroke="#000" class="edge">
            <path fill="none" d="M3648.43 94.31c264.49-1.16 991.63.73 1224.57 53.69 78.82 17.92 103.19 22.39 167 72 48.68 37.84 88.68 99.04 109.17 134.08"/>
            <path d="m5151.96 351.91 1.94 10.42-8.01-6.94z"/>
        </g>
        <g class="node" transform="translate(4 616)">
            <ellipse cx="3345" cy="-162" fill="none" stroke="#000" rx="158.32" ry="18"/>
            <text x="3345" y="-156.95" font-family="Times,serif" font-size="14" text-anchor="middle">:app:core:account-preferences-datastore</text>
        </g>
        <g stroke="#000" class="edge">
            <path fill="none" d="M3496.05 109.15c-52.6 16.8-128.99 50.47-164.05 110.85-37.93 65.32-11.68 158.9 5.45 205.06"/>
            <path d="m3340.68 423.73.33 10.59-6.86-8.07z"/>
        </g>
        <g class="node" transform="translate(4 616)">
            <ellipse cx="5435" cy="-234" fill="none" stroke="#000" rx="124.54" ry="18"/>
            <text x="5435" y="-228.95" font-family="Times,serif" font-size="14" text-anchor="middle">:app:core:diary-database-room</text>
        </g>
        <g stroke="#000" class="edge">
            <path fill="none" d="M3647.88 96.45C3942.99 101.19 4818.27 117.66 4943 148c183.73 44.69 381.14 160.43 460.24 209.96"/>
            <path d="m5404.86 354.84 6.59 8.29-10.32-2.37z"/>
        </g>
        <g class="node" transform="translate(4 616)">
            <ellipse cx="2020" cy="-162" fill="none" stroke="#000" rx="157.3" ry="18"/>
            <text x="2020" y="-156.95" font-family="Times,serif" font-size="14" text-anchor="middle">:app:core:holiday-preferences-datastore</text>
        </g>
        <g stroke="#000" class="edge">
            <path fill="none" d="M3453.61 95.79C3148.35 98.64 2227.41 110.35 2176 148c-33.91 24.84-32 46.97-32 89v74c0 51.55-46.71 94.06-81.85 118.73"/>
            <path d="m2064.54 432.34-10.24 2.72 6.31-8.51z"/>
        </g>
        <g class="node" transform="translate(4 616)">
            <ellipse cx="5711" cy="-234" fill="none" stroke="#000" rx="133.24" ry="18"/>
            <text x="5711" y="-228.95" font-family="Times,serif" font-size="14" text-anchor="middle">:app:core:holiday-database-room</text>
        </g>
        <g stroke="#000" class="edge">
            <path fill="none" d="M3648.71 94.93c283.26.38 1101.37 5.67 1364.29 53.07 254.34 45.85 542.65 163.61 654.32 211.88"/>
            <path d="m5668.4 356.54 7.78 7.19-10.57-.77z"/>
        </g>
        <g class="node" transform="translate(4 616)">
            <ellipse cx="1696" cy="-378" fill="none" stroke="#000" rx="81.55" ry="18"/>
            <text x="1696" y="-372.95" font-family="Times,serif" font-size="14" text-anchor="middle">:app:feature:memo</text>
        </g>
        <g stroke="#000" class="edge">
            <path fill="none" d="M3453.69 95.55C3118.45 97.78 2023.72 108.07 1871 148c-51.57 13.48-105.17 44.64-138.3 66.26"/>
            <path d="m1735.04 216.91-10.27 2.61 6.4-8.44z"/>
        </g>
        <g class="node" transform="translate(4 616)">
            <ellipse cx="997" cy="-378" fill="none" stroke="#000" rx="68.75" ry="18"/>
            <text x="997" y="-372.95" font-family="Times,serif" font-size="14" text-anchor="middle">:app:feature:tag</text>
        </g>
        <g stroke="#000" class="edge">
            <path fill="none" d="M3453.49 94.98C3009.25 95.15 1193.76 98.87 1084 148c-28.8 12.89-52.25 41.03-66.78 62.24"/>
            <path d="m1020.24 212.01-8.41 6.43 2.56-10.27z"/>
        </g>
        <g class="node" transform="translate(4 616)">
            <ellipse cx="1211" cy="-450" fill="none" stroke="#000" rx="88.71" ry="18"/>
            <text x="1211" y="-444.95" font-family="Times,serif" font-size="14" text-anchor="middle">:app:feature:calendar</text>
        </g>
        <g stroke="#000" class="edge">
            <path fill="none" d="M3453.18 94.5c-306.91-.97-1278.16.69-2080.18 53.5-23.66 1.56-49.24 3.99-72.78 6.52"/>
            <path d="m1300.67 158-10.33-2.39 9.56-4.57z"/>
        </g>
        <g class="node" transform="translate(4 616)">
            <ellipse cx="2001" cy="-378" fill="none" stroke="#000" rx="76.94" ry="18"/>
            <text x="2001" y="-372.95" font-family="Times,serif" font-size="14" text-anchor="middle">:app:feature:more</text>
        </g>
        <g stroke="#000" class="edge">
            <path fill="none" d="M3453.41 95.41C3152.89 97.11 2254.27 105.71 2130 148c-38.91 13.24-76.32 42.85-99.91 64.29"/>
            <path d="m2032.56 214.77-9.7 4.25 4.93-9.38z"/>
        </g>
        <g class="node" transform="translate(4 616)">
            <ellipse cx="1317" cy="-378" fill="none" stroke="#000" rx="86.15" ry="18"/>
            <text x="1317" y="-372.95" font-family="Times,serif" font-size="14" text-anchor="middle">:app:feature:account</text>
        </g>
        <g stroke="#000" class="edge">
            <path fill="none" d="M3453.85 96c-399.43 4.29-1898.61 22.33-1994.85 52-42.4 13.07-84.26 43.15-110.56 64.72"/>
            <path d="m1350.89 215.24-9.91 3.74 5.41-9.1z"/>
        </g>
        <g class="node" transform="translate(4 616)">
            <ellipse cx="2383" cy="-162" fill="none" stroke="#000" rx="112.26" ry="18"/>
            <text x="2383" y="-156.95" font-family="Times,serif" font-size="14" text-anchor="middle">:library:firebase-messaging</text>
        </g>
        <g stroke="#000" class="edge">
            <path fill="none" d="M3453.43 94.84c-253.37.27-918.59 5.56-1005.43 53.16-42.5 23.29-63 40.54-63 89v74c0 39.26.77 84.63 1.36 113.31"/>
            <path d="m2389.85 423.93-3.29 10.07-3.71-9.92z"/>
        </g>
        <g class="node" transform="translate(4 616)">
            <ellipse cx="5841" cy="-18" fill="none" stroke="#000" rx="71.31" ry="18"/>
            <text x="5841" y="-12.95" font-family="Times,serif" font-size="14" text-anchor="middle">:app:core:model</text>
        </g>
        <g stroke="#000" class="edge">
            <path fill="none" d="M6570.96 472.22c-1.06 20.63-6.26 54.56-27.96 71.78-47.25 37.5-441.04 48.71-615.43 51.86"/>
            <path d="m5927.73 599.35-10.06-3.32 9.93-3.68z"/>
        </g>
        <g class="node" transform="translate(4 616)">
            <ellipse cx="4992" cy="-18" fill="none" stroke="#000" rx="85.13" ry="18"/>
            <text x="4992" y="-12.95" font-family="Times,serif" font-size="14" text-anchor="middle">:common:exception</text>
        </g>
        <g stroke="#000" class="edge">
            <path fill="none" d="M6501.12 466.71c-11.4 1.83-23.08 3.65-34.12 5.29-239.06 35.5-298.4 49.12-539 72-305.18 29.02-668.2 44.09-836.97 49.98"/>
            <path d="m5091.33 597.47-10.11-3.15 9.87-3.84z"/>
        </g>
        <g class="node" transform="translate(4 616)">
            <ellipse cx="5256" cy="-90" fill="none" stroke="#000" rx="121.98" ry="18"/>
            <text x="5256" y="-84.95" font-family="Times,serif" font-size="14" text-anchor="middle">:app:core:account-preferences</text>
        </g>
        <g stroke="#000" class="edge">
            <path fill="none" d="M6503.74 467.2c-12.19 1.87-24.82 3.58-36.74 4.8-375.26 38.5-471.15 19.08-848 36-77.5 3.48-164.4 7.59-233.29 10.9"/>
            <path d="m5386.05 522.38-10.16-3.01 9.82-3.98z"/>
        </g>
        <g class="node" transform="translate(4 616)">
            <ellipse cx="6457" cy="-90" fill="none" stroke="#000" rx="72.85" ry="18"/>
            <text x="6457" y="-84.95" font-family="Times,serif" font-size="14" text-anchor="middle">:common:model</text>
        </g>
        <g stroke="#000" class="edge">
            <path fill="none" d="M6544.65 471.77c-14.63 9.31-33.02 21.01-48.82 31.07"/>
            <path d="m6497.97 505.62-10.32 2.42 6.56-8.32z"/>
        </g>
        <g stroke="#000" class="edge">
            <path fill="none" d="M6618.92 538.67c-14.24 1.96-29.02 3.83-42.92 5.33-235.41 25.32-514.81 41.83-649.87 48.96"/>
            <path d="m5926.37 596.46-10.17-2.98 9.8-4.01z"/>
        </g>
        <g stroke="#000" class="edge">
            <path fill="none" d="M3930.22 472.01C3912.93 496.7 3881.89 540 3874 544c-28.11 14.27-2042.35 45.61-2455.46 51.89"/>
            <path d="m1418.64 599.39-10.05-3.35 9.95-3.65z"/>
        </g>
        <g stroke="#000" class="edge">
            <path fill="none" d="M3957.41 471.8c17.23 18.45 46.33 48.61 73.59 72.2 11.96 10.35 25.76 20.93 38 29.89"/>
            <path d="m4070.72 570.81 6.05 8.7-10.16-3.02z"/>
        </g>
        <g stroke="#000" class="edge">
            <path fill="none" d="M3940.63 472.46c-2.67 20.87-10.52 55.04-33.63 71.54-45.45 32.45-853.3 47.66-1119.04 51.79"/>
            <path d="m2788.04 599.29-10.05-3.34 9.94-3.66z"/>
        </g>
        <g stroke="#000" class="edge">
            <path fill="none" d="M3905.98 470.19c-24.05 10.14-55.95 23.59-82.13 34.63"/>
            <path d="m3825.36 507.99-10.58.66 7.86-7.11z"/>
        </g>
        <g stroke="#000" class="edge">
            <path fill="none" d="M4003.96 464.5c19.21 2.71 40.47 5.48 60.04 7.5 236.17 24.4 296.28 17.69 533 36 183.7 14.21 229.27 22.16 413 36 276.87 20.85 605.8 40.11 754.69 48.53"/>
            <path d="m5764.66 589.03 9.78 4.05-10.18 2.93z"/>
        </g>
        <g stroke="#000" class="edge">
            <path fill="none" d="M3985.46 469.01C4049.89 489.16 4174.9 525.9 4284 544c218.4 36.24 478.62 47.71 616 51.33"/>
            <path d="m4899.87 591.83 9.91 3.75-10.09 3.25z"/>
        </g>
        <g stroke="#000" class="edge">
            <path fill="none" d="M1084.06 328.3c-2.14 7.46-4.68 16.38-7.07 24.73"/>
            <path d="m1080.42 353.79-6.12 8.65-.62-10.58z"/>
        </g>
        <g stroke="#000" class="edge">
            <path fill="none" d="M989.82 393.52c-104.37 13.86-286.05 37.99-382.81 50.84"/>
            <path d="m607.52 447.83-10.37-2.16 9.45-4.78z"/>
        </g>
        <g stroke="#000" class="edge">
            <path fill="none" d="M1078.23 400.4c20.66 38.19 71.11 127.28 100.77 143.6 63.44 34.91 1131.2 48.85 1441.23 52.17"/>
            <path d="m2619.9 592.67 9.96 3.61-10.03 3.39z"/>
        </g>
        <g stroke="#000" class="edge">
            <path fill="none" d="M1763.85 321.18c-65.38 13.71-159.96 45-204.85 114.82-27.52 42.8-4.94 80.69 38 108 43 27.35 773.05 45.73 1023.48 51.26"/>
            <path d="m2620.25 591.75 9.92 3.72-10.07 3.28z"/>
        </g>
        <g stroke="#000" class="edge">
            <path fill="none" d="M1501.53 326.76c-16.75 9.23-36.72 22.06-51.53 37.24-26.03 26.68-33.09 36.07-43 72-13.53 49.05-5.01 80.81 38 108 49.62 31.36 901.29 47.39 1175.02 51.75"/>
            <path d="m2619.99 592.25 9.95 3.66-10.06 3.34z"/>
        </g>
        <g stroke="#000" class="edge">
            <path fill="none" d="M439.11 328.13c20.4 24.76 58.28 70.73 81.95 99.45"/>
            <path d="m523.58 425.14 3.66 9.94-9.06-5.49z"/>
        </g>
        <g stroke="#000" class="edge">
            <path fill="none" d="M4477.07 253.36C4598.01 297.83 4958.32 430.68 4962 436c9.11 13.15 9.71 23.28 0 36-36.91 48.33-77.37 9.28-132 36-23.96 11.72-23.05 26.59-48 36-105.49 39.79-430.31 49.71-589.78 52.18"/>
            <path d="m4192.59 599.68-10.05-3.36 9.95-3.64z"/>
        </g>
        <g stroke="#000" class="edge">
            <path fill="none" d="M4368.65 242.67c-147.8 7.95-504.73 27.78-803.65 49.33-191.72 13.83-679.74 10.93-862 72-85.23 28.56-88.95 71.28-171 108-53.16 23.79-90.93-10.5-126 36-9.64 12.77-10.28 23.74 0 36 26.98 32.2 136.5 44.85 214.93 49.81"/>
            <path d="m2620.98 590.31 9.78 4.09-10.19 2.9z"/>
        </g>
        <g stroke="#000" class="edge">
            <path fill="none" d="M4371.67 244.89c-107.48 9.59-326.36 29.29-511.67 47.11-27.1 2.61-56.63 5.54-83.31 8.23"/>
            <path d="m3777.25 303.69-10.3-2.47 9.6-4.49z"/>
        </g>
        <g class="node" transform="translate(4 616)">
            <ellipse cx="6352" cy="-162" fill="none" stroke="#000" rx="101.51" ry="18"/>
            <text x="6352" y="-156.95" font-family="Times,serif" font-size="14" text-anchor="middle">:app:core:diary-database</text>
        </g>
        <g stroke="#000" class="edge">
            <path fill="none" d="M4507.49 242.63C4829.42 259.6 6163.65 331.62 6246 364c18.38 7.23 57.08 40.5 83.31 64.24"/>
            <path d="m6331.54 425.53 5.03 9.32-9.75-4.15z"/>
        </g>
        <g stroke="#000" class="edge">
            <path fill="none" d="M4221.55 321.68c9.09 2.11 18.57 4.3 27.45 6.32 218.81 49.89 562.11-66.4 484 144-14.7 39.59-24.47 52.64-62 72-81.09 41.85-339.44 50.92-478.43 52.71"/>
            <path d="m4192.69 600.21-10.04-3.38 9.95-3.62z"/>
        </g>
        <g stroke="#000" class="edge">
            <path fill="none" d="M4127.09 320.2c-17.9 3.01-38.35 6.03-57.09 7.8-67.23 6.36-1156.46 2.33-1215 36-40.84 23.49-85.57 141-112 180-6.05 8.93-12.95 18.49-19.24 26.99"/>
            <path d="m2726.68 572.93-8.79 5.91 3.19-10.1z"/>
        </g>
        <g stroke="#000" class="edge">
            <path fill="none" d="M4125.67 319.65c-17.58 2.87-37.47 5.94-55.67 8.35-151.19 20.03-328.62 37.15-428.11 46.17"/>
            <path d="m3642.22 377.66-10.27-2.59 9.65-4.38z"/>
        </g>
        <g stroke="#000" class="edge">
            <path fill="none" d="M4234.22 312.62C4344.19 315.67 4590 322.46 4797 328c76.55 2.05 1308.31 4.25 1378 36 19.75 9 14.92 23.99 33 36 23.57 15.66 52.33 27.33 78.2 35.67"/>
            <path d="m6287.13 432.29 8.52 6.31-10.59.38z"/>
        </g>
        <g stroke="#000" class="edge">
            <path fill="none" d="M4849.82 471.13c-16.87 10.21-38.88 23.9-57.82 36.87-22 15.07-23.07 26.53-48 36-98.49 37.4-399.76 48.46-551.97 51.69"/>
            <path d="m4192.47 599.18-10.07-3.29 9.93-3.71z"/>
        </g>
        <g stroke="#000" class="edge">
            <path fill="none" d="M4840.68 470.17c-52.63 21.14-153.66 58.57-243.68 73.83-179.49 30.42-1465.36 47.87-1808.83 52.03"/>
            <path d="m2788.39 599.53-10.05-3.38 9.96-3.62z"/>
        </g>
        <g stroke="#000" class="edge">
            <path fill="none" d="M4810.09 462.8c-28.9 3.18-63.13 6.69-94.09 9.2-306.98 24.85-671.29 41.83-842.24 49.06"/>
            <path d="m3873.93 524.56-10.14-3.08 9.85-3.91z"/>
        </g>
        <g stroke="#000" class="edge">
            <path fill="none" d="M4935.59 465.71c63.68 11.64 166.06 30.35 238.76 43.64"/>
            <path d="m5174.6 505.83 9.21 5.25-10.47 1.64z"/>
        </g>
        <g stroke="#000" class="edge">
            <path fill="none" d="M5030.51 239.89c227.48 2.9 854.64 14.2 1057.49 52.11 99.06 18.51 121.07 35.5 215 72 36.72 14.27 43.96 22.59 81 36 38.96 14.1 83.57 26.87 119.45 36.34"/>
            <path d="m6504.03 432.87 8.79 5.92-10.56.85z"/>
        </g>
        <g stroke="#000" class="edge">
            <path fill="none" d="M4947.23 256.46c1.35 32.45 8.81 102.49 46.77 143.54 30.66 33.15 69.35-1.16 95 36 9.09 13.17 9.12 22.86 0 36-52.21 75.2-103.49 52.75-193 72-132.16 28.43-526.28 44.36-704.6 50.3"/>
            <path d="m4191.59 597.79-10.11-3.17 9.88-3.83z"/>
        </g>
        <g stroke="#000" class="edge">
            <path fill="none" d="M4865.56 242.24c-86.3 3.43-226.53 8.99-347.56 13.76-408.88 16.1-511.82 7.17-920 36-156.87 11.08-195.33 22.42-352 36-56.15 4.87-460.05 3.36-506 36-63.79 45.31-52.38 152.89-42.52 204.46"/>
            <path d="m2700.91 567.74-1.42 10.5-5.44-9.09z"/>
        </g>
        <g stroke="#000" class="edge">
            <path fill="none" d="M4865.89 242.63c-149.88 7.04-480.27 24.12-757.89 49.37-17.55 1.6-36.27 3.6-54.19 5.67"/>
            <path d="m4054.32 301.13-10.34-2.31 9.52-4.64z"/>
        </g>
        <g stroke="#000" class="edge">
            <path fill="none" d="M4958.81 256.21c6.68 10.16 14.93 23.41 21.19 35.79 23.3 46.11 2.21 76.29 43 108 97.67 75.92 194.38-56.96 276 36 16.05 18.28 1.65 44.19-13.99 63.35"/>
            <path d="m5287.79 501.48-9.19 5.26 3.91-9.84z"/>
        </g>
        <g stroke="#000" class="edge">
            <path fill="none" d="M4697.28 463.21c28.97 3.31 63.5 6.81 94.72 8.79 776.83 49.17 974.31-15.31 1751 36 19.05 1.26 39.38 3.15 58.78 5.22"/>
            <path d="m6602.02 509.73 9.56 4.56-10.33 2.39z"/>
        </g>
        <g stroke="#000" class="edge">
            <path fill="none" d="M4630.45 472.23c-2.84 20.63-10.87 54.56-33.45 71.77-31.62 24.11-273.53 40.94-407.09 48.5"/>
            <path d="m4190.21 595.99-10.18-2.93 9.79-4.06z"/>
        </g>
        <g stroke="#000" class="edge">
            <path fill="none" d="M4576.83 466.5c-57.04 12.12-142.1 30.88-173.83 41.5-37.36 12.5-42.6 27.19-81 36-149.67 34.33-1223.02 48.67-1533.86 52.13"/>
            <path d="m2788.52 599.63-10.04-3.39 9.96-3.61z"/>
        </g>
        <g stroke="#000" class="edge">
            <path fill="none" d="m4602.05 470.88-61.32 32.52"/>
            <path d="m4542.56 506.39-10.47 1.59 7.19-7.77z"/>
        </g>
        <g class="node" transform="translate(4 616)">
            <ellipse cx="2532" cy="-90" fill="none" stroke="#000" rx="120.96" ry="18"/>
            <text x="2532" y="-84.95" font-family="Times,serif" font-size="14" text-anchor="middle">:app:core:holiday-preferences</text>
        </g>
        <g stroke="#000" class="edge">
            <path fill="none" d="M4571.02 464.86c-19.45 2.78-41.09 5.49-61.02 7.14-359.38 29.77-1461.16 46.4-1842.48 51.39"/>
            <path d="m2667.73 526.88-10.04-3.37 9.95-3.63z"/>
        </g>
        <g class="node" transform="translate(4 616)">
            <ellipse cx="5734" cy="-90" fill="none" stroke="#000" rx="110.21" ry="18"/>
            <text x="5734" y="-84.95" font-family="Times,serif" font-size="14" text-anchor="middle">:app:core:holiday-database</text>
        </g>
        <g stroke="#000" class="edge">
            <path fill="none" d="M4698.1 462.77c28.81 3.2 62.99 6.72 93.9 9.23 158.05 12.82 614.61 36.39 830.4 47.25"/>
            <path d="m5622.42 515.74 9.82 4-10.17 3z"/>
        </g>
        <g stroke="#000" class="edge">
            <path fill="none" d="M6155.43 391.54c74.62 10.14 202.21 27.8 311.57 44.46 7.41 1.13 15.12 2.33 22.83 3.56"/>
            <path d="m6490.29 436.09 9.32 5.03-10.43 1.88z"/>
        </g>
        <g stroke="#000" class="edge">
            <path fill="none" d="M6065.99 399.15c-16.47 10.33-38.13 24.14-56.99 36.85-68.72 46.31-73.44 81.62-152 108-39.81 13.37-1312.21 43.01-1665.06 50.99"/>
            <path d="m4192.12 598.49-10.08-3.28 9.92-3.72z"/>
        </g>
        <g stroke="#000" class="edge">
            <path fill="none" d="M6022.9 388.82c-46.79 3.73-110.03 8.39-165.9 11.18-72.66 3.63-1241.79 8.14-1309 36-21.49 8.91-17.3 25.39-38 36-75.7 38.82-112.3-2.82-188 36-20.7 10.61-16.54 27.03-38 36-69.39 29.01-1178.63 47.2-1495.86 51.83"/>
            <path d="m2788.31 599.33-10.05-3.36 9.94-3.64z"/>
        </g>
        <g stroke="#000" class="edge">
            <path fill="none" d="M6023.16 388.85c-46.82 3.77-110.18 8.45-166.16 11.15-660.31 31.86-826.83 1.32-1487 36-39.72 2.09-83.59 5.47-120.92 8.67"/>
            <path d="m4249.49 448.15-10.26-2.63 9.66-4.35z"/>
        </g>
        <g stroke="#000" class="edge">
            <path fill="none" d="M6140.73 395.92c42.07 11.16 103.21 27.37 149.59 39.66"/>
            <path d="m6290.94 432.13 8.77 5.94-10.56.82z"/>
        </g>
        <g class="node" transform="translate(4 616)">
            <ellipse cx="6123" cy="-162" fill="none" stroke="#000" rx="109.19" ry="18"/>
            <text x="6123" y="-156.95" font-family="Times,serif" font-size="14" text-anchor="middle">:app:core:backup-database</text>
        </g>
        <g stroke="#000" class="edge">
            <path fill="none" d="M6100.65 400.3c3.82 7.63 8.39 16.78 12.65 25.3"/>
            <path d="m6116.43 424.03 1.34 10.51-7.6-7.38z"/>
        </g>
        <g stroke="#000" class="edge">
            <path fill="none" d="M4937.39 312.15c255.72 4.7 1180.26 23.49 1308.61 51.85 40.46 8.94 46.51 23.46 86 36 52.13 16.55 112.24 29.85 159.14 38.99"/>
            <path d="m6491.51 435.5 9.15 5.32-10.48 1.55z"/>
        </g>
        <g stroke="#000" class="edge">
            <path fill="none" d="M4882.93 327.97c13.76 20.05 39.26 53.08 69.07 72.03 46.63 29.64 86.07-8.37 119 36 9.54 12.85 10.04 23.54 0 36-47.08 58.46-96.75 4.77-165 36-24.25 11.1-23.01 26.69-48 36-119.6 44.57-492.14 52.03-665.54 53.02"/>
            <path d="m4192.61 600.52-10.01-3.45 9.98-3.55z"/>
        </g>
        <g stroke="#000" class="edge">
            <path fill="none" d="M4806.91 312.77c-114.04 3.11-357.39 9.72-562.91 15.23-75.33 2.02-1289.97-.31-1356 36-42.23 23.22-88.8 144.14-121 180-9.38 10.45-20.84 20.68-31.4 29.32"/>
            <path d="m2737.82 576.04-10.01 3.5 5.64-8.98z"/>
        </g>
        <g stroke="#000" class="edge">
            <path fill="none" d="M4823.07 322.24c-10.23 2.11-20.97 4.16-31.07 5.76-145.93 23.13-317.33 38.75-417.68 46.74"/>
            <path d="m4374.8 378.21-10.25-2.7 9.7-4.27z"/>
        </g>
        <g stroke="#000" class="edge">
            <path fill="none" d="M4937.98 311.32c252.58 1.54 1149.93 9.99 1270.02 52.68 25.13 8.93 25.48 21.71 48 36 17.75 11.26 38.13 22.37 55.85 31.48"/>
            <path d="m6313.25 428.27 7.33 7.65-10.5-1.41z"/>
        </g>
        <g stroke="#000" class="edge">
            <path fill="none" d="M3002.65 395.08c8.98 2.02 18.42 3.82 27.35 4.92 379.04 46.76 3056.51 3.1 3437 36 8.59.74 17.53 1.79 26.42 3"/>
            <path d="m6493.71 435.5 9.4 4.89-10.39 2.04z"/>
        </g>
        <g stroke="#000" class="edge">
            <path fill="none" d="M3003.46 394.92c8.74 1.98 17.89 3.8 26.54 5.08 158.07 23.33 632.26 42.77 827.05 49.99"/>
            <path d="m3856.98 446.48 9.86 3.87-10.12 3.13z"/>
        </g>
        <g stroke="#000" class="edge">
            <path fill="none" d="M2943.87 399.64c-15.52 19.14-35.12 50.71-17.87 72.36 89.21 111.99 172.29 51.54 314 72 279.23 40.32 613.68 50 771.32 52.3"/>
            <path d="m4011.36 592.8 9.95 3.64-10.05 3.36z"/>
        </g>
        <g stroke="#000" class="edge">
            <path fill="none" d="M2933.37 398.79c-13.52 9.41-29.51 22.39-40.37 37.21-30.45 41.54-5.13 72.04-42 108-20.65 20.15-49.51 32.7-76.2 40.49"/>
            <path d="m2775.95 587.81-10.57-.76 8.73-6z"/>
        </g>
        <g stroke="#000" class="edge">
            <path fill="none" d="M2902.59 389.9c-97 11.87-296.55 36.29-416.96 51.03"/>
            <path d="m2486.09 444.4-10.35-2.26 9.5-4.69z"/>
        </g>
        <g stroke="#000" class="edge">
            <path fill="none" d="M2536.19 184.5c1.64 18.27 5.42 47.54 13.81 71.5 12.11 34.55 16.22 44.17 40 72 123.67 144.78 186.09 166.65 370 216 100.36 26.93 800.66 45.27 1052.25 51.05"/>
            <path d="m4012.1 591.54 9.92 3.73-10.08 3.27z"/>
        </g>
        <g stroke="#000" class="edge">
            <path fill="none" d="M2485.94 180.42C2345.68 219.69 1947.37 337.77 1858 436c-32.91 36.17-54.51 72.38-21 108 26.59 28.26 570.94 45.34 783.24 50.95"/>
            <path d="m2620.2 591.45 9.91 3.76-10.09 3.23z"/>
        </g>
        <g stroke="red" stroke-width="2" class="edge">
            <path fill="none" d="M2608.41 172.73c161.8 12.63 549.01 42.84 728.84 56.88"/>
            <path fill="red" d="m3335.81 225.98 9.7 4.27-10.25 2.71z"/>
        </g>
        <g class="node" transform="translate(4 616)">
            <ellipse cx="3031" cy="-162" fill="none" stroke="#000" rx="100.48" ry="18"/>
            <text x="3031" y="-156.95" font-family="Times,serif" font-size="14" text-anchor="middle">:app:core:filter-database</text>
        </g>
        <g stroke="#000" class="edge">
            <path fill="none" d="M2540.16 184.4c10.66 32.99 38.31 104.8 86.84 143.6 89.48 71.54 219.72 102.26 308.84 115.38"/>
            <path d="m2936.14 439.88 9.41 4.87-10.4 2.06z"/>
        </g>
        <g stroke="#000" class="edge">
            <path fill="none" d="M3609.17 314.65c-173.88 7.87-593.03 27.54-944.17 49.35-55.15 3.43-937.61 62.24-992 72-56.49 10.13-68.62 20.95-124 36-62.83 17.08-88.46-1.05-142 36-22.31 15.44-39.15 41.7-49.61 61.7"/>
            <path d="m1360.64 571.03-7.59 7.4 1.32-10.51z"/>
        </g>
        <g stroke="#000" class="edge">
            <path fill="none" d="M3682.84 328.27c-18.81 42.6-59.54 153.77-4.84 215.73 21.89 24.79 218.99 40.76 336.6 48.17"/>
            <path d="m4014.8 588.67 9.77 4.12-10.2 2.87z"/>
        </g>
        <g stroke="#000" class="edge">
            <path fill="none" d="M3630.01 322.82c-12.22 2.02-24.99 3.88-37.01 5.18-90.01 9.76-737.52-12.45-814 36-68.63 43.48-76.58 151.96-76.21 204.11"/>
            <path d="m2706.29 567.92-3.31 10.07-3.69-9.93z"/>
        </g>
        <g stroke="red" stroke-width="2" class="edge">
            <path fill="none" d="M3661.54 327.24c-17.43 9.61-39.73 21.89-58.6 32.3"/>
            <path fill="red" d="m3605.96 361.87-10.45 1.76 7.07-7.89z"/>
        </g>
        <g stroke="#000" class="edge">
            <path fill="none" d="M3697.81 328.15c14.67 36.94 49.37 124.3 67.2 169.18"/>
            <path d="m3768.16 495.78.44 10.58-6.95-8z"/>
        </g>
        <g stroke="#000" class="edge">
            <path fill="none" d="M3738.12 325.27c86.25 26.11 269.27 81.52 363.35 110.01"/>
            <path d="m4102.21 431.85 8.56 6.24-10.59.46z"/>
        </g>
        <g stroke="#000" class="edge">
            <path fill="none" d="M3763.27 319.59c29.89 3.21 64.94 6.53 96.73 8.41 55.8 3.3 1972.83-3.88 2012 36 54.25 55.23 13.03 156.94-11.78 205.62"/>
            <path d="m5863.37 571.15-7.74 7.23 1.55-10.48z"/>
        </g>
        <g stroke="#000" class="edge">
            <path fill="none" d="M3763.27 319.59c29.89 3.21 64.94 6.53 96.73 8.41 55.38 3.28 1958.12-3.58 1997 36 3.5 3.57 3.43 176.36 0 180-25.89 27.53-546.42 44.6-765.33 50.59"/>
            <path d="m5091.82 598.08-10.09-3.22 9.9-3.77z"/>
        </g>
        <g stroke="#000" class="edge">
            <path fill="none" d="M3496.3 388.02c-54.16 3.85-132.07 8.98-200.3 11.98-326.67 14.35-1148.95-20.62-1471 36-43.77 7.7-318.02 103.74-431.22 143.71"/>
            <path d="m1395.04 582.98-10.59.03 8.26-6.63z"/>
        </g>
        <g stroke="#000" class="edge">
            <path fill="none" d="M3571.54 400.39c17.95 41.4 61.9 142.46 63.46 143.61 58.02 42.68 258.14 51.7 376.75 53.19"/>
            <path d="m4011.5 593.68 9.96 3.61-10.04 3.39z"/>
        </g>
        <g stroke="#000" class="edge">
            <path fill="none" d="M3559.75 400.2c-6.04 20.6-19.22 54.49-43.75 71.8-116.52 82.21-546.43 112.26-729.06 121.47"/>
            <path d="m2787.21 596.96-10.16-3 9.82-3.99z"/>
        </g>
        <g stroke="#000" class="edge">
            <path fill="none" d="M3612.9 395.38c27.55 8.51 61.63 21.73 88.1 40.62 23.64 16.87 44.37 42.85 58.01 62.39"/>
            <path d="m3761.74 496.18 2.71 10.24-8.5-6.32z"/>
        </g>
        <g stroke="red" stroke-width="2" class="edge">
            <path fill="none" d="M3628.3 390.13c89.28 9.96 255.83 28.73 397.7 45.87 16.52 2 34.18 4.19 51.07 6.32"/>
            <path fill="red" d="m4075.56 438.6 9.48 4.73-10.36 2.22z"/>
        </g>
        <g stroke="#000" class="edge">
            <path fill="none" d="M3634.72 385.13C3913.14 393.58 4921.68 424.84 4989 436c54.93 9.11 65.53 24.44 120 36 123.6 26.24 169.81-22.11 282 36 19.27 9.98 13.72 26.03 33 36 57.54 29.74 234.66 43.63 339.95 49.41"/>
            <path d="m5763.85 589.9 9.8 4.03-10.18 2.96z"/>
        </g>
        <g stroke="#000" class="edge">
            <path fill="none" d="M3634.53 385.09c282.1 8.46 1314.64 40.1 1327.47 50.91 38.07 32.09 40.06 95.11 37.46 132.08"/>
            <path d="m5002.94 568.37-4.37 9.65-2.6-10.27z"/>
        </g>
        <g stroke="#000" class="edge">
            <path fill="none" d="M3688.76 529.51c-383.62 11.05-1917.22 55.21-2270.79 65.39"/>
            <path d="m1418.24 598.39-10.1-3.21 9.9-3.78z"/>
        </g>
        <g stroke="#000" class="edge">
            <path fill="none" d="M3835.41 539.76c56.34 12.09 140.85 30.24 199.56 42.85"/>
            <path d="m4035.47 579.13 9.04 5.53-10.51 1.32z"/>
        </g>
        <g stroke="#000" class="edge">
            <path fill="none" d="m3692.77 532.43-907.91 59.29"/>
            <path d="m2785.38 595.19-10.2-2.84 9.75-4.14z"/>
        </g>
        <g stroke="red" stroke-width="2" class="edge">
            <path fill="none" d="M3862.92 529.94c339.11 11.47 1570.59 53.14 1900.37 64.3"/>
            <path fill="red" d="m5761.74 590.68 9.87 3.84-10.11 3.16z"/>
        </g>
        <g stroke="#000" class="edge">
            <path fill="none" d="M3860.34 531.84c220.65 12.66 813.72 46.69 1043.21 59.86"/>
            <path d="m4903.57 588.19 9.78 4.07-10.19 2.92z"/>
        </g>
        <g stroke="#000" class="edge">
            <path fill="none" d="M3962.18 328.41c-3.88 23.98-10.92 67.45-15.58 96.17"/>
            <path d="m3950.07 425.08-5.06 9.32-1.85-10.44z"/>
        </g>
        <g stroke="#000" class="edge">
            <path fill="none" d="M3883.09 319.7c-31.01 3.03-66.65 6.19-99.09 8.3-444.24 28.83-556.81 6.31-1001 36-163.97 10.96-204.12 23.81-368 36-156.44 11.64-552.11.88-705 36-39.98 9.19-46.25 22.53-85 36-57.04 19.82-75.46 12.3-131 36-42.58 18.17-87.71 46.58-117 66.4"/>
            <path d="m1379.18 577.15-10.23 2.76 6.27-8.53z"/>
        </g>
        <g stroke="#000" class="edge">
            <path fill="none" d="M3973.56 328.36c11.86 24.1 33.94 69.11 52.44 107.64 22.49 46.86 48.23 101.63 63.24 133.7"/>
            <path d="m4092.38 568.13 1.06 10.54-7.4-7.57z"/>
        </g>
        <g stroke="#000" class="edge">
            <path fill="none" d="M3882.63 319.72c-30.9 3.02-66.35 6.16-98.63 8.28-53.64 3.51-921.49 7.39-967 36-37.39 23.5-83.94 148.16-103.57 204.87"/>
            <path d="m2716.8 569.81-6.55 8.33-.07-10.6z"/>
        </g>
        <g stroke="#000" class="edge">
            <path fill="none" d="M3997.78 327.31c18.54 9.76 41.83 22.91 61.22 36.69 27.55 19.58 56.2 45.43 75.92 64.23"/>
            <path d="m4137.19 425.56 4.77 9.46-9.63-4.42z"/>
        </g>
        <g stroke="#000" class="edge">
            <path fill="none" d="M4026.32 324.25c55.9 12.08 138.29 29.88 195.85 42.31"/>
            <path d="m4222.82 363.12 9.04 5.53-10.52 1.31z"/>
        </g>
        <g stroke="#000" class="edge">
            <path fill="none" d="M4040.94 321.44c21.62 2.59 45.24 5.05 67.06 6.56 50.44 3.49 1780.25 4.75 1820 36 32.14 25.27 60.37 145.78 38 180-12.34 18.88-33.06 31.08-53.9 38.94"/>
            <path d="m5913.26 586.24-10.59-.07 8.32-6.55z"/>
        </g>
        <g stroke="#000" class="edge">
            <path fill="none" d="M4044.79 320.49c20.6 2.45 42.73 5.08 63.21 7.51 50.55 6 873.4 72.61 910 108 34.68 33.54 24.26 61.61 11 108-2.67 9.34-7.51 18.63-12.68 26.76"/>
            <path d="m5019.37 572.51-8.53 6.28 2.75-10.23z"/>
        </g>
        <g stroke="#000" class="edge">
            <path fill="none" d="M4414.48 530.15c-102.52 3.69-279.54 9.83-431.48 13.85-1017.17 26.94-2255.29 47.03-2565.1 51.88"/>
            <path d="m1418.41 599.37-10.06-3.34 9.95-3.66z"/>
        </g>
        <g stroke="#000" class="edge">
            <path fill="none" d="M4435.17 538.4c-71.55 12.59-186.41 32.79-260.83 45.88"/>
            <path d="m4175.15 587.69-10.45-1.72 9.24-5.18z"/>
        </g>
        <g stroke="#000" class="edge">
            <path fill="none" d="M4428.9 536.87c-22.04 2.73-46.44 5.41-68.9 7.13-601 46.02-1327.66 52.21-1571.58 52.94"/>
            <path d="m2788.69 600.44-10.01-3.47 9.99-3.53z"/>
        </g>
        <g stroke="#000" class="edge">
            <path fill="none" d="M4584.14 531.38c242.74 12.63 942.16 49.03 1180.32 61.43"/>
            <path d="m5764.47 589.3 9.81 4.02-10.17 2.97z"/>
        </g>
        <g stroke="#000" class="edge">
            <path fill="none" d="M4570.8 536.99c91.05 12.85 248.81 35.12 344.44 48.61"/>
            <path d="m4915.67 582.13 9.42 4.86-10.39 2.07z"/>
        </g>
        <g stroke="#000" class="edge">
            <path fill="none" d="M4107.92 468.71c-35.57 9.82-83.56 23.98-124.92 39.29-36.94 13.68-42.55 27.42-81 36-62.21 13.88-2070.81 45.51-2483.38 51.87"/>
            <path d="m1418.74 599.37-10.05-3.34 9.94-3.66z"/>
        </g>
        <g stroke="#000" class="edge">
            <path fill="none" d="M4152.89 472.41c-9.88 24.19-27.87 68.23-39.6 96.94"/>
            <path d="m4116.58 570.55-7.02 7.94.54-10.58z"/>
        </g>
        <g stroke="#000" class="edge">
            <path fill="none" d="M4135.27 471.74c-33.04 21.32-94.17 57.2-152.27 72.26-114.92 29.79-929.09 46.78-1195.12 51.58"/>
            <path d="m2788.33 599.07-10.06-3.32 9.94-3.68z"/>
        </g>
        <g stroke="red" stroke-width="2" class="edge">
            <path fill="none" d="M4096.59 466.56c-67.23 12.26-173.4 31.61-244.95 44.65"/>
            <path fill="red" d="m3853.91 514.36-10.47-1.65 9.21-5.24z"/>
        </g>
        <g stroke="#000" class="edge">
            <path fill="none" d="M4238.75 461.84c39.39 3.3 87.82 7.18 131.25 10.16 284.23 19.5 359.46-13.6 640 36 54.41 9.62 64.67 25.9 119 36 226.39 42.09 498.91 51.03 633.08 52.75"/>
            <path d="m5761.98 593.25 9.96 3.62-10.04 3.38z"/>
        </g>
        <g stroke="#000" class="edge">
            <path fill="none" d="M4194.54 470.94c46.35 20.61 131.73 55.89 208.46 73.06 172.22 38.53 378.5 49.24 496.8 52.1"/>
            <path d="m4899.54 592.59 9.92 3.73-10.08 3.27z"/>
        </g>
        <g stroke="#000" class="edge">
            <path fill="none" d="M4211.56 385.2c-121.09 3.39-362.62 10.03-567.56 14.8-198.43 4.61-1593.04-10.5-1786 36-35.56 8.57-40.06 22.37-74 36-97.04 38.97-123.4 43.47-224 72-52.28 14.83-112.39 29.44-155.73 39.56"/>
            <path d="m1405.08 586.96-10.54-1.15 8.95-5.67z"/>
        </g>
        <g stroke="#000" class="edge">
            <path fill="none" d="M4364.51 387.02C4480.89 394 4693.16 410.14 4716 436c10.59 11.99 7.05 21.63 0 36-23.02 46.93-44.46 52.61-93 72-76.27 30.47-304.39 44.33-432.03 49.85"/>
            <path d="m4191.35 597.34-10.14-3.08 9.84-3.92z"/>
        </g>
        <g stroke="#000" class="edge">
            <path fill="none" d="M4287.09 400.14c-3.1 19.91-11.07 52.5-31.09 71.86-72.74 70.35-116.45 53.81-216 72-241.76 44.17-997.6 51.53-1251.7 52.76"/>
            <path d="m2788.47 600.25-10.02-3.45 9.99-3.55z"/>
        </g>
        <g stroke="#000" class="edge">
            <path fill="none" d="M4212.22 386.11c-106.87 5.4-294.11 19.03-354.22 49.89-14.77 7.58-42.55 39.72-61.65 63.2"/>
            <path d="m3799.2 501.24-9 5.6 3.55-9.98z"/>
        </g>
        <g stroke="#000" class="edge">
            <path fill="none" d="M4259.4 399.06c-17.65 9.58-40.3 21.87-59.52 32.3"/>
            <path d="m4201.69 434.36-10.46 1.69 7.12-7.84z"/>
        </g>
        <g stroke="#000" class="edge">
            <path fill="none" d="M4365.87 385.98c133.21 5.76 415.4 20.5 652.13 50.02 181.85 22.67 226.1 37.04 406 72 127.3 24.74 275.53 56.85 357.78 74.96"/>
            <path d="m5782.44 579.52 9.02 5.57-10.52 1.27z"/>
        </g>
        <g stroke="#000" class="edge">
            <path fill="none" d="M4365.83 386c178.55 7.33 607.94 27.26 629.17 50 33.22 35.58 21.7 97.26 10.95 133.06"/>
            <path d="m5009.38 569.81-6.38 8.46-.29-10.59z"/>
        </g>
        <g stroke="#000" class="edge">
            <path fill="none" d="M3345.64 244.16c-133.33 8.27-397.24 25.8-620.64 47.84-524.03 51.7-665.95 13.13-1176 144-83.46 21.42-122.74 7.61-180 72-14.73 16.56-20.54 41.24-22.78 60.42"/>
            <path d="m1349.71 568.64-4.35 9.65-2.62-10.26z"/>
        </g>
        <g stroke="#000" class="edge">
            <path fill="none" d="M3429.4 256.43c-3.76 32.1-7 101.14 26.6 143.57 19.31 24.38 35.91 16.33 60 36 50.44 41.18 40.9 78.59 99 108 67.44 34.14 276.05 46.42 397.25 50.74"/>
            <path d="m4012.31 591.24 9.87 3.84-10.11 3.16z"/>
        </g>
        <g stroke="#000" class="edge">
            <path fill="none" d="M3354.4 247.87C3145.11 272.09 2582.59 339.16 2551 364c-40.61 31.94-1.81 76.81-43 108-61.28 46.4-292.56-21.11-344 36-10.71 11.89-10.75 24.15 0 36 30.01 33.1 312.17 46.25 456.22 50.84"/>
            <path d="m2620.22 591.34 9.88 3.81-10.1 3.18z"/>
        </g>
        <g stroke="red" stroke-width="2" class="edge">
            <path fill="none" d="M3484.41 253.17c41.97 11.34 100.93 27.27 145.12 39.22"/>
            <path fill="red" d="m3628.77 288.55 8.74 5.99-10.57.77z"/>
        </g>
        <g stroke="#000" class="edge">
            <path fill="none" d="M3447.92 256.13c23.12 24.87 66.12 71.12 92.8 99.82"/>
            <path d="m3543.16 353.44 4.24 9.7-9.37-4.94z"/>
        </g>
        <g stroke="#000" class="edge">
            <path fill="none" d="M3432.72 256.34C3435 288.9 3444.5 359.54 3484 400c33.88 34.7 58.11 17.65 103 36 51.55 21.08 109.26 48.89 147.19 67.78"/>
            <path d="m3735.61 500.58 7.38 7.6-10.51-1.34z"/>
        </g>
        <g stroke="#000" class="edge">
            <path fill="none" d="M3520.52 242.73c170.91 7.45 558.18 25.51 883.48 49.27 174.93 12.78 217.93 25.27 393 36 64.19 3.93 1105.91-3.06 1157 36 32.22 24.63 53.01 146.61 30 180-15 21.77-40.22 34.6-65.1 42.17"/>
            <path d="m5919.94 589.51-10.57-.72 8.72-6.03z"/>
        </g>
        <g stroke="#000" class="edge">
            <path fill="none" d="M3520.81 242.52c149.54 6.44 460.97 22.05 723.19 49.48 222.86 23.32 278.59 31.67 499 72 72.55 13.28 601.85 86.47 648 144 10.01 12.48 10.53 23.96 0 36-19.66 22.48-192.44 38.74-302.88 46.95"/>
            <path d="m5088.37 594.44-10.23-2.76 9.72-4.22z"/>
        </g>
        <g stroke="#000" class="edge">
            <path fill="none" d="M3161.48 400.38c-.73 20.14 1.44 52.94 20.52 71.62 116.23 113.75 620.83 125.84 829.34 125.86"/>
            <path d="m4011.02 594.36 10.01 3.49-10 3.51z"/>
        </g>
        <g stroke="#000" class="edge">
            <path fill="none" d="M3132.34 399.77c-17.1 9.35-38.6 21.11-57.05 31.19"/>
            <path d="m3077.19 433.92-10.45 1.72 7.09-7.87z"/>
        </g>
        <g class="node" transform="translate(4 616)">
            <ellipse cx="5503" cy="-162" fill="none" stroke="#000" rx="80.01" ry="18"/>
            <text x="5503" y="-156.95" font-family="Times,serif" font-size="14" text-anchor="middle">:library:koin-room</text>
        </g>
        <g stroke="#000" class="edge">
            <path fill="none" d="M3275.5 389.75c61.56 3.49 139.21 7.57 208.5 10.25 656.59 25.38 821.17 17.76 1478 36 160.23 4.45 346.94 10.45 454.99 14"/>
            <path d="m5417.09 446.51 9.88 3.82-10.11 3.17z"/>
        </g>
        <g class="node" transform="translate(4 616)">
            <ellipse cx="4436" cy="-162" fill="none" stroke="#000" rx="60.56" ry="18"/>
            <text x="4436" y="-156.95" font-family="Times,serif" font-size="14" text-anchor="middle">:library:room</text>
        </g>
        <g stroke="#000" class="edge">
            <path fill="none" d="M3277.01 389.21c61.34 3.3 138.29 7.37 206.99 10.79 343.06 17.08 429.34 12.19 772 36 38.53 2.68 81.51 6.6 116.24 10"/>
            <path d="m4372.57 442.51 9.61 4.47-10.3 2.5z"/>
        </g>
        <g stroke="#000" class="edge">
            <path fill="none" d="M5244.52 396.55c30.89 7.94 65.23 20.31 92.48 39.45 43.92 30.84 91.16 69.28 54 108-20.78 21.65-910.75 44.21-1199.54 50.97"/>
            <path d="m4191.8 598.46-10.07-3.26 9.91-3.73z"/>
        </g>
        <g stroke="#000" class="edge">
            <path fill="none" d="M5257.59 395.02c15.81 1.82 32.07 3.56 47.41 4.98 251.7 23.27 547.7 39.67 706.83 47.6"/>
            <path d="m6011.72 444.09 9.82 3.99-10.17 3z"/>
        </g>
        <g stroke="#000" class="edge">
            <path fill="none" d="M5235.07 397.5c59.54 12.16 144.02 29.4 202.97 41.43"/>
            <path d="m5438.52 435.45 9.1 5.43-10.5 1.43z"/>
        </g>
        <g stroke="#000" class="edge">
            <path fill="none" d="M5038.67 387.97C4907.5 394.41 4695.88 408.26 4515 436c-6.1.94-12.45 2.09-18.75 3.35"/>
            <path d="m4497 442.77-10.5-1.37 9.06-5.48z"/>
        </g>
        <g stroke="#000" class="edge">
            <path fill="none" d="M3497.76 460.45c363.51 13.31 1292.06 47.33 1633.63 59.84"/>
            <path d="m5131.42 516.79 9.87 3.86-10.13 3.13z"/>
        </g>
        <g class="node" transform="translate(4 616)">
            <ellipse cx="2262" cy="-90" fill="none" stroke="#000" rx="93.32" ry="18"/>
            <text x="2262" y="-84.95" font-family="Times,serif" font-size="14" text-anchor="middle">:library:koin-datastore</text>
        </g>
        <g stroke="#000" class="edge">
            <path fill="none" d="M3226.83 465.82c-27.25 2.22-56.01 4.41-82.83 6.18-327.68 21.57-410.79 8.19-738 36-17.49 1.49-36.17 3.47-54 5.57"/>
            <path d="m2352.58 517.02-10.34-2.29 9.51-4.66z"/>
        </g>
        <g stroke="#000" class="edge">
            <path fill="none" d="M5513.47 396.77c52.3 13.25 108.63 36.99 82.53 75.23-3.09 4.53-178.63 70.87-184 72-118.45 24.84-944.22 44.99-1220.32 51.09"/>
            <path d="m4192.1 598.59-10.07-3.28 9.92-3.72z"/>
        </g>
        <g stroke="#000" class="edge">
            <path fill="none" d="M5526.84 395.07c15.36 1.85 31.21 3.58 46.16 4.93 297.89 26.84 374.48 5.32 672 36 9.03.93 18.45 2.09 27.81 3.35"/>
            <path d="m6273.27 435.88 9.41 4.85-10.39 2.08z"/>
        </g>
        <g stroke="#000" class="edge">
            <path fill="none" d="M5455.81 400.3c8.19 8.43 18.19 18.73 27.16 27.97"/>
            <path d="m5485.34 425.68 4.46 9.61-9.48-4.73z"/>
        </g>
        <g stroke="#000" class="edge">
            <path fill="none" d="M5351.53 395.13c-15.48 1.85-31.46 3.57-46.53 4.87-350.18 30.14-441.69-11.03-790 36-6.36.86-12.97 1.99-19.52 3.27"/>
            <path d="m4496.56 442.62-10.5-1.4 9.08-5.45z"/>
        </g>
        <g stroke="#000" class="edge">
            <path fill="none" d="M1947.46 470.11c-56.14 14.33-117.31 38.91-84.46 73.89 25.66 27.33 549.51 44.88 757.22 50.78"/>
            <path d="m2620.24 591.28 9.9 3.78-10.09 3.22z"/>
        </g>
        <g stroke="#000" class="edge">
            <path fill="none" d="M2122.42 468.46c90.67 12.39 224.51 30.69 315.18 43.09"/>
            <path d="m2438.05 508.08 9.44 4.82-10.39 2.11z"/>
        </g>
        <g stroke="#000" class="edge">
            <path fill="none" d="M2080.13 471.24c37.36 10.8 86.44 25 124.78 36.09"/>
            <path d="m2205.84 503.96 8.64 6.14-10.58.58z"/>
        </g>
        <g stroke="#000" class="edge">
            <path fill="none" d="M5698.16 400.15C5661.3 436.22 5568.95 518.69 5472 544c-61.9 16.16-986.16 42.56-1280.61 50.6"/>
            <path d="m4191.54 598.1-10.1-3.23 9.91-3.77z"/>
        </g>
        <g stroke="#000" class="edge">
            <path fill="none" d="M5717.82 400.41c3.88 23.98 10.92 67.45 15.58 96.17"/>
            <path d="m5736.84 495.96-1.85 10.44-5.06-9.32z"/>
        </g>
        <g stroke="#000" class="edge">
            <path fill="none" d="M5666.76 399.24c-31.7 10.66-73.21 24.63-105.98 35.66"/>
            <path d="m5562.06 438.16-10.59-.13 8.36-6.5z"/>
        </g>
        <g stroke="#000" class="edge">
            <path fill="none" d="M5622.31 395.25c-16.41 1.84-33.34 3.52-49.31 4.75-469.12 36-591.38-24.27-1058 36-6.36.82-12.98 1.93-19.53 3.2"/>
            <path d="m4496.55 442.55-10.5-1.41 9.09-5.45z"/>
        </g>
        <g stroke="#000" class="edge">
            <path fill="none" d="M1629.01 247.13c-113.93 13.06-337.03 38.62-457.74 52.44"/>
            <path d="m1171.75 303.04-10.33-2.34 9.53-4.61z"/>
        </g>
        <g stroke="#000" class="edge">
            <path fill="none" d="M1690.66 256.25c-12.41 21-36.43 55.63-67.66 71.75-38.67 19.96-297.35 38.08-447.18 47.06"/>
            <path d="m1176.04 378.55-10.19-2.9 9.77-4.08z"/>
        </g>
        <g stroke="#000" class="edge">
            <path fill="none" d="M1730.51 255.06c18.29 9.62 41.77 21.98 61.64 32.44"/>
            <path d="m1793.61 284.31 7.22 7.76-10.48-1.56z"/>
        </g>
        <g stroke="#000" class="edge">
            <path fill="none" d="M1622.57 243.96c-57.09 3.58-136.65 8.4-206.57 12.04-45.09 2.35-775.35 9.63-812 36-22.18 15.96-44.23 90.92-55.07 132.7"/>
            <path d="m552.34 425.47-5.85 8.83-.93-10.55z"/>
        </g>
        <g stroke="#000" class="edge">
            <path fill="none" d="M1696.79 256.43c-4.74 20.5-15.68 53.98-38.79 71.57-74.65 56.82-115.83 18.47-208 36-77.37 14.72-284.06 24.66-347 72-40.67 30.59-70.46 68.82-38 108 25.89 31.26 133.62 44.22 207.64 49.5"/>
            <path d="m1272.5 589.98 9.75 4.17-10.22 2.81z"/>
        </g>
        <g stroke="#000" class="edge">
            <path fill="none" d="M1663.57 254.36c-24.33 10.26-56.54 23.85-82.76 34.9"/>
            <path d="m1582.31 292.43-10.57.66 7.85-7.11z"/>
        </g>
        <g stroke="#000" class="edge">
            <path fill="none" d="M1773.41 246.15c59.43 7.49 136.32 21.61 155.59 45.85 38.28 48.15-58.59 72.19-83 144-6.5 19.12-7.89 98.15 2 108 19.5 19.42 1746.16 45.65 2163.81 51.71"/>
            <path d="m4011.73 592.21 9.95 3.65-10.05 3.35z"/>
        </g>
        <g stroke="#000" class="edge">
            <path fill="none" d="M1701.88 256.49c1.13 19.64-.17 51.38-16.88 71.51-29.64 35.7-62.13 6.57-98 36-62.81 51.54-92.77 126.06-32 180 39.71 35.24 806.71 48.51 1064.96 51.99"/>
            <path d="m2619.67 592.49 9.95 3.63-10.04 3.36z"/>
        </g>
        <g stroke="#000" class="edge">
            <path fill="none" d="M1622.57 244c-57.08 3.6-136.65 8.43-206.57 12-377.62 19.3-473.13 5.35-850 36-18.61 1.51-38.54 3.62-57.39 5.83"/>
            <path d="M509.19 301.29 498.85 299l9.51-4.66z"/>
        </g>
        <g stroke="#000" class="edge">
            <path fill="none" d="M1774.44 245.75c42.34 3.6 96.38 7.78 144.56 10.25 642.02 32.89 803.61 11.26 1446 36 79.2 3.05 169.16 7.84 234.49 11.56"/>
            <path d="m3599.68 300.07 9.79 4.06-10.19 2.93z"/>
        </g>
        <g stroke="#000" class="edge">
            <path fill="none" d="M1776.01 244.93c42.13 3.28 95.46 7.42 142.99 11.07 602.33 46.26 1328.8 101.15 1565.97 119.04"/>
            <path d="m3485.01 371.53 9.71 4.25-10.24 2.73z"/>
        </g>
        <g stroke="#000" class="edge">
            <path fill="none" d="M1021.85 255.59c11.1 8.83 24.95 19.84 37.18 29.57"/>
            <path d="m1061.16 282.38 5.65 8.97-10.01-3.49z"/>
        </g>
        <g stroke="#000" class="edge">
            <path fill="none" d="M985.47 255.88C970.4 274.4 951.73 304.61 966 328c9.06 14.86 23.77 25.73 39.27 33.61"/>
            <path d="m1006.55 358.34 7.59 7.39-10.54-1.04z"/>
        </g>
        <g stroke="#000" class="edge">
            <path fill="none" d="M1065.59 244.43c147.15 12.38 507.58 42.71 676.84 56.95"/>
            <path d="m1742.61 297.88 9.67 4.33-10.26 2.65z"/>
        </g>
        <g stroke="#000" class="edge">
            <path fill="none" d="M932.1 239.25C768.54 240.54 367.49 248.21 327 292c-58.85 63.66 81.15 119.76 162.23 145.72"/>
            <path d="m489.84 434.24 8.49 6.33-10.59.35z"/>
        </g>
        <g stroke="#000" class="edge">
            <path fill="none" d="M932.39 240.04C746.85 243.32 244.74 255.5 180 292c-41.99 23.68-62 40.79-62 89v74c0 113.76 128.6 65.91 240 89 174.53 36.18 715.73 48.54 913.59 51.92"/>
            <path d="m1271.55 592.41 9.94 3.67-10.06 3.33z"/>
        </g>
        <g stroke="#000" class="edge">
            <path fill="none" d="M1064.04 245.43c85.41 8.99 242.54 26.47 375.96 46.57 7.49 1.13 15.3 2.4 23.08 3.72"/>
            <path d="m1463.67 292.27 9.25 5.15-10.45 1.74z"/>
        </g>
        <g stroke="#000" class="edge">
            <path fill="none" d="M994.62 256.2c-6.08 19.67-12.08 51.72 4.38 71.8 51.72 63.09 101.32 14.42 180 36 232.62 63.81 274.69 136.81 512 180 116.05 21.12 1896.54 46.13 2320.77 51.81"/>
            <path d="m4011.57 592.31 9.95 3.63-10.05 3.37z"/>
        </g>
        <g stroke="#000" class="edge">
            <path fill="none" d="M933.29 241.72C763.21 248.89 330.03 269.29 309 292c-22.57 24.37 15.79 97.36 25 108 159.42 184.15 606.46 135.5 715 144 600.56 47.05 1326.83 52.59 1570.62 53.05"/>
            <path d="m2619.36 593.55 9.99 3.51-10 3.49z"/>
        </g>
        <g stroke="#000" class="edge">
            <path fill="none" d="M937.37 245.07C846.42 253.98 674.1 271.77 528 292c-8.3 1.15-16.96 2.44-25.59 3.78"/>
            <path d="m503.05 299.22-10.42-1.89 9.33-5.02z"/>
        </g>
        <g stroke="#000" class="edge">
            <path fill="none" d="M1048.53 251.44c80.78 20.48 250.32 60.62 396.47 76.56 408.99 44.61 1439.94 18.97 1851 36 63.58 2.63 135.54 7.29 188.88 11.07"/>
            <path d="m3485.07 371.57 9.72 4.2-10.22 2.78z"/>
        </g>
        <g stroke="#000" class="edge">
            <path fill="none" d="M1199.8 184.13c-22.06 24.87-63.11 71.12-88.57 99.82"/>
            <path d="m1114.12 285.96-9.25 5.16 4.01-9.8z"/>
        </g>
        <g stroke="#000" class="edge">
            <path fill="none" d="M1129.03 170.74C1052.54 176.09 948.88 189 923 220c-25.95 31.08 28.78 102.77 34 108 14.43 14.44 33.55 25.46 51.91 33.61"/>
            <path d="m1010.02 358.28 7.87 7.09-10.58-.64z"/>
        </g>
        <g stroke="#000" class="edge">
            <path fill="none" d="M1301.73 170.27c151.05 6.39 450.14 22.34 489.27 49.73 20.01 14.01 30.77 40.12 36.37 60.45"/>
            <path d="m1830.76 279.61-1.02 10.54-5.78-8.88z"/>
        </g>
        <g stroke="#000" class="edge">
            <path fill="none" d="M1131.09 172.14C916.4 186.16 360.42 228.35 309 292c-21.39 26.48 18.29 101.84 25 108 36.98 33.98 92.67 46.87 137.12 51.46"/>
            <path d="m471.3 447.96 9.65 4.38-10.27 2.59z"/>
        </g>
        <g stroke="#000" class="edge">
            <path fill="none" d="M1125.95 166.92C974.52 168.08 657.65 176.13 394 220 224.3 248.24 42 208.97 42 381v74c0 55.94 37.8 66.47 89 89 104.07 45.79 893.76 52.04 1140.54 52.88"/>
            <path d="m1271.37 593.38 9.99 3.53-10.01 3.47z"/>
        </g>
        <g stroke="#000" class="edge">
            <path fill="none" d="M1282.47 177.99c40.15 8.17 91.33 21.52 133.53 42.01 34.64 16.82 69.22 44.51 91.91 64.54"/>
            <path d="m1510.06 281.77 5.1 9.29-9.78-4.09z"/>
        </g>
        <g stroke="#000" class="edge">
            <path fill="none" d="M1302.38 169.42c207.13 6.15 716.03 23.81 788.62 50.58 61.63 22.73 118 23.31 118 89v74c0 40.45 10.84 61.69-19 89-97.11 88.88-206.75-62.58-294 36-10.6 11.98-11.18 24.55 0 36 18.79 19.25 1704.26 45.54 2116.02 51.68"/>
            <path d="m4011.79 592.18 9.95 3.65-10.05 3.35z"/>
        </g>
        <g stroke="#000" class="edge">
            <path fill="none" d="M1212.6 184.38c-8.89 67.52-36.75 310.98 16.4 359.62 51.5 47.13 1084.4 52.43 1390.33 52.96"/>
            <path d="m2619.26 593.46 10 3.52-10.01 3.48z"/>
        </g>
        <g stroke="#000" class="edge">
            <path fill="none" d="M1138.45 175.38C1059.22 184.52 932 200.48 823 220c-118.08 21.14-254.18 53.28-332.74 72.6"/>
            <path d="m491.12 296-10.55-1.01 8.87-5.79z"/>
        </g>
        <g stroke="#000" class="edge">
            <path fill="none" d="M1303.36 168.44C1700.09 175 3307.24 202.44 3532 220c240.51 18.79 320.33-32 538 72 20.99 10.03 17.01 25.97 38 36 54.21 25.92 228.44-9.23 268 36 10.53 12.04 6.42 21.34 0 36-9.46 21.61-29.54 14.39-39 36-6.42 14.66-9.4 23.05 0 36 16.83 23.17 44.04 36.41 71.44 43.91"/>
            <path d="m4409.01 512.44 8.86 5.8-10.54 1z"/>
        </g>
        <g stroke="#000" class="edge">
            <path fill="none" d="M1302.25 169.75c350.45 11.07 1654.72 52.25 2028.84 64.06"/>
            <path d="m3331.02 230.31 9.89 3.81-10.11 3.19z"/>
        </g>
        <g class="node" transform="translate(4 616)">
            <ellipse cx="757" cy="-306" fill="none" stroke="#000" rx="115.33" ry="18"/>
            <text x="757" y="-300.95" font-family="Times,serif" font-size="14" text-anchor="middle">:app:core:calendar-compose</text>
        </g>
        <g stroke="#000" class="edge">
            <path fill="none" d="M1129.09 170.71c-67.17 5.3-161.8 18.17-239.09 49.29-38.44 15.48-76.8 44.04-101.57 64.64"/>
            <path d="m790.99 287.06-9.89 3.79 5.37-9.14z"/>
        </g>
        <g stroke="#000" class="edge">
            <path fill="none" d="M1933.18 244.78c-41.54 3.32-94.8 7.55-142.18 11.22-221.42 17.15-482.18 36.66-614.89 46.53"/>
            <path d="m1176.58 306.01-10.23-2.75 9.71-4.23z"/>
        </g>
        <g stroke="#000" class="edge">
            <path fill="none" d="M1996.13 256.05c-12.03 21.13-35.68 56.26-67.13 71.95-65.3 32.58-530.72 46.29-748.35 50.96"/>
            <path d="m1180.8 382.46-10.07-3.29 9.92-3.71z"/>
        </g>
        <g stroke="#000" class="edge">
            <path fill="none" d="M1967.68 254.19c-25.21 10.26-58.74 23.9-86.03 35.01"/>
            <path d="m1883.12 292.38-10.58.53 7.95-7.01z"/>
        </g>
        <g stroke="#000" class="edge">
            <path fill="none" d="M1934.21 245.48c-41.66 3.6-95.39 7.88-143.21 10.52-64.04 3.54-1099 3-1154 36-23.73 14.24-47.8 84.25-62 108-5.14 8.6-10.87 17.89-16.1 26.27"/>
            <path d="m561.94 428.01-8.28 6.62 2.35-10.33z"/>
        </g>
        <g stroke="#000" class="edge">
            <path fill="none" d="M2001.99 256.42c-4.5 20.49-15.06 53.96-37.99 71.58-74.39 57.17-116.75 14.22-208 36-209.61 50.04-335.61-29.82-463 144-15.3 20.87 3.28 46.56 22.34 64.97"/>
            <path d="m1317.58 570.27 5.03 9.33-9.75-4.16z"/>
        </g>
        <g stroke="#000" class="edge">
            <path fill="none" d="M1941.48 248.44c-85.93 12.77-239.04 35.53-331.13 49.21"/>
            <path d="m1611.06 301.09-10.41-2 9.38-4.93z"/>
        </g>
        <g stroke="#000" class="edge">
            <path fill="none" d="M2010.77 256.28c5.17 18.34 10.74 47.91 2.23 71.72-13.92 38.96-25.37 47.91-59 72-37.05 26.53-70.04-1.45-96 36-11.65 16.81-10.58 93.12 5 108 19.76 18.88 1732.75 45.49 2148.74 51.68"/>
            <path d="m4011.62 592.18 9.95 3.64-10.05 3.36z"/>
        </g>
        <g stroke="#000" class="edge">
            <path fill="none" d="M2007.29 256.3c1.6 19.75.97 51.88-16.29 71.7-36.29 41.67-66.12 19.97-119 36-105.35 31.94-171.44-16.44-237 72-26.11 35.22 37.09 107.42 38 108 78.83 50.33 714.5 53.82 946.58 53.39"/>
            <path d="m2619.46 593.89 10.01 3.48-10 3.52z"/>
        </g>
        <g stroke="#000" class="edge">
            <path fill="none" d="M1934.21 245.5c-41.66 3.6-95.39 7.88-143.21 10.5-527.01 28.91-660.23 3.03-1187 36-29.57 1.85-61.81 4.67-90.69 7.48"/>
            <path d="m513.81 302.94-10.3-2.5 9.61-4.46z"/>
        </g>
        <g stroke="#000" class="edge">
            <path fill="none" d="M2048.5 253.09C2179.45 294.82 2582.16 418.26 2926 472c268.73 42 590.17 51.01 749.79 52.75"/>
            <path d="m3675.53 521.25 9.96 3.6-10.03 3.4z"/>
        </g>
        <g stroke="#000" class="edge">
            <path fill="none" d="M2081.81 239.54c247.15 2.1 1044.14 11.8 1702.19 52.46 28.52 1.76 59.5 4.4 87.64 7.08"/>
            <path d="m3871.97 295.6 9.62 4.44-10.29 2.53z"/>
        </g>
        <g stroke="#000" class="edge">
            <path fill="none" d="M1273.21 253.42c-36.78 11.1-87.75 26.48-126.75 38.24"/>
            <path d="m1147.57 294.98-10.58-.46 8.56-6.24z"/>
        </g>
        <g stroke="#000" class="edge">
            <path fill="none" d="M1296.37 255.61c-27.93 18.56-75.09 49.05-117.37 72.39-20.45 11.29-43.68 22.68-63.5 31.99"/>
            <path d="m1117.09 363.11-10.54 1.05 7.59-7.39z"/>
        </g>
        <g stroke="#000" class="edge">
            <path fill="none" d="M1391.65 248.66c94.04 12.86 259.99 35.54 359.41 49.14"/>
            <path d="m1751.32 294.3 9.43 4.82-10.38 2.12z"/>
        </g>
        <g stroke="#000" class="edge">
            <path fill="none" d="M1240.33 244.67c-47.05 3.3-107.55 7.55-161.33 11.33-57 4-471.05-2.8-513 36-36.07 33.36-34.22 95.66-29.31 132.21"/>
            <path d="m540.14 423.63-1.95 10.41-4.97-9.36z"/>
        </g>
        <g stroke="#000" class="edge">
            <path fill="none" d="M1241.19 245.06c-47.16 3.46-108.06 7.74-162.19 10.94-83.51 4.93-679.59-5.89-752 36-40.66 23.52-57 42.03-57 89v74c0 101.29 759.83 132.63 1001.87 140.05"/>
            <path d="m1271.94 591.55 9.89 3.8-10.1 3.2z"/>
        </g>
        <g stroke="#000" class="edge">
            <path fill="none" d="M1365.91 253.76c33.19 10.91 78.52 25.8 113.75 37.38"/>
            <path d="m1480.4 287.7 8.41 6.45-10.6.2z"/>
        </g>
        <g stroke="#000" class="edge">
            <path fill="none" d="M1328.57 256.1c9.39 19.57 27.07 51.54 50.43 71.9 169.65 147.88 238.97 164.25 458 216 107.35 25.37 1766.01 46.98 2174.58 51.93"/>
            <path d="m4011.55 592.43 9.96 3.62-10.05 3.38z"/>
        </g>
        <g stroke="#000" class="edge">
            <path fill="none" d="M1308.5 255.97c-36.1 51.17-133.03 205.54-53.5 288.03 47.55 49.32 1062.1 53.08 1364.6 53.11"/>
            <path d="m2619.4 593.61 10 3.5-10 3.5z"/>
        </g>
        <g stroke="#000" class="edge">
            <path fill="none" d="M1240.62 244.75c-47.1 3.34-107.73 7.6-161.62 11.25-244.85 16.6-307.19 7.98-551 36-8.67 1-17.73 2.22-26.71 3.55"/>
            <path d="m501.88 299-10.41-1.95 9.36-4.97z"/>
        </g>
        <g stroke="#000" class="edge">
            <path fill="none" d="M1338.64 255.95c22.64 20.69 64.09 55.01 106.36 72.05 310.3 125.11 424.7 11.31 745 108 35.78 10.8 39.68 27.16 76 36 136.03 33.11 1095.3 47.85 1410.16 51.84"/>
            <path d="m3676.06 520.34 9.96 3.62-10.05 3.38z"/>
        </g>
        <g stroke="#000" class="edge">
            <path fill="none" d="M1401.65 244.68c57.71 3.84 137.28 8.67 207.35 11.32 966.11 36.49 1209.67-17.24 2175 36 28.79 1.59 60.09 4.21 88.44 6.92"/>
            <path d="m3872.44 295.4 9.61 4.46-10.29 2.51z"/>
        </g>
        <g class="node" transform="translate(4 616)">
            <ellipse cx="2007" cy="-90" fill="none" stroke="#000" rx="106.11" ry="18"/>
            <text x="2007" y="-84.95" font-family="Times,serif" font-size="14" text-anchor="middle">:library:firebase-common</text>
        </g>
        <g stroke="#000" class="edge">
            <path fill="none" d="M2315.84 468.25c-63.8 11.88-157.34 29.29-223.96 41.69"/>
            <path d="m2092.56 513.38-10.47-1.61 9.19-5.28z"/>
        </g>
        <g stroke="#000" class="edge">
            <path fill="none" d="M6317.06 470.98c-48.37 19.37-133.71 52.03-209.06 73.02-64.4 17.94-139.27 32.43-192.62 41.69"/>
            <path d="m5916.28 589.09-10.45-1.76 9.26-5.14z"/>
        </g>
        <g stroke="#000" class="edge">
            <path fill="none" d="M5763.9 543.95c14 9.16 31.48 20.59 46.62 30.49"/>
            <path d="m5812.35 571.46 6.46 8.4-10.29-2.54z"/>
        </g>
        <g stroke="#000" class="edge">
            <path fill="none" d="M6122.64 472.27c-6.07 20.35-19.05 53.67-42.64 71.73-43.35 33.19-103.59 46.31-152.23 51.2"/>
            <path d="m5928.09 598.69-10.27-2.6 9.65-4.38z"/>
        </g>
        <g stroke="#000" class="edge">
            <path fill="none" d="M4396.72 467.02c-29.83 9.16-69.87 23.21-102.72 40.98-23.45 12.69-22.85 27.13-48 36-137.42 48.44-1155.11 52.83-1457.51 53.05"/>
            <path d="m2788.7 600.55-10-3.49 10-3.51z"/>
        </g>
        <g stroke="#000" class="edge">
            <path fill="none" d="M824.44 325.42c50.21 11.41 120.32 27.34 172.61 39.23"/>
            <path d="m997.81 361.23 8.97 5.63-10.52 1.2z"/>
        </g>
        <g stroke="#000" class="edge">
            <path fill="none" d="M737.57 327.92C711.98 346.22 669.61 375.99 632 400c-17.21 10.99-36.7 22.57-53.13 32.09"/>
            <path d="m580.81 435.01-10.41 1.96 6.91-8.02z"/>
        </g>
        <g stroke="#000" class="edge">
            <path fill="none" d="M780.19 327.94C833.08 373.41 987.22 497.78 1141 544c141.6 42.56 1173.83 51.06 1478.54 52.65"/>
            <path d="m2619.43 593.15 9.99 3.56-10.02 3.44z"/>
        </g>
    </g>
</svg>
