<svg xmlns="http://www.w3.org/2000/svg" width="473pt" height="116pt" viewBox="0 0 473.42 116">
    <g class="graph">
        <path fill="#fff" d="M0 116V0h473.42v116z"/>
        <g class="node" transform="translate(4 112)">
            <ellipse cx="242.57" cy="-90" fill="none" stroke="#000" rx="101" ry="18"/>
            <text x="242.57" y="-84.95" font-family="Times,serif" font-size="14" text-anchor="middle">:app:core:design-system</text>
        </g>
        <g class="node" transform="translate(4 112)">
            <ellipse cx="82.57" cy="-18" fill="none" stroke="#000" rx="82.57" ry="18"/>
            <text x="82.57" y="-12.95" font-family="Times,serif" font-size="14" text-anchor="middle">:app:core:resources</text>
        </g>
        <g stroke="red" stroke-width="2" class="edge">
            <path fill="none" d="M209.86 39.06c-22.9 10.02-52.58 23.01-77.08 33.72"/>
            <path fill="red" d="m135.62 75.36-10.56.8 7.75-7.21z"/>
        </g>
        <g class="node" transform="translate(4 112)">
            <ellipse cx="242.57" cy="-18" fill="none" stroke="#000" rx="59.54" ry="18"/>
            <text x="242.57" y="-12.95" font-family="Times,serif" font-size="14" text-anchor="middle">:library:color</text>
        </g>
        <g stroke="#000" class="edge">
            <path fill="none" d="M246.57 40.3v24.16"/>
            <path d="m250.07 64.38-3.5 10-3.5-10z"/>
        </g>
        <g class="node" transform="translate(4 112)">
            <ellipse cx="392.57" cy="-18" fill="none" stroke="#000" rx="72.85" ry="18"/>
            <text x="392.57" y="-12.95" font-family="Times,serif" font-size="14" text-anchor="middle">:library:datetime</text>
        </g>
        <g stroke="#000" class="edge">
            <path fill="none" d="M281.36 39.24c21.37 9.97 48.92 22.82 71.72 33.46"/>
            <path d="m354.56 69.53 7.58 7.4-10.54-1.05z"/>
        </g>
    </g>
</svg>
