<svg xmlns="http://www.w3.org/2000/svg" width="6977pt" height="620pt" viewBox="0 0 6976.58 620">
    <g class="graph">
        <path fill="#fff" d="M0 620V0h6976.58v620z"/>
        <g class="node" transform="translate(4 616)">
            <ellipse cx="782.58" cy="-594" fill="none" stroke="#000" rx="78.99" ry="18"/>
            <text x="782.58" y="-588.95" font-family="Times,serif" font-size="14" text-anchor="middle">:app:platform:jvm</text>
        </g>
        <g class="node" transform="translate(4 616)">
            <ellipse cx="3382.58" cy="-522" fill="none" stroke="#000" rx="97.41" ry="18"/>
            <text x="3382.58" y="-516.95" font-family="Times,serif" font-size="14" text-anchor="middle">:app:platform:common</text>
        </g>
        <g stroke="red" stroke-width="2" class="edge">
            <path fill="none" d="M864.75 25.1c374.31 10.08 1983.19 53.4 2414.88 65.02"/>
            <path fill="red" d="m3277.91 86.57 9.9 3.77-10.09 3.23z"/>
        </g>
        <g class="node" transform="translate(4 616)">
            <ellipse cx="877.58" cy="-450" fill="none" stroke="#000" rx="86.15" ry="18"/>
            <text x="877.58" y="-444.95" font-family="Times,serif" font-size="14" text-anchor="middle">:app:core:coroutines</text>
        </g>
        <g stroke="#000" class="edge">
            <path fill="none" d="M798.04 40.13c16.33 24.41 46.46 69.44 65.72 98.23"/>
            <path d="m866.59 136.3 2.65 10.25-8.47-6.36z"/>
        </g>
        <g class="node" transform="translate(4 616)">
            <ellipse cx="1896.58" cy="-234" fill="none" stroke="#000" rx="95.88" ry="18"/>
            <text x="1896.58" y="-228.95" font-family="Times,serif" font-size="14" text-anchor="middle">:app:core:diary-service</text>
        </g>
        <g stroke="#000" class="edge">
            <path fill="none" d="M780.01 40.35c-11.08 32.59-29 103.28 6.57 143.65 125.87 142.87 664.42 65.38 850 108 76.58 17.59 162.27 48.69 214.68 69.08"/>
            <path d="m1852.48 357.79 8.03 6.91-10.59-.39z"/>
        </g>
        <g class="node" transform="translate(4 616)">
            <ellipse cx="104.58" cy="-234" fill="none" stroke="#000" rx="104.58" ry="18"/>
            <text x="104.58" y="-228.95" font-family="Times,serif" font-size="14" text-anchor="middle">:app:core:holiday-service</text>
        </g>
        <g stroke="#000" class="edge">
            <path fill="none" d="M707.81 24.3C538.4 29.25 154.58 52.82 154.58 165v74c0 41.41-17.92 86.45-31.39 114.45"/>
            <path d="m126.37 354.91-7.59 7.39 1.33-10.51z"/>
        </g>
        <g class="node" transform="translate(4 616)">
            <ellipse cx="345.58" cy="-234" fill="none" stroke="#000" rx="80.01" ry="18"/>
            <text x="345.58" y="-228.95" font-family="Times,serif" font-size="14" text-anchor="middle">:library:koin-room</text>
        </g>
        <g stroke="#000" class="edge">
            <path fill="none" d="M711.73 28.19C569.79 40.1 275.58 75.57 275.58 165v74c0 40.45-.64 53.64 19 89 6 10.8 14.93 20.77 23.85 29.07"/>
            <path d="m320.54 354.27 5.21 9.22-9.83-3.96z"/>
        </g>
        <g class="node" transform="translate(4 616)">
            <ellipse cx="4401.58" cy="-234" fill="none" stroke="#000" rx="93.32" ry="18"/>
            <text x="4401.58" y="-228.95" font-family="Times,serif" font-size="14" text-anchor="middle">:library:koin-datastore</text>
        </g>
        <g stroke="#000" class="edge">
            <path fill="none" d="M865.45 24.31c324.46 5.42 1588.1 27.04 2627.13 51.69 307.77 7.3 2593.68-110.44 2767 144 42.87 62.93-79.38 105.48-86 108-77.9 29.63-1295.57 47.13-1663.51 51.76"/>
            <path d="m4510.21 383.25-10.04-3.37 9.95-3.63z"/>
        </g>
        <g stroke="#000" class="edge">
            <path fill="none" d="M3289.11 95.24c-391.23 1.27-1848.39 8.91-2307.53 52.76-8.75.84-17.89 1.99-26.94 3.31"/>
            <path d="m955.18 154.77-10.41-1.94 9.35-4.98z"/>
        </g>
        <g stroke="#000" class="edge">
            <path fill="none" d="M3289.44 95.42c-278.79 1.71-1068.47 10.27-1176.86 52.58-92.24 36.01-109.72 65.44-170 144-14.21 18.52-25.22 42.63-32.39 61.08"/>
            <path d="m1913.52 354.17-6.77 8.15.21-10.6z"/>
        </g>
        <g stroke="#000" class="edge">
            <path fill="none" d="M3289.01 95.04c-434.19.46-2174.19 5.26-2279.43 52.96-19.77 8.96-13.88 25.73-33 36-16.9 9.08-663.69 102.3-682 108-53.58 16.67-111.29 46.3-147.98 66.76"/>
            <path d="m148.58 361.67-10.43 1.86 6.99-7.96z"/>
        </g>
        <g class="node" transform="translate(4 616)">
            <ellipse cx="6079.58" cy="-306" fill="none" stroke="#000" rx="81.04" ry="18"/>
            <text x="6079.58" y="-300.95" font-family="Times,serif" font-size="14" text-anchor="middle">:app:core:compose</text>
        </g>
        <g stroke="#000" class="edge">
            <path fill="none" d="M3483.91 95.69c466.06 3.47 2449.6 20.12 2504.67 52.31 13.07 7.64 57.57 89.69 80.73 133.61"/>
            <path d="m6072.32 279.81 1.55 10.49-7.75-7.23z"/>
        </g>
        <g class="node" transform="translate(4 616)">
            <ellipse cx="6097.58" cy="-234" fill="none" stroke="#000" rx="101" ry="18"/>
            <text x="6097.58" y="-228.95" font-family="Times,serif" font-size="14" text-anchor="middle">:app:core:design-system</text>
        </g>
        <g stroke="#000" class="edge">
            <path fill="none" d="M3484.03 94.88c452.19-.29 2334.9 1.62 2592.55 53.12 85.71 17.13 133.79-.24 183 72 28.56 41.93-.03 73.25-37 108-15.94 14.98-36.79 26.15-56.69 34.28"/>
            <path d="m6167.3 365.49-10.59.33 8.07-6.86z"/>
        </g>
        <g class="node" transform="translate(4 616)">
            <ellipse cx="5469.58" cy="-306" fill="none" stroke="#000" rx="86.67" ry="18"/>
            <text x="5469.58" y="-300.95" font-family="Times,serif" font-size="14" text-anchor="middle">:app:core:navigation</text>
        </g>
        <g stroke="#000" class="edge">
            <path fill="none" d="M3483.65 96.07c335.72 3.96 1435.62 19.33 1590.93 51.93 137.68 28.9 288.73 102.41 358.96 139.26"/>
            <path d="m5435.16 284.16 7.21 7.76-10.48-1.58z"/>
        </g>
        <g class="node" transform="translate(4 616)">
            <ellipse cx="5930.58" cy="-162" fill="none" stroke="#000" rx="59.54" ry="18"/>
            <text x="5930.58" y="-156.95" font-family="Times,serif" font-size="14" text-anchor="middle">:library:color</text>
        </g>
        <g stroke="#000" class="edge">
            <path fill="none" d="M3483.92 95.42c397.46 1.98 1885.99 12.05 2092.66 52.58 176.82 34.68 276.68-4.33 379 144 7.37 10.68-6.74 89.33-15.23 132.62"/>
            <path d="m5943.8 425.2-5.38 9.12-1.48-10.49z"/>
        </g>
        <g class="node" transform="translate(4 616)">
            <ellipse cx="5016.58" cy="-18" fill="none" stroke="#000" rx="62.1" ry="18"/>
            <text x="5016.58" y="-12.95" font-family="Times,serif" font-size="14" text-anchor="middle">:library:kotlin</text>
        </g>
        <g stroke="#000" class="edge">
            <path fill="none" d="M3483.75 95.72c496.5 3.78 2738.77 22.4 3047.83 52.28 199.02 19.24 441-110.95 441 89v218c0 44.32-7.57 65.26-45 89-78.65 49.88-1491.55 53.02-1833.12 53.05"/>
            <path d="m5094.51 600.55-10-3.5 10.01-3.5z"/>
        </g>
        <g class="node" transform="translate(4 616)">
            <ellipse cx="5285.58" cy="-306" fill="none" stroke="#000" rx="79.5" ry="18"/>
            <text x="5285.58" y="-300.95" font-family="Times,serif" font-size="14" text-anchor="middle">:library:navigation</text>
        </g>
        <g stroke="#000" class="edge">
            <path fill="none" d="M3484.23 95.21c298.14 1.11 1193.79 8.19 1481.35 52.79 116.8 18.11 158.2 5.63 256 72 23.29 15.81 41.99 42.2 53.83 62.15"/>
            <path d="m5278.31 280.17 1.91 10.42-7.99-6.96z"/>
        </g>
        <g class="node" transform="translate(4 616)">
            <ellipse cx="2647.58" cy="-18" fill="none" stroke="#000" rx="78.99" ry="18"/>
            <text x="2647.58" y="-12.95" font-family="Times,serif" font-size="14" text-anchor="middle">:library:coroutines</text>
        </g>
        <g stroke="#000" class="edge">
            <path fill="none" d="M3289.09 95.14c-332.43.89-1420.05 7.31-1766.51 52.86-169.84 22.33-375-82.3-375 89v74c0 44.53 16.03 56.07 46 89 9.96 10.94 98.13 66.85 112 72 107.29 39.87 142.3 16 255 36 75.19 13.35 92.32 25.78 168 36 303.4 40.97 667.09 50.31 832.79 52.41"/>
            <path d="m2561.01 592.91 9.95 3.62-10.04 3.38z"/>
        </g>
        <g class="node" transform="translate(4 616)">
            <ellipse cx="4250.58" cy="-18" fill="none" stroke="#000" rx="72.85" ry="18"/>
            <text x="4250.58" y="-12.95" font-family="Times,serif" font-size="14" text-anchor="middle">:library:datetime</text>
        </g>
        <g stroke="#000" class="edge">
            <path fill="none" d="M3454.2 107.3c11.44 1.78 23.23 3.44 34.38 4.7 296.8 33.51 1087.79 8.01 1332 180 42.24 29.75 56.48 58.13 43 108-23.87 88.29-61.33 111.98-147 144-67.72 25.31-266.81 41.15-380.31 48.38"/>
            <path d="m4336.6 595.86-10.2-2.86 9.76-4.12z"/>
        </g>
        <g class="node" transform="translate(4 616)">
            <ellipse cx="5853.58" cy="-306" fill="none" stroke="#000" rx="89.23" ry="18"/>
            <text x="5853.58" y="-300.95" font-family="Times,serif" font-size="14" text-anchor="middle">:library:shimmer-m3</text>
        </g>
        <g stroke="#000" class="edge">
            <path fill="none" d="M3483.79 95.65c388.39 2.82 1817.42 15.62 2016.79 52.35 94.56 17.42 116.73 31.65 204 72 42.1 19.47 87.74 46.92 118.12 66.17"/>
            <path d="m5824.57 283.21 6.54 8.34-10.31-2.44z"/>
        </g>
        <g class="node" transform="translate(4 616)">
            <ellipse cx="2372.58" cy="-378" fill="none" stroke="#000" rx="71.31" ry="18"/>
            <text x="2372.58" y="-372.95" font-family="Times,serif" font-size="14" text-anchor="middle">:app:data:memo</text>
        </g>
        <g stroke="#000" class="edge">
            <path fill="none" d="M3291.06 97.76c-179.53 5.81-560.82 21.19-689.48 50.24-66.81 15.08-139.8 47.06-183.98 68.29"/>
            <path d="m2419.16 219.42-10.52 1.22 7.46-7.51z"/>
        </g>
        <g class="node" transform="translate(4 616)">
            <ellipse cx="2247.58" cy="-306" fill="none" stroke="#000" rx="58.52" ry="18"/>
            <text x="2247.58" y="-300.95" font-family="Times,serif" font-size="14" text-anchor="middle">:app:data:tag</text>
        </g>
        <g stroke="#000" class="edge">
            <path fill="none" d="M3290.43 97.1c-198.88 4.92-649.45 19.28-799.85 50.9-90 18.92-125.41 10.74-194 72-18.24 16.29-30.06 41.71-36.98 61.21"/>
            <path d="m2263.01 282.06-6.46 8.41-.19-10.6z"/>
        </g>
        <g class="node" transform="translate(4 616)">
            <ellipse cx="2428.58" cy="-234" fill="none" stroke="#000" rx="75.92" ry="18"/>
            <text x="2428.58" y="-228.95" font-family="Times,serif" font-size="14" text-anchor="middle">:app:data:account</text>
        </g>
        <g stroke="#000" class="edge">
            <path fill="none" d="M3289.46 96.22c-242.43 3.58-860.92 16.11-946.88 51.78-98.59 40.91-226.16 97.04-159 180 20.76 25.64 101.98 39.4 166.09 46.42"/>
            <path d="m2349.93 370.92 9.58 4.53-10.31 2.44z"/>
        </g>
        <g class="node" transform="translate(4 616)">
            <ellipse cx="3732.58" cy="-378" fill="none" stroke="#000" rx="83.6" ry="18"/>
            <text x="3732.58" y="-372.95" font-family="Times,serif" font-size="14" text-anchor="middle">:app:data:credential</text>
        </g>
        <g stroke="#000" class="edge">
            <path fill="none" d="M3474.65 102.01c50.22 6.76 113.07 20.01 163.93 45.99 30.49 15.57 58.67 43.16 76.92 63.5"/>
            <path d="m3717.98 209.02 3.94 9.83-9.21-5.22z"/>
        </g>
        <g class="node" transform="translate(4 616)">
            <ellipse cx="2513.58" cy="-306" fill="none" stroke="#000" rx="74.89" ry="18"/>
            <text x="2513.58" y="-300.95" font-family="Times,serif" font-size="14" text-anchor="middle">:app:data:holiday</text>
        </g>
        <g stroke="#000" class="edge">
            <path fill="none" d="M3289.8 96.52c-155.33 3.51-452.81 14.93-551.22 51.48-81.09 30.12-158.71 98.93-196.72 136.09"/>
            <path d="m2544.58 286.33-9.57 4.56 4.64-9.53z"/>
        </g>
        <g class="node" transform="translate(4 616)">
            <ellipse cx="1549.58" cy="-306" fill="none" stroke="#000" rx="73.87" ry="18"/>
            <text x="1549.58" y="-300.95" font-family="Times,serif" font-size="14" text-anchor="middle">:app:data:backup</text>
        </g>
        <g stroke="#000" class="edge">
            <path fill="none" d="M3289.37 95.75C2938.14 98.73 1751.63 111.5 1679.58 148c-56.48 28.61-95.43 95.53-113.85 133.47"/>
            <path d="m1568.94 282.86-7.42 7.56 1.08-10.53z"/>
        </g>
        <g class="node" transform="translate(4 616)">
            <ellipse cx="2066.58" cy="-306" fill="none" stroke="#000" rx="65.68" ry="18"/>
            <text x="2066.58" y="-300.95" font-family="Times,serif" font-size="14" text-anchor="middle">:app:data:fetch</text>
        </g>
        <g stroke="#000" class="edge">
            <path fill="none" d="M3289.58 96.48c-283.12 4.67-1091.51 20.66-1139 51.52-46.05 29.92-66.59 94.77-74.93 132.4"/>
            <path d="m2079.09 281.01-5.44 9.09-1.41-10.5z"/>
        </g>
        <g class="node" transform="translate(4 616)">
            <ellipse cx="3564.58" cy="-306" fill="none" stroke="#000" rx="62.1" ry="18"/>
            <text x="3564.58" y="-300.95" font-family="Times,serif" font-size="14" text-anchor="middle">:app:data:fcm</text>
        </g>
        <g stroke="#000" class="edge">
            <path fill="none" d="M3411.62 111.8c13.52 9.72 30.04 22.67 42.96 36.2 40.73 42.65 78.24 100.76 98.44 134.24"/>
            <path d="m3555.83 280.12 2.11 10.38-8.13-6.8z"/>
        </g>
        <g class="node" transform="translate(4 616)">
            <ellipse cx="3276.58" cy="-450" fill="none" stroke="#000" rx="78.48" ry="18"/>
            <text x="3276.58" y="-444.95" font-family="Times,serif" font-size="14" text-anchor="middle">:app:data:calendar</text>
        </g>
        <g stroke="red" stroke-width="2" class="edge">
            <path fill="none" d="M3361.19 111.77c-13.87 9.15-31.23 20.62-46.29 30.57"/>
            <path fill="red" d="m3318.2 144.35-10.28 2.59 6.42-8.43z"/>
        </g>
        <g class="node" transform="translate(4 616)">
            <ellipse cx="2860.58" cy="-306" fill="none" stroke="#000" rx="84.11" ry="18"/>
            <text x="2860.58" y="-300.95" font-family="Times,serif" font-size="14" text-anchor="middle">:app:domain:memo</text>
        </g>
        <g stroke="#000" class="edge">
            <path fill="none" d="M3290.71 97.43C3182.64 101.8 3015.13 114 2962.58 148c-48.43 31.33-76.63 95.84-89.5 132.99"/>
            <path d="m2876.52 281.75-6.47 8.39-.17-10.6z"/>
        </g>
        <g class="node" transform="translate(4 616)">
            <ellipse cx="3147.58" cy="-234" fill="none" stroke="#000" rx="71.31" ry="18"/>
            <text x="3147.58" y="-228.95" font-family="Times,serif" font-size="14" text-anchor="middle">:app:domain:tag</text>
        </g>
        <g stroke="#000" class="edge">
            <path fill="none" d="M3386 112.17c-1.3 18.78-5.45 49.22-18.42 71.83-44.78 78.05-131.13 142.48-179.99 174.72"/>
            <path d="m3189.61 361.58-10.3 2.51 6.48-8.38z"/>
        </g>
        <g class="node" transform="translate(4 616)">
            <ellipse cx="3011.58" cy="-90" fill="none" stroke="#000" rx="88.71" ry="18"/>
            <text x="3011.58" y="-84.95" font-family="Times,serif" font-size="14" text-anchor="middle">:app:domain:account</text>
        </g>
        <g stroke="#000" class="edge">
            <path fill="none" d="M3289.82 96.59c-288.89 5.04-1132.65 22.12-1253.24 51.41-13.77 3.34-454.39 204.05-462 216-47.88 75.25 84.9 79.68 267 108 205.77 32 829.86 46.66 1074.3 51.3"/>
            <path d="m2915.78 519.79 9.94 3.69-10.07 3.31z"/>
        </g>
        <g class="node" transform="translate(4 616)">
            <ellipse cx="4711.58" cy="-306" fill="none" stroke="#000" rx="96.39" ry="18"/>
            <text x="4711.58" y="-300.95" font-family="Times,serif" font-size="14" text-anchor="middle">:app:domain:credential</text>
        </g>
        <g stroke="#000" class="edge">
            <path fill="none" d="M3479.68 99.6c117.66 6.65 326.17 21.25 502.9 48.4 249.39 38.32 540.92 110.79 668.13 143.82"/>
            <path d="m4651.51 288.41 8.79 5.91-10.55.87z"/>
        </g>
        <g class="node" transform="translate(4 616)">
            <ellipse cx="4346.58" cy="-90" fill="none" stroke="#000" rx="87.69" ry="18"/>
            <text x="4346.58" y="-84.95" font-family="Times,serif" font-size="14" text-anchor="middle">:app:domain:holiday</text>
        </g>
        <g stroke="#000" class="edge">
            <path fill="none" d="M3457.05 106.84c79.32 13.48 199.85 34.51 220.53 41.16 71.16 22.89 101.96 16.47 152 72 34.06 37.8-1.76 76.24 38 108 54.18 43.29 243.19 17.4 310 36 37.17 10.35 42.61 23.18 79 36 61 21.49 101.32-15.08 141 36 15.43 19.86-1.35 45.53-19 64.19"/>
            <path d="m4381.14 502.58-9.55 4.58 4.61-9.54z"/>
        </g>
        <g class="node" transform="translate(4 616)">
            <ellipse cx="2971.58" cy="-162" fill="none" stroke="#000" rx="86.67" ry="18"/>
            <text x="2971.58" y="-156.95" font-family="Times,serif" font-size="14" text-anchor="middle">:app:domain:backup</text>
        </g>
        <g stroke="#000" class="edge">
            <path fill="none" d="M3310.42 105.48c-118.57 18.48-333.84 61.65-333.84 131.52v74c0 39.26-.39 84.63-.68 113.31"/>
            <path d="m2979.4 424.04-3.6 9.96-3.4-10.04z"/>
        </g>
        <g class="node" transform="translate(4 616)">
            <ellipse cx="2752.58" cy="-234" fill="none" stroke="#000" rx="78.48" ry="18"/>
            <text x="2752.58" y="-228.95" font-family="Times,serif" font-size="14" text-anchor="middle">:app:domain:fetch</text>
        </g>
        <g stroke="#000" class="edge">
            <path fill="none" d="M3291.95 98.66c-116.49 5.74-306.71 19.43-370.37 49.34-83.64 39.3-106.8 62.3-150 144-9.81 18.55-13.46 42.04-14.71 60.23"/>
            <path d="m2760.37 352.24-3.96 9.83-3.03-10.15z"/>
        </g>
        <g class="node" transform="translate(4 616)">
            <ellipse cx="3793.58" cy="-162" fill="none" stroke="#000" rx="74.89" ry="18"/>
            <text x="3793.58" y="-156.95" font-family="Times,serif" font-size="14" text-anchor="middle">:app:domain:fcm</text>
        </g>
        <g stroke="#000" class="edge">
            <path fill="none" d="M3397.77 112.13c15.82 25.91 42.81 77.13 42.81 124.87v74c0 45.59 13.56 62.98 51 89 80.27 55.8 120.76 18.83 217 36 6.81 1.21 13.9 2.51 20.99 3.83"/>
            <path d="m3729.97 436.35 9.19 5.28-10.48 1.6z"/>
        </g>
        <g class="node" transform="translate(4 616)">
            <ellipse cx="3147.58" cy="-378" fill="none" stroke="#000" rx="91.27" ry="18"/>
            <text x="3147.58" y="-372.95" font-family="Times,serif" font-size="14" text-anchor="middle">:app:domain:calendar</text>
        </g>
        <g stroke="#000" class="edge">
            <path fill="none" d="M3300.36 102.67c-36.32 7.02-76.99 20.29-106.78 45.33-18.48 15.53-29.35 41.02-35.39 60.75"/>
            <path d="m3161.64 209.43-6.06 8.7-.69-10.57z"/>
        </g>
        <g class="node" transform="translate(4 616)">
            <ellipse cx="1295.58" cy="-306" fill="none" stroke="#000" rx="123.52" ry="18"/>
            <text x="1295.58" y="-300.95" font-family="Times,serif" font-size="14" text-anchor="middle">:app:core:filter-database-room</text>
        </g>
        <g stroke="#000" class="edge">
            <path fill="none" d="M3289.3 95.53c-345.25 2.23-1499.69 12.62-1660.72 52.47-114.95 28.45-236.76 100.71-294.62 137.98"/>
            <path d="m1336.13 288.74-10.29 2.52 6.48-8.39z"/>
        </g>
        <g class="node" transform="translate(4 616)">
            <ellipse cx="431.58" cy="-306" fill="none" stroke="#000" rx="132.22" ry="18"/>
            <text x="431.58" y="-300.95" font-family="Times,serif" font-size="14" text-anchor="middle">:app:core:backup-database-room</text>
        </g>
        <g stroke="#000" class="edge">
            <path fill="none" d="M3289.49 95.93c-425.19 4.23-2106.64 22.76-2214.91 52.07-31.88 8.63-34.09 24.36-65 36-157.77 59.4-351.1 94.21-468.3 111.41"/>
            <path d="m542.08 298.84-10.4-2.03 9.39-4.9z"/>
        </g>
        <g class="node" transform="translate(4 616)">
            <ellipse cx="4363.58" cy="-306" fill="none" stroke="#000" rx="158.32" ry="18"/>
            <text x="4363.58" y="-300.95" font-family="Times,serif" font-size="14" text-anchor="middle">:app:core:account-preferences-datastore</text>
        </g>
        <g stroke="#000" class="edge">
            <path fill="none" d="M3481.97 98.17c104.55 4.99 276.7 17.72 421.61 49.83 155.72 34.51 331.6 104.54 415.04 139.76"/>
            <path d="m4319.82 284.47 7.84 7.13-10.57-.69z"/>
        </g>
        <g class="node" transform="translate(4 616)">
            <ellipse cx="990.58" cy="-306" fill="none" stroke="#000" rx="124.54" ry="18"/>
            <text x="990.58" y="-300.95" font-family="Times,serif" font-size="14" text-anchor="middle">:app:core:diary-database-room</text>
        </g>
        <g stroke="#000" class="edge">
            <path fill="none" d="M3289.42 95.88c-426.09 4.01-2110.35 21.79-2155.84 52.12-43.7 29.14-12.94 68.89-48 108-11.3 12.61-26.34 23.03-40.93 31.2"/>
            <path d="m1046.48 290.19-10.47 1.6 7.19-7.78z"/>
        </g>
        <g class="node" transform="translate(4 616)">
            <ellipse cx="4029.58" cy="-306" fill="none" stroke="#000" rx="157.3" ry="18"/>
            <text x="4029.58" y="-300.95" font-family="Times,serif" font-size="14" text-anchor="middle">:app:core:holiday-preferences-datastore</text>
        </g>
        <g stroke="#000" class="edge">
            <path fill="none" d="M3481.34 98.47c118.99 5.58 315.53 19.15 381.24 49.53 66.53 30.76 123.94 97.71 152.24 134.86"/>
            <path d="m4017.28 280.3 3.19 10.1-8.8-5.91z"/>
        </g>
        <g class="node" transform="translate(4 616)">
            <ellipse cx="714.58" cy="-306" fill="none" stroke="#000" rx="133.24" ry="18"/>
            <text x="714.58" y="-300.95" font-family="Times,serif" font-size="14" text-anchor="middle">:app:core:holiday-database-room</text>
        </g>
        <g stroke="#000" class="edge">
            <path fill="none" d="M3289.3 95.92c-429.59 4.24-2137.6 22.92-2184.72 52.08-46.15 28.56-12.9 76.36-57 108-9.34 6.71-134.05 25.53-227.18 38.84"/>
            <path d="m821.1 298.27-10.39-2.05 9.41-4.88z"/>
        </g>
        <g class="node" transform="translate(4 616)">
            <ellipse cx="4953.58" cy="-378" fill="none" stroke="#000" rx="81.55" ry="18"/>
            <text x="4953.58" y="-372.95" font-family="Times,serif" font-size="14" text-anchor="middle">:app:feature:memo</text>
        </g>
        <g stroke="#000" class="edge">
            <path fill="none" d="M3484.24 94.81c307.47-.09 1242.65 3.76 1369.34 53.19 33.71 13.15 64.11 42.14 83.21 63.47"/>
            <path d="m4939.36 209.09 3.91 9.85-9.2-5.26z"/>
        </g>
        <g class="node" transform="translate(4 616)">
            <ellipse cx="5622.58" cy="-378" fill="none" stroke="#000" rx="68.75" ry="18"/>
            <text x="5622.58" y="-372.95" font-family="Times,serif" font-size="14" text-anchor="middle">:app:feature:tag</text>
        </g>
        <g stroke="#000" class="edge">
            <path fill="none" d="M3484.01 95.14c381.82.86 1764.59 7.13 1955.57 52.86 56.41 13.51 115.99 45.34 152.34 67.03"/>
            <path d="m5593.5 211.9 6.74 8.17-10.37-2.19z"/>
        </g>
        <g class="node" transform="translate(4 616)">
            <ellipse cx="6429.58" cy="-450" fill="none" stroke="#000" rx="88.71" ry="18"/>
            <text x="6429.58" y="-444.95" font-family="Times,serif" font-size="14" text-anchor="middle">:app:feature:calendar</text>
        </g>
        <g stroke="#000" class="edge">
            <path fill="none" d="M3483.91 95.44c439.8 2.21 2244.4 13.5 2808.67 52.56 18.93 1.31 39.22 3.37 58.35 5.61"/>
            <path d="m6351.33 150.13 9.51 4.67-10.34 2.28z"/>
        </g>
        <g class="node" transform="translate(4 616)">
            <ellipse cx="5131.58" cy="-378" fill="none" stroke="#000" rx="76.94" ry="18"/>
            <text x="5131.58" y="-372.95" font-family="Times,serif" font-size="14" text-anchor="middle">:app:feature:more</text>
        </g>
        <g stroke="#000" class="edge">
            <path fill="none" d="M3484.33 94.39c289.47-1.17 1138.92.18 1410.25 53.61 72.06 14.19 151.14 46.95 198.38 68.52"/>
            <path d="m5094.42 213.34 7.61 7.37-10.54-1.02z"/>
        </g>
        <g class="node" transform="translate(4 616)">
            <ellipse cx="6160.58" cy="-378" fill="none" stroke="#000" rx="86.15" ry="18"/>
            <text x="6160.58" y="-372.95" font-family="Times,serif" font-size="14" text-anchor="middle">:app:feature:account</text>
        </g>
        <g stroke="#000" class="edge">
            <path fill="none" d="M3484.04 95.47c462.51 2.4 2418.89 14.76 2542.54 52.53 42.68 13.04 84.77 43.41 111.02 65.04"/>
            <path d="m6139.65 210.19 5.4 9.12-9.91-3.76z"/>
        </g>
        <g class="node" transform="translate(4 616)">
            <ellipse cx="3988.58" cy="-234" fill="none" stroke="#000" rx="112.26" ry="18"/>
            <text x="3988.58" y="-228.95" font-family="Times,serif" font-size="14" text-anchor="middle">:library:firebase-messaging</text>
        </g>
        <g stroke="#000" class="edge">
            <path fill="none" d="M3418.58 111.25c19.18 10.03 43.86 23.5 65 36.75 58.3 36.56 188.93 152.45 252 180 29.83 13.03 106.46 28.03 168.33 38.74"/>
            <path d="m3904.12 363.23 9.27 5.14-10.45 1.75z"/>
        </g>
        <g class="node" transform="translate(4 616)">
            <ellipse cx="1906.58" cy="-18" fill="none" stroke="#000" rx="71.31" ry="18"/>
            <text x="1906.58" y="-12.95" font-family="Times,serif" font-size="14" text-anchor="middle">:app:core:model</text>
        </g>
        <g stroke="#000" class="edge">
            <path fill="none" d="M1842.42 396.73c-87.74 23.39-237.88 75.52-179.84 147.27 21.06 26.04 104.66 39.84 169.03 46.76"/>
            <path d="m1831.89 587.27 9.59 4.51-10.31 2.46z"/>
        </g>
        <g class="node" transform="translate(4 616)">
            <ellipse cx="3145.58" cy="-18" fill="none" stroke="#000" rx="85.13" ry="18"/>
            <text x="3145.58" y="-12.95" font-family="Times,serif" font-size="14" text-anchor="middle">:common:exception</text>
        </g>
        <g stroke="#000" class="edge">
            <path fill="none" d="M1876.17 399.77c-23.86 18.44-53.98 48.57-34.59 72.23 103.14 125.88 197.57 51.41 359 72 163.16 20.81 647.7 41.35 854.14 49.42"/>
            <path d="m3054.76 589.92 9.85 3.89-10.13 3.1z"/>
        </g>
        <g class="node" transform="translate(4 616)">
            <ellipse cx="3388.58" cy="-162" fill="none" stroke="#000" rx="121.98" ry="18"/>
            <text x="3388.58" y="-156.95" font-family="Times,serif" font-size="14" text-anchor="middle">:app:core:account-preferences</text>
        </g>
        <g stroke="#000" class="edge">
            <path fill="none" d="M1993.19 386.95c197.95 8.49 676.95 29.34 1078.39 49.05 65.06 3.2 137.53 7.01 197.12 10.22"/>
            <path d="m3268.75 442.71 9.8 4.04-10.18 2.95z"/>
        </g>
        <g class="node" transform="translate(4 616)">
            <ellipse cx="1919.58" cy="-162" fill="none" stroke="#000" rx="72.85" ry="18"/>
            <text x="1919.58" y="-156.95" font-family="Times,serif" font-size="14" text-anchor="middle">:common:model</text>
        </g>
        <g stroke="#000" class="edge">
            <path fill="none" d="M1906.26 400.3c2.46 7.46 5.39 16.38 8.13 24.73"/>
            <path d="m1917.69 423.86-.2 10.6-6.45-8.41z"/>
        </g>
        <g stroke="#000" class="edge">
            <path fill="none" d="M125.31 400.1c21.54 20.84 61.11 55.32 102.27 71.9 295.5 119.07 1303.46 126.05 1600.18 125.45"/>
            <path d="m1827.75 593.95 10.01 3.48-9.99 3.52z"/>
        </g>
        <g stroke="#000" class="edge">
            <path fill="none" d="M6088.03 328.3c1.9 7.38 4.16 16.18 6.29 24.45"/>
            <path d="m6097.7 351.87-.9 10.56-5.88-8.81z"/>
        </g>
        <g stroke="#000" class="edge">
            <path fill="none" d="M6063.27 399.06c-25.14 10.54-58.1 24.35-84.36 35.36"/>
            <path d="m5980.44 437.57-10.58.64 7.87-7.09z"/>
        </g>
        <g stroke="#000" class="edge">
            <path fill="none" d="M6088.55 400.34c-16.97 21.09-48.75 55.81-84.97 71.66-83.79 36.66-318.93 27.56-410 36-164.08 15.21-204.7 23.5-369 36-328 24.95-719.26 42.65-886.99 49.66"/>
            <path d="m4337.79 597.15-10.14-3.08 9.85-3.91z"/>
        </g>
        <g stroke="#000" class="edge">
            <path fill="none" d="M5412.37 323.17c-53.06 11.1-125.38 27.73-151.79 40.83-114.42 56.74-105.03 133.54-224 180-125.05 48.83-521.91 53.87-697.28 53.62"/>
            <path d="m4339.33 601.12-9.99-3.52 10-3.48z"/>
        </g>
        <g stroke="#000" class="edge">
            <path fill="none" d="M5239.82 324.43c-25.87 8.57-57.06 21.52-81.24 39.57-86.24 64.39-63.5 136.62-162 180-59.01 25.99-477.55 43.68-658.73 50.21"/>
            <path d="m4338.16 597.7-10.12-3.14 9.87-3.85z"/>
        </g>
        <g stroke="#000" class="edge">
            <path fill="none" d="m5866.87 328.13 53.06 97.86"/>
            <path d="m5922.85 424.02 1.69 10.46-7.85-7.12z"/>
        </g>
        <g stroke="#000" class="edge">
            <path fill="none" d="M2368.92 256.32c-9.32 19.47-26.67 51.06-49.34 71.68-25.88 23.54-48.81 8.16-70 36-29.35 38.56-35.87 64.27-15 108 21.91 45.92 42.55 51.24 89 72 75.83 33.88 170.12 46.42 238.11 50.9"/>
            <path d="m2561.52 591.38 9.77 4.1-10.2 2.89z"/>
        </g>
        <g stroke="#000" class="edge">
            <path fill="none" d="M2383.33 256.31c8.69 20.07 25.65 52.81 50.25 71.69 41.81 32.1 67.79 8.9 113 36 49.2 29.49 132.24 157.49 185 180 66.48 28.36 1129.44 46.93 1439.02 51.75"/>
            <path d="m4170.27 592.24 9.95 3.66-10.06 3.34z"/>
        </g>
        <g stroke="#000" class="edge">
            <path fill="none" d="M2437.4 247.72c87.86 12.61 250.4 35.92 347.67 49.88"/>
            <path d="m2785.41 294.11 9.4 4.88-10.39 2.05z"/>
        </g>
        <g class="node" transform="translate(4 616)">
            <ellipse cx="1681.58" cy="-234" fill="none" stroke="#000" rx="101.51" ry="18"/>
            <text x="1681.58" y="-228.95" font-family="Times,serif" font-size="14" text-anchor="middle">:app:core:diary-database</text>
        </g>
        <g stroke="#000" class="edge">
            <path fill="none" d="M2308.51 243.86c-82.58 6.78-225.69 21.37-345.93 48.14-80.2 17.86-170.31 48.95-225.36 69.25"/>
            <path d="m1738.7 364.44-10.59.2 8.15-6.77z"/>
        </g>
        <g stroke="#000" class="edge">
            <path fill="none" d="M2202.46 320.17c-43.43 9.23-102.01 24.81-115.88 43.83-47.13 64.64-53.86 120.85 0 180 31.32 34.4 324.05 46.89 475.35 51.08"/>
            <path d="m2561.6 591.57 9.9 3.76-10.09 3.23z"/>
        </g>
        <g stroke="#000" class="edge">
            <path fill="none" d="M2303.13 318.94c72.36 11.49 197.18 32.74 214.45 45.06 45.24 32.27 28.48 64.45 63 108 28.9 36.46 33.07 54.06 76 72 70.25 29.35 1193.96 47.32 1513.72 51.86"/>
            <path d="m4170.32 592.36 9.95 3.64-10.05 3.36z"/>
        </g>
        <g stroke="#000" class="edge">
            <path fill="none" d="M2306.51 316.41c36.1 3.49 84.38 8.02 127.07 11.59 231.77 19.38 505.95 38.59 638.44 47.63"/>
            <path d="m3071.99 372.12 9.74 4.18-10.22 2.81z"/>
        </g>
        <g stroke="#000" class="edge">
            <path fill="none" d="M2201.52 319.62c-17.65 2.89-37.65 5.97-55.94 8.38-155.04 20.39-194.9 16.05-350 36-8.26 1.06-16.86 2.25-25.45 3.49"/>
            <path d="m1770.78 370.93-10.41-2.01 9.39-4.91z"/>
        </g>
        <g stroke="#000" class="edge">
            <path fill="none" d="M2414.41 399.78c-9.04 9.61-19.04 22.47-23.83 36.22-15.78 45.33-30.38 70.83 0 108 21.9 26.79 107.4 40.37 174.65 47.03"/>
            <path d="m2565.15 587.51 9.62 4.43-10.28 2.54z"/>
        </g>
        <g stroke="#000" class="edge">
            <path fill="none" d="M2425.24 400.16c-12.78 32.91-34.36 105.03 3.34 143.84 15.37 15.83 1385.26 44.21 1741.9 51.34"/>
            <path d="m4170.54 591.84 9.93 3.7-10.07 3.3z"/>
        </g>
        <g stroke="#000" class="edge">
            <path fill="none" d="M2484.32 395.6c106.09 25.84 348.16 84.8 465.31 113.34"/>
            <path d="m2950.21 505.48 8.89 5.76-10.54 1.04z"/>
        </g>
        <g stroke="#000" class="edge">
            <path fill="none" d="M2504.34 388.23c164.05 11.96 567.86 41.41 769.57 56.12"/>
            <path d="m3273.91 440.84 9.71 4.22-10.22 2.76z"/>
        </g>
        <g stroke="#000" class="edge">
            <path fill="none" d="M3654.63 242.03c-96.43 3.53-261.37 9.46-403.05 13.97-69.77 2.22-1191.46 9.41-1256 36-31.49 12.97-58.83 41.51-75.99 62.8"/>
            <path d="m1922.5 356.76-8.91 5.74 3.39-10.04z"/>
        </g>
        <g stroke="#000" class="edge">
            <path fill="none" d="M3743.22 256.12c9.09 20.87 27.5 55.37 55.36 71.88 128.06 75.9 191.39-9.9 333 36 30.68 9.94 32.78 24.74 63 36 81.9 30.52 242.12 7.63 183 72-31.91 34.74-376.06 31.38-423 36-143.31 14.11-178.49 24.11-322 36-172.04 14.25-685.36 39.1-892.69 48.88"/>
            <path d="m2740.13 596.37-10.15-3.02 9.82-3.97z"/>
        </g>
        <g stroke="#000" class="edge">
            <path fill="none" d="M3754.9 255.79c23.93 20.85 68.08 55.68 112.68 72.21 132.96 49.28 180.64-2.88 317 36 35.94 10.25 40.3 24.95 76 36 48.58 15.04 192.99-2.69 226 36 19.6 22.97-10.27 98.52-20 108-19.72 19.22-85.25 33.68-138.3 42.61"/>
            <path d="m4329.1 590.02-10.43-1.84 9.3-5.07z"/>
        </g>
        <g stroke="#000" class="edge">
            <path fill="none" d="M3816.48 243.58c143.76 8.41 455.48 27.37 718.1 48.42 28.07 2.25 58.55 5 86.36 7.62"/>
            <path d="m4621.14 296.12 9.62 4.43-10.28 2.54z"/>
        </g>
        <g stroke="#000" class="edge">
            <path fill="none" d="M3735.44 256.38c-.29 20.46 2.7 53.89 23.14 71.62 59.89 51.97 301.83-22.83 355 36 10.73 11.87 10.89 24.28 0 36-10.04 10.8-393.96 34.31-597.36 46.04"/>
            <path d="m3516.57 449.53-10.18-2.92 9.78-4.07z"/>
        </g>
        <g stroke="#000" class="edge">
            <path fill="none" d="M2449.85 317.97c-38.21 3.64-86.86 7.79-130.27 10.03-914.03 47.17-1145.65-22.93-2059 36-19.16 1.24-39.62 3.13-59.13 5.21"/>
            <path d="m201.93 372.68-10.33-2.39 9.56-4.57z"/>
        </g>
        <g stroke="#000" class="edge">
            <path fill="none" d="M2461.65 322.4c-70.27 14.46-182.13 37.94-185.07 41.6-50.13 62.35-52.46 119.6 0 180 36.08 41.54 185.28 51.42 284.26 53.28"/>
            <path d="m2560.89 593.78 9.95 3.66-10.06 3.34z"/>
        </g>
        <g stroke="#000" class="edge">
            <path fill="none" d="M2540.21 327.39c14.06 10.32 32.44 24.02 48.37 36.61 97.75 77.3 98.66 135.31 215 180 64 24.58 1067.34 45.66 1367.08 51.44"/>
            <path d="m4170.42 591.93 9.93 3.69-10.06 3.31z"/>
        </g>
        <g stroke="#000" class="edge">
            <path fill="none" d="M2588.83 316c174.49 12.27 611.33 43.26 642.75 48 70.79 10.68 86.21 25.36 157 36 217.25 32.65 275.74 3.35 493 36 70.79 10.64 86.79 22 157 36 78.66 15.69 169.07 30.72 232.24 40.74"/>
            <path d="m4271.07 509.24 9.33 5.01-10.42 1.9z"/>
        </g>
        <g class="node" transform="translate(4 616)">
            <ellipse cx="3661.58" cy="-234" fill="none" stroke="#000" rx="120.96" ry="18"/>
            <text x="3661.58" y="-228.95" font-family="Times,serif" font-size="14" text-anchor="middle">:app:core:holiday-preferences</text>
        </g>
        <g stroke="#000" class="edge">
            <path fill="none" d="M2588.74 315.91c50.91 3.47 121.09 8.19 182.84 12.09 275.64 17.39 599.19 36.17 771.45 46.03"/>
            <path d="m3543.12 370.53 9.78 4.07-10.18 2.92z"/>
        </g>
        <g class="node" transform="translate(4 616)">
            <ellipse cx="967.58" cy="-234" fill="none" stroke="#000" rx="110.21" ry="18"/>
            <text x="967.58" y="-228.95" font-family="Times,serif" font-size="14" text-anchor="middle">:app:core:holiday-database</text>
        </g>
        <g stroke="#000" class="edge">
            <path fill="none" d="M2449.38 317.76c-38.15 3.55-86.58 7.69-129.8 10.24-494.95 29.22-619.87 9.95-1115 36-40.74 2.14-85.42 5.23-124.68 8.18"/>
            <path d="m1080.2 375.67-10.24-2.74 9.71-4.24z"/>
        </g>
        <g stroke="#000" class="edge">
            <path fill="none" d="M1608.95 322.17c58.69 11.84 151.74 30.61 216.91 43.76"/>
            <path d="m1826.28 362.44 9.11 5.41-10.5 1.45z"/>
        </g>
        <g stroke="#000" class="edge">
            <path fill="none" d="M1512.08 325.27c-17.63 8.37-36.41 20.87-46.5 38.73-29.78 52.7 28.01 82.68 83 108 24.54 11.3 454.16 68.85 481 72 190.56 22.36 415.03 39.14 535.37 47.37"/>
            <path d="m2565.01 587.86 9.74 4.17-10.21 2.82z"/>
        </g>
        <g stroke="#000" class="edge">
            <path fill="none" d="M1550.54 328.43c-4.93 34.74-9.93 111.97 36.04 143.57 16.95 11.65 716.47 70.72 737 72 367.49 22.97 1525.25 45.53 1847.2 51.48"/>
            <path d="m4170.43 591.97 9.94 3.69-10.07 3.31z"/>
        </g>
        <g stroke="#000" class="edge">
            <path fill="none" d="M1552.05 328.22c-.76 20.62 1.57 54.53 22.53 71.78 25.18 20.72 990.41 43.9 1303.82 50.89"/>
            <path d="m2878.28 447.39 9.92 3.72-10.07 3.28z"/>
        </g>
        <g stroke="#000" class="edge">
            <path fill="none" d="M1583.53 326.88c18.01 9.55 41.18 21.84 60.89 32.29"/>
            <path d="m1645.84 355.96 7.19 7.78-10.47-1.59z"/>
        </g>
        <g class="node" transform="translate(4 616)">
            <ellipse cx="552.58" cy="-234" fill="none" stroke="#000" rx="109.19" ry="18"/>
            <text x="552.58" y="-228.95" font-family="Times,serif" font-size="14" text-anchor="middle">:app:core:backup-database</text>
        </g>
        <g stroke="#000" class="edge">
            <path fill="none" d="M1492.77 320.63c-19.21 2.75-40.55 5.5-60.19 7.37-318.96 30.32-400.61 10.63-720 36-18.84 1.5-38.93 3.43-58.21 5.46"/>
            <path d="m654.96 372.91-10.32-2.42 9.57-4.54z"/>
        </g>
        <g stroke="#000" class="edge">
            <path fill="none" d="M2035.36 325.5c-24.82 10.22-58.37 24.04-85.79 35.33"/>
            <path d="m1950.99 364.03-10.58.57 7.92-7.05z"/>
        </g>
        <g stroke="#000" class="edge">
            <path fill="none" d="M2062.09 328.07c-20.38 43.63-65.96 159.76-4.51 215.93 36.37 33.24 347.09 46.35 504.05 50.89"/>
            <path d="m2561.7 591.39 9.9 3.78-10.09 3.22z"/>
        </g>
        <g stroke="#000" class="edge">
            <path fill="none" d="M2086.79 327.64c45.37 45.26 179.52 170.26 319.79 216.36 84.65 27.82 1413.34 47.26 1763.8 51.92"/>
            <path d="m4170.22 592.42 9.96 3.63-10.05 3.37z"/>
        </g>
        <g stroke="#000" class="edge">
            <path fill="none" d="M2125.96 319.98c18.31 2.79 38.81 5.74 57.62 8.02 172.83 20.98 375.88 37.95 487.92 46.66"/>
            <path d="m2671.51 371.15 9.7 4.26-10.24 2.72z"/>
        </g>
        <g stroke="#000" class="edge">
            <path fill="none" d="M2017.05 320.73c-65.15 11.85-175.77 31.96-251.15 45.67"/>
            <path d="m1766.54 369.84-10.47-1.66 9.22-5.23z"/>
        </g>
        <g stroke="#000" class="edge">
            <path fill="none" d="M3507.24 313.57c-249.14 10.46-1187 49.82-1502.42 63.06"/>
            <path d="m2005.06 380.12-10.14-3.08 9.85-3.92z"/>
        </g>
        <g stroke="#000" class="edge">
            <path fill="none" d="M3553.28 327.68c-15.99 19.47-36.35 51.63-17.7 72.32 51.76 57.42 294.24-21.42 346 36 10.71 11.88 10.46 23.89 0 36-143.58 166.26-270.62 48.15-489 72-235.07 25.68-513.51 41.76-652.63 48.82"/>
            <path d="m2740.23 596.31-10.16-2.99 9.81-4z"/>
        </g>
        <g stroke="#000" class="edge">
            <path fill="none" d="M3616.46 321.89c65.4 14.91 175.06 40.08 179.12 42.11 22.3 11.14 20.85 24.58 43 36 3.52 1.82 272.1 71.29 276 72 73.21 13.43 283.28-19.39 333 36 39.77 44.31-47.28 68.12-117.07 79.67"/>
            <path d="m4331.39 591.07-10.42-1.89 9.33-5.02z"/>
        </g>
        <g stroke="#000" class="edge">
            <path fill="none" d="M3539.29 326.3c-13.86 8.95-29.02 21.67-36.71 37.7-6.92 14.43-10.29 23.75 0 36 29.9 35.58 160.29 27.64 206 36 6.8 1.24 13.9 2.56 20.98 3.89"/>
            <path d="m3729.97 436.41 9.17 5.29-10.47 1.59z"/>
        </g>
        <g stroke="#000" class="edge">
            <path fill="none" d="M3621.42 319.72c71.07 11.74 198.36 32.75 283.79 46.86"/>
            <path d="m3905.67 363.1 9.3 5.09-10.44 1.82z"/>
        </g>
        <g stroke="#000" class="edge">
            <path fill="none" d="M3280.21 184.41c.09 43.42 6.7 157.22 70.37 215.59 57.89 53.07 123.44-24.93 173 36 10.1 12.41 10.52 23.94 0 36-38.78 44.45-205.43 23.14-263 36-52.27 11.67-62.57 25.09-115 36-140.27 29.18-306.48 42.81-405.92 48.78"/>
            <path d="m2740.17 596.26-10.19-2.91 9.78-4.08z"/>
        </g>
        <g stroke="#000" class="edge">
            <path fill="none" d="M3287.46 184.29c18.56 44.16 74.18 161.45 161.12 215.71 80.33 50.13 121.87 1.34 210 36 27.19 10.69 27.65 25.73 55 36 107.97 40.56 144.48 10.67 257 36 83.65 18.83 178.18 50.64 234.34 70.7"/>
            <path d="m4205.97 575.36 8.23 6.67-10.59-.09z"/>
        </g>
        <g stroke="red" stroke-width="2" class="edge">
            <path fill="none" d="M3250.98 183.06c-17.65 9.58-40.3 21.87-59.52 32.3"/>
            <path fill="red" d="m3194.6 217.64-10.46 1.69 7.12-7.85z"/>
        </g>
        <g class="node" transform="translate(4 616)">
            <ellipse cx="1309.58" cy="-234" fill="none" stroke="#000" rx="100.48" ry="18"/>
            <text x="1309.58" y="-228.95" font-family="Times,serif" font-size="14" text-anchor="middle">:app:core:filter-database</text>
        </g>
        <g stroke="#000" class="edge">
            <path fill="none" d="M3202.82 169.2c-325.94 9.66-1572.63 51.01-1732.24 122.8-21.22 9.54-18.65 23.08-38 36-19.7 13.15-43.2 24.42-64.1 33.13"/>
            <path d="m1369.82 364.37-10.59.52 7.95-7.01z"/>
        </g>
        <g stroke="#000" class="edge">
            <path fill="none" d="M2939.64 318.38c91.19 9.27 249.65 26.3 384.94 45.62 94.18 13.45 116.61 24.1 211 36 194.23 24.49 245.95 3.51 439 36 63.35 10.66 76.57 25.81 140 36 236.17 37.95 300.55-.17 537 36 114.08 17.45 244.77 52.68 315.95 73.19"/>
            <path d="m4968.35 577.79 8.63 6.14-10.58.58z"/>
        </g>
        <g stroke="#000" class="edge">
            <path fill="none" d="M2787.66 317.56c-142.27 12.31-432.78 38.36-440.08 46.44-32.44 35.94-77.52 77.02 22 180 26.49 27.41 122.12 40.99 194.73 47.48"/>
            <path d="m2564.58 587.99 9.67 4.34-10.27 2.64z"/>
        </g>
        <g stroke="#000" class="edge">
            <path fill="none" d="M2861.57 328.23c-6.94 46.18-18.22 172.18 56.01 215.77 54.06 31.74 967.74 47.64 1252.77 51.84"/>
            <path d="m4170.38 592.34 9.95 3.65-10.05 3.35z"/>
        </g>
        <g stroke="red" stroke-width="2" class="edge">
            <path fill="none" d="M2918.56 324.17c49.02 11.95 121.23 29.56 172.25 42.01"/>
            <path fill="red" d="m3089.85 362.34 8.89 5.77-10.55 1.03z"/>
        </g>
        <g stroke="#000" class="edge">
            <path fill="none" d="M2869.33 328.04c2.65 10.31 5.72 23.79 7.25 35.96.75 5.96-.46 103.09 3 108 13.35 18.96 34.54 31.14 56.25 38.96"/>
            <path d="m2936.66 507.55 8.41 6.44-10.6.21z"/>
        </g>
        <g stroke="#000" class="edge">
            <path fill="none" d="M2881.96 328.05c9.96 10.1 22.46 23.35 32.62 35.95 16.1 19.96 32.42 44.03 44.13 62.09"/>
            <path d="m2961.6 424.13 2.45 10.3-8.34-6.53z"/>
        </g>
        <g stroke="#000" class="edge">
            <path fill="none" d="M2785.91 316.74c-141.12 10.57-426.66 33.31-470.33 47.26-152.83 48.81-311.24 161.27-375.39 209.9"/>
            <path d="m1942.69 576.39-10.07 3.29 5.82-8.86z"/>
        </g>
        <g stroke="#000" class="edge">
            <path fill="none" d="M2795.87 320.72c-49.71 8.61-110.76 22.97-126.29 43.28-47.17 61.71-19.65 111.84 81 180 48.1 32.57 202.03 45.19 304.03 50.04"/>
            <path d="m3054.51 590.53 9.83 3.95-10.15 3.04z"/>
        </g>
        <g stroke="#000" class="edge">
            <path fill="none" d="M3219.51 387.93c47.38 3.43 112.08 8.08 169.07 12.07 233.75 16.38 295.27-4.9 526 36 56.51 10.02 67.5 25.95 124 36 227.21 40.4 289.61 2.88 518 36 72.99 10.59 89.66 21.62 162 36 81.71 16.24 176.39 32.43 237.64 42.57"/>
            <path d="m4956.46 583.06 9.3 5.08-10.43 1.83z"/>
        </g>
        <g stroke="#000" class="edge">
            <path fill="none" d="M3157.84 400.1c5.71 18.2 12.21 47.65 4.74 71.9-11.39 36.99-15.88 51.98-49 72-60.68 36.68-255.59 47.98-371.97 51.45"/>
            <path d="m2741.86 598.95-10.09-3.22 9.9-3.78z"/>
        </g>
        <g stroke="#000" class="edge">
            <path fill="none" d="M3204.96 394.37c10.46 2.03 21.36 4.01 31.62 5.63 137.01 21.62 175.18 3.41 310 36 44.29 10.71 52.21 23.4 96 36 191.88 55.2 424.32 95.66 539.73 114.03"/>
            <path d="m4182.62 582.53 9.33 5.02-10.43 1.89z"/>
        </g>
        <g stroke="#000" class="edge">
            <path fill="none" d="M3154.67 400.24c2.48 19.4 3.36 50.93-12.09 71.76-13.03 17.57-32.98 29.35-53.23 37.23"/>
            <path d="m3090.78 512.44-10.59.06 8.24-6.65z"/>
        </g>
        <g stroke="red" stroke-width="2" class="edge">
            <path fill="none" d="M3114.68 397.67c-26.01 10.35-61.13 24.32-89.58 35.63"/>
            <path fill="red" d="m3027.96 435.93-10.59.45 8-6.95z"/>
        </g>
        <g stroke="#000" class="edge">
            <path fill="none" d="M3141.64 400.15c-13.12 20.89-38.33 55.42-70.06 71.85-95.81 49.6-835.04 103.14-1081.4 119.77"/>
            <path d="m1990.54 595.26-10.21-2.82 9.74-4.17z"/>
        </g>
        <g stroke="#000" class="edge">
            <path fill="none" d="M3204.98 394.29c10.45 2.04 21.35 4.04 31.6 5.71 63.44 10.31 244.47-12.2 287 36 86.66 98.21-148.06 138.6-284.33 153.42"/>
            <path d="m3239.82 592.87-10.31-2.42 9.57-4.54z"/>
        </g>
        <g stroke="#000" class="edge">
            <path fill="none" d="M3102.38 530.03c334.5 11.68 1536.71 53.65 1845.49 64.43"/>
            <path d="m4947.95 590.96 9.88 3.85-10.12 3.15z"/>
        </g>
        <g stroke="#000" class="edge">
            <path fill="none" d="M2953.01 539.03c-64.28 12.36-164.13 31.57-231.1 44.45"/>
            <path d="m2722.59 586.91-10.48-1.55 9.16-5.33z"/>
        </g>
        <g stroke="#000" class="edge">
            <path fill="none" d="M3100.25 531.78c227.29 12.84 848.68 47.95 1072.57 60.6"/>
            <path d="m4172.83 588.88 9.79 4.05-10.18 2.93z"/>
        </g>
        <g stroke="red" stroke-width="2" class="edge">
            <path fill="none" d="M2932.07 532.29c-206.41 13.08-738.54 46.79-941.35 59.63"/>
            <path fill="red" d="m1992.51 595.32-10.21-2.86 9.76-4.13z"/>
        </g>
        <g stroke="#000" class="edge">
            <path fill="none" d="M3046.66 543.24c18.43 9.63 42.02 21.95 61.96 32.36"/>
            <path d="m3110.08 572.42 7.25 7.73-10.49-1.53z"/>
        </g>
        <g stroke="#000" class="edge">
            <path fill="none" d="M4779.07 323.97c32.44 8.36 71.68 21.26 103.51 40.03 80.16 47.27 115.23 58.51 152 144 8.35 19.42 3.98 43.15-2.01 61.22"/>
            <path d="m5035.9 570.32-6.74 8.17.17-10.59z"/>
        </g>
        <g stroke="#000" class="edge">
            <path fill="none" d="M4725.68 328.37c9.86 19.53 21.22 51.17 4.9 71.63-44.92 56.3-92.65 5.73-158 36-24.2 11.21-23.05 26.58-48 36-190.18 71.83-258.42-11.85-456 36-40.27 9.75-45.54 27.05-86 36-201.29 44.51-721.01 27.67-927 36-108.7 4.4-233.83 9.7-315.68 13.2"/>
            <path d="m2740.3 596.69-10.14-3.07 9.84-3.93z"/>
        </g>
        <g stroke="#000" class="edge">
            <path fill="none" d="M4783.86 322.97c23.24 7.69 46.83 20.31 60.72 41.03 30.33 45.26-16.72 72.44-58 108-47.99 41.34-63.06 51.52-123 72-108.18 36.96-240.51 48.43-324.79 51.83"/>
            <path d="m4339.12 599.33-10.13-3.13 9.87-3.87z"/>
        </g>
        <g stroke="#000" class="edge">
            <path fill="none" d="M4670.19 326.32c-27.95 9.86-64.3 23.46-95.61 37.68-30.78 13.98-34.34 27.28-67 36-133.81 35.74-1107.63 29.89-1246 36-64.62 2.85-137.39 7.19-193.35 10.78"/>
            <path d="m3068.62 450.26-10.2-2.85 9.75-4.14z"/>
        </g>
        <g stroke="#000" class="edge">
            <path fill="none" d="M4634.13 319.86c-31.11 3.06-66.94 6.21-99.55 8.14-649.28 38.43-813.08 10.47-1463 36-77.44 3.04-165.51 7.91-228.8 11.67"/>
            <path d="m2843.35 379.14-10.19-2.9 9.78-4.09z"/>
        </g>
        <g stroke="#000" class="edge">
            <path fill="none" d="M4696.39 328.1c-25.06 21.19-71.26 56.37-117.81 71.9-32.63 10.88-502.16 37.7-697.11 48.44"/>
            <path d="m3881.84 451.93-10.17-2.95 9.79-4.04z"/>
        </g>
        <g stroke="#000" class="edge">
            <path fill="none" d="M4692.85 327.84c-48.36 34.71-166.29 113.56-279.27 144.16-119.46 32.36-2004.24 105.96-2421.59 121.91"/>
            <path d="m1992.29 597.4-10.13-3.11 9.86-3.88z"/>
        </g>
        <g stroke="#000" class="edge">
            <path fill="none" d="M4739.5 327.77c11.08 9.26 23.1 21.8 29.08 36.23 6.12 14.78 8.12 22.22 0 36-79.39 134.71-167.77 112.84-321 144-229.48 46.67-940.77 52.5-1201.19 53.04"/>
            <path d="m3246.6 600.54-10.01-3.49 9.99-3.51z"/>
        </g>
        <g stroke="#000" class="edge">
            <path fill="none" d="M4415.23 538.5c12.37 1.99 25.24 3.93 37.35 5.5 178.15 23.13 389.01 40.09 496.78 48.01"/>
            <path d="m4949.5 588.51 9.72 4.22-10.23 2.76z"/>
        </g>
        <g stroke="#000" class="edge">
            <path fill="none" d="M4287.37 538.9c-12.8 2.02-26.19 3.87-38.79 5.1-527.94 51.72-662.88 16.85-1193 36-108.71 3.93-233.84 9.33-315.68 12.98"/>
            <path d="m2740.3 596.47-10.15-3.05 9.84-3.95z"/>
        </g>
        <g stroke="#000" class="edge">
            <path fill="none" d="M4327.83 543.59c-12.44 9.07-28.03 20.44-41.63 30.35"/>
            <path d="m4288.53 576.57-10.14 3.07 6.02-8.72z"/>
        </g>
        <g stroke="#000" class="edge">
            <path fill="none" d="M4264.1 529.48c-380.14 10.91-1900.18 54.51-2271.42 65.16"/>
            <path d="m1992.87 598.14-10.1-3.21 9.9-3.79z"/>
        </g>
        <g stroke="#000" class="edge">
            <path fill="none" d="M4287.08 538.76c-12.72 2.02-26.01 3.9-38.5 5.24-369.01 39.51-810.89 49.58-1002.51 52.13"/>
            <path d="m3246.2 599.63-10.04-3.37 9.95-3.63z"/>
        </g>
        <g stroke="#000" class="edge">
            <path fill="none" d="M3056.91 460.46c57.22 3.69 135.6 8.44 204.67 11.54 65.85 2.96 1126.07 8.54 1186 36 19.73 9.04 13.58 26.3 33 36 80.06 40 338.77 49.82 466.82 52.22"/>
            <path d="m4947.18 592.72 9.94 3.68-10.06 3.32z"/>
        </g>
        <g stroke="#000" class="edge">
            <path fill="none" d="M2939.67 470.74c-59.31 25.99-177.62 77.84-242.66 106.35"/>
            <path d="m2698.62 580.21-10.57.8 7.76-7.22z"/>
        </g>
        <g stroke="#000" class="edge">
            <path fill="none" d="M3045.59 465.02c123.97 17.54 390.36 54.27 615.99 78.98 183.27 20.07 399.04 37.9 513.05 46.87"/>
            <path d="m4174.8 587.38 9.7 4.27-10.24 2.7z"/>
        </g>
        <g stroke="red" stroke-width="2" class="edge">
            <path fill="none" d="M2985.47 472.3c4.45 7.8 9.82 17.19 14.78 25.87"/>
            <path fill="red" d="m3002.38 494.85 1.92 10.42-8-6.95z"/>
        </g>
        <g stroke="#000" class="edge">
            <path fill="none" d="M2904.05 464.54c-193.31 25.77-724.73 96.63-920.13 122.68"/>
            <path d="m1984.52 590.67-10.37-2.15 9.45-4.79z"/>
        </g>
        <g stroke="#000" class="edge">
            <path fill="none" d="M2951.61 471.72c-23.42 18.39-53 48.49-34.03 72.28 18.11 22.71 86.33 36.47 144.14 44.25"/>
            <path d="m3062.16 584.78 9.47 4.75-10.37 2.19z"/>
        </g>
        <g stroke="#000" class="edge">
            <path fill="none" d="M2831.99 387.27c63.81 3.57 157.67 8.7 239.59 12.73 89.98 4.43 728.36-2.1 810 36 19.67 9.18 13.4 26.67 33 36 121.41 57.78 480.63-17.47 604 36 21.35 9.25 16.91 26.17 38 36 67.77 31.58 278.69 45.16 391.35 50.29"/>
            <path d="m4947.83 590.78 9.83 3.94-10.14 3.06z"/>
        </g>
        <g stroke="#000" class="edge">
            <path fill="none" d="M2730.97 399.35c-12.67 9.31-27.18 22.03-36.39 36.65-26.1 41.42-36.48 98.43-40.52 132.32"/>
            <path d="m2657.54 568.61-4.54 9.57-2.42-10.31z"/>
        </g>
        <g stroke="#000" class="edge">
            <path fill="none" d="M2760.09 400.29c8.13 34.84 31.87 112.79 86.49 143.71 57.74 32.68 1029.06 48.04 1323.85 51.96"/>
            <path d="m4170.41 592.46 9.95 3.63-10.04 3.37z"/>
        </g>
        <g stroke="#000" class="edge">
            <path fill="none" d="M2769.67 400.21c16.06 19.99 45.09 52.64 76.91 71.79 29.22 17.59 64.85 29.89 95.84 38.18"/>
            <path d="m2942.9 506.68 8.81 5.89-10.56.89z"/>
        </g>
        <g stroke="#000" class="edge">
            <path fill="none" d="M2801.16 397.25c34.15 10.91 81.48 26.04 118.22 37.79"/>
            <path d="m2920.03 431.57 8.46 6.38-10.59.29z"/>
        </g>
        <g stroke="#000" class="edge">
            <path fill="none" d="M2705.25 395.98c-148.15 37.48-575.94 145.69-734.56 185.81"/>
            <path d="m1971.77 585.13-10.56-.94 8.84-5.84z"/>
        </g>
        <g stroke="#000" class="edge">
            <path fill="none" d="M2745.3 400.22c-10.48 18.29-23.03 47.82-12.72 71.78 18.38 42.74 34.23 51.5 76 72 43.17 21.19 166.3 36.65 252.13 45.23"/>
            <path d="m3060.92 585.73 9.6 4.46-10.29 2.51z"/>
        </g>
        <g stroke="#000" class="edge">
            <path fill="none" d="M3852.48 466.63c11.24 2.06 23.02 3.98 34.1 5.37 131.22 16.44 469.87-9.6 594 36 25.03 9.19 23.19 26.22 48 36 74.55 29.38 301.68 44.08 419.45 49.9"/>
            <path d="m4948.1 590.4 9.81 3.98-10.15 3.01z"/>
        </g>
        <g stroke="#000" class="edge">
            <path fill="none" d="M3740.57 465.94c-97.84 18.45-304.2 55.88-479.99 78.06-185.46 23.4-404.01 39.69-522.32 47.58"/>
            <path d="m2738.5 595.07-10.21-2.83 9.75-4.16z"/>
        </g>
        <g stroke="#000" class="edge">
            <path fill="none" d="M3854.01 466.17c10.8 2.03 22.02 4.06 32.57 5.83 109.84 18.45 145.03-6.46 248 36 36.41 15.02 71.85 43.53 94.65 64.25"/>
            <path d="m4231.56 569.64 4.95 9.37-9.71-4.24z"/>
        </g>
        <g stroke="#000" class="edge">
            <path fill="none" d="M3726.14 459.8c-149.59 10.17-491.5 34.12-607.56 48.2-8.67 1.05-17.72 2.31-26.7 3.66"/>
            <path d="m3092.48 515.11-10.42-1.93 9.35-4.99z"/>
        </g>
        <g stroke="#000" class="edge">
            <path fill="none" d="M3726.03 459.75c-161.72 10.9-543.45 37.57-569.45 48.25-23.06 9.47-19.77 26.97-43 36-52.14 20.26-858.26 43.7-1120.94 50.83"/>
            <path d="m1992.89 598.32-10.09-3.22 9.9-3.77z"/>
        </g>
        <g stroke="#000" class="edge">
            <path fill="none" d="M3766.1 470.64c-42.25 20.28-120.16 55.2-190.52 73.36-112.06 28.91-244.91 42.25-332.1 48.27"/>
            <path d="m3243.74 595.76-10.21-2.82 9.74-4.16z"/>
        </g>
        <g stroke="#000" class="edge">
            <path fill="none" d="M3241.8 241.25c121.5 4.31 330.25 16.57 397.78 50.75 19.37 9.8 14.23 25.11 33 36 62.67 36.36 94.66 2.69 159 36 21.24 11 18.58 25.36 40 36 76.19 37.85 106.45 11.77 188 36 40.51 12.03 46.8 26.62 88 36 263.08 59.89 341.07-15.1 606 36 80.62 15.55 170.45 49.04 222.66 70.21"/>
            <path d="m4977.46 574.93 7.93 7.03-10.58-.55z"/>
        </g>
        <g stroke="#000" class="edge">
            <path fill="none" d="M3074.91 248.09c-76.93 9.5-198.68 25.56-303.33 43.91-76.07 13.34-93.84 23.17-170 36-63.17 10.64-240.11-8.69-286 36-57.66 56.16-43.33 130.32 20 180 34.75 27.26 147.96 41.09 228.93 47.67"/>
            <path d="m2564.5 588.16 9.7 4.27-10.24 2.71z"/>
        </g>
        <g stroke="#000" class="edge">
            <path fill="none" d="M3166.55 256.19c30.68 33.96 104.53 109.31 184.03 143.81 106.21 46.09 147.43 1.66 258 36 34.17 10.61 38.07 24.64 72 36 83.57 27.98 108.74 17.92 195 36 112.79 23.64 243.45 55.27 318.15 73.76"/>
            <path d="m4194.45 578.33 8.86 5.81-10.55.99z"/>
        </g>
        <g stroke="red" stroke-width="2" class="edge">
            <path fill="none" d="M3095.9 252.58c-47.58 11.61-116.11 28.32-166.22 40.54"/>
            <path fill="red" d="m2932.13 296.13-10.55-1.03 8.89-5.77z"/>
        </g>
        <g stroke="#000" class="edge">
            <path fill="none" d="M3151.58 256.41v96.17"/>
            <path d="m3155.08 352.38-3.5 10-3.5-10z"/>
        </g>
        <g stroke="#000" class="edge">
            <path fill="none" d="M3093.64 252.19c-21.05 7.89-42.68 20.33-55.06 39.81-25.75 40.51-17.4 63.27 0 108 7.87 20.23 25.13 15.77 33 36 5.8 14.91 6.33 21.3 0 36-4.77 11.09-13.13 20.94-21.96 29.05"/>
            <path d="m3052.16 503.49-9.89 3.81 5.35-9.14z"/>
        </g>
        <g stroke="#000" class="edge">
            <path fill="none" d="M3062.23 241.96c-165.11 6.07-511.79 21.79-628.65 50.04-39.88 9.64-46.82 20.98-85 36-43.57 17.14-57.37 14.57-99 36-122.7 63.17-253.32 163.74-309.99 209.25"/>
            <path d="m1941.98 575.81-9.98 3.56 5.59-9.01z"/>
        </g>
        <g stroke="#000" class="edge">
            <path fill="none" d="M3136.09 256.02c-19.49 22.67-51.92 64.95-64.51 107.98-4.49 15.36-3.32 20.35 0 36 3.63 17.13 9.3 19.83 16 36 19.29 46.53 39.99 101.41 51.92 133.58"/>
            <path d="m3142.63 567.95.19 10.6-6.75-8.17z"/>
        </g>
        <g stroke="#000" class="edge">
            <path fill="none" d="M1202.44 321.46c-24.12 2.37-49.91 4.73-73.86 6.54-306.21 23.2-385.14-.89-690 36-6.87.83-14 1.88-21.11 3.04"/>
            <path d="m418.31 370.45-10.45-1.75 9.26-5.15z"/>
        </g>
        <g stroke="#000" class="edge">
            <path fill="none" d="M1249.9 326.72c-17.49 8.19-35.28 20.18-45.32 37.28-8.1 13.8-9.78 23.34 0 36 19.38 25.08 244.94 65.71 276 72 109.16 22.09 147.16-11.29 248 36 21.65 10.15 17.94 26.77 40 36 71.77 30.04 583.21 45.73 793.28 50.97"/>
            <path d="m2561.72 591.46 9.91 3.75-10.08 3.25z"/>
        </g>
        <g stroke="#000" class="edge">
            <path fill="none" d="M1303.04 328.3c1.48 7.38 3.23 16.18 4.89 24.45"/>
            <path d="m1311.33 351.92-1.47 10.49-5.39-9.12z"/>
        </g>
        <g class="node" transform="translate(4 616)">
            <ellipse cx="778.58" cy="-234" fill="none" stroke="#000" rx="60.56" ry="18"/>
            <text x="778.58" y="-228.95" font-family="Times,serif" font-size="14" text-anchor="middle">:library:room</text>
        </g>
        <g stroke="#000" class="edge">
            <path fill="none" d="M1201.32 321.25c-110.79 11.81-283.94 31.08-348.74 42.75-4.84.87-9.84 1.88-14.85 2.95"/>
            <path d="m838.85 370.29-10.53-1.22 8.99-5.61z"/>
        </g>
        <g stroke="#000" class="edge">
            <path fill="none" d="M414.76 327.95c-10.77 8.77-24.11 19.62-35.9 29.22"/>
            <path d="m381.34 359.66-9.96 3.6 5.55-9.03z"/>
        </g>
        <g stroke="#000" class="edge">
            <path fill="none" d="M350.65 324.19c-58.63 12.83-120.91 36.32-90.07 75.81 162.39 207.99 314.6 107.94 576 144 43.15 5.95 1365.62 41.16 1725.4 50.65"/>
            <path d="m2561.94 591.14 9.91 3.77-10.09 3.23z"/>
        </g>
        <g stroke="#000" class="edge">
            <path fill="none" d="M464.87 327.95c15.9 9.2 35.77 20.69 52.94 30.62"/>
            <path d="m519.35 355.42 6.9 8.03-10.41-1.97z"/>
        </g>
        <g stroke="#000" class="edge">
            <path fill="none" d="M507.48 325.5c63.5 12.81 155.04 31.28 214.79 43.33"/>
            <path d="m722.82 365.37 9.11 5.41-10.5 1.46z"/>
        </g>
        <g stroke="#000" class="edge">
            <path fill="none" d="M4376.97 328.3c4.19 7.72 9.22 16.99 13.89 25.59"/>
            <path d="m4393.88 352.11 1.69 10.46-7.84-7.12z"/>
        </g>
        <g stroke="#000" class="edge">
            <path fill="none" d="M4431.14 326.86c50.2 15.38 107.08 41.07 76.44 73.14-30.51 31.92-749.9 33.83-794 36-65.06 3.2-137.53 7.01-197.12 10.22"/>
            <path d="m3516.79 449.71-10.18-2.96 9.8-4.03z"/>
        </g>
        <g stroke="#000" class="edge">
            <path fill="none" d="M905.26 322.85c-14.91 1.83-30.22 3.62-44.68 5.15-187.19 19.85-235.53 10.31-422 36-6.75.93-13.76 2.03-20.76 3.22"/>
            <path d="m418.83 370.6-10.45-1.71 9.24-5.19z"/>
        </g>
        <g stroke="#000" class="edge">
            <path fill="none" d="M1028.4 327.63c18.83 9.76 42.39 22.81 62.18 36.37 20.56 14.09 22.36 22.03 43 36 55.99 37.9 70.02 50.16 134 72 184.63 63.02 239.1 50.54 433 72 315.31 34.9 692.1 47.25 861.16 51.26"/>
            <path d="m2561.63 591.75 9.91 3.73-10.07 3.27z"/>
        </g>
        <g stroke="#000" class="edge">
            <path fill="none" d="M1094.32 321.1c131.83 13.36 362.63 36.74 493.47 49.99"/>
            <path d="m1587.87 367.58 9.6 4.49-10.31 2.48z"/>
        </g>
        <g stroke="#000" class="edge">
            <path fill="none" d="M946.21 326.97c-33.97 11.22-79.27 26.18-113.6 37.51"/>
            <path d="m833.91 367.74-10.59-.19 8.4-6.46z"/>
        </g>
        <g stroke="#000" class="edge">
            <path fill="none" d="M4112.93 325.93c63.91 12.03 153.2 28.83 216.3 40.7"/>
            <path d="m4329.63 363.15 9.18 5.29-10.47 1.59z"/>
        </g>
        <g stroke="#000" class="edge">
            <path fill="none" d="M4134.82 324.19c40.58 7.91 86.84 20.37 125.76 39.81 22.3 11.14 20.01 26.37 43 36 76.81 32.17 317.02-25.65 373 36 32.71 36.02-34.35 101.66-44 108-47.18 30.96-198.91 44.19-295.18 49.57"/>
            <path d="m4337.63 597.06-10.18-2.95 9.8-4.04z"/>
        </g>
        <g stroke="#000" class="edge">
            <path fill="none" d="M3954.63 326.02c-60.44 11.49-143.62 27.32-205.24 39.04"/>
            <path d="m3750.11 368.48-10.48-1.57 9.17-5.3z"/>
        </g>
        <g stroke="#000" class="edge">
            <path fill="none" d="M643.11 325.25C586.75 335.9 507.84 350.83 438.58 364c-5.99 1.14-12.2 2.32-18.44 3.51"/>
            <path d="m420.91 370.93-10.48-1.57 9.16-5.31z"/>
        </g>
        <g stroke="#000" class="edge">
            <path fill="none" d="M711.14 328.15c-7.23 19.62-14.93 51.63 1.44 71.85 193.26 238.77 371.25 105.42 676 144 227.3 28.77 923.96 45.87 1173.18 51.19"/>
            <path d="m2561.49 591.69 9.92 3.71-10.07 3.28z"/>
        </g>
        <g stroke="#000" class="edge">
            <path fill="none" d="M775.36 326.71c38.83 10.74 90.42 25.02 130.95 36.23"/>
            <path d="m907 359.5 8.7 6.04-10.57.71z"/>
        </g>
        <g stroke="#000" class="edge">
            <path fill="none" d="M734.4 328.3c7.63 8.35 16.92 18.52 25.31 27.68"/>
            <path d="m762.2 353.52 4.16 9.74-9.33-5.02z"/>
        </g>
        <g stroke="#000" class="edge">
            <path fill="none" d="M5015.3 250.97c11.32 1.98 23.14 3.79 34.28 5.03 400.49 44.73 504.5 1.44 906 36 16.67 1.44 34.5 3.48 51.4 5.65"/>
            <path d="m6006.97 294.12 9.46 4.78-10.37 2.16z"/>
        </g>
        <g stroke="#000" class="edge">
            <path fill="none" d="M4985.54 255.21c37.98 21.09 108.64 57.09 174.04 72.79 154.52 37.09 615.94 48.41 830.28 51.71"/>
            <path d="m5989.67 376.2 9.95 3.65-10.06 3.35z"/>
        </g>
        <g stroke="#000" class="edge">
            <path fill="none" d="M5016.86 250.62c10.86 1.94 22.11 3.82 32.72 5.38 145.53 21.38 183.41 15.03 329 36 6.91 1 14.09 2.12 21.26 3.3"/>
            <path d="m5400.31 291.83 9.28 5.11-10.45 1.79z"/>
        </g>
        <g stroke="#000" class="edge">
            <path fill="none" d="M4972.18 256.18c18.17 20.27 51.14 53.51 86.4 71.82 140.82 73.12 624.75 109.63 806.38 121"/>
            <path d="m5864.95 445.49 9.77 4.11-10.2 2.88z"/>
        </g>
        <g stroke="#000" class="edge">
            <path fill="none" d="M4964.7 256.22c16.94 42.06 59.17 153.79 71.88 251.78 2.06 15.87 2.34 20.17 0 36-1.21 8.18-3.41 16.84-5.8 24.74"/>
            <path d="m5034.13 569.77-6.43 8.42-.23-10.59z"/>
        </g>
        <g stroke="#000" class="edge">
            <path fill="none" d="M5015.03 251.11c57.48 12.12 145.89 30.76 206.77 43.6"/>
            <path d="m5222.29 291.23 9.06 5.49-10.51 1.36z"/>
        </g>
        <g stroke="#000" class="edge">
            <path fill="none" d="M4880.39 244.19c-87.94 7.04-225.26 21.84-269.81 47.81-52.77 30.76-38.61 68.27-85 108-49.58 42.46-65.63 52.74-128 72-176.9 54.62-231.8 9.3-415 36-78.58 11.45-96.21 26.15-175 36-52.67 6.58-806.35 38.42-1067.61 49.33"/>
            <path d="m2740.3 596.82-10.13-3.08 9.84-3.92z"/>
        </g>
        <g stroke="#000" class="edge">
            <path fill="none" d="M4961.99 256.36c12.14 52.31 39.99 209.53-41.41 287.64-41.14 39.47-411.91 49.58-581.73 52.14"/>
            <path d="m4339.03 599.64-10.05-3.36 9.95-3.64z"/>
        </g>
        <g stroke="#000" class="edge">
            <path fill="none" d="M5016.31 250.91c11.02 1.94 22.47 3.74 33.27 5.09 68.93 8.6 513.12 35.52 711.99 47.34"/>
            <path d="m5761.58 299.83 9.77 4.09-10.19 2.9z"/>
        </g>
        <g stroke="#000" class="edge">
            <path fill="none" d="M4877.45 241.68c-327.88 10.97-1566.55 52.39-1918.87 64.18"/>
            <path d="m2958.8 309.35-10.12-3.16 9.88-3.84z"/>
        </g>
        <g stroke="#000" class="edge">
            <path fill="none" d="M4876.14 239.25c-270.31 1.23-1136.26 8.6-1411.56 52.75-56.66 9.09-68.82 20.25-124 36-44.14 12.6-94.16 26.61-131.65 37.06"/>
            <path d="m3210.25 368.33-10.58-.69 8.7-6.05z"/>
        </g>
        <g stroke="#000" class="edge">
            <path fill="none" d="M5684.92 247.94c81.92 12.54 231.16 35.4 321.97 49.31"/>
            <path d="m6007.36 293.78 9.35 4.98-10.41 1.94z"/>
        </g>
        <g stroke="#000" class="edge">
            <path fill="none" d="M5655.71 254.54c18 10 41.31 23.66 60.87 37.46 20.36 14.37 20.3 25.71 43 36 72.32 32.76 161.1 45.83 230.09 50.79"/>
            <path d="m5989.74 375.29 9.75 4.16-10.22 2.83z"/>
        </g>
        <g stroke="#000" class="edge">
            <path fill="none" d="M5593.38 254.19c-21.89 10.02-50.85 23.26-74.8 34.22"/>
            <path d="m5520.23 291.5-10.55.98 7.64-7.34z"/>
        </g>
        <g stroke="#000" class="edge">
            <path fill="none" d="M5643.19 255.89c23.76 24.09 65.47 66.09 73.39 72.11 57.34 43.61 131.42 82.97 176.78 105.42"/>
            <path d="m5894.62 430.14 7.43 7.54-10.52-1.26z"/>
        </g>
        <g stroke="#000" class="edge">
            <path fill="none" d="M5635.84 256.22c8.87 19.09 18.98 50.07 4.74 71.78-124.63 189.93-415.36 246.43-549.68 262.7"/>
            <path d="m5091.41 594.16-10.34-2.32 9.53-4.63z"/>
        </g>
        <g stroke="#000" class="edge">
            <path fill="none" d="M5573.92 249.94c-58.24 12.09-152.27 31.63-216.11 44.89"/>
            <path d="m5358.64 298.23-10.51-1.39 9.08-5.46z"/>
        </g>
        <g stroke="#000" class="edge">
            <path fill="none" d="M5617.74 256.27c-12.27 23.27-34.48 62.82-48.16 71.73-175.23 114.15-722.37 119.03-930 144-185.57 22.31-236.76-5.51-419 36-44.02 10.03-50.73 27.12-95 36-233.27 46.78-832.26 27-1070 36-108.71 4.12-233.84 9.48-315.68 13.07"/>
            <path d="m2740.3 596.55-10.14-3.05 9.83-3.94z"/>
        </g>
        <g stroke="#000" class="edge">
            <path fill="none" d="M5626.31 256.16c-1.2 19.62-6 51.63-23.73 71.84-82.53 94.05-398.13 187.62-520 216-139.66 32.53-562.94 46.52-744.18 51.13"/>
            <path d="m4338.67 598.62-10.08-3.24 9.91-3.75z"/>
        </g>
        <g stroke="#000" class="edge">
            <path fill="none" d="M5670.3 252.25c36.35 11.01 88.4 26.79 128.41 38.91"/>
            <path d="m5799.65 287.79 8.56 6.25-10.59.45z"/>
        </g>
        <g stroke="#000" class="edge">
            <path fill="none" d="M5559.23 242.26c-80.35 3.79-218.78 10-337.65 13.74-191.5 6.02-1537-5.73-1724 36-38.45 8.58-43.46 24.06-81 36-63.56 20.2-138.23 34.31-192.08 42.86"/>
            <path d="m3225.25 374.29-10.42-1.92 9.34-5z"/>
        </g>
        <g stroke="#000" class="edge">
            <path fill="none" d="M6344.83 167.14c-96.09 2.26-240.37 12.53-275.25 52.86-14.44 16.69-8.71 42.02-.66 61.39"/>
            <path d="m6072.04 279.8.99 10.55-7.35-7.63z"/>
        </g>
        <g stroke="#000" class="edge">
            <path fill="none" d="M6435.22 184.26c2.11 33.06 1.53 105.45-38.64 143.74-7.65 7.29-124.39 26.67-208.68 39.86"/>
            <path d="m6188.67 371.28-10.42-1.91 9.34-5z"/>
        </g>
        <g stroke="#000" class="edge">
            <path fill="none" d="M6345.24 168.35c-209.99 3.78-726.76 16.57-796.66 51.65-26.85 13.48-47.81 41.32-60.66 62.29"/>
            <path d="m5491.1 283.78-8.07 6.86 2.03-10.4z"/>
        </g>
        <g stroke="#000" class="edge">
            <path fill="none" d="M6438.93 184.37c9.15 33.58 23.13 107.32-17.35 143.63-59.76 53.6-107.13-3.52-177 36-18.89 10.69-14.05 25.42-33 36-63.84 35.62-147.43 47.72-206.02 51.62"/>
            <path d="m6005.89 455.1-10.19-2.9 9.78-4.08z"/>
        </g>
        <g stroke="#000" class="edge">
            <path fill="none" d="M6518.91 171.31c129.2 7.3 362.6 23.75 391.67 48.69 31.09 26.67 24 48.03 24 89v146c0 42.67-.96 64.65-36 89-75.27 52.31-1466.74 53.62-1804.57 53.16"/>
            <path d="m5094.42 600.66-9.99-3.51 10-3.49z"/>
        </g>
        <g stroke="#000" class="edge">
            <path fill="none" d="M6345.18 168.26c-200.22 3.45-683.19 15.4-841.6 51.74-63.63 14.6-132.57 46.44-174.52 67.81"/>
            <path d="m5330.83 290.83-10.49 1.47 7.28-7.69z"/>
        </g>
        <g stroke="#000" class="edge">
            <path fill="none" d="M6511.38 175.03c68.76 8.36 162.72 23.31 193.2 44.97 41.98 29.84 61.87 60.49 42 108-17.58 42.04-32.59 50.94-73 72-156.71 81.64-215.38 52.49-391 72-811.19 90.13-1019.25 45.45-1835 72-618.55 20.13-773.48 14.99-1392 36-108.89 3.7-234.24 9.16-316.07 12.89"/>
            <path d="m2739.92 596.37-10.14-3.04 9.83-3.95z"/>
        </g>
        <g stroke="#000" class="edge">
            <path fill="none" d="M6517.31 172.25c111.37 7.85 296.7 24.28 317.27 47.75 77.11 87.97 30.38 203.34-76 252-292.45 133.78-399.08 51.21-720 72-170.41 11.04-1370.24 42.37-1700.2 50.86"/>
            <path d="m4338.61 598.35-10.08-3.24 9.9-3.76z"/>
        </g>
        <g stroke="#000" class="edge">
            <path fill="none" d="M6349.44 172.04c-77.35 6.23-194.56 19.68-292.86 47.96-57.76 16.62-120.44 46.87-159.71 67.44"/>
            <path d="m5898.74 290.41-10.47 1.59 7.19-7.77z"/>
        </g>
        <g stroke="#000" class="edge">
            <path fill="none" d="M6502.86 177.65c105.81 19.21 288.83 65.73 222.72 150.35-122.1 156.3-253.89 22.81-433 108-24.08 11.45-22.82 27.21-48 36-21.4 7.47-1410.54 41.38-1795.85 50.65"/>
            <path d="m4448.94 526.15-10.08-3.26 9.91-3.74z"/>
        </g>
        <g stroke="#000" class="edge">
            <path fill="none" d="M6345.02 168.18C5999.31 172.9 4707.2 191.52 3643.58 220c-135.74 3.63-292.5 9.31-391.9 13.09"/>
            <path d="m3252.09 236.57-10.13-3.11 9.86-3.88z"/>
        </g>
        <g class="node" transform="translate(4 616)">
            <ellipse cx="6597.58" cy="-306" fill="none" stroke="#000" rx="115.33" ry="18"/>
            <text x="6597.58" y="-300.95" font-family="Times,serif" font-size="14" text-anchor="middle">:app:core:calendar-compose</text>
        </g>
        <g stroke="#000" class="edge">
            <path fill="none" d="M6453.51 183.85c29.6 25.02 85.34 72.13 119.34 100.87"/>
            <path d="m6574.88 281.85 5.38 9.13-9.9-3.79z"/>
        </g>
        <g stroke="#000" class="edge">
            <path fill="none" d="M5210.9 242.17c144.6 6.45 471.03 22.85 744.68 49.83 16.31 1.61 33.75 3.69 50.34 5.83"/>
            <path d="m6006.29 294.35 9.45 4.78-10.37 2.16z"/>
        </g>
        <g stroke="#000" class="edge">
            <path fill="none" d="M5142.65 256.37c9.63 21.11 29.04 55.87 57.93 71.63 17.2 9.38 557.98 36.48 793.33 47.86"/>
            <path d="m5993.9 372.36 9.82 3.98-10.16 3.01z"/>
        </g>
        <g stroke="#000" class="edge">
            <path fill="none" d="M5191.77 250.64c57.91 11.99 148.34 30.72 211.08 43.71"/>
            <path d="m5403.27 290.86 9.08 5.46-10.5 1.4z"/>
        </g>
        <g stroke="#000" class="edge">
            <path fill="none" d="M5135.04 256.22c.38 20.29 4.33 53.56 24.54 71.78 13.3 11.99 527.46 88.59 710.84 115.6"/>
            <path d="m5870.88 440.12 9.38 4.92-10.4 2.01z"/>
        </g>
        <g stroke="#000" class="edge">
            <path fill="none" d="M5132.44 256.39c-8.9 47.44-36.59 182.6-80.86 287.61-3.73 8.84-8.67 18.02-13.5 26.2"/>
            <path d="m5041.11 571.95-8.21 6.69 2.24-10.35z"/>
        </g>
        <g stroke="#000" class="edge">
            <path fill="none" d="M5169.76 254.54c22.15 10.07 51.24 23.29 75.21 34.18"/>
            <path d="m5246.2 285.44 7.65 7.32-10.55-.95z"/>
        </g>
        <g stroke="#000" class="edge">
            <path fill="none" d="M5105.93 254.93c-82.98 43.71-325.7 165.67-543.35 217.07-165.1 38.99-212.82 7.21-380 36-64.59 11.12-78.12 26.75-143 36-433.25 61.76-546.71 18.8-984 36-108.7 4.28-233.83 9.6-315.68 13.14"/>
            <path d="m2740.3 596.63-10.14-3.06 9.84-3.93z"/>
        </g>
        <g stroke="#000" class="edge">
            <path fill="none" d="M5127.64 256.04c-27.86 59.01-122.56 252.92-180.06 287.96-50.92 31.04-436.43 45.74-609.43 50.83"/>
            <path d="m4338.43 598.33-10.1-3.21 9.9-3.79z"/>
        </g>
        <g stroke="#000" class="edge">
            <path fill="none" d="M5205.46 245.78c131.59 12.75 415.96 40.32 561.82 54.47"/>
            <path d="m5767.27 296.73 9.62 4.45-10.29 2.52z"/>
        </g>
        <g stroke="#000" class="edge">
            <path fill="none" d="M5080.04 250.81c-10.42 1.94-21.25 3.78-31.46 5.19-96.74 13.39-351.97-10.22-438 36-53.81 28.91-35.19 72.65-85 108-40.23 28.55-62.03 11.76-105 36-21.71 12.25-19.7 27.14-43 36-126.87 48.23-1085.65 25.87-1221 36-18.82 1.41-38.99 3.5-58.03 5.73"/>
            <path d="m3099.04 517.2-10.35-2.29 9.51-4.66z"/>
        </g>
        <g stroke="#000" class="edge">
            <path fill="none" d="M5078.54 250.44c-9.98 1.92-20.26 3.84-29.96 5.56-84.36 14.95-181.1 30.13-248.49 40.39"/>
            <path d="m4801.02 299.79-10.41-1.96 9.36-4.96z"/>
        </g>
        <g stroke="#000" class="edge">
            <path fill="none" d="M6144.97 255.95c-10.05 8.68-22.46 19.41-33.49 28.94"/>
            <path d="m6114.01 287.33-9.86 3.89 5.28-9.19z"/>
        </g>
        <g stroke="#000" class="edge">
            <path fill="none" d="M6182.64 255.98c17.26 18.34 38.63 48.16 23.94 72.02-9.22 14.98-24.12 25.88-39.84 33.75"/>
            <path d="m6168.28 364.89-10.55.97 7.64-7.33z"/>
        </g>
        <g stroke="#000" class="edge">
            <path fill="none" d="M6088.32 246.73c-129.22 13.09-390.44 39.55-527.03 53.38"/>
            <path d="m5561.88 303.57-10.3-2.47 9.59-4.49z"/>
        </g>
        <g stroke="#000" class="edge">
            <path fill="none" d="M6172.91 256.17c8.18 19.64 17.23 51.67.67 71.83-52.34 63.71-113.86-10.44-182 36-21.88 14.91-37.2 41.28-46.41 61.46"/>
            <path d="m5948.44 426.72-7.16 7.81.73-10.57z"/>
        </g>
        <g stroke="#000" class="edge">
            <path fill="none" d="M6249.03 242.1c153.92 6.28 468.12 22.34 509.55 49.9 102.34 68.09 199.67 163.84 114 252-31.52 32.43-1437.65 48.79-1778.27 52.28"/>
            <path d="m5094.43 599.78-10.04-3.4 9.97-3.6z"/>
        </g>
        <g stroke="#000" class="edge">
            <path fill="none" d="M6079.52 241.28c-144.71 4.66-447.82 17.75-701.94 50.72-6.52.85-13.29 1.88-20.05 3.01"/>
            <path d="m5358.16 298.45-10.45-1.72 9.24-5.17z"/>
        </g>
        <g stroke="#000" class="edge">
            <path fill="none" d="M6199.64 254.81c14.86 8.69 30.63 21.03 38.94 37.19 10.2 19.86-2.42 98.16-9 108-36.08 53.93-64.43 54.84-127 72-198.17 54.33-1650.39-16.71-1849 36-32.3 8.57-33.76 27.23-66 36-121.43 33.03-1006.24 31.35-1132 36-108.71 4.02-233.84 9.4-315.68 13.02"/>
            <path d="m2740.3 596.51-10.14-3.06 9.83-3.94z"/>
        </g>
        <g stroke="#000" class="edge">
            <path fill="none" d="M6249.42 241.56c148.09 5.26 441.38 19.48 476.16 50.44 30.21 26.89 19 48.55 19 89v74c0 61.66-1972.68 126.05-2406.36 139.47"/>
            <path d="m4338.36 597.96-10.1-3.19 9.89-3.8z"/>
        </g>
        <g stroke="#000" class="edge">
            <path fill="none" d="M6107.91 251.92c-51.3 11.7-126.99 28.96-181.7 41.43"/>
            <path d="m5927.22 296.71-10.53-1.19 8.97-5.63z"/>
        </g>
        <g stroke="#000" class="edge">
            <path fill="none" d="M6191.01 255.53c12.03 9.12 25.02 21.62 31.57 36.47 10.16 23.05-7.53 103.83-11 108-62.62 75.16-111.68 54.92-208 72-72.66 12.88-2377.47 44.75-2888.37 51.66"/>
            <path d="m3115.4 527.16-10.05-3.37 9.95-3.63z"/>
        </g>
        <g stroke="#000" class="edge">
            <path fill="none" d="M6081.21 243.03c-249.25 12.04-988.33 47.74-1262.1 60.97"/>
            <path d="m4819.66 307.48-10.16-3.02 9.82-3.98z"/>
        </g>
        <g class="node" transform="translate(4 616)">
            <ellipse cx="4258.58" cy="-162" fill="none" stroke="#000" rx="106.11" ry="18"/>
            <text x="4258.58" y="-156.95" font-family="Times,serif" font-size="14" text-anchor="middle">:library:firebase-common</text>
        </g>
        <g stroke="#000" class="edge">
            <path fill="none" d="M4049.84 397.85c42.53 11.02 100.66 26.09 145.42 37.7"/>
            <path d="m4196.06 432.14 8.8 5.9-10.56.87z"/>
        </g>
        <g stroke="#000" class="edge">
            <path fill="none" d="M1672.76 400.14c-22.21 31.92-62.24 101.1-27.18 143.86 23.07 28.14 115.47 41.64 184.72 47.91"/>
            <path d="m1830.46 588.41 9.67 4.35-10.27 2.62z"/>
        </g>
        <g stroke="#000" class="edge">
            <path fill="none" d="M978.88 400.29c15.61 34.48 55.83 111.27 116.7 143.71 63.49 33.84 538.56 47.34 732.71 51.48"/>
            <path d="m1828.11 591.97 9.93 3.71-10.07 3.29z"/>
        </g>
        <g stroke="#000" class="edge">
            <path fill="none" d="M574.59 399.97c22.66 20.38 63.66 54.05 104.99 72.03 207.5 90.26 907.16 116.62 1148.41 123.12"/>
            <path d="m1828.05 591.62 9.91 3.76-10.09 3.24z"/>
        </g>
        <g stroke="#000" class="edge">
            <path fill="none" d="M826.84 394.64c8.5 1.98 17.37 3.88 25.74 5.36 560.21 99.33 704.4 104.89 1272 144 206.26 14.21 1676.73 44.02 2046.02 51.35"/>
            <path d="m4170.54 591.85 9.93 3.69-10.07 3.3z"/>
        </g>
        <g stroke="#000" class="edge">
            <path fill="none" d="M6517.89 322.72c-90.74 12.7-234.97 32.89-327.61 45.86"/>
            <path d="m6190.85 372.04-10.39-2.08 9.42-4.86z"/>
        </g>
        <g stroke="#000" class="edge">
            <path fill="none" d="M6534.79 325.1c-46.72 10.13-110.48 24.49-166.21 38.9-55.56 14.37-68.07 23.14-124 36-83.91 19.29-182.06 34.92-245.08 44.09"/>
            <path d="m6000.05 447.54-10.4-2.03 9.4-4.89z"/>
        </g>
        <g stroke="#000" class="edge">
            <path fill="none" d="M6562.11 327.22c-47.65 19.17-130.5 51.18-203.53 72.78-138.13 40.85-174.03 47.64-316 72-272.98 46.83-342.93 49.71-619 72-405.82 32.76-892.66 46.71-1084.97 51.22"/>
            <path d="m4338.79 598.72-10.08-3.27 9.91-3.73z"/>
        </g>
    </g>
</svg>
