<svg xmlns="http://www.w3.org/2000/svg" width="4873pt" height="476pt" viewBox="0 0 4872.95 476">
    <g class="graph">
        <path fill="#fff" d="M0 476V0h4872.95v476z"/>
        <g class="node" transform="translate(4 472)">
            <ellipse cx="2572.98" cy="-450" fill="none" stroke="#000" rx="78.99" ry="18"/>
            <text x="2572.98" y="-444.95" font-family="Times,serif" font-size="14" text-anchor="middle">:app:platform:jvm</text>
        </g>
        <g class="node" transform="translate(4 472)">
            <ellipse cx="2435.98" cy="-378" fill="none" stroke="#000" rx="97.41" ry="18"/>
            <text x="2435.98" y="-372.95" font-family="Times,serif" font-size="14" text-anchor="middle">:app:platform:common</text>
        </g>
        <g stroke="red" stroke-width="2" class="edge">
            <path fill="none" d="M2545.89 38.88c-18.91 9.67-43.31 22.13-63.92 32.66"/>
            <path fill="red" d="m2485.09 73.88-10.5 1.44 7.31-7.67z"/>
        </g>
        <g class="node" transform="translate(4 472)">
            <ellipse cx="174.98" cy="-306" fill="none" stroke="#000" rx="86.15" ry="18"/>
            <text x="174.98" y="-300.95" font-family="Times,serif" font-size="14" text-anchor="middle">:app:core:coroutines</text>
        </g>
        <g stroke="#000" class="edge">
            <path fill="none" d="M2498.05 23.73C2204.03 27.19 1144.8 46.42 278.98 148c-8.39.98-17.15 2.2-25.85 3.52"/>
            <path d="m253.7 154.97-10.42-1.9 9.33-5.01z"/>
        </g>
        <g class="node" transform="translate(4 472)">
            <ellipse cx="1868.98" cy="-234" fill="none" stroke="#000" rx="124.54" ry="18"/>
            <text x="1868.98" y="-228.95" font-family="Times,serif" font-size="14" text-anchor="middle">:app:core:diary-database-room</text>
        </g>
        <g stroke="#000" class="edge">
            <path fill="none" d="M2498.63 24.51C2376.59 29.9 2136.88 52.9 1960.98 148c-28.22 15.26-53.16 42.51-69.21 62.85"/>
            <path d="m1894.6 212.91-8.85 5.81 3.29-10.07z"/>
        </g>
        <g class="node" transform="translate(4 472)">
            <ellipse cx="345.98" cy="-162" fill="none" stroke="#000" rx="95.88" ry="18"/>
            <text x="345.98" y="-156.95" font-family="Times,serif" font-size="14" text-anchor="middle">:app:core:diary-service</text>
        </g>
        <g stroke="#000" class="edge">
            <path fill="none" d="M2497.99 23.82C2082.46 28.53 165.68 55.24 83.98 148c-63.88 72.52 91.69 122.35 191.01 145.76"/>
            <path d="m275.48 290.28 8.95 5.66-10.53 1.16z"/>
        </g>
        <g class="node" transform="translate(4 472)">
            <ellipse cx="2709.98" cy="-378" fill="none" stroke="#000" rx="158.32" ry="18"/>
            <text x="2709.98" y="-372.95" font-family="Times,serif" font-size="14" text-anchor="middle">:app:core:account-preferences-datastore</text>
        </g>
        <g stroke="#000" class="edge">
            <path fill="none" d="M2608.06 38.88c18.43 9.42 42.05 21.49 62.32 31.84"/>
            <path d="m2671.96 67.6 7.31 7.67-10.5-1.44z"/>
        </g>
        <g class="node" transform="translate(4 472)">
            <ellipse cx="3602.98" cy="-378" fill="none" stroke="#000" rx="157.3" ry="18"/>
            <text x="3602.98" y="-372.95" font-family="Times,serif" font-size="14" text-anchor="middle">:app:core:holiday-preferences-datastore</text>
        </g>
        <g stroke="#000" class="edge">
            <path fill="none" d="M2651.88 28.09c170.29 11.57 588.9 40.02 811.11 55.12"/>
            <path d="m3463.15 79.72 9.74 4.17-10.22 2.81z"/>
        </g>
        <g class="node" transform="translate(4 472)">
            <ellipse cx="2995.98" cy="-234" fill="none" stroke="#000" rx="133.24" ry="18"/>
            <text x="2995.98" y="-228.95" font-family="Times,serif" font-size="14" text-anchor="middle">:app:core:holiday-database-room</text>
        </g>
        <g stroke="#000" class="edge">
            <path fill="none" d="M2649.6 29.42c77.31 7.91 193.61 23.24 231.38 46.58 52.34 32.34 89.2 96.94 106.95 133.72"/>
            <path d="m2990.91 207.83 1.08 10.54-7.41-7.57z"/>
        </g>
        <g class="node" transform="translate(4 472)">
            <ellipse cx="2115.98" cy="-90" fill="none" stroke="#000" rx="104.58" ry="18"/>
            <text x="2115.98" y="-84.95" font-family="Times,serif" font-size="14" text-anchor="middle">:app:core:holiday-service</text>
        </g>
        <g stroke="#000" class="edge">
            <path fill="none" d="M2497.92 22.57c-105.26 1.29-296.38 10.17-452.94 53.43-144.88 40.03-225.47 17.09-306 144-8.58 13.51-10.64 24.04 0 36 45.5 51.17 245.71 3.55 306 36 26.18 14.09 47.04 41.39 60.05 62.05"/>
            <path d="m2107.99 352.19 2.17 10.38-8.16-6.76z"/>
        </g>
        <g class="node" transform="translate(4 472)">
            <ellipse cx="3488.98" cy="-162" fill="none" stroke="#000" rx="80.01" ry="18"/>
            <text x="3488.98" y="-156.95" font-family="Times,serif" font-size="14" text-anchor="middle">:library:koin-room</text>
        </g>
        <g stroke="#000" class="edge">
            <path fill="none" d="M2655.47 24.62C3028.73 32.71 4608.99 71.4 4677.98 148c32.12 35.67 33.17 73.31 0 108-9.46 9.89-821.07 39.93-1095.49 49.81"/>
            <path d="m3583.02 309.29-10.12-3.14 9.87-3.85z"/>
        </g>
        <g class="node" transform="translate(4 472)">
            <ellipse cx="4571.98" cy="-306" fill="none" stroke="#000" rx="93.32" ry="18"/>
            <text x="4571.98" y="-300.95" font-family="Times,serif" font-size="14" text-anchor="middle">:library:koin-datastore</text>
        </g>
        <g stroke="#000" class="edge">
            <path fill="none" d="M2655.43 24.88C2846.71 29.81 3352.2 44.94 3772.98 76c310.14 22.89 387.65 31.59 696 72 8.65 1.13 17.68 2.42 26.67 3.75"/>
            <path d="m4496.13 148.29 9.36 4.96-10.41 1.96z"/>
        </g>
        <g stroke="#000" class="edge">
            <path fill="none" d="M2342.61 95.53C1977.22 97.79 687.77 108.45 278.98 148c-8.75.85-17.89 2.01-26.94 3.33"/>
            <path d="m252.58 154.79-10.41-1.94 9.35-4.98z"/>
        </g>
        <g stroke="#000" class="edge">
            <path fill="none" d="M2342.76 95.64C1935.38 98.53 385.18 111.89 349.98 148c-33.98 34.85-21.73 96.8-10.42 132.84"/>
            <path d="m342.81 279.54-.15 10.59-6.49-8.38z"/>
        </g>
        <g stroke="#000" class="edge">
            <path fill="none" d="M2433.4 112.25c-12.83 31.8-43.91 100.38-88.42 143.75-49.95 48.66-122.61 84.45-171.73 104.97"/>
            <path d="m2174.82 364.11-10.59.56 7.93-7.04z"/>
        </g>
        <g class="node" transform="translate(4 472)">
            <ellipse cx="4067.98" cy="-162" fill="none" stroke="#000" rx="101" ry="18"/>
            <text x="4067.98" y="-156.95" font-family="Times,serif" font-size="14" text-anchor="middle">:app:core:design-system</text>
        </g>
        <g stroke="#000" class="edge">
            <path fill="none" d="M2508.31 107.23c12.81 1.91 26.12 3.62 38.67 4.77 78.58 7.21 1351.09-2.46 1420 36 6.86 3.83 60.45 89.16 88.3 134"/>
            <path d="m4058.2 280.06 2.29 10.34-8.24-6.65z"/>
        </g>
        <g class="node" transform="translate(4 472)">
            <ellipse cx="4577.98" cy="-234" fill="none" stroke="#000" rx="86.67" ry="18"/>
            <text x="4577.98" y="-228.95" font-family="Times,serif" font-size="14" text-anchor="middle">:app:core:navigation</text>
        </g>
        <g stroke="#000" class="edge">
            <path fill="none" d="M2508.02 107.23c12.9 1.91 26.31 3.63 38.96 4.77 728.34 65.52 919.25-53.81 1645 36 119.06 14.73 255.03 50.11 330.87 71.56"/>
            <path d="m4523.48 216.1 8.66 6.11-10.58.62z"/>
        </g>
        <g class="node" transform="translate(4 472)">
            <ellipse cx="4386.98" cy="-90" fill="none" stroke="#000" rx="82.57" ry="18"/>
            <text x="4386.98" y="-84.95" font-family="Times,serif" font-size="14" text-anchor="middle">:app:core:resources</text>
        </g>
        <g stroke="#000" class="edge">
            <path fill="none" d="M2508.01 107.24c12.9 1.92 26.32 3.63 38.97 4.76 388.76 34.7 1369.39-17.63 1756 36 62.78 8.71 75.78 23.89 138 36 60.93 11.86 236.03-10.64 277 36 30.99 35.28-34.31 102.59-42 108-31.45 22.13-126.92 36.73-198.76 44.9"/>
            <path d="m4477.73 376.36-10.32-2.37 9.55-4.58z"/>
        </g>
        <g class="node" transform="translate(4 472)">
            <ellipse cx="3979.98" cy="-90" fill="none" stroke="#000" rx="59.54" ry="18"/>
            <text x="3979.98" y="-84.95" font-family="Times,serif" font-size="14" text-anchor="middle">:library:color</text>
        </g>
        <g stroke="#000" class="edge">
            <path fill="none" d="M2508.31 107.23c12.81 1.9 26.12 3.62 38.67 4.77 76.75 7.06 1329.11-14.9 1387 36 60.8 53.46 6.1 102.06 28 180 2.37 8.44 5.71 17.34 9.07 25.39"/>
            <path d="m3974.16 351.76.8 10.56-7.21-7.76z"/>
        </g>
        <g class="node" transform="translate(4 472)">
            <ellipse cx="3853.98" cy="-18" fill="none" stroke="#000" rx="62.1" ry="18"/>
            <text x="3853.98" y="-12.95" font-family="Times,serif" font-size="14" text-anchor="middle">:library:kotlin</text>
        </g>
        <g stroke="#000" class="edge">
            <path fill="none" d="M2508.01 107.25c12.9 1.91 26.32 3.63 38.97 4.75 203.57 18.08 1638.86-5.39 1839 36 41.38 8.56 47.19 25.04 88 36 56.75 15.25 216.78-1.54 262 36 63.71 52.88 104.85 119.81 48 180-29.15 30.86-638.57 46.84-852.53 51.52"/>
            <path d="m3931.63 455.01-10.07-3.28 9.92-3.72z"/>
        </g>
        <g class="node" transform="translate(4 472)">
            <ellipse cx="3454.98" cy="-234" fill="none" stroke="#000" rx="79.5" ry="18"/>
            <text x="3454.98" y="-228.95" font-family="Times,serif" font-size="14" text-anchor="middle">:library:navigation</text>
        </g>
        <g stroke="#000" class="edge">
            <path fill="none" d="M2508.61 107.11c12.72 1.9 25.92 3.65 38.37 4.89 95.27 9.53 779.17-13.73 861 36 22.08 13.42 35.52 40.23 43.01 60.93"/>
            <path d="m3454.26 207.65-.17 10.59-6.48-8.38z"/>
        </g>
        <g class="node" transform="translate(4 472)">
            <ellipse cx="1216.98" cy="-18" fill="none" stroke="#000" rx="78.99" ry="18"/>
            <text x="1216.98" y="-12.95" font-family="Times,serif" font-size="14" text-anchor="middle">:library:coroutines</text>
        </g>
        <g stroke="#000" class="edge">
            <path fill="none" d="M2342.76 95.89c-348.43 3.46-1517.9 17.6-1589.78 52.11-111.15 53.37-204.25 165.89-116 252 39.54 38.59 441.22 28.75 496 36 6.52.86 13.29 1.91 20.04 3.04"/>
            <path d="m1153.6 435.59 9.24 5.18-10.45 1.72z"/>
        </g>
        <g class="node" transform="translate(4 472)">
            <ellipse cx="3059.98" cy="-18" fill="none" stroke="#000" rx="72.85" ry="18"/>
            <text x="3059.98" y="-12.95" font-family="Times,serif" font-size="14" text-anchor="middle">:library:datetime</text>
        </g>
        <g stroke="#000" class="edge">
            <path fill="none" d="M2487.87 110.13c86.6 28.47 273.39 95.05 415.11 181.87 21.25 13.02 20.73 24.79 43 36 61.24 30.82 107.55-17.84 150 36 14.52 18.42 2.87 44-10.27 63.01"/>
            <path d="m3088.71 428.84-8.76 5.96 3.13-10.12z"/>
        </g>
        <g class="node" transform="translate(4 472)">
            <ellipse cx="3717.98" cy="-234" fill="none" stroke="#000" rx="89.23" ry="18"/>
            <text x="3717.98" y="-228.95" font-family="Times,serif" font-size="14" text-anchor="middle">:library:shimmer-m3</text>
        </g>
        <g stroke="#000" class="edge">
            <path fill="none" d="M2508.31 107.16c12.81 1.91 26.12 3.64 38.67 4.84 121.4 11.59 986.76-16.16 1097 36 27.61 13.07 49.46 40.97 62.92 62.08"/>
            <path d="m3709.82 208.14 2.22 10.36-8.19-6.71z"/>
        </g>
        <g class="node" transform="translate(4 472)">
            <ellipse cx="2036.98" cy="-306" fill="none" stroke="#000" rx="71.31" ry="18"/>
            <text x="2036.98" y="-300.95" font-family="Times,serif" font-size="14" text-anchor="middle">:app:data:memo</text>
        </g>
        <g stroke="red" stroke-width="2" class="edge">
            <path fill="none" d="M2368.16 106.49c-63.71 10.34-159.27 26.22-242.18 41.51-6.45 1.19-13.16 2.46-19.87 3.76"/>
            <path fill="red" d="m2108.35 154.89-10.49-1.51 9.14-5.36z"/>
        </g>
        <g class="node" transform="translate(4 472)">
            <ellipse cx="763.98" cy="-162" fill="none" stroke="#000" rx="75.92" ry="18"/>
            <text x="763.98" y="-156.95" font-family="Times,serif" font-size="14" text-anchor="middle">:app:data:account</text>
        </g>
        <g stroke="#000" class="edge">
            <path fill="none" d="M2342.18 94.82c-288.59.06-1133.27 4.49-1404.2 53.18-100.02 17.97-157.53-10.39-217 72-14.72 20.4 1.97 46 19.41 64.5"/>
            <path d="m742.68 281.84 4.59 9.54-9.54-4.59z"/>
        </g>
        <g class="node" transform="translate(4 472)">
            <ellipse cx="438.98" cy="-306" fill="none" stroke="#000" rx="83.6" ry="18"/>
            <text x="438.98" y="-300.95" font-family="Times,serif" font-size="14" text-anchor="middle">:app:data:credential</text>
        </g>
        <g stroke="#000" class="edge">
            <path fill="none" d="M2342.8 95.86C2006.87 99.14 895.92 112.45 540.98 148c-8.64.87-17.67 2.05-26.59 3.39"/>
            <path d="m515.09 154.82-10.42-1.9 9.33-5.02z"/>
        </g>
        <g class="node" transform="translate(4 472)">
            <ellipse cx="2515.98" cy="-162" fill="none" stroke="#000" rx="74.89" ry="18"/>
            <text x="2515.98" y="-156.95" font-family="Times,serif" font-size="14" text-anchor="middle">:app:data:holiday</text>
        </g>
        <g stroke="#000" class="edge">
            <path fill="none" d="M2461.9 111.86c10.75 9.45 22.9 22.15 30.08 36.14 21.91 42.72 27.09 99.31 28.08 132.77"/>
            <path d="m2523.55 280.4-3.32 10.06-3.67-9.93z"/>
        </g>
        <g class="node" transform="translate(4 472)">
            <ellipse cx="987.98" cy="-234" fill="none" stroke="#000" rx="73.87" ry="18"/>
            <text x="987.98" y="-228.95" font-family="Times,serif" font-size="14" text-anchor="middle">:app:data:backup</text>
        </g>
        <g stroke="#000" class="edge">
            <path fill="none" d="M2343.44 96.47c-279.09 4.59-1074.28 20.3-1187.46 51.53-49.53 13.67-100.63 44.56-132.35 66.09"/>
            <path d="m1025.89 216.78-10.21 2.8 6.24-8.57z"/>
        </g>
        <g class="node" transform="translate(4 472)">
            <ellipse cx="791.98" cy="-234" fill="none" stroke="#000" rx="65.68" ry="18"/>
            <text x="791.98" y="-228.95" font-family="Times,serif" font-size="14" text-anchor="middle">:app:data:fetch</text>
        </g>
        <g stroke="#000" class="edge">
            <path fill="none" d="M2342.34 95.33c-270.57 1.46-1026.09 9.4-1270.36 52.67-83.49 14.79-176.57 48.63-230.49 70.06"/>
            <path d="m842.9 221.27-10.58.47 7.98-6.97z"/>
        </g>
        <g class="node" transform="translate(4 472)">
            <ellipse cx="1339.98" cy="-234" fill="none" stroke="#000" rx="62.1" ry="18"/>
            <text x="1339.98" y="-228.95" font-family="Times,serif" font-size="14" text-anchor="middle">:app:data:fcm</text>
        </g>
        <g stroke="#000" class="edge">
            <path fill="none" d="M2342.62 95.71c-239.04 2.34-841.33 12.21-922.64 52.29-27.1 13.36-48.35 41.22-61.42 62.23"/>
            <path d="m1361.71 211.79-8.12 6.81 2.1-10.39z"/>
        </g>
        <g class="node" transform="translate(4 472)">
            <ellipse cx="2247.98" cy="-234" fill="none" stroke="#000" rx="84.11" ry="18"/>
            <text x="2247.98" y="-228.95" font-family="Times,serif" font-size="14" text-anchor="middle">:app:domain:memo</text>
        </g>
        <g stroke="#000" class="edge">
            <path fill="none" d="M2417.67 111.85c-33.35 25.19-96.36 72.78-134.34 101.47"/>
            <path d="m2285.55 216.03-10.09 3.23 5.87-8.82z"/>
        </g>
        <g class="node" transform="translate(4 472)">
            <ellipse cx="1599.98" cy="-90" fill="none" stroke="#000" rx="88.71" ry="18"/>
            <text x="1599.98" y="-84.95" font-family="Times,serif" font-size="14" text-anchor="middle">:app:domain:account</text>
        </g>
        <g stroke="#000" class="edge">
            <path fill="none" d="M2347.45 100c-228.27 13.33-803.68 53.3-856.47 120-9.93 12.55-10.22 23.69 0 36 55.44 66.81 136.55-30.81 192 36 10.22 12.31 7.53 21.88 0 36-7.06 13.24-19.06 23.76-31.6 31.82"/>
            <path d="m1653.45 362.66-10.39 2.07 6.82-8.1z"/>
        </g>
        <g class="node" transform="translate(4 472)">
            <ellipse cx="1591.98" cy="-234" fill="none" stroke="#000" rx="96.39" ry="18"/>
            <text x="1591.98" y="-228.95" font-family="Times,serif" font-size="14" text-anchor="middle">:app:domain:credential</text>
        </g>
        <g stroke="#000" class="edge">
            <path fill="none" d="M2350.77 101.41c-96.57 7.74-254.87 22.78-389.79 46.59-107.84 19.03-231.21 51.38-303.37 71.39"/>
            <path d="m1658.95 222.65-10.58-.69 8.7-6.05z"/>
        </g>
        <g class="node" transform="translate(4 472)">
            <ellipse cx="2325.98" cy="-90" fill="none" stroke="#000" rx="87.69" ry="18"/>
            <text x="2325.98" y="-84.95" font-family="Times,serif" font-size="14" text-anchor="middle">:app:domain:holiday</text>
        </g>
        <g stroke="#000" class="edge">
            <path fill="none" d="M2447.77 112.11c12.97 31.27 34.86 98.61 6.21 143.89-19.99 31.58-48.89 10.27-76 36-17.89 16.97-30.59 42.11-38.42 61.34"/>
            <path d="m2342.91 354.39-6.86 8.07.32-10.59z"/>
        </g>
        <g class="node" transform="translate(4 472)">
            <ellipse cx="1926.98" cy="-162" fill="none" stroke="#000" rx="86.67" ry="18"/>
            <text x="1926.98" y="-156.95" font-family="Times,serif" font-size="14" text-anchor="middle">:app:domain:backup</text>
        </g>
        <g stroke="#000" class="edge">
            <path fill="none" d="M2402.14 110.91c-91.26 38.37-323.28 135.91-423.67 178.12"/>
            <path d="m1980 292.18-10.57.65 7.86-7.1z"/>
        </g>
        <g class="node" transform="translate(4 472)">
            <ellipse cx="1591.98" cy="-162" fill="none" stroke="#000" rx="78.48" ry="18"/>
            <text x="1591.98" y="-156.95" font-family="Times,serif" font-size="14" text-anchor="middle">:app:domain:fetch</text>
        </g>
        <g stroke="#000" class="edge">
            <path fill="none" d="M2343.49 96.67c-241.58 4.64-855.37 19.51-885.51 51.33-33.02 34.84-27.19 68.44 0 108 14.11 20.54 37.38 33.13 60.83 40.84"/>
            <path d="m1519.53 293.4 8.58 6.21-10.58.5z"/>
        </g>
        <g class="node" transform="translate(4 472)">
            <ellipse cx="1344.98" cy="-162" fill="none" stroke="#000" rx="74.89" ry="18"/>
            <text x="1344.98" y="-156.95" font-family="Times,serif" font-size="14" text-anchor="middle">:app:domain:fcm</text>
        </g>
        <g stroke="#000" class="edge">
            <path fill="none" d="M2343.39 96.74c-245.14 4.83-878.4 20.21-968.41 51.26-52.46 18.1-76.47 22.73-102 72-7.36 14.21-7.4 21.81 0 36 6.94 13.3 18.9 23.94 31.31 32.09"/>
            <path d="m1305.76 284.89 6.74 8.18-10.37-2.19z"/>
        </g>
        <g class="node" transform="translate(4 472)">
            <ellipse cx="4096.98" cy="-306" fill="none" stroke="#000" rx="81.55" ry="18"/>
            <text x="4096.98" y="-300.95" font-family="Times,serif" font-size="14" text-anchor="middle">:app:feature:memo</text>
        </g>
        <g stroke="#000" class="edge">
            <path fill="none" d="M2508.3 107.24c12.82 1.9 26.13 3.61 38.68 4.76 645.51 58.98 813.04-28.7 1458 36 8.43.85 17.23 2.01 25.94 3.34"/>
            <path d="m4031.47 147.88 9.32 5.04-10.43 1.87z"/>
        </g>
        <g class="node" transform="translate(4 472)">
            <ellipse cx="3831.98" cy="-306" fill="none" stroke="#000" rx="88.71" ry="18"/>
            <text x="3831.98" y="-300.95" font-family="Times,serif" font-size="14" text-anchor="middle">:app:feature:calendar</text>
        </g>
        <g stroke="#000" class="edge">
            <path fill="none" d="M2508.31 107.18c12.81 1.9 26.12 3.63 38.67 4.82 512.62 48.49 644.73-5.18 1158 36 16.06 1.29 33.18 3.15 49.56 5.18"/>
            <path d="m3754.76 149.68 9.48 4.73-10.36 2.21z"/>
        </g>
        <g class="node" transform="translate(4 472)">
            <ellipse cx="3553.98" cy="-306" fill="none" stroke="#000" rx="76.94" ry="18"/>
            <text x="3553.98" y="-300.95" font-family="Times,serif" font-size="14" text-anchor="middle">:app:feature:more</text>
        </g>
        <g stroke="#000" class="edge">
            <path fill="none" d="M2508.61 107.13c12.72 1.9 25.92 3.64 38.37 4.87 402.79 39.82 507.39-5.68 910 36 10.19 1.06 20.92 2.5 31.42 4.1"/>
            <path d="m3488.85 148.63 9.32 5.02-10.42 1.89z"/>
        </g>
        <g class="node" transform="translate(4 472)">
            <ellipse cx="3308.98" cy="-306" fill="none" stroke="#000" rx="86.15" ry="18"/>
            <text x="3308.98" y="-300.95" font-family="Times,serif" font-size="14" text-anchor="middle">:app:feature:account</text>
        </g>
        <g stroke="#000" class="edge">
            <path fill="none" d="M2509.2 107c12.55 1.89 25.53 3.66 37.78 5 261.14 28.64 328.1 15.37 590 36 29.04 2.29 60.74 5.22 89.13 7.99"/>
            <path d="m3226.11 152.48 9.61 4.46-10.29 2.5z"/>
        </g>
        <g class="node" transform="translate(4 472)">
            <ellipse cx="3202.98" cy="-162" fill="none" stroke="#000" rx="112.26" ry="18"/>
            <text x="3202.98" y="-156.95" font-family="Times,serif" font-size="14" text-anchor="middle">:library:firebase-messaging</text>
        </g>
        <g stroke="#000" class="edge">
            <path fill="none" d="M2511 106.7c12 1.85 24.33 3.69 35.98 5.3 266.23 36.8 371.98-42 595 108 22.88 15.39 40.59 41.65 51.71 61.67"/>
            <path d="m3196.74 279.95 1.59 10.47-7.78-7.19z"/>
        </g>
        <g stroke="#000" class="edge">
            <path fill="none" d="M1984.31 246.38c52.9 3.31 117.03 7.04 174.67 9.62 533.93 23.86 669.2-6.18 1202 36 17.94 1.42 37.18 3.55 55.27 5.83"/>
            <path d="m3416.68 294.35 9.47 4.75-10.37 2.19z"/>
        </g>
        <g stroke="#000" class="edge">
            <path fill="none" d="M1776.19 249.65c-24.52 2.4-50.81 4.71-75.21 6.35-56.47 3.78-978.7-4.72-1018 36-65.17 67.51 28.62 79.71 106 108 144.38 52.78 191.94 13.4 344 36 6.41.95 13.06 2.05 19.71 3.21"/>
            <path d="m1153.11 435.73 9.22 5.22-10.46 1.67z"/>
        </g>
        <g class="node" transform="translate(4 472)">
            <ellipse cx="997.98" cy="-162" fill="none" stroke="#000" rx="101.51" ry="18"/>
            <text x="997.98" y="-156.95" font-family="Times,serif" font-size="14" text-anchor="middle">:app:core:diary-database</text>
        </g>
        <g stroke="#000" class="edge">
            <path fill="none" d="M1773.87 249.19c-23.86 2.34-49.28 4.75-72.89 6.81-210.8 18.41-457.68 36.26-594.4 45.82"/>
            <path d="m1107.04 305.29-10.22-2.79 9.73-4.19z"/>
        </g>
        <g class="node" transform="translate(4 472)">
            <ellipse cx="3011.98" cy="-162" fill="none" stroke="#000" rx="60.56" ry="18"/>
            <text x="3011.98" y="-156.95" font-family="Times,serif" font-size="14" text-anchor="middle">:library:room</text>
        </g>
        <g stroke="#000" class="edge">
            <path fill="none" d="M1986.29 245.79c202.57 12.14 619.23 37.15 764.69 46.21 66.12 4.12 141.51 8.97 194.93 12.43"/>
            <path d="m2946.04 300.93 9.75 4.14-10.2 2.85z"/>
        </g>
        <g class="node" transform="translate(4 472)">
            <ellipse cx="1792.98" cy="-18" fill="none" stroke="#000" rx="71.31" ry="18"/>
            <text x="1792.98" y="-12.95" font-family="Times,serif" font-size="14" text-anchor="middle">:app:core:model</text>
        </g>
        <g stroke="#000" class="edge">
            <path fill="none" d="M417.53 323.15c109.53 19.24 332.82 56.63 523.45 76.85 283.48 30.06 621.73 44.8 774.26 50.32"/>
            <path d="m1714.96 446.81 9.87 3.86-10.12 3.14z"/>
        </g>
        <g class="node" transform="translate(4 472)">
            <ellipse cx="1034.98" cy="-18" fill="none" stroke="#000" rx="85.13" ry="18"/>
            <text x="1034.98" y="-12.95" font-family="Times,serif" font-size="14" text-anchor="middle">:common:exception</text>
        </g>
        <g stroke="#000" class="edge">
            <path fill="none" d="M338.03 328.04c-12.31 19.81-27.3 52.29-9.05 71.96 40.84 44.01 428.71 51.74 613.29 52.92"/>
            <path d="m942.09 449.42 9.98 3.55-10.02 3.45z"/>
        </g>
        <g class="node" transform="translate(4 472)">
            <ellipse cx="155.98" cy="-90" fill="none" stroke="#000" rx="121.98" ry="18"/>
            <text x="155.98" y="-84.95" font-family="Times,serif" font-size="14" text-anchor="middle">:app:core:account-preferences</text>
        </g>
        <g stroke="#000" class="edge">
            <path fill="none" d="M307.81 326.54c-27.46 10.11-63.55 23.41-93.2 34.33"/>
            <path d="m216.02 364.08-10.59.18 8.17-6.75z"/>
        </g>
        <g class="node" transform="translate(4 472)">
            <ellipse cx="406.98" cy="-90" fill="none" stroke="#000" rx="72.85" ry="18"/>
            <text x="406.98" y="-84.95" font-family="Times,serif" font-size="14" text-anchor="middle">:common:model</text>
        </g>
        <g stroke="#000" class="edge">
            <path fill="none" d="M364.74 327.95c7.27 8.34 16.18 18.56 24.23 27.8"/>
            <path d="m391.42 353.23 3.93 9.84-9.21-5.24z"/>
        </g>
        <g stroke="#000" class="edge">
            <path fill="none" d="M2867.88 98.52c398.58 9.29 1444.42 34.73 1601.1 49.48 9.42.89 19.27 2.08 29.02 3.43"/>
            <path d="m4498.47 147.96 9.39 4.9-10.39 2.03z"/>
        </g>
        <g stroke="#000" class="edge">
            <path fill="none" d="M2604.74 107.4c-19.55 1.84-39.74 3.48-58.76 4.6-121.81 7.15-2083.5-11.23-2196 36-93.24 39.14-154.16 152.46-178.29 205.29"/>
            <path d="m174.98 354.5-7.27 7.71.87-10.56z"/>
        </g>
        <g stroke="#000" class="edge">
            <path fill="none" d="M3756.46 99.83c172.2 6.57 463.44 20.79 712.52 48.17 9.04.99 18.48 2.22 27.85 3.55"/>
            <path d="m4497.3 148.08 9.39 4.92-10.41 2.01z"/>
        </g>
        <g stroke="#000" class="edge">
            <path fill="none" d="M3764 95.72c277.94 2.3 834.79 11.95 913.98 52.28 48.55 24.73 69 54.64 58 108-19.12 92.73-65.93 118.1-157 144-69.12 19.66-1123.35 44.36-1431.2 51.18"/>
            <path d="m3147.86 454.68-10.07-3.28 9.92-3.72z"/>
        </g>
        <g class="node" transform="translate(4 472)">
            <ellipse cx="3322.98" cy="-90" fill="none" stroke="#000" rx="120.96" ry="18"/>
            <text x="3322.98" y="-84.95" font-family="Times,serif" font-size="14" text-anchor="middle">:app:core:holiday-preferences</text>
        </g>
        <g stroke="#000" class="edge">
            <path fill="none" d="M3450.26 96.03c-94.32 4.33-201.86 17.12-232.28 51.97-47.94 54.91 52.42 96.1 78 108 58.08 27.01 243.62-12.04 286 36 10.58 12 10.09 23.59 0 36-10.38 12.75-91.23 28.12-159.16 39.01"/>
            <path d="m3423.53 370.44-10.42-1.89 9.33-5.02z"/>
        </g>
        <g stroke="#000" class="edge">
            <path fill="none" d="M3097.32 250.64c80.9 9.98 198.97 25.26 301.66 41.36 7.37 1.16 15.06 2.43 22.72 3.75"/>
            <path d="m3422.13 292.27 9.25 5.17-10.45 1.73z"/>
        </g>
        <g stroke="#000" class="edge">
            <path fill="none" d="M2884.94 247.36c-114.17 8.88-294.03 24.42-448.96 44.64-192.14 25.08-241.33 27.86-430 72-53.81 12.59-64.71 25.75-119 36-203.44 38.41-446.95 49.02-575.76 51.93"/>
            <path d="m1311.46 455.42-10.07-3.28 9.92-3.71z"/>
        </g>
        <g stroke="#000" class="edge">
            <path fill="none" d="M3003.93 256.3c1.69 7.38 3.7 16.18 5.59 24.45"/>
            <path d="m3012.91 279.89-1.18 10.53-5.64-8.97z"/>
        </g>
        <g class="node" transform="translate(4 472)">
            <ellipse cx="2693.98" cy="-90" fill="none" stroke="#000" rx="110.21" ry="18"/>
            <text x="2693.98" y="-84.95" font-family="Times,serif" font-size="14" text-anchor="middle">:app:core:holiday-database</text>
        </g>
        <g stroke="#000" class="edge">
            <path fill="none" d="M2964.45 255.71c-55.02 25.86-160.74 75.58-221.17 103.99"/>
            <path d="m2744.82 362.84-10.54 1.09 7.56-7.42z"/>
        </g>
        <g stroke="#000" class="edge">
            <path fill="none" d="M2056.55 396.75c-56.58 12.26-139.01 30.12-195.72 42.41"/>
            <path d="m1861.84 442.52-10.51-1.3 9.03-5.54z"/>
        </g>
        <g stroke="#000" class="edge">
            <path fill="none" d="M4133.86 324.58c54.33 11.92 133.21 29.23 189.25 41.53"/>
            <path d="m4323.85 362.69 9.02 5.56-10.52 1.27z"/>
        </g>
        <g stroke="#000" class="edge">
            <path fill="none" d="M4050.67 327.95c-11.18 8.89-25.07 19.94-37.27 29.64"/>
            <path d="m4015.67 360.26-10.01 3.49 5.65-8.96z"/>
        </g>
        <g stroke="#000" class="edge">
            <path fill="none" d="M4073.9 328.48c1.18 20.55-.5 54.07-20.92 71.52-34.17 29.19-672.31 46.06-905.01 51.25"/>
            <path d="m3148.13 454.75-10.08-3.28 9.92-3.72z"/>
        </g>
        <g stroke="#000" class="edge">
            <path fill="none" d="M4577.29 256.31c-10.39 34.51-38.91 111.35-94.31 143.69-28.99 16.92-1035.99 43.42-1335.68 50.94"/>
            <path d="m3147.69 454.44-10.08-3.25 9.91-3.75z"/>
        </g>
        <g stroke="#000" class="edge">
            <path fill="none" d="M3517.61 250.52c63.68 12.82 158.38 32.84 173.37 41.48 48.93 28.21 105.39 66.57 67 108-40.66 43.88-433.69 51.59-609.61 52.83"/>
            <path d="m3148.64 456.33-10.02-3.44 9.98-3.56z"/>
        </g>
        <g stroke="#000" class="edge">
            <path fill="none" d="M3752.03 255.29c47.89 25.95 141.43 76.65 193.91 105.09"/>
            <path d="m3947.41 357.2 7.12 7.84-10.46-1.69z"/>
        </g>
        <g stroke="#000" class="edge">
            <path fill="none" d="M1969.71 168.01c-242 3.74-1019.64 18.33-1060.73 51.99-61.92 50.72-62.88 123.68-6 180 36.76 36.4 179.04 27.09 230 36 6.03 1.05 12.29 2.19 18.57 3.35"/>
            <path d="m1152.14 435.9 9.18 5.28-10.47 1.6z"/>
        </g>
        <g stroke="#000" class="edge">
            <path fill="none" d="M2112.73 166.31c147.08 1.03 490.88 16.1 752.25 125.69 24.59 10.31 23.75 24.9 48 36 68.25 31.23 117.92-22.46 165 36 13.84 17.19 8.17 42.46.29 61.69"/>
            <path d="m3081.58 426.88-7.31 7.68.93-10.56z"/>
        </g>
        <g stroke="red" stroke-width="2" class="edge">
            <path fill="none" d="M2082.92 180.91c32.67 10.84 78.31 25.99 113.94 37.8"/>
            <path fill="red" d="m2196.31 214.84 8.39 6.47-10.6.18z"/>
        </g>
        <g stroke="#000" class="edge">
            <path fill="none" d="M1969.87 168.51c-202.64 4.67-773.55 20.45-851.89 51.49-23.18 9.18-23.35 20.67-43 36-12.8 9.98-27.19 20.56-39.79 29.62"/>
            <path d="m1037.36 288.38-10.17 2.96 6.1-8.66z"/>
        </g>
        <g stroke="#000" class="edge">
            <path fill="none" d="M774.24 328.43c8.48 20.83 25.73 54.97 52.74 71.57 58.32 35.86 238.34 25.5 306 36 6.4.99 13.05 2.11 19.69 3.29"/>
            <path d="m1153.11 435.81 9.21 5.24-10.47 1.65z"/>
        </g>
        <g stroke="#000" class="edge">
            <path fill="none" d="M828.05 321.39c114.13 19.27 370.39 60.25 587.93 78.61 597.37 50.43 1320.26 53.82 1563.52 53.38"/>
            <path d="m2979.2 449.88 10.01 3.48-10 3.52z"/>
        </g>
        <g stroke="#000" class="edge">
            <path fill="none" d="M830.77 320.46c19.29 2.69 40.59 5.46 60.21 7.54 220.15 23.37 479.64 39.9 616.78 47.78"/>
            <path d="m1507.74 372.27 9.78 4.07-10.18 2.92z"/>
        </g>
        <g stroke="#000" class="edge">
            <path fill="none" d="M700.88 318.73c-105.45 12.14-310.81 35.78-435.93 50.18"/>
            <path d="m265.68 372.35-10.33-2.33 9.53-4.62z"/>
        </g>
        <g stroke="#000" class="edge">
            <path fill="none" d="M431.76 184.13c-15.99 24.41-45.48 69.44-64.34 98.23"/>
            <path d="m370.47 284.1-8.41 6.44 2.56-10.28z"/>
        </g>
        <g stroke="#000" class="edge">
            <path fill="none" d="M378.96 177.95C236.25 204.8-86.61 280.59 28.98 400c42.68 44.09 1043.01 29.16 1104 36 6.9.77 14.07 1.79 21.2 2.95"/>
            <path d="m1154.56 435.47 9.27 5.14-10.45 1.76z"/>
        </g>
        <g stroke="#000" class="edge">
            <path fill="none" d="M526.47 167.92c318.55 3.73 1457.67 19.13 1818.51 52.08 51.84 4.73 414.25 53.72 463 72 28.05 10.52 29.25 24.69 57 36 70.71 28.83 110.76-14.54 168 36 17.34 15.32 24.99 40.88 28.35 60.69"/>
            <path d="m3064.76 423.96-2.08 10.39-4.85-9.42z"/>
        </g>
        <g stroke="#000" class="edge">
            <path fill="none" d="M524.65 170.37c167.22 7.14 560.63 25.17 890.33 49.63 28.21 2.09 58.87 4.81 86.79 7.45"/>
            <path d="m1502.01 223.95 9.62 4.44-10.29 2.53z"/>
        </g>
        <g stroke="#000" class="edge">
            <path fill="none" d="M412.59 183.09C372.34 205.08 300.04 246.95 244.98 292c-23.45 19.19-47 44.42-63.35 63.12"/>
            <path d="m184.39 357.29-9.18 5.28 3.88-9.86z"/>
        </g>
        <g stroke="#000" class="edge">
            <path fill="none" d="M2460.96 321.33c-68.36 11.96-181.41 31.74-258.45 45.23"/>
            <path d="m2203.36 369.96-10.45-1.72 9.24-5.17z"/>
        </g>
        <g stroke="#000" class="edge">
            <path fill="none" d="M2508.2 328.21c-15.7 21.3-45.67 56.6-81.22 71.79-25.64 10.95-842.11 40.32-1116.83 49.92"/>
            <path d="m1310.28 453.42-10.11-3.15 9.87-3.85z"/>
        </g>
        <g stroke="#000" class="edge">
            <path fill="none" d="M2576.92 322.03c10.65 2.02 21.69 4.08 32.06 5.97 92.3 16.8 122.88-3.47 208 36 22.61 10.49 20.84 24.59 43 36 40.88 21.06 90.79 34.21 131.01 42.15"/>
            <path d="m2991.41 438.67 9.17 5.3-10.48 1.57z"/>
        </g>
        <g stroke="#000" class="edge">
            <path fill="none" d="M2480.15 325.67c-28.52 10.51-67.2 24.76-98.15 36.17"/>
            <path d="m2383.41 365.04-10.59.18 8.17-6.74z"/>
        </g>
        <g stroke="#000" class="edge">
            <path fill="none" d="M2589.48 317.03c139.38 12.09 454.18 39.39 623.92 54.12"/>
            <path d="m3213.45 367.64 9.66 4.35-10.26 2.62z"/>
        </g>
        <g stroke="#000" class="edge">
            <path fill="none" d="M2557.73 325.85c25.79 10.14 60.29 23.7 88.61 34.84"/>
            <path d="m2647.43 357.36 8.03 6.92-10.59-.4z"/>
        </g>
        <g stroke="#000" class="edge">
            <path fill="none" d="M930.17 248.15c-18.97 2.68-39.92 5.52-59.19 7.85-148.05 17.92-320.26 34.64-424.9 44.33"/>
            <path d="m446.7 303.79-10.28-2.57 9.64-4.4z"/>
        </g>
        <g stroke="#000" class="edge">
            <path fill="none" d="M929.76 248.13c-98 14.44-277.51 41.22-279.78 43.87-10.41 12.15-3.85 20.47 0 36 8.7 35.12 7.79 52.08 38 72 82.82 54.61 346.7 22.57 445 36 6.52.89 13.28 1.95 20.04 3.1"/>
            <path d="m1153.6 435.65 9.23 5.19-10.45 1.7z"/>
        </g>
        <g stroke="#000" class="edge">
            <path fill="none" d="M1062.39 243.93c56.81 3.81 138.81 8.95 210.59 12.07 75.73 3.29 1293.95 7.01 1364 36 21.49 8.9 17.18 25.61 38 36 85.9 42.87 127.09-6.87 213 36 20.81 10.39 18.32 23.59 38 36 24.6 15.51 54.46 27.67 80.1 36.41"/>
            <path d="m3006.95 433.02 8.4 6.46-10.6.18z"/>
        </g>
        <g stroke="#000" class="edge">
            <path fill="none" d="M1061.79 244.2c167.04 12.46 589.8 43.97 777.25 57.95"/>
            <path d="m1839.28 298.65 9.71 4.24-10.23 2.75z"/>
        </g>
        <g stroke="#000" class="edge">
            <path fill="none" d="M994.45 256.3c1.05 7.38 2.31 16.18 3.49 24.45"/>
            <path d="m1001.37 280-2.05 10.4-4.88-9.41z"/>
        </g>
        <g stroke="#000" class="edge">
            <path fill="none" d="M739.94 247.79c-77.4 12.15-217.61 34.16-307.13 48.21"/>
            <path d="m433.53 299.43-10.42-1.91 9.34-5.01z"/>
        </g>
        <g stroke="#000" class="edge">
            <path fill="none" d="M732.78 243.38c-33.39 5.92-71.73 19.21-92.8 48.62-15.85 22.12 5.89 100.01 15 108 40.03 35.13 425.21 28.94 478 36 6.52.87 13.29 1.92 20.04 3.06"/>
            <path d="m1153.6 435.61 9.24 5.18-10.46 1.71z"/>
        </g>
        <g stroke="#000" class="edge">
            <path fill="none" d="M850.13 248.59c18.59 2.9 39.57 5.76 58.85 7.41 93.84 8.02 1609.19-2.84 1695 36 19.77 8.95 13.92 25.65 33 36 85.55 46.4 129.78-9.14 216 36 19.77 10.35 15.93 24.41 35 36 32.22 19.58 72.18 32.37 105.88 40.48"/>
            <path d="m2994.6 437.05 8.96 5.66-10.53 1.16z"/>
        </g>
        <g stroke="#000" class="edge">
            <path fill="none" d="M851.04 248.19c18.38 2.83 39 5.74 57.94 7.81 232.05 25.38 291.43 15.89 524 36 26.79 2.32 56.01 5.24 82.23 8.01"/>
            <path d="m1515.55 296.52 9.57 4.54-10.31 2.42z"/>
        </g>
        <g stroke="#000" class="edge">
            <path fill="none" d="M836.19 252.66c31.3 10.64 75.11 25.53 109.84 37.33"/>
            <path d="m946.72 286.53 8.34 6.53-10.6.09z"/>
        </g>
        <g stroke="#000" class="edge">
            <path fill="none" d="M1283.78 242.86c-174.69 11.21-674.01 43.35-747.8 49.14-29.54 2.32-61.69 5.15-90.82 7.83"/>
            <path d="m445.52 303.31-10.28-2.56 9.63-4.41z"/>
        </g>
        <g stroke="#000" class="edge">
            <path fill="none" d="M1309.23 253.28c-22.6 9.8-52.39 23.72-77.25 38.72-22.84 13.77-24.73 22.98-48 36-37.96 21.24-66.55.03-91 36-9 13.23-8.89 22.7 0 36 12.69 18.99 33.57 31.18 54.83 39.01"/>
            <path d="m1148.77 435.64 8.37 6.49-10.59.15z"/>
        </g>
        <g stroke="#000" class="edge">
            <path fill="none" d="M1399.37 246.53c27.49 3.45 61.24 7.26 91.61 9.47 131.27 9.57 1062.48-14.57 1184 36 21.48 8.94 17.18 25.61 38 36 85.9 42.87 127.09-6.87 213 36 20.81 10.39 19.1 22.43 38 36 17.21 12.36 37.66 23.71 55.57 32.71"/>
            <path d="m3020.97 429.51 7.43 7.55-10.51-1.27z"/>
        </g>
        <g stroke="#000" class="edge">
            <path fill="none" d="M1345.21 256.3c.52 7.29 1.14 15.97 1.73 24.16"/>
            <path d="m1350.43 280.16-2.78 10.23-4.21-9.73z"/>
        </g>
        <g stroke="#000" class="edge">
            <path fill="none" d="M1399.01 246.59c27.56 3.49 61.47 7.31 91.97 9.41 707.39 48.78 888.26-21.42 1595 36 10.35.84 21.18 1.98 31.91 3.28"/>
            <path d="m3118.03 291.77 9.49 4.72-10.36 2.23z"/>
        </g>
        <g stroke="#000" class="edge">
            <path fill="none" d="M2334.78 241.51c249.3 7.75 978.62 31.91 1026.2 50.49 23.21 9.07 19.95 26.52 43 36 88.68 36.48 356.38-25.44 430 36 17.38 14.5 22.88 40.15 24.32 60.2"/>
            <path d="m3861.79 423.88-3.11 10.13-3.88-9.86z"/>
        </g>
        <g stroke="#000" class="edge">
            <path fill="none" d="M2174.96 245.41c-40.22 3.28-90.24 7.28-134.98 10.59-117.95 8.73-421.27-8.13-531 36-23.13 9.3-21.28 23.78-43 36-43.37 24.38-61.17 14.43-106 36-39.04 18.78-80.44 46.42-107.81 65.9"/>
            <path d="m1254.5 432.54-10.16 3 6.07-8.68z"/>
        </g>
        <g stroke="#000" class="edge">
            <path fill="none" d="M2314.07 250.56c11.89 1.99 24.27 3.91 35.91 5.44 177.41 23.31 227.31-7.05 401 36 40.22 9.97 46.48 23.53 86 36 71.58 22.58 102.57-5.67 165 36 22.57 15.07 39.37 41.37 49.75 61.49"/>
            <path d="m3054.78 423.75 1.26 10.52-7.55-7.44z"/>
        </g>
        <g stroke="#000" class="edge">
            <path fill="none" d="M2180.7 247.93c-118.6 14.88-343.75 43.21-345.72 44.07-22.84 9.97-20.96 24.36-43 36-34.5 18.22-75.96 30.77-111.16 39.06"/>
            <path d="m1681.63 370.47-10.52-1.2 8.97-5.63z"/>
        </g>
        <g stroke="red" stroke-width="2" class="edge">
            <path fill="none" d="m2194.59 251.51-194.46 42.41"/>
            <path fill="red" d="m2002.7 296.94-10.52-1.29 9.02-5.55z"/>
        </g>
        <g stroke="#000" class="edge">
            <path fill="none" d="M2219.92 254.93c-59.29 29.36-190.24 93.7-301.94 145.07-24.74 11.37-52.55 23.59-75.26 33.43"/>
            <path d="m1844.3 436.56-10.57.75 7.79-7.17z"/>
        </g>
        <g stroke="#000" class="edge">
            <path fill="none" d="M2174.24 245.23c-48.15 3.66-111.26 8.07-167.26 10.77-36.75 1.77-1298.34 9.63-1324 36-87.75 90.16 138.51 134.19 269.84 151.6"/>
            <path d="m953.08 440.11 9.47 4.75-10.37 2.19z"/>
        </g>
        <g stroke="#000" class="edge">
            <path fill="none" d="M1689.83 386.97c81.39 3.68 207.07 9.16 316.15 13.03 691.8 24.53 1529.29 45.27 1778.61 51.26"/>
            <path d="m3784.59 447.76 9.91 3.74-10.08 3.26z"/>
        </g>
        <g stroke="#000" class="edge">
            <path fill="none" d="M1539.87 394.72c-68.42 12.5-176.56 32.27-247.61 45.25"/>
            <path d="m1293.14 443.37-10.47-1.65 9.21-5.24z"/>
        </g>
        <g stroke="#000" class="edge">
            <path fill="none" d="M1684.31 389.98c40.89 3.38 91.4 7.28 136.67 10.02 436.21 26.38 959.31 44.17 1159.5 50.47"/>
            <path d="m2980.38 446.96 9.88 3.81-10.1 3.19z"/>
        </g>
        <g stroke="red" stroke-width="2" class="edge">
            <path fill="none" d="M1645.86 398.19c29.65 10.75 69.56 25.23 100.92 36.6"/>
            <path fill="red" d="m1746.43 430.94 8.21 6.7-10.59-.11z"/>
        </g>
        <g stroke="#000" class="edge">
            <path fill="none" d="M1524.6 390.3c-93.79 9-254.43 25.6-391.62 45.7-6.84 1-13.94 2.13-21.04 3.31"/>
            <path d="m1112.76 442.72-10.45-1.77 9.27-5.13z"/>
        </g>
        <g stroke="#000" class="edge">
            <path fill="none" d="M1671.92 249.4c21.62 2.59 45.24 5.06 67.06 6.6 88.08 6.22 1508.58-.47 1589 36 19.76 8.96 13.64 26.18 33 36 130 65.94 186.52-6.37 326 36 50.78 15.43 104.27 45.9 137.62 66.85"/>
            <path d="m3826.46 427.88 6.55 8.33-10.32-2.43z"/>
        </g>
        <g stroke="#000" class="edge">
            <path fill="none" d="M1515.49 248.2c-91.3 11.02-230.21 29.73-250.51 43.8-42.02 29.11-47.02 94.55-46.07 132.43"/>
            <path d="m1222.39 424.03-3.07 10.14-3.92-9.84z"/>
        </g>
        <g stroke="#000" class="edge">
            <path fill="none" d="M1672.68 249.28c21.42 2.56 44.74 5.04 66.3 6.72 107.97 8.4 874.15-5.94 974 36 21.45 9.01 17.18 25.61 38 36 85.9 42.87 127.09-6.87 213 36 20.81 10.39 20.71 20.44 38 36 10.77 9.7 22.84 20.11 33.44 29.12"/>
            <path d="m3037.4 426.2 5.37 9.13-9.89-3.78z"/>
        </g>
        <g stroke="#000" class="edge">
            <path fill="none" d="M1658.6 252.08c57.28 11.97 141.96 29.67 201.66 42.14"/>
            <path d="m1860.93 290.79 9.07 5.47-10.51 1.38z"/>
        </g>
        <g stroke="#000" class="edge">
            <path fill="none" d="M1595.98 256.3v24.16"/>
            <path d="m1599.48 280.38-3.5 10-3.5-10z"/>
        </g>
        <g stroke="#000" class="edge">
            <path fill="none" d="M1544.5 253.59c-40.11 11.36-95.78 27.14-137.47 38.96"/>
            <path d="m1408.24 295.84-10.57-.64 8.66-6.09z"/>
        </g>
        <g stroke="#000" class="edge">
            <path fill="none" d="M1667.22 250.45c12.88 1.95 26.21 3.88 38.76 5.55 71.15 9.48 273.15-17.51 321 36 10.66 11.93 9.02 22.78 0 36-24.76 36.27-52.91 16-92 36-38.37 19.63-79.55 47.11-106.84 66.33"/>
            <path d="m1830.51 432.94-10.18 2.94 6.13-8.65z"/>
        </g>
        <g stroke="#000" class="edge">
            <path fill="none" d="M1513.6 247.59c-30.9 3-66.35 6.17-98.62 8.41-44.55 3.09-772.14 3.72-803 36-33.18 34.69-31.78 72.03 0 108 21.74 24.61 215.05 40.41 333.99 47.9"/>
            <path d="m945.96 444.39 9.77 4.12-10.2 2.87z"/>
        </g>
        <g stroke="#000" class="edge">
            <path fill="none" d="M2393.2 394.83c12.79 2.03 26.19 3.89 38.78 5.17 266.56 27.05 1100.69 46.23 1352.99 51.52"/>
            <path d="m3784.74 448.02 9.93 3.71-10.07 3.29z"/>
        </g>
        <g stroke="#000" class="edge">
            <path fill="none" d="M2267.91 395.14c-11.26 1.87-22.92 3.6-33.93 4.86-177.72 20.31-711.23 41.76-923.99 49.75"/>
            <path d="m1310.21 453.25-10.12-3.13 9.86-3.87z"/>
        </g>
        <g stroke="#000" class="edge">
            <path fill="none" d="M2394.34 394.54c12.46 2.01 25.43 3.93 37.64 5.46 196.86 24.62 429.7 40.84 550.34 48.29"/>
            <path d="m2982.36 444.78 9.77 4.11-10.19 2.88z"/>
        </g>
        <g stroke="#000" class="edge">
            <path fill="none" d="M2266.28 394.78c-10.76 1.85-21.84 3.66-32.3 5.22-126.06 18.79-273.32 35.59-360.67 45.02"/>
            <path d="m1873.73 448.49-10.31-2.41 9.56-4.55z"/>
        </g>
        <g stroke="#000" class="edge">
            <path fill="none" d="M2268.45 395.23c-11.42 1.89-23.28 3.6-34.47 4.77-486.95 50.81-614.15-15.7-1101 36-7.43.79-15.15 1.83-22.83 3"/>
            <path d="m1110.89 442.43-10.43-1.87 9.31-5.05z"/>
        </g>
        <g stroke="#000" class="edge">
            <path fill="none" d="M2017.97 310.45c112.61 1.24 314.05 10.16 480.01 53.55 38.11 9.96 42.64 27.03 81 36 117.15 27.41 951.26 46.37 1205.57 51.56"/>
            <path d="m3784.42 448.06 9.93 3.7-10.07 3.3z"/>
        </g>
        <g stroke="#000" class="edge">
            <path fill="none" d="M1889.71 326.22c-26.07 9.97-60.28 23.73-89.73 37.78-29.81 14.22-33.5 26.11-65 36-77.29 24.27-301.37 40.68-426.64 48.23"/>
            <path d="m1308.61 451.72-10.19-2.9 9.77-4.08z"/>
        </g>
        <g stroke="#000" class="edge">
            <path fill="none" d="M1939.64 328.1c11.78 21.19 35.02 56.37 66.34 71.9 86.22 42.75 738.79 51.03 973.9 52.62"/>
            <path d="m2979.6 449.12 9.98 3.56-10.03 3.44z"/>
        </g>
        <g stroke="red" stroke-width="2" class="edge">
            <path fill="none" d="M1872.14 323.6c-55.45 11.87-138.61 29.67-197.6 42.3"/>
            <path fill="red" d="m1676.92 368.96-10.51-1.32 9.04-5.52z"/>
        </g>
        <g stroke="#000" class="edge">
            <path fill="none" d="M1880.39 324.99c-21.1 8.2-44.18 20.66-59.41 39.01-14.07 16.95-19.95 41.4-22.38 60.39"/>
            <path d="m1802.1 424.56-4.47 9.6-2.49-10.3z"/>
        </g>
        <g stroke="#000" class="edge">
            <path fill="none" d="M1871.07 323.35c-48.82 10.76-113.28 26.77-136.09 40.65-18.55 11.28-13.42 26.64-33 36-114.31 54.65-443.23 20.7-569 36-7.22.88-14.72 1.95-22.19 3.13"/>
            <path d="m1111.43 442.57-10.44-1.82 9.3-5.08z"/>
        </g>
        <g stroke="#000" class="edge">
            <path fill="none" d="M1669.71 316.5c47.23 3.46 109.85 7.93 165.27 11.5 138.83 8.94 497.3-19.19 625 36 21.35 9.23 16.56 26.97 38 36 59.6 25.11 1012.34 46.04 1286.64 51.57"/>
            <path d="m3784.57 448.07 9.93 3.7-10.07 3.3z"/>
        </g>
        <g stroke="#000" class="edge">
            <path fill="none" d="M1556.55 325.93c-68.64 25.99-209.99 79.52-285.47 108.1"/>
            <path d="m1272.44 437.25-10.59.27 8.11-6.81z"/>
        </g>
        <g stroke="#000" class="edge">
            <path fill="none" d="M1553.09 325.27c-17.88 8.31-36.85 20.78-47.11 38.73-7.94 13.89-11.12 24.5 0 36 25.82 26.71 1154.25 46.6 1474.22 51.71"/>
            <path d="m2979.79 448.21 9.94 3.65-10.06 3.35z"/>
        </g>
        <g stroke="#000" class="edge">
            <path fill="none" d="M1597.95 328.3c.84 7.29 1.83 15.97 2.77 24.16"/>
            <path d="m1604.19 352.06-2.34 10.33-4.61-9.54z"/>
        </g>
        <g stroke="#000" class="edge">
            <path fill="none" d="M1535.95 322c-23.78 7.61-48.79 20.44-62.97 42-8.8 13.37-10.36 23.81 0 36 30.42 35.8 156.01 47.47 241.59 51.24"/>
            <path d="m1714.48 447.74 9.85 3.9-10.13 3.09z"/>
        </g>
        <g stroke="#000" class="edge">
            <path fill="none" d="M1539.52 322.86c-47.92 10.26-118.45 25.82-179.54 41.14-91.87 23.04-197.57 53.02-261.81 71.64"/>
            <path d="m1099.48 438.9-10.58-.57 8.63-6.15z"/>
        </g>
        <g stroke="#000" class="edge">
            <path fill="none" d="M1414.67 318.98c28.89 3.25 63.24 6.76 94.31 9.02 101.81 7.4 825.38-6.93 918 36 19.69 9.13 13.3 26.89 33 36 30.32 14.03 1041.66 43.11 1324.92 50.99"/>
            <path d="m3784.84 447.49 9.9 3.77-10.09 3.22z"/>
        </g>
        <g stroke="#000" class="edge">
            <path fill="none" d="M1303.5 324.62c-20.58 8.31-43.59 20.97-58.52 39.38-13.88 17.11-19.77 41.55-22.25 60.49"/>
            <path d="m1226.23 424.64-4.52 9.59-2.44-10.31z"/>
        </g>
        <g stroke="#000" class="edge">
            <path fill="none" d="M1368.63 327.62c26.63 21.37 76.58 57.49 126.35 72.38 142.28 42.55 1179.52 51.06 1484.73 52.66"/>
            <path d="m2979.63 449.15 9.98 3.56-10.02 3.44z"/>
        </g>
        <g stroke="#000" class="edge">
            <path fill="none" d="M1396.94 324.17c40.96 11.24 100.17 27.49 144.78 39.74"/>
            <path d="m1542.55 360.51 8.72 6.02-10.57.73z"/>
        </g>
        <g stroke="#000" class="edge">
            <path fill="none" d="M1353.17 328.28c5.98 20.69 19.1 54.67 43.81 71.72 50.03 34.52 216.08 46.6 317.84 50.79"/>
            <path d="m1714.92 447.29 9.85 3.89-10.13 3.11z"/>
        </g>
        <g stroke="#000" class="edge">
            <path fill="none" d="M1293.78 322.49C1257.3 331.23 1209 345 1168.98 364c-37.41 17.76-76.04 45.65-101.37 65.47"/>
            <path d="m1070.11 431.95-10.01 3.48 5.66-8.96z"/>
        </g>
        <g stroke="#000" class="edge">
            <path fill="none" d="M4077.33 183.54c-11.16 9.28-23.33 21.91-29.35 36.46-8.31 20.05-1.08 43.84 7.56 61.77"/>
            <path d="m4058.57 280.02 1.55 10.48-7.75-7.23z"/>
        </g>
        <g stroke="#000" class="edge">
            <path fill="none" d="M4169.71 175.99c76.18 10.11 202.64 27.3 311.27 44.01 7.97 1.23 16.29 2.55 24.59 3.9"/>
            <path d="m4506.03 220.43 9.3 5.08-10.44 1.83z"/>
        </g>
        <g stroke="#000" class="edge">
            <path fill="none" d="M4179.68 171.21c157.74 8.83 499.1 30 516.3 48.79 74.12 81.02-114.48 128.58-227.43 149.04"/>
            <path d="m4469.48 372.43-10.46-1.7 9.24-5.19z"/>
        </g>
        <g stroke="#000" class="edge">
            <path fill="none" d="M4179.35 171.42c153.87 9.06 482.05 30.41 498.63 48.58 10.78 11.82 10.38 23.83 0 36-32.86 38.53-175.12 27.28-225 36-147.43 25.78-320.24 59.47-409.26 77.09"/>
            <path d="m4044.48 372.51-10.49-1.49 9.13-5.38z"/>
        </g>
        <g stroke="#000" class="edge">
            <path fill="none" d="M4178.96 171.73c193.08 11.81 678.22 42.06 684.02 48.27 10.91 11.7 3.84 20.47 0 36-20.45 82.55-46.81 113.01-126 144-74.03 28.97-607.95 45.85-805.64 51.16"/>
            <path d="m3931.53 454.66-10.09-3.23 9.91-3.77z"/>
        </g>
        <g stroke="#000" class="edge">
            <path fill="none" d="M4029.2 174.83c-120.38 13.12-362.17 39.49-488.75 53.29"/>
            <path d="m3541.14 231.56-10.32-2.39 9.56-4.57z"/>
        </g>
        <g stroke="#000" class="edge">
            <path fill="none" d="M4030.37 175.26c-29.72 3.2-64.7 6.6-96.39 8.74-781.91 52.82-988.33-28.71-1760 108-16.19 2.87-271.24 67.33-287 72-47.3 14.01-56.78 25.61-105 36-163.89 35.32-359.74 47.1-471.33 51.03"/>
            <path d="m1311.08 454.52-10.11-3.16 9.87-3.84z"/>
        </g>
        <g stroke="#000" class="edge">
            <path fill="none" d="M4179.79 170.96c162.3 8.53 520.23 29.47 538.19 49.04 10.82 11.79 7.31 21.77 0 36-50.22 97.75-97.01 108.49-201 144-65.01 22.2-1070.22 44.97-1369.53 51.29"/>
            <path d="m3147.84 454.78-10.07-3.29 9.92-3.71z"/>
        </g>
        <g stroke="#000" class="edge">
            <path fill="none" d="M4040.08 178.25c-66.04 12.19-171.54 31.68-242.75 44.83"/>
            <path d="m3798.16 226.49-10.47-1.63 9.2-5.26z"/>
        </g>
        <g stroke="#000" class="edge">
            <path fill="none" d="M4030.38 175.42c-29.72 3.22-64.7 6.6-96.4 8.58-685.96 42.84-860.58-14.69-1546 36-18.38 1.36-38.08 3.45-56.62 5.71"/>
            <path d="m2331.84 229.17-10.35-2.23 9.48-4.71z"/>
        </g>
        <g stroke="#000" class="edge">
            <path fill="none" d="M3861.45 183.66c28.04 18.21 74.59 48.02 115.53 72.34 17.78 10.56 37.73 21.79 54.74 31.17"/>
            <path d="m4032.96 283.86 7.07 7.88-10.44-1.75z"/>
        </g>
        <g stroke="#000" class="edge">
            <path fill="none" d="M3913.9 174.97c30.02 2.97 64.63 6.29 96.08 9.03 209.15 18.21 262.6 10.55 471 36 8.5 1.04 17.38 2.29 26.19 3.63"/>
            <path d="m4507.43 220.13 9.33 5.01-10.42 1.9z"/>
        </g>
        <g stroke="#000" class="edge">
            <path fill="none" d="M3914.36 174.77c29.91 2.93 64.34 6.28 95.62 9.23 43.87 4.14 365.28 3.45 395 36 33.08 36.24 14.42 98.11-.72 133.68"/>
            <path d="m4407.63 354.73-7.28 7.7.89-10.56z"/>
        </g>
        <g stroke="#000" class="edge">
            <path fill="none" d="M3843.8 183.95c14.46 30.46 47.39 95.74 85.18 144.05 7.92 10.13 17.74 20.19 26.87 28.79"/>
            <path d="m3958.19 354.17 5.01 9.34-9.74-4.17z"/>
        </g>
        <g stroke="#000" class="edge">
            <path fill="none" d="M3913.01 175.25c30.21 3.05 65.19 6.34 96.97 8.75 74.11 5.62 611.13-11.87 668 36 62.22 52.38 88.7 120.73 33 180-26.54 28.24-577.99 45.69-779.83 51.15"/>
            <path d="m3931.4 454.64-10.09-3.23 9.91-3.76z"/>
        </g>
        <g stroke="#000" class="edge">
            <path fill="none" d="M3772.02 178.87c-66.96 12.44-171.88 31.92-241.54 44.85"/>
            <path d="m3531.15 227.16-10.47-1.62 9.19-5.26z"/>
        </g>
        <g stroke="#000" class="edge">
            <path fill="none" d="M3758.52 175c-34.96 3.31-76.79 6.87-114.54 9-329.58 18.57-1157.62-6.27-1485 36-68.86 8.89-83.35 25.66-152 36-119.15 17.95-432.39-16.15-541 36-19.57 9.39-14.4 24.82-33 36-54.7 32.87-85.23 1.64-139 36-24.49 15.65-44.72 42.24-57.62 62.29"/>
            <path d="m1239.5 427.87-8.24 6.65 2.29-10.34z"/>
        </g>
        <g stroke="#000" class="edge">
            <path fill="none" d="M3837.87 184.33c3.75 44.26 6.69 161.77-59.89 215.67-47.98 38.84-451.38 49.32-629.75 52.06"/>
            <path d="m3148.38 455.56-10.06-3.35 9.95-3.65z"/>
        </g>
        <g stroke="#000" class="edge">
            <path fill="none" d="M3808.96 183.59c-15.05 9.24-34 20.87-50.36 30.92"/>
            <path d="m3760.44 217.49-10.35 2.25 6.69-8.22z"/>
        </g>
        <g stroke="#000" class="edge">
            <path fill="none" d="M3758.05 174.96c-34.86 3.29-76.49 6.84-114.07 9.04-557.5 32.64-699.18-6.68-1256 36-18.27 1.4-37.86 3.5-56.32 5.74"/>
            <path d="m2332.2 229.2-10.36-2.23 9.49-4.71z"/>
        </g>
        <g stroke="#000" class="edge">
            <path fill="none" d="M3757.57 174.7c-34.77 3.22-76.2 6.79-113.59 9.3-348.92 23.43-438.32-1.48-786 36-189.17 20.39-249.35-7.96-422 72-32.63 15.11-63.33 42.96-83.21 63.5"/>
            <path d="m2355.39 357.82-9.41 4.87 4.32-9.67z"/>
        </g>
        <g class="node" transform="translate(4 472)">
            <ellipse cx="4167.98" cy="-234" fill="none" stroke="#000" rx="115.33" ry="18"/>
            <text x="4167.98" y="-228.95" font-family="Times,serif" font-size="14" text-anchor="middle">:app:core:calendar-compose</text>
        </g>
        <g stroke="#000" class="edge">
            <path fill="none" d="M3896.44 179.6c55.22 11.5 137.2 28.58 197.38 41.12"/>
            <path d="m4094.24 217.23 9.07 5.47-10.5 1.38z"/>
        </g>
        <g stroke="#000" class="edge">
            <path fill="none" d="M3565.39 184.1c10.01 20.84 29.96 55.31 58.59 71.9 29.2 16.92 222.18 35.08 345.15 45.14"/>
            <path d="m3969.24 297.64 9.69 4.3-10.25 2.68z"/>
        </g>
        <g stroke="#000" class="edge">
            <path fill="none" d="M3627.15 174.28c33.45 3.33 74.2 7.1 110.83 9.72 329.77 23.55 414.3.5 743 36 8.7.94 17.79 2.15 26.79 3.48"/>
            <path d="m4508.26 220.02 9.34 4.98-10.41 1.93z"/>
        </g>
        <g stroke="#000" class="edge">
            <path fill="none" d="M3627.17 174.08c33.45 3.28 74.19 7.08 110.81 9.92 65.59 5.09 535.72.33 591 36 44.4 28.65 57.05 94.26 60.62 132.3"/>
            <path d="m4393.08 351.85-2.73 10.23-4.25-9.7z"/>
        </g>
        <g stroke="#000" class="edge">
            <path fill="none" d="M3557.77 184.48c.76 20.23 5.27 53.13 25.21 71.52 61.25 56.5 107.38 3.25 184 36 25.51 10.9 26.16 23.64 51 36 34.67 17.26 76.18 30.51 109.02 39.45"/>
            <path d="m3927.55 363.97 8.77 5.95-10.57.82z"/>
        </g>
        <g stroke="#000" class="edge">
            <path fill="none" d="M3627.16 174.13c33.45 3.29 74.2 7.08 110.82 9.87 174.7 13.31 685.86-39.13 781 108 26.06 40.31 32.55 72.73 0 108-39.18 42.44-423.14 50.91-587.24 52.59"/>
            <path d="m3931.86 456.09-10.03-3.4 9.96-3.6z"/>
        </g>
        <g stroke="#000" class="edge">
            <path fill="none" d="M3534.52 183.59c-12.83 9.07-28.91 20.44-42.93 30.35"/>
            <path d="m3493.69 216.74-10.18 2.92 6.14-8.63z"/>
        </g>
        <g stroke="#000" class="edge">
            <path fill="none" d="M3492.38 175.82c-26.2 3.16-56.68 6.38-84.4 8.18-118.38 7.69-2023.51-4.51-2135 36-70.92 25.77-69.79 63.88-131 108-25.23 18.18-44.68 8.94-60 36-7.89 13.92-9.08 22.82 0 36 9.41 13.66 44.38 26.96 76.89 36.82"/>
            <path d="m1159.71 433.42 8.6 6.18-10.58.53z"/>
        </g>
        <g stroke="#000" class="edge">
            <path fill="none" d="M3491.47 175.33c-68.92 11.25-161.39 35.33-121.49 80.67 41.59 47.26 226.74 4.07 281 36 34.24 20.15 40.6 34.25 53 72 4.99 15.2 10.83 24.23 0 36-36.91 40.09-390.72 49.86-555.87 52.24"/>
            <path d="m3148.59 455.73-10.04-3.36 9.95-3.64z"/>
        </g>
        <g stroke="#000" class="edge">
            <path fill="none" d="M3593.97 182.36c23.7 10.12 54.98 23.47 80.69 34.44"/>
            <path d="m3675.72 213.45 7.82 7.14-10.57-.7z"/>
        </g>
        <g stroke="#000" class="edge">
            <path fill="none" d="M3492.37 175.64c-26.2 3.14-56.68 6.39-84.39 8.36-276.98 19.65-976.44-17.01-1249 36-45.14 8.78-52.38 24.89-97 36-117.48 29.24-160.76-16.16-270 36-21 10.02-18.16 23.86-38 36-25.68 15.71-56.68 27.65-83.82 36.18"/>
            <path d="m1671.22 367.52-10.58-.45 8.55-6.25z"/>
        </g>
        <g stroke="#000" class="edge">
            <path fill="none" d="M3492.38 175.75c-26.2 3.15-56.68 6.38-84.4 8.25-740.28 49.83-928.87-15.85-1669 36-18.07 1.27-37.37 3.18-55.76 5.27"/>
            <path d="m1683.76 228.73-10.34-2.32 9.53-4.63z"/>
        </g>
        <g stroke="#000" class="edge">
            <path fill="none" d="M3318.61 184.23c7.85 20.98 24.27 55.59 51.37 71.77 12.64 7.55 404.35 33.79 597.03 46.28"/>
            <path d="m3967.02 298.78 9.76 4.13-10.21 2.85z"/>
        </g>
        <g stroke="#000" class="edge">
            <path fill="none" d="M3386.11 175.85c26.95 2.98 57.77 6.08 85.87 8.15 397.03 29.18 497.6 12.31 895 36 41.16 2.45 86.7 5.94 125.22 9.12"/>
            <path d="m4492.21 225.61 9.68 4.32-10.26 2.66z"/>
        </g>
        <g stroke="#000" class="edge">
            <path fill="none" d="M3386.11 175.79c26.96 2.99 57.77 6.1 85.87 8.21 91.38 6.87 745.43-11.17 824 36 49.3 29.6 75.86 95.34 87.54 133.02"/>
            <path d="m4386.79 351.71-.54 10.58-6.18-8.6z"/>
        </g>
        <g stroke="#000" class="edge">
            <path fill="none" d="M3311.45 184.3c-.76 20.38 1.48 53.73 21.53 71.7 53.28 47.77 249.99 21.16 320 36 51.97 11.02 62.83 21.69 114 36 29.72 8.31 106.38 26.78 160.11 39.56"/>
            <path d="m3927.79 364.13 8.92 5.71-10.54 1.1z"/>
        </g>
        <g stroke="#000" class="edge">
            <path fill="none" d="M3386.11 175.82c26.95 2.99 57.77 6.09 85.87 8.18 95.15 7.08 770.06-1.03 858 36 43.03 18.12 134.48 101.14 153 144 6.34 14.69 10.82 24.22 0 36-36.66 39.9-394.06 49.79-551.34 52.22"/>
            <path d="m3931.78 455.72-10.05-3.35 9.94-3.65z"/>
        </g>
        <g stroke="#000" class="edge">
            <path fill="none" d="M3346.47 183.06c20.64 9.9 47.31 22.68 69.51 33.32"/>
            <path d="m3417.27 213.12 7.51 7.48-10.53-1.17z"/>
        </g>
        <g stroke="#000" class="edge">
            <path fill="none" d="M3227.04 168.13c-391.27 5.27-1987.16 28.2-2033.06 51.87-53.33 27.5-31.31 74.38-81 108-51.08 34.56-96.48-12.94-134 36-9.74 12.7-10.03 23.53 0 36 2.78 3.46 102.7 24.52 173.27 39.02"/>
            <path d="m1152.72 435.55 9.1 5.44-10.5 1.42z"/>
        </g>
        <g stroke="#000" class="edge">
            <path fill="none" d="M3306.32 184.44c-6.34 19.89-12.59 52.15 4.66 71.56 45.18 50.85 242.79 6.31 304 36 20.36 9.88 63.34 51.09 72 72 6.12 14.78 10.82 24.22 0 36-35.72 38.89-377.06 49.28-538.8 52.03"/>
            <path d="m3148.43 455.52-10.06-3.33 9.94-3.67z"/>
        </g>
        <g stroke="#000" class="edge">
            <path fill="none" d="M3378.24 178.17c72.44 12.4 189.27 32.39 266.29 45.57"/>
            <path d="m3644.84 220.25 9.26 5.13-10.45 1.77z"/>
        </g>
        <g stroke="#000" class="edge">
            <path fill="none" d="M3226.6 166.56c-241.81-.57-921.94 2.54-1138.62 53.44-38.35 9.01-43.17 25.01-81 36-104.85 30.45-142.24-6.04-243 36-24.61 10.27-25.17 22.23-48 36-20.07 12.1-43.33 23.5-63.44 32.6"/>
            <path d="m1653.98 363.79-10.56.87 7.71-7.26z"/>
        </g>
        <g stroke="#000" class="edge">
            <path fill="none" d="M3226.67 167.34c-237.6 1.5-921.3 9.54-1487.69 52.66-17.96 1.37-37.14 3.31-55.43 5.4"/>
            <path d="m1684.14 228.85-10.34-2.31 9.53-4.64z"/>
        </g>
        <g class="node" transform="translate(4 472)">
            <ellipse cx="3567.98" cy="-90" fill="none" stroke="#000" rx="106.11" ry="18"/>
            <text x="3567.98" y="-84.95" font-family="Times,serif" font-size="14" text-anchor="middle">:library:firebase-common</text>
        </g>
        <g stroke="#000" class="edge">
            <path fill="none" d="M3276.92 324.41c61.51 11.8 151.01 28.97 215.29 41.29"/>
            <path d="m3492.86 362.26 9.16 5.32-10.48 1.56z"/>
        </g>
        <g stroke="#000" class="edge">
            <path fill="none" d="M1054.01 325.87c69.94 19.51 198.41 53.66 309.97 74.13 123.15 22.59 267.83 38.11 354.87 46.27"/>
            <path d="m1719.07 442.77 9.64 4.41-10.28 2.56z"/>
        </g>
        <g stroke="#000" class="edge">
            <path fill="none" d="M3061.04 322.37c35.92 10.09 81.96 25.66 92.94 41.63 9.06 13.19 7.94 22.11 0 36-8.41 14.71-22.67 25.74-37.39 33.82"/>
            <path d="m3118.25 436.9-10.51 1.37 7.36-7.62z"/>
        </g>
        <g stroke="#000" class="edge">
            <path fill="none" d="M2618.03 394.78c-14.63 1.92-29.79 3.76-44.05 5.22-253.41 25.98-554.65 42.43-696.08 49.3"/>
            <path d="m1878.43 452.78-10.16-3.02 9.82-3.97z"/>
        </g>
        <g stroke="#000" class="edge">
            <path fill="none" d="M4147.77 255.95c-12.77 8.94-28.64 20.04-42.55 29.78"/>
            <path d="m4107.4 288.48-10.2 2.86 6.19-8.6z"/>
        </g>
        <g stroke="#000" class="edge">
            <path fill="none" d="M4216.6 255.06c23.08 9.24 51.19 21.98 74.38 36.94 28.57 18.44 57.16 44.88 76.4 64.15"/>
            <path d="m4369.7 353.52 4.52 9.59-9.51-4.68z"/>
        </g>
        <g stroke="#000" class="edge">
            <path fill="none" d="M4180.5 256.32c8.21 19.48 17.29 51.08 1.48 71.68-16.27 21.19-81.56 35.76-132.78 44.18"/>
            <path d="m4049.77 375.63-10.43-1.88 9.33-5.03z"/>
        </g>
        <g stroke="#000" class="edge">
            <path fill="none" d="M4185.36 256.3c12.65 18.63 27.87 48.68 14.62 71.7-31.8 55.23-62.92 53.83-124 72-87.75 26.11-701.74 44.8-928.29 50.87"/>
            <path d="m3147.83 454.37-10.09-3.23 9.91-3.77z"/>
        </g>
    </g>
</svg>
