<svg xmlns="http://www.w3.org/2000/svg" width="764pt" height="116pt" viewBox="0 0 764.16 116">
    <g class="graph">
        <path fill="#fff" d="M0 116V0h764.16v116z"/>
        <g class="node" transform="translate(4 112)">
            <ellipse cx="357.31" cy="-90" fill="none" stroke="#000" rx="95.88" ry="18"/>
            <text x="357.31" y="-84.95" font-family="Times,serif" font-size="14" text-anchor="middle">:app:core:diary-service</text>
        </g>
        <g class="node" transform="translate(4 112)">
            <ellipse cx="71.31" cy="-18" fill="none" stroke="#000" rx="71.31" ry="18"/>
            <text x="71.31" y="-12.95" font-family="Times,serif" font-size="14" text-anchor="middle">:app:core:model</text>
        </g>
        <g stroke="red" stroke-width="2" class="edge">
            <path fill="none" d="M304.47 36.91c-48.62 11.9-118.41 28.98-168.18 41.17"/>
            <path fill="red" d="m138.84 81.05-10.54-1.02 8.88-5.78z"/>
        </g>
        <g class="node" transform="translate(4 112)">
            <ellipse cx="245.31" cy="-18" fill="none" stroke="#000" rx="85.13" ry="18"/>
            <text x="245.31" y="-12.95" font-family="Times,serif" font-size="14" text-anchor="middle">:common:exception</text>
        </g>
        <g stroke="#000" class="edge">
            <path fill="none" d="M334.49 39.77c-14.8 9.24-33.36 20.84-49.37 30.85"/>
            <path d="m287.15 73.48-10.33 2.33 6.62-8.27z"/>
        </g>
        <g class="node" transform="translate(4 112)">
            <ellipse cx="470.31" cy="-18" fill="none" stroke="#000" rx="121.98" ry="18"/>
            <text x="470.31" y="-12.95" font-family="Times,serif" font-size="14" text-anchor="middle">:app:core:account-preferences</text>
        </g>
        <g stroke="#000" class="edge">
            <path fill="none" d="M388.09 39.59c14.7 9.11 33.16 20.54 49.22 30.49"/>
            <path d="m439 67.01 6.65 8.24-10.34-2.29z"/>
        </g>
        <g class="node" transform="translate(4 112)">
            <ellipse cx="683.31" cy="-18" fill="none" stroke="#000" rx="72.85" ry="18"/>
            <text x="683.31" y="-12.95" font-family="Times,serif" font-size="14" text-anchor="middle">:common:model</text>
        </g>
        <g stroke="#000" class="edge">
            <path fill="none" d="M422.63 36.17c57.09 12.26 141.9 30.47 200.04 42.95"/>
            <path d="m623.04 75.62 9.04 5.52-10.51 1.32z"/>
        </g>
    </g>
</svg>
