<svg xmlns="http://www.w3.org/2000/svg" width="7800" height="476pt" viewBox="0 0 5849.82 476">
    <g class="graph">
        <path fill="#fff" d="M0 476V0h5849.82v476z"/>
        <g class="node" transform="translate(4 472)">
            <ellipse cx="1113.53" cy="-450" fill="none" stroke="#000" rx="92.3" ry="18"/>
            <text x="1113.53" y="-444.95" font-family="Times,serif" font-size="14" text-anchor="middle">:app:platform:android</text>
        </g>
        <g class="node" transform="translate(4 472)">
            <ellipse cx="2929.53" cy="-378" fill="none" stroke="#000" rx="97.41" ry="18"/>
            <text x="2929.53" y="-372.95" font-family="Times,serif" font-size="14" text-anchor="middle">:app:platform:common</text>
        </g>
        <g stroke="red" stroke-width="2" class="edge">
            <path fill="none" d="M1207.28 26.46c303.84 11.71 1293.07 49.84 1620.17 62.45"/>
            <path fill="red" d="m2825.92 85.35 9.86 3.88-10.13 3.11z"/>
        </g>
        <g class="node" transform="translate(4 472)">
            <ellipse cx="451.53" cy="-162" fill="none" stroke="#000" rx="124.54" ry="18"/>
            <text x="451.53" y="-156.95" font-family="Times,serif" font-size="14" text-anchor="middle">:app:core:diary-database-room</text>
        </g>
        <g stroke="#000" class="edge">
            <path fill="none" d="M1024.94 22.58C894.23 23.61 663.82 31.89 594.53 76c-75.93 48.35-115.96 154.36-131.37 205"/>
            <path d="m466.6 281.71-6.17 8.61-.55-10.58z"/>
        </g>
        <g class="node" transform="translate(4 472)">
            <ellipse cx="1222.53" cy="-162" fill="none" stroke="#000" rx="95.88" ry="18"/>
            <text x="1222.53" y="-156.95" font-family="Times,serif" font-size="14" text-anchor="middle">:app:core:diary-service</text>
        </g>
        <g stroke="#000" class="edge">
            <path fill="none" d="M1105.43 40.06c-27.62 41.21-89.22 147.78-39.9 215.94 15.62 21.59 40.34 34.54 65.76 42.26"/>
            <path d="m1132.03 294.83 8.72 6.02-10.57.73z"/>
        </g>
        <g class="node" transform="translate(4 472)">
            <ellipse cx="4074.53" cy="-162" fill="none" stroke="#000" rx="158.32" ry="18"/>
            <text x="4074.53" y="-156.95" font-family="Times,serif" font-size="14" text-anchor="middle">:app:core:account-preferences-datastore</text>
        </g>
        <g stroke="#000" class="edge">
            <path fill="none" d="M1209.78 23.81C1542.2 26.98 2678.07 40.25 3039.53 76c377.38 37.32 478.28 33.38 841 144 56.26 17.16 117.5 46.47 156.75 66.74"/>
            <path d="m4038.67 283.52 7.25 7.72-10.49-1.52z"/>
        </g>
        <g class="node" transform="translate(4 472)">
            <ellipse cx="4408.53" cy="-162" fill="none" stroke="#000" rx="157.3" ry="18"/>
            <text x="4408.53" y="-156.95" font-family="Times,serif" font-size="14" text-anchor="middle">:app:core:holiday-preferences-datastore</text>
        </g>
        <g stroke="#000" class="edge">
            <path fill="none" d="M1209.3 24.25C1784.57 32.26 4871.9 78.49 4938.53 148c20.21 21.08-4.21 96.03-18 108-26.44 22.96-213.69 37.76-353.21 45.74"/>
            <path d="m4567.78 305.22-10.18-2.94 9.79-4.05z"/>
        </g>
        <g class="node" transform="translate(4 472)">
            <ellipse cx="175.53" cy="-162" fill="none" stroke="#000" rx="133.24" ry="18"/>
            <text x="175.53" y="-156.95" font-family="Times,serif" font-size="14" text-anchor="middle">:app:core:holiday-database-room</text>
        </g>
        <g stroke="#000" class="edge">
            <path fill="none" d="M1027.53 26.33c-137.02 5.94-391.09 20.53-477 49.67-141.18 47.89-283.67 159.04-342.69 208.5"/>
            <path d="m210.15 287.13-9.9 3.79 5.38-9.13z"/>
        </g>
        <g class="node" transform="translate(4 472)">
            <ellipse cx="2377.53" cy="-90" fill="none" stroke="#000" rx="104.58" ry="18"/>
            <text x="2377.53" y="-84.95" font-family="Times,serif" font-size="14" text-anchor="middle">:app:core:holiday-service</text>
        </g>
        <g stroke="#000" class="edge">
            <path fill="none" d="M1032.05 29.2C887.07 42.08 608.53 78.13 608.53 165v74c0 40.45-12.16 63.21 19 89 34.29 28.38 1557.59 33.02 1602 36 19.05 1.28 39.38 3.18 58.78 5.25"/>
            <path d="m2288.55 365.75 9.56 4.57-10.33 2.39z"/>
        </g>
        <g class="node" transform="translate(4 472)">
            <ellipse cx="2750.53" cy="-162" fill="none" stroke="#000" rx="74.89" ry="18"/>
            <text x="2750.53" y="-156.95" font-family="Times,serif" font-size="14" text-anchor="middle">:app:domain:fcm</text>
        </g>
        <g stroke="#000" class="edge">
            <path fill="none" d="M1143.51 39.59c54.56 33.88 186.11 110.7 308.02 144.41 256.57 70.93 928.78 75.66 1193 108 12.46 1.53 25.68 3.37 38.48 5.28"/>
            <path d="m2683.25 293.77 9.36 4.96-10.41 1.96z"/>
        </g>
        <g stroke="#000" class="edge">
            <path fill="none" d="M2836.42 95.96c-316.3 3.48-1304.63 17.03-1443.89 52.04-70.17 17.64-101.25 15.15-146 72-13.48 17.13-18.25 41.57-19.77 60.5"/>
            <path d="m1230.27 280.43-4.02 9.8-2.97-10.17z"/>
        </g>
        <g stroke="#000" class="edge">
            <path fill="none" d="M2839.49 99.01c-68.33 5.5-161.95 18.48-238.96 48.99-105.89 41.96-154.78 45.51-212 144-10.54 18.14-11.89 41.98-10.82 60.42"/>
            <path d="m2381.17 351.87-2.62 10.26-4.35-9.66z"/>
        </g>
        <g stroke="#000" class="edge">
            <path fill="none" d="M2844.62 101.73c-64.97 6.98-145.22 20.62-166.09 46.27-34.43 42.33 14.77 102.84 48.63 136.33"/>
            <path d="m2729.5 281.73 4.78 9.45-9.63-4.41z"/>
        </g>
        <g class="node" transform="translate(4 472)">
            <ellipse cx="5064.53" cy="-162" fill="none" stroke="#000" rx="101" ry="18"/>
            <text x="5064.53" y="-156.95" font-family="Times,serif" font-size="14" text-anchor="middle">:app:core:design-system</text>
        </g>
        <g stroke="#000" class="edge">
            <path fill="none" d="M3030.67 95.79c389.03 3.4 1817.89 18.17 1907.86 52.21 46.62 17.64 55.18 32.82 86 72 14.56 18.51 26.11 42.62 33.72 61.07"/>
            <path d="m5061.49 279.74.42 10.58-6.93-8.01z"/>
        </g>
        <g class="node" transform="translate(4 472)">
            <ellipse cx="4294.53" cy="-234" fill="none" stroke="#000" rx="86.67" ry="18"/>
            <text x="4294.53" y="-228.95" font-family="Times,serif" font-size="14" text-anchor="middle">:app:core:navigation</text>
        </g>
        <g stroke="#000" class="edge">
            <path fill="none" d="M3031.09 94.95c279.96.44 1072.77 5.89 1179.44 53.05 29.82 13.18 54.91 41.48 70.57 62.65"/>
            <path d="m4283.79 208.39 2.95 10.17-8.65-6.11z"/>
        </g>
        <g class="node" transform="translate(4 472)">
            <ellipse cx="5487.53" cy="-90" fill="none" stroke="#000" rx="82.57" ry="18"/>
            <text x="5487.53" y="-84.95" font-family="Times,serif" font-size="14" text-anchor="middle">:app:core:resources</text>
        </g>
        <g stroke="#000" class="edge">
            <path fill="none" d="M3031.02 95.65C3504.95 99.28 5549.2 120.69 5637.53 220c24.31 27.33-21.23 99.89-29 108-15.1 15.76-35.77 27.22-55.53 35.36"/>
            <path d="m5554.47 366.54-10.59.35 8.06-6.88z"/>
        </g>
        <g class="node" transform="translate(4 472)">
            <ellipse cx="5023.53" cy="-90" fill="none" stroke="#000" rx="59.54" ry="18"/>
            <text x="5023.53" y="-84.95" font-family="Times,serif" font-size="14" text-anchor="middle">:library:color</text>
        </g>
        <g stroke="#000" class="edge">
            <path fill="none" d="M3030.63 95.91c393.99 3.9 1856.75 20.46 1949.9 52.09 25.76 8.75 185.66 119.76 198 144 7.26 14.26 9.25 22.95 0 36-11.22 15.83-55.17 30.17-92.78 39.93"/>
            <path d="m5086.86 371.26-10.55-.95 8.84-5.84z"/>
        </g>
        <g class="node" transform="translate(4 472)">
            <ellipse cx="4281.53" cy="-18" fill="none" stroke="#000" rx="62.1" ry="18"/>
            <text x="4281.53" y="-12.95" font-family="Times,serif" font-size="14" text-anchor="middle">:library:kotlin</text>
        </g>
        <g stroke="#000" class="edge">
            <path fill="none" d="M3030.97 95.67c441.6 3.21 2244.39 18.3 2494.56 52.33 141.19 19.21 308-53.49 308 89v74c0 21.58 72.63 24.03-140 89-127.78 39.05-1063.04 50.05-1334.39 52.43"/>
            <path d="m4359.41 455.93-10.03-3.41 9.97-3.59z"/>
        </g>
        <g class="node" transform="translate(4 472)">
            <ellipse cx="4555.53" cy="-234" fill="none" stroke="#000" rx="79.5" ry="18"/>
            <text x="4555.53" y="-228.95" font-family="Times,serif" font-size="14" text-anchor="middle">:library:navigation</text>
        </g>
        <g stroke="#000" class="edge">
            <path fill="none" d="M3030.65 96.19C3359.9 100.49 4417 116.68 4482.53 148c14.5 6.93 40.26 38.96 57.96 62.61"/>
            <path d="m4543.27 208.49 3.13 10.12-8.76-5.96z"/>
        </g>
        <g class="node" transform="translate(4 472)">
            <ellipse cx="1816.53" cy="-18" fill="none" stroke="#000" rx="78.99" ry="18"/>
            <text x="1816.53" y="-12.95" font-family="Times,serif" font-size="14" text-anchor="middle">:library:coroutines</text>
        </g>
        <g stroke="#000" class="edge">
            <path fill="none" d="M2836.24 95.99C2492.56 99.74 1336.49 114.6 967.53 148c-416.55 37.71-657.81-173.58-930 144-81.14 94.67-8.72 69 156 108 149.4 35.37 1217.42 48.88 1536.93 52.16"/>
            <path d="m1730.03 448.65 9.97 3.6-10.04 3.4z"/>
        </g>
        <g class="node" transform="translate(4 472)">
            <ellipse cx="4110.53" cy="-18" fill="none" stroke="#000" rx="72.85" ry="18"/>
            <text x="4110.53" y="-12.95" font-family="Times,serif" font-size="14" text-anchor="middle">:library:datetime</text>
        </g>
        <g stroke="#000" class="edge">
            <path fill="none" d="M3031.22 94.63c501.6-1.27 2764.31.82 2764.31 142.37v74c0 102.19-112.1 67.51-212 89-297.52 64-1066.11 6.42-1369 36-10.67 1.04-21.91 2.55-32.86 4.24"/>
            <path d="m4182.33 443.68-10.43-1.86 9.31-5.05z"/>
        </g>
        <g class="node" transform="translate(4 472)">
            <ellipse cx="4818.53" cy="-234" fill="none" stroke="#000" rx="89.23" ry="18"/>
            <text x="4818.53" y="-228.95" font-family="Times,serif" font-size="14" text-anchor="middle">:library:shimmer-m3</text>
        </g>
        <g stroke="#000" class="edge">
            <path fill="none" d="M3030.63 95.97c361.08 3.85 1609.6 19.47 1687.9 52.03 21.48 8.93 20.47 20.7 38 36 11.25 9.81 23.96 20.18 35.2 29.12"/>
            <path d="m4793.9 210.37 5.68 8.94-10.02-3.44z"/>
        </g>
        <g class="node" transform="translate(4 472)">
            <ellipse cx="2754.53" cy="-306" fill="none" stroke="#000" rx="71.31" ry="18"/>
            <text x="2754.53" y="-300.95" font-family="Times,serif" font-size="14" text-anchor="middle">:app:data:memo</text>
        </g>
        <g stroke="red" stroke-width="2" class="edge">
            <path fill="none" d="M2893.82 110.88c-26.08 10.44-60.34 24.14-87.86 35.15"/>
            <path fill="red" d="m2808.79 148.67-10.58.46 7.98-6.96z"/>
        </g>
        <g class="node" transform="translate(4 472)">
            <ellipse cx="1700.53" cy="-162" fill="none" stroke="#000" rx="75.92" ry="18"/>
            <text x="1700.53" y="-156.95" font-family="Times,serif" font-size="14" text-anchor="middle">:app:data:account</text>
        </g>
        <g stroke="#000" class="edge">
            <path fill="none" d="M2836.08 95.47C2547.6 97.33 1715.52 106.3 1675.53 148c-34.53 36.01-8.02 98.41 12.02 134.02"/>
            <path d="m1690.44 280.03 2.03 10.4-8.07-6.87z"/>
        </g>
        <g class="node" transform="translate(4 472)">
            <ellipse cx="1540.53" cy="-306" fill="none" stroke="#000" rx="83.6" ry="18"/>
            <text x="1540.53" y="-300.95" font-family="Times,serif" font-size="14" text-anchor="middle">:app:data:credential</text>
        </g>
        <g stroke="#000" class="edge">
            <path fill="none" d="M2836.04 94.66c-215.74.2-749.63 5.93-1193.51 53.34-8.57.92-17.53 2.12-26.39 3.47"/>
            <path d="m1616.92 154.89-10.43-1.89 9.33-5.03z"/>
        </g>
        <g class="node" transform="translate(4 472)">
            <ellipse cx="2468.53" cy="-162" fill="none" stroke="#000" rx="74.89" ry="18"/>
            <text x="2468.53" y="-156.95" font-family="Times,serif" font-size="14" text-anchor="middle">:app:data:holiday</text>
        </g>
        <g stroke="#000" class="edge">
            <path fill="none" d="M2843.28 101.11c-54.51 6.44-124.15 19.68-180.75 46.89-69.87 33.58-135.07 99.11-167.87 135.35"/>
            <path d="m2497.31 285.63-9.27 5.14 4.05-9.8z"/>
        </g>
        <g class="node" transform="translate(4 472)">
            <ellipse cx="1512.53" cy="-234" fill="none" stroke="#000" rx="73.87" ry="18"/>
            <text x="1512.53" y="-228.95" font-family="Times,serif" font-size="14" text-anchor="middle">:app:data:backup</text>
        </g>
        <g stroke="#000" class="edge">
            <path fill="none" d="M2835.93 94.81c-322.52-.15-1336.33 3.37-1384.4 53.19-19.79 20.51 5.46 47.29 30.04 66.09"/>
            <path d="m1483.63 211.26 6.01 8.73-10.14-3.08z"/>
        </g>
        <g class="node" transform="translate(4 472)">
            <ellipse cx="1354.53" cy="-234" fill="none" stroke="#000" rx="65.68" ry="18"/>
            <text x="1354.53" y="-228.95" font-family="Times,serif" font-size="14" text-anchor="middle">:app:data:fetch</text>
        </g>
        <g stroke="#000" class="edge">
            <path fill="none" d="M2836.63 96.39c-320.98 4.87-1332.71 22.47-1396.1 51.61-28.51 13.11-51.66 41.21-66 62.35"/>
            <path d="m1377.6 212.05-8.39 6.47 2.52-10.29z"/>
        </g>
        <g class="node" transform="translate(4 472)">
            <ellipse cx="1132.53" cy="-234" fill="none" stroke="#000" rx="62.1" ry="18"/>
            <text x="1132.53" y="-228.95" font-family="Times,serif" font-size="14" text-anchor="middle">:app:data:fcm</text>
        </g>
        <g stroke="#000" class="edge">
            <path fill="none" d="M2835.75 94.96c-334.19.3-1418.52 4.99-1567.22 53.04-40.99 13.24-81 43.35-106.02 64.88"/>
            <path d="m1164.95 215.4-9.82 3.97 5.19-9.23z"/>
        </g>
        <g class="node" transform="translate(4 472)">
            <ellipse cx="3756.53" cy="-234" fill="none" stroke="#000" rx="84.11" ry="18"/>
            <text x="3756.53" y="-228.95" font-family="Times,serif" font-size="14" text-anchor="middle">:app:domain:memo</text>
        </g>
        <g stroke="#000" class="edge">
            <path fill="none" d="M3007.46 106.06c68.54 10.38 173.3 26.56 264.07 41.94 148.18 25.1 321.08 57.24 416.47 75.23"/>
            <path d="m3688.58 219.77 9.18 5.3-10.48 1.58z"/>
        </g>
        <g class="node" transform="translate(4 472)">
            <ellipse cx="3391.53" cy="-90" fill="none" stroke="#000" rx="88.71" ry="18"/>
            <text x="3391.53" y="-84.95" font-family="Times,serif" font-size="14" text-anchor="middle">:app:domain:account</text>
        </g>
        <g stroke="#000" class="edge">
            <path fill="none" d="M2942.11 112.43c4.86 10.22 10.86 23.47 15.42 35.57 17.72 46.96-2.44 72.46 33 108 46.69 46.82 227.39 89.5 330.96 110.78"/>
            <path d="m3321.91 363.3 9.1 5.42-10.5 1.44z"/>
        </g>
        <g class="node" transform="translate(4 472)">
            <ellipse cx="3091.53" cy="-234" fill="none" stroke="#000" rx="96.39" ry="18"/>
            <text x="3091.53" y="-228.95" font-family="Times,serif" font-size="14" text-anchor="middle">:app:domain:credential</text>
        </g>
        <g stroke="#000" class="edge">
            <path fill="none" d="M2952.75 111.85c28.55 25.02 82.29 72.13 115.08 100.87"/>
            <path d="m3069.73 209.73 5.22 9.23-9.83-3.96z"/>
        </g>
        <g class="node" transform="translate(4 472)">
            <ellipse cx="2968.53" cy="-90" fill="none" stroke="#000" rx="87.69" ry="18"/>
            <text x="2968.53" y="-84.95" font-family="Times,serif" font-size="14" text-anchor="middle">:app:domain:holiday</text>
        </g>
        <g stroke="#000" class="edge">
            <path fill="none" d="M2921.29 112.06c-27.31 40.31-87.51 143.49-44.76 215.94 8.73 14.79 23.24 25.74 38.36 33.72"/>
            <path d="m2916.02 358.38 7.48 7.51-10.53-1.21z"/>
        </g>
        <g class="node" transform="translate(4 472)">
            <ellipse cx="3431.53" cy="-162" fill="none" stroke="#000" rx="86.67" ry="18"/>
            <text x="3431.53" y="-156.95" font-family="Times,serif" font-size="14" text-anchor="middle">:app:domain:backup</text>
        </g>
        <g stroke="#000" class="edge">
            <path fill="none" d="M2970.85 110.91c89.89 38.32 318.27 135.68 417.48 177.97"/>
            <path d="m3389.43 285.54 7.82 7.14-10.57-.7z"/>
        </g>
        <g class="node" transform="translate(4 472)">
            <ellipse cx="2959.53" cy="-162" fill="none" stroke="#000" rx="78.48" ry="18"/>
            <text x="2959.53" y="-156.95" font-family="Times,serif" font-size="14" text-anchor="middle">:app:domain:fetch</text>
        </g>
        <g stroke="#000" class="edge">
            <path fill="none" d="M2935.94 112.15c5.14 36.71 17.27 123.19 23.59 168.32"/>
            <path d="m2962.98 279.88-2.07 10.39-4.86-9.42z"/>
        </g>
        <g class="node" transform="translate(4 472)">
            <ellipse cx="1766.53" cy="-306" fill="none" stroke="#000" rx="86.15" ry="18"/>
            <text x="1766.53" y="-300.95" font-family="Times,serif" font-size="14" text-anchor="middle">:app:core:coroutines</text>
        </g>
        <g stroke="#000" class="edge">
            <path fill="none" d="M2836.49 95.99c-187.3 2.77-611.46 13.18-965.96 52.01-8.55.94-17.49 2.14-26.34 3.46"/>
            <path d="m1844.97 154.88-10.42-1.91 9.34-5z"/>
        </g>
        <g class="node" transform="translate(4 472)">
            <ellipse cx="4843.53" cy="-306" fill="none" stroke="#000" rx="81.55" ry="18"/>
            <text x="4843.53" y="-300.95" font-family="Times,serif" font-size="14" text-anchor="middle">:app:feature:memo</text>
        </g>
        <g stroke="#000" class="edge">
            <path fill="none" d="M3030.79 95.96c326.6 3.52 1382.48 17.35 1720.74 52.04 8.37.86 17.11 2.02 25.76 3.35"/>
            <path d="m4777.76 147.88 9.32 5.04-10.43 1.87z"/>
        </g>
        <g class="node" transform="translate(4 472)">
            <ellipse cx="4616.53" cy="-306" fill="none" stroke="#000" rx="88.71" ry="18"/>
            <text x="4616.53" y="-300.95" font-family="Times,serif" font-size="14" text-anchor="middle">:app:feature:calendar</text>
        </g>
        <g stroke="#000" class="edge">
            <path fill="none" d="M3030.46 96.61c297.58 5.2 1195.47 22.89 1486.07 51.39 9.29.91 19.01 2.13 28.62 3.51"/>
            <path d="m4545.48 148.02 9.37 4.94-10.41 1.98z"/>
        </g>
        <g class="node" transform="translate(4 472)">
            <ellipse cx="4120.53" cy="-306" fill="none" stroke="#000" rx="76.94" ry="18"/>
            <text x="4120.53" y="-300.95" font-family="Times,serif" font-size="14" text-anchor="middle">:app:feature:more</text>
        </g>
        <g stroke="#000" class="edge">
            <path fill="none" d="M3025.01 100.38c223.95 13.16 797.24 46.85 1014.41 59.62"/>
            <path d="m4039.44 156.49 9.78 4.08-10.19 2.91z"/>
        </g>
        <g class="node" transform="translate(4 472)">
            <ellipse cx="4383.53" cy="-306" fill="none" stroke="#000" rx="86.15" ry="18"/>
            <text x="4383.53" y="-300.95" font-family="Times,serif" font-size="14" text-anchor="middle">:app:feature:account</text>
        </g>
        <g stroke="#000" class="edge">
            <path fill="none" d="M3031.39 94.62c223.07.06 786.2 5.41 1254.14 53.38 9.08.93 18.57 2.16 27.96 3.54"/>
            <path d="m4314 148.08 9.36 4.97-10.42 1.94z"/>
        </g>
        <g class="node" transform="translate(4 472)">
            <ellipse cx="744.53" cy="-162" fill="none" stroke="#000" rx="112.26" ry="18"/>
            <text x="744.53" y="-156.95" font-family="Times,serif" font-size="14" text-anchor="middle">:library:firebase-messaging</text>
        </g>
        <g stroke="#000" class="edge">
            <path fill="none" d="M2836.09 95.53c-317.4 2.13-1319.53 11.95-1640.56 52.47-145.06 18.31-187.36 12.67-321 72-36.9 16.38-74.03 44.33-98.33 64.54"/>
            <path d="m778.6 287.1-9.9 3.79 5.37-9.13z"/>
        </g>
        <g stroke="#000" class="edge">
            <path fill="none" d="M483.38 328.01c39.2 23.59 108.99 64.22 137.15 71.99 105.85 29.22 849.79 46.24 1110.22 51.35"/>
            <path d="m1730.6 447.85 9.93 3.69-10.07 3.3z"/>
        </g>
        <g class="node" transform="translate(4 472)">
            <ellipse cx="451.53" cy="-90" fill="none" stroke="#000" rx="80.01" ry="18"/>
            <text x="451.53" y="-84.95" font-family="Times,serif" font-size="14" text-anchor="middle">:library:koin-room</text>
        </g>
        <g stroke="#000" class="edge">
            <path fill="none" d="M455.53 328.3v24.16"/>
            <path d="m459.03 352.38-3.5 10-3.5-10z"/>
        </g>
        <g class="node" transform="translate(4 472)">
            <ellipse cx="1349.53" cy="-90" fill="none" stroke="#000" rx="101.51" ry="18"/>
            <text x="1349.53" y="-84.95" font-family="Times,serif" font-size="14" text-anchor="middle">:app:core:diary-database</text>
        </g>
        <g stroke="#000" class="edge">
            <path fill="none" d="M545.55 322.79c16.28 1.91 33.13 3.74 48.98 5.21 253.64 23.47 318.03 16.47 572 36 28.7 2.21 59.84 4.91 88.33 7.51"/>
            <path d="m1254.91 368 9.63 4.4-10.28 2.57z"/>
        </g>
        <g class="node" transform="translate(4 472)">
            <ellipse cx="292.53" cy="-90" fill="none" stroke="#000" rx="60.56" ry="18"/>
            <text x="292.53" y="-84.95" font-family="Times,serif" font-size="14" text-anchor="middle">:library:room</text>
        </g>
        <g stroke="#000" class="edge">
            <path fill="none" d="M417.85 327.59c-23.44 10.32-53.66 23.62-78.07 34.37"/>
            <path d="m341.31 365.11-10.56.83 7.74-7.24z"/>
        </g>
        <g class="node" transform="translate(4 472)">
            <ellipse cx="2700.53" cy="-18" fill="none" stroke="#000" rx="71.31" ry="18"/>
            <text x="2700.53" y="-12.95" font-family="Times,serif" font-size="14" text-anchor="middle">:app:core:model</text>
        </g>
        <g stroke="#000" class="edge">
            <path fill="none" d="M1223.91 328.46c-1.98 20.54-1.54 54.05 18.62 71.54 26.22 22.75 1074.53 45.31 1379.55 51.4"/>
            <path d="m2622.04 447.9 9.92 3.7-10.06 3.3z"/>
        </g>
        <g class="node" transform="translate(4 472)">
            <ellipse cx="3256.53" cy="-18" fill="none" stroke="#000" rx="85.13" ry="18"/>
            <text x="3256.53" y="-12.95" font-family="Times,serif" font-size="14" text-anchor="middle">:common:exception</text>
        </g>
        <g stroke="#000" class="edge">
            <path fill="none" d="M1319.1 315.04c244.38 10.79 889.66 40.04 910.43 48.96 21.38 9.18 16.63 26.82 38 36 40.82 17.54 658.09 41.14 898.33 49.72"/>
            <path d="m3165.63 446.2 9.87 3.86-10.12 3.14z"/>
        </g>
        <g class="node" transform="translate(4 472)">
            <ellipse cx="1590.53" cy="-90" fill="none" stroke="#000" rx="121.98" ry="18"/>
            <text x="1590.53" y="-84.95" font-family="Times,serif" font-size="14" text-anchor="middle">:app:core:account-preferences</text>
        </g>
        <g stroke="#000" class="edge">
            <path fill="none" d="M1292.32 323.51c60.98 11.6 151.99 28.91 218.19 41.51"/>
            <path d="m1511.09 361.56 9.17 5.31-10.48 1.57z"/>
        </g>
        <g class="node" transform="translate(4 472)">
            <ellipse cx="1080.53" cy="-90" fill="none" stroke="#000" rx="72.85" ry="18"/>
            <text x="1080.53" y="-84.95" font-family="Times,serif" font-size="14" text-anchor="middle">:common:model</text>
        </g>
        <g stroke="#000" class="edge">
            <path fill="none" d="M1193.6 327.24c-20 9.85-45.71 22.53-67.15 33.1"/>
            <path d="m1128.19 363.38-10.52 1.28 7.42-7.56z"/>
        </g>
        <g stroke="#000" class="edge">
            <path fill="none" d="M3928.5 315.97c-109.9 3.57-262.7 8.37-396.97 12.03-684.38 18.63-855.74 13.35-1540 36-90.69 3-192.99 7.41-271.03 10.98"/>
            <path d="m1720.83 378.47-10.15-3.04 9.83-3.95z"/>
        </g>
        <g class="node" transform="translate(4 472)">
            <ellipse cx="4421.53" cy="-90" fill="none" stroke="#000" rx="93.32" ry="18"/>
            <text x="4421.53" y="-84.95" font-family="Times,serif" font-size="14" text-anchor="middle">:library:koin-datastore</text>
        </g>
        <g stroke="#000" class="edge">
            <path fill="none" d="M4153.83 326.19c58.61 11.82 139.51 28.14 197.78 39.9"/>
            <path d="m4351.98 362.59 9.11 5.41-10.49 1.45z"/>
        </g>
        <g stroke="#000" class="edge">
            <path fill="none" d="M4478.72 326.78c19.01 7.92 37.61 19.72 48.81 37.22 8.63 13.47 10.65 24.06 0 36-46.59 52.26-243.68 26.13-313 36-10.05 1.43-20.64 3.08-31.03 4.78"/>
            <path d="m4184.28 444.19-10.44-1.81 9.3-5.09z"/>
        </g>
        <g stroke="#000" class="edge">
            <path fill="none" d="M4415.75 328.3c1.36 7.38 3 16.18 4.54 24.45"/>
            <path d="m4423.69 351.94-1.61 10.47-5.27-9.2z"/>
        </g>
        <g class="node" transform="translate(4 472)">
            <ellipse cx="3923.53" cy="-90" fill="none" stroke="#000" rx="120.96" ry="18"/>
            <text x="3923.53" y="-84.95" font-family="Times,serif" font-size="14" text-anchor="middle">:app:core:holiday-preferences</text>
        </g>
        <g stroke="#000" class="edge">
            <path fill="none" d="M4317.29 324.75c-85.01 12.27-208.89 30.14-294.04 42.44"/>
            <path d="m4023.91 370.63-10.39-2.04 9.39-4.89z"/>
        </g>
        <g stroke="#000" class="edge">
            <path fill="none" d="M183.16 328.31c5.43 21.05 17.89 55.75 43.37 71.69 63.98 40.03 1175.3 50.32 1503.47 52.49"/>
            <path d="m1729.85 448.99 9.98 3.56-10.03 3.44z"/>
        </g>
        <g stroke="#000" class="edge">
            <path fill="none" d="M240.44 326.45c45.32 11.49 106.97 27.13 152.65 38.71"/>
            <path d="m393.74 361.72 8.83 5.85-10.55.93z"/>
        </g>
        <g stroke="#000" class="edge">
            <path fill="none" d="M207.85 327.95c15.95 9.53 36.01 21.54 53.01 31.71"/>
            <path d="m262.39 356.49 6.78 8.14-10.38-2.13z"/>
        </g>
        <g class="node" transform="translate(4 472)">
            <ellipse cx="2106.53" cy="-90" fill="none" stroke="#000" rx="110.21" ry="18"/>
            <text x="2106.53" y="-84.95" font-family="Times,serif" font-size="14" text-anchor="middle">:app:core:holiday-database</text>
        </g>
        <g stroke="#000" class="edge">
            <path fill="none" d="M271.84 323.32c16.52 1.84 33.6 3.51 49.69 4.68 622.57 45.15 780.18 14.23 1404 36 90.66 3.16 193.28 7.74 269.76 11.35"/>
            <path d="m1995.05 371.84 9.82 3.97-10.15 3.02z"/>
        </g>
        <g stroke="#000" class="edge">
            <path fill="none" d="M2444.96 396.75c56.58 12.26 139.01 30.12 195.72 42.41"/>
            <path d="m2641.15 435.68 9.03 5.54-10.51 1.3z"/>
        </g>
        <g stroke="#000" class="edge">
            <path fill="none" d="M2817.49 320.16c18.96 2.65 39.83 5.47 59.04 7.84 148.62 18.34 189.98-1.3 335 36 40.13 10.32 45.55 27.03 86 36 195.2 43.29 700.37 13.18 899 36 9.55 1.1 19.61 2.64 29.39 4.35"/>
            <path d="m4226.54 436.9 9.2 5.25-10.46 1.64z"/>
        </g>
        <g stroke="#000" class="edge">
            <path fill="none" d="M2715.5 325.73c-65.55 24.71-191.69 72.02-201.97 74.27-112.82 24.64-444.34 42.06-604.45 49.29"/>
            <path d="m1909.51 452.77-10.15-3.05 9.84-3.94z"/>
        </g>
        <g stroke="#000" class="edge">
            <path fill="none" d="M2817.51 320.02c18.96 2.65 39.83 5.5 59.02 7.98 134.06 17.33 179.62-21.39 302 36 21.06 9.88 16.65 26.76 38 36 73.45 31.81 605.11 46.66 814.03 51.31"/>
            <path d="m4030.62 447.82 9.92 3.71-10.07 3.28z"/>
        </g>
        <g stroke="#000" class="edge">
            <path fill="none" d="M2816.83 320.32c19.13 2.69 40.26 5.49 59.7 7.68 184.41 20.81 231.87 12.87 416 36 8.6 1.08 17.58 2.35 26.5 3.7"/>
            <path d="m3319.42 364.22 9.34 4.99-10.42 1.93z"/>
        </g>
        <g stroke="#000" class="edge">
            <path fill="none" d="M2745 328.29c-5.35 10.18-11.85 23.43-16.47 35.71-7.45 19.81-13.61 42.91-17.82 60.61"/>
            <path d="m2714.17 425.19-5.66 8.96-1.16-10.53z"/>
        </g>
        <g stroke="#000" class="edge">
            <path fill="none" d="M2771.64 328.01c22 20.75 62.33 55.12 103.89 71.99 93.3 37.86 208.65 49.59 288.64 52.79"/>
            <path d="m3163.84 449.27 9.87 3.86-10.12 3.14z"/>
        </g>
        <g stroke="#000" class="edge">
            <path fill="none" d="M5140.77 322.95c76.69 12.7 197.36 32.66 275.27 45.56"/>
            <path d="m5416.43 365.02 9.29 5.09-10.44 1.82z"/>
        </g>
        <g stroke="#000" class="edge">
            <path fill="none" d="M5058.4 328.3c-4.57 7.8-10.07 17.19-15.15 25.87"/>
            <path d="m5046.39 355.73-8.08 6.86 2.04-10.4z"/>
        </g>
        <g stroke="#000" class="edge">
            <path fill="none" d="M5082.6 328.01c14.61 19.78 32.89 52.24 13.93 71.99-33.96 35.38-833.23 30.88-882 36-10.59 1.11-21.76 2.65-32.65 4.34"/>
            <path d="m4182.61 443.77-10.43-1.85 9.31-5.06z"/>
        </g>
        <g stroke="#000" class="edge">
            <path fill="none" d="M4363.69 250.2c11.92 1.98 24.25 3.99 35.84 5.8 55.46 8.66 213.25-6.42 250 36 31.43 36.28 32.51 72.69 0 108-32.85 35.68-386.88 29.93-435 36-10.26 1.29-21.08 2.89-31.66 4.58"/>
            <path d="m4183.45 444.03-10.44-1.83 9.3-5.07z"/>
        </g>
        <g stroke="#000" class="edge">
            <path fill="none" d="M4616.06 251.07c22.16 7.8 45.37 20.47 58.47 40.93 25.88 40.42 32.59 72.76 0 108-34.81 37.64-409.12 29.7-460 36-10.27 1.27-21.09 2.86-31.67 4.54"/>
            <path d="m4183.44 443.99-10.43-1.84 9.3-5.07z"/>
        </g>
        <g stroke="#000" class="edge">
            <path fill="none" d="M4846.45 255.57c36.76 25.46 107.24 74.28 148.59 102.93"/>
            <path d="m4996.92 355.54 6.23 8.57-10.21-2.81z"/>
        </g>
        <g stroke="#000" class="edge">
            <path fill="none" d="M2687.61 168.65c-316.15 7.41-1583.16 37.91-1622.08 51.35-51.09 17.64-70.64 25.39-98 72-24.38 41.54-42 72.91-9 108 26.18 27.83 557.25 44.95 772.53 50.76"/>
            <path d="m1730.89 447.26 9.9 3.76-10.09 3.23z"/>
        </g>
        <g stroke="#000" class="edge">
            <path fill="none" d="M2829.93 166.42c229.35-1.29 937.45-.81 1023.6 53.58 46.07 29.09 13.5 76.57 58 108 86.31 60.96 166.18-44.17 235 36 15.37 17.91 3.4 43.76-10.06 62.99"/>
            <path d="m4139.35 428.98-8.8 5.91 3.2-10.1z"/>
        </g>
        <g stroke="red" stroke-width="2" class="edge">
            <path fill="none" d="M2829.68 168.43c152.9 3.69 524.02 15.85 832.85 51.57 8.29.96 16.94 2.16 25.52 3.48"/>
            <path fill="red" d="m3686.95 219.76 9.32 5.04-10.43 1.87z"/>
        </g>
        <g stroke="#000" class="edge">
            <path fill="none" d="M2687.23 168.2c-192.91 3.68-722.04 16.77-892.7 51.8-150.6 30.92-318.69 103.68-396.74 139.84"/>
            <path d="m1399.3 363-10.54 1.05 7.59-7.4z"/>
        </g>
        <g stroke="#000" class="edge">
            <path fill="none" d="M1715.6 327.97c12.22 18.34 32.83 48.15 52.93 72.03 8.18 9.72 17.76 19.8 26.46 28.54"/>
            <path d="m1797.26 425.85 4.65 9.52-9.57-4.54z"/>
        </g>
        <g stroke="#000" class="edge">
            <path fill="none" d="M1779.48 313.37c140.75 5.04 454.03 19.05 716.05 50.63 92.28 11.12 113.57 26.24 206 36 260.1 27.48 1066.15 45.93 1329.11 51.35"/>
            <path d="m4030.56 447.85 9.93 3.7-10.07 3.29z"/>
        </g>
        <g stroke="#000" class="edge">
            <path fill="none" d="M1779.27 313.55c205.78 7.11 798.08 28.06 1290.26 50.45 77.31 3.52 164.9 8.12 229.81 11.65"/>
            <path d="m3299.47 372.15 9.79 4.04-10.17 2.95z"/>
        </g>
        <g stroke="#000" class="edge">
            <path fill="none" d="M1678.74 327.41c-14.3 9.1-32.32 20.57-48.01 30.56"/>
            <path d="m1632.9 360.73-10.31 2.42 6.55-8.32z"/>
        </g>
        <g stroke="#000" class="edge">
            <path fill="none" d="M1472 175.32c-66.27 8.73-158.38 24.07-188.47 44.68-21.71 14.88-36.99 41.02-46.22 61.14"/>
            <path d="m1240.58 282.4-7.18 7.8.75-10.57z"/>
        </g>
        <g stroke="#000" class="edge">
            <path fill="none" d="M1461.22 168.27c-162.59 3.3-509.79 14.64-548.69 51.73-29.11 27.76-46.62 150.76-19 180 28.47 30.14 610.12 46.07 837.25 51.16"/>
            <path d="m1730.54 447.66 9.92 3.72-10.07 3.27z"/>
        </g>
        <g stroke="#000" class="edge">
            <path fill="none" d="M1611.71 177.1c20.44 2.7 43.01 5.31 63.82 6.9 675.99 51.7 849.75-24.66 1525 36 205.67 18.48 257 29.15 459 72 60.33 12.8 73.55 23.81 134 36 116.08 23.41 164.2-27.74 264 36 22.31 14.25 37.58 40.71 46.66 61.09"/>
            <path d="m4107.4 423.69.62 10.58-7.08-7.88z"/>
        </g>
        <g stroke="#000" class="edge">
            <path fill="none" d="M1612.06 176.97c20.36 2.68 42.79 5.31 63.47 7.03 488.91 40.76 1075.14 50.18 1312.45 52.35"/>
            <path d="m2987.87 232.85 9.97 3.59-10.03 3.41z"/>
        </g>
        <g stroke="#000" class="edge">
            <path fill="none" d="M1569.34 183.58c11.49 9.21 23.97 21.78 30.19 36.42 18.42 43.32 10.45 99.28 2.84 132.53"/>
            <path d="m1605.77 353.34-5.78 8.87-1.01-10.54z"/>
        </g>
        <g stroke="#000" class="edge">
            <path fill="none" d="M2450.97 327.59c-11.51 8.85-25.87 19.89-38.53 29.64"/>
            <path d="m2414.83 359.8-10.06 3.32 5.8-8.87z"/>
        </g>
        <g stroke="#000" class="edge">
            <path fill="none" d="M2485.04 327.99c12.91 19.76 28.8 52.21 10.49 72.01-38.85 42.02-409.23 50.78-584.24 52.57"/>
            <path d="m1911.34 456.07-10.03-3.41 9.97-3.59z"/>
        </g>
        <g stroke="#000" class="edge">
            <path fill="none" d="M2523.8 323.5c92.44 22.33 283.79 67.61 351.73 76.5 224.09 29.31 913.88 46.19 1154.86 51.32"/>
            <path d="m4030.43 447.82 9.92 3.71-10.07 3.28z"/>
        </g>
        <g stroke="#000" class="edge">
            <path fill="none" d="M2528.46 322.22c10.95 2.04 22.35 4.07 33.07 5.78 60.86 9.73 224.34 30.17 325.83 42.63"/>
            <path d="m2887.5 367.12 9.5 4.7-10.35 2.25z"/>
        </g>
        <g stroke="#000" class="edge">
            <path fill="none" d="M2541.2 317.64c38.08 3.49 86.29 7.61 129.33 10.36 110.4 7.06 833.23 36.14 1130.07 47.96"/>
            <path d="m3800.48 372.45 9.85 3.9-10.13 3.1z"/>
        </g>
        <g stroke="#000" class="edge">
            <path fill="none" d="M2415.57 322.01c-60.45 11.69-156.46 30.26-224.61 43.44"/>
            <path d="m2191.82 368.85-10.49-1.54 9.16-5.34z"/>
        </g>
        <g stroke="#000" class="edge">
            <path fill="none" d="M1465.35 251.35c-47.34 11.43-118.06 28.5-170.27 41.1"/>
            <path d="m1295.92 295.85-10.54-1.05 8.9-5.75z"/>
        </g>
        <g stroke="#000" class="edge">
            <path fill="none" d="M1485.39 254.73c-36.54 18.29-99.1 49.05-153.86 73.27-39.02 17.26-65.15.62-89 36-8.94 13.27-10.78 24.18 0 36 32.2 35.29 333.84 47.38 488.09 51.28"/>
            <path d="m1730.49 447.77 9.91 3.75-10.08 3.25z"/>
        </g>
        <g stroke="#000" class="edge">
            <path fill="none" d="M1590.76 239.02c341.15.36 1750.15 4.76 1940.77 52.98 34.3 8.68 39.23 20.43 71 36 8.39 4.11 143.06 69.29 152 72 93.16 28.23 204.6 41.68 278.56 47.91"/>
            <path d="m4032.99 444.39 9.68 4.3-10.25 2.68z"/>
        </g>
        <g stroke="#000" class="edge">
            <path fill="none" d="M1589.59 241.28c220.52 6.92 898.77 28.6 1460.94 50.72 98.93 3.89 212.12 8.97 290.04 12.55"/>
            <path d="m3340.46 301.04 9.83 3.96-10.15 3.04z"/>
        </g>
        <g stroke="#000" class="edge">
            <path fill="none" d="M1497.19 255.85c-28.72 25.02-82.79 72.13-115.79 100.87"/>
            <path d="m1384.08 359.03-9.84 3.93 5.24-9.21z"/>
        </g>
        <g stroke="#000" class="edge">
            <path fill="none" d="M1329.24 254.54c-18.11 9.6-41.63 22.07-61.59 32.65"/>
            <path d="m1269.4 290.23-10.48 1.59 7.2-7.77z"/>
        </g>
        <g stroke="#000" class="edge">
            <path fill="none" d="M1297.38 245.01C1173.21 259.39 910.8 302.13 1002.53 400c24.61 26.26 521.15 44.11 728.37 50.45"/>
            <path d="m1730.94 446.95 9.89 3.8-10.1 3.19z"/>
        </g>
        <g stroke="#000" class="edge">
            <path fill="none" d="M1405.09 251.01c9.36 2 19.17 3.81 28.44 4.99 254.94 32.56 905.45-21.26 1156 36 38.41 8.78 42.84 26.23 81 36 186.64 47.79 245.95-14.04 432 36 36.09 9.71 39.78 26.77 76 36 159.84 40.72 653.34 50.19 851.93 52.36"/>
            <path d="m4030.22 448.86 9.96 3.6-10.04 3.4z"/>
        </g>
        <g stroke="#000" class="edge">
            <path fill="none" d="M1405.09 251.05c9.36 2 19.17 3.79 28.44 4.95 619.83 77.42 782.37-14.16 1405 36 16.32 1.31 33.77 3.31 50.29 5.48"/>
            <path d="m2889.15 293.99 9.44 4.81-10.38 2.13z"/>
        </g>
        <g stroke="#000" class="edge">
            <path fill="none" d="M1357.92 256.41c-.85 23.98-2.38 67.45-3.39 96.17"/>
            <path d="m1358.04 352.51-3.85 9.87-3.15-10.12z"/>
        </g>
        <g stroke="#000" class="edge">
            <path fill="none" d="M1157.41 255.24c11.44 8.9 25.85 20.11 38.55 29.98"/>
            <path d="m1197.89 282.29 5.75 8.9-10.05-3.37z"/>
        </g>
        <g stroke="#000" class="edge">
            <path fill="none" d="M1191.92 246.57c27.49 3.46 61.25 7.26 91.61 9.43 579.19 41.39 726.57-1.78 1306 36 28.79 1.88 60.32 4.89 88.04 7.86"/>
            <path d="m2677.72 296.36 9.56 4.56-10.32 2.39z"/>
        </g>
        <g stroke="#000" class="edge">
            <path fill="none" d="M1082.46 247.21c-29.05 7.12-63.25 20.35-84.93 44.79-32.3 36.4-51.31 72.53-18 108 25.43 27.08 540.04 44.56 751.48 50.62"/>
            <path d="m1730.96 447.11 9.9 3.79-10.1 3.21z"/>
        </g>
        <g stroke="#000" class="edge">
            <path fill="none" d="M1191.92 246.56c27.5 3.45 61.25 7.26 91.61 9.44 70.57 5.07 1208.65 6.6 1273 36 19.74 9.02 13.47 26.52 33 36 192.46 93.41 287.54-57.41 480 36 19.53 9.48 13.37 26.74 33 36 82.84 39.06 700.5 49.64 928.11 52.23"/>
            <path d="m4030.35 448.73 9.96 3.61-10.04 3.39z"/>
        </g>
        <g stroke="#000" class="edge">
            <path fill="none" d="M1085.01 248.3c-64.54 11.64-175.98 31.74-252.82 45.61"/>
            <path d="m833.07 297.3-10.46-1.66 9.22-5.22z"/>
        </g>
        <g stroke="#000" class="edge">
            <path fill="none" d="M3782.71 255.78c28.3 20.51 79.52 54.65 128.82 72.22 99.53 35.47 136.14-1.3 235 36 41.49 15.65 83.61 44.9 110.44 65.59"/>
            <path d="m4258.9 426.66 5.71 8.92-10.03-3.42z"/>
        </g>
        <g stroke="#000" class="edge">
            <path fill="none" d="M3677.48 241.53c-277.35 8.52-1161.36 36.51-1288.95 50.47-178.26 19.51-232.29 1.09-397 72-24.82 10.69-25.57 22.53-49 36-22.45 12.91-48.65 24.68-70.99 33.83"/>
            <path d="m1872.9 437.05-10.59.49 7.97-6.98z"/>
        </g>
        <g stroke="#000" class="edge">
            <path fill="none" d="M3770.49 256.11c13.14 20.85 38.37 55.34 70.04 71.89 57.17 29.87 245.32-12.35 288 36 14.69 16.64 8.79 42.19.61 61.65"/>
            <path d="m4132.36 427.04-7.38 7.6 1.03-10.54z"/>
        </g>
        <g stroke="#000" class="edge">
            <path fill="none" d="M3679.94 243.48c-115.92 7.29-318.3 23.45-340.41 48.52-17.62 19.98 3.04 46.09 24.06 64.86"/>
            <path d="m3365.68 354.04 5.37 9.14-9.89-3.8z"/>
        </g>
        <g stroke="red" stroke-width="2" class="edge">
            <path fill="none" d="M3702.8 251.43c-55.26 11.91-138.71 29.88-197.63 42.57"/>
            <path fill="red" d="m3507.56 297.07-10.51-1.32 9.04-5.53z"/>
        </g>
        <g stroke="#000" class="edge">
            <path fill="none" d="M3741.91 255.89C3702.6 290.36 3606.86 368.2 3510.53 400c-67.45 22.27-533 42.49-724.25 49.95"/>
            <path d="m2786.55 453.44-10.13-3.11 9.85-3.88z"/>
        </g>
        <g stroke="#000" class="edge">
            <path fill="none" d="M3761.8 256.45c2.49 20.53 9.87 54.03 31.73 71.55 94.9 76.06 347.1-16.8 264 72-46.91 50.13-498.16 54.42-700.12 53.79"/>
            <path d="m3357.43 457.29-9.98-3.54 10.01-3.46z"/>
        </g>
        <g stroke="#000" class="edge">
            <path fill="none" d="M3459.94 394.77c12.75 2.01 26.07 3.88 38.59 5.23 308.84 33.35 389.61-1.23 698 36 9.43 1.14 19.36 2.69 29.04 4.38"/>
            <path d="m4226.06 436.92 9.21 5.24-10.47 1.64z"/>
        </g>
        <g stroke="#000" class="edge">
            <path fill="none" d="M3310.77 387.65c-65.79 3.55-159.29 8.47-241.24 12.35-435.11 20.58-955.68 41.47-1160.26 49.53"/>
            <path d="m1909.65 453.02-10.13-3.11 9.86-3.89z"/>
        </g>
        <g stroke="#000" class="edge">
            <path fill="none" d="M3460.81 394.56c12.49 1.99 25.49 3.91 37.72 5.44 190.95 23.94 416.56 40.34 534.64 48.02"/>
            <path d="m4033.33 444.53 9.76 4.13-10.21 2.85z"/>
        </g>
        <g stroke="red" stroke-width="2" class="edge">
            <path fill="none" d="M3317.61 390.89c-133.41 13.52-403.98 40.93-536.48 54.35"/>
            <path fill="red" d="m2783.22 448.55-10.3-2.48 9.59-4.49z"/>
        </g>
        <g stroke="#000" class="edge">
            <path fill="none" d="M3364.22 399.24c-18.57 9.63-42.33 21.95-62.42 32.36"/>
            <path d="m3303.51 434.66-10.49 1.5 7.26-7.71z"/>
        </g>
        <g stroke="#000" class="edge">
            <path fill="none" d="M3032.59 251.92c-60.06 12.33-150.21 30.83-211.45 43.41"/>
            <path d="m2822.04 298.72-10.5-1.42 9.09-5.44z"/>
        </g>
        <g stroke="#000" class="edge">
            <path fill="none" d="M3186.26 244.43c111.75 7.4 307.2 22.66 473.27 47.57 78.1 11.71 96.08 23.16 174 36 129.02 21.26 167.68-4.53 292 36 47.59 15.51 97.17 45.61 128.28 66.49"/>
            <path d="m4255.7 427.54 6.29 8.52-10.23-2.74z"/>
        </g>
        <g stroke="#000" class="edge">
            <path fill="none" d="M3018.06 249.01c-22.7 2.64-47.58 5.23-70.53 6.99-102.55 7.87-830.39-4.34-925 36-31.8 13.56-84.47 87.08-112 108-15.16 11.52-33.02 22.5-48.82 31.46"/>
            <path d="m1863.44 434.5-10.45 1.8 7.05-7.92z"/>
        </g>
        <g stroke="#000" class="edge">
            <path fill="none" d="M3191.7 239.46c103.34 2.7 271.5 13.49 410.83 52.54 35.99 10.09 120.53 51.84 152 72 20.99 13.44 20.36 25.58 43 36 74.15 34.13 167.07 46.56 233.09 50.94"/>
            <path d="m4030.53 447.43 9.76 4.11-10.19 2.88z"/>
        </g>
        <g stroke="#000" class="edge">
            <path fill="none" d="M3158.69 252c58.39 12.02 145.07 29.87 205.84 42.38"/>
            <path d="m3365 290.9 9.08 5.45-10.5 1.41z"/>
        </g>
        <g stroke="#000" class="edge">
            <path fill="none" d="M3064.58 255.41c-18.08 9.59-41.12 21.81-60.62 32.15"/>
            <path d="m3005.64 290.63-10.47 1.59 7.19-7.77z"/>
        </g>
        <g stroke="#000" class="edge">
            <path fill="none" d="M3015.26 248.34c-122.39 14.34-341.89 40.45-344.73 43.66-33.21 37.62-4.84 99.41 16.24 134.5"/>
            <path d="m2689.61 424.44 2.33 10.33-8.27-6.63z"/>
        </g>
        <g stroke="#000" class="edge">
            <path fill="none" d="M3190.26 241.65c110.58 4.6 285.44 17.06 341.27 50.35 33.68 20.09 39.11 34.63 51 72 4.85 15.25 10.36 23.8 0 36-28.61 33.71-142.02 46.01-226.2 50.49"/>
            <path d="m3356.59 453.98-10.16-3 9.82-4z"/>
        </g>
        <g stroke="#000" class="edge">
            <path fill="none" d="M3055.26 388.25c58.45 3.6 138.64 8.33 209.27 11.75 414.05 20.05 520.15-11.02 932 36 9.55 1.09 19.61 2.63 29.39 4.34"/>
            <path d="m4226.54 436.89 9.2 5.25-10.46 1.64z"/>
        </g>
        <g stroke="#000" class="edge">
            <path fill="none" d="M2909.03 394.74c-12.72 2.02-26 3.91-38.5 5.26-353.75 38.28-777.62 48.99-959.68 51.93"/>
            <path d="m1911.04 455.42-10.05-3.34 9.94-3.66z"/>
        </g>
        <g stroke="#000" class="edge">
            <path fill="none" d="M3036.04 394.74c12.71 2.02 26 3.91 38.49 5.26 353.95 38.39 778.76 49.08 955.97 51.97"/>
            <path d="m4030.35 448.47 9.94 3.65-10.05 3.34z"/>
        </g>
        <g stroke="#000" class="edge">
            <path fill="none" d="M2919.9 396.75c-45.02 11.75-109.76 28.66-156.49 40.87"/>
            <path d="m2764.56 440.94-10.56-.86 8.79-5.92z"/>
        </g>
        <g stroke="#000" class="edge">
            <path fill="none" d="M3027.72 396.41c47.68 11.59 116.67 28.36 167.17 40.64"/>
            <path d="m3195.66 433.63 8.89 5.76-10.55 1.04z"/>
        </g>
        <g stroke="#000" class="edge">
            <path fill="none" d="M3516.79 316.62c156.61 11.02 489.38 35.43 540.74 47.38 68.01 15.82 142.65 48 187.39 69.02"/>
            <path d="m4246.19 429.75 7.53 7.45-10.54-1.13z"/>
        </g>
        <g stroke="#000" class="edge">
            <path fill="none" d="M3354.12 316.42c-109.22 7.79-309.09 23.88-478.59 47.58-86.85 12.14-106.96 25.29-194 36-279.87 34.45-613.82 46.9-770.9 51.07"/>
            <path d="m1910.78 454.57-10.09-3.24 9.91-3.76z"/>
        </g>
        <g stroke="#000" class="edge">
            <path fill="none" d="M3477.37 326.13c56.03 19.72 158.86 54.03 249.16 73.87 105.7 23.22 229.95 38.06 308.83 45.96"/>
            <path d="m4035.55 442.46 9.6 4.46-10.29 2.5z"/>
        </g>
        <g stroke="red" stroke-width="2" class="edge">
            <path fill="none" d="M3425.64 328.3c-4.45 7.8-9.82 17.19-14.78 25.87"/>
            <path fill="red" d="m3414.81 354.32-8 6.95 1.92-10.42z"/>
        </g>
        <g stroke="#000" class="edge">
            <path fill="none" d="M3459.32 327.63c24.16 18.85 55.25 49.87 34.21 72.37-23.89 25.55-509.85 44.01-706.98 50.48"/>
            <path d="m2786.74 453.97-10.11-3.17 9.88-3.83z"/>
        </g>
        <g stroke="#000" class="edge">
            <path fill="none" d="M3501.1 322.09c24.1 7.6 49.01 20.39 63.43 41.91 8.91 13.29 10.3 23.75 0 36-26.41 31.41-130.1 44.21-209.1 49.42"/>
            <path d="m3355.67 452.91-10.2-2.87 9.76-4.11z"/>
        </g>
        <g stroke="#000" class="edge">
            <path fill="none" d="M3035.16 317.75c101.89 9.69 294.51 28.36 458.37 46.25 135.25 14.77 168.68 21.89 304 36 177.09 18.47 222.67 11.27 399 36 9.29 1.3 19.09 2.92 28.65 4.64"/>
            <path d="m4225.56 437.15 9.2 5.26-10.47 1.62z"/>
        </g>
        <g stroke="#000" class="edge">
            <path fill="none" d="M2915.43 324.62c-72.73 20-215.31 56.95-338.9 75.38-238.99 35.64-524.15 47.42-666.25 51.23"/>
            <path d="m1910.66 454.72-10.09-3.23 9.9-3.76z"/>
        </g>
        <g stroke="#000" class="edge">
            <path fill="none" d="M3023.35 322.02c63.03 11.87 157.95 30.6 193.18 41.98 37.49 12.11 42.75 26.58 81 36 137.08 33.76 553.32 47.04 732.97 51.29"/>
            <path d="m4030.56 447.8 9.92 3.73-10.08 3.26z"/>
        </g>
        <g stroke="#000" class="edge">
            <path fill="none" d="M3022.38 322.16c11 2.01 22.42 4.03 33.15 5.84 105.07 17.68 131.77 19.32 237 36 8 1.27 16.35 2.61 24.67 3.96"/>
            <path d="m3317.71 364.5 9.31 5.07-10.44 1.84z"/>
        </g>
        <g stroke="#000" class="edge">
            <path fill="none" d="M2934.07 327.15c-46.86 25.69-138.4 75.88-190.61 104.51"/>
            <path d="m2745.34 434.62-10.45 1.73 7.09-7.87z"/>
        </g>
        <g stroke="#000" class="edge">
            <path fill="none" d="M2996.45 326.74c53.86 25.75 160.79 76.88 220.75 105.54"/>
            <path d="m3218.59 429.07 7.51 7.47-10.53-1.16z"/>
        </g>
        <g stroke="#000" class="edge">
            <path fill="none" d="M4901.58 179.86c28.43 8.43 62.89 21.42 89.95 40.14 24.3 16.8 45.71 43.01 59.74 62.65"/>
            <path d="m5054.05 280.5 2.82 10.21-8.57-6.22z"/>
        </g>
        <g stroke="#000" class="edge">
            <path fill="none" d="M4778.92 176.11c-19.51 2.58-40.79 5.36-60.39 7.89-116.38 15.01-250.96 31.91-335.77 42.51"/>
            <path d="m4383.25 229.98-10.36-2.24 9.49-4.71z"/>
        </g>
        <g stroke="#000" class="edge">
            <path fill="none" d="M4925.47 171.66c194.88 11.74 688.18 42.04 694.06 48.34 29.46 31.55-29.52 99.12-38 108-12.43 13.02-28.75 23.91-44.07 32.37"/>
            <path d="m5539.4 363.3-10.48 1.56 7.22-7.75z"/>
        </g>
        <g stroke="#000" class="edge">
            <path fill="none" d="M4925.22 171.76c147.68 9.42 455.68 31.03 471.31 48.24 91.68 100.96-170.73 141.55-300.75 155.14"/>
            <path d="m5096.2 378.62-10.31-2.47 9.6-4.5z"/>
        </g>
        <g stroke="#000" class="edge">
            <path fill="none" d="M4929.32 166.32c192.31-.74 660.59 2.76 708.21 53.68 54.67 58.45 52.43 124.27-5 180-45.97 44.61-998.88 51.68-1273.52 52.79"/>
            <path d="m4359.12 456.29-10.01-3.46 9.99-3.54z"/>
        </g>
        <g stroke="#000" class="edge">
            <path fill="none" d="M4794.04 180c-48.35 11.75-119.58 29.07-170.84 41.53"/>
            <path d="m4624.27 224.87-10.54-1.04 8.89-5.76z"/>
        </g>
        <g stroke="#000" class="edge">
            <path fill="none" d="M4782.05 177.05c-20.31 2.73-42.8 5.37-63.52 6.95-765.95 58.27-960.64.81-1728 36-56.47 2.59-964.19 47.23-1015 72-4.84 2.36-61.47 67.93-65 72-13.65 15.73-15.48 21.06-30 36-9.66 9.95-20.91 20.19-31.03 28.99"/>
            <path d="m1851.98 431.47-9.88 3.85 5.32-9.16z"/>
        </g>
        <g stroke="#000" class="edge">
            <path fill="none" d="M4881.75 182.69c14.77 8.72 30.53 21.12 38.78 37.31 7.27 14.25 7.28 21.75 0 36-49.65 97.22-96.4 106.7-199 144-106.15 38.59-394.86 22.52-507 36-10.44 1.26-21.46 2.85-32.21 4.56"/>
            <path d="m4183.17 443.97-10.43-1.84 9.3-5.07z"/>
        </g>
        <g stroke="#000" class="edge">
            <path fill="none" d="M4841.35 184.3c-2.69 7.55-5.92 16.58-8.93 25.02"/>
            <path d="m4835.81 210.23-6.66 8.24.07-10.59z"/>
        </g>
        <g stroke="#000" class="edge">
            <path fill="none" d="M4781.02 176.74c-20.05 2.68-42.13 5.36-62.49 7.26-315.9 29.51-692.05 44.45-863.92 50.16"/>
            <path d="m3854.96 237.65-10.11-3.17 9.88-3.83z"/>
        </g>
        <g stroke="#000" class="edge">
            <path fill="none" d="M4693.18 176.72c75.04 10.6 186.73 28.08 227.35 43.28 22.97 8.6 77.04 42.56 113.07 65.95"/>
            <path d="m5035.51 283.02 6.46 8.39-10.29-2.53z"/>
        </g>
        <g stroke="#000" class="edge">
            <path fill="none" d="M4561.47 179.84c-54.55 11.86-135.63 29.48-193.31 42.02"/>
            <path d="m4368.94 225.28-10.52-1.3 9.03-5.54z"/>
        </g>
        <g stroke="#000" class="edge">
            <path fill="none" d="M4692.06 176.98c20.76 2.62 43.49 5.21 64.47 7.02 41.51 3.59 720.26 5.84 749 36 33.86 35.52 14.92 97.66-.48 133.46"/>
            <path d="m5508.37 354.61-7.3 7.68.92-10.56z"/>
        </g>
        <g stroke="#000" class="edge">
            <path fill="none" d="M4640.02 183.85c29.44 25.43 82.12 70.83 84.51 72.15 46.86 25.94 66.4 13.51 115 36 27.19 12.58 30.34 22.33 57 36 26.53 13.6 57.39 26.24 82.49 35.75"/>
            <path d="m4980.2 360.45 8.14 6.79-10.59-.23z"/>
        </g>
        <g stroke="#000" class="edge">
            <path fill="none" d="M4692.06 177c20.76 2.62 43.49 5.2 64.47 7 85.56 7.33 692.78 2.88 772 36 80.61 33.7 139.53 117 79 180-43.48 45.26-976.73 51.87-1248.42 52.84"/>
            <path d="m4359.35 456.33-10.02-3.46 9.99-3.54z"/>
        </g>
        <g stroke="#000" class="edge">
            <path fill="none" d="M4605.77 183.95c-7.27 8.34-16.18 18.56-24.23 27.8"/>
            <path d="m4584.36 213.83-9.2 5.24 3.93-9.84z"/>
        </g>
        <g stroke="#000" class="edge">
            <path fill="none" d="M4549.4 177.14c-21.45 2.68-45.08 5.27-66.87 6.86-281.28 20.51-2283.16-16.96-2536 108-29.47 14.56-82.26 92.34-109.19 134.23"/>
            <path d="m1840.38 427.98-8.33 6.55 2.42-10.32z"/>
        </g>
        <g stroke="#000" class="edge">
            <path fill="none" d="M4632.53 183.9c19.92 28.46 58.31 85.09 65 108.1 13.41 46.09 33.66 72.82 1 108-36.69 39.52-430.47 29.47-484 36-10.27 1.25-21.09 2.82-31.67 4.51"/>
            <path d="m4183.44 443.96-10.44-1.84 9.31-5.07z"/>
        </g>
        <g stroke="#000" class="edge">
            <path fill="none" d="M4663.87 182.02c30.51 10.57 71.59 24.81 104.31 36.14"/>
            <path d="m4769.19 214.81 8.3 6.58-10.59.03z"/>
        </g>
        <g stroke="#000" class="edge">
            <path fill="none" d="M4547.91 176.63c-21.06 2.61-44.12 5.28-65.38 7.37-226.14 22.22-492.96 39.49-630.22 47.72"/>
            <path d="m3852.74 235.2-10.19-2.9 9.78-4.09z"/>
        </g>
        <g stroke="#000" class="edge">
            <path fill="none" d="M4548.66 176.94c-21.26 2.64-44.6 5.26-66.13 7.06-361.31 30.19-455.33-9.82-815 36-152.79 19.46-188.93 37.32-339 72-102.67 23.73-221.28 53.95-292.37 72.36"/>
            <path d="m3037.19 367.71-10.56-.87 8.8-5.9z"/>
        </g>
        <g class="node" transform="translate(4 472)">
            <ellipse cx="5268.53" cy="-234" fill="none" stroke="#000" rx="115.33" ry="18"/>
            <text x="5268.53" y="-228.95" font-family="Times,serif" font-size="14" text-anchor="middle">:app:core:calendar-compose</text>
        </g>
        <g stroke="#000" class="edge">
            <path fill="none" d="M4693.9 176.47c20.28 2.54 42.3 5.22 62.63 7.53 141.15 16.07 304.28 32.46 408.7 42.67"/>
            <path d="m5165.29 223.16 9.61 4.46-10.29 2.51z"/>
        </g>
        <g stroke="#000" class="edge">
            <path fill="none" d="M4133.75 184.07c12.46 21.14 36.86 56.29 68.78 71.93 59.88 29.34 532.45 31.88 599 36 53.44 3.31 112.89 7.08 162.1 10.23"/>
            <path d="m4963.67 298.73 9.76 4.13-10.21 2.86z"/>
        </g>
        <g stroke="#000" class="edge">
            <path fill="none" d="M4161.86 182.02c25.68 10.33 60.04 24.15 87.88 35.35"/>
            <path d="m4250.69 213.98 7.97 6.98-10.59-.49z"/>
        </g>
        <g stroke="#000" class="edge">
            <path fill="none" d="M4192.29 174.93c30.58 3.31 67.19 6.88 100.24 9.07 63.06 4.18 1085.47-.59 1137 36 42.97 30.51 56.16 95.14 60.21 132.57"/>
            <path d="m5493.2 351.91-2.58 10.28-4.4-9.64z"/>
        </g>
        <g stroke="#000" class="edge">
            <path fill="none" d="M4125.39 184.28c2.05 20.69 8.83 54.68 31.14 71.72 80.6 61.57 354.64 21.36 455 36 68.81 10.04 261.45 53.46 358.54 75.72"/>
            <path d="m4970.7 364.28 8.96 5.65-10.53 1.17z"/>
        </g>
        <g stroke="#000" class="edge">
            <path fill="none" d="M4192.29 174.92c30.58 3.3 67.19 6.87 100.24 9.08 61.23 4.09 1061.32-8.09 1104 36 56.07 57.92 35.01 95.5-223 180-150.42 49.26-629.27 53.62-814.17 53.39"/>
            <path d="m4359.39 456.89-10-3.51 10.01-3.49z"/>
        </g>
        <g stroke="#000" class="edge">
            <path fill="none" d="M4186.39 176.95c78.61 12.65 214.15 34.47 298.44 48.03"/>
            <path d="m4485.3 221.51 9.32 5.04-10.43 1.87z"/>
        </g>
        <g stroke="#000" class="edge">
            <path fill="none" d="M4047.59 167.72c-375.17 3.67-1998.64 21.29-2101.06 52.28-57.36 17.36-76.46 25.29-114 72-30.93 38.48-32.36 59.04-26 108 1.06 8.12 2.98 16.76 5.07 24.66"/>
            <path d="m1814.92 423.53-.63 10.57-6.1-8.65z"/>
        </g>
        <g stroke="#000" class="edge">
            <path fill="none" d="M4119.31 184.34c-4.86 20.09-8.94 52.86 9.22 71.66 69.69 72.16 381.95-37.71 450 36 10.85 11.76 3.41 20.37 0 36-7.5 34.39-4.45 51.41-33 72-60.01 43.27-257.72 25.8-331 36-10.12 1.41-20.79 3.05-31.23 4.75"/>
            <path d="m4184.01 444.18-10.44-1.82 9.3-5.08z"/>
        </g>
        <g stroke="#000" class="edge">
            <path fill="none" d="M4194.01 174.05c30.26 3.06 66.14 6.69 98.52 9.95 154.69 15.56 334.79 33.54 440.21 44.05"/>
            <path d="m4732.85 224.55 9.6 4.47-10.3 2.49z"/>
        </g>
        <g stroke="#000" class="edge">
            <path fill="none" d="M4047.43 166.53c-197.38-.47-709.46 3.22-765.9 53.47-36.11 32.15-39.8 67.77-13 108 11.9 17.86 31.1 29.72 51 37.58"/>
            <path d="m3320.63 362.26 8.23 6.67-10.59-.08z"/>
        </g>
        <g stroke="#000" class="edge">
            <path fill="none" d="M4048.08 168.94c-157.83 4.54-531.05 18.08-842.55 51.06-9.39.99-19.21 2.23-28.94 3.57"/>
            <path d="m3177.12 227.03-10.39-2.04 9.4-4.89z"/>
        </g>
        <g stroke="#000" class="edge">
            <path fill="none" d="M4400.93 184.06c18.8 23.44 52.61 63.64 69.6 71.94 11 5.37 328.12 31.42 495.98 44.89"/>
            <path d="m4966.65 297.39 9.68 4.29-10.24 2.69z"/>
        </g>
        <g stroke="#000" class="edge">
            <path fill="none" d="M4366.44 183.59c-11.33 8.91-25.5 20.05-37.96 29.85"/>
            <path d="m4330.99 215.92-10.02 3.43 5.7-8.93z"/>
        </g>
        <g stroke="#000" class="edge">
            <path fill="none" d="M4457.13 176.94c20.98 2.68 44.09 5.32 65.4 7.06 52.36 4.29 905.87.95 945 36 36.69 32.86 34.55 95.61 29.44 132.31"/>
            <path d="m5500.43 352.85-5.02 9.34-1.9-10.43z"/>
        </g>
        <g stroke="#000" class="edge">
            <path fill="none" d="M4390.45 184.36c4.47 20.76 15.19 54.83 39.08 71.64 67.92 47.79 296.42 1.57 372 36 21.17 9.64 17.77 24.51 38 36 38.51 21.88 86.66 35.23 124.59 43.05"/>
            <path d="m4964.42 367.55 9.13 5.37-10.49 1.49z"/>
        </g>
        <g stroke="#000" class="edge">
            <path fill="none" d="M4457.13 176.96c20.98 2.67 44.09 5.31 65.4 7.04 107.61 8.75 877.56-18.08 971 36 77.42 44.8 151.94 115.48 90 180-42.61 44.38-955.9 51.61-1224.39 52.78"/>
            <path d="m4359.5 456.28-10.01-3.46 9.98-3.54z"/>
        </g>
        <g stroke="#000" class="edge">
            <path fill="none" d="M4425.7 182.54c25.34 10.31 58.8 23.92 85.92 34.96"/>
            <path d="m4512.71 214.17 7.95 7.01-10.59-.53z"/>
        </g>
        <g stroke="#000" class="edge">
            <path fill="none" d="M4313.14 175.47c-31.6 3.26-68.86 6.64-102.61 8.53-123.49 6.92-2111.48-10.71-2226 36-41.32 16.86-118.8 104.73-140 144-10.18 18.85-16.27 42.33-19.77 60.44"/>
            <path d="m1828.21 424.99-5.18 9.25-1.71-10.46z"/>
        </g>
        <g stroke="#000" class="edge">
            <path fill="none" d="M4316.83 176.66c-67.49 12.01-153.52 36.36-114.3 79.34 59.12 64.78 333.89-28.78 393 36 22.21 24.33-11.91 99.02-23 108-62.12 50.33-278.76 25.29-358 36-10.12 1.37-20.79 2.99-31.25 4.68"/>
            <path d="m4184 444.11-10.44-1.83 9.3-5.08z"/>
        </g>
        <g stroke="#000" class="edge">
            <path fill="none" d="M4454.07 177.71c77.82 12.52 206.52 33.23 289.37 46.56"/>
            <path d="m4743.75 220.78 9.32 5.04-10.43 1.87z"/>
        </g>
        <g stroke="#000" class="edge">
            <path fill="none" d="M4311.78 174.77c-31.32 3.09-68.02 6.53-101.25 9.23-196.82 15.97-757.72-45.45-882 108-10.07 12.43-6.97 21.6 0 36 5.85 12.08 15.93 22.24 26.53 30.33"/>
            <path d="m3357 355.42 6.17 8.62-10.19-2.89z"/>
        </g>
        <g stroke="#000" class="edge">
            <path fill="none" d="M4312.68 175.14c-31.5 3.18-68.58 6.6-102.15 8.86-412.26 27.76-516.67 9.19-929 36-29.98 1.95-62.63 4.72-92.08 7.45"/>
            <path d="m3190.12 230.9-10.29-2.55 9.63-4.42z"/>
        </g>
        <g class="node" transform="translate(4 472)">
            <ellipse cx="731.53" cy="-90" fill="none" stroke="#000" rx="106.11" ry="18"/>
            <text x="731.53" y="-84.95" font-family="Times,serif" font-size="14" text-anchor="middle">:library:firebase-common</text>
        </g>
        <g stroke="#000" class="edge">
            <path fill="none" d="M745.32 328.3c-1.37 7.38-3.01 16.18-4.54 24.45"/>
            <path d="m744.25 353.21-5.27 9.2-1.61-10.47z"/>
        </g>
        <g stroke="#000" class="edge">
            <path fill="none" d="M1424.69 395.17c12.89 1.87 26.25 3.59 38.84 4.83 434.74 42.74 958.5 51.03 1158.2 52.62"/>
            <path d="m2621.5 449.12 9.97 3.58-10.02 3.42z"/>
        </g>
        <g stroke="#000" class="edge">
            <path fill="none" d="M339.56 395.07c8.85 2.02 18.16 3.82 26.97 4.93 329.43 41.44 2656.03 30.29 2988 36 245.79 4.23 536.25 11.3 676.25 14.84"/>
            <path d="m4030.81 447.34 9.91 3.76-10.09 3.24z"/>
        </g>
        <g stroke="#000" class="edge">
            <path fill="none" d="M2192.2 394.48c14.11 1.9 28.64 3.81 42.33 5.52 138.84 17.34 301.08 35.08 394.06 45"/>
            <path d="m2628.77 441.5 9.58 4.54-10.32 2.42z"/>
        </g>
        <g stroke="#000" class="edge">
            <path fill="none" d="M5226.24 254.88c-30.31 10.41-70.09 24.06-102.12 35.04"/>
            <path d="m5125.61 293.11-10.59-.06 8.32-6.56z"/>
        </g>
        <g stroke="#000" class="edge">
            <path fill="none" d="M5298.51 255.85c39.4 25.54 114.3 74.11 158.32 102.65"/>
            <path d="m5458.5 355.41 6.49 8.38-10.3-2.5z"/>
        </g>
        <g stroke="#000" class="edge">
            <path fill="none" d="M5265.08 256.43c-9.52 20.19-27.88 53.04-53.55 71.57-34.32 24.77-80.02 38.01-117.29 45.07"/>
            <path d="m5094.92 376.5-10.46-1.7 9.24-5.19z"/>
        </g>
        <g stroke="#000" class="edge">
            <path fill="none" d="M5270.24 256.18c-3.35 19.35-11.21 50.84-28.71 71.82-41.55 49.83-64.6 54.2-127 72-192.48 54.9-700.92 15.18-900 36-10.59 1.11-21.76 2.64-32.65 4.34"/>
            <path d="m4182.61 443.77-10.43-1.86 9.31-5.05z"/>
        </g>
    </g>
</svg>
