<svg xmlns="http://www.w3.org/2000/svg" width="1433pt" height="188pt" viewBox="0 0 1432.56 188">
    <g class="graph">
        <path fill="#fff" d="M0 188V0h1432.56v188z"/>
        <g class="node" transform="translate(4 184)">
            <ellipse cx="582.57" cy="-162" fill="none" stroke="#000" rx="86.15" ry="18"/>
            <text x="582.57" y="-156.95" font-family="Times,serif" font-size="14" text-anchor="middle">:app:feature:account</text>
        </g>
        <g class="node" transform="translate(4 184)">
            <ellipse cx="162.57" cy="-90" fill="none" stroke="#000" rx="101" ry="18"/>
            <text x="162.57" y="-84.95" font-family="Times,serif" font-size="14" text-anchor="middle">:app:core:design-system</text>
        </g>
        <g stroke="red" stroke-width="2" class="edge">
            <path fill="none" d="M520.95 33.94C447.68 46.15 328.97 65.93 249.38 79.2"/>
            <path fill="red" d="m251.84 82.34-10.44-1.81 9.29-5.1z"/>
        </g>
        <g class="node" transform="translate(4 184)">
            <ellipse cx="640.57" cy="-90" fill="none" stroke="#000" rx="86.67" ry="18"/>
            <text x="640.57" y="-84.95" font-family="Times,serif" font-size="14" text-anchor="middle">:app:core:navigation</text>
        </g>
        <g stroke="#000" class="edge">
            <path fill="none" d="M600.61 39.95c6.84 8.25 15.21 18.35 22.8 27.51"/>
            <path d="m626.01 65.11 3.69 9.94-9.08-5.47z"/>
        </g>
        <g class="node" transform="translate(4 184)">
            <ellipse cx="82.57" cy="-18" fill="none" stroke="#000" rx="82.57" ry="18"/>
            <text x="82.57" y="-12.95" font-family="Times,serif" font-size="14" text-anchor="middle">:app:core:resources</text>
        </g>
        <g stroke="#000" class="edge">
            <path fill="none" d="M501.56 25.37C359.35 30.23 85.81 43.69 56.57 76c-15.72 17.38-4.34 43.29 8.68 62.68"/>
            <path d="m67.98 136.49 2.99 10.16-8.67-6.08z"/>
        </g>
        <g class="node" transform="translate(4 184)">
            <ellipse cx="291.57" cy="-18" fill="none" stroke="#000" rx="59.54" ry="18"/>
            <text x="291.57" y="-12.95" font-family="Times,serif" font-size="14" text-anchor="middle">:library:color</text>
        </g>
        <g stroke="#000" class="edge">
            <path fill="none" d="M506.4 28.94C436.19 35.82 341.3 49.75 314.57 76c-15.77 15.5-19.98 40.65-20.55 60.27"/>
            <path d="m297.52 136.11-3.46 10.01-3.54-9.99z"/>
        </g>
        <g class="node" transform="translate(4 184)">
            <ellipse cx="838.57" cy="-18" fill="none" stroke="#000" rx="62.1" ry="18"/>
            <text x="838.57" y="-12.95" font-family="Times,serif" font-size="14" text-anchor="middle">:library:kotlin</text>
        </g>
        <g stroke="#000" class="edge">
            <path fill="none" d="M672.1 24.55c87.38 3.6 214.51 15.14 245.47 51.45 10.38 12.18 7.36 21.79 0 36-7.01 13.54-19.25 24.36-31.83 32.6"/>
            <path d="m887.8 147.45-10.37 2.17 6.75-8.16z"/>
        </g>
        <g class="node" transform="translate(4 184)">
            <ellipse cx="824.57" cy="-90" fill="none" stroke="#000" rx="79.5" ry="18"/>
            <text x="824.57" y="-84.95" font-family="Times,serif" font-size="14" text-anchor="middle">:library:navigation</text>
        </g>
        <g stroke="#000" class="edge">
            <path fill="none" d="M635.54 37.17c38.84 11.23 93.25 26.97 134.41 38.87"/>
            <path d="m770.82 72.65 8.64 6.14-10.58.59z"/>
        </g>
        <g class="node" transform="translate(4 184)">
            <ellipse cx="1345.57" cy="-18" fill="none" stroke="#000" rx="78.99" ry="18"/>
            <text x="1345.57" y="-12.95" font-family="Times,serif" font-size="14" text-anchor="middle">:library:coroutines</text>
        </g>
        <g stroke="#000" class="edge">
            <path fill="none" d="M672.81 22.37c112.14 1.15 313.25 9.96 478.76 53.63 58.37 15.4 121.22 46.38 160.09 67.4"/>
            <path d="m1313.06 140.18 7.09 7.88-10.45-1.74z"/>
        </g>
        <g class="node" transform="translate(4 184)">
            <ellipse cx="640.57" cy="-18" fill="none" stroke="#000" rx="72.85" ry="18"/>
            <text x="640.57" y="-12.95" font-family="Times,serif" font-size="14" text-anchor="middle">:library:datetime</text>
        </g>
        <g stroke="#000" class="edge">
            <path fill="none" d="M569.95 40.03C554.1 58.42 534.57 88.27 548.57 112c9.09 15.4 24.43 26.63 40.22 34.69"/>
            <path d="m590.21 143.49 7.58 7.4-10.54-1.06z"/>
        </g>
        <g class="node" transform="translate(4 184)">
            <ellipse cx="408.57" cy="-90" fill="none" stroke="#000" rx="89.23" ry="18"/>
            <text x="408.57" y="-84.95" font-family="Times,serif" font-size="14" text-anchor="middle">:library:shimmer-m3</text>
        </g>
        <g stroke="#000" class="edge">
            <path fill="none" d="M547.96 38.54c-25.37 10.2-58.79 23.64-86.07 34.62"/>
            <path d="m463.37 76.34-10.59.48 7.98-6.98z"/>
        </g>
        <g class="node" transform="translate(4 184)">
            <ellipse cx="1049.57" cy="-90" fill="none" stroke="#000" rx="88.71" ry="18"/>
            <text x="1049.57" y="-84.95" font-family="Times,serif" font-size="14" text-anchor="middle">:app:domain:account</text>
        </g>
        <g stroke="#000" class="edge">
            <path fill="none" d="M656.75 32.82C730.1 43.17 848.5 60.15 950.57 76c8.16 1.27 16.67 2.62 25.16 3.99"/>
            <path d="m976.03 76.49 9.31 5.06-10.43 1.85z"/>
        </g>
        <g stroke="red" stroke-width="2" class="edge">
            <path fill="none" d="M147.21 111.95c-9.93 8.68-22.19 19.41-33.08 28.94"/>
            <path fill="red" d="m117.87 142.27-9.83 3.95 5.22-9.22z"/>
        </g>
        <g stroke="#000" class="edge">
            <path fill="none" d="M197.14 111.59c18.07 9.8 41.09 22.29 60.33 32.73"/>
            <path d="m258.97 141.16 7.12 7.84-10.45-1.69z"/>
        </g>
        <g stroke="#000" class="edge">
            <path fill="none" d="M242.84 106.17c90.4 13.24 239.95 35.14 328.84 48.16"/>
            <path d="m572.13 150.85 9.38 4.92-10.4 2.01z"/>
        </g>
        <g stroke="#000" class="edge">
            <path fill="none" d="M644.57 112.3v24.16"/>
            <path d="m648.07 136.38-3.5 10-3.5-10z"/>
        </g>
        <g stroke="#000" class="edge">
            <path fill="none" d="M789.1 110.02c-27.93 10.62-65.58 24.95-95.45 36.31"/>
            <path d="m695.04 149.55-10.59.28 8.1-6.83z"/>
        </g>
        <g stroke="#000" class="edge">
            <path fill="none" d="M384.84 111.59c-16.04 9.6-36.4 21.78-53.62 32.08"/>
            <path d="m333.17 146.58-10.37 2.13 6.78-8.14z"/>
        </g>
        <g stroke="#000" class="edge">
            <path fill="none" d="M1008.57 109.93c-34.01 11.28-80.67 26.76-115.87 38.44"/>
            <path d="m894.21 151.56-10.6-.18 8.39-6.47z"/>
        </g>
        <g stroke="#000" class="edge">
            <path fill="none" d="M1109.94 108.33c50.01 11.83 123.03 29.09 175.3 41.46"/>
            <path d="m1286 146.37 8.92 5.71-10.53 1.1z"/>
        </g>
        <g stroke="#000" class="edge">
            <path fill="none" d="M987.4 106.32c-74.99 12.84-196.69 33.67-273.12 46.75"/>
            <path d="m715.28 156.45-10.44-1.76 9.26-5.14z"/>
        </g>
        <g class="node" transform="translate(4 184)">
            <ellipse cx="1177.57" cy="-18" fill="none" stroke="#000" rx="71.31" ry="18"/>
            <text x="1177.57" y="-12.95" font-family="Times,serif" font-size="14" text-anchor="middle">:app:core:model</text>
        </g>
        <g stroke="#000" class="edge">
            <path fill="none" d="M1083.58 111.41c17.67 9.66 40.19 21.98 59.2 32.37"/>
            <path d="m1144.21 140.58 7.09 7.87-10.45-1.73z"/>
        </g>
        <g class="node" transform="translate(4 184)">
            <ellipse cx="1003.57" cy="-18" fill="none" stroke="#000" rx="85.13" ry="18"/>
            <text x="1003.57" y="-12.95" font-family="Times,serif" font-size="14" text-anchor="middle">:common:exception</text>
        </g>
        <g stroke="#000" class="edge">
            <path fill="none" d="M1042.2 112.3c-5.18 7.89-11.43 17.4-17.18 26.15"/>
            <path d="m1028.06 140.2-8.42 6.43 2.57-10.28z"/>
        </g>
    </g>
</svg>
