<svg xmlns="http://www.w3.org/2000/svg" width="547pt" height="188pt" viewBox="0 0 547.13 188">
    <g class="graph">
        <path fill="#fff" d="M0 188V0h547.13v188z"/>
        <g class="node" transform="translate(4 184)">
            <ellipse cx="300" cy="-162" fill="none" stroke="#000" rx="92.3" ry="18"/>
            <text x="300" y="-156.95" font-family="Times,serif" font-size="14" text-anchor="middle">:server:domain:buddy</text>
        </g>
        <g class="node" transform="translate(4 184)">
            <ellipse cx="270" cy="-18" fill="none" stroke="#000" rx="80.52" ry="18"/>
            <text x="270" y="-12.95" font-family="Times,serif" font-size="14" text-anchor="middle">:server:core:model</text>
        </g>
        <g stroke="#000" class="edge">
            <path fill="none" d="M358.66 36.81C378.69 44.8 399.3 57.15 411 76c8.44 13.59 9.05 22.8 0 36-13.75 20.07-36.28 32.54-59.13 40.29"/>
            <path d="m353.05 155.58-10.58-.4 8.53-6.29z"/>
        </g>
        <g class="node" transform="translate(4 184)">
            <ellipse cx="454" cy="-18" fill="none" stroke="#000" rx="85.13" ry="18"/>
            <text x="454" y="-12.95" font-family="Times,serif" font-size="14" text-anchor="middle">:common:exception</text>
        </g>
        <g stroke="#000" class="edge">
            <path fill="none" d="M361.62 36.49C384.94 44.53 410.44 57 428 76c15.4 16.66 22.92 41.5 26.58 60.7"/>
            <path d="m457.99 135.88-1.84 10.44-5.07-9.31z"/>
        </g>
        <g class="node" transform="translate(4 184)">
            <ellipse cx="100" cy="-18" fill="none" stroke="#000" rx="62.1" ry="18"/>
            <text x="100" y="-12.95" font-family="Times,serif" font-size="14" text-anchor="middle">:library:kotlin</text>
        </g>
        <g stroke="#000" class="edge">
            <path fill="none" d="M214.79 26.91C138.35 32.35 36.64 45.3 11 76 .74 88.28 2.96 98.17 11 112c9.28 15.97 25.37 27.52 41.58 35.69"/>
            <path d="m53.66 144.33 7.6 7.38-10.55-1.03z"/>
        </g>
        <g class="node" transform="translate(4 184)">
            <ellipse cx="100" cy="-90" fill="none" stroke="#000" rx="84.11" ry="18"/>
            <text x="100" y="-84.95" font-family="Times,serif" font-size="14" text-anchor="middle">:server:domain:fcm</text>
        </g>
        <g stroke="red" stroke-width="2" class="edge">
            <path fill="none" d="M260.6 38.19c-30.34 10.62-71.06 24.87-103.37 36.18"/>
            <path fill="red" d="M160.08 77.08h-10.6l8.28-6.61z"/>
        </g>
        <g class="node" transform="translate(4 184)">
            <ellipse cx="300" cy="-90" fill="none" stroke="#000" rx="97.93" ry="18"/>
            <text x="300" y="-84.95" font-family="Times,serif" font-size="14" text-anchor="middle">:server:domain:account</text>
        </g>
        <g stroke="#000" class="edge">
            <path fill="none" d="M304 40.3v24.16"/>
            <path d="m307.5 64.38-3.5 10-3.5-10z"/>
        </g>
        <g stroke="red" stroke-width="2" class="edge">
            <path fill="none" d="M141.73 110.54c24.96 10.27 57.88 23.83 84.64 34.85"/>
            <path fill="red" d="m225.96 141.43 7.91 7.05-10.58-.58z"/>
        </g>
        <g stroke="#000" class="edge">
            <path fill="none" d="M164.05 106.87c61.44 12.15 156.92 31.03 222.28 43.96"/>
            <path d="m386.74 147.34 9.13 5.37-10.49 1.5z"/>
        </g>
        <g stroke="#000" class="edge">
            <path fill="none" d="M104 112.3v24.16"/>
            <path d="m107.5 136.38-3.5 10-3.5-10z"/>
        </g>
        <g stroke="#000" class="edge">
            <path fill="none" d="M296.58 112.3c-3.23 7.55-7.1 16.58-10.72 25.02"/>
            <path d="m289.08 138.69-7.15 7.81.72-10.57z"/>
        </g>
        <g stroke="#000" class="edge">
            <path fill="none" d="M339.72 111.24c21.8 9.91 49.88 22.67 73.21 33.27"/>
            <path d="m414.24 141.26 7.65 7.33-10.55-.95z"/>
        </g>
        <g stroke="#000" class="edge">
            <path fill="none" d="M260.11 110.36c-31.61 11.07-74.29 26-107.03 37.46"/>
            <path d="M154.41 151.06h-10.59l8.28-6.6z"/>
        </g>
    </g>
</svg>
