<svg xmlns="http://www.w3.org/2000/svg" width="1856pt" height="260pt" viewBox="0 0 1855.82 260">
    <g class="graph">
        <path fill="#fff" d="M0 260V0h1855.82v260z"/>
        <g class="node" transform="translate(4 256)">
            <ellipse cx="975.13" cy="-234" fill="none" stroke="#000" rx="51.86" ry="18"/>
            <text x="975.13" y="-228.95" font-family="Times,serif" font-size="14" text-anchor="middle">:server:app</text>
        </g>
        <g class="node" transform="translate(4 256)">
            <ellipse cx="307.13" cy="-90" fill="none" stroke="#000" rx="88.71" ry="18"/>
            <text x="307.13" y="-84.95" font-family="Times,serif" font-size="14" text-anchor="middle">:server:core:database</text>
        </g>
        <g stroke="#000" class="edge">
            <path fill="none" d="M927.08 22.64c-163.37-.6-657.96 1.89-705.95 53.36-10.91 11.7-7.94 22.11 0 36 8.12 14.2 21.68 24.97 35.85 32.97"/>
            <path d="m258.22 141.67 7.27 7.7-10.49-1.49z"/>
        </g>
        <g class="node" transform="translate(4 256)">
            <ellipse cx="85.13" cy="-162" fill="none" stroke="#000" rx="85.13" ry="18"/>
            <text x="85.13" y="-156.95" font-family="Times,serif" font-size="14" text-anchor="middle">:server:data:account</text>
        </g>
        <g stroke="red" stroke-width="2" class="edge">
            <path fill="none" d="M927.6 24.61C801.21 28.96 465.91 42.93 188.13 76c-8.31.99-16.98 2.2-25.58 3.53"/>
            <path fill="red" d="m164.72 82.72-10.43-1.88 9.33-5.03z"/>
        </g>
        <g class="node" transform="translate(4 256)">
            <ellipse cx="307.13" cy="-162" fill="none" stroke="#000" rx="80.52" ry="18"/>
            <text x="307.13" y="-156.95" font-family="Times,serif" font-size="14" text-anchor="middle">:server:data:memo</text>
        </g>
        <g stroke="#000" class="edge">
            <path fill="none" d="M928.21 25.99C827.16 32.28 594.29 48.64 400.13 76c-6.49.91-13.22 1.98-19.94 3.13"/>
            <path d="m380.87 82.56-10.46-1.71 9.24-5.18z"/>
        </g>
        <g class="node" transform="translate(4 256)">
            <ellipse cx="473.13" cy="-162" fill="none" stroke="#000" rx="67.73" ry="18"/>
            <text x="473.13" y="-156.95" font-family="Times,serif" font-size="14" text-anchor="middle">:server:data:tag</text>
        </g>
        <g stroke="#000" class="edge">
            <path fill="none" d="M929.51 27.67C849.96 35.5 689.14 52.73 554.13 76c-5.29.91-10.76 1.94-16.24 3.03"/>
            <path d="m538.68 82.44-10.5-1.4 9.09-5.45z"/>
        </g>
        <g class="node" transform="translate(4 256)">
            <ellipse cx="630.13" cy="-162" fill="none" stroke="#000" rx="71.31" ry="18"/>
            <text x="630.13" y="-156.95" font-family="Times,serif" font-size="14" text-anchor="middle">:server:data:fcm</text>
        </g>
        <g stroke="#000" class="edge">
            <path fill="none" d="M935.09 31.94C875.46 44.03 768.6 65.72 699.57 79.72"/>
            <path d="m700.39 83.13-10.5-1.44 9.11-5.42z"/>
        </g>
        <g class="node" transform="translate(4 256)">
            <ellipse cx="588.13" cy="-90" fill="none" stroke="#000" rx="97.93" ry="18"/>
            <text x="588.13" y="-84.95" font-family="Times,serif" font-size="14" text-anchor="middle">:server:domain:account</text>
        </g>
        <g stroke="#000" class="edge">
            <path fill="none" d="M929.1 27.08C881.24 32.69 808.25 45.78 752.13 76c-20.48 11.03-18.59 23.17-38 36-20.27 13.4-44.49 24.74-65.98 33.45"/>
            <path d="m649.51 148.67-10.59.41 8.03-6.92z"/>
        </g>
        <g class="node" transform="translate(4 256)">
            <ellipse cx="873.13" cy="-90" fill="none" stroke="#000" rx="93.32" ry="18"/>
            <text x="873.13" y="-84.95" font-family="Times,serif" font-size="14" text-anchor="middle">:server:domain:memo</text>
        </g>
        <g stroke="#000" class="edge">
            <path fill="none" d="M979.28 40.27c-.65 19.16-4.2 50.18-19.15 71.73-9.02 13-22.36 23.53-35.72 31.67"/>
            <path d="m926.47 146.52-10.42 1.91 6.96-7.99z"/>
        </g>
        <g class="node" transform="translate(4 256)">
            <ellipse cx="1065.13" cy="-90" fill="none" stroke="#000" rx="80.52" ry="18"/>
            <text x="1065.13" y="-84.95" font-family="Times,serif" font-size="14" text-anchor="middle">:server:domain:tag</text>
        </g>
        <g stroke="#000" class="edge">
            <path fill="none" d="M1028.69 27.96c57.99 6.94 148.76 21.76 169.44 48.04 9.89 12.57 8.91 22.71 0 36-12.68 18.93-33.47 31.1-54.7 38.93"/>
            <path d="m1144.71 154.19-10.6-.14 8.37-6.49z"/>
        </g>
        <g class="node" transform="translate(4 256)">
            <ellipse cx="1286.13" cy="-90" fill="none" stroke="#000" rx="84.11" ry="18"/>
            <text x="1286.13" y="-84.95" font-family="Times,serif" font-size="14" text-anchor="middle">:server:domain:fcm</text>
        </g>
        <g stroke="#000" class="edge">
            <path fill="none" d="M1030.43 25.56c108.82 5.95 354.88 22.38 379.7 50.44 10.6 11.98 8.73 22.59 0 36-11.38 17.47-29.97 29.22-49.15 37.11"/>
            <path d="m1362.31 152.35-10.59.23 8.14-6.78z"/>
        </g>
        <g class="node" transform="translate(4 256)">
            <ellipse cx="1760.13" cy="-162" fill="none" stroke="#000" rx="87.69" ry="18"/>
            <text x="1760.13" y="-156.95" font-family="Times,serif" font-size="14" text-anchor="middle">:server:feature:home</text>
        </g>
        <g stroke="#000" class="edge">
            <path fill="none" d="M1030.3 25.21c114.59 5.32 400.39 20.71 637.83 50.79 7.19.91 14.67 1.99 22.12 3.16"/>
            <path d="m1690.72 75.69 9.31 5.06-10.43 1.85z"/>
        </g>
        <g class="node" transform="translate(4 256)">
            <ellipse cx="852.13" cy="-162" fill="none" stroke="#000" rx="95.37" ry="18"/>
            <text x="852.13" y="-156.95" font-family="Times,serif" font-size="14" text-anchor="middle">:server:feature:account</text>
        </g>
        <g stroke="#000" class="edge">
            <path fill="none" d="M953.05 37.85c-16.86 9.59-39.1 22.25-58.03 33.02"/>
            <path d="m896.93 73.81-10.42 1.9 6.96-7.99z"/>
        </g>
        <g class="node" transform="translate(4 256)">
            <ellipse cx="1094.13" cy="-162" fill="none" stroke="#000" rx="90.76" ry="18"/>
            <text x="1094.13" y="-156.95" font-family="Times,serif" font-size="14" text-anchor="middle">:server:feature:memo</text>
        </g>
        <g stroke="#000" class="edge">
            <path fill="none" d="M1004.66 38.02c16.25 9.56 37.58 22.1 55.76 32.8"/>
            <path d="m1062 67.69 6.84 8.08-10.39-2.05z"/>
        </g>
        <g class="node" transform="translate(4 256)">
            <ellipse cx="1319.13" cy="-162" fill="none" stroke="#000" rx="77.97" ry="18"/>
            <text x="1319.13" y="-156.95" font-family="Times,serif" font-size="14" text-anchor="middle">:server:feature:tag</text>
        </g>
        <g stroke="#000" class="edge">
            <path fill="none" d="M1023.05 31.94c58.59 11.92 162.94 33.15 231.83 47.17"/>
            <path d="m1255.46 75.66 9.1 5.42-10.5 1.44z"/>
        </g>
        <g class="node" transform="translate(4 256)">
            <ellipse cx="1573.13" cy="-162" fill="none" stroke="#000" rx="81.55" ry="18"/>
            <text x="1573.13" y="-156.95" font-family="Times,serif" font-size="14" text-anchor="middle">:server:feature:fcm</text>
        </g>
        <g stroke="#000" class="edge">
            <path fill="none" d="M1029.15 27.11c90.44 7.7 287.1 25.62 451.98 48.89 7.89 1.11 16.13 2.39 24.32 3.74"/>
            <path d="m1505.78 76.25 9.28 5.11-10.45 1.79z"/>
        </g>
        <g class="node" transform="translate(4 256)">
            <ellipse cx="1575.13" cy="-90" fill="none" stroke="#000" rx="72.85" ry="18"/>
            <text x="1575.13" y="-84.95" font-family="Times,serif" font-size="14" text-anchor="middle">:common:model</text>
        </g>
        <g stroke="#000" class="edge">
            <path fill="none" d="M1029.98 26.21c101.49 6.86 325.63 24.42 398.15 49.79 28.64 10.02 31.93 20.49 58 36 17.72 10.54 37.56 21.91 54.34 31.4"/>
            <path d="m1542.17 140.34 6.99 7.95-10.43-1.86z"/>
        </g>
        <g class="node" transform="translate(4 256)">
            <ellipse cx="733.13" cy="-18" fill="none" stroke="#000" rx="80.52" ry="18"/>
            <text x="733.13" y="-12.95" font-family="Times,serif" font-size="14" text-anchor="middle">:server:core:model</text>
        </g>
        <g stroke="red" stroke-width="2" class="edge">
            <path fill="none" d="m378.45 178.12 35.68 5.88c85.21 14.02 183.07 30.07 248.54 40.8"/>
            <path fill="red" d="m661.4 221.05 9.31 5.07-10.44 1.84z"/>
        </g>
        <g stroke="red" stroke-width="2" class="edge">
            <path fill="none" d="M135.13 109.5c34.45 10.87 81.79 25.79 118.69 37.43"/>
            <path fill="red" d="m253.06 143.02 8.48 6.34-10.59.33z"/>
        </g>
        <g stroke="#000" class="edge">
            <path fill="none" d="M158.81 104.7c90.16 12.54 247.29 34.41 345.51 48.08"/>
            <path d="m504.79 149.31 9.42 4.85-10.39 2.08z"/>
        </g>
        <g stroke="#000" class="edge">
            <path fill="none" d="M104.43 111.91c20.11 20.98 57.63 55.95 97.7 72.09 78.34 31.56 313.29 44.98 444.27 50.14"/>
            <path d="m646.21 230.63 9.86 3.89-10.13 3.11z"/>
        </g>
        <g stroke="#000" class="edge">
            <path fill="none" d="M311.13 112.3v24.16"/>
            <path d="m314.63 136.38-3.5 10-3.5-10z"/>
        </g>
        <g stroke="#000" class="edge">
            <path fill="none" d="M369.43 106.81c10.21 1.88 20.75 3.69 30.7 5.19 71.86 10.84 267.27 31.52 384.49 43.59"/>
            <path d="m784.96 152.11 9.59 4.5-10.3 2.46z"/>
        </g>
        <g stroke="#000" class="edge">
            <path fill="none" d="M263.26 108.89c-19.07 8.14-39.09 20.58-50.13 39.11-8.19 13.74-10.73 24.13 0 36 28.43 31.45 290.73 45.15 433.09 50.31"/>
            <path d="m646.13 230.8 9.87 3.86-10.12 3.14z"/>
        </g>
        <g stroke="#000" class="edge">
            <path fill="none" d="M441.93 109.85a184358 184358 0 0 0-83.05 35.02"/>
            <path d="m360.27 148.08-10.57.66 7.85-7.11z"/>
        </g>
        <g stroke="#000" class="edge">
            <path fill="none" d="M525.83 106.77c9.35 1.98 19.1 3.83 28.3 5.23 187.41 28.5 237.18 10.37 425 36 6.74.92 13.75 2.01 20.74 3.18"/>
            <path d="m1000.43 147.73 9.26 5.16-10.46 1.73z"/>
        </g>
        <g stroke="#000" class="edge">
            <path fill="none" d="M470.2 112.19c-6.67 19.66-13.54 51.71 2.93 71.81 22.1 26.98 108.11 40.51 176.03 47.11"/>
            <path d="m649.18 227.6 9.63 4.41-10.28 2.56z"/>
        </g>
        <g stroke="#000" class="edge">
            <path fill="none" d="M581.16 106.48c-54.59 11.83-139.97 30.33-200.08 43.36"/>
            <path d="m382.15 153.19-10.51-1.3 9.03-5.54z"/>
        </g>
        <g stroke="#000" class="edge">
            <path fill="none" d="M693.77 104.24c18.66 2.72 39.34 5.55 58.36 7.76 180.38 20.96 226.48 16.31 407 36 16.3 1.78 33.72 3.89 50.35 6.01"/>
            <path d="m1209.88 150.53 9.47 4.75-10.37 2.19z"/>
        </g>
        <g stroke="#000" class="edge">
            <path fill="none" d="M579.65 105.99c-54.46 13.44-125.94 39.29-94.52 78.01 20.7 25.5 100.65 39.19 165.02 46.22"/>
            <path d="m650.47 226.74 9.58 4.52-10.31 2.44z"/>
        </g>
        <g stroke="#000" class="edge">
            <path fill="none" d="M625.76 183.24c20.42 9.85 46.68 22.53 68.57 33.1"/>
            <path d="m695.83 213.18 7.49 7.5-10.53-1.2z"/>
        </g>
        <g class="node" transform="translate(4 256)">
            <ellipse cx="1398.13" cy="-18" fill="none" stroke="#000" rx="85.13" ry="18"/>
            <text x="1398.13" y="-12.95" font-family="Times,serif" font-size="14" text-anchor="middle">:common:exception</text>
        </g>
        <g stroke="#000" class="edge">
            <path fill="none" d="M677.77 175.1c30.7 2.87 65.58 6.08 97.36 8.9 191.33 16.97 415.61 35.63 537.33 45.66"/>
            <path d="m1312.73 226.17 9.68 4.3-10.26 2.67z"/>
        </g>
        <g class="node" transform="translate(4 256)">
            <ellipse cx="989.13" cy="-18" fill="none" stroke="#000" rx="62.1" ry="18"/>
            <text x="989.13" y="-12.95" font-family="Times,serif" font-size="14" text-anchor="middle">:library:kotlin</text>
        </g>
        <g stroke="#000" class="edge">
            <path fill="none" d="M661.52 179.11c75.43 13.17 194.95 34.03 268.02 46.79"/>
            <path d="m930.12 222.45 9.25 5.16-10.46 1.73z"/>
        </g>
        <g stroke="#000" class="edge">
            <path fill="none" d="M844.66 183.24c-19.49 9.74-44.48 22.24-65.47 32.73"/>
            <path d="m780.81 219.08-10.51 1.34 7.38-7.61z"/>
        </g>
        <g stroke="#000" class="edge">
            <path fill="none" d="M945.1 178.72c11.35 1.85 23.02 3.67 34.03 5.28 116.87 17.05 252.41 33.44 337.93 43.37"/>
            <path d="m1317.23 223.86 9.54 4.63-10.34 2.33z"/>
        </g>
        <g stroke="#000" class="edge">
            <path fill="none" d="M904.62 183.59c15.79 9.53 35.81 21.61 52.81 31.86"/>
            <path d="m958.98 212.31 6.76 8.16-10.37-2.17z"/>
        </g>
        <g stroke="#000" class="edge">
            <path fill="none" d="M1012.06 179.03c-57.34 12.09-145.71 30.73-206.71 43.59"/>
            <path d="m806.28 226-10.51-1.36 9.07-5.49z"/>
        </g>
        <g stroke="#000" class="edge">
            <path fill="none" d="M1126.38 179.03c57.07 12 144.8 30.44 205.93 43.29"/>
            <path d="m1332.85 218.86 9.07 5.48-10.51 1.37z"/>
        </g>
        <g stroke="#000" class="edge">
            <path fill="none" d="M1050.73 183.95c-9.4 8.66-21.01 19.35-31.34 28.86"/>
            <path d="m1021.94 215.23-9.73 4.2 4.98-9.35z"/>
        </g>
        <g stroke="#000" class="edge">
            <path fill="none" d="M1227.48 178.4c-11.73 1.99-23.9 3.94-35.35 5.6-129.25 18.72-279.92 35.24-371.33 44.67"/>
            <path d="m821.21 232.14-10.31-2.46 9.59-4.5z"/>
        </g>
        <g stroke="#000" class="edge">
            <path fill="none" d="m1316.39 183.41 49.59 31"/>
            <path d="m1367.74 211.38 6.62 8.27-10.33-2.34z"/>
        </g>
        <g stroke="#000" class="edge">
            <path fill="none" d="M1234.96 180c-52.31 12.33-130.6 30.78-183.82 43.33"/>
            <path d="m1052.19 226.68-10.54-1.12 8.93-5.7z"/>
        </g>
        <g stroke="#000" class="edge">
            <path fill="none" d="m1723.53 110.36-95.22 36.03"/>
            <path d="m1629.74 149.59-10.59.27 8.12-6.82z"/>
        </g>
        <g stroke="#000" class="edge">
            <path fill="none" d="M1753.72 112.16c-13.96 21.25-40.96 56.5-74.59 71.84-76.61 34.95-673 30.15-757 36-33.39 2.33-70.1 5.56-101.96 8.58"/>
            <path d="m820.91 232.03-10.29-2.53 9.62-4.44z"/>
        </g>
        <g stroke="#000" class="edge">
            <path fill="none" d="M1771.81 112.35c7.45 19.8 15.36 51.99-1.68 71.65-34.45 39.77-174.29 50.38-271.3 52.84"/>
            <path d="m1499.1 240.34-10.07-3.28 9.92-3.72z"/>
        </g>
        <g stroke="#000" class="edge">
            <path fill="none" d="M802.39 109.25c-41.97 11.13-100.47 26.64-145.11 38.47"/>
            <path d="m658.28 151.08-10.57-.82 8.77-5.94z"/>
        </g>
        <g stroke="#000" class="edge">
            <path fill="none" d="M933.83 104.77c20.87 2.5 43.43 5.08 64.3 7.23 185.49 19.09 232.37 18.33 418 36 28.01 2.67 58.69 5.81 85.81 8.66"/>
            <path d="m1502.25 153.17 9.58 4.54-10.32 2.43z"/>
        </g>
        <g stroke="#000" class="edge">
            <path fill="none" d="M797.66 108.65c-20.97 7.94-42.61 20.29-55.53 39.35-11.83 17.44-12.49 41.51-10.51 60.22"/>
            <path d="M735.08 207.73 733 218.12l-4.85-9.42z"/>
        </g>
        <g stroke="#000" class="edge">
            <path fill="none" d="M934.21 104.72c20.76 2.48 43.18 5.07 63.92 7.28 42.72 4.55 352.89 7.45 385 36 16.7 14.85 20.75 40.46 21.02 60.41"/>
            <path d="m1407.66 208.22-3.7 9.93-3.3-10.07z"/>
        </g>
        <g stroke="#000" class="edge">
            <path fill="none" d="M1051.26 109.85c-33.87 10.72-79.85 25.29-116.05 36.75"/>
            <path d="m936.35 149.92-10.6-.32 8.48-6.36z"/>
        </g>
        <g stroke="#000" class="edge">
            <path fill="none" d="M1169.62 105.4c90.48 13.17 245.48 35.73 336.61 48.99"/>
            <path d="m1506.68 150.92 9.39 4.9-10.4 2.03z"/>
        </g>
        <g stroke="#000" class="edge">
            <path fill="none" d="M1025.31 105.14C933.1 118.25 784.94 140.31 775.13 148c-18.79 14.73-28.43 40.53-33.28 60.58"/>
            <path d="m745.32 209.05-5.5 9.05-1.34-10.51z"/>
        </g>
        <g stroke="#000" class="edge">
            <path fill="none" d="M1171.9 104.86c91.45 12.58 236.34 33.82 244.23 43.14 14.27 16.84 8.55 42.15.55 61.48"/>
            <path d="m1419.94 210.77-7.33 7.64.96-10.55z"/>
        </g>
        <g stroke="#000" class="edge">
            <path fill="none" d="M1274.46 108.41c-41.3 11.39-100.73 27.76-145.04 39.97"/>
            <path d="m1130.53 151.71-10.57-.72 8.72-6.03z"/>
        </g>
        <g stroke="#000" class="edge">
            <path fill="none" d="M1372.19 108.41c42.29 11.57 103.45 28.29 148.32 40.56"/>
            <path d="m1521.36 145.57 8.72 6.02-10.57.74z"/>
        </g>
        <g stroke="#000" class="edge">
            <path fill="none" d="M1278.91 109.15c-25.09 9.1-56.44 22.31-81.78 38.85-19.48 12.72-16.97 26.06-38 36-29.8 14.09-223.32 34.31-337.68 45.25"/>
            <path d="m822.09 232.71-10.29-2.54 9.62-4.43z"/>
        </g>
        <g stroke="#000" class="edge">
            <path fill="none" d="M1386.27 104.82c25.51 7.4 52.5 20.4 67.86 43.18 14.23 21.1-3.4 46.23-21.88 64.39"/>
            <path d="m1434.63 214.95-9.71 4.23 4.96-9.36z"/>
        </g>
        <g stroke="#000" class="edge">
            <path fill="none" d="M1523.82 108c-47.72 11.64-117.83 28.74-168.8 41.17"/>
            <path d="m1356.14 152.5-10.54-1.03 8.89-5.77z"/>
        </g>
        <g stroke="#000" class="edge">
            <path fill="none" d="M1577.63 112.3c.2 7.29.45 15.97.69 24.16"/>
            <path d="m1581.81 136.29-3.21 10.09-3.79-9.89z"/>
        </g>
        <g stroke="#000" class="edge">
            <path fill="none" d="M1617.23 109.94c16.71 8.45 34.41 20.85 43.9 38.06 7.73 14.01 11.04 24.41 0 36-28.35 29.76-698 33.12-739 36-33.38 2.35-70.1 5.58-101.96 8.6"/>
            <path d="m820.91 232.05-10.29-2.53 9.62-4.44z"/>
        </g>
        <g stroke="#000" class="edge">
            <path fill="none" d="M1635.22 107.04c22.36 7.78 45.68 20.44 58.91 40.96 8.67 13.45 10.25 23.72 0 36-24.97 29.91-122.34 42.98-197.86 48.66"/>
            <path d="m1496.56 236.15-10.23-2.78 9.73-4.2z"/>
        </g>
    </g>
</svg>
