<svg xmlns="http://www.w3.org/2000/svg" width="6626pt" height="620pt" viewBox="0 0 6625.76 620">
    <g class="graph">
        <path fill="#fff" d="M0 620V0h6625.76v620z"/>
        <g class="node" transform="translate(4 616)">
            <ellipse cx="247.86" cy="-594" fill="none" stroke="#000" rx="74.89" ry="18"/>
            <text x="247.86" y="-588.95" font-family="Times,serif" font-size="14" text-anchor="middle">:app:platform:ios</text>
        </g>
        <g class="node" transform="translate(4 616)">
            <ellipse cx="3192.86" cy="-522" fill="none" stroke="#000" rx="97.41" ry="18"/>
            <text x="3192.86" y="-516.95" font-family="Times,serif" font-size="14" text-anchor="middle">:app:platform:common</text>
        </g>
        <g stroke="red" stroke-width="2" class="edge">
            <path fill="none" d="m326.13 24.77 2763.35 65.68"/>
            <path fill="red" d="m3087.78 86.91 9.92 3.73-10.08 3.26z"/>
        </g>
        <g class="node" transform="translate(4 616)">
            <ellipse cx="304.86" cy="-450" fill="none" stroke="#000" rx="86.15" ry="18"/>
            <text x="304.86" y="-444.95" font-family="Times,serif" font-size="14" text-anchor="middle">:app:core:coroutines</text>
        </g>
        <g stroke="#000" class="edge">
            <path fill="none" d="M258.85 40.41c9.71 24.19 27.38 68.23 38.91 96.94"/>
            <path d="m300.95 135.9.48 10.58-6.98-7.97z"/>
        </g>
        <g class="node" transform="translate(4 616)">
            <ellipse cx="1575.86" cy="-162" fill="none" stroke="#000" rx="95.88" ry="18"/>
            <text x="1575.86" y="-156.95" font-family="Times,serif" font-size="14" text-anchor="middle">:app:core:diary-service</text>
        </g>
        <g stroke="#000" class="edge">
            <path fill="none" d="M239.22 40c-22.62 32.61-64.21 104.26-25.36 144 61.81 63.22 1529.19-27.22 1591 36 44.59 45.61 50.95 78.99-58 180-21.56 19.99-50.65 32.44-78.51 40.2"/>
            <path d="m1669.36 443.55-10.56-.89 8.81-5.89z"/>
        </g>
        <g class="node" transform="translate(4 616)">
            <ellipse cx="2373.86" cy="-90" fill="none" stroke="#000" rx="104.58" ry="18"/>
            <text x="2373.86" y="-84.95" font-family="Times,serif" font-size="14" text-anchor="middle">:app:core:holiday-service</text>
        </g>
        <g stroke="#000" class="edge">
            <path fill="none" d="M228.91 39.49c-11.12 9.35-23.47 22.06-30.05 36.51-19.92 43.73-29.62 66.73-5 108 130.95 219.53 272.96 175.92 517 252 50.73 15.81 61.62 27.07 114 36 248.76 42.39 882.82 26.87 1135 36 103.74 3.75 221.94 8.62 306.12 12.18"/>
            <path d="m2266.01 516.68 9.84 3.92-10.14 3.07z"/>
        </g>
        <g stroke="#000" class="edge">
            <path fill="none" d="M3099.15 94.9C2669.7 94.75 947.33 97.4 408.86 148c-8.75.82-17.89 1.97-26.94 3.29"/>
            <path d="m382.46 154.74-10.42-1.94 9.36-4.97z"/>
        </g>
        <g stroke="#000" class="edge">
            <path fill="none" d="M3100.44 96.74c-262.69 5.12-978.22 21.64-1080.58 51.26-76.68 22.19-156 9.18-156 89v74c0 40.97 5.86 60.95-24 89-12.95 12.16-104.68 28.91-175.56 40.3"/>
            <path d="m1665.04 443.73-10.43-1.89 9.33-5.02z"/>
        </g>
        <g stroke="#000" class="edge">
            <path fill="none" d="M3099.91 96.29c-148.29 3.17-423.75 14.08-514.05 51.71-56.47 23.53-105 27.82-105 89v146c0 40.45 4.14 55.83-19 89-8.97 12.86-22.17 23.27-35.45 31.35"/>
            <path d="m2428.51 506.18-10.42 1.89 6.96-7.98z"/>
        </g>
        <g class="node" transform="translate(4 616)">
            <ellipse cx="5554.86" cy="-306" fill="none" stroke="#000" rx="81.04" ry="18"/>
            <text x="5554.86" y="-300.95" font-family="Times,serif" font-size="14" text-anchor="middle">:app:core:compose</text>
        </g>
        <g stroke="#000" class="edge">
            <path fill="none" d="M3294.4 95.06c341.82.61 1484.37 6.18 1847.46 52.94 139.86 18.01 182.59 9.51 309 72 32.59 16.11 63.98 43.79 84.44 64.01"/>
            <path d="m5537.75 281.52 4.55 9.57-9.52-4.64z"/>
        </g>
        <g class="node" transform="translate(4 616)">
            <ellipse cx="5654.86" cy="-234" fill="none" stroke="#000" rx="101" ry="18"/>
            <text x="5654.86" y="-228.95" font-family="Times,serif" font-size="14" text-anchor="middle">:app:core:design-system</text>
        </g>
        <g stroke="#000" class="edge">
            <path fill="none" d="M3293.98 95.75c466.59 3.77 2460.77 21.59 2588.88 52.25 71.53 17.12 109.91 9.7 149 72 17.59 28.04-21.6 106.8-23 108-35.43 30.21-151.53 43.22-240.4 48.82"/>
            <path d="m5768.92 380.29-10.19-2.89 9.77-4.09z"/>
        </g>
        <g class="node" transform="translate(4 616)">
            <ellipse cx="4925.86" cy="-306" fill="none" stroke="#000" rx="86.67" ry="18"/>
            <text x="4925.86" y="-300.95" font-family="Times,serif" font-size="14" text-anchor="middle">:app:core:navigation</text>
        </g>
        <g stroke="#000" class="edge">
            <path fill="none" d="M3294.19 96.01c270.64 3.25 1028.42 15.44 1274.67 51.99 124.97 18.55 165.95 8.21 275 72 27.22 15.92 51.49 42.84 67.25 62.91"/>
            <path d="m4913.74 280.58 3.28 10.08-8.85-5.83z"/>
        </g>
        <g class="node" transform="translate(4 616)">
            <ellipse cx="5856.86" cy="-162" fill="none" stroke="#000" rx="59.54" ry="18"/>
            <text x="5856.86" y="-156.95" font-family="Times,serif" font-size="14" text-anchor="middle">:library:color</text>
        </g>
        <g stroke="#000" class="edge">
            <path fill="none" d="M3294.42 95.28C3753.7 96.8 5689.26 105.7 5955.86 148c217.03 34.44 342.18-32.57 473 144 9.52 12.86 9.58 23.18 0 36-59.24 79.25-360.69 110.42-498.76 120.68"/>
            <path d="m5930.58 452.15-10.22-2.76 9.72-4.22z"/>
        </g>
        <g class="node" transform="translate(4 616)">
            <ellipse cx="5347.86" cy="-18" fill="none" stroke="#000" rx="62.1" ry="18"/>
            <text x="5347.86" y="-12.95" font-family="Times,serif" font-size="14" text-anchor="middle">:library:kotlin</text>
        </g>
        <g stroke="#000" class="edge">
            <path fill="none" d="M3294.02 95.76c476.84 3.88 2558.1 22.39 2845.84 52.24 209.73 21.76 466-121.85 466 89v218c0 24.74 86.56 19.92-149 89-98.38 28.85-801.36 46.44-1031.95 51.49"/>
            <path d="m5425.23 598.98-10.07-3.28 9.92-3.72z"/>
        </g>
        <g class="node" transform="translate(4 616)">
            <ellipse cx="5109.86" cy="-306" fill="none" stroke="#000" rx="79.5" ry="18"/>
            <text x="5109.86" y="-300.95" font-family="Times,serif" font-size="14" text-anchor="middle">:library:navigation</text>
        </g>
        <g stroke="#000" class="edge">
            <path fill="none" d="M3294.53 94.45c286.64-.99 1122.18.88 1389.33 53.55 148.46 29.27 313.17 103.65 388.41 140.15"/>
            <path d="m5073.48 284.85 7.44 7.53-10.52-1.24z"/>
        </g>
        <g class="node" transform="translate(4 616)">
            <ellipse cx="3152.86" cy="-18" fill="none" stroke="#000" rx="78.99" ry="18"/>
            <text x="3152.86" y="-12.95" font-family="Times,serif" font-size="14" text-anchor="middle">:library:coroutines</text>
        </g>
        <g stroke="#000" class="edge">
            <path fill="none" d="M3099.49 95.64C2635.14 98.88 662.83 114.54 536.86 148c-129.17 34.31-459.77 173.07-528 288-8.17 13.76-.88 20.02 0 36 1.78 32.15-15.81 50.33 8 72 57.89 52.7 2540.9 53.5 3049.54 53.1"/>
            <path d="m3066.17 593.61 10.01 3.49-10 3.51z"/>
        </g>
        <g class="node" transform="translate(4 616)">
            <ellipse cx="4529.86" cy="-18" fill="none" stroke="#000" rx="72.85" ry="18"/>
            <text x="4529.86" y="-12.95" font-family="Times,serif" font-size="14" text-anchor="middle">:library:datetime</text>
        </g>
        <g stroke="#000" class="edge">
            <path fill="none" d="M3294.08 95.73c211.59 2.33 707.89 12.05 870.78 52.27 186.51 46.06 213.08 112.64 393 180 52.94 19.82 72.25 9.15 122 36 43.57 23.51 59.97 29.28 85 72 24.47 41.76 44.39 70.33 14 108-20.59 25.52-101.84 39.36-165.2 46.43"/>
            <path d="m4614.28 593.88-10.32-2.41 9.57-4.55z"/>
        </g>
        <g class="node" transform="translate(4 616)">
            <ellipse cx="5856.86" cy="-306" fill="none" stroke="#000" rx="89.23" ry="18"/>
            <text x="5856.86" y="-300.95" font-family="Times,serif" font-size="14" text-anchor="middle">:library:shimmer-m3</text>
        </g>
        <g stroke="#000" class="edge">
            <path fill="none" d="M3294.1 95.72c462.26 3.57 2417.44 20.51 2471.76 52.28 49.64 29.03 76.07 94.99 87.64 132.86"/>
            <path d="m5856.78 279.61-.57 10.58-6.15-8.63z"/>
        </g>
        <g class="node" transform="translate(4 616)">
            <ellipse cx="2911.86" cy="-378" fill="none" stroke="#000" rx="71.31" ry="18"/>
            <text x="2911.86" y="-372.95" font-family="Times,serif" font-size="14" text-anchor="middle">:app:data:memo</text>
        </g>
        <g stroke="#000" class="edge">
            <path fill="none" d="M3122.29 105.8c-37.68 7.77-83.02 20.78-119.43 42.2-27.33 16.08-51.92 42.97-67.93 63"/>
            <path d="m2937.83 212.98-8.9 5.75 3.37-10.05z"/>
        </g>
        <g class="node" transform="translate(4 616)">
            <ellipse cx="2786.86" cy="-306" fill="none" stroke="#000" rx="58.52" ry="18"/>
            <text x="2786.86" y="-300.95" font-family="Times,serif" font-size="14" text-anchor="middle">:app:data:tag</text>
        </g>
        <g stroke="#000" class="edge">
            <path fill="none" d="M3109.71 102.31c-81.97 11.52-202.45 41.21-273.85 117.69-16.42 17.59-28.27 42.3-35.68 61.22"/>
            <path d="m2803.52 282.29-6.75 8.16.19-10.59z"/>
        </g>
        <g class="node" transform="translate(4 616)">
            <ellipse cx="2580.86" cy="-162" fill="none" stroke="#000" rx="75.92" ry="18"/>
            <text x="2580.86" y="-156.95" font-family="Times,serif" font-size="14" text-anchor="middle">:app:data:account</text>
        </g>
        <g stroke="#000" class="edge">
            <path fill="none" d="M3101.6 98.12c-154.79 5.89-447.47 20.75-484.74 49.88-33 25.79-31 47.11-31 89v74c0 39.26-.39 84.63-.68 113.31"/>
            <path d="m2588.68 424.04-3.6 9.96-3.4-10.04z"/>
        </g>
        <g class="node" transform="translate(4 616)">
            <ellipse cx="1707.86" cy="-378" fill="none" stroke="#000" rx="83.6" ry="18"/>
            <text x="1707.86" y="-372.95" font-family="Times,serif" font-size="14" text-anchor="middle">:app:data:credential</text>
        </g>
        <g stroke="#000" class="edge">
            <path fill="none" d="M3099.6 95.87c-289.31 2.99-1131.74 14.84-1249.74 52.13-42.31 13.37-84.19 43.38-110.51 64.86"/>
            <path d="m1741.79 215.37-9.92 3.72 5.44-9.09z"/>
        </g>
        <g class="node" transform="translate(4 616)">
            <ellipse cx="2373.86" cy="-162" fill="none" stroke="#000" rx="74.89" ry="18"/>
            <text x="2373.86" y="-156.95" font-family="Times,serif" font-size="14" text-anchor="middle">:app:data:holiday</text>
        </g>
        <g stroke="#000" class="edge">
            <path fill="none" d="M3101.31 97.81c-185.1 6.05-579.3 22.07-634.45 50.19-46.08 23.5-75 37.27-75 89v74c0 39.45-5.42 84.77-9.51 113.39"/>
            <path d="m2385.84 424.69-4.93 9.38-1.99-10.41z"/>
        </g>
        <g class="node" transform="translate(4 616)">
            <ellipse cx="2075.86" cy="-234" fill="none" stroke="#000" rx="73.87" ry="18"/>
            <text x="2075.86" y="-228.95" font-family="Times,serif" font-size="14" text-anchor="middle">:app:data:backup</text>
        </g>
        <g stroke="#000" class="edge">
            <path fill="none" d="M3099.1 94.16c-187.83-.44-592.01 4.59-721.24 53.84-119.84 45.67-230.24 157.24-275.88 207.6"/>
            <path d="m2104.76 357.74-9.28 5.11 4.07-9.78z"/>
        </g>
        <g class="node" transform="translate(4 616)">
            <ellipse cx="1973.86" cy="-306" fill="none" stroke="#000" rx="65.68" ry="18"/>
            <text x="1973.86" y="-300.95" font-family="Times,serif" font-size="14" text-anchor="middle">:app:data:fetch</text>
        </g>
        <g stroke="#000" class="edge">
            <path fill="none" d="M3100.16 96.85c-267.23 5.45-998.99 22.89-1042.3 51.15-46 30.01-66.56 94.83-74.92 132.42"/>
            <path d="m1986.39 281.03-5.45 9.08-1.4-10.5z"/>
        </g>
        <g class="node" transform="translate(4 616)">
            <ellipse cx="3102.86" cy="-234" fill="none" stroke="#000" rx="62.1" ry="18"/>
            <text x="3102.86" y="-228.95" font-family="Times,serif" font-size="14" text-anchor="middle">:app:data:fcm</text>
        </g>
        <g stroke="#000" class="edge">
            <path fill="none" d="M3191.37 112.46c-15.1 47.98-57.32 182.15-75.74 240.66"/>
            <path d="m3119.08 353.84-6.34 8.48-.34-10.58z"/>
        </g>
        <g class="node" transform="translate(4 616)">
            <ellipse cx="2699.86" cy="-450" fill="none" stroke="#000" rx="78.48" ry="18"/>
            <text x="2699.86" y="-444.95" font-family="Times,serif" font-size="14" text-anchor="middle">:app:data:calendar</text>
        </g>
        <g stroke="red" stroke-width="2" class="edge">
            <path fill="none" d="M3116.87 104.66c-80.27 9.94-207.41 26.33-317.01 43.34-8.05 1.25-16.46 2.63-24.82 4.05"/>
            <path fill="red" d="m2777.14 155.24-10.45-1.76 9.27-5.14z"/>
        </g>
        <g class="node" transform="translate(4 616)">
            <ellipse cx="3518.86" cy="-306" fill="none" stroke="#000" rx="84.11" ry="18"/>
            <text x="3518.86" y="-300.95" font-family="Times,serif" font-size="14" text-anchor="middle">:app:domain:memo</text>
        </g>
        <g stroke="#000" class="edge">
            <path fill="none" d="M3225.93 111.47c17.78 10.22 40.87 23.8 60.93 36.53 73.93 46.92 158.13 105.69 203.28 137.66"/>
            <path d="m3492.06 282.73 6.13 8.64-10.18-2.93z"/>
        </g>
        <g class="node" transform="translate(4 616)">
            <ellipse cx="3681.86" cy="-234" fill="none" stroke="#000" rx="71.31" ry="18"/>
            <text x="3681.86" y="-228.95" font-family="Times,serif" font-size="14" text-anchor="middle">:app:domain:tag</text>
        </g>
        <g stroke="#000" class="edge">
            <path fill="none" d="M3247.03 109.75c83.33 26.3 252.57 87.6 368.83 182.25 21.58 17.57 40.7 42.92 53.48 62.08"/>
            <path d="m3672.27 352.16 2.5 10.29-8.38-6.48z"/>
        </g>
        <g class="node" transform="translate(4 616)">
            <ellipse cx="3896.86" cy="-90" fill="none" stroke="#000" rx="88.71" ry="18"/>
            <text x="3896.86" y="-84.95" font-family="Times,serif" font-size="14" text-anchor="middle">:app:domain:account</text>
        </g>
        <g stroke="#000" class="edge">
            <path fill="none" d="M3213.35 112.23c22.35 25.24 59.51 74.72 59.51 124.77v74c0 186.68 228.04 54.77 401 125 32.78 13.31 38.39 22.27 71 36 31.33 13.18 67.18 25.55 96.61 35.01"/>
            <path d="m3842.5 503.67 8.47 6.36-10.59.31z"/>
        </g>
        <g class="node" transform="translate(4 616)">
            <ellipse cx="4268.86" cy="-306" fill="none" stroke="#000" rx="96.39" ry="18"/>
            <text x="4268.86" y="-300.95" font-family="Times,serif" font-size="14" text-anchor="middle">:app:domain:credential</text>
        </g>
        <g stroke="#000" class="edge">
            <path fill="none" d="M3293.9 96.43c222.76 3.87 757.35 16.71 830.96 51.57 61.32 29.04 109.15 95.99 132.44 133.77"/>
            <path d="m4260.28 279.93 2.15 10.37-8.15-6.77z"/>
        </g>
        <g class="node" transform="translate(4 616)">
            <ellipse cx="4471.86" cy="-90" fill="none" stroke="#000" rx="87.69" ry="18"/>
            <text x="4471.86" y="-84.95" font-family="Times,serif" font-size="14" text-anchor="middle">:app:domain:holiday</text>
        </g>
        <g stroke="#000" class="edge">
            <path fill="none" d="M3291.84 98.38c147.73 6.07 425.41 20.95 520.02 49.62 136.37 41.33 511.97 279.12 628.83 354.25"/>
            <path d="m4442.45 499.22 6.51 8.36-10.3-2.47z"/>
        </g>
        <g class="node" transform="translate(4 616)">
            <ellipse cx="3573.86" cy="-162" fill="none" stroke="#000" rx="86.67" ry="18"/>
            <text x="3573.86" y="-156.95" font-family="Times,serif" font-size="14" text-anchor="middle">:app:domain:backup</text>
        </g>
        <g stroke="#000" class="edge">
            <path fill="none" d="M3194.37 112.25c-6.42 51.98-17.76 208.4 64.49 287.75 31.21 30.11 140.92 43.18 223.02 48.81"/>
            <path d="m3482.01 445.31 9.75 4.15-10.21 2.84z"/>
        </g>
        <g class="node" transform="translate(4 616)">
            <ellipse cx="3924.86" cy="-234" fill="none" stroke="#000" rx="78.48" ry="18"/>
            <text x="3924.86" y="-228.95" font-family="Times,serif" font-size="14" text-anchor="middle">:app:domain:fetch</text>
        </g>
        <g stroke="#000" class="edge">
            <path fill="none" d="M3293.42 96.68c100.56 3.77 261.89 15.47 396.44 51.32 76.92 20.49 107.09 16.34 164 72 38.03 37.19 58.86 97.36 68.4 132.66"/>
            <path d="m3925.6 351.58-.9 10.56-5.88-8.82z"/>
        </g>
        <g class="node" transform="translate(4 616)">
            <ellipse cx="4247.86" cy="-162" fill="none" stroke="#000" rx="74.89" ry="18"/>
            <text x="4247.86" y="-156.95" font-family="Times,serif" font-size="14" text-anchor="middle">:app:domain:fcm</text>
        </g>
        <g stroke="#000" class="edge">
            <path fill="none" d="M3291.44 98.74c137.75 6.3 386.43 21.21 471.42 49.26 58.7 19.37 67.34 38.06 119 72 115.34 75.77 133.37 111.21 253 180 21.83 12.55 47.17 24.34 68.67 33.6"/>
            <path d="m4204.83 430.35 7.84 7.13-10.57-.68z"/>
        </g>
        <g class="node" transform="translate(4 616)">
            <ellipse cx="3749.86" cy="-378" fill="none" stroke="#000" rx="91.27" ry="18"/>
            <text x="3749.86" y="-372.95" font-family="Times,serif" font-size="14" text-anchor="middle">:app:domain:calendar</text>
        </g>
        <g stroke="#000" class="edge">
            <path fill="none" d="M3289.8 99.57c113.06 6.65 296.56 21.27 359.06 48.43 32.98 14.33 63.48 42.57 83.01 63.42"/>
            <path d="m3734.37 208.97 4.15 9.74-9.32-5.03z"/>
        </g>
        <g class="node" transform="translate(4 616)">
            <ellipse cx="1006.86" cy="-234" fill="none" stroke="#000" rx="123.52" ry="18"/>
            <text x="1006.86" y="-228.95" font-family="Times,serif" font-size="14" text-anchor="middle">:app:core:filter-database-room</text>
        </g>
        <g stroke="#000" class="edge">
            <path fill="none" d="M3099.71 96.11c-328.19 4.02-1383.64 19.36-1532.85 51.89-204.11 44.5-427.93 161.25-516.65 210.53"/>
            <path d="m1052.08 361.5-10.44 1.82 7.02-7.93z"/>
        </g>
        <g class="node" transform="translate(4 616)">
            <ellipse cx="1547.86" cy="-234" fill="none" stroke="#000" rx="132.22" ry="18"/>
            <text x="1547.86" y="-228.95" font-family="Times,serif" font-size="14" text-anchor="middle">:app:core:backup-database-room</text>
        </g>
        <g stroke="#000" class="edge">
            <path fill="none" d="M3099.97 96.45c-298.95 4.79-1194.48 21.5-1322.11 51.55-75.51 17.78-105 16.31-159 72-36.35 37.49-54.14 97.56-61.87 132.75"/>
            <path d="m1560.49 353.1-5.44 9.09-1.41-10.5z"/>
        </g>
        <g class="node" transform="translate(4 616)">
            <ellipse cx="539.86" cy="-162" fill="none" stroke="#000" rx="158.32" ry="18"/>
            <text x="539.86" y="-156.95" font-family="Times,serif" font-size="14" text-anchor="middle">:app:core:account-preferences-datastore</text>
        </g>
        <g stroke="#000" class="edge">
            <path fill="none" d="M3099.24 94.93c-483.69.29-2600.38 9.12-2600.38 142.07v74c0 41.32 17.53 86.38 30.71 114.42"/>
            <path d="m532.65 423.75 1.22 10.52-7.52-7.46z"/>
        </g>
        <g class="node" transform="translate(4 616)">
            <ellipse cx="1272.86" cy="-234" fill="none" stroke="#000" rx="124.54" ry="18"/>
            <text x="1272.86" y="-228.95" font-family="Times,serif" font-size="14" text-anchor="middle">:app:core:diary-database-room</text>
        </g>
        <g stroke="#000" class="edge">
            <path fill="none" d="M3099.53 95.49c-316.4 1.97-1303.43 11.39-1440.67 52.51-146.52 43.89-293.62 158.1-353.74 208.49"/>
            <path d="m1307.61 358.97-9.9 3.78 5.38-9.13z"/>
        </g>
        <g class="node" transform="translate(4 616)">
            <ellipse cx="205.86" cy="-162" fill="none" stroke="#000" rx="157.3" ry="18"/>
            <text x="205.86" y="-156.95" font-family="Times,serif" font-size="14" text-anchor="middle">:app:core:holiday-preferences-datastore</text>
        </g>
        <g stroke="#000" class="edge">
            <path fill="none" d="M3099.51 95.82c-453.19 3.96-2339.3 22.2-2460.65 52.18-141.09 34.85-160.57 87.91-273 180-43.25 35.43-93.84 75.77-125.41 100.81"/>
            <path d="m242.88 431.35-10.01 3.47 5.66-8.96z"/>
        </g>
        <g class="node" transform="translate(4 616)">
            <ellipse cx="731.86" cy="-234" fill="none" stroke="#000" rx="133.24" ry="18"/>
            <text x="731.86" y="-228.95" font-family="Times,serif" font-size="14" text-anchor="middle">:app:core:holiday-database-room</text>
        </g>
        <g stroke="#000" class="edge">
            <path fill="none" d="M3099.79 96.29c-344.5 4.8-1496.66 22.86-1659.93 51.71-255.15 45.08-544.23 163.29-656.2 211.78"/>
            <path d="m785.34 362.86-10.56.78 7.77-7.19z"/>
        </g>
        <g class="node" transform="translate(4 616)">
            <ellipse cx="5936.86" cy="-378" fill="none" stroke="#000" rx="81.55" ry="18"/>
            <text x="5936.86" y="-372.95" font-family="Times,serif" font-size="14" text-anchor="middle">:app:feature:memo</text>
        </g>
        <g stroke="#000" class="edge">
            <path fill="none" d="M3294.26 95.05c463.36.49 2427.09 5.35 2547.6 52.95 32.58 12.87 61.29 41.7 79.28 63.08"/>
            <path d="m5923.85 208.86 3.6 9.97-9.02-5.55z"/>
        </g>
        <g class="node" transform="translate(4 616)">
            <ellipse cx="4571.86" cy="-378" fill="none" stroke="#000" rx="68.75" ry="18"/>
            <text x="4571.86" y="-372.95" font-family="Times,serif" font-size="14" text-anchor="middle">:app:feature:tag</text>
        </g>
        <g stroke="#000" class="edge">
            <path fill="none" d="M3294.11 95.98c275.23 3.21 1046.71 15.4 1154.75 52.02 39.34 13.33 77.39 42.92 101.42 64.33"/>
            <path d="m4552.63 209.74 5.03 9.32-9.75-4.15z"/>
        </g>
        <g class="node" transform="translate(4 616)">
            <ellipse cx="5663.86" cy="-450" fill="none" stroke="#000" rx="88.71" ry="18"/>
            <text x="5663.86" y="-444.95" font-family="Times,serif" font-size="14" text-anchor="middle">:app:feature:calendar</text>
        </g>
        <g stroke="#000" class="edge">
            <path fill="none" d="M3294.04 96.14c381.03 4.65 1773.73 23.27 2214.82 51.86 24.04 1.56 50.04 4.01 73.92 6.58"/>
            <path d="m5582.89 151.07 9.56 4.57-10.32 2.39z"/>
        </g>
        <g class="node" transform="translate(4 616)">
            <ellipse cx="5360.86" cy="-378" fill="none" stroke="#000" rx="76.94" ry="18"/>
            <text x="5360.86" y="-372.95" font-family="Times,serif" font-size="14" text-anchor="middle">:app:feature:more</text>
        </g>
        <g stroke="#000" class="edge">
            <path fill="none" d="M3294.7 94.56c332.31-1 1416.17.03 1760.16 53.44 93.76 14.56 199.22 48.84 259.81 70.35"/>
            <path d="m5315.79 215.04 8.24 6.66-10.6-.07z"/>
        </g>
        <g class="node" transform="translate(4 616)">
            <ellipse cx="4744.86" cy="-378" fill="none" stroke="#000" rx="86.15" ry="18"/>
            <text x="4744.86" y="-372.95" font-family="Times,serif" font-size="14" text-anchor="middle">:app:feature:account</text>
        </g>
        <g stroke="#000" class="edge">
            <path fill="none" d="M3294.23 95.25c260.78 1.28 970.8 8.81 1200.63 52.75 75.47 14.43 158.78 47.04 208.72 68.52"/>
            <path d="m4704.86 213.26 7.78 7.2-10.57-.78z"/>
        </g>
        <g class="node" transform="translate(4 616)">
            <ellipse cx="3014.86" cy="-162" fill="none" stroke="#000" rx="112.26" ry="18"/>
            <text x="3014.86" y="-156.95" font-family="Times,serif" font-size="14" text-anchor="middle">:library:firebase-messaging</text>
        </g>
        <g stroke="#000" class="edge">
            <path fill="none" d="M3148.15 109.92c-53.31 19.71-131.29 60.01-131.29 127.08v74c0 39.26.77 84.63 1.36 113.31"/>
            <path d="m3021.71 423.93-3.29 10.07-3.71-9.92z"/>
        </g>
        <g class="node" transform="translate(4 616)">
            <ellipse cx="3361.86" cy="-18" fill="none" stroke="#000" rx="71.31" ry="18"/>
            <text x="3361.86" y="-12.95" font-family="Times,serif" font-size="14" text-anchor="middle">:app:core:model</text>
        </g>
        <g stroke="#000" class="edge">
            <path fill="none" d="M1657.14 464.97c93.77 12.24 246.3 32.65 302.72 43.03 70.41 12.96 86 26.82 157 36 497.44 64.35 628.25-6.96 1128 36 16.57 1.42 34.34 3.57 51.02 5.86"/>
            <path d="m3296.32 582.39 9.41 4.87-10.39 2.06z"/>
        </g>
        <g class="node" transform="translate(4 616)">
            <ellipse cx="3992.86" cy="-18" fill="none" stroke="#000" rx="85.13" ry="18"/>
            <text x="3992.86" y="-12.95" font-family="Times,serif" font-size="14" text-anchor="middle">:common:exception</text>
        </g>
        <g stroke="#000" class="edge">
            <path fill="none" d="M1658.89 464.53c20.8 2.48 43.23 5.11 63.97 7.47 146.59 16.71 184.85 9.56 330 36 63.21 11.51 76.38 27.02 140 36 275.83 38.93 974.56 27.7 1253 36 160.07 4.77 346.29 10.57 456.09 14.01"/>
            <path d="m3901.92 590.51 9.88 3.81-10.1 3.18z"/>
        </g>
        <g class="node" transform="translate(4 616)">
            <ellipse cx="1346.86" cy="-90" fill="none" stroke="#000" rx="121.98" ry="18"/>
            <text x="1346.86" y="-84.95" font-family="Times,serif" font-size="14" text-anchor="middle">:app:core:account-preferences</text>
        </g>
        <g stroke="#000" class="edge">
            <path fill="none" d="M1531.01 469.93c-34.43 10.53-80.82 24.71-117.91 36.04"/>
            <path d="m1414.45 509.22-10.59-.42 8.54-6.27z"/>
        </g>
        <g class="node" transform="translate(4 616)">
            <ellipse cx="1873.86" cy="-90" fill="none" stroke="#000" rx="72.85" ry="18"/>
            <text x="1873.86" y="-84.95" font-family="Times,serif" font-size="14" text-anchor="middle">:common:model</text>
        </g>
        <g stroke="#000" class="edge">
            <path fill="none" d="M1638.02 468.66c50.98 11.98 124.88 29.34 177.15 41.61"/>
            <path d="m1815.9 506.85 8.94 5.69-10.54 1.13z"/>
        </g>
        <g stroke="#000" class="edge">
            <path fill="none" d="M2462.11 537.02c23.52 2.55 49.11 5.1 72.75 6.98 314.97 25.02 395.47 5.99 710 36 16.39 1.56 33.95 3.74 50.48 6.02"/>
            <path d="m3295.68 582.53 9.42 4.86-10.39 2.07z"/>
        </g>
        <g stroke="#000" class="edge">
            <path fill="none" d="M5582.56 327.59c12.76 8.93 28.72 20.11 42.74 29.92"/>
            <path d="m5627.21 354.57 6.19 8.61-10.2-2.87z"/>
        </g>
        <g stroke="#000" class="edge">
            <path fill="none" d="M5703.69 398.54c32.06 11.1 75.19 26.05 108.16 37.48"/>
            <path d="m5812.88 432.67 8.3 6.58-10.6.03z"/>
        </g>
        <g stroke="#000" class="edge">
            <path fill="none" d="M5626.97 399.52c-67.25 33.93-229.38 111.1-375.11 144.48-118.68 27.19-472.57 43.69-634.92 50.02"/>
            <path d="m4617.22 597.52-10.12-3.12 9.85-3.88z"/>
        </g>
        <g stroke="#000" class="edge">
            <path fill="none" d="M4976.86 325.45c48 17.56 119.9 52.31 152 110.55 23.99 43.53 10.85 78.29-29 108-37.83 28.21-335.08 43.85-482.99 49.96"/>
            <path d="m4617.27 597.44-10.14-3.09 9.85-3.9z"/>
        </g>
        <g stroke="#000" class="edge">
            <path fill="none" d="M5122.92 328.35c21.76 44.31 70.63 161.92 6.94 215.65-38.3 32.31-357.35 46.02-512.25 50.82"/>
            <path d="m4617.91 598.31-10.1-3.2 9.88-3.8z"/>
        </g>
        <g stroke="#000" class="edge">
            <path fill="none" d="M5860.86 328.41v96.17"/>
            <path d="m5864.36 424.38-3.5 10-3.5-10z"/>
        </g>
        <g stroke="#000" class="edge">
            <path fill="none" d="M2906.56 256.07c-30.67 57.43-124.52 242.5-85.7 287.93 31.06 36.34 157.22 47.91 245.77 51.51"/>
            <path d="m3066.68 592.01 9.86 3.87-10.13 3.13z"/>
        </g>
        <g stroke="#000" class="edge">
            <path fill="none" d="M2911.05 256.4c-15.68 58.46-62.08 246.5-22.19 287.6 23.26 23.97 1168.62 34.86 1202 36 125.64 4.29 271.3 10.03 360.28 13.62"/>
            <path d="m4451.15 590.11 9.85 3.91-10.13 3.09z"/>
        </g>
        <g stroke="#000" class="edge">
            <path fill="none" d="M2979.67 246.36c110.25 12.71 336.34 38.79 459.21 52.96"/>
            <path d="m3439.04 295.81 9.54 4.62-10.34 2.33z"/>
        </g>
        <g class="node" transform="translate(4 616)">
            <ellipse cx="2179.86" cy="-162" fill="none" stroke="#000" rx="101.51" ry="18"/>
            <text x="2179.86" y="-156.95" font-family="Times,serif" font-size="14" text-anchor="middle">:app:core:diary-database</text>
        </g>
        <g stroke="#000" class="edge">
            <path fill="none" d="M2861.4 250.03c-93.28 19.43-289.17 62.61-450.54 113.97-63.3 20.15-134.29 49.03-179.76 68.38"/>
            <path d="m2232.64 435.53-10.57.71 7.82-7.15z"/>
        </g>
        <g stroke="#000" class="edge">
            <path fill="none" d="M2778.72 328.1c-28.38 42.23-92.58 152.61-36.86 215.9 21.31 24.2 212.76 40.33 328.04 47.94"/>
            <path d="m3069.89 588.43 9.76 4.14-10.21 2.85z"/>
        </g>
        <g stroke="#000" class="edge">
            <path fill="none" d="M2789.52 328.42c-2.36 44.46-1.63 162.4 66.34 215.58 54.06 42.3 1166.4 33.68 1235 36 125.65 4.24 271.3 9.99 360.28 13.6"/>
            <path d="m4451.15 590.1 9.85 3.9-10.13 3.09z"/>
        </g>
        <g stroke="#000" class="edge">
            <path fill="none" d="M2847.19 315.41c154.03 12.04 582.57 45.56 760.09 59.44"/>
            <path d="m3607.4 371.35 9.7 4.27-10.24 2.71z"/>
        </g>
        <g stroke="#000" class="edge">
            <path fill="none" d="M2745.24 321.67c-105.05 24.58-364.62 85.3-490.57 114.76"/>
            <path d="m2255.65 439.8-10.53-1.13 8.94-5.69z"/>
        </g>
        <g stroke="#000" class="edge">
            <path fill="none" d="M2587.98 472.36c4.73 20.76 15.83 54.82 39.88 71.64 35.26 24.66 299.77 41.51 440.89 48.85"/>
            <path d="m3068.62 589.34 9.8 4.01-10.16 2.98z"/>
        </g>
        <g stroke="#000" class="edge">
            <path fill="none" d="M2611.39 471.31c36.42 21.38 104.67 57.9 168.47 72.69 141.96 32.91 1165.36 31.21 1311 36 125.65 4.14 271.31 9.91 360.29 13.56"/>
            <path d="m4451.15 590.05 9.85 3.91-10.13 3.09z"/>
        </g>
        <g stroke="#000" class="edge">
            <path fill="none" d="M2658.22 459.01c63.43 3.47 157.58 8.59 239.64 12.99 332.68 17.82 727.44 38.56 906.33 47.94"/>
            <path d="m3804.34 516.44 9.8 4.02-10.16 2.97z"/>
        </g>
        <g stroke="#000" class="edge">
            <path fill="none" d="M2523.05 464.78c-19.52 2.76-41.22 5.48-61.19 7.22-434.2 37.88-545.65-.08-980 36-11.26.94-23.03 2.14-34.71 3.48"/>
            <path d="m1447.85 514.92-10.34-2.31 9.52-4.64z"/>
        </g>
        <g stroke="#000" class="edge">
            <path fill="none" d="M1720.06 256.38c13.62 31.71 36.56 99.74 5.8 143.62-13.69 19.54-35.36 31.9-57.86 39.72"/>
            <path d="m1669.31 442.97-10.59-.33 8.48-6.34z"/>
        </g>
        <g stroke="#000" class="edge">
            <path fill="none" d="M1627.83 238.69c-176.44.35-598.11 6.54-947.97 53.31-9.31 1.25-655.11 136.68-661 144-18.94 23.51 9.24 100.35 19 108 61.17 47.95 2522 52.52 3028.44 52.96"/>
            <path d="m3066.03 593.45 10 3.51-10 3.49z"/>
        </g>
        <g stroke="#000" class="edge">
            <path fill="none" d="M1715.79 256.31c6.33 32.85 14.58 104.4-22.93 143.69-67.82 71.02-154.47-38.88-218 36-10.35 12.2-10.57 23.99 0 36 41.59 47.26 223.78 9.75 281 36 21.74 9.97 17.74 27.26 40 36 118.69 46.62 2167.53 32.55 2295 36 125.67 3.4 271.32 9.38 360.29 13.27"/>
            <path d="m4451.17 589.76 9.84 3.94-10.14 3.06z"/>
        </g>
        <g stroke="#000" class="edge">
            <path fill="none" d="M1794.53 241.26c378.73 10.35 1947.79 53.24 2372.13 64.84"/>
            <path d="m4166.56 302.59 9.9 3.78-10.09 3.22z"/>
        </g>
        <g stroke="#000" class="edge">
            <path fill="none" d="M1629.81 241.99C1383.45 251.8 662.83 286.89 593.86 364c-10.67 11.93-9.51 23.13 0 36 32.32 43.76 67.08 14.37 117 36 29.59 12.82 32.23 26.36 63 36 173.71 54.42 226.77 18.89 408 36 19.35 1.83 39.95 3.84 59.86 5.82"/>
            <path d="m1241.92 510.33 9.6 4.47-10.3 2.49z"/>
        </g>
        <g stroke="#000" class="edge">
            <path fill="none" d="M2377.86 472.3v24.16"/>
            <path d="m2381.36 496.38-3.5 10-3.5-10z"/>
        </g>
        <g stroke="#000" class="edge">
            <path fill="none" d="M2323.3 466.67c-22.41 7.77-46.18 20.54-59.44 41.33-8.6 13.49-10.97 24.36 0 36 27.27 28.94 582.5 45.5 803.45 50.96"/>
            <path d="m3067.1 591.46 9.91 3.74-10.08 3.25z"/>
        </g>
        <g stroke="#000" class="edge">
            <path fill="none" d="M2425.49 468.27c37.43 10.51 90.82 25.72 137.37 39.73 50.88 15.32 61.59 27.24 114 36 310.02 51.84 1099.84 25.97 1414 36 125.65 4.01 271.31 9.82 360.29 13.51"/>
            <path d="m4451.16 590 9.84 3.92-10.13 3.08z"/>
        </g>
        <g stroke="#000" class="edge">
            <path fill="none" d="M2438.52 464.85c19.53 2.79 41.3 5.52 61.34 7.15 664.22 54.07 832.88 16.13 1499 36 131.73 3.93 283.88 9.54 380.24 13.22"/>
            <path d="m4379.19 517.72 9.86 3.88-10.12 3.12z"/>
        </g>
        <g class="node" transform="translate(4 616)">
            <ellipse cx="1047.86" cy="-90" fill="none" stroke="#000" rx="120.96" ry="18"/>
            <text x="1047.86" y="-84.95" font-family="Times,serif" font-size="14" text-anchor="middle">:app:core:holiday-preferences</text>
        </g>
        <g stroke="#000" class="edge">
            <path fill="none" d="M2325.39 467.14c-10.09 1.93-20.6 3.68-30.53 4.86-474.74 56.16-598.03 3.92-1075 36-20.24 1.36-41.81 3.23-62.51 5.23"/>
            <path d="m1157.75 516.71-10.29-2.51 9.61-4.46z"/>
        </g>
        <g class="node" transform="translate(4 616)">
            <ellipse cx="1596.86" cy="-90" fill="none" stroke="#000" rx="110.21" ry="18"/>
            <text x="1596.86" y="-84.95" font-family="Times,serif" font-size="14" text-anchor="middle">:app:core:holiday-database</text>
        </g>
        <g stroke="#000" class="edge">
            <path fill="none" d="M2324.46 467c-9.81 1.9-19.98 3.67-29.6 5-220.27 30.37-277.35 18.34-499 36-28.86 2.3-60.11 4.95-88.95 7.47"/>
            <path d="m1707.33 518.94-10.27-2.61 9.66-4.36z"/>
        </g>
        <g stroke="#000" class="edge">
            <path fill="none" d="M2017.04 391.79c-88.64 12.42-250.76 35.11-350.72 49.11"/>
            <path d="m1666.94 444.34-10.39-2.08 9.42-4.85z"/>
        </g>
        <g stroke="#000" class="edge">
            <path fill="none" d="M2062.43 399.79c-17.28 18.72-38.96 49.36-22.57 72.21 58.26 81.19 114.91 52.91 213 72 154.05 29.99 617.64 45.44 814.27 50.79"/>
            <path d="m3067.14 591.28 9.9 3.77-10.09 3.23z"/>
        </g>
        <g stroke="#000" class="edge">
            <path fill="none" d="M2071.85 400.16c-7.98 19.94-16.7 52.54 1.01 71.84 63.19 68.85 329.12 10.4 419 36 34.03 9.69 36.69 27.37 71 36 164.7 41.42 1358.26 30.74 1528 36 125.66 3.89 271.31 9.74 360.29 13.46"/>
            <path d="m4451.16 589.96 9.84 3.91-10.13 3.08z"/>
        </g>
        <g stroke="#000" class="edge">
            <path fill="none" d="M2152.11 386.38c246.29 11.5 1053.01 49.2 1330.77 62.18"/>
            <path d="m3482.79 445.05 9.82 3.97-10.15 3.03z"/>
        </g>
        <g stroke="#000" class="edge">
            <path fill="none" d="M2104.24 399.41c13.5 9.08 30.49 20.52 45.3 30.49"/>
            <path d="m2151.31 426.87 6.34 8.49-10.25-2.68z"/>
        </g>
        <g class="node" transform="translate(4 616)">
            <ellipse cx="1836.86" cy="-162" fill="none" stroke="#000" rx="109.19" ry="18"/>
            <text x="1836.86" y="-156.95" font-family="Times,serif" font-size="14" text-anchor="middle">:app:core:backup-database</text>
        </g>
        <g stroke="#000" class="edge">
            <path fill="none" d="M2033.78 396.5c-37.03 10.84-89.41 26.18-130.25 38.14"/>
            <path d="m1904.64 437.97-10.58-.55 8.61-6.17z"/>
        </g>
        <g stroke="#000" class="edge">
            <path fill="none" d="M1961.24 327.85c-23.23 23.18-64.66 63.07-83.38 72.15-9.78 4.75-131.56 25.52-216.37 39.61"/>
            <path d="m1662.23 443.03-10.44-1.81 9.29-5.09z"/>
        </g>
        <g stroke="#000" class="edge">
            <path fill="none" d="M1970.46 328.14c-9.81 20.55-29.15 54.39-56.6 71.86-76.53 48.71-250.14 3.2-191 72 34.72 40.4 185.16 23.74 237 36 50.47 11.93 59.99 26.65 111 36 190.14 34.83 771.17 47.85 995.92 51.67"/>
            <path d="m3066.72 592.17 9.94 3.66-10.06 3.34z"/>
        </g>
        <g stroke="#000" class="edge">
            <path fill="none" d="M1979 328.23c1.78 18.56 6.34 48.56 17.86 71.77 18.77 37.83 27.03 48.33 62 72 40.85 27.66 58.46 19.64 105 36 44.57 15.66 53.55 27.42 100 36 199.66 36.88 1624.05 30.11 1827 36 125.66 3.65 271.32 9.56 360.29 13.36"/>
            <path d="m4451.17 589.86 9.84 3.93-10.14 3.07z"/>
        </g>
        <g stroke="#000" class="edge">
            <path fill="none" d="M2043.25 312.65c301.29 7.64 1548.46 39.7 1722.61 51.35 27.32 1.83 57.14 4.68 83.72 7.54"/>
            <path d="m3849.69 368.03 9.56 4.56-10.32 2.4z"/>
        </g>
        <g stroke="#000" class="edge">
            <path fill="none" d="M2042.36 313.51c39.99 4.99 89.49 17.97 120.5 50.49 15.24 15.98 20.12 40.88 21.4 60.28"/>
            <path d="m2187.75 423.89-3.16 10.12-3.84-9.87z"/>
        </g>
        <g stroke="#000" class="edge">
            <path fill="none" d="M3044.68 383.61c-195.09 2.29-812.42 12.42-1321.82 52.39-17.96 1.41-37.13 3.37-55.42 5.46"/>
            <path d="m1668.03 444.92-10.34-2.32 9.53-4.63z"/>
        </g>
        <g stroke="#000" class="edge">
            <path fill="none" d="M3119.98 399.66c7.12 9.97 15.37 23.22 19.88 36.34 15.23 44.31 17.83 99.18 17.8 132.07"/>
            <path d="m3161.16 568.06-3.61 9.96-3.39-10.04z"/>
        </g>
        <g stroke="#000" class="edge">
            <path fill="none" d="M3141.14 397.32c80.26 32.78 287.29 113 468.72 146.68 81.34 15.1 629.88 40.21 841.21 49.45"/>
            <path d="m4451.04 589.94 9.84 3.94-10.14 3.06z"/>
        </g>
        <g stroke="#000" class="edge">
            <path fill="none" d="M3167.21 386.69c190.88 11.67 781.83 47.8 1001.39 61.22"/>
            <path d="m4168.75 444.41 9.76 4.11-10.19 2.88z"/>
        </g>
        <g stroke="#000" class="edge">
            <path fill="none" d="M3086.45 399.24c-11.01 8.75-24.81 19.73-37.06 29.48"/>
            <path d="m3051.58 431.45-10.01 3.48 5.65-8.96z"/>
        </g>
        <g stroke="#000" class="edge">
            <path fill="none" d="M2698.04 184.44c-3.11 10.23-6.61 23.48-8.18 35.56-9.31 71.69-24.08 274.92 29 324 25.23 23.33 230.33 40 350.72 47.88"/>
            <path d="m3069.69 588.38 9.76 4.13-10.21 2.85z"/>
        </g>
        <g stroke="#000" class="edge">
            <path fill="none" d="M2702.58 184.42c-3.51 62.63-5.86 277.07 118.28 359.58 58.78 39.07 1199.46 33.65 1270 36 125.65 4.19 271.3 9.96 360.28 13.58"/>
            <path d="m4451.15 590.08 9.85 3.9-10.13 3.09z"/>
        </g>
        <g stroke="red" stroke-width="2" class="edge">
            <path fill="none" d="M2778.53 171.98c186.12 12.41 670.54 44.7 878.35 58.55"/>
            <path fill="red" d="m3655.6 226.94 9.74 4.16-10.21 2.83z"/>
        </g>
        <g class="node" transform="translate(4 616)">
            <ellipse cx="1285.86" cy="-162" fill="none" stroke="#000" rx="100.48" ry="18"/>
            <text x="1285.86" y="-156.95" font-family="Times,serif" font-size="14" text-anchor="middle">:app:core:filter-database</text>
        </g>
        <g stroke="#000" class="edge">
            <path fill="none" d="M2627.73 170.79c-144.58 8.94-467.43 37.35-724.87 121.21-99.79 32.51-109.82 76.69-210 108-54.88 17.15-203.21 33.94-303.76 43.88"/>
            <path d="m1389.49 447.36-10.29-2.5 9.61-4.46z"/>
        </g>
        <g stroke="#000" class="edge">
            <path fill="none" d="M3605.97 312.96c237.05 7.38 935.16 41.59 1489.89 195.04 74.57 20.63 158.97 51.48 209.8 70.9"/>
            <path d="m5306.79 575.59 8.08 6.85-10.59-.31z"/>
        </g>
        <g stroke="#000" class="edge">
            <path fill="none" d="M3473.83 325.04c-26.87 8.91-60.08 21.98-86.97 38.96-91.72 57.93-174.51 158.98-210.71 206.67"/>
            <path d="m3179.05 572.62-8.8 5.9 3.2-10.1z"/>
        </g>
        <g stroke="#000" class="edge">
            <path fill="none" d="M3526.19 328.23c4.75 19.99 15.36 52.66 36.67 71.77 38.61 34.63 65.62 10.89 111 36 65.43 36.2 59.69 79.94 129 108 58.75 23.79 468.88 42.65 647.82 49.85"/>
            <path d="m4450.76 590.35 9.85 3.89-10.13 3.1z"/>
        </g>
        <g stroke="red" stroke-width="2" class="edge">
            <path fill="none" d="M3559.03 326.54c24.08 10.33 55.88 23.99 81.62 35.04"/>
            <path fill="red" d="m3640.32 357.63 7.8 7.16-10.57-.73z"/>
        </g>
        <g stroke="#000" class="edge">
            <path fill="none" d="M3534.22 328.16c14.3 20.25 40.78 53.47 71.64 71.84 54.84 32.64 79.88 11.98 139 36 44.31 18.01 91.53 46.39 122.27 66.25"/>
            <path d="m3868.77 499.14 6.46 8.4-10.28-2.54z"/>
        </g>
        <g stroke="#000" class="edge">
            <path fill="none" d="M3522.47 328.47c.2 18.5 2.31 48.2 12.39 71.53 4.23 9.8 10.81 19.27 17.56 27.42"/>
            <path d="m3555.01 425.06 3.99 9.82-9.24-5.19z"/>
        </g>
        <g stroke="#000" class="edge">
            <path fill="none" d="M3470.43 324.37c-21.52 8.07-44.8 20.59-59.57 39.63-47.16 60.79-49.46 156.88-47.26 204.42"/>
            <path d="m3367.08 567.98-2.91 10.18-4.07-9.78z"/>
        </g>
        <g stroke="#000" class="edge">
            <path fill="none" d="M3510.98 327.93c-19.76 30.41-54.77 95.64-29.12 144.07 26.66 50.33 52.75 51.79 106 72 101.92 38.68 227.27 50.1 312.14 53"/>
            <path d="m3900.04 593.5 9.89 3.8-10.1 3.2z"/>
        </g>
        <g stroke="#000" class="edge">
            <path fill="none" d="M3749.16 390.7c28.33 3.24 62.15 6.82 92.7 9.3 298.11 24.21 377.4-15.68 672 36 54.43 9.55 65.34 22.81 119 36 166.08 40.82 209.48 42.86 378 72 95.49 16.51 206.44 33.31 275.2 43.45"/>
            <path d="m5286.25 583.94 9.39 4.92-10.4 2.01z"/>
        </g>
        <g stroke="#000" class="edge">
            <path fill="none" d="M3623.18 390.91c-51.08 7.73-124.46 21.81-185.32 45.09-95.75 36.64-197.66 102.76-248.38 137.78"/>
            <path d="m3191.49 576.65-10.21 2.84 6.21-8.58z"/>
        </g>
        <g stroke="#000" class="edge">
            <path fill="none" d="M3749.56 390.46c28.25 3.18 61.91 6.78 92.3 9.54 167.26 15.2 646.72-25.97 748 108 15.99 21.15-4.19 46.95-24.65 65.32"/>
            <path d="m4567.57 575.91-9.88 3.81 5.35-9.15z"/>
        </g>
        <g stroke="#000" class="edge">
            <path fill="none" d="M3733.5 395.73c27.13 8.65 60.88 21.9 87.36 40.27 24.54 17.02 46.74 42.98 61.49 62.48"/>
            <path d="m3885.16 496.39 3.11 10.12-8.75-5.97z"/>
        </g>
        <g stroke="red" stroke-width="2" class="edge">
            <path fill="none" d="M3660.81 399.24c-14.24 9.23-32.3 20.93-47.93 31.06"/>
            <path fill="red" d="m3616.36 432.22-10.3 2.5 6.49-8.38z"/>
        </g>
        <g stroke="#000" class="edge">
            <path fill="none" d="M3619.07 388.7c-42.35 6.28-96.6 19.5-137.21 47.3-49.85 34.13-85.84 97.05-103.56 133.3"/>
            <path d="m3381.49 570.73-7.45 7.53 1.13-10.53z"/>
        </g>
        <g stroke="#000" class="edge">
            <path fill="none" d="M3693.54 400.31c15.61 33.15 54.31 105.69 109.32 143.69 32.15 22.21 73.27 35.13 109.37 42.64"/>
            <path d="m3912.63 583.15 9.14 5.36-10.48 1.51z"/>
        </g>
        <g stroke="#000" class="edge">
            <path fill="none" d="M3986.48 531.13c262.05 12.64 1050.14 50.66 1293.2 62.39"/>
            <path d="m5279.51 590.01 9.82 3.97-10.16 3.02z"/>
        </g>
        <g stroke="#000" class="edge">
            <path fill="none" d="M3827.38 536.48c-21.72 2.64-45.56 5.36-67.52 7.52-210.26 20.65-263.86 14.19-474 36-16.96 1.76-35.13 3.96-52.32 6.19"/>
            <path d="m3234.27 589.62-10.37-2.17 9.46-4.77z"/>
        </g>
        <g stroke="#000" class="edge">
            <path fill="none" d="M3977.21 535.44c121.53 13.44 357.65 39.55 479.61 53.04"/>
            <path d="m4457.2 585 9.55 4.58-10.32 2.38z"/>
        </g>
        <g stroke="red" stroke-width="2" class="edge">
            <path fill="none" d="M3827.87 536.55c-102.11 13.36-286.54 37.49-388.78 50.87"/>
            <path fill="red" d="m3441.32 590.66-10.37-2.18 9.46-4.76z"/>
        </g>
        <g stroke="#000" class="edge">
            <path fill="none" d="M3923.61 543.59c12.34 9 27.8 20.27 41.33 30.14"/>
            <path d="m3966.7 570.68 6.02 8.72-10.15-3.07z"/>
        </g>
        <g stroke="#000" class="edge">
            <path fill="none" d="M4350.76 320.98c73.47 9.75 186.55 25.63 284.1 43.02 152.92 27.26 193.7 25.8 342 72 39.56 12.32 46.14 24.67 86 36 98.26 27.92 140.44-18.24 227 36 23.13 14.49 39.94 41.11 50.18 61.47"/>
            <path d="m5343.14 567.83 1.13 10.54-7.46-7.53z"/>
        </g>
        <g stroke="#000" class="edge">
            <path fill="none" d="M4289.79 328.12c28.88 31.28 81.28 98.63 46.07 143.88-39.98 51.38-79.12 19.12-142 36-56.66 15.21-69.09 26.59-127 36-342.98 55.75-434.88 5.27-781 36-17.17 1.52-35.56 3.65-52.92 5.88"/>
            <path d="m3233.58 589.33-10.37-2.17 9.45-4.77z"/>
        </g>
        <g stroke="#000" class="edge">
            <path fill="none" d="M4345.14 322.2c71.25 11.44 174.92 29.25 213.72 41.8 71.12 23 101.74 16.67 152 72 33.2 36.54 56.18 68.93 26 108-15.9 20.58-77.2 34.69-128.32 43.14"/>
            <path d="m4609.39 590.55-10.43-1.87 9.33-5.04z"/>
        </g>
        <g stroke="#000" class="edge">
            <path fill="none" d="M4178.22 313.97c-88.5 4.79-223.59 17.31-336.36 50.03-35.9 10.41-41 22.88-76 36-39.42 14.78-84.83 27.69-121.14 37.06"/>
            <path d="m3645.78 440.41-10.55-.92 8.82-5.87z"/>
        </g>
        <g stroke="#000" class="edge">
            <path fill="none" d="M4209.36 323.92c-60.12 12.24-150.15 30.56-211.9 43.12"/>
            <path d="m3998.25 370.45-10.5-1.43 9.1-5.43z"/>
        </g>
        <g stroke="#000" class="edge">
            <path fill="none" d="M4270.28 328.41c-3.54 23.98-9.97 67.45-14.22 96.17"/>
            <path d="m4259.54 425.01-4.93 9.38-2-10.4z"/>
        </g>
        <g stroke="#000" class="edge">
            <path fill="none" d="M4321.54 325.91c18.15 8.18 36.87 20.38 47.32 38.09 24.4 41.34 28.67 69.51 0 108-66.78 89.65-131.01 52-241 72-243.97 44.36-538.09 52.2-678.93 53.19"/>
            <path d="m3448.96 600.69-10.02-3.44 9.97-3.56z"/>
        </g>
        <g stroke="#000" class="edge">
            <path fill="none" d="M4341.05 323.01c33.17 8.01 72.54 20.88 103.81 40.99 82.56 53.1 194.16 107.48 128 180-31.65 34.7-324.62 46.99-480.09 51.09"/>
            <path d="m4092.96 598.58-10.08-3.24 9.9-3.75z"/>
        </g>
        <g stroke="#000" class="edge">
            <path fill="none" d="M4556.31 533.43c170.18 13.6 564.17 45.08 725.12 57.94"/>
            <path d="m5281.42 587.86 9.68 4.29-10.24 2.69z"/>
        </g>
        <g stroke="#000" class="edge">
            <path fill="none" d="M4412.64 538.87c-12.79 2.03-26.19 3.88-38.78 5.13-481.45 47.87-605.81-3.65-1088 36-17.27 1.42-35.77 3.52-53.21 5.75"/>
            <path d="m3233.23 589.21-10.37-2.17 9.46-4.77z"/>
        </g>
        <g stroke="#000" class="edge">
            <path fill="none" d="M4489.9 543.95c6.84 8.25 15.21 18.35 22.8 27.51"/>
            <path d="m4515.3 569.11 3.68 9.94-9.07-5.47z"/>
        </g>
        <g stroke="#000" class="edge">
            <path fill="none" d="M4412.08 538.76c-12.63 2.01-25.82 3.88-38.22 5.24-342.29 37.4-752.95 48.61-925.39 51.8"/>
            <path d="m3448.54 599.3-10.06-3.32 9.93-3.68z"/>
        </g>
        <g stroke="#000" class="edge">
            <path fill="none" d="M4410.06 538.22c-12.04 1.98-24.49 3.98-36.2 5.78-101.65 15.61-219.01 31.83-295.43 42.14"/>
            <path d="m4079.34 589.55-10.38-2.13 9.45-4.81z"/>
        </g>
        <g stroke="#000" class="edge">
            <path fill="none" d="M3608.84 471.22c42.44 21.29 121.64 57.7 194.02 72.78 72.91 15.19 1178.46 43.75 1475.82 51.19"/>
            <path d="m5278.74 591.69 9.91 3.75-10.08 3.25z"/>
        </g>
        <g stroke="#000" class="edge">
            <path fill="none" d="M3533.6 469.93c-77.78 26.23-238.72 80.52-322.85 108.89"/>
            <path d="m3211.93 582.12-10.6-.12 8.36-6.51z"/>
        </g>
        <g stroke="#000" class="edge">
            <path fill="none" d="M3587.08 472.07c12.46 21.14 36.86 56.29 68.78 71.93 35.32 17.31 582.76 41.1 794.9 49.72"/>
            <path d="m4450.76 590.21 9.85 3.9-10.13 3.1z"/>
        </g>
        <g stroke="red" stroke-width="2" class="edge">
            <path fill="none" d="M3636.35 467.68c54.66 11.84 136.32 29.54 194.43 42.13"/>
            <path fill="red" d="m3829.72 506 9.03 5.54-10.51 1.3z"/>
        </g>
        <g stroke="#000" class="edge">
            <path fill="none" d="M3553.13 471.57c-38 25.45-110.82 74.23-153.6 102.88"/>
            <path d="m3401.62 577.26-10.25 2.65 6.36-8.47z"/>
        </g>
        <g stroke="#000" class="edge">
            <path fill="none" d="M3580.5 472.17c4.13 20.58 14.19 54.45 37.36 71.83 43.52 32.65 186.45 45.22 283.8 50.03"/>
            <path d="m3901.67 590.53 9.82 3.97-10.15 3.02z"/>
        </g>
        <g stroke="#000" class="edge">
            <path fill="none" d="M4006.54 385.09c130.74 4.35 402.8 16.97 630.32 50.91 249.62 37.24 541.66 113.43 660.53 145.85"/>
            <path d="m5298.17 578.43 8.72 6.02-10.57.73z"/>
        </g>
        <g stroke="#000" class="edge">
            <path fill="none" d="M3889.92 397.88c-49.7 18.68-138.52 51.09-216.06 74.12-128.13 38.07-162.06 40.68-292 72-53.95 13-115.27 27.42-160.25 37.94"/>
            <path d="m3222.55 585.31-10.53-1.13 8.94-5.69z"/>
        </g>
        <g stroke="#000" class="edge">
            <path fill="none" d="M4005.63 386.23c144.27 6.61 450.6 23.32 553.23 49.77 75.9 19.56 118.36 6.23 161 72 30.31 46.76-45 69.56-108.7 80.25"/>
            <path d="m4611.76 591.7-10.43-1.89 9.33-5.03z"/>
        </g>
        <g stroke="#000" class="edge">
            <path fill="none" d="M3933.55 400.45c4.09 18.23 8.37 47.48 1.31 71.55-2.76 9.4-7.75 18.71-13.07 26.84"/>
            <path d="m3924.76 500.71-8.63 6.16 2.9-10.19z"/>
        </g>
        <g stroke="#000" class="edge">
            <path fill="none" d="M3870.9 394.56c-60.56 12.08-155.67 31.04-221.02 44.08"/>
            <path d="m3650.83 442.02-10.49-1.48 9.12-5.39z"/>
        </g>
        <g stroke="#000" class="edge">
            <path fill="none" d="M3946.73 399.59c31.94 31.59 91.95 101.11 52.13 144.41-36.52 39.71-387.05 49.68-550.21 52.17"/>
            <path d="m3448.8 599.67-10.05-3.35 9.94-3.65z"/>
        </g>
        <g stroke="#000" class="edge">
            <path fill="none" d="M3960.83 398.81c35.59 19.78 90.53 57.44 109.03 109.19 5.38 15.07 7.27 21.75 0 36-6.39 12.54-17.29 22.8-28.74 30.84"/>
            <path d="m4043.03 577.78-10.3 2.48 6.5-8.36z"/>
        </g>
        <g stroke="#000" class="edge">
            <path fill="none" d="M4315.85 463.75c118.92 16.21 382.06 51.85 604.01 80.25 128.63 16.46 278.93 34.67 364.05 44.88"/>
            <path d="m5284.21 585.4 9.51 4.66-10.34 2.29z"/>
        </g>
        <g stroke="#000" class="edge">
            <path fill="none" d="M4214.02 469.82c-59.59 23.09-172.9 65.86-215.16 74.18-311.32 61.28-397.01 7.25-713 36-17.16 1.56-35.55 3.7-52.91 5.94"/>
            <path d="m3233.58 589.38-10.37-2.16 9.46-4.78z"/>
        </g>
        <g stroke="#000" class="edge">
            <path fill="none" d="M4326.43 456.56c84.78 3.54 215.46 14.94 246.43 51.44 15.83 18.66 1.21 44.74-14.45 63.85"/>
            <path d="m4561.22 573.96-9.21 5.24 3.93-9.84z"/>
        </g>
        <g stroke="#000" class="edge">
            <path fill="none" d="M4195.47 466.25c-60.27 12.02-156.03 31.11-221.92 44.25"/>
            <path d="m3974.41 513.9-10.5-1.47 9.13-5.39z"/>
        </g>
        <g stroke="#000" class="edge">
            <path fill="none" d="M4226.57 471.25c-34.07 20.96-97.31 56.63-156.71 72.75-115.16 31.25-462.37 45.62-622.05 50.71"/>
            <path d="m3448.26 598.2-10.1-3.18 9.88-3.82z"/>
        </g>
        <g stroke="#000" class="edge">
            <path fill="none" d="M4259.9 472.17c7.86 19.64 16.47 51.66-.04 71.83-21.55 26.32-104.11 39.86-171.05 46.63"/>
            <path d="m4089.16 594.12-10.3-2.52 9.62-4.45z"/>
        </g>
        <g stroke="#000" class="edge">
            <path fill="none" d="M3842.87 242.5c127.17 5.82 367.94 19.91 570.99 49.5 152.42 22.21 188.98 37.1 339 72 31.76 7.39 545.07 121.85 569 144 16.75 15.5 24.15 40.65 27.42 60.27"/>
            <path d="m5352.74 567.75-2.12 10.39-4.81-9.44z"/>
        </g>
        <g stroke="#000" class="edge">
            <path fill="none" d="M3668.78 244.86c-91.54 7.46-230.26 22.43-276.92 47.14-115.08 60.96-127.95 106.22-198 216-12.17 19.07-21.8 42.81-28.18 60.98"/>
            <path d="m3169.04 569.95-6.51 8.36-.12-10.6z"/>
        </g>
        <g stroke="#000" class="edge">
            <path fill="none" d="M3844.93 240.03c149.31 2.81 438.94 13.24 532.93 51.97 23.04 9.5 20.4 25.5 43 36 84.29 39.17 119.42 2.2 206 36 55.12 21.52 77.2 24.14 112 72 28.66 39.42 49.24 69.78 19 108-18.19 22.99-89.1 37.04-146.34 44.84"/>
            <path d="m4612.15 592.29-10.37-2.17 9.46-4.77z"/>
        </g>
        <g stroke="red" stroke-width="2" class="edge">
            <path fill="none" d="M3705.43 253.67c-36.39 11.03-86.4 26.19-124.87 37.84"/>
            <path fill="red" d="m3583.52 294.28-10.59-.45 8.56-6.25z"/>
        </g>
        <g stroke="#000" class="edge">
            <path fill="none" d="M3745.52 256.41c-11.63 24.3-32.86 68.62-46.6 97.32"/>
            <path d="m3702.18 355.02-7.47 7.5 1.16-10.53z"/>
        </g>
        <g stroke="#000" class="edge">
            <path fill="none" d="M3762.62 256.03c24.55 47.78 94.23 183.35 124.23 241.7"/>
            <path d="m3889.81 495.85 1.46 10.5-7.68-7.3z"/>
        </g>
        <g stroke="#000" class="edge">
            <path fill="none" d="M3668.79 244.82c-82.62 7.07-200.99 21.38-238.93 47.18-89.52 60.89-78.2 212.94-68.98 276.44"/>
            <path d="m3364.3 567.65-1.93 10.42-4.99-9.35z"/>
        </g>
        <g stroke="#000" class="edge">
            <path fill="none" d="M3807.27 252.95c57.79 17.47 149.57 52.47 208.59 111.05 60.92 60.47 112.42 105.38 70 180-8.09 14.23-21.67 25.04-35.82 33.06"/>
            <path d="m4052.04 579.96-10.48 1.52 7.25-7.72z"/>
        </g>
        <g stroke="#000" class="edge">
            <path fill="none" d="M924.05 395.16c-15.37 1.85-31.23 3.56-46.19 4.84-46.21 3.94-801.92 2.51-834 36-11.07 11.56-9.61 23.21 0 36 69.23 92.08 135.09 54.79 249 72 279.18 42.19 2316.99 51.24 2773.45 52.74"/>
            <path d="m3066.25 593.24 9.99 3.53-10.01 3.47z"/>
        </g>
        <g stroke="#000" class="edge">
            <path fill="none" d="m1071.06 398.1 150.95 37.88"/>
            <path d="m1222.79 432.56 8.85 5.83-10.56.96z"/>
        </g>
        <g class="node" transform="translate(4 616)">
            <ellipse cx="1049.86" cy="-162" fill="none" stroke="#000" rx="80.01" ry="18"/>
            <text x="1049.86" y="-156.95" font-family="Times,serif" font-size="14" text-anchor="middle">:library:koin-room</text>
        </g>
        <g stroke="#000" class="edge">
            <path fill="none" d="M1021.49 400.3c4.79 7.8 10.56 17.19 15.89 25.87"/>
            <path d="m1040.31 424.25 2.25 10.36-8.22-6.69z"/>
        </g>
        <g class="node" transform="translate(4 616)">
            <ellipse cx="890.86" cy="-162" fill="none" stroke="#000" rx="60.56" ry="18"/>
            <text x="890.86" y="-156.95" font-family="Times,serif" font-size="14" text-anchor="middle">:library:room</text>
        </g>
        <g stroke="#000" class="edge">
            <path fill="none" d="M982.78 399.95c-15.81 9.53-35.7 21.54-52.56 31.71"/>
            <path d="m932.36 434.46-10.37 2.17 6.76-8.17z"/>
        </g>
        <g stroke="#000" class="edge">
            <path fill="none" d="M1511.38 399.61c-21.36 9.47-47.61 22.25-69.52 36.39-20.94 13.51-20.53 25.21-43 36-73.15 35.13-127.59-26.78-179 36-10.14 12.38-11.16 24.53 0 36 32.59 33.49 1468.65 48.78 1846.63 52.23"/>
            <path d="m3066.41 592.73 9.97 3.59-10.03 3.4z"/>
        </g>
        <g stroke="#000" class="edge">
            <path fill="none" d="M1614.93 398.28c45.81 11.09 107.85 26.12 155.33 37.62"/>
            <path d="m1771.02 432.48 8.89 5.76-10.54 1.04z"/>
        </g>
        <g stroke="#000" class="edge">
            <path fill="none" d="M1462.25 395.6c-94.26 13.24-241.09 33.88-330.63 46.47"/>
            <path d="m1132.34 445.5-10.39-2.07 9.42-4.86z"/>
        </g>
        <g stroke="#000" class="edge">
            <path fill="none" d="M1457.11 394.94c-15.45 1.8-31.29 3.55-46.25 5.06-197.87 19.91-249.65 4.44-446 36-4.93.79-10.02 1.75-15.1 2.8"/>
            <path d="m950.7 442.18-10.51-1.27 9.01-5.57z"/>
        </g>
        <g stroke="#000" class="edge">
            <path fill="none" d="M659.02 466.73c18.98 1.83 38.46 3.65 56.84 5.27 206.93 18.22 259.09 17.6 466 36 19.49 1.73 40.23 3.71 60.26 5.69"/>
            <path d="m1242.38 510.19 9.6 4.48-10.3 2.49z"/>
        </g>
        <g class="node" transform="translate(4 616)">
            <ellipse cx="485.86" cy="-90" fill="none" stroke="#000" rx="93.32" ry="18"/>
            <text x="485.86" y="-84.95" font-family="Times,serif" font-size="14" text-anchor="middle">:library:koin-datastore</text>
        </g>
        <g stroke="#000" class="edge">
            <path fill="none" d="M530.51 472.3c-6.21 8.06-13.73 17.81-20.61 26.72"/>
            <path d="m512.86 500.92-8.88 5.78 3.34-10.06z"/>
        </g>
        <g stroke="#000" class="edge">
            <path fill="none" d="M1241.81 399.63c-18.78 9.56-41.89 22.44-60.95 36.37-18.78 13.73-17.15 25.67-38 36-92.57 45.85-293.18-1.91-221 72 38.08 39 1731.32 50.37 2144.69 52.57"/>
            <path d="m3066.33 593.06 9.98 3.56-10.02 3.44z"/>
        </g>
        <g stroke="#000" class="edge">
            <path fill="none" d="M1365.43 395.01c15.14 1.83 30.72 3.58 45.43 4.99 242.96 23.37 304.53 18.81 548 36 40.01 2.83 84.01 6.11 122.41 9.04"/>
            <path d="m2081.25 441.52 9.71 4.25-10.24 2.73z"/>
        </g>
        <g stroke="#000" class="edge">
            <path fill="none" d="M1226.26 398.88c-34.71 10.9-80.76 25.36-116.54 36.59"/>
            <path d="m1111 438.73-10.59-.34 8.49-6.34z"/>
        </g>
        <g stroke="#000" class="edge">
            <path fill="none" d="M1192.8 395.64c-62.96 9.87-151.12 24.53-227.94 40.36-4.55.94-9.25 1.96-13.96 3.02"/>
            <path d="m951.95 442.37-10.53-1.15 8.95-5.67z"/>
        </g>
        <g stroke="#000" class="edge">
            <path fill="none" d="M234.96 472.21c33.23 21.64 94.46 57.69 152.9 71.79 200 48.24 3497.33 31.05 3703 36 125.86 3.03 271.76 9.13 360.69 13.14"/>
            <path d="m4451.57 589.63 9.83 3.95-10.15 3.05z"/>
        </g>
        <g stroke="#000" class="edge">
            <path fill="none" d="M323.01 466.88c18.01 1.78 36.43 3.55 53.85 5.12 194.86 17.57 421.68 34.69 556.52 44.53"/>
            <path d="m933.31 513.01 9.71 4.22L932.8 520z"/>
        </g>
        <g stroke="#000" class="edge">
            <path fill="none" d="M273.4 470.88c44.86 11.22 104.85 26.22 150.29 37.58"/>
            <path d="m424.3 505 8.85 5.82-10.55.97z"/>
        </g>
        <g stroke="#000" class="edge">
            <path fill="none" d="M618.63 390.82C419.67 404.23 36.79 430.68 31.86 436c-33.37 35.98 32.78 101.58 44 108 66.59 38.1 2488.74 50.48 2990.56 52.64"/>
            <path d="m3066.42 593.14 9.98 3.54-10.01 3.46z"/>
        </g>
        <g stroke="#000" class="edge">
            <path fill="none" d="M746.98 400.14c14.85 21.22 43.36 56.44 77.88 71.86 133.51 59.63 511.49 21.65 657 36 9.66.95 19.73 2.12 29.76 3.39"/>
            <path d="m1511.92 507.9 9.46 4.77-10.37 2.17z"/>
        </g>
        <g stroke="#000" class="edge">
            <path fill="none" d="M803.69 397.93c54.07 11.9 129.38 28.48 183.22 40.33"/>
            <path d="m987.56 434.82 9.02 5.57-10.52 1.27z"/>
        </g>
        <g stroke="#000" class="edge">
            <path fill="none" d="M773.54 399.59c23.44 10.32 53.66 23.62 78.07 34.37"/>
            <path d="m852.9 430.7 7.74 7.24-10.56-.83z"/>
        </g>
        <g stroke="#000" class="edge">
            <path fill="none" d="M5879.49 250.25c-67.77 12.41-176.75 32.39-248.53 45.54"/>
            <path d="m5631.72 299.21-10.46-1.64 9.2-5.25z"/>
        </g>
        <g stroke="#000" class="edge">
            <path fill="none" d="M5962.07 255.59c21.51 18.81 49.1 49.79 29.79 72.41-28.28 33.13-136.21 45.66-221.63 50.33"/>
            <path d="m5770.55 381.82-10.17-2.98 9.81-4.01z"/>
        </g>
        <g stroke="#000" class="edge">
            <path fill="none" d="M5859.7 240.45c-160.14 3.58-527.94 15.34-834.84 51.55-7.24.85-14.76 1.91-22.26 3.07"/>
            <path d="m5003.2 298.52-10.43-1.86 9.31-5.05z"/>
        </g>
        <g stroke="#000" class="edge">
            <path fill="none" d="M5972.43 254.99c13.88 8.85 28.74 21.27 36.43 37.01 7.02 14.38 6.74 21.49 0 36-22.14 47.68-72.42 83.74-108.22 104.59"/>
            <path d="m5902.71 435.44-10.43 1.88 6.98-7.97z"/>
        </g>
        <g stroke="#000" class="edge">
            <path fill="none" d="M6020.69 242.09c138.98 6.1 413.83 21.61 447.17 49.91 31.23 26.51 24 48.03 24 89v74c0 107.91-814.77 134.85-1066.69 140.61"/>
            <path d="m5425.55 599.1-10.08-3.28 9.92-3.72z"/>
        </g>
        <g stroke="#000" class="edge">
            <path fill="none" d="M5865.64 245.37c-154.17 13.05-505.12 42.75-667.04 56.46"/>
            <path d="m5199.04 305.3-10.26-2.64 9.67-4.33z"/>
        </g>
        <g stroke="#000" class="edge">
            <path fill="none" d="M5981.43 253.83c16.9 8.43 34.81 20.84 44.43 38.17 43.99 79.28-16.7 136.05-96 180-3.8 2.1-1243.66 71.82-1248 72-620.11 25.88-777.26-12.61-1396 36-17.37 1.36-35.97 3.45-53.5 5.7"/>
            <path d="m3232.9 589.16-10.38-2.17 9.46-4.77z"/>
        </g>
        <g stroke="#000" class="edge">
            <path fill="none" d="M6020.22 242.58c123.98 6.41 352.08 21.84 376.64 49.42 10.64 11.95 8.61 22.52 0 36-82.02 128.35-164.29 103.03-311 144-280.55 78.34-1188.65 113.37-1468.87 122.49"/>
            <path d="m4617.32 597.98-10.11-3.18 9.88-3.82z"/>
        </g>
        <g stroke="#000" class="edge">
            <path fill="none" d="M5921.49 255.95c-9.75 8.53-21.76 19.04-32.51 28.44"/>
            <path d="m5891.29 287.02-9.83 3.95 5.22-9.22z"/>
        </g>
        <g stroke="#000" class="edge">
            <path fill="none" d="M5861.09 241.94c-96.97 3.54-265.59 9.56-410.23 14.06-363.5 11.3-1498.25 41.58-1833.7 50.5"/>
            <path d="m3617.64 309.99-10.09-3.24 9.91-3.76z"/>
        </g>
        <g stroke="#000" class="edge">
            <path fill="none" d="M5952.16 256.27c11.55 20.03 25.38 52.73 6.7 71.73-41.23 41.94-2058.3 32.31-2117 36-27 1.7-56.53 4.64-82.56 7.6"/>
            <path d="m3759.84 375.06-10.34-2.33 9.53-4.62z"/>
        </g>
        <g stroke="#000" class="edge">
            <path fill="none" d="M4625.17 250.96c9.47 1.96 19.35 3.76 28.69 5.04 79.18 10.88 602.54 37.86 815.3 48.55"/>
            <path d="m5469.26 301.05 9.81 3.99-10.16 3z"/>
        </g>
        <g stroke="#000" class="edge">
            <path fill="none" d="M4604.89 254.6c40.53 20.93 117.01 57.32 186.97 73.4 36.41 8.37 536.03 35.54 759.86 47.39"/>
            <path d="m5551.83 371.89 9.8 4.02-10.17 2.97z"/>
        </g>
        <g stroke="#000" class="edge">
            <path fill="none" d="M4627.01 250.34c8.94 1.93 18.16 3.88 26.85 5.66 68.19 13.98 146.1 28.84 201.72 39.25"/>
            <path d="m4856.07 291.78 9.18 5.28-10.47 1.61z"/>
        </g>
        <g stroke="#000" class="edge">
            <path fill="none" d="M4601.87 255c34.68 20.51 98.59 55.51 157.99 73 125.86 37.06 162.88 19.2 293 36 118.32 15.27 147.5 22.19 266 36 170.23 19.84 371.12 38.15 473.92 47.16"/>
            <path d="m5793.05 443.67 9.66 4.36-10.27 2.61z"/>
        </g>
        <g stroke="#000" class="edge">
            <path fill="none" d="M4587.74 256.17c15.53 20.92 44.81 55.47 79.12 71.83 125.2 59.7 176.66-2.2 310 36 35.93 10.29 41.16 22.47 76 36 76.07 29.54 302.52 42.35 351 108 15.47 20.94-3.44 46.82-22.64 65.27"/>
            <path d="m5383.66 575.78-9.76 4.13 5.05-9.32z"/>
        </g>
        <g stroke="#000" class="edge">
            <path fill="none" d="M4625.63 250.76c9.34 1.95 19.06 3.8 28.23 5.24 164.1 25.73 207.61 12.22 372 36 6.41.93 13.07 2 19.72 3.15"/>
            <path d="m5046 291.67 9.23 5.21-10.47 1.68z"/>
        </g>
        <g stroke="#000" class="edge">
            <path fill="none" d="M4508.23 241.52c-109.04 4.95-318.15 18.41-384.37 50.48-61.09 29.59-49.18 74.11-108 108-215.58 124.23-297.79 91.49-541 144-81.54 17.61-175.93 32.68-240.57 42.2"/>
            <path d="m3234.88 589.65-10.4-2.02 9.39-4.91z"/>
        </g>
        <g stroke="#000" class="edge">
            <path fill="none" d="M4569.01 256.36c-6.56 19.82-13.17 52.02 3.85 71.64 37.06 42.73 198.91 16.46 252 36 111.92 41.19 278.66 91.25 199 180-26.62 29.66-274.05 44.22-406.77 49.95"/>
            <path d="m4617.44 597.44-10.14-3.08 9.84-3.92z"/>
        </g>
        <g stroke="#000" class="edge">
            <path fill="none" d="M4624.73 251.05c9.6 1.97 19.64 3.75 29.13 4.95 439.04 55.34 553.23 10.31 995 36 39.5 2.3 83.08 5.65 120.4 8.77"/>
            <path d="m5769.46 297.28 9.67 4.33-10.26 2.64z"/>
        </g>
        <g stroke="#000" class="edge">
            <path fill="none" d="M4509.99 243.38c-181.4 12.06-688.53 45.77-896.45 59.59"/>
            <path d="m3613.79 306.46-10.21-2.83 9.75-4.15z"/>
        </g>
        <g stroke="#000" class="edge">
            <path fill="none" d="M4508.31 241.87c-104.98 5.25-313.34 18.91-487.45 50.13-100.79 18.07-215.59 51.44-281.26 71.79"/>
            <path d="m3740.75 367.1-10.59-.37 8.5-6.32z"/>
        </g>
        <g stroke="#000" class="edge">
            <path fill="none" d="M5654.71 184.13c-18.82 24.52-53.61 69.84-75.69 98.61"/>
            <path d="m5581.84 284.81-8.86 5.8 3.31-10.06z"/>
        </g>
        <g stroke="#000" class="edge">
            <path fill="none" d="M5691.07 183.63c10.95 9.3 22.89 21.93 28.79 36.37 18.16 44.43 19.91 64.32 0 108-5.21 11.43-14.25 21.36-23.79 29.42"/>
            <path d="m5698.49 359.98-10.04 3.39 5.73-8.91z"/>
        </g>
        <g stroke="#000" class="edge">
            <path fill="none" d="M5581.23 170.12c-98.91 4.99-265.06 17.75-404.37 49.88-72.05 16.62-151.98 47.92-200.86 68.61"/>
            <path d="m4977.42 291.81-10.57.71 7.82-7.14z"/>
        </g>
        <g stroke="#000" class="edge">
            <path fill="none" d="M5756.23 168.22c176.33 4.54 561.76 25.72 640.63 123.78 127.7 158.78 387.8-54.2-308 108-58.14 13.55-124.62 29-170.73 39.71"/>
            <path d="m5919.16 443.06-10.53-1.15 8.95-5.67z"/>
        </g>
        <g stroke="#000" class="edge">
            <path fill="none" d="M5757.04 166.05c125.67.52 361.24 8.33 555.82 53.95 130.49 30.59 255 26.97 255 161v74c0 111.27-125.15 65.95-234 89-173.39 36.72-711.41 48.74-908.6 51.97"/>
            <path d="m5425.45 599.47-10.05-3.34 9.94-3.66z"/>
        </g>
        <g stroke="#000" class="edge">
            <path fill="none" d="M5585.12 172.81c-104.78 8.15-278.94 24.55-339.26 47.19-39.87 14.97-79.56 44.16-104.85 65.03"/>
            <path d="m5143.43 287.56-9.9 3.76 5.4-9.11z"/>
        </g>
        <g stroke="#000" class="edge">
            <path fill="none" d="M5671.72 184.25c6.21 32.72 14.26 104.09-22.86 143.75-29.96 32.01-150.89 27.98-194 36-343.58 63.88-434.54 57-773 144-49.41 12.7-58.75 27.19-109 36-281.82 49.39-1001.79 13.28-1287 36-17.36 1.38-35.97 3.48-53.5 5.72"/>
            <path d="m3232.9 589.18-10.37-2.16 9.45-4.78z"/>
        </g>
        <g stroke="#000" class="edge">
            <path fill="none" d="M5676.3 184.39c14.18 32.02 38.21 100.94 5.56 143.61-37.22 48.63-75.64 14.55-133 36-137.4 51.39-168.51 73.22-297 144-26.57 14.64-29.18 26.52-58 36-104.8 34.47-423.49 47.05-576.4 51.18"/>
            <path d="m4617.9 598.67-10.09-3.23 9.9-3.77z"/>
        </g>
        <g stroke="#000" class="edge">
            <path fill="none" d="M5698.72 183.35c17.78 9.87 40.28 23.12 59.14 36.65 27.6 19.8 56.67 45.42 76.87 64.09"/>
            <path d="m5837.05 281.46 4.92 9.38-9.7-4.26z"/>
        </g>
        <g stroke="#000" class="edge">
            <path fill="none" d="M5581.98 170.76c-98.78 5.68-253.7 19.18-303.12 49.24-50.14 30.5-27.93 74.32-76 108-27.8 19.48-489 137.02-662.07 180.68"/>
            <path d="m4541.83 512.03-10.55-.95 8.84-5.84z"/>
        </g>
        <g stroke="#000" class="edge">
            <path fill="none" d="M5580.96 170.18c-314.4 11.5-1391.74 50.9-1726.82 63.15"/>
            <path d="m3854.65 236.82-10.12-3.14 9.86-3.86z"/>
        </g>
        <g class="node" transform="translate(4 616)">
            <ellipse cx="6268.86" cy="-306" fill="none" stroke="#000" rx="115.33" ry="18"/>
            <text x="6268.86" y="-300.95" font-family="Times,serif" font-size="14" text-anchor="middle">:app:core:calendar-compose</text>
        </g>
        <g stroke="#000" class="edge">
            <path fill="none" d="M5756.59 167.29c75.9 3.15 186.62 14.78 275.27 52.71 23.87 10.21 22.79 24.37 46 36 33.96 17.02 74.08 29.13 109.07 37.43"/>
            <path d="m6187.66 290.01 8.96 5.64-10.53 1.18z"/>
        </g>
        <g stroke="#000" class="edge">
            <path fill="none" d="M5405.53 253.67c29.55 10.67 69.77 25.18 101.6 36.66"/>
            <path d="m5507.93 286.9 8.22 6.69-10.59-.1z"/>
        </g>
        <g stroke="#000" class="edge">
            <path fill="none" d="M5384.34 255.85c29.44 25.45 82.11 70.86 84.52 72.15 33.4 17.81 73.38 30.12 108.03 38.36"/>
            <path d="m5577.5 362.91 8.96 5.65-10.53 1.18z"/>
        </g>
        <g stroke="#000" class="edge">
            <path fill="none" d="M5301.19 248.49c-68.37 10.29-180.14 27.41-276.33 43.51-6.67 1.12-13.6 2.3-20.54 3.51"/>
            <path d="m5005.39 298.88-10.45-1.72 9.24-5.18z"/>
        </g>
        <g stroke="#000" class="edge">
            <path fill="none" d="M5373.55 256.06c10.43 19.24 29.42 50.62 52.31 71.94 46.36 43.17 63.47 50.34 123 72 80.37 29.24 178.35 42.52 242.81 48.43"/>
            <path d="m5791.75 444.92 9.65 4.37-10.26 2.61z"/>
        </g>
        <g stroke="#000" class="edge">
            <path fill="none" d="M5368.4 256.33c4.15 18.39 11.95 48 23.46 71.67 48.61 99.95 191.56 126.25 126 216-21.5 29.43-59.52 42.9-93.75 48.91"/>
            <path d="m5425.06 596.3-10.42-1.92 9.35-4.99z"/>
        </g>
        <g stroke="#000" class="edge">
            <path fill="none" d="M5316.76 252.41c-40.72 11.36-99.29 27.69-143.04 39.9"/>
            <path d="m5174.68 295.67-10.57-.68 8.69-6.06z"/>
        </g>
        <g stroke="#000" class="edge">
            <path fill="none" d="M5345.09 255.82c-24.82 20.22-69.45 53.73-113.23 72.18-89.26 37.62-758.43 159.04-853 180-69.05 15.3-84.9 26.6-155 36-413.5 55.44-522.3.71-938 36-17.26 1.47-35.76 3.58-53.21 5.82"/>
            <path d="m3233.24 589.27-10.37-2.16 9.45-4.78z"/>
        </g>
        <g stroke="#000" class="edge">
            <path fill="none" d="M5359.22 256.22c-18.7 54.01-84.38 220.42-203.36 287.78-45.82 25.94-380.51 43.04-539.09 49.77"/>
            <path d="m4617.31 597.25-10.14-3.08 9.84-3.91z"/>
        </g>
        <g stroke="#000" class="edge">
            <path fill="none" d="M5429.45 248.12c89.34 12.6 250.66 35.37 348.71 49.21"/>
            <path d="m5778.59 293.85 9.41 4.87-10.39 2.07z"/>
        </g>
        <g stroke="#000" class="edge">
            <path fill="none" d="M5341.77 255.55c-30.28 20.78-85.81 55.7-138.91 72.45-140.7 44.38-184.2 13.43-330 36-240.58 37.24-296.66 69.25-537 108-118.91 19.17-257.1 34.9-345.26 44.11"/>
            <path d="m3991.12 519.58-10.31-2.45 9.58-4.52z"/>
        </g>
        <g stroke="#000" class="edge">
            <path fill="none" d="M5291.52 243.7c-190.16 12.19-699.36 44.83-917.35 58.81"/>
            <path d="m4374.46 305.99-10.2-2.85 9.75-4.13z"/>
        </g>
        <g stroke="#000" class="edge">
            <path fill="none" d="M4827.26 245.78c152.47 13.17 487.81 42.15 645.91 55.82"/>
            <path d="m5473.08 298.07 9.66 4.35-10.27 2.63z"/>
        </g>
        <g stroke="#000" class="edge">
            <path fill="none" d="M4762.6 256.12c19.28 23.51 53.93 63.8 71.26 71.88 8.06 3.76 498.66 33.5 719.4 46.71"/>
            <path d="m5553.24 371.2 9.77 4.09-10.19 2.9z"/>
        </g>
        <g stroke="#000" class="edge">
            <path fill="none" d="M4788.58 254.36c26.76 10.35 62.28 24.09 91.01 35.2"/>
            <path d="m4880.76 286.26 8.06 6.87-10.59-.34z"/>
        </g>
        <g stroke="#000" class="edge">
            <path fill="none" d="M4751.89 256.48c4.64 20.9 15.66 55.09 39.97 71.52 48.62 32.87 469 27.03 527 36 66.9 10.34 81.47 23.47 148 36 114.1 21.49 248.38 37.62 327.05 46.16"/>
            <path d="m5794.03 442.65 9.57 4.55-10.32 2.41z"/>
        </g>
        <g stroke="#000" class="edge">
            <path fill="none" d="M4745.36 256.41c-2.94 20.16-4.11 52.99 14.5 71.59 46.4 46.37 229.25 20.51 293 36 179.14 43.53 283.67-7.3 389 144 9.14 13.13 7.94 22.11 0 36-8.86 15.5-24.21 26.91-39.75 35.09"/>
            <path d="m5403.82 582.15-10.53 1.2 7.48-7.5z"/>
        </g>
        <g stroke="#000" class="edge">
            <path fill="none" d="M4811.02 250.86c56.15 10.72 141.03 26.95 214.84 41.14 5.83 1.12 11.87 2.28 17.93 3.45"/>
            <path d="m5044.05 291.94 9.16 5.33-10.49 1.54z"/>
        </g>
        <g stroke="#000" class="edge">
            <path fill="none" d="M4724.99 255.55c-59.87 40.97-222.18 148.7-369.13 216.45-89.98 41.49-113.61 53.74-211 72-375.57 70.42-478.31 3.01-859 36-17.17 1.49-35.56 3.6-52.92 5.83"/>
            <path d="m3233.57 589.28-10.37-2.17 9.46-4.77z"/>
        </g>
        <g stroke="#000" class="edge">
            <path fill="none" d="M4720.33 255.37c-12.76 9.01-26.48 21.45-33.47 36.63-6.7 14.53-10.26 23.72 0 36 57.62 68.98 113.72 7.62 199 36 67.89 22.6 99.23 16.18 144 72 30.45 37.96 50.6 71.87 18 108-28.26 31.32-292.45 45.23-430.64 50.4"/>
            <path d="m4617.51 597.89-10.12-3.13 9.86-3.86z"/>
        </g>
        <g stroke="#000" class="edge">
            <path fill="none" d="M4831.72 243.29c158.67 8.35 516.37 27.8 817.14 48.71 39.22 2.73 82.5 6.13 119.66 9.17"/>
            <path d="m5768.66 297.67 9.68 4.3-10.25 2.67z"/>
        </g>
        <g stroke="#000" class="edge">
            <path fill="none" d="M4687.42 250.95c-11.14 1.89-22.67 3.68-33.56 5.05-107.44 13.56-392.58-18.77-486 36-82.73 48.51-43.55 120.8-119 180-22.08 17.32-50.29 29.28-76.15 37.38"/>
            <path d="m3973.82 512.7-10.58-.5 8.59-6.21z"/>
        </g>
        <g stroke="#000" class="edge">
            <path fill="none" d="M4685.81 250.64c-10.65 1.86-21.61 3.72-31.95 5.36-99.8 15.86-214.72 31.49-292.03 41.62"/>
            <path d="m4362.57 301.05-10.37-2.17 9.47-4.77z"/>
        </g>
        <g class="node" transform="translate(4 616)">
            <ellipse cx="2999.86" cy="-90" fill="none" stroke="#000" rx="106.11" ry="18"/>
            <text x="2999.86" y="-84.95" font-family="Times,serif" font-size="14" text-anchor="middle">:library:firebase-common</text>
        </g>
        <g stroke="#000" class="edge">
            <path fill="none" d="M3015.15 472.3c-1.58 7.38-3.46 16.18-5.24 24.45"/>
            <path d="m3013.36 497.37-5.52 9.05-1.32-10.52z"/>
        </g>
        <g stroke="#000" class="edge">
            <path fill="none" d="M2193.37 472.2c12.85 21.28 37.93 56.57 70.49 71.8 98.79 46.23 872.35 26.4 981 36 16.48 1.46 34.15 3.6 50.76 5.89"/>
            <path d="m3296.01 582.4 9.41 4.87-10.39 2.07z"/>
        </g>
        <g stroke="#000" class="edge">
            <path fill="none" d="M1679.1 539.09c15.15 1.95 30.92 3.72 45.76 4.91 673.59 53.98 846.51-19.1 1520 36 16.58 1.36 34.35 3.48 51.03 5.77"/>
            <path d="m3296.33 582.29 9.41 4.87-10.39 2.06z"/>
        </g>
        <g stroke="#000" class="edge">
            <path fill="none" d="M1920.74 466.63c53.37 8.82 124.76 22.62 186.12 41.37 39.63 12.11 45.52 27.15 86 36 228.51 49.98 818.97 15.7 1052 36 16.48 1.44 34.16 3.58 50.76 5.86"/>
            <path d="m3296.01 582.38 9.41 4.86-10.39 2.07z"/>
        </g>
        <g stroke="#000" class="edge">
            <path fill="none" d="M938.3 466.91c8.73 2.01 17.9 3.84 26.56 5.09 166.26 23.93 598.54-25.11 755 36 23.22 9.07 19.64 27.31 43 36 121.23 45.11 2198.7 32.52 2328 36 125.67 3.38 271.32 9.37 360.29 13.26"/>
            <path d="m4451.17 589.76 9.84 3.93-10.15 3.06z"/>
        </g>
        <g stroke="#000" class="edge">
            <path fill="none" d="M6187.89 322.47c-14.68 1.9-29.79 3.81-44.03 5.53-134.28 16.18-289.74 32.8-387.71 43.01"/>
            <path d="m5756.6 374.48-10.31-2.44 9.58-4.52z"/>
        </g>
        <g stroke="#000" class="edge">
            <path fill="none" d="M6224.04 326.76c-30.67 10.13-70.95 23.86-106.18 37.24-38.74 14.71-47.05 21.85-86 36-39.01 14.17-83.86 27.98-117.83 37.95"/>
            <path d="m5915.43 441.19-10.58-.57 8.62-6.15z"/>
        </g>
        <g stroke="#000" class="edge">
            <path fill="none" d="M6254.91 328.12c-37.5 34.53-128.34 111.93-221.05 143.88-106.58 36.73-394.12 22.19-506 36-91.37 11.28-112.6 24.9-204 36-256.42 31.14-562.05 45.12-706.49 50.35"/>
            <path d="m4617.63 597.85-10.12-3.14 9.87-3.86z"/>
        </g>
    </g>
</svg>
