<svg xmlns="http://www.w3.org/2000/svg" width="9692" height="620pt" viewBox="0 0 7268.58 620">
    <g class="graph">
        <path fill="#fff" d="M0 620V0h7268.58v620z"/>
        <g class="node" transform="translate(4 616)">
            <ellipse cx="797.58" cy="-594" fill="none" stroke="#000" rx="78.99" ry="18"/>
            <text x="797.58" y="-588.95" font-family="Times,serif" font-size="14" text-anchor="middle">:app:platform:jvm</text>
        </g>
        <g class="node" transform="translate(4 616)">
            <ellipse cx="3681.58" cy="-522" fill="none" stroke="#000" rx="97.41" ry="18"/>
            <text x="3681.58" y="-516.95" font-family="Times,serif" font-size="14" text-anchor="middle">:app:platform:common</text>
        </g>
        <g stroke="red" stroke-width="2" class="edge">
            <path fill="none" d="M879.84 24.9c401.99 9.76 2233.77 54.22 2698.36 65.49"/>
            <path fill="red" d="m3576.64 86.85 9.92 3.75-10.09 3.25z"/>
        </g>
        <g class="node" transform="translate(4 616)">
            <ellipse cx="892.58" cy="-450" fill="none" stroke="#000" rx="86.15" ry="18"/>
            <text x="892.58" y="-444.95" font-family="Times,serif" font-size="14" text-anchor="middle">:app:core:coroutines</text>
        </g>
        <g stroke="#000" class="edge">
            <path fill="none" d="M813.04 40.13c16.33 24.41 46.46 69.44 65.72 98.23"/>
            <path d="m881.59 136.3 2.65 10.25-8.47-6.36z"/>
        </g>
        <g class="node" transform="translate(4 616)">
            <ellipse cx="1945.58" cy="-162" fill="none" stroke="#000" rx="95.88" ry="18"/>
            <text x="1945.58" y="-156.95" font-family="Times,serif" font-size="14" text-anchor="middle">:app:core:diary-service</text>
        </g>
        <g stroke="#000" class="edge">
            <path fill="none" d="M795.22 40c-10.88 32.3-28.66 102.97 6.36 144 165.37 193.74 950.08 1.72 1132 180 15.69 15.38 19.01 40.54 18.79 60.2"/>
            <path d="m1955.87 424.24-3.94 9.83-3.05-10.15z"/>
        </g>
        <g class="node" transform="translate(4 616)">
            <ellipse cx="104.58" cy="-162" fill="none" stroke="#000" rx="104.58" ry="18"/>
            <text x="104.58" y="-156.95" font-family="Times,serif" font-size="14" text-anchor="middle">:app:core:holiday-service</text>
        </g>
        <g stroke="#000" class="edge">
            <path fill="none" d="M722.93 24.62C555.83 30.19 180.58 54.96 180.58 165v146c0 44.51-28.48 89.2-49.62 116.24"/>
            <path d="m133.81 429.29-9.01 5.57 3.56-9.97z"/>
        </g>
        <g class="node" transform="translate(4 616)">
            <ellipse cx="345.58" cy="-162" fill="none" stroke="#000" rx="80.01" ry="18"/>
            <text x="345.58" y="-156.95" font-family="Times,serif" font-size="14" text-anchor="middle">:library:koin-room</text>
        </g>
        <g stroke="#000" class="edge">
            <path fill="none" d="M729.23 29.59C596.72 43.67 328.58 82.37 328.58 165v146c0 39.69 8.13 84.95 14.27 113.49"/>
            <path d="M346.24 423.63 345 434.16l-5.59-9z"/>
        </g>
        <g class="node" transform="translate(4 616)">
            <ellipse cx="6878.58" cy="-162" fill="none" stroke="#000" rx="93.32" ry="18"/>
            <text x="6878.58" y="-156.95" font-family="Times,serif" font-size="14" text-anchor="middle">:library:koin-datastore</text>
        </g>
        <g stroke="#000" class="edge">
            <path fill="none" d="M880.41 24.26C1225.12 29.79 2634.37 52.72 3791.58 76c355.35 7.15 2892.75-110.07 3198 72 107.03 63.84 200.6 154.48 123 252-17.37 21.83-81.34 35.43-137.42 43.38"/>
            <path d="m6975.95 446.81-10.38-2.12 9.43-4.82z"/>
        </g>
        <g stroke="#000" class="edge">
            <path fill="none" d="M3587.83 94.98c-419.98.2-2073.36 4.17-2591.25 53.02-8.75.83-17.89 1.98-26.94 3.29"/>
            <path d="m970.18 154.75-10.42-1.94 9.36-4.98z"/>
        </g>
        <g stroke="#000" class="edge">
            <path fill="none" d="M3587.77 94.38c-304.48-1.35-1222.36-.82-1344.19 53.62-69.42 31.02-218.5 210.91-273.27 278.95"/>
            <path d="m1973.16 428.99-8.99 5.61 3.53-9.99z"/>
        </g>
        <g stroke="#000" class="edge">
            <path fill="none" d="M3587.89 95.08c-464.7.59-2434.16 5.89-2555.31 52.92-22.61 8.78-19.68 24.45-41 36-2.04 1.11-641.79 179.28-644 180-65.96 21.46-140.69 49.98-188.76 68.89"/>
            <path d="m160.39 436.03-10.59.42 8.02-6.93z"/>
        </g>
        <g class="node" transform="translate(4 616)">
            <ellipse cx="5702.58" cy="-306" fill="none" stroke="#000" rx="81.04" ry="18"/>
            <text x="5702.58" y="-300.95" font-family="Times,serif" font-size="14" text-anchor="middle">:app:core:compose</text>
        </g>
        <g stroke="#000" class="edge">
            <path fill="none" d="M3783.07 95.45c324.86 1.87 1368.8 11.05 1702.51 52.55 146.82 18.26 232.39-43.37 325 72 10.02 12.48 8.36 22.36 0 36-9.73 15.88-25.89 27.19-42.59 35.17"/>
            <path d="m5769.52 294.32-10.57.79 7.77-7.21z"/>
        </g>
        <g class="node" transform="translate(4 616)">
            <ellipse cx="5836.58" cy="-162" fill="none" stroke="#000" rx="101" ry="18"/>
            <text x="5836.58" y="-156.95" font-family="Times,serif" font-size="14" text-anchor="middle">:app:core:design-system</text>
        </g>
        <g stroke="#000" class="edge">
            <path fill="none" d="M3783.36 94.59c270.94-.47 1027.33 2.92 1270.22 53.41 86.38 17.96 108.8 27.52 185 72 21.82 12.74 23.13 21.75 44 36 107.81 73.61 133.06 100.09 256 144 64.87 23.17 141.33 36.46 201.08 43.94"/>
            <path d="m5739.99 440.45 9.51 4.68-10.35 2.27z"/>
        </g>
        <g class="node" transform="translate(4 616)">
            <ellipse cx="6002.58" cy="-306" fill="none" stroke="#000" rx="86.67" ry="18"/>
            <text x="6002.58" y="-300.95" font-family="Times,serif" font-size="14" text-anchor="middle">:app:core:navigation</text>
        </g>
        <g stroke="#000" class="edge">
            <path fill="none" d="M3782.85 95.65c370.11 2.77 1678.84 15.1 1861.73 52.35 126.99 25.87 263.15 100.87 326.19 138.67"/>
            <path d="m5972.2 283.45 6.75 8.17-10.37-2.18z"/>
        </g>
        <g class="node" transform="translate(4 616)">
            <ellipse cx="6111.58" cy="-90" fill="none" stroke="#000" rx="59.54" ry="18"/>
            <text x="6111.58" y="-84.95" font-family="Times,serif" font-size="14" text-anchor="middle">:library:color</text>
        </g>
        <g stroke="#000" class="edge">
            <path fill="none" d="M3782.9 95.61c449.45 2.97 2313.5 17.34 2571.68 52.39 128.18 17.4 193.22-22.08 282 72 87.93 93.18-20.53 205.71-140 252-102.83 39.84-231.52 50.34-309.93 52.77"/>
            <path d="m6187.06 528.26-10.09-3.23 9.9-3.77z"/>
        </g>
        <g class="node" transform="translate(4 616)">
            <ellipse cx="5327.58" cy="-18" fill="none" stroke="#000" rx="62.1" ry="18"/>
            <text x="5327.58" y="-12.95" font-family="Times,serif" font-size="14" text-anchor="middle">:library:kotlin</text>
        </g>
        <g stroke="#000" class="edge">
            <path fill="none" d="M3751.78 107.55c11.88 1.82 24.18 3.42 35.8 4.45 177.21 15.67 3035.32-26.18 3202 36 150.09 55.99 275 72.81 275 233v74c0 165.25-197.32 66.32-361 89-295.16 40.9-1229.53 50.58-1498.75 52.55"/>
            <path d="m5405.18 600.05-10.02-3.43 9.97-3.57z"/>
        </g>
        <g class="node" transform="translate(4 616)">
            <ellipse cx="6421.58" cy="-306" fill="none" stroke="#000" rx="79.5" ry="18"/>
            <text x="6421.58" y="-300.95" font-family="Times,serif" font-size="14" text-anchor="middle">:library:navigation</text>
        </g>
        <g stroke="#000" class="edge">
            <path fill="none" d="M3783.02 95.39c460.19 2.02 2398.73 12.89 2520.56 52.61 53.1 17.31 72.13 25.45 103 72 11.89 17.93 16.51 41.97 18.22 60.54"/>
            <path d="m6428.28 280.12-2.82 10.21-4.16-9.74z"/>
        </g>
        <g class="node" transform="translate(4 616)">
            <ellipse cx="2259.58" cy="-18" fill="none" stroke="#000" rx="78.99" ry="18"/>
            <text x="2259.58" y="-12.95" font-family="Times,serif" font-size="14" text-anchor="middle">:library:coroutines</text>
        </g>
        <g stroke="#000" class="edge">
            <path fill="none" d="M3588.14 95.47C3133.03 98.28 1238.58 117.18 1238.58 237v74c0 71.61-38.02 96.95-6 161 23.85 47.7 45.9 53.71 96 72 77.97 28.47 626.56 45.24 845.29 50.87"/>
            <path d="m2173.87 591.37 9.91 3.75-10.09 3.24z"/>
        </g>
        <g class="node" transform="translate(4 616)">
            <ellipse cx="4540.58" cy="-18" fill="none" stroke="#000" rx="72.85" ry="18"/>
            <text x="4540.58" y="-12.95" font-family="Times,serif" font-size="14" text-anchor="middle">:library:datetime</text>
        </g>
        <g stroke="#000" class="edge">
            <path fill="none" d="M3752.06 107.57c11.79 1.81 23.99 3.4 35.52 4.43 298.83 26.74 2406.06-24.14 2700 36 82.4 16.86 120.42 8.01 175 72 108.18 126.84-27.84 281.35-189 324-22.63 5.99-1477.71 41.96-1845.35 50.96"/>
            <path d="m4628.5 598.45-10.09-3.25 9.92-3.74z"/>
        </g>
        <g class="node" transform="translate(4 616)">
            <ellipse cx="6196.58" cy="-306" fill="none" stroke="#000" rx="89.23" ry="18"/>
            <text x="6196.58" y="-300.95" font-family="Times,serif" font-size="14" text-anchor="middle">:library:shimmer-m3</text>
        </g>
        <g stroke="#000" class="edge">
            <path fill="none" d="M3782.84 95.85C4161.58 99.4 5526.3 114.4 5717.58 148c165.97 29.16 352.6 104.18 437.08 140.58"/>
            <path d="m6156 285.34 7.78 7.19-10.56-.76z"/>
        </g>
        <g class="node" transform="translate(4 616)">
            <ellipse cx="1915.58" cy="-378" fill="none" stroke="#000" rx="71.31" ry="18"/>
            <text x="1915.58" y="-372.95" font-family="Times,serif" font-size="14" text-anchor="middle">:app:data:memo</text>
        </g>
        <g stroke="#000" class="edge">
            <path fill="none" d="M3588.47 96.03c-347.34 3.96-1511.36 19.59-1583.89 51.97-29.14 13.01-53.21 41.13-68.21 62.3"/>
            <path d="m1939.32 212.2-8.52 6.3 2.73-10.24z"/>
        </g>
        <g class="node" transform="translate(4 616)">
            <ellipse cx="2203.58" cy="-306" fill="none" stroke="#000" rx="58.52" ry="18"/>
            <text x="2203.58" y="-300.95" font-family="Times,serif" font-size="14" text-anchor="middle">:app:data:tag</text>
        </g>
        <g stroke="#000" class="edge">
            <path fill="none" d="M3588.37 95.88c-309.31 3.15-1253.62 15.74-1307.79 52.12-44.83 30.11-62.52 94.89-69.2 132.45"/>
            <path d="m2214.87 280.81-5.05 9.31-1.86-10.43z"/>
        </g>
        <g class="node" transform="translate(4 616)">
            <ellipse cx="2819.58" cy="-162" fill="none" stroke="#000" rx="75.92" ry="18"/>
            <text x="2819.58" y="-156.95" font-family="Times,serif" font-size="14" text-anchor="middle">:app:data:account</text>
        </g>
        <g stroke="#000" class="edge">
            <path fill="none" d="M3597.58 101.95c-203.43 17.24-689 65.67-689 135.05v74c0 46.41-33.84 90.78-58.81 117.22"/>
            <path d="m2852.57 430.35-9.49 4.71 4.48-9.6z"/>
        </g>
        <g class="node" transform="translate(4 616)">
            <ellipse cx="2542.58" cy="-378" fill="none" stroke="#000" rx="83.6" ry="18"/>
            <text x="2542.58" y="-372.95" font-family="Times,serif" font-size="14" text-anchor="middle">:app:data:credential</text>
        </g>
        <g stroke="#000" class="edge">
            <path fill="none" d="M3588.73 96.23c-241.74 3.58-858.46 16.14-944.15 51.77-31.98 13.3-60.27 41.78-78.13 62.96"/>
            <path d="m2569.22 213.11-9.04 5.53 3.61-9.96z"/>
        </g>
        <g class="node" transform="translate(4 616)">
            <ellipse cx="1679.58" cy="-234" fill="none" stroke="#000" rx="74.89" ry="18"/>
            <text x="1679.58" y="-228.95" font-family="Times,serif" font-size="14" text-anchor="middle">:app:data:holiday</text>
        </g>
        <g stroke="#000" class="edge">
            <path fill="none" d="M3588.18 95.53c-366.71 2.3-1647.34 13.12-1724.6 52.47-87.63 44.63-145.21 153.77-168.41 205.25"/>
            <path d="m1698.45 354.48-7.22 7.74.82-10.56z"/>
        </g>
        <g class="node" transform="translate(4 616)">
            <ellipse cx="1846.58" cy="-234" fill="none" stroke="#000" rx="73.87" ry="18"/>
            <text x="1846.58" y="-228.95" font-family="Times,serif" font-size="14" text-anchor="middle">:app:data:backup</text>
        </g>
        <g stroke="#000" class="edge">
            <path fill="none" d="M3587.93 95.04c-342.41.53-1476.33 5.88-1632.35 52.96-58.09 17.53-86.5 18.97-116 72-23.25 41.79-10.6 99.44.41 133.21"/>
            <path d="m1843.16 351.66-.05 10.6-6.57-8.31z"/>
        </g>
        <g class="node" transform="translate(4 616)">
            <ellipse cx="1958.58" cy="-306" fill="none" stroke="#000" rx="65.68" ry="18"/>
            <text x="1958.58" y="-300.95" font-family="Times,serif" font-size="14" text-anchor="middle">:app:data:fetch</text>
        </g>
        <g stroke="#000" class="edge">
            <path fill="none" d="M3588.11 95.22c-343.73 1.13-1482.12 8.26-1545.53 52.78-42.29 29.68-18.5 62.52-43 108-4.9 9.09-11.05 18.49-16.93 26.81"/>
            <path d="m1985.57 284.73-8.71 6.03 3.05-10.14z"/>
        </g>
        <g class="node" transform="translate(4 616)">
            <ellipse cx="3496.58" cy="-234" fill="none" stroke="#000" rx="62.1" ry="18"/>
            <text x="3496.58" y="-228.95" font-family="Times,serif" font-size="14" text-anchor="middle">:app:data:fcm</text>
        </g>
        <g stroke="#000" class="edge">
            <path fill="none" d="M3668.64 111.9c-9.65 10.05-21.65 23.3-31.06 36.1-51.6 70.22-100.42 161.16-123.35 205.82"/>
            <path d="m3517.45 355.21-7.66 7.32 1.42-10.5z"/>
        </g>
        <g class="node" transform="translate(4 616)">
            <ellipse cx="3882.58" cy="-450" fill="none" stroke="#000" rx="78.48" ry="18"/>
            <text x="3882.58" y="-444.95" font-family="Times,serif" font-size="14" text-anchor="middle">:app:data:calendar</text>
        </g>
        <g stroke="red" stroke-width="2" class="edge">
            <path fill="none" d="M3729.69 110.36c30.73 10.7 71.87 25.03 104.3 36.33"/>
            <path fill="red" d="m3833.48 142.8 8.3 6.6-10.6.01z"/>
        </g>
        <g class="node" transform="translate(4 616)">
            <ellipse cx="2730.58" cy="-234" fill="none" stroke="#000" rx="70.29" ry="18"/>
            <text x="2730.58" y="-228.95" font-family="Times,serif" font-size="14" text-anchor="middle">:app:data:buddy</text>
        </g>
        <g stroke="#000" class="edge">
            <path fill="none" d="M3588.83 96.56c-245.48 4.41-875.37 18.88-906.25 51.44-55.06 58.04-30.26 105.94 0 180 4.46 10.92 12.38 20.8 20.71 29"/>
            <path d="m2705.48 354.27 5.04 9.32-9.75-4.15z"/>
        </g>
        <g class="node" transform="translate(4 616)">
            <ellipse cx="4187.58" cy="-306" fill="none" stroke="#000" rx="84.11" ry="18"/>
            <text x="4187.58" y="-300.95" font-family="Times,serif" font-size="14" text-anchor="middle">:app:domain:memo</text>
        </g>
        <g stroke="#000" class="edge">
            <path fill="none" d="M3708.85 111.86c13.98 10.26 32.04 23.74 47.73 36.14 19.55 15.46 21.16 23.99 43 36 104.16 57.29 238.56 92.92 319.86 110.84"/>
            <path d="m4120.04 291.39 9.03 5.54-10.51 1.3z"/>
        </g>
        <g class="node" transform="translate(4 616)">
            <ellipse cx="4286.58" cy="-234" fill="none" stroke="#000" rx="71.31" ry="18"/>
            <text x="4286.58" y="-228.95" font-family="Times,serif" font-size="14" text-anchor="middle">:app:domain:tag</text>
        </g>
        <g stroke="#000" class="edge">
            <path fill="none" d="M3766.36 104.33c58.48 8.08 138.9 21.95 207.22 43.67 145.16 46.15 224.71 18.48 311 144 11.95 17.38 12.88 41.45 11.14 60.18"/>
            <path d="m4299.19 352.61-4.72 9.48-2.22-10.36z"/>
        </g>
        <g class="node" transform="translate(4 616)">
            <ellipse cx="4176.58" cy="-90" fill="none" stroke="#000" rx="88.71" ry="18"/>
            <text x="4176.58" y="-84.95" font-family="Times,serif" font-size="14" text-anchor="middle">:app:domain:account</text>
        </g>
        <g stroke="#000" class="edge">
            <path fill="none" d="M3696.6 112.24c12.79 19.11 35.33 50.11 59.98 71.76 46.44 40.8 61.72 48.76 119 72 65.93 26.75 97.85-5.01 156 36 74.62 52.64 120.6 155.66 139.32 205.16"/>
            <path d="m4174.08 495.68.17 10.6-6.74-8.18z"/>
        </g>
        <g class="node" transform="translate(4 616)">
            <ellipse cx="3922.58" cy="-306" fill="none" stroke="#000" rx="96.39" ry="18"/>
            <text x="3922.58" y="-300.95" font-family="Times,serif" font-size="14" text-anchor="middle">:app:domain:credential</text>
        </g>
        <g stroke="#000" class="edge">
            <path fill="none" d="M3684.94 112.28c-.23 32.77 4.17 104.23 43.64 143.72 25.2 25.21 60.98 38.81 95.22 46.02"/>
            <path d="m3824.2 298.53 9.16 5.33-10.48 1.54z"/>
        </g>
        <g class="node" transform="translate(4 616)">
            <ellipse cx="3093.58" cy="-90" fill="none" stroke="#000" rx="87.69" ry="18"/>
            <text x="3093.58" y="-84.95" font-family="Times,serif" font-size="14" text-anchor="middle">:app:domain:holiday</text>
        </g>
        <g stroke="#000" class="edge">
            <path fill="none" d="M3588.95 96.94c-158.92 4.14-468.16 16.49-571.37 51.06-56.47 18.92-73.03 27.86-113 72-60.17 66.45-26.97 117.27-91 180-26.41 25.87-55.31 4.71-75 36-8.52 13.54-10.46 23.89 0 36 33.03 38.27 165.72 49.38 260.15 52.35"/>
            <path d="m2998.63 520.85 9.9 3.78-10.1 3.22z"/>
        </g>
        <g class="node" transform="translate(4 616)">
            <ellipse cx="3950.58" cy="-162" fill="none" stroke="#000" rx="86.67" ry="18"/>
            <text x="3950.58" y="-156.95" font-family="Times,serif" font-size="14" text-anchor="middle">:app:domain:backup</text>
        </g>
        <g stroke="#000" class="edge">
            <path fill="none" d="M3682.17 112.39c-5.21 31.73-11.53 99.78 19.41 143.61 49.05 69.49 91.66 54.77 158 108 25.22 20.24 51.93 45.66 70.58 64.14"/>
            <path d="m3932.46 425.49 4.6 9.54-9.55-4.59z"/>
        </g>
        <g class="node" transform="translate(4 616)">
            <ellipse cx="3768.58" cy="-234" fill="none" stroke="#000" rx="78.48" ry="18"/>
            <text x="3768.58" y="-228.95" font-family="Times,serif" font-size="14" text-anchor="middle">:app:domain:fetch</text>
        </g>
        <g stroke="#000" class="edge">
            <path fill="none" d="M3671.6 111.96c-7.21 9.86-15.27 22.91-19.02 36.04-21.99 76.92-43.67 112.97 0 180 11.7 17.95 31.01 29.87 50.75 37.76"/>
            <path d="m3704.36 362.41 8.2 6.71-10.6-.13z"/>
        </g>
        <g class="node" transform="translate(4 616)">
            <ellipse cx="3694.58" cy="-162" fill="none" stroke="#000" rx="74.89" ry="18"/>
            <text x="3694.58" y="-156.95" font-family="Times,serif" font-size="14" text-anchor="middle">:app:domain:fcm</text>
        </g>
        <g stroke="#000" class="edge">
            <path fill="none" d="M3591.67 99.1c-92.2 9.66-219.09 40.64-219.09 137.9v74c0 46.97 18.17 62.56 57 89 16.14 10.99 122.09 29.66 196.1 41.66"/>
            <path d="m3626 438.16 9.31 5.05-10.43 1.86z"/>
        </g>
        <g class="node" transform="translate(4 616)">
            <ellipse cx="4496.58" cy="-378" fill="none" stroke="#000" rx="91.27" ry="18"/>
            <text x="4496.58" y="-372.95" font-family="Times,serif" font-size="14" text-anchor="middle">:app:domain:calendar</text>
        </g>
        <g stroke="#000" class="edge">
            <path fill="none" d="M3783.14 94.89c167.98 1.02 504.21 8.77 612.44 53.11 33.47 13.71 64.07 42.33 83.49 63.43"/>
            <path d="m4481.62 209.03 4.06 9.78-9.27-5.12z"/>
        </g>
        <g class="node" transform="translate(4 616)">
            <ellipse cx="3442.58" cy="-162" fill="none" stroke="#000" rx="83.08" ry="18"/>
            <text x="3442.58" y="-156.95" font-family="Times,serif" font-size="14" text-anchor="middle">:app:domain:buddy</text>
        </g>
        <g stroke="#000" class="edge">
            <path fill="none" d="M3593.63 100.31c-76.89 6.36-178.59 19.86-208.05 47.69-58.81 55.55-40.46 100.23-27 180 5.63 33.4 5.79 44.1 25 72 7.65 11.11 18.21 21.23 28.51 29.58"/>
            <path d="m3414.01 426.64 5.78 8.88-10.05-3.33z"/>
        </g>
        <g class="node" transform="translate(4 616)">
            <ellipse cx="2176.58" cy="-234" fill="none" stroke="#000" rx="123.52" ry="18"/>
            <text x="2176.58" y="-228.95" font-family="Times,serif" font-size="14" text-anchor="middle">:app:core:filter-database-room</text>
        </g>
        <g stroke="#000" class="edge">
            <path fill="none" d="M3589.19 97.06c-230.32 5.36-807.58 21.37-998.61 50.94-123.58 19.13-178.43-10.96-272 72-38.66 34.27-8.92 69.17-43 108-11.55 13.16-27.19 23.73-42.45 31.88"/>
            <path d="m2235.07 362.82-10.51 1.38 7.36-7.63z"/>
        </g>
        <g class="node" transform="translate(4 616)">
            <ellipse cx="484.58" cy="-234" fill="none" stroke="#000" rx="132.22" ry="18"/>
            <text x="484.58" y="-228.95" font-family="Times,serif" font-size="14" text-anchor="middle">:app:core:backup-database-room</text>
        </g>
        <g stroke="#000" class="edge">
            <path fill="none" d="M3587.97 95.01c-437.21.34-2204.59 4.71-2447.39 52.99-64.8 12.89-214.86 85.55-277 108-109.65 39.62-238.93 81.71-313.48 105.54"/>
            <path d="m551.54 364.75-10.59-.29 8.46-6.38z"/>
        </g>
        <g class="node" transform="translate(4 616)">
            <ellipse cx="4875.58" cy="-234" fill="none" stroke="#000" rx="158.32" ry="18"/>
            <text x="4875.58" y="-228.95" font-family="Times,serif" font-size="14" text-anchor="middle">:app:core:account-preferences-datastore</text>
        </g>
        <g stroke="#000" class="edge">
            <path fill="none" d="M3781.44 97.68c173.67 5.55 533.64 20.32 655.14 50.32 77.28 19.08 92.97 36.05 164 72 89.06 45.08 189.57 105.57 242.26 138.06"/>
            <path d="m4844.46 354.95 6.67 8.24-10.35-2.29z"/>
        </g>
        <g class="node" transform="translate(4 616)">
            <ellipse cx="1081.58" cy="-234" fill="none" stroke="#000" rx="124.54" ry="18"/>
            <text x="1081.58" y="-228.95" font-family="Times,serif" font-size="14" text-anchor="middle">:app:core:diary-database-room</text>
        </g>
        <g stroke="#000" class="edge">
            <path fill="none" d="M3588.28 95.71c-450.41 3.45-2313.21 19.69-2363.7 52.29-74.49 48.09-34.81 107.61-86 180-6.99 9.88-15.89 19.58-24.4 27.92"/>
            <path d="m1116.66 358.39-9.67 4.34 4.85-9.42z"/>
        </g>
        <g class="node" transform="translate(4 616)">
            <ellipse cx="6942.58" cy="-234" fill="none" stroke="#000" rx="157.3" ry="18"/>
            <text x="6942.58" y="-228.95" font-family="Times,serif" font-size="14" text-anchor="middle">:app:core:holiday-preferences-datastore</text>
        </g>
        <g stroke="#000" class="edge">
            <path fill="none" d="M3783.22 94.71c538.64-1.37 3125.11-4.89 3182.36 53.29 54.12 55 17.37 156.82-5.12 205.58"/>
            <path d="m6963.75 354.8-7.45 7.52 1.13-10.53z"/>
        </g>
        <g class="node" transform="translate(4 616)">
            <ellipse cx="767.58" cy="-234" fill="none" stroke="#000" rx="133.24" ry="18"/>
            <text x="767.58" y="-228.95" font-family="Times,serif" font-size="14" text-anchor="middle">:app:core:holiday-database-room</text>
        </g>
        <g stroke="#000" class="edge">
            <path fill="none" d="M3588.32 95.85c-454.58 4.1-2350.03 22.94-2403.74 52.15-84.9 46.18-41.04 127.23-122 180-16.09 10.49-112.8 26.83-190.38 38.59"/>
            <path d="m872.81 370.04-10.41-1.98 9.37-4.95z"/>
        </g>
        <g class="node" transform="translate(4 616)">
            <ellipse cx="5369.58" cy="-378" fill="none" stroke="#000" rx="81.55" ry="18"/>
            <text x="5369.58" y="-372.95" font-family="Times,serif" font-size="14" text-anchor="middle">:app:feature:memo</text>
        </g>
        <g stroke="#000" class="edge">
            <path fill="none" d="M3782.65 96.36c334.95 4.94 1425.72 23.16 1494.93 51.64 31.67 13.03 59.32 41.56 76.71 62.83"/>
            <path d="m5356.92 208.52 3.46 10.01-8.95-5.67z"/>
        </g>
        <g class="node" transform="translate(4 616)">
            <ellipse cx="5728.58" cy="-378" fill="none" stroke="#000" rx="68.75" ry="18"/>
            <text x="5728.58" y="-372.95" font-family="Times,serif" font-size="14" text-anchor="middle">:app:feature:tag</text>
        </g>
        <g stroke="#000" class="edge">
            <path fill="none" d="M3783.2 95.16c313.84.96 1294.65 7.61 1608.38 52.84 104.47 15.06 223 50.24 289.19 71.59"/>
            <path d="m5681.86 216.26 8.42 6.42-10.59.23z"/>
        </g>
        <g class="node" transform="translate(4 616)">
            <ellipse cx="6173.58" cy="-450" fill="none" stroke="#000" rx="88.71" ry="18"/>
            <text x="6173.58" y="-444.95" font-family="Times,serif" font-size="14" text-anchor="middle">:app:feature:calendar</text>
        </g>
        <g stroke="#000" class="edge">
            <path fill="none" d="M3783.05 95.48c388.7 2.18 1829.02 12.83 2283.53 52.52 11.07.97 22.71 2.35 34.13 3.91"/>
            <path d="m6101.11 148.43 9.4 4.87-10.39 2.06z"/>
        </g>
        <g class="node" transform="translate(4 616)">
            <ellipse cx="5144.58" cy="-378" fill="none" stroke="#000" rx="80.52" ry="18"/>
            <text x="5144.58" y="-372.95" font-family="Times,serif" font-size="14" text-anchor="middle">:app:feature:buddy</text>
        </g>
        <g stroke="#000" class="edge">
            <path fill="none" d="M3782.72 96.08c284.86 3.55 1105.29 16.76 1220.86 51.92 44.43 13.52 88.98 44 116.74 65.51"/>
            <path d="m5122.21 210.54 5.67 8.95-10.01-3.46z"/>
        </g>
        <g class="node" transform="translate(4 616)">
            <ellipse cx="6316.58" cy="-378" fill="none" stroke="#000" rx="76.94" ry="18"/>
            <text x="6316.58" y="-372.95" font-family="Times,serif" font-size="14" text-anchor="middle">:app:feature:more</text>
        </g>
        <g stroke="#000" class="edge">
            <path fill="none" d="M3782.89 95.63c464.83 3.16 2438.96 18.57 2492.69 52.37 21.17 13.32 32.78 39.94 38.87 60.62"/>
            <path d="m6317.81 207.64-.83 10.56-5.94-8.78z"/>
        </g>
        <g class="node" transform="translate(4 616)">
            <ellipse cx="5555.58" cy="-378" fill="none" stroke="#000" rx="86.15" ry="18"/>
            <text x="5555.58" y="-372.95" font-family="Times,serif" font-size="14" text-anchor="middle">:app:feature:account</text>
        </g>
        <g stroke="#000" class="edge">
            <path fill="none" d="M3782.45 96.35c327.9 4.84 1384.08 22.51 1534.13 51.65 72.37 14.05 151.8 46.66 199.51 68.26"/>
            <path d="m5517.34 212.98 7.64 7.34-10.55-.98z"/>
        </g>
        <g class="node" transform="translate(4 616)">
            <ellipse cx="4737.58" cy="-162" fill="none" stroke="#000" rx="112.26" ry="18"/>
            <text x="4737.58" y="-156.95" font-family="Times,serif" font-size="14" text-anchor="middle">:library:firebase-messaging</text>
        </g>
        <g stroke="#000" class="edge">
            <path fill="none" d="M3781.62 97.53c184.71 5.49 582.99 20.47 716.96 50.47 255.47 57.2 400.68-.41 548 216 9 13.23 10.3 23.76 0 36-13.21 15.7-119.22 31.53-202.59 41.75"/>
            <path d="m4844.49 445.21-10.34-2.27 9.5-4.67z"/>
        </g>
        <g class="node" transform="translate(4 616)">
            <ellipse cx="1498.58" cy="-18" fill="none" stroke="#000" rx="71.31" ry="18"/>
            <text x="1498.58" y="-12.95" font-family="Times,serif" font-size="14" text-anchor="middle">:app:core:model</text>
        </g>
        <g stroke="#000" class="edge">
            <path fill="none" d="M1902.17 470.06c-83.72 26.59-257.18 81.7-345.45 109.74"/>
            <path d="m1557.91 583.1-10.59-.31 8.47-6.37z"/>
        </g>
        <g class="node" transform="translate(4 616)">
            <ellipse cx="3907.58" cy="-18" fill="none" stroke="#000" rx="85.13" ry="18"/>
            <text x="3907.58" y="-12.95" font-family="Times,serif" font-size="14" text-anchor="middle">:common:exception</text>
        </g>
        <g stroke="#000" class="edge">
            <path fill="none" d="M1997.9 469.91c70.24 20.92 205.02 58.18 322.68 74.09 291.19 39.36 1196.34 49.9 1494.6 52.34"/>
            <path d="m3814.89 592.84 9.98 3.58-10.03 3.42z"/>
        </g>
        <g class="node" transform="translate(4 616)">
            <ellipse cx="2447.58" cy="-90" fill="none" stroke="#000" rx="121.98" ry="18"/>
            <text x="2447.58" y="-84.95" font-family="Times,serif" font-size="14" text-anchor="middle">:app:core:account-preferences</text>
        </g>
        <g stroke="#000" class="edge">
            <path fill="none" d="M2024.73 465.48c87.75 12.23 233.11 32.5 329.44 45.94"/>
            <path d="m2354.45 507.92 9.42 4.85-10.38 2.09z"/>
        </g>
        <g class="node" transform="translate(4 616)">
            <ellipse cx="1892.58" cy="-90" fill="none" stroke="#000" rx="72.85" ry="18"/>
            <text x="1892.58" y="-84.95" font-family="Times,serif" font-size="14" text-anchor="middle">:common:model</text>
        </g>
        <g stroke="#000" class="edge">
            <path fill="none" d="M1936.48 472.3c-6.03 7.97-13.33 17.6-20.01 26.44"/>
            <path d="m1919.27 500.83-8.83 5.86 3.25-10.09z"/>
        </g>
        <g stroke="#000" class="edge">
            <path fill="none" d="M179.92 467.49c112.17 19.2 336.79 55.91 528.66 76.51 259.46 27.86 568.29 43.46 712.39 49.73"/>
            <path d="m1420.96 590.22 9.84 3.93-10.14 3.07z"/>
        </g>
        <g stroke="#000" class="edge">
            <path fill="none" d="M5710.57 328.23c5.24 19.4 16.07 50.92 35.01 71.77 12.08 13.3 28.31 24.04 43.93 32.28"/>
            <path d="m5790.9 429.06 7.38 7.6-10.51-1.34z"/>
        </g>
        <g stroke="#000" class="edge">
            <path fill="none" d="M5767.34 322.23c11.36 2 23.15 4.01 34.24 5.77 57.17 9.1 213.26-.73 258 36 20.81 17.08 40.33 91.23 49.88 132.68"/>
            <path d="m6112.82 495.67-1.22 10.53-5.61-8.99z"/>
        </g>
        <g stroke="#000" class="edge">
            <path fill="none" d="M5767.87 322.14c11.21 1.99 22.81 4.01 33.71 5.86 49.92 8.46 192.14-2.53 225 36 38.13 44.71-49.22 100.9-59 108-71.41 51.82-98.65 53.87-185 72-112.09 23.54-894.4 44.59-1154.29 51.01"/>
            <path d="m4628.65 598.5-10.09-3.26 9.91-3.74z"/>
        </g>
        <g stroke="#000" class="edge">
            <path fill="none" d="M5625.58 311.97c-575.3 6.9-4020.59 48.37-4026 52.03-35.58 24.06-73.56 147.92-89.39 204.61"/>
            <path d="m1513.59 569.46-6.03 8.71-.72-10.57z"/>
        </g>
        <g class="node" transform="translate(4 616)">
            <ellipse cx="5898.58" cy="-234" fill="none" stroke="#000" rx="115.33" ry="18"/>
            <text x="5898.58" y="-228.95" font-family="Times,serif" font-size="14" text-anchor="middle">:app:core:calendar-compose</text>
        </g>
        <g stroke="#000" class="edge">
            <path fill="none" d="M5748.15 325.85c28.74 10.26 67.32 24.04 98.73 35.26"/>
            <path d="m5847.99 357.79 8.24 6.66-10.59-.07z"/>
        </g>
        <g stroke="#000" class="edge">
            <path fill="none" d="M5896.89 469.33c47.72 12.15 115.76 29.47 163.23 41.55"/>
            <path d="m6060.82 507.45 8.83 5.86-10.55.92z"/>
        </g>
        <g stroke="#000" class="edge">
            <path fill="none" d="M5798.37 470.69c-58.2 20.85-166.82 56.97-262.79 73.31-173.47 29.54-701.04 45.68-907.19 51"/>
            <path d="m4628.65 598.5-10.09-3.25 9.91-3.75z"/>
        </g>
        <g stroke="#000" class="edge">
            <path fill="none" d="M6049.44 326.01c20.12 8.68 43.32 21.25 60.14 37.99 61.43 61.13 135.28 117.74 75 180-13.67 14.12-1223.3 43.3-1556.09 51.07"/>
            <path d="m4628.62 598.56-10.08-3.26 9.91-3.73z"/>
        </g>
        <g stroke="#000" class="edge">
            <path fill="none" d="M6416.22 328.14c-25.88 45.4-103.46 168.54-207.64 215.86-18.18 8.26-1246.34 41.79-1580.73 50.78"/>
            <path d="m4628.41 598.26-10.09-3.23 9.9-3.77z"/>
        </g>
        <g stroke="#000" class="edge">
            <path fill="none" d="M6193.77 328.15c-14.67 36.94-49.37 124.3-67.2 169.18"/>
            <path d="m6129.93 498.36-6.95 8 .44-10.58z"/>
        </g>
        <g stroke="#000" class="edge">
            <path fill="none" d="M1848.82 240.98c-121.8 4.28-365.5 16.94-443.24 51.02-88.53 38.81-123.27 55.88-163 144-6.58 14.59-10.13 23.62 0 36 58.81 71.85 695.89 109.46 932.87 121.04"/>
            <path d="m2175.44 589.53 9.82 3.98-10.16 3.02z"/>
        </g>
        <g stroke="#000" class="edge">
            <path fill="none" d="M1989.97 241.51c102.14 3.59 297.4 10.21 463.61 14.49 203.42 5.24 1633.3-12.15 1831 36 35.15 8.56 40.28 20.58 73 36 35.27 16.63 48.67 12.8 80 36 34.17 25.3 39.5 36.57 63 72 19.67 29.65 25.28 37.77 35 72 5.58 19.66 7.8 42.64 8.64 60.31"/>
            <path d="m4547.71 567.98-3.15 10.11-3.84-9.87z"/>
        </g>
        <g stroke="#000" class="edge">
            <path fill="none" d="M1989.98 241.44c102.14 3.5 297.4 10.02 463.6 14.56 701.25 19.16 877.93-9.1 1578 36 25.26 1.63 52.69 4.23 77.58 6.92"/>
            <path d="m4109.34 295.42 9.56 4.57-10.32 2.39z"/>
        </g>
        <g class="node" transform="translate(4 616)">
            <ellipse cx="1349.58" cy="-162" fill="none" stroke="#000" rx="101.51" ry="18"/>
            <text x="1349.58" y="-156.95" font-family="Times,serif" font-size="14" text-anchor="middle">:app:core:diary-database</text>
        </g>
        <g stroke="#000" class="edge">
            <path fill="none" d="M1851.46 243.65c-136.75 10.9-436.92 43.25-498.88 120.35-13.47 16.76-12 41.59-7.86 60.77"/>
            <path d="m1348.1 423.83-.93 10.56-5.86-8.83z"/>
        </g>
        <g stroke="#000" class="edge">
            <path fill="none" d="M2152.86 316.72c-33.31 3.42-76.73 7.77-115.28 11.28-48.63 4.43-404.92.09-438 36-10.84 11.77-4.64 20.69 0 36 22.29 73.62 29.94 104.59 96 144 78.28 46.7 337.66 53.64 477.22 53.86"/>
            <path d="m2172.77 594.36 10 3.5-10 3.5z"/>
        </g>
        <g stroke="#000" class="edge">
            <path fill="none" d="M2263.58 315.68c106.93 8.97 347.58 29.42 550 48.32 161.2 15.05 571.69 19.96 725 72 86.19 29.26 87.31 80.27 174 108 69.95 22.37 551.93 42.58 748.65 50"/>
            <path d="m4461.27 590.5 9.86 3.87-10.12 3.12z"/>
        </g>
        <g stroke="#000" class="edge">
            <path fill="none" d="M2266.24 310.96c234.76.18 1129.33 4.24 1863.34 53.04 28.34 1.88 59.4 4.93 86.61 7.93"/>
            <path d="m4216.54 368.44 9.55 4.6-10.33 2.36z"/>
        </g>
        <g stroke="#000" class="edge">
            <path fill="none" d="M2153.27 317.02c-33.35 3.55-76.95 7.93-115.69 10.98-69.12 5.45-562.62 1.92-623 36-23.78 13.42-40.26 40.42-50.04 61.18"/>
            <path d="m1367.76 426.54-7.24 7.73.84-10.56z"/>
        </g>
        <g stroke="#000" class="edge">
            <path fill="none" d="M2869.49 468.69c18.99 8.18 39.11 20.7 50.09 39.31 8.13 13.78 10.85 24.24 0 36-37.56 40.72-394.63 50.16-565.6 52.34"/>
            <path d="m2354.05 599.84-10.04-3.37 9.95-3.63z"/>
        </g>
        <g stroke="#000" class="edge">
            <path fill="none" d="M2880.62 466.3c10.92 2.02 22.28 4.01 32.96 5.7 124.36 19.69 165.64-14.45 281 36 22.84 9.99 19.75 27.02 43 36 28.61 11.06 940.5 41.22 1223.85 50.35"/>
            <path d="m4461.45 590.85 9.88 3.82-10.11 3.17z"/>
        </g>
        <g stroke="#000" class="edge">
            <path fill="none" d="M2890.08 462.94c28.99 3.22 63.39 6.73 94.5 9.06 406.32 30.43 891.71 45.33 1096.78 50.65"/>
            <path d="m4081.27 519.14 9.91 3.76-10.09 3.24z"/>
        </g>
        <g stroke="#000" class="edge">
            <path fill="none" d="M2765.45 465.94c-61.58 11.59-159.42 30-229.49 43.18"/>
            <path d="m2536.93 512.5-10.48-1.59 9.18-5.29z"/>
        </g>
        <g stroke="#000" class="edge">
            <path fill="none" d="M2532.08 255.97c-32.62 37.75-111.74 126.68-147.5 144.03-3.85 1.87-217.79 27.36-344.16 42.3"/>
            <path d="m2041.07 445.75-10.34-2.3 9.52-4.65z"/>
        </g>
        <g stroke="#000" class="edge">
            <path fill="none" d="M2518.49 255.29c-16.46 9.94-37.4 23.3-54.91 36.71-37.71 28.89-44.2 39.66-79 72-17.04 15.84-16.71 26.62-38 36-102.35 45.09-411.22-29.33-502 36-28.14 20.25-23.2 38.01-30 72-3.14 15.69-10.63 24.04 0 36 23.51 26.45 236.78 41.94 360.74 48.78"/>
            <path d="m2175.36 589.28 9.79 4.04-10.17 2.95z"/>
        </g>
        <g stroke="#000" class="edge">
            <path fill="none" d="M2630.36 239c333.99.32 1560.4 4.81 1727.22 53 131.64 38.03 187.05 82.99 220 216 3.85 15.53 4.4 20.62 0 36-2.67 9.34-7.51 18.63-12.68 26.76"/>
            <path d="m4567.95 572.51-8.53 6.28 2.75-10.23z"/>
        </g>
        <g stroke="#000" class="edge">
            <path fill="none" d="m2627.25 243.09 1195.99 60.67"/>
            <path d="m3823.41 300.26 9.81 4-10.17 2.99z"/>
        </g>
        <g stroke="#000" class="edge">
            <path fill="none" d="M2538.88 256.26c-8.7 18.59-23.93 48.61-41.3 71.74-10.19 13.57-101.51 92.32-108 108-6.12 14.78-6.7 21.47 0 36 5.26 11.42 14.34 21.3 23.94 29.33"/>
            <path d="m2415.42 498.37 5.78 8.88-10.06-3.34z"/>
        </g>
        <g stroke="#000" class="edge">
            <path fill="none" d="M1610.06 385.7C1320.99 396.33 277.57 434.74 260.58 436c-18.82 1.4-38.9 3.33-58.09 5.4"/>
            <path d="m203.13 444.85-10.32-2.39 9.56-4.57z"/>
        </g>
        <g stroke="#000" class="edge">
            <path fill="none" d="M1682.28 400.35c-1.46 33.56.69 107.25 43.3 143.65 33.35 28.49 304.87 43.63 448.94 49.73"/>
            <path d="m2174.58 590.23 9.85 3.91-10.14 3.08z"/>
        </g>
        <g stroke="#000" class="edge">
            <path fill="none" d="M1736.24 395.06c10.34 1.97 21.14 3.76 31.34 4.94 125.99 14.63 1025.72-16.9 1141 36 19.73 9.05 13.71 26.05 33 36 115.02 59.36 173.12-21.66 289 36 19.98 9.94 14.63 26.89 35 36 27.34 12.23 916.09 41.46 1195.68 50.37"/>
            <path d="m4461.13 590.87 9.88 3.82-10.1 3.18z"/>
        </g>
        <g stroke="#000" class="edge">
            <path fill="none" d="M1705.57 399.56c29.72 21.29 85.2 57.34 139.01 72.44 27.73 7.78 866.24 38.93 1155.8 49.48"/>
            <path d="m3000.31 517.98 9.86 3.86-10.12 3.13z"/>
        </g>
        <g class="node" transform="translate(4 616)">
            <ellipse cx="5026.58" cy="-162" fill="none" stroke="#000" rx="120.96" ry="18"/>
            <text x="5026.58" y="-156.95" font-family="Times,serif" font-size="14" text-anchor="middle">:app:core:holiday-preferences</text>
        </g>
        <g stroke="#000" class="edge">
            <path fill="none" d="M1736.22 395.23c10.34 1.95 21.15 3.69 31.36 4.77 683.99 72.54 2408.26-2.66 3095 36 20.72 1.17 42.82 2.99 63.96 5.01"/>
            <path d="m4926.71 437.51 9.61 4.46-10.29 2.51z"/>
        </g>
        <g class="node" transform="translate(4 616)">
            <ellipse cx="789.58" cy="-162" fill="none" stroke="#000" rx="110.21" ry="18"/>
            <text x="789.58" y="-156.95" font-family="Times,serif" font-size="14" text-anchor="middle">:app:core:holiday-database</text>
        </g>
        <g stroke="#000" class="edge">
            <path fill="none" d="M1612.52 388.16c-125.81 9.2-395.99 29.21-623.94 47.84-28.85 2.36-60.1 5.03-88.95 7.54"/>
            <path d="m900.06 447.02-10.27-2.62 9.66-4.35z"/>
        </g>
        <g stroke="#000" class="edge">
            <path fill="none" d="M1873.79 399.41c12.72 9 28.71 20.3 42.72 30.21"/>
            <path d="m1918.45 426.7 6.14 8.63-10.19-2.91z"/>
        </g>
        <g stroke="#000" class="edge">
            <path fill="none" d="M1819.62 398.72c-15.5 9.14-33.57 21.9-46.04 37.28-31.38 38.69-63.39 71.03-30 108 28.26 31.29 289.53 45.08 430.61 50.29"/>
            <path d="m2174 590.78 9.87 3.86-10.12 3.14z"/>
        </g>
        <g stroke="#000" class="edge">
            <path fill="none" d="M1917.99 389.59c38.02 3.52 86.42 7.68 129.59 10.41 99.22 6.28 801.26.18 894 36 23.25 8.98 20.16 26.01 43 36 115.36 50.45 157.17 13.18 281 36 67 12.35 81.56 26.36 149 36 102.57 14.66 803.87 41.16 1047.12 50.02"/>
            <path d="m4461.56 590.52 9.86 3.86-10.12 3.13z"/>
        </g>
        <g stroke="#000" class="edge">
            <path fill="none" d="M1917.52 389.87c38.09 3.63 86.7 7.81 130.06 10.13 770.18 41.18 965.09-9.97 1735 36 28.17 1.68 58.85 4.42 86.4 7.22"/>
            <path d="m3869.08 439.71 9.59 4.51-10.3 2.45z"/>
        </g>
        <g stroke="#000" class="edge">
            <path fill="none" d="M1796.67 394.65c-9.67 1.92-19.66 3.78-29.09 5.35-108.15 17.97-233.07 33.21-317.16 42.67"/>
            <path d="m1450.92 446.14-10.33-2.37 9.55-4.59z"/>
        </g>
        <g class="node" transform="translate(4 616)">
            <ellipse cx="552.58" cy="-162" fill="none" stroke="#000" rx="109.19" ry="18"/>
            <text x="552.58" y="-156.95" font-family="Times,serif" font-size="14" text-anchor="middle">:app:core:backup-database</text>
        </g>
        <g stroke="#000" class="edge">
            <path fill="none" d="M1798.55 395.06c-10.22 1.97-20.89 3.75-30.97 4.94-482.69 56.97-608.84-6.72-1093 36-9.92.88-20.27 2.02-30.55 3.31"/>
            <path d="m644.79 442.74-10.37-2.19 9.47-4.76z"/>
        </g>
        <g stroke="#000" class="edge">
            <path fill="none" d="M1965.37 328.17c2.45 18.01 5.08 47.07 1.21 71.83-1.29 8.21-3.63 16.89-6.17 24.79"/>
            <path d="m1963.72 425.93-6.58 8.3-.03-10.59z"/>
        </g>
        <g stroke="#000" class="edge">
            <path fill="none" d="M1896.48 310.46c-96.29.79-267.94 8.65-306.9 53.54-54.83 63.17-14.47 133.41 55 180 42.95 28.8 368.91 44.19 529.77 50.1"/>
            <path d="m2174.26 590.6 9.87 3.86-10.12 3.13z"/>
        </g>
        <g stroke="#000" class="edge">
            <path fill="none" d="M2022.3 317.86c34.27 3.65 78.14 7.85 117.28 10.14 381.65 22.29 1342.45-24.13 1720 36 252.46 40.21 536.42 163.74 642.26 212.7"/>
            <path d="m4503.14 573.45 7.59 7.39-10.54-1.05z"/>
        </g>
        <g stroke="#000" class="edge">
            <path fill="none" d="M2022.31 317.8c34.27 3.63 78.14 7.83 117.27 10.2 635.48 38.46 796.31 1.16 1432 36 39.14 2.15 82.47 5.66 118.85 8.95"/>
            <path d="m3690.34 369.42 9.64 4.4-10.28 2.57z"/>
        </g>
        <g stroke="#000" class="edge">
            <path fill="none" d="M1897.13 312.73c-144.59 4.41-481.55 18.15-520.55 51.27-17.21 14.61-22.42 40.25-23.64 60.26"/>
            <path d="m1356.44 424.15-3.78 9.9-3.21-10.1z"/>
        </g>
        <g stroke="#000" class="edge">
            <path fill="none" d="M3438.7 384.68c-189.42 5.32-778 23.12-1265.12 51.32-41.46 2.4-87.19 5.75-126.46 8.83"/>
            <path d="m2047.45 448.32-10.25-2.7 9.69-4.28z"/>
        </g>
        <g stroke="#000" class="edge">
            <path fill="none" d="M3439.4 385.61c-195.92 8.48-795.93 35.62-809.82 50.39-10.97 11.65-9.78 23.34 0 36 38.75 50.16 99.25-14.16 138 36 9.78 12.66 10.71 24.11 0 36-27.18 30.19-277.45 44.4-414.78 49.98"/>
            <path d="m2353.14 597.47-10.13-3.1 9.85-3.89z"/>
        </g>
        <g stroke="#000" class="edge">
            <path fill="none" d="M3562.83 383.78c59.73 3.18 150.78 14.55 219.75 52.22 19.31 10.55 17.94 20.96 34 36 36.63 34.31 40.52 53.06 87 72 98.64 40.19 406.26 49.91 556.59 52.26"/>
            <path d="m4460.13 592.76 9.95 3.65-10.05 3.35z"/>
        </g>
        <g stroke="#000" class="edge">
            <path fill="none" d="M3538.76 396.5c30.82 10.89 74.49 26.33 108.4 38.32"/>
            <path d="m3648.11 431.44 8.26 6.64-10.6-.04z"/>
        </g>
        <g stroke="#000" class="edge">
            <path fill="none" d="M3558.44 388.94c36.45 3.59 84.51 8.03 127.14 11.06 339.08 24.08 740.18 41.05 936.13 48.6"/>
            <path d="m4621.81 445.11 9.85 3.88-10.12 3.11z"/>
        </g>
        <g stroke="#000" class="edge">
            <path fill="none" d="M3819.65 175.69c-131.29 17.61-431.48 60.59-680.07 116.31-114.91 25.76-145.3 29.17-255 72-32.96 12.87-37.06 26.01-71 36-74.58 21.95-295.93-21.73-348 36-10.72 11.88-9.75 23.31 0 36 37.83 49.24 97.17-13.24 135 36 9.75 12.69 10.4 23.84 0 36-31.2 36.49-158.07 48.02-246.9 51.57"/>
            <path d="m2353.86 599.06-10.12-3.13 9.86-3.86z"/>
        </g>
        <g stroke="#000" class="edge">
            <path fill="none" d="M3965.22 167.11c399.73.77 2197 6.77 2441.36 52.89 91.19 17.21 142.88-4.1 196 72 95.64 137.02-115.76 216.32-279 252-41.88 9.15-1348.71 42.28-1695.31 50.93"/>
            <path d="m4628.43 598.42-10.08-3.25 9.9-3.75z"/>
        </g>
        <g stroke="red" stroke-width="2" class="edge">
            <path fill="none" d="M3955.82 174.89c111.92 12.76 332.47 37.91 455.85 51.97"/>
            <path fill="red" d="m4410.39 223.19 9.54 4.61-10.34 2.35z"/>
        </g>
        <g class="node" transform="translate(4 616)">
            <ellipse cx="3089.58" cy="-162" fill="none" stroke="#000" rx="100.48" ry="18"/>
            <text x="3089.58" y="-156.95" font-family="Times,serif" font-size="14" text-anchor="middle">:app:core:filter-database</text>
        </g>
        <g stroke="#000" class="edge">
            <path fill="none" d="M3845.61 181.77c-132.42 47.77-549.02 198.01-698.22 251.82"/>
            <path d="m3148.72 436.83-10.59.1 8.22-6.68z"/>
        </g>
        <g stroke="#000" class="edge">
            <path fill="none" d="M2669 388.85c-138.36 12.34-460.71 41.08-622.77 55.53"/>
            <path d="m2046.62 447.86-10.27-2.6 9.65-4.37z"/>
        </g>
        <g stroke="#000" class="edge">
            <path fill="none" d="M2681.79 394.15c-10.33 2.05-21.09 4.1-31.21 5.85-55.09 9.55-212.4-6.27-249 36-10.47 12.1-10.15 23.63 0 36 52.03 63.4 128.97-27.4 181 36 10.15 12.37 10.34 23.79 0 36-28.93 34.14-145.54 46.31-229.41 50.64"/>
            <path d="m2353.5 598.13-10.16-3.02 9.82-3.98z"/>
        </g>
        <g stroke="#000" class="edge">
            <path fill="none" d="M2802.64 386.72c91.65 5.91 259.47 19.92 399.94 49.28 159.35 33.3 189.73 79.44 350 108 173.41 30.9 701.65 46.23 908.08 51.17"/>
            <path d="m4460.59 591.66 9.91 3.74-10.08 3.26z"/>
        </g>
        <g stroke="#000" class="edge">
            <path fill="none" d="M2802.59 386.91c113.61 6.97 349.07 23.27 546.99 49.09 7.98 1.04 16.31 2.28 24.59 3.6"/>
            <path d="m3374.59 436.12 9.3 5.07-10.43 1.84z"/>
        </g>
        <g stroke="#000" class="edge">
            <path fill="none" d="M4258.14 321.39c65.94 10.4 169.75 27.04 259.44 42.61 86.83 15.07 107.52 25.32 195 36 65.74 8.03 546.16-8.74 595 36 36.32 33.27 34.31 95.87 29.32 132.44"/>
            <path d="m5340.37 568.92-4.99 9.34-1.93-10.41z"/>
        </g>
        <g stroke="#000" class="edge">
            <path fill="none" d="M4119.17 319.41c-27.42 2.99-58.92 6.21-87.59 8.59-267.12 22.17-334.7 16.16-602 36-5.65.42-808.18 67.82-812 72-10.8 11.8-9.43 23.07 0 36 30.8 42.25 81.2-6.25 112 36 9.42 12.93 10.65 24.06 0 36-24.64 27.6-249.21 42.73-377.38 49.18"/>
            <path d="m2352.53 596.66-10.16-3 9.82-3.99z"/>
        </g>
        <g stroke="#000" class="edge">
            <path fill="none" d="M4267.23 318.22c42.63 6.82 95.38 20.06 136.35 45.78 76.53 48.04 117.38 154.21 133.17 204.94"/>
            <path d="m4540.03 567.7-.48 10.58-6.23-8.57z"/>
        </g>
        <g stroke="red" stroke-width="2" class="edge">
            <path fill="none" d="M4215.04 327.59c12.82 9.07 28.9 20.44 42.93 30.35"/>
            <path fill="red" d="m4258.67 354.15 6.14 8.63-10.18-2.91z"/>
        </g>
        <g stroke="#000" class="edge">
            <path fill="none" d="M4185.76 328.44c-3.11 10.23-6.61 23.48-8.18 35.56-5.97 45.97-2.95 99.93-.08 132.25"/>
            <path d="m4180.97 495.72-2.54 10.29-4.43-9.62z"/>
        </g>
        <g stroke="#000" class="edge">
            <path fill="none" d="M4164.39 327.29c-42.45 25.44-124.58 74.64-172.52 103.37"/>
            <path d="m3993.85 433.55-10.37 2.14 6.78-8.15z"/>
        </g>
        <g stroke="#000" class="edge">
            <path fill="none" d="M4120.41 319.97c-27.68 3.12-59.69 6.27-88.83 8.03-68.36 4.12-2404.36 4.19-2465 36-52.21 27.38-34.01 67.67-77 108-22.13 20.76-43.25 9.49-58 36-7.78 13.98-7.17 21.7 0 36 6.42 12.8 17.56 23.3 29.14 31.48"/>
            <path d="m1462.29 572.33 6.46 8.39-10.29-2.53z"/>
        </g>
        <g stroke="#000" class="edge">
            <path fill="none" d="M4193.44 328.26c2.39 18.32 7.44 47.88 17.14 71.74 26.65 65.57 114.33 90.5 68 144-34.36 39.67-173.82 50.31-270.57 52.8"/>
            <path d="m4008.32 600.3-10.07-3.27 9.91-3.73z"/>
        </g>
        <g stroke="#000" class="edge">
            <path fill="none" d="M4356.42 389.15c38.74 3.49 88.71 7.76 133.16 10.85 74.48 5.18 602.36 6.62 671 36 17.83 7.63 103.66 92.9 146.52 136.15"/>
            <path d="m5309.46 569.56 4.55 9.57-9.52-4.65z"/>
        </g>
        <g stroke="#000" class="edge">
            <path fill="none" d="M4220.41 385.93c-85.29 3.52-233.61 9.52-360.83 14.07-62.27 2.23-1077.65-8.76-1121 36-11.13 11.49-8.12 22.22 0 36 16.77 28.45 48.23 7.55 65 36 8.12 13.78 10.75 24.15 0 36-29.62 32.67-304.81 45.9-450.48 50.65"/>
            <path d="m2353.6 598.14-10.11-3.18 9.89-3.82z"/>
        </g>
        <g stroke="#000" class="edge">
            <path fill="none" d="M4325.9 398.08c19.39 9.28 43.17 22.36 61.68 37.92 46.96 39.49 41.94 65.3 86 108 11.16 10.81 24.56 21.34 36.7 30.13"/>
            <path d="m4512.3 571.27 6.15 8.63-10.19-2.91z"/>
        </g>
        <g stroke="#000" class="edge">
            <path fill="none" d="M4277.31 400.13c-18.99 24.52-54.1 69.84-76.39 98.61"/>
            <path d="m4203.71 500.85-8.89 5.76 3.36-10.04z"/>
        </g>
        <g stroke="red" stroke-width="2" class="edge">
            <path fill="none" d="M4236.97 394.17c-57.33 11.94-148.5 30.94-211.68 44.1"/>
            <path fill="red" d="m4027.7 441.34-10.5-1.39 9.07-5.46z"/>
        </g>
        <g stroke="#000" class="edge">
            <path fill="none" d="M4220.41 385.93c-85.29 3.53-233.61 9.54-360.83 14.07-503.05 17.92-631.47-17.39-1132 36-88.5 9.44-109.25 21.1-197 36-101.79 17.28-356.55 59.21-459 72-174.48 21.79-380.08 38.81-490.09 47.22"/>
            <path d="m1581.92 594.7-10.24-2.73 9.71-4.25z"/>
        </g>
        <g stroke="#000" class="edge">
            <path fill="none" d="M4300.28 400.02c17.01 32.33 47.15 103.06 11.3 143.98-20 22.83-196.23 39.04-308 47.13"/>
            <path d="m4004.04 594.6-10.23-2.78 9.73-4.2z"/>
        </g>
        <g stroke="#000" class="edge">
            <path fill="none" d="M4264.75 532.12c216.95 13.19 792.32 48.19 994.97 60.51"/>
            <path d="m5259.81 589.13 9.77 4.1-10.19 2.89z"/>
        </g>
        <g stroke="#000" class="edge">
            <path fill="none" d="M4096.94 532.42c-58.6 3.65-138.73 8.38-209.36 11.58-584.97 26.51-1289.05 44.88-1534.47 50.87"/>
            <path d="m2353.37 598.37-10.08-3.26 9.91-3.74z"/>
        </g>
        <g stroke="#000" class="edge">
            <path fill="none" d="M4243.15 539.03c65.24 12.55 167.12 32.14 234.08 45.02"/>
            <path d="m4477.84 580.6 9.16 5.33-10.48 1.55z"/>
        </g>
        <g stroke="red" stroke-width="2" class="edge">
            <path fill="none" d="M4093.8 529.97c-105.47 3.56-288.89 9.6-446.22 14.03-654.16 18.43-817.78 19.74-1472 36-213.01 5.3-463.94 11.67-590.76 14.9"/>
            <path fill="red" d="m1586.42 598.36-10.08-3.24 9.9-3.76z"/>
        </g>
        <g stroke="#000" class="edge">
            <path fill="none" d="M4127.43 540.83c-43.85 11.41-106.18 27.63-152.59 39.71"/>
            <path d="m3975.72 583.92-10.56-.86 8.8-5.91z"/>
        </g>
        <g stroke="#000" class="edge">
            <path fill="none" d="M4009.71 319.47c125.51 12.92 352.72 36.85 389.87 44.53 53.69 11.1 64 26.48 118 36 148.58 26.21 538.62-21.77 678 36 60.86 25.23 103.39 94.62 123.27 133.57"/>
            <path d="m5321.88 567.81 1.3 10.52-7.57-7.42z"/>
        </g>
        <g stroke="#000" class="edge">
            <path fill="none" d="M3841.64 318.86c-37.67 3.25-82.55 6.8-123.06 9.14-235.96 13.63-832.66-16.97-1063 36-38.39 8.83-43.43 24.16-81 36-79.89 25.17-111.47-4.12-185 36-55.44 30.25-94.68 96.23-113.46 133.66"/>
            <path d="m2279.34 571.02-7.52 7.46 1.23-10.52z"/>
        </g>
        <g stroke="#000" class="edge">
            <path fill="none" d="M4010.29 319.28c124.34 12.54 344.9 35.83 360.29 44.72 11.02 6.37 112.76 147.44 155.37 206.92"/>
            <path d="m4528.63 568.66 2.98 10.17-8.67-6.1z"/>
        </g>
        <g stroke="#000" class="edge">
            <path fill="none" d="M3930.01 328.41c4.75 24.09 13.38 67.84 19.04 96.56"/>
            <path d="m3952.41 423.92-1.5 10.48-5.37-9.13z"/>
        </g>
        <g stroke="#000" class="edge">
            <path fill="none" d="M3891.25 327.06c-21.95 9.98-50.36 22.89-73.88 33.58"/>
            <path d="m3818.88 363.8-10.55.95 7.65-7.32z"/>
        </g>
        <g stroke="#000" class="edge">
            <path fill="none" d="M3917.83 328.25c-10.99 20.02-31.68 52.71-58.25 71.75-26.84 19.23-61.09 31.79-91.09 39.83"/>
            <path d="m3769.67 443.14-10.55-.93 8.82-5.86z"/>
        </g>
        <g stroke="#000" class="edge">
            <path fill="none" d="M3830.36 311.86c-441.17 4.08-2251.28 22.62-2301.78 52.14-48.17 28.16-23.27 69.86-64 108-25.83 24.18-52.48 5.85-71 36-8.37 13.63-8.49 22.44 0 36 10.78 17.23 28.94 29 47.38 36.98"/>
            <path d="m1442.07 577.66 8.01 6.93-10.59-.42z"/>
        </g>
        <g stroke="#000" class="edge">
            <path fill="none" d="M3956.03 327.53c44.53 27.32 121.12 84.85 94.55 144.47-20.26 45.46-66.13 81.32-99.66 102.76"/>
            <path d="m3953.02 577.57-10.34 2.31 6.65-8.25z"/>
        </g>
        <g stroke="#000" class="edge">
            <path fill="none" d="M3183.79 529.7c360.08 11.28 1740.66 54.54 2074.7 65.01"/>
            <path d="m5258.53 591.21 9.89 3.81-10.11 3.19z"/>
        </g>
        <g stroke="#000" class="edge">
            <path fill="none" d="M3033.5 538.61c-12.54 2.01-25.62 3.92-37.92 5.39-231.35 27.59-505.68 42.81-643.54 49.25"/>
            <path d="m2352.4 596.74-10.15-3.04 9.83-3.96z"/>
        </g>
        <g stroke="#000" class="edge">
            <path fill="none" d="M3160.8 538.81c12.8 2.03 26.19 3.9 38.78 5.19 124.9 12.82 988 41.47 1261.84 50.33"/>
            <path d="m4461.45 590.83 9.88 3.82-10.1 3.18z"/>
        </g>
        <g stroke="#000" class="edge">
            <path fill="none" d="M3034.36 538.85c-12.79 2.02-26.19 3.88-38.78 5.15-140.3 14.12-1119.63 42.5-1411.25 50.72"/>
            <path d="m1584.62 598.21-10.1-3.21 9.9-3.78z"/>
        </g>
        <g stroke="#000" class="edge">
            <path fill="none" d="M3161.93 538.64c12.46 1.99 25.44 3.89 37.65 5.36 220.7 26.55 481.59 41.91 618.06 48.73"/>
            <path d="m3817.52 589.22 9.82 3.99-10.17 3z"/>
        </g>
        <g stroke="#000" class="edge">
            <path fill="none" d="M3971.83 471.92c23.03 21.33 66.12 57.04 110.75 72.08 55.89 18.83 917.54 43.9 1176.16 51.03"/>
            <path d="m5258.46 591.52 9.9 3.78-10.09 3.22z"/>
        </g>
        <g stroke="#000" class="edge">
            <path fill="none" d="M3914.09 470.19c-58.05 20.97-168.72 58.01-266.51 73.81-250.39 40.47-1028.02 50.23-1293.84 52.41"/>
            <path d="m2354.15 599.91-10.03-3.42 9.97-3.58z"/>
        </g>
        <g stroke="#000" class="edge">
            <path fill="none" d="M3960.27 472.13c7.92 20.87 24.41 55.37 51.31 71.87 73.13 44.85 317.69 52.58 448.6 53.4"/>
            <path d="m4459.83 593.9 9.99 3.55-10.02 3.45z"/>
        </g>
        <g stroke="red" stroke-width="2" class="edge">
            <path fill="none" d="M4001.41 469.5c35.18 10.9 83.58 25.89 121.21 37.55"/>
            <path fill="red" d="m4122.02 503.2 8.51 6.3-10.59.38z"/>
        </g>
        <g stroke="#000" class="edge">
            <path fill="none" d="M3885.09 465.15c-133.48 19.05-435.15 59.93-690.51 78.85-161.09 11.93-1293.33 42.46-1609.93 50.84"/>
            <path d="m1584.89 598.34-10.09-3.24 9.91-3.76z"/>
        </g>
        <g stroke="#000" class="edge">
            <path fill="none" d="M3948.06 472.07c-3.84 10.33-8.68 23.8-12.48 35.93-6.33 20.2-12.53 43.28-17.04 60.88"/>
            <path d="m3921.99 569.52-5.85 8.83-.94-10.55z"/>
        </g>
        <g stroke="#000" class="edge">
            <path fill="none" d="M3849.52 386.03c244.6 9.7 989.77 40.03 1013.06 49.97 21.4 9.13 17.81 24.43 38 36 118.35 67.81 276.4 101.34 364.5 115.75"/>
            <path d="m5265.44 584.27 9.32 5.03-10.43 1.88z"/>
        </g>
        <g stroke="#000" class="edge">
            <path fill="none" d="M3701 389.8c-38.35 3.46-86.43 7.49-129.42 10.2-48.06 3.03-832.67 1.25-866 36-11.08 11.55-8.69 22.56 0 36 21.17 32.74 58.83 3.26 80 36 8.69 13.44 10.73 24.13 0 36-28.39 31.42-290.99 45.16-432.55 50.33"/>
            <path d="m2353.44 597.81-10.12-3.14 9.87-3.85z"/>
        </g>
        <g stroke="#000" class="edge">
            <path fill="none" d="M3786.25 399.96c29.73 35.32 104.37 115.83 188.33 144.04 88.03 29.57 351.27 44.21 487.01 49.96"/>
            <path d="m4461.37 590.45 9.85 3.91-10.14 3.08z"/>
        </g>
        <g stroke="#000" class="edge">
            <path fill="none" d="M3846.06 388.71c57.46 6.41 138.4 19.78 204.52 47.29 38.46 16 77.17 44.47 102.22 64.9"/>
            <path d="m4154.76 497.98 5.46 9.08-9.93-3.7z"/>
        </g>
        <g stroke="#000" class="edge">
            <path fill="none" d="M3811.62 398.02c27.07 10.41 63.37 24.37 92.61 35.62"/>
            <path d="m3905.17 430.25 8.07 6.85-10.59-.32z"/>
        </g>
        <g stroke="#000" class="edge">
            <path fill="none" d="M3701 389.81c-38.35 3.46-86.43 7.49-129.42 10.19-638.77 40.1-805.95-4.54-1436 108-70.47 12.59-86.42 24.02-157 36-138.84 23.57-302.31 39.15-397.06 47"/>
            <path d="m1582.08 594.46-10.26-2.67 9.69-4.3z"/>
        </g>
        <g stroke="#000" class="edge">
            <path fill="none" d="M3715.72 394.75c-40.17 9.58-88.93 24.28-101.14 41.25-9.34 12.99-6.07 21.2 0 36 32.1 78.28 129.93 107.69 204.62 118.66"/>
            <path d="m3819.58 587.18 9.43 4.82-10.38 2.11z"/>
        </g>
        <g stroke="#000" class="edge">
            <path fill="none" d="M3738.8 469.62c59.39 20.83 174.46 58.3 275.78 74.38 122.7 19.47 984.94 44.05 1243.73 51.06"/>
            <path d="m5258.4 591.56 9.9 3.76-10.09 3.23z"/>
        </g>
        <g stroke="#000" class="edge">
            <path fill="none" d="M3649.01 467.82c-79.6 20-241.12 58.2-380.43 76.18-335.31 43.29-737.91 51.42-914.5 52.81"/>
            <path d="m2354.31 600.3-10.02-3.42 9.97-3.58z"/>
        </g>
        <g stroke="#000" class="edge">
            <path fill="none" d="M3702.3 472.17c5.52 20.92 18.07 55.47 43.28 71.83 29.69 19.27 517.88 41.42 716.22 49.68"/>
            <path d="m4461.65 590.17 9.85 3.91-10.14 3.08z"/>
        </g>
        <g stroke="#000" class="edge">
            <path fill="none" d="M3761.59 464.15c86.44 12.55 241.89 35.13 337.21 48.97"/>
            <path d="m4099.23 509.65 9.39 4.9-10.4 2.03z"/>
        </g>
        <g stroke="#000" class="edge">
            <path fill="none" d="M3632.08 462.65c-28.73 3.16-62.75 6.69-93.5 9.35-238.75 20.66-299.9 8.79-538 36-99.31 11.35-122.56 25.91-222 36-233.02 23.65-950.49 44.36-1194.09 50.88"/>
            <path d="m1584.85 598.37-10.09-3.23 9.9-3.77z"/>
        </g>
        <g stroke="#000" class="edge">
            <path fill="none" d="M3693.62 472.15c-4.54 19.62-8.34 51.63 7.96 71.85 16.19 20.08 75.33 33.86 126.74 42.32"/>
            <path d="m3828.68 582.83 9.32 5.03-10.43 1.89z"/>
        </g>
        <g stroke="#000" class="edge">
            <path fill="none" d="M4569.99 249.99C4675 267.7 4879.71 306.5 5046.58 364c142.49 49.1 226.17 16.8 307 144 11.9 18.73 4.31 43.45-5.06 62.09"/>
            <path d="m5351.69 571.59-7.88 7.09 1.74-10.46z"/>
        </g>
        <g stroke="#000" class="edge">
            <path fill="none" d="M4413.19 243.53c-150.68 8.06-469.07 26.14-737.61 48.47-313.88 26.1-399.76-5.65-705 72-40.16 10.22-45.78 26.06-86 36-88.15 21.79-345.69-30.97-407 36-10.8 11.8-10.12 23.6 0 36 50.48 61.86 125.52-25.86 176 36 10.12 12.4 10.52 23.95 0 36-19.67 22.52-194.8 39.03-303.58 47.21"/>
            <path d="m2350.45 594.69-10.24-2.75 9.72-4.23z"/>
        </g>
        <g stroke="#000" class="edge">
            <path fill="none" d="M4533.07 255.26c18.37 9.73 41.4 22.88 60.51 36.74 57.82 41.93 53.46 79.62 119 108 91.65 39.68 380.26-37.4 448 36 76.01 82.36-354.88 135.26-537.34 153.7"/>
            <path d="m4623.66 593.17-10.3-2.49 9.6-4.47z"/>
        </g>
        <g stroke="red" stroke-width="2" class="edge">
            <path fill="none" d="M4442.1 252.25c-52.14 11.81-128.44 29.09-183.12 41.48"/>
            <path fill="red" d="m4261.48 296.75-10.53-1.2 8.98-5.62z"/>
        </g>
        <g stroke="#000" class="edge">
            <path fill="none" d="M4483.03 256.14c-20.05 19.03-54.38 49.95-87.45 71.86-18.81 12.47-40.96 24.05-60.04 33.19"/>
            <path d="m4337.19 364.27-10.53 1.09 7.56-7.42z"/>
        </g>
        <g stroke="#000" class="edge">
            <path fill="none" d="M4487.84 256.29c-13.45 18.11-35.41 47.25-55.26 71.71-26.61 32.79-30.28 44.13-62 72-47.48 41.72-109.86 80.13-149.95 103.07"/>
            <path d="m4222.43 506.07-10.43 1.88 6.98-7.97z"/>
        </g>
        <g stroke="#000" class="edge">
            <path fill="none" d="M4409.1 238.99c-336.12.34-1534.67 5.08-2521.52 53.01-52.09 2.53-900.56 33.73-936 72-66.7 72.03 37.47 142.04 128 180 60.18 25.23 238.13 40.85 343.07 48.13"/>
            <path d="m1422.57 588.61 9.74 4.18-10.21 2.81z"/>
        </g>
        <g stroke="#000" class="edge">
            <path fill="none" d="M4497.03 256.32c-11.97 53.56-56.29 217.15-163.45 287.68-52.05 34.26-218.89 46.38-326.54 50.67"/>
            <path d="m4007.48 598.15-10.13-3.12 9.86-3.87z"/>
        </g>
        <g stroke="#000" class="edge">
            <path fill="none" d="M3496.56 468.7c77.48 20.55 231.57 58.71 365.02 75.3 139.04 17.28 1119.98 43.88 1397.19 51.12"/>
            <path d="m5258.47 591.62 9.91 3.76-10.09 3.23z"/>
        </g>
        <g stroke="#000" class="edge">
            <path fill="none" d="M3411.99 470.75c-47.76 20.93-137.12 57.13-217.41 73.25-159.11 31.95-640 46.36-841.09 51.11"/>
            <path d="m2353.7 598.61-10.08-3.27 9.91-3.73z"/>
        </g>
        <g stroke="#000" class="edge">
            <path fill="none" d="M3475.89 471.16c39.79 21.03 113.74 56.97 181.69 72.84 151.08 35.28 612.33 47.84 803.07 51.6"/>
            <path d="m4460.56 592.1 9.93 3.69-10.07 3.31z"/>
        </g>
        <g stroke="#000" class="edge">
            <path fill="none" d="M3520.17 462.57c29.36 2.98 63.48 6.42 94.41 9.43 167.62 16.33 363.26 34.44 475.09 44.7"/>
            <path d="m4089.74 513.19 9.64 4.4-10.28 2.57z"/>
        </g>
        <g stroke="#000" class="edge">
            <path fill="none" d="M3373.76 463.01c-179.1 19.62-637.63 69.32-791.18 80.99-372.05 28.27-817.41 44.59-997.97 50.48"/>
            <path d="m1584.73 597.97-10.11-3.17 9.88-3.82z"/>
        </g>
        <g stroke="#000" class="edge">
            <path fill="none" d="M3450.95 472.31c6.2 20.72 19.69 54.73 44.63 71.69 50.54 34.36 213.7 46.45 320.03 50.7"/>
            <path d="m3815.63 591.2 9.86 3.87-10.13 3.12z"/>
        </g>
        <g stroke="#000" class="edge">
            <path fill="none" d="M2073.95 391.38c-43.5 3.15-94.32 6.48-140.37 8.62-663.92 30.83-834.12-34.59-1495 36-6.98.75-14.23 1.75-21.45 2.89"/>
            <path d="m417.8 442.33-10.44-1.78 9.28-5.12z"/>
        </g>
        <g stroke="#000" class="edge">
            <path fill="none" d="M2146.14 399.66c-16.19 9.08-34.9 21.5-48.56 36.34-34.46 37.44-69.13 67.75-38 108 15.58 20.15 74.55 34.06 125.11 42.55"/>
            <path d="m2185.19 583.09 9.31 5.06-10.44 1.85z"/>
        </g>
        <g stroke="#000" class="edge">
            <path fill="none" d="M2298.29 387.79c156.06 7.05 439.92 22.25 681.29 48.21 9.68 1.04 19.81 2.3 29.85 3.66"/>
            <path d="m3009.79 436.18 9.43 4.84-10.39 2.09z"/>
        </g>
        <g class="node" transform="translate(4 616)">
            <ellipse cx="1054.58" cy="-162" fill="none" stroke="#000" rx="60.56" ry="18"/>
            <text x="1054.58" y="-156.95" font-family="Times,serif" font-size="14" text-anchor="middle">:library:room</text>
        </g>
        <g stroke="#000" class="edge">
            <path fill="none" d="M2072.09 390.86c-43.1 3.02-93.14 6.4-138.51 9.14-306.97 18.56-384.27 13.85-691 36-38.38 2.77-81.18 6.68-115.85 10.05"/>
            <path d="m1127.11 449.53-10.29-2.51 9.61-4.46z"/>
        </g>
        <g stroke="#000" class="edge">
            <path fill="none" d="M455.29 399.77c-19.24 9.69-43.62 21.96-64.11 32.28"/>
            <path d="m393.03 435.04-10.51 1.37 7.36-7.62z"/>
        </g>
        <g stroke="#000" class="edge">
            <path fill="none" d="M378.84 392.29C301.3 402.97 218.13 425.46 260.58 472c65.34 71.64 1531.89 113.21 1913.11 122.83"/>
            <path d="m2173.76 591.33 9.91 3.75-10.09 3.25z"/>
        </g>
        <g stroke="#000" class="edge">
            <path fill="none" d="M505.39 400.3c8.07 8.31 17.89 18.42 26.77 27.56"/>
            <path d="m534.45 425.2 4.46 9.61-9.48-4.73z"/>
        </g>
        <g stroke="#000" class="edge">
            <path fill="none" d="m584.31 394.76 408 50.1"/>
            <path d="m992.52 441.36 9.5 4.69-10.35 2.26z"/>
        </g>
        <g stroke="#000" class="edge">
            <path fill="none" d="M5028.9 388.22c388.09 13.56 1421.22 49.67 1750.99 61.19"/>
            <path d="m6779.93 445.91 9.88 3.85-10.12 3.15z"/>
        </g>
        <g stroke="#000" class="edge">
            <path fill="none" d="M4729.72 388.02c-381.07 12.77-1358.24 45.71-1375.14 47.98-68.81 9.25-83.31 25.96-152 36-274.88 40.16-347.47 9.55-624 36-10 .96-20.43 2.1-30.82 3.35"/>
            <path d="m2548.38 514.8-10.35-2.26 9.5-4.69z"/>
        </g>
        <g stroke="#000" class="edge">
            <path fill="none" d="M986.48 393.19c-23.87 2.34-49.29 4.75-72.9 6.81-210.91 18.41-265.13 8.09-475 36-6.75.9-13.77 1.98-20.77 3.15"/>
            <path d="m418.82 442.53-10.45-1.72 9.24-5.17z"/>
        </g>
        <g stroke="#000" class="edge">
            <path fill="none" d="M1101.74 400.16c8.75 9.92 19.29 22.96 26.84 35.84 26.13 44.57.96 77.97 43 108 40.5 28.93 747.88 46.03 1002.01 51.27"/>
            <path d="m2173.54 591.77 9.93 3.7-10.07 3.3z"/>
        </g>
        <g stroke="#000" class="edge">
            <path fill="none" d="M1144.06 398.28c42.31 11.05 99.54 25.99 143.49 37.47"/>
            <path d="m1288.17 432.3 8.79 5.91-10.56.86z"/>
        </g>
        <g stroke="#000" class="edge">
            <path fill="none" d="M1078.91 400.3c-2.91 7.55-6.4 16.58-9.65 25.02"/>
            <path d="m1072.59 426.41-6.87 8.07.33-10.59z"/>
        </g>
        <g stroke="#000" class="edge">
            <path fill="none" d="M6930.76 400.3c-7.52 8.23-16.65 18.22-24.94 27.28"/>
            <path d="m6908.57 429.76-9.33 5.02 4.16-9.74z"/>
        </g>
        <g stroke="#000" class="edge">
            <path fill="none" d="M6963.72 400.11c16.93 19 38 49.89 20.86 71.89-80.27 103.08-155.56 54.28-285 72-13.07 1.79-1675.59 41.56-2071.21 51"/>
            <path d="m4628.63 598.5-10.08-3.26 9.91-3.74z"/>
        </g>
        <g stroke="#000" class="edge">
            <path fill="none" d="M6798.62 388.41c-364.08 13.3-1298.65 47.44-1640.41 59.93"/>
            <path d="m5158.43 451.83-10.12-3.13 9.86-3.86z"/>
        </g>
        <g stroke="#000" class="edge">
            <path fill="none" d="M684.86 396.05c-67.27 10.31-162.81 25.34-246.28 39.95-6.25 1.09-12.75 2.27-19.25 3.46"/>
            <path d="m420.38 442.83-10.48-1.61 9.2-5.27z"/>
        </g>
        <g stroke="#000" class="edge">
            <path fill="none" d="M817.68 399.24c27.73 10.03 63.6 23.49 94.9 36.76 103.97 44.08 120.37 80.9 230 108 98.8 24.42 783.02 44.28 1031.28 50.76"/>
            <path d="m2173.92 591.26 9.91 3.76-10.09 3.24z"/>
        </g>
        <g stroke="#000" class="edge">
            <path fill="none" d="M777.02 400.3c2.34 7.46 5.14 16.38 7.77 24.73"/>
            <path d="m788.09 423.86-.34 10.59-6.34-8.49z"/>
        </g>
        <g stroke="#000" class="edge">
            <path fill="none" d="M834.21 398.28c50.03 12.2 119.55 29.15 167.89 40.94"/>
            <path d="m1002.64 435.75 8.88 5.77-10.54 1.03z"/>
        </g>
        <g stroke="#000" class="edge">
            <path fill="none" d="M5431.2 251.11c57.48 12.09 145.79 30.65 206.84 43.48"/>
            <path d="m5638.56 291.12 9.06 5.49-10.5 1.36z"/>
        </g>
        <g stroke="#000" class="edge">
            <path fill="none" d="M5392.3 255.75c37.71 32.84 126.71 105.81 214.28 144.25 45.18 19.84 98.65 32.66 143.07 40.72"/>
            <path d="m5750 437.23 9.25 5.18-10.46 1.71z"/>
        </g>
        <g stroke="#000" class="edge">
            <path fill="none" d="M5432.69 250.82c10.59 1.89 21.55 3.71 31.89 5.18 11.09 1.57 302.77 29.86 453.54 44.45"/>
            <path d="m5918.05 296.93 9.61 4.44-10.29 2.52z"/>
        </g>
        <g stroke="#000" class="edge">
            <path fill="none" d="M5382.99 256.06c10.99 18.96 30.5 49.82 52.59 71.94 39.46 39.53 53.57 45.99 103 72 167.71 88.26 394.16 114.23 507.01 121.85"/>
            <path d="m6045.54 518.34 9.76 4.14-10.21 2.85z"/>
        </g>
        <g stroke="#000" class="edge">
            <path fill="none" d="M5432.7 250.72c10.59 1.91 21.54 3.76 31.88 5.28 146.83 21.64 188.69-2.6 332 36 38.04 10.25 43.31 24.52 81 36 88.91 27.08 125.09-9.73 206 36 84.79 47.93 191.76 109.08 125 180-27.4 29.11-598.16 46.09-803.89 51.28"/>
            <path d="m5405.01 598.77-10.08-3.25 9.91-3.74z"/>
        </g>
        <g stroke="#000" class="edge">
            <path fill="none" d="M5431.16 251.03c11.05 1.95 22.56 3.73 33.42 4.97 368.61 42.17 464.43 3.36 834 36 16.47 1.46 34.09 3.5 50.8 5.67"/>
            <path d="m6349.82 294.19 9.45 4.79-10.37 2.15z"/>
        </g>
        <g stroke="#000" class="edge">
            <path fill="none" d="M5307.46 248.81c-21.88 2.85-46.38 5.61-68.88 7.19-270.7 18.98-2173.63-4.19-2442 36-56.75 8.5-68.39 21.84-124 36-72.32 18.41-96.16 4.91-164 36-24.24 11.11-23.37 25.77-48 36-103.27 42.88-157.63-28.46-249 36-41.58 29.33-63.25 63.82-38 108 8.26 14.45 22.17 25.36 36.62 33.4"/>
            <path d="m2211.56 574.16 7.32 7.67-10.5-1.43z"/>
        </g>
        <g stroke="#000" class="edge">
            <path fill="none" d="M5365.76 256.39c-26.34 56.02-118.01 231.34-257.18 287.61-84.97 34.35-345.18 46.78-480.41 51"/>
            <path d="m4628.68 598.48-10.1-3.19 9.89-3.81z"/>
        </g>
        <g stroke="#000" class="edge">
            <path fill="none" d="M5431.66 251c10.9 1.92 22.23 3.71 32.92 5 281.95 34.15 355.84 3.68 638 36 7.64.87 15.58 1.96 23.5 3.15"/>
            <path d="m6126.38 291.66 9.34 5.01-10.43 1.9z"/>
        </g>
        <g stroke="#000" class="edge">
            <path fill="none" d="M5306.39 248.46c-21.61 2.78-45.69 5.59-67.81 7.54-350.33 30.88-768.31 45.34-952.22 50.57"/>
            <path d="m4286.46 310.07-10.09-3.22 9.9-3.78z"/>
        </g>
        <g stroke="#000" class="edge">
            <path fill="none" d="M5305.01 247.99c-193.39 25.36-742.02 97.29-941.11 123.4"/>
            <path d="m4364.58 374.83-10.37-2.17 9.46-4.77z"/>
        </g>
        <g stroke="#000" class="edge">
            <path fill="none" d="M5726.15 256.3c-2.8 7.55-6.15 16.58-9.29 25.02"/>
            <path d="m5720.22 282.32-6.76 8.16.2-10.6z"/>
        </g>
        <g stroke="#000" class="edge">
            <path fill="none" d="M5679.21 249.73c-23.41 7.64-48.69 20.57-62.63 42.27-8.65 13.46-7.39 21.81 0 36 30.23 58.01 99.51 90.6 153.08 107.85"/>
            <path d="m5770.52 432.45 8.52 6.3-10.59.39z"/>
        </g>
        <g stroke="#000" class="edge">
            <path fill="none" d="M5780.62 251.27c44.95 11.49 112.4 28.72 161.91 41.37"/>
            <path d="m5943.15 289.18 8.82 5.87-10.55.91z"/>
        </g>
        <g stroke="#000" class="edge">
            <path fill="none" d="M5801.24 240.36c143.44 3.55 464.42 15.5 497.34 51.64 67.64 74.28-74.45 170.84-145.62 212.45"/>
            <path d="m6155.14 507.23-10.41 1.96 6.92-8.02z"/>
        </g>
        <g stroke="#000" class="edge">
            <path fill="none" d="M5800.52 241.11c185.74 6.1 689.83 24.96 714.06 50.89 10.92 11.69 6.77 21.5 0 36-63.28 135.5-118.96 160.93-258 216-78.25 30.99-646.81 46.73-851.68 51.45"/>
            <path d="m5405.27 598.94-10.08-3.27 9.92-3.73z"/>
        </g>
        <g stroke="#000" class="edge">
            <path fill="none" d="M5799.28 242.92c110.84 6.96 339.85 23.22 532.3 49.08 7.76 1.04 15.86 2.28 23.91 3.6"/>
            <path d="m6356.03 292.15 9.27 5.12-10.45 1.78z"/>
        </g>
        <g stroke="#000" class="edge">
            <path fill="none" d="M5684.15 251.09c-9.74 2-19.93 3.78-29.57 4.91-425.17 49.82-1498.28 18.67-1926 36-16.05.65-1139.27 65.59-1154 72-21.33 9.28-17.25 25.47-38 36-79.37 40.27-121.73-11.51-197 36-46.11 29.1-64.76 94.55-71.9 132.43"/>
            <path d="m2271.15 568.92-5.15 9.27-1.75-10.45z"/>
        </g>
        <g stroke="#000" class="edge">
            <path fill="none" d="M5684.7 251.3c-25.34 8.33-55.76 21.39-78.12 40.7-70.79 61.12-37.23 120.03-109 180-68.66 57.37-100.63 52.7-188 72-127.87 28.25-510.98 44.38-681.53 50.34"/>
            <path d="m4628.26 597.83-10.11-3.15 9.87-3.85z"/>
        </g>
        <g stroke="#000" class="edge">
            <path fill="none" d="M5792.9 247.08c73.31 9.96 200.72 27.67 309.68 44.92 6.94 1.1 14.15 2.28 21.37 3.48"/>
            <path d="m6124.49 292.03 9.28 5.11-10.45 1.79z"/>
        </g>
        <g stroke="#000" class="edge">
            <path fill="none" d="M5683.71 251.05c-9.6 1.97-19.64 3.75-29.13 4.95-265.97 33.53-1087.02 47.79-1367.74 51.77"/>
            <path d="m4287.04 311.27-10.05-3.36 9.95-3.64z"/>
        </g>
        <g stroke="#000" class="edge">
            <path fill="none" d="M5682.82 250.8c-9.35 1.95-19.06 3.78-28.24 5.2-483.76 74.59-1071.41 110.05-1283.13 121.07"/>
            <path d="m4371.82 380.56-10.16-2.98 9.8-4.01z"/>
        </g>
        <g stroke="#000" class="edge">
            <path fill="none" d="M6129.39 181.53c-87.31 26.32-271.26 81.78-365.1 110.07"/>
            <path d="m5765.34 294.94-10.59-.46 8.57-6.24z"/>
        </g>
        <g stroke="#000" class="edge">
            <path fill="none" d="M6265.5 169.07c101.96 4.04 262.17 15.92 310.08 50.93 40.63 29.69 66.6 69.67 34 108-42.96 50.5-471.2 96.97-669.36 115.96"/>
            <path d="m5940.74 447.43-10.29-2.54 9.62-4.43z"/>
        </g>
        <g stroke="#000" class="edge">
            <path fill="none" d="M6157.29 183.85c-30.21 25.08-87.16 72.38-121.75 101.1"/>
            <path d="m6037.93 287.51-9.93 3.7 5.46-9.08z"/>
        </g>
        <g stroke="#000" class="edge">
            <path fill="none" d="M6266.64 166.98c110.53 1.81 290.63 11.32 340.94 53.02 37.78 31.32 47.7 65.6 23 108-90.47 155.29-325.24 188.76-443.99 195.57"/>
            <path d="m6186.8 527.07-10.17-2.98 9.81-4.01z"/>
        </g>
        <g stroke="#000" class="edge">
            <path fill="none" d="M6265.08 169.28c163.51 4.97 509.26 18.95 624.5 50.72 128.54 35.43 291.02 56.82 240 180-70.23 169.55-205.05 120-387 144-262.54 34.63-1086.95 48.56-1337.83 52.06"/>
            <path d="m5405.15 599.56-10.05-3.37 9.95-3.63z"/>
        </g>
        <g stroke="#000" class="edge">
            <path fill="none" d="M6184.06 184.11c8.52 20.2 25.42 53.36 50.52 71.89 19.44 14.35 75.02 28.9 121.24 39.12"/>
            <path d="m6356.53 291.69 9.03 5.55-10.51 1.29z"/>
        </g>
        <g stroke="#000" class="edge">
            <path fill="none" d="M6088.91 167.74c-560.83 4.74-3593.31 31.34-3635.33 52.26-22.68 11.29-117.66 168.05-140 180-97.65 52.21-415.15-38.58-497 36-35.7 32.53-44.13 71.94-12 108 24.19 27.14 244.28 42.42 370.7 49.03"/>
            <path d="m2175.14 589.51 9.81 4.01-10.17 2.99z"/>
        </g>
        <g stroke="#000" class="edge">
            <path fill="none" d="M6262.72 171.45c125.17 7.34 347 23.69 373.86 48.55 84.72 78.43 30.41 184.16-63 252-67.05 48.7-90.99 54.52-172 72-43.89 9.47-1416.89 42.58-1773.2 51.03"/>
            <path d="m4628.47 598.52-10.08-3.26 9.92-3.73z"/>
        </g>
        <g stroke="#000" class="edge">
            <path fill="none" d="M6180.4 184.41c3.88 23.98 10.92 67.45 15.58 96.17"/>
            <path d="m6199.42 279.96-1.85 10.44-5.06-9.32z"/>
        </g>
        <g stroke="#000" class="edge">
            <path fill="none" d="M6088.92 167.4c-419.29 2.43-2192.11 18.91-2413.34 124.6-40.55 19.37-40.03 39.43-71 72-14.96 15.73-13.64 26.19-33 36-131.22 66.48-194.74-24.1-329 36-21.83 9.77-20.26 22.49-40 36-17.97 12.3-39.2 23.55-57.84 32.49"/>
            <path d="m3146.3 507.62-10.54 1.08 7.57-7.41z"/>
        </g>
        <g stroke="#000" class="edge">
            <path fill="none" d="M6091.24 170.6c-283.9 11.85-1187.65 49.58-1490.59 62.22"/>
            <path d="m4600.91 236.31-10.13-3.07 9.84-3.92z"/>
        </g>
        <g stroke="#000" class="edge">
            <path fill="none" d="M6261.66 172.17c146.25 11.9 422.83 48.94 323.92 155.83-9.49 10.25-372.93 34-565.68 45.92"/>
            <path d="m6020.3 377.4-10.2-2.88 9.77-4.11z"/>
        </g>
        <g stroke="#000" class="edge">
            <path fill="none" d="M5217.09 247.72c21.01 2.66 44.2 5.6 65.49 8.28 119.45 15.04 257.85 32.31 343.17 42.94"/>
            <path d="m5626.18 295.47 9.49 4.71-10.36 2.23z"/>
        </g>
        <g stroke="#000" class="edge">
            <path fill="none" d="M5170.62 255.59c45.82 33.55 155.9 109.24 260.96 144.41 55.3 18.51 205.82 34.93 307.99 44.41"/>
            <path d="m5739.71 440.91 9.64 4.4-10.28 2.57z"/>
        </g>
        <g stroke="#000" class="edge">
            <path fill="none" d="M5215.63 248.26c21.37 2.75 45.13 5.59 66.95 7.74 227.9 22.42 285.65 18.76 514 36 39.17 2.96 82.43 6.42 119.46 9.45"/>
            <path d="m5916.13 297.95 9.68 4.31-10.25 2.67z"/>
        </g>
        <g stroke="#000" class="edge">
            <path fill="none" d="M5158.42 256.33c12.28 20.1 35.11 52.86 63.16 71.67 67.95 45.57 280.32 68.55 352 108 21.54 11.86 19.42 26.27 42 36 75.44 32.53 310.26 45.88 429.3 50.66"/>
            <path d="m6045 519.17 9.86 3.88-10.13 3.11z"/>
        </g>
        <g stroke="#000" class="edge">
            <path fill="none" d="M5150.77 256.27c3.26 19.42 11.04 50.97 28.81 71.73 22.11 25.83 102.79 61.12 135 72 94.28 31.84 131.82-8.17 221 36l76 72c6.32 14.7 10.21 23.68 0 36-25.89 31.26-133.62 44.22-207.64 49.5"/>
            <path d="m5404.55 596.96-10.22-2.81 9.74-4.17z"/>
        </g>
        <g stroke="#000" class="edge">
            <path fill="none" d="M5214.57 248.58c21.63 2.82 45.8 5.62 68.01 7.42 450.36 36.47 565.76-2.02 1016 36 16.73 1.41 34.63 3.47 51.56 5.67"/>
            <path d="m6350.15 294.14 9.45 4.79-10.37 2.15z"/>
        </g>
        <g stroke="#000" class="edge">
            <path fill="none" d="M5069.64 241.73c-106.49 3.63-302.06 10.05-469.06 14.27-409.28 10.35-1436.16-17.99-1842 36-130.79 17.4-168.59 15.88-288 72-24.46 11.49-23.9 25.99-49 36-119 47.45-180.64-36.89-286 36-41.85 28.95-68.01 66.91-38 108 18.59 25.46 49.55 38.97 79.73 46.05"/>
            <path d="m2177.83 586.58 9.06 5.48-10.51 1.37z"/>
        </g>
        <g stroke="#000" class="edge">
            <path fill="none" d="M5149.27 256.47c.88 18 2.72 46.84 6.31 71.53 9.31 64.14 56.51 88.53 23 144-56.26 93.13-391.25 116.89-550.28 122.94"/>
            <path d="m4628.79 598.43-10.12-3.14 9.87-3.86z"/>
        </g>
        <g stroke="#000" class="edge">
            <path fill="none" d="M5214.92 248.51c21.54 2.8 45.58 5.61 67.66 7.49 363.48 30.98 457.32-3.26 820 36 7.76.84 15.83 1.91 23.87 3.11"/>
            <path d="m6126.91 291.64 9.34 5-10.42 1.92z"/>
        </g>
        <g stroke="#000" class="edge">
            <path fill="none" d="M5101.44 252.9c-18.96 8.16-38.9 20.61-49.86 39.1-8.16 13.76-6.16 21.23 0 36 13.12 31.47 95.88 76.53 109 108 6.16 14.77 11 24.38 0 36-15.04 15.88-636.62 40.39-881.91 49.46"/>
            <path d="m4278.91 524.96-10.12-3.13 9.86-3.87z"/>
        </g>
        <g stroke="#000" class="edge">
            <path fill="none" d="M5069.24 241.65c-295.88 9.91-1318.88 44.57-1334.66 50.35-48.76 17.84-52.67 38.11-92 72-17.63 15.19-17.06 25.87-38 36-101.05 48.9-140.91 9.51-250 36-39.58 9.61-142.53 46.69-205.46 69.85"/>
            <path d="m3150.63 509.02-10.59.17 8.17-6.74z"/>
        </g>
        <g stroke="#000" class="edge">
            <path fill="none" d="M5069.62 241.68c-281.06 9.61-1217.78 42.16-1248.04 50.32-66.03 17.81-79.25 33.84-136 72-20.68 13.91-20.9 24.48-43 36-37.13 19.35-81.99 32.16-119.43 40.32"/>
            <path d="m3524.29 443.66-10.51-1.36 9.06-5.49z"/>
        </g>
        <g stroke="#000" class="edge">
            <path fill="none" d="M5208.4 250.47c88.98 17.04 261.46 49.98 408.18 77.53 68.05 12.78 145.24 27.07 202.27 37.59"/>
            <path d="m5819.29 362.11 9.2 5.26-10.47 1.63z"/>
        </g>
        <g stroke="#000" class="edge">
            <path fill="none" d="M6252.52 246.76c-113.69 12.96-341.8 38.97-464.08 52.91"/>
            <path d="m5789.14 303.11-10.34-2.34 9.54-4.61z"/>
        </g>
        <g stroke="#000" class="edge">
            <path fill="none" d="M6393 244.33c84.05 8.74 205.06 30.77 154.58 83.67-59.05 61.88-709.95-25.88-769 36-19.14 20.05 4.23 46.47 27.55 65.3"/>
            <path d="m5807.99 426.32 5.79 8.88-10.06-3.34z"/>
        </g>
        <g stroke="#000" class="edge">
            <path fill="none" d="M6266.24 251.11c-52.9 11.8-133.5 29.77-190.86 42.55"/>
            <path d="m6076.23 297.06-10.52-1.24 9-5.59z"/>
        </g>
        <g stroke="#000" class="edge">
            <path fill="none" d="M6397.56 239.47c85.86 3.78 208.06 20.76 170.02 88.53-7.52 13.39-221.82 138.1-236 144-49.52 20.6-108.9 34.45-152.85 42.81"/>
            <path d="m6179.57 518.21-10.47-1.62 9.2-5.26z"/>
        </g>
        <g stroke="#000" class="edge">
            <path fill="none" d="M6397.18 240.24c211.85 5.08 785.48 30.77 715.4 159.76-28.07 51.67-55.56 52.4-111 72-300.95 106.41-1314.27 122.24-1596.5 124.59"/>
            <path d="m5405.31 600.09-10.02-3.42 9.97-3.58z"/>
        </g>
        <g stroke="#000" class="edge">
            <path fill="none" d="M6345.2 255.41c13.72 9.15 31.03 20.69 46.06 30.71"/>
            <path d="m6393.11 283.15 6.38 8.46-10.26-2.64z"/>
        </g>
        <g stroke="#000" class="edge">
            <path fill="none" d="M6244.98 241.88c-99.56 3.71-280.08 10.15-434.4 14.12-883.85 22.73-1106.24-13.41-1989 36-170.71 9.55-212.69 20.92-383 36-192.36 17.04-248.38-20.64-433 36-31.2 9.57-32.92 26.06-64 36-71.53 22.88-285.81-19.86-336 36-10.69 11.9-8.17 22.24 0 36 17.06 28.73 48.94 7.27 66 36 8.17 13.76 10.56 23.98 0 36-20.82 23.7-207.25 39.93-320.77 47.72"/>
            <path d="m2351.11 595.2-10.22-2.81 9.75-4.17z"/>
        </g>
        <g stroke="#000" class="edge">
            <path fill="none" d="M6394.39 243.52c69.83 6.01 167.39 19.45 191.19 48.48 10.14 12.37 7.66 21.95 0 36-84.79 155.55-165.86 163.33-335 216-39.12 12.18-1284.76 42.89-1622.33 51.01"/>
            <path d="m4628.69 598.5-10.08-3.26 9.91-3.74z"/>
        </g>
        <g stroke="#000" class="edge">
            <path fill="none" d="M6292.75 255.24c-16.24 9.47-36.95 21.55-54.62 31.85"/>
            <path d="m6240.38 289.83-10.4 2.02 6.88-8.06z"/>
        </g>
        <g stroke="#000" class="edge">
            <path fill="none" d="M6387.54 247.14c71.86 11.26 170.24 35.52 127.04 80.86-28.66 30.08-705.77 30.85-747 36-239.41 29.89-292.62 77.86-532 108-93.31 11.75-714.4 38.7-957.6 48.94"/>
            <path d="m4278.34 524.43-10.14-3.07 9.85-3.92z"/>
        </g>
        <g stroke="#000" class="edge">
            <path fill="none" d="M6244.98 241.81c-99.56 3.64-280.09 10-434.4 14.19-760.78 20.68-952.3-9.46-1712 36-26.09 1.56-54.34 4.03-80.26 6.6"/>
            <path d="m4018.79 302.07-10.3-2.47 9.59-4.49z"/>
        </g>
        <g stroke="#000" class="edge">
            <path fill="none" d="M5592.94 254.88c20.76 9.89 47.7 22.72 70.14 33.4"/>
            <path d="m5664.46 285.07 7.53 7.46-10.54-1.14z"/>
        </g>
        <g stroke="#000" class="edge">
            <path fill="none" d="M5563.42 256.28c8.27 33.1 30.96 105.55 78.16 143.72 18.47 14.93 71.36 28.64 117.97 38.37"/>
            <path d="m5760.04 434.9 9.1 5.43-10.5 1.43z"/>
        </g>
        <g stroke="#000" class="edge">
            <path fill="none" d="M5622.64 250.6c10.65 1.87 21.6 3.73 31.94 5.4 111.26 17.93 139.65 18.65 251 36a3045 3045 0 0 1 24.58 3.94"/>
            <path d="m5930.63 292.47 9.3 5.08-10.44 1.82z"/>
        </g>
        <g stroke="#000" class="edge">
            <path fill="none" d="M5620.23 251.14c58.96 12.05 144.17 30.23 176.35 40.86 37.41 12.36 43.31 24.52 81 36 88.91 27.08 135.58-24.66 206 36 37.64 32.42 38.86 95.32 35.8 132.18"/>
            <path d="m6122.87 496.49-4.49 9.6-2.48-10.3z"/>
        </g>
        <g stroke="#000" class="edge">
            <path fill="none" d="M5623.28 250.41c85.1 15.27 225.62 40.57 228.3 41.59 28.71 10.93 30.21 25.28 59 36 91.2 33.97 126.52-2.29 216 36 85.35 36.52 169.69 112.45 106 180-28.26 29.97-617.98 46.46-827.74 51.4"/>
            <path d="m5404.95 598.9-10.08-3.27 9.92-3.73z"/>
        </g>
        <g stroke="#000" class="edge">
            <path fill="none" d="M5620.74 251.07c11.22 1.89 22.86 3.65 33.84 4.93 284.73 33.31 358.61 8.96 644 36 16.37 1.55 33.88 3.62 50.51 5.79"/>
            <path d="m6349.48 294.31 9.45 4.79-10.38 2.15z"/>
        </g>
        <g stroke="#000" class="edge">
            <path fill="none" d="M5499.22 251.27c-11.46 1.91-23.39 3.62-34.64 4.73-322.87 31.96-2613.58-4.22-2918 108-25.02 9.22-23.37 25.77-48 36-51.64 21.44-212.4-6.27-249 36-31.98 36.94-13.97 98.13.81 133.48"/>
            <path d="m2253.58 568.04.82 10.56-7.23-7.75z"/>
        </g>
        <g stroke="#000" class="edge">
            <path fill="none" d="M5538.43 255.91c-10.67 9.55-22.98 22.33-30.85 36.09-20.34 35.56-24 48.03-24 89v74c0 86.24-627.17 126.36-856.39 138.15"/>
            <path d="m4627.6 596.63-10.16-2.99 9.81-4z"/>
        </g>
        <g stroke="#000" class="edge">
            <path fill="none" d="M5621.28 250.94c11.06 1.88 22.5 3.66 33.3 5.06 198.1 25.62 249.83 10.9 448 36 7.42.94 15.14 2.05 22.84 3.24"/>
            <path d="m6125.84 291.77 9.32 5.03-10.43 1.88z"/>
        </g>
        <g stroke="#000" class="edge">
            <path fill="none" d="M5531.52 255.33c-17.8 10.4-41.28 24.22-61.94 36.67-130.58 78.68-146.48 134.54-292 180-42.42 13.25-656.93 39.29-899.53 49.12"/>
            <path d="m4278.43 524.61-10.14-3.09 9.86-3.91z"/>
        </g>
        <g stroke="#000" class="edge">
            <path fill="none" d="M5499.21 251.21c-11.46 1.92-23.38 3.64-34.63 4.79-604.18 61.66-759.86-1.89-1366 36-26.09 1.63-54.34 4.12-80.26 6.69"/>
            <path d="m4018.79 302.17-10.3-2.48 9.6-4.49z"/>
        </g>
        <g class="node" transform="translate(4 616)">
            <ellipse cx="4737.58" cy="-90" fill="none" stroke="#000" rx="106.11" ry="18"/>
            <text x="4737.58" y="-84.95" font-family="Times,serif" font-size="14" text-anchor="middle">:library:firebase-common</text>
        </g>
        <g stroke="#000" class="edge">
            <path fill="none" d="M4741.58 472.3v24.16"/>
            <path d="m4745.08 496.38-3.5 10-3.5-10z"/>
        </g>
        <g stroke="#000" class="edge">
            <path fill="none" d="M5887.25 400.3c-7.2 8.14-15.95 18.01-23.91 27"/>
            <path d="m5865.98 429.6-9.25 5.16 4.01-9.8z"/>
        </g>
        <g stroke="#000" class="edge">
            <path fill="none" d="M5928.54 399.86c15.92 10.37 36.7 23.96 55.04 36.14 34.04 22.61 72.79 48.79 99.45 66.87"/>
            <path d="m6084.72 499.79 6.31 8.51-10.24-2.72z"/>
        </g>
        <g stroke="#000" class="edge">
            <path fill="none" d="M5923.35 400.19c20.2 18.79 45.39 49.24 27.23 71.81-93.85 116.61-180.63 52.25-329 72-367.21 48.87-810.23 53.86-992.45 53.6"/>
            <path d="m4629.27 601.1-9.99-3.52 10.01-3.48z"/>
        </g>
        <g stroke="#000" class="edge">
            <path fill="none" d="M1255.14 458.79c-92.72 7.09-210.37 27.36-159.56 85.21 21.19 24.13 214.44 40.56 326.86 48.17"/>
            <path d="m1422.47 588.66 9.74 4.16-10.21 2.83z"/>
        </g>
        <g stroke="#000" class="edge">
            <path fill="none" d="M810.68 471.96c22.41 21.02 63.94 56.04 106.9 72.04 89.99 33.51 364.18 46.4 502.85 50.87"/>
            <path d="m1420.4 591.37 9.88 3.81-10.1 3.19z"/>
        </g>
        <g stroke="#000" class="edge">
            <path fill="none" d="M598.86 470.86c56.66 20.53 160.74 55.72 252.72 73.14 202.04 38.25 444.5 48.91 568.74 51.87"/>
            <path d="m1420.17 592.36 9.92 3.73-10.08 3.27z"/>
        </g>
        <g stroke="#000" class="edge">
            <path fill="none" d="M1111.57 463.1c123.07 18.41 437.97 63.17 703.01 80.9 971.74 65.02 1217.37 12.65 2191 36 161.42 3.87 349.98 10.24 455.84 13.99"/>
            <path d="m4461.28 590.48 9.87 3.85-10.12 3.15z"/>
        </g>
    </g>
</svg>
