<svg xmlns="http://www.w3.org/2000/svg" width="5110pt" height="404pt" viewBox="0 0 5109.58 404">
    <g class="graph">
        <path fill="#fff" d="M0 404V0h5109.58v404z"/>
        <g class="node" transform="translate(4 400)">
            <ellipse cx="2653.58" cy="-378" fill="none" stroke="#000" rx="97.41" ry="18"/>
            <text x="2653.58" y="-372.95" font-family="Times,serif" font-size="14" text-anchor="middle">:app:platform:common</text>
        </g>
        <g class="node" transform="translate(4 400)">
            <ellipse cx="4229.58" cy="-162" fill="none" stroke="#000" rx="101" ry="18"/>
            <text x="4229.58" y="-156.95" font-family="Times,serif" font-size="14" text-anchor="middle">:app:core:design-system</text>
        </g>
        <g stroke="#000" class="edge">
            <path fill="none" d="M2754.83 24.07C3064.02 27.78 4022.17 41.8 4330.58 76c169.11 18.75 267.59-59.14 376 72 10.19 12.33 10.66 24.07 0 36-23.87 26.69-232.23 41.53-364.33 48.34"/>
            <path d="m4342.57 235.83-10.16-2.99 9.81-4z"/>
        </g>
        <g class="node" transform="translate(4 400)">
            <ellipse cx="3604.58" cy="-234" fill="none" stroke="#000" rx="86.67" ry="18"/>
            <text x="3604.58" y="-228.95" font-family="Times,serif" font-size="14" text-anchor="middle">:app:core:navigation</text>
        </g>
        <g stroke="#000" class="edge">
            <path fill="none" d="M2752.6 26.33c168.83 6.51 514.41 22.7 631.98 49.67 65.94 15.13 137.93 46.64 182.03 67.81"/>
            <path d="m3568.1 140.65 7.47 7.51-10.52-1.21z"/>
        </g>
        <g class="node" transform="translate(4 400)">
            <ellipse cx="4100.58" cy="-90" fill="none" stroke="#000" rx="82.57" ry="18"/>
            <text x="4100.58" y="-84.95" font-family="Times,serif" font-size="14" text-anchor="middle">:app:core:resources</text>
        </g>
        <g stroke="#000" class="edge">
            <path fill="none" d="M2755.06 23.44C3184.5 25.59 4888.08 36.6 4926.58 76c68.58 70.2-25.67 61.66-118 108-76.64 38.46-95.74 51.49-179 72-80.19 19.75-307.86 37.97-435.48 47.02"/>
            <path d="m4194.55 306.5-10.22-2.79 9.73-4.2z"/>
        </g>
        <g class="node" transform="translate(4 400)">
            <ellipse cx="4468.58" cy="-90" fill="none" stroke="#000" rx="59.54" ry="18"/>
            <text x="4468.58" y="-84.95" font-family="Times,serif" font-size="14" text-anchor="middle">:library:color</text>
        </g>
        <g stroke="#000" class="edge">
            <path fill="none" d="M2755.09 23.41C3187.65 25.46 4913.61 36.12 4952.58 76c132.61 135.71-254.29 203.42-414.25 225.06"/>
            <path d="m4539.09 304.49-10.37-2.15 9.45-4.79z"/>
        </g>
        <g class="node" transform="translate(4 400)">
            <ellipse cx="3586.58" cy="-18" fill="none" stroke="#000" rx="62.1" ry="18"/>
            <text x="3586.58" y="-12.95" font-family="Times,serif" font-size="14" text-anchor="middle">:library:kotlin</text>
        </g>
        <g stroke="#000" class="edge">
            <path fill="none" d="M2755.09 23.66C3182.08 26.74 4870.57 41.11 4977.58 76c65.87 21.48 128 19.71 128 89v74c0 51.73-28.51 66.33-75 89-61.86 30.16-1081.56 47.63-1366.54 51.94"/>
            <path d="m3664.18 383.44-10.05-3.35 9.95-3.65z"/>
        </g>
        <g class="node" transform="translate(4 400)">
            <ellipse cx="3941.58" cy="-234" fill="none" stroke="#000" rx="79.5" ry="18"/>
            <text x="3941.58" y="-228.95" font-family="Times,serif" font-size="14" text-anchor="middle">:library:navigation</text>
        </g>
        <g stroke="#000" class="edge">
            <path fill="none" d="M2754.49 24.09c242.7 3.28 863.32 15.19 949.09 51.91 21.39 9.16 17.65 24.72 38 36 23.21 12.87 85.59 28.17 135.32 39.01"/>
            <path d="m3877.42 147.54 9.04 5.53-10.51 1.32z"/>
        </g>
        <g class="node" transform="translate(4 400)">
            <ellipse cx="2102.58" cy="-18" fill="none" stroke="#000" rx="78.99" ry="18"/>
            <text x="2102.58" y="-12.95" font-family="Times,serif" font-size="14" text-anchor="middle">:library:coroutines</text>
        </g>
        <g stroke="#000" class="edge">
            <path fill="none" d="M2560.26 23.83C2271.01 26.71 1419.62 38.23 1144.58 76c-166.28 22.83-367-78.84-367 89v74c0 46.97 16.14 65.83 57 89 57.25 32.46 1118.59 28.74 1184 36 6.9.77 14.07 1.78 21.2 2.94"/>
            <path d="m2040.17 363.45 9.26 5.14-10.45 1.76z"/>
        </g>
        <g class="node" transform="translate(4 400)">
            <ellipse cx="3149.58" cy="-18" fill="none" stroke="#000" rx="72.85" ry="18"/>
            <text x="3149.58" y="-12.95" font-family="Times,serif" font-size="14" text-anchor="middle">:library:datetime</text>
        </g>
        <g stroke="#000" class="edge">
            <path fill="none" d="M2716.58 36.76c45.19 10.59 109.08 25.66 165 39.24 128.63 31.24 165.52 24.3 289 72 3.94 1.52 131.83 68.37 134 72 24.63 41.2 27.76 68.84 0 108-16.81 23.71-45.09 36.9-72.67 44.19"/>
            <path d="m3233 375.53-10.54-1.08 8.92-5.73z"/>
        </g>
        <g class="node" transform="translate(4 400)">
            <ellipse cx="4604.58" cy="-234" fill="none" stroke="#000" rx="89.23" ry="18"/>
            <text x="4604.58" y="-228.95" font-family="Times,serif" font-size="14" text-anchor="middle">:library:shimmer-m3</text>
        </g>
        <g stroke="#000" class="edge">
            <path fill="none" d="M2754.85 23.79C3051.32 26.6 3940.82 38.04 4227.58 76c115.45 15.28 247.15 50.01 321.55 71.29"/>
            <path d="m4550.03 143.91 8.64 6.13-10.58.59z"/>
        </g>
        <g class="node" transform="translate(4 400)">
            <ellipse cx="2197.58" cy="-306" fill="none" stroke="#000" rx="71.31" ry="18"/>
            <text x="2197.58" y="-300.95" font-family="Times,serif" font-size="14" text-anchor="middle">:app:data:memo</text>
        </g>
        <g stroke="red" stroke-width="2" class="edge">
            <path fill="none" d="M2584.32 34.25c-85.81 13.17-226.98 34.84-311.78 47.86"/>
            <path fill="red" d="m2274.62 85.33-10.42-1.94 9.36-4.98z"/>
        </g>
        <g class="node" transform="translate(4 400)">
            <ellipse cx="2055.58" cy="-162" fill="none" stroke="#000" rx="75.92" ry="18"/>
            <text x="2055.58" y="-156.95" font-family="Times,serif" font-size="14" text-anchor="middle">:app:data:account</text>
        </g>
        <g stroke="#000" class="edge">
            <path fill="none" d="M2563.53 26.98c-144.38 6.89-407.64 22.89-441.95 49.02-41.82 31.85-55.44 95.7-59.87 132.7"/>
            <path d="m2065.24 208.61-4.51 9.59-2.45-10.31z"/>
        </g>
        <g class="node" transform="translate(4 400)">
            <ellipse cx="1315.58" cy="-306" fill="none" stroke="#000" rx="83.6" ry="18"/>
            <text x="1315.58" y="-300.95" font-family="Times,serif" font-size="14" text-anchor="middle">:app:data:credential</text>
        </g>
        <g stroke="#000" class="edge">
            <path fill="none" d="M2560.6 24.19C2354.53 27.38 1858.03 38.62 1443.58 76c-15.06 1.36-31.1 3.23-46.47 5.25"/>
            <path d="m1397.93 84.67-10.37-2.14 9.44-4.8z"/>
        </g>
        <g class="node" transform="translate(4 400)">
            <ellipse cx="670.58" cy="-162" fill="none" stroke="#000" rx="74.89" ry="18"/>
            <text x="670.58" y="-156.95" font-family="Times,serif" font-size="14" text-anchor="middle">:app:data:holiday</text>
        </g>
        <g stroke="#000" class="edge">
            <path fill="none" d="M2560.01 23.06c-376.7.57-1719.19 5.91-1796.43 52.94-48.33 29.43-72.39 95.24-82.63 132.98"/>
            <path d="m684.45 209.43-5.87 8.82-.91-10.56z"/>
        </g>
        <g class="node" transform="translate(4 400)">
            <ellipse cx="1950.58" cy="-234" fill="none" stroke="#000" rx="73.87" ry="18"/>
            <text x="1950.58" y="-228.95" font-family="Times,serif" font-size="14" text-anchor="middle">:app:data:backup</text>
        </g>
        <g stroke="#000" class="edge">
            <path fill="none" d="M2560.99 24.97c-143.94 4.05-407.13 16.12-494.41 51.03-35.06 14.02-67.99 42.79-88.94 63.83"/>
            <path d="m1980.21 142.2-9.47 4.75 4.45-9.62z"/>
        </g>
        <g class="node" transform="translate(4 400)">
            <ellipse cx="1730.58" cy="-234" fill="none" stroke="#000" rx="65.68" ry="18"/>
            <text x="1730.58" y="-228.95" font-family="Times,serif" font-size="14" text-anchor="middle">:app:data:fetch</text>
        </g>
        <g stroke="#000" class="edge">
            <path fill="none" d="M2560.35 23.82c-128.12 2.7-359.93 13.14-553.77 52.18-81.57 16.43-172.81 49.45-226.17 70.32"/>
            <path d="m1781.93 149.48-10.59.42 8.02-6.93z"/>
        </g>
        <g class="node" transform="translate(4 400)">
            <ellipse cx="1582.58" cy="-234" fill="none" stroke="#000" rx="62.1" ry="18"/>
            <text x="1582.58" y="-228.95" font-family="Times,serif" font-size="14" text-anchor="middle">:app:data:fcm</text>
        </g>
        <g stroke="#000" class="edge">
            <path fill="none" d="M2559.93 22.38c-149.05.66-441.72 8.37-685.35 53.62-87.31 16.22-185.41 50.04-241.64 71"/>
            <path d="m1634.28 150.24-10.59.24 8.13-6.79z"/>
        </g>
        <g class="node" transform="translate(4 400)">
            <ellipse cx="3073.58" cy="-234" fill="none" stroke="#000" rx="84.11" ry="18"/>
            <text x="3073.58" y="-228.95" font-family="Times,serif" font-size="14" text-anchor="middle">:app:domain:memo</text>
        </g>
        <g stroke="#000" class="edge">
            <path fill="none" d="M2702.93 38.33c77.85 26.32 236.6 80 320.27 108.28"/>
            <path d="m3024.21 143.26 8.36 6.52-10.6.11z"/>
        </g>
        <g class="node" transform="translate(4 400)">
            <ellipse cx="2804.58" cy="-90" fill="none" stroke="#000" rx="88.71" ry="18"/>
            <text x="2804.58" y="-84.95" font-family="Times,serif" font-size="14" text-anchor="middle">:app:domain:account</text>
        </g>
        <g stroke="#000" class="edge">
            <path fill="none" d="M2652.78 40.3c-10.7 42.68-31.41 154 23.8 215.7 15.57 17.4 37.63 29.17 59.28 37.1"/>
            <path d="m2736.99 289.79 8.34 6.53-10.59.1z"/>
        </g>
        <g class="node" transform="translate(4 400)">
            <ellipse cx="2777.58" cy="-234" fill="none" stroke="#000" rx="96.39" ry="18"/>
            <text x="2777.58" y="-228.95" font-family="Times,serif" font-size="14" text-anchor="middle">:app:domain:credential</text>
        </g>
        <g stroke="#000" class="edge">
            <path fill="none" d="M2672.54 40.13c21.6 24.73 61.67 70.63 86.76 99.36"/>
            <path d="m2761.63 136.84 3.94 9.83-9.21-5.23z"/>
        </g>
        <g class="node" transform="translate(4 400)">
            <ellipse cx="2229.58" cy="-90" fill="none" stroke="#000" rx="87.69" ry="18"/>
            <text x="2229.58" y="-84.95" font-family="Times,serif" font-size="14" text-anchor="middle">:app:domain:holiday</text>
        </g>
        <g stroke="#000" class="edge">
            <path fill="none" d="M2629.33 39.69c-15.98 9.88-36.04 23.03-52.75 36.31-2.83 2.25-184.91 178.12-188 180-26.7 16.25-59.05 28.31-87.27 36.79"/>
            <path d="m2302.35 296.14-10.58-.58 8.63-6.15z"/>
        </g>
        <g class="node" transform="translate(4 400)">
            <ellipse cx="2768.58" cy="-162" fill="none" stroke="#000" rx="86.67" ry="18"/>
            <text x="2768.58" y="-156.95" font-family="Times,serif" font-size="14" text-anchor="middle">:app:domain:backup</text>
        </g>
        <g stroke="#000" class="edge">
            <path fill="none" d="M2654.83 40.24c-4.06 31.48-8.24 99.15 21.75 143.76 9.76 14.52 24.88 25.44 40.25 33.48"/>
            <path d="m2718.08 214.19 7.48 7.5-10.53-1.2z"/>
        </g>
        <g class="node" transform="translate(4 400)">
            <ellipse cx="2509.58" cy="-162" fill="none" stroke="#000" rx="78.48" ry="18"/>
            <text x="2509.58" y="-156.95" font-family="Times,serif" font-size="14" text-anchor="middle">:app:domain:fetch</text>
        </g>
        <g stroke="#000" class="edge">
            <path fill="none" d="M2638.55 40.1c-10.42 9.9-23.17 22.95-32.97 35.9-32.97 43.6-62.68 100.2-78.95 133.36"/>
            <path d="m2529.81 210.82-7.51 7.48 1.21-10.53z"/>
        </g>
        <g class="node" transform="translate(4 400)">
            <ellipse cx="2300.58" cy="-162" fill="none" stroke="#000" rx="74.89" ry="18"/>
            <text x="2300.58" y="-156.95" font-family="Times,serif" font-size="14" text-anchor="middle">:app:domain:fcm</text>
        </g>
        <g stroke="#000" class="edge">
            <path fill="none" d="M2575.15 31.91c-66.36 8.55-153.09 23.24-181.57 44.09-45.11 33.03-70.14 96.17-81.46 132.8"/>
            <path d="m2315.52 209.63-6.18 8.6-.54-10.58z"/>
        </g>
        <g class="node" transform="translate(4 400)">
            <ellipse cx="3832.58" cy="-306" fill="none" stroke="#000" rx="86.15" ry="18"/>
            <text x="3832.58" y="-300.95" font-family="Times,serif" font-size="14" text-anchor="middle">:app:core:coroutines</text>
        </g>
        <g stroke="#000" class="edge">
            <path fill="none" d="M2754.97 23.9c189.55 2.6 621.07 12.74 981.61 52.1 8.55.93 17.49 2.13 26.34 3.46"/>
            <path d="m3763.22 75.96 9.35 5-10.42 1.92z"/>
        </g>
        <g class="node" transform="translate(4 400)">
            <ellipse cx="1415.58" cy="-162" fill="none" stroke="#000" rx="95.88" ry="18"/>
            <text x="1415.58" y="-156.95" font-family="Times,serif" font-size="14" text-anchor="middle">:app:core:diary-service</text>
        </g>
        <g stroke="#000" class="edge">
            <path fill="none" d="M2561.34 25.36c-203.29 5.49-670.54 21-826.76 50.64-100.66 19.1-130.73 19.97-219 72-28.69 16.91-56 43.63-74.1 63.38"/>
            <path d="m1444.13 213.67-9.28 5.11 4.07-9.78z"/>
        </g>
        <g class="node" transform="translate(4 400)">
            <ellipse cx="104.58" cy="-90" fill="none" stroke="#000" rx="104.58" ry="18"/>
            <text x="104.58" y="-84.95" font-family="Times,serif" font-size="14" text-anchor="middle">:app:core:holiday-service</text>
        </g>
        <g stroke="#000" class="edge">
            <path fill="none" d="M2560.21 23.75C2192.8 26.86 902.32 40.24 721.58 76 497.17 120.39 247.4 238.64 150.32 287.45"/>
            <path d="m152.18 290.44-10.5 1.38 7.34-7.63z"/>
        </g>
        <g class="node" transform="translate(4 400)">
            <ellipse cx="4831.58" cy="-306" fill="none" stroke="#000" rx="81.55" ry="18"/>
            <text x="4831.58" y="-300.95" font-family="Times,serif" font-size="14" text-anchor="middle">:app:feature:memo</text>
        </g>
        <g stroke="#000" class="edge">
            <path fill="none" d="M2755.05 23.54C3111.97 25.83 4347.22 36.49 4739.58 76c8.43.85 17.24 2.02 25.95 3.34"/>
            <path d="m4766.07 75.89 9.32 5.04-10.43 1.87z"/>
        </g>
        <g class="node" transform="translate(4 400)">
            <ellipse cx="4125.58" cy="-306" fill="none" stroke="#000" rx="88.71" ry="18"/>
            <text x="4125.58" y="-300.95" font-family="Times,serif" font-size="14" text-anchor="middle">:app:feature:calendar</text>
        </g>
        <g stroke="#000" class="edge">
            <path fill="none" d="M2753.55 25.55C2965.97 31.5 3491.94 48 3931.58 76c35.27 2.25 74.01 5.42 107.8 8.41"/>
            <path d="m4039.48 80.91 9.65 4.37-10.28 2.6z"/>
        </g>
        <g class="node" transform="translate(4 400)">
            <ellipse cx="3294.58" cy="-306" fill="none" stroke="#000" rx="76.94" ry="18"/>
            <text x="3294.58" y="-300.95" font-family="Times,serif" font-size="14" text-anchor="middle">:app:feature:more</text>
        </g>
        <g stroke="#000" class="edge">
            <path fill="none" d="M2746.73 29.44c108.31 8.34 296.46 24.46 456.85 46.56 8.31 1.14 17 2.49 25.61 3.92"/>
            <path d="m3229.65 76.45 9.28 5.13-10.45 1.77z"/>
        </g>
        <g class="node" transform="translate(4 400)">
            <ellipse cx="3604.58" cy="-306" fill="none" stroke="#000" rx="86.15" ry="18"/>
            <text x="3604.58" y="-300.95" font-family="Times,serif" font-size="14" text-anchor="middle">:app:feature:account</text>
        </g>
        <g stroke="#000" class="edge">
            <path fill="none" d="M2750.78 27.58c150.23 7.73 455.14 24.86 712.8 48.42 19.93 1.82 41.35 4.14 61.46 6.47"/>
            <path d="m3525.35 78.98 9.52 4.64-10.34 2.31z"/>
        </g>
        <g class="node" transform="translate(4 400)">
            <ellipse cx="977.58" cy="-162" fill="none" stroke="#000" rx="112.26" ry="18"/>
            <text x="977.58" y="-156.95" font-family="Times,serif" font-size="14" text-anchor="middle">:library:firebase-messaging</text>
        </g>
        <g stroke="#000" class="edge">
            <path fill="none" d="M2560.23 23.78C2258.77 26.58 1353.34 38.09 1226.58 76c-89.68 26.82-176.96 98.2-219 136.27"/>
            <path d="m1010.16 214.66-9.73 4.18 5-9.34z"/>
        </g>
        <g stroke="#000" class="edge">
            <path fill="none" d="M4203.01 255.59c-17.48 9.48-39.6 21.49-58.44 31.71"/>
            <path d="m4146.28 290.36-10.46 1.69 7.12-7.85z"/>
        </g>
        <g stroke="#000" class="edge">
            <path fill="none" d="M4284.56 253.93c39.85 11.67 95.05 27.84 135.33 39.64"/>
            <path d="m4420.76 290.18 8.62 6.17-10.58.54z"/>
        </g>
        <g stroke="#000" class="edge">
            <path fill="none" d="M4231.79 256.47c-3.17 20.88-11.82 55.05-35.21 71.53-4.9 3.46-715.38 37.46-960.77 49.11"/>
            <path d="m3236.14 380.6-10.15-3.03 9.82-3.97z"/>
        </g>
        <g stroke="#000" class="edge">
            <path fill="none" d="M3603.4 184.32c-11.09 33.85-40.56 108.51-93.82 143.68-43.69 28.85-182.74 42.64-273.57 48.73"/>
            <path d="m3236.35 380.21-10.21-2.84 9.75-4.14z"/>
        </g>
        <g stroke="#000" class="edge">
            <path fill="none" d="M3910.11 182.47c-84.02 36.44-293.68 126.06-367.53 145.53-104.28 27.49-228.25 41.24-307.74 47.74"/>
            <path d="m3235.2 379.22-10.25-2.69 9.69-4.28z"/>
        </g>
        <g stroke="#000" class="edge">
            <path fill="none" d="M4592.17 184.13c-23.81 24.87-68.12 71.12-95.6 99.82"/>
            <path d="m4499.11 286.36-9.44 4.8 4.39-9.64z"/>
        </g>
        <g stroke="#000" class="edge">
            <path fill="none" d="M2196.33 112.32c-12.04 39.34-41.42 132.89-51.75 143.68-29.5 30.83-65.15.62-89 36-14.25 21.13 3.37 46.44 21.67 64.66"/>
            <path d="m2079.6 354.06 4.9 9.4-9.69-4.29z"/>
        </g>
        <g stroke="#000" class="edge">
            <path fill="none" d="M2197.65 112.32c-6.34 32.84-14.6 104.41 22.93 143.68 68.15 71.32 124.84 6.6 219 36 35.68 11.14 39.91 26.3 76 36 52.47 14.11 397.07 37.59 556.87 47.89"/>
            <path d="m3072.37 372.38 9.75 4.13-10.2 2.85z"/>
        </g>
        <g stroke="red" stroke-width="2" class="edge">
            <path fill="none" d="M2269.17 99.97c122.92 9.1 391.26 29.22 617.41 48.03 33.83 2.81 71.02 6.08 103.52 9"/>
            <path fill="red" d="m2988.72 153.36 9.65 4.38-10.27 2.59z"/>
        </g>
        <g class="node" transform="translate(4 400)">
            <ellipse cx="1783.58" cy="-162" fill="none" stroke="#000" rx="101.51" ry="18"/>
            <text x="1783.58" y="-156.95" font-family="Times,serif" font-size="14" text-anchor="middle">:app:core:diary-database</text>
        </g>
        <g stroke="#000" class="edge">
            <path fill="none" d="M2134.71 100.63c-82.88 7.85-218.64 23.82-263.13 47.37-27.72 14.67-51.4 42.02-66.49 62.54"/>
            <path d="m1808.11 212.34-8.64 6.13 2.93-10.18z"/>
        </g>
        <g stroke="#000" class="edge">
            <path fill="none" d="M2027.47 254.56c-14.39 8.81-29.88 21.33-37.89 37.44-7.12 14.33-8.67 22.55 0 36 11.32 17.55 30.01 29.36 49.17 37.27"/>
            <path d="m2039.86 361.94 8.13 6.8-10.59-.25z"/>
        </g>
        <g stroke="#000" class="edge">
            <path fill="none" d="M2123.45 248.05c61.8 9.24 157.93 24.91 240.13 43.95 55.91 12.95 67.55 25.67 124 36 109.92 20.11 431.65 39.97 584.09 48.57"/>
            <path d="m3071.49 373.05 9.79 4.06-10.18 2.93z"/>
        </g>
        <g stroke="#000" class="edge">
            <path fill="none" d="M2127.32 246.39c28.75 3.07 62.63 6.61 93.26 9.61 175.48 17.17 380.63 35.2 496.34 45.18"/>
            <path d="m2717.01 297.67 9.66 4.35-10.27 2.62z"/>
        </g>
        <g class="node" transform="translate(4 400)">
            <ellipse cx="1469.58" cy="-90" fill="none" stroke="#000" rx="121.98" ry="18"/>
            <text x="1469.58" y="-84.95" font-family="Times,serif" font-size="14" text-anchor="middle">:app:core:account-preferences</text>
        </g>
        <g stroke="#000" class="edge">
            <path fill="none" d="M1992.93 246.96c-101.42 12.12-295.36 35.28-415.41 49.62"/>
            <path d="m1577.99 300.05-10.34-2.29 9.51-4.66z"/>
        </g>
        <g stroke="#000" class="edge">
            <path fill="none" d="M1256.58 106.07c-44.1 9.17-97.47 23.66-111 41.93-47.62 64.28-55.39 122.28 0 180 33.61 35.02 824.78 30.38 873 36 6.9.8 14.06 1.84 21.2 3.01"/>
            <path d="m2040.16 363.53 9.26 5.15-10.45 1.75z"/>
        </g>
        <g stroke="#000" class="edge">
            <path fill="none" d="M1295.73 111.7c-55.65 40.86-184.44 147.52-117.15 216.3 31.98 32.69 1600.3 34.32 1646 36 84.42 3.1 180.95 8.29 247.51 12.11"/>
            <path d="m3072.04 372.6 9.78 4.08-10.19 2.91z"/>
        </g>
        <g stroke="#000" class="edge">
            <path fill="none" d="m1400.53 98.88 1277.41 61.16"/>
            <path d="m2677.83 156.53 9.83 3.97-10.16 3.02z"/>
        </g>
        <g stroke="#000" class="edge">
            <path fill="none" d="M1331.64 112.13c17.27 24.52 49.18 69.84 69.45 98.61"/>
            <path d="m1403.71 208.38 2.89 10.19-8.62-6.16z"/>
        </g>
        <g stroke="#000" class="edge">
            <path fill="none" d="M1312.82 112.24c-11.22 31.78-29.55 100.32 1.76 143.76 13.24 18.38 33.14 30.48 54.41 38.42"/>
            <path d="m1370.08 291.09 8.35 6.52-10.59.11z"/>
        </g>
        <g stroke="#000" class="edge">
            <path fill="none" d="M688.68 255.82c20.18 23.56 56.84 64.39 74.9 72.18 128.1 55.23 1116.34 20.72 1255 36 6.9.76 14.07 1.77 21.21 2.93"/>
            <path d="m2040.17 363.44 9.26 5.14-10.45 1.76z"/>
        </g>
        <g stroke="#000" class="edge">
            <path fill="none" d="M700.27 255.32C737.94 278.9 806.72 320.5 834.58 328c106.78 28.73 1879.49 32.15 1990 36 84.43 2.94 180.95 8.15 247.51 12.03"/>
            <path d="m3072.04 372.52 9.78 4.08-10.19 2.91z"/>
        </g>
        <g stroke="#000" class="edge">
            <path fill="none" d="M742.1 246.03c35.27 3.46 79.16 7.42 118.48 9.97 477.31 31 1049.23 45.95 1274.73 50.98"/>
            <path d="m2135.32 303.48 9.92 3.72-10.08 3.28z"/>
        </g>
        <g stroke="#000" class="edge">
            <path fill="none" d="M607.11 246.24c-88.42 9.65-248.26 27.61-384.53 45.76-8.58 1.14-17.51 2.38-26.43 3.66"/>
            <path d="m196.77 299.1-10.39-2.03 9.39-4.89z"/>
        </g>
        <g class="node" transform="translate(4 400)">
            <ellipse cx="348.58" cy="-90" fill="none" stroke="#000" rx="120.96" ry="18"/>
            <text x="348.58" y="-84.95" font-family="Times,serif" font-size="14" text-anchor="middle">:app:core:holiday-preferences</text>
        </g>
        <g stroke="#000" class="edge">
            <path fill="none" d="M620.32 250.8c-52.11 11.32-131.38 28.56-190.16 41.33"/>
            <path d="m431.06 295.52-10.52-1.29 9.03-5.55z"/>
        </g>
        <g class="node" transform="translate(4 400)">
            <ellipse cx="597.58" cy="-90" fill="none" stroke="#000" rx="110.21" ry="18"/>
            <text x="597.58" y="-84.95" font-family="Times,serif" font-size="14" text-anchor="middle">:app:core:holiday-database</text>
        </g>
        <g stroke="#000" class="edge">
            <path fill="none" d="M656.91 255.95c-8.81 8.44-19.64 18.83-29.38 28.16"/>
            <path d="m630.07 286.53-9.64 4.39 4.8-9.45z"/>
        </g>
        <g stroke="#000" class="edge">
            <path fill="none" d="M1949.31 183.99c-2.92 10.31-6.25 23.78-7.73 36.01-6.11 50.52.43 73.68 38 108 18.04 16.48 41.93 28.25 64.12 36.44"/>
            <path d="m2044.71 361.09 8.29 6.6-10.6.01z"/>
        </g>
        <g stroke="#000" class="edge">
            <path fill="none" d="M1953.01 184.34c-.79 20.41 1.42 53.8 21.57 71.66 59.5 52.74 284.92.36 356 36 19.4 9.73 13.44 26.6 33 36 15.82 7.6 509.45 36.82 708.24 48.32"/>
            <path d="m3071.77 372.81 9.78 4.07-10.19 2.92z"/>
        </g>
        <g stroke="#000" class="edge">
            <path fill="none" d="M2024.4 172.34c118.51 9.16 366.6 28.71 576.18 47.66 27.46 2.48 57.36 5.37 84.41 8.06"/>
            <path d="m2685.29 224.57 9.6 4.48-10.29 2.49z"/>
        </g>
        <g stroke="#000" class="edge">
            <path fill="none" d="M1890.58 175.37c-95.37 12.48-275.06 35.99-382.81 50.09"/>
            <path d="m1508.48 228.9-10.37-2.18 9.46-4.76z"/>
        </g>
        <g stroke="#000" class="edge">
            <path fill="none" d="M1918.75 182.02c-24 10.06-55.92 23.44-82.25 34.48"/>
            <path d="m1837.93 219.69-10.57.64 7.87-7.1z"/>
        </g>
        <g stroke="#000" class="edge">
            <path fill="none" d="M1693.13 180.29c-18.62 8.28-38.8 21.01-49.55 39.71-7.97 13.87-9.73 23.3 0 36 24.21 31.61 270.72 85.77 393.82 111.13"/>
            <path d="m2037.99 363.68 9.09 5.44-10.5 1.42z"/>
        </g>
        <g stroke="#000" class="edge">
            <path fill="none" d="M1711.59 182.97c-23.88 18.52-55.15 49.49-35.01 73.03 8.41 9.83 447.14 70.66 460 72 5.8.6 694.01 36.27 934.88 48.75"/>
            <path d="m3071.62 373.25 9.8 4.01-10.17 2.98z"/>
        </g>
        <g stroke="#000" class="edge">
            <path fill="none" d="M1792.5 174.89c24.38 3.14 53.08 6.59 79.08 9.11 229.26 22.19 287.87 12.47 517 36 16.02 1.65 33.15 3.75 49.43 5.91"/>
            <path d="m2438.18 222.4 9.44 4.81-10.38 2.13z"/>
        </g>
        <g stroke="#000" class="edge">
            <path fill="none" d="M1684.67 178.09c-52.24 11.61-134.71 29.94-193.8 43.07"/>
            <path d="m1491.76 224.55-10.53-1.25 9.01-5.59z"/>
        </g>
        <g stroke="#000" class="edge">
            <path fill="none" d="M1747.41 183.95c6.09 8.04 13.51 17.85 20.31 26.82"/>
            <path d="m1770.34 208.43 3.25 10.09-8.83-5.86z"/>
        </g>
        <g stroke="#000" class="edge">
            <path fill="none" d="M1593.01 184.31c7.57 18.9 21.44 49.44 39.57 71.69 32.14 39.44 42.15 52.17 89 72 122.45 51.83 165.64 15.38 297 36 6.4 1 13.05 2.13 19.69 3.32"/>
            <path d="m2038.71 363.84 9.21 5.24-10.47 1.64z"/>
        </g>
        <g stroke="#000" class="edge">
            <path fill="none" d="M1597.85 184.17c13.91 19.95 39.38 52.56 68.73 71.83 84.24 55.3 115.87 53.89 215 72 206.3 37.68 733.5 26.59 943 36 84.26 3.79 180.62 8.85 247.17 12.47"/>
            <path d="m3071.69 372.96 9.8 4.04-10.18 2.95z"/>
        </g>
        <g stroke="#000" class="edge">
            <path fill="none" d="M1631.93 178.71c9.11 2.02 18.64 3.92 27.65 5.29 213.67 32.61 269.73 16.58 485 36 26.78 2.42 56.04 5.42 82.13 8.22"/>
            <path d="m2227 224.74 9.56 4.55-10.32 2.4z"/>
        </g>
        <g stroke="#000" class="edge">
            <path fill="none" d="M1552.38 181.33c-24.34 10.21-57.4 24.07-84.45 35.4"/>
            <path d="m1469.49 219.87-10.58.64 7.87-7.09z"/>
        </g>
        <g stroke="#000" class="edge">
            <path fill="none" d="M1529.66 173.59c-102.58 11.86-319.68 36.98-447.71 51.8"/>
            <path d="m1082.44 228.85-10.33-2.32 9.53-4.63z"/>
        </g>
        <g stroke="#000" class="edge">
            <path fill="none" d="M3152.3 174.55c127.53 14.56 378.74 51.1 433.28 117.45 13.67 16.63 13.96 41.47 11.37 60.69"/>
            <path d="m3600.44 353.04-5.12 9.27-1.78-10.45z"/>
        </g>
        <g stroke="#000" class="edge">
            <path fill="none" d="M3121.41 181.71c17.6 8.31 36.09 20.66 46.17 38.29 7.94 13.89 8.56 22.48 0 36-39.97 63.17-79.58 53.48-152 72-77.92 19.92-606.39 41.66-819.84 49.74"/>
            <path d="m2195.92 381.24-10.12-3.12 9.86-3.88z"/>
        </g>
        <g stroke="#000" class="edge">
            <path fill="none" d="M3138.08 178.83c56.85 11.73 134.53 29.57 143.5 41.17 29.36 37.97 26.67 68.09 0 108-13.21 19.76-35.29 32.17-57.44 39.95"/>
            <path d="m3225.34 371.24-10.59-.29 8.46-6.38z"/>
        </g>
        <g stroke="#000" class="edge">
            <path fill="none" d="M3046.98 183.15c-48.64 25.68-143.64 75.83-197.88 104.46"/>
            <path d="m2850.96 290.58-10.47 1.58 7.2-7.77z"/>
        </g>
        <g stroke="red" stroke-width="2" class="edge">
            <path fill="none" d="M3021.64 179.84c-51.17 11.74-126.96 29.14-181.49 41.65"/>
            <path fill="red" d="m2842.68 224.5-10.53-1.17 8.96-5.65z"/>
        </g>
        <g class="node" transform="translate(4 400)">
            <ellipse cx="1934.58" cy="-18" fill="none" stroke="#000" rx="71.31" ry="18"/>
            <text x="1934.58" y="-12.95" font-family="Times,serif" font-size="14" text-anchor="middle">:app:core:model</text>
        </g>
        <g stroke="#000" class="edge">
            <path fill="none" d="M3065.94 184.28c-24.59 34.83-85.68 112.75-159.36 143.72-91.03 38.26-790.02 23.69-888 36-5.99.75-12.19 1.72-18.38 2.82"/>
            <path d="m2001.11 370.21-10.48-1.58 9.18-5.3z"/>
        </g>
        <g class="node" transform="translate(4 400)">
            <ellipse cx="2726.58" cy="-18" fill="none" stroke="#000" rx="85.13" ry="18"/>
            <text x="2726.58" y="-12.95" font-family="Times,serif" font-size="14" text-anchor="middle">:common:exception</text>
        </g>
        <g stroke="#000" class="edge">
            <path fill="none" d="M3141.65 177.9c24.23 7.58 49.43 20.4 63.93 42.1 8.89 13.3 9.69 23.27 0 36-46.94 61.7-266.82 98.81-390.3 115.14"/>
            <path d="m2815.88 374.59-10.37-2.18 9.47-4.76z"/>
        </g>
        <g stroke="#000" class="edge">
            <path fill="none" d="M2888.59 318.16c153.4 13.73 486.53 43.55 631.84 56.56"/>
            <path d="m3520.66 371.23 9.65 4.37-10.27 2.6z"/>
        </g>
        <g stroke="#000" class="edge">
            <path fill="none" d="M2730.43 318.79c-133.65 13.33-404.91 40.38-541.43 53.99"/>
            <path d="m2189.61 376.24-10.3-2.49 9.61-4.48z"/>
        </g>
        <g stroke="#000" class="edge">
            <path fill="none" d="M2869.86 323.43c61.19 12.42 154.94 31.44 217.73 44.18"/>
            <path d="m3087.97 364.12 9.1 5.42-10.49 1.44z"/>
        </g>
        <g stroke="red" stroke-width="2" class="edge">
            <path fill="none" d="M2727.45 317.65c-40.76 3.27-90.92 7.18-135.87 10.35-254.54 17.97-320.19 1.39-573 36-5.89.81-12 1.8-18.09 2.91"/>
            <path fill="red" d="m2003.05 369.98-10.48-1.56 9.16-5.31z"/>
        </g>
        <g stroke="#000" class="edge">
            <path fill="none" d="M2789.7 327.95c-9.51 8.53-21.22 19.04-31.7 28.44"/>
            <path d="m2760.46 358.88-9.78 4.08 5.11-9.29z"/>
        </g>
        <g stroke="#000" class="edge">
            <path fill="none" d="M2858.18 177.24c152.84 21.07 490.28 70.99 598.4 114.76 39.88 16.15 80.3 45.1 106.16 65.59"/>
            <path d="m3564.81 354.77 5.59 9-9.98-3.55z"/>
        </g>
        <g stroke="#000" class="edge">
            <path fill="none" d="M2817.27 183.12c17.08 9.02 36.89 21.55 51.31 36.88 34.86 37.07 72.77 70.85 38 108-23.99 25.64-507.32 43.79-710.86 50.33"/>
            <path d="m2196.1 381.82-10.11-3.18 9.89-3.82z"/>
        </g>
        <g stroke="#000" class="edge">
            <path fill="none" d="M2844.68 179.96c34.09 8.53 76.2 21.57 110.9 40.04 70.06 37.3 139.02 101.23 174.12 136.26"/>
            <path d="m3131.85 353.46 4.55 9.57-9.52-4.64z"/>
        </g>
        <g stroke="#000" class="edge">
            <path fill="none" d="M2779.35 184.3c-.94 7.38-2.07 16.18-3.14 24.45"/>
            <path d="m2779.72 208.92-4.75 9.47-2.19-10.36z"/>
        </g>
        <g stroke="#000" class="edge">
            <path fill="none" d="M2727.02 181.25c-44.11 11.52-106.2 27.74-152.05 39.71"/>
            <path d="m2576.01 224.31-10.56-.86 8.79-5.91z"/>
        </g>
        <g stroke="#000" class="edge">
            <path fill="none" d="M2707.57 177.86c-89.59 13.15-239.55 35.15-329.09 48.3"/>
            <path d="m2379.23 229.58-10.4-2.01 9.39-4.91z"/>
        </g>
        <g stroke="#000" class="edge">
            <path fill="none" d="M2749.09 183.41c-47.93 24.14-133.55 66.98-148.51 72.59-116.29 43.61-147.99 48.82-270 72-137.13 26.05-174.24 13.47-312 36-5.64.92-11.48 1.97-17.32 3.09"/>
            <path d="m2002.06 370.5-10.49-1.49 9.13-5.37z"/>
        </g>
        <g stroke="#000" class="edge">
            <path fill="none" d="M2864.78 175.24c28.42 7.26 57.4 20.57 74.8 44.76 9.34 12.99 1.75 20.1 0 36-3.58 32.58 6.6 48.26-16 72-25.73 27.03-63.83 40.71-99.4 47.48"/>
            <path d="m2825.17 378.86-10.44-1.75 9.25-5.15z"/>
        </g>
        <g stroke="#000" class="edge">
            <path fill="none" d="M2317.95 315.35c247.56 12.77 969.04 49.99 1200.36 61.92"/>
            <path d="m3518.28 373.77 9.81 4.01-10.17 2.98z"/>
        </g>
        <g stroke="#000" class="edge">
            <path fill="none" d="M2203.8 327.41c-17.32 9.55-39.35 21.69-58.07 32.01"/>
            <path d="m2147.5 362.44-10.44 1.76 7.06-7.89z"/>
        </g>
        <g stroke="#000" class="edge">
            <path fill="none" d="M2297.65 322.69c12.54 2 25.62 3.89 37.93 5.31 140.76 16.25 557.46 39.29 735.66 48.72"/>
            <path d="m3071.32 373.22 9.8 4.02-10.17 2.97z"/>
        </g>
        <g stroke="#000" class="edge">
            <path fill="none" d="M2177.75 324.25c-50.58 12-124.98 29.65-177.34 42.08"/>
            <path d="m2001.27 369.72-10.54-1.1 8.93-5.71z"/>
        </g>
        <g stroke="#000" class="edge">
            <path fill="none" d="M2299.37 322.28c12.04 1.97 24.49 3.96 36.21 5.72 107.66 16.19 232.2 32.5 312.2 42.67"/>
            <path d="m2647.78 367.14 9.48 4.73-10.36 2.21z"/>
        </g>
        <g stroke="#000" class="edge">
            <path fill="none" d="M2857 242.6c145.91 6.82 439.16 23.32 538.58 49.4 58.32 15.3 120.93 46.88 159.04 68.01"/>
            <path d="m3555.9 356.71 7 7.95-10.43-1.84z"/>
        </g>
        <g stroke="#000" class="edge">
            <path fill="none" d="M2719.96 252.64c-71.71 18.35-204.28 51.45-318.38 75.36-74.88 15.69-161.05 30.84-220.85 40.9"/>
            <path d="m2181.44 372.33-10.44-1.8 9.29-5.11z"/>
        </g>
        <g stroke="#000" class="edge">
            <path fill="none" d="M2816.32 253.94c30.22 10.43 71.29 24.79 107.26 38.06 63.22 23.32 135.64 51.6 182.05 69.94"/>
            <path d="m3106.85 358.66 8.01 6.93-10.58-.43z"/>
        </g>
        <g stroke="red" stroke-width="2" class="edge">
            <path fill="none" d="M2781.48 256.3c3.97 7.72 8.73 16.99 13.16 25.59"/>
            <path fill="red" d="m2796.94 278.71 1.46 10.49-7.69-7.29z"/>
        </g>
        <g stroke="#000" class="edge">
            <path fill="none" d="M2696.6 246.89c-92.09 10.09-241.58 28.25-295.02 45.11-33.74 10.64-37.12 25.81-71 36-133.68 40.19-174.24 13.47-312 36-5.64.92-11.48 1.97-17.32 3.09"/>
            <path d="m2002.06 370.5-10.49-1.49 9.13-5.37z"/>
        </g>
        <g stroke="#000" class="edge">
            <path fill="none" d="M2840.62 249.47c25.03 7.5 50.91 20.39 65.96 42.53 9 13.23 9.54 23.16 0 36-19.41 26.12-51.29 39.84-82.61 46.89"/>
            <path d="m2824.91 378.27-10.5-1.45 9.11-5.41z"/>
        </g>
        <g stroke="#000" class="edge">
            <path fill="none" d="M2580.14 247.78c192.8 25.42 750.25 98.91 943.52 124.4"/>
            <path d="m3524.08 368.7 9.46 4.78-10.37 2.16z"/>
        </g>
        <g stroke="#000" class="edge">
            <path fill="none" d="M2447.8 248.03c-107.65 14.8-309.73 42.73-311.22 43.97-17.75 14.73-25.04 40.35-28.02 60.33"/>
            <path d="m2112.06 352.58-4.64 9.53-2.31-10.34z"/>
        </g>
        <g stroke="#000" class="edge">
            <path fill="none" d="M2550.37 254.33c24.55 10.36 57.46 24.49 86.21 37.67 33.25 15.24 38.91 25.68 74 36 121.69 35.77 268.95 47.47 359.28 51.25"/>
            <path d="m3069.77 375.74 9.85 3.89-10.13 3.11z"/>
        </g>
        <g stroke="#000" class="edge">
            <path fill="none" d="M2566.66 251.6c48.94 11.61 121.8 28.9 174.77 41.47"/>
            <path d="m2742.02 289.61 8.92 5.71-10.54 1.1z"/>
        </g>
        <g stroke="#000" class="edge">
            <path fill="none" d="M2447.42 248.08c-18.99 2.58-39.74 5.38-58.84 7.92-123.5 16.39-159.09-1.19-278 36-50.67 15.85-104.28 46.01-137.91 66.8"/>
            <path d="m1974.93 361.51-10.34 2.34 6.62-8.27z"/>
        </g>
        <g stroke="#000" class="edge">
            <path fill="none" d="m2538.47 255.29 157.42 103.01"/>
            <path d="m2697.59 355.23 6.45 8.4-10.28-2.54z"/>
        </g>
        <g stroke="#000" class="edge">
            <path fill="none" d="M2363.35 249.57c54.44 10.05 137.57 26.01 209.23 42.43 61.78 14.15 75.4 26.05 138 36 78.69 12.51 611.57 39.73 807.72 49.46"/>
            <path d="m3518.29 373.95 9.81 3.99-10.16 3.01z"/>
        </g>
        <g stroke="#000" class="edge">
            <path fill="none" d="M2242.93 248.6c-67.04 11.06-166.19 29.5-177.35 43.4-15.35 19.13-.41 44.94 15.57 63.84"/>
            <path d="m2083.62 353.34 4.08 9.78-9.29-5.1z"/>
        </g>
        <g stroke="#000" class="edge">
            <path fill="none" d="M2359.88 250.5c42.94 9.5 103.74 24.21 155.7 41.5 39.32 13.08 45.81 25.91 86 36 86.87 21.82 339.09 39.92 470.39 48.18"/>
            <path d="m3071.87 372.67 9.76 4.11-10.2 2.87z"/>
        </g>
        <g stroke="#000" class="edge">
            <path fill="none" d="M2368.21 247.87c18.8 2.62 39.41 5.49 58.37 8.13 103.03 14.33 221.7 30.78 299.07 41.51"/>
            <path d="m2725.84 294 9.43 4.84-10.39 2.09z"/>
        </g>
        <g stroke="#000" class="edge">
            <path fill="none" d="M2238.5 246.87c-99.39 12.13-276.88 35.04-286.92 45.13-15.42 15.48-17.87 40.64-16.92 60.26"/>
            <path d="m1938.14 351.86-2.65 10.26-4.32-9.68z"/>
        </g>
        <g stroke="#000" class="edge">
            <path fill="none" d="M2244.29 249.04c-62.09 12.81-144.91 38.29-107.71 78.96 32.88 35.95 338.55 47.69 498.08 51.38"/>
            <path d="m2634.45 375.88 9.92 3.72-10.08 3.27z"/>
        </g>
        <g stroke="#000" class="edge">
            <path fill="none" d="M1432.93 256.3c6.21 8.06 13.73 17.81 20.61 26.72"/>
            <path d="m1456.12 280.64 3.34 10.06-8.88-5.78z"/>
        </g>
        <g stroke="#000" class="edge">
            <path fill="none" d="M1329.64 244.46c-87.67 8.5-201.03 29.97-151.06 83.54 45.4 48.67 489.25 53.57 676.91 53.44"/>
            <path d="m1855.42 377.94 10 3.49-9.99 3.51z"/>
        </g>
        <g stroke="#000" class="edge">
            <path fill="none" d="M1473.56 253.22c79.21 20.25 231.86 56.89 364.02 74.78 288.29 39.02 632.81 49.31 796.92 52.03"/>
            <path d="m2634.06 376.52 9.95 3.66-10.06 3.34z"/>
        </g>
        <g class="node" transform="translate(4 400)">
            <ellipse cx="1256.58" cy="-90" fill="none" stroke="#000" rx="72.85" ry="18"/>
            <text x="1256.58" y="-84.95" font-family="Times,serif" font-size="14" text-anchor="middle">:common:model</text>
        </g>
        <g stroke="#000" class="edge">
            <path fill="none" d="M1383.1 255.06c-23 10.13-52.88 23.28-77.37 34.06"/>
            <path d="m1307.2 292.3-10.56.83 7.74-7.24z"/>
        </g>
        <g stroke="#000" class="edge">
            <path fill="none" d="M181.71 323.2c13.56 1.89 27.62 3.61 40.87 4.8 322.98 28.97 1336.64 46.98 1633.53 51.74"/>
            <path d="m1856.16 376.24 9.94 3.65-10.05 3.34z"/>
        </g>
        <g stroke="#000" class="edge">
            <path fill="none" d="M4822.85 112.24c-16.57 20.98-47.67 55.61-83.27 71.76-2.31 1.05-262.58 27.96-408.89 43.02"/>
            <path d="m4331.31 230.47-10.31-2.45 9.59-4.51z"/>
        </g>
        <g stroke="#000" class="edge">
            <path fill="none" d="M4756.56 98.89c-166.47 8.29-565.5 28.59-899.98 49.11-51.53 3.16-109.06 7.08-155.73 10.36"/>
            <path d="m3701.27 161.84-10.22-2.79 9.73-4.19z"/>
        </g>
        <g stroke="#000" class="edge">
            <path fill="none" d="M4829.51 112.13c-8.21 20.53-24.9 54.35-50.93 71.87-94.92 63.87-427.42 102.31-587.11 117.49"/>
            <path d="m4192.07 304.95-10.29-2.55 9.63-4.42z"/>
        </g>
        <g stroke="#000" class="edge">
            <path fill="none" d="M4846.19 112.06c10.47 19.24 22.83 50.62 7.39 71.94-70.81 97.76-220.5 120.43-309.72 124.89"/>
            <path d="m4544.14 312.38-10.14-3.07 9.84-3.92z"/>
        </g>
        <g stroke="#000" class="edge">
            <path fill="none" d="M4890.43 107.59c25.77 8.12 55.5 20.9 77.15 40.41 60.74 54.74 94.72 121.11 38 180-46.89 48.68-1057.76 52.83-1341.52 53.04"/>
            <path d="m3664.2 384.54-10-3.5 10-3.5z"/>
        </g>
        <g stroke="#000" class="edge">
            <path fill="none" d="M4759.7 100.97c-164.97 12.97-555.33 43.68-728.65 57.31"/>
            <path d="m4031.45 161.76-10.24-2.71 9.69-4.27z"/>
        </g>
        <g stroke="#000" class="edge">
            <path fill="none" d="M4850.81 111.76c7.86 9.8 16.65 22.84 20.77 36.24 4.7 15.29 5.57 21 0 36-14.7 39.59-26.25 49.53-62 72-104.42 65.64-145.88 54.71-268 72-209.61 29.68-1693.36 30.61-1905 36-155.17 3.95-335.85 10.07-441.12 13.79"/>
            <path d="m2195.88 381.28-10.11-3.15 9.87-3.85z"/>
        </g>
        <g stroke="#000" class="edge">
            <path fill="none" d="M4881.3 109.24c18.38 8.23 37.7 20.64 48.28 38.76 38.46 65.84-10.85 139.51-76 180-62.97 39.13-1259.91 33.28-1334 36-97.65 3.59-209.89 8.99-284.06 12.74"/>
            <path d="m3236.09 380.21-10.17-2.99 9.81-4z"/>
        </g>
        <g stroke="#000" class="edge">
            <path fill="none" d="M4789.37 109.25c-35.4 10.91-84.46 26.04-122.54 37.79"/>
            <path d="m4667.93 150.36-10.59-.4 8.53-6.29z"/>
        </g>
        <g stroke="#000" class="edge">
            <path fill="none" d="M4755.76 98.18c-288.41 11.48-1275.79 50.8-1584.89 63.11"/>
            <path d="m3171.36 164.77-10.13-3.1 9.86-3.9z"/>
        </g>
        <g stroke="#000" class="edge">
            <path fill="none" d="M4148.07 111.67c10.49 9.97 23.49 23.22 33.51 36.33 14.89 19.5 28.75 43.63 38.4 61.85"/>
            <path d="m4222.96 207.98 1.5 10.49-7.71-7.26z"/>
        </g>
        <g stroke="#000" class="edge">
            <path fill="none" d="M4057.14 104.73c-95.98 12.9-264.89 35.59-365.8 49.15"/>
            <path d="m3691.87 157.34-10.38-2.14 9.44-4.8z"/>
        </g>
        <g stroke="#000" class="edge">
            <path fill="none" d="M4135.4 112.44c3.11 10.23 6.61 23.48 8.18 35.56 2.06 15.87 6.6 21.42 0 36-10 22.09-31 13.91-41 36-8.54 18.85-7.6 42.33-4.76 60.44"/>
            <path d="m4101.26 279.76-1.6 10.48-5.28-9.19z"/>
        </g>
        <g stroke="#000" class="edge">
            <path fill="none" d="M4193.49 106.87c10.06 1.78 20.35 3.55 30.09 5.13 55.18 8.98 212.4-6.27 249 36 31.78 36.71 20.43 97.72 9.85 133.16"/>
            <path d="m4485.9 281.79-6.36 8.47-.31-10.59z"/>
        </g>
        <g stroke="#000" class="edge">
            <path fill="none" d="M4217.83 96.7c153.51 3.87 456.5 15.95 488.75 51.3 10.78 11.82 6.62 21.43 0 36-40.28 88.61-74.85 107.3-165 144-80.37 32.72-668.31 47.41-877.43 51.65"/>
            <path d="m3664.28 383.14-10.06-3.3 9.92-3.69z"/>
        </g>
        <g stroke="#000" class="edge">
            <path fill="none" d="M4089.2 110.36c-27.61 10.5-64.38 24.49-93.81 35.69"/>
            <path d="m3996.92 149.21-10.59.29 8.1-6.83z"/>
        </g>
        <g stroke="#000" class="edge">
            <path fill="none" d="M4123.02 112.26c-8.82 20.66-26.57 54.62-53.44 71.74-172.48 109.91-705.58 122.83-909 144-186.08 19.36-746.03 41.56-964.92 49.75"/>
            <path d="m2195.87 381.24-10.12-3.12 9.86-3.87z"/>
        </g>
        <g stroke="#000" class="edge">
            <path fill="none" d="M4129.72 112.17c-.79 19.93-5.18 52.54-24.14 71.83-162.13 164.91-273.29 98.38-500 144-128.32 25.82-279.85 40.42-370.81 47.5"/>
            <path d="m3235.19 378.98-10.24-2.72 9.7-4.26z"/>
        </g>
        <g stroke="#000" class="edge">
            <path fill="none" d="M4202.09 104.7c75.77 10.27 198.09 27.18 303.49 43.3 8.01 1.22 16.35 2.54 24.68 3.88"/>
            <path d="m4530.77 148.41 9.31 5.05-10.43 1.86z"/>
        </g>
        <g stroke="#000" class="edge">
            <path fill="none" d="M4050.13 102.25c-36.15 3.19-79.5 6.86-118.55 9.75-277.13 20.49-605.26 39.34-761.87 48"/>
            <path d="m3169.97 163.49-10.18-2.94 9.79-4.05z"/>
        </g>
        <g stroke="#000" class="edge">
            <path fill="none" d="M4112.72 111.98c-24.67 24.66-68.71 67.91-78.14 72.02-39.5 17.22-1340.94 97.14-1706.41 119.29"/>
            <path d="m2328.56 306.78-10.19-2.89 9.77-4.1z"/>
        </g>
        <g class="node" transform="translate(4 400)">
            <ellipse cx="4344.58" cy="-234" fill="none" stroke="#000" rx="115.33" ry="18"/>
            <text x="4344.58" y="-228.95" font-family="Times,serif" font-size="14" text-anchor="middle">:app:core:calendar-compose</text>
        </g>
        <g stroke="#000" class="edge">
            <path fill="none" d="M4175.76 109.76c32.86 10.51 77.33 24.72 112.92 36.1"/>
            <path d="m4289.52 142.45 8.46 6.38-10.59.29z"/>
        </g>
        <g stroke="#000" class="edge">
            <path fill="none" d="M3328.37 111.01c40.43 20.88 115.51 56.63 184.21 72.99 112.85 26.87 438.64 42.57 611.02 49.22"/>
            <path d="m4123.61 229.72 9.86 3.88-10.13 3.11z"/>
        </g>
        <g stroke="#000" class="edge">
            <path fill="none" d="M3352.58 107.19c52.2 11.79 131.48 29.69 187.97 42.45"/>
            <path d="m3541.07 146.17 8.98 5.61-10.52 1.22z"/>
        </g>
        <g stroke="#000" class="edge">
            <path fill="none" d="M3306.47 112.26c10.42 20.67 30.81 54.63 59.11 71.74 84.78 51.27 122.71 17.25 220 36 72.42 13.96 89.48 22.58 162 36 94.16 17.43 203.12 32.94 275.66 42.61"/>
            <path d="m4023.61 295.12 9.45 4.79-10.37 2.15z"/>
        </g>
        <g stroke="#000" class="edge">
            <path fill="none" d="M3318.19 111.63c29.71 25.14 83.26 70.14 88.39 72.37 112.65 48.95 152.32 19.25 274 36 111.21 15.31 138.55 22.53 250 36 169.91 20.53 370.54 38.53 473.48 47.31"/>
            <path d="m4404.35 299.82 9.66 4.33-10.26 2.64z"/>
        </g>
        <g stroke="#000" class="edge">
            <path fill="none" d="M3299.19 112.27c1.6 19.72 7.07 51.83 25.39 71.73 22.65 24.61 262.06 80.43 281 108 12.39 18.03 6.8 42.86-.84 61.72"/>
            <path d="m3608.03 354.95-7.28 7.7.89-10.56z"/>
        </g>
        <g stroke="#000" class="edge">
            <path fill="none" d="M3367.21 102.42c120.12 13 367.92 39.81 496.67 53.74"/>
            <path d="m3864.14 152.67 9.56 4.55-10.31 2.41z"/>
        </g>
        <g stroke="#000" class="edge">
            <path fill="none" d="M3224.11 98.76c-81.32 5.59-204.64 18.91-239.53 49.24-63.33 55.06 9.07 128.27-57 180-28.46 22.28-525.23 42.46-731.91 49.94"/>
            <path d="m2195.89 381.43-10.12-3.14 9.87-3.86z"/>
        </g>
        <g stroke="#000" class="edge">
            <path fill="none" d="M3278.62 111.79c-19.83 18.71-44.89 49.35-27.04 72.21 40.6 52 103.4-16 144 36 9.85 12.61 3.85 20.47 0 36-8.7 35.12-9.63 49.54-38 72-34.75 27.51-82.28 40.85-122.72 47.28"/>
            <path d="m3235.56 378.71-10.4-2.02 9.39-4.91z"/>
        </g>
        <g stroke="#000" class="edge">
            <path fill="none" d="M3369.22 101.33c41.92 3.57 96.14 7.86 144.36 10.67 425.8 24.82 533.87 1.52 959 36 17.22 1.4 35.61 3.37 53.12 5.48"/>
            <path d="m4526.06 149.99 9.5 4.7-10.36 2.25z"/>
        </g>
        <g stroke="#000" class="edge">
            <path fill="none" d="M3225.21 99.79c-87.79 6.84-228.57 21.59-273.63 48.21-52.12 30.79-41.68 63.76-83 108-9.39 10.06-20.49 20.26-30.58 28.99"/>
            <path d="m2840.51 287.46-9.88 3.81 5.34-9.14z"/>
        </g>
        <g stroke="#000" class="edge">
            <path fill="none" d="M3231.53 103.23c-80.72 10.03-220.38 27.75-339.95 44.77-8.77 1.25-17.93 2.6-27.06 3.97"/>
            <path d="m2865.34 155.38-10.41-1.96 9.37-4.96z"/>
        </g>
        <g stroke="#000" class="edge">
            <path fill="none" d="M3668.29 107.37c51.05 11.13 120.12 27.68 145.29 40.63 22.16 11.4 20.22 25.87 43 36 25.25 11.23 178.39 30.4 281.55 42.35"/>
            <path d="m4138.48 222.87 9.53 4.62-10.33 2.33z"/>
        </g>
        <g stroke="#000" class="edge">
            <path fill="none" d="M3608.58 112.3v24.16"/>
            <path d="m3612.08 136.38-3.5 10-3.5-10z"/>
        </g>
        <g stroke="#000" class="edge">
            <path fill="none" d="M3652.57 109.91c25.56 9.43 57.96 22.72 85.01 38.09 23.19 13.17 24.71 23.02 48 36 86.32 48.11 194.95 86.42 260.58 107.39"/>
            <path d="m4047.19 288.04 8.48 6.36-10.59.32z"/>
        </g>
        <g stroke="#000" class="edge">
            <path fill="none" d="M3668.89 107.16c33.03 8.33 73.81 21.45 106.69 40.84 20.04 11.82 17.51 24.98 38 36 62.29 33.49 240.54 58.68 310 72 98.35 18.86 213.34 35.24 283.65 44.62"/>
            <path d="m4407.6 297.13 9.45 4.79-10.37 2.15z"/>
        </g>
        <g stroke="#000" class="edge">
            <path fill="none" d="M3648.19 110.21c18.9 8.8 40.75 21.4 56.39 37.79 29.69 31.1 96.88 145.66 71 180-14.66 19.45-72.64 33.94-119.83 42.81"/>
            <path d="m3656.59 374.21-10.47-1.65 9.21-5.24z"/>
        </g>
        <g stroke="#000" class="edge">
            <path fill="none" d="M3668.05 107.35c58.53 12.16 147.8 30.7 209.21 43.46"/>
            <path d="m3877.83 147.35 9.07 5.46-10.5 1.4z"/>
        </g>
        <g stroke="#000" class="edge">
            <path fill="none" d="M3573.16 110.74c-23.67 10.53-55.5 24.71-83.58 37.26-178.34 79.74-211.15 133.96-401 180-85.27 20.68-666.7 42.32-892.56 50.05"/>
            <path d="m2196.2 381.54-10.12-3.16 9.88-3.83z"/>
        </g>
        <g stroke="#000" class="edge">
            <path fill="none" d="M3567.32 110.03c-18.84 8.63-40.14 21.14-54.74 37.97-33.65 38.78-11.24 66.16-41 108-28.9 40.62-41.35 49.83-86 72-48.29 23.97-107.63 37.28-154.21 44.56"/>
            <path d="m3232.03 376-10.41-1.98 9.37-4.94z"/>
        </g>
        <g stroke="#000" class="edge">
            <path fill="none" d="M3678.19 104.94c20.39 2.63 42.75 5.24 63.39 7.06 324.02 28.64 406.94 7.81 731 36 17.11 1.49 35.39 3.49 52.81 5.6"/>
            <path d="m4525.7 150.11 9.49 4.69-10.35 2.25z"/>
        </g>
        <g stroke="#000" class="edge">
            <path fill="none" d="M3555.44 108.56c-41.41 10.61-100.33 25.81-151.86 39.44-194.59 51.48-424.44 114.23-532.69 143.89"/>
            <path d="m2871.89 295.25-10.57-.74 8.72-6.01z"/>
        </g>
        <g stroke="#000" class="edge">
            <path fill="none" d="M3530.03 101.65c-151.84 12.85-485.24 41.07-650.96 55.1"/>
            <path d="m2879.69 160.21-10.26-2.65 9.67-4.33z"/>
        </g>
        <g class="node" transform="translate(4 400)">
            <ellipse cx="945.58" cy="-90" fill="none" stroke="#000" rx="106.11" ry="18"/>
            <text x="945.58" y="-84.95" font-family="Times,serif" font-size="14" text-anchor="middle">:library:firebase-common</text>
        </g>
        <g stroke="#000" class="edge">
            <path fill="none" d="M973.67 256.3c-3.49 7.63-7.67 16.78-11.57 25.3"/>
            <path d="m965.37 282.88-7.34 7.64.97-10.55z"/>
        </g>
        <g stroke="#000" class="edge">
            <path fill="none" d="M1757.48 255.63c-12.97 8.92-26.78 21.23-33.9 36.37-6.81 14.48-9.87 23.4 0 36 17.3 22.08 84.75 36.21 139.55 44.28"/>
            <path d="m1863.35 368.78 9.41 4.87-10.4 2.06z"/>
        </g>
        <g stroke="#000" class="edge">
            <path fill="none" d="M680.5 322.93c14.95 1.95 30.47 3.75 45.08 5.07 424.03 38.25 934.03 49.13 1130.39 52.03"/>
            <path d="m1855.87 376.52 9.95 3.65-10.05 3.35z"/>
        </g>
        <g stroke="#000" class="edge">
            <path fill="none" d="M4320.74 183.95c-14.97 9.11-33.64 20.47-49.85 30.34"/>
            <path d="m4272.82 217.21-10.37 2.21 6.73-8.19z"/>
        </g>
        <g stroke="#000" class="edge">
            <path fill="none" d="M4260.39 177.98c-54.49 8.58-117.58 22.38-136.81 42.02-15.47 15.8-19.7 40.92-20.36 60.45"/>
            <path d="m4106.72 280.25-3.52 10-3.48-10.01z"/>
        </g>
        <g stroke="#000" class="edge">
            <path fill="none" d="M4363.54 184.13c21.62 24.76 61.76 70.73 86.84 99.45"/>
            <path d="m4453.02 281.28 3.94 9.83-9.22-5.23z"/>
        </g>
        <g stroke="#000" class="edge">
            <path fill="none" d="M4352.14 184.46c2.9 19.03 4.64 49.68-8.56 71.54-32.15 53.24-60.49 53.92-120 72-11.8 3.58-738.76 37.62-987.55 49.18"/>
            <path d="m3236.21 380.68-10.15-3.04 9.83-3.96z"/>
        </g>
    </g>
</svg>
