<svg xmlns="http://www.w3.org/2000/svg" width="7465pt" height="548pt" viewBox="0 0 7465.15 548">
    <g class="graph">
        <path fill="#fff" d="M0 548V0h7465.15v548z"/>
        <g class="node" transform="translate(4 544)">
            <ellipse cx="3610" cy="-522" fill="none" stroke="#000" rx="97.41" ry="18"/>
            <text x="3610" y="-516.95" font-family="Times,serif" font-size="14" text-anchor="middle">:app:platform:common</text>
        </g>
        <g class="node" transform="translate(4 544)">
            <ellipse cx="989" cy="-306" fill="none" stroke="#000" rx="81.04" ry="18"/>
            <text x="989" y="-300.95" font-family="Times,serif" font-size="14" text-anchor="middle">:app:core:compose</text>
        </g>
        <g stroke="#000" class="edge">
            <path fill="none" d="M3516.41 23.46C3079.01 25.76 1315.65 37.39 1205 76c-10.54 3.68-125.97 93.54-181.93 137.38"/>
            <path d="m1025.53 215.9-10.03 3.42 5.71-8.93z"/>
        </g>
        <g class="node" transform="translate(4 544)">
            <ellipse cx="857" cy="-162" fill="none" stroke="#000" rx="101" ry="18"/>
            <text x="857" y="-156.95" font-family="Times,serif" font-size="14" text-anchor="middle">:app:core:design-system</text>
        </g>
        <g stroke="#000" class="edge">
            <path fill="none" d="M3516.57 23.41C3075.29 25.5 1261.12 36.36 694 76 556.47 85.61 80 27.13 80 165v74c0 68.17 466.54 115.79 678.45 133.9"/>
            <path d="m758.7 369.41 9.67 4.33-10.26 2.65z"/>
        </g>
        <g class="node" transform="translate(4 544)">
            <ellipse cx="1213" cy="-306" fill="none" stroke="#000" rx="86.67" ry="18"/>
            <text x="1213" y="-300.95" font-family="Times,serif" font-size="14" text-anchor="middle">:app:core:navigation</text>
        </g>
        <g stroke="#000" class="edge">
            <path fill="none" d="M3516.64 23.77C3117.38 27.12 1616.6 41.9 1407 76c-107.4 17.47-169.35-15.53-234 72-14.67 19.87.87 45.38 17.4 63.99"/>
            <path d="m1192.85 209.49 4.32 9.68-9.41-4.87z"/>
        </g>
        <g class="node" transform="translate(4 544)">
            <ellipse cx="778" cy="-90" fill="none" stroke="#000" rx="59.54" ry="18"/>
            <text x="778" y="-84.95" font-family="Times,serif" font-size="14" text-anchor="middle">:library:color</text>
        </g>
        <g stroke="#000" class="edge">
            <path fill="none" d="M3516.5 23.38C2958.97 25.66 197.01 38.85 118 76c-47.07 22.14-76 36.98-76 89v146c0 68.04 488.7 119.27 671.81 136.08"/>
            <path d="m714.01 443.58 9.64 4.4-10.27 2.57z"/>
        </g>
        <g class="node" transform="translate(4 544)">
            <ellipse cx="1451" cy="-18" fill="none" stroke="#000" rx="62.1" ry="18"/>
            <text x="1451" y="-12.95" font-family="Times,serif" font-size="14" text-anchor="middle">:library:kotlin</text>
        </g>
        <g stroke="#000" class="edge">
            <path fill="none" d="M3516.53 23.15C2952.96 24.17 133.98 31.48 57 76 17.15 99.05 4 118.96 4 165v218c0 70.76 64.76 66.96 132 89 118.29 38.77 985.88 49.91 1245.69 52.39"/>
            <path d="m1381.39 520.89 9.96 3.59-10.03 3.41z"/>
        </g>
        <g class="node" transform="translate(4 544)">
            <ellipse cx="1626" cy="-306" fill="none" stroke="#000" rx="79.5" ry="18"/>
            <text x="1626" y="-300.95" font-family="Times,serif" font-size="14" text-anchor="middle">:library:navigation</text>
        </g>
        <g stroke="#000" class="edge">
            <path fill="none" d="M3516.4 23.37C3176.19 25.04 2054.78 33.7 1899 76c-64.49 17.51-74.6 37.77-132 72-36.01 21.48-76.12 47.83-103.59 66.27"/>
            <path d="m1665.4 217.15-10.25 2.68 6.34-8.49z"/>
        </g>
        <g class="node" transform="translate(4 544)">
            <ellipse cx="5098" cy="-18" fill="none" stroke="#000" rx="78.99" ry="18"/>
            <text x="5098" y="-12.95" font-family="Times,serif" font-size="14" text-anchor="middle">:library:coroutines</text>
        </g>
        <g stroke="#000" class="edge">
            <path fill="none" d="M3711.24 23.61C4211.91 26.86 6487.79 43.35 6801 76c207.11 21.59 460-119.24 460 89v218c0 75.99-73.11 67.5-146 89-185.54 54.74-1555.05 54.44-1922.49 53.36"/>
            <path d="m5192.66 528.86-9.99-3.53 10.01-3.47z"/>
        </g>
        <g class="node" transform="translate(4 544)">
            <ellipse cx="2004" cy="-18" fill="none" stroke="#000" rx="72.85" ry="18"/>
            <text x="2004" y="-12.95" font-family="Times,serif" font-size="14" text-anchor="middle">:library:datetime</text>
        </g>
        <g stroke="#000" class="edge">
            <path fill="none" d="M3516.32 22.28C3261.65 21.17 2582.01 23.39 2364 76c-216.83 52.32-291.15 62.52-453 216-59.68 56.6-89.74 112.32-43 180 14.99 21.7 40.09 34.53 64.94 42.1"/>
            <path d="m1933.75 510.69 8.71 6.04-10.57.71z"/>
        </g>
        <g class="node" transform="translate(4 544)">
            <ellipse cx="573" cy="-306" fill="none" stroke="#000" rx="89.23" ry="18"/>
            <text x="573" y="-300.95" font-family="Times,serif" font-size="14" text-anchor="middle">:library:shimmer-m3</text>
        </g>
        <g stroke="#000" class="edge">
            <path fill="none" d="M3516.27 22.93C3030.18 22.81 890.99 25.19 760 76c-71.47 27.72-133.42 96.83-163.54 134.87"/>
            <path d="m599.33 212.88-8.9 5.75 3.37-10.04z"/>
        </g>
        <g class="node" transform="translate(4 544)">
            <ellipse cx="3959" cy="-378" fill="none" stroke="#000" rx="71.31" ry="18"/>
            <text x="3959" y="-372.95" font-family="Times,serif" font-size="14" text-anchor="middle">:app:data:memo</text>
        </g>
        <g stroke="#000" class="edge">
            <path fill="none" d="M3706.69 27.86C3759.58 33.89 3825.58 47.14 3878 76c14.79 8.14 43.71 40.14 63.68 63.45"/>
            <path d="m3944.32 137.15 3.8 9.89-9.14-5.36z"/>
        </g>
        <g class="node" transform="translate(4 544)">
            <ellipse cx="3697" cy="-306" fill="none" stroke="#000" rx="58.52" ry="18"/>
            <text x="3697" y="-300.95" font-family="Times,serif" font-size="14" text-anchor="middle">:app:data:tag</text>
        </g>
        <g stroke="#000" class="edge">
            <path fill="none" d="M3620.97 40.15c15.02 36.94 50.53 124.3 68.78 169.18"/>
            <path d="m3692.9 207.78.52 10.59-7-7.95z"/>
        </g>
        <g class="node" transform="translate(4 544)">
            <ellipse cx="4967" cy="-162" fill="none" stroke="#000" rx="75.92" ry="18"/>
            <text x="4967" y="-156.95" font-family="Times,serif" font-size="14" text-anchor="middle">:app:data:account</text>
        </g>
        <g stroke="#000" class="edge">
            <path fill="none" d="M3711.56 23.52C4012.32 26.38 4905 45 4905 165v74c0 43.58 25.88 88.27 45.23 115.58"/>
            <path d="m4953.02 352.47 3.09 10.13-8.74-5.99z"/>
        </g>
        <g class="node" transform="translate(4 544)">
            <ellipse cx="5235" cy="-378" fill="none" stroke="#000" rx="83.6" ry="18"/>
            <text x="5235" y="-372.95" font-family="Times,serif" font-size="14" text-anchor="middle">:app:data:credential</text>
        </g>
        <g stroke="#000" class="edge">
            <path fill="none" d="M3711.28 24.05C4015.87 27.68 4938.75 41.44 5069 76c51.07 13.55 104.11 44.47 137.07 66.04"/>
            <path d="m5207.99 139.11 6.39 8.45-10.27-2.63z"/>
        </g>
        <g class="node" transform="translate(4 544)">
            <ellipse cx="4144" cy="-162" fill="none" stroke="#000" rx="74.89" ry="18"/>
            <text x="4144" y="-156.95" font-family="Times,serif" font-size="14" text-anchor="middle">:app:data:holiday</text>
        </g>
        <g stroke="#000" class="edge">
            <path fill="none" d="M3709.81 25.7C3921.52 32.14 4412.46 49.82 4437 76c54.72 58.36 45.68 114.32 0 180-26.26 37.75-54.55 18.32-97 36-52.24 21.76-111.12 49.55-149.74 68.24"/>
            <path d="m4191.82 363.38-10.53 1.22 7.47-7.52z"/>
        </g>
        <g class="node" transform="translate(4 544)">
            <ellipse cx="4419" cy="-234" fill="none" stroke="#000" rx="73.87" ry="18"/>
            <text x="4419" y="-228.95" font-family="Times,serif" font-size="14" text-anchor="middle">:app:data:backup</text>
        </g>
        <g stroke="#000" class="edge">
            <path fill="none" d="M3710.14 25.16C3936.44 30.72 4485.78 47.13 4513 76c54.88 58.21 39.7 110.55 0 180-8.41 14.71-22.67 25.74-37.39 33.82"/>
            <path d="m4477.27 292.9-10.5 1.37 7.36-7.62z"/>
        </g>
        <g class="node" transform="translate(4 544)">
            <ellipse cx="4287" cy="-306" fill="none" stroke="#000" rx="65.68" ry="18"/>
            <text x="4287" y="-300.95" font-family="Times,serif" font-size="14" text-anchor="middle">:app:data:fetch</text>
        </g>
        <g stroke="#000" class="edge">
            <path fill="none" d="M3708.16 27.02C3827.93 33.21 4027.35 47.5 4095 76c73.64 31.02 141.36 98.95 174.55 135.89"/>
            <path d="m4271.84 209.19 4.01 9.81-9.25-5.17z"/>
        </g>
        <g class="node" transform="translate(4 544)">
            <ellipse cx="5378" cy="-234" fill="none" stroke="#000" rx="62.1" ry="18"/>
            <text x="5378" y="-228.95" font-family="Times,serif" font-size="14" text-anchor="middle">:app:data:fcm</text>
        </g>
        <g stroke="#000" class="edge">
            <path fill="none" d="M3711.71 22.6c289.87-.59 1141.7 2.21 1414.29 53.4 95.32 17.9 138.64 2.23 206 72 35.16 36.42 45.63 97.11 48.73 132.66"/>
            <path d="m5384.19 279.94-2.78 10.23-4.21-9.72z"/>
        </g>
        <g class="node" transform="translate(4 544)">
            <ellipse cx="4004" cy="-450" fill="none" stroke="#000" rx="78.48" ry="18"/>
            <text x="4004" y="-444.95" font-family="Times,serif" font-size="14" text-anchor="middle">:app:data:calendar</text>
        </g>
        <g stroke="red" stroke-width="2" class="edge">
            <path fill="none" d="M3683.3 34.98C3744.53 45.61 3836.24 61.63 3916 76c6.92 1.25 14.14 2.56 21.35 3.88"/>
            <path fill="red" d="m3936.45 76.15 9.2 5.25-10.47 1.64z"/>
        </g>
        <g class="node" transform="translate(4 544)">
            <ellipse cx="3860" cy="-234" fill="none" stroke="#000" rx="70.29" ry="18"/>
            <text x="3860" y="-228.95" font-family="Times,serif" font-size="14" text-anchor="middle">:app:data:buddy</text>
        </g>
        <g stroke="#000" class="edge">
            <path fill="none" d="M3695.51 32.13C3752.2 40.27 3820.9 54.29 3840 76c50.52 57.42 39.76 156.22 30.5 204.61"/>
            <path d="m3873.95 281.2-5.43 9.09-1.43-10.5z"/>
        </g>
        <g class="node" transform="translate(4 544)">
            <ellipse cx="2366" cy="-306" fill="none" stroke="#000" rx="84.11" ry="18"/>
            <text x="2366" y="-300.95" font-family="Times,serif" font-size="14" text-anchor="middle">:app:domain:memo</text>
        </g>
        <g stroke="#000" class="edge">
            <path fill="none" d="M3516.52 23.42C3264.2 25.1 2603.11 33.55 2514 76c-60.65 28.9-106.94 96.2-129.26 134"/>
            <path d="m2387.86 211.59-8.02 6.92 1.96-10.41z"/>
        </g>
        <g class="node" transform="translate(4 544)">
            <ellipse cx="2737" cy="-234" fill="none" stroke="#000" rx="71.31" ry="18"/>
            <text x="2737" y="-228.95" font-family="Times,serif" font-size="14" text-anchor="middle">:app:domain:tag</text>
        </g>
        <g stroke="#000" class="edge">
            <path fill="none" d="M3553.33 36.37C3506.88 46.76 3441.26 61.74 3384 76c-240.2 59.8-318.71 29.19-538 144-31.49 16.49-61.84 43.86-81.74 63.91"/>
            <path d="m2766.94 286.18-9.48 4.73 4.46-9.61z"/>
        </g>
        <g class="node" transform="translate(4 544)">
            <ellipse cx="2541" cy="-90" fill="none" stroke="#000" rx="88.71" ry="18"/>
            <text x="2541" y="-84.95" font-family="Times,serif" font-size="14" text-anchor="middle">:app:domain:account</text>
        </g>
        <g stroke="#000" class="edge">
            <path fill="none" d="M3517.09 24.42C3283.71 28.37 2703.73 41.57 2623 76c-53.22 22.7-95 31.14-95 89v74c0 65.25 59.22 62.22 77 125 4.36 15.39 6.58 21.41 0 36-5.16 11.45-14.15 21.41-23.63 29.52"/>
            <path d="m2583.83 432.04-10.01 3.46 5.67-8.95z"/>
        </g>
        <g class="node" transform="translate(4 544)">
            <ellipse cx="3066" cy="-306" fill="none" stroke="#000" rx="96.39" ry="18"/>
            <text x="3066" y="-300.95" font-family="Times,serif" font-size="14" text-anchor="middle">:app:domain:credential</text>
        </g>
        <g stroke="#000" class="edge">
            <path fill="none" d="m3574 38.74-453.39 178.35"/>
            <path d="m3122.06 220.28-10.59.41 8.02-6.92z"/>
        </g>
        <g class="node" transform="translate(4 544)">
            <ellipse cx="3572" cy="-90" fill="none" stroke="#000" rx="87.69" ry="18"/>
            <text x="3572" y="-84.95" font-family="Times,serif" font-size="14" text-anchor="middle">:app:domain:holiday</text>
        </g>
        <g stroke="#000" class="edge">
            <path fill="none" d="M3639.86 39.75C3692.75 76.26 3805.36 166.94 3769 256c-31.85 78.01-111.11 141.86-157.55 174.16"/>
            <path d="m3613.55 432.96-10.24 2.75 6.29-8.53z"/>
        </g>
        <g class="node" transform="translate(4 544)">
            <ellipse cx="3191" cy="-162" fill="none" stroke="#000" rx="86.67" ry="18"/>
            <text x="3191" y="-156.95" font-family="Times,serif" font-size="14" text-anchor="middle">:app:domain:backup</text>
        </g>
        <g stroke="#000" class="edge">
            <path fill="none" d="M3584.56 39.61C3492.55 91.8 3215.21 251.44 3193 292c-10.05 18.35-8.91 42.17-5.61 60.55"/>
            <path d="m3190.8 351.75-1.34 10.51-5.51-9.05z"/>
        </g>
        <g class="node" transform="translate(4 544)">
            <ellipse cx="3276" cy="-234" fill="none" stroke="#000" rx="78.48" ry="18"/>
            <text x="3276" y="-228.95" font-family="Times,serif" font-size="14" text-anchor="middle">:app:domain:fetch</text>
        </g>
        <g stroke="#000" class="edge">
            <path fill="none" d="M3615.08 40.4c1.65 43.4-.54 157.15-63.08 215.6-26.72 24.97-117.64 38.98-187.08 46.23"/>
            <path d="m3365.35 305.71-10.3-2.48 9.59-4.49z"/>
        </g>
        <g class="node" transform="translate(4 544)">
            <ellipse cx="2897" cy="-162" fill="none" stroke="#000" rx="74.89" ry="18"/>
            <text x="2897" y="-156.95" font-family="Times,serif" font-size="14" text-anchor="middle">:app:domain:fcm</text>
        </g>
        <g stroke="#000" class="edge">
            <path fill="none" d="M3517.13 24.38C3326.54 27.86 2909.34 39.53 2771 76c-81.33 21.44-167 4.9-167 89v74c0 95 125.2 126.5 213.03 136.91"/>
            <path d="m2817.29 372.41 9.55 4.58-10.32 2.38z"/>
        </g>
        <g class="node" transform="translate(4 544)">
            <ellipse cx="2719" cy="-378" fill="none" stroke="#000" rx="91.27" ry="18"/>
            <text x="2719" y="-372.95" font-family="Times,serif" font-size="14" text-anchor="middle">:app:domain:calendar</text>
        </g>
        <g stroke="#000" class="edge">
            <path fill="none" d="M3518.69 26.09C3323.32 32.9 2890.5 50.66 2828 76c-33.52 13.59-64.11 42.23-83.52 63.37"/>
            <path d="m2747.15 141.63-9.27 5.14 4.04-9.79z"/>
        </g>
        <g class="node" transform="translate(4 544)">
            <ellipse cx="2493" cy="-162" fill="none" stroke="#000" rx="83.08" ry="18"/>
            <text x="2493" y="-156.95" font-family="Times,serif" font-size="14" text-anchor="middle">:app:domain:buddy</text>
        </g>
        <g stroke="#000" class="edge">
            <path fill="none" d="M3516.79 24.05C3256.46 27.34 2556.66 39.51 2459 76c-106.57 39.82-239.22 81.67-182 180 33.42 57.42 104.14 90.63 156.42 108.18"/>
            <path d="m2434.4 360.82 8.44 6.41-10.6.25z"/>
        </g>
        <g class="node" transform="translate(4 544)">
            <ellipse cx="7371" cy="-450" fill="none" stroke="#000" rx="86.15" ry="18"/>
            <text x="7371" y="-444.95" font-family="Times,serif" font-size="14" text-anchor="middle">:app:core:coroutines</text>
        </g>
        <g stroke="#000" class="edge">
            <path fill="none" d="M3711.45 23.51C4256.08 26.5 6911.72 42.69 7275 76c8.91.82 18.23 1.98 27.44 3.32"/>
            <path d="m7302.73 75.82 9.36 4.98-10.42 1.94z"/>
        </g>
        <g class="node" transform="translate(4 544)">
            <ellipse cx="6899" cy="-234" fill="none" stroke="#000" rx="123.52" ry="18"/>
            <text x="6899" y="-228.95" font-family="Times,serif" font-size="14" text-anchor="middle">:app:core:filter-database-room</text>
        </g>
        <g stroke="#000" class="edge">
            <path fill="none" d="M3711.64 23.34C4236.06 25.32 6697.39 36.71 6765 76c77.87 45.26 116.48 153.26 130.98 204.76"/>
            <path d="m6899.31 279.68-.77 10.57-5.99-8.75z"/>
        </g>
        <g class="node" transform="translate(4 544)">
            <ellipse cx="6227" cy="-234" fill="none" stroke="#000" rx="132.22" ry="18"/>
            <text x="6227" y="-228.95" font-family="Times,serif" font-size="14" text-anchor="middle">:app:core:backup-database-room</text>
        </g>
        <g stroke="#000" class="edge">
            <path fill="none" d="M3711.48 23.39C4182.86 25.44 6205.5 36.56 6257 76c62.15 47.59 16.25 155.18-10.44 205.76"/>
            <path d="m6249.77 283.19-7.84 7.12 1.68-10.46z"/>
        </g>
        <g class="node" transform="translate(4 544)">
            <ellipse cx="6421" cy="-162" fill="none" stroke="#000" rx="158.32" ry="18"/>
            <text x="6421" y="-156.95" font-family="Times,serif" font-size="14" text-anchor="middle">:app:core:account-preferences-datastore</text>
        </g>
        <g stroke="#000" class="edge">
            <path fill="none" d="M3711.4 23.57C4165.57 26.41 6064.27 40.33 6327 76c158.19 21.48 348-70.64 348 89v74c0 40.45 9.38 60.18-19 89-16.88 17.14-66.51 29.67-115.47 38.24"/>
            <path d="m6541.38 369.64-10.44-1.78 9.27-5.12z"/>
        </g>
        <g class="node" transform="translate(4 544)">
            <ellipse cx="5952" cy="-234" fill="none" stroke="#000" rx="124.54" ry="18"/>
            <text x="5952" y="-228.95" font-family="Times,serif" font-size="14" text-anchor="middle">:app:core:diary-database-room</text>
        </g>
        <g stroke="#000" class="edge">
            <path fill="none" d="M3711.51 23.12C4180.67 23.95 6185.09 30.17 6230 76c55.99 57.14 50.91 118.29 0 180-11.27 13.66-99.08 29.01-172.31 39.66"/>
            <path d="m6058.44 299.09-10.4-2.04 9.4-4.89z"/>
        </g>
        <g class="node" transform="translate(4 544)">
            <ellipse cx="5271" cy="-162" fill="none" stroke="#000" rx="95.88" ry="18"/>
            <text x="5271" y="-156.95" font-family="Times,serif" font-size="14" text-anchor="middle">:app:core:diary-service</text>
        </g>
        <g stroke="#000" class="edge">
            <path fill="none" d="M3711.63 22.37C4035.65 21.54 5055 29.68 5055 165v74c0 70.8 81.42 108.01 145.2 126.3"/>
            <path d="m5200.9 361.86 8.71 6.02-10.57.73z"/>
        </g>
        <g class="node" transform="translate(4 544)">
            <ellipse cx="3859" cy="-90" fill="none" stroke="#000" rx="104.58" ry="18"/>
            <text x="3859" y="-84.95" font-family="Times,serif" font-size="14" text-anchor="middle">:app:core:holiday-service</text>
        </g>
        <g stroke="#000" class="edge">
            <path fill="none" d="M3707.7 27.27C3836.66 34.03 4061.68 49.26 4139 76c112.91 39.05 169.43 39.31 227 144 7.71 14.02 9.39 23.05 0 36-30.19 41.65-61.46 18.97-110 36-85.99 30.18-108.08 36.46-192 72-34.42 14.57-41.9 20.7-76 36-24.69 11.08-52.38 22.88-75.41 32.53"/>
            <path d="m3914 435.73-10.57.63 7.88-7.09z"/>
        </g>
        <g class="node" transform="translate(4 544)">
            <ellipse cx="5580" cy="-162" fill="none" stroke="#000" rx="157.3" ry="18"/>
            <text x="5580" y="-156.95" font-family="Times,serif" font-size="14" text-anchor="middle">:app:core:holiday-preferences-datastore</text>
        </g>
        <g stroke="#000" class="edge">
            <path fill="none" d="M3711.3 23.68C4036.84 26.29 5075.65 37.58 5221 76c163.12 43.12 297.75 212.73 344.93 278.62"/>
            <path d="m5568.71 352.49 2.91 10.19-8.63-6.15z"/>
        </g>
        <g class="node" transform="translate(4 544)">
            <ellipse cx="6510" cy="-234" fill="none" stroke="#000" rx="133.24" ry="18"/>
            <text x="6510" y="-228.95" font-family="Times,serif" font-size="14" text-anchor="middle">:app:core:holiday-database-room</text>
        </g>
        <g stroke="#000" class="edge">
            <path fill="none" d="M3711.57 22.89C4177.98 22.61 6162.75 24.48 6283 76c101.61 43.53 181.91 154.96 214.82 206.33"/>
            <path d="m6500.59 280.16 2.37 10.32-8.29-6.59z"/>
        </g>
        <g class="node" transform="translate(4 544)">
            <ellipse cx="964" cy="-378" fill="none" stroke="#000" rx="81.55" ry="18"/>
            <text x="964" y="-372.95" font-family="Times,serif" font-size="14" text-anchor="middle">:app:feature:memo</text>
        </g>
        <g stroke="#000" class="edge">
            <path fill="none" d="M3516.34 23.09C3062.82 23.75 1179.49 29.31 1064 76c-31.94 12.91-59.71 41.73-77.05 63.1"/>
            <path d="m989.81 141.12-8.92 5.71 3.41-10.03z"/>
        </g>
        <g class="node" transform="translate(4 544)">
            <ellipse cx="1609" cy="-378" fill="none" stroke="#000" rx="68.75" ry="18"/>
            <text x="1609" y="-372.95" font-family="Times,serif" font-size="14" text-anchor="middle">:app:feature:tag</text>
        </g>
        <g stroke="#000" class="edge">
            <path fill="none" d="M3517.01 24.13C3144.05 28.68 1818.84 46.83 1734 76c-38.27 13.16-74.6 43.07-97.28 64.58"/>
            <path d="m1639.41 142.85-9.61 4.46 4.73-9.48z"/>
        </g>
        <g class="node" transform="translate(4 544)">
            <ellipse cx="854" cy="-450" fill="none" stroke="#000" rx="88.71" ry="18"/>
            <text x="854" y="-444.95" font-family="Times,serif" font-size="14" text-anchor="middle">:app:feature:calendar</text>
        </g>
        <g stroke="#000" class="edge">
            <path fill="none" d="M3516.73 23.61C3104.38 26.4 1498.67 39.45 994 76c-17.6 1.27-36.43 3.24-54.28 5.38"/>
            <path d="m940.3 84.84-10.35-2.25 9.5-4.7z"/>
        </g>
        <g class="node" transform="translate(4 544)">
            <ellipse cx="1853" cy="-378" fill="none" stroke="#000" rx="80.52" ry="18"/>
            <text x="1853" y="-372.95" font-family="Times,serif" font-size="14" text-anchor="middle">:app:feature:buddy</text>
        </g>
        <g stroke="#000" class="edge">
            <path fill="none" d="M3516.86 24.21C3172.18 28.74 2024.48 46.01 1952 76c-31.47 13.02-58.81 41.55-75.98 62.82"/>
            <path d="m1878.93 140.79-8.91 5.73 3.39-10.04z"/>
        </g>
        <g class="node" transform="translate(4 544)">
            <ellipse cx="1445" cy="-378" fill="none" stroke="#000" rx="76.94" ry="18"/>
            <text x="1445" y="-372.95" font-family="Times,serif" font-size="14" text-anchor="middle">:app:feature:more</text>
        </g>
        <g stroke="#000" class="edge">
            <path fill="none" d="M3516.63 23.59C3147.69 26.11 1847.49 37.66 1666 76c-65.01 13.73-135.3 46.12-177.74 67.8"/>
            <path d="m1489.93 146.88-10.49 1.48 7.27-7.7z"/>
        </g>
        <g class="node" transform="translate(4 544)">
            <ellipse cx="1264" cy="-378" fill="none" stroke="#000" rx="86.15" ry="18"/>
            <text x="1264" y="-372.95" font-family="Times,serif" font-size="14" text-anchor="middle">:app:feature:account</text>
        </g>
        <g stroke="#000" class="edge">
            <path fill="none" d="M3516.67 23.92C3134.44 27.75 1747.55 43.77 1553 76c-85.34 14.14-180.52 47.66-236.45 69.29"/>
            <path d="m1317.9 148.52-10.59.38 8.04-6.9z"/>
        </g>
        <g class="node" transform="translate(4 544)">
            <ellipse cx="6747" cy="-162" fill="none" stroke="#000" rx="112.26" ry="18"/>
            <text x="6747" y="-156.95" font-family="Times,serif" font-size="14" text-anchor="middle">:library:firebase-messaging</text>
        </g>
        <g stroke="#000" class="edge">
            <path fill="none" d="M3711.7 22.85c473.58-.47 2518.93.57 2798.3 53.15 112.21 21.12 241-25.18 241 89v187.31"/>
            <path d="m6754.5 352-3.5 10-3.5-10z"/>
        </g>
        <g stroke="#000" class="edge">
            <path fill="none" d="M959.4 254.6c-16.96 9.1-36.94 21.87-51.4 37.4-16.44 17.67-28.82 42.18-36.74 61"/>
            <path d="m874.54 354.22-6.96 7.98.46-10.58z"/>
        </g>
        <g stroke="#000" class="edge">
            <path fill="none" d="M987.65 256.01c-3.03 10.31-6.6 23.79-8.65 35.99-3.98 23.73 7.24 89.37-8 108-16.01 19.58-77 34.27-125.42 43.16"/>
            <path d="m846.47 446.56-10.46-1.69 9.23-5.2z"/>
        </g>
        <g stroke="#000" class="edge">
            <path fill="none" d="M1051.72 250.74c67.19 13.66 168.85 35.14 175.28 41.26 60.11 57.28-14.24 127.4 50 180 24.76 20.27 461.98 41.41 648.15 49.54"/>
            <path d="m1925.16 518.03 9.84 3.93-10.14 3.07z"/>
        </g>
        <g class="node" transform="translate(4 544)">
            <ellipse cx="1099" cy="-234" fill="none" stroke="#000" rx="115.33" ry="18"/>
            <text x="1099" y="-228.95" font-family="Times,serif" font-size="14" text-anchor="middle">:app:core:calendar-compose</text>
        </g>
        <g stroke="#000" class="edge">
            <path fill="none" d="M1018.79 255.41c14.41 9.17 32.59 20.74 48.36 30.78"/>
            <path d="m1068.77 283.07 6.56 8.32-10.32-2.41z"/>
        </g>
        <g class="node" transform="translate(4 544)">
            <ellipse cx="3361" cy="-18" fill="none" stroke="#000" rx="71.31" ry="18"/>
            <text x="3361" y="-12.95" font-family="Times,serif" font-size="14" text-anchor="middle">:app:core:model</text>
        </g>
        <g stroke="#000" class="edge">
            <path fill="none" d="M1049.26 251.28c9.87 1.82 20.08 3.5 29.74 4.72 105.22 13.32 1804.83 76.17 1906 108 87.19 27.43 90.92 72.16 175 108 43.89 18.71 95.98 32.07 136.66 40.7"/>
            <path d="m3297.25 509.25 9.08 5.45-10.5 1.4z"/>
        </g>
        <g stroke="#000" class="edge">
            <path fill="none" d="M841.88 399.95c-9.88 8.74-22.09 19.56-32.9 29.15"/>
            <path d="m811.61 431.44-9.8 4.01 5.16-9.25z"/>
        </g>
        <g stroke="#000" class="edge">
            <path fill="none" d="M897.89 399.05c49.95 20.92 142.38 56.73 225.11 72.95 151.91 29.79 611.45 45.49 801.42 50.85"/>
            <path d="m1924.31 519.34 9.9 3.78-10.09 3.22z"/>
        </g>
        <g stroke="#000" class="edge">
            <path fill="none" d="M1233.76 255.83c8.94 9.82 19.46 22.87 26.24 36.17 37.58 73.78-15.7 127.11 48 180 23.44 19.46 437.34 40.86 617.43 49.29"/>
            <path d="m1925.35 517.78 9.82 3.96-10.15 3.03z"/>
        </g>
        <g stroke="#000" class="edge">
            <path fill="none" d="M1599.08 255.03C1551.32 282.08 1468.09 339.79 1498 400c23.57 47.44 45.96 51.97 95 72 58.74 23.99 230.57 39.92 333.79 47.62"/>
            <path d="m1926.88 516.11 9.71 4.23-10.23 2.76z"/>
        </g>
        <g stroke="#000" class="edge">
            <path fill="none" d="M574.52 256.01c-3.69 32.31-6.74 103 29.48 143.99 15.6 17.65 71.38 32.42 116.39 41.84"/>
            <path d="m720.99 438.39 9.1 5.43-10.5 1.43z"/>
        </g>
        <g stroke="#000" class="edge">
            <path fill="none" d="M4033.45 169.31c272.13 9.4 1254.4 47.9 1556.55 122.69 82.44 20.41 116.69 12.2 177 72 35.37 35.08 63.86 71.46 30 108-40.24 43.43-425.12 51.43-604.19 52.79"/>
            <path d="m5192.85 528.29-10.02-3.43 9.98-3.57z"/>
        </g>
        <g stroke="#000" class="edge">
            <path fill="none" d="M3892.01 168.27C3620.13 173.81 2645.74 199.78 2352 292c-34.13 10.72-37.85 25.32-72 36-107.56 33.63-165.41-37.32-251 36-37.57 32.19-33.5 95.91-27.22 132.8"/>
            <path d="m2005.15 495.8-1.59 10.48-5.29-9.18z"/>
        </g>
        <g stroke="#000" class="edge">
            <path fill="none" d="M3892.13 168.23C3634.69 172.9 2749.41 190.74 2468 220c-8.42.88-17.21 2.04-25.91 3.35"/>
            <path d="m2442.64 226.8-10.42-1.9 9.33-5.01z"/>
        </g>
        <g stroke="#000" class="edge">
            <path fill="none" d="M4034.2 168.15c175.61 3.37 625.63 15.4 770.8 51.85 111.88 28.09 126.72 71.06 236 108 50.03 16.91 107.91 30.07 153.58 39.05"/>
            <path d="m5194.98 363.56 9.16 5.34-10.49 1.53z"/>
        </g>
        <g class="node" transform="translate(4 544)">
            <ellipse cx="3873" cy="-162" fill="none" stroke="#000" rx="101.51" ry="18"/>
            <text x="3873" y="-156.95" font-family="Times,serif" font-size="14" text-anchor="middle">:app:core:diary-database</text>
        </g>
        <g stroke="#000" class="edge">
            <path fill="none" d="M3964.9 184.27c2.56 30.95 4.17 97-21.9 143.73-6.48 11.61-16.62 21.64-27.03 29.75"/>
            <path d="m3918.21 360.44-10.15 3.04 6.04-8.7z"/>
        </g>
        <g stroke="#000" class="edge">
            <path fill="none" d="M3759.25 240.58c169.47 4.91 660.23 21.39 817.75 51.42 50.53 9.63 59.57 25.83 110 36 192.34 38.78 258.47-38.47 440 36 23.06 9.46 21.98 22.61 43 36 31.86 20.3 56.72 4.13 77 36 8.59 13.5 9.17 22.89 0 36-15.05 21.53-39.83 34.34-64.68 41.95"/>
            <path d="m5183.35 517.3-10.57-.7 8.7-6.04z"/>
        </g>
        <g stroke="#000" class="edge">
            <path fill="none" d="M3642.38 239.16c-123.75 1.23-420.35 8.97-664.38 52.84-56.48 10.15-67.47 26.09-124 36-244.78 42.9-317.75-27.55-558 36-70.72 18.71-85.57 33.88-148 72-22.76 13.9-25.74 21.32-48 36-16.82 11.09-36.05 22.38-52.57 31.67"/>
            <path d="m2049.31 506.63-10.44 1.8 7.03-7.92z"/>
        </g>
        <g stroke="#000" class="edge">
            <path fill="none" d="M3643.78 242.03c-131.25 7.11-464.07 26.11-741.78 49.97-28.06 2.41-58.81 5.54-85.86 8.45"/>
            <path d="m2816.62 303.92-10.32-2.4 9.57-4.56z"/>
        </g>
        <g stroke="#000" class="edge">
            <path fill="none" d="M3714.3 255.82c15.59 19.02 42.85 50.19 70.7 72.18 14.71 11.62 32.26 22.37 48.06 31.12"/>
            <path d="m3834.68 356.01 7.14 7.83-10.46-1.67z"/>
        </g>
        <g stroke="#000" class="edge">
            <path fill="none" d="M5024.59 395.08C5075.68 407.14 5146 425.36 5154 436c15.55 20.69-3.06 46.4-22.2 64.86"/>
            <path d="m5134.25 503.37-9.75 4.15 5.03-9.32z"/>
        </g>
        <g stroke="#000" class="edge">
            <path fill="none" d="M4895.24 383.88c-142.25 2.56-443.59 12.63-539.24 52.12-23.04 9.51-19.67 27.22-43 36-6.63 2.5-1807.94 42.11-2221.19 51.17"/>
            <path d="m2092.15 526.66-10.07-3.28 9.92-3.72z"/>
        </g>
        <g stroke="#000" class="edge">
            <path fill="none" d="M4896.96 386.25c-85.15 3.66-229.13 9.64-352.96 13.75-729.32 24.19-1608.62 44.38-1899.95 50.84"/>
            <path d="m2644.28 454.34-10.07-3.28 9.92-3.72z"/>
        </g>
        <g class="node" transform="translate(4 544)">
            <ellipse cx="5640" cy="-90" fill="none" stroke="#000" rx="121.98" ry="18"/>
            <text x="5640" y="-84.95" font-family="Times,serif" font-size="14" text-anchor="middle">:app:core:account-preferences</text>
        </g>
        <g stroke="#000" class="edge">
            <path fill="none" d="M5039.55 390.13c116.95 12.16 355.93 37.02 495.82 51.57"/>
            <path d="m5535.42 438.19 9.58 4.51-10.31 2.45z"/>
        </g>
        <g stroke="#000" class="edge">
            <path fill="none" d="M5297.73 179.21c10.07 1.81 20.44 3.49 30.27 4.79 216.05 28.49 271.77 18.68 489 36 373.08 29.74 471.89-.79 839 72 52.12 10.33 63.2 20.42 114 36 53.64 16.45 87.46-8.98 121 36 11.74 15.74 13.29 91.15-4 108-30.64 29.86-1336.18 47.64-1694.73 51.96"/>
            <path d="m5192.49 527.46-10.05-3.38 9.96-3.62z"/>
        </g>
        <g stroke="#000" class="edge">
            <path fill="none" d="M5155.83 168.32C4752.63 174.79 3018.34 203.54 2965 220c-56.19 17.34-66.11 34.02-111 72-16.57 14.02-13.39 26.69-33 36-124.26 59.03-488.04-9.11-618 36-75.64 26.26-142.48 96.82-174.66 135.23"/>
            <path d="m2031.3 501.14-9.06 5.5 3.65-9.95z"/>
        </g>
        <g stroke="#000" class="edge">
            <path fill="none" d="M5156.62 169.66c-336.22 10.85-1604.51 51.78-1980.77 63.92"/>
            <path d="m3176.06 237.08-10.11-3.18 9.89-3.82z"/>
        </g>
        <g stroke="#000" class="edge">
            <path fill="none" d="M5241.89 184.15c6.17 36.71 20.72 123.19 28.31 168.32"/>
            <path d="m5273.64 351.83-1.79 10.44-5.11-9.28z"/>
        </g>
        <g stroke="#000" class="edge">
            <path fill="none" d="M5319.32 171.24C5436.91 182.27 5652.49 221.91 5750 364c9.05 13.19 8.41 22.39 0 36-8.96 14.5-23.23 25.17-38.42 32.96"/>
            <path d="m5713.42 435.97-10.54 1.07 7.57-7.41z"/>
        </g>
        <g stroke="#000" class="edge">
            <path fill="none" d="M4102.8 396.69c-18.87 8.2-38.9 20.74-49.8 39.31-8.1 13.8-11.02 24.4 0 36 32.8 34.49 710 47.98 958.55 51.78"/>
            <path d="m5011.6 520.28 9.95 3.65-10.06 3.35z"/>
        </g>
        <g stroke="#000" class="edge">
            <path fill="none" d="M4092.09 394.33c-10.95 2.03-22.36 4.02-33.09 5.67-137.1 21.03-176.66-2.2-310 36-35.93 10.29-39.67 27.22-76 36-77.4 18.7-1254.2 44.46-1581.24 51.28"/>
            <path d="m2092.07 526.78-10.07-3.29 9.92-3.71z"/>
        </g>
        <g stroke="#000" class="edge">
            <path fill="none" d="M4092.58 394.33c-11.1 2.06-22.69 4.06-33.58 5.67-151.64 22.4-190.69 18.76-343 36-17.93 2.03-37.14 4.3-55.41 6.5"/>
            <path d="m3661.21 445.95-10.35-2.27 9.51-4.68z"/>
        </g>
        <g stroke="#000" class="edge">
            <path fill="none" d="M4097.05 395.51c-45.94 11.29-113.9 27.98-164.77 40.47"/>
            <path d="m3933.39 439.32-10.55-1.02 8.88-5.78z"/>
        </g>
        <g class="node" transform="translate(4 544)">
            <ellipse cx="4179" cy="-90" fill="none" stroke="#000" rx="120.96" ry="18"/>
            <text x="4179" y="-84.95" font-family="Times,serif" font-size="14" text-anchor="middle">:app:core:holiday-preferences</text>
        </g>
        <g stroke="#000" class="edge">
            <path fill="none" d="M4156.65 400.3c3.82 7.63 8.39 16.78 12.65 25.3"/>
            <path d="m4172.43 424.03 1.34 10.51-7.6-7.38z"/>
        </g>
        <g class="node" transform="translate(4 544)">
            <ellipse cx="4580" cy="-90" fill="none" stroke="#000" rx="110.21" ry="18"/>
            <text x="4580" y="-84.95" font-family="Times,serif" font-size="14" text-anchor="middle">:app:core:holiday-database</text>
        </g>
        <g stroke="#000" class="edge">
            <path fill="none" d="M4204.44 394.11c10.8 2.03 22.02 4.08 32.56 5.89 86.23 14.82 184.88 29.68 254.9 39.88"/>
            <path d="m4491.99 436.36 9.39 4.9-10.4 2.03z"/>
        </g>
        <g stroke="#000" class="edge">
            <path fill="none" d="M4491.71 316.89c39.07 3.33 88.92 7.52 133.29 11.11 103.08 8.34 367.23-.48 464 36 24.95 9.41 24.68 23.07 48 36 38.76 21.5 67.95-.56 93 36 9.04 13.2 8.89 22.7 0 36-12.69 18.99-33.58 31.18-54.83 39.01"/>
            <path d="m5176.43 514.28-10.6-.15 8.38-6.49z"/>
        </g>
        <g stroke="#000" class="edge">
            <path fill="none" d="M4350.22 313.66c-94.04 3.41-262.84 9.48-407.22 14.34-125.1 4.22-1007.69-4.89-1126 36-25.54 8.83-26.37 21.23-49 36-53.69 35.03-63.81 52.87-125 72-100.66 31.46-403.6 45.46-551.68 50.55"/>
            <path d="m2091.69 526.04-10.11-3.16 9.87-3.83z"/>
        </g>
        <g stroke="#000" class="edge">
            <path fill="none" d="M4351.67 315.07c-210.02 11.97-826.18 47.09-1062.72 60.57"/>
            <path d="m3289.33 379.13-10.18-2.93 9.79-4.06z"/>
        </g>
        <g stroke="#000" class="edge">
            <path fill="none" d="M4494.03 315.42c127.09 8.12 401.75 26.6 632.97 48.58 18.74 1.78 38.8 3.92 57.9 6.08"/>
            <path d="m5185.29 366.6 9.54 4.61-10.33 2.35z"/>
        </g>
        <g stroke="#000" class="edge">
            <path fill="none" d="M4358.76 319.24c-96.61 12.38-279.75 35.86-390.29 50.03"/>
            <path d="m3969.21 372.71-10.36-2.2 9.47-4.75z"/>
        </g>
        <g class="node" transform="translate(4 544)">
            <ellipse cx="4422" cy="-162" fill="none" stroke="#000" rx="109.19" ry="18"/>
            <text x="4422" y="-156.95" font-family="Times,serif" font-size="14" text-anchor="middle">:app:core:backup-database</text>
        </g>
        <g stroke="#000" class="edge">
            <path fill="none" d="M4423.74 328.3c.31 7.29.69 15.97 1.04 24.16"/>
            <path d="m4428.27 352.24-3.07 10.14-3.92-9.84z"/>
        </g>
        <g stroke="#000" class="edge">
            <path fill="none" d="M4356.55 240.33c212.7 4.58 882.28 21.12 1096.45 51.67 134.46 19.18 196.44-19.3 297 72 36.48 33.12 58.44 71.82 25 108-38.73 41.9-408.02 50.72-582.51 52.55"/>
            <path d="m5192.58 528.05-10.04-3.41 9.97-3.59z"/>
        </g>
        <g stroke="#000" class="edge">
            <path fill="none" d="M4225.96 241.39C4021.84 249 3395.51 273.29 3193 292c-117.48 10.85-145.58 24.49-263 36-134.26 13.16-477.27-4.33-606 36-29.31 9.18-31.56 22.19-59 36-38.12 19.18-53.11 12.93-89 36-19.57 12.58-18.45 23.39-38 36-22.91 14.78-50.63 26.76-74.57 35.57"/>
            <path d="m2064.75 510.81-10.6.07 8.24-6.66z"/>
        </g>
        <g stroke="#000" class="edge">
            <path fill="none" d="M4227.76 243.38c-174.61 12.09-663.55 45.94-862.22 59.7"/>
            <path d="m3366.03 306.55-10.22-2.8 9.74-4.18z"/>
        </g>
        <g stroke="#000" class="edge">
            <path fill="none" d="M4349.68 246.42c78 9.95 220.12 28.35 341.32 45.58 210.96 30 263.37 39.73 474 72 8.6 1.32 17.57 2.7 26.52 4.08"/>
            <path d="m5191.97 364.6 9.35 4.99-10.42 1.93z"/>
        </g>
        <g stroke="#000" class="edge">
            <path fill="none" d="M4251.3 252.62c-74.06 25.4-233.47 80.08-318.39 109.2"/>
            <path d="m3934.21 365.08-10.59-.07 8.32-6.55z"/>
        </g>
        <g stroke="#000" class="edge">
            <path fill="none" d="M5385.64 328.39c4.75 19.26 14.62 50.38 32.36 71.61 19.21 23 42.54 9.76 57 36 7.72 14.01 10.49 23.92 0 36-35.83 41.28-183.86 51.25-282.31 53.2"/>
            <path d="m5192.81 528.7-10.06-3.33 9.94-3.67z"/>
        </g>
        <g stroke="#000" class="edge">
            <path fill="none" d="M5320.07 312.03C5075.8 316.31 4186.58 333.84 4064 364c-36.29 8.93-39.83 26.59-76 36-14.55 3.78-1065 71.06-1080 72-301.67 18.94-660.36 39.46-818.37 48.41"/>
            <path d="m2090.3 523.87-10.18-2.93 9.78-4.06z"/>
        </g>
        <g stroke="#000" class="edge">
            <path fill="none" d="M5319.86 312.21C4977.23 318.91 3325.89 351.64 3099 364c-39.34 2.14-82.98 5.76-119.25 9.1"/>
            <path d="m2980.53 376.54-10.28-2.55 9.63-4.41z"/>
        </g>
        <g stroke="#000" class="edge">
            <path fill="none" d="m5357.72 326.88-47.69 31.21"/>
            <path d="m5312.23 360.83-10.29 2.54 6.45-8.4z"/>
        </g>
        <g stroke="#000" class="edge">
            <path fill="none" d="M5443.33 313.46C5673.31 322.71 6477.2 355.36 6592 364c19.3 1.45 39.87 3.37 59.6 5.4"/>
            <path d="m6651.7 365.89 9.58 4.52-10.31 2.45z"/>
        </g>
        <g stroke="#000" class="edge">
            <path fill="none" d="M4086.77 95.24C4402.66 96.95 5607.99 110.7 6592 220c277.72 30.85 467.51-95.17 612 144 83.49 138.2 6.04 68.34-238 108-175.7 28.55-1425.27 47.16-1773.89 51.84"/>
            <path d="m5192.39 527.34-10.04-3.37 9.95-3.63z"/>
        </g>
        <g stroke="#000" class="edge">
            <path fill="none" d="M3929.27 94.44C3717.49 93.7 3118.15 96.7 2623 148c-171.03 17.72-649.72 71.55-743 216-8.31 12.87-14.07 85.72 1 108 13.23 19.56 35.17 31.91 57.13 39.71"/>
            <path d="m1938.99 508.32 8.44 6.4-10.59.26z"/>
        </g>
        <g stroke="red" stroke-width="2" class="edge">
            <path fill="none" d="M3932.41 99.12c-220.56 12.01-863.39 47.03-1110.78 60.51"/>
            <path fill="red" d="m2823.34 163.04-10.17-2.95 9.79-4.04z"/>
        </g>
        <g class="node" transform="translate(4 544)">
            <ellipse cx="7091" cy="-162" fill="none" stroke="#000" rx="100.48" ry="18"/>
            <text x="7091" y="-156.95" font-family="Times,serif" font-size="14" text-anchor="middle">:app:core:filter-database</text>
        </g>
        <g stroke="#000" class="edge">
            <path fill="none" d="M4085.66 96.93c204.26 5.32 773.35 21.82 1246.34 51.07 382.83 23.68 477.8 39.7 860 72 375.14 31.7 520.18-120.02 844 72 23.25 13.79 39.15 40.74 48.54 61.39"/>
            <path d="m7087.68 351.83.7 10.57-7.14-7.83z"/>
        </g>
        <g stroke="#000" class="edge">
            <path fill="none" d="M3933.3 313.37c250.72 8.65 1097.12 38.69 1122.7 50.63 19.67 9.18 15.35 23.37 33 36 32.36 23.17 60.24 2.68 82 36 8.75 13.4 7.07 21.65 0 36-6.1 12.38-16.65 22.68-27.68 30.8"/>
            <path d="m5145.52 505.54-10.24 2.72 6.31-8.51z"/>
        </g>
        <g stroke="#000" class="edge">
            <path fill="none" d="M3794.55 313.37C3505.6 323.26 2413.21 360.85 2405 364c-23.27 8.94-21.21 23.91-43 36-44.98 24.96-65.81 9.67-110 36-19.99 11.91-17.64 24.74-38 36-40.32 22.3-90.27 35.45-130.89 43.07"/>
            <path d="m2083.87 518.49-10.46-1.68 9.22-5.21z"/>
        </g>
        <g stroke="#000" class="edge">
            <path fill="none" d="M3795.13 314.14c-171.09 7.84-629.2 29.18-1011.13 49.86-65.75 3.56-139.94 7.97-196.42 11.4"/>
            <path d="m2587.87 378.89-10.19-2.89 9.77-4.1z"/>
        </g>
        <g stroke="#000" class="edge">
            <path fill="none" d="M3933.35 313.56C4157.59 321.91 4861.61 348.7 5089 364c29.98 2.02 62.62 4.8 92.08 7.53"/>
            <path d="m5181.06 368.02 9.63 4.41-10.28 2.56z"/>
        </g>
        <g stroke="#000" class="edge">
            <path fill="none" d="M3867.21 328.3c1.37 7.38 3.01 16.18 4.54 24.45"/>
            <path d="m3875.16 351.94-1.61 10.47-5.27-9.2z"/>
        </g>
        <g stroke="#000" class="edge">
            <path fill="none" d="M2328.8 254.06c-55.7 19.81-158.47 54.38-248.8 73.94-124.51 26.96-458.21 35.56-563 108-22.32 15.43-39.16 41.69-49.61 61.7"/>
            <path d="m1470.63 499.03-7.58 7.39 1.32-10.51z"/>
        </g>
        <g stroke="#000" class="edge">
            <path fill="none" d="M2452.78 241.5c114.93 3.44 329.37 9.75 512.22 14.5 85.61 2.22 1464.86-3.19 1541 36 26.67 13.73 55.31 92.5 81 108 86.71 52.33 134.19-8.82 225 36 20.86 10.3 17.4 25.2 38 36 51.26 26.87 115.12 40.12 165.73 46.65"/>
            <path d="m5015.97 515.15 9.5 4.69-10.35 2.26z"/>
        </g>
        <g stroke="#000" class="edge">
            <path fill="none" d="M2350.53 255.77c-25.39 20.83-72.08 55.64-118.53 72.23-66.56 23.78-268.94-16.73-316 36-31.96 35.81-24.02 66.44 0 108 8.7 15.06 23.48 26.21 38.68 34.3"/>
            <path d="m1955.86 502.98 7.45 7.53-10.52-1.24z"/>
        </g>
        <g stroke="red" stroke-width="2" class="edge">
            <path fill="none" d="M2431.68 250.64c66.95 12.63 173.49 32.73 242.42 45.74"/>
            <path fill="red" d="m2673.09 292.63 9.18 5.29-10.48 1.58z"/>
        </g>
        <g stroke="#000" class="edge">
            <path fill="none" d="M2395.01 255.58c28.35 18.54 76.19 49.01 118.99 72.42 32.44 17.74 55.31 4.71 75 36 12.94 20.56-1.71 45.46-17.48 63.68"/>
            <path d="m2574.18 429.96-9.36 4.98 4.21-9.73z"/>
        </g>
        <g stroke="#000" class="edge">
            <path fill="none" d="M2447.41 245.33c90.16 8.01 243.37 23.6 373.59 46.67 111.27 19.71 238.95 52.28 312.66 72.07"/>
            <path d="m3134.37 360.64 8.75 5.98-10.57.78z"/>
        </g>
        <g stroke="#000" class="edge">
            <path fill="none" d="M2452.64 241.89c236.27 8.45 898.69 33.58 914.36 50.11 27.16 28.65 11.74 149.05 2.88 204.64"/>
            <path d="m3373.38 496.98-5.08 9.3-1.83-10.43z"/>
        </g>
        <g class="node" transform="translate(4 544)">
            <ellipse cx="2886" cy="-18" fill="none" stroke="#000" rx="85.13" ry="18"/>
            <text x="2886" y="-12.95" font-family="Times,serif" font-size="14" text-anchor="middle">:common:exception</text>
        </g>
        <g stroke="#000" class="edge">
            <path fill="none" d="M2363.98 256.15c-13.81 42.82-42.46 155.34 14.02 215.85 27.87 29.85 277 44.1 417.19 49.8"/>
            <path d="m2794.97 518.29 9.85 3.9-10.13 3.09z"/>
        </g>
        <g stroke="#000" class="edge">
            <path fill="none" d="M2670.4 312.87c-123.59 4.09-386.9 16.42-606.4 51.13-135.44 21.42-167.42 37.02-300 72-90.45 23.87-194.89 54.62-256.24 73.02"/>
            <path d="m1508.85 512.35-10.58-.48 8.57-6.23z"/>
        </g>
        <g stroke="#000" class="edge">
            <path fill="none" d="M2811.07 313.7c88.85 3.41 246.75 9.42 381.93 14.3 115.44 4.17 934.09-12.34 1039 36 19.71 9.08 13.51 26.45 33 36 175.41 85.91 250.05-17.16 438 36 34.04 9.63 37.36 25.05 71 36 79.85 26 174.95 39.56 242.14 46.43"/>
            <path d="m5016.4 514.94 9.6 4.47-10.29 2.5z"/>
        </g>
        <g stroke="#000" class="edge">
            <path fill="none" d="M2688.58 322.61c-10.73 2.06-21.99 3.99-32.58 5.39-121.43 16.05-445.24-27.46-550 36-49.46 29.96-77.33 95.28-89.85 132.86"/>
            <path d="m2019.57 497.65-6.37 8.47-.3-10.59z"/>
        </g>
        <g stroke="#000" class="edge">
            <path fill="none" d="M2736.98 328.17c-5.51 19.94-17.31 52.55-38.98 71.83-21.04 18.72-49.05 30.91-75.35 38.81"/>
            <path d="m2623.93 442.08-10.57-.66 8.68-6.08z"/>
        </g>
        <g stroke="red" stroke-width="2" class="edge">
            <path fill="none" d="M2801.64 319.77C2872 330.03 2991.49 347.68 3094 364c7.91 1.26 16.16 2.6 24.39 3.96"/>
            <path fill="red" d="m3117.28 364.23 9.29 5.09-10.43 1.81z"/>
        </g>
        <g stroke="#000" class="edge">
            <path fill="none" d="M2792 322.93c8.33 1.8 16.89 3.55 25 5.07 105.59 19.74 141.06-8.12 239 36 22.73 10.24 22.06 22.47 43 36 61.78 39.91 82.39 40.82 149 72 23.87 11.17 50.63 23.32 72.53 33.17"/>
            <path d="m3321.78 501.89 7.69 7.29-10.56-.9z"/>
        </g>
        <g stroke="#000" class="edge">
            <path fill="none" d="M2792.91 322.68c8.06 1.79 16.3 3.61 24.09 5.32 74.59 16.33 119.99-23.38 168 36 36.06 44.61-22.95 104.36-62.94 137.08"/>
            <path d="m2924.29 503.77-10 3.5 5.64-8.97z"/>
        </g>
        <g stroke="#000" class="edge">
            <path fill="none" d="M2461.28 460.38c-207.14 13.3-740.82 47.57-934.61 60.02"/>
            <path d="m1526.94 523.89-10.2-2.85 9.75-4.14z"/>
        </g>
        <g stroke="#000" class="edge">
            <path fill="none" d="M2631.13 458.62c89.63 3.7 234.07 9.43 358.87 13.38 783.22 24.79 1730.13 45.12 2022.01 51.16"/>
            <path d="m5011.92 519.66 9.93 3.71-10.07 3.29z"/>
        </g>
        <g stroke="#000" class="edge">
            <path fill="none" d="M2471.74 464.55c-102.22 13.32-286.62 37.36-389.41 50.76"/>
            <path d="m2083 518.75-10.37-2.17 9.46-4.77z"/>
        </g>
        <g stroke="red" stroke-width="2" class="edge">
            <path fill="none" d="M2625.49 461.87c157.77 13.47 505.79 43.18 661.52 56.47"/>
            <path fill="red" d="m3285.65 514.71 9.67 4.34-10.26 2.64z"/>
        </g>
        <g stroke="#000" class="edge">
            <path fill="none" d="M2606.28 467.43c59.64 12.1 150.2 30.48 212.9 43.2"/>
            <path d="m2819.57 507.14 9.1 5.42-10.49 1.44z"/>
        </g>
        <g stroke="#000" class="edge">
            <path fill="none" d="M2975.81 242.24C2838.23 247.8 2574.46 261.66 2352 292c-20.21 2.76-700.72 137.36-720 144-51.35 17.68-106.7 47.42-141.58 67.6"/>
            <path d="m1492.42 506.49-10.39 2.03 6.86-8.07z"/>
        </g>
        <g stroke="#000" class="edge">
            <path fill="none" d="M3164.7 241.89c322.49 9.92 1358.91 42.35 1374.3 50.11 54.78 27.63 33.01 77.06 86 108 87.46 51.06 131.76-3.54 225 36 24.55 10.41 23.97 24.43 48 36 40.6 19.55 89.33 32.56 128.99 40.79"/>
            <path d="m5027.59 509.34 9.11 5.4-10.49 1.46z"/>
        </g>
        <g stroke="#000" class="edge">
            <path fill="none" d="M2991.28 248.67C2754.74 277.72 2066.43 362.39 2064 364c-43.58 28.75-53.69 94.33-55.76 132.33"/>
            <path d="m2011.74 496.24-3.87 9.86-3.12-10.12z"/>
        </g>
        <g stroke="#000" class="edge">
            <path fill="none" d="M3085.08 256.13c21.77 24.73 62.17 70.63 87.46 99.36"/>
            <path d="m3174.89 352.86 3.98 9.81-9.24-5.19z"/>
        </g>
        <g stroke="#000" class="edge">
            <path fill="none" d="M3115.83 254.28c32.45 10.81 76.1 25.36 110.23 36.74"/>
            <path d="m3226.97 287.63 8.38 6.49-10.6.15z"/>
        </g>
        <g stroke="#000" class="edge">
            <path fill="none" d="M3049.95 255.85c-29.86 25.08-86.15 72.38-120.33 101.1"/>
            <path d="m2932.09 359.45-9.91 3.75 5.41-9.11z"/>
        </g>
        <g stroke="#000" class="edge">
            <path fill="none" d="M3165.39 241.03c86.52 4.11 204.92 16.14 234.61 50.97 50.32 59.05 6.87 158.49-19.03 206.06"/>
            <path d="m3384.13 499.59-7.94 7.02 1.83-10.44z"/>
        </g>
        <g stroke="#000" class="edge">
            <path fill="none" d="M3038.84 255.48c-41.09 20.86-116.21 56.06-184.84 72.52-48.67 11.67-414.55-.3-449 36-33.05 34.82-34.06 72.26-2 108 25.66 28.6 257.82 43.24 392.11 49.37"/>
            <path d="m2795.25 517.87 9.84 3.94-10.15 3.05z"/>
        </g>
        <g stroke="#000" class="edge">
            <path fill="none" d="M3489.67 457.65C3244.71 465.2 2524.3 487.59 1926 508c-140.96 4.81-305.64 10.85-398.19 14.28"/>
            <path d="m1527.98 525.78-10.13-3.13 9.87-3.87z"/>
        </g>
        <g stroke="#000" class="edge">
            <path fill="none" d="M3651.71 463.41c30.23 3.11 65.37 6.4 97.29 8.59 475.2 32.63 1045.78 46.81 1263.05 51.3"/>
            <path d="m5011.93 519.8 9.93 3.7-10.07 3.3z"/>
        </g>
        <g stroke="#000" class="edge">
            <path fill="none" d="M3491.92 459.53c-66.69 3.55-162.26 8.52-245.92 12.47-435.03 20.52-956.22 41.73-1155.24 49.71"/>
            <path d="m2091.18 525.19-10.14-3.1 9.86-3.89z"/>
        </g>
        <g stroke="#000" class="edge">
            <path fill="none" d="M3531.25 469.85c-33.33 11.05-78.92 26.18-113.94 37.79"/>
            <path d="m3418.84 510.82-10.59-.17 8.39-6.47z"/>
        </g>
        <g stroke="#000" class="edge">
            <path fill="none" d="M3498.97 462.86c-128.94 13.16-387.6 39.55-522.55 53.32"/>
            <path d="m2977.14 519.63-10.3-2.47 9.59-4.5z"/>
        </g>
        <g stroke="#000" class="edge">
            <path fill="none" d="M3116.01 389.76c-80.58 7.79-208.93 22.62-318.01 46.24-54 11.69-64.53 26.73-119 36-56.86 9.67-896.15 41.01-1151.1 50.35"/>
            <path d="m1528.2 525.84-10.12-3.13 9.86-3.87z"/>
        </g>
        <g stroke="#000" class="edge">
            <path fill="none" d="M3232.78 398.46c53.66 21.13 155.54 58.15 246.22 73.54 298.26 50.63 1237.1 53.62 1532.85 53.26"/>
            <path d="m5011.42 521.76 10.01 3.49-10 3.51z"/>
        </g>
        <g stroke="#000" class="edge">
            <path fill="none" d="M3144.6 397.07c-74.32 20.15-217.99 56.78-342.6 74.93-256.89 37.43-564.46 48.47-709.89 51.69"/>
            <path d="m2092.24 527.19-10.07-3.29 9.92-3.71z"/>
        </g>
        <g stroke="red" stroke-width="2" class="edge">
            <path fill="none" d="M3118.21 390.6c-99.68 9.96-279.03 28.19-432.21 45.4-17.96 2.02-37.19 4.27-55.49 6.46"/>
            <path fill="red" d="m2632.6 445.74-10.35-2.28 9.51-4.67z"/>
        </g>
        <g stroke="#000" class="edge">
            <path fill="none" d="M3212.81 399.91c19.49 18.29 51.88 48.06 81.19 72.09 12.42 10.18 26.51 20.87 38.85 29.96"/>
            <path d="m3334.66 498.95 6.01 8.73-10.14-3.08z"/>
        </g>
        <g stroke="#000" class="edge">
            <path fill="none" d="M3160.9 398.88 2934.02 504.5"/>
            <path d="m2935.8 507.54-10.55 1.05 7.59-7.4z"/>
        </g>
        <g stroke="#000" class="edge">
            <path fill="none" d="M3203.3 314.28c-196.13 8.54-712.5 32.02-883.3 49.72-211.07 21.87-264.32 28.4-472 72-60.35 12.67-73.99 21.81-134 36-66.79 15.79-143.92 31.22-196.52 41.32"/>
            <path d="m1518.28 516.73-10.48-1.56 9.16-5.32z"/>
        </g>
        <g stroke="#000" class="edge">
            <path fill="none" d="M3357.11 313.82C3581.84 322.2 4223 347.45 4265 364c23.19 9.14 19.92 26.59 43 36 192.36 78.41 271.61-37.24 466 36 24.95 9.4 23.6 25.24 48 36 61.54 27.13 136.67 40.4 193.61 46.87"/>
            <path d="m5015.68 515.35 9.56 4.56-10.32 2.4z"/>
        </g>
        <g stroke="#000" class="edge">
            <path fill="none" d="M3205 315.76c-55.07 3.47-131.68 8.24-199 12.24-140.87 8.37-501.45-12.4-634 36-25.05 9.15-24.53 23.34-48 36-41.58 22.42-58.42 13.58-100 36-23.47 12.66-24.28 23.82-48 36-32.73 16.81-71.8 29.53-104.03 38.29"/>
            <path d="m2072.91 513.66-10.57-.83 8.78-5.94z"/>
        </g>
        <g stroke="#000" class="edge">
            <path fill="none" d="M3204.23 315.09C3085.16 322.2 2859.95 338.54 2784 364c-29.49 9.88-31.53 23.49-60 36-35.47 15.59-76.86 28.18-110.89 37.17"/>
            <path d="m2614.36 440.46-10.56-.88 8.8-5.89z"/>
        </g>
        <g stroke="#000" class="edge">
            <path fill="none" d="M3259.86 327.59c-10.64 8.76-23.9 19.68-35.65 29.35"/>
            <path d="m3226.7 359.43-9.94 3.65 5.49-9.06z"/>
        </g>
        <g stroke="#000" class="edge">
            <path fill="none" d="M3298.61 327.77c9.35 9.61 19.84 22.48 25.39 36.23 18.01 44.64-6.93 62.24 8 108 3.01 9.23 7.96 18.49 13.11 26.63"/>
            <path d="m3347.85 496.42 2.69 10.25-8.49-6.33z"/>
        </g>
        <g stroke="#000" class="edge">
            <path fill="none" d="M3288.65 328.2c8.38 19.36 17.76 50.86 2.35 71.8-38.67 52.56-219.28 92.73-324.45 112.14"/>
            <path d="m2967.32 515.56-10.47-1.65 9.22-5.24z"/>
        </g>
        <g stroke="#000" class="edge">
            <path fill="none" d="M2835.75 391.19c-44.08 7.39-102.61 20.9-149.75 44.81-22.23 11.27-19.77 26.97-43 36-26.09 10.14-860.91 41.15-1115.21 50.38"/>
            <path d="m1528.12 525.87-10.12-3.13 9.86-3.86z"/>
        </g>
        <g stroke="#000" class="edge">
            <path fill="none" d="M2950.38 395.85c80.94 20.4 247.19 59.61 390.62 76.15 328.56 37.9 1358.75 49.59 1670.64 52.3"/>
            <path d="m5011.39 520.8 9.97 3.59-10.03 3.41z"/>
        </g>
        <g stroke="#000" class="edge">
            <path fill="none" d="M2880.33 399.7c-27.46 21.11-78.32 56.57-128.33 72.3-120.84 38.01-491.55 48.88-659.61 51.89"/>
            <path d="m2092.46 527.39-10.06-3.33 9.94-3.67z"/>
        </g>
        <g stroke="#000" class="edge">
            <path fill="none" d="M2844.59 394.09c-61.29 12.05-159.41 31.35-226.55 44.55"/>
            <path d="m2619.1 442-10.49-1.51 9.14-5.36z"/>
        </g>
        <g stroke="#000" class="edge">
            <path fill="none" d="M2897.93 400.48c-2.46 20.23-2.85 53.12 16.07 71.52 26.04 25.32 248.21 41.64 370.71 48.81"/>
            <path d="m3284.59 517.3 9.78 4.07-10.19 2.91z"/>
        </g>
        <g stroke="#000" class="edge">
            <path fill="none" d="M2872.35 399.04c-13.05 9-27.17 21.54-34.35 36.96-6.75 14.51-6.05 21.19 0 36 4.43 10.83 12.25 20.64 20.5 28.8"/>
            <path d="m2860.66 498.02 5.01 9.33-9.74-4.16z"/>
        </g>
        <g stroke="#000" class="edge">
            <path fill="none" d="M2633.8 170.16c-194.4 9.53-668 47.21-1031.8 193.84-58.75 23.68-84.55 21.66-123 72-13.23 17.32-19.17 41.39-21.84 60.14"/>
            <path d="m1460.64 496.53-4.63 9.53-2.33-10.34z"/>
        </g>
        <g stroke="#000" class="edge">
            <path fill="none" d="M2813.79 168.52C3199.44 175.07 4684.2 201.46 4729 220c42.99 17.79 49.14 34.01 76 72 30.32 42.89 6.36 75.98 48 108 80.28 61.74 149.74-31.76 225 36 16.74 15.08 22.33 40.49 23.97 60.3"/>
            <path d="m5105.46 496.11-3 10.16-3.99-9.82z"/>
        </g>
        <g stroke="#000" class="edge">
            <path fill="none" d="M2632.01 167.72c-91.68 3.04-236.19 14.24-355.01 52.28-95.09 30.45-103.05 74.2-197 108-80.05 28.8-133.8-29.57-188 36-10.17 12.3-12.69 84.41 3 108 11.59 17.43 30.53 29.25 49.62 37.22"/>
            <path d="m1945.68 505.88 8.09 6.84-10.59-.3z"/>
        </g>
        <g stroke="red" stroke-width="2" class="edge">
            <path fill="none" d="M2660.3 179.43c-61.4 12.18-154.82 30.7-219.01 43.43"/>
            <path fill="red" d="m2443.52 225.99-10.49-1.49 9.13-5.38z"/>
        </g>
        <g stroke="#000" class="edge">
            <path fill="none" d="m2725.21 184.41 12.19 96.17"/>
            <path d="m2740.86 280.03-2.22 10.36-4.73-9.48z"/>
        </g>
        <g stroke="#000" class="edge">
            <path fill="none" d="M2711.27 184.24c-15.05 23.26-40.41 66.53-50.27 107.76-11.17 46.68 25.07 67.69-1 108-10.68 16.51-27.93 27.95-45.87 35.86"/>
            <path d="m2615.53 439.07-10.58.48 7.97-6.98z"/>
        </g>
        <g stroke="#000" class="edge">
            <path fill="none" d="M2812.62 169.75c136.76 5.14 390.61 18.69 475.38 50.25 85.71 31.91 121.35 56.21 147 144 13.69 46.86 3.98 65.48-20 108-5.87 10.41-14.22 20.36-22.42 28.77"/>
            <path d="m3395.21 503.08-9.6 4.48 4.72-9.49z"/>
        </g>
        <g stroke="#000" class="edge">
            <path fill="none" d="M2812.58 169.71C2974.47 176.82 3304.8 202.25 3367 292c101.99 147.18-225.56 205.16-389.42 224.57"/>
            <path d="m2978.39 519.99-10.34-2.32 9.54-4.63z"/>
        </g>
        <g stroke="#000" class="edge">
            <path fill="none" d="M2428.23 392.37c-189.85 25.87-719.54 98.06-906.69 123.56"/>
            <path d="m1522.12 519.39-10.38-2.12 9.43-4.82z"/>
        </g>
        <g stroke="#000" class="edge">
            <path fill="none" d="M2559.73 394.2c113.52 19.73 360.82 60.26 571.27 77.8 372.82 31.08 1545.89 47.72 1880.87 51.93"/>
            <path d="m5011.49 520.42 9.95 3.63-10.04 3.37z"/>
        </g>
        <g stroke="#000" class="edge">
            <path fill="none" d="M2459.33 398.48C2411.67 417.65 2326.78 450.4 2252 472c-58.34 16.85-125.9 31.13-175.11 40.61"/>
            <path d="m2077.7 516.01-10.48-1.56 9.17-5.31z"/>
        </g>
        <g stroke="#000" class="edge">
            <path fill="none" d="M2508.87 400.3c5.4 7.89 11.92 17.4 17.93 26.15"/>
            <path d="m2529.65 424.42 2.77 10.23-8.55-6.27z"/>
        </g>
        <g stroke="#000" class="edge">
            <path fill="none" d="M2476.09 399.64c-21.61 19.15-49.53 50.71-29.09 72.36 7.16 7.58 614.44 38.11 837.23 49.06"/>
            <path d="m3284.17 517.55 9.81 3.99-10.16 3.01z"/>
        </g>
        <g stroke="#000" class="edge">
            <path fill="none" d="M2457.36 398.05c-16.51 8.48-33.99 20.86-43.36 37.95-7.69 14.03-10.67 24.08 0 36 24.95 27.88 250.15 42.76 381.66 49.13"/>
            <path d="m2795.58 517.63 9.82 3.97-10.16 3.02z"/>
        </g>
        <g stroke="#000" class="edge">
            <path fill="none" d="M6920.32 327.93c8.61 9.66 18.14 22.52 22.68 36.07 15.25 45.51 33.45 73.57 0 108-30.82 31.72-1384.58 48.21-1750.59 52.09"/>
            <path d="m5192.65 527.59-10.04-3.39 9.96-3.61z"/>
        </g>
        <g stroke="#000" class="edge">
            <path fill="none" d="M6947.53 327.24c28.02 10.21 64.35 23.45 93.93 34.24"/>
            <path d="m7042.41 358.1 8.2 6.72-10.59-.14z"/>
        </g>
        <g class="node" transform="translate(4 544)">
            <ellipse cx="6127" cy="-162" fill="none" stroke="#000" rx="80.01" ry="18"/>
            <text x="6127" y="-156.95" font-family="Times,serif" font-size="14" text-anchor="middle">:library:koin-room</text>
        </g>
        <g stroke="#000" class="edge">
            <path fill="none" d="M6792.42 318.36c-128.6 8.96-347.17 25.43-534.42 45.64-16.08 1.74-33.28 3.86-49.65 6.01"/>
            <path d="m6209.04 373.44-10.37-2.15 9.45-4.78z"/>
        </g>
        <g class="node" transform="translate(4 544)">
            <ellipse cx="5968" cy="-162" fill="none" stroke="#000" rx="60.56" ry="18"/>
            <text x="5968" y="-156.95" font-family="Times,serif" font-size="14" text-anchor="middle">:library:room</text>
        </g>
        <g stroke="#000" class="edge">
            <path fill="none" d="M6793.89 318.75c-42.97 2.99-92.74 6.37-137.89 9.25-272.8 17.39-343.65-4.42-614 36-5.01.75-10.18 1.68-15.34 2.73"/>
            <path d="m6027.44 370.14-10.51-1.29 9.03-5.55z"/>
        </g>
        <g stroke="#000" class="edge">
            <path fill="none" d="M6324.98 322.97c15.69 1.81 31.8 3.57 47.02 5.03 55.44 5.34 462.06-4.78 500 36 14.21 15.27 13.18 89.81-6 108-30.65 29.06-1317.77 47.39-1673.65 51.9"/>
            <path d="m5192.39 527.4-10.04-3.37 9.95-3.63z"/>
        </g>
        <g stroke="#000" class="edge">
            <path fill="none" d="M6138.96 323.31c-16.28 1.83-33.1 3.5-48.96 4.69-533.85 40.08-668.95 18.11-1204 36-116.93 3.91-250.55 8.91-343.54 12.47"/>
            <path d="m4542.68 379.96-10.12-3.11 9.85-3.88z"/>
        </g>
        <g stroke="#000" class="edge">
            <path fill="none" d="M6206.54 328.12c-12.88 9.01-28.83 20.19-42.76 29.94"/>
            <path d="m6165.96 360.8-10.2 2.87 6.19-8.61z"/>
        </g>
        <g stroke="#000" class="edge">
            <path fill="none" d="M6173.2 326.62c-43.8 11.84-103.57 27.99-146.56 39.61"/>
            <path d="m6027.56 369.61-10.57-.77 8.74-5.99z"/>
        </g>
        <g stroke="#000" class="edge">
            <path fill="none" d="M6309.37 394.62c-18.84 1.83-38.14 3.69-56.37 5.38-171.9 15.97-371.24 33.05-493.74 43.37"/>
            <path d="m5759.79 446.84-10.26-2.65 9.67-4.32z"/>
        </g>
        <g class="node" transform="translate(4 544)">
            <ellipse cx="5949" cy="-90" fill="none" stroke="#000" rx="93.32" ry="18"/>
            <text x="5949" y="-84.95" font-family="Times,serif" font-size="14" text-anchor="middle">:library:koin-datastore</text>
        </g>
        <g stroke="#000" class="edge">
            <path fill="none" d="m6331.18 396.91-294.41 43.67"/>
            <path d="m6037.32 444.03-10.4-1.99 9.37-4.93z"/>
        </g>
        <g stroke="#000" class="edge">
            <path fill="none" d="M5933.36 327.88c-22.09 18.53-49.87 48.74-31.36 72.12 43.37 54.76 109.63-18.76 153 36 9.93 12.54 11 24.38 0 36-29.38 31.06-630.82 46.49-862.82 51.3"/>
            <path d="m5192.34 526.8-10.07-3.3 9.92-3.7z"/>
        </g>
        <g stroke="#000" class="edge">
            <path fill="none" d="M5836.34 315.31c-101.91 3.61-252.22 8.78-383.34 12.69-617.27 18.43-772.51.03-1389 36-29.3 1.71-61.13 4.32-90.08 6.99"/>
            <path d="m3974.35 374.46-10.28-2.55 9.63-4.42z"/>
        </g>
        <g stroke="#000" class="edge">
            <path fill="none" d="M5997.03 327.41c25.6 10.24 58.67 23.47 85.55 34.22"/>
            <path d="m6083.53 358.24 7.99 6.97-10.59-.47z"/>
        </g>
        <g stroke="#000" class="edge">
            <path fill="none" d="M5959.96 328.3c1.68 7.38 3.69 16.18 5.58 24.45"/>
            <path d="m5968.94 351.89-1.19 10.53-5.64-8.97z"/>
        </g>
        <g stroke="#000" class="edge">
            <path fill="none" d="M5210.11 395.59C5104.36 415.54 4888.05 454 4703 472c-473.43 46.05-1044.81 52.35-1255.13 53.02"/>
            <path d="m3448.16 528.52-10.01-3.47 9.99-3.53z"/>
        </g>
        <g stroke="#000" class="edge">
            <path fill="none" d="M5340.54 395.43c61.18 11.61 152.79 28.99 219.34 41.61"/>
            <path d="m5560.51 433.6 9.17 5.3-10.48 1.58z"/>
        </g>
        <g stroke="#000" class="edge">
            <path fill="none" d="M5188.43 390.05c-40.25 3.2-88.77 6.93-132.43 9.95-262.52 18.18-331.97-10.41-591 36-54.39 9.75-64.48 26.99-119 36-232.75 38.48-825.26 26.93-1061 36-103.18 3.97-221.48 9.14-301.51 12.74"/>
            <path d="m2984.11 524.21-10.14-3.05 9.83-3.94z"/>
        </g>
        <g class="node" transform="translate(4 544)">
            <ellipse cx="5389" cy="-90" fill="none" stroke="#000" rx="72.85" ry="18"/>
            <text x="5389" y="-84.95" font-family="Times,serif" font-size="14" text-anchor="middle">:common:model</text>
        </g>
        <g stroke="#000" class="edge">
            <path fill="none" d="M5302.96 399.59c15.96 9.46 36.14 21.44 53.35 31.65"/>
            <path d="m5357.93 428.13 6.82 8.11-10.39-2.09z"/>
        </g>
        <g stroke="#000" class="edge">
            <path fill="none" d="M3784.59 466.23c-13.53 1.93-27.47 3.92-40.59 5.77-106.53 15.06-229.94 32.27-306.25 42.89"/>
            <path d="m3438.27 518.35-10.39-2.09 9.43-4.84z"/>
        </g>
        <g stroke="#000" class="edge">
            <path fill="none" d="M5463.79 393.96c-27.51 2.24-56.65 4.41-83.79 6.04-109.43 6.55-883.23-2.17-986 36-24.01 8.92-20.93 27.25-45 36-6.77 2.46-1840.18 42.19-2257.26 51.19"/>
            <path d="m2091.99 526.69-10.08-3.28 9.93-3.72z"/>
        </g>
        <g stroke="#000" class="edge">
            <path fill="none" d="M5463.79 393.98c-27.51 2.25-56.65 4.41-83.79 6.02-454.6 26.92-569.62 5.72-1024 36-21.54 1.44-44.55 3.4-66.53 5.48"/>
            <path d="m4289.89 444.95-10.29-2.52 9.61-4.45z"/>
        </g>
        <g stroke="#000" class="edge">
            <path fill="none" d="M5662.71 397.93c63.39 12.03 151.96 28.83 214.55 40.7"/>
            <path d="m5877.59 435.13 9.17 5.3-10.48 1.58z"/>
        </g>
        <g stroke="#000" class="edge">
            <path fill="none" d="M6552.95 327.52c15.04 8.54 30.62 20.56 39.05 36.48 7.49 14.14 10.51 23.93 0 36-92.15 105.81-1091.4 122.05-1399.85 124.55"/>
            <path d="m5192.57 528.04-10.02-3.42 9.97-3.58z"/>
        </g>
        <g stroke="#000" class="edge">
            <path fill="none" d="M6426.18 323.92c-62.1 10.13-139.26 24.98-168.18 40.08-20.62 10.77-16.53 27.04-38 36-34.92 14.57-1144.74 41.6-1516.21 50.25"/>
            <path d="m4704.07 453.75-10.08-3.27 9.92-3.73z"/>
        </g>
        <g stroke="#000" class="edge">
            <path fill="none" d="M6436.95 325.08c-68.35 12.49-167.42 30.6-234.14 42.8"/>
            <path d="m6203.52 371.3-10.47-1.64 9.21-5.24z"/>
        </g>
        <g stroke="#000" class="edge">
            <path fill="none" d="M6417.39 322.7c-15.19 1.8-30.71 3.62-45.39 5.3-146.58 16.77-184.68 10.54-330 36-4.84.85-9.85 1.84-14.85 2.9"/>
            <path d="m6028.25 370.24-10.52-1.23 9-5.6z"/>
        </g>
        <g stroke="#000" class="edge">
            <path fill="none" d="M974.18 184.3c2.69 7.55 5.92 16.58 8.93 25.02"/>
            <path d="m986.31 207.88.07 10.59-6.66-8.24z"/>
        </g>
        <g stroke="#000" class="edge">
            <path fill="none" d="M887.97 169.93C756.29 175.59 505.77 190.17 479 220c-86.94 96.87 139.61 137.22 280.1 152.57"/>
            <path d="m759.24 369.06 9.57 4.54-10.31 2.42z"/>
        </g>
        <g stroke="#000" class="edge">
            <path fill="none" d="M1016.9 180.75c39.87 11.2 96.38 27.09 139.19 39.13"/>
            <path d="m1156.8 216.44 8.68 6.08-10.58.66z"/>
        </g>
        <g stroke="#000" class="edge">
            <path fill="none" d="M887.5 169.53C750.58 174.66 484.32 188.6 456 220c-66.11 73.3-49.17 71.85 124 180 23.52 14.69 91.03 30.74 141.57 41.29"/>
            <path d="m722.15 437.83 9.09 5.45-10.5 1.41z"/>
        </g>
        <g stroke="#000" class="edge">
            <path fill="none" d="M887.65 169.48C720.03 175.2 344.41 191.11 294 220c-41.83 23.97-62 40.79-62 89v74c0 116.37 884.94 137.51 1149.3 141.23"/>
            <path d="m1381.2 520.73 9.96 3.63-10.05 3.37z"/>
        </g>
        <g stroke="#000" class="edge">
            <path fill="none" d="M1040.42 174.66c124.21 13.13 377.04 39.87 507.55 53.67"/>
            <path d="m1547.98 224.81 9.58 4.53-10.31 2.43z"/>
        </g>
        <g stroke="#000" class="edge">
            <path fill="none" d="M1040.98 174.28c39.11 3.59 88.14 7.6 132.02 9.72 72.03 3.48 2530.19 6.5 2596 36 19.81 8.88 13.34 26.8 33 36 154.94 72.53 611.9-31.72 769 36 31.75 13.69 81.18 92.33 112 108 82.45 41.94 122.36-5.57 205 36 20.78 10.46 17.87 24.33 38 36 32 18.55 71.09 31.17 104.31 39.42"/>
            <path d="m5030.94 507.97 8.91 5.73-10.54 1.08z"/>
        </g>
        <g stroke="#000" class="edge">
            <path fill="none" d="M886.26 167.5C763.4 169.6 538.25 179.12 470 220c-45.22 27.08-72.8 60.97-49 108 65.35 129.1 150.13 115.52 292 144 29.77 5.98 930.26 39.56 1211.75 49.94"/>
            <path d="m1924.72 518.44 9.87 3.87-10.13 3.13z"/>
        </g>
        <g stroke="#000" class="edge">
            <path fill="none" d="M906.04 178.09c-68.51 12.27-178.93 32.04-252.73 45.25"/>
            <path d="m654.2 226.73-10.46-1.68 9.23-5.21z"/>
        </g>
        <g stroke="#000" class="edge">
            <path fill="none" d="M1041.96 173.82c38.96 3.43 87.56 7.42 131.04 10.18 410.34 26.09 900.63 43.49 1102.78 50.06"/>
            <path d="m2275.83 230.56 9.88 3.82-10.11 3.18z"/>
        </g>
        <g stroke="#000" class="edge">
            <path fill="none" d="M1008.83 182c22.79 9.29 51.14 22.41 74.17 38 19.26 13.04 16.53 27.04 38 36 35.81 14.95 1213.21 43.5 1537.84 51.1"/>
            <path d="m2658.6 303.59 9.91 3.74-10.08 3.26z"/>
        </g>
        <g stroke="#000" class="edge">
            <path fill="none" d="M1563.24 178.84c-9.34 1.94-19.06 3.77-28.24 5.16-182.6 27.72-230.41 15.84-414 36-16.11 1.77-33.34 3.9-49.76 6.04"/>
            <path d="m1071.9 229.48-10.37-2.16 9.45-4.78z"/>
        </g>
        <g stroke="#000" class="edge">
            <path fill="none" d="M1561.73 178.28c-54.53 12.2-137.08 31.3-167.73 41.72-37.3 12.69-42.96 25.77-81 36-144.18 38.79-195.17-18.93-334 36-36.23 14.34-70.99 42.98-93.29 63.91"/>
            <path d="m888.25 358.33-9.64 4.41 4.78-9.46z"/>
        </g>
        <g stroke="#000" class="edge">
            <path fill="none" d="M1562.31 178.43c-9.08 1.94-18.46 3.87-27.31 5.57-96.01 18.42-120.57 19.89-217 36-7.84 1.31-16.02 2.68-24.18 4.05"/>
            <path d="m1294.67 227.46-10.44-1.8 9.28-5.11z"/>
        </g>
        <g stroke="#000" class="edge">
            <path fill="none" d="M1581.62 182.47c-84.89 41.24-327 154.98-539.62 217.53-65.88 19.38-143.19 34.16-196.28 43.13"/>
            <path d="m846.37 446.57-10.44-1.81 9.29-5.1z"/>
        </g>
        <g stroke="#000" class="edge">
            <path fill="none" d="M1563.69 178.98c-9.47 1.95-19.35 3.74-28.69 5.02-139.38 19.04-502.85-19.77-632 36-117.38 50.69-159.26 91.9-190 216-3.85 15.53-10.9 24.29 0 36 44.89 48.21 489.5 53.24 668.2 53.29"/>
            <path d="m1381.07 521.79 10 3.5-10 3.5z"/>
        </g>
        <g stroke="#000" class="edge">
            <path fill="none" d="M1617.2 184.3c1.79 7.38 3.93 16.18 5.94 24.45"/>
            <path d="m1626.53 207.88-1.04 10.54-5.76-8.89z"/>
        </g>
        <g stroke="#000" class="edge">
            <path fill="none" d="M1673.22 175.01c28.4 3.42 62.77 7.07 93.78 8.99 145.96 9.03 2489.55 2.94 2632 36 36.41 8.45 40.2 25.26 76 36 109.2 32.78 158.72-26.63 254 36 47.01 30.9 19.48 76.37 66 108 77.22 52.51 123.55-5.9 207 36 20.79 10.44 20.71 20.44 38 36 10.77 9.7 22.84 20.11 33.45 29.12"/>
            <path d="m5075.42 498.2 5.38 9.13-9.9-3.78z"/>
        </g>
        <g stroke="#000" class="edge">
            <path fill="none" d="M1662.17 179c21.34 7.91 44.28 20.7 56.83 41 8.41 13.61 6.39 21.33 0 36-28.11 64.59-87.89 43.41-116 108-19.52 44.84-16.02 76.05 21 108 43.61 37.65 200.66 48.64 299.9 51.8"/>
            <path d="m1924 520.3 9.89 3.79-10.1 3.21z"/>
        </g>
        <g stroke="#000" class="edge">
            <path fill="none" d="M1564.12 178.91c-9.61 1.98-19.64 3.81-29.12 5.09-293.32 39.64-369.48 19.43-665 36-65.82 3.69-139.94 7.99-197.17 11.35"/>
            <path d="m673.32 234.82-10.19-2.91 9.78-4.07z"/>
        </g>
        <g stroke="#000" class="edge">
            <path fill="none" d="M1674.79 174.14c28.12 3.17 61.83 6.85 92.21 9.86 182.43 18.08 396.22 36.13 513.93 45.8"/>
            <path d="m2281.18 226.3 9.68 4.31-10.25 2.67z"/>
        </g>
        <g stroke="#000" class="edge">
            <path fill="none" d="M1672.47 175.37c116.12 16.25 381.19 52.91 604.53 80.63 136.58 16.95 296.03 34.72 387.98 44.78"/>
            <path d="m2665.33 297.29 9.56 4.57-10.32 2.39z"/>
        </g>
        <g stroke="#000" class="edge">
            <path fill="none" d="M857.3 112.33c.13 19.49 3.19 51.09 19.7 71.67 13.21 16.46 32.67 28.02 51.9 36.03"/>
            <path d="m930.03 216.72 8.07 6.86-10.59-.33z"/>
        </g>
        <g stroke="#000" class="edge">
            <path fill="none" d="M769.25 95.65C668.59 98.3 512.96 108.85 471 148c-35.43 33.06-19.97 59.79-15 108 3.35 32.51-8.91 49.71 15 72 39.23 36.56 176.95 48.21 277.65 51.76"/>
            <path d="m748.72 376.26 9.88 3.82-10.11 3.17z"/>
        </g>
        <g stroke="#000" class="edge">
            <path fill="none" d="M920.46 107.15c40.36 8.9 93.56 22.6 138.54 40.85 44.75 18.16 92.6 46.51 123.77 66.32"/>
            <path d="m1184.48 211.26 6.53 8.35-10.31-2.46z"/>
        </g>
        <g stroke="#000" class="edge">
            <path fill="none" d="M768.97 94.52C661.89 95.91 490.87 105.06 446 148c-58.35 55.84-61.48 107.94-25 180 24.41 48.22 48.57 50.15 98 72 34.99 15.47 133.34 32.9 199.35 43.42"/>
            <path d="m718.63 439.92 9.34 5.01-10.43 1.9z"/>
        </g>
        <g stroke="#000" class="edge">
            <path fill="none" d="M771.92 98.73C586.88 107.1 165.95 128.21 142 148c-31.58 26.1-24 48.03-24 89v146c0 94.86 101.82 66.61 194 89 203.99 49.54 850.18 53.4 1069.41 53.25"/>
            <path d="m1381.25 521.75 10 3.49-9.99 3.51z"/>
        </g>
        <g stroke="#000" class="edge">
            <path fill="none" d="M945.55 97.38c208.73 6.1 720.23 23.74 745.45 50.62 18.9 20.14-4.2 46.6-27.19 65.42"/>
            <path d="m1665.99 216.16-10.04 3.39 5.73-8.91z"/>
        </g>
        <g stroke="#000" class="edge">
            <path fill="none" d="M946.86 95.49C1395.64 98.1 3416.19 111.72 4043 148c323.27 18.71 439.55-80.86 725 72 36.47 19.53 35.87 37.7 59 72 30.58 45.35 14.42 76.31 59 108 79.32 56.39 153.09-38.26 216 36 13.89 16.4 12.69 41.26 8.69 60.54"/>
            <path d="m5114.09 497.36-5.78 8.87-1.01-10.54z"/>
        </g>
        <g stroke="#000" class="edge">
            <path fill="none" d="M769.24 94.11C654.63 94.84 463.72 103.05 412 148c-85.02 73.89-42 162.96 27 252 32.02 41.32 43.85 54.21 93 72 2.06.75 1082.41 39.06 1393.25 50.07"/>
            <path d="m1925.04 518.56 9.87 3.85-10.12 3.15z"/>
        </g>
        <g stroke="#000" class="edge">
            <path fill="none" d="M826.04 111.15c-50.92 25.73-150.46 76.04-207.06 104.64"/>
            <path d="m620.79 218.8-10.51 1.38 7.35-7.63z"/>
        </g>
        <g stroke="#000" class="edge">
            <path fill="none" d="M946.89 94.89C1415.32 94.89 3576 102.18 3576 237v187.31"/>
            <path d="m3579.5 424-3.5 10-3.5-10z"/>
        </g>
        <g stroke="#000" class="edge">
            <path fill="none" d="M944.52 98.25c307.85 11.55 1349.16 50.64 1678.05 62.98"/>
            <path d="m2622.6 157.73 9.86 3.87-10.13 3.12z"/>
        </g>
        <g stroke="#000" class="edge">
            <path fill="none" d="M776.82 101.67C640.05 115.79 387.17 156.04 479 256c32.93 35.85 325.21 47.48 497.83 51.23"/>
            <path d="m976.84 303.73 9.92 3.71-10.07 3.29z"/>
        </g>
        <g stroke="#000" class="edge">
            <path fill="none" d="M1785.97 174.89c-29.37 3.1-63.79 6.53-94.97 9.11-252.97 20.93-317.37 11.28-570 36-16.31 1.6-33.75 3.67-50.34 5.81"/>
            <path d="m1071.21 229.27-10.38-2.16 9.46-4.78z"/>
        </g>
        <g stroke="#000" class="edge">
            <path fill="none" d="M1845.24 184.06c-15.37 20.79-44.35 55.21-78.24 71.94-4.58 2.26-588.57 81.84-816.41 112.83"/>
            <path d="m951.24 372.27-10.38-2.12 9.43-4.82z"/>
        </g>
        <g stroke="#000" class="edge">
            <path fill="none" d="M1785.76 174.79c-118.21 12.93-354.47 38.77-482.13 52.73"/>
            <path d="m1304.2 230.98-10.32-2.39 9.56-4.57z"/>
        </g>
        <g stroke="#000" class="edge">
            <path fill="none" d="M1851.51 184.38c-7.41 20.45-22.61 53.88-47.51 71.62-2.01 1.43-692.58 143.55-695 144-91.29 16.85-197.46 33.52-263.45 43.54"/>
            <path d="m846.42 446.95-10.41-1.97 9.36-4.95z"/>
        </g>
        <g stroke="#000" class="edge">
            <path fill="none" d="M1857.15 184.18c-.79 19.94-5.17 52.55-24.15 71.82-40.87 41.49-71.06 16.66-126 36-77.79 27.38-296.39 75.3-342 144-8.85 13.33-7.94 22.11 0 36 8.86 15.5 24.21 26.91 39.75 35.09"/>
            <path d="m1406.09 503.85 7.48 7.5-10.53-1.2z"/>
        </g>
        <g stroke="#000" class="edge">
            <path fill="none" d="m1811.06 181.17-124.19 38.29"/>
            <path d="m1687.9 222.81-10.59-.4 8.53-6.29z"/>
        </g>
        <g stroke="#000" class="edge">
            <path fill="none" d="M1936.95 168.85c139.33 3.2 435.7 9.94 686.05 15.15 411.54 8.57 1443.87-17.6 1852 36 132.53 17.41 186.69-10.32 292 72 42.76 33.43 12.99 76.24 57 108 78.92 56.96 133.74-16.01 216 36 23.07 14.59 39.89 41.19 50.15 61.52"/>
            <path d="m5093.24 495.87 1.14 10.54-7.46-7.52z"/>
        </g>
        <g stroke="#000" class="edge">
            <path fill="none" d="M1876.84 183.77c19.35 18.44 43.64 48.57 27.16 72.23-.62.89-291.38 107.11-292 108-9.14 13.13-5.26 20.89 0 36 13.41 38.55 21.75 51.43 57 72 42.66 24.89 172.26 39.77 258.3 47.17"/>
            <path d="m1927.43 515.66 9.67 4.33-10.26 2.65z"/>
        </g>
        <g stroke="#000" class="edge">
            <path fill="none" d="M1786.81 175.07c-29.55 3.17-64.32 6.6-95.81 8.93-349.63 25.87-437.83 18.87-788 36-77.03 3.77-164.28 8.33-229.12 11.78"/>
            <path d="m674.13 235.28-10.17-2.97 9.8-4.02z"/>
        </g>
        <g stroke="#000" class="edge">
            <path fill="none" d="M1924.33 176.19c93.97 12.82 264.2 36.05 364.88 49.79"/>
            <path d="m2289.6 222.5 9.44 4.82-10.39 2.11z"/>
        </g>
        <g stroke="#000" class="edge">
            <path fill="none" d="M1883.54 183.29c16.82 10.39 39 24.2 58.46 36.71 73.1 46.99 84.04 71.69 163 108 122.12 56.15 275.1 92.7 364.75 111.01"/>
            <path d="m2470.3 435.55 9.11 5.41-10.49 1.46z"/>
        </g>
        <g stroke="#000" class="edge">
            <path fill="none" d="M1936.84 169.08C2203.49 176.2 3053.3 200.19 3175 220c113.28 18.44 149.96 12.33 248 72 58.26 35.46 109.05 98.77 134.88 134.53"/>
            <path d="m3560.68 424.42 2.94 10.18-8.65-6.13z"/>
        </g>
        <g stroke="#000" class="edge">
            <path fill="none" d="M1909.77 179.88c32.26 8.95 73.8 22.45 108.23 40.12 72.44 37.18 72.83 76.7 148 108 76.34 31.79 169.91 44.62 238.06 49.74"/>
            <path d="m2403.96 374.22 9.73 4.2-10.22 2.79z"/>
        </g>
        <g stroke="#000" class="edge">
            <path fill="none" d="M1838.06 183.65c-25.21 21.04-72.07 56.44-119.06 72.35-189.63 64.19-249.63 17.86-449 36-20.08 1.83-41.5 3.91-62.08 5.97"/>
            <path d="m1208.4 301.44-10.3-2.48 9.59-4.48z"/>
        </g>
        <g stroke="#000" class="edge">
            <path fill="none" d="M1392.64 178.58c-9.86 1.9-20.04 3.78-29.64 5.42-54.35 9.26-199.55 29.57-291.06 42.19"/>
            <path d="m1072.67 229.62-10.39-2.1 9.43-4.83z"/>
        </g>
        <g stroke="#000" class="edge">
            <path fill="none" d="M1393.65 178.93c-10.16 1.91-20.7 3.7-30.65 5.07-50.79 6.98-419.81 4.17-460 36-39.74 31.48-44.73 95.47-43.94 132.59"/>
            <path d="m862.54 351.99-3.12 10.13-3.88-9.86z"/>
        </g>
        <g stroke="#000" class="edge">
            <path fill="none" d="M1403.16 180.83c-36.57 11.03-88.05 26.57-127.61 38.5"/>
            <path d="m1276.77 222.62-10.59-.46 8.57-6.24z"/>
        </g>
        <g stroke="#000" class="edge">
            <path fill="none" d="M1394.11 178.89c-10.3 1.93-21 3.75-31.11 5.11-108.42 14.64-393.59-13.8-491 36-74.43 38.05-92.38 65.46-121 144-5.48 15.03-4.18 20.56 0 36 2.51 9.26 7.09 18.56 11.97 26.73"/>
            <path d="m765.89 424.8 2.47 10.3-8.36-6.51z"/>
        </g>
        <g stroke="#000" class="edge">
            <path fill="none" d="M1394.12 178.95c-10.3 1.93-21.01 3.73-31.12 5.05-121.89 15.95-441.25-17.35-552 36-113.72 54.78-217.16 159.75-131 252 47.23 50.57 516.79 54.12 701.2 53.54"/>
            <path d="m1381.14 522.04 10.01 3.46-9.98 3.54z"/>
        </g>
        <g stroke="#000" class="edge">
            <path fill="none" d="M1487.39 181.85c27.17 10.5 63.85 24.69 93.2 36.04"/>
            <path d="m1581.57 214.52 8.06 6.87-10.59-.34z"/>
        </g>
        <g stroke="#000" class="edge">
            <path fill="none" d="M1502.91 179.22c10.58 1.95 21.65 3.69 32.09 4.78 78.22 8.16 2759.22 3.88 2831 36 19.81 8.87 13.71 26.06 33 36 116.24 59.89 180.49-32.3 292 36 49.41 30.26 24.45 76.38 73 108 75.68 49.29 119.4-4.76 200 36 20.76 10.5 19.1 22.43 38 36 17.08 12.26 37.35 23.54 55.16 32.5"/>
            <path d="m5058.54 501.28 7.42 7.56-10.51-1.28z"/>
        </g>
        <g stroke="#000" class="edge">
            <path fill="none" d="M1446.33 184.49c-7.12 54.05-20.2 218.93 72.67 287.51 62.37 46.06 282.28 53.44 404.87 53.84"/>
            <path d="m1923.55 522.34 9.99 3.52-10 3.48z"/>
        </g>
        <g stroke="#000" class="edge">
            <path fill="none" d="M1394.13 179.03c-10.3 1.92-21.01 3.69-31.13 4.97-284.86 35.93-358.99 10.8-645 36-18.31 1.61-37.9 3.73-56.49 5.91"/>
            <path d="m661.94 229.39-10.35-2.29 9.51-4.66z"/>
        </g>
        <g stroke="#000" class="edge">
            <path fill="none" d="M1464.21 183.75c21.27 23.07 59.27 62.83 76.79 72.25 130.3 70.07 504.53 117.03 650 144 91.64 16.99 197.4 32.26 269.29 42"/>
            <path d="m2460.59 438.51 9.44 4.8-10.38 2.14z"/>
        </g>
        <g stroke="#000" class="edge">
            <path fill="none" d="M1503.39 179.12c10.44 1.94 21.33 3.69 31.61 4.88 70.78 8.16 1093.59 39.65 1429.2 49.81"/>
            <path d="m2963.96 230.31 9.89 3.8-10.1 3.19z"/>
        </g>
        <g stroke="#000" class="edge">
            <path fill="none" d="M1214.98 180.5c-45.47 11.57-111.06 28.26-159.15 40.51"/>
            <path d="m1056.95 224.33-10.56-.92 8.83-5.86z"/>
        </g>
        <g stroke="#000" class="edge">
            <path fill="none" d="M1189.68 173.83C1067.38 184.88 843.72 206.76 832 220c-33.08 37.35-7.11 99.24 12.45 134.42"/>
            <path d="m847.26 352.28 1.97 10.41-8.03-6.9z"/>
        </g>
        <g stroke="#000" class="edge">
            <path fill="none" d="M1255.65 183.95c-5.8 7.96-12.85 17.64-19.34 26.54"/>
            <path d="m1239.2 212.48-8.72 6.02 3.06-10.14z"/>
        </g>
        <g stroke="#000" class="edge">
            <path fill="none" d="M1189.87 173.86C1038.99 187.19 721.93 215.67 718 220c-53.79 59.22-34.04 107.61 0 180 5.79 12.32 16.01 22.76 26.6 31.03"/>
            <path d="m746.61 428.16 6.07 8.68-10.16-3z"/>
        </g>
        <g stroke="#000" class="edge">
            <path fill="none" d="M1189.62 173.73c-39.21 3.28-87.41 7.17-130.62 10.27-64.4 4.62-535.78-11.05-580 36-10.96 11.66-2.16 20.15 0 36 8.97 65.81-1.39 92.05 40 144 41.89 52.57 68.42 53.36 133 72 135.65 39.16 557.6 49.52 729.25 52.15"/>
            <path d="m1381.22 520.65 9.95 3.65-10.05 3.35z"/>
        </g>
        <g stroke="#000" class="edge">
            <path fill="none" d="M1329.82 178.95c63.76 12.33 163.03 31.53 229.78 44.44"/>
            <path d="m1560.2 219.94 9.15 5.33-10.48 1.54z"/>
        </g>
        <g stroke="#000" class="edge">
            <path fill="none" d="M1328.1 179.27c11.54 1.93 23.56 3.64 34.9 4.73 539.57 51.91 1897.66 8.07 2439 36 2.83.15 810.41 70.84 813 72 63.99 28.67 52.42 76.38 115 108 79.05 39.94 117.04-4.11 196 36 20.74 10.54 18.32 23.59 38 36 24.02 15.14 53.05 27.1 78.27 35.79"/>
            <path d="m5043.38 504.47 8.38 6.48-10.6.16z"/>
        </g>
        <g stroke="#000" class="edge">
            <path fill="none" d="M1283.11 183.77c8.99 10.23 20.44 23.7 29.89 36.23 81.03 107.49 52.65 182.62 168 252 72.47 43.59 312.89 51.9 442.48 53.13"/>
            <path d="m1923.42 521.63 9.97 3.58-10.03 3.42z"/>
        </g>
        <g stroke="#000" class="edge">
            <path fill="none" d="M1188.81 173.41C1051.88 184.61 776.27 207.73 680 220c-8.53 1.09-17.44 2.36-26.29 3.7"/>
            <path d="m654.47 227.12-10.42-1.92 9.34-4.99z"/>
        </g>
        <g stroke="#000" class="edge">
            <path fill="none" d="M1303 182.89c84.89 38.47 297.3 134.27 331 145.11 285.04 91.7 641.44 116.13 811.61 122.64"/>
            <path d="m2445.67 447.14 9.86 3.86-10.12 3.13z"/>
        </g>
        <g stroke="#000" class="edge">
            <path fill="none" d="M1328.63 179.21c11.38 1.9 23.2 3.62 34.37 4.79 39.92 4.17 1234.04 39.22 1600.87 49.91"/>
            <path d="m2963.85 230.41 9.9 3.79-10.1 3.21z"/>
        </g>
        <g class="node" transform="translate(4 544)">
            <ellipse cx="6747" cy="-90" fill="none" stroke="#000" rx="106.11" ry="18"/>
            <text x="6747" y="-84.95" font-family="Times,serif" font-size="14" text-anchor="middle">:library:firebase-common</text>
        </g>
        <g stroke="#000" class="edge">
            <path fill="none" d="M6751 400.3v24.16"/>
            <path d="m6754.5 424.38-3.5 10-3.5-10z"/>
        </g>
        <g stroke="#000" class="edge">
            <path fill="none" d="M1049.89 326.36c-37.31 10.79-87.35 25.27-126.56 36.61"/>
            <path d="m924.36 366.32-10.58-.59 8.63-6.14z"/>
        </g>
        <g stroke="#000" class="edge">
            <path fill="none" d="M1088.77 328.2c-17.74 20.29-49.98 53.54-84.77 71.8-48.36 25.38-108.99 38.79-154.66 45.77"/>
            <path d="m849.96 449.21-10.4-2.02 9.39-4.9z"/>
        </g>
        <g stroke="#000" class="edge">
            <path fill="none" d="M1110.81 328.29c16.63 34.48 59.14 111.27 121.19 143.71 60.11 31.43 503.86 46.17 692.03 51.06"/>
            <path d="m1924.09 519.56 9.91 3.76-10.09 3.24z"/>
        </g>
        <g stroke="#000" class="edge">
            <path fill="none" d="M3837 398.97c-25.35 10.26-58.76 24.06-88 37.03-34.17 15.15-40.37 24.73-76 36-76.62 24.24-167.67 38.17-230.82 45.61"/>
            <path d="m3442.96 521.04-10.34-2.33 9.54-4.62z"/>
        </g>
        <g stroke="#000" class="edge">
            <path fill="none" d="M4505.07 466.88c-14.94 1.95-30.47 3.77-45.07 5.12-377.1 34.91-829.53 47.57-1012.36 51.48"/>
            <path d="m3447.84 526.98-10.07-3.29 9.92-3.71z"/>
        </g>
        <g stroke="#000" class="edge">
            <path fill="none" d="M4336.43 392.59c-93.01 10.52-231.98 27.96-283.43 43.41-35.8 10.75-39.92 26.23-76 36-97.85 26.49-387.85 42.86-530.67 49.54"/>
            <path d="m3446.72 525.02-10.15-3.03 9.83-3.96z"/>
        </g>
        <g stroke="#000" class="edge">
            <path fill="none" d="M5914.55 388.17c-44.79 3.84-108.58 8.9-164.55 11.83-142.64 7.46-1145.86 3.74-1285 36-37.59 8.71-41.39 27.39-79 36-7.14 1.63-1872.37 42.06-2293.98 51.18"/>
            <path d="m2092.14 526.68-10.07-3.28 9.92-3.72z"/>
        </g>
    </g>
</svg>
