<svg xmlns="http://www.w3.org/2000/svg" width="4787pt" height="404pt" viewBox="0 0 4786.73 404">
    <g class="graph">
        <path fill="#fff" d="M0 404V0h4786.73v404z"/>
        <g class="node" transform="translate(4 400)">
            <ellipse cx="3924.15" cy="-378" fill="none" stroke="#000" rx="78.99" ry="18"/>
            <text x="3924.15" y="-372.95" font-family="Times,serif" font-size="14" text-anchor="middle">:app:platform:jvm</text>
        </g>
        <g class="node" transform="translate(4 400)">
            <ellipse cx="1939.15" cy="-306" fill="none" stroke="#000" rx="97.41" ry="18"/>
            <text x="1939.15" y="-300.95" font-family="Times,serif" font-size="14" text-anchor="middle">:app:platform:common</text>
        </g>
        <g stroke="red" stroke-width="2" class="edge">
            <path fill="none" d="M3850.34 25.74C3541.8 36.62 2404.02 76.75 2049.41 89.25"/>
            <path fill="red" d="m2051.28 92.69-10.12-3.15 9.87-3.85z"/>
        </g>
        <g class="node" transform="translate(4 400)">
            <ellipse cx="86.15" cy="-234" fill="none" stroke="#000" rx="86.15" ry="18"/>
            <text x="86.15" y="-228.95" font-family="Times,serif" font-size="14" text-anchor="middle">:app:core:coroutines</text>
        </g>
        <g stroke="#000" class="edge">
            <path fill="none" d="M3849.51 24.07C3379.38 30.72 935.91 68.62 190.15 148c-8.61.92-17.62 2.11-26.53 3.44"/>
            <path d="m164.32 154.87-10.42-1.92 9.34-4.99z"/>
        </g>
        <g class="node" transform="translate(4 400)">
            <ellipse cx="3803.15" cy="-234" fill="none" stroke="#000" rx="124.54" ry="18"/>
            <text x="3803.15" y="-228.95" font-family="Times,serif" font-size="14" text-anchor="middle">:app:core:diary-database-room</text>
        </g>
        <g stroke="#000" class="edge">
            <path fill="none" d="M3913.56 40.13c-20.99 24.63-59.85 70.23-84.35 98.99"/>
            <path d="m3831.93 141.32-9.15 5.34 3.83-9.88z"/>
        </g>
        <g class="node" transform="translate(4 400)">
            <ellipse cx="3331.15" cy="-162" fill="none" stroke="#000" rx="95.88" ry="18"/>
            <text x="3331.15" y="-156.95" font-family="Times,serif" font-size="14" text-anchor="middle">:app:core:diary-service</text>
        </g>
        <g stroke="#000" class="edge">
            <path fill="none" d="M3887.4 37.71c-104.42 37.68-381.53 137.68-498.71 179.97"/>
            <path d="m3390.21 220.85-10.6.11 8.22-6.69z"/>
        </g>
        <g class="node" transform="translate(4 400)">
            <ellipse cx="4462.15" cy="-306" fill="none" stroke="#000" rx="158.32" ry="18"/>
            <text x="4462.15" y="-300.95" font-family="Times,serif" font-size="14" text-anchor="middle">:app:core:account-preferences-datastore</text>
        </g>
        <g stroke="#000" class="edge">
            <path fill="none" d="M3995.48 31.76c89.72 11.67 249.75 32.49 358.02 46.58"/>
            <path d="m4353.83 74.86 9.46 4.76-10.37 2.18z"/>
        </g>
        <g class="node" transform="translate(4 400)">
            <ellipse cx="4128.15" cy="-306" fill="none" stroke="#000" rx="157.3" ry="18"/>
            <text x="4128.15" y="-300.95" font-family="Times,serif" font-size="14" text-anchor="middle">:app:core:holiday-preferences-datastore</text>
        </g>
        <g stroke="#000" class="edge">
            <path fill="none" d="M3970.42 37.5c29.68 10.19 69.76 23.94 102.6 35.21"/>
            <path d="m4074.1 69.38 8.32 6.56-10.59.06z"/>
        </g>
        <g class="node" transform="translate(4 400)">
            <ellipse cx="4155.15" cy="-234" fill="none" stroke="#000" rx="133.24" ry="18"/>
            <text x="4155.15" y="-228.95" font-family="Times,serif" font-size="14" text-anchor="middle">:app:core:holiday-database-room</text>
        </g>
        <g stroke="#000" class="edge">
            <path fill="none" d="M3930.93 40.38c4.12 20.14 13.83 52.95 35.22 71.62 22.17 19.35 50.79 31.7 79.17 39.56"/>
            <path d="m4045.9 148.09 8.81 5.89-10.56.89z"/>
        </g>
        <g class="node" transform="translate(4 400)">
            <ellipse cx="4674.15" cy="-90" fill="none" stroke="#000" rx="104.58" ry="18"/>
            <text x="4674.15" y="-84.95" font-family="Times,serif" font-size="14" text-anchor="middle">:app:core:holiday-service</text>
        </g>
        <g stroke="#000" class="edge">
            <path fill="none" d="M4007.28 23.22c178.03 1.29 598.19 8.99 643.87 52.78 55.68 53.37 43.75 155.29 33.78 204.72"/>
            <path d="m4688.39 281.3-5.53 9.04-1.32-10.51z"/>
        </g>
        <g class="node" transform="translate(4 400)">
            <ellipse cx="4129.15" cy="-162" fill="none" stroke="#000" rx="80.01" ry="18"/>
            <text x="4129.15" y="-156.95" font-family="Times,serif" font-size="14" text-anchor="middle">:library:koin-room</text>
        </g>
        <g stroke="#000" class="edge">
            <path fill="none" d="M3926.61 40.42c-.89 18.73-.05 48.87 11.54 71.58 10.8 21.16 59.19 58.91 79 72 20.06 13.25 43.97 24.8 64.86 33.7"/>
            <path d="m4083.33 214.46 7.89 7.07-10.58-.61z"/>
        </g>
        <g class="node" transform="translate(4 400)">
            <ellipse cx="4475.15" cy="-234" fill="none" stroke="#000" rx="93.32" ry="18"/>
            <text x="4475.15" y="-228.95" font-family="Times,serif" font-size="14" text-anchor="middle">:library:koin-datastore</text>
        </g>
        <g stroke="#000" class="edge">
            <path fill="none" d="M4007.29 23.03c175.27.9 584.02 7.86 625.86 52.97 31.54 33.99-26.9 58.73-80.62 73.37"/>
            <path d="m4553.56 152.72-10.57-.85 8.79-5.92z"/>
        </g>
        <g stroke="#000" class="edge">
            <path fill="none" d="M1846.06 96.17C1527.4 100.28 515.29 115.61 190.15 148c-8.68.87-17.75 2.03-26.74 3.35"/>
            <path d="m164.03 154.8-10.41-1.93 9.34-4.99z"/>
        </g>
        <g stroke="#000" class="edge">
            <path fill="none" d="M2040.88 94.42c286.48-1.09 1110.87.49 1219.27 53.58 26.98 13.21 47.92 41.1 60.74 62.15"/>
            <path d="m3323.76 208.13 2 10.41-8.05-6.89z"/>
        </g>
        <g stroke="#000" class="edge">
            <path fill="none" d="M2040.93 94.79c417.33-.56 2038.33.69 2260.22 53.21 36.38 8.61 41.85 20.83 76 36 87.33 38.79 190.41 80.79 250.47 104.89"/>
            <path d="m4628.58 285.5 7.98 6.97-10.58-.47z"/>
        </g>
        <g class="node" transform="translate(4 400)">
            <ellipse cx="715.15" cy="-90" fill="none" stroke="#000" rx="101" ry="18"/>
            <text x="715.15" y="-84.95" font-family="Times,serif" font-size="14" text-anchor="middle">:app:core:design-system</text>
        </g>
        <g stroke="#000" class="edge">
            <path fill="none" d="M1845.58 94.56c-174.02.5-549.01 7.46-861.43 53.44-134.8 19.84-213.72-35.06-298 72-14.56 18.5-2.59 44.07 10.83 63.06"/>
            <path d="m699.63 280.76 3.25 10.08-8.83-5.86z"/>
        </g>
        <g class="node" transform="translate(4 400)">
            <ellipse cx="1668.15" cy="-90" fill="none" stroke="#000" rx="86.67" ry="18"/>
            <text x="1668.15" y="-84.95" font-family="Times,serif" font-size="14" text-anchor="middle">:app:core:navigation</text>
        </g>
        <g stroke="#000" class="edge">
            <path fill="none" d="M1910.29 111.19c-18.57 9.72-41.85 22.87-61.14 36.81-59.28 42.84-120.75 102.91-153.35 136.25"/>
            <path d="m1698.69 286.3-9.48 4.73 4.46-9.61z"/>
        </g>
        <g class="node" transform="translate(4 400)">
            <ellipse cx="352.15" cy="-18" fill="none" stroke="#000" rx="82.57" ry="18"/>
            <text x="352.15" y="-12.95" font-family="Times,serif" font-size="14" text-anchor="middle">:app:core:resources</text>
        </g>
        <g stroke="#000" class="edge">
            <path fill="none" d="M1846.93 97.19C1537.18 104.4 582.37 128.15 519.15 148c-112.91 35.46-167.28 40.12-224 144-7.66 14.04-6.63 21.44 0 36 5.31 11.63 14.56 21.7 24.28 29.84"/>
            <path d="m321.42 354.95 5.78 8.89-10.06-3.35z"/>
        </g>
        <g class="node" transform="translate(4 400)">
            <ellipse cx="779.15" cy="-18" fill="none" stroke="#000" rx="59.54" ry="18"/>
            <text x="779.15" y="-12.95" font-family="Times,serif" font-size="14" text-anchor="middle">:library:color</text>
        </g>
        <g stroke="#000" class="edge">
            <path fill="none" d="M1846.09 96.24C1564.47 100.22 759.97 114.41 646.15 148c-120.77 35.65-181.56 34.65-244 144-7.93 13.89-10.5 23.93 0 36 39.34 45.18 210.64 53.07 309.64 53.74"/>
            <path d="m711.7 378.24 9.99 3.54-10.02 3.46z"/>
        </g>
        <g class="node" transform="translate(4 400)">
            <ellipse cx="1636.15" cy="-18" fill="none" stroke="#000" rx="62.1" ry="18"/>
            <text x="1636.15" y="-12.95" font-family="Times,serif" font-size="14" text-anchor="middle">:library:kotlin</text>
        </g>
        <g stroke="#000" class="edge">
            <path fill="none" d="M1846.78 97.08c-229.02 5.4-788.92 21.56-816.63 50.92-60.86 64.5-55.4 88.3 99 180 72.14 42.84 314.21 51.34 437.5 52.83"/>
            <path d="m1566.37 377.33 9.96 3.61-10.04 3.39z"/>
        </g>
        <g class="node" transform="translate(4 400)">
            <ellipse cx="1484.15" cy="-90" fill="none" stroke="#000" rx="79.5" ry="18"/>
            <text x="1484.15" y="-84.95" font-family="Times,serif" font-size="14" text-anchor="middle">:library:navigation</text>
        </g>
        <g stroke="#000" class="edge">
            <path fill="none" d="M1897.81 110.31c-28.16 9.91-64.93 23.56-96.66 37.69-94.79 42.22-114.59 60.79-207 108-20.96 10.71-44.37 22.44-63.84 32.13"/>
            <path d="m1532.1 291.15-10.51 1.32 7.39-7.59z"/>
        </g>
        <g class="node" transform="translate(4 400)">
            <ellipse cx="2625.15" cy="-18" fill="none" stroke="#000" rx="78.99" ry="18"/>
            <text x="2625.15" y="-12.95" font-family="Times,serif" font-size="14" text-anchor="middle">:library:coroutines</text>
        </g>
        <g stroke="#000" class="edge">
            <path fill="none" d="M1980.44 110.94c49.01 21.66 136.92 63.01 205.71 109.06 61.58 41.22 59.82 76.75 127 108 71.64 33.33 161.06 45.99 226.48 50.66"/>
            <path d="m2539.47 375.14 9.75 4.15-10.21 2.83z"/>
        </g>
        <g class="node" transform="translate(4 400)">
            <ellipse cx="2087.15" cy="-18" fill="none" stroke="#000" rx="72.85" ry="18"/>
            <text x="2087.15" y="-12.95" font-family="Times,serif" font-size="14" text-anchor="middle">:library:datetime</text>
        </g>
        <g stroke="#000" class="edge">
            <path fill="none" d="M1942.86 112.43c.17 41.58 5.85 148.1 56.29 215.57 10.69 14.29 26.45 25.35 41.91 33.58"/>
            <path d="m2042.38 358.33 7.39 7.58-10.51-1.32z"/>
        </g>
        <g class="node" transform="translate(4 400)">
            <ellipse cx="507.15" cy="-90" fill="none" stroke="#000" rx="89.23" ry="18"/>
            <text x="507.15" y="-84.95" font-family="Times,serif" font-size="14" text-anchor="middle">:library:shimmer-m3</text>
        </g>
        <g stroke="#000" class="edge">
            <path fill="none" d="M1845.97 95.81C1574.77 98.56 822.68 109.59 718.15 148c-77.74 28.57-149.52 97.83-184.55 135.53"/>
            <path d="m536.25 285.82-9.33 5.01 4.16-9.74z"/>
        </g>
        <g class="node" transform="translate(4 400)">
            <ellipse cx="2311.15" cy="-234" fill="none" stroke="#000" rx="71.31" ry="18"/>
            <text x="2311.15" y="-228.95" font-family="Times,serif" font-size="14" text-anchor="middle">:app:data:memo</text>
        </g>
        <g stroke="red" stroke-width="2" class="edge">
            <path fill="none" d="M2011.05 107.25c58.19 10.56 144.22 26.35 219.1 40.75a4307 4307 0 0 1 19.55 3.81"/>
            <path fill="red" d="m2248.66 148.04 9.13 5.37-10.48 1.49z"/>
        </g>
        <g class="node" transform="translate(4 400)">
            <ellipse cx="2514.15" cy="-234" fill="none" stroke="#000" rx="75.92" ry="18"/>
            <text x="2514.15" y="-228.95" font-family="Times,serif" font-size="14" text-anchor="middle">:app:data:account</text>
        </g>
        <g stroke="#000" class="edge">
            <path fill="none" d="M2030.15 102.45c97.27 8.81 259.35 24.91 398 45.55 7.21 1.07 14.72 2.31 22.2 3.61"/>
            <path d="m2450.9 148.15 9.23 5.21-10.46 1.68z"/>
        </g>
        <g class="node" transform="translate(4 400)">
            <ellipse cx="3956.15" cy="-162" fill="none" stroke="#000" rx="74.89" ry="18"/>
            <text x="3956.15" y="-156.95" font-family="Times,serif" font-size="14" text-anchor="middle">:app:data:holiday</text>
        </g>
        <g stroke="#000" class="edge">
            <path fill="none" d="M2040.22 95.96c395.21 4.09 1863.99 21.33 1900.93 52.04 17.29 14.37 21.23 40.26 21.32 60.42"/>
            <path d="m3965.97 208.39-3.79 9.89-3.2-10.1z"/>
        </g>
        <g class="node" transform="translate(4 400)">
            <ellipse cx="2957.15" cy="-234" fill="none" stroke="#000" rx="73.87" ry="18"/>
            <text x="2957.15" y="-228.95" font-family="Times,serif" font-size="14" text-anchor="middle">:app:data:backup</text>
        </g>
        <g stroke="#000" class="edge">
            <path fill="none" d="M2040.27 96.26c169.61 3.16 530.58 14.1 832.88 51.74 7.47.93 15.26 2.12 22.98 3.43"/>
            <path d="m2896.63 147.96 9.23 5.2-10.46 1.69z"/>
        </g>
        <g class="node" transform="translate(4 400)">
            <ellipse cx="3181.15" cy="-234" fill="none" stroke="#000" rx="65.68" ry="18"/>
            <text x="3181.15" y="-228.95" font-family="Times,serif" font-size="14" text-anchor="middle">:app:data:fetch</text>
        </g>
        <g stroke="#000" class="edge">
            <path fill="none" d="M2040.3 95.86c196.63 2.54 655.64 12.6 1038.85 52.14 13.4 1.38 27.68 3.34 41.28 5.44"/>
            <path d="m3120.83 149.96 9.33 5.02-10.42 1.89z"/>
        </g>
        <g class="node" transform="translate(4 400)">
            <ellipse cx="2089.15" cy="-162" fill="none" stroke="#000" rx="84.11" ry="18"/>
            <text x="2089.15" y="-156.95" font-family="Times,serif" font-size="14" text-anchor="middle">:app:domain:memo</text>
        </g>
        <g stroke="#000" class="edge">
            <path fill="none" d="M1961.25 112.13c26.49 25.08 75.97 71.92 106.23 100.56"/>
            <path d="m2069.51 209.79 4.85 9.42-9.66-4.33z"/>
        </g>
        <g class="node" transform="translate(4 400)">
            <ellipse cx="2432.15" cy="-90" fill="none" stroke="#000" rx="88.71" ry="18"/>
            <text x="2432.15" y="-84.95" font-family="Times,serif" font-size="14" text-anchor="middle">:app:domain:account</text>
        </g>
        <g stroke="#000" class="edge">
            <path fill="none" d="M2035.05 100.25c124.29 7.92 333.58 24.53 360.1 47.75 37.83 33.11 43.15 95.77 42.7 132.39"/>
            <path d="m2441.35 280.33-3.79 9.89-3.2-10.1z"/>
        </g>
        <g class="node" transform="translate(4 400)">
            <ellipse cx="3007.15" cy="-90" fill="none" stroke="#000" rx="87.69" ry="18"/>
            <text x="3007.15" y="-84.95" font-family="Times,serif" font-size="14" text-anchor="middle">:app:domain:holiday</text>
        </g>
        <g stroke="#000" class="edge">
            <path fill="none" d="M2037.74 98.76c162.14 7.02 486.44 23.77 597.41 49.24 85.19 19.55 102.62 37.69 183 72 52.03 22.21 110.95 49.73 149.86 68.24"/>
            <path d="m2969.06 284.87 7.52 7.46-10.54-1.15z"/>
        </g>
        <g class="node" transform="translate(4 400)">
            <ellipse cx="2664.15" cy="-162" fill="none" stroke="#000" rx="86.67" ry="18"/>
            <text x="2664.15" y="-156.95" font-family="Times,serif" font-size="14" text-anchor="middle">:app:domain:backup</text>
        </g>
        <g stroke="#000" class="edge">
            <path fill="none" d="M2038.25 98.27c170.93 6.51 516.84 22.84 564.9 49.73 24.46 13.68 42.21 40.84 52.92 61.58"/>
            <path d="m2659.12 207.85 1.24 10.52-7.53-7.45z"/>
        </g>
        <g class="node" transform="translate(4 400)">
            <ellipse cx="3063.15" cy="-162" fill="none" stroke="#000" rx="78.48" ry="18"/>
            <text x="3063.15" y="-156.95" font-family="Times,serif" font-size="14" text-anchor="middle">:app:domain:fetch</text>
        </g>
        <g stroke="#000" class="edge">
            <path fill="none" d="M2039.75 96.56c261.41 4.64 965.76 20 1004.4 51.44 17.62 14.33 22.76 40.22 23.85 60.4"/>
            <path d="m3071.49 208.19-3.29 10.07-3.7-9.92z"/>
        </g>
        <g class="node" transform="translate(4 400)">
            <ellipse cx="1117.15" cy="-234" fill="none" stroke="#000" rx="81.55" ry="18"/>
            <text x="1117.15" y="-228.95" font-family="Times,serif" font-size="14" text-anchor="middle">:app:feature:memo</text>
        </g>
        <g stroke="#000" class="edge">
            <path fill="none" d="M1855.75 102.23c-121.65 10.09-348.9 29.05-542.6 45.77-34.89 3.01-73.35 6.4-106.62 9.36"/>
            <path d="m1207.24 160.81-10.28-2.6 9.66-4.37z"/>
        </g>
        <g class="node" transform="translate(4 400)">
            <ellipse cx="1590.15" cy="-234" fill="none" stroke="#000" rx="88.71" ry="18"/>
            <text x="1590.15" y="-228.95" font-family="Times,serif" font-size="14" text-anchor="middle">:app:feature:calendar</text>
        </g>
        <g stroke="#000" class="edge">
            <path fill="none" d="M1878.74 107.92c-60.11 12.06-149.67 30.02-212.21 42.56"/>
            <path d="m1667.54 153.85-10.49-1.46 9.11-5.4z"/>
        </g>
        <g class="node" transform="translate(4 400)">
            <ellipse cx="1222.15" cy="-162" fill="none" stroke="#000" rx="76.94" ry="18"/>
            <text x="1222.15" y="-156.95" font-family="Times,serif" font-size="14" text-anchor="middle">:app:feature:more</text>
        </g>
        <g stroke="#000" class="edge">
            <path fill="none" d="M1848.19 98.37c-98.1 5.13-255.04 17.92-387.04 49.63-69.06 16.59-145.33 48.08-191.71 68.8"/>
            <path d="m1271.1 219.9-10.55.92 7.67-7.31z"/>
        </g>
        <g class="node" transform="translate(4 400)">
            <ellipse cx="1441.15" cy="-162" fill="none" stroke="#000" rx="86.15" ry="18"/>
            <text x="1441.15" y="-156.95" font-family="Times,serif" font-size="14" text-anchor="middle">:app:feature:account</text>
        </g>
        <g stroke="#000" class="edge">
            <path fill="none" d="M1846.22 96.47c-113.88 3.43-294.37 14.7-350.07 51.53-21.43 14.17-34.9 40.64-42.58 61.04"/>
            <path d="m1456.97 209.91-6.59 8.3-.02-10.6z"/>
        </g>
        <g stroke="#000" class="edge">
            <path fill="none" d="M3874.7 181.5c55.83 11.99 134.74 28.94 190.64 40.94"/>
            <path d="m4066.03 219.01 9.05 5.52-10.52 1.32z"/>
        </g>
        <g stroke="#000" class="edge">
            <path fill="none" d="M3773.21 183.7c-13.85 8.74-28.39 20.88-36.06 36.3-7.12 14.33-8.03 22.16 0 36 16.19 27.89 46.82 8.11 63 36 8.04 13.84 11.1 24.48 0 36-37.02 38.44-906.72 32.86-960 36-42.07 2.48-88.79 6.15-127.55 9.45"/>
            <path d="m2713.14 376.91-10.27-2.63 9.67-4.34z"/>
        </g>
        <g class="node" transform="translate(4 400)">
            <ellipse cx="3546.15" cy="-162" fill="none" stroke="#000" rx="101.51" ry="18"/>
            <text x="3546.15" y="-156.95" font-family="Times,serif" font-size="14" text-anchor="middle">:app:core:diary-database</text>
        </g>
        <g stroke="#000" class="edge">
            <path fill="none" d="M3750.44 182.45c-40.03 10.9-93.75 25.53-135.47 36.9"/>
            <path d="m3616.12 222.66-10.57-.75 8.73-6z"/>
        </g>
        <g class="node" transform="translate(4 400)">
            <ellipse cx="3803.15" cy="-162" fill="none" stroke="#000" rx="60.56" ry="18"/>
            <text x="3803.15" y="-156.95" font-family="Times,serif" font-size="14" text-anchor="middle">:library:room</text>
        </g>
        <g stroke="#000" class="edge">
            <path fill="none" d="M3807.15 184.3v24.16"/>
            <path d="m3810.65 208.38-3.5 10-3.5-10z"/>
        </g>
        <g class="node" transform="translate(4 400)">
            <ellipse cx="3351.15" cy="-18" fill="none" stroke="#000" rx="71.31" ry="18"/>
            <text x="3351.15" y="-12.95" font-family="Times,serif" font-size="14" text-anchor="middle">:app:core:model</text>
        </g>
        <g stroke="#000" class="edge">
            <path fill="none" d="M3403.86 250.94c11.76 1.84 23.86 3.61 35.29 5.06 43.61 5.55 364.37 3.53 394 36 10.79 11.82 10.68 24.08 0 36-25.91 28.95-266.83 43.82-396.41 49.78"/>
            <path d="m3436.98 381.27-10.15-3.04 9.84-3.95z"/>
        </g>
        <g class="node" transform="translate(4 400)">
            <ellipse cx="2930.15" cy="-18" fill="none" stroke="#000" rx="85.13" ry="18"/>
            <text x="2930.15" y="-12.95" font-family="Times,serif" font-size="14" text-anchor="middle">:common:exception</text>
        </g>
        <g stroke="#000" class="edge">
            <path fill="none" d="M3404.15 250.9c11.67 1.83 23.67 3.61 35 5.1 39.97 5.25 333.95 6.12 361 36 10.74 11.86 10.97 24.35 0 36-6.56 6.98-550.37 36.38-772.78 48.12"/>
            <path d="m3027.75 379.61-10.17-2.97 9.8-4.02z"/>
        </g>
        <g class="node" transform="translate(4 400)">
            <ellipse cx="3665.15" cy="-90" fill="none" stroke="#000" rx="121.98" ry="18"/>
            <text x="3665.15" y="-84.95" font-family="Times,serif" font-size="14" text-anchor="middle">:app:core:account-preferences</text>
        </g>
        <g stroke="#000" class="edge">
            <path fill="none" d="M3397.59 252.08c54.36 11.4 133.47 27.98 192.3 40.31"/>
            <path d="m3590.44 288.93 9.07 5.47-10.5 1.38z"/>
        </g>
        <g class="node" transform="translate(4 400)">
            <ellipse cx="3452.15" cy="-90" fill="none" stroke="#000" rx="72.85" ry="18"/>
            <text x="3452.15" y="-84.95" font-family="Times,serif" font-size="14" text-anchor="middle">:common:model</text>
        </g>
        <g stroke="#000" class="edge">
            <path fill="none" d="M3363.83 255.59c16.51 9.55 37.44 21.66 55.2 31.93"/>
            <path d="m3420.3 284.22 6.91 8.03-10.41-1.97z"/>
        </g>
        <g stroke="#000" class="edge">
            <path fill="none" d="M4469.37 112.3c1.37 7.38 3 16.18 4.54 24.45"/>
            <path d="m4477.32 135.94-1.62 10.47-5.27-9.2z"/>
        </g>
        <g stroke="#000" class="edge">
            <path fill="none" d="M4353.71 107.06c-18.55 1.79-37.58 3.51-55.56 4.94-69.34 5.5-576.62-13.98-625 36-8.95 9.25-7.09 88.53-5.34 132.28"/>
            <path d="m3671.3 279.94-3.08 10.14-3.92-9.84z"/>
        </g>
        <g stroke="#000" class="edge">
            <path fill="none" d="M4207.45 110.19c58.61 11.82 139.52 28.14 197.78 39.9"/>
            <path d="m4405.6 146.59 9.12 5.41-10.5 1.45z"/>
        </g>
        <g stroke="#000" class="edge">
            <path fill="none" d="M3976.45 96.95c-422.82 5.62-1572.03 23.28-1741.3 51.05-107.79 17.69-170.05-15.83-235 72-9.51 12.86-4.95 20.79 0 36 12.88 39.56 43.51 77.03 65.69 100.44"/>
            <path d="m2068.06 353.71 4.46 9.62-9.48-4.74z"/>
        </g>
        <g class="node" transform="translate(4 400)">
            <ellipse cx="4430.15" cy="-90" fill="none" stroke="#000" rx="120.96" ry="18"/>
            <text x="4430.15" y="-84.95" font-family="Times,serif" font-size="14" text-anchor="middle">:app:core:holiday-preferences</text>
        </g>
        <g stroke="#000" class="edge">
            <path fill="none" d="M4211.65 109.87c29.79 8.07 62.84 20.2 89.5 38.13 52.85 35.54 95.79 98.11 117.54 133.88"/>
            <path d="m4421.62 279.96 2.11 10.38-8.12-6.8z"/>
        </g>
        <g stroke="#000" class="edge">
            <path fill="none" d="M4152.73 184.3c-2.8 7.55-6.16 16.58-9.29 25.02"/>
            <path d="m4146.8 210.32-6.77 8.16.21-10.6z"/>
        </g>
        <g stroke="#000" class="edge">
            <path fill="none" d="M4189.12 183.96c12.68 8.93 26.1 21.14 33.03 36.04 6.76 14.51 9.97 23.48 0 36-44.29 55.68-87.08 18.29-156 36-56.82 14.6-69.03 26.97-127 36-241.44 37.6-855.03 22.18-1099 36-42.07 2.38-88.8 6.04-127.56 9.36"/>
            <path d="m2713.13 376.82-10.26-2.62 9.66-4.35z"/>
        </g>
        <g stroke="#000" class="edge">
            <path fill="none" d="M4079.01 180.77c-56.79 10.05-134.71 24.47-202.86 39.23-4.28.93-8.71 1.93-13.15 2.96"/>
            <path d="m3863.99 226.32-10.54-1.1 8.93-5.71z"/>
        </g>
        <g class="node" transform="translate(4 400)">
            <ellipse cx="4181.15" cy="-90" fill="none" stroke="#000" rx="110.21" ry="18"/>
            <text x="4181.15" y="-84.95" font-family="Times,serif" font-size="14" text-anchor="middle">:app:core:holiday-database</text>
        </g>
        <g stroke="#000" class="edge">
            <path fill="none" d="M4210.36 183.07c17.34 8.16 34.83 20.04 44.79 36.93 8.14 13.78 7.13 21.67 0 36-6.04 12.16-16.35 22.27-27.23 30.29"/>
            <path d="m4230.22 288.96-10.23 2.72 6.3-8.51z"/>
        </g>
        <g stroke="#000" class="edge">
            <path fill="none" d="M4604.4 323.15c-13.37 1.87-27.2 3.59-40.25 4.85-422.14 40.62-930.23 50.13-1126.27 52.34"/>
            <path d="m3438.09 383.84-10.04-3.39 9.96-3.61z"/>
        </g>
        <g stroke="#000" class="edge">
            <path fill="none" d="M652.57 323.84c-63.75 12.29-159.64 30.78-224.97 43.38"/>
            <path d="m428.55 370.6-10.48-1.54 9.16-5.33z"/>
        </g>
        <g stroke="#000" class="edge">
            <path fill="none" d="M734.65 327.95c7.62 8.34 16.97 18.56 25.42 27.8"/>
            <path d="m762.62 353.35 4.16 9.74-9.33-5.01z"/>
        </g>
        <g stroke="#000" class="edge">
            <path fill="none" d="M809.66 318.3c42.09 3.25 92.83 6.95 138.49 9.7 104.8 6.32 815.91 38.34 1060.54 49.31"/>
            <path d="m2008.64 373.8 9.83 3.95-10.15 3.05z"/>
        </g>
        <g stroke="#000" class="edge">
            <path fill="none" d="M1737.89 322.08c11.74 1.98 23.87 4.01 35.26 5.92 85.15 14.26 183.13 30.58 247.57 41.29"/>
            <path d="m2021.17 365.82 9.29 5.09-10.44 1.82z"/>
        </g>
        <g stroke="#000" class="edge">
            <path fill="none" d="M1545.31 322.8c10.24 1.9 20.84 3.72 30.84 5.2 153.04 22.61 333.09 38.78 434.65 46.94"/>
            <path d="m2010.99 371.44 9.69 4.29-10.25 2.69z"/>
        </g>
        <g stroke="#000" class="edge">
            <path fill="none" d="M564.57 324.75c47.12 12.12 115.53 29.73 163.23 42"/>
            <path d="m728.57 363.34 8.81 5.88-10.55.9z"/>
        </g>
        <g stroke="#000" class="edge">
            <path fill="none" d="M2311.78 184.32c-5.3 32.85-11.41 104.42 26.37 143.68 27.57 28.64 128.2 42.02 203.46 48.13"/>
            <path d="m2541.78 372.63 9.7 4.26-10.25 2.72z"/>
        </g>
        <g stroke="#000" class="edge">
            <path fill="none" d="M2244.16 168.68c-83.12 3.63-213.39 15.12-244.01 51.32-36.91 43.64 21.53 104.45 60.55 137.44"/>
            <path d="m2062.52 354.4 5.49 9.07-9.95-3.67z"/>
        </g>
        <g stroke="red" stroke-width="2" class="edge">
            <path fill="none" d="M2271.82 180.66c-34.8 10.98-83.94 26.47-121.88 38.44"/>
            <path fill="red" d="m2152.53 221.95-10.59-.33 8.48-6.35z"/>
        </g>
        <g stroke="#000" class="edge">
            <path fill="none" d="M2373.53 176.68c18.97 2.8 40.14 5.57 59.62 7.32 446.06 39.99 561.16-6.27 1007 36 8.96.85 18.3 1.95 27.59 3.19"/>
            <path d="m3468.08 219.7 9.43 4.85-10.39 2.09z"/>
        </g>
        <g stroke="#000" class="edge">
            <path fill="none" d="M2590.5 171.89c122.79 8.49 379.8 27.07 596.65 48.11 18.75 1.82 38.8 3.98 57.9 6.14"/>
            <path d="m3245.44 222.66 9.54 4.61-10.34 2.34z"/>
        </g>
        <g stroke="#000" class="edge">
            <path fill="none" d="M2527.05 184.15c19.2 37.02 64.66 124.67 87.9 169.46"/>
            <path d="m2618.02 351.94 1.5 10.48-7.71-7.26z"/>
        </g>
        <g stroke="#000" class="edge">
            <path fill="none" d="M2486.76 182.74c-75.9 38.03-269.31 134.96-354.39 177.6"/>
            <path d="m2134.17 363.36-10.51 1.35 7.38-7.61z"/>
        </g>
        <g stroke="#000" class="edge">
            <path fill="none" d="M2508.26 184.13c-14.03 24.31-39.87 69.05-56.51 97.86"/>
            <path d="m2454.87 283.59-8.03 6.91 1.97-10.41z"/>
        </g>
        <g stroke="#000" class="edge">
            <path fill="none" d="M2592.62 169.86c144.41 6.1 457.48 22.15 561.53 50.14 36.1 9.71 40.08 25.69 76 36 132.48 38 171.22 19.13 308 36 10.03 1.24 20.49 2.55 30.93 3.88"/>
            <path d="m3569.41 292.39 9.47 4.74-10.36 2.21z"/>
        </g>
        <g stroke="#000" class="edge">
            <path fill="none" d="M4013.75 250.93c10.06 1.93 20.53 3.73 30.4 5.07 229.58 31.04 289.7 10.9 520 36 9.15 1 18.7 2.19 28.2 3.46"/>
            <path d="m4592.53 291.95 9.42 4.84-10.38 2.1z"/>
        </g>
        <g stroke="#000" class="edge">
            <path fill="none" d="M3955.76 256.35c-6.36 21.1-20.37 55.85-46.61 71.65-50.9 30.66-1009.67 32.61-1069 36-42.07 2.4-88.79 6.06-127.55 9.37"/>
            <path d="m2713.13 376.84-10.26-2.63 9.66-4.34z"/>
        </g>
        <g stroke="#000" class="edge">
            <path fill="none" d="M3938.35 255.67c-29.48 21.42-84.56 57.59-138.2 72.33-134.94 37.07-1119.13 31.36-1259 36-128.32 4.26-277.19 10.05-367.44 13.65"/>
            <path d="m2174.1 381.14-10.13-3.1 9.85-3.89z"/>
        </g>
        <g stroke="#000" class="edge">
            <path fill="none" d="M3907.21 251c-9.94 1.93-20.29 3.71-30.06 5-146.31 19.36-576.1 40.14-769.61 48.82"/>
            <path d="m3107.92 308.3-10.15-3.05 9.83-3.94z"/>
        </g>
        <g stroke="#000" class="edge">
            <path fill="none" d="M4014.73 250.58c9.78 1.92 19.89 3.81 29.42 5.42 28.04 4.74 184.47 25.72 290.49 39.82"/>
            <path d="m4335.07 292.34 9.45 4.79-10.37 2.15z"/>
        </g>
        <g stroke="#000" class="edge">
            <path fill="none" d="M4004.61 252.83c34.27 10.66 82.03 25.52 119.82 37.28"/>
            <path d="m4125.36 286.73 8.51 6.31-10.59.37z"/>
        </g>
        <g stroke="#000" class="edge">
            <path fill="none" d="M3018.36 177.71c64.1 11.99 168.34 31.51 239.62 44.85"/>
            <path d="m3258.45 219.08 9.19 5.28-10.48 1.6z"/>
        </g>
        <g stroke="#000" class="edge">
            <path fill="none" d="M2959.91 184.46c-.42 19.9 2.08 52.18 20.24 71.54 40.44 43.1 92.32-11.11 128 36 9.67 12.75 10.68 24.08 0 36-12.95 14.47-259.19 35.84-393.43 46.48"/>
            <path d="m2715.03 377.97-10.24-2.71 9.69-4.27z"/>
        </g>
        <g stroke="#000" class="edge">
            <path fill="none" d="M2887.5 168.1c-99.1 2.95-268.39 13.62-315.35 51.9-39.44 32.15 1.71 76.17-38 108-53.6 42.98-245.66 51.84-358.53 53.23"/>
            <path d="m2175.83 384.73-10.04-3.39 9.97-3.61z"/>
        </g>
        <g stroke="#000" class="edge">
            <path fill="none" d="M2909.78 179.27c-48.72 11.64-122.18 29.19-175.31 41.89"/>
            <path d="m2735.47 224.52-10.54-1.08 8.91-5.73z"/>
        </g>
        <g stroke="#000" class="edge">
            <path fill="none" d="M3026.79 174.56c25.96 2.97 56.07 6.39 83.36 9.44 146.63 16.36 183.73 16.73 330 36 8.26 1.09 16.86 2.29 25.45 3.54"/>
            <path d="m3465.97 220.06 9.38 4.92-10.4 2z"/>
        </g>
        <g stroke="#000" class="edge">
            <path fill="none" d="M3217.33 182.02c21.2 9.89 49.27 22.99 72.69 33.92"/>
            <path d="m3291.46 212.75 7.58 7.4-10.54-1.06z"/>
        </g>
        <g stroke="#000" class="edge">
            <path fill="none" d="M3193.6 184.19c14.66 32.62 39.99 103.82 3.55 143.81-4.03 4.43-326.82 32.47-483.93 45.88"/>
            <path d="m2713.97 377.33-10.26-2.64 9.66-4.34z"/>
        </g>
        <g stroke="#000" class="edge">
            <path fill="none" d="M3137.83 178.82c-41.62 10.5-103.79 26.42-157.68 41.18-166.45 45.6-203.58 75.05-373 108-151.45 29.46-331.29 43.22-433.69 49.11"/>
            <path d="m2173.96 380.59-10.18-2.94 9.79-4.05z"/>
        </g>
        <g stroke="#000" class="edge">
            <path fill="none" d="M3158.38 182.88c-15.92 9.45-36.35 21.56-53.84 31.94"/>
            <path d="m3106.33 217.83-10.38 2.09 6.81-8.11z"/>
        </g>
        <g stroke="#000" class="edge">
            <path fill="none" d="m3237.84 177.1 234 44.88"/>
            <path d="m3472.26 218.5 9.16 5.32-10.48 1.55z"/>
        </g>
        <g stroke="#000" class="edge">
            <path fill="none" d="M2047.23 253.4c-84.89 26.6-265.77 83.31-355.04 111.29"/>
            <path d="m1693.29 368.01-10.59-.35 8.49-6.33z"/>
        </g>
        <g stroke="#000" class="edge">
            <path fill="none" d="M2112.34 255.64c25.03 20.69 71.05 55.36 116.81 72.36 101.61 37.73 226.51 49.22 309.43 52.4"/>
            <path d="m2538.61 376.89 9.88 3.85-10.12 3.15z"/>
        </g>
        <g stroke="#000" class="edge">
            <path fill="none" d="M2098.02 256.02c2.7 10.31 5.77 23.79 7.13 35.98 1.78 15.9 2.06 20.13 0 36-1.05 8.12-2.98 16.76-5.07 24.66"/>
            <path d="m2103.5 353.45-6.11 8.65-.62-10.57z"/>
        </g>
        <g stroke="red" stroke-width="2" class="edge">
            <path fill="none" d="M2152.51 251.11c58.78 12 148.88 30.39 211.7 43.21"/>
            <path fill="red" d="m2363.16 290.53 9.09 5.43-10.49 1.43z"/>
        </g>
        <g stroke="#000" class="edge">
            <path fill="none" d="M2176.05 241.62c234.82 7.65 890.23 30.64 932.1 50.38 19.64 9.26 14.34 24.92 33 36 41.7 24.75 94.53 37.99 137.27 45.04"/>
            <path d="m3278.78 369.56 9.34 4.99-10.42 1.92z"/>
        </g>
        <g stroke="#000" class="edge">
            <path fill="none" d="M2169.57 245.86c88.21 8.45 237.46 24.41 364.58 46.14 119.65 20.45 257.48 53.17 336.12 72.72"/>
            <path d="m2871.11 361.33 8.85 5.81-10.55.98z"/>
        </g>
        <g stroke="#000" class="edge">
            <path fill="none" d="M2362.67 320.41c-21.72 2.64-45.56 5.38-67.52 7.59-211.95 21.34-463.18 39.75-583.63 48.15"/>
            <path d="m1712.01 379.62-10.22-2.8 9.73-4.18z"/>
        </g>
        <g stroke="#000" class="edge">
            <path fill="none" d="M2478.03 326.19c29.26 10.61 68.5 24.84 99.66 36.15"/>
            <path d="m2578.72 358.98 8.21 6.7-10.6-.11z"/>
        </g>
        <g stroke="#000" class="edge">
            <path fill="none" d="M2374.87 323.43c-61.19 12.42-154.93 31.44-217.73 44.18"/>
            <path d="m2158.16 370.98-10.5-1.44 9.1-5.42z"/>
        </g>
        <g stroke="red" stroke-width="2" class="edge">
            <path fill="none" d="M2518.11 317.24c175.44 13.37 585.39 44.59 758.1 57.75"/>
            <path fill="red" d="m3274.77 371.37 9.7 4.25-10.24 2.73z"/>
        </g>
        <g stroke="#000" class="edge">
            <path fill="none" d="M2507.51 321.03c91.61 12.88 250.18 35.17 346.06 48.64"/>
            <path d="m2854.03 366.2 9.41 4.86-10.39 2.07z"/>
        </g>
        <g stroke="#000" class="edge">
            <path fill="none" d="M2926.68 315.31c-249.62 12.75-981 50.09-1214.2 62"/>
            <path d="m1712.78 380.8-10.17-2.99 9.81-4z"/>
        </g>
        <g stroke="#000" class="edge">
            <path fill="none" d="M2947.22 322.72c-68.25 12.5-176.1 32.27-246.97 45.25"/>
            <path d="m2701.16 371.36-10.47-1.64 9.21-5.24z"/>
        </g>
        <g stroke="#000" class="edge">
            <path fill="none" d="M2947.09 322.69c-12.55 2-25.63 3.89-37.94 5.31-267.47 30.88-586.37 45.06-734.6 50.36"/>
            <path d="m2174.95 381.85-10.12-3.14 9.87-3.85z"/>
        </g>
        <g stroke="#000" class="edge">
            <path fill="none" d="M3071.86 323.35c61.23 12.46 155.43 31.63 218.19 44.4"/>
            <path d="m3290.41 364.25 9.1 5.43-10.49 1.43z"/>
        </g>
        <g stroke="#000" class="edge">
            <path fill="none" d="M2992.51 327.95c-9.38 8.53-20.94 19.04-31.29 28.44"/>
            <path d="m2963.76 358.81-9.75 4.14 5.04-9.32z"/>
        </g>
        <g stroke="#000" class="edge">
            <path fill="none" d="M2597.5 248.76c-189.4 26.16-706.5 97.59-890.91 123.06"/>
            <path d="m1707.33 375.25-10.38-2.09 9.42-4.84z"/>
        </g>
        <g stroke="#000" class="edge">
            <path fill="none" d="M2675.87 256.37c7.01 18.43 14.91 48.07 5.28 71.63-4.42 10.83-12.24 20.64-20.5 28.8"/>
            <path d="m2663.22 359.19-9.74 4.16 5.02-9.33z"/>
        </g>
        <g stroke="#000" class="edge">
            <path fill="none" d="M2654.54 256.2c-17.67 20.95-50.63 55.53-87.39 71.8-68.43 30.28-275.97 44.18-393.15 49.77"/>
            <path d="m2174.26 381.26-10.15-3.03 9.83-3.96z"/>
        </g>
        <g stroke="#000" class="edge">
            <path fill="none" d="M2620.37 253.42c-36.38 10.97-86.63 26.14-125.46 37.85"/>
            <path d="m2496.31 294.5-10.58-.46 8.56-6.24z"/>
        </g>
        <g stroke="#000" class="edge">
            <path fill="none" d="M2753.62 241.34c95.75 4.28 254.93 16.4 387.53 50.66 63.03 16.29 131.87 47.53 174 68.33"/>
            <path d="m3316.52 357.1 7.39 7.6-10.51-1.33z"/>
        </g>
        <g stroke="#000" class="edge">
            <path fill="none" d="M2698.67 255.29c48.2 25.73 141.98 75.79 195.5 104.37"/>
            <path d="m2895.49 356.39 7.17 7.8-10.47-1.62z"/>
        </g>
        <g stroke="#000" class="edge">
            <path fill="none" d="M3005.28 249.42c-137.91 23.21-459.42 77.26-471.13 78.58-158.63 17.89-637.99 41.18-821.47 49.7"/>
            <path d="m1712.95 381.19-10.15-3.03 9.82-3.96z"/>
        </g>
        <g stroke="#000" class="edge">
            <path fill="none" d="M3121.66 251.23c21.76 7.84 44.66 20.5 57.49 40.77 8.56 13.52 10.76 24.16 0 36-7.73 8.51-312.68 34.03-465.09 46.28"/>
            <path d="m2714.67 377.75-10.25-2.69 9.69-4.29z"/>
        </g>
        <g stroke="#000" class="edge">
            <path fill="none" d="M3019.35 252.55c-37.58 10.67-91.24 25.95-138.2 39.45-55.15 15.86-67.55 25.67-124 36-207.1 37.9-455.35 48.7-582.27 51.78"/>
            <path d="m2175.31 383.27-10.07-3.27 9.91-3.73z"/>
        </g>
        <g stroke="#000" class="edge">
            <path fill="none" d="M2996.94 246.32c-95.17 9.99-270.38 28.59-419.79 45.68-17.95 2.05-37.18 4.32-55.48 6.52"/>
            <path d="m2522.26 301.97-10.35-2.28 9.51-4.67z"/>
        </g>
        <g stroke="#000" class="edge">
            <path fill="none" d="M3126.63 250.14c76.7 14.48 200.76 38.33 204.52 41.86 16.35 15.31 22 40.48 23.76 60.15"/>
            <path d="m3358.4 351.86-2.93 10.18-4.06-9.78z"/>
        </g>
        <g stroke="#000" class="edge">
            <path fill="none" d="M3124.64 250.67c54.61 13.66 124.04 39.35 92.51 77.33-23.91 28.81-116.75 42.05-189.66 48.08"/>
            <path d="m3028.19 379.53-10.24-2.7 9.69-4.27z"/>
        </g>
        <g stroke="#000" class="edge">
            <path fill="none" d="M1042.57 171.31c-116.05 7.17-322.04 23.34-344.42 48.69-14.96 16.95-6.77 42.58 3.43 61.99"/>
            <path d="m704.5 280.03 1.91 10.42-8-6.95z"/>
        </g>
        <g stroke="#000" class="edge">
            <path fill="none" d="M1199.08 171.49c107.46 7.04 295.04 22.61 358.07 48.51 35.46 14.57 69.32 43.17 90.99 64.02"/>
            <path d="m1650.36 281.3 4.67 9.51-9.58-4.53z"/>
        </g>
        <g stroke="#000" class="edge">
            <path fill="none" d="M1039.44 167.2c-163.51 1.35-525.12 9.33-640.29 52.8-49.56 18.71-71.42 24.56-95 72-7.12 14.33-6.05 21.19 0 36 4.43 10.83 12.25 20.64 20.51 28.8"/>
            <path d="m326.81 354.02 5.02 9.33-9.74-4.16z"/>
        </g>
        <g stroke="#000" class="edge">
            <path fill="none" d="M1039.66 167.63C868.78 170.98 482.95 189.94 413.15 292c-9.03 13.21-10.48 23.91 0 36 37.89 43.7 202.41 52.24 298.84 53.4"/>
            <path d="m711.92 377.89 9.96 3.6-10.03 3.4z"/>
        </g>
        <g stroke="#000" class="edge">
            <path fill="none" d="M1112.63 184.31c-7.89 18.63-16.83 48.69-5.48 71.69 23.3 47.19 45.27 52.14 94 72 64.83 26.41 260.05 42.09 367.01 48.92"/>
            <path d="m1568.22 373.42 9.76 4.12-10.2 2.87z"/>
        </g>
        <g stroke="#000" class="edge">
            <path fill="none" d="M1199.47 171.39c115.04 7.26 318.56 23.51 340.68 48.61 17.3 19.62-2.09 45.84-21.93 64.73"/>
            <path d="m1520.69 287.22-9.76 4.1 5.07-9.3z"/>
        </g>
        <g stroke="#000" class="edge">
            <path fill="none" d="M1197.43 172.74c94.83 7.76 261.44 23.43 402.72 47.26 71.02 11.98 87.47 21.46 158 36 86.32 17.79 113.19 3.22 195 36 27.12 10.87 27.39 26.47 55 36 95.77 33.05 383.67 46.11 531.41 50.74"/>
            <path d="m2539.41 375.23 9.89 3.81-10.1 3.19z"/>
        </g>
        <g stroke="#000" class="edge">
            <path fill="none" d="M1120.39 184.39c.06 19.54 3.05 51.19 19.76 71.61 50.94 62.23 87.86 53.01 166 72 66.88 16.25 514.95 39.76 702.6 49.03"/>
            <path d="m2008.86 373.53 9.81 3.99-10.16 3z"/>
        </g>
        <g stroke="#000" class="edge">
            <path fill="none" d="M1040.05 168.49c-88.71 3.54-234.18 15.02-353.9 51.51-51.33 15.65-105.72 45.72-139.99 66.55"/>
            <path d="m548.26 289.36-10.35 2.27 6.68-8.23z"/>
        </g>
        <g stroke="#000" class="edge">
            <path fill="none" d="M1197.83 172.52c177.37 12.78 615.29 44.31 805.13 57.98"/>
            <path d="m2003.05 227 9.72 4.21-10.22 2.77z"/>
        </g>
        <g stroke="#000" class="edge">
            <path fill="none" d="M1508.3 170.84c-215.47 9.83-763.03 36.03-777.15 49.16-16.15 15.02-18.11 40.61-16.64 60.51"/>
            <path d="m717.97 279.9-2.4 10.32-4.56-9.56z"/>
        </g>
        <g stroke="#000" class="edge">
            <path fill="none" d="M1640.38 181.81c17.89 8.24 36.5 20.52 46.77 38.19 10.81 18.6 5.71 42.85-1.34 61.33"/>
            <path d="m1689.12 282.49-7.11 7.85.67-10.58z"/>
        </g>
        <g stroke="#000" class="edge">
            <path fill="none" d="M1508.14 170.88c-216.21 9.89-771.07 36.17-853.99 49.12-126.1 19.69-189.22-19.7-278 72-15.41 15.92-19.95 41.04-20.9 60.53"/>
            <path d="m358.76 352.36-3.67 9.94-3.33-10.06z"/>
        </g>
        <g stroke="#000" class="edge">
            <path fill="none" d="M1506.44 169.28c-92.57 4.25-242 16.33-366.29 50.72-122.9 34.01-257.34 104.6-320.44 139.92"/>
            <path d="m821.59 362.88-10.43 1.86 7-7.96z"/>
        </g>
        <g stroke="#000" class="edge">
            <path fill="none" d="M1513.48 173.75c-62.93 7.14-142.96 20.98-163.33 46.25-12.1 15.01-11.48 89.51 5 108 27.6 30.95 137.76 44.02 212.76 49.4"/>
            <path d="m1567.92 373.89 9.73 4.17-10.21 2.81z"/>
        </g>
        <g stroke="#000" class="edge">
            <path fill="none" d="M1593.89 184.33c-1.1 19.19-5.37 50.26-20.74 71.67-9.54 13.3-23.56 23.99-37.48 32.18"/>
            <path d="m1537.4 291.23-10.45 1.75 7.08-7.88z"/>
        </g>
        <g stroke="#000" class="edge">
            <path fill="none" d="M1637.43 182.03c93.71 31.95 322.93 106.89 520.72 145.97 132.65 26.21 289.07 40.61 384.09 47.56"/>
            <path d="m2542.28 372.05 9.73 4.21-10.23 2.78z"/>
        </g>
        <g stroke="#000" class="edge">
            <path fill="none" d="M1634.4 182.46c21.66 9.26 48.27 22.22 69.75 37.54 27.51 19.62 77.17 92.14 107 108 60.82 32.33 138.3 45.17 196.33 50.16"/>
            <path d="m2007.62 374.66 9.69 4.27-10.25 2.7z"/>
        </g>
        <g stroke="#000" class="edge">
            <path fill="none" d="M1508.2 170.92c-214.65 9.97-759.75 36.38-797.05 49.08-26.95 9.18-27.63 23.07-53 36-27.51 14.02-59.61 26.05-86.79 35.09"/>
            <path d="m572.47 294.41-10.6-.23 8.43-6.42z"/>
        </g>
        <g stroke="#000" class="edge">
            <path fill="none" d="M1665.65 177.03c91.93 12.9 251.14 35.23 347.16 48.7"/>
            <path d="m2013.28 222.26 9.42 4.86-10.39 2.07z"/>
        </g>
        <g stroke="#000" class="edge">
            <path fill="none" d="M1682.03 169.1c254.04 6.33 977.98 26.32 1082.12 50.9 38.35 9.05 44.19 21.99 81 36 34.53 13.14 73.88 25.8 105.61 35.45"/>
            <path d="m2951.63 288.06 8.56 6.24-10.58.46z"/>
        </g>
        <g class="node" transform="translate(4 400)">
            <ellipse cx="851.15" cy="-162" fill="none" stroke="#000" rx="115.33" ry="18"/>
            <text x="851.15" y="-156.95" font-family="Times,serif" font-size="14" text-anchor="middle">:app:core:calendar-compose</text>
        </g>
        <g stroke="#000" class="edge">
            <path fill="none" d="M1515.07 174.49c-133.14 12.61-402.15 38.09-552.34 52.32"/>
            <path d="m963.48 230.26-10.29-2.55 9.62-4.42z"/>
        </g>
        <g stroke="#000" class="edge">
            <path fill="none" d="M1161.17 247.97c-89.66 12.38-251.67 34.75-352.67 48.69"/>
            <path d="m808.99 300.13-10.39-2.1 9.43-4.83z"/>
        </g>
        <g stroke="#000" class="edge">
            <path fill="none" d="M1290.61 248.2c70.46 10.17 186.67 27.33 286.54 43.8 6.68 1.1 13.61 2.28 20.55 3.48"/>
            <path d="m1597.83 291.95 9.25 5.17-10.45 1.72z"/>
        </g>
        <g stroke="#000" class="edge">
            <path fill="none" d="M1176.05 252.08c-74.96 19.15-220.98 54.82-346.9 75.92-133.52 22.38-289.87 37.82-385.14 46.04"/>
            <path d="m444.47 377.51-10.26-2.63 9.66-4.34z"/>
        </g>
        <g stroke="#000" class="edge">
            <path fill="none" d="M1193.77 254.66c-41.03 19.35-114.26 52.3-179.62 73.34-56.44 18.17-122.54 32.68-169.54 41.89"/>
            <path d="m845.36 373.31-10.48-1.54 9.15-5.33z"/>
        </g>
        <g stroke="#000" class="edge">
            <path fill="none" d="M1216.73 256.36c-9.33 19.81-19.92 52.01-2.58 71.64 23.01 26.05 238.68 42.28 354.02 49.16"/>
            <path d="m1568.06 373.65 9.77 4.08-10.18 2.91z"/>
        </g>
        <g stroke="#000" class="edge">
            <path fill="none" d="M1275.43 252.17c43 11.48 105.56 28.2 151.71 40.53"/>
            <path d="m1427.98 289.3 8.76 5.96-10.56.8z"/>
        </g>
        <g stroke="#000" class="edge">
            <path fill="none" d="M1290.12 248.4c19.27 2.66 40.49 5.42 60.03 7.6 185.32 20.67 234.01 5.73 418 36 66.38 10.92 80.57 25.47 147 36 222.71 35.28 488.3 47.18 624.18 51.11"/>
            <path d="m2539.07 375.6 9.9 3.78-10.1 3.22z"/>
        </g>
        <g stroke="#000" class="edge">
            <path fill="none" d="M1248.9 255.65c30.13 21.05 85.73 56.45 139.25 72.35 58.17 17.28 448.02 39.59 620.82 48.77"/>
            <path d="m2008.96 373.26 9.81 4.03-10.18 2.96z"/>
        </g>
        <g stroke="#000" class="edge">
            <path fill="none" d="M1153.58 244.44C1013.97 255.05 712.65 278.6 609.15 292c-7.42.96-15.13 2.08-22.83 3.29"/>
            <path d="m587.01 298.72-10.43-1.87 9.31-5.04z"/>
        </g>
        <g stroke="#000" class="edge">
            <path fill="none" d="M1289.11 248.72c19.53 2.72 41.14 5.43 61.04 7.28 190.16 17.64 758.13 40.5 987.91 49.31"/>
            <path d="m2338.03 301.81 9.86 3.88-10.13 3.12z"/>
        </g>
        <g stroke="#000" class="edge">
            <path fill="none" d="M1374.12 248.59c-20.02 2.56-41.83 5.22-61.97 7.41-171.84 18.65-372.22 35.55-490.53 45.03"/>
            <path d="m822.19 304.5-10.25-2.7 9.69-4.28z"/>
        </g>
        <g stroke="#000" class="edge">
            <path fill="none" d="M1492.19 253.5c35.46 10.94 84.28 25.99 122.13 37.66"/>
            <path d="m1615.21 287.78 8.52 6.29-10.58.4z"/>
        </g>
        <g stroke="#000" class="edge">
            <path fill="none" d="M1384.47 251.12c-95.91 18.79-288.57 55.06-453.32 76.88-171.26 22.68-372.51 38.85-485.77 46.99"/>
            <path d="m445.77 378.47-10.23-2.78 9.73-4.2z"/>
        </g>
        <g stroke="#000" class="edge">
            <path fill="none" d="M1410.02 254.88c-46.23 20.21-130.47 54.71-205.87 73.12-121.49 29.67-266.99 43.29-351.22 49.11"/>
            <path d="m853.18 380.6-10.21-2.82 9.74-4.16z"/>
        </g>
        <g stroke="#000" class="edge">
            <path fill="none" d="M1407.38 254.5c-15.73 8.56-32.37 20.89-41.23 37.5-7.52 14.12-10.18 23.66 0 36 25.14 30.46 129.38 43.62 201.78 49.16"/>
            <path d="m1568.03 373.66 9.72 4.22-10.22 2.76z"/>
        </g>
        <g stroke="#000" class="edge">
            <path fill="none" d="M1455.78 256.3c4.79 7.8 10.56 17.19 15.89 25.87"/>
            <path d="m1474.6 280.25 2.26 10.36-8.22-6.69z"/>
        </g>
        <g stroke="#000" class="edge">
            <path fill="none" d="M1521.69 246.57c128.5 12.86 375.46 38.28 393.46 45.43 24.79 9.84 23.06 26.57 48 36 102.87 38.89 418.78 49.25 575.66 52"/>
            <path d="m2538.83 376.5 9.94 3.67-10.05 3.33z"/>
        </g>
        <g stroke="#000" class="edge">
            <path fill="none" d="M1425.55 255.72c-20.24 19.21-46.25 50.84-26.4 72.28 20.44 22.06 429.75 41.94 609.06 49.63"/>
            <path d="m2008.33 374.13 9.84 3.92-10.14 3.07z"/>
        </g>
        <g stroke="#000" class="edge">
            <path fill="none" d="M1375.55 248.91c-20.4 2.63-42.76 5.25-63.4 7.09-311.61 27.85-392.08 1.2-703 36-7.69.86-15.7 1.94-23.68 3.14"/>
            <path d="m586.17 298.57-10.42-1.9 9.34-5.01z"/>
        </g>
        <g stroke="#000" class="edge">
            <path fill="none" d="M1525.83 244.7c181.8 12.84 622.68 43.98 816.39 57.66"/>
            <path d="m2342.26 298.86 9.73 4.19-10.23 2.79z"/>
        </g>
        <g stroke="#000" class="edge">
            <path fill="none" d="M3634.57 248.3c84.09 10.13 202.66 27.11 216.58 43.7 10.29 12.26 10.7 24.1 0 36-27.12 30.18-280.36 44.57-414.1 50.12"/>
            <path d="m3437.31 381.62-10.13-3.09 9.85-3.91z"/>
        </g>
        <g stroke="#000" class="edge">
            <path fill="none" d="M3752.82 246.21c-27.44 3.42-61.27 7.29-91.67 9.79-165.63 13.62-585.3-2.4-747 36-38.32 9.1-42.77 26.45-81 36-122.71 30.65-492.03 45.43-658.74 50.67"/>
            <path d="m2174.86 382.16-10.1-3.19 9.89-3.8z"/>
        </g>
        <g stroke="#000" class="edge">
            <path fill="none" d="M4105.2 322.7c-14.63 1.93-29.78 3.79-44.05 5.3-226.25 23.98-494.42 40.99-625.61 48.57"/>
            <path d="m3436.12 380.05-10.18-2.92 9.78-4.07z"/>
        </g>
        <g stroke="#000" class="edge">
            <path fill="none" d="M822.92 255.59c-18.46 9.5-41.84 21.53-61.73 31.77"/>
            <path d="m762.99 290.37-10.49 1.47 7.29-7.69z"/>
        </g>
        <g stroke="#000" class="edge">
            <path fill="none" d="M741.85 241.72c-112.5 4.61-275.62 16.99-328.7 50.28-22.42 14.07-37.68 40.55-46.72 60.98"/>
            <path d="m369.68 354.29-7.06 7.91.59-10.58z"/>
        </g>
        <g stroke="#000" class="edge">
            <path fill="none" d="M852.39 256.24c-3.48 18.58-10.59 48.59-23.24 71.76-5.54 10.16-13.3 20.08-20.88 28.53"/>
            <path d="m810.98 358.76-9.39 4.9 4.29-9.68z"/>
        </g>
        <g stroke="#000" class="edge">
            <path fill="none" d="M895.59 255.24c54.2 20.95 153.89 56.61 242.56 72.76 42.47 7.73 647.21 37.99 870.74 48.98"/>
            <path d="m2008.87 373.48 9.82 3.98-10.16 3.01z"/>
        </g>
    </g>
</svg>
