<svg xmlns="http://www.w3.org/2000/svg" width="7357pt" height="620pt" viewBox="0 0 7356.58 620">
    <g class="graph">
        <path fill="#fff" d="M0 620V0h7356.58v620z"/>
        <g class="node" transform="translate(4 616)">
            <ellipse cx="548.58" cy="-594" fill="none" stroke="#000" rx="78.99" ry="18"/>
            <text x="548.58" y="-588.95" font-family="Times,serif" font-size="14" text-anchor="middle">:app:platform:jvm</text>
        </g>
        <g class="node" transform="translate(4 616)">
            <ellipse cx="3623.58" cy="-522" fill="none" stroke="#000" rx="97.41" ry="18"/>
            <text x="3623.58" y="-516.95" font-family="Times,serif" font-size="14" text-anchor="middle">:app:platform:common</text>
        </g>
        <g stroke="red" stroke-width="2" class="edge">
            <path fill="none" d="M630.9 24.78c419.89 9.56 2403.34 54.71 2889.11 65.77"/>
            <path fill="red" d="m3518.26 87.01 9.91 3.73-10.07 3.27z"/>
        </g>
        <g class="node" transform="translate(4 616)">
            <ellipse cx="643.58" cy="-450" fill="none" stroke="#000" rx="86.15" ry="18"/>
            <text x="643.58" y="-444.95" font-family="Times,serif" font-size="14" text-anchor="middle">:app:core:coroutines</text>
        </g>
        <g stroke="#000" class="edge">
            <path fill="none" d="M564.04 40.13c16.33 24.41 46.46 69.44 65.72 98.23"/>
            <path d="m632.59 136.3 2.65 10.25-8.47-6.36z"/>
        </g>
        <g class="node" transform="translate(4 616)">
            <ellipse cx="1944.58" cy="-162" fill="none" stroke="#000" rx="95.88" ry="18"/>
            <text x="1944.58" y="-156.95" font-family="Times,serif" font-size="14" text-anchor="middle">:app:core:diary-service</text>
        </g>
        <g stroke="#000" class="edge">
            <path fill="none" d="M546.05 40.32c-11.01 32.53-28.83 103.12 6.53 143.68 192.96 221.32 1046.78 47.88 1309 180 28.65 14.44 53.34 42.07 69.01 62.73"/>
            <path d="m1933.36 424.59 3.09 10.13-8.73-5.99z"/>
        </g>
        <g class="node" transform="translate(4 616)">
            <ellipse cx="104.58" cy="-162" fill="none" stroke="#000" rx="104.58" ry="18"/>
            <text x="104.58" y="-156.95" font-family="Times,serif" font-size="14" text-anchor="middle">:app:core:holiday-service</text>
        </g>
        <g stroke="#000" class="edge">
            <path fill="none" d="M488.34 32.83C377.86 51.56 163.58 96.7 163.58 165v146c0 42.43-21.62 87.47-37.75 115.17"/>
            <path d="m128.91 427.84-8.15 6.76 2.16-10.37z"/>
        </g>
        <g class="node" transform="translate(4 616)">
            <ellipse cx="566.58" cy="-162" fill="none" stroke="#000" rx="80.01" ry="18"/>
            <text x="566.58" y="-156.95" font-family="Times,serif" font-size="14" text-anchor="middle">:library:koin-room</text>
        </g>
        <g stroke="#000" class="edge">
            <path fill="none" d="M505.71 36.9C451.78 56.13 370.58 96.47 370.58 165v146c0 46.97 20.42 59.54 57 89 21.74 17.51 49.83 29.59 75.35 37.74"/>
            <path d="m503.68 434.31 8.56 6.25-10.59.45z"/>
        </g>
        <g class="node" transform="translate(4 616)">
            <ellipse cx="7125.58" cy="-162" fill="none" stroke="#000" rx="93.32" ry="18"/>
            <text x="7125.58" y="-156.95" font-family="Times,serif" font-size="14" text-anchor="middle">:library:koin-datastore</text>
        </g>
        <g stroke="#000" class="edge">
            <path fill="none" d="M631.74 23.59C1388.43 29.32 7314.58 77.06 7314.58 165v146c0 40.45 8.15 59.02-19 89-19.37 21.38-47.33 34.18-74.81 41.84"/>
            <path d="m7221.9 445.16-10.55-.92 8.82-5.86z"/>
        </g>
        <g stroke="#000" class="edge">
            <path fill="none" d="M3529.97 94.83c-437.98-.47-2224.74.94-2782.39 53.17-8.75.82-17.9 1.97-26.94 3.28"/>
            <path d="m721.18 154.74-10.42-1.94 9.36-4.98z"/>
        </g>
        <g stroke="#000" class="edge">
            <path fill="none" d="M3530.13 95.58c-290.4 2.18-1137.08 11.97-1254.55 52.42-155.35 53.49-204.45 82.34-300 216-12.79 17.89-19.61 41.93-23.2 60.51"/>
            <path d="m1955.84 425.05-5.12 9.28-1.78-10.45z"/>
        </g>
        <g stroke="#000" class="edge">
            <path fill="none" d="M3530.17 95.4c-441.43 2.04-2243.48 12.74-2492.59 52.6-351.29 56.22-750.02 224.8-883.08 284.09"/>
            <path d="m156.22 435.16-10.56.89 7.7-7.28z"/>
        </g>
        <g class="node" transform="translate(4 616)">
            <ellipse cx="4847.58" cy="-306" fill="none" stroke="#000" rx="81.04" ry="18"/>
            <text x="4847.58" y="-300.95" font-family="Times,serif" font-size="14" text-anchor="middle">:app:core:compose</text>
        </g>
        <g stroke="#000" class="edge">
            <path fill="none" d="M3725.13 95.44c168.12 1.9 522.95 11.02 819.45 52.56 144.8 20.29 229.62-42.14 321 72 13.79 17.23 8.13 42.5.27 61.72"/>
            <path d="m4869.15 282.9-7.3 7.67.92-10.55z"/>
        </g>
        <g class="node" transform="translate(4 616)">
            <ellipse cx="4941.58" cy="-234" fill="none" stroke="#000" rx="101" ry="18"/>
            <text x="4941.58" y="-228.95" font-family="Times,serif" font-size="14" text-anchor="middle">:app:core:design-system</text>
        </g>
        <g stroke="#000" class="edge">
            <path fill="none" d="M3724.72 95.8c227.69 2.52 790.5 12.67 974.86 52.2 85.86 18.41 113.19 20.06 184 72 33.13 24.3 43.47 33.56 58 72 7.24 19.16 8.06 42.32 7.17 60.2"/>
            <path d="m4952.24 352.41-4.22 9.71-2.76-10.23z"/>
        </g>
        <g class="node" transform="translate(4 616)">
            <ellipse cx="5185.58" cy="-306" fill="none" stroke="#000" rx="86.67" ry="18"/>
            <text x="5185.58" y="-300.95" font-family="Times,serif" font-size="14" text-anchor="middle">:app:core:navigation</text>
        </g>
        <g stroke="#000" class="edge">
            <path fill="none" d="M3725.03 95.2c270.04 1.11 1024.06 8.25 1267.55 52.8 99.13 18.14 156.13-9.79 215 72 12.91 17.95 6.28 42.94-2.37 61.88"/>
            <path d="m5208.45 283.22-7.6 7.38 1.34-10.51z"/>
        </g>
        <g class="node" transform="translate(4 616)">
            <ellipse cx="5604.58" cy="-162" fill="none" stroke="#000" rx="59.54" ry="18"/>
            <text x="5604.58" y="-156.95" font-family="Times,serif" font-size="14" text-anchor="middle">:library:color</text>
        </g>
        <g stroke="#000" class="edge">
            <path fill="none" d="M3725.07 95.12c349.18.81 1536.59 6.97 1913.51 52.88 244.43 29.78 392.32-56.69 535 144 103.84 146.06-456.5 135.6-500 144-3.78.73-7.67 1.55-11.57 2.44"/>
            <path d="m5663.07 441.78-10.54-1.09 8.91-5.72z"/>
        </g>
        <g class="node" transform="translate(4 616)">
            <ellipse cx="5668.58" cy="-18" fill="none" stroke="#000" rx="62.1" ry="18"/>
            <text x="5668.58" y="-12.95" font-family="Times,serif" font-size="14" text-anchor="middle">:library:kotlin</text>
        </g>
        <g stroke="#000" class="edge">
            <path fill="none" d="M3724.45 96.16c547.65 6.58 3232.95 39.49 3273.13 51.84 180.39 55.46 355 44.27 355 233v74c0 81.9-1284.48 129.14-1607.15 139.72"/>
            <path d="m5745.99 598.2-10.11-3.17 9.88-3.82z"/>
        </g>
        <g class="node" transform="translate(4 616)">
            <ellipse cx="5604.58" cy="-306" fill="none" stroke="#000" rx="79.5" ry="18"/>
            <text x="5604.58" y="-300.95" font-family="Times,serif" font-size="14" text-anchor="middle">:library:navigation</text>
        </g>
        <g stroke="#000" class="edge">
            <path fill="none" d="M3724.89 95.71c367.93 2.96 1657.31 15.9 1736.69 52.29 61.64 28.26 109 95.82 131.88 133.83"/>
            <path d="m5596.45 280.01 2.04 10.39-8.08-6.85z"/>
        </g>
        <g class="node" transform="translate(4 616)">
            <ellipse cx="2438.58" cy="-18" fill="none" stroke="#000" rx="78.99" ry="18"/>
            <text x="2438.58" y="-12.95" font-family="Times,serif" font-size="14" text-anchor="middle">:library:coroutines</text>
        </g>
        <g stroke="#000" class="edge">
            <path fill="none" d="M3530.1 95.41c-331.78 1.76-1415.65 10.67-1761.52 52.59-185.97 22.54-412-98.33-412 89v74c0 33.24 121.35 213.04 157 233 71.88 40.24 619 50 838.4 52.31"/>
            <path d="m2351.96 592.81 9.96 3.6-10.03 3.4z"/>
        </g>
        <g class="node" transform="translate(4 616)">
            <ellipse cx="4780.58" cy="-18" fill="none" stroke="#000" rx="72.85" ry="18"/>
            <text x="4780.58" y="-12.95" font-family="Times,serif" font-size="14" text-anchor="middle">:library:datetime</text>
        </g>
        <g stroke="#000" class="edge">
            <path fill="none" d="M3724.72 96.26c488.1 6.41 2655.14 35.68 2796.86 51.74 190.89 21.63 423-103.12 423 89v74c0 40.45 10.64 61.48-19 89-21.62 20.07-1022.63 141.28-1052 144-373.89 34.62-822.22 47.41-1005.13 51.42"/>
            <path d="m4868.64 598.91-10.07-3.28 9.92-3.72z"/>
        </g>
        <g class="node" transform="translate(4 616)">
            <ellipse cx="5379.58" cy="-306" fill="none" stroke="#000" rx="89.23" ry="18"/>
            <text x="5379.58" y="-300.95" font-family="Times,serif" font-size="14" text-anchor="middle">:library:shimmer-m3</text>
        </g>
        <g stroke="#000" class="edge">
            <path fill="none" d="M3724.85 96.02c372.04 4.15 1685.61 20.96 1715.73 51.98 36.6 37.69-4.76 100.32-33.7 135.32"/>
            <path d="m5409.61 285.51-9.15 5.34 3.82-9.88z"/>
        </g>
        <g class="node" transform="translate(4 616)">
            <ellipse cx="2447.58" cy="-378" fill="none" stroke="#000" rx="71.31" ry="18"/>
            <text x="2447.58" y="-372.95" font-family="Times,serif" font-size="14" text-anchor="middle">:app:data:memo</text>
        </g>
        <g stroke="#000" class="edge">
            <path fill="none" d="M3530.06 95.62c-250.75 2.19-904.54 11.76-993.48 52.38-29.03 13.26-53.11 41.34-68.15 62.43"/>
            <path d="m2471.38 212.32-8.54 6.27 2.77-10.22z"/>
        </g>
        <g class="node" transform="translate(4 616)">
            <ellipse cx="2365.58" cy="-306" fill="none" stroke="#000" rx="58.52" ry="18"/>
            <text x="2365.58" y="-300.95" font-family="Times,serif" font-size="14" text-anchor="middle">:app:data:tag</text>
        </g>
        <g stroke="#000" class="edge">
            <path fill="none" d="M3530.9 96.71c-257.16 4.92-945.16 20.82-1043.32 51.29-57.95 17.99-85.91 19.31-116 72-10.37 18.17-10.34 42-8 60.43"/>
            <path d="m2367.01 279.73-1.88 10.43-5.03-9.33z"/>
        </g>
        <g class="node" transform="translate(4 616)">
            <ellipse cx="4448.58" cy="-162" fill="none" stroke="#000" rx="75.92" ry="18"/>
            <text x="4448.58" y="-156.95" font-family="Times,serif" font-size="14" text-anchor="middle">:app:data:account</text>
        </g>
        <g stroke="#000" class="edge">
            <path fill="none" d="M3709.4 104.08c55.19 7.76 129.01 21.35 191.18 43.92 210.15 76.3 436.26 224.93 519.16 281.96"/>
            <path d="m4421.64 427.03 6.24 8.56-10.22-2.81z"/>
        </g>
        <g class="node" transform="translate(4 616)">
            <ellipse cx="3344.58" cy="-378" fill="none" stroke="#000" rx="83.6" ry="18"/>
            <text x="3344.58" y="-372.95" font-family="Times,serif" font-size="14" text-anchor="middle">:app:data:credential</text>
        </g>
        <g stroke="#000" class="edge">
            <path fill="none" d="M3559.79 107.2c-35.28 8.2-78.23 21.18-113.21 40.8-29.69 16.65-57.82 43.82-76.26 63.76"/>
            <path d="m3373.11 213.89-9.3 5.07 4.11-9.76z"/>
        </g>
        <g class="node" transform="translate(4 616)">
            <ellipse cx="1493.58" cy="-234" fill="none" stroke="#000" rx="74.89" ry="18"/>
            <text x="1493.58" y="-228.95" font-family="Times,serif" font-size="14" text-anchor="middle">:app:data:holiday</text>
        </g>
        <g stroke="#000" class="edge">
            <path fill="none" d="M3530.17 95.71c-341.6 2.82-1473.06 14.92-1631.59 52.29-148.65 35.04-186.73 56.65-312 144-26 18.13-51.1 44.28-67.98 63.55"/>
            <path d="m1521.38 357.67-9.17 5.31 3.87-9.87z"/>
        </g>
        <g class="node" transform="translate(4 616)">
            <ellipse cx="1774.58" cy="-234" fill="none" stroke="#000" rx="73.87" ry="18"/>
            <text x="1774.58" y="-228.95" font-family="Times,serif" font-size="14" text-anchor="middle">:app:data:backup</text>
        </g>
        <g stroke="#000" class="edge">
            <path fill="none" d="M3530.43 95.85c-346.79 3.32-1506.95 17.02-1577.85 52.15-87.24 43.23-141.78 153.55-163.39 205.35"/>
            <path d="m1792.54 354.41-7 7.95.52-10.59z"/>
        </g>
        <g class="node" transform="translate(4 616)">
            <ellipse cx="1906.58" cy="-306" fill="none" stroke="#000" rx="65.68" ry="18"/>
            <text x="1906.58" y="-300.95" font-family="Times,serif" font-size="14" text-anchor="middle">:app:data:fetch</text>
        </g>
        <g stroke="#000" class="edge">
            <path fill="none" d="M3529.99 95.41c-342.77 1.8-1474.5 10.89-1539.41 52.59-46.21 29.68-66.69 94.62-74.98 132.33"/>
            <path d="m1919.04 280.95-5.42 9.1-1.43-10.49z"/>
        </g>
        <g class="node" transform="translate(4 616)">
            <ellipse cx="2960.58" cy="-234" fill="none" stroke="#000" rx="62.1" ry="18"/>
            <text x="2960.58" y="-228.95" font-family="Times,serif" font-size="14" text-anchor="middle">:app:data:fcm</text>
        </g>
        <g stroke="#000" class="edge">
            <path fill="none" d="M3531 97.04c-230.26 5.34-794.51 21.4-822.42 50.96-56.13 59.46-26.5 129.75 38 180 41.21 32.11 99.09 45.12 144.85 50.23"/>
            <path d="m2891.67 374.74 9.61 4.48-10.3 2.48z"/>
        </g>
        <g class="node" transform="translate(4 616)">
            <ellipse cx="3676.58" cy="-450" fill="none" stroke="#000" rx="78.48" ry="18"/>
            <text x="3676.58" y="-444.95" font-family="Times,serif" font-size="14" text-anchor="middle">:app:data:calendar</text>
        </g>
        <g stroke="red" stroke-width="2" class="edge">
            <path fill="none" d="M3640.68 112.3c6.03 7.97 13.32 17.6 20.01 26.44"/>
            <path fill="red" d="m3662.56 135.4 3.24 10.08-8.83-5.86z"/>
        </g>
        <g class="node" transform="translate(4 616)">
            <ellipse cx="2468.58" cy="-234" fill="none" stroke="#000" rx="70.29" ry="18"/>
            <text x="2468.58" y="-228.95" font-family="Times,serif" font-size="14" text-anchor="middle">:app:data:buddy</text>
        </g>
        <g stroke="#000" class="edge">
            <path fill="none" d="M3530.89 96.77c-281.74 5.47-1085.25 23.44-1134.31 51.23-78.71 44.58-148.67 107.18-95 180 20.96 28.44 57.01 42.07 90.62 48.44"/>
            <path d="m2392.71 372.97 9.28 5.11-10.44 1.8z"/>
        </g>
        <g class="node" transform="translate(4 616)">
            <ellipse cx="3942.58" cy="-306" fill="none" stroke="#000" rx="84.11" ry="18"/>
            <text x="3942.58" y="-300.95" font-family="Times,serif" font-size="14" text-anchor="middle">:app:domain:memo</text>
        </g>
        <g stroke="#000" class="edge">
            <path fill="none" d="M3710.41 103.78c45.64 7.3 102.18 20.51 148.17 44.22 42.81 22.07 59.56 28.87 81 72 9.24 18.58 10.73 42.07 10.05 60.25"/>
            <path d="m3953.13 280.33-4.13 9.76-2.86-10.21z"/>
        </g>
        <g class="node" transform="translate(4 616)">
            <ellipse cx="3803.58" cy="-234" fill="none" stroke="#000" rx="71.31" ry="18"/>
            <text x="3803.58" y="-228.95" font-family="Times,serif" font-size="14" text-anchor="middle">:app:domain:tag</text>
        </g>
        <g stroke="#000" class="edge">
            <path fill="none" d="M3717.58 101.09c31.38 6.97 63.57 20.64 83 46.91 9.51 12.86 7.93 22.11 0 36-15.61 27.34-45.39 8.66-61 36-7.93 13.89-3.59 20.41 0 36 8.52 37.03 31.35 74.69 48.22 98.85"/>
            <path d="m3790.52 352.63 2.98 10.17-8.67-6.09z"/>
        </g>
        <g class="node" transform="translate(4 616)">
            <ellipse cx="4041.58" cy="-90" fill="none" stroke="#000" rx="88.71" ry="18"/>
            <text x="4041.58" y="-84.95" font-family="Times,serif" font-size="14" text-anchor="middle">:app:domain:account</text>
        </g>
        <g stroke="#000" class="edge">
            <path fill="none" d="M3702.26 105.78c24.97 7.56 50.25 20.41 65.32 42.22 9.09 13.17 6.12 21.22 0 36-8.66 20.91-27.05 15.22-36 36-31.65 73.5-38.86 107.97-4 180 22.47 46.42 44.55 49.6 91 72 26.51 12.79 96.2 28.16 151.43 39.04"/>
            <path d="m3970.57 507.59 9.14 5.35-10.48 1.52z"/>
        </g>
        <g class="node" transform="translate(4 616)">
            <ellipse cx="3370.58" cy="-306" fill="none" stroke="#000" rx="96.39" ry="18"/>
            <text x="3370.58" y="-300.95" font-family="Times,serif" font-size="14" text-anchor="middle">:app:domain:credential</text>
        </g>
        <g stroke="#000" class="edge">
            <path fill="none" d="M3560.7 107.41c-26.48 7.83-55.47 20.43-76.12 40.59-36.97 36.09-12.14 66.57-43 108-8.38 11.24-19.7 21.41-30.66 29.76"/>
            <path d="m3413.25 288.4-10.14 3.05 6.03-8.72z"/>
        </g>
        <g class="node" transform="translate(4 616)">
            <ellipse cx="3428.58" cy="-90" fill="none" stroke="#000" rx="87.69" ry="18"/>
            <text x="3428.58" y="-84.95" font-family="Times,serif" font-size="14" text-anchor="middle">:app:domain:holiday</text>
        </g>
        <g stroke="#000" class="edge">
            <path fill="none" d="M3613.18 111.9c-7.43 9.84-15.73 22.88-19.6 36.1-4.5 15.35-.63 20.01 0 36 1.27 32.05 39.23 262.33 20 288-7.15 9.54-64.76 25.38-113.09 37.27"/>
            <path d="m3501.41 512.65-10.55-1.04 8.89-5.77z"/>
        </g>
        <g class="node" transform="translate(4 616)">
            <ellipse cx="3513.58" cy="-162" fill="none" stroke="#000" rx="86.67" ry="18"/>
            <text x="3513.58" y="-156.95" font-family="Times,serif" font-size="14" text-anchor="middle">:app:domain:backup</text>
        </g>
        <g stroke="#000" class="edge">
            <path fill="none" d="M3597.41 111.59c-13.46 8.99-28.2 21.36-36.83 36.41-51.81 90.32-49.68 219.69-45.7 276.46"/>
            <path d="m3518.36 423.98-2.71 10.25-4.27-9.7z"/>
        </g>
        <g class="node" transform="translate(4 616)">
            <ellipse cx="3370.58" cy="-234" fill="none" stroke="#000" rx="78.48" ry="18"/>
            <text x="3370.58" y="-228.95" font-family="Times,serif" font-size="14" text-anchor="middle">:app:domain:fetch</text>
        </g>
        <g stroke="#000" class="edge">
            <path fill="none" d="M3577.67 109.86c-19.82 8.26-41.16 20.52-55.09 38.14-51.01 64.53 8.01 115.47-43 180-12.17 15.4-30.01 26.71-47.54 34.82"/>
            <path d="m3433.76 365.9-10.57.74 7.79-7.17z"/>
        </g>
        <g class="node" transform="translate(4 616)">
            <ellipse cx="2959.58" cy="-162" fill="none" stroke="#000" rx="74.89" ry="18"/>
            <text x="2959.58" y="-156.95" font-family="Times,serif" font-size="14" text-anchor="middle">:app:domain:fcm</text>
        </g>
        <g stroke="#000" class="edge">
            <path fill="none" d="M3531.38 97.05c-234.64 5.43-819.48 21.85-849.8 50.95-58.27 55.93-31.12 121.91 25 180 54.41 56.32 139.41 90.71 196.61 108.8"/>
            <path d="m2903.91 433.36 8.53 6.29-10.59.4z"/>
        </g>
        <g class="node" transform="translate(4 616)">
            <ellipse cx="3835.58" cy="-378" fill="none" stroke="#000" rx="91.27" ry="18"/>
            <text x="3835.58" y="-372.95" font-family="Times,serif" font-size="14" text-anchor="middle">:app:domain:calendar</text>
        </g>
        <g stroke="#000" class="edge">
            <path fill="none" d="M3706.8 104.78c52.73 8.31 115.26 22.28 131.78 43.22 13.24 16.78 12.46 41.4 8.95 60.5"/>
            <path d="m3850.99 209.06-5.57 9.02-1.26-10.52z"/>
        </g>
        <g class="node" transform="translate(4 616)">
            <ellipse cx="3249.58" cy="-162" fill="none" stroke="#000" rx="83.08" ry="18"/>
            <text x="3249.58" y="-156.95" font-family="Times,serif" font-size="14" text-anchor="middle">:app:domain:buddy</text>
        </g>
        <g stroke="#000" class="edge">
            <path fill="none" d="M3559.66 107.23c-98.17 19.33-271.57 60.18-304.08 112.77-39.52 63.94-22.72 157.82-10.54 204.49"/>
            <path d="m3248.4 423.52-.73 10.57-6.02-8.72z"/>
        </g>
        <g class="node" transform="translate(4 616)">
            <ellipse cx="2104.58" cy="-234" fill="none" stroke="#000" rx="123.52" ry="18"/>
            <text x="2104.58" y="-228.95" font-family="Times,serif" font-size="14" text-anchor="middle">:app:core:filter-database-room</text>
        </g>
        <g stroke="#000" class="edge">
            <path fill="none" d="M3529.86 94.91c-281.92.31-1083.52 5.42-1191.28 53.09-100.67 44.53-180.65 155.02-213.63 206.2"/>
            <path d="m2127.92 356.04-8.3 6.57 2.39-10.32z"/>
        </g>
        <g class="node" transform="translate(4 616)">
            <ellipse cx="1116.58" cy="-234" fill="none" stroke="#000" rx="132.22" ry="18"/>
            <text x="1116.58" y="-228.95" font-family="Times,serif" font-size="14" text-anchor="middle">:app:core:backup-database-room</text>
        </g>
        <g stroke="#000" class="edge">
            <path fill="none" d="M3529.93 95.18c-423.68 1.05-2086.08 8.03-2187.35 52.82-98.96 43.76-175.24 154.65-206.52 206.06"/>
            <path d="m1139.15 355.71-8.13 6.79 2.12-10.38z"/>
        </g>
        <g class="node" transform="translate(4 616)">
            <ellipse cx="6754.58" cy="-234" fill="none" stroke="#000" rx="158.32" ry="18"/>
            <text x="6754.58" y="-228.95" font-family="Times,serif" font-size="14" text-anchor="middle">:app:core:account-preferences-datastore</text>
        </g>
        <g stroke="#000" class="edge">
            <path fill="none" d="M3724.97 95.03c484.38.38 2616.1 4.8 2747.61 52.97 117.19 42.93 221.69 155.51 264.91 206.83"/>
            <path d="m6740.17 352.58 3.7 9.93-9.08-5.46z"/>
        </g>
        <g class="node" transform="translate(4 616)">
            <ellipse cx="557.58" cy="-234" fill="none" stroke="#000" rx="124.54" ry="18"/>
            <text x="557.58" y="-228.95" font-family="Times,serif" font-size="14" text-anchor="middle">:app:core:diary-database-room</text>
        </g>
        <g stroke="#000" class="edge">
            <path fill="none" d="M3530.03 95.15c-426.94.94-2120.07 7.51-2353.45 52.85-224.93 43.7-475.15 162.07-572.78 211.19"/>
            <path d="m605.6 362.2-10.5 1.39 7.34-7.64z"/>
        </g>
        <g class="node" transform="translate(4 616)">
            <ellipse cx="7125.58" cy="-234" fill="none" stroke="#000" rx="157.3" ry="18"/>
            <text x="7125.58" y="-228.95" font-family="Times,serif" font-size="14" text-anchor="middle">:app:core:holiday-preferences-datastore</text>
        </g>
        <g stroke="#000" class="edge">
            <path fill="none" d="M3724.9 95.36c541.35 2.16 3159.97 14.57 3233.68 52.64 85.76 44.3 139.2 153.6 160.46 205.19"/>
            <path d="m7122.16 351.58.47 10.58-6.97-7.98z"/>
        </g>
        <g class="node" transform="translate(4 616)">
            <ellipse cx="833.58" cy="-234" fill="none" stroke="#000" rx="133.24" ry="18"/>
            <text x="833.58" y="-228.95" font-family="Times,serif" font-size="14" text-anchor="middle">:app:core:holiday-database-room</text>
        </g>
        <g stroke="#000" class="edge">
            <path fill="none" d="M3529.86 94.57c-416.19-1.48-2029.62-3.45-2249.28 53.43-166.72 43.17-340.79 159.14-410.93 209.32"/>
            <path d="m871.85 360.05-10.16 3.01 6.06-8.69z"/>
        </g>
        <g class="node" transform="translate(4 616)">
            <ellipse cx="4599.58" cy="-378" fill="none" stroke="#000" rx="81.55" ry="18"/>
            <text x="4599.58" y="-372.95" font-family="Times,serif" font-size="14" text-anchor="middle">:app:feature:memo</text>
        </g>
        <g stroke="#000" class="edge">
            <path fill="none" d="M3723.28 97.82c175.36 5.81 541.54 21.07 665.3 50.18 63.62 14.96 132.7 46.56 174.93 67.79"/>
            <path d="m4564.97 212.61 7.33 7.65-10.5-1.41z"/>
        </g>
        <g class="node" transform="translate(4 616)">
            <ellipse cx="4431.58" cy="-378" fill="none" stroke="#000" rx="68.75" ry="18"/>
            <text x="4431.58" y="-372.95" font-family="Times,serif" font-size="14" text-anchor="middle">:app:feature:tag</text>
        </g>
        <g stroke="#000" class="edge">
            <path fill="none" d="M3722.71 98.09c183.77 6.54 574.45 23.37 629.87 49.91 28.46 13.63 51.96 41.65 66.6 62.63"/>
            <path d="m4421.95 208.47 2.67 10.25-8.48-6.35z"/>
        </g>
        <g class="node" transform="translate(4 616)">
            <ellipse cx="5338.58" cy="-450" fill="none" stroke="#000" rx="88.71" ry="18"/>
            <text x="5338.58" y="-444.95" font-family="Times,serif" font-size="14" text-anchor="middle">:app:feature:calendar</text>
        </g>
        <g stroke="#000" class="edge">
            <path fill="none" d="M3724.42 96.52c301.13 5 1218.64 22.26 1515.16 51.48 9.04.89 18.49 2.08 27.84 3.43"/>
            <path d="m5267.88 147.96 9.36 4.95-10.4 1.97z"/>
        </g>
        <g class="node" transform="translate(4 616)">
            <ellipse cx="5731.58" cy="-378" fill="none" stroke="#000" rx="80.52" ry="18"/>
            <text x="5731.58" y="-372.95" font-family="Times,serif" font-size="14" text-anchor="middle">:app:feature:buddy</text>
        </g>
        <g stroke="#000" class="edge">
            <path fill="none" d="M3725.34 94.77c371.14-.5 1681.07 1.46 1860.24 53.23 45.74 13.22 91.87 43.77 120.67 65.38"/>
            <path d="m5708.31 210.55 5.81 8.86-10.07-3.3z"/>
        </g>
        <g class="node" transform="translate(4 616)">
            <ellipse cx="4775.58" cy="-378" fill="none" stroke="#000" rx="76.94" ry="18"/>
            <text x="4775.58" y="-372.95" font-family="Times,serif" font-size="14" text-anchor="middle">:app:feature:more</text>
        </g>
        <g stroke="#000" class="edge">
            <path fill="none" d="M3725.27 94.9c155.32 1.26 467.69 9.62 728.31 53.1 98.19 16.38 209.44 50.15 273.3 71.06"/>
            <path d="m4727.63 215.62 8.4 6.46-10.59.19z"/>
        </g>
        <g class="node" transform="translate(4 616)">
            <ellipse cx="5108.58" cy="-378" fill="none" stroke="#000" rx="86.15" ry="18"/>
            <text x="5108.58" y="-372.95" font-family="Times,serif" font-size="14" text-anchor="middle">:app:feature:account</text>
        </g>
        <g stroke="#000" class="edge">
            <path fill="none" d="M3724.44 96.55c283.03 4.85 1096.09 21.28 1212.14 51.45 52.78 13.72 108.01 44.82 142.22 66.36"/>
            <path d="m5080.48 211.28 6.53 8.34-10.31-2.44z"/>
        </g>
        <g class="node" transform="translate(4 616)">
            <ellipse cx="5072.58" cy="-162" fill="none" stroke="#000" rx="112.26" ry="18"/>
            <text x="5072.58" y="-156.95" font-family="Times,serif" font-size="14" text-anchor="middle">:library:firebase-messaging</text>
        </g>
        <g stroke="#000" class="edge">
            <path fill="none" d="M3712.89 103.05c67.35 7.71 163.23 21.67 244.69 44.95 158.97 45.43 191.08 78.77 343 144 54.86 23.56 188.17 93.16 246 108 174.61 44.82 224.85 15.94 404 36 10.5 1.18 21.48 2.51 32.39 3.89"/>
            <path d="m4983.33 436.41 9.47 4.75-10.37 2.19z"/>
        </g>
        <g class="node" transform="translate(4 616)">
            <ellipse cx="1706.58" cy="-18" fill="none" stroke="#000" rx="71.31" ry="18"/>
            <text x="1706.58" y="-12.95" font-family="Times,serif" font-size="14" text-anchor="middle">:app:core:model</text>
        </g>
        <g stroke="#000" class="edge">
            <path fill="none" d="M1920.81 471.57c-43.04 25.68-125.88 75.11-173.72 103.65"/>
            <path d="m1749.12 578.08-10.38 2.12 6.79-8.13z"/>
        </g>
        <g class="node" transform="translate(4 616)">
            <ellipse cx="3312.58" cy="-18" fill="none" stroke="#000" rx="85.13" ry="18"/>
            <text x="3312.58" y="-12.95" font-family="Times,serif" font-size="14" text-anchor="middle">:common:exception</text>
        </g>
        <g stroke="#000" class="edge">
            <path fill="none" d="M2027.23 464.59c20.9 2.48 43.48 5.1 64.35 7.41 426 47.05 936.06 97.07 1137.26 116.55"/>
            <path d="m3229.08 585.06 9.62 4.45-10.3 2.52z"/>
        </g>
        <g class="node" transform="translate(4 616)">
            <ellipse cx="4326.58" cy="-90" fill="none" stroke="#000" rx="121.98" ry="18"/>
            <text x="4326.58" y="-84.95" font-family="Times,serif" font-size="14" text-anchor="middle">:app:core:account-preferences</text>
        </g>
        <g stroke="#000" class="edge">
            <path fill="none" d="M2024.14 465.43c21.73 2.6 45.49 5.08 67.44 6.57 910.04 61.92 1141.19-13.32 2052 36 25.52 1.38 52.95 3.51 78.72 5.8"/>
            <path d="m4222.47 510.3 9.64 4.39-10.27 2.58z"/>
        </g>
        <g class="node" transform="translate(4 616)">
            <ellipse cx="1944.58" cy="-90" fill="none" stroke="#000" rx="72.85" ry="18"/>
            <text x="1944.58" y="-84.95" font-family="Times,serif" font-size="14" text-anchor="middle">:common:model</text>
        </g>
        <g stroke="#000" class="edge">
            <path fill="none" d="M1948.58 472.3v24.16"/>
            <path d="m1952.08 496.38-3.5 10-3.5-10z"/>
        </g>
        <g stroke="#000" class="edge">
            <path fill="none" d="M147.33 471.09c52.96 21.14 151.42 57.39 239.25 72.91 240.12 42.44 990.47 50.93 1241.36 52.6"/>
            <path d="m1627.66 593.1 9.98 3.56-10.03 3.44z"/>
        </g>
        <g stroke="#000" class="edge">
            <path fill="none" d="M4873.86 327.59c11.88 8.85 26.71 19.89 39.8 29.64"/>
            <path d="m4915.67 354.36 5.93 8.78-10.12-3.17z"/>
        </g>
        <g stroke="#000" class="edge">
            <path fill="none" d="M5036.42 390.2c109.36 9.03 298.5 25.77 460.16 45.8 16.1 1.99 33.44 4.47 49.57 6.9"/>
            <path d="m5546.23 439.38 9.36 4.97-10.42 1.95z"/>
        </g>
        <g stroke="#000" class="edge">
            <path fill="none" d="M5043.03 387.04c131.67 6.48 352.86 21.36 377.55 48.96 10.67 11.92 2.06 20.13 0 36-4.26 32.82 6.33 50.7-19 72-39.95 33.6-374.4 46.72-533.51 51.1"/>
            <path d="m4868.53 598.59-10.09-3.23 9.9-3.77z"/>
        </g>
        <g stroke="#000" class="edge">
            <path fill="none" d="M5251.54 322.98c59.37 15.13 145.71 47.54 186.04 113.02 13.64 22.16-5.45 101.14-13 108-40.27 36.58-391.2 48.19-555.64 51.64"/>
            <path d="m4869.01 599.14-10.07-3.29 9.93-3.71z"/>
        </g>
        <g stroke="#000" class="edge">
            <path fill="none" d="M5626.33 327.83c30.35 30.81 85.73 97.43 51.25 144.17-8.04 10.9-219.7 69.44-233 72-204.16 39.25-449.25 49.49-575.55 52.13"/>
            <path d="m4869.13 599.62-10.07-3.3 9.93-3.69z"/>
        </g>
        <g stroke="#000" class="edge">
            <path fill="none" d="M5442.6 323.77c29.42 8.26 64.49 21.12 91.98 40.23 23.75 16.5 44.18 42.58 57.52 62.25"/>
            <path d="m5595.02 424.32 2.56 10.28-8.41-6.44z"/>
        </g>
        <g stroke="#000" class="edge">
            <path fill="none" d="M2379.78 238.16c-116.1.2-351.48 7.07-544.2 53.84-81.73 19.83-124.4 4.82-175 72-28.96 38.45-16.01 60.54-8 108 5.63 33.4-1.91 51.42 25 72 52.5 40.15 483.81 49.9 674.7 52.26"/>
            <path d="m2352.2 592.76 9.95 3.61-10.04 3.38z"/>
        </g>
        <g stroke="#000" class="edge">
            <path fill="none" d="M2522.4 240.76c303.56 7.6 1481.13 37.91 1517.18 51.24 24.02 8.88 23.3 22.4 45 36 31.5 19.74 115.05 62.54 151 72 111.16 29.25 420.03-27.27 516 36 42.13 27.78 41.8 94.02 37.57 132.32"/>
            <path d="m4792.63 568.71-4.75 9.48-2.2-10.37z"/>
        </g>
        <g stroke="#000" class="edge">
            <path fill="none" d="M2521.18 242.26c243.49 11.4 1057.16 49.5 1333.02 62.41"/>
            <path d="m3854.02 301.16 9.83 3.97-10.15 3.02z"/>
        </g>
        <g class="node" transform="translate(4 616)">
            <ellipse cx="328.58" cy="-162" fill="none" stroke="#000" rx="101.51" ry="18"/>
            <text x="328.58" y="-156.95" font-family="Times,serif" font-size="14" text-anchor="middle">:app:core:diary-database</text>
        </g>
        <g stroke="#000" class="edge">
            <path fill="none" d="M2380.93 240.88C2024.24 250.65 435.16 297.78 355.58 364c-17.45 14.52-22.61 40.39-23.75 60.51"/>
            <path d="m335.33 424.43-3.73 9.91-3.26-10.08z"/>
        </g>
        <g stroke="#000" class="edge">
            <path fill="none" d="M2311.87 313.43c-159.41 6.98-595.47 28.05-616.29 50.57-10.86 11.75-2.95 20.27 0 36 12.66 67.49.85 103.09 56 144 47.19 35.01 424.68 47.45 600.93 51.38"/>
            <path d="m2352.39 591.88 9.92 3.71-10.07 3.28z"/>
        </g>
        <g stroke="#000" class="edge">
            <path fill="none" d="M2428.3 311.57c167.14 2.1 659.67 11.56 1066.28 52.43 104.26 10.48 128.71 25.84 233 36 97.51 9.49 796.89-14.23 881 36 47.9 28.61 22.76 70.42 64 108 16.51 15.04 38.05 26.6 57.83 35.03"/>
            <path d="m4731.51 575.7 7.95 7-10.58-.51z"/>
        </g>
        <g stroke="#000" class="edge">
            <path fill="none" d="M2427.86 312.05c225.13 4.27 1038.23 21.47 1294.72 51.95 7.14.85 14.59 1.97 21.96 3.24"/>
            <path d="m3744.94 363.76 9.21 5.23-10.46 1.65z"/>
        </g>
        <g stroke="#000" class="edge">
            <path fill="none" d="M2312.02 313.93c-75.09 3.73-210.56 10.17-326.44 14.07-86.53 2.91-1478.17 2.49-1558 36-21.16 8.88-20.31 20.26-37 36-9.88 9.31-20.84 19.4-30.56 28.24"/>
            <path d="m362.4 430.81-9.76 4.13 5.06-9.31z"/>
        </g>
        <g stroke="#000" class="edge">
            <path fill="none" d="M4461.34 472.34c8.76 20.09 18.55 52.86.24 71.66-8.54 8.76-1538.4 42.57-1929.03 51.06"/>
            <path d="m2532.64 598.55-10.08-3.28 9.93-3.71z"/>
        </g>
        <g stroke="#000" class="edge">
            <path fill="none" d="M4464.84 471.99c15.66 20.39 44.72 54.07 77.74 72.01 49.7 27 112.2 40.25 161.23 46.75"/>
            <path d="m4704.02 587.25 9.49 4.71-10.36 2.23z"/>
        </g>
        <g stroke="#000" class="edge">
            <path fill="none" d="M4392.53 465.33c-71.56 12.3-191.25 32.89-269.65 46.37"/>
            <path d="m4123.57 515.14-10.45-1.76 9.26-5.14z"/>
        </g>
        <g stroke="#000" class="edge">
            <path fill="none" d="M4424.59 471.06c-16.31 9.36-37.12 21.3-55.01 31.56"/>
            <path d="m4371.44 505.59-10.42 1.94 6.94-8.01z"/>
        </g>
        <g stroke="#000" class="edge">
            <path fill="none" d="M3265.54 240.59c-122.72 3.54-359.34 14.92-556.96 51.41-56.43 10.42-68.01 23.42-124 36-98.38 22.1-131.18-3.4-224 36-24.55 10.42-23.38 25.76-48 36-24.77 10.3-173.83 29.91-273.36 42.17"/>
            <path d="m2039.8 445.63-10.35-2.26 9.5-4.69z"/>
        </g>
        <g stroke="#000" class="edge">
            <path fill="none" d="M3264.89 239.64c-141.21 2.22-435.34 11.82-680.31 52.36-30.84 5.1-242.79 60.87-272 72-33.06 12.6-37 26.23-71 36-85.35 24.52-338.1-29.56-398 36-22.24 24.34 11.84 99.04 23 108 37.07 29.77 334.53 44.5 486.82 50.15"/>
            <path d="m2353.18 590.64 9.86 3.86-10.12 3.13z"/>
        </g>
        <g stroke="#000" class="edge">
            <path fill="none" d="M3429.01 243.17c178.5 9.49 596.96 33.08 659.57 48.83 113.83 28.63 127.16 79.41 241 108 54.77 13.76 468.51-5.32 507 36 32.72 35.12 18.16 63.57 0 108-4.46 10.92-12.38 20.8-20.71 29"/>
            <path d="m4818.39 575.44-9.75 4.15 5.03-9.32z"/>
        </g>
        <g stroke="#000" class="edge">
            <path fill="none" d="M3355.01 256.3c2.8 7.55 6.15 16.58 9.29 25.02"/>
            <path d="m3367.5 279.88.2 10.6-6.76-8.16z"/>
        </g>
        <g stroke="#000" class="edge">
            <path fill="none" d="M3430.06 242.55c170.57 7.81 554.08 27.57 609.52 49.45 117.28 46.28 224.57 157.04 269.17 207.36"/>
            <path d="m4311.14 496.77 3.95 9.83-9.22-5.22z"/>
        </g>
        <g stroke="#000" class="edge">
            <path fill="none" d="M1427.4 388.74c-46.91 3.67-110.03 8.29-165.82 11.26-461.84 24.62-579.46-6.47-1040 36-9.3.86-19 1.97-28.64 3.23"/>
            <path d="m193.56 442.68-10.38-2.13 9.44-4.81z"/>
        </g>
        <g stroke="#000" class="edge">
            <path fill="none" d="M1496.75 400.3c-.58 33.81 3.54 108.4 47.83 143.7 31.29 24.93 587.97 43.91 808.8 50.49"/>
            <path d="m2353.19 590.98 9.89 3.8-10.1 3.2z"/>
        </g>
        <g stroke="#000" class="edge">
            <path fill="none" d="M1546.67 395.95c38.89 10.4 94.53 25.61 142.91 40.05 50.1 14.96 60.43 27.36 112 36 94.7 15.86 1640.51-3.58 1728 36 19.78 8.95 13.33 26.83 33 36 102.36 47.7 878.3 52.72 1137.78 53.06"/>
            <path d="m4700.07 593.56 10 3.51-10 3.49z"/>
        </g>
        <g stroke="#000" class="edge">
            <path fill="none" d="M1529.17 398.75c44.52 21.28 128.85 58.28 205.41 73.25 290.17 56.75 1034.53 25.18 1330 36 92.56 3.39 198.16 8.38 272.43 12.08"/>
            <path d="m3336.87 516.57 9.81 4-10.16 2.99z"/>
        </g>
        <g class="node" transform="translate(4 616)">
            <ellipse cx="4005.58" cy="-162" fill="none" stroke="#000" rx="120.96" ry="18"/>
            <text x="4005.58" y="-156.95" font-family="Times,serif" font-size="14" text-anchor="middle">:app:core:holiday-preferences</text>
        </g>
        <g stroke="#000" class="edge">
            <path fill="none" d="M1565.31 389.94c38.21 3.64 86.86 7.79 130.27 10.06 851.43 44.49 1065.81 9.71 1918 36 90.96 2.81 193.62 7.25 271.62 10.89"/>
            <path d="m3885.18 443.39 9.83 3.96-10.15 3.03z"/>
        </g>
        <g class="node" transform="translate(4 616)">
            <ellipse cx="812.58" cy="-162" fill="none" stroke="#000" rx="110.21" ry="18"/>
            <text x="812.58" y="-156.95" font-family="Times,serif" font-size="14" text-anchor="middle">:app:core:holiday-database</text>
        </g>
        <g stroke="#000" class="edge">
            <path fill="none" d="M1427.37 388.53c-106.49 8.64-315.15 26.54-491.79 47.47-9.24 1.09-18.86 2.32-28.46 3.61"/>
            <path d="m907.76 443.05-10.38-2.12 9.44-4.82z"/>
        </g>
        <g stroke="#000" class="edge">
            <path fill="none" d="M1815.05 398.02c24.72 10.18 57.67 23.74 84.66 34.86"/>
            <path d="m1900.79 429.54 7.91 7.04-10.57-.57z"/>
        </g>
        <g stroke="#000" class="edge">
            <path fill="none" d="M1771.01 400.25c-13.05 32.73-35.07 104.1 1.57 143.75 38.53 41.7 405.73 50.63 579.58 52.51"/>
            <path d="m2352.11 593.01 9.96 3.6-10.04 3.4z"/>
        </g>
        <g stroke="#000" class="edge">
            <path fill="none" d="M1785.39 400.18c9.47 21.25 28.84 56.52 58.19 71.82 169.41 88.3 1542.28-36.57 1719 36 21.52 8.84 16.59 26.91 38 36 100.32 42.6 845.56 50.99 1099.52 52.62"/>
            <path d="m4699.96 593.11 9.98 3.57-10.02 3.43z"/>
        </g>
        <g stroke="#000" class="edge">
            <path fill="none" d="M1845.98 389.82c38.02 3.6 86.41 7.75 129.6 10.18 608.14 34.2 762.09-1.98 1370 36 28.16 1.76 58.85 4.52 86.4 7.31"/>
            <path d="m3432.08 439.8 9.59 4.51-10.31 2.45z"/>
        </g>
        <g stroke="#000" class="edge">
            <path fill="none" d="M1711.17 389.71c-38.02 3.56-86.41 7.72-129.59 10.29-488.29 29.04-612.16.25-1100 36-18.58 1.36-38.41 3.29-57.35 5.36"/>
            <path d="m424.72 444.83-10.33-2.37 9.55-4.59z"/>
        </g>
        <g class="node" transform="translate(4 616)">
            <ellipse cx="1189.58" cy="-162" fill="none" stroke="#000" rx="109.19" ry="18"/>
            <text x="1189.58" y="-156.95" font-family="Times,serif" font-size="14" text-anchor="middle">:app:core:backup-database</text>
        </g>
        <g stroke="#000" class="edge">
            <path fill="none" d="M1713.46 390.79c-102.57 12.28-302.37 36.18-422.19 50.52"/>
            <path d="m1291.78 444.77-10.35-2.28 9.51-4.67z"/>
        </g>
        <g stroke="#000" class="edge">
            <path fill="none" d="M1915.24 328.41c6.44 24.09 18.15 67.84 25.84 96.56"/>
            <path d="m1944.41 423.86-.8 10.57-5.97-8.76z"/>
        </g>
        <g stroke="#000" class="edge">
            <path fill="none" d="M1849.46 316.95c-59.48 7.2-143.76 21.64-163.88 47.05-50.3 63.53-33.02 127.84 29 180 47.79 40.2 453.63 49.91 637.77 52.26"/>
            <path d="m2352.15 592.75 9.96 3.63-10.04 3.37z"/>
        </g>
        <g stroke="#000" class="edge">
            <path fill="none" d="M1974.91 314.04c77.48 3.61 211.58 9.67 326.67 13.96 64.43 2.4 1101.39 9.13 1160 36 19.73 9.05 13.28 26.93 33 36 107.86 49.63 962.39-18.26 1068 36 53.85 27.67 34.44 71.85 83 108 22.75 16.94 51.56 29.09 77.04 37.46"/>
            <path d="m4723.38 578.03 8.49 6.33-10.59.34z"/>
        </g>
        <g stroke="#000" class="edge">
            <path fill="none" d="M1974.95 313.96c172.08 7.94 657.09 30.42 1060.63 50.04 85.58 4.16 183.31 9.08 251.78 12.55"/>
            <path d="m3287.19 373.04 9.81 4-10.16 2.99z"/>
        </g>
        <g stroke="#000" class="edge">
            <path fill="none" d="M1844.71 311.66C1561.55 314.73 459.05 328.89 394.58 364c-24.22 13.19-41.02 40.42-50.97 61.31"/>
            <path d="m346.93 426.46-7.28 7.7.89-10.55z"/>
        </g>
        <g stroke="#000" class="edge">
            <path fill="none" d="M2903.37 385.5c-142.54 6.09-507.62 23.21-811.79 50.5-17.65 1.58-36.49 3.59-54.51 5.67"/>
            <path d="m2037.52 445.14-10.34-2.31 9.52-4.64z"/>
        </g>
        <g stroke="#000" class="edge">
            <path fill="none" d="M2919.36 394.71c-24.14 8.19-52.89 21.32-72.78 41.29-37.07 37.22-6.19 76.2-48 108-40.78 31.01-175.39 44.04-266.89 49.4"/>
            <path d="m2531.89 596.9-10.19-2.94 9.79-4.05z"/>
        </g>
        <g stroke="#000" class="edge">
            <path fill="none" d="M3025.84 385.8c76.3 4.77 210 17.42 319.74 50.2 35.81 10.7 40.03 25.84 76 36 142.4 40.23 186.18 5.57 331 36 52 10.93 61.74 26.39 114 36 158.75 29.18 639.52 45.33 834.5 50.83"/>
            <path d="m4700.98 591.32 9.9 3.78-10.1 3.22z"/>
        </g>
        <g stroke="#000" class="edge">
            <path fill="none" d="M2964.33 400.3c-.1 7.29-.23 15.97-.34 24.16"/>
            <path d="m2967.49 424.43-3.64 9.95-3.36-10.05z"/>
        </g>
        <g stroke="#000" class="edge">
            <path fill="none" d="M3024.98 386.61c64.88 3.77 171 9.66 262.6 13.39 555.33 22.61 694.47 19.24 1250 36 143.82 4.34 309.22 9.6 418.45 13.1"/>
            <path d="m4956.02 445.6 9.88 3.82-10.11 3.18z"/>
        </g>
        <g stroke="#000" class="edge">
            <path fill="none" d="M3602.55 168.59c-188.19 4.32-662.92 18.26-817.97 51.41-22.08 4.72-173.9 56.17-190 72-36.84 36.23-6.87 71.07-43 108-28.69 29.32-50.67 13.53-85 36-38.93 25.48-57.62 29.26-76 72-6.32 14.7-6.05 21.19 0 36 4.42 10.83 12.25 20.64 20.5 28.8"/>
            <path d="m2413.24 570.02 5.01 9.33-9.74-4.16z"/>
        </g>
        <g stroke="#000" class="edge">
            <path fill="none" d="M3739.07 178.42c52.56 10.4 131.83 26.4 200.51 41.58 135.15 29.88 175.21 18.81 303 72 28.01 11.66 30.87 22.42 58 36 39.26 19.66 52.59 16.64 92 36 27.91 13.71 30.39 26.5 60 36 94.68 30.38 378.58-37.08 446 36 10.1 10.95 15.09 81.81-2 108-11.36 17.4-30.1 29.22-49.02 37.19"/>
            <path d="m4849.07 584.35-10.59.33 8.07-6.86z"/>
        </g>
        <g stroke="red" stroke-width="2" class="edge">
            <path fill="none" d="M3715.87 182.54c22.73 10 52.54 23.13 77.2 33.98"/>
            <path fill="red" d="m3792.78 212.57 7.74 7.23-10.56-.82z"/>
        </g>
        <g class="node" transform="translate(4 616)">
            <ellipse cx="2196.58" cy="-162" fill="none" stroke="#000" rx="100.48" ry="18"/>
            <text x="2196.58" y="-156.95" font-family="Times,serif" font-size="14" text-anchor="middle">:app:core:filter-database</text>
        </g>
        <g stroke="#000" class="edge">
            <path fill="none" d="M3603 169.33c-193.23 6.13-692.29 24.1-856.42 50.67-120.9 19.57-157.4 15.37-266 72-22.1 11.52-21.66 23.13-43 36-36.19 21.82-50.2 17.11-88 36-40.32 20.15-84.4 47.14-114.07 66.09"/>
            <path d="m2237.6 432.91-10.3 2.47 6.52-8.36z"/>
        </g>
        <g stroke="#000" class="edge">
            <path fill="none" d="M2412.09 391.52c-19.62 2.74-41.48 5.76-61.51 8.48-107.93 14.63-232.24 30.94-313.71 41.55"/>
            <path d="m2037.54 444.99-10.37-2.18 9.46-4.76z"/>
        </g>
        <g stroke="#000" class="edge">
            <path fill="none" d="M2440.98 398.38c-16.52 9.2-36.21 22.12-50.4 37.62-24.43 26.69-29.3 36.88-38 72-3.85 15.53-7.94 22.11 0 36 8.26 14.45 22.17 25.36 36.62 33.4"/>
            <path d="m2390.56 574.16 7.32 7.67-10.5-1.43z"/>
        </g>
        <g stroke="#000" class="edge">
            <path fill="none" d="M2519.14 395.82c75.15 20.1 228.16 58.54 360.44 76.18 159.01 21.21 573.5-27.08 721 36 21.39 9.15 16.59 26.89 38 36 96.74 41.16 813.51 50.48 1061.7 52.48"/>
            <path d="m4700.26 592.98 9.97 3.58-10.03 3.42z"/>
        </g>
        <g stroke="#000" class="edge">
            <path fill="none" d="M2538.16 388.88c140.56 12.6 470.87 42.2 628.61 56.34"/>
            <path d="m3166.67 441.7 9.65 4.37-10.28 2.6z"/>
        </g>
        <g stroke="#000" class="edge">
            <path fill="none" d="M4012.09 321.57c119.83 18.91 382.52 58.43 605.49 78.43 339.02 30.4 428.74-16.78 765 36 15.12 2.37 255.18 61.17 266 72 15.83 15.84 21.52 40.96 23.43 60.48"/>
            <path d="m5675.49 568.06-2.82 10.21-4.16-9.74z"/>
        </g>
        <g stroke="#000" class="edge">
            <path fill="none" d="M3864.62 314.33c-243.81 9.99-948.98 39.69-971.04 49.67-20.33 9.2-56.5 54.23-70 72-33.62 44.25-17.26 76.44-63 108-36.74 25.35-151.14 39.68-232.17 46.89"/>
            <path d="m2528.98 594.35-10.26-2.62 9.66-4.35z"/>
        </g>
        <g stroke="#000" class="edge">
            <path fill="none" d="M3981.31 326.8c47.49 20.81 135.89 56.68 215.27 73.2 114.7 23.87 431.73-33.57 526 36 42.3 31.21 55.74 95.3 60.01 132.52"/>
            <path d="m4786.03 567.78-2.5 10.29-4.46-9.61z"/>
        </g>
        <g stroke="red" stroke-width="2" class="edge">
            <path fill="none" d="M3914.69 327.06c-19.7 9.92-45.17 22.75-66.33 33.4"/>
            <path fill="red" d="m3851.57 362.76-10.5 1.38 7.36-7.63z"/>
        </g>
        <g stroke="#000" class="edge">
            <path fill="none" d="M3961.69 328.17c18.05 19.63 49.97 51.66 82.89 71.83 38.5 23.59 69.35-1.16 95 36 9.09 13.17 8.07 22.18 0 36-8.45 14.46-22.45 25.28-37.11 33.24"/>
            <path d="m4104.15 508.32-10.51 1.32 7.4-7.59z"/>
        </g>
        <g stroke="#000" class="edge">
            <path fill="none" d="M3940.25 328.32c-8.55 20.72-25.88 54.74-52.67 71.68-44.47 28.12-181.06 41.88-275.22 48.19"/>
            <path d="m3612.81 451.67-10.21-2.84 9.75-4.15z"/>
        </g>
        <g stroke="#000" class="edge">
            <path fill="none" d="M3864.76 314.45c-93.22 3.82-250.15 9.92-385.18 13.55-57.38 1.54-2025.77-4.94-2066 36-60.64 61.7-52.84 72.42 100 180 35.06 24.68 81.01 37.87 119.71 44.92"/>
            <path d="m1633.76 585.45 9.27 5.12-10.44 1.78z"/>
        </g>
        <g stroke="#000" class="edge">
            <path fill="none" d="M3975.56 327.12c17.67 10.1 40.51 23.67 60.02 36.88 21.78 14.76 24.61 22.17 47 36 31.12 19.22 54.6 4.99 74 36 13.81 22.07-5.11 100.97-13 108-53.43 47.63-523.46 53.24-730.17 53.37"/>
            <path d="m3413.49 600.87-10-3.5 10-3.5z"/>
        </g>
        <g stroke="#000" class="edge">
            <path fill="none" d="M3876.25 387.18c63.4 3.76 160.19 9.22 244.33 12.82 255 10.92 898.58-18.18 1148 36 40.49 8.8 47.6 20.42 86 36 95.93 38.93 208.85 82.87 271.02 106.9"/>
            <path d="m5626.75 575.6 8.07 6.87-10.59-.34z"/>
        </g>
        <g stroke="#000" class="edge">
            <path fill="none" d="M3738.67 386.95c-173.81 10.11-618.36 36.99-648.09 49.05-23.1 9.37-22.32 22.09-43 36-56.76 38.16-70.66 51.81-136 72-127.52 39.41-282.62 50.12-378.59 52.71"/>
            <path d="m2533.18 600.2-10.09-3.26 9.92-3.74z"/>
        </g>
        <g stroke="#000" class="edge">
            <path fill="none" d="M3867.2 392.31c20.09 2.85 42.67 5.74 63.38 7.69 79.31 7.46 650.32-9.07 716 36 43.31 29.72 13.03 68.8 48 108 11.98 13.43 28.2 24.41 43.57 32.83"/>
            <path d="m4739.47 573.57 7.26 7.72-10.48-1.51z"/>
        </g>
        <g stroke="#000" class="edge">
            <path fill="none" d="M3810.53 400.42c4.35 20.18 14.41 53.02 36.05 71.58 18.5 15.87 73.72 29.86 121.32 39.48"/>
            <path d="m3968.56 508.05 9.13 5.37-10.49 1.49z"/>
        </g>
        <g stroke="red" stroke-width="2" class="edge">
            <path fill="none" d="M3757.4 395.11c-48.13 11.62-121.08 29.23-173.88 41.97"/>
            <path fill="red" d="m3586.06 440.07-10.54-1.06 8.9-5.74z"/>
        </g>
        <g stroke="#000" class="edge">
            <path fill="none" d="M3738.06 386.56C3537.03 396.9 2964 426.8 2879.58 436c-99.8 10.88-123.8 20.54-223 36-212.71 33.16-265.57 43.86-479 72-137.45 18.12-298.17 35.54-390.72 45.2"/>
            <path d="m1787.46 592.66-10.31-2.45 9.58-4.52z"/>
        </g>
        <g stroke="#000" class="edge">
            <path fill="none" d="M3787.08 399.71c-23.76 18.93-64.54 50.01-102.5 72.29-65.51 38.44-83.37 46.71-155 72-45.92 16.21-99.07 29.44-140.79 38.63"/>
            <path d="m3389.62 586.03-10.52-1.29 9.03-5.55z"/>
        </g>
        <g stroke="#000" class="edge">
            <path fill="none" d="M4119.5 536.28c25.35 2.89 53.92 5.81 80.08 7.72 535.98 39.17 1183.87 49.74 1399.36 52.28"/>
            <path d="m5598.92 592.78 9.96 3.61-10.04 3.38z"/>
        </g>
        <g stroke="#000" class="edge">
            <path fill="none" d="M3959.4 530.76c-277.74 12.13-1147.52 50.11-1428.4 62.38"/>
            <path d="m2531.31 596.63-10.14-3.06 9.84-3.93z"/>
        </g>
        <g stroke="#000" class="edge">
            <path fill="none" d="M4121.53 535.68c24.86 2.77 52.62 5.77 78.05 8.32 180.75 18.16 393.2 36.71 505.72 46.31"/>
            <path d="m4705.36 586.81 9.67 4.33-10.26 2.64z"/>
        </g>
        <g stroke="red" stroke-width="2" class="edge">
            <path fill="none" d="M3958.85 529.96c-102.53 3.47-278.31 9.35-429.27 14.04-670.6 20.82-1480.33 43.57-1736.91 50.72"/>
            <path fill="red" d="m1794.35 598.17-10.09-3.22 9.9-3.77z"/>
        </g>
        <g stroke="#000" class="edge">
            <path fill="none" d="M3966.87 534.56c-137.29 13.18-419.55 40.28-562.78 54.04"/>
            <path d="m3404.56 592.07-10.29-2.53 9.62-4.44z"/>
        </g>
        <g stroke="#000" class="edge">
            <path fill="none" d="M3463.76 317.14c124.4 8.85 357.03 26.37 554.82 46.86 128.31 13.29 159.41 25.71 288 36 112.93 9.04 910.74 2.59 1019 36 28.63 8.84 29.7 23.64 57 36 51.5 23.32 69.65 14.66 122 36 47.5 19.36 99.25 48.02 132.58 67.55"/>
            <path d="m5638.75 572.42 6.83 8.11-10.39-2.08z"/>
        </g>
        <g stroke="#000" class="edge">
            <path fill="none" d="M3279.78 313.48c-239.03 6.62-849.96 25.86-886.2 50.52-68.64 46.71-92.66 108.77-50 180 9.29 15.51 24.84 26.74 40.9 34.75"/>
            <path d="m2385.48 575.36 7.64 7.35-10.55-.98z"/>
        </g>
        <g stroke="#000" class="edge">
            <path fill="none" d="M3460.51 318.55c102.01 9.26 277.21 26.14 427.07 45.45 103.92 13.39 128.84 24.58 233 36 122.19 13.4 444.96-24.45 552 36 52.76 29.79 86.28 95.95 101.82 133.53"/>
            <path d="m4777.47 567.77.45 10.58-6.95-7.99z"/>
        </g>
        <g stroke="#000" class="edge">
            <path fill="none" d="M3408.93 327.14c17.14 9.18 37.41 21.84 52.65 36.86 18.13 17.87 33.12 42.67 43.01 61.55"/>
            <path d="m3507.61 423.77 1.39 10.5-7.63-7.34z"/>
        </g>
        <g stroke="#000" class="edge">
            <path fill="none" d="M3374.58 328.3v24.16"/>
            <path d="m3378.08 352.38-3.5 10-3.5-10z"/>
        </g>
        <g stroke="#000" class="edge">
            <path fill="none" d="M3330.2 326.33c-76.5 26.43-232.84 80.45-314.43 108.64"/>
            <path d="m3017.03 438.23-10.59-.04 8.31-6.57z"/>
        </g>
        <g stroke="#000" class="edge">
            <path fill="none" d="M3278.96 312.65c-395.25 6.94-1881.62 34.14-1898.38 51.35-15.41 15.82-41.18 122.27 12 180 31.04 33.7 152.45 45.97 235.94 50.44"/>
            <path d="m1628.45 590.93 9.81 4-10.16 2.99z"/>
        </g>
        <g stroke="#000" class="edge">
            <path fill="none" d="M3331.26 326.5c-16.75 8.37-34.15 20.54-43.68 37.5-7.84 13.95-7.78 22.02 0 36 14.75 26.51 43.25 9.49 58 36 7.78 13.98 5.57 21 0 36-7.35 19.79-23.65 16.21-31 36-7.16 19.28-6.33 42.57-3.89 60.48"/>
            <path d="m3314.11 567.72-1.85 10.43-5.06-9.3z"/>
        </g>
        <g stroke="#000" class="edge">
            <path fill="none" d="M3515.96 531.84c66.71 3.75 162.64 8.83 246.62 12.16 715.74 28.36 1582.94 46.59 1836.88 51.6"/>
            <path d="m5599.28 592.09 9.93 3.7-10.06 3.3z"/>
        </g>
        <g stroke="#000" class="edge">
            <path fill="none" d="M3355.52 534.87c-31.3 3.06-67.83 6.47-100.94 9.13-263.51 21.18-575.64 39.71-724.52 48.15"/>
            <path d="m2530.45 595.64-10.18-2.93 9.79-4.06z"/>
        </g>
        <g stroke="#000" class="edge">
            <path fill="none" d="M3496.08 538.82c12.71 2.02 26 3.88 38.5 5.18 436.83 45.49 963.42 52.18 1165.46 52.99"/>
            <path d="m4699.94 593.49 9.98 3.53-10.01 3.47z"/>
        </g>
        <g stroke="#000" class="edge">
            <path fill="none" d="M3347.19 530.47c-294.84 11.99-1267.68 51.53-1555.63 63.24"/>
            <path d="m1792.04 597.19-10.14-3.09 9.85-3.9z"/>
        </g>
        <g stroke="#000" class="edge">
            <path fill="none" d="M3405.38 543.41c-15.56 9.39-35.29 21.3-52.2 31.5"/>
            <path d="m3355.27 577.74-10.37 2.17 6.76-8.16z"/>
        </g>
        <g stroke="#000" class="edge">
            <path fill="none" d="M3579.35 466.95c10.09 1.8 20.44 3.55 30.23 5.05 130.56 20.01 173.82-16.56 295 36 22.87 9.92 19.71 27.13 43 36 39.17 14.92 1328.72 44.27 1652.05 51.41"/>
            <path d="m5599.29 591.9 9.92 3.72-10.08 3.28z"/>
        </g>
        <g stroke="#000" class="edge">
            <path fill="none" d="M3464.22 468.49c-79.85 19.68-235.4 56.01-369.64 75.51-200.13 29.07-437.3 43.34-563.16 49.34"/>
            <path d="m2531.63 596.83-10.15-3.03 9.82-3.96z"/>
        </g>
        <g stroke="#000" class="edge">
            <path fill="none" d="M3579.87 466.89c9.93 1.78 20.09 3.55 29.71 5.11 113.85 18.48 150.38-7.99 257 36 24.65 10.17 22.97 26.8 48 36 72.49 26.64 582.69 44.5 786.34 50.64"/>
            <path d="m4701.03 591.14 9.89 3.8-10.1 3.2z"/>
        </g>
        <g stroke="red" stroke-width="2" class="edge">
            <path fill="none" d="M3592.17 463.4c84.96 9.77 227.88 26.86 350.41 44.6 8.29 1.2 16.95 2.52 25.57 3.88"/>
            <path fill="red" d="m3967.12 508.17 9.32 5.04-10.43 1.87z"/>
        </g>
        <g stroke="#000" class="edge">
            <path fill="none" d="M3444.81 464.07c-173.11 21.54-599.89 74.38-665.23 79.93-367.33 31.22-807.34 45.88-986.77 50.9"/>
            <path d="m1792.97 598.4-10.09-3.23 9.9-3.77z"/>
        </g>
        <g stroke="#000" class="edge">
            <path fill="none" d="M3453.76 466.4c-45.71 9.44-101.94 24.12-118.18 41.6-14.9 16.02-19.24 40.75-20.08 60.08"/>
            <path d="m3319 568.1-3.62 9.96-3.38-10.04z"/>
        </g>
        <g stroke="#000" class="edge">
            <path fill="none" d="M3450.3 387.17c71.47 3.8 181.63 9.36 277.28 12.83 163.27 5.93 1311.57-3.93 1470 36 34.31 8.65 38.84 21.26 71 36 76.45 35.04 94.88 46.43 175 72 55.31 17.65 119.87 32.05 166.32 41.36"/>
            <path d="m5610.39 581.89 9.13 5.38-10.49 1.49z"/>
        </g>
        <g stroke="#000" class="edge">
            <path fill="none" d="M3298.81 387.15c-130.14 7.72-385.49 25.61-419.23 48.85-44.36 30.56-11.12 76.75-55 108-45.64 32.5-194.89 45.16-292.76 50.03"/>
            <path d="m2532.11 597.52-10.15-3.02 9.82-3.97z"/>
        </g>
        <g stroke="#000" class="edge">
            <path fill="none" d="M3431.31 394.85c11.62 2.04 23.8 3.91 35.27 5.15 59.19 6.43 1022.3 1.76 1071 36 42.26 29.71 4.26 73.82 43 108 33.1 29.21 80.32 42.66 120.99 48.72"/>
            <path d="m4701.91 589.23 9.44 4.8-10.38 2.14z"/>
        </g>
        <g stroke="#000" class="edge">
            <path fill="none" d="M3429.66 395.1c48.46 10.67 120.9 26.69 183.92 40.9 69.83 15.75 86.95 21.22 157 36 67.32 14.2 144.24 28.9 199.57 39.2"/>
            <path d="m3970.59 507.72 9.2 5.27-10.48 1.61z"/>
        </g>
        <g stroke="#000" class="edge">
            <path fill="none" d="M3406.67 398.71c20.1 9.84 46.24 22.63 68.09 33.33"/>
            <path d="m3476.3 428.9 7.44 7.54-10.52-1.26z"/>
        </g>
        <g stroke="#000" class="edge">
            <path fill="none" d="M3300.03 388.02c-114.2 8.03-339.23 25.21-529.45 47.98-194.54 23.29-785.95 117.15-989.94 149.77"/>
            <path d="m1781.41 589.19-10.43-1.88 9.33-5.04z"/>
        </g>
        <g stroke="#000" class="edge">
            <path fill="none" d="M3305.69 390.95c-55.23 7.97-126.36 22.35-144.11 45.05-42.58 54.47 49.21 111.12 108.95 140.52"/>
            <path d="m3271.69 573.19 7.49 7.49-10.53-1.18z"/>
        </g>
        <g stroke="#000" class="edge">
            <path fill="none" d="M3032.74 461.2c38.01 3.34 86.02 7.45 128.84 10.8 226.54 17.72 286.53-5.15 510 36 54.34 10.01 64.46 27.14 119 36 90.67 14.72 1473.58 44.46 1809.09 51.49"/>
            <path d="m5599.25 591.98 9.93 3.71-10.07 3.29z"/>
        </g>
        <g stroke="#000" class="edge">
            <path fill="none" d="M2952.03 472.14c-15.11 20.87-43.67 55.39-77.45 71.86-58.79 28.67-235.63 42.8-343.97 48.95"/>
            <path d="m2531.06 596.43-10.18-2.94 9.79-4.05z"/>
        </g>
        <g stroke="#000" class="edge">
            <path fill="none" d="M3032.75 461.11c38.01 3.32 86.01 7.44 128.83 10.89 105.96 8.55 379.8-7.04 477 36 21.27 9.42 16.6 26.87 38 36 93.18 39.74 781.69 49.96 1023.96 52.34"/>
            <path d="m4700.26 592.83 9.96 3.6-10.03 3.4z"/>
        </g>
        <g stroke="#000" class="edge">
            <path fill="none" d="M3032.27 461.38c38.08 3.42 86.29 7.54 129.31 10.62 279.3 19.98 349.52 18.69 629 36 53.19 3.3 112.61 7.24 160.7 10.5"/>
            <path d="m3951.37 515 9.74 4.17-10.22 2.81z"/>
        </g>
        <g stroke="#000" class="edge">
            <path fill="none" d="M2896.12 462.21c-62.87 7.75-158.8 22.25-239.54 45.79-39.78 11.6-45.65 26.59-86 36-146.26 34.09-592.17 47.31-777.68 51.43"/>
            <path d="m1793.18 598.92-10.07-3.28 9.92-3.72z"/>
        </g>
        <g stroke="#000" class="edge">
            <path fill="none" d="M2993.79 470.94c36.51 18.9 100.12 50.65 156.79 73.06 34.35 13.59 73.7 26.27 105.46 35.82"/>
            <path d="m3256.9 576.42 8.59 6.21-10.59.5z"/>
        </g>
        <g stroke="#000" class="edge">
            <path fill="none" d="M3928.48 242.27c103.17 3.71 278.44 9.76 429.1 13.73 100.87 2.66 1722.53-2.02 1816 36 53.59 21.8 95 31.14 95 89v74c0 40.97 7.34 62.61-24 89-37.39 31.49-353.03 45.83-498.77 50.82"/>
            <path d="m5745.97 598.32-10.11-3.16 9.88-3.84z"/>
        </g>
        <g stroke="#000" class="edge">
            <path fill="none" d="M3751.41 242.83c-249.49 10.93-943.9 41.91-966.83 49.17-57.13 18.1-64.66 37.99-114 72-21.96 15.13-25.04 22.45-48 36-33.58 19.82-47.62 14.29-80 36-19.32 12.96-64.08 52.02-76 72-11.03 18.49-17.1 42.12-20.37 60.39"/>
            <path d="m2449.71 568.69-5.03 9.33-1.88-10.43z"/>
        </g>
        <g stroke="#000" class="edge">
            <path fill="none" d="M3923.72 245.35c71.16 6.9 175.23 20.62 262.86 46.65 111.35 33.08 125.54 78.93 238 108 48.56 12.55 415.97-.86 450 36 32.56 35.27 23.82 66.33 0 108-8.41 14.71-22.67 25.74-37.39 33.82"/>
            <path d="m4838.85 580.9-10.5 1.37 7.36-7.62z"/>
        </g>
        <g stroke="red" stroke-width="2" class="edge">
            <path fill="none" d="M3864.94 255.59c13.99 9.15 31.57 20.65 46.83 30.64"/>
            <path fill="red" d="m3912.42 282.47 6.45 8.4-10.28-2.54z"/>
        </g>
        <g stroke="#000" class="edge">
            <path fill="none" d="M3813.6 255.62c-11.83 9.15-24.6 21.64-31.02 36.38-8.69 19.95-1.16 43.75 7.85 61.71"/>
            <path d="m3793.49 352.01 1.73 10.45-7.87-7.09z"/>
        </g>
        <g stroke="#000" class="edge">
            <path fill="none" d="M3839.32 256.3c.39 18.62 2.95 48.67 14.26 71.7 9.7 19.75 25.87 15.55 34 36 17.78 44.73-36.39 69.13-8 108 11.5 15.74 53.49 29.07 92.36 38.42"/>
            <path d="m3972.38 506.93 8.94 5.68-10.53 1.13z"/>
        </g>
        <g stroke="#000" class="edge">
            <path fill="none" d="M3751.86 243.26c-80.63 3.79-203.48 9.26-310.28 12.74-713.58 23.24-894.73-25.85-1606 36-211.84 18.42-327.83-83.38-473 72-54.64 58.48-51.54 123.36 5 180 35.62 35.68 171.24 47.36 260.9 51.17"/>
            <path d="m1628.35 591.66 9.85 3.9-10.13 3.1z"/>
        </g>
        <g stroke="#000" class="edge">
            <path fill="none" d="M3911.12 249.48c50.46 8.53 119.16 22.47 177.46 42.52 103.76 35.68 117.34 75.05 222 108 48.72 15.34 193.83-2.84 227 36 10.39 12.17 5.26 20.89 0 36-13.41 38.55-20.67 53.39-57 72-93.75 48.02-805.44 52.98-1067.51 53.17"/>
            <path d="m3413.2 600.67-10-3.5 10-3.5z"/>
        </g>
        <g stroke="#000" class="edge">
            <path fill="none" d="M3327.59 462.55c29.27 2.97 63.21 6.39 93.99 9.45 163.97 16.29 207.73 2.17 369 36 50.34 10.56 59.33 27.14 110 36 84.81 14.83 1375.42 44.23 1698.9 51.4"/>
            <path d="m5599.15 591.89 9.92 3.72-10.08 3.28z"/>
        </g>
        <g stroke="#000" class="edge">
            <path fill="none" d="M3221.44 470.97c-43.16 20.66-122.77 55.99-194.86 73.03-171.39 40.51-377.82 50.47-493.67 52.67"/>
            <path d="m2533.21 600.17-10.06-3.33 9.94-3.67z"/>
        </g>
        <g stroke="#000" class="edge">
            <path fill="none" d="M3315.32 466.43c11.69 1.99 23.83 3.94 35.26 5.57 144.31 20.59 183.03 7.57 326 36 56.28 11.19 67.42 26.39 124 36 172.16 29.23 695.46 45.54 900.41 50.95"/>
            <path d="m4700.85 591.45 9.91 3.76-10.09 3.24z"/>
        </g>
        <g stroke="#000" class="edge">
            <path fill="none" d="M3327.15 462.7c29.37 3.01 63.49 6.42 94.43 9.3 188.7 17.56 409.73 35.78 531.57 45.62"/>
            <path d="m3953.08 514.1 9.68 4.29-10.25 2.69z"/>
        </g>
        <g stroke="#000" class="edge">
            <path fill="none" d="M3189.81 465.86c-112.96 18.84-355.78 57.53-562.23 78.14-307.4 30.68-674.68 45.28-835.18 50.56"/>
            <path d="m1792.82 598.05-10.1-3.17 9.88-3.82z"/>
        </g>
        <g stroke="#000" class="edge">
            <path fill="none" d="M3252.52 472.31c-.43 18.63.97 48.69 12.06 71.69 5.12 10.62 13.23 20.42 21.53 28.63"/>
            <path d="m3288.3 569.89 4.96 9.36-9.72-4.22z"/>
        </g>
        <g stroke="#000" class="edge">
            <path fill="none" d="M2001.34 391.27c-43.38 3.11-93.93 6.45-139.76 8.73-516.94 25.77-648.16-6.39-1164 36-16.48 1.35-34.1 3.36-50.81 5.51"/>
            <path d="m647.25 444.98-10.37-2.15 9.45-4.79z"/>
        </g>
        <g stroke="#000" class="edge">
            <path fill="none" d="M2098.29 400.27c-9.93 19.15-21.45 50.18-6.71 71.73 57.86 84.61 178.58 112.37 262.17 121.24"/>
            <path d="m2353.92 589.74 9.61 4.46-10.3 2.5z"/>
        </g>
        <g stroke="#000" class="edge">
            <path fill="none" d="M2130.85 399.95c11.55 8.79 25.86 19.67 38.5 29.29"/>
            <path d="m2171.15 426.21 5.84 8.84-10.08-3.27z"/>
        </g>
        <g class="node" transform="translate(4 616)">
            <ellipse cx="1001.58" cy="-162" fill="none" stroke="#000" rx="60.56" ry="18"/>
            <text x="1001.58" y="-156.95" font-family="Times,serif" font-size="14" text-anchor="middle">:library:room</text>
        </g>
        <g stroke="#000" class="edge">
            <path fill="none" d="M2000.4 390.98c-43.17 3.05-93.33 6.41-138.82 9.02-349.13 20.01-439.82-13.49-786 36-5.01.72-10.19 1.63-15.35 2.66"/>
            <path d="m1061.01 442.08-10.51-1.32 9.03-5.53z"/>
        </g>
        <g stroke="#000" class="edge">
            <path fill="none" d="M1024.79 394.77c-85.75 10.59-214.91 26.68-327.21 41.23-15.77 2.04-32.64 4.27-48.77 6.42"/>
            <path d="m649.67 445.84-10.38-2.15 9.45-4.79z"/>
        </g>
        <g stroke="#000" class="edge">
            <path fill="none" d="M1193.79 397.3c36.43 8.61 80.52 21.31 117.79 38.7 76.75 35.81 76.83 80.68 157 108 82.27 28.04 659.02 45.19 884.22 50.89"/>
            <path d="m2352.8 591.39 9.91 3.75-10.08 3.24z"/>
        </g>
        <g stroke="#000" class="edge">
            <path fill="none" d="M1138.62 400.3c8.76 8.4 19.43 18.63 29.03 27.84"/>
            <path d="m1169.85 425.4 4.8 9.45-9.64-4.4z"/>
        </g>
        <g stroke="#000" class="edge">
            <path fill="none" d="M1092.74 399.95c-15.67 9.53-35.39 21.54-52.1 31.71"/>
            <path d="m1042.85 434.41-10.36 2.21 6.72-8.19z"/>
        </g>
        <g stroke="#000" class="edge">
            <path fill="none" d="M6837.71 397.93c63.74 12.03 152.79 28.83 215.72 40.7"/>
            <path d="m7053.81 435.14 9.18 5.3-10.48 1.58z"/>
        </g>
        <g stroke="#000" class="edge">
            <path fill="none" d="M6640.73 394.37c-198.54 18.77-612.37 56.3-963.15 77.63-445.82 27.11-975.54 43.26-1216.29 49.72"/>
            <path d="m4461.65 525.21-10.09-3.23 9.9-3.77z"/>
        </g>
        <g stroke="#000" class="edge">
            <path fill="none" d="M563.8 400.3c.95 7.38 2.08 16.18 3.15 24.45"/>
            <path d="m570.38 424.03-2.19 10.36-4.75-9.47z"/>
        </g>
        <g stroke="#000" class="edge">
            <path fill="none" d="M521.66 399.3c-15.42 8.5-31.41 20.55-40.08 36.7-7.57 14.1-10.25 23.71 0 36 114 136.72 217.01 52.94 394 72 146.53 15.78 1166.64 42.79 1477.37 50.74"/>
            <path d="m2352.72 591.23 9.91 3.76-10.08 3.24z"/>
        </g>
        <g stroke="#000" class="edge">
            <path fill="none" d="M509.9 398.8c-34.67 10.59-80.47 24.59-116.83 35.71"/>
            <path d="m394.14 437.84-10.59-.42 8.54-6.27z"/>
        </g>
        <g stroke="#000" class="edge">
            <path fill="none" d="M651.73 394.75c92.82 12.28 231.12 31.14 283.85 41.25 4.63.89 9.41 1.88 14.2 2.93"/>
            <path d="m950.46 435.5 8.97 5.63-10.52 1.19z"/>
        </g>
        <g stroke="#000" class="edge">
            <path fill="none" d="M7129.58 400.3v24.16"/>
            <path d="m7133.08 424.38-3.5 10-3.5-10z"/>
        </g>
        <g stroke="#000" class="edge">
            <path fill="none" d="M7067.45 398.95c-134.88 33.84-465.03 112.36-746.87 145.05-144.17 16.72-1152.81 43.3-1452.33 50.91"/>
            <path d="m4868.65 598.4-10.08-3.25 9.9-3.75z"/>
        </g>
        <g stroke="#000" class="edge">
            <path fill="none" d="M7011.55 394.23c-28.15 2.29-58.11 4.41-85.97 5.77-1135.66 55.24-1421.54 1.03-2558 36-78.21 2.41-165.96 6.55-235.02 10.14"/>
            <path d="m4132.89 449.63-10.17-2.97 9.8-4.02z"/>
        </g>
        <g stroke="#000" class="edge">
            <path fill="none" d="M778.32 398.54c-43.39 11.37-102.12 26.77-146.06 38.29"/>
            <path d="m633.16 440.21-10.56-.85 8.79-5.92z"/>
        </g>
        <g stroke="#000" class="edge">
            <path fill="none" d="M754.82 396.42c-22.22 7.8-43.8 20.12-57.24 39.58-9.09 13.17-10.72 24.13 0 36 56.06 62.07 1307.91 109.88 1655.94 122.01"/>
            <path d="m2353.4 590.5 9.87 3.85-10.12 3.15z"/>
        </g>
        <g stroke="#000" class="edge">
            <path fill="none" d="M832.39 400.3c-2.24 7.46-4.91 16.38-7.42 24.73"/>
            <path d="m828.37 425.87-6.22 8.58-.48-10.59z"/>
        </g>
        <g stroke="#000" class="edge">
            <path fill="none" d="M877.39 399.59c25.16 10.48 57.71 24.04 83.72 34.88"/>
            <path d="m962.16 431.12 7.89 7.07-10.58-.61z"/>
        </g>
        <g stroke="#000" class="edge">
            <path fill="none" d="M4652.58 252.83c39.91 11.27 96.42 27.22 139.04 39.24"/>
            <path d="m4792.55 288.7 8.68 6.09-10.58.65z"/>
        </g>
        <g stroke="#000" class="edge">
            <path fill="none" d="M4626.24 255.64c27.8 19.73 76.97 52.44 123.34 72.36 37.86 16.27 82.02 28.73 118.82 37.47"/>
            <path d="m4869.15 362.05 8.95 5.67-10.53 1.15z"/>
        </g>
        <g stroke="#000" class="edge">
            <path fill="none" d="M4662.53 250.84c10.32 1.87 20.98 3.67 31.05 5.16 141.06 20.83 305.85 36.79 405.49 45.53"/>
            <path d="m5099.13 298.02 9.66 4.35-10.26 2.62z"/>
        </g>
        <g stroke="#000" class="edge">
            <path fill="none" d="M4614.1 256.21c22.84 35.44 80.86 115.56 154.48 143.79 143.36 54.97 536.98 23.35 690 36 27.76 2.29 58.32 5.61 84.57 8.71"/>
            <path d="m5543.49 441.23 9.51 4.66-10.35 2.29z"/>
        </g>
        <g stroke="#000" class="edge">
            <path fill="none" d="M4660.5 251.22c10.93 1.93 22.33 3.65 33.08 4.78 89.92 9.42 1542.86 2.91 1627 36 55.37 21.78 100 29.5 100 89v74c0 40.97 7.59 62.91-24 89-49.34 40.74-475.94 50.19-650.26 52.36"/>
            <path d="m5746.52 599.86-10.04-3.38 9.95-3.62z"/>
        </g>
        <g stroke="#000" class="edge">
            <path fill="none" d="M4661.01 251.1c10.78 1.91 21.99 3.67 32.57 4.9 348.22 40.64 438.81 4.71 788 36 16.47 1.48 34.09 3.53 50.79 5.7"/>
            <path d="m5532.82 294.23 9.45 4.78-10.38 2.15z"/>
        </g>
        <g stroke="#000" class="edge">
            <path fill="none" d="M4546.66 251.22c-10.94 1.93-22.33 3.65-33.08 4.78-182.71 19.11-1478.25-20.68-1653 36-26.74 8.67-28.75 20.2-52 36-47.72 32.42-57.4 44.3-108 72-34.91 19.11-48.84 13.99-82 36-58.15 38.6-62.12 61.31-114 108-10.77 9.7-22.84 20.11-33.45 29.12"/>
            <path d="m2473.68 575.55-9.9 3.78 5.38-9.13z"/>
        </g>
        <g stroke="#000" class="edge">
            <path fill="none" d="M4607.68 256.39c4.93 18.7 14.39 48.81 28.9 71.61 24.13 37.92 30.16 53.24 71 72 52.93 24.31 483.25-6.58 523 36 32.75 35.09 31.88 72.11 0 108-23.7 26.68-241.5 42.3-363.74 49.04"/>
            <path d="m4867.37 596.52-10.17-2.96 9.79-4.03z"/>
        </g>
        <g stroke="#000" class="edge">
            <path fill="none" d="M4661.51 251.05c10.63 1.9 21.65 3.65 32.07 4.95 261.58 32.53 330.18 5.43 592 36 7.64.89 15.58 1.99 23.49 3.19"/>
            <path d="m5309.38 291.69 9.33 5.02-10.42 1.9z"/>
        </g>
        <g stroke="#000" class="edge">
            <path fill="none" d="M4545.13 250.86c-10.48 1.89-21.32 3.7-31.55 5.14-167.29 23.57-363.88 39.29-476.12 47.13"/>
            <path d="m4037.93 306.61-10.22-2.8 9.74-4.18z"/>
        </g>
        <g stroke="#000" class="edge">
            <path fill="none" d="M4543.57 250.43c-10.01 1.88-20.29 3.8-29.99 5.57-233.55 42.73-511.01 91.18-637.29 113.1"/>
            <path d="m3877.22 372.5-10.46-1.74 9.26-5.16z"/>
        </g>
        <g stroke="#000" class="edge">
            <path fill="none" d="M4486.02 250.61c8.83 1.89 17.95 3.77 26.56 5.39 88.86 16.74 191.54 32.26 260.4 42.13"/>
            <path d="m4773.25 294.63 9.4 4.88-10.39 2.05z"/>
        </g>
        <g stroke="#000" class="edge">
            <path fill="none" d="M4470.99 253.86c46.98 19.27 132.82 52.91 208.59 74.14 59.56 16.69 128.04 30.21 180.59 39.41"/>
            <path d="m4860.73 363.96 9.25 5.15-10.45 1.74z"/>
        </g>
        <g stroke="#000" class="edge">
            <path fill="none" d="M4484.68 250.91c9.23 1.93 18.83 3.74 27.9 5.09 56.28 8.37 412.62 34.25 584.5 46.48"/>
            <path d="m5097.15 298.97 9.72 4.2-10.22 2.79z"/>
        </g>
        <g stroke="#000" class="edge">
            <path fill="none" d="M4454.98 255.72c42.33 35.24 147.64 116.2 252.6 144.28 161.4 43.19 584.46 22.59 751 36 27.76 2.24 58.32 5.55 84.58 8.65"/>
            <path d="m5543.49 441.17 9.51 4.66-10.34 2.29z"/>
        </g>
        <g stroke="#000" class="edge">
            <path fill="none" d="M4483.8 251.17c9.48 1.96 19.4 3.71 28.78 4.83 48.83 5.83 1735.58.87 1770 36 78.39 80 75.69 169.45 0 252-35.63 38.86-382.45 49.32-536.69 52.06"/>
            <path d="m5746.25 599.55-10.05-3.32 9.93-3.67z"/>
        </g>
        <g stroke="#000" class="edge">
            <path fill="none" d="M4484.23 251.13c9.35 1.94 19.12 3.69 28.35 4.87 427.48 54.68 539.6-.63 969 36 16.73 1.43 34.63 3.49 51.56 5.69"/>
            <path d="m5533.15 294.16 9.45 4.79-10.37 2.15z"/>
        </g>
        <g stroke="#000" class="edge">
            <path fill="none" d="M4367.79 241.37c-95.51 3.32-275.14 9.54-428.21 14.63-124.11 4.13-998.75-1.89-1117 36-20.6 6.6-143.07 97.53-162 108-34.12 18.88-47.62 14.29-80 36-38.65 25.91-45.66 36.73-76 72-16.92 19.66-33.58 43.93-45.36 62.16"/>
            <path d="m2462.18 572.02-8.32 6.55 2.42-10.31z"/>
        </g>
        <g stroke="#000" class="edge">
            <path fill="none" d="M4444.32 256.12c10.73 19.58 30.57 51.56 55.26 71.88 59.27 48.79 82.59 53.14 157 72 58.4 14.8 499.84-7.99 541 36 13.8 14.75 12.36 88.76-6 108-22.09 23.14-213.47 39.9-325.76 47.84"/>
            <path d="m4866.27 595.31-10.22-2.79 9.73-4.19z"/>
        </g>
        <g stroke="#000" class="edge">
            <path fill="none" d="M4484.24 251.06c9.35 1.94 19.11 3.72 28.34 4.94 340.94 45.24 431.12-1.46 773 36 7.7.84 15.71 1.91 23.69 3.11"/>
            <path d="m5309.65 291.62 9.34 5-10.42 1.92z"/>
        </g>
        <g stroke="#000" class="edge">
            <path fill="none" d="M4376.59 247.44c-87.59 12.54-252.26 36.12-350.45 50.17"/>
            <path d="m4026.69 301.07-10.39-2.05 9.4-4.88z"/>
        </g>
        <g stroke="#000" class="edge">
            <path fill="none" d="M4367.83 241.53c-144.33 5.92-472.4 22.31-514.25 50.47-20.72 13.94-32.67 40.25-39.17 60.66"/>
            <path d="m3817.82 353.48-6.14 8.64-.59-10.58z"/>
        </g>
        <g stroke="#000" class="edge">
            <path fill="none" d="M5254.87 169.26c-74.21 4.4-182.22 16.75-270.29 50.74-39.71 15.33-79.52 44.18-105.09 64.88"/>
            <path d="m4881.85 287.47-9.94 3.67 5.49-9.07z"/>
        </g>
        <g stroke="#000" class="edge">
            <path fill="none" d="M5257.52 171.49c-83.65 6.03-203.9 19.55-239.94 48.51-40.28 32.36-21 61.25-43 108-4.02 8.54-8.8 17.63-13.3 25.82"/>
            <path d="m4964.47 355.28-7.94 7.01 1.84-10.43z"/>
        </g>
        <g stroke="#000" class="edge">
            <path fill="none" d="M5324.43 183.85c-26.92 24.98-77.56 71.98-108.54 100.73"/>
            <path d="m5218.53 286.91-9.71 4.24 4.95-9.37z"/>
        </g>
        <g stroke="#000" class="edge">
            <path fill="none" d="M5431.59 166.8c121.75 1.38 332.2 10.18 393.99 53.2 41.52 28.91 56.29 61.65 36 108-18.92 43.22-37.05 48.57-78 72-10.78 6.17-73.75 24.59-121.09 37.99"/>
            <path d="m5663.47 441.35-10.57-.66 8.67-6.08z"/>
        </g>
        <g stroke="#000" class="edge">
            <path fill="none" d="M5431.42 166.67c219.78-.06 784.24 4.69 965.16 53.33 102.38 27.52 176 54.99 176 161v74c0 42.67-1.37 64.07-36 89-63.35 45.59-592.82 52.09-790.21 52.92"/>
            <path d="m5746.51 600.42-10.02-3.46 9.99-3.54z"/>
        </g>
        <g stroke="#000" class="edge">
            <path fill="none" d="M5373.09 183.29c48.21 25.73 141.98 75.79 195.51 104.37"/>
            <path d="m5569.91 284.39 7.18 7.8-10.47-1.62z"/>
        </g>
        <g stroke="#000" class="edge">
            <path fill="none" d="M5253.95 167.99c-345.28 4.05-1600.92 20.65-1998.37 52.01-242.25 19.11-317.83-21.8-542 72-72.17 30.2-72.06 67.51-139 108-33.01 19.97-49.62 10.99-79 36-29.29 24.93-35.83 35.52-48 72-6.49 19.44-7.6 42.59-7.16 60.4"/>
            <path d="m2443.91 568.11-3.06 10.15-3.94-9.84z"/>
        </g>
        <g stroke="#000" class="edge">
            <path fill="none" d="M5430.67 168.82c121.55 3.8 347.09 15.46 535.91 51.18 115.73 21.89 269.69-6.48 242 108-25.16 104.02-93.34 105-193 144-96.59 37.8-120.01 53.12-222 72-176.58 32.69-716.17 46.99-925.12 51.41"/>
            <path d="m4868.55 598.91-10.07-3.29 9.93-3.71z"/>
        </g>
        <g stroke="#000" class="edge">
            <path fill="none" d="M5347.61 184.41c6.95 24.09 19.58 67.84 27.87 96.56"/>
            <path d="m5378.81 279.86-.59 10.57-6.14-8.63z"/>
        </g>
        <g stroke="#000" class="edge">
            <path fill="none" d="M5253.72 167.21c-327.66 1.14-1452.45 8.27-1514.14 52.79-96.81 69.87-4.04 172.39-93 252-10.8 9.67-83.75 26.45-141.52 38.55"/>
            <path d="m3506.08 513.91-10.5-1.4 9.08-5.46z"/>
        </g>
        <g stroke="#000" class="edge">
            <path fill="none" d="M5256.92 170.99c-260.28 12.12-1040.97 48.48-1318.27 61.4"/>
            <path d="m3939.07 235.87-10.15-3.03 9.83-3.96z"/>
        </g>
        <g class="node" transform="translate(4 616)">
            <ellipse cx="6045.58" cy="-306" fill="none" stroke="#000" rx="115.33" ry="18"/>
            <text x="6045.58" y="-300.95" font-family="Times,serif" font-size="14" text-anchor="middle">:app:core:calendar-compose</text>
        </g>
        <g stroke="#000" class="edge">
            <path fill="none" d="M5429.95 169.6c138.75 5.03 402.76 18.56 490.63 50.4 39.41 14.28 78.11 43.61 102.68 64.7"/>
            <path d="m6025.3 281.84 5.21 9.22-9.83-3.96z"/>
        </g>
        <g stroke="#000" class="edge">
            <path fill="none" d="M5660.59 244.94c-163.09 12.91-549.27 43.49-722.41 57.2"/>
            <path d="m4938.6 305.62-10.25-2.7 9.69-4.28z"/>
        </g>
        <g stroke="#000" class="edge">
            <path fill="none" d="M5733.53 256.41c-3.46 20.81-12.55 54.92-35.95 71.59-12.97 9.24-441.17 35.08-645.51 46.93"/>
            <path d="m5052.42 378.41-10.18-2.91 9.78-4.08z"/>
        </g>
        <g stroke="#000" class="edge">
            <path fill="none" d="M5663.32 246.21c-89.04 9.17-244.85 26.22-377.74 45.79-6.98 1.03-14.23 2.17-21.48 3.37"/>
            <path d="m5264.69 298.82-10.44-1.8 9.28-5.11z"/>
        </g>
        <g stroke="#000" class="edge">
            <path fill="none" d="M5789.23 251.8c21.02 7.92 43.02 20.49 55.35 40.2 8.49 13.56 8.25 22.29 0 36-21.3 35.39-127.29 82.08-189.75 107.19"/>
            <path d="m5656.44 438.31-10.59.45 8-6.95z"/>
        </g>
        <g stroke="#000" class="edge">
            <path fill="none" d="M5816.06 239.3c187.55 1.42 641.77 9.35 694.52 52.7 31.65 26.01 24 48.03 24 89v74c0 40.97 7.72 63.07-24 89-58.41 47.75-570.37 52.93-764.13 53.17"/>
            <path d="m5746.5 600.67-10-3.5 9.99-3.5z"/>
        </g>
        <g stroke="#000" class="edge">
            <path fill="none" d="M5706.44 255.06c-17.5 9.65-39.99 22.04-59 32.52"/>
            <path d="m5649.35 290.52-10.44 1.76 7.06-7.89z"/>
        </g>
        <g stroke="#000" class="edge">
            <path fill="none" d="M5739.14 256.16c3.09 20.25 4.49 53.46-14.56 71.84-33.15 31.98-367.23 30.79-413 36-114.16 12.99-141.46 26.89-256 36-209.82 16.69-1690.3-16.99-1894 36-32.91 8.56-105.41 55.25-135 72-27.06 15.32-30.49 26.2-60 36-78.6 26.1-308.36 41.8-435.98 48.75"/>
            <path d="m2531.01 596.23-10.17-2.95 9.8-4.04z"/>
        </g>
        <g stroke="#000" class="edge">
            <path fill="none" d="M5813.94 242.53c123.75 6.38 353.01 21.81 377.64 49.47 10.64 11.95 6.37 21.32 0 36-51.66 119.04-132.1 99.51-254 144-97.44 35.57-120.05 52.9-222 72-161.09 30.19-649.71 45.78-847.03 50.98"/>
            <path d="m4868.72 598.47-10.09-3.23 9.9-3.76z"/>
        </g>
        <g stroke="#000" class="edge">
            <path fill="none" d="M5677.06 250.64c-60.52 12.03-155.16 30.85-220.52 43.85"/>
            <path d="m5457.48 297.87-10.5-1.48 9.13-5.38z"/>
        </g>
        <g stroke="#000" class="edge">
            <path fill="none" d="M5756.84 255.66c21.16 18.6 48.04 49.13 29.74 72.34-42.45 53.84-232.05 62.85-300 72-493.14 66.41-627.64-42.51-1119 36-56.25 8.99-68.14 20.67-123 36-44.91 12.55-95.72 26.07-134.75 36.31"/>
            <path d="m4110.91 511.65-10.56-.85 8.79-5.92z"/>
        </g>
        <g stroke="#000" class="edge">
            <path fill="none" d="M5750.97 255.86c15.76 19.34 35.6 51.1 17.61 72.14-33.4 39.07-405.79 67.5-457 72-836.93 73.55-1051.36-14.33-1890 36-27.78 1.67-58.06 4.44-85.17 7.26"/>
            <path d="m3336.82 446.74-10.31-2.43 9.58-4.54z"/>
        </g>
        <g stroke="#000" class="edge">
            <path fill="none" d="M4797.01 255.95c8.69 8.44 19.37 18.83 28.97 28.16"/>
            <path d="m4828.25 281.43 4.73 9.48-9.61-4.46z"/>
        </g>
        <g stroke="#000" class="edge">
            <path fill="none" d="M4768.83 256.16c-10.6 19.34-23.08 50.81-7.25 71.84 12.62 16.76 57.52 29.88 99.81 38.87"/>
            <path d="m4862.06 363.44 9.09 5.44-10.5 1.41z"/>
        </g>
        <g stroke="#000" class="edge">
            <path fill="none" d="M4840.52 249.4c72.5 12.38 193.61 33.06 272.41 46.51"/>
            <path d="m5113.47 292.46 9.27 5.13-10.44 1.77z"/>
        </g>
        <g stroke="#000" class="edge">
            <path fill="none" d="M4766.13 256.17c-12.56 18.25-27.8 47.75-16.55 71.83 21.09 45.17 39.66 53.63 86 72 128.92 51.1 484.83 24.19 623 36 27.75 2.37 58.31 5.7 84.57 8.79"/>
            <path d="m5543.48 441.31 9.51 4.65-10.34 2.3z"/>
        </g>
        <g stroke="#000" class="edge">
            <path fill="none" d="M4851.13 244.97c47.23 3.73 110.49 8.32 166.45 11.03 78.66 3.81 1355.1-12.68 1417 36 32.2 25.33 24 48.03 24 89v74c0 40.97 7.64 62.97-24 89-52.36 43.08-507.36 51.15-688.28 52.66"/>
            <path d="m5746.33 600.16-10.03-3.42 9.98-3.58z"/>
        </g>
        <g stroke="#000" class="edge">
            <path fill="none" d="M4852.22 244.25c166.88 12.08 568.01 41.33 629.36 47.75 16.27 1.7 33.67 3.83 50.21 6"/>
            <path d="m5532.13 294.51 9.45 4.79-10.38 2.15z"/>
        </g>
        <g stroke="#000" class="edge">
            <path fill="none" d="M4725.84 251.24c-10.32 1.93-21.09 3.65-31.26 4.76-198.42 21.66-1606.67-27.17-1796 36-25.98 8.67-27.63 20.21-50 36-34.44 24.32-276.27 193.62-312 216-17.36 10.87-37.03 22.12-53.88 31.44"/>
            <path d="m2484.4 578.5-10.45 1.75 7.08-7.88z"/>
        </g>
        <g stroke="#000" class="edge">
            <path fill="none" d="M4763.51 255.61c-8.29 9.76-17.56 22.81-21.93 36.39-15.14 47.1-12.77 78.56 27 108 103.08 76.3 488.19-57.47 576 36 32.86 34.98 32.3 72.5 0 108-31.39 34.5-327.74 47.02-476.15 51.16"/>
            <path d="m4868.74 598.65-10.09-3.23 9.9-3.77z"/>
        </g>
        <g stroke="#000" class="edge">
            <path fill="none" d="M4850.99 244.95c98.16 8.53 280.17 25.59 434.59 47.05 7.21 1 14.71 2.14 22.2 3.33"/>
            <path d="m5308.3 291.87 9.31 5.06-10.44 1.85z"/>
        </g>
        <g stroke="#000" class="edge">
            <path fill="none" d="M4734.6 252.92c-33.26 10.42-79.61 25.21-120.02 39.08-176.34 60.52-224.64 66.04-394 144-29.65 13.65-35.04 20.96-64 36-21.47 11.15-45.66 22.8-65.98 32.34"/>
            <path d="m4092.29 507.42-10.55 1.06 7.58-7.41z"/>
        </g>
        <g stroke="#000" class="edge">
            <path fill="none" d="M4725.37 251.16c-10.19 1.91-20.78 3.65-30.79 4.84-59.87 7.14-912.13 38.32-1214.53 49.22"/>
            <path d="m3480.29 308.71-10.12-3.14 9.87-3.85z"/>
        </g>
        <g stroke="#000" class="edge">
            <path fill="none" d="M5061.01 252.83c-42.59 11.42-103.15 27.67-148.2 39.75"/>
            <path d="m4913.73 295.95-10.56-.79 8.75-5.97z"/>
        </g>
        <g stroke="#000" class="edge">
            <path fill="none" d="M5094.06 256.06c-19.86 18.16-52.46 47.59-81.48 71.94-11.65 9.78-24.73 20.23-36.21 29.25"/>
            <path d="m4978.79 359.8-10.04 3.4 5.73-8.92z"/>
        </g>
        <g stroke="#000" class="edge">
            <path fill="none" d="M5131.22 255.95c9.39 8.53 20.95 19.04 31.29 28.44"/>
            <path d="m5164.68 281.63 5.04 9.32-9.75-4.14z"/>
        </g>
        <g stroke="#000" class="edge">
            <path fill="none" d="M5192.76 244.82c92.82 7.71 239.3 23.23 288.82 47.18 20.94 10.13 20.3 20.91 38 36 20.02 17.07 30.47 15.52 47 36 14.75 18.28 25.77 42.59 32.81 61.18"/>
            <path d="m5602.65 423.9.1 10.59-6.69-8.22z"/>
        </g>
        <g stroke="#000" class="edge">
            <path fill="none" d="M5197.29 241.64c295.4 9.27 1262.77 40.38 1275.29 50.36 32.03 25.54 24 48.03 24 89v74c0 40.97 7.68 63.02-24 89-55.38 45.41-538.81 52.06-726.21 52.92"/>
            <path d="m5746.52 600.42-10.01-3.46 9.98-3.54z"/>
        </g>
        <g stroke="#000" class="edge">
            <path fill="none" d="M5186.45 247.67c80.76 9.72 213.89 26.48 328.13 44.33 7.43 1.16 15.18 2.44 22.9 3.77"/>
            <path d="m5537.99 292.31 9.25 5.16-10.46 1.73z"/>
        </g>
        <g stroke="#000" class="edge">
            <path fill="none" d="M5033.38 245.38c-48.43 3.68-111.66 8.06-167.8 10.62-708.78 32.37-889.78-32.27-1596 36-188.08 18.18-243.23 2.67-419 72-67.77 26.73-209.35 146.43-274 180-25.63 13.31-55.38 25.39-80.34 34.64"/>
            <path d="m2497.52 581.9-10.59.14 8.19-6.71z"/>
        </g>
        <g stroke="#000" class="edge">
            <path fill="none" d="M5197.41 241.69c248.66 8.08 959.4 32.68 976.17 50.31 11.03 11.59 8.52 22.46 0 36-39.38 62.59-230.94 117.56-300 144-106.79 40.88-134.37 52.29-247 72-274.12 47.97-605.14 53.93-757.61 53.81"/>
            <path d="m4869.37 601.31-10-3.51 10.01-3.49z"/>
        </g>
        <g stroke="#000" class="edge">
            <path fill="none" d="M5165.15 252.58c44.03 11.37 107.05 27.65 154.09 39.8"/>
            <path d="m5319.96 288.95 8.8 5.89-10.56.89z"/>
        </g>
        <g stroke="#000" class="edge">
            <path fill="none" d="M5106.39 256.18c-3.72 10.37-8.56 23.85-12.81 35.82-17.03 47.95 2.85 77.66-38 108-71.17 52.85-712.53 9.11-797 36-28.19 8.98-29.34 23.17-56 36-30 14.43-64.96 26.65-94.26 35.7"/>
            <path d="m4109.42 511.02-10.58-.45 8.55-6.25z"/>
        </g>
        <g stroke="#000" class="edge">
            <path fill="none" d="M5032.81 245.16c-48.36 3.57-111.32 7.92-167.23 10.84-4.33.23-1046.39 37.22-1385.62 49.26"/>
            <path d="m3480.3 308.75-10.12-3.14 9.87-3.86z"/>
        </g>
        <g class="node" transform="translate(4 616)">
            <ellipse cx="5072.58" cy="-90" fill="none" stroke="#000" rx="106.11" ry="18"/>
            <text x="5072.58" y="-84.95" font-family="Times,serif" font-size="14" text-anchor="middle">:library:firebase-common</text>
        </g>
        <g stroke="#000" class="edge">
            <path fill="none" d="M5076.58 472.3v24.16"/>
            <path d="m5080.08 496.38-3.5 10-3.5-10z"/>
        </g>
        <g stroke="#000" class="edge">
            <path fill="none" d="M348.24 472.27c20.6 21.37 59.06 56.75 100.34 71.73 110.19 40 916.71 50.15 1179.49 52.42"/>
            <path d="m1627.94 592.91 9.97 3.59-10.03 3.41z"/>
        </g>
        <g stroke="#000" class="edge">
            <path fill="none" d="M877.86 469.29c83.94 19.17 239.56 53.28 373.72 74.71 133.32 21.29 289.73 37.5 381.24 46.1"/>
            <path d="m1633.06 586.61 9.64 4.41-10.29 2.56z"/>
        </g>
        <g stroke="#000" class="edge">
            <path fill="none" d="M1211.02 472.03c22.41 20.76 63.46 55.15 105.56 71.97 101.82 40.67 228.99 51.28 310.84 53.47"/>
            <path d="m1627.48 593.97 9.92 3.72-10.08 3.28z"/>
        </g>
        <g stroke="#000" class="edge">
            <path fill="none" d="M1049 467c8.74 2 17.91 3.81 26.58 5 46.48 6.36 3081.5 104.71 3625.87 122.31"/>
            <path d="m4701.32 590.81 9.88 3.82-10.11 3.17z"/>
        </g>
        <g stroke="#000" class="edge">
            <path fill="none" d="M5944.22 317.68c-210.89 13.37-682.73 43.29-893.47 56.65"/>
            <path d="m5051.1 377.82-10.21-2.86 9.76-4.13z"/>
        </g>
        <g stroke="#000" class="edge">
            <path fill="none" d="M6023.03 327.76c-15.95 10.23-36.56 23.7-54.45 36.24-21.84 15.31-23.41 25.69-48 36-98.67 41.35-132.9 16.01-238 36-5.68 1.08-11.59 2.29-17.48 3.55"/>
            <path d="m5665.86 442.97-10.52-1.27 9.01-5.57z"/>
        </g>
        <g stroke="#000" class="edge">
            <path fill="none" d="M6036.25 328.13c-16.32 19.9-45.76 52.47-77.67 71.87-174.73 106.24-236.38 104.37-437 144-233.03 46.04-514.54 53.21-652.48 53.65"/>
            <path d="m4869.33 601.15-10.01-3.48 10-3.52z"/>
        </g>
    </g>
</svg>
