<svg xmlns="http://www.w3.org/2000/svg" width="1763pt" height="404pt" viewBox="0 0 1763.21 404">
    <g class="graph">
        <path fill="#fff" d="M0 404V0h1763.21v404z"/>
        <g class="node" transform="translate(4 400)">
            <ellipse cx="790.23" cy="-378" fill="none" stroke="#000" rx="68.75" ry="18"/>
            <text x="790.23" y="-372.95" font-family="Times,serif" font-size="14" text-anchor="middle">:app:feature:tag</text>
        </g>
        <g class="node" transform="translate(4 400)">
            <ellipse cx="499.23" cy="-306" fill="none" stroke="#000" rx="81.04" ry="18"/>
            <text x="499.23" y="-300.95" font-family="Times,serif" font-size="14" text-anchor="middle">:app:core:compose</text>
        </g>
        <g stroke="#000" class="edge">
            <path fill="none" d="M744.86 34.87C696.11 46.6 621.31 64.59 567.85 77.45"/>
            <path d="m568.8 80.83-10.54-1.07 8.9-5.74z"/>
        </g>
        <g class="node" transform="translate(4 400)">
            <ellipse cx="380.23" cy="-162" fill="none" stroke="#000" rx="101" ry="18"/>
            <text x="380.23" y="-156.95" font-family="Times,serif" font-size="14" text-anchor="middle">:app:core:design-system</text>
        </g>
        <g stroke="#000" class="edge">
            <path fill="none" d="M728.22 27.51C634.4 34.7 467.79 50.61 413.23 76c-43.37 20.18-60.54 28.3-80 72-6.51 14.62-5.99 21.16 0 36 4.25 10.55 11.71 20.17 19.64 28.24"/>
            <path d="m355.19 209.62 4.89 9.4-9.68-4.3z"/>
        </g>
        <g class="node" transform="translate(4 400)">
            <ellipse cx="700.23" cy="-90" fill="none" stroke="#000" rx="86.67" ry="18"/>
            <text x="700.23" y="-84.95" font-family="Times,serif" font-size="14" text-anchor="middle">:app:core:navigation</text>
        </g>
        <g stroke="#000" class="edge">
            <path fill="none" d="M777.07 39.68C755.47 62 719.47 103.89 705.23 148c-14.39 44.54-10.39 99.69-5.89 132.52"/>
            <path d="m702.74 279.64-1.98 10.4-4.94-9.37z"/>
        </g>
        <g class="node" transform="translate(4 400)">
            <ellipse cx="251.23" cy="-90" fill="none" stroke="#000" rx="59.54" ry="18"/>
            <text x="251.23" y="-84.95" font-family="Times,serif" font-size="14" text-anchor="middle">:library:color</text>
        </g>
        <g stroke="#000" class="edge">
            <path fill="none" d="M725.8 24.19C617.39 27.21 412.16 37.95 351.23 76c-64.63 40.35-70.23 71.3-93 144-6.13 19.54-6.72 42.68-5.86 60.47"/>
            <path d="m255.85 280.09-2.81 10.22-4.17-9.74z"/>
        </g>
        <g class="node" transform="translate(4 400)">
            <ellipse cx="1517.23" cy="-18" fill="none" stroke="#000" rx="62.1" ry="18"/>
            <text x="1517.23" y="-12.95" font-family="Times,serif" font-size="14" text-anchor="middle">:library:kotlin</text>
        </g>
        <g stroke="#000" class="edge">
            <path fill="none" d="M861.89 25.67c145.03 6.22 476.21 23.22 519.34 50.33 98.7 62.05 128.64 213.45 137 276.6"/>
            <path d="m1521.66 351.81-2.25 10.35-4.7-9.49z"/>
        </g>
        <g class="node" transform="translate(4 400)">
            <ellipse cx="790.23" cy="-234" fill="none" stroke="#000" rx="79.5" ry="18"/>
            <text x="790.23" y="-228.95" font-family="Times,serif" font-size="14" text-anchor="middle">:library:navigation</text>
        </g>
        <g stroke="#000" class="edge">
            <path fill="none" d="M794.23 40.41v96.17"/>
            <path d="m797.73 136.38-3.5 10-3.5-10z"/>
        </g>
        <g class="node" transform="translate(4 400)">
            <ellipse cx="1676.23" cy="-18" fill="none" stroke="#000" rx="78.99" ry="18"/>
            <text x="1676.23" y="-12.95" font-family="Times,serif" font-size="14" text-anchor="middle">:library:coroutines</text>
        </g>
        <g stroke="#000" class="edge">
            <path fill="none" d="M861.67 26.04c215.82 10.62 875.56 50.33 875.56 138.96v74c0 42.64-22.41 87.62-39.12 115.26"/>
            <path d="m1701.11 356.05-8.27 6.63 2.34-10.34z"/>
        </g>
        <g class="node" transform="translate(4 400)">
            <ellipse cx="834.23" cy="-18" fill="none" stroke="#000" rx="72.85" ry="18"/>
            <text x="834.23" y="-12.95" font-family="Times,serif" font-size="14" text-anchor="middle">:library:datetime</text>
        </g>
        <g stroke="#000" class="edge">
            <path fill="none" d="M811.43 39.67c21.64 22.3 57.68 64.18 71.8 108.33 23.12 72.35-10.41 161.35-30.98 205.48"/>
            <path d="m855.49 354.83-7.49 7.5 1.18-10.53z"/>
        </g>
        <g class="node" transform="translate(4 400)">
            <ellipse cx="89.23" cy="-162" fill="none" stroke="#000" rx="89.23" ry="18"/>
            <text x="89.23" y="-156.95" font-family="Times,serif" font-size="14" text-anchor="middle">:library:shimmer-m3</text>
        </g>
        <g stroke="#000" class="edge">
            <path fill="none" d="M726.47 25.66C579.44 31.9 240.7 49.03 196.23 76c-50.15 30.4-80.14 95.55-93.91 132.99"/>
            <path d="m105.69 209.95-6.63 8.27.02-10.6z"/>
        </g>
        <g class="node" transform="translate(4 400)">
            <ellipse cx="1284.23" cy="-306" fill="none" stroke="#000" rx="84.11" ry="18"/>
            <text x="1284.23" y="-300.95" font-family="Times,serif" font-size="14" text-anchor="middle">:app:domain:memo</text>
        </g>
        <g stroke="red" stroke-width="2" class="edge">
            <path fill="none" d="M853.32 31.37c88.53 12.55 255.76 36.25 355.07 50.32"/>
            <path fill="red" d="m1207.15 77.98 9.41 4.87-10.39 2.06z"/>
        </g>
        <g class="node" transform="translate(4 400)">
            <ellipse cx="1185.23" cy="-234" fill="none" stroke="#000" rx="71.31" ry="18"/>
            <text x="1185.23" y="-228.95" font-family="Times,serif" font-size="14" text-anchor="middle">:app:domain:tag</text>
        </g>
        <g stroke="#000" class="edge">
            <path fill="none" d="m833.54 37.13 305.2 109.72"/>
            <path d="m1139.83 143.52 8.23 6.68-10.6-.09z"/>
        </g>
        <g stroke="#000" class="edge">
            <path fill="none" d="M427.76 100.96c-31.44 6.65-65.09 20.11-84.53 47.04-14.13 19.56-.03 44.75 15.36 63.34"/>
            <path d="m361.14 208.94 3.99 9.81-9.24-5.18z"/>
        </g>
        <g stroke="#000" class="edge">
            <path fill="none" d="M440 105.55c-33.78 7.81-74.86 20.93-106.77 42.45-34.31 23.13-41.07 34.72-59 72-9.18 19.06-13.95 42.53-16.42 60.58"/>
            <path d="m261.31 280.81-4.66 9.51-2.29-10.34z"/>
        </g>
        <g stroke="#000" class="edge">
            <path fill="none" d="M544.42 109.94c17.35 8.46 35.98 20.85 46.81 38.06 42.78 68.02-35.94 119.55 17 180 19.97 22.81 93.69 36.95 152.35 44.83"/>
            <path d="m760.75 369.33 9.47 4.76-10.37 2.18z"/>
        </g>
        <g class="node" transform="translate(4 400)">
            <ellipse cx="463.23" cy="-234" fill="none" stroke="#000" rx="115.33" ry="18"/>
            <text x="463.23" y="-228.95" font-family="Times,serif" font-size="14" text-anchor="middle">:app:core:calendar-compose</text>
        </g>
        <g stroke="#000" class="edge">
            <path fill="none" d="M494.33 112.3c-3.97 7.72-8.74 16.99-13.16 25.59"/>
            <path d="m484.4 139.26-7.69 7.29 1.46-10.49z"/>
        </g>
        <g class="node" transform="translate(4 400)">
            <ellipse cx="1043.23" cy="-18" fill="none" stroke="#000" rx="71.31" ry="18"/>
            <text x="1043.23" y="-12.95" font-family="Times,serif" font-size="14" text-anchor="middle">:app:core:model</text>
        </g>
        <g stroke="#000" class="edge">
            <path fill="none" d="M535.98 110.71c21.49 10.4 50.15 24.43 75.25 37.29 147.72 75.69 321.09 170 397.04 211.6"/>
            <path d="m1009.91 356.51 7.09 7.87-10.45-1.74z"/>
        </g>
        <g stroke="#000" class="edge">
            <path fill="none" d="m353.65 255.59-60.32 32.73"/>
            <path d="M295.16 291.31 284.7 293l7.12-7.84z"/>
        </g>
        <g stroke="#000" class="edge">
            <path fill="none" d="M407.3 255.95c28.89 20.36 80.57 54 129.93 72.05 72.12 26.38 158.91 39.87 220.72 46.62"/>
            <path d="m758.11 371.11 9.58 4.53-10.31 2.43z"/>
        </g>
        <g stroke="#000" class="edge">
            <path fill="none" d="M735.3 327.24c18.7 9.76 42.7 22.3 62.82 32.81"/>
            <path d="m799.65 356.9 7.24 7.73-10.48-1.52z"/>
        </g>
        <g stroke="#000" class="edge">
            <path fill="none" d="M797.75 184.15c7.56 36.78 25.41 123.56 34.67 168.61"/>
            <path d="m835.79 351.79-1.41 10.5-5.45-9.1z"/>
        </g>
        <g stroke="#000" class="edge">
            <path fill="none" d="M129.58 254.71c24.24 10.47 56.25 24.3 81.89 35.38"/>
            <path d="m212.84 286.87 7.79 7.18-10.56-.75z"/>
        </g>
        <g stroke="#000" class="edge">
            <path fill="none" d="M1324.67 110.68c18.55 9.13 40.69 21.89 57.56 37.32 65.33 59.77 109.67 157.41 128.61 205.07"/>
            <path d="m1514.1 351.79.36 10.58-6.88-8.05z"/>
        </g>
        <g stroke="#000" class="edge">
            <path fill="none" d="M1331.7 109.83c24.76 9.32 55.87 22.52 81.53 38.17 100.66 61.39 200.24 161.44 243.95 207.87"/>
            <path d="m1659.61 353.35 4.27 9.7-9.38-4.92z"/>
        </g>
        <g stroke="#000" class="edge">
            <path fill="none" d="M1216.58 103.75c-42.03 7.37-95.01 20.65-137.35 44.25-97.7 54.45-184.54 158.46-221.76 206.94"/>
            <path d="m860.45 356.8-8.83 5.85 3.25-10.08z"/>
        </g>
        <g stroke="red" stroke-width="2" class="edge">
            <path fill="none" d="M1264.76 111.59c-12.82 9.07-28.9 20.44-42.93 30.35"/>
            <path fill="red" d="m1225.18 143.87-10.19 2.91 6.14-8.63z"/>
        </g>
        <g stroke="#000" class="edge">
            <path fill="none" d="M1210.43 101.23c-35.1 6.64-74.56 20.02-101.2 46.77-55.56 55.78-62.95 155.35-62.96 204.27"/>
            <path d="m1049.77 352-3.39 10.04-3.61-9.96z"/>
        </g>
        <g class="node" transform="translate(4 400)">
            <ellipse cx="1294.23" cy="-18" fill="none" stroke="#000" rx="85.13" ry="18"/>
            <text x="1294.23" y="-12.95" font-family="Times,serif" font-size="14" text-anchor="middle">:common:exception</text>
        </g>
        <g stroke="#000" class="edge">
            <path fill="none" d="M1310.42 111.73c38.46 30.64 115.86 100.03 141.81 180.27 4.92 15.22 9.29 22.97 0 36-15.74 22.05-41.27 35.02-67.05 42.62"/>
            <path d="m1386.16 373.98-10.56-.81 8.76-5.96z"/>
        </g>
        <g class="node" transform="translate(4 400)">
            <ellipse cx="1350.23" cy="-90" fill="none" stroke="#000" rx="88.71" ry="18"/>
            <text x="1350.23" y="-84.95" font-family="Times,serif" font-size="14" text-anchor="middle">:app:domain:account</text>
        </g>
        <g stroke="#000" class="edge">
            <path fill="none" d="M1301.14 112.04c16.56 23.03 44.43 66.06 55.09 107.96 5.01 19.72 4.34 42.68 2.5 60.35"/>
            <path d="m1362.23 280.63-4.71 9.5-2.24-10.36z"/>
        </g>
        <g class="node" transform="translate(4 400)">
            <ellipse cx="1234.23" cy="-162" fill="none" stroke="#000" rx="86.67" ry="18"/>
            <text x="1234.23" y="-156.95" font-family="Times,serif" font-size="14" text-anchor="middle">:app:domain:backup</text>
        </g>
        <g stroke="#000" class="edge">
            <path fill="none" d="M1286.21 112.2c-2.52 18.27-7.68 47.79-16.98 71.8-3.47 8.95-8.33 18.15-13.18 26.33"/>
            <path d="m1259.07 212.1-8.25 6.66 2.3-10.35z"/>
        </g>
        <g stroke="#000" class="edge">
            <path fill="none" d="M1241.04 178.63c33.9 8.76 78.54 22.51 115.19 41.37 47.41 24.41 57.98 34.59 96 72 19.48 19.18 38.27 43.97 51.31 62.51"/>
            <path d="m1506.32 352.37 2.8 10.22-8.56-6.24z"/>
        </g>
        <g stroke="#000" class="edge">
            <path fill="none" d="M1246.26 177.01c43.01 8.58 102.93 22.79 152.97 42.99 95.01 38.37 197.16 103.71 248.13 138.17"/>
            <path d="m1649.01 355.06 6.3 8.52-10.24-2.74z"/>
        </g>
        <g stroke="#000" class="edge">
            <path fill="none" d="M1163.68 183.05c-16.48 10.42-38.32 24.35-57.45 36.95-71.35 46.99-85.07 65.21-159 108-20.54 11.88-44.12 23.58-64.09 32.95"/>
            <path d="m884.68 364.09-10.55 1.03 7.6-7.38z"/>
        </g>
        <g stroke="#000" class="edge">
            <path fill="none" d="M1169.16 183.6c-11.13 9.84-24.75 22.99-34.93 36.4-32.81 43.19-60.55 100.36-75.39 133.67"/>
            <path d="m1062.14 354.86-7.22 7.75.81-10.56z"/>
        </g>
        <g stroke="#000" class="edge">
            <path fill="none" d="M1168.94 183.37c-10.11 9.49-21.3 22.37-26.71 36.63-5.68 14.96-6.08 21.2 0 36 20.06 48.93 71.51 83.9 109.88 104.19"/>
            <path d="m1253.39 356.92 7.31 7.67-10.5-1.44z"/>
        </g>
        <g stroke="#000" class="edge">
            <path fill="none" d="M1250.54 175.52c29.27 7.16 62.46 20.31 83.69 44.48 14.47 16.48 19.13 41.17 20.37 60.37"/>
            <path d="m1358.09 280.14-3.16 10.11-3.83-9.87z"/>
        </g>
        <g stroke="red" stroke-width="2" class="edge">
            <path fill="none" d="M1201.09 183.95c5.57 7.96 12.35 17.64 18.58 26.54"/>
            <path fill="red" d="m1221.53 207.05 2.87 10.19-8.61-6.18z"/>
        </g>
        <g stroke="#000" class="edge">
            <path fill="none" d="M447.13 183.95c-10.22 8.62-22.83 19.25-34.06 28.73"/>
            <path d="m415.48 215.22-9.9 3.77 5.38-9.12z"/>
        </g>
        <g stroke="#000" class="edge">
            <path fill="none" d="M480.87 184.17c13.6 19.33 30.23 50.8 13.36 71.83-21.07 26.25-107.56 40.31-170.45 47.21"/>
            <path d="m324.15 306.69-10.32-2.43 9.58-4.53z"/>
        </g>
        <g stroke="#000" class="edge">
            <path fill="none" d="M483.03 184.04c9.02 10.1 20.27 23.35 29.2 35.96 32.1 45.36 17.79 75.68 63 108 29.32 20.97 119.34 35.96 185.93 44.53"/>
            <path d="m761.48 369.04 9.49 4.73-10.36 2.22z"/>
        </g>
        <g stroke="#000" class="edge">
            <path fill="none" d="M1391.7 326.71c25.11 10.52 58.28 24.43 84.77 35.53"/>
            <path d="m1477.73 358.97 7.87 7.1-10.57-.64z"/>
        </g>
        <g stroke="#000" class="edge">
            <path fill="none" d="M1413.64 323.76c56.33 12.09 140.85 30.24 199.56 42.85"/>
            <path d="m1613.69 363.13 9.04 5.53-10.51 1.32z"/>
        </g>
        <g stroke="#000" class="edge">
            <path fill="none" d="M1281.93 320.81c-97.78 13.26-271.27 36.8-369.85 50.17"/>
            <path d="m912.61 374.44-10.38-2.12 9.44-4.82z"/>
        </g>
        <g stroke="red" stroke-width="2" class="edge">
            <path fill="none" d="M1296.84 324.08c-53.17 12.13-132.1 30.12-186.91 42.62"/>
            <path fill="red" d="m1112.44 369.72-10.53-1.19 8.98-5.64z"/>
        </g>
        <g stroke="#000" class="edge">
            <path fill="none" d="M1340.67 327.95c-6.6 8.25-14.68 18.35-22.01 27.51"/>
            <path d="m1321.58 357.41-8.98 5.62 3.52-10z"/>
        </g>
        <g stroke="#000" class="edge">
            <path fill="none" d="M1236.51 256.33c-.95 20.09.86 52.85 19.72 71.67 14.03 14.01 125.11 32.63 198.93 43.66"/>
            <path d="m1455.34 368.15 9.38 4.93-10.4 1.99z"/>
        </g>
        <g stroke="#000" class="edge">
            <path fill="none" d="M1297.38 251.49c43.29 9.66 103.23 24.12 154.85 40.51 64.3 20.42 136.54 49.74 182.14 69.07"/>
            <path d="m1635.58 357.79 7.83 7.14-10.57-.7z"/>
        </g>
        <g stroke="#000" class="edge">
            <path fill="none" d="M1195.8 254.06c-74.03 26.28-226.5 80.41-306.31 108.74"/>
            <path d="m890.75 366.07-10.6.05 8.26-6.65z"/>
        </g>
        <g stroke="#000" class="edge">
            <path fill="none" d="m1215.56 255.85-137.1 101.93"/>
            <path d="m1080.59 360.55-10.11 3.16 5.94-8.77z"/>
        </g>
        <g stroke="#000" class="edge">
            <path fill="none" d="M1229.23 256.38c-8.34 18.69-17.82 48.8-6 71.62 6.65 12.85 18.01 23.25 29.9 31.32"/>
            <path d="m1254.79 356.23 6.63 8.26-10.33-2.32z"/>
        </g>
        <g stroke="red" stroke-width="2" class="edge">
            <path fill="none" d="M1265.42 255.41c15.45 9.33 35.01 21.13 51.84 31.28"/>
            <path fill="red" d="m1317.45 282.72 6.76 8.16-10.38-2.17z"/>
        </g>
    </g>
</svg>
