<svg xmlns="http://www.w3.org/2000/svg" width="7049pt" height="620pt" viewBox="0 0 7049.23 620">
    <g class="graph">
        <path fill="#fff" d="M0 620V0h7049.23v620z"/>
        <g class="node" transform="translate(4 616)">
            <ellipse cx="1758.23" cy="-594" fill="none" stroke="#000" rx="92.3" ry="18"/>
            <text x="1758.23" y="-588.95" font-family="Times,serif" font-size="14" text-anchor="middle">:app:platform:android</text>
        </g>
        <g class="node" transform="translate(4 616)">
            <ellipse cx="3956.23" cy="-522" fill="none" stroke="#000" rx="97.41" ry="18"/>
            <text x="3956.23" y="-516.95" font-family="Times,serif" font-size="14" text-anchor="middle">:app:platform:common</text>
        </g>
        <g stroke="red" stroke-width="2" class="edge">
            <path fill="none" d="M1852.84 25.89c351.3 11.18 1622.65 51.67 2000.67 63.71"/>
            <path fill="red" d="m3852.06 86.05 9.88 3.82-10.11 3.18z"/>
        </g>
        <g class="node" transform="translate(4 616)">
            <ellipse cx="1206.23" cy="-162" fill="none" stroke="#000" rx="95.88" ry="18"/>
            <text x="1206.23" y="-156.95" font-family="Times,serif" font-size="14" text-anchor="middle">:app:core:diary-service</text>
        </g>
        <g stroke="#000" class="edge">
            <path fill="none" d="M1670.52 24.19C1416.26 27.92 718.8 41.29 684.23 76c-101.7 102.11-109.79 217.22-13 324 28.49 31.42 284.55 44.88 433.26 50.09"/>
            <path d="m1104.5 446.58 9.87 3.84-10.11 3.16z"/>
        </g>
        <g class="node" transform="translate(4 616)">
            <ellipse cx="2959.23" cy="-90" fill="none" stroke="#000" rx="104.58" ry="18"/>
            <text x="2959.23" y="-84.95" font-family="Times,serif" font-size="14" text-anchor="middle">:app:core:holiday-service</text>
        </g>
        <g stroke="#000" class="edge">
            <path fill="none" d="M1742.24 40.01c-45.98 41.11-150.82 147.47-91.01 215.99 142.05 162.73 760.62 41.09 966 108 87.62 28.55 93.08 69.93 177 108 31.94 14.49 68.96 26.59 100.2 35.55"/>
            <path d="m2895.09 504.1 8.68 6.08-10.58.66z"/>
        </g>
        <g class="node" transform="translate(4 616)">
            <ellipse cx="3681.23" cy="-162" fill="none" stroke="#000" rx="74.89" ry="18"/>
            <text x="3681.23" y="-156.95" font-family="Times,serif" font-size="14" text-anchor="middle">:app:domain:fcm</text>
        </g>
        <g stroke="#000" class="edge">
            <path fill="none" d="M1821.36 36.22c283.78 63.46 1504.42 336.4 1799.48 402.38"/>
            <path d="m3621.29 435.12 8.99 5.59-10.52 1.24z"/>
        </g>
        <g stroke="#000" class="edge">
            <path fill="none" d="M3862.9 95.57c-390.61 2.56-1827.76 14.52-1916.67 52.43-51.75 22.07-90 32.74-90 89v74c0 42.67-1.49 63.9-36 89-45.49 33.09-449.12 29.5-505 36-8.23.96-16.79 2.1-25.33 3.34"/>
            <path d="m1290.64 442.77-10.41-1.99 9.37-4.94z"/>
        </g>
        <g stroke="#000" class="edge">
            <path fill="none" d="M3863.65 96.92c-229.66 5.05-795.19 20.46-875.42 51.08-152.12 58.06-264.45 190.66-171 324 13.04 18.61 33.32 30.71 54.65 38.57"/>
            <path d="m2872.94 507.23 8.38 6.49-10.6.15z"/>
        </g>
        <g stroke="#000" class="edge">
            <path fill="none" d="M3864.74 97.82c-57.88 5.22-131.5 18.33-189.51 50.18-47.41 26.03-83 34.91-83 89v74c0 47.8 37.34 92.04 64.7 118.04"/>
            <path d="m3658.95 426.13 4.99 9.35-9.73-4.19z"/>
        </g>
        <g class="node" transform="translate(4 616)">
            <ellipse cx="6090.23" cy="-306" fill="none" stroke="#000" rx="81.04" ry="18"/>
            <text x="6090.23" y="-300.95" font-family="Times,serif" font-size="14" text-anchor="middle">:app:core:compose</text>
        </g>
        <g stroke="#000" class="edge">
            <path fill="none" d="M4057.73 95.6c328 2.36 1389.97 12.95 1729.5 52.4 158.19 18.38 250.34-51.4 351 72 15.78 19.34-.38 45.28-17.38 64.17"/>
            <path d="m6123.57 286.39-9.44 4.81 4.37-9.65z"/>
        </g>
        <g class="node" transform="translate(4 616)">
            <ellipse cx="6248.23" cy="-162" fill="none" stroke="#000" rx="101" ry="18"/>
            <text x="6248.23" y="-156.95" font-family="Times,serif" font-size="14" text-anchor="middle">:app:core:design-system</text>
        </g>
        <g stroke="#000" class="edge">
            <path fill="none" d="M4057.82 95.51c441.48 2.5 2235.35 14.96 2348.41 52.49 104.64 34.73 151.5 45.99 202 144 22.71 44.08 10.56 76.82-28 108-33.3 26.94-138.36 40.46-220.7 47.06"/>
            <path d="m6359.82 450.55-10.24-2.72 9.7-4.26z"/>
        </g>
        <g class="node" transform="translate(4 616)">
            <ellipse cx="5422.23" cy="-306" fill="none" stroke="#000" rx="86.67" ry="18"/>
            <text x="5422.23" y="-300.95" font-family="Times,serif" font-size="14" text-anchor="middle">:app:core:navigation</text>
        </g>
        <g stroke="#000" class="edge">
            <path fill="none" d="M4057.65 95.65c227.61 2.2 788.94 11.7 972.58 52.35 136.47 30.2 286.47 103.1 356.23 139.53"/>
            <path d="m5387.99 284.38 7.22 7.76-10.47-1.56z"/>
        </g>
        <g class="node" transform="translate(4 616)">
            <ellipse cx="6365.23" cy="-90" fill="none" stroke="#000" rx="59.54" ry="18"/>
            <text x="6365.23" y="-84.95" font-family="Times,serif" font-size="14" text-anchor="middle">:library:color</text>
        </g>
        <g stroke="#000" class="edge">
            <path fill="none" d="M4057.95 94.86c433.63-.33 2173.01 1.6 2411.28 53.14 79.4 17.17 120.96 5.77 168 72 64.97 91.47 86.66 165.67 15 252-26.57 32.01-138.23 44.8-213.1 49.83"/>
            <path d="m6439.62 525.31-10.2-2.86 9.76-4.13z"/>
        </g>
        <g class="node" transform="translate(4 616)">
            <ellipse cx="5870.23" cy="-18" fill="none" stroke="#000" rx="62.1" ry="18"/>
            <text x="5870.23" y="-12.95" font-family="Times,serif" font-size="14" text-anchor="middle">:library:kotlin</text>
        </g>
        <g stroke="#000" class="edge">
            <path fill="none" d="M4057.82 94.94c410.07.07 1995.23 3.59 2492.41 53.06 222.43 22.13 495-134.53 495 89v218c0 69.29-62.43 66.6-128 89-91.01 31.09-747.69 47.05-969.8 51.61"/>
            <path d="m5947.83 599.1-10.07-3.3 9.92-3.7z"/>
        </g>
        <g class="node" transform="translate(4 616)">
            <ellipse cx="5759.23" cy="-306" fill="none" stroke="#000" rx="79.5" ry="18"/>
            <text x="5759.23" y="-300.95" font-family="Times,serif" font-size="14" text-anchor="middle">:library:navigation</text>
        </g>
        <g stroke="#000" class="edge">
            <path fill="none" d="M4057.94 94.82c311.65-.08 1269.32 3.76 1399.29 53.18 46.91 17.84 49.43 38.72 87 72 17.42 15.42 17.83 24.41 38 36 33.17 19.06 73.78 31.77 108.11 39.94"/>
            <path d="m5690.81 292.46 8.97 5.64-10.53 1.18z"/>
        </g>
        <g class="node" transform="translate(4 616)">
            <ellipse cx="1778.23" cy="-18" fill="none" stroke="#000" rx="78.99" ry="18"/>
            <text x="1778.23" y="-12.95" font-family="Times,serif" font-size="14" text-anchor="middle">:library:coroutines</text>
        </g>
        <g stroke="#000" class="edge">
            <path fill="none" d="M3862.9 95.51C3335.54 98.38 838.58 113.77 679.23 148c-316.09 67.9-490.31 17.9-668 288-11.64 17.7-8.04 94.69 6 108 30.67 29.08 1319.15 47.4 1674.87 51.91"/>
            <path d="m1691.88 592.41 9.96 3.62-10.05 3.37z"/>
        </g>
        <g class="node" transform="translate(4 616)">
            <ellipse cx="5072.23" cy="-18" fill="none" stroke="#000" rx="72.85" ry="18"/>
            <text x="5072.23" y="-12.95" font-family="Times,serif" font-size="14" text-anchor="middle">:library:datetime</text>
        </g>
        <g stroke="#000" class="edge">
            <path fill="none" d="M4054.45 98.85c159.77 7.12 477.06 23.94 585.78 49.15 78.74 18.26 621.14 222.14 668 288 28.06 39.44 44.41 70.34 14 108-20.68 25.61-102.26 39.44-165.88 46.48"/>
            <path d="m5156.93 593.93-10.32-2.42 9.58-4.54z"/>
        </g>
        <g class="node" transform="translate(4 616)">
            <ellipse cx="6468.23" cy="-306" fill="none" stroke="#000" rx="89.23" ry="18"/>
            <text x="6468.23" y="-300.95" font-family="Times,serif" font-size="14" text-anchor="middle">:library:shimmer-m3</text>
        </g>
        <g stroke="#000" class="edge">
            <path fill="none" d="M4057.37 95.88c444.32 4.16 2263.77 22.97 2314.86 52.12 50.64 28.89 79.08 94.91 91.8 132.82"/>
            <path d="m6467.31 279.58-.29 10.59-6.38-8.46z"/>
        </g>
        <g class="node" transform="translate(4 616)">
            <ellipse cx="2258.23" cy="-378" fill="none" stroke="#000" rx="71.31" ry="18"/>
            <text x="2258.23" y="-372.95" font-family="Times,serif" font-size="14" text-anchor="middle">:app:data:memo</text>
        </g>
        <g stroke="#000" class="edge">
            <path fill="none" d="M3863.22 96.26c-266.11 3.85-1003.68 17.41-1243.99 51.74-109.54 15.65-234.3 50.87-303.53 72.01"/>
            <path d="m2317.11 223.24-10.58-.4 8.52-6.29z"/>
        </g>
        <g class="node" transform="translate(4 616)">
            <ellipse cx="3675.23" cy="-306" fill="none" stroke="#000" rx="58.52" ry="18"/>
            <text x="3675.23" y="-300.95" font-family="Times,serif" font-size="14" text-anchor="middle">:app:data:tag</text>
        </g>
        <g stroke="#000" class="edge">
            <path fill="none" d="M3938.03 111.99c-13.36 10.31-30.66 23.78-45.8 36.01-19.39 15.66-23.39 20.61-43 36-47.28 37.11-103.78 78-138.27 102.58"/>
            <path d="m3713.25 289.24-10.17 2.94 6.12-8.64z"/>
        </g>
        <g class="node" transform="translate(4 616)">
            <ellipse cx="2898.23" cy="-162" fill="none" stroke="#000" rx="75.92" ry="18"/>
            <text x="2898.23" y="-156.95" font-family="Times,serif" font-size="14" text-anchor="middle">:app:data:account</text>
        </g>
        <g stroke="#000" class="edge">
            <path fill="none" d="M3864.94 97.86c-260.06 9.06-962.71 42.48-962.71 139.14v187.31"/>
            <path d="m2905.73 424-3.5 10-3.5-10z"/>
        </g>
        <g class="node" transform="translate(4 616)">
            <ellipse cx="1740.23" cy="-378" fill="none" stroke="#000" rx="83.6" ry="18"/>
            <text x="1740.23" y="-372.95" font-family="Times,serif" font-size="14" text-anchor="middle">:app:data:credential</text>
        </g>
        <g stroke="#000" class="edge">
            <path fill="none" d="M3862.75 95.55c-403.44 2.51-1925.8 14.49-2020.52 52.45-32.33 12.96-60.73 41.77-78.52 63.12"/>
            <path d="m1766.48 213.26-9 5.6 3.54-9.99z"/>
        </g>
        <g class="node" transform="translate(4 616)">
            <ellipse cx="3399.23" cy="-162" fill="none" stroke="#000" rx="74.89" ry="18"/>
            <text x="3399.23" y="-156.95" font-family="Times,serif" font-size="14" text-anchor="middle">:app:data:holiday</text>
        </g>
        <g stroke="#000" class="edge">
            <path fill="none" d="M3872.39 102.1c-201.77 17.5-681.16 66.3-681.16 134.9v74c0 71.36 83.93 109.14 146.18 127.34"/>
            <path d="m3338.22 434.93 8.68 6.07-10.57.67z"/>
        </g>
        <g class="node" transform="translate(4 616)">
            <ellipse cx="2372.23" cy="-234" fill="none" stroke="#000" rx="73.87" ry="18"/>
            <text x="2372.23" y="-228.95" font-family="Times,serif" font-size="14" text-anchor="middle">:app:data:backup</text>
        </g>
        <g stroke="#000" class="edge">
            <path fill="none" d="M3862.53 94.92c-338.56.15-1449.12 4.4-1601.3 53.08-90.42 28.92-174.11 105.72-115 180 18.79 23.61 92.07 37.59 150.93 45.21"/>
            <path d="m2297.35 369.71 9.49 4.71-10.36 2.24z"/>
        </g>
        <g class="node" transform="translate(4 616)">
            <ellipse cx="2250.23" cy="-306" fill="none" stroke="#000" rx="65.68" ry="18"/>
            <text x="2250.23" y="-300.95" font-family="Times,serif" font-size="14" text-anchor="middle">:app:data:fetch</text>
        </g>
        <g stroke="#000" class="edge">
            <path fill="none" d="M3863.55 96.55c-238.51 4.28-850.16 18.26-1051.32 51.45-193.06 31.85-414.08 107.93-509.72 142.88"/>
            <path d="m2303.76 294.15-10.59.16 8.18-6.73z"/>
        </g>
        <g class="node" transform="translate(4 616)">
            <ellipse cx="1724.23" cy="-234" fill="none" stroke="#000" rx="62.1" ry="18"/>
            <text x="1724.23" y="-228.95" font-family="Times,serif" font-size="14" text-anchor="middle">:app:data:fcm</text>
        </g>
        <g stroke="#000" class="edge">
            <path fill="none" d="M3862.72 94.71c-396.39-.81-1875.4-.19-2077.49 53.29-65.36 17.3-99.3 13.97-134 72-27.73 46.38 18.07 104.3 50.07 136.5"/>
            <path d="m1703.7 353.94 4.71 9.49-9.6-4.48z"/>
        </g>
        <g class="node" transform="translate(4 616)">
            <ellipse cx="3758.23" cy="-450" fill="none" stroke="#000" rx="78.48" ry="18"/>
            <text x="3758.23" y="-444.95" font-family="Times,serif" font-size="14" text-anchor="middle">:app:data:calendar</text>
        </g>
        <g stroke="red" stroke-width="2" class="edge">
            <path fill="none" d="M3916.78 110.36c-30.27 10.7-70.79 25.03-102.75 36.33"/>
            <path fill="red" d="m3817 149.35-10.6.03 8.27-6.63z"/>
        </g>
        <g class="node" transform="translate(4 616)">
            <ellipse cx="2534.23" cy="-234" fill="none" stroke="#000" rx="70.29" ry="18"/>
            <text x="2534.23" y="-228.95" font-family="Times,serif" font-size="14" text-anchor="middle">:app:data:buddy</text>
        </g>
        <g stroke="#000" class="edge">
            <path fill="none" d="M3862.53 94.28c-355.5-1.6-1565.43 2.11-1680.3 125.72-32.95 35.46-46.05 71.73-14 108 43.15 48.82 226.75 25.14 291 36 5.48.93 11.15 1.97 16.83 3.08"/>
            <path d="m2476.34 363.57 9.12 5.4-10.5 1.46z"/>
        </g>
        <g class="node" transform="translate(4 616)">
            <ellipse cx="4511.23" cy="-306" fill="none" stroke="#000" rx="84.11" ry="18"/>
            <text x="4511.23" y="-300.95" font-family="Times,serif" font-size="14" text-anchor="middle">:app:domain:memo</text>
        </g>
        <g stroke="#000" class="edge">
            <path fill="none" d="M4047.51 102.38c69.48 7.35 168.68 21.18 252.72 45.62 76.83 22.35 105.66 18.33 165 72 18.46 16.69 31.71 41.86 39.92 61.17"/>
            <path d="m4508.36 279.77.47 10.59-6.97-7.98z"/>
        </g>
        <g class="node" transform="translate(4 616)">
            <ellipse cx="4562.23" cy="-234" fill="none" stroke="#000" rx="71.31" ry="18"/>
            <text x="4562.23" y="-228.95" font-family="Times,serif" font-size="14" text-anchor="middle">:app:domain:tag</text>
        </g>
        <g stroke="#000" class="edge">
            <path fill="none" d="M4057.28 96.31c85.15 3.75 211.23 15.68 314.95 51.69 116.08 40.3 176.27 36.62 236 144 11.71 21.04-2.21 45.89-17.08 63.98"/>
            <path d="m4594.11 357.92-9.23 5.21 3.96-9.83z"/>
        </g>
        <g class="node" transform="translate(4 616)">
            <ellipse cx="4267.23" cy="-90" fill="none" stroke="#000" rx="88.71" ry="18"/>
            <text x="4267.23" y="-84.95" font-family="Times,serif" font-size="14" text-anchor="middle">:app:domain:account</text>
        </g>
        <g stroke="#000" class="edge">
            <path fill="none" d="M4047.98 102.11c84.07 12.18 198.25 45.22 198.25 134.89v146c0 39.86 9.68 85.08 16.99 113.57"/>
            <path d="m4266.6 495.66-.82 10.56-5.95-8.76z"/>
        </g>
        <g class="node" transform="translate(4 616)">
            <ellipse cx="4118.23" cy="-306" fill="none" stroke="#000" rx="96.39" ry="18"/>
            <text x="4118.23" y="-300.95" font-family="Times,serif" font-size="14" text-anchor="middle">:app:domain:credential</text>
        </g>
        <g stroke="#000" class="edge">
            <path fill="none" d="M3978.38 111.94c10.38 10.06 23.38 23.31 33.85 36.06 36.64 44.61 73.28 101.24 93.66 134.07"/>
            <path d="m4108.86 280.21 2.26 10.35-8.22-6.68z"/>
        </g>
        <g class="node" transform="translate(4 616)">
            <ellipse cx="4842.23" cy="-90" fill="none" stroke="#000" rx="87.69" ry="18"/>
            <text x="4842.23" y="-84.95" font-family="Times,serif" font-size="14" text-anchor="middle">:app:domain:holiday</text>
        </g>
        <g stroke="#000" class="edge">
            <path fill="none" d="M4054.99 98.6c148.18 6.4 427.69 21.74 523.24 49.4 66.83 19.34 90.16 22.45 139 72 79.49 80.63 113.02 217.7 124.26 276.66"/>
            <path d="m4844.88 495.73-1.65 10.47-5.24-9.21z"/>
        </g>
        <g class="node" transform="translate(4 616)">
            <ellipse cx="4127.23" cy="-162" fill="none" stroke="#000" rx="86.67" ry="18"/>
            <text x="4127.23" y="-156.95" font-family="Times,serif" font-size="14" text-anchor="middle">:app:domain:backup</text>
        </g>
        <g stroke="#000" class="edge">
            <path fill="none" d="M3966.57 112.03c3.7 10.32 8.29 23.8 11.66 35.97 21.86 78.88-5.19 111.1 39 180 14.4 22.45 29.2 17.09 48 36 18.89 18.99 36.75 43.64 49.12 62.19"/>
            <path d="m4117.25 424.24 2.55 10.28-8.41-6.45z"/>
        </g>
        <g class="node" transform="translate(4 616)">
            <ellipse cx="3974.23" cy="-234" fill="none" stroke="#000" rx="78.48" ry="18"/>
            <text x="3974.23" y="-228.95" font-family="Times,serif" font-size="14" text-anchor="middle">:app:domain:fetch</text>
        </g>
        <g stroke="#000" class="edge">
            <path fill="none" d="M3961.33 112.46c3.01 47.78 11.39 181.03 15.1 239.93"/>
            <path d="m3979.92 352.06-2.87 10.2-4.12-9.76z"/>
        </g>
        <g class="node" transform="translate(4 616)">
            <ellipse cx="4361.23" cy="-378" fill="none" stroke="#000" rx="91.27" ry="18"/>
            <text x="4361.23" y="-372.95" font-family="Times,serif" font-size="14" text-anchor="middle">:app:domain:calendar</text>
        </g>
        <g stroke="#000" class="edge">
            <path fill="none" d="M4054.28 98.96c61.13 5.57 141.2 18.64 205.95 49.04 32.37 15.2 62.77 43.03 82.44 63.54"/>
            <path d="m4345.11 209.03 4.28 9.69-9.39-4.91z"/>
        </g>
        <g class="node" transform="translate(4 616)">
            <ellipse cx="4619.23" cy="-162" fill="none" stroke="#000" rx="83.08" ry="18"/>
            <text x="4619.23" y="-156.95" font-family="Times,serif" font-size="14" text-anchor="middle">:app:domain:buddy</text>
        </g>
        <g stroke="#000" class="edge">
            <path fill="none" d="M4053.87 99.28c97.66 5.86 254.7 19.25 387.36 48.72 120.05 26.67 262-33.98 262 89v74c0 45.51-31.57 89.88-55.05 116.58"/>
            <path d="m4650.92 429.77-9.31 5.04 4.13-9.75z"/>
        </g>
        <g class="node" transform="translate(4 616)">
            <ellipse cx="5335.23" cy="-450" fill="none" stroke="#000" rx="86.15" ry="18"/>
            <text x="5335.23" y="-444.95" font-family="Times,serif" font-size="14" text-anchor="middle">:app:core:coroutines</text>
        </g>
        <g stroke="#000" class="edge">
            <path fill="none" d="M4058.01 94.83c214.5.55 742.22 6.95 1181.22 53.17 8.62.91 17.62 2.09 26.54 3.42"/>
            <path d="m5266.15 147.94 9.34 4.99-10.42 1.92z"/>
        </g>
        <g class="node" transform="translate(4 616)">
            <ellipse cx="496.23" cy="-234" fill="none" stroke="#000" rx="123.52" ry="18"/>
            <text x="496.23" y="-228.95" font-family="Times,serif" font-size="14" text-anchor="middle">:app:core:filter-database-room</text>
        </g>
        <g stroke="#000" class="edge">
            <path fill="none" d="M3862.87 95.12c-511.03.81-2865.63 7.05-3012.64 52.88-136.98 42.7-269.94 157.19-324.31 208.05"/>
            <path d="m528.36 358.57-9.67 4.32 4.86-9.41z"/>
        </g>
        <g class="node" transform="translate(4 616)">
            <ellipse cx="808.23" cy="-234" fill="none" stroke="#000" rx="132.22" ry="18"/>
            <text x="808.23" y="-228.95" font-family="Times,serif" font-size="14" text-anchor="middle">:app:core:backup-database-room</text>
        </g>
        <g stroke="#000" class="edge">
            <path fill="none" d="M3862.7 95.13C3345.78 96 947.33 102.49 886.23 148c-64.77 48.25-74.14 153.53-74.68 204.38"/>
            <path d="m815.05 352.26-3.48 10.01-3.52-9.99z"/>
        </g>
        <g class="node" transform="translate(4 616)">
            <ellipse cx="1478.23" cy="-162" fill="none" stroke="#000" rx="158.32" ry="18"/>
            <text x="1478.23" y="-156.95" font-family="Times,serif" font-size="14" text-anchor="middle">:app:core:account-preferences-datastore</text>
        </g>
        <g stroke="#000" class="edge">
            <path fill="none" d="M3862.99 96.15C3515.8 100.48 2349.11 117.2 2184.23 148c-116.76 21.81-252-29.78-252 89v74c0 48.21-20.88 63.84-62 89-22.01 13.47-154.41 29.61-258.51 40.51"/>
            <path d="m1612.28 443.97-10.31-2.45 9.58-4.51z"/>
        </g>
        <g class="node" transform="translate(4 616)">
            <ellipse cx="1367.23" cy="-234" fill="none" stroke="#000" rx="124.54" ry="18"/>
            <text x="1367.23" y="-228.95" font-family="Times,serif" font-size="14" text-anchor="middle">:app:core:diary-database-room</text>
        </g>
        <g stroke="#000" class="edge">
            <path fill="none" d="M3862.42 94.84c-515.7-.65-2897.27-.69-2950.19 53.16-119.33 121.42 193.1 191.16 360.79 218.89"/>
            <path d="m1273.54 363.43 9.31 5.06-10.43 1.85z"/>
        </g>
        <g class="node" transform="translate(4 616)">
            <ellipse cx="3149.23" cy="-162" fill="none" stroke="#000" rx="157.3" ry="18"/>
            <text x="3149.23" y="-156.95" font-family="Times,serif" font-size="14" text-anchor="middle">:app:core:holiday-preferences-datastore</text>
        </g>
        <g stroke="#000" class="edge">
            <path fill="none" d="M3864.06 97.24c-157.34 4.59-462.51 17.56-564.83 50.76-72.28 23.45-146 13.01-146 89v187.31"/>
            <path d="m3156.73 424-3.5 10-3.5-10z"/>
        </g>
        <g class="node" transform="translate(4 616)">
            <ellipse cx="1091.23" cy="-234" fill="none" stroke="#000" rx="133.24" ry="18"/>
            <text x="1091.23" y="-228.95" font-family="Times,serif" font-size="14" text-anchor="middle">:app:core:holiday-database-room</text>
        </g>
        <g stroke="#000" class="edge">
            <path fill="none" d="M3862.6 95.22c-408.4 1.21-1968.71 8.68-2184.37 52.78-213.62 43.69-449.37 161.37-542.23 210.73"/>
            <path d="m1137.72 361.78-10.47 1.63 7.16-7.8z"/>
        </g>
        <g class="node" transform="translate(4 616)">
            <ellipse cx="5449.23" cy="-378" fill="none" stroke="#000" rx="81.55" ry="18"/>
            <text x="5449.23" y="-372.95" font-family="Times,serif" font-size="14" text-anchor="middle">:app:feature:memo</text>
        </g>
        <g stroke="#000" class="edge">
            <path fill="none" d="M4057.77 95.24c320.49 1.21 1323.76 8.53 1376.46 52.76 17.22 14.45 21.17 40.33 21.28 60.47"/>
            <path d="m5459.01 208.42-3.78 9.89-3.22-10.09z"/>
        </g>
        <g class="node" transform="translate(4 616)">
            <ellipse cx="5656.23" cy="-378" fill="none" stroke="#000" rx="68.75" ry="18"/>
            <text x="5656.23" y="-372.95" font-family="Times,serif" font-size="14" text-anchor="middle">:app:feature:tag</text>
        </g>
        <g stroke="#000" class="edge">
            <path fill="none" d="M4057.43 96.13c338.74 4.21 1450.5 20.38 1519.8 51.87 28.73 13.05 52.19 41.17 66.74 62.33"/>
            <path d="m5646.79 208.23 2.58 10.28-8.43-6.42z"/>
        </g>
        <g class="node" transform="translate(4 616)">
            <ellipse cx="6270.23" cy="-450" fill="none" stroke="#000" rx="88.71" ry="18"/>
            <text x="6270.23" y="-444.95" font-family="Times,serif" font-size="14" text-anchor="middle">:app:feature:calendar</text>
        </g>
        <g stroke="#000" class="edge">
            <path fill="none" d="M4057.62 95.52c370.77 2.28 1694.42 13.06 2113.61 52.48 9.21.87 18.84 2.06 28.36 3.42"/>
            <path d="m6199.81 147.92 9.37 4.94-10.41 1.98z"/>
        </g>
        <g class="node" transform="translate(4 616)">
            <ellipse cx="5112.23" cy="-378" fill="none" stroke="#000" rx="80.52" ry="18"/>
            <text x="5112.23" y="-372.95" font-family="Times,serif" font-size="14" text-anchor="middle">:app:feature:buddy</text>
        </g>
        <g stroke="#000" class="edge">
            <path fill="none" d="M4056.43 97.07c237.81 5.54 840.41 22.23 926.8 50.93 40.86 13.57 80.99 43.33 106.3 64.7"/>
            <path d="m5091.73 209.97 5.28 9.19-9.86-3.89z"/>
        </g>
        <g class="node" transform="translate(4 616)">
            <ellipse cx="6048.23" cy="-378" fill="none" stroke="#000" rx="76.94" ry="18"/>
            <text x="6048.23" y="-372.95" font-family="Times,serif" font-size="14" text-anchor="middle">:app:feature:more</text>
        </g>
        <g stroke="#000" class="edge">
            <path fill="none" d="M4057.7 95.31c316.28 1.43 1311.94 9.34 1630.53 52.69 111.21 15.13 237.84 50.29 308.6 71.61"/>
            <path d="m5997.7 216.21 8.55 6.26-10.59.44z"/>
        </g>
        <g class="node" transform="translate(4 616)">
            <ellipse cx="5867.23" cy="-378" fill="none" stroke="#000" rx="86.15" ry="18"/>
            <text x="5867.23" y="-372.95" font-family="Times,serif" font-size="14" text-anchor="middle">:app:feature:account</text>
        </g>
        <g stroke="#000" class="edge">
            <path fill="none" d="M4057.23 96.42c330.94 5.06 1403.47 23.49 1556 51.58 77 14.18 162.09 47.14 212.75 68.72"/>
            <path d="m5827.06 213.38 7.8 7.17-10.57-.74z"/>
        </g>
        <g class="node" transform="translate(4 616)">
            <ellipse cx="128.23" cy="-162" fill="none" stroke="#000" rx="112.26" ry="18"/>
            <text x="128.23" y="-156.95" font-family="Times,serif" font-size="14" text-anchor="middle">:library:firebase-messaging</text>
        </g>
        <g stroke="#000" class="edge">
            <path fill="none" d="M3862.82 95.29C3343.37 96.98 917.36 107.07 764.23 148c-95.71 25.58-104.7 67.23-195 108-130.3 58.83-175.17 43.98-303 108-37.36 18.71-76.82 45.95-103.17 65.36"/>
            <path d="m165.3 432.06-10.11 3.16 5.93-8.78z"/>
        </g>
        <g class="node" transform="translate(4 616)">
            <ellipse cx="3751.23" cy="-18" fill="none" stroke="#000" rx="71.31" ry="18"/>
            <text x="3751.23" y="-12.95" font-family="Times,serif" font-size="14" text-anchor="middle">:app:core:model</text>
        </g>
        <g stroke="#000" class="edge">
            <path fill="none" d="M1236.14 471.62c16.17 10.39 37.39 24.1 56.09 36.38 24.11 15.83 26.49 27.34 54 36 113.07 35.6 1914.94 49.71 2325.97 52.47"/>
            <path d="m3672.18 592.97 9.98 3.57-10.03 3.43z"/>
        </g>
        <g class="node" transform="translate(4 616)">
            <ellipse cx="4267.23" cy="-18" fill="none" stroke="#000" rx="85.13" ry="18"/>
            <text x="4267.23" y="-12.95" font-family="Times,serif" font-size="14" text-anchor="middle">:common:exception</text>
        </g>
        <g stroke="#000" class="edge">
            <path fill="none" d="M1279.62 466.83c11.86 1.85 24.08 3.65 35.61 5.17 157.23 20.68 551.7 62.42 710 72 803.13 48.63 1005.75 12.32 1810 36 117.88 3.47 253.62 9.01 341.91 12.81"/>
            <path d="m4177.12 589.31 9.84 3.93-10.14 3.06z"/>
        </g>
        <g class="node" transform="translate(4 616)">
            <ellipse cx="1473.23" cy="-90" fill="none" stroke="#000" rx="121.98" ry="18"/>
            <text x="1473.23" y="-84.95" font-family="Times,serif" font-size="14" text-anchor="middle">:app:core:account-preferences</text>
        </g>
        <g stroke="#000" class="edge">
            <path fill="none" d="M1264.58 469.25c41.47 10.87 98.88 25.92 143.6 37.65"/>
            <path d="m1409.01 503.49 8.78 5.93-10.56.85z"/>
        </g>
        <g class="node" transform="translate(4 616)">
            <ellipse cx="1206.23" cy="-90" fill="none" stroke="#000" rx="72.85" ry="18"/>
            <text x="1206.23" y="-84.95" font-family="Times,serif" font-size="14" text-anchor="middle">:common:model</text>
        </g>
        <g stroke="#000" class="edge">
            <path fill="none" d="M1210.23 472.3v24.16"/>
            <path d="m1213.73 496.38-3.5 10-3.5-10z"/>
        </g>
        <g stroke="#000" class="edge">
            <path fill="none" d="M3039.64 538.64c14.14 1.95 28.8 3.83 42.59 5.36 213.5 23.63 466.25 40.59 592.62 48.32"/>
            <path d="m3675.03 588.82 9.77 4.11-10.2 2.88z"/>
        </g>
        <g stroke="#000" class="edge">
            <path fill="none" d="M3757.95 458.72c70.79 3.58 181.41 9.05 277.28 13.28 403.48 17.8 506.14-4.26 908 36 99.9 10.01 123.3 24.24 223 36 231.71 27.33 507.84 43.22 636.02 49.65"/>
            <path d="m5802.13 590.13 9.81 4-10.16 3z"/>
        </g>
        <g stroke="#000" class="edge">
            <path fill="none" d="M3643.89 469.43c-66.87 23.07-196.06 66.51-243.66 74.57-297.19 50.32-1232.22 53.52-1527.62 53.24"/>
            <path d="m1873.04 600.74-9.99-3.51 10-3.49z"/>
        </g>
        <g stroke="#000" class="edge">
            <path fill="none" d="M3736.18 467.5c95.71 23.4 295.68 71.89 328.05 76.5 341.34 48.62 753.13 53.86 927.47 53.64"/>
            <path d="m4991.57 594.14 10.01 3.48-10 3.52z"/>
        </g>
        <g stroke="#000" class="edge">
            <path fill="none" d="M3751.31 462.89c106.42 12.72 315.74 37.72 433.75 51.82"/>
            <path d="m4185.17 511.19 9.51 4.67-10.34 2.28z"/>
        </g>
        <g stroke="#000" class="edge">
            <path fill="none" d="M3668.35 471.8c-16.41 18.45-36.88 48.6-22.12 72.2 10.78 17.23 28.94 29 47.38 36.98"/>
            <path d="m3694.72 577.66 8.01 6.93-10.59-.42z"/>
        </g>
        <g stroke="#000" class="edge">
            <path fill="none" d="M3706.83 471.67c28.11 20.72 79.55 55.42 129.4 72.33 112.11 38.01 248.63 49.4 338.48 52.48"/>
            <path d="m4174.58 592.97 9.88 3.81-10.1 3.19z"/>
        </g>
        <g stroke="#000" class="edge">
            <path fill="none" d="M6147.83 323.94c23.86 8.09 50.72 20.77 69.4 40.06 16.07 16.59 25.01 41.44 29.82 60.66"/>
            <path d="m6250.44 423.78-1.23 10.53-5.6-9z"/>
        </g>
        <g stroke="#000" class="edge">
            <path fill="none" d="M6117.44 327.63c10.95 9.3 22.89 21.93 28.79 36.37 18.17 44.46-33.85 70.37-4 108 19.64 24.76 99.81 39.03 159.34 46.4"/>
            <path d="m6301.78 514.9 9.52 4.66-10.35 2.29z"/>
        </g>
        <g stroke="#000" class="edge">
            <path fill="none" d="M6034.3 322.47c-49.2 10.27-114.2 26.06-136.07 41.53-39.65 28.06-81.89 155.79-124 180-52.1 29.95-440.42 45.26-614.27 50.67"/>
            <path d="m5160.19 598.17-10.1-3.19 9.89-3.81z"/>
        </g>
        <g stroke="#000" class="edge">
            <path fill="none" d="M6038.55 323.47C5839.48 367.86 5163.17 517 4943.23 544c-54.8 6.73-847.74 39.23-1106.79 49.72"/>
            <path d="m3836.9 597.21-10.14-3.09 9.85-3.91z"/>
        </g>
        <g class="node" transform="translate(4 616)">
            <ellipse cx="6018.23" cy="-234" fill="none" stroke="#000" rx="115.33" ry="18"/>
            <text x="6018.23" y="-228.95" font-family="Times,serif" font-size="14" text-anchor="middle">:app:core:calendar-compose</text>
        </g>
        <g stroke="#000" class="edge">
            <path fill="none" d="M6076.8 327.95c-8.63 8.38-19.21 18.67-28.76 27.95"/>
            <path d="m6050.69 358.21-9.61 4.46 4.74-9.48z"/>
        </g>
        <g stroke="#000" class="edge">
            <path fill="none" d="M6280.26 471.77c16.04 9.6 36.34 21.74 53.49 32"/>
            <path d="m6335.35 500.65 6.79 8.14-10.38-2.13z"/>
        </g>
        <g stroke="#000" class="edge">
            <path fill="none" d="M6206.99 470.52c-62.35 20.65-178.61 56.53-280.76 73.48-277.67 46.06-612.38 52.93-765.78 53.42"/>
            <path d="m5160.8 600.92-10-3.48 9.99-3.52z"/>
        </g>
        <g stroke="#000" class="edge">
            <path fill="none" d="M5442.46 328.13c37.67 41.83 123.6 150.51 65.77 215.87-22.77 25.73-231.25 41.65-350.06 48.72"/>
            <path d="m5158.66 596.19-10.19-2.91 9.78-4.08z"/>
        </g>
        <g stroke="#000" class="edge">
            <path fill="none" d="M5702.97 322.13c-24.29 7.64-50.2 20.46-65.74 41.87-47.16 64.97 41.38 122.85-15 180-31.77 32.2-317.08 45.8-462.13 50.67"/>
            <path d="m5160.26 598.17-10.11-3.17 9.88-3.83z"/>
        </g>
        <g stroke="#000" class="edge">
            <path fill="none" d="M6463.97 328.42c-14.04 29.56-43.48 91.44-68.74 143.58-4.04 8.34-8.47 17.39-12.5 25.62"/>
            <path d="m6385.93 499.05-7.56 7.43 1.27-10.52z"/>
        </g>
        <g stroke="#000" class="edge">
            <path fill="none" d="M2209.02 250.27c-39.14 9.11-93.23 23.41-138.79 41.73-93.73 37.68-102.91 80.09-200 108-237.56 68.3-309.38 8.22-555 36-8.29.94-16.93 2.07-25.53 3.31"/>
            <path d="m1290.35 442.75-10.41-1.99 9.38-4.93z"/>
        </g>
        <g stroke="#000" class="edge">
            <path fill="none" d="M2193.11 242.86C1851.42 262.03 358.41 346.73 342.23 364c-57.38 61.23-17.66 141.69 57 180 57.52 29.51 995.91 46.86 1293.33 51.64"/>
            <path d="m1692.25 592.14 9.95 3.65-10.06 3.34z"/>
        </g>
        <g stroke="#000" class="edge">
            <path fill="none" d="M2333.53 239.69c368.07 3.67 2044.8 21.93 2274.7 52.31 66.69 8.81 81.32 21.5 147 36 80.95 17.86 102.9 14.68 183 36 48.28 12.85 183.87 31.41 213 72 8.2 11.43 11.3 82.78-2 108-6.8 12.9-18.31 23.43-30.21 31.6"/>
            <path d="m5121.08 578.44-10.32 2.4 6.57-8.31z"/>
        </g>
        <g stroke="#000" class="edge">
            <path fill="none" d="M2333.64 239.34c324.91 1.78 1665.76 11.51 2083.59 52.66 8.58.84 17.54 2.01 26.41 3.33"/>
            <path d="m4443.95 291.84 9.33 5.01-10.42 1.9z"/>
        </g>
        <g class="node" transform="translate(4 616)">
            <ellipse cx="2550.23" cy="-162" fill="none" stroke="#000" rx="101.51" ry="18"/>
            <text x="2550.23" y="-156.95" font-family="Times,serif" font-size="14" text-anchor="middle">:app:core:diary-database</text>
        </g>
        <g stroke="#000" class="edge">
            <path fill="none" d="M2223.9 253.39c-16.89 8.49-35.06 21.07-44.67 38.61-7.69 14.03-10.84 24.23 0 36 66.17 71.83 371.83-35.83 438 36 18.88 20.49-4.78 46.85-28.3 65.54"/>
            <path d="m2591.3 432.14-10.08 3.25 5.85-8.83z"/>
        </g>
        <g stroke="#000" class="edge">
            <path fill="none" d="M3620.43 311.45c-322.86 2.62-1869.1 16.96-1963.2 52.55-23.31 8.82-19.88 26.68-43 36-53.51 21.57-478.64-6.19-518 36-14.99 16.06-9.72 90.85 8 108 41.33 40 412.61 49.82 587.56 52.22"/>
            <path d="m1691.81 592.72 9.95 3.63-10.04 3.37z"/>
        </g>
        <g stroke="#000" class="edge">
            <path fill="none" d="M3734.18 316.51c92.8 9.37 286.45 29.15 450.05 47.49 134.33 15.05 167.6 21.56 302 36 166.92 17.94 219.56-24.89 376 36 74.22 28.89 79.31 60.18 143 108 13.04 9.79 27.45 20.56 39.86 29.81"/>
            <path d="m5047 570.87 5.93 8.78-10.11-3.17z"/>
        </g>
        <g stroke="#000" class="edge">
            <path fill="none" d="M3735.51 315.42c115.57 9.08 388.01 30.49 616.72 48.58 44.9 3.55 95.1 7.54 135.59 10.76"/>
            <path d="m4488.04 371.26 9.69 4.29-10.24 2.69z"/>
        </g>
        <g stroke="#000" class="edge">
            <path fill="none" d="M3625.03 317.28c-151.21 17.63-590.53 69.47-954.8 118.72-9.35 1.26-19.12 2.63-28.85 4.01"/>
            <path d="m2641.9 443.48-10.39-2.05 9.4-4.88z"/>
        </g>
        <g stroke="#000" class="edge">
            <path fill="none" d="M2833.11 461.78c-82.43 8.83-214.75 25.61-259.88 46.22-22.67 10.35-19.89 26.67-43 36-116.88 47.21-484.94 53.32-657.3 53.5"/>
            <path d="m1873.13 601-10-3.5 10-3.5z"/>
        </g>
        <g stroke="#000" class="edge">
            <path fill="none" d="M2961.34 465.72c35.29 8.11 80.07 21.47 115.89 42.28 20.12 11.69 16.51 27.1 38 36 11.01 4.56 1504.12 41.72 1877.25 50.94"/>
            <path d="m4992.55 591.44 9.91 3.74-10.08 3.25z"/>
        </g>
        <g stroke="#000" class="edge">
            <path fill="none" d="M2955.99 467.07c10.32 1.94 21.08 3.71 31.24 4.93 116.28 13.94 905.55 40.67 1185.65 49.83"/>
            <path d="m4172.84 518.32 9.88 3.83-10.11 3.17z"/>
        </g>
        <g stroke="#000" class="edge">
            <path fill="none" d="M2830.96 460.62c-47.03 3.58-110.03 8.14-165.73 11.38-385.22 22.4-841.2 40.35-1059.28 48.4"/>
            <path d="m1606.11 523.89-10.12-3.13 9.86-3.86z"/>
        </g>
        <g stroke="#000" class="edge">
            <path fill="none" d="M1759.63 255.86c27.43 32.07 78.39 102.36 39.6 144.14-36.69 39.52-430.44 29.68-484 36-8.22.97-16.79 2.12-25.32 3.36"/>
            <path d="m1290.64 442.79-10.41-1.98 9.37-4.94z"/>
        </g>
        <g stroke="#000" class="edge">
            <path fill="none" d="M1663.38 242.98C1365.32 258.03 342.83 313.2 296.23 364c-54.08 58.95-55.55 122.43 0 180 48.57 50.33 1080.24 53.43 1395.38 53.19"/>
            <path d="m1691.45 593.69 10 3.5-10 3.5z"/>
        </g>
        <g stroke="#000" class="edge">
            <path fill="none" d="M1825.34 242.66c87.91 3.85 232.33 9.83 356.89 13.34 454.34 12.81 1592.76-9.41 2045 36 87.69 8.81 107.81 23.17 195 36 144.65 21.29 183.97 5.66 327 36 51.56 10.94 62.04 22.55 113 36 75.1 19.81 108.5-10.11 171 36 40.97 30.22 45.93 94.96 45.03 132.49"/>
            <path d="m5081.77 568.28-3.9 9.85-3.09-10.14z"/>
        </g>
        <g stroke="#000" class="edge">
            <path fill="none" d="M1825.35 242.53c87.91 3.74 232.33 9.62 356.88 13.47 695.41 21.49 869.67 12.24 1565 36 91.85 3.14 196.29 7.98 271.58 11.69"/>
            <path d="m4018.85 300.19 9.81 3.99-10.16 3z"/>
        </g>
        <g stroke="#000" class="edge">
            <path fill="none" d="M1729.24 256.04c-31.42 34.38-108.17 111.53-191.01 143.96-89.91 35.2-367.61-35.05-433 36-10.83 11.77-10.48 23.91 0 36 8.75 10.08 158.43 28.94 265.22 41.23"/>
            <path d="m1370.58 509.72 9.54 4.62-10.34 2.34z"/>
        </g>
        <g stroke="#000" class="edge">
            <path fill="none" d="M3348.18 466.57c-9.63 1.9-19.57 3.78-28.95 5.43-89.38 15.69-191.92 30.63-263.93 40.63"/>
            <path d="m3055.9 516.08-10.39-2.1 9.43-4.83z"/>
        </g>
        <g stroke="#000" class="edge">
            <path fill="none" d="M3403.32 472.38c-.95 20.78-6.03 54.87-28.09 71.62-60.07 45.63-1174.04 51.98-1502.55 52.86"/>
            <path d="m1872.85 600.36-10.01-3.48 10-3.52z"/>
        </g>
        <g stroke="#000" class="edge">
            <path fill="none" d="M3446.9 468.96c66.72 20.63 198.41 58.58 313.33 75.04 121.33 17.38 962.64 42.83 1232.73 50.64"/>
            <path d="m4992.83 591.13 9.9 3.79-10.1 3.21z"/>
        </g>
        <g stroke="#000" class="edge">
            <path fill="none" d="M3471.9 461.63c38.08 3.49 86.29 7.61 129.33 10.37 222.86 14.3 895.98 40.01 1148.19 49.42"/>
            <path d="m4749.37 517.92 9.86 3.87-10.12 3.12z"/>
        </g>
        <g class="node" transform="translate(4 616)">
            <ellipse cx="3241.23" cy="-90" fill="none" stroke="#000" rx="120.96" ry="18"/>
            <text x="3241.23" y="-84.95" font-family="Times,serif" font-size="14" text-anchor="middle">:app:core:holiday-preferences</text>
        </g>
        <g stroke="#000" class="edge">
            <path fill="none" d="M3368.56 470.36c-22.16 9.82-51.19 22.68-75.52 33.46"/>
            <path d="m3294.53 506.99-10.57.85 7.73-7.25z"/>
        </g>
        <g class="node" transform="translate(4 616)">
            <ellipse cx="2688.23" cy="-90" fill="none" stroke="#000" rx="110.21" ry="18"/>
            <text x="2688.23" y="-84.95" font-family="Times,serif" font-size="14" text-anchor="middle">:app:core:holiday-database</text>
        </g>
        <g stroke="#000" class="edge">
            <path fill="none" d="M3349.63 466.87c-10.07 1.94-20.53 3.76-30.4 5.13-207.51 28.83-261.39 16.72-470 36-18.51 1.71-38.23 3.71-57.22 5.72"/>
            <path d="m2792.43 517.19-10.31-2.41 9.57-4.55z"/>
        </g>
        <g stroke="#000" class="edge">
            <path fill="none" d="M2304.38 386.48c-234.59 11.39-964.53 46.92-989.15 49.52-8.36.88-17.07 1.99-25.74 3.21"/>
            <path d="m1290.04 442.67-10.4-2.01 9.39-4.92z"/>
        </g>
        <g stroke="#000" class="edge">
            <path fill="none" d="M2379.04 400.35c2.14 19.22 2.65 50.31-11.81 71.65-38.79 57.28-71.9 51.59-138 72-119.76 36.98-264.92 48.42-356.64 51.82"/>
            <path d="m1872.75 599.31-10.11-3.15 9.87-3.84z"/>
        </g>
        <g stroke="#000" class="edge">
            <path fill="none" d="M2428.26 395.06c10.22 1.97 20.89 3.75 30.97 4.94 121.34 14.31 984.87-7.6 1099 36 23.28 8.89 20.49 25.3 43 36 76.45 36.33 104.81 15.81 187 36 54.08 13.28 65.11 26.67 120 36 208.6 35.46 852.07 48.32 1083.77 51.87"/>
            <path d="m4991.92 592.36 9.95 3.65-10.06 3.35z"/>
        </g>
        <g stroke="#000" class="edge">
            <path fill="none" d="M2428.25 395.1c10.22 1.97 20.9 3.74 30.98 4.9 578.61 66.69 727.96 14.34 1310 36 90.71 3.38 194.16 8.35 267.18 12.04"/>
            <path d="m4036.54 444.54 9.81 4.01-10.17 2.98z"/>
        </g>
        <g stroke="#000" class="edge">
            <path fill="none" d="M2413.98 397.85c25.97 10.21 60.77 23.9 89.21 35.08"/>
            <path d="m2504.32 429.61 8.02 6.92-10.59-.41z"/>
        </g>
        <g class="node" transform="translate(4 616)">
            <ellipse cx="2067.23" cy="-162" fill="none" stroke="#000" rx="109.19" ry="18"/>
            <text x="2067.23" y="-156.95" font-family="Times,serif" font-size="14" text-anchor="middle">:app:core:backup-database</text>
        </g>
        <g stroke="#000" class="edge">
            <path fill="none" d="M2323.8 395.03c-49.48 11.36-124.11 28.49-179.43 41.18"/>
            <path d="m2145.23 439.61-10.53-1.18 8.96-5.64z"/>
        </g>
        <g stroke="#000" class="edge">
            <path fill="none" d="M2204.68 322.11c-45.1 10.28-113.45 26.29-172.45 41.89-55.48 14.67-67.46 26.2-124 36-260.16 45.09-330.57 6.86-593 36-8.29.92-16.93 2.05-25.54 3.28"/>
            <path d="m1290.34 442.72-10.4-2 9.37-4.93z"/>
        </g>
        <g stroke="#000" class="edge">
            <path fill="none" d="M2188.88 312.68C1856.74 321.26 371.29 359.83 367.23 364c-33.46 34.41-29.33 70 0 108 77.2 100.01 150.1 52.96 275 72 201.89 30.77 817.85 46.35 1050.1 51.25"/>
            <path d="m1692.33 591.75 9.92 3.71-10.07 3.29z"/>
        </g>
        <g stroke="#000" class="edge">
            <path fill="none" d="M2319.97 310.6c283.08-1.36 1399.3-2.97 1745.26 53.4 54.54 8.89 64.63 26.13 119 36 60.26 10.94 505.15-5.7 550 36 35.49 33-18.88 73.35 15 108 32.99 33.75 158.1 46.01 243.64 50.46"/>
            <path d="m4992.81 590.95 9.82 3.99-10.16 3.01z"/>
        </g>
        <g stroke="#000" class="edge">
            <path fill="none" d="M2318.93 313.63c264.9 10.75 1267.11 51.45 1571.25 63.79"/>
            <path d="m3890.2 373.92 9.85 3.91-10.13 3.09z"/>
        </g>
        <g stroke="#000" class="edge">
            <path fill="none" d="M2318.41 314.22c114.83 6.41 345.73 22.57 369.82 49.78 10.61 11.98 9 22.77 0 36-11.98 17.62-30.83 29.39-50.64 37.24"/>
            <path d="m2638.86 440.5-10.59.09 8.22-6.68z"/>
        </g>
        <g stroke="#000" class="edge">
            <path fill="none" d="M1681.77 394.27c-9.72 2.11-19.93 4.15-29.54 5.73-148.63 24.48-187.71 15.96-337 36-7.93 1.06-16.18 2.26-24.41 3.5"/>
            <path d="m1291.53 442.93-10.41-1.94 9.35-4.98z"/>
        </g>
        <g stroke="#000" class="edge">
            <path fill="none" d="M1789.68 384.88c103.77 3.17 320.36 9.76 503.55 15.12 562.21 16.46 704.38-9.37 1265 36 17.55 1.42 36.39 3.59 54.05 5.9"/>
            <path d="m3612.74 438.44 9.44 4.8-10.38 2.13z"/>
        </g>
        <g stroke="#000" class="edge">
            <path fill="none" d="M1682.22 394.49c-9.84 2.12-20.22 4.1-29.99 5.51-60.29 8.67-505.37-8.46-547 36-10.94 11.68-2.46 20.19 0 36 5.17 33.19-3.3 51.11 23 72 43.16 34.28 394.91 47.02 563.94 51.2"/>
            <path d="m1692.11 591.69 9.91 3.75-10.08 3.25z"/>
        </g>
        <g stroke="#000" class="edge">
            <path fill="none" d="M1790.06 384.86C2101.9 394.26 3487.23 436 3487.23 436c34.28 8.74 38.23 22.67 71 36 99.22 40.36 124.47 53.64 230 72 117.92 20.52 938.19 43.75 1204.62 50.84"/>
            <path d="m4992.57 591.33 9.91 3.76-10.09 3.24z"/>
        </g>
        <g stroke="#000" class="edge">
            <path fill="none" d="M1669.59 388.19c-44.95 3.8-108.53 8.8-164.36 11.81-505.3 27.24-632.65 9.74-1138 36-40.98 2.13-85.94 5.2-125.46 8.15"/>
            <path d="m242.25 447.62-10.23-2.74 9.7-4.24z"/>
        </g>
        <g stroke="#000" class="edge">
            <path fill="none" d="M3683.43 167.14c-372.15.87-1939.48 7.24-2032.2 52.86-23.11 11.37-123.23 167.97-146 180-85.97 45.4-370.14-35.52-436 36-32.51 35.31-32.66 72.82 0 108 41.5 44.69 439.51 52 622.18 52.98"/>
            <path d="m1691.36 593.48 9.98 3.55-10.01 3.45z"/>
        </g>
        <g stroke="#000" class="edge">
            <path fill="none" d="M3839.26 169.81c129.68 5.39 399.62 19.5 625.97 50.19 164.28 22.27 204.91 32.85 366 72 55.76 13.55 68.31 22.14 124 36 76.21 18.96 100.08 6.85 173 36 102.46 40.96 239.41 93.42 171 180-18.07 22.87-88.47 36.92-145.4 44.76"/>
            <path d="m5154.51 592.19-10.37-2.15 9.45-4.78z"/>
        </g>
        <g stroke="red" stroke-width="2" class="edge">
            <path fill="none" d="M3831.11 175c109.86 12.75 324.7 37.69 445.74 51.74"/>
            <path fill="red" d="m4275.73 223.09 9.53 4.63-10.34 2.32z"/>
        </g>
        <g class="node" transform="translate(4 616)">
            <ellipse cx="472.23" cy="-162" fill="none" stroke="#000" rx="100.48" ry="18"/>
            <text x="472.23" y="-156.95" font-family="Times,serif" font-size="14" text-anchor="middle">:app:core:filter-database</text>
        </g>
        <g stroke="#000" class="edge">
            <path fill="none" d="M3683.63 167.77c-346.24 3.58-1737.58 19.73-2173.4 52.23-255.3 19.04-973.67-48.01-1143 144-10.58 12-8.49 22.44 0 36 9.66 15.44 25.24 26.49 41.64 34.37"/>
            <path d="m410.01 431.04 7.75 7.22-10.56-.81z"/>
        </g>
        <g stroke="#000" class="edge">
            <path fill="none" d="M2488.74 395.08c-9.73 1.97-19.9 3.74-29.51 4.92-504.93 61.76-637.64-12.75-1144 36-8.59.83-17.55 1.92-26.45 3.15"/>
            <path d="m1289.46 442.59-10.4-2.03 9.39-4.9z"/>
        </g>
        <g stroke="#000" class="edge">
            <path fill="none" d="M2508.16 398.57c-18.96 10.11-43.78 23.88-64.93 37.43-68.57 43.92-71.98 78.81-148 108-75.28 28.91-298.6 43.38-424.36 49.41"/>
            <path d="m1871.05 596.91-10.15-3.03 9.82-3.97z"/>
        </g>
        <g stroke="#000" class="edge">
            <path fill="none" d="M2608.52 383.82c226.38 3 934.84 15.16 1160.71 52.18 170.32 27.91 202.88 78.93 373 108 162.17 27.71 652.59 44.76 850.17 50.66"/>
            <path d="m4992.45 591.16 9.9 3.8-10.1 3.2z"/>
        </g>
        <g stroke="#000" class="edge">
            <path fill="none" d="M2607.82 384.9c230.63 6.34 990.93 27.75 1619.41 51.1 104.26 3.87 223.93 9.12 304.18 12.76"/>
            <path d="m4531.13 445.24 9.83 3.95-10.15 3.04z"/>
        </g>
        <g stroke="#000" class="edge">
            <path fill="none" d="M2542.19 400.3c1.68 7.38 3.69 16.18 5.58 24.45"/>
            <path d="m2551.17 423.89-1.19 10.53-5.64-8.97z"/>
        </g>
        <g stroke="#000" class="edge">
            <path fill="none" d="M4591.28 318.06c182.26 18.29 657.1 74.08 1036.95 189.94 70.68 21.56 150.88 51.66 199.95 70.74"/>
            <path d="m5829.31 575.43 8.04 6.89-10.58-.37z"/>
        </g>
        <g stroke="#000" class="edge">
            <path fill="none" d="M4436.12 316.53c-57.83 3.84-138.19 8.73-208.89 11.47-107.38 4.17-1833.34-1.64-1934 36-23.35 8.73-20.13 26.09-43 36-61 26.43-247.55-8.43-297 36-36.65 32.93 7.67 71.12-25 108-17.99 20.31-44.4 32.84-69.82 40.57"/>
            <path d="m1859.63 587.86-10.57-.67 8.68-6.07z"/>
        </g>
        <g stroke="#000" class="edge">
            <path fill="none" d="M4588.18 319.32c70.58 8.71 180.32 24.01 274.05 44.68 56.04 12.36 68.62 20.95 124 36 62.83 17.08 102.02-15.38 142 36 29.48 37.88 18.16 63.57 0 108-4.46 10.92-12.38 20.8-20.71 29"/>
            <path d="m5110.04 575.44-9.75 4.15 5.04-9.32z"/>
        </g>
        <g stroke="red" stroke-width="2" class="edge">
            <path fill="none" d="M4527.58 327.95c5.95 8.16 13.22 18.14 19.84 27.23"/>
            <path fill="red" d="m4549.16 351.62 3.06 10.14-8.72-6.02z"/>
        </g>
        <g stroke="#000" class="edge">
            <path fill="none" d="M4486.08 327.24c-37.34 21.69-102.86 62.75-149.85 108.76-19.03 18.63-36.59 43.32-48.64 61.97"/>
            <path d="m4290.59 499.77-8.3 6.58 2.38-10.32z"/>
        </g>
        <g stroke="#000" class="edge">
            <path fill="none" d="M4474.5 326.06c-70.33 26.01-214.4 79.29-291.65 107.85"/>
            <path d="m4184.43 437.06-10.6.19 8.17-6.75z"/>
        </g>
        <g stroke="#000" class="edge">
            <path fill="none" d="M4434.99 315.85c-163.35 10.14-521.11 33.84-543.76 48.15-19.75 12.48-91.37 147.12-121.97 205.85"/>
            <path d="m3772.46 571.29-7.72 7.26 1.51-10.49z"/>
        </g>
        <g stroke="#000" class="edge">
            <path fill="none" d="M4583.54 320.91c103.33 18.05 281.33 62.82 221.69 151.09-24 35.53-137.62 60.76-179 72-88.62 24.08-192.85 38-265.35 45.48"/>
            <path d="m4361.33 592.95-10.3-2.48 9.6-4.49z"/>
        </g>
        <g stroke="#000" class="edge">
            <path fill="none" d="M4636.71 384.95c123.4 4.2 386.29 16.7 605.52 51.05 137.18 21.49 169.43 37.82 304 72 96.77 24.58 208.91 55.55 273.83 73.72"/>
            <path d="m5820.7 578.27 8.69 6.07-10.58.67z"/>
        </g>
        <g stroke="#000" class="edge">
            <path fill="none" d="M4496.12 385.49c-96.87 3.42-277.14 9.68-430.89 14.51-277.31 8.7-974.31-9.54-1248 36-53.25 8.86-63.75 22.42-116 36-75.17 19.53-96.46 14.17-171 36-43.33 12.69-50.95 26.08-95 36-197.24 44.44-435.41 52.72-562.57 53.63"/>
            <path d="m1872.99 601.13-10.02-3.45 9.98-3.55z"/>
        </g>
        <g stroke="#000" class="edge">
            <path fill="none" d="M4631.21 389.72c112.13 11.83 331.35 36.09 345.02 46.28 42.12 31.39 18.47 64.56 48 108 6.85 10.07 15.73 19.93 24.2 28.36"/>
            <path d="m5050.79 569.78 4.8 9.44-9.64-4.39z"/>
        </g>
        <g stroke="#000" class="edge">
            <path fill="none" d="M4510.39 393.43c-37.12 8.31-86.22 22.02-126.16 42.57-9.16 4.71-53.42 40.3-83.75 65.02"/>
            <path d="m4302.7 503.72-9.96 3.62 5.53-9.04z"/>
        </g>
        <g stroke="red" stroke-width="2" class="edge">
            <path fill="none" d="M4507.56 392.44c-77.01 12.39-212.44 34.19-298.11 47.97"/>
            <path fill="red" d="m4211.64 443.61-10.43-1.87 9.32-5.05z"/>
        </g>
        <g stroke="#000" class="edge">
            <path fill="none" d="M4552.06 400.02c-29.75 34.34-102.61 111.41-182.83 143.98-94.17 38.23-386.72 48.91-531.34 51.87"/>
            <path d="m3838.05 599.37-10.07-3.3 9.93-3.7z"/>
        </g>
        <g stroke="#000" class="edge">
            <path fill="none" d="M4635.32 387.03c79.18 7.35 192.94 27.91 150.91 84.97-4 5.43-225.45 70.38-232 72-68.45 16.97-147.42 31.34-204.51 40.81"/>
            <path d="m4350.53 588.22-10.43-1.83 9.3-5.07z"/>
        </g>
        <g stroke="#000" class="edge">
            <path fill="none" d="M4357.42 530.76c283.22 12.37 1182.14 51.63 1444.36 63.08"/>
            <path d="m5801.69 590.33 9.84 3.93-10.14 3.06z"/>
        </g>
        <g stroke="#000" class="edge">
            <path fill="none" d="M4183.74 529.46c-384.57 10.82-1923.01 54.08-2311.87 65.02"/>
            <path d="m1872.04 597.98-10.09-3.22 9.9-3.78z"/>
        </g>
        <g stroke="#000" class="edge">
            <path fill="none" d="M4351.36 533.97c154.51 13.43 491.93 42.77 645.69 56.14"/>
            <path d="m4997.08 586.6 9.66 4.36-10.27 2.62z"/>
        </g>
        <g stroke="red" stroke-width="2" class="edge">
            <path fill="none" d="M4198.94 536.81c-98.05 13.3-272.22 36.93-370.66 50.28"/>
            <path fill="red" d="m3830.33 590.34-10.38-2.12 9.44-4.81z"/>
        </g>
        <g stroke="#000" class="edge">
            <path fill="none" d="M4271.23 544.3v24.16"/>
            <path d="m4274.73 568.38-3.5 10-3.5-10z"/>
        </g>
        <g stroke="#000" class="edge">
            <path fill="none" d="M4032.74 317.07c-61.52 6.47-144.12 19.75-212.51 46.93-39.96 15.88-80.44 44.63-106.5 65.15"/>
            <path d="m3715.98 431.83-9.99 3.53 5.61-8.99z"/>
        </g>
        <g stroke="#000" class="edge">
            <path fill="none" d="M4210.85 317.46c121.54 9.09 346.72 26.77 538.38 46.54 126.89 13.09 1054.88 48.1 1139 144 14.64 16.69 8.74 42.23.58 61.68"/>
            <path d="m5892.03 571.05-7.37 7.61 1.02-10.54z"/>
        </g>
        <g stroke="#000" class="edge">
            <path fill="none" d="M4030.17 315.72c-75.9 3.75-186.38 8.92-282.94 12.28-82.58 2.87-1408.93 8.92-1487 36-25.19 8.74-23.27 26.03-48 36-60.64 24.44-246.47-10.93-292 36-33.56 34.6 18.61 69.2-10 108-13.67 18.55-35.04 30.64-56.43 38.5"/>
            <path d="m1855.02 585.78-10.59-.12 8.36-6.51z"/>
        </g>
        <g stroke="#000" class="edge">
            <path fill="none" d="M4211.11 317.31c104.5 8.05 283 23.71 435.12 46.69 5 .76 353.04 68.85 357 72 42.04 33.45 60.72 96.44 68.33 132.92"/>
            <path d="m5074.91 567.8-1.54 10.48-5.33-9.15z"/>
        </g>
        <g stroke="#000" class="edge">
            <path fill="none" d="M4123.33 328.41c1.52 23.98 4.28 67.45 6.1 96.17"/>
            <path d="m4132.91 424.18-2.86 10.2-4.12-9.76z"/>
        </g>
        <g stroke="#000" class="edge">
            <path fill="none" d="M4088.83 327.24c-20.28 9.85-46.35 22.53-68.09 33.1"/>
            <path d="m4022.34 363.45-10.52 1.22 7.46-7.52z"/>
        </g>
        <g stroke="#000" class="edge">
            <path fill="none" d="M4041.44 320.2c-66.32 8.81-153.89 23.73-183.21 43.8-69.6 47.64-92.66 153.61-99.9 204.56"/>
            <path d="m3761.84 568.73-4.77 9.47-2.17-10.37z"/>
        </g>
        <g stroke="#000" class="edge">
            <path fill="none" d="M4175.27 325.45c70.59 18.89 199.49 52.2 310.96 74.55 50.51 10.13 195.52-3.15 229 36 10.4 12.16 10 23.51 0 36-45.84 57.22-96.28 1.55-161 36-20.54 10.93-17.43 25.14-38 36-47.74 25.2-106.75 38.43-154.89 45.36"/>
            <path d="m4361.87 592.82-10.38-2.11 9.43-4.82z"/>
        </g>
        <g stroke="#000" class="edge">
            <path fill="none" d="M4928.19 532.58c196.05 13.35 689.52 46.95 874.52 59.55"/>
            <path d="m5802.93 588.64 9.74 4.17-10.22 2.81z"/>
        </g>
        <g stroke="#000" class="edge">
            <path fill="none" d="M4761.49 531.09c-82.12 3.83-210.2 9.48-321.26 12.91-1007.52 31.13-2230.45 47.72-2568 51.92"/>
            <path d="m1872.62 599.42-10.04-3.38 9.96-3.62z"/>
        </g>
        <g stroke="#000" class="edge">
            <path fill="none" d="M4893.89 541.5c37.04 11.28 88.48 26.93 127.28 38.74"/>
            <path d="m5021.76 576.76 8.55 6.26-10.59.44z"/>
        </g>
        <g stroke="#000" class="edge">
            <path fill="none" d="M4763.78 532.29c-203.55 13.06-727.93 46.71-928.71 59.59"/>
            <path d="m3835.46 595.36-10.2-2.85 9.76-4.14z"/>
        </g>
        <g stroke="#000" class="edge">
            <path fill="none" d="M4772.24 536.01c-107.18 13.05-305.06 37.14-417.39 50.81"/>
            <path d="m4355.44 590.27-10.35-2.26 9.5-4.68z"/>
        </g>
        <g stroke="#000" class="edge">
            <path fill="none" d="M4215.63 458.54c243.08 10.31 928.84 40.14 950.6 49.46 21.39 9.16 16.75 26.54 38 36 104.94 46.69 444.72 52.91 596.08 53.3"/>
            <path d="m5800.24 593.8 9.99 3.51-10 3.49z"/>
        </g>
        <g stroke="#000" class="edge">
            <path fill="none" d="M4065.73 466.16c-117.89 19.57-373.84 59.74-591.5 77.84-610.43 50.77-1348.42 54-1601.65 53.45"/>
            <path d="m1872.76 600.95-9.99-3.52 10.01-3.48z"/>
        </g>
        <g stroke="#000" class="edge">
            <path fill="none" d="M4133.96 472.14c4.33 20.89 14.92 55.41 39.27 71.86 66.8 45.14 607.45 51.96 818.78 52.9"/>
            <path d="m4991.83 593.4 9.99 3.54-10.01 3.46z"/>
        </g>
        <g stroke="red" stroke-width="2" class="edge">
            <path fill="none" d="M4163.35 471.06c19.34 9.67 44.19 22.1 65.17 32.59"/>
            <path fill="red" d="m4228.69 499.82 7.38 7.6-10.51-1.34z"/>
        </g>
        <g stroke="#000" class="edge">
            <path fill="none" d="M4100.44 471.18c-37.22 19.14-102.12 51.12-160.21 72.82-40.56 15.15-87.46 28.55-123.89 38.08"/>
            <path d="m3817.41 585.42-10.56-.89 8.81-5.89z"/>
        </g>
        <g stroke="#000" class="edge">
            <path fill="none" d="M4128.09 472.27c-2.51 19.43-3.42 50.98 12.14 71.73 13.73 18.3 34.84 30.3 56.13 38.16"/>
            <path d="m4197.34 578.8 8.35 6.52-10.59.11z"/>
        </g>
        <g stroke="#000" class="edge">
            <path fill="none" d="M4053.97 387.17c136.26 7.76 431.67 25.74 680.26 48.83 277.1 25.74 346.89 30.07 622 72 84.97 12.95 105.35 21.14 190 36 91.04 15.98 196.61 32.72 262.86 43.01"/>
            <path d="m5809.34 583.5 9.34 4.99-10.42 1.93z"/>
        </g>
        <g stroke="#000" class="edge">
            <path fill="none" d="M3900.37 384.87c-267.64 6.6-1136.48 29.58-1192.14 51.13-23.24 9-20.63 25-43 36-66.57 32.75-90.57 19.95-163 36-72.01 15.95-89.15 24.49-162 36-165.24 26.1-360.19 41.05-470.43 48.05"/>
            <path d="m1870.13 595.54-10.2-2.87 9.76-4.12z"/>
        </g>
        <g stroke="#000" class="edge">
            <path fill="none" d="M4048.78 390.24c32.67 3.23 72.02 6.93 107.45 9.76 62.04 4.96 516.22-9.2 559 36 33 34.86-30.54 71.82 1 108 35.05 40.21 180.53 50.43 275.49 52.73"/>
            <path d="m4991.6 593.23 9.92 3.72-10.07 3.28z"/>
        </g>
        <g stroke="#000" class="edge">
            <path fill="none" d="M3984.56 400.32c8.37 20.41 25.12 53.78 50.67 71.68 40.19 28.15 92.86 41.65 138.24 48"/>
            <path d="m4173.87 516.52 9.47 4.75-10.37 2.19z"/>
        </g>
        <g stroke="#000" class="edge">
            <path fill="none" d="M4012.19 398.54c21.85 9.99 50.5 23.1 74.22 33.95"/>
            <path d="m4087.56 429.17 7.64 7.34-10.55-.97z"/>
        </g>
        <g stroke="#000" class="edge">
            <path fill="none" d="M3964.01 399.9c-25.93 30.37-83.24 95.52-137.78 144.1-11.9 10.6-25.79 21.3-38.12 30.28"/>
            <path d="m3790.44 576.92-10.16 2.98 6.08-8.67z"/>
        </g>
        <g stroke="#000" class="edge">
            <path fill="none" d="M3978.37 400.42c.99 19.28 5.16 50.41 20.86 71.58 46.95 63.3 133.72 95.47 196.66 111.17"/>
            <path d="m4196.58 579.74 8.91 5.74-10.54 1.07z"/>
        </g>
        <g stroke="#000" class="edge">
            <path fill="none" d="M4448.99 245.53c93.61 8 249.48 23.38 382.24 46.47 275.3 47.87 341.59 73.6 612 144 112.72 29.35 143.4 29.89 252 72 50.66 19.64 106.3 48.54 141.88 68.03"/>
            <path d="m5838.65 572.88 7.06 7.9-10.44-1.77z"/>
        </g>
        <g stroke="#000" class="edge">
            <path fill="none" d="M4274.25 239.96c-359 3.98-1677.91 20.49-2095.02 52.04-252.42 19.09-322.04.93-565 72-35.87 10.49-39.89 26.37-76 36-49 13.07-420.58-1.25-455 36-12.51 13.54-17.38 86.9 3 108 41.2 42.64 426.16 51.06 605.21 52.66"/>
            <path d="m1691.45 593.16 9.97 3.58-10.03 3.42z"/>
        </g>
        <g stroke="#000" class="edge">
            <path fill="none" d="M4446.5 246.51c79.31 8.17 203.11 23.11 308.73 45.49 56.14 11.9 68.07 23.15 124 36 92.72 21.3 123.61-1.59 211 36 24.5 10.54 25.57 21.58 48 36 28.11 18.07 38.98 16.35 66 36 47.47 34.53 111.91 61.57 76 108-15.98 20.66-77.59 34.76-128.96 43.19"/>
            <path d="m5152.07 590.61-10.42-1.89 9.32-5.02z"/>
        </g>
        <g stroke="red" stroke-width="2" class="edge">
            <path fill="none" d="M4399.64 255.06c21.14 9.86 48.42 22.59 71.17 33.21"/>
            <path fill="red" d="m4470.91 284.46 7.58 7.4-10.54-1.06z"/>
        </g>
        <g stroke="#000" class="edge">
            <path fill="none" d="M4372.13 256.12c8.83 19.89 25.93 52.46 50.1 71.88 22.81 18.33 52.57 30.69 79.1 38.83"/>
            <path d="m4502.01 363.38 8.63 6.15-10.58.57z"/>
        </g>
        <g stroke="#000" class="edge">
            <path fill="none" d="m4359.49 256.46-79.1 240.66"/>
            <path d="m4283.81 497.92-6.44 8.41-.21-10.59z"/>
        </g>
        <g stroke="#000" class="edge">
            <path fill="none" d="M4275.82 241.99c-91.46 4.81-237 17.35-358.59 50.01-78.06 20.97-93.48 38.41-167 72-66.9 30.57-109.91 9.7-149 72-26.89 42.86-.51 72.97 36 108 16.77 16.09 39.26 27.83 60.1 36.11"/>
            <path d="m3698.5 576.8 8.13 6.79-10.59-.23z"/>
        </g>
        <g stroke="#000" class="edge">
            <path fill="none" d="M4277.65 243.43c-71.69 5.71-174.86 18.77-260.42 48.57-60.91 21.21-93.63 16.21-126 72-52.86 91.09 42.91 125.89 140 180 45.63 25.43 102.49 38.65 149.42 45.54"/>
            <path d="m4181.11 586.07 9.43 4.84-10.39 2.09z"/>
        </g>
        <g stroke="#000" class="edge">
            <path fill="none" d="M4700.4 461.02c111.39 8.93 323.65 26.8 503.83 46.98 221.98 24.86 484.3 61.96 604.22 79.35"/>
            <path d="m5808.72 583.85 9.39 4.9-10.4 2.03z"/>
        </g>
        <g stroke="#000" class="edge">
            <path fill="none" d="M4568.69 467.93c-36.86 9.44-86.3 23.45-128.46 40.07-32.91 12.98-36.67 27.42-71 36-123.35 30.83-2052.37 48.58-2496.36 52.28"/>
            <path d="m1872.95 599.78-10.03-3.42 9.98-3.58z"/>
        </g>
        <g stroke="#000" class="edge">
            <path fill="none" d="M4611.19 472.27c-12.14 19.73-26.74 51.85-8.96 71.73 25.55 28.57 262.11 43.54 391.07 49.63"/>
            <path d="m4993.34 590.13 9.83 3.96-10.16 3.03z"/>
        </g>
        <g stroke="#000" class="edge">
            <path fill="none" d="M4563.52 466.87c-60.63 12.06-154.59 30.75-219.54 43.66"/>
            <path d="m4344.99 513.9-10.49-1.48 9.12-5.38z"/>
        </g>
        <g stroke="#000" class="edge">
            <path fill="none" d="M4571.24 468.37c-28.72 8.73-64.3 21.85-93.01 39.63-19.78 12.25-16.74 26.56-38 36-53.95 23.95-434.04 42.55-603.63 49.76"/>
            <path d="m3836.9 597.25-10.14-3.08 9.84-3.92z"/>
        </g>
        <g stroke="#000" class="edge">
            <path fill="none" d="M4591.11 471.07c-19.21 9.97-43.9 23.43-64.88 36.93-22.42 14.43-23.95 24.47-48 36-40.27 19.31-88.45 32.18-128.19 40.4"/>
            <path d="m4350.78 587.82-10.49-1.47 9.12-5.4z"/>
        </g>
        <g stroke="#000" class="edge">
            <path fill="none" d="M530.86 399.81c16.69 9.71 37.35 22.67 54.37 36.19 53.15 42.23 45.94 80.51 108 108 90.08 39.9 753.9 49.96 998.68 52.32"/>
            <path d="m1691.77 592.82 9.97 3.59-10.04 3.41z"/>
        </g>
        <g stroke="#000" class="edge">
            <path fill="none" d="M494.3 400.3c-2.56 7.46-5.62 16.38-8.48 24.73"/>
            <path d="m489.14 426.14-6.55 8.32-.07-10.59z"/>
        </g>
        <g class="node" transform="translate(4 616)">
            <ellipse cx="746.23" cy="-162" fill="none" stroke="#000" rx="80.01" ry="18"/>
            <text x="746.23" y="-156.95" font-family="Times,serif" font-size="14" text-anchor="middle">:library:koin-room</text>
        </g>
        <g stroke="#000" class="edge">
            <path fill="none" d="M555.71 398.54c40.06 11.21 94.09 26.34 135.04 37.8"/>
            <path d="m691.51 432.92 8.69 6.07-10.57.68z"/>
        </g>
        <g class="node" transform="translate(4 616)">
            <ellipse cx="2293.23" cy="-162" fill="none" stroke="#000" rx="60.56" ry="18"/>
            <text x="2293.23" y="-156.95" font-family="Times,serif" font-size="14" text-anchor="middle">:library:room</text>
        </g>
        <g stroke="#000" class="edge">
            <path fill="none" d="M595.55 393.76c24.62 2.43 51.11 4.73 75.68 6.24 673.59 41.41 845.87-24.6 1518 36 15.07 1.36 31.22 3.52 46.32 5.85"/>
            <path d="m2236.04 438.38 9.32 5.04-10.43 1.88z"/>
        </g>
        <g stroke="#000" class="edge">
            <path fill="none" d="M741.04 397.52c-51.16 13.83-106.72 37.99-79.81 74.48 64.34 87.22 126.36 52.63 233 72 151.41 27.5 605.19 44.3 798.84 50.4"/>
            <path d="m1692.93 590.89 9.89 3.81-10.11 3.19z"/>
        </g>
        <g stroke="#000" class="edge">
            <path fill="none" d="M905.04 395.16c16.05 1.83 32.59 3.53 48.19 4.84 97.71 8.2 736.4 36.42 1002.22 47.99"/>
            <path d="m1955.32 444.48 9.83 3.93-10.14 3.06z"/>
        </g>
        <g stroke="#000" class="edge">
            <path fill="none" d="M796.91 400.3c-7.21 8.14-15.95 18.01-23.92 27"/>
            <path d="m775.63 429.6-9.25 5.16 4.01-9.8z"/>
        </g>
        <g stroke="#000" class="edge">
            <path fill="none" d="M904.27 395.32c16.28 1.83 33.1 3.5 48.96 4.68 548.04 40.93 688.79-14.83 1236 36 15.06 1.4 31.21 3.57 46.31 5.91"/>
            <path d="m2236.03 438.44 9.32 5.03-10.42 1.88z"/>
        </g>
        <g stroke="#000" class="edge">
            <path fill="none" d="M1480.99 472.3c-.52 7.29-1.14 15.97-1.72 24.16"/>
            <path d="m1482.76 496.66-4.2 9.73-2.78-10.23z"/>
        </g>
        <g class="node" transform="translate(4 616)">
            <ellipse cx="2123.23" cy="-90" fill="none" stroke="#000" rx="93.32" ry="18"/>
            <text x="2123.23" y="-84.95" font-family="Times,serif" font-size="14" text-anchor="middle">:library:koin-datastore</text>
        </g>
        <g stroke="#000" class="edge">
            <path fill="none" d="M1593.84 467.11c125.28 13.6 326.14 35.4 442.32 48.01"/>
            <path d="m2036.41 511.62 9.57 4.56-10.32 2.4z"/>
        </g>
        <g stroke="#000" class="edge">
            <path fill="none" d="M1280.43 394.68a8975 8975 0 0 1-43.2 5.32c-70.39 8.46-269.78-16.88-317 36-31.97 35.8-32.88 73.03 0 108 26.17 27.83 557.25 44.95 772.53 50.76"/>
            <path d="m1692.59 591.26 9.9 3.76-10.09 3.23z"/>
        </g>
        <g stroke="#000" class="edge">
            <path fill="none" d="M1483.96 389.93c52.64 3.17 116.16 6.92 173.27 10.07 315.48 17.37 394.83 13.69 710 36 28.85 2.04 60.17 4.71 88.77 7.33"/>
            <path d="m2456.09 439.82 9.64 4.4-10.28 2.57z"/>
        </g>
        <g stroke="#000" class="edge">
            <path fill="none" d="M1281.54 394.82c-14.79 1.82-29.97 3.61-44.31 5.18-174.36 19.04-219.2 12.37-393 36-7.71 1.05-15.74 2.28-23.73 3.6"/>
            <path d="m821.21 443.03-10.44-1.78 9.27-5.12z"/>
        </g>
        <g stroke="#000" class="edge">
            <path fill="none" d="M1484.42 389.81c227.43 13.73 719.8 43.61 737.81 46.19 6.11.88 12.46 1.99 18.77 3.23"/>
            <path d="m2241.68 435.8 9.08 5.46-10.51 1.39z"/>
        </g>
        <g stroke="#000" class="edge">
            <path fill="none" d="M3234.88 469.77c116.24 20.38 336.32 56.61 525.35 74.23 240.9 22.45 982.81 44 1232.79 50.8"/>
            <path d="m4992.78 591.29 9.9 3.77-10.09 3.23z"/>
        </g>
        <g stroke="#000" class="edge">
            <path fill="none" d="m3175.97 472.3 37.68 28.67"/>
            <path d="m3215.71 498.14 5.84 8.84-10.08-3.27z"/>
        </g>
        <g stroke="#000" class="edge">
            <path fill="none" d="M3041.67 467.05c-18.18 1.78-36.83 3.51-54.44 4.95-274.26 22.49-598.44 40.02-759.18 48.11"/>
            <path d="m2228.44 523.6-10.16-3 9.81-3.99z"/>
        </g>
        <g stroke="#000" class="edge">
            <path fill="none" d="M988.19 392.93c-26.31 7.82-51.6 21.02-67.96 43.07-28.6 38.55-32.88 73.03 0 108 26.17 27.83 557.25 44.95 772.53 50.76"/>
            <path d="m1692.59 591.26 9.9 3.76-10.09 3.23z"/>
        </g>
        <g stroke="#000" class="edge">
            <path fill="none" d="M1188.31 395.24c16.28 1.83 33.08 3.51 48.92 4.76 105.53 8.3 854.42-5.03 952 36 21.45 9.02 16.91 26.18 38 36 59.8 27.86 230.84 41.7 347.93 48.1"/>
            <path d="m2575 516.58 9.8 4.03-10.17 2.96z"/>
        </g>
        <g stroke="#000" class="edge">
            <path fill="none" d="M1023.33 397.59c-59.93 12.16-144.75 29.37-203.9 41.37"/>
            <path d="m820.3 442.35-10.49-1.44 9.1-5.42z"/>
        </g>
        <g stroke="#000" class="edge">
            <path fill="none" d="M1188.31 395.26c16.28 1.82 33.08 3.5 48.92 4.74 436.74 34.07 550.61-20.67 985 36 6.36.83 12.98 1.95 19.53 3.21"/>
            <path d="m2242.09 435.71 9.09 5.45-10.5 1.41z"/>
        </g>
        <g stroke="#000" class="edge">
            <path fill="none" d="M5521.14 248.31c19.69 2.6 41.24 5.35 61.09 7.69 150.19 17.67 325.55 35.14 427.17 44.95"/>
            <path d="m6009.69 297.46 9.62 4.44-10.29 2.53z"/>
        </g>
        <g stroke="#000" class="edge">
            <path fill="none" d="M5484.08 254.97c41.83 20.82 119.46 56.52 190.15 73.03 204.87 47.86 277.2-43.46 472 36 33.68 13.74 64.59 42.35 84.23 63.44"/>
            <path d="m6233.04 425.07 4.11 9.76-9.3-5.07z"/>
        </g>
        <g stroke="#000" class="edge">
            <path fill="none" d="M5446.56 256.3c-2.91 7.55-6.4 16.58-9.65 25.02"/>
            <path d="m5440.24 282.41-6.87 8.07.34-10.59z"/>
        </g>
        <g stroke="#000" class="edge">
            <path fill="none" d="M5475.53 255.65c13.63 10.29 31.34 23.88 46.7 36.35 19.09 15.49 19.73 25.59 42 36 87.77 41.03 120.87 13.05 215 36 25.3 6.17 199.38 61.05 223 72 27.53 12.76 29.63 25.24 58 36 78.97 29.97 175.74 43.08 239.72 48.76"/>
            <path d="m6299.93 517.24 9.67 4.33-10.26 2.65z"/>
        </g>
        <g stroke="#000" class="edge">
            <path fill="none" d="M5519.75 248.69c20.05 2.67 42.13 5.36 62.48 7.31 133.41 12.76 475.96-9.54 602 36 139.37 50.35 204.71 76.25 254 216 5.32 15.09 10.77 24.17 0 36-32.41 35.6-345.24 47.75-490.53 51.49"/>
            <path d="m5947.87 598.99-10.08-3.25 9.91-3.75z"/>
        </g>
        <g stroke="#000" class="edge">
            <path fill="none" d="M5508.65 251.51c52.9 11.95 132.64 29.95 188.75 42.62"/>
            <path d="m5697.83 290.64 8.98 5.62-10.52 1.21z"/>
        </g>
        <g stroke="#000" class="edge">
            <path fill="none" d="M5377.89 245.28c-48.89 3.81-114 8.37-171.66 10.72-155.22 6.34-2649.74-16.36-2796 36-24.11 8.63-21.48 25.86-45 36-105.92 45.65-147.38.14-257 36-32.13 10.51-34.83 25.62-67 36-58.24 18.79-232.66-10.01-273 36-32.27 36.8-14.06 98.21.82 133.6"/>
            <path d="m1772.06 567.75.83 10.56-7.24-7.74z"/>
        </g>
        <g stroke="#000" class="edge">
            <path fill="none" d="M5392.24 250.31c-23.49 7.65-48.01 20.42-62.01 41.69-8.79 13.37-6.66 21.45 0 36 30.55 66.76 93.99 41.45 125 108 20.28 43.51 32.51 71.79 1 108-37.52 43.12-195.54 52.25-295.62 53.58"/>
            <path d="m5160.86 601.07-10.04-3.39 9.97-3.61z"/>
        </g>
        <g stroke="#000" class="edge">
            <path fill="none" d="M5519.74 248.8c20.05 2.68 42.13 5.35 62.49 7.2 315.1 28.69 395.43 13.04 711 36 29.27 2.13 61.19 4.99 89.86 7.75"/>
            <path d="m6383.2 296.25 9.61 4.45-10.29 2.51z"/>
        </g>
        <g stroke="#000" class="edge">
            <path fill="none" d="M5376.87 244.7c-171.8 12.82-588.03 43.88-771.83 57.6"/>
            <path d="m4605.54 305.77-10.23-2.75 9.71-4.23z"/>
        </g>
        <g stroke="#000" class="edge">
            <path fill="none" d="M5388.73 249.33c-161.93 25.92-584.56 93.58-752.36 120.44"/>
            <path d="m4637.14 373.19-10.43-1.87 9.32-5.04z"/>
        </g>
        <g stroke="#000" class="edge">
            <path fill="none" d="M5717.42 248.22c77.43 12.49 215.77 34.81 301.56 48.64"/>
            <path d="m6019.4 293.39 9.32 5.04-10.43 1.87z"/>
        </g>
        <g stroke="#000" class="edge">
            <path fill="none" d="M5717.97 248.13c18.57 2.76 39.26 5.64 58.26 7.87 90.4 10.6 327.71-6.86 408 36 36.25 19.35 42.19 34.07 58 72 7.93 19.01 10.33 42.17 10.8 60.1"/>
            <path d="m6256.53 424.03-3.45 10.02-3.55-9.99z"/>
        </g>
        <g stroke="#000" class="edge">
            <path fill="none" d="m5616.22 252.17-131.28 39.27"/>
            <path d="m5486.11 294.74-10.59-.49 8.58-6.21z"/>
        </g>
        <g stroke="#000" class="edge">
            <path fill="none" d="M5717.96 248.21c18.57 2.76 39.26 5.63 58.27 7.79 98.14 11.17 353.43-5.62 443 36 81.8 38.01 105.38 62.02 143 144 8.66 18.86 10.17 42.34 9.65 60.44"/>
            <path d="m6375.39 496.42-4.03 9.8-2.96-10.17z"/>
        </g>
        <g stroke="#000" class="edge">
            <path fill="none" d="M5717.65 248.3c18.65 2.78 39.46 5.64 58.58 7.7 114.5 12.36 407.55.16 517 36 48.35 15.83 159.92 96.44 178 144 17.06 44.87 32.41 72.59 0 108-34.7 37.92-371.53 48.88-523.39 51.9"/>
            <path d="m5947.93 599.4-10.06-3.3 9.93-3.7z"/>
        </g>
        <g stroke="#000" class="edge">
            <path fill="none" d="M5684.12 255.24c13.55 9.21 30.73 20.88 45.61 30.99"/>
            <path d="m5731.56 283.24 6.3 8.52-10.24-2.73z"/>
        </g>
        <g stroke="#000" class="edge">
            <path fill="none" d="M5604.05 248.76c-18.94 2.88-40.24 5.68-59.82 7.24-605.25 48.13-2125.94-.67-2732 36-74.29 4.5-595.72 47.49-666 72-28.29 9.87-28.8 25.87-57 36-59.66 21.44-237.69-8.34-283 36-35.11 34.37-33.6 96.3-29.02 132.52"/>
            <path d="m1780.65 567.84-2.03 10.4-4.9-9.4z"/>
        </g>
        <g stroke="#000" class="edge">
            <path fill="none" d="M5654.05 256.35c-22.18 61.85-97.81 268.9-122.82 287.65-56.81 42.59-255.72 51.55-370.87 53.08"/>
            <path d="m5160.7 600.57-10.04-3.38 9.96-3.62z"/>
        </g>
        <g stroke="#000" class="edge">
            <path fill="none" d="M5717.35 248.31c18.72 2.8 39.65 5.66 58.88 7.69 245.82 25.94 308.87 13.2 555 36 18.3 1.7 37.89 3.84 56.48 6.04"/>
            <path d="m6388.12 294.56 9.51 4.67-10.35 2.28z"/>
        </g>
        <g stroke="#000" class="edge">
            <path fill="none" d="M5603.13 248.46c-18.72 2.81-39.66 5.64-58.9 7.54-342.89 33.88-752.34 46.78-934.06 51.09"/>
            <path d="m4610.38 310.59-10.07-3.27 9.91-3.73z"/>
        </g>
        <g stroke="#000" class="edge">
            <path fill="none" d="M5641.78 255.46c-25.04 21.2-72.1 57.13-119.55 72.54-41.25 13.4-650.87 40.19-874.52 49.62"/>
            <path d="m4648.05 381.11-10.14-3.08 9.84-3.92z"/>
        </g>
        <g stroke="#000" class="edge">
            <path fill="none" d="M6255.77 184.04c-20.22 18.4-53.87 48.27-84.54 71.96-13.43 10.38-28.75 21.12-42.16 30.21"/>
            <path d="m6131.21 288.99-10.26 2.66 6.36-8.48z"/>
        </g>
        <g stroke="#000" class="edge">
            <path fill="none" d="M6351.78 175.1c69.22 8.46 164.31 23.51 195.45 44.9 42.86 29.45 58.57 57.8 45 108-9.67 35.76-11.62 50.8-42 72-31.4 21.92-123.66 36.06-197.29 44.18"/>
            <path d="m6353.58 447.63-10.32-2.41 9.57-4.55z"/>
        </g>
        <g stroke="#000" class="edge">
            <path fill="none" d="M6186.25 168.89c-223.23 5.21-796.01 21.42-824.02 51.11-19.34 20.5 5.11 47.06 29.16 65.81"/>
            <path d="m5393.35 282.91 5.93 8.78-10.11-3.17z"/>
        </g>
        <g stroke="#000" class="edge">
            <path fill="none" d="M6357.71 172.31c78.65 6.59 189.24 20.46 222.52 47.69 26.57 21.74 19.36 38.77 28 72 20.26 77.9 70.89 117.64 20 180-23.57 28.88-121.53 42.45-189.97 48.51"/>
            <path d="m6438.89 523.97-10.26-2.64 9.67-4.33z"/>
        </g>
        <g stroke="#000" class="edge">
            <path fill="none" d="M6362.57 168.39c171.98 3.5 538.81 15.19 582.66 51.61 31.52 26.18 24 48.03 24 89v146c0 62.2-50.04 66.42-108 89-84.29 32.84-699.4 47.54-913.65 51.7"/>
            <path d="m5947.74 599.2-10.06-3.31 9.93-3.69z"/>
        </g>
        <g stroke="#000" class="edge">
            <path fill="none" d="M6187.8 170.51c-134.75 6.31-382.55 21.58-411.57 49.49-15.84 15.24-18.19 40.63-17.1 60.4"/>
            <path d="m5762.62 280.06-2.59 10.28-4.39-9.64z"/>
        </g>
        <g stroke="#000" class="edge">
            <path fill="none" d="M6186.6 169.06c-279.99 6.63-1178.11 28.31-1921.37 50.94-927.23 28.23-1175.76-106.93-2086 72-90.65 17.82-109.75 36.4-195 72-34.86 14.56-41 24.54-77 36-85.65 27.26-141.38-32.98-199 36-9.75 11.67-9.3 83 4 108 6.6 12.4 17.53 22.75 28.81 30.91"/>
            <path d="m1742.88 571.93 6.37 8.47-10.26-2.65z"/>
        </g>
        <g stroke="#000" class="edge">
            <path fill="none" d="M6360.09 170.71c85.58 5.42 209.29 18.46 245.14 49.29 86.39 74.28 113.49 159.48 47 252-58.56 81.49-115.3 53.86-214 72-125.18 23-1001.9 44.77-1278.56 51.14"/>
            <path d="m5160.1 598.63-10.07-3.27 9.91-3.73z"/>
        </g>
        <g stroke="#000" class="edge">
            <path fill="none" d="M6297.72 183.85c35.21 25.24 101.77 72.98 141.74 101.65"/>
            <path d="m6441.45 282.62 6.09 8.67-10.17-2.98z"/>
        </g>
        <g stroke="#000" class="edge">
            <path fill="none" d="M6185.82 168.05C5908.7 171.7 5072.67 185.52 5026.23 220c-95.25 70.72-12.3 160.66-88 252-11.19 13.5-26.77 24.29-41.94 32.52"/>
            <path d="m4898.28 507.43-10.49 1.44 7.31-7.67z"/>
        </g>
        <g stroke="#000" class="edge">
            <path fill="none" d="M6187.56 170.18c-313.49 11.49-1387.49 50.88-1722.02 63.14"/>
            <path d="m4466.06 236.8-10.12-3.13 9.87-3.86z"/>
        </g>
        <g stroke="#000" class="edge">
            <path fill="none" d="M6341.87 177.89c108.52 20.16 302.19 68.8 228.36 150.11-27.93 30.77-270.78 44.19-423.68 49.64"/>
            <path d="m6146.88 381.13-10.12-3.15 9.87-3.85z"/>
        </g>
        <g stroke="#000" class="edge">
            <path fill="none" d="M5192.16 244.43c178.67 12.79 624.89 44.73 814.56 58.31"/>
            <path d="m6006.78 299.23 9.72 4.21-10.22 2.77z"/>
        </g>
        <g stroke="#000" class="edge">
            <path fill="none" d="M5134.23 255.76c23.53 20.83 66.96 55.64 111 72.24 128.14 48.31 170.08 19.38 306 36 218.9 26.77 476.02 59.83 609.76 77.14"/>
            <path d="m6161.39 437.67 9.47 4.75-10.37 2.19z"/>
        </g>
        <g stroke="#000" class="edge">
            <path fill="none" d="M5171.3 251.43c52.19 11.79 130.75 29.53 186.85 42.2"/>
            <path d="m5358.6 290.14 8.98 5.62-10.53 1.21z"/>
        </g>
        <g stroke="#000" class="edge">
            <path fill="none" d="M5122.88 256.43c8.94 20.83 26.96 54.96 54.35 71.57 114.08 69.17 169.84-1.03 298 36 35.91 10.38 40.09 25.63 76 36 128.6 37.13 167.22 12.54 299 36 68.35 12.17 83.8 23.03 152 36 104.45 19.87 226.89 36.16 300.63 45.22"/>
            <path d="m6303.26 513.75 9.5 4.68-10.35 2.26z"/>
        </g>
        <g stroke="#000" class="edge">
            <path fill="none" d="M5136.04 255.72c24.86 20.13 69.53 53.55 113.19 72.28 139.12 59.69 572.62 54.32 657 180 12.94 19.27 1.83 44.4-10.71 63.04"/>
            <path d="m5898.53 572.84-8.69 6.06 3.02-10.16z"/>
        </g>
        <g stroke="#000" class="edge">
            <path fill="none" d="M5187.63 246.73c121.07 13.09 365.89 39.58 493.72 53.41"/>
            <path d="m5681.52 296.64 9.57 4.55-10.32 2.41z"/>
        </g>
        <g stroke="#000" class="edge">
            <path fill="none" d="M5036.56 241.31c-122.7 3.5-365.33 10.23-571.33 14.69-116.27 2.52-1984.04-4.65-2093 36-23.35 8.71-20.22 25.89-43 36-106.23 47.13-146.91 5.31-259 36-39.96 10.94-46.05 25-86 36-54.96 15.13-216.62-7.05-254 36-31.47 36.24-18.16 63.57 0 108 4.43 10.83 12.25 20.64 20.5 28.8"/>
            <path d="m1752.89 570.02 5.02 9.33-9.75-4.16z"/>
        </g>
        <g stroke="#000" class="edge">
            <path fill="none" d="M5115.55 256.25c.19 20.01 3.7 52.69 22.68 71.75 46.24 46.44 83.45 8.64 143 36 25.21 11.58 26.39 23.19 51 36 41.9 21.82 72.84-2.65 100 36 27.6 39.27 31.34 71.65 0 108-34.37 39.87-177.68 50.21-271.66 52.63"/>
            <path d="m5160.67 600.13-10.08-3.27 9.92-3.73z"/>
        </g>
        <g stroke="#000" class="edge">
            <path fill="none" d="M5191.57 244.7c48.67 3.56 113.39 8.07 170.66 11.3 365.1 20.61 456.8 17.23 822 36 64.23 3.3 136.48 7.57 192.55 11"/>
            <path d="m6376.85 299.5 9.77 4.11-10.2 2.88z"/>
        </g>
        <g stroke="#000" class="edge">
            <path fill="none" d="M5045.3 246.84c-91.21 10.14-254.5 28.48-394.07 45.16-17.43 2.08-36.11 4.38-53.86 6.59"/>
            <path d="m4598.01 302.03-10.36-2.23 9.49-4.71z"/>
        </g>
        <g stroke="#000" class="edge">
            <path fill="none" d="M5059.55 251.16c-42.18 9.6-100.92 24.12-151.32 40.84-119.55 39.65-141.35 71.85-262 108-80.66 24.17-105.96 9.86-186 36-28.85 9.42-100.74 44.56-147.08 67.76"/>
            <path d="m4314.97 506.77-10.51 1.36 7.37-7.62z"/>
        </g>
        <g stroke="#000" class="edge">
            <path fill="none" d="M5096.34 255.74c-19.77 18.67-44.78 49.26-27.11 72.26 37.83 49.24 97.17-13.24 135 36 9.75 12.69 9.09 22.83 0 36-57.72 83.6-175.95 111.83-260.75 121.07"/>
            <path d="m4944.07 524.53-10.3-2.48 9.6-4.48z"/>
        </g>
        <g stroke="#000" class="edge">
            <path fill="none" d="M5080.38 254.56c-87.67 38.06-312.85 135.8-410.65 178.26"/>
            <path d="m4671.24 435.98-10.57.77 7.78-7.19z"/>
        </g>
        <g stroke="#000" class="edge">
            <path fill="none" d="M5155.39 254.14c26.58 10.39 62.46 24.64 93.84 37.86 36.31 15.29 42.8 26.36 81 36 13.81 3.49 384.83 30.74 577.78 44.75"/>
            <path d="m5908.09 369.25 9.72 4.21-10.22 2.77z"/>
        </g>
        <g stroke="#000" class="edge">
            <path fill="none" d="M6062.61 256.3c4.68 7.8 10.32 17.19 15.52 25.87"/>
            <path d="m6081.05 280.22 2.14 10.38-8.15-6.78z"/>
        </g>
        <g stroke="#000" class="edge">
            <path fill="none" d="M6128.25 241.26c136.79 4.86 412.94 18.58 441.98 50.74 74.22 82.2-110.77 128.16-228.8 148.37"/>
            <path d="m6342.16 443.8-10.44-1.8 9.28-5.11z"/>
        </g>
        <g stroke="#000" class="edge">
            <path fill="none" d="M5996.85 250.77c-10.15 1.92-20.68 3.76-30.62 5.23-156.38 23.08-339.78 38.67-447.58 46.68"/>
            <path d="m5519.24 306.15-10.23-2.76 9.71-4.22z"/>
        </g>
        <g stroke="#000" class="edge">
            <path fill="none" d="M6128.47 241.15c141.19 4.74 431.97 18.37 463.76 50.85 56.06 57.28 61.03 117.38 11 180-20.5 25.66-104.52 39.82-166.04 46.91"/>
            <path d="m6437.81 522.36-10.32-2.38 9.55-4.58z"/>
        </g>
        <g stroke="#000" class="edge">
            <path fill="none" d="M6129.41 239.5c114.56 2.17 335.78 11.84 518.82 52.5 113.1 25.12 245-26.85 245 89v74c0 51.44-28.06 65.86-74 89-76.97 38.77-662.38 49.59-871.25 52.23"/>
            <path d="m5948.1 599.73-10.04-3.38 9.96-3.62z"/>
        </g>
        <g stroke="#000" class="edge">
            <path fill="none" d="M6000.23 251.6c-48.6 11.77-121.28 29.37-173.33 41.98"/>
            <path d="m5827.8 296.96-10.54-1.05 8.9-5.75z"/>
        </g>
        <g stroke="#000" class="edge">
            <path fill="none" d="M5998.32 251.2c-10.58 1.95-21.65 3.7-32.09 4.8-520.5 54.97-1831.9 18.55-2355 36-38.89 1.3-1363.04 57.13-1399 72-22.1 9.14-18.29 25.96-40 36-109.08 50.45-164.18-24.54-268 36-14.19 8.28-72.98 90.71-103.47 134.3"/>
            <path d="m1803.64 572.28-8.59 6.2 2.85-10.2z"/>
        </g>
        <g stroke="#000" class="edge">
            <path fill="none" d="M6025.15 255.12c-37.38 22.67-106.37 66.01-160.92 108.88-92.73 72.88-87.17 132.2-195 180-88.9 39.41-367.45 49.52-508.86 52.11"/>
            <path d="m5160.77 599.6-10.06-3.32 9.93-3.68z"/>
        </g>
        <g stroke="#000" class="edge">
            <path fill="none" d="M6113.3 249.18c74.21 12.37 199.53 33.25 280.72 46.79"/>
            <path d="m6394.4 292.48 9.29 5.1-10.44 1.8z"/>
        </g>
        <g stroke="#000" class="edge">
            <path fill="none" d="M6027.39 255.33c-33.16 20.87-94.43 56.26-152.16 72.67-174.88 49.72-633.74 57.83-815 72-117.47 9.18-417.97-3.44-529 36-26.14 9.29-25.8 24.4-51 36-24.46 11.26-87.43 26.6-137.91 37.88"/>
            <path d="m4343.1 513.3-10.52-1.26 9.01-5.58z"/>
        </g>
        <g stroke="#000" class="edge">
            <path fill="none" d="M5998.32 251.13c-10.59 1.96-21.65 3.73-32.09 4.87-341.16 37.42-1201.07 22.29-1544 36-66.21 2.65-140.58 6.85-198.71 10.42"/>
            <path d="m4223.82 305.91-10.19-2.88 9.76-4.11z"/>
        </g>
        <g stroke="#000" class="edge">
            <path fill="none" d="M5917.71 253.59c35.08 11.01 83.37 26.17 120.58 37.85"/>
            <path d="m6039.02 288 8.49 6.34-10.59.34z"/>
        </g>
        <g stroke="#000" class="edge">
            <path fill="none" d="M5934.29 250.6c10.65 1.87 21.6 3.73 31.94 5.4 111.26 17.93 149.54-13.06 251 36 41.89 20.26 57.62 29.26 76 72 6.32 14.7 5.17 20.86 0 36-3.39 9.92-9.47 19.42-15.93 27.57"/>
            <path d="m6280.11 429.67-9.15 5.33 3.83-9.88z"/>
        </g>
        <g stroke="#000" class="edge">
            <path fill="none" d="M5804.13 249.56c-80.17 12.61-214.09 33.67-299.1 47.05"/>
            <path d="m5505.8 300.03-10.42-1.91 9.33-5.01z"/>
        </g>
        <g stroke="#000" class="edge">
            <path fill="none" d="M5932.4 251.04c11.22 1.89 22.85 3.65 33.83 4.96 66.76 7.93 557.9-12.93 604 36 71.7 76.1-83.71 172.02-160.88 212.98"/>
            <path d="m6411.28 507.92-10.48 1.54 7.24-7.74z"/>
        </g>
        <g stroke="#000" class="edge">
            <path fill="none" d="M5932.39 251.06c11.22 1.89 22.86 3.65 33.84 4.94 138.61 16.32 495.46-10.63 627 36 134.77 47.78 298.15 148.02 200 252-28.9 30.61-633.03 46.74-845.71 51.49"/>
            <path d="m5947.77 598.98-10.08-3.28 9.92-3.72z"/>
        </g>
        <g stroke="#000" class="edge">
            <path fill="none" d="m5845.64 255.59-47.72 30.92"/>
            <path d="m5800.21 289.2-10.3 2.51 6.49-8.38z"/>
        </g>
        <g stroke="#000" class="edge">
            <path fill="none" d="M5802.69 249.29c-20.67 2.69-43.44 5.24-64.46 6.71-640.26 44.76-2248.48-18.41-2888 36-101.78 8.66-125.58 23.82-227 36-194.37 23.35-254.68-29.96-439 36-26.46 9.47-25.74 25.97-52 36-120.5 46.04-186.39-43.47-288 36-21.46 16.79-43.74 91.05-54.83 132.61"/>
            <path d="m1792.82 569.37-5.92 8.79-.85-10.56z"/>
        </g>
        <g stroke="#000" class="edge">
            <path fill="none" d="M5878.23 256.25c6.74 19.72 13.67 51.81-3 71.75-57.93 69.29-136.55-28.28-200 36-56.98 57.72 29.38 124.76-30 180-34.76 32.33-335.57 45.94-485.2 50.75"/>
            <path d="m5160.27 598.25-10.11-3.18 9.89-3.82z"/>
        </g>
        <g stroke="#000" class="edge">
            <path fill="none" d="M5933.2 250.9c10.97 1.88 22.32 3.67 33.03 5.1 178.24 23.86 224.61 13.34 403 36 8.53 1.08 17.44 2.35 26.3 3.69"/>
            <path d="m6395.84 292.2 9.34 5-10.42 1.92z"/>
        </g>
        <g stroke="#000" class="edge">
            <path fill="none" d="M5873.09 256.4c1.12 20.49-.62 53.94-20.86 71.6-40.38 35.24-427.57 31.8-481 36-194.06 15.26-686.88 14.97-873 72-31.2 9.56-34.11 22.89-64 36-32.28 14.16-69.58 26.56-100.35 35.8"/>
            <path d="m4334.89 511.15-10.58-.52 8.6-6.19z"/>
        </g>
        <g stroke="#000" class="edge">
            <path fill="none" d="M5802.34 249.13c-20.58 2.67-43.22 5.25-64.11 6.87-583.36 45.15-731.41 11.45-1316 36-66.21 2.78-140.58 6.99-198.71 10.52"/>
            <path d="m4223.83 306.01-10.2-2.88 9.77-4.11z"/>
        </g>
        <g class="node" transform="translate(4 616)">
            <ellipse cx="128.23" cy="-90" fill="none" stroke="#000" rx="106.11" ry="18"/>
            <text x="128.23" y="-84.95" font-family="Times,serif" font-size="14" text-anchor="middle">:library:firebase-common</text>
        </g>
        <g stroke="#000" class="edge">
            <path fill="none" d="M132.23 472.3v24.16"/>
            <path d="m135.73 496.38-3.5 10-3.5-10z"/>
        </g>
        <g stroke="#000" class="edge">
            <path fill="none" d="M6073.28 398.54c35.17 10.7 82.04 24.97 119 36.21"/>
            <path d="m6192.91 431.29 8.55 6.26-10.59.43z"/>
        </g>
        <g stroke="#000" class="edge">
            <path fill="none" d="M6033.91 400.07c14.96 20.48 42.88 54.25 75.32 71.93 59.01 32.15 135.19 44.87 189.81 49.87"/>
            <path d="m6299.18 518.36 9.67 4.33-10.26 2.65z"/>
        </g>
        <g stroke="#000" class="edge">
            <path fill="none" d="M6006.9 400.12c-32.11 34.52-110.49 111.91-194.67 143.88-117.01 44.44-484.22 51.92-651.49 52.97"/>
            <path d="m5160.82 600.47-10.02-3.45 9.98-3.55z"/>
        </g>
        <g stroke="#000" class="edge">
            <path fill="none" d="M2646.98 461.66c50.81 6.64 113.56 19.89 164.25 46.34 20.63 10.76 16.65 26.76 38 36 74.38 32.18 614.36 46.87 823.54 51.39"/>
            <path d="m3672.83 591.9 9.93 3.71-10.08 3.28z"/>
        </g>
        <g stroke="#000" class="edge">
            <path fill="none" d="M2771.5 538.83c14.84 1.94 30.24 3.77 44.73 5.17 316.04 30.53 693.75 45.26 857.09 50.58"/>
            <path d="m3673.31 591.08 9.88 3.82-10.11 3.17z"/>
        </g>
        <g stroke="#000" class="edge">
            <path fill="none" d="M2134.64 468.99c94.85 20.3 279.58 57.43 438.59 75.01 410.67 45.41 905.7 52.18 1099 53"/>
            <path d="m3672.2 593.5 9.98 3.54-10.01 3.46z"/>
        </g>
        <g stroke="#000" class="edge">
            <path fill="none" d="M2351.56 462.34c27.43 3.45 61.27 7.31 91.67 9.66 413.3 32 518.37 8.69 932 36 171.49 11.32 213.53 24.54 385 36 464.9 31.08 1023.5 46.26 1232.08 51.16"/>
            <path d="m4992.33 591.66 9.92 3.73-10.08 3.27z"/>
        </g>
    </g>
</svg>
