<svg xmlns="http://www.w3.org/2000/svg" width="1921pt" height="476pt" viewBox="0 0 1921 476">
    <g class="graph">
        <path fill="#fff" d="M0 476V0h1921v476z"/>
        <g class="node" transform="translate(4 472)">
            <ellipse cx="663" cy="-450" fill="none" stroke="#000" rx="88.71" ry="18"/>
            <text x="663" y="-444.95" font-family="Times,serif" font-size="14" text-anchor="middle">:app:feature:calendar</text>
        </g>
        <g class="node" transform="translate(4 472)">
            <ellipse cx="334" cy="-378" fill="none" stroke="#000" rx="81.04" ry="18"/>
            <text x="334" y="-372.95" font-family="Times,serif" font-size="14" text-anchor="middle">:app:core:compose</text>
        </g>
        <g stroke="#000" class="edge">
            <path fill="none" d="M607.42 35.68C550.79 47.72 465.7 65.83 406.35 78.46"/>
            <path d="m407.19 81.86-10.5-1.35 9.05-5.5z"/>
        </g>
        <g class="node" transform="translate(4 472)">
            <ellipse cx="101" cy="-234" fill="none" stroke="#000" rx="101" ry="18"/>
            <text x="101" y="-228.95" font-family="Times,serif" font-size="14" text-anchor="middle">:app:core:design-system</text>
        </g>
        <g stroke="#000" class="edge">
            <path fill="none" d="M579.53 25.21C485.51 29.39 332.39 41.42 205 76c-76.43 20.75-119.77 5.64-163 72-8.74 13.41-6.76 21.49 0 36 5.4 11.61 14.74 21.58 24.59 29.64"/>
            <path d="m68.6 210.78 5.88 8.81-10.09-3.22z"/>
        </g>
        <g class="node" transform="translate(4 472)">
            <ellipse cx="586" cy="-234" fill="none" stroke="#000" rx="86.67" ry="18"/>
            <text x="586" y="-228.95" font-family="Times,serif" font-size="14" text-anchor="middle">:app:core:navigation</text>
        </g>
        <g stroke="#000" class="edge">
            <path fill="none" d="M667.85 40.02c.82 30.57-.69 96.03-24.85 143.98-5.36 10.63-13.66 20.44-22.11 28.64"/>
            <path d="m623.36 215.13-9.75 4.14 5.04-9.32z"/>
        </g>
        <g class="node" transform="translate(4 472)">
            <ellipse cx="318" cy="-162" fill="none" stroke="#000" rx="59.54" ry="18"/>
            <text x="318" y="-156.95" font-family="Times,serif" font-size="14" text-anchor="middle">:library:color</text>
        </g>
        <g stroke="#000" class="edge">
            <path fill="none" d="M646.99 39.83C636.4 49.55 623.79 62.5 615 76c-28.2 43.29-5.3 72.68-43 108-37.85 35.46-64.11 13.84-111 36-39.63 18.73-81.53 46.85-108.84 66.46"/>
            <path d="m354.52 289.08-10.15 3.04 6.03-8.71z"/>
        </g>
        <g class="node" transform="translate(4 472)">
            <ellipse cx="1730" cy="-18" fill="none" stroke="#000" rx="62.1" ry="18"/>
            <text x="1730" y="-12.95" font-family="Times,serif" font-size="14" text-anchor="middle">:library:kotlin</text>
        </g>
        <g stroke="#000" class="edge">
            <path fill="none" d="M755.39 23.76C1040.44 27.36 1917 47.95 1917 165v146c0 66.03-75.28 105.77-129.27 125.78"/>
            <path d="m1788.92 440.07-10.59.06 8.24-6.65z"/>
        </g>
        <g class="node" transform="translate(4 472)">
            <ellipse cx="617" cy="-162" fill="none" stroke="#000" rx="79.5" ry="18"/>
            <text x="617" y="-156.95" font-family="Times,serif" font-size="14" text-anchor="middle">:library:navigation</text>
        </g>
        <g stroke="#000" class="edge">
            <path fill="none" d="M674.1 40.44C689.32 80.7 720.99 182.31 686 256c-5.7 12-15.6 22.19-25.98 30.32"/>
            <path d="m662.25 289.02-10.15 3.02 6.05-8.69z"/>
        </g>
        <g class="node" transform="translate(4 472)">
            <ellipse cx="1571" cy="-18" fill="none" stroke="#000" rx="78.99" ry="18"/>
            <text x="1571" y="-12.95" font-family="Times,serif" font-size="14" text-anchor="middle">:library:coroutines</text>
        </g>
        <g stroke="#000" class="edge">
            <path fill="none" d="M753.94 25.96C915.05 32.05 1253.96 47.81 1368 76c78.07 19.3 104.53 20.14 166 72 76.72 64.73 61.83 115.71 66 216 .66 15.99 3.49 20.39 0 36-1.98 8.84-5.61 17.93-9.49 26.04"/>
            <path d="m1593.75 427.4-7.7 7.28 1.47-10.49z"/>
        </g>
        <g class="node" transform="translate(4 472)">
            <ellipse cx="668" cy="-18" fill="none" stroke="#000" rx="72.85" ry="18"/>
            <text x="668" y="-12.95" font-family="Times,serif" font-size="14" text-anchor="middle">:library:datetime</text>
        </g>
        <g stroke="#000" class="edge">
            <path fill="none" d="M664.15 40.43C657.9 73.16 639.99 144.07 597 184c-35.54 33-74.93-3.54-103 36-9.26 13.05-3 20.28 0 36 12.89 67.61 9.21 94.46 57 144 16.27 16.87 38.85 28.72 60.09 36.87"/>
            <path d="m612.06 433.5 8.22 6.67-10.59-.09z"/>
        </g>
        <g class="node" transform="translate(4 472)">
            <ellipse cx="470" cy="-306" fill="none" stroke="#000" rx="89.23" ry="18"/>
            <text x="470" y="-300.95" font-family="Times,serif" font-size="14" text-anchor="middle">:library:shimmer-m3</text>
        </g>
        <g stroke="#000" class="edge">
            <path fill="none" d="M636.14 39.35C618.35 49.22 595.85 62.47 577 76c-27.6 19.8-56.68 45.42-76.87 64.09"/>
            <path d="m502.59 142.58-9.7 4.26 4.92-9.38z"/>
        </g>
        <g class="node" transform="translate(4 472)">
            <ellipse cx="172" cy="-306" fill="none" stroke="#000" rx="115.33" ry="18"/>
            <text x="172" y="-300.95" font-family="Times,serif" font-size="14" text-anchor="middle">:app:core:calendar-compose</text>
        </g>
        <g stroke="#000" class="edge">
            <path fill="none" d="M580.44 26.39C474.78 31.82 303.33 45.18 248 76c-25.55 14.23-45.52 41.5-57.88 62.13"/>
            <path d="m193.28 139.66-8.01 6.94 1.93-10.42z"/>
        </g>
        <g class="node" transform="translate(4 472)">
            <ellipse cx="1264" cy="-378" fill="none" stroke="#000" rx="91.27" ry="18"/>
            <text x="1264" y="-372.95" font-family="Times,serif" font-size="14" text-anchor="middle">:app:domain:calendar</text>
        </g>
        <g stroke="red" stroke-width="2" class="edge">
            <path fill="none" d="M742.51 31.79c111.32 12.97 319.03 37.16 437.24 50.93"/>
            <path fill="red" d="m1178.36 79.04 9.53 4.63-10.34 2.32z"/>
        </g>
        <g class="node" transform="translate(4 472)">
            <ellipse cx="1107" cy="-90" fill="none" stroke="#000" rx="87.69" ry="18"/>
            <text x="1107" y="-84.95" font-family="Times,serif" font-size="14" text-anchor="middle">:app:domain:holiday</text>
        </g>
        <g stroke="#000" class="edge">
            <path fill="none" d="M687.82 39.79c71.8 57.89 309.28 249.37 393.35 317.16"/>
            <path d="m1083.2 354.09 5.59 9-9.99-3.55z"/>
        </g>
        <g stroke="#000" class="edge">
            <path fill="none" d="M259.11 98.62C183.75 103.92 77.91 116.84 52 148c-16.71 20.08 2.61 46.03 22.44 64.72"/>
            <path d="m76.62 209.97 5.12 9.27-9.79-4.05z"/>
        </g>
        <g stroke="#000" class="edge">
            <path fill="none" d="M336.71 112.15c-2.74 36.71-9.21 123.19-12.58 168.32"/>
            <path d="m327.63 280.55-4.23 9.71-2.75-10.23z"/>
        </g>
        <g stroke="#000" class="edge">
            <path fill="none" d="M342.78 112.45C359.16 171.08 414.62 359.58 461 400c34.96 30.47 84.92 43.9 127.45 49.63"/>
            <path d="m588.65 446.13 9.5 4.68-10.34 2.27z"/>
        </g>
        <g stroke="#000" class="edge">
            <path fill="none" d="M302.04 110.54c-22.83 9.86-52.68 22.76-77.59 33.52"/>
            <path d="m226.06 147.18-10.56.75 7.79-7.18z"/>
        </g>
        <g class="node" transform="translate(4 472)">
            <ellipse cx="915" cy="-18" fill="none" stroke="#000" rx="71.31" ry="18"/>
            <text x="915" y="-12.95" font-family="Times,serif" font-size="14" text-anchor="middle">:app:core:model</text>
        </g>
        <g stroke="#000" class="edge">
            <path fill="none" d="M405.92 104.11c47.74 7.9 112.4 21.64 166.08 43.89 150.15 62.25 280.03 217.08 327.64 278.9"/>
            <path d="m902.37 424.71 3.27 10.08-8.84-5.83z"/>
        </g>
        <g stroke="#000" class="edge">
            <path fill="none" d="M152.35 254.28c35.26 11.37 83.31 26.87 119.28 38.47"/>
            <path d="m272.49 289.35 8.44 6.4-10.59.26z"/>
        </g>
        <g stroke="#000" class="edge">
            <path fill="none" d="M111.65 256.26C125.79 290.35 162.33 365.93 220 400c60.5 35.75 255.17 47.41 368.34 51.19"/>
            <path d="m588.3 447.69 9.89 3.82-10.11 3.18z"/>
        </g>
        <g stroke="#000" class="edge">
            <path fill="none" d="M563.57 255.53c-12.03 9.12-25.03 21.62-31.57 36.47-6.46 14.64-6.54 21.4 0 36 20.54 45.88 67.16 81.86 100.98 103.21"/>
            <path d="m634.59 428.09 6.7 8.21-10.36-2.24z"/>
        </g>
        <g stroke="#000" class="edge">
            <path fill="none" d="M627.25 328.41c8.69 24.19 24.5 68.23 34.82 96.94"/>
            <path d="m665.25 423.87.09 10.59-6.67-8.22z"/>
        </g>
        <g stroke="#000" class="edge">
            <path fill="none" d="M438.73 182.88c-17.96 9.19-39.39 21.94-55.73 37.12-19.34 17.97-35.87 43.12-46.83 62.1"/>
            <path d="m339.35 283.59-7.93 7.02 1.82-10.44z"/>
        </g>
        <g stroke="#000" class="edge">
            <path fill="none" d="M158.81 183.95c-8.63 8.51-19.26 18.98-28.78 28.37"/>
            <path d="m132.68 214.62-9.58 4.53 4.67-9.51z"/>
        </g>
        <g stroke="#000" class="edge">
            <path fill="none" d="M202.17 183.98c14.21 9.76 31.71 22.71 45.83 36.02 20.67 19.48 41.07 44.59 55.2 63.16"/>
            <path d="m305.89 280.91 3.19 10.1-8.8-5.91z"/>
        </g>
        <g stroke="#000" class="edge">
            <path fill="none" d="M190.75 184.28c7.97 9.96 17.52 22.99 24.25 35.72 23.78 44.98 3.23 70.84 38 108 86.96 92.95 239.77 117.77 334.85 123.82"/>
            <path d="m587.86 448.32 9.78 4.06-10.18 2.93z"/>
        </g>
        <g stroke="#000" class="edge">
            <path fill="none" d="M1358.26 97.17c54.44 4.98 123.19 18.07 175.74 50.83 107.26 66.89 168.86 214.93 190.78 276.88"/>
            <path d="m1728.08 423.72-.05 10.59-6.57-8.31z"/>
        </g>
        <g stroke="#000" class="edge">
            <path fill="none" d="M1342.63 104.64c58.9 8.92 135.06 23.74 159.37 43.36 80.03 64.59 71.77 113.77 83 216 1.74 15.9 1.49 20.07 0 36-.76 8.14-2.17 16.9-3.69 24.9"/>
            <path d="m1584.79 425.35-5.43 9.1-1.43-10.5z"/>
        </g>
        <g stroke="#000" class="edge">
            <path fill="none" d="M1212.78 108.68c-34.51 9.34-79.51 22.96-117.78 39.32-173.33 74.1-232.41 82.02-365 216-18.09 18.28-33.68 43.04-44.13 61.81"/>
            <path d="m689.03 427.34-7.83 7.13 1.67-10.46z"/>
        </g>
        <g stroke="#000" class="edge">
            <path fill="none" d="M1231.89 110.97C1170.17 139.71 1043.22 205.33 962 292c-25.03 26.71-30.23 36.72-40 72-5.44 19.61-6.08 42.58-5.42 60.28"/>
            <path d="m920.07 423.89-2.95 10.17-4.04-9.79z"/>
        </g>
        <g class="node" transform="translate(4 472)">
            <ellipse cx="1280" cy="-18" fill="none" stroke="#000" rx="85.13" ry="18"/>
            <text x="1280" y="-12.95" font-family="Times,serif" font-size="14" text-anchor="middle">:common:exception</text>
        </g>
        <g stroke="#000" class="edge">
            <path fill="none" d="M1250.4 111.84c-27.31 28.23-75.45 87.59-62.4 144.16 15.04 65.23 54.76 133.86 78.12 170.4"/>
            <path d="m1268.91 424.26 2.51 10.29-8.38-6.48z"/>
        </g>
        <g class="node" transform="translate(4 472)">
            <ellipse cx="1416" cy="-90" fill="none" stroke="#000" rx="88.71" ry="18"/>
            <text x="1416" y="-84.95" font-family="Times,serif" font-size="14" text-anchor="middle">:app:domain:account</text>
        </g>
        <g stroke="#000" class="edge">
            <path fill="none" d="M1341.47 104.99c52.08 8.66 115.74 22.96 133.53 43.01 53.38 60.18 55.76 108.45 19 180-6.56 12.75-17.76 23.13-29.5 31.2"/>
            <path d="m1466.65 361.98-10.32 2.4 6.58-8.31z"/>
        </g>
        <g class="node" transform="translate(4 472)">
            <ellipse cx="1378" cy="-306" fill="none" stroke="#000" rx="84.11" ry="18"/>
            <text x="1378" y="-300.95" font-family="Times,serif" font-size="14" text-anchor="middle">:app:domain:memo</text>
        </g>
        <g stroke="red" stroke-width="2" class="edge">
            <path fill="none" d="M1295.01 111.59c15.05 9.24 34 20.87 50.37 30.92"/>
            <path fill="red" d="m1345.9 138.73 6.69 8.22-10.35-2.25z"/>
        </g>
        <g class="node" transform="translate(4 472)">
            <ellipse cx="1264" cy="-234" fill="none" stroke="#000" rx="71.31" ry="18"/>
            <text x="1264" y="-228.95" font-family="Times,serif" font-size="14" text-anchor="middle">:app:domain:tag</text>
        </g>
        <g stroke="#000" class="edge">
            <path fill="none" d="M1268 112.41v96.17"/>
            <path d="m1271.5 208.38-3.5 10-3.5-10z"/>
        </g>
        <g stroke="#000" class="edge">
            <path fill="none" d="M1191.64 389.35c130.65 10.53 382.87 31.88 471.36 46.65 4.91.82 9.99 1.79 15.07 2.84"/>
            <path d="m1678.62 435.38 9.02 5.55-10.52 1.29z"/>
        </g>
        <g stroke="#000" class="edge">
            <path fill="none" d="M1180.21 393.44c85.56 12.91 230.65 34.8 319.09 48.14"/>
            <path d="m1499.73 438.11 9.37 4.95-10.41 1.97z"/>
        </g>
        <g stroke="#000" class="edge">
            <path fill="none" d="M1043.37 393.78c-81.32 12.97-217.18 34.63-300.09 47.85"/>
            <path d="m743.86 445.08-10.42-1.88 9.32-5.03z"/>
        </g>
        <g stroke="#000" class="edge">
            <path fill="none" d="M1069.34 398.19c-29.5 10.75-69.21 25.23-100.41 36.6"/>
            <path d="m970.3 438.02-10.59.14 8.19-6.72z"/>
        </g>
        <g stroke="#000" class="edge">
            <path fill="none" d="M1149.39 398.54c25.31 10.24 58.68 23.74 85.86 34.73"/>
            <path d="m1236.35 429.95 7.96 6.99-10.59-.51z"/>
        </g>
        <g stroke="#000" class="edge">
            <path fill="none" d="M1479.49 395.62c49.24 10.54 121 26.08 183.51 40.38 4.32.99 8.79 2.03 13.28 3.08"/>
            <path d="m1677.03 435.66 8.93 5.7-10.53 1.11z"/>
        </g>
        <g stroke="#000" class="edge">
            <path fill="none" d="M1455.17 398.88c22.25 10.05 51.22 23.14 75.1 33.92"/>
            <path d="m1531.45 429.49 7.67 7.31-10.56-.93z"/>
        </g>
        <g stroke="#000" class="edge">
            <path fill="none" d="M1340.09 390.02C1228.06 399.93 1017.95 418.73 839 436c-29.2 2.82-61.24 6.05-89.39 8.93"/>
            <path d="m750.03 448.4-10.31-2.46 9.59-4.5z"/>
        </g>
        <g stroke="red" stroke-width="2" class="edge">
            <path fill="none" d="M1348.48 392.99c-94.95 13.27-261.74 36.57-357.12 49.9"/>
            <path fill="red" d="m993.48 446.13-10.39-2.09 9.42-4.85z"/>
        </g>
        <g stroke="#000" class="edge">
            <path fill="none" d="M1388.45 399.24c-18.71 9.63-42.64 21.95-62.88 32.36"/>
            <path d="m1327.21 434.7-10.5 1.46 7.29-7.69z"/>
        </g>
        <g stroke="#000" class="edge">
            <path fill="none" d="M1434.75 180.3c27.79 8.56 61.54 21.54 88.25 39.7 85.94 58.45 160.79 158.89 193.49 206.49"/>
            <path d="m1719.24 424.32 2.72 10.24-8.51-6.31z"/>
        </g>
        <g stroke="#000" class="edge">
            <path fill="none" d="M1424.77 181.93c21.4 8.86 46.81 21.6 66.23 38.07 55.5 47.09 62.61 72.86 78 144 4.29 19.83 5.76 42.67 6.17 60.24"/>
            <path d="m1578.67 424.18-3.38 10.04-3.62-9.96z"/>
        </g>
        <g stroke="#000" class="edge">
            <path fill="none" d="M1306.49 174.25c-62.18 7.37-152.06 21.28-227.49 45.75-138.78 45.01-171.61 66.16-295 144-30.83 19.45-63.13 45.85-85.07 64.84"/>
            <path d="m701.45 431.29-9.84 3.95 5.23-9.22z"/>
        </g>
        <g stroke="#000" class="edge">
            <path fill="none" d="M1320.19 178.61c-76 16.34-206.75 51.3-303.19 113.39-39.67 25.54-54.43 31.13-78 72-10.66 18.48-15.64 42.15-17.97 60.44"/>
            <path d="m924.52 424.75-4.53 9.58-2.43-10.31z"/>
        </g>
        <g stroke="#000" class="edge">
            <path fill="none" d="M1414.42 182.83c15.98 9.09 34.56 21.78 47.58 37.17 54.1 63.97 108.29 114.54 56 180-18.35 22.97-87.61 36.72-146.05 44.44"/>
            <path d="m1372.66 447.88-10.36-2.21 9.48-4.74z"/>
        </g>
        <g stroke="#000" class="edge">
            <path fill="none" d="M1400.93 183.76c23.35 22.09 61.84 63.42 77.07 108.24 5.14 15.15 6.45 21.36 0 36-4.97 11.26-13.63 21.16-22.77 29.26"/>
            <path d="m1457.55 359.89-9.95 3.62 5.52-9.04z"/>
        </g>
        <g stroke="red" stroke-width="2" class="edge">
            <path fill="none" d="M1355.27 183.41c-15.4 9.46-34.96 21.47-51.66 31.72"/>
            <path fill="red" d="m1307.1 217.1-10.36 2.25 6.69-8.22z"/>
        </g>
        <g class="node" transform="translate(4 472)">
            <ellipse cx="1378" cy="-162" fill="none" stroke="#000" rx="86.67" ry="18"/>
            <text x="1378" y="-156.95" font-family="Times,serif" font-size="14" text-anchor="middle">:app:domain:backup</text>
        </g>
        <g stroke="#000" class="edge">
            <path fill="none" d="M1382 184.41v96.17"/>
            <path d="m1385.5 280.38-3.5 10-3.5-10z"/>
        </g>
        <g stroke="#000" class="edge">
            <path fill="none" d="M1333.53 245.43c51.19 6.81 123.17 20.35 181.47 46.57 78.02 35.09 155.36 101.22 193.86 136.83"/>
            <path d="m1710.9 425.94 4.91 9.39-9.7-4.28z"/>
        </g>
        <g stroke="#000" class="edge">
            <path fill="none" d="M1332.6 245.84c43.44 6.8 100.71 20.16 145.4 46.16 38.31 22.29 46.42 33.86 69 72 11.1 18.75 18.26 42.37 22.56 60.57"/>
            <path d="m1572.94 423.64-1.27 10.52-5.56-9.02z"/>
        </g>
        <g stroke="#000" class="edge">
            <path fill="none" d="M1207.38 247.81C1155.9 256.23 1080.47 270.8 1017 292c-30.78 10.28-217.3 99.5-302.55 140.53"/>
            <path d="m715.98 435.67-10.53 1.19 7.49-7.49z"/>
        </g>
        <g stroke="#000" class="edge">
            <path fill="none" d="M1215.01 250.39C1150.95 266.43 1042.8 301 971 364c-18.98 16.65-32.84 41.98-41.45 61.37"/>
            <path d="m932.89 426.46-7.11 7.85.66-10.57z"/>
        </g>
        <g stroke="#000" class="edge">
            <path fill="none" d="M1267.18 256.18c-.45 10.37-.96 23.85-1.18 35.82-.3 16-1.15 20.04 0 36 2.38 33.27 8.29 71.13 12.69 96.38"/>
            <path d="m1282.13 423.74-1.69 10.46-5.2-9.23z"/>
        </g>
        <g stroke="#000" class="edge">
            <path fill="none" d="M1266.88 256.47c-.29 19.62 2.22 51.34 19.12 71.53 15.04 17.97 37.01 29.89 58.83 37.77"/>
            <path d="m1345.68 362.37 8.38 6.48-10.59.16z"/>
        </g>
        <g stroke="red" stroke-width="2" class="edge">
            <path fill="none" d="M1294.15 255.06c15.28 9.38 34.78 21.36 51.53 31.64"/>
            <path fill="red" d="m1345.9 282.73 6.69 8.22-10.35-2.25z"/>
        </g>
        <g stroke="#000" class="edge">
            <path fill="none" d="M1431.7 325.08c33.07 9.82 77.26 23.84 115.3 38.92 52.39 20.78 110.74 49.48 148.1 68.61"/>
            <path d="m1696.43 429.36 7.28 7.69-10.49-1.47z"/>
        </g>
        <g stroke="#000" class="edge">
            <path fill="none" d="M1437.78 324.08c26.38 8.23 57.09 20.97 80.22 39.92 20.02 16.41 35.29 41.76 44.96 61.22"/>
            <path d="m1566.11 423.7 1.12 10.54-7.45-7.54z"/>
        </g>
        <g stroke="#000" class="edge">
            <path fill="none" d="M1301.71 317.1c-83.37 7.33-217.25 21.88-330.71 46.9-51.89 11.44-63.13 20.68-114 36-42.48 12.79-90.65 26.57-127.19 36.87"/>
            <path d="m730.89 440.2-10.57-.66 8.67-6.08z"/>
        </g>
        <g stroke="#000" class="edge">
            <path fill="none" d="M1301.23 316.95c-92.58 7.8-237.93 23.36-287.23 47.05-8.33 4-44.78 39.2-70.03 64.11"/>
            <path d="m946.54 430.49-9.57 4.55 4.65-9.52z"/>
        </g>
        <g stroke="#000" class="edge">
            <path fill="none" d="M1358.64 327.6c-12.16 9.56-26.55 22.43-36.64 36.4-13.38 18.52-23.27 42.48-29.6 60.88"/>
            <path d="m1295.74 425.92-6.43 8.42-.22-10.59z"/>
        </g>
        <g stroke="red" stroke-width="2" class="edge">
            <path fill="none" d="M1391.39 328.3c4.19 7.72 9.22 16.99 13.89 25.59"/>
            <path fill="red" d="m1407.57 350.78 1.7 10.46-7.85-7.12z"/>
        </g>
    </g>
</svg>
