<svg xmlns="http://www.w3.org/2000/svg" width="7333pt" height="620pt" viewBox="0 0 7333.15 620">
    <g class="graph">
        <path fill="#fff" d="M0 620V0h7333.15v620z"/>
        <g class="node" transform="translate(4 616)">
            <ellipse cx="3291" cy="-594" fill="none" stroke="#000" rx="88.2" ry="18"/>
            <text x="3291" y="-588.95" font-family="Times,serif" font-size="14" text-anchor="middle">:app:platform:macos</text>
        </g>
        <g class="node" transform="translate(4 616)">
            <ellipse cx="3291" cy="-522" fill="none" stroke="#000" rx="97.41" ry="18"/>
            <text x="3291" y="-516.95" font-family="Times,serif" font-size="14" text-anchor="middle">:app:platform:common</text>
        </g>
        <g stroke="red" stroke-width="2" class="edge">
            <path fill="none" d="M3295 40.3v24.16"/>
            <path fill="red" d="m3298.5 62.87-3.5 10-3.5-10z"/>
        </g>
        <g class="node" transform="translate(4 616)">
            <ellipse cx="913" cy="-306" fill="none" stroke="#000" rx="81.04" ry="18"/>
            <text x="913" y="-300.95" font-family="Times,serif" font-size="14" text-anchor="middle">:app:core:compose</text>
        </g>
        <g stroke="#000" class="edge">
            <path fill="none" d="M3197.86 95.79C2793.14 99.29 1257.42 114.72 1160 148c-76.72 26.21-78.7 64.32-147 108-17.56 11.23-37.67 22.55-54.92 31.83"/>
            <path d="m960.09 290.72-10.47 1.61 7.19-7.79z"/>
        </g>
        <g class="node" transform="translate(4 616)">
            <ellipse cx="937" cy="-162" fill="none" stroke="#000" rx="101" ry="18"/>
            <text x="937" y="-156.95" font-family="Times,serif" font-size="14" text-anchor="middle">:app:core:design-system</text>
        </g>
        <g stroke="#000" class="edge">
            <path fill="none" d="M3197.73 95.59C2738.35 98.54 803.13 113.03 680 148c-121.13 34.4-181.56 34.65-244 144-28.36 49.67 18.75 82.59 70 108 55.54 27.54 216.68 41.5 326.44 48"/>
            <path d="m832.6 444.51 9.79 4.07-10.19 2.91z"/>
        </g>
        <g class="node" transform="translate(4 616)">
            <ellipse cx="1137" cy="-306" fill="none" stroke="#000" rx="86.67" ry="18"/>
            <text x="1137" y="-300.95" font-family="Times,serif" font-size="14" text-anchor="middle">:app:core:navigation</text>
        </g>
        <g stroke="#000" class="edge">
            <path fill="none" d="M3197.28 94.53C2858.86 93.41 1738.18 93.98 1383 148c-116.85 17.77-184.63-22.21-256 72-13.19 17.41-7.83 42.29-.23 61.33"/>
            <path d="m1129.93 279.81.84 10.56-7.24-7.73z"/>
        </g>
        <g class="node" transform="translate(4 616)">
            <ellipse cx="728" cy="-90" fill="none" stroke="#000" rx="59.54" ry="18"/>
            <text x="728" y="-84.95" font-family="Times,serif" font-size="14" text-anchor="middle">:library:color</text>
        </g>
        <g stroke="#000" class="edge">
            <path fill="none" d="M3197.49 94.76C2739.58 93.92 813.84 93.68 551 148c-165.53 34.21-257.78 3.66-352 144C83.86 463.51 493.01 509.69 662.12 521.33"/>
            <path d="m662.13 517.82 9.74 4.16-10.21 2.83z"/>
        </g>
        <g class="node" transform="translate(4 616)">
            <ellipse cx="1494" cy="-18" fill="none" stroke="#000" rx="62.1" ry="18"/>
            <text x="1494" y="-12.95" font-family="Times,serif" font-size="14" text-anchor="middle">:library:kotlin</text>
        </g>
        <g stroke="#000" class="edge">
            <path fill="none" d="M3197.52 95.31C2717.94 97.05 620.42 106.94 332 148 182.46 169.29 4 85.95 4 237v218c0 58.51 42.89 66.75 97 89 122.54 50.39 1052.46 53.38 1323.24 53.17"/>
            <path d="m1423.98 593.67 10 3.49-10 3.51z"/>
        </g>
        <g class="node" transform="translate(4 616)">
            <ellipse cx="1626" cy="-306" fill="none" stroke="#000" rx="79.5" ry="18"/>
            <text x="1626" y="-300.95" font-family="Times,serif" font-size="14" text-anchor="middle">:library:navigation</text>
        </g>
        <g stroke="#000" class="edge">
            <path fill="none" d="M3197.88 95.85C2944.61 98.57 2268.37 109.37 2048 148c-145.65 25.53-305.54 101.96-378.17 139.59"/>
            <path d="m1671.59 290.62-10.48 1.53 7.24-7.73z"/>
        </g>
        <g class="node" transform="translate(4 616)">
            <ellipse cx="4730" cy="-18" fill="none" stroke="#000" rx="78.99" ry="18"/>
            <text x="4730" y="-12.95" font-family="Times,serif" font-size="14" text-anchor="middle">:library:coroutines</text>
        </g>
        <g stroke="#000" class="edge">
            <path fill="none" d="M3392.41 95.26C3851.68 96.68 5803.78 105.2 6412 148c160.16 11.27 717-71.56 717 89v218c0 43.74-5.32 65.17-42 89-48.29 31.38-1837.34 48.6-2262.85 52.26"/>
            <path d="m4824.39 599.76-10.03-3.42 9.97-3.58z"/>
        </g>
        <g class="node" transform="translate(4 616)">
            <ellipse cx="2007" cy="-18" fill="none" stroke="#000" rx="72.85" ry="18"/>
            <text x="2007" y="-12.95" font-family="Times,serif" font-size="14" text-anchor="middle">:library:datetime</text>
        </g>
        <g stroke="#000" class="edge">
            <path fill="none" d="M3197.93 96.31C2997.17 99.75 2542.5 111.42 2392 148c-229.69 55.82-288.11 86.73-486 216-39.77 25.98-58.61 29.09-79 72-20.62 43.38-32.99 69.7-4 108 14.31 18.9 69.05 32.96 115.8 41.83"/>
            <path d="m1939.17 582.34 9.2 5.25-10.46 1.64z"/>
        </g>
        <g class="node" transform="translate(4 616)">
            <ellipse cx="573" cy="-306" fill="none" stroke="#000" rx="89.23" ry="18"/>
            <text x="573" y="-300.95" font-family="Times,serif" font-size="14" text-anchor="middle">:library:shimmer-m3</text>
        </g>
        <g stroke="#000" class="edge">
            <path fill="none" d="M3197.49 95.01C2743.61 95.29 855 99.38 740 148c-66.08 27.94-119.97 96.44-146.03 134.47"/>
            <path d="m596.97 284.27-8.47 6.36 2.66-10.26z"/>
        </g>
        <g class="node" transform="translate(4 616)">
            <ellipse cx="3390" cy="-378" fill="none" stroke="#000" rx="71.31" ry="18"/>
            <text x="3390" y="-372.95" font-family="Times,serif" font-size="14" text-anchor="middle">:app:data:memo</text>
        </g>
        <g stroke="#000" class="edge">
            <path fill="none" d="M3306.94 112.13c17.1 24.52 48.69 69.84 68.75 98.61"/>
            <path d="m3378.3 208.36 2.85 10.21-8.59-6.2z"/>
        </g>
        <g class="node" transform="translate(4 616)">
            <ellipse cx="3371" cy="-306" fill="none" stroke="#000" rx="58.52" ry="18"/>
            <text x="3371" y="-300.95" font-family="Times,serif" font-size="14" text-anchor="middle">:app:data:tag</text>
        </g>
        <g stroke="#000" class="edge">
            <path fill="none" d="M3293.15 112.16c-2.51 30.78-4.15 96.57 20.85 143.84 6.29 11.89 16.43 22.31 26.65 30.7"/>
            <path d="m3342.55 283.74 5.81 8.86-10.07-3.3z"/>
        </g>
        <g class="node" transform="translate(4 616)">
            <ellipse cx="4986" cy="-162" fill="none" stroke="#000" rx="75.92" ry="18"/>
            <text x="4986" y="-156.95" font-family="Times,serif" font-size="14" text-anchor="middle">:app:data:account</text>
        </g>
        <g stroke="#000" class="edge">
            <path fill="none" d="M3392.1 95.97c339.06 3.68 1453.53 18.3 1521.9 52.03 45.88 22.63 73 37.84 73 89v74c0 39.27 1.16 84.63 2.04 113.31"/>
            <path d="m4992.53 423.9-3.18 10.1-3.82-9.88z"/>
        </g>
        <g class="node" transform="translate(4 616)">
            <ellipse cx="5196" cy="-378" fill="none" stroke="#000" rx="83.6" ry="18"/>
            <text x="5196" y="-372.95" font-family="Times,serif" font-size="14" text-anchor="middle">:app:data:credential</text>
        </g>
        <g stroke="#000" class="edge">
            <path fill="none" d="M3392.54 94.91c346.83.11 1508.21 4.15 1667.46 53.09 42.85 13.17 85.35 43.22 112.08 64.76"/>
            <path d="m5174.19 209.97 5.5 9.05-9.95-3.65z"/>
        </g>
        <g class="node" transform="translate(4 616)">
            <ellipse cx="4011" cy="-162" fill="none" stroke="#000" rx="74.89" ry="18"/>
            <text x="4011" y="-156.95" font-family="Times,serif" font-size="14" text-anchor="middle">:app:data:holiday</text>
        </g>
        <g stroke="#000" class="edge">
            <path fill="none" d="M3392.7 94.63c333.68-.79 1410.44.75 1461.3 53.37 41.94 43.39 70.18 89.27-43 180-44.06 35.32-451.49 25.62-507 36-86.54 16.18-183.71 49.35-240.45 70.31"/>
            <path d="m4065.11 437.47-10.6.21 8.15-6.77z"/>
        </g>
        <g class="node" transform="translate(4 616)">
            <ellipse cx="4383" cy="-234" fill="none" stroke="#000" rx="73.87" ry="18"/>
            <text x="4383" y="-228.95" font-family="Times,serif" font-size="14" text-anchor="middle">:app:data:backup</text>
        </g>
        <g stroke="#000" class="edge">
            <path fill="none" d="M3392.71 94.56C3731.05 93.49 4834.94 94.18 4887 148c55.62 57.5 53.5 120.52 0 180-27.26 30.3-280.83 44.6-416.02 50.11"/>
            <path d="m4471.52 381.6-10.14-3.1 9.86-3.9z"/>
        </g>
        <g class="node" transform="translate(4 616)">
            <ellipse cx="3694" cy="-306" fill="none" stroke="#000" rx="65.68" ry="18"/>
            <text x="3694" y="-300.95" font-family="Times,serif" font-size="14" text-anchor="middle">:app:data:fetch</text>
        </g>
        <g stroke="#000" class="edge">
            <path fill="none" d="M3387.34 100.03c51.27 6.12 114.61 19.4 164.66 47.97 58.26 33.26 106.01 97.97 129.76 134.41"/>
            <path d="m3684.56 280.3 2.43 10.31-8.33-6.54z"/>
        </g>
        <g class="node" transform="translate(4 616)">
            <ellipse cx="5427" cy="-234" fill="none" stroke="#000" rx="62.1" ry="18"/>
            <text x="5427" y="-228.95" font-family="Times,serif" font-size="14" text-anchor="middle">:app:data:fcm</text>
        </g>
        <g stroke="#000" class="edge">
            <path fill="none" d="M3392.45 95.78C3800.79 99.27 5354.85 114.73 5393 148c58.64 51.14 51.21 154.57 43.45 204.61"/>
            <path d="m5439.92 353.07-5.11 9.28-1.79-10.45z"/>
        </g>
        <g class="node" transform="translate(4 616)">
            <ellipse cx="4763" cy="-450" fill="none" stroke="#000" rx="78.48" ry="18"/>
            <text x="4763" y="-444.95" font-family="Times,serif" font-size="14" text-anchor="middle">:app:data:calendar</text>
        </g>
        <g stroke="red" stroke-width="2" class="edge">
            <path fill="none" d="M3391.31 96.89C3661.94 102.48 4425.68 120.32 4675 148c7.79.86 15.91 2.01 23.97 3.29"/>
            <path fill="red" d="m4697.99 147.58 9.29 5.11-10.45 1.79z"/>
        </g>
        <g class="node" transform="translate(4 616)">
            <ellipse cx="5081" cy="-234" fill="none" stroke="#000" rx="70.29" ry="18"/>
            <text x="5081" y="-228.95" font-family="Times,serif" font-size="14" text-anchor="middle">:app:data:buddy</text>
        </g>
        <g stroke="#000" class="edge">
            <path fill="none" d="M3392.59 95.02c352.57.47 1543.08 5.56 1608.41 52.98 66.22 48.07 80.41 153.44 83.33 204.34"/>
            <path d="m5087.82 352.1-3.05 10.15-3.94-9.83z"/>
        </g>
        <g class="node" transform="translate(4 616)">
            <ellipse cx="2730" cy="-306" fill="none" stroke="#000" rx="84.11" ry="18"/>
            <text x="2730" y="-300.95" font-family="Times,serif" font-size="14" text-anchor="middle">:app:domain:memo</text>
        </g>
        <g stroke="#000" class="edge">
            <path fill="none" d="M3251.47 110.52c-29.08 10.44-68.14 24.59-102.47 37.48-132.67 49.81-288.21 110.87-365.78 141.51"/>
            <path d="m2784.79 292.65-10.58.42 8.01-6.93z"/>
        </g>
        <g class="node" transform="translate(4 616)">
            <ellipse cx="2443" cy="-234" fill="none" stroke="#000" rx="71.31" ry="18"/>
            <text x="2443" y="-228.95" font-family="Times,serif" font-size="14" text-anchor="middle">:app:domain:tag</text>
        </g>
        <g stroke="#000" class="edge">
            <path fill="none" d="M3198.47 96.89c-185.29 4.38-577.11 17.53-628.47 51.11-73.02 47.74-105.5 153.66-117.33 204.58"/>
            <path d="m2456.12 353.22-5.58 9.01-1.26-10.52z"/>
        </g>
        <g class="node" transform="translate(4 616)">
            <ellipse cx="2983" cy="-90" fill="none" stroke="#000" rx="88.71" ry="18"/>
            <text x="2983" y="-84.95" font-family="Times,serif" font-size="14" text-anchor="middle">:app:domain:account</text>
        </g>
        <g stroke="#000" class="edge">
            <path fill="none" d="M3288.29 112.09c-12.13 30.13-39.36 94.19-70.29 143.91-64.52 103.74-85.74 127.54-170 216-9.58 10.06-20.87 20.26-31.12 29"/>
            <path d="m3019.29 503.54-9.92 3.74 5.42-9.1z"/>
        </g>
        <g class="node" transform="translate(4 616)">
            <ellipse cx="2966" cy="-306" fill="none" stroke="#000" rx="96.39" ry="18"/>
            <text x="2966" y="-300.95" font-family="Times,serif" font-size="14" text-anchor="middle">:app:domain:credential</text>
        </g>
        <g stroke="#000" class="edge">
            <path fill="none" d="M3271.62 111.8c-11.93 9.53-25.93 22.31-35.62 36.2-29.55 42.38-3.91 74.22-43 108-20.52 17.73-82.41 31.61-135.79 40.7"/>
            <path d="m3057.89 300.14-10.44-1.82 9.29-5.09z"/>
        </g>
        <g class="node" transform="translate(4 616)">
            <ellipse cx="2370" cy="-90" fill="none" stroke="#000" rx="87.69" ry="18"/>
            <text x="2370" y="-84.95" font-family="Times,serif" font-size="14" text-anchor="middle">:app:domain:holiday</text>
        </g>
        <g stroke="#000" class="edge">
            <path fill="none" d="M3199.36 97.89c-203.9 6.63-668.26 24.35-735.36 50.11-79.94 30.69-107.87 60.77-128 144-17.69 73.11 9.52 161.14 26.33 205.13"/>
            <path d="m2365.49 495.58.41 10.59-6.93-8.02z"/>
        </g>
        <g class="node" transform="translate(4 616)">
            <ellipse cx="2909" cy="-162" fill="none" stroke="#000" rx="86.67" ry="18"/>
            <text x="2909" y="-156.95" font-family="Times,serif" font-size="14" text-anchor="middle">:app:domain:backup</text>
        </g>
        <g stroke="#000" class="edge">
            <path fill="none" d="M3197.26 94.41C3002.37 95.87 2584 113.41 2584 237v74c0 56.03 162.87 103.51 259.42 126.74"/>
            <path d="m2844.17 434.32 8.92 5.71-10.54 1.1z"/>
        </g>
        <g class="node" transform="translate(4 616)">
            <ellipse cx="3314" cy="-234" fill="none" stroke="#000" rx="78.48" ry="18"/>
            <text x="3314" y="-228.95" font-family="Times,serif" font-size="14" text-anchor="middle">:app:domain:fetch</text>
        </g>
        <g stroke="#000" class="edge">
            <path fill="none" d="M3337 110.64c43.28 18.66 108.35 54.41 137 109.36 23.09 44.28 4.41 72.79-31 108-16.8 16.71-39.68 28.47-61.27 36.59"/>
            <path d="m3382.95 367.87-10.59.02 8.26-6.63z"/>
        </g>
        <g class="node" transform="translate(4 616)">
            <ellipse cx="3393" cy="-162" fill="none" stroke="#000" rx="74.89" ry="18"/>
            <text x="3393" y="-156.95" font-family="Times,serif" font-size="14" text-anchor="middle">:app:domain:fcm</text>
        </g>
        <g stroke="#000" class="edge">
            <path fill="none" d="M3368.24 106.14C3439.79 121.67 3538 157.48 3538 237v74c0 56.17-56.23 98.03-97.68 121.25"/>
            <path d="m3442.21 435.21-10.46 1.68 7.13-7.84z"/>
        </g>
        <g class="node" transform="translate(4 616)">
            <ellipse cx="3089" cy="-378" fill="none" stroke="#000" rx="91.27" ry="18"/>
            <text x="3089" y="-372.95" font-family="Times,serif" font-size="14" text-anchor="middle">:app:domain:calendar</text>
        </g>
        <g stroke="#000" class="edge">
            <path fill="none" d="M3261.24 111.3c-19.12 9.76-43.15 22.91-63.24 36.7-28.62 19.64-58.56 45.65-79.12 64.47"/>
            <path d="m3121.51 214.81-9.72 4.22 4.97-9.36z"/>
        </g>
        <g class="node" transform="translate(4 616)">
            <ellipse cx="2607" cy="-162" fill="none" stroke="#000" rx="83.08" ry="18"/>
            <text x="2607" y="-156.95" font-family="Times,serif" font-size="14" text-anchor="middle">:app:domain:buddy</text>
        </g>
        <g stroke="#000" class="edge">
            <path fill="none" d="M3198.55 97.19c-192.97 5.02-613.07 19.44-670.55 50.81-116.66 63.68-244.41 148.53-161 252 19.59 24.31 94.38 38.04 156.05 45.4"/>
            <path d="m2523.36 441.91 9.53 4.62-10.33 2.34z"/>
        </g>
        <g class="node" transform="translate(4 616)">
            <ellipse cx="7239" cy="-450" fill="none" stroke="#000" rx="86.15" ry="18"/>
            <text x="7239" y="-444.95" font-family="Times,serif" font-size="14" text-anchor="middle">:app:core:coroutines</text>
        </g>
        <g stroke="#000" class="edge">
            <path fill="none" d="M3392.34 95.44C3953.13 98.09 6760.01 113.02 7143 148c8.91.81 18.23 1.98 27.44 3.31"/>
            <path d="m7170.73 147.82 9.36 4.97-10.42 1.95z"/>
        </g>
        <g class="node" transform="translate(4 616)">
            <ellipse cx="6617" cy="-234" fill="none" stroke="#000" rx="123.52" ry="18"/>
            <text x="6617" y="-228.95" font-family="Times,serif" font-size="14" text-anchor="middle">:app:core:filter-database-room</text>
        </g>
        <g stroke="#000" class="edge">
            <path fill="none" d="M3392.23 95.6c431.5 2.88 2162.52 16.56 2402.77 52.4 299.22 44.63 643.4 165.04 773 212.94"/>
            <path d="m6568.83 357.52 8.16 6.76-10.59-.2z"/>
        </g>
        <g class="node" transform="translate(4 616)">
            <ellipse cx="6343" cy="-234" fill="none" stroke="#000" rx="132.22" ry="18"/>
            <text x="6343" y="-228.95" font-family="Times,serif" font-size="14" text-anchor="middle">:app:core:backup-database-room</text>
        </g>
        <g stroke="#000" class="edge">
            <path fill="none" d="M3392.56 95.25C3815.68 96.59 5480.97 104.58 5711 148c231.86 43.76 490.97 162.06 592.18 211.17"/>
            <path d="m6304.51 355.92 7.45 7.53-10.52-1.23z"/>
        </g>
        <g class="node" transform="translate(4 616)">
            <ellipse cx="5857" cy="-162" fill="none" stroke="#000" rx="158.32" ry="18"/>
            <text x="5857" y="-156.95" font-family="Times,serif" font-size="14" text-anchor="middle">:app:core:account-preferences-datastore</text>
        </g>
        <g stroke="#000" class="edge">
            <path fill="none" d="M3392.35 95.77C3802.51 99.22 5373.29 114.58 5473 148c64.32 21.56 124 21.16 124 89v74c0 73.51 80.37 109.13 152.42 126.29"/>
            <path d="m5749.99 433.83 8.97 5.63-10.52 1.2z"/>
        </g>
        <g class="node" transform="translate(4 616)">
            <ellipse cx="5784" cy="-234" fill="none" stroke="#000" rx="124.54" ry="18"/>
            <text x="5784" y="-228.95" font-family="Times,serif" font-size="14" text-anchor="middle">:app:core:diary-database-room</text>
        </g>
        <g stroke="#000" class="edge">
            <path fill="none" d="M3392.67 94.88C3820.31 94.63 5510.92 96.91 5611 148c87.04 44.44 143.22 153.67 165.77 205.22"/>
            <path d="m5779.89 351.62.7 10.57-7.14-7.82z"/>
        </g>
        <g class="node" transform="translate(4 616)">
            <ellipse cx="5214" cy="-162" fill="none" stroke="#000" rx="95.88" ry="18"/>
            <text x="5214" y="-156.95" font-family="Times,serif" font-size="14" text-anchor="middle">:app:core:diary-service</text>
        </g>
        <g stroke="#000" class="edge">
            <path fill="none" d="M3392.28 95.88C3744.56 99.34 4941.74 113.54 5110 148c85.62 17.54 133.8-.24 183 72 45.12 66.23-16.94 161.33-52.75 206.82"/>
            <path d="m5243.01 428.97-9.01 5.59 3.56-9.98z"/>
        </g>
        <g class="node" transform="translate(4 616)">
            <ellipse cx="3841" cy="-90" fill="none" stroke="#000" rx="104.58" ry="18"/>
            <text x="3841" y="-84.95" font-family="Times,serif" font-size="14" text-anchor="middle">:app:core:holiday-service</text>
        </g>
        <g stroke="#000" class="edge">
            <path fill="none" d="M3387.47 100.03c59.92 6.02 138.45 19.18 202.53 47.97 158.67 71.28 220.48 119.85 265 288 5.26 19.88 2.42 42.97-1.56 60.65"/>
            <path d="m3856.87 497.35-5.84 8.84-.94-10.55z"/>
        </g>
        <g class="node" transform="translate(4 616)">
            <ellipse cx="5523" cy="-162" fill="none" stroke="#000" rx="157.3" ry="18"/>
            <text x="5523" y="-156.95" font-family="Times,serif" font-size="14" text-anchor="middle">:app:core:holiday-preferences-datastore</text>
        </g>
        <g stroke="#000" class="edge">
            <path fill="none" d="M3392.5 95.56C3796.91 98.15 5325.7 110.37 5421 148c55.34 21.85 100 29.5 100 89v74c0 39.29 2.32 84.65 4.08 113.32"/>
            <path d="m5528.55 423.81-2.86 10.2-4.12-9.76z"/>
        </g>
        <g class="node" transform="translate(4 616)">
            <ellipse cx="6060" cy="-234" fill="none" stroke="#000" rx="133.24" ry="18"/>
            <text x="6060" y="-228.95" font-family="Times,serif" font-size="14" text-anchor="middle">:app:core:holiday-database-room</text>
        </g>
        <g stroke="#000" class="edge">
            <path fill="none" d="M3392.09 95.87C3822.22 99.88 5539.66 117.75 5650 148c157.31 43.12 318.65 158.68 383.91 209.02"/>
            <path d="m6035.88 354.12 5.75 8.9-10.04-3.37z"/>
        </g>
        <g class="node" transform="translate(4 616)">
            <ellipse cx="1404" cy="-378" fill="none" stroke="#000" rx="81.55" ry="18"/>
            <text x="1404" y="-372.95" font-family="Times,serif" font-size="14" text-anchor="middle">:app:feature:memo</text>
        </g>
        <g stroke="#000" class="edge">
            <path fill="none" d="M3197.95 96.38C2868.79 101.29 1806.93 119.22 1656 148c-73.94 14.1-155.29 46.85-203.98 68.44"/>
            <path d="m1453.49 219.62-10.56.9 7.7-7.29z"/>
        </g>
        <g class="node" transform="translate(4 616)">
            <ellipse cx="931" cy="-378" fill="none" stroke="#000" rx="68.75" ry="18"/>
            <text x="931" y="-372.95" font-family="Times,serif" font-size="14" text-anchor="middle">:app:feature:tag</text>
        </g>
        <g stroke="#000" class="edge">
            <path fill="none" d="M3197.33 95.16c-422.82.98-2078.68 7.68-2179.33 52.84-28.79 12.92-52.24 41.05-66.78 62.26"/>
            <path d="m954.25 212.02-8.42 6.43 2.57-10.27z"/>
        </g>
        <g class="node" transform="translate(4 616)">
            <ellipse cx="834" cy="-450" fill="none" stroke="#000" rx="88.71" ry="18"/>
            <text x="834" y="-444.95" font-family="Times,serif" font-size="14" text-anchor="middle">:app:feature:calendar</text>
        </g>
        <g stroke="#000" class="edge">
            <path fill="none" d="M3197.52 95.72C2813.7 98.8 1406.05 112.31 961 148c-14.21 1.14-29.29 2.83-43.84 4.7"/>
            <path d="m918.04 156.11-10.38-2.15 9.45-4.79z"/>
        </g>
        <g class="node" transform="translate(4 616)">
            <ellipse cx="1905" cy="-378" fill="none" stroke="#000" rx="80.52" ry="18"/>
            <text x="1905" y="-372.95" font-family="Times,serif" font-size="14" text-anchor="middle">:app:feature:buddy</text>
        </g>
        <g stroke="#000" class="edge">
            <path fill="none" d="M3198.02 96.26C2964.1 99.84 2373.92 112.23 2180 148c-80.87 14.92-170.85 47.93-224.1 69.29"/>
            <path d="m1957.42 220.45-10.58.51 7.95-7z"/>
        </g>
        <g class="node" transform="translate(4 616)">
            <ellipse cx="1580" cy="-378" fill="none" stroke="#000" rx="76.94" ry="18"/>
            <text x="1580" y="-372.95" font-family="Times,serif" font-size="14" text-anchor="middle">:app:feature:more</text>
        </g>
        <g stroke="#000" class="edge">
            <path fill="none" d="M3197.48 95.61c-318.85 2.35-1318 12.85-1457.48 52.39-47.37 13.43-95.66 44.16-125.71 65.73"/>
            <path d="m1616.56 216.41-10.14 3.07 6.01-8.72z"/>
        </g>
        <g class="node" transform="translate(4 616)">
            <ellipse cx="1218" cy="-378" fill="none" stroke="#000" rx="86.15" ry="18"/>
            <text x="1218" y="-372.95" font-family="Times,serif" font-size="14" text-anchor="middle">:app:feature:account</text>
        </g>
        <g stroke="#000" class="edge">
            <path fill="none" d="M3197.29 94.76C2876.61 94.47 1858.35 97.66 1534 148c-93.99 14.59-199.73 48.65-260.83 70.16"/>
            <path d="m1274.68 221.33-10.6.05 8.26-6.64z"/>
        </g>
        <g class="node" transform="translate(4 616)">
            <ellipse cx="6947" cy="-162" fill="none" stroke="#000" rx="112.26" ry="18"/>
            <text x="6947" y="-156.95" font-family="Times,serif" font-size="14" text-anchor="middle">:library:firebase-messaging</text>
        </g>
        <g stroke="#000" class="edge">
            <path fill="none" d="M3392.63 94.64c343.66-.76 1529.38.85 2506.37 53.36 227.2 12.21 1020-138.53 1020 89v74c0 40.42 12.49 85.77 21.87 114.11"/>
            <path d="m6944.11 423.77-.08 10.59-6.54-8.33z"/>
        </g>
        <g stroke="#000" class="edge">
            <path fill="none" d="M911.45 328.4c-4.92 18.2-10.37 47.41-3.45 71.6 2.67 9.34 7.51 18.63 12.68 26.76"/>
            <path d="m923.41 424.56 2.75 10.23-8.53-6.28z"/>
        </g>
        <g stroke="#000" class="edge">
            <path fill="none" d="M902.17 328.15c-32.48 37.58-110.08 127.34-148.23 171.48"/>
            <path d="m756.82 501.64-9.19 5.28 3.89-9.85z"/>
        </g>
        <g stroke="#000" class="edge">
            <path fill="none" d="M975.24 322.8c9.27 1.8 18.77 3.59 27.76 5.2 49.63 8.89 186.25 2.59 224 36 62.36 55.19-12.7 127.58 52 180 24.89 20.17 462.65 41.37 649.05 49.52"/>
            <path d="m1928.08 590.02 9.83 3.93-10.14 3.06z"/>
        </g>
        <g class="node" transform="translate(4 616)">
            <ellipse cx="1099" cy="-234" fill="none" stroke="#000" rx="115.33" ry="18"/>
            <text x="1099" y="-228.95" font-family="Times,serif" font-size="14" text-anchor="middle">:app:core:calendar-compose</text>
        </g>
        <g stroke="#000" class="edge">
            <path fill="none" d="M956.9 326.02c27.1 10.19 63.23 23.79 92.79 34.92"/>
            <path d="m1050.71 357.58 8.12 6.8-10.59-.25z"/>
        </g>
        <g class="node" transform="translate(4 616)">
            <ellipse cx="3537" cy="-18" fill="none" stroke="#000" rx="71.31" ry="18"/>
            <text x="3537" y="-12.95" font-family="Times,serif" font-size="14" text-anchor="middle">:app:core:model</text>
        </g>
        <g stroke="#000" class="edge">
            <path fill="none" d="M974.72 323.01c9.43 1.79 19.11 3.52 28.28 4.99 324.54 51.9 1142.13 137.2 1468 180 114.36 15.02 142.26 24.24 257 36 267.24 27.39 585.44 43.31 731.89 49.7"/>
            <path d="m3459.63 590.19 9.84 3.93-10.14 3.06z"/>
        </g>
        <g stroke="#000" class="edge">
            <path fill="none" d="M894.88 470.45c-33.52 11.22-78.84 26.4-113.16 37.9"/>
            <path d="m783.02 511.6-10.59-.14 8.37-6.49z"/>
        </g>
        <g stroke="#000" class="edge">
            <path fill="none" d="M976.98 471.19c48.27 20.9 137.19 56.5 217.02 72.81 138.4 28.27 554.39 44.59 733.49 50.48"/>
            <path d="m1927.55 590.98 9.88 3.82-10.11 3.17z"/>
        </g>
        <g stroke="#000" class="edge">
            <path fill="none" d="M1196.3 324.26c22.65 8.03 47.34 20.55 63.7 39.74 53.73 62.99-15.71 127.12 48 180 23.56 19.55 439.73 40.92 620.41 49.32"/>
            <path d="m1928.36 589.81 9.83 3.96-10.15 3.03z"/>
        </g>
        <g stroke="#000" class="edge">
            <path fill="none" d="M1609.23 327.73c-11.31 9.79-25.03 22.84-35.23 36.27-21.88 28.82-29.3 36.88-38 72-11.82 47.73-14.14 76.97 24 108 54.52 44.36 251.9 52.64 366.67 53.58"/>
            <path d="m1926.36 594.07 9.98 3.57-10.02 3.43z"/>
        </g>
        <g stroke="#000" class="edge">
            <path fill="none" d="M580.18 328.43c6.55 31.8 24.24 99.95 61.82 143.57 12.14 14.09 28.99 25.39 44.83 33.88"/>
            <path d="m688.35 502.73 7.34 7.64-10.5-1.4z"/>
        </g>
        <g stroke="#000" class="edge">
            <path fill="none" d="M3465.17 239.99C3739.39 244.05 4715.1 260.64 4773 292c34.48 18.68 31.61 37.92 51 72 25.97 45.66 6.46 75.86 48 108 80.37 62.18 283.34-4.97 217 72-33.49 38.86-170.72 49.66-264.42 52.41"/>
            <path d="m4824.7 599.91-10.09-3.23 9.9-3.77z"/>
        </g>
        <g stroke="#000" class="edge">
            <path fill="none" d="M3327.48 244.95c-39.14 3.42-89.6 7.69-134.48 11.05-245.17 18.36-307.45 10.7-552 36-56.6 5.86-452.55 55.5-507 72-35.38 10.72-41.07 21.31-75 36-40.68 17.6-67.69-.39-93 36-27.41 39.41-17.79 63.03-1 108 3.88 10.39 10.82 20.1 18.15 28.29"/>
            <path d="m1985.65 569.84 4.44 9.62-9.47-4.76z"/>
        </g>
        <g stroke="#000" class="edge">
            <path fill="none" d="M3327.16 244.65C3199.68 255.52 2926.1 279.42 2832 292c-8 1.07-16.35 2.32-24.65 3.64"/>
            <path d="m2808.03 299.07-10.44-1.84 9.31-5.06z"/>
        </g>
        <g class="node" transform="translate(4 616)">
            <ellipse cx="3740" cy="-162" fill="none" stroke="#000" rx="101.51" ry="18"/>
            <text x="3740" y="-156.95" font-family="Times,serif" font-size="14" text-anchor="middle">:app:core:diary-database</text>
        </g>
        <g stroke="#000" class="edge">
            <path fill="none" d="M3437.32 252.72c56.11 19.11 155.29 57.55 227.68 111.28 23.7 17.59 45.55 43.27 60.24 62.52"/>
            <path d="m3727.97 424.34 3.17 10.11-8.78-5.93z"/>
        </g>
        <g stroke="#000" class="edge">
            <path fill="none" d="M3431.11 315.33c50.25 3.76 125.95 9.14 191.89 12.67 51.91 2.78 898.96-1.46 935 36 33.28 34.59 15.58 62.6 0 108-6.58 19.17-21.42 16.83-28 36-5.19 15.13-9.79 23.34 0 36 15.58 20.15 74.55 34.06 125.11 42.55"/>
            <path d="m4655.61 583.09 9.31 5.06-10.44 1.85z"/>
        </g>
        <g stroke="#000" class="edge">
            <path fill="none" d="M3320.02 316.66C3118.9 337.49 2429.87 410.05 2334 436c-112.68 30.5-232.43 101.88-289.28 138.49"/>
            <path d="m2046.74 577.35-10.29 2.51 6.48-8.38z"/>
        </g>
        <g stroke="#000" class="edge">
            <path fill="none" d="M3318.69 315.25c-158.58 11.96-609.3 45.96-792.65 59.79"/>
            <path d="m2526.36 378.52-10.24-2.73 9.71-4.25z"/>
        </g>
        <g stroke="#000" class="edge">
            <path fill="none" d="M3420.12 321.74c9.21 2.13 18.85 4.31 27.88 6.26 79.74 17.25 105.7 2.29 180 36 2.43 1.1 51.74 39.17 85.28 65.16"/>
            <path d="m3715.31 426.31 5.76 8.89-10.05-3.36z"/>
        </g>
        <g stroke="#000" class="edge">
            <path fill="none" d="M5047.92 465.99c58.23 11.64 140.72 29.96 150.08 42.01 9.82 12.63 10.65 24.06 0 36-24.51 27.47-247.84 42.64-375.51 49.14"/>
            <path d="m4822.88 596.62-10.17-2.99 9.82-4z"/>
        </g>
        <g stroke="#000" class="edge">
            <path fill="none" d="M4927.05 464.44c-129.3 18.95-434.33 61.34-692.05 79.56-216.04 15.27-1760.83 44.47-2140.08 51.47"/>
            <path d="m2095.08 598.96-10.06-3.31 9.93-3.69z"/>
        </g>
        <g stroke="#000" class="edge">
            <path fill="none" d="M4915.14 457.62c-308.54 10.78-1481.61 51.78-1830.01 63.95"/>
            <path d="m3085.46 525.06-10.12-3.15 9.87-3.84z"/>
        </g>
        <g class="node" transform="translate(4 616)">
            <ellipse cx="5570" cy="-90" fill="none" stroke="#000" rx="121.98" ry="18"/>
            <text x="5570" y="-84.95" font-family="Times,serif" font-size="14" text-anchor="middle">:app:core:account-preferences</text>
        </g>
        <g stroke="#000" class="edge">
            <path fill="none" d="M5053.79 464.17c19.04 2.64 39.96 5.45 59.21 7.83 146.42 18.1 183.5 18.51 330 36 10.12 1.21 20.67 2.51 31.2 3.83"/>
            <path d="m5474.61 508.36 9.48 4.73-10.36 2.21z"/>
        </g>
        <g stroke="#000" class="edge">
            <path fill="none" d="M5283.81 239.27C5592.55 241.11 6653.73 255.34 6754 364c10.85 11.76 4.1 20.53 0 36-29.25 110.46-101.31 119.86-213 144-168.2 36.36-1374.49 49.32-1716.71 52.29"/>
            <path d="m4824.51 599.79-10.03-3.42 9.97-3.58z"/>
        </g>
        <g stroke="#000" class="edge">
            <path fill="none" d="M5116.35 239.21c-404.8 1.25-2145.37 9.16-2251.35 52.79-21.51 8.86-17.12 25.75-38 36-93.27 45.8-132.3 3.54-231 36-32.86 10.81-35.97 25.74-69 36-126.14 39.18-168.69-2.63-295 36-67.29 20.58-85.21 29.12-141 72-23.53 18.09-45.71 43.71-60.72 62.82"/>
            <path d="m2033.1 572.88-8.87 5.8 3.32-10.07z"/>
        </g>
        <g stroke="#000" class="edge">
            <path fill="none" d="M5116.94 240.66C4852.55 246.09 4006.75 264.56 3307 292c-78.71 3.09-167.72 7.62-234.48 11.23"/>
            <path d="m3072.84 306.72-10.17-2.95 9.79-4.04z"/>
        </g>
        <g stroke="#000" class="edge">
            <path fill="none" d="M5201.44 256.15c3.09 36.71 10.36 123.19 14.16 168.32"/>
            <path d="m5219.07 424-2.65 10.26-4.32-9.67z"/>
        </g>
        <g stroke="#000" class="edge">
            <path fill="none" d="M5209.81 256.37C5237.79 305.32 5318.64 442.71 5361 472c20.51 14.18 75.7 27.71 124.76 37.55"/>
            <path d="m5486.15 506.06 9.14 5.37-10.49 1.5z"/>
        </g>
        <g stroke="#000" class="edge">
            <path fill="none" d="M4003.89 472.09c-11.38 19.87-25.04 52.41-6.89 71.91 43.18 46.39 458.85 52.74 646.21 53.23"/>
            <path d="m4643.17 593.73 9.99 3.52-10.01 3.48z"/>
        </g>
        <g stroke="#000" class="edge">
            <path fill="none" d="M3959.58 466.34c-11.09 2.06-22.69 4.06-33.58 5.66-306.8 45.13-384.73 49.27-694 72-426.88 31.38-939.18 46.22-1137.2 51.1"/>
            <path d="m2094.94 598.59-10.09-3.25 9.91-3.75z"/>
        </g>
        <g stroke="#000" class="edge">
            <path fill="none" d="M3949.31 463.03c-28.88 3.26-63.24 6.77-94.31 8.97-68.94 4.89-1065.67 38.91-1384.02 49.72"/>
            <path d="m2471.57 525.2-10.11-3.16 9.87-3.84z"/>
        </g>
        <g stroke="#000" class="edge">
            <path fill="none" d="M3978.53 470.02c-24.55 10.1-57.21 23.56-84.09 34.62"/>
            <path d="m3896.05 507.76-10.58.58 7.92-7.05z"/>
        </g>
        <g class="node" transform="translate(4 616)">
            <ellipse cx="4955" cy="-90" fill="none" stroke="#000" rx="120.96" ry="18"/>
            <text x="4955" y="-84.95" font-family="Times,serif" font-size="14" text-anchor="middle">:app:core:holiday-preferences</text>
        </g>
        <g stroke="#000" class="edge">
            <path fill="none" d="M4085.57 460.23c161.03 11.94 556.96 41.3 755.67 56.04"/>
            <path d="m4841.36 512.77 9.72 4.23-10.24 2.75z"/>
        </g>
        <g class="node" transform="translate(4 616)">
            <ellipse cx="4112" cy="-90" fill="none" stroke="#000" rx="110.21" ry="18"/>
            <text x="4112" y="-84.95" font-family="Times,serif" font-size="14" text-anchor="middle">:app:core:holiday-database</text>
        </g>
        <g stroke="#000" class="edge">
            <path fill="none" d="M4038.68 471.41c13.11 9.08 29.6 20.52 43.99 30.49"/>
            <path d="m4084.3 498.77 6.22 8.57-10.21-2.82z"/>
        </g>
        <g stroke="#000" class="edge">
            <path fill="none" d="M4337.96 395.8c-34.63 10.15-76.63 25.09-86.96 40.2-9.03 13.21-9.04 22.8 0 36 25.05 36.56 52.47 18.07 93 36 32.72 14.47 37.98 24.94 72 36 76.82 24.98 168.1 38.64 233.12 45.8"/>
            <path d="m4649.46 586.32 9.57 4.54-10.31 2.42z"/>
        </g>
        <g stroke="#000" class="edge">
            <path fill="none" d="M4313.13 384.03C3971.16 388.91 2556.9 410.6 2519 436c-43.63 29.24-5.67 76.9-48 108-57.92 42.55-259.32 51.52-375.53 53.06"/>
            <path d="m2095.71 600.55-10.04-3.38 9.96-3.62z"/>
        </g>
        <g stroke="#000" class="edge">
            <path fill="none" d="M4314.63 385.9c-184.95 7.48-689.99 28.39-1110.63 50.1-66.1 3.41-140.61 7.77-197.68 11.23"/>
            <path d="m3006.85 450.7-10.2-2.89 9.77-4.1z"/>
        </g>
        <g stroke="#000" class="edge">
            <path fill="none" d="M4457.9 387.49c124.86 8.12 392.06 26.47 617.1 48.51 17.43 1.71 36.03 3.75 53.86 5.82"/>
            <path d="m5129.11 438.33 9.52 4.64-10.34 2.31z"/>
        </g>
        <g stroke="#000" class="edge">
            <path fill="none" d="M4320.56 390.16C4226.49 400.3 4049.1 419.47 3898 436c-18.89 2.07-39.08 4.29-58.41 6.42"/>
            <path d="m3840.15 445.88-10.33-2.38 9.56-4.58z"/>
        </g>
        <g class="node" transform="translate(4 616)">
            <ellipse cx="4365" cy="-162" fill="none" stroke="#000" rx="109.19" ry="18"/>
            <text x="4365" y="-156.95" font-family="Times,serif" font-size="14" text-anchor="middle">:app:core:backup-database</text>
        </g>
        <g stroke="#000" class="edge">
            <path fill="none" d="M4382.55 400.3c-1.9 7.38-4.16 16.18-6.29 24.45"/>
            <path d="m4379.66 425.62-5.88 8.81-.9-10.56z"/>
        </g>
        <g stroke="#000" class="edge">
            <path fill="none" d="M3763.96 310.61c282.75-1.32 1393.61-2.75 1738.04 53.39 54.54 8.89 64.73 25.61 119 36 46.44 8.89 392.01 1.18 424 36 35.66 38.81-37.07 101.36-49 108-51.06 28.4-892.14 46.25-1172.14 51.43"/>
            <path d="m4824.12 598.93-10.06-3.32 9.94-3.68z"/>
        </g>
        <g stroke="#000" class="edge">
            <path fill="none" d="M3636.63 316.65C3375.5 340.73 2369.73 433.56 2362 436c-30.75 9.72-33.66 22.62-63 36-44.13 20.11-59.41 14.74-103 36-26.59 12.97-29.76 22.32-56 36-24.95 13.01-53.83 25.13-77.93 34.48"/>
            <path d="m2063.37 581.73-10.59.31 8.09-6.84z"/>
        </g>
        <g stroke="#000" class="edge">
            <path fill="none" d="M3644.76 320.81c-66.83 12.31-181.7 33.47-255.9 47.14"/>
            <path d="m3389.72 371.35-10.47-1.63 9.2-5.26z"/>
        </g>
        <g stroke="#000" class="edge">
            <path fill="none" d="M3763.6 311.64c276.99 2.94 1339.31 16.5 1400.4 52.36 22.62 13.28 36.95 40.1 45.12 60.85"/>
            <path d="m5212.39 423.61.13 10.59-6.71-8.2z"/>
        </g>
        <g stroke="#000" class="edge">
            <path fill="none" d="M3703.64 328.41c7.8 24.09 21.97 67.84 31.28 96.56"/>
            <path d="m3738.24 423.86-.25 10.59-6.41-8.44z"/>
        </g>
        <g stroke="#000" class="edge">
            <path fill="none" d="M5483.96 391.73c19.19 2.94 41.05 6.04 61.04 8.27 53.48 5.97 446.39-3.44 483 36 10.89 11.73 6.17 21.24 0 36-17.58 42.04-31.22 53.8-73 72-102.6 44.71-865.46 51.72-1130.55 52.81"/>
            <path d="m4824.49 600.31-10.01-3.46 9.98-3.54z"/>
        </g>
        <g stroke="#000" class="edge">
            <path fill="none" d="M5371.38 387.38c-54.09 3.84-136.04 9.31-207.38 12.62-136.91 6.36-1099.73 3.98-1233 36-36.34 8.73-39.79 26.75-76 36-134.36 34.32-495.71-19.03-623 36-21.35 9.23-16.59 26.91-38 36-100.23 42.56-844.84 50.98-1098.59 52.61"/>
            <path d="m2095.6 600.11-10.02-3.44 9.97-3.56z"/>
        </g>
        <g stroke="#000" class="edge">
            <path fill="none" d="M5371.39 387.48c-54.09 3.9-136.04 9.41-207.39 12.52-679.99 29.63-851.14 3.54-1531 36-51.54 2.46-109.32 6.6-154.8 10.18"/>
            <path d="m3478.66 449.65-10.24-2.7 9.69-4.28z"/>
        </g>
        <g stroke="#000" class="edge">
            <path fill="none" d="M5390.94 396.17c-32.8 10.77-79.59 26.15-116.23 38.19"/>
            <path d="m5276.21 437.55-10.59-.2 8.4-6.45z"/>
        </g>
        <g stroke="#000" class="edge">
            <path fill="none" d="M5489.65 388.13c44.94 3.77 108.52 8.76 164.35 11.87 454.69 25.31 569.15 13.85 1024 36 52.69 2.57 111.07 6.11 160.27 9.29"/>
            <path d="m6838.33 441.79 9.75 4.14-10.21 2.84z"/>
        </g>
        <g stroke="#000" class="edge">
            <path fill="none" d="M4845.25 168.26C5219.75 174.82 6811 208.57 6811 309v146c0 93.65-99.86 67.46-191 89-175.42 41.46-1443.52 50.81-1795.57 52.61"/>
            <path d="m4824.58 600.11-10.02-3.45 9.98-3.55z"/>
        </g>
        <g stroke="#000" class="edge">
            <path fill="none" d="M4688.66 167.35C4440.17 168.88 3647.51 177.04 2993 220c-316.05 20.74-403.89-13.03-709 72-36 10.03-40.3 24.95-76 36-97.16 30.07-129.73 3.17-226 36-15.81 5.39-122.88 58-132 72-26.24 40.28-34.39 69.2-6 108 19.68 26.9 53.12 40.48 84.92 47.22"/>
            <path d="m1929.41 587.75 9.18 5.29-10.48 1.59z"/>
        </g>
        <g stroke="red" stroke-width="2" class="edge">
            <path fill="none" d="M4688.98 168.74C4471.3 173.83 3838.83 190.25 3314 220c-41.79 2.37-87.96 5.79-127.25 8.95"/>
            <path fill="red" d="m3188.6 232.31-10.25-2.68 9.68-4.3z"/>
        </g>
        <g class="node" transform="translate(4 616)">
            <ellipse cx="6247" cy="-162" fill="none" stroke="#000" rx="100.48" ry="18"/>
            <text x="6247" y="-156.95" font-family="Times,serif" font-size="14" text-anchor="middle">:app:core:filter-database</text>
        </g>
        <g stroke="#000" class="edge">
            <path fill="none" d="M4845.76 166.16c104.34.86 293.16 9.29 447.24 53.84 43.06 12.45 317.86 167.83 361 180 176.05 49.68 227.8 19.72 410 36 28.52 2.55 59.49 5.35 87.86 7.93"/>
            <path d="m6151.86 440.42 9.64 4.39-10.27 2.58z"/>
        </g>
        <g stroke="#000" class="edge">
            <path fill="none" d="M5085.94 400.39c1.98 19.85 8.12 52.07 27.06 71.61 33.75 34.82 74.93-3.54 103 36 9.26 13.05 10.68 24.08 0 36-25.71 28.69-261.06 43.45-393.13 49.53"/>
            <path d="m4823.25 597.02-10.14-3.05 9.83-3.95z"/>
        </g>
        <g stroke="#000" class="edge">
            <path fill="none" d="M5015.17 385c-327.01 9.35-1691.62 48.53-1702.17 51-74.74 17.5-87.86 38.64-157 72-31.86 15.38-36.8 26.93-71 36-186.14 49.37-769.78 53.59-989.35 53.37"/>
            <path d="m2095.72 600.87-9.99-3.52 10-3.48z"/>
        </g>
        <g stroke="#000" class="edge">
            <path fill="none" d="M5015.37 385.06C4901.38 388.4 4667.81 395.11 4470 400c-734.62 18.15-919.15-2.24-1653 36-39.62 2.06-83.44 5.52-120.45 8.77"/>
            <path d="m2697.08 448.24-10.27-2.6 9.65-4.37z"/>
        </g>
        <g stroke="#000" class="edge">
            <path fill="none" d="M5114.85 398.71c18.26 9.61 41.88 22.04 61.91 32.59"/>
            <path d="m5178.31 428.15 7.22 7.76-10.48-1.56z"/>
        </g>
        <g stroke="#000" class="edge">
            <path fill="none" d="M2650.93 313.39c-132.11 4.68-397.99 17.62-620.93 50.61-72.96 10.8-89.83 20.77-162 36-79.83 16.85-106.05 1.54-180 36-70.45 32.83-135.65 98.94-168.23 135.4"/>
            <path d="m1522.44 573.67-9.23 5.19 3.98-9.82z"/>
        </g>
        <g stroke="#000" class="edge">
            <path fill="none" d="M2801.17 321.11c20.45 2.71 43.02 5.31 63.83 6.89 44.47 3.37 1570.09 8.25 1605 36 64.64 51.37-12.73 121.96 46 180 19.75 19.52 85.15 33.74 139.2 42.51"/>
            <path d="m4655.72 583.05 9.33 5.01-10.42 1.9z"/>
        </g>
        <g stroke="#000" class="edge">
            <path fill="none" d="M2653.77 315.72c-95.14 6.56-258.16 20.85-395.77 48.28-56.28 11.22-68.62 20.95-124 36-62.83 17.08-97.27-11.31-142 36-33.25 35.17-27.3 61.46-14 108 2.67 9.34 7.51 18.63 12.68 26.76"/>
            <path d="m1993.41 568.56 2.75 10.23-8.53-6.28z"/>
        </g>
        <g stroke="red" stroke-width="2" class="edge">
            <path fill="none" d="M2680.02 324.17c-49.02 11.95-121.23 29.56-172.25 42.01"/>
            <path fill="red" d="m2510.38 369.14-10.54-1.03 8.89-5.77z"/>
        </g>
        <g stroke="#000" class="edge">
            <path fill="none" d="M2802.15 320.85c65.66 13.51 161.49 44.71 206.85 115.15 12.01 18.66 4.42 43.39-4.99 62.04"/>
            <path d="m3007.16 499.57-7.88 7.07 1.75-10.44z"/>
        </g>
        <g stroke="#000" class="edge">
            <path fill="none" d="M2755.24 327.85c31.76 25.19 91.75 72.78 127.9 101.47"/>
            <path d="m2884.95 426.28 5.66 8.95-10.01-3.47z"/>
        </g>
        <g stroke="#000" class="edge">
            <path fill="none" d="M2802.58 320.72c20.08 2.62 42.11 5.29 62.42 7.28 119.69 11.74 426.55-3.92 540 36 83.33 29.32 117.67 57.8 137 144 4.45 19.85 4.06 42.81 2.63 60.44"/>
            <path d="m3548.13 568.58-4.46 9.61-2.5-10.3z"/>
        </g>
        <g class="node" transform="translate(4 616)">
            <ellipse cx="2983" cy="-18" fill="none" stroke="#000" rx="85.13" ry="18"/>
            <text x="2983" y="-12.95" font-family="Times,serif" font-size="14" text-anchor="middle">:common:exception</text>
        </g>
        <g stroke="#000" class="edge">
            <path fill="none" d="M2800.53 321.32c58.37 9.94 138.09 25.88 165.47 42.68 70.77 43.42 91.06 65.82 119 144 5.38 15.07 8.19 22.26 0 36-8.94 14.99-23.75 26-39.18 33.97"/>
            <path d="m3047.54 581.03-10.53 1.1 7.54-7.43z"/>
        </g>
        <g stroke="#000" class="edge">
            <path fill="none" d="M2376.76 385.43c-96.39 4.49-274.59 16.94-422.76 50.57-93.76 21.28-113.34 39.99-204 72-70.52 24.9-152.13 53.72-202.91 71.66"/>
            <path d="m1548.44 582.89-10.59.03 8.26-6.63z"/>
        </g>
        <g stroke="#000" class="edge">
            <path fill="none" d="M2518.09 384.53c311.8 6.81 1544.47 34.74 1580.91 51.47 19.73 9.06 14.87 24.06 33 36 40.5 26.68 58.39 16.99 103 36 32.55 13.87 37.16 25.67 71 36 113.37 34.6 250.2 46.68 338.12 50.85"/>
            <path d="m4644.05 591.35 9.83 3.94-10.15 3.05z"/>
        </g>
        <g stroke="#000" class="edge">
            <path fill="none" d="M2383.06 390.24C2290.9 401.09 2129.18 421.8 2106 436c-48.9 29.97-75.56 95.28-87.38 132.86"/>
            <path d="m2022.07 569.54-6.22 8.57-.49-10.58z"/>
        </g>
        <g stroke="#000" class="edge">
            <path fill="none" d="M2507.19 391.91C2598.3 405.53 2761.97 430.5 2774 436c22.67 10.36 21.12 24.06 43 36 30.71 16.76 67.48 29.06 98.96 37.57"/>
            <path d="m2916.61 506.12 8.78 5.91-10.56.86z"/>
        </g>
        <g stroke="red" stroke-width="2" class="edge">
            <path fill="none" d="M2508.42 391.49C2581 401.62 2705.41 419.29 2812 436c7.97 1.25 16.29 2.59 24.58 3.95"/>
            <path fill="red" d="m2835.56 436.23 9.29 5.09-10.44 1.82z"/>
        </g>
        <g stroke="#000" class="edge">
            <path fill="none" d="M2510.94 390.42c52.79 7.49 129 21.47 192.06 45.58 89.29 34.13 94.78 79.42 186 108 104.04 32.59 418.76 46.11 569.63 50.83"/>
            <path d="m3458.68 591.33 9.89 3.8-10.11 3.2z"/>
        </g>
        <g stroke="#000" class="edge">
            <path fill="none" d="M2450.44 400.33c4.76 19.79 15.2 51.96 35.56 71.67 61.91 59.93 97.01 48.85 180 72 78.05 21.77 169.42 35.79 234.68 43.9"/>
            <path d="m2900.73 584.38 9.5 4.69-10.35 2.26z"/>
        </g>
        <g stroke="#000" class="edge">
            <path fill="none" d="M2901.33 531.03c-267.34 12.57-1083.1 50.92-1331.07 62.57"/>
            <path d="m1570.55 597.09-10.15-3.02 9.82-3.97z"/>
        </g>
        <g stroke="#000" class="edge">
            <path fill="none" d="M3073.34 530.46c296.68 11.89 1272.6 50.99 1572.32 63"/>
            <path d="m4645.52 589.95 9.85 3.9-10.13 3.1z"/>
        </g>
        <g stroke="#000" class="edge">
            <path fill="none" d="M2904.63 532.91c-184.7 13.24-630.02 45.18-813.03 58.31"/>
            <path d="m2091.93 594.7-10.23-2.77 9.73-4.21z"/>
        </g>
        <g stroke="red" stroke-width="2" class="edge">
            <path fill="none" d="M3060.85 536.33c106.02 13.4 300.23 37.94 406.26 51.33"/>
            <path fill="red" d="m3465.86 583.98 9.48 4.72-10.36 2.22z"/>
        </g>
        <g stroke="#000" class="edge">
            <path fill="none" d="M2987 544.3v24.16"/>
            <path d="m2990.5 568.38-3.5 10-3.5-10z"/>
        </g>
        <g stroke="#000" class="edge">
            <path fill="none" d="M2892.53 321.07c-21.22 2.52-44.24 5.04-65.53 6.93-440.88 39.07-564.14-12.6-990 108-86.89 24.61-108.7 32.69-190 72-41.31 19.97-86.2 47.68-115.79 66.85"/>
            <path d="m1533.34 577.63-10.28 2.54 6.46-8.4z"/>
        </g>
        <g stroke="#000" class="edge">
            <path fill="none" d="M3061.16 316.11c67.79 3.68 162.57 8.55 245.84 11.89 33.68 1.35 1189.52 11.81 1213 36v180c16.63 21.25 79.84 35.17 133.28 43.38"/>
            <path d="m4653.64 583.9 9.38 4.93-10.41 1.99z"/>
        </g>
        <g stroke="#000" class="edge">
            <path fill="none" d="M2891.76 320.88c-21.01 2.49-43.74 5.05-64.76 7.12-204.08 20.11-257.42 4.12-460 36-4.26.67-298.55 69.41-302 72-41.39 31.05-51.41 95.2-53.62 132.47"/>
            <path d="m2014.9 568.19-3.93 9.84-3.07-10.14z"/>
        </g>
        <g stroke="#000" class="edge">
            <path fill="none" d="M2963.01 328.41c-9.71 24.19-27.38 68.23-38.91 96.94"/>
            <path d="m2927.41 426.51-6.98 7.97.48-10.58z"/>
        </g>
        <g stroke="#000" class="edge">
            <path fill="none" d="M3033.83 323.84c61.08 12.29 152.94 30.76 215.57 43.36"/>
            <path d="m3249.75 363.7 9.12 5.41-10.5 1.45z"/>
        </g>
        <g stroke="#000" class="edge">
            <path fill="none" d="M3061.82 315.8c120.89 7.26 320.83 22.96 343.18 48.2 14.53 16.41 10.59 41.81 4.13 61.28"/>
            <path d="m3412.46 426.38-6.77 8.15.21-10.59z"/>
        </g>
        <g stroke="#000" class="edge">
            <path fill="none" d="M3062.73 315.26c145.51 7.4 414.73 24.21 451.27 48.74 70.02 47 83.18 98.92 60 180-2.67 9.34-7.51 18.63-12.68 26.76"/>
            <path d="m3564.37 572.51-8.53 6.28 2.75-10.23z"/>
        </g>
        <g stroke="#000" class="edge">
            <path fill="none" d="M2907.19 324.02C2788.92 349.17 2542.82 404.67 2519 436c-9.69 12.74-9.09 22.83 0 36 25.65 37.16 53.28 18.73 95 36 36.02 14.92 42.76 24.44 80 36 68.53 21.27 148.88 35.05 208.09 43.22"/>
            <path d="m2902.32 583.72 9.45 4.8-10.38 2.13z"/>
        </g>
        <g stroke="#000" class="edge">
            <path fill="none" d="M2301.41 536.5c-21.66 2.65-45.48 5.38-67.41 7.5-243.16 23.5-532.44 41.4-664.22 49"/>
            <path d="m1570.36 596.47-10.18-2.92 9.78-4.07z"/>
        </g>
        <g stroke="#000" class="edge">
            <path fill="none" d="M2459.11 530.53c89.37 3.64 233.99 9.35 358.89 13.47 703.29 23.19 1552.03 44.23 1826.06 50.85"/>
            <path d="m4644.09 591.35 9.91 3.74-10.08 3.26z"/>
        </g>
        <g stroke="#000" class="edge">
            <path fill="none" d="M2311.6 539.03c-64.96 12.53-166.36 32.08-233.14 44.96"/>
            <path d="m2079.2 587.41-10.49-1.54 9.16-5.33z"/>
        </g>
        <g stroke="#000" class="edge">
            <path fill="none" d="M2453.98 533.73c40.71 3.32 90.98 7.24 136.02 10.27 322.04 21.64 705.86 41.09 870.03 49.11"/>
            <path d="m3460.13 589.61 9.82 3.99-10.16 3.01z"/>
        </g>
        <g stroke="#000" class="edge">
            <path fill="none" d="M2449.17 535.58c114.74 13.11 332.92 38.02 453.12 51.75"/>
            <path d="m2902.57 583.84 9.54 4.61-10.34 2.34z"/>
        </g>
        <g stroke="#000" class="edge">
            <path fill="none" d="M2833.74 461.58c-39.32 3.22-87.52 7.11-130.74 10.42-220.82 16.94-277.03 10.33-497 36-99.72 11.64-123.51 22.54-223 36-147.46 19.95-320.92 37.47-415.27 46.51"/>
            <path d="m1568.14 593.99-10.28-2.54 9.62-4.43z"/>
        </g>
        <g stroke="#000" class="edge">
            <path fill="none" d="M2978.99 465.92c118.15 19.12 373.77 58.46 591.01 78.08 399.27 36.06 877.93 48.05 1073.78 51.63"/>
            <path d="m4643.7 592.13 9.94 3.68-10.07 3.32z"/>
        </g>
        <g stroke="#000" class="edge">
            <path fill="none" d="M2863.75 469.22C2793.58 488.94 2660.51 524.4 2545 544c-158.91 26.97-346.94 41.69-452.14 48.4"/>
            <path d="m2093.1 595.9-10.2-2.87 9.76-4.12z"/>
        </g>
        <g stroke="red" stroke-width="2" class="edge">
            <path fill="none" d="M2930.91 471.95c8.94 8.44 19.91 18.83 29.78 28.16"/>
            <path fill="red" d="m2961.94 496.47 4.86 9.42-9.67-4.33z"/>
        </g>
        <g stroke="#000" class="edge">
            <path fill="none" d="M2970.12 467.91c117.57 26.59 385.85 87.25 508.1 114.89"/>
            <path d="m3478.78 579.34 8.98 5.62-10.53 1.21z"/>
        </g>
        <g stroke="#000" class="edge">
            <path fill="none" d="M2900.93 472.14c-11.57 18.76-25.45 49.18-11.93 71.86 8.94 14.99 23.75 26 39.18 33.97"/>
            <path d="m2929.45 574.7 7.54 7.43-10.53-1.1z"/>
        </g>
        <g stroke="#000" class="edge">
            <path fill="none" d="M3239.47 382.96C3017.59 384.27 2368.07 397.98 1843 508c-57.84 12.12-70.84 20.99-128 36-53.66 14.09-115.1 28.98-158.88 39.38"/>
            <path d="m1557.12 586.74-10.54-1.1 8.92-5.71z"/>
        </g>
        <g stroke="#000" class="edge">
            <path fill="none" d="M3396.03 384.84c175.65 4.66 597.52 18.94 735.97 51.16 40.76 9.49 138.89 49.23 174 72 19.52 12.66 17.02 25.95 38 36 52.02 24.92 205.02 40.02 303.21 47.42"/>
            <path d="m4647.38 587.92 9.71 4.23-10.23 2.75z"/>
        </g>
        <g stroke="#000" class="edge">
            <path fill="none" d="M3261.25 394.74c-11.61 2.05-23.79 3.94-35.25 5.26-343.88 39.54-440.38-40.34-778 36-2.51.57-168.63 70.98-171 72-36.16 15.64-43.97 22.54-81 36-40.69 14.79-87.6 28.19-123.99 37.81"/>
            <path d="m2073.09 585.15-10.56-.86 8.79-5.91z"/>
        </g>
        <g stroke="#000" class="edge">
            <path fill="none" d="M3283.83 398.63c-39.7 18.07-107.24 48.49-165.83 73.37-26.65 11.32-56.58 23.47-81.09 33.27"/>
            <path d="m3038.4 508.45-10.58.45 7.99-6.96z"/>
        </g>
        <g stroke="#000" class="edge">
            <path fill="none" d="M3258.64 394.1c-10.86 2-22.08 4.03-32.64 5.9-80.25 14.21-172.22 29.69-235.6 40.23"/>
            <path d="m2991.23 443.64-10.44-1.82 9.29-5.09z"/>
        </g>
        <g stroke="#000" class="edge">
            <path fill="none" d="M3386.12 391.24c32.3 7.08 69.32 20.26 94.88 44.76 37.24 35.7 51.55 96.64 56.91 132.43"/>
            <path d="m3541.34 567.65-2.13 10.38-4.81-9.44z"/>
        </g>
        <g stroke="#000" class="edge">
            <path fill="none" d="M3300.59 400.03C3267.4 431.76 3191.79 500.65 3118 544c-23.48 13.79-51.23 25.59-75.13 34.53"/>
            <path d="m3044.21 581.77-10.6.14 8.2-6.72z"/>
        </g>
        <g stroke="#000" class="edge">
            <path fill="none" d="M3323.73 458.31C3078.88 469.37 2303 504.62 2277 508c-75.73 9.84-92.48 24.68-168 36-193.42 29-423.85 43.67-538.59 49.64"/>
            <path d="m1570.68 597.13-10.17-2.98 9.81-4.01z"/>
        </g>
        <g stroke="#000" class="edge">
            <path fill="none" d="M3439.1 469.25c62.75 20.54 184.91 57.86 291.9 74.75 174.63 27.57 701.87 44.72 913.59 50.65"/>
            <path d="m4644.54 591.15 9.9 3.78-10.1 3.22z"/>
        </g>
        <g stroke="#000" class="edge">
            <path fill="none" d="M3337.51 465.31c-39.26 8.23-91.08 21.89-133.51 42.69-23.94 11.74-22.9 26.98-48 36-98.86 35.51-813.58 48.5-1060.98 51.96"/>
            <path d="m2095.16 599.46-10.05-3.36 9.95-3.64z"/>
        </g>
        <g stroke="#000" class="edge">
            <path fill="none" d="M3337.38 465.18c-72.22 12.33-194.05 33.13-273.34 46.67"/>
            <path d="m3065.09 515.22-10.45-1.77 9.27-5.13z"/>
        </g>
        <g stroke="#000" class="edge">
            <path fill="none" d="M3414.08 471.85c25.23 24.87 72.59 71.58 101.78 100.36"/>
            <path d="m3518.2 569.6 4.66 9.51-9.58-4.53z"/>
        </g>
        <g stroke="#000" class="edge">
            <path fill="none" d="M3385.34 471.91c-15.22 20.64-43.91 54.92-77.34 72.09-39.71 20.4-152.76 35.81-233.44 44.62"/>
            <path d="m3075.22 592.07-10.32-2.41 9.57-4.55z"/>
        </g>
        <g stroke="#000" class="edge">
            <path fill="none" d="M3003.08 241.69c-150.21 5.21-461.5 19.02-723.08 50.31-184.57 22.08-230.74 30.78-412 72-115.25 26.21-154.43 11.56-256 72-52.23 31.09-86.84 96.45-103.15 133.63"/>
            <path d="m1512.28 570.52-7.13 7.84.68-10.58z"/>
        </g>
        <g stroke="#000" class="edge">
            <path fill="none" d="M3174.8 246.3c41.64 3.46 93.08 7.34 139.2 9.7 78.87 4.03 1351.32-1.16 1421 36 34.6 18.45 39.11 34.63 51 72 24.26 76.23 30.26 105.94 0 180-4.43 10.83-12.25 20.64-20.5 28.8"/>
            <path d="m4768.07 575.19-9.74 4.16 5.01-9.33z"/>
        </g>
        <g stroke="#000" class="edge">
            <path fill="none" d="M3003.36 241.96c-166.1 6.09-515.55 21.86-633.36 50.04-40.3 9.64-46.39 23.83-86 36-77.16 23.7-99.85 15.82-178 36-12.86 3.32-219.16 62.09-228 72-32.22 36.12-41.82 68.39-14 108 16.17 23.02 43.37 36.09 70 43.49"/>
            <path d="m1934.63 584.04 8.85 5.83-10.55.96z"/>
        </g>
        <g stroke="red" stroke-width="2" class="edge">
            <path fill="none" d="M3029.64 251.35c-62.69 12.23-158.52 30.91-223.97 43.68"/>
            <path fill="red" d="m2808.09 298.12-10.49-1.52 9.15-5.35z"/>
        </g>
        <g stroke="#000" class="edge">
            <path fill="none" d="M3003.06 241.29c-92.38 4.25-239.58 16.36-362.06 50.71-57.15 16.03-118.74 46.84-156.83 67.67"/>
            <path d="m2486.31 362.48-10.45 1.78 7.06-7.9z"/>
        </g>
        <g stroke="#000" class="edge">
            <path fill="none" d="M3090.47 256.26C3084.13 296.14 3065.16 397 3026 472c-4.92 9.42-11.41 18.99-17.68 27.36"/>
            <path d="m3011.25 501.28-8.9 5.75 3.38-10.05z"/>
        </g>
        <g stroke="#000" class="edge">
            <path fill="none" d="M3144 253.36c30.78 9.41 70.4 22.88 104 38.64 27.81 13.05 30.12 25.53 59 36 102.23 37.06 150.75-23.13 242 36 69.03 44.73 75.33 104.37 43 180-4.59 10.74-12.42 20.58-20.58 28.78"/>
            <path d="m3574.06 575.11-9.7 4.27 4.92-9.39z"/>
        </g>
        <g stroke="#000" class="edge">
            <path fill="none" d="M3122.02 255.41c35.13 19.35 96.49 51.54 151.98 72.59 56.45 21.42 94.4-12.02 131 36 9.7 12.72 9.02 22.78 0 36-24.75 36.27-53.31 15.25-92 36-73.67 39.51-78.92 71.24-154 108-33.03 16.17-72.04 28.67-104.56 37.47"/>
            <path d="m3055.71 584.75-10.57-.83 8.78-5.94z"/>
        </g>
        <g stroke="#000" class="edge">
            <path fill="none" d="M2535.24 461.61C2434.05 470.7 2249.26 488.2 2092 508c-193.6 24.38-421.55 60.67-530.19 78.43"/>
            <path d="m1562.66 589.84-10.44-1.84 9.31-5.07z"/>
        </g>
        <g stroke="#000" class="edge">
            <path fill="none" d="M2654.74 469.75c72.23 24.24 210.81 70.24 234.26 74.25 173.48 29.65 1407.98 47.44 1754.66 51.89"/>
            <path d="m4643.66 592.39 9.95 3.63-10.04 3.37z"/>
        </g>
        <g stroke="#000" class="edge">
            <path fill="none" d="M2596.69 471.86c-18.86 20.93-54.2 55.84-92.69 72.14-71.9 30.44-289.44 44.35-410.12 49.88"/>
            <path d="m2094.17 597.37-10.15-3.05 9.84-3.95z"/>
        </g>
        <g stroke="#000" class="edge">
            <path fill="none" d="M2672.67 466.48c65.56 12.21 169.26 31.51 239.46 44.58"/>
            <path d="m2912.42 507.55 9.19 5.28-10.47 1.61z"/>
        </g>
        <g stroke="#000" class="edge">
            <path fill="none" d="M2651.65 470.07c24.04 9.58 54.7 22.96 80.35 37.93 23.03 13.44 23.01 26.69 48 36 62.35 23.22 495.68 42.64 679.19 49.92"/>
            <path d="m3459.28 590.42 9.85 3.89-10.13 3.11z"/>
        </g>
        <g stroke="#000" class="edge">
            <path fill="none" d="M2637.87 471.45c16.42 10.22 37.72 23.79 56.13 36.55 21.92 15.19 23.74 24.93 48 36 49.94 22.8 110.14 36 158.38 43.52"/>
            <path d="m2900.87 584.06 9.37 4.94-10.41 1.98z"/>
        </g>
        <g stroke="#000" class="edge">
            <path fill="none" d="M6658.09 399.62c14.59 8.61 29.77 20.66 37.91 36.38 7.36 14.21 9.92 23.44 0 36-85.51 108.29-165.23 53.71-302 72-307.39 41.12-1270.25 50.56-1570 52.52"/>
            <path d="m4824.31 600.02-10.03-3.43 9.98-3.57z"/>
        </g>
        <g stroke="#000" class="edge">
            <path fill="none" d="M6547.9 396.83c-63.11 11.94-154.05 29.14-218.63 41.36"/>
            <path d="m6330.31 441.56-10.48-1.58 9.18-5.3z"/>
        </g>
        <g class="node" transform="translate(4 616)">
            <ellipse cx="6585" cy="-162" fill="none" stroke="#000" rx="80.01" ry="18"/>
            <text x="6585" y="-156.95" font-family="Times,serif" font-size="14" text-anchor="middle">:library:koin-room</text>
        </g>
        <g stroke="#000" class="edge">
            <path fill="none" d="M6613.09 400.3c-3.49 7.63-7.67 16.78-11.57 25.3"/>
            <path d="m6604.79 426.88-7.34 7.64.97-10.55z"/>
        </g>
        <g class="node" transform="translate(4 616)">
            <ellipse cx="6426" cy="-162" fill="none" stroke="#000" rx="60.56" ry="18"/>
            <text x="6426" y="-156.95" font-family="Times,serif" font-size="14" text-anchor="middle">:library:room</text>
        </g>
        <g stroke="#000" class="edge">
            <path fill="none" d="M6576.7 399.24c-29.64 10.86-68.62 25.15-98.95 36.26"/>
            <path d="m6479.01 438.77-10.59.15 8.18-6.73z"/>
        </g>
        <g stroke="#000" class="edge">
            <path fill="none" d="M6441.09 395.04c95.1 12.63 229.16 31.87 236.91 40.96 10.38 12.18 10.56 23.98 0 36-163.87 186.54-306.58 51.25-554 72-489.34 41.04-1078.28 50.32-1299.86 52.4"/>
            <path d="m4824.46 599.9-10.03-3.41 9.96-3.59z"/>
        </g>
        <g stroke="#000" class="edge">
            <path fill="none" d="M6255.35 395.29c-16.41 1.85-33.37 3.53-49.35 4.71-576.87 42.67-722.81 18.83-1301 36-144.03 4.28-309.82 9.6-418.42 13.13"/>
            <path d="m4486.89 452.63-10.11-3.18 9.88-3.82z"/>
        </g>
        <g stroke="#000" class="edge">
            <path fill="none" d="M6401.61 398.8c38.27 11.07 89.38 25.85 128.56 37.18"/>
            <path d="m6531.05 432.59 8.63 6.14-10.58.59z"/>
        </g>
        <g stroke="#000" class="edge">
            <path fill="none" d="M6367.09 399.95c10.45 8.81 23.39 19.72 34.82 29.36"/>
            <path d="m6404.12 426.59 5.39 9.13-9.9-3.77z"/>
        </g>
        <g stroke="#000" class="edge">
            <path fill="none" d="M5796.23 470.8c-44.59 10.87-103.89 25.34-150.01 36.59"/>
            <path d="m5647.11 510.77-10.55-1.03 8.89-5.77z"/>
        </g>
        <g class="node" transform="translate(4 616)">
            <ellipse cx="5849" cy="-90" fill="none" stroke="#000" rx="93.32" ry="18"/>
            <text x="5849" y="-84.95" font-family="Times,serif" font-size="14" text-anchor="middle">:library:koin-datastore</text>
        </g>
        <g stroke="#000" class="edge">
            <path fill="none" d="M5859.02 472.3c-.83 7.29-1.82 15.97-2.76 24.16"/>
            <path d="m5859.74 496.85-4.61 9.54-2.35-10.33z"/>
        </g>
        <g stroke="#000" class="edge">
            <path fill="none" d="M5875.6 395.12c89.41 12.78 216.12 32.26 223.4 40.88 30.96 36.68 33.28 73.41 0 108-44.18 45.93-976.81 52.1-1274.52 52.89"/>
            <path d="m4824.84 600.39-10.01-3.47 9.99-3.53z"/>
        </g>
        <g stroke="#000" class="edge">
            <path fill="none" d="M5677.36 390.52c-53.03 3.36-117.46 7.1-175.36 9.48-697.81 28.73-873.72-3.64-1571 36-29.31 1.67-61.13 4.26-90.08 6.93"/>
            <path d="m3841.35 446.41-10.29-2.56 9.63-4.41z"/>
        </g>
        <g stroke="#000" class="edge">
            <path fill="none" d="M5876.57 395.05c15.14 1.83 30.72 3.56 45.43 4.95 256.25 24.21 322.64 3.79 578 36 6.86.87 13.99 1.94 21.1 3.11"/>
            <path d="m6521.45 435.62 9.26 5.16-10.46 1.74z"/>
        </g>
        <g stroke="#000" class="edge">
            <path fill="none" d="M5877.31 394.89c14.91 1.82 30.23 3.6 44.69 5.11 194.27 20.3 245.18 4.86 438 36 4.92.8 10.01 1.76 15.1 2.81"/>
            <path d="m6375.66 435.35 9.01 5.57-10.52 1.27z"/>
        </g>
        <g stroke="#000" class="edge">
            <path fill="none" d="M5200.61 471.97c-23.22 21.4-66.66 57.18-111.61 72.03-69.99 23.12-1155.94 45.52-1465.95 51.47"/>
            <path d="m3623.49 598.96-10.06-3.31 9.93-3.69z"/>
        </g>
        <g stroke="#000" class="edge">
            <path fill="none" d="M5282.47 467.68c58.6 11.52 145.36 28.58 209 41.09"/>
            <path d="m5492.05 505.32 9.14 5.36-10.49 1.51z"/>
        </g>
        <g stroke="#000" class="edge">
            <path fill="none" d="M5140.13 464.77C5044.26 476.94 4887 497.42 4829 508c-70.43 12.85-85.99 26.89-157 36-267.04 34.25-941.91 27.18-1211 36-131.68 4.32-283.91 9.88-379.57 13.44"/>
            <path d="m3081.69 596.94-10.13-3.13 9.87-3.87z"/>
        </g>
        <g class="node" transform="translate(4 616)">
            <ellipse cx="5357" cy="-90" fill="none" stroke="#000" rx="72.85" ry="18"/>
            <text x="5357" y="-84.95" font-family="Times,serif" font-size="14" text-anchor="middle">:common:model</text>
        </g>
        <g stroke="#000" class="edge">
            <path fill="none" d="M5251.17 471.24c20.28 9.92 46.39 22.71 68.07 33.32"/>
            <path d="m5320.68 501.37 7.45 7.54-10.52-1.26z"/>
        </g>
        <g stroke="#000" class="edge">
            <path fill="none" d="M3784.21 541c-52.57 12.1-128.25 29.53-181.18 41.72"/>
            <path d="m3604.1 586.06-10.53-1.17 8.96-5.65z"/>
        </g>
        <g stroke="#000" class="edge">
            <path fill="none" d="M5613.25 469.45c61.68 13.78 127.92 37.92 91.75 74.55-27.44 27.79-2772.95 35.37-2812 36-293.19 4.7-641.17 11.88-797.99 15.2"/>
            <path d="m2095.18 598.7-10.07-3.29 9.93-3.71z"/>
        </g>
        <g stroke="#000" class="edge">
            <path fill="none" d="M5422.82 467.84c-102.95 12.69-259.45 31.97-361.69 44.57"/>
            <path d="m5061.73 515.87-10.36-2.25 9.5-4.7z"/>
        </g>
        <g stroke="#000" class="edge">
            <path fill="none" d="M5598.95 470.45c54.09 11.61 127.88 27.46 182 39.08"/>
            <path d="m5781.66 506.1 9.04 5.52-10.51 1.33z"/>
        </g>
        <g stroke="#000" class="edge">
            <path fill="none" d="M6157.08 395.19c16.29 1.83 33.08 3.53 48.92 4.81 48 3.86 832.67 1.25 866 36 14.47 15.09 13.71 89.44-6 108-41.54 39.1-1817.49 50.43-2241.69 52.58"/>
            <path d="m4824.58 600.08-10.02-3.45 9.98-3.55z"/>
        </g>
        <g stroke="#000" class="edge">
            <path fill="none" d="M5971.7 395.37c-16.52 1.84-33.6 3.5-49.7 4.63-185.25 13.05-1493.71-19.27-1671 36-41.71 13-82.61 43.1-108.26 64.69"/>
            <path d="m4145.34 503.07-9.87 3.87 5.3-9.17z"/>
        </g>
        <g stroke="#000" class="edge">
            <path fill="none" d="M6161.32 394.66C6284.7 409.47 6483.47 433.42 6500 436c6.37.99 12.99 2.11 19.6 3.27"/>
            <path d="m6519.98 435.79 9.22 5.22-10.46 1.66z"/>
        </g>
        <g stroke="#000" class="edge">
            <path fill="none" d="M6146.88 396.45c59.49 9.99 141.47 24.45 213.12 39.55 4.54.96 9.24 1.99 13.95 3.07"/>
            <path d="m6374.49 435.6 8.94 5.68-10.53 1.14z"/>
        </g>
        <g stroke="#000" class="edge">
            <path fill="none" d="M1348.36 250.61c-10.44 1.9-21.2 3.77-31.36 5.39-120.42 19.2-151.11 19.97-272 36-15.8 2.09-32.69 4.34-48.86 6.48"/>
            <path d="m996.96 301.9-10.37-2.15 9.45-4.78z"/>
        </g>
        <g stroke="#000" class="edge">
            <path fill="none" d="M1379.68 255.32c-40.66 23.14-113.84 63.71-142.68 72.68-62.22 19.35-246.49-11.59-291 36-14.79 15.82-14.91 40.94-11.97 60.47"/>
            <path d="m937.47 423.81-1.6 10.47-5.28-9.18z"/>
        </g>
        <g stroke="#000" class="edge">
            <path fill="none" d="M1356.84 252.41c-43.46 11.4-106.01 27.8-152.6 40.01"/>
            <path d="m1205.38 295.74-10.56-.85 8.79-5.92z"/>
        </g>
        <g stroke="#000" class="edge">
            <path fill="none" d="M1349.41 250.94c-10.75 1.9-21.89 3.7-32.41 5.06-54.14 7.02-445.84 3.9-490 36-67.09 48.76-86.92 153.34-92.69 204.13"/>
            <path d="m737.8 496.44-4.49 9.59-2.47-10.3z"/>
        </g>
        <g stroke="#000" class="edge">
            <path fill="none" d="M1349.9 250.9c-10.89 1.93-22.22 3.74-32.9 5.1-116.67 14.82-428.07-26.01-528 36-106.4 66.03-211.69 160.69-126 252 25.89 27.58 562.72 45.37 761.67 51.04"/>
            <path d="m1424.74 591.54 9.9 3.78-10.1 3.22z"/>
        </g>
        <g stroke="#000" class="edge">
            <path fill="none" d="M1453.46 253.33c34.98 11.04 83.5 26.33 120.82 38.1"/>
            <path d="m1575.05 288 8.49 6.35-10.59.33z"/>
        </g>
        <g stroke="#000" class="edge">
            <path fill="none" d="M1464.91 251.31c10.94 1.92 22.33 3.62 33.09 4.69 86.33 8.58 3046.17-4.29 3123 36 34.73 18.21 34.36 36.49 51 72 32.62 69.62 50.35 159.27 57.76 204.38"/>
            <path d="m4733.19 567.69-1.88 10.43-5.03-9.33z"/>
        </g>
        <g stroke="#000" class="edge">
            <path fill="none" d="M1408.92 256.44c3.84 53.21 23.24 214.3 119.08 287.56 60.63 46.34 276.78 53.65 398.37 53.96"/>
            <path d="m1926.32 594.46 10 3.5-10.01 3.5z"/>
        </g>
        <g stroke="#000" class="edge">
            <path fill="none" d="M1349.91 250.97c-10.9 1.92-22.22 3.72-32.91 5.03-264.71 32.55-333.38 12.03-599 36-18.3 1.65-37.9 3.78-56.49 5.97"/>
            <path d="m661.94 301.45-10.34-2.29 9.51-4.66z"/>
        </g>
        <g stroke="#000" class="edge">
            <path fill="none" d="M1465.43 251.12c10.78 1.91 21.99 3.66 32.57 4.88 423.01 48.76 932.11 53.79 1140.27 53.57"/>
            <path d="m2638.23 306.07 10 3.48-9.99 3.52z"/>
        </g>
        <g stroke="#000" class="edge">
            <path fill="none" d="M1426.09 255.81c24.11 21.21 69.08 56.8 114.91 72.19 76.82 25.81 615.32 44.36 823.82 50.66"/>
            <path d="m2364.88 375.16 9.89 3.8-10.1 3.19z"/>
        </g>
        <g stroke="#000" class="edge">
            <path fill="none" d="M930.55 256.3c-1.9 7.38-4.16 16.18-6.29 24.45"/>
            <path d="m927.66 281.62-5.88 8.81-.9-10.56z"/>
        </g>
        <g stroke="#000" class="edge">
            <path fill="none" d="M867.58 241.97C746.95 247.98 504.38 263.5 479 292c-10.64 11.95-10.4 23.84 0 36 33.48 39.15 179.44 21.95 229 36 39.87 11.3 47.39 20.97 86 36 30.02 11.69 63.81 23.93 91.43 33.71"/>
            <path d="m886.38 430.33 8.26 6.63-10.59-.03z"/>
        </g>
        <g stroke="#000" class="edge">
            <path fill="none" d="M975.7 252.83c31.77 10.8 76.21 25.9 111.01 37.72"/>
            <path d="m1087.41 287.09 8.34 6.53-10.6.1z"/>
        </g>
        <g stroke="#000" class="edge">
            <path fill="none" d="M867.26 241.77C743.97 247.51 493.18 262.69 467 292c-80.36 89.97 119.69 179.39 216.32 215.87"/>
            <path d="m684.44 504.55 8.15 6.77-10.59-.21z"/>
        </g>
        <g stroke="#000" class="edge">
            <path fill="none" d="M866.66 240.73C698.36 245.45 273.47 260.38 218 292c-41.88 23.87-62 40.79-62 89v74c0 128.61 987.33 141.06 1268.25 142"/>
            <path d="m1424.02 593.5 9.99 3.53-10.01 3.47z"/>
        </g>
        <g stroke="#000" class="edge">
            <path fill="none" d="M998.21 245.37c126.08 12.7 408.76 41.17 549.26 55.32"/>
            <path d="m1547.47 297.17 9.59 4.48-10.3 2.48z"/>
        </g>
        <g stroke="#000" class="edge">
            <path fill="none" d="M997.61 245.73c37.49 3.74 86.11 8.06 129.39 10.27 1174.58 59.91 1471.43-24.24 2646 36 360.06 18.47 500.18-115.69 808 72 80.85 49.3 60.57 101.82 114 180 6.09 8.91 12.99 18.46 19.28 26.96"/>
            <path d="m4716.97 568.71 3.17 10.11-8.78-5.92z"/>
        </g>
        <g stroke="#000" class="edge">
            <path fill="none" d="M867.08 241.41C739.14 246.64 472.69 261.16 445 292c-11.34 12.63-4.9 84.24 7 108 50.84 101.51 101.56 113.79 211 144 3.83 1.06 971.72 38.48 1264.85 49.79"/>
            <path d="m1927.86 590.29 9.86 3.88-10.13 3.12z"/>
        </g>
        <g stroke="#000" class="edge">
            <path fill="none" d="M881.02 249.56c-61.34 11.99-161.8 31.63-230.32 45.03"/>
            <path d="m651.54 297.99-10.49-1.51 9.15-5.36z"/>
        </g>
        <g stroke="#000" class="edge">
            <path fill="none" d="M998.06 245.47c37.43 3.62 85.85 7.91 128.94 10.53 573.24 34.8 1263 47.9 1511.77 51.7"/>
            <path d="m2638.82 304.2 9.94 3.65-10.05 3.35z"/>
        </g>
        <g stroke="#000" class="edge">
            <path fill="none" d="M958.58 255.24c14.33 10.14 32.82 23.72 48.42 36.76 17.85 14.92 16.55 26.98 38 36 30.57 12.86 1024.29 42.21 1319.87 50.68"/>
            <path d="m2364.93 375.18 9.89 3.78-10.09 3.21z"/>
        </g>
        <g stroke="#000" class="edge">
            <path fill="none" d="M838.51 184.21c1.25 18.82 5.34 49.28 18.49 71.79 6.5 11.12 16.15 21.13 25.82 29.38"/>
            <path d="m884.83 282.51 5.61 8.98-9.99-3.53z"/>
        </g>
        <g stroke="#000" class="edge">
            <path fill="none" d="M750.1 168.83C655.55 172.65 513.43 184.34 474 220c-36.09 32.64-47.3 69.15-18 108 46.48 61.62 261.7 97.88 389.3 114.33"/>
            <path d="m845.63 438.84 9.48 4.74-10.36 2.21z"/>
        </g>
        <g stroke="#000" class="edge">
            <path fill="none" d="M896.45 179.81c34.86 8.82 79.41 22.21 116.55 40.19 36.51 17.67 74.13 45.15 99.06 64.9"/>
            <path d="m1114.18 282.11 5.6 9-9.98-3.54z"/>
        </g>
        <g stroke="#000" class="edge">
            <path fill="none" d="M751.86 170.61C596.56 179.2 279.97 206.98 218 292c-59.62 81.79 311.82 183.33 457.34 219.47"/>
            <path d="m675.91 508 8.87 5.79-10.55 1.01z"/>
        </g>
        <g stroke="#000" class="edge">
            <path fill="none" d="M749.17 166.91C593.73 167.95 279.44 175.67 180 220c-76.94 34.3-100 76.77-100 161v74c0 75.24 72.07 66.94 144 89 114.58 35.14 946.89 48.75 1200.71 52.12"/>
            <path d="m1424.54 592.61 9.95 3.63-10.05 3.37z"/>
        </g>
        <g stroke="#000" class="edge">
            <path fill="none" d="M925.44 169.39c208.49 6.11 719.37 23.76 744.56 50.61 16.89 18 1.6 44.33-14.71 63.69"/>
            <path d="m1658.11 285.78-9.27 5.13 4.05-9.79z"/>
        </g>
        <g stroke="#000" class="edge">
            <path fill="none" d="M926.9 167.3c571.18 2.25 3706.71 19.38 3877.1 124.7 78.03 48.23 26.27 126.79 101 180 78.66 56.01 268.34-.89 205 72-36.22 41.69-186.08 51.51-285.32 53.32"/>
            <path d="m4825.01 600.82-10.06-3.35 9.95-3.65z"/>
        </g>
        <g stroke="#000" class="edge">
            <path fill="none" d="M749.02 166.41C608.35 166.92 342.2 174.16 261 220c-34.6 19.53-40.6 34.25-53 72-16.39 49.91 8.48 73.4 48 108 109.47 95.84 152.86 108.65 294 144 219.8 55.04 792.57 27.65 1019 36 125.16 4.62 270.25 10.25 359.07 13.73"/>
            <path d="m1928.06 590.23 9.85 3.89-10.13 3.1z"/>
        </g>
        <g stroke="#000" class="edge">
            <path fill="none" d="M808.06 183.29 616.98 287.25"/>
            <path d="m618.78 290.25-10.46 1.71 7.11-7.85z"/>
        </g>
        <g stroke="#000" class="edge">
            <path fill="none" d="M925.98 168.71C1188.91 174.13 1953.39 192.22 1999 220c110.35 67.22 41.17 175.08 145 252 38.17 28.27 88.92 41.81 133.04 48.16"/>
            <path d="m2277.44 516.68 9.46 4.78-10.37 2.16z"/>
        </g>
        <g stroke="#000" class="edge">
            <path fill="none" d="M925.36 169.71c354.83 11.02 1687.24 52.38 2066.4 64.15"/>
            <path d="m2991.84 230.36 9.88 3.81-10.1 3.18z"/>
        </g>
        <g stroke="#000" class="edge">
            <path fill="none" d="M759.41 174.74C629.27 190.42 391.6 232.86 479 328c16.8 18.29 327.57 37.47 504.06 46.96"/>
            <path d="m983.18 371.46 9.8 4.03-10.17 2.96z"/>
        </g>
        <g stroke="#000" class="edge">
            <path fill="none" d="M1833.4 244.64c-47.01 3.44-108.71 7.84-163.4 11.36-277.66 17.87-348.01 9.67-625 36-16.41 1.56-33.95 3.63-50.62 5.78"/>
            <path d="m994.87 301.24-10.37-2.16 9.45-4.78z"/>
        </g>
        <g stroke="#000" class="edge">
            <path fill="none" d="M1890.17 255.9c-24.12 20.64-68.12 54.9-112.17 72.1-101.29 39.55-134.45 19.96-242 36-180.71 26.96-392.26 58.63-508.14 75.99"/>
            <path d="m1028.51 443.43-10.41-1.98 9.37-4.95z"/>
        </g>
        <g stroke="#000" class="edge">
            <path fill="none" d="M1835.36 245.71c-141.65 12.91-451.61 41.16-604.89 55.14"/>
            <path d="m1231.04 304.31-10.27-2.58 9.64-4.39z"/>
        </g>
        <g stroke="#000" class="edge">
            <path fill="none" d="M1897.78 256.25c-14.43 20.66-41.51 54.61-73.78 71.75-84.4 44.83-118.3 17.2-212 36-208.45 41.81-256.74 70.45-466 108-121.3 21.76-264.14 38-346.38 46.45"/>
            <path d="m800 521.93-10.31-2.47 9.6-4.49z"/>
        </g>
        <g stroke="#000" class="edge">
            <path fill="none" d="M1904.53 256.16c-6.31 20.57-19.9 54.43-44.53 71.84-80.55 56.93-125.2 5.47-219 36-67.66 22.02-88.85 25.84-143 72-40.54 34.56-72.15 58.68-52 108 4.5 11.01 12.51 20.96 20.91 29.2"/>
            <path d="m1469.15 570.51 5.06 9.31-9.76-4.13z"/>
        </g>
        <g stroke="#000" class="edge">
            <path fill="none" d="M1856.85 252.08c-46.48 11.67-114.61 28.76-164.07 41.17"/>
            <path d="m1693.91 296.57-10.55-.96 8.85-5.83z"/>
        </g>
        <g stroke="#000" class="edge">
            <path fill="none" d="M1989.33 240.28c455.32 7.31 2692.3 43.58 2707.67 51.72 34.66 18.34 39.11 34.63 51 72 24.26 76.23 10.3 100.67 0 180-1.05 8.12-2.98 16.76-5.07 24.66"/>
            <path d="m4746.34 569.45-6.1 8.65-.63-10.57z"/>
        </g>
        <g stroke="#000" class="edge">
            <path fill="none" d="M1924.32 256.05c15.09 18.96 33.74 49.8 17.68 71.95-93.92 129.56-402.95 1.58-330 144 24.97 48.74 49.55 50.69 100 72 69.72 29.45 155.28 42.54 216.98 48.35"/>
            <path d="m1929.06 588.85 9.65 4.37-10.27 2.6z"/>
        </g>
        <g stroke="#000" class="edge">
            <path fill="none" d="M1833.95 244.89c-47.07 3.55-109.03 7.98-163.95 11.11-374.4 21.31-468.56 15.28-843 36-51.56 2.85-109.06 6.72-155.91 10.04"/>
            <path d="m671.47 305.52-10.23-2.78 9.73-4.2z"/>
        </g>
        <g stroke="#000" class="edge">
            <path fill="none" d="M1944.38 254.63C2020.2 287.4 2204.64 363.29 2367 400c146.49 33.13 192-6.66 336 36 33.92 10.05 37.85 23.65 71 36 44.81 16.69 96.88 29.76 138.31 38.74"/>
            <path d="m2912.9 507.28 9.05 5.51-10.51 1.34z"/>
        </g>
        <g stroke="#000" class="edge">
            <path fill="none" d="M1941.93 254.68c14.48 8.78 30 21.23 38.07 37.32 7.17 14.3 8.08 22.19 0 36-16.48 28.17-47.52 7.83-64 36-8.08 13.81-8.56 22.48 0 36 39.7 62.73 250.28 99.07 371.61 115.1"/>
            <path d="m2287.74 511.59 9.47 4.76-10.37 2.18z"/>
        </g>
        <g stroke="#000" class="edge">
            <path fill="none" d="M1943.85 254.57c71.7 31.51 241.53 103.4 390.15 145.43 65.57 18.54 141.7 32.59 197.54 41.54"/>
            <path d="m2531.96 438.07 9.33 5.02-10.42 1.89z"/>
        </g>
        <g stroke="#000" class="edge">
            <path fill="none" d="M1882.16 255.31c-35.79 20.86-101.77 56.23-163.16 72.69-90.27 24.2-342.77 40-495.02 47.63"/>
            <path d="m1224.42 379.12-10.17-3.01 9.82-3.99z"/>
        </g>
        <g stroke="#000" class="edge">
            <path fill="none" d="M1529.29 250.93c-10.04 1.91-20.45 3.7-30.29 5.07-200.48 27.9-252.72 14.67-454 36-16.21 1.72-33.54 3.83-50.04 5.98"/>
            <path d="m995.56 301.43-10.37-2.16 9.45-4.78z"/>
        </g>
        <g stroke="#000" class="edge">
            <path fill="none" d="M1543.41 253.7c-56.5 19.88-162.4 55.06-255.41 74.3-67.7 14.01-253.62-5.37-309 36-19.24 14.37-28.84 40.44-33.57 60.67"/>
            <path d="m948.9 425.18-5.42 9.1-1.44-10.49z"/>
        </g>
        <g stroke="#000" class="edge">
            <path fill="none" d="M1527.84 250.65c-9.61 1.87-19.5 3.73-28.84 5.35-94.01 16.35-202.48 31.95-275.16 41.94"/>
            <path d="m1224.37 301.4-10.38-2.11 9.43-4.82z"/>
        </g>
        <g stroke="#000" class="edge">
            <path fill="none" d="M1556.41 255.18C1482.17 297.95 1270.86 414.61 1080 472c-94.44 28.4-208.09 42.05-279.21 48.27"/>
            <path d="m801.52 523.72-10.26-2.64 9.67-4.34z"/>
        </g>
        <g stroke="#000" class="edge">
            <path fill="none" d="M1564.94 255.85C1530.48 287.48 1458.03 359.48 1422 436c-20.62 43.79-38.02 65.98-14 108 8.86 15.5 24.21 26.91 39.75 35.09"/>
            <path d="m1449.09 575.85 7.48 7.5-10.53-1.2z"/>
        </g>
        <g stroke="#000" class="edge">
            <path fill="none" d="m1595.14 255.95 17.25 26.26"/>
            <path d="m1615.25 280.18 2.57 10.28-8.42-6.44z"/>
        </g>
        <g stroke="#000" class="edge">
            <path fill="none" d="M1655.15 245.25c46.57 3.82 108.78 8.41 163.85 10.75 78.82 3.35 2770.15-.68 2840 36 34.72 18.23 37.21 35.29 51 72 26.22 69.76 27.2 159.05 25.64 204.16"/>
            <path d="m4739.13 568.3-3.92 9.84-3.07-10.14z"/>
        </g>
        <g stroke="#000" class="edge">
            <path fill="none" d="M1648.31 248.13c26.48 7.28 54.66 20.36 70.69 43.87 9.01 13.22 8.62 22.52 0 36-20.58 32.16-49.48 10.61-78 36-28.01 24.93-33.84 35.9-44 72-13.78 48.98-3.63 78.74 38 108 45.87 32.24 196.76 45.03 292.88 49.99"/>
            <path d="m1927.99 590.49 9.81 3.99-10.16 3z"/>
        </g>
        <g stroke="#000" class="edge">
            <path fill="none" d="M1529.78 251.05c-10.19 1.92-20.78 3.69-30.78 4.95-296.74 37.43-373.46 17.85-672 36-51.45 3.13-108.82 7-155.62 10.26"/>
            <path d="m671.76 305.74-10.22-2.79 9.73-4.19z"/>
        </g>
        <g stroke="#000" class="edge">
            <path fill="none" d="M1634.38 251.99C1815.73 298.7 2429.31 456.19 2519 472c129.03 22.75 279.89 37.79 374.7 45.85"/>
            <path d="m2893.8 514.35 9.67 4.32-10.26 2.65z"/>
        </g>
        <g stroke="#000" class="edge">
            <path fill="none" d="M1655.69 244.87c46.52 3.64 108.47 8.17 163.31 11.13 447.63 24.18 561.04 1.51 1008 36 17.86 1.38 36.92 3.32 55.11 5.39"/>
            <path d="m2882.27 293.89 9.53 4.63-10.34 2.32z"/>
        </g>
        <g stroke="#000" class="edge">
            <path fill="none" d="M1165.7 251.92c-51.69 11.86-128.3 29.45-182.82 41.96"/>
            <path d="m983.95 297.23-10.53-1.18 8.96-5.65z"/>
        </g>
        <g stroke="#000" class="edge">
            <path fill="none" d="M1145.59 246.66C1033.71 258.24 837.39 280.12 827 292c-40.19 45.94 30.83 105.95 77.7 138.17"/>
            <path d="m906.39 427.09 6.35 8.48-10.25-2.67z"/>
        </g>
        <g stroke="#000" class="edge">
            <path fill="none" d="M1202.39 255.95c-10.05 8.68-22.46 19.41-33.49 28.94"/>
            <path d="m1171.43 287.33-9.86 3.89 5.28-9.19z"/>
        </g>
        <g stroke="#000" class="edge">
            <path fill="none" d="M1143.92 245.97C1015.39 257.71 771.79 281.22 756 292c-64.49 44.04-45.73 153.13-32.33 204.88"/>
            <path d="m727.02 495.85-.76 10.57-6-8.73z"/>
        </g>
        <g stroke="#000" class="edge">
            <path fill="none" d="M1143.61 245.63c-39.21 3.26-87.41 7.16-130.61 10.37-59.3 4.41-493.39-7.44-534 36-10.93 11.69-2.76 20.24 0 36 20.42 116.65 44.1 177.24 156 216 144.85 50.17 607.9 54.02 789.2 53.53"/>
            <path d="m1423.95 594.03 10.01 3.47-9.99 3.53z"/>
        </g>
        <g stroke="#000" class="edge">
            <path fill="none" d="M1285.61 250.47c10.48 1.86 21.24 3.76 31.39 5.53 81.83 14.25 175.78 30.09 239.23 40.71"/>
            <path d="m1556.54 293.21 9.29 5.1-10.44 1.81z"/>
        </g>
        <g stroke="#000" class="edge">
            <path fill="none" d="M1282.1 251.31c11.54 1.92 23.56 3.62 34.9 4.69 90.33 8.52 3185.64-6.12 3266 36 34.73 18.2 31.83 37.79 51 72 20.9 37.28 67.63 152.07 88.98 205.33"/>
            <path d="m4726.11 567.72.46 10.58-6.96-7.98z"/>
        </g>
        <g stroke="#000" class="edge">
            <path fill="none" d="M1230.85 256.11C1259.63 309.76 1356.52 475.25 1490 544c74.14 38.19 309.6 48.86 437.08 51.84"/>
            <path d="m1926.88 592.34 9.92 3.72-10.07 3.28z"/>
        </g>
        <g stroke="#000" class="edge">
            <path fill="none" d="M1142.37 245.13C1036.54 253.65 843.81 270.5 680 292c-8.37 1.1-17.11 2.36-25.8 3.69"/>
            <path d="m654.76 299.15-10.42-1.92 9.33-5z"/>
        </g>
        <g stroke="#000" class="edge">
            <path fill="none" d="M1258.88 254.6c48.03 19.75 134.97 53.59 212.12 73.4 524.44 134.7 1175.79 179.82 1418.71 192.59"/>
            <path d="m2889.65 517.08 9.81 4.02-10.17 2.97z"/>
        </g>
        <g stroke="#000" class="edge">
            <path fill="none" d="M1282.37 251.23c11.45 1.92 23.38 3.64 34.63 4.77 667.92 67.32 840.39-11.68 1510 36 18.07 1.29 37.37 3.21 55.75 5.3"/>
            <path d="m2883.03 293.81 9.52 4.63-10.33 2.32z"/>
        </g>
        <g class="node" transform="translate(4 616)">
            <ellipse cx="6947" cy="-90" fill="none" stroke="#000" rx="106.11" ry="18"/>
            <text x="6947" y="-84.95" font-family="Times,serif" font-size="14" text-anchor="middle">:library:firebase-common</text>
        </g>
        <g stroke="#000" class="edge">
            <path fill="none" d="M6951 472.3v24.16"/>
            <path d="m6954.5 496.38-3.5 10-3.5-10z"/>
        </g>
        <g stroke="#000" class="edge">
            <path fill="none" d="M1065.02 399.41c-22.73 9.82-51.83 22.39-76.12 32.89"/>
            <path d="m990.42 435.46-10.57.75 7.79-7.18z"/>
        </g>
        <g stroke="#000" class="edge">
            <path fill="none" d="M1097.94 400.18c-7.01 20.58-21.74 54.46-46.94 71.82-39.52 27.23-168.52 41.73-249.86 48.35"/>
            <path d="m801.74 523.82-10.24-2.7 9.69-4.28z"/>
        </g>
        <g stroke="#000" class="edge">
            <path fill="none" d="M1110.81 400.29c16.63 34.49 59.13 111.27 121.19 143.71 30.48 15.93 502.26 39.91 696.45 49.17"/>
            <path d="m1928.39 589.66 9.82 3.97-10.15 3.02z"/>
        </g>
        <g stroke="#000" class="edge">
            <path fill="none" d="M3729.01 472.05c-17.55 19.23-48.15 50.59-79.01 71.95-18.92 13.09-41.56 24.67-61.3 33.64"/>
            <path d="m3590.33 580.75-10.57.85 7.73-7.25z"/>
        </g>
        <g stroke="#000" class="edge">
            <path fill="none" d="M4029.61 537.52c-112.68 13.71-307.93 37.48-414.3 50.43"/>
            <path d="m3615.89 591.41-10.35-2.27 9.51-4.68z"/>
        </g>
        <g stroke="#000" class="edge">
            <path fill="none" d="M4350.28 472.04c-24.46 21.13-69.59 56.25-115.28 71.96-110.96 38.16-452.99 48.93-611.63 51.9"/>
            <path d="m3623.85 599.39-10.06-3.32 9.93-3.68z"/>
        </g>
        <g stroke="#000" class="edge">
            <path fill="none" d="M6384.87 466.31c-83.95 20.41-270.12 62.65-429.87 77.69-338.75 31.88-2721.8 30.72-3062 36-293.19 4.55-641.17 11.8-797.99 15.17"/>
            <path d="m2095.18 598.67-10.07-3.29 9.92-3.71z"/>
        </g>
    </g>
</svg>
