<svg xmlns="http://www.w3.org/2000/svg" width="1640" height="476pt" viewBox="0 0 1230.48 476">
    <g class="graph">
        <path fill="#fff" d="M0 476V0h1230.48v476z"/>
        <g class="node" transform="translate(4 472)">
            <ellipse cx="744" cy="-450" fill="none" stroke="#000" rx="78.48" ry="18"/>
            <text x="744" y="-444.95" font-family="Times,serif" font-size="14" text-anchor="middle">:app:data:calendar</text>
        </g>
        <g class="node" transform="translate(4 472)">
            <ellipse cx="114" cy="-18" fill="none" stroke="#000" rx="78.99" ry="18"/>
            <text x="114" y="-12.95" font-family="Times,serif" font-size="14" text-anchor="middle">:library:coroutines</text>
        </g>
        <g stroke="#000" class="edge">
            <path fill="none" d="M675.65 29.23C488.68 46.29 4 97.07 4 165v146c0 51 45.28 94.12 78.76 119.03"/>
            <path d="m84.54 427 6.08 8.68-10.16-3z"/>
        </g>
        <g class="node" transform="translate(4 472)">
            <ellipse cx="918" cy="-18" fill="none" stroke="#000" rx="72.85" ry="18"/>
            <text x="918" y="-12.95" font-family="Times,serif" font-size="14" text-anchor="middle">:library:datetime</text>
        </g>
        <g stroke="#000" class="edge">
            <path fill="none" d="M814.67 31.76C888.73 45.68 998 80.52 998 165v146c0 45.22-30.33 89.97-52.67 116.81"/>
            <path d="m948.28 429.75-9.18 5.3 3.87-9.87z"/>
        </g>
        <g class="node" transform="translate(4 472)">
            <ellipse cx="1122" cy="-378" fill="none" stroke="#000" rx="100.48" ry="18"/>
            <text x="1122" y="-372.95" font-family="Times,serif" font-size="14" text-anchor="middle">:app:core:filter-database</text>
        </g>
        <g stroke="#000" class="edge">
            <path fill="none" d="M807.48 34.01c64.53 11.96 167.89 31.09 239.27 44.31"/>
            <path d="m1047.24 74.86 9.2 5.26-10.47 1.62z"/>
        </g>
        <g class="node" transform="translate(4 472)">
            <ellipse cx="503" cy="-378" fill="none" stroke="#000" rx="91.27" ry="18"/>
            <text x="503" y="-372.95" font-family="Times,serif" font-size="14" text-anchor="middle">:app:domain:calendar</text>
        </g>
        <g stroke="red" stroke-width="2" class="edge">
            <path fill="none" d="M700.67 36.75C662.63 47.8 608.92 63.4 567.7 75.37"/>
            <path fill="red" d="m570.19 78.29-10.58-.57 8.63-6.15z"/>
        </g>
        <g stroke="#000" class="edge">
            <path fill="none" d="M420.34 99.82C322.5 106.49 170.39 120.89 120 148c-46.32 24.92-78 36.4-78 89v74c0 45.22 30.33 89.97 52.67 116.81"/>
            <path d="m97.03 425.18 3.87 9.87-9.18-5.3z"/>
        </g>
        <g stroke="#000" class="edge">
            <path fill="none" d="M585.91 103.34C715.69 119.26 960 159.53 960 237v74c0 40.82-14.84 86.07-25.97 114.28"/>
            <path d="m937.28 426.57-7.02 7.94.54-10.59z"/>
        </g>
        <g class="node" transform="translate(4 472)">
            <ellipse cx="282" cy="-18" fill="none" stroke="#000" rx="71.31" ry="18"/>
            <text x="282" y="-12.95" font-family="Times,serif" font-size="14" text-anchor="middle">:app:core:model</text>
        </g>
        <g stroke="#000" class="edge">
            <path fill="none" d="M431.15 104.4C308.45 121.74 80 163.86 80 237v74c0 70.33 82.41 108.5 142.99 127.06"/>
            <path d="m223.96 434.7 8.61 6.17-10.59.54z"/>
        </g>
        <g class="node" transform="translate(4 472)">
            <ellipse cx="576" cy="-18" fill="none" stroke="#000" rx="85.13" ry="18"/>
            <text x="576" y="-12.95" font-family="Times,serif" font-size="14" text-anchor="middle">:common:exception</text>
        </g>
        <g stroke="#000" class="edge">
            <path fill="none" d="M521.15 112.02C547.07 144.49 601.13 218.61 619 292c11.35 46.64 16.25 62.48 1 108-3.26 9.74-9.1 19.12-15.33 27.22"/>
            <path d="m607.37 429.45-9.09 5.45 3.7-9.92z"/>
        </g>
        <g class="node" transform="translate(4 472)">
            <ellipse cx="765" cy="-18" fill="none" stroke="#000" rx="62.1" ry="18"/>
            <text x="765" y="-12.95" font-family="Times,serif" font-size="14" text-anchor="middle">:library:kotlin</text>
        </g>
        <g stroke="#000" class="edge">
            <path fill="none" d="M575.27 106.29C683.91 126.22 884 171.78 884 237v74c0 51.61-46.45 94.98-80.31 119.73"/>
            <path d="m805.94 433.42-10.18 2.92 6.14-8.63z"/>
        </g>
        <g class="node" transform="translate(4 472)">
            <ellipse cx="421" cy="-90" fill="none" stroke="#000" rx="88.71" ry="18"/>
            <text x="421" y="-84.95" font-family="Times,serif" font-size="14" text-anchor="middle">:app:domain:account</text>
        </g>
        <g stroke="#000" class="edge">
            <path fill="none" d="M432.11 104.67C380.39 113.07 318.12 127.18 302 148c-53.5 69.09 41.34 164.81 92.92 208.95"/>
            <path d="m397.13 354.24 5.41 9.11-9.91-3.75z"/>
        </g>
        <g class="node" transform="translate(4 472)">
            <ellipse cx="391" cy="-306" fill="none" stroke="#000" rx="84.11" ry="18"/>
            <text x="391" y="-300.95" font-family="Times,serif" font-size="14" text-anchor="middle">:app:domain:memo</text>
        </g>
        <g stroke="red" stroke-width="2" class="edge">
            <path fill="none" d="M480.46 111.59c-14.79 9.24-33.4 20.87-49.48 30.92"/>
            <path fill="red" d="m434.25 144.59-10.33 2.34 6.62-8.27z"/>
        </g>
        <g class="node" transform="translate(4 472)">
            <ellipse cx="499" cy="-234" fill="none" stroke="#000" rx="71.31" ry="18"/>
            <text x="499" y="-228.95" font-family="Times,serif" font-size="14" text-anchor="middle">:app:domain:tag</text>
        </g>
        <g stroke="#000" class="edge">
            <path fill="none" d="M506.51 112.41c-.68 23.98-1.9 67.45-2.71 96.17"/>
            <path d="m507.3 208.48-3.78 9.9-3.21-10.1z"/>
        </g>
        <g stroke="#000" class="edge">
            <path fill="none" d="M367.62 396.08c-52.29 11.93-129.46 29.52-184.13 41.99"/>
            <path d="M184.53 441.42 174 440.23l8.97-5.63z"/>
        </g>
        <g stroke="#000" class="edge">
            <path fill="none" d="M502.51 391.09C586.08 400.22 722.87 416.41 840 436c5.68.95 11.57 2.01 17.46 3.13"/>
            <path d="m858.11 435.69 9.14 5.35-10.48 1.52z"/>
        </g>
        <g stroke="red" stroke-width="2" class="edge">
            <path fill="none" d="M392.76 399.24c-19.48 9.81-44.52 22.41-65.44 32.95"/>
            <path fill="red" d="m330.32 434.6-10.51 1.37 7.36-7.62z"/>
        </g>
        <g stroke="#000" class="edge">
            <path fill="none" d="m460.17 398.88 74.6 33.69"/>
            <path d="m535.91 429.25 7.68 7.31-10.56-.93z"/>
        </g>
        <g stroke="#000" class="edge">
            <path fill="none" d="M486.1 395.43c62.62 12.75 159.42 32.44 221.97 45.17"/>
            <path d="m708.75 437.17 9.1 5.42-10.5 1.44z"/>
        </g>
        <g stroke="#000" class="edge">
            <path fill="none" d="M313.06 170.4c-40.75 5.78-88 19.25-120.06 49.6-58.18 55.08-71.34 155.39-74.24 204.45"/>
            <path d="m122.26 424.42-3.97 9.83-3.02-10.16z"/>
        </g>
        <g stroke="#000" class="edge">
            <path fill="none" d="M467.32 175.5c46.45 7.42 107.15 20.85 156.68 44.5 114.89 54.86 226.66 160.25 274.16 208.18"/>
            <path d="m900.43 425.5 4.51 9.59-9.5-4.69z"/>
        </g>
        <g stroke="#000" class="edge">
            <path fill="none" d="M330.93 177.92c-44.86 9.1-99.14 23.55-112.93 42.08-47.77 64.17-35.11 108.12 0 180 6.11 12.5 16.75 22.92 27.82 31.11"/>
            <path d="m247.6 428.08 6.29 8.53-10.24-2.75z"/>
        </g>
        <g stroke="#000" class="edge">
            <path fill="none" d="M380.77 183.98C347.79 225.47 272.94 333.44 327 400c20.42 25.14 98.24 38.78 162.24 45.89"/>
            <path d="m489.52 442.4 9.58 4.55-10.32 2.42z"/>
        </g>
        <g stroke="#000" class="edge">
            <path fill="none" d="M461.8 177.22c37.48 7.79 84.04 21 121.2 42.78 78.09 45.76 91.92 69.98 144 144 13.35 18.98 24.36 42.87 31.75 61.12"/>
            <path d="m761.94 423.66.38 10.59-6.9-8.04z"/>
        </g>
        <g stroke="#000" class="edge">
            <path fill="none" d="M392.6 184.26c-3.56 29.86-8.56 92.81 4.4 143.74 2.25 8.84 6.24 17.83 10.51 25.84"/>
            <path d="m410.48 351.98 1.94 10.42-8.01-6.94z"/>
        </g>
        <g stroke="red" stroke-width="2" class="edge">
            <path fill="none" d="M420.59 183.59c14.36 9.31 32.47 21.04 48.05 31.14"/>
            <path fill="red" d="m468.93 210.75 6.49 8.38-10.29-2.51z"/>
        </g>
        <g class="node" transform="translate(4 472)">
            <ellipse cx="499" cy="-162" fill="none" stroke="#000" rx="86.67" ry="18"/>
            <text x="499" y="-156.95" font-family="Times,serif" font-size="14" text-anchor="middle">:app:domain:backup</text>
        </g>
        <g stroke="#000" class="edge">
            <path fill="none" d="M396.95 184.3c2.91 19.17 9.88 50.22 26.05 71.7 9.42 12.52 22.71 22.99 35.76 31.23"/>
            <path d="m460.52 284.2 6.81 8.12-10.39-2.1z"/>
        </g>
        <g stroke="#000" class="edge">
            <path fill="none" d="M455.77 251.87c-30.7 9.24-71.13 23.04-104.77 40.13-78.65 39.96-161.51 103-204.05 137.13"/>
            <path d="m149.17 431.84-9.98 3.57 5.58-9.01z"/>
        </g>
        <g stroke="#000" class="edge">
            <path fill="none" d="M548.22 252.22c30.51 9.55 71.33 23.59 105.78 39.78 88.89 41.77 186 104.92 235.31 138.36"/>
            <path d="m890.98 427.26 6.29 8.53-10.23-2.74z"/>
        </g>
        <g stroke="#000" class="edge">
            <path fill="none" d="M465.94 253.84C444.76 263.2 418.26 276.45 397 292c-36.02 26.35-44.74 35.2-70 72-13.07 19.05-23.82 42.94-31.02 61.17"/>
            <path d="m299.34 426.18-6.84 8.1.3-10.59z"/>
        </g>
        <g stroke="#000" class="edge">
            <path fill="none" d="M548.16 252.36c19.21 8.18 39.71 20.79 50.84 39.64 24.42 41.38 7.82 99.16-5.94 133.07"/>
            <path d="m596.3 426.38-7.15 7.83.71-10.58z"/>
        </g>
        <g stroke="#000" class="edge">
            <path fill="none" d="M544.03 253.18c23.21 9.1 52.07 22.31 74.97 38.82 54.38 39.21 104.7 100.33 130.96 134.88"/>
            <path d="m752.61 424.58 3.2 10.1-8.8-5.9z"/>
        </g>
        <g stroke="#000" class="edge">
            <path fill="none" d="M457.84 252.36c-19.21 8.18-39.71 20.79-50.84 39.64-11 18.64-5.03 42.88 2.88 61.36"/>
            <path d="m413.04 351.84 1.1 10.54-7.43-7.55z"/>
        </g>
        <g stroke="red" stroke-width="2" class="edge">
            <path fill="none" d="M503 256.3v24.16"/>
            <path fill="red" d="m506.5 278.87-3.5 10-3.5-10z"/>
        </g>
        <g stroke="#000" class="edge">
            <path fill="none" d="M451.68 324.84C416.31 334.77 368.4 349 327 364c-57.99 21.01-123.12 49.56-165.03 68.6"/>
            <path d="m163.5 435.75-10.55.97 7.64-7.34z"/>
        </g>
        <g stroke="#000" class="edge">
            <path fill="none" d="M547.05 325.93c77.82 26.37 239.26 81.08 322.61 109.33"/>
            <path d="m870.62 431.89 8.35 6.53-10.59.1z"/>
        </g>
        <g stroke="#000" class="edge">
            <path fill="none" d="M514.57 328.31c11.42 19.46 24.96 51.05 8.43 71.69-19.79 24.7-97.9 38.66-159.11 45.98"/>
            <path d="m364.52 449.43-10.34-2.33 9.54-4.62z"/>
        </g>
        <g stroke="#000" class="edge">
            <path fill="none" d="M524.56 327.83c10.88 9.54 23.43 22.32 31.44 36.17 10.73 18.55 16.8 42.04 20.15 60.23"/>
            <path d="m579.6 423.65-1.83 10.44-5.07-9.3z"/>
        </g>
        <g stroke="#000" class="edge">
            <path fill="none" d="M533.51 327.29c48.62 25.95 143.59 76.65 196.87 105.09"/>
            <path d="m731.95 429.25 7.17 7.8-10.47-1.62z"/>
        </g>
        <g stroke="red" stroke-width="2" class="edge">
            <path fill="none" d="M484.12 327.95c-9.51 8.53-21.22 19.04-31.7 28.44"/>
            <path fill="red" d="m456.01 357.87-9.78 4.08 5.11-9.29z"/>
        </g>
    </g>
</svg>
