<svg xmlns="http://www.w3.org/2000/svg" width="1652" height="332pt" viewBox="0 0 1238.58 332">
    <g class="graph">
        <path fill="#fff" d="M0 332V0h1238.58v332z"/>
        <g class="node" transform="translate(4 328)">
            <ellipse cx="470.99" cy="-306" fill="none" stroke="#000" rx="83.6" ry="18"/>
            <text x="470.99" y="-300.95" font-family="Times,serif" font-size="14" text-anchor="middle">:app:data:credential</text>
        </g>
        <g class="node" transform="translate(4 328)">
            <ellipse cx="78.99" cy="-18" fill="none" stroke="#000" rx="78.99" ry="18"/>
            <text x="78.99" y="-12.95" font-family="Times,serif" font-size="14" text-anchor="middle">:library:coroutines</text>
        </g>
        <g stroke="#000" class="edge">
            <path fill="none" d="M394.63 27.36C306.68 33.51 172.61 47.34 130.99 76c-57.54 39.62-52.68 74.91-63 144-2.36 15.82-2.2 20.15 0 36 1.13 8.15 3.19 16.8 5.44 24.7"/>
            <path d="m76.74 279.56-.43 10.59-6.27-8.55z"/>
        </g>
        <g class="node" transform="translate(4 328)">
            <ellipse cx="248.99" cy="-18" fill="none" stroke="#000" rx="72.85" ry="18"/>
            <text x="248.99" y="-12.95" font-family="Times,serif" font-size="14" text-anchor="middle">:library:datetime</text>
        </g>
        <g stroke="#000" class="edge">
            <path fill="none" d="M391.81 24.23c-89 6.32-226.32 31.58-292.82 123.77-17.66 24.48 14.29 101.66 20 108 17.19 19.11 42.17 31.42 65.92 39.31"/>
            <path d="m185.73 291.9 8.53 6.29-10.59.4z"/>
        </g>
        <g class="node" transform="translate(4 328)">
            <ellipse cx="889.99" cy="-162" fill="none" stroke="#000" rx="121.98" ry="18"/>
            <text x="889.99" y="-156.95" font-family="Times,serif" font-size="14" text-anchor="middle">:app:core:account-preferences</text>
        </g>
        <g stroke="#000" class="edge">
            <path fill="none" d="M518.64 37.79c76.01 25.76 232.62 78.84 317.54 107.62"/>
            <path d="m837.14 142.04 8.35 6.52-10.6.11z"/>
        </g>
        <g class="node" transform="translate(4 328)">
            <ellipse cx="1039.99" cy="-234" fill="none" stroke="#000" rx="95.88" ry="18"/>
            <text x="1039.99" y="-228.95" font-family="Times,serif" font-size="14" text-anchor="middle">:app:core:diary-service</text>
        </g>
        <g stroke="#000" class="edge">
            <path fill="none" d="M546.19 31.76c103.35 12.71 294.9 36.28 407.87 50.18"/>
            <path d="m954.41 78.45 9.5 4.7-10.35 2.25z"/>
        </g>
        <g class="node" transform="translate(4 328)">
            <ellipse cx="470.99" cy="-234" fill="none" stroke="#000" rx="96.39" ry="18"/>
            <text x="470.99" y="-228.95" font-family="Times,serif" font-size="14" text-anchor="middle">:app:domain:credential</text>
        </g>
        <g stroke="red" stroke-width="2" class="edge">
            <path fill="none" d="M474.99 40.3v24.16"/>
            <path fill="red" d="m478.49 62.87-3.5 10-3.5-10z"/>
        </g>
        <g stroke="#000" class="edge">
            <path fill="none" d="M1009.2 111.24c-20.62 9.62-47 21.93-69.31 32.34"/>
            <path d="M941.55 146.67 931 147.73l7.59-7.4z"/>
        </g>
        <g class="node" transform="translate(4 328)">
            <ellipse cx="714.99" cy="-18" fill="none" stroke="#000" rx="71.31" ry="18"/>
            <text x="714.99" y="-12.95" font-family="Times,serif" font-size="14" text-anchor="middle">:app:core:model</text>
        </g>
        <g stroke="#000" class="edge">
            <path fill="none" d="M1044.84 112.45c.01 19.6-2.92 51.31-19.85 71.55-58.55 69.98-162.4 101.25-232.71 114.9"/>
            <path d="m793.26 302.28-10.47-1.61 9.19-5.27z"/>
        </g>
        <g class="node" transform="translate(4 328)">
            <ellipse cx="915.99" cy="-18" fill="none" stroke="#000" rx="85.13" ry="18"/>
            <text x="915.99" y="-12.95" font-family="Times,serif" font-size="14" text-anchor="middle">:common:exception</text>
        </g>
        <g stroke="#000" class="edge">
            <path fill="none" d="M1122.45 104.63c62.51 11.19 134.9 34.22 104.54 79.37-48.72 72.45-147.52 102.93-219.92 115.74"/>
            <path d="m1008.07 303.12-10.44-1.8 9.28-5.11z"/>
        </g>
        <g class="node" transform="translate(4 328)">
            <ellipse cx="1140.99" cy="-162" fill="none" stroke="#000" rx="72.85" ry="18"/>
            <text x="1140.99" y="-156.95" font-family="Times,serif" font-size="14" text-anchor="middle">:common:model</text>
        </g>
        <g stroke="#000" class="edge">
            <path fill="none" d="M1068.18 111.77c13.21 9.15 29.76 20.62 44.11 30.57"/>
            <path d="m1113.87 139.18 6.23 8.57-10.21-2.82z"/>
        </g>
        <g stroke="#000" class="edge">
            <path fill="none" d="M378.71 95.5C280.2 98.22 136.42 109 98.99 148c-33.73 35.14-29.11 96.54-22.61 132.51"/>
            <path d="m79.78 279.68-1.48 10.49-5.38-9.12z"/>
        </g>
        <g stroke="#000" class="edge">
            <path fill="none" d="M378.55 95.52c-94.84 2.81-230.12 13.75-263.56 52.48-43.27 50.1 42.33 109.25 97.11 140.02"/>
            <path d="m213.53 284.81 7.07 7.89-10.45-1.76z"/>
        </g>
        <g stroke="#000" class="edge">
            <path fill="none" d="M547.79 106.17c37.15 7.89 82.01 20.89 118.2 41.83 39.44 22.82 55.42 29.96 73 72 8.25 19.72 2.24 43.39-5.29 61.36"/>
            <path d="m736.92 282.73-7.35 7.62.99-10.55z"/>
        </g>
        <g stroke="#000" class="edge">
            <path fill="none" d="M553.87 104.71c45.94 7.68 104.08 20.95 152.12 43.29 39.6 18.42 136.35 96.53 185.03 136.79"/>
            <path d="m893.17 282.03 5.47 9.08-9.94-3.69z"/>
        </g>
        <g class="node" transform="translate(4 328)">
            <ellipse cx="508.99" cy="-18" fill="none" stroke="#000" rx="62.1" ry="18"/>
            <text x="508.99" y="-12.95" font-family="Times,serif" font-size="14" text-anchor="middle">:library:kotlin</text>
        </g>
        <g stroke="#000" class="edge">
            <path fill="none" d="M564.59 100.76c31.84 6.89 64.66 20.6 84.4 47.24 18.78 25.35-16.74 101.96-22 108-15.07 17.32-37 29.35-57.6 37.52"/>
            <path d="m570.79 296.73-10.6.19 8.17-6.75z"/>
        </g>
        <g class="node" transform="translate(4 328)">
            <ellipse cx="197.99" cy="-162" fill="none" stroke="#000" rx="78.48" ry="18"/>
            <text x="197.99" y="-156.95" font-family="Times,serif" font-size="14" text-anchor="middle">:app:domain:fetch</text>
        </g>
        <g stroke="red" stroke-width="2" class="edge">
            <path fill="none" d="M419.74 109.17c-45.14 11.57-108.94 27.93-155.81 39.95"/>
            <path fill="red" d="m266.49 152.07-10.55-.9 8.81-5.88z"/>
        </g>
        <g class="node" transform="translate(4 328)">
            <ellipse cx="380.99" cy="-162" fill="none" stroke="#000" rx="86.67" ry="18"/>
            <text x="380.99" y="-156.95" font-family="Times,serif" font-size="14" text-anchor="middle">:app:domain:backup</text>
        </g>
        <g stroke="#000" class="edge">
            <path fill="none" d="M453.2 111.95c-11.27 8.77-25.23 19.62-37.57 29.22"/>
            <path d="m417.81 143.91-10.04 3.37 5.74-8.9z"/>
        </g>
        <g class="node" transform="translate(4 328)">
            <ellipse cx="560.99" cy="-162" fill="none" stroke="#000" rx="74.89" ry="18"/>
            <text x="560.99" y="-156.95" font-family="Times,serif" font-size="14" text-anchor="middle">:app:domain:fcm</text>
        </g>
        <g stroke="#000" class="edge">
            <path fill="none" d="M496.78 111.95c11.47 8.92 25.71 19.99 38.21 29.71"/>
            <path d="m536.77 138.62 5.75 8.9-10.04-3.37z"/>
        </g>
        <g stroke="#000" class="edge">
            <path fill="none" d="M165.83 182.42c-17.09 8.85-36.61 21.44-49.84 37.58-14.3 17.44-22.74 41.66-27.5 60.43"/>
            <path d="m91.92 281.14-5.65 8.96-1.17-10.53z"/>
        </g>
        <g stroke="#000" class="edge">
            <path fill="none" d="M206.83 184.24c5.21 18.07 13.99 47.17 23.16 71.76 3.13 8.4 6.88 17.39 10.43 25.54"/>
            <path d="m243.59 280.06.87 10.56-7.26-7.72z"/>
        </g>
        <g stroke="#000" class="edge">
            <path fill="none" d="M256.97 179.16c33.55 8.69 76.64 22.17 112.02 40.84 22.96 12.12 22.28 25.45 46 36 20.91 9.3 149.38 29.8 232.48 42.41"/>
            <path d="m647.77 294.91 9.36 4.95-10.41 1.97z"/>
        </g>
        <g stroke="#000" class="edge">
            <path fill="none" d="M258.5 178.74c10.13 1.9 20.6 3.74 30.49 5.26 142.34 21.83 180.75 7.97 322 36 91.05 18.07 194.17 50.21 255.28 70.52"/>
            <path d="m867 287.07 8.37 6.5-10.59.14z"/>
        </g>
        <g stroke="#000" class="edge">
            <path fill="none" d="M234.82 182.69c37.79 17.98 101.76 48.2 157.17 73.31 25.34 11.48 53.83 23.98 76.79 33.96"/>
            <path d="m470.07 286.7 7.79 7.19-10.57-.77z"/>
        </g>
        <g class="node" transform="translate(4 328)">
            <ellipse cx="508.99" cy="-90" fill="none" stroke="#000" rx="88.71" ry="18"/>
            <text x="508.99" y="-84.95" font-family="Times,serif" font-size="14" text-anchor="middle">:app:domain:account</text>
        </g>
        <g stroke="red" stroke-width="2" class="edge">
            <path fill="none" d="M256.52 179.27c52.18 11.75 131.08 29.51 187.58 42.23"/>
            <path fill="red" d="m443.15 217.69 8.99 5.61-10.53 1.22z"/>
        </g>
        <g stroke="#000" class="edge">
            <path fill="none" d="M323.33 178.96c-63.44 12.66-155 32.02-169.34 41.04-13.03 8.2-36.49 39.36-52.86 62.51"/>
            <path d="m104.07 284.43-8.6 6.19 2.86-10.2z"/>
        </g>
        <g stroke="#000" class="edge">
            <path fill="none" d="M354.49 183.11c-15.75 9.33-34.53 22.14-48.5 36.89-17.17 18.11-31.29 42.74-40.64 61.5"/>
            <path d="m268.56 282.91-7.48 7.49 1.17-10.52z"/>
        </g>
        <g stroke="#000" class="edge">
            <path fill="none" d="M448.61 178.56c56.45 10.86 134.21 27.49 162.38 41.44 32.58 16.13 63.97 43.81 84.43 64.03"/>
            <path d="m697.88 281.53 4.55 9.57-9.53-4.64z"/>
        </g>
        <g stroke="#000" class="edge">
            <path fill="none" d="M448.44 178.66c10.84 1.87 22.01 3.72 32.55 5.34 122.71 18.83 164.88-17.31 277 36 21.01 9.99 18.55 23.23 38 36 21.1 13.86 46.43 25.45 68.68 34.22"/>
            <path d="m865.82 286.91 8.08 6.85-10.59-.31z"/>
        </g>
        <g stroke="#000" class="edge">
            <path fill="none" d="M386.98 184.24c3.04 19.41 10.47 50.93 28.01 71.76 12.81 15.21 31.14 26.75 48.49 35.12"/>
            <path d="m464.49 287.74 7.66 7.32-10.55-.95z"/>
        </g>
        <g stroke="#000" class="edge">
            <path fill="none" d="M414.68 183.24c17.32 9.47 39.4 21.55 58.25 31.85"/>
            <path d="m474.6 212.02 7.09 7.86-10.45-1.72z"/>
        </g>
        <g stroke="#000" class="edge">
            <path fill="none" d="M510.32 178.52c-45.16 9.89-110.81 25.1-167.33 41.48-73.8 21.39-157.64 51.09-209.68 70.18"/>
            <path d="m134.71 293.39-10.59.17 8.17-6.74z"/>
        </g>
        <g stroke="#000" class="edge">
            <path fill="none" d="M519.94 180.79c-30.18 9.76-70.54 23.8-104.95 39.21-44.66 20-93.6 47.75-125.87 66.93"/>
            <path d="m290.93 289.92-10.38 2.13 6.79-8.14z"/>
        </g>
        <g stroke="#000" class="edge">
            <path fill="none" d="M634.94 172.88c31.37 6.54 65.62 19.94 85.05 47.12 12.43 17.38 11.14 41.96 7.32 60.88"/>
            <path d="m730.78 281.43-5.72 8.92-1.09-10.54z"/>
        </g>
        <g stroke="#000" class="edge">
            <path fill="none" d="M614.46 179.78c35.23 9.64 83.41 23.97 124.53 40.22 50.09 19.79 105.33 47.93 141.45 67.24"/>
            <path d="m882.07 284.15 7.15 7.82-10.46-1.66z"/>
        </g>
        <g stroke="#000" class="edge">
            <path fill="none" d="M584.2 183.73c18.41 18.13 41.39 47.77 26.79 72.27-9.8 16.44-26.67 28.09-43.68 36.2"/>
            <path d="m568.72 295.4-10.56.79 7.76-7.2z"/>
        </g>
        <g stroke="#000" class="edge">
            <path fill="none" d="M552.4 183.95c-5.91 7.96-13.11 17.64-19.72 26.54"/>
            <path d="m535.5 212.57-8.78 5.94 3.16-10.11z"/>
        </g>
        <g stroke="#000" class="edge">
            <path fill="none" d="M442.12 249.2c-69.25 10.15-177.6 26.52-271.13 42.8-6.04 1.05-12.3 2.18-18.57 3.34"/>
            <path d="m153.12 298.77-10.48-1.6 9.19-5.28z"/>
        </g>
        <g stroke="#000" class="edge">
            <path fill="none" d="M461 253c-43.03 11.58-104.17 28.04-149.02 40.12"/>
            <path d="m312.97 296.48-10.57-.78 8.75-5.98z"/>
        </g>
        <g stroke="red" stroke-width="2" class="edge">
            <path fill="none" d="M557.18 254.02c32.22 10.94 75.98 25.81 109.87 37.33"/>
            <path fill="red" d="m666.47 287.46 8.34 6.53-10.6.09z"/>
        </g>
        <g stroke="#000" class="edge">
            <path fill="none" d="M578.83 250.32c72.7 12.51 189.51 32.6 265.8 45.72"/>
            <path d="m844.83 292.52 9.26 5.15-10.45 1.75z"/>
        </g>
        <g stroke="#000" class="edge">
            <path fill="none" d="M512.99 256.3v24.16"/>
            <path d="m516.49 280.38-3.5 10-3.5-10z"/>
        </g>
    </g>
</svg>
