<svg xmlns="http://www.w3.org/2000/svg" width="1697pt" height="332pt" viewBox="0 0 1697.49 332">
    <g class="graph">
        <path fill="#fff" d="M0 332V0h1697.49v332z"/>
        <g class="node" transform="translate(4 328)">
            <ellipse cx="677.5" cy="-306" fill="none" stroke="#000" rx="88.71" ry="18"/>
            <text x="677.5" y="-300.95" font-family="Times,serif" font-size="14" text-anchor="middle">:app:feature:calendar</text>
        </g>
        <g class="node" transform="translate(4 328)">
            <ellipse cx="393.5" cy="-162" fill="none" stroke="#000" rx="101" ry="18"/>
            <text x="393.5" y="-156.95" font-family="Times,serif" font-size="14" text-anchor="middle">:app:core:design-system</text>
        </g>
        <g stroke="#000" class="edge">
            <path fill="none" d="M635.28 37.7c-25.87 9.2-58.17 22.32-84.78 38.3-21.37 12.83-22.06 22.49-43 36-18.86 12.17-40.94 23.34-60.35 32.26"/>
            <path d="m448.62 147.43-10.56.92 7.69-7.3z"/>
        </g>
        <g class="node" transform="translate(4 328)">
            <ellipse cx="811.5" cy="-234" fill="none" stroke="#000" rx="86.67" ry="18"/>
            <text x="811.5" y="-228.95" font-family="Times,serif" font-size="14" text-anchor="middle">:app:core:navigation</text>
        </g>
        <g stroke="#000" class="edge">
            <path fill="none" d="M712.58 39.24c18.43 9.63 42.02 21.95 61.96 32.36"/>
            <path d="m776.01 68.42 7.24 7.73-10.49-1.53z"/>
        </g>
        <g class="node" transform="translate(4 328)">
            <ellipse cx="189.5" cy="-90" fill="none" stroke="#000" rx="82.57" ry="18"/>
            <text x="189.5" y="-84.95" font-family="Times,serif" font-size="14" text-anchor="middle">:app:core:resources</text>
        </g>
        <g stroke="#000" class="edge">
            <path fill="none" d="M593.41 24.84C486.03 28.64 312.34 40.29 259.5 76c-44.04 29.76-58.72 94.67-63.59 132.35"/>
            <path d="m199.41 208.5-4.6 9.55-2.35-10.33z"/>
        </g>
        <g class="node" transform="translate(4 328)">
            <ellipse cx="541.5" cy="-90" fill="none" stroke="#000" rx="59.54" ry="18"/>
            <text x="541.5" y="-84.95" font-family="Times,serif" font-size="14" text-anchor="middle">:library:color</text>
        </g>
        <g stroke="#000" class="edge">
            <path fill="none" d="M665.66 40.15C644.85 63.3 608.07 106.47 583.5 148c-11.49 19.43-21.39 42.97-28.2 60.97"/>
            <path d="m558.64 210.03-6.74 8.18.17-10.6z"/>
        </g>
        <g class="node" transform="translate(4 328)">
            <ellipse cx="1022.5" cy="-18" fill="none" stroke="#000" rx="62.1" ry="18"/>
            <text x="1022.5" y="-12.95" font-family="Times,serif" font-size="14" text-anchor="middle">:library:kotlin</text>
        </g>
        <g stroke="#000" class="edge">
            <path fill="none" d="M768.99 25.46C815.56 30.84 871.33 44.22 911.5 76c34.67 27.43 83.66 149.44 104.72 205.12"/>
            <path d="m1019.4 279.62.23 10.6-6.79-8.14z"/>
        </g>
        <g class="node" transform="translate(4 328)">
            <ellipse cx="79.5" cy="-162" fill="none" stroke="#000" rx="79.5" ry="18"/>
            <text x="79.5" y="-156.95" font-family="Times,serif" font-size="14" text-anchor="middle">:library:navigation</text>
        </g>
        <g stroke="#000" class="edge">
            <path fill="none" d="M594.09 25.54C470.15 30.27 250.42 43.11 178.5 76c-30.79 14.08-58.08 42.17-75.42 63.04"/>
            <path d="m106 140.99-9 5.59 3.55-9.98z"/>
        </g>
        <g class="node" transform="translate(4 328)">
            <ellipse cx="1610.5" cy="-18" fill="none" stroke="#000" rx="78.99" ry="18"/>
            <text x="1610.5" y="-12.95" font-family="Times,serif" font-size="14" text-anchor="middle">:library:coroutines</text>
        </g>
        <g stroke="#000" class="edge">
            <path fill="none" d="M767.75 26.64C926.26 33.82 1257.93 51.29 1370.5 76c89.83 19.72 123 13.54 194 72 28.95 23.84 32.63 36.26 44 72 6.22 19.55 7.61 42.69 7.5 60.47"/>
            <path d="m1619.5 280.39-3.73 9.92-3.26-10.08z"/>
        </g>
        <g class="node" transform="translate(4 328)">
            <ellipse cx="832.5" cy="-18" fill="none" stroke="#000" rx="72.85" ry="18"/>
            <text x="832.5" y="-12.95" font-family="Times,serif" font-size="14" text-anchor="middle">:library:datetime</text>
        </g>
        <g stroke="#000" class="edge">
            <path fill="none" d="M685.49 40.47c5.15 19.33 15.68 50.51 34.01 71.53 20.44 23.44 40.32 11.92 60 36 16.95 20.74 38.37 92.39 49.5 132.77"/>
            <path d="m832.34 279.7-.75 10.57-6.01-8.73z"/>
        </g>
        <g class="node" transform="translate(4 328)">
            <ellipse cx="677.5" cy="-162" fill="none" stroke="#000" rx="89.23" ry="18"/>
            <text x="677.5" y="-156.95" font-family="Times,serif" font-size="14" text-anchor="middle">:library:shimmer-m3</text>
        </g>
        <g stroke="#000" class="edge">
            <path fill="none" d="M681.5 40.41v96.17"/>
            <path d="m685 136.38-3.5 10-3.5-10z"/>
        </g>
        <g class="node" transform="translate(4 328)">
            <ellipse cx="379.5" cy="-234" fill="none" stroke="#000" rx="115.33" ry="18"/>
            <text x="379.5" y="-228.95" font-family="Times,serif" font-size="14" text-anchor="middle">:app:core:calendar-compose</text>
        </g>
        <g stroke="#000" class="edge">
            <path fill="none" d="M625.1 36.25C577.39 47.46 508.69 63.59 456.74 75.8"/>
            <path d="m457.6 79.19-10.54-1.12 8.94-5.69z"/>
        </g>
        <g class="node" transform="translate(4 328)">
            <ellipse cx="1273.5" cy="-234" fill="none" stroke="#000" rx="84.11" ry="18"/>
            <text x="1273.5" y="-228.95" font-family="Times,serif" font-size="14" text-anchor="middle">:app:domain:memo</text>
        </g>
        <g stroke="red" stroke-width="2" class="edge">
            <path fill="none" d="M756.68 31.83c111.76 13.13 320.98 37.7 437.35 51.37"/>
            <path fill="red" d="m1192.81 79.53 9.52 4.64-10.34 2.31z"/>
        </g>
        <g class="node" transform="translate(4 328)">
            <ellipse cx="1138.5" cy="-90" fill="none" stroke="#000" rx="87.69" ry="18"/>
            <text x="1138.5" y="-84.95" font-family="Times,serif" font-size="14" text-anchor="middle">:app:domain:holiday</text>
        </g>
        <g stroke="#000" class="edge">
            <path fill="none" d="M763.52 29.28C817.08 35.8 887.42 49.07 944.5 76c72.15 34.04 140.76 99.84 175.12 135.89"/>
            <path d="m1121.86 209.17 4.31 9.68-9.4-4.88z"/>
        </g>
        <g stroke="#000" class="edge">
            <path fill="none" d="M352.23 182.54c-31.01 10.63-72.27 24.79-104.95 36.01"/>
            <path d="m248.58 221.8-10.59-.06 8.32-6.56z"/>
        </g>
        <g stroke="#000" class="edge">
            <path fill="none" d="M431.83 183.24c21.52 10.18 49.41 23.36 72.17 34.13"/>
            <path d="m505.47 214.2 7.55 7.44-10.54-1.12z"/>
        </g>
        <g stroke="#000" class="edge">
            <path fill="none" d="M407.57 184.36c13.04 20.77 37.85 54.84 68.93 71.64 46.83 25.31 188.04 40.27 279.06 47.53"/>
            <path d="m755.74 300.04 9.7 4.26-10.24 2.71z"/>
        </g>
        <g stroke="#000" class="edge">
            <path fill="none" d="M817.18 112.15c3.61 36.71 12.09 123.19 16.52 168.32"/>
            <path d="m837.17 279.97-2.51 10.29-4.46-9.61z"/>
        </g>
        <g stroke="#000" class="edge">
            <path fill="none" d="M81.42 184.39c-1.37 20.47-.04 53.91 20.08 71.61 47.93 42.17 467.91 50.8 650.66 52.56"/>
            <path d="m752.1 305.06 9.97 3.59-10.03 3.41z"/>
        </g>
        <g stroke="#000" class="edge">
            <path fill="none" d="M649.96 183.24c-19.47 10.02-44.6 22.95-65.33 33.62"/>
            <path d="m586.39 219.89-10.49 1.46 7.29-7.68z"/>
        </g>
        <g stroke="#000" class="edge">
            <path fill="none" d="M386.96 112.3c1.48 7.38 3.24 16.18 4.89 24.45"/>
            <path d="m395.25 135.92-1.47 10.49-5.39-9.12z"/>
        </g>
        <g stroke="#000" class="edge">
            <path fill="none" d="M327.31 110.15c-24.15 8.42-51.63 20.72-72.81 37.85-20.65 16.69-37.13 42.19-47.73 61.62"/>
            <path d="m209.93 211.12-7.73 7.23 1.53-10.48z"/>
        </g>
        <g stroke="#000" class="edge">
            <path fill="none" d="M442.31 109.84c22.68 8.16 47.4 20.36 65.19 38.16 16.53 16.53 26.31 41.38 31.8 60.62"/>
            <path d="m542.69 207.73-.88 10.56-5.9-8.8z"/>
        </g>
        <g stroke="#000" class="edge">
            <path fill="none" d="M333.31 110.6c-17.67 8.18-35.65 20.18-45.81 37.4-8.13 13.78-8.39 22.38 0 36 48.64 78.95 326.76 109.54 467.47 120.08"/>
            <path d="m754.87 300.56 9.72 4.22-10.23 2.76z"/>
        </g>
        <g stroke="#000" class="edge">
            <path fill="none" d="M1214.66 106.39c-60.78 14.71-149.61 46.85-191.16 113.61-11.18 17.96-9.55 42.14-5.61 60.77"/>
            <path d="m1021.25 279.8-.99 10.54-5.8-8.86z"/>
        </g>
        <g stroke="#000" class="edge">
            <path fill="none" d="M1351.31 102.98c65.48 8.35 155 23.3 183.19 45.02 43.28 33.35 64.78 96.37 74.05 132.89"/>
            <path d="m1611.87 279.74-1.08 10.53-5.73-8.91z"/>
        </g>
        <g stroke="#000" class="edge">
            <path fill="none" d="M1206.22 103.87c-46.03 7.57-106.32 21.04-155.72 44.13-76.16 35.59-151.5 101.23-189.18 136.71"/>
            <path d="m864.19 286.82-9.66 4.35 4.83-9.42z"/>
        </g>
        <g class="node" transform="translate(4 328)">
            <ellipse cx="1254.5" cy="-18" fill="none" stroke="#000" rx="71.31" ry="18"/>
            <text x="1254.5" y="-12.95" font-family="Times,serif" font-size="14" text-anchor="middle">:app:core:model</text>
        </g>
        <g stroke="#000" class="edge">
            <path fill="none" d="M1275.98 112.15c-3.26 36.71-10.94 123.19-14.95 168.32"/>
            <path d="m1264.54 280.61-4.38 9.65-2.6-10.27z"/>
        </g>
        <g class="node" transform="translate(4 328)">
            <ellipse cx="1428.5" cy="-18" fill="none" stroke="#000" rx="85.13" ry="18"/>
            <text x="1428.5" y="-12.95" font-family="Times,serif" font-size="14" text-anchor="middle">:common:exception</text>
        </g>
        <g stroke="#000" class="edge">
            <path fill="none" d="M1350.55 103.31c58.8 8.19 135.12 22.69 156.95 44.69 34.18 34.45 40.18 65.93 16 108-8.29 14.42-22.19 25.29-36.65 33.31"/>
            <path d="m1488.65 292.31-10.5 1.41 7.33-7.65z"/>
        </g>
        <g class="node" transform="translate(4 328)">
            <ellipse cx="1371.5" cy="-90" fill="none" stroke="#000" rx="88.71" ry="18"/>
            <text x="1371.5" y="-84.95" font-family="Times,serif" font-size="14" text-anchor="middle">:app:domain:account</text>
        </g>
        <g stroke="#000" class="edge">
            <path fill="none" d="M1282.34 112.22c5.84 18.83 16.93 49.31 33.16 71.78 7.66 10.61 17.81 20.59 27.57 28.96"/>
            <path d="m1345.17 210.16 5.51 9.05-9.95-3.64z"/>
        </g>
        <g class="node" transform="translate(4 328)">
            <ellipse cx="1407.5" cy="-162" fill="none" stroke="#000" rx="86.67" ry="18"/>
            <text x="1407.5" y="-156.95" font-family="Times,serif" font-size="14" text-anchor="middle">:app:domain:backup</text>
        </g>
        <g stroke="red" stroke-width="2" class="edge">
            <path fill="none" d="M1308.24 111.06c18.43 9.62 42.08 21.98 62.11 32.44"/>
            <path fill="red" d="m1370.51 139.64 7.24 7.73-10.48-1.53z"/>
        </g>
        <g stroke="#000" class="edge">
            <path fill="none" d="M1115.3 255.41c-15.89 9.6-36.14 21.81-53.29 32.16"/>
            <path d="m1064 290.46-10.37 2.17 6.75-8.16z"/>
        </g>
        <g stroke="#000" class="edge">
            <path fill="none" d="M1214.85 248.51c94.09 12.46 253.31 33.84 311.65 43.49 6.29 1.04 12.83 2.19 19.37 3.37"/>
            <path d="m1546.15 291.86 9.19 5.26-10.47 1.63z"/>
        </g>
        <g stroke="#000" class="edge">
            <path fill="none" d="M1085.66 252c-52.79 12.08-131.28 30.03-186.01 42.55"/>
            <path d="m900.7 297.9-10.53-1.18 8.97-5.64z"/>
        </g>
        <g stroke="#000" class="edge">
            <path fill="none" d="M1169.7 255.41c15.67 9.46 35.57 21.47 52.56 31.72"/>
            <path d="m1223.83 283.99 6.75 8.16-10.37-2.17z"/>
        </g>
        <g stroke="#000" class="edge">
            <path fill="none" d="M1197.73 252.33c48.23 11.64 118.3 28.56 169.33 40.87"/>
            <path d="m1367.6 289.73 8.9 5.75-10.54 1.06z"/>
        </g>
        <g stroke="#000" class="edge">
            <path fill="none" d="M1313.91 251.35c-63.78 12.8-162.83 32.66-226.39 45.41"/>
            <path d="m1088.44 300.15-10.49-1.47 9.12-5.4z"/>
        </g>
        <g stroke="#000" class="edge">
            <path fill="none" d="M1424.73 253.42c38.22 11.19 91.32 26.74 131.63 38.55"/>
            <path d="m1557.3 288.6 8.62 6.17-10.59.55z"/>
        </g>
        <g stroke="#000" class="edge">
            <path fill="none" d="M1301.56 248.26C1190.22 262.22 988.92 287.51 955.5 292c-15.06 2.03-31.18 4.28-46.54 6.46"/>
            <path d="m909.82 301.87-10.39-2.06 9.4-4.87z"/>
        </g>
        <g stroke="red" stroke-width="2" class="edge">
            <path fill="none" d="M1348.07 255.41c-15.81 9.46-35.88 21.47-53.02 31.72"/>
            <path fill="red" d="m1298.33 289.25-10.38 2.13 6.79-8.14z"/>
        </g>
        <g stroke="#000" class="edge">
            <path fill="none" d="M1389.3 255.95c6.72 8.25 14.94 18.35 22.41 27.51"/>
            <path d="m1414.27 281.07 3.6 9.97-9.02-5.55z"/>
        </g>
        <g stroke="#000" class="edge">
            <path fill="none" d="M1325.45 168.42c-95.25 3.42-240.57 14.73-279.95 51.58-16.24 15.2-20.37 40.59-20.79 60.38"/>
            <path d="m1028.21 280.27-3.38 10.05-3.62-9.96z"/>
        </g>
        <g stroke="#000" class="edge">
            <path fill="none" d="M1452.13 182.36c22.08 9.28 49.3 22.28 71.37 37.64 26.15 18.2 51.71 44.13 69.04 63.31"/>
            <path d="m1595.11 280.92 4.02 9.8-9.26-5.15z"/>
        </g>
        <g stroke="#000" class="edge">
            <path fill="none" d="M1327.81 170.98c-79.66 5.52-202.19 18.55-304.31 49.02-54.8 16.35-113.68 46.74-150.43 67.41"/>
            <path d="m875.05 290.31-10.42 1.9 6.96-7.99z"/>
        </g>
        <g stroke="#000" class="edge">
            <path fill="none" d="M1440.03 183.37c12.76 9.01 26.48 21.45 33.47 36.63 6.7 14.53 9.87 23.4 0 36-4.78 6.11-89.05 25.59-150.64 39.15"/>
            <path d="m1323.65 298.56-10.52-1.27 9.02-5.57z"/>
        </g>
        <g stroke="#000" class="edge">
            <path fill="none" d="M1458.19 181.35c18.43 8.21 37.7 20.57 48.31 38.65 8.1 13.8 7.31 21.77 0 36-6.55 12.75-17.76 23.13-29.49 31.2"/>
            <path d="m1479.16 289.98-10.32 2.4 6.57-8.31z"/>
        </g>
        <g stroke="red" stroke-width="2" class="edge">
            <path fill="none" d="M1402.6 184.3c-3.97 7.72-8.73 16.99-13.16 25.59"/>
            <path fill="red" d="m1393.37 209.91-7.69 7.29 1.46-10.49z"/>
        </g>
    </g>
</svg>
