<svg xmlns="http://www.w3.org/2000/svg" width="7384pt" height="548pt" viewBox="0 0 7383.58 548">
    <g class="graph">
        <path fill="#fff" d="M0 548V0h7383.58v548z"/>
        <g class="node" transform="translate(4 544)">
            <ellipse cx="3592" cy="-522" fill="none" stroke="#000" rx="97.41" ry="18"/>
            <text x="3592" y="-516.95" font-family="Times,serif" font-size="14" text-anchor="middle">:app:platform:common</text>
        </g>
        <g class="node" transform="translate(4 544)">
            <ellipse cx="1238" cy="-306" fill="none" stroke="#000" rx="81.04" ry="18"/>
            <text x="1238" y="-300.95" font-family="Times,serif" font-size="14" text-anchor="middle">:app:core:compose</text>
        </g>
        <g stroke="#000" class="edge">
            <path fill="none" d="M3498.65 23.95C3070.73 28.29 1375.93 47.27 1329 76c-48.01 29.39-71.24 95.22-80.99 132.97"/>
            <path d="m1251.52 209.34-5.76 8.9-1.04-10.55z"/>
        </g>
        <g class="node" transform="translate(4 544)">
            <ellipse cx="1247" cy="-234" fill="none" stroke="#000" rx="101" ry="18"/>
            <text x="1247" y="-228.95" font-family="Times,serif" font-size="14" text-anchor="middle">:app:core:design-system</text>
        </g>
        <g stroke="#000" class="edge">
            <path fill="none" d="M3498.24 22.62C3034.69 21.1 1069.4 18.16 802 76c-79 17.09-118.03 7.7-167 72-29.21 38.35-42.62 72.5-10 108 17.27 18.8 344.24 38.45 518.58 47.65"/>
            <path d="m1143.52 300.15 9.81 4.02-10.17 2.97z"/>
        </g>
        <g class="node" transform="translate(4 544)">
            <ellipse cx="1867" cy="-306" fill="none" stroke="#000" rx="86.67" ry="18"/>
            <text x="1867" y="-300.95" font-family="Times,serif" font-size="14" text-anchor="middle">:app:core:navigation</text>
        </g>
        <g stroke="#000" class="edge">
            <path fill="none" d="M3498.82 23.38C3221.99 24.98 2432.8 33.27 2178 76c-108.57 18.21-146.12 9.87-237 72-23.36 15.97-42.57 42.11-54.93 61.94"/>
            <path d="m1889.18 211.57-8.15 6.78 2.14-10.38z"/>
        </g>
        <g class="node" transform="translate(4 544)">
            <ellipse cx="894" cy="-162" fill="none" stroke="#000" rx="59.54" ry="18"/>
            <text x="894" y="-156.95" font-family="Times,serif" font-size="14" text-anchor="middle">:library:color</text>
        </g>
        <g stroke="#000" class="edge">
            <path fill="none" d="M3498.31 22.74C3001.69 21.68 768.84 20.07 465 76c-92.5 17.03-144.98-4.99-199 72-48.35 68.92-15.01 139.88 59 180 84.92 46.03 368.46 52.76 502.13 53.3"/>
            <path d="m826.92 377.8 9.99 3.53-10.01 3.47z"/>
        </g>
        <g class="node" transform="translate(4 544)">
            <ellipse cx="1882" cy="-18" fill="none" stroke="#000" rx="62.1" ry="18"/>
            <text x="1882" y="-12.95" font-family="Times,serif" font-size="14" text-anchor="middle">:library:kotlin</text>
        </g>
        <g stroke="#000" class="edge">
            <path fill="none" d="M3498.63 22.96C2986.79 22.97 618.9 25.77 296 76 161.94 96.86 4 29.33 4 165v218c0 43.93 6.13 65.12 43 89 75.2 48.71 1431.6 52.75 1765.3 53"/>
            <path d="m1812.22 521.5 10 3.51-10 3.49z"/>
        </g>
        <g class="node" transform="translate(4 544)">
            <ellipse cx="1683" cy="-306" fill="none" stroke="#000" rx="79.5" ry="18"/>
            <text x="1683" y="-300.95" font-family="Times,serif" font-size="14" text-anchor="middle">:library:navigation</text>
        </g>
        <g stroke="#000" class="edge">
            <path fill="none" d="M3498.66 23.77C3174.85 26.66 2146.26 38.72 2002 76c-110.79 28.63-227.16 100.86-282.31 138.07"/>
            <path d="m1721.92 216.79-10.24 2.73 6.3-8.52z"/>
        </g>
        <g class="node" transform="translate(4 544)">
            <ellipse cx="3750" cy="-18" fill="none" stroke="#000" rx="78.99" ry="18"/>
            <text x="3750" y="-12.95" font-family="Times,serif" font-size="14" text-anchor="middle">:library:coroutines</text>
        </g>
        <g stroke="#000" class="edge">
            <path fill="none" d="M3691.55 25.89C3813.94 30.87 4018.33 43.83 4086 76c50.81 24.15 90 32.74 90 89v74c0 72.05 44.08 93.45 19 161-14.7 39.59-24.93 51.78-62 72-48.76 26.6-195.5 41.06-291.44 47.89"/>
            <path d="m3841.86 523.38-10.22-2.79 9.73-4.19z"/>
        </g>
        <g class="node" transform="translate(4 544)">
            <ellipse cx="2873" cy="-18" fill="none" stroke="#000" rx="72.85" ry="18"/>
            <text x="2873" y="-12.95" font-family="Times,serif" font-size="14" text-anchor="middle">:library:datetime</text>
        </g>
        <g stroke="#000" class="edge">
            <path fill="none" d="M3499.01 24.27C3287.89 27.7 2792.58 39.49 2629 76c-208.22 46.47-242.59 112.57-445 180-59.32 19.76-84.97-.13-136 36-31.59 22.36-37.61 35.01-49 72-14.13 45.87-32.9 73.05 0 108 26.98 28.66 580.16 45.54 794.33 51.02"/>
            <path d="m2793.38 519.52 9.91 3.75-10.08 3.25z"/>
        </g>
        <g class="node" transform="translate(4 544)">
            <ellipse cx="763" cy="-306" fill="none" stroke="#000" rx="89.23" ry="18"/>
            <text x="763" y="-300.95" font-family="Times,serif" font-size="14" text-anchor="middle">:library:shimmer-m3</text>
        </g>
        <g stroke="#000" class="edge">
            <path fill="none" d="M3498.52 23.01C3117.15 23.38 1725.71 28.05 1287 76c-164.37 17.96-210.13 14.06-365 72-44.84 16.78-91.94 45.66-122.28 65.97"/>
            <path d="m801.97 216.66-10.24 2.72 6.31-8.51z"/>
        </g>
        <g class="node" transform="translate(4 544)">
            <ellipse cx="3729" cy="-378" fill="none" stroke="#000" rx="71.31" ry="18"/>
            <text x="3729" y="-372.95" font-family="Times,serif" font-size="14" text-anchor="middle">:app:data:memo</text>
        </g>
        <g stroke="#000" class="edge">
            <path fill="none" d="M3612.92 40.13c10.2 10.35 23.42 23.83 35.08 35.87 20.82 21.5 44.3 46.12 61.3 64.01"/>
            <path d="m3711.7 137.45 4.35 9.66-9.43-4.84z"/>
        </g>
        <g class="node" transform="translate(4 544)">
            <ellipse cx="3556" cy="-306" fill="none" stroke="#000" rx="58.52" ry="18"/>
            <text x="3556" y="-300.95" font-family="Times,serif" font-size="14" text-anchor="middle">:app:data:tag</text>
        </g>
        <g stroke="#000" class="edge">
            <path fill="none" d="M3593.11 40.15c-6.17 36.71-20.72 123.19-28.31 168.32"/>
            <path d="m3568.26 208.99-5.11 9.28-1.79-10.44z"/>
        </g>
        <g class="node" transform="translate(4 544)">
            <ellipse cx="4106" cy="-162" fill="none" stroke="#000" rx="75.92" ry="18"/>
            <text x="4106" y="-156.95" font-family="Times,serif" font-size="14" text-anchor="middle">:app:data:account</text>
        </g>
        <g stroke="#000" class="edge">
            <path fill="none" d="M3693.64 22.52C3812.21 23.89 4003.16 33 4058 76c33.2 26.03 33 46.81 33 89v74c0 39.61 7.35 84.89 12.91 113.46"/>
            <path d="m4107.31 351.63-1.45 10.5-5.41-9.11z"/>
        </g>
        <g class="node" transform="translate(4 544)">
            <ellipse cx="4418" cy="-378" fill="none" stroke="#000" rx="83.6" ry="18"/>
            <text x="4418" y="-372.95" font-family="Times,serif" font-size="14" text-anchor="middle">:app:data:credential</text>
        </g>
        <g stroke="#000" class="edge">
            <path fill="none" d="M3692.75 24.56C3855.82 28.17 4178.04 39.79 4285 76c41.82 14.16 83.43 44 109.63 65.22"/>
            <path d="m4396.58 138.29 5.48 9.07-9.94-3.67z"/>
        </g>
        <g class="node" transform="translate(4 544)">
            <ellipse cx="6329" cy="-162" fill="none" stroke="#000" rx="74.89" ry="18"/>
            <text x="6329" y="-156.95" font-family="Times,serif" font-size="14" text-anchor="middle">:app:data:holiday</text>
        </g>
        <g stroke="#000" class="edge">
            <path fill="none" d="M3693.57 23.13C4166.31 24.38 6196 37.19 6196 165v74c0 55.26 54.41 97.27 94.65 120.78"/>
            <path d="m6292.22 356.65 6.99 7.96-10.42-1.87z"/>
        </g>
        <g class="node" transform="translate(4 544)">
            <ellipse cx="4872" cy="-234" fill="none" stroke="#000" rx="73.87" ry="18"/>
            <text x="4872" y="-228.95" font-family="Times,serif" font-size="14" text-anchor="middle">:app:data:backup</text>
        </g>
        <g stroke="#000" class="edge">
            <path fill="none" d="M3692.87 24.42C3969.14 28.85 4743.94 44.07 4788 76c66.64 48.28 82.83 153.54 86.75 204.38"/>
            <path d="m4878.24 280.07-2.84 10.21-4.14-9.75z"/>
        </g>
        <g class="node" transform="translate(4 544)">
            <ellipse cx="4286" cy="-306" fill="none" stroke="#000" rx="65.68" ry="18"/>
            <text x="4286" y="-300.95" font-family="Times,serif" font-size="14" text-anchor="middle">:app:data:fetch</text>
        </g>
        <g stroke="#000" class="edge">
            <path fill="none" d="M3690.38 26.82C3847.24 33.84 4148.54 50.47 4190 76c49.51 30.49 78.32 95.61 91.41 133.01"/>
            <path d="m4284.64 207.63-.14 10.6-6.5-8.37z"/>
        </g>
        <g class="node" transform="translate(4 544)">
            <ellipse cx="5026" cy="-234" fill="none" stroke="#000" rx="62.1" ry="18"/>
            <text x="5026" y="-228.95" font-family="Times,serif" font-size="14" text-anchor="middle">:app:data:fcm</text>
        </g>
        <g stroke="#000" class="edge">
            <path fill="none" d="M3693.39 22.93c271.75.4 1024.98 5.8 1125.61 53.07 95.46 44.84 167.04 154.76 196.39 205.95"/>
            <path d="m5018.41 280.19 1.85 10.43-7.95-7z"/>
        </g>
        <g class="node" transform="translate(4 544)">
            <ellipse cx="3934" cy="-450" fill="none" stroke="#000" rx="78.48" ry="18"/>
            <text x="3934" y="-444.95" font-family="Times,serif" font-size="14" text-anchor="middle">:app:data:calendar</text>
        </g>
        <g stroke="red" stroke-width="2" class="edge">
            <path fill="none" d="M3659.53 36c59.73 12.23 148.9 30.48 210.15 43.02"/>
            <path fill="red" d="m3868.72 75.25 9.1 5.43-10.5 1.43z"/>
        </g>
        <g class="node" transform="translate(4 544)">
            <ellipse cx="3654" cy="-234" fill="none" stroke="#000" rx="70.29" ry="18"/>
            <text x="3654" y="-228.95" font-family="Times,serif" font-size="14" text-anchor="middle">:app:data:buddy</text>
        </g>
        <g stroke="#000" class="edge">
            <path fill="none" d="M3599.79 40.46c10.37 47.88 39.36 181.59 52.09 240.3"/>
            <path d="m3655.25 279.77-1.31 10.52-5.54-9.03z"/>
        </g>
        <g class="node" transform="translate(4 544)">
            <ellipse cx="3076" cy="-306" fill="none" stroke="#000" rx="84.11" ry="18"/>
            <text x="3076" y="-300.95" font-family="Times,serif" font-size="14" text-anchor="middle">:app:domain:memo</text>
        </g>
        <g stroke="#000" class="edge">
            <path fill="none" d="M3509.19 30.54C3443.9 37.83 3352.86 51.51 3276 76c-69.7 22.21-95.21 21.37-148 72-17.69 16.96-30.36 41.89-38.22 61.05"/>
            <path d="m3093.13 210.1-6.88 8.06.35-10.59z"/>
        </g>
        <g class="node" transform="translate(4 544)">
            <ellipse cx="2899" cy="-234" fill="none" stroke="#000" rx="71.31" ry="18"/>
            <text x="2899" y="-228.95" font-family="Times,serif" font-size="14" text-anchor="middle">:app:domain:tag</text>
        </g>
        <g stroke="#000" class="edge">
            <path fill="none" d="M3498.59 23.46C3410.87 26.59 3279.57 38.07 3172 76c-114.81 40.48-154.5 50.95-233 144-14.77 17.51-24.06 41.88-29.5 60.69"/>
            <path d="m2912.95 281.35-5.96 8.76-.8-10.56z"/>
        </g>
        <g class="node" transform="translate(4 544)">
            <ellipse cx="2873" cy="-90" fill="none" stroke="#000" rx="88.71" ry="18"/>
            <text x="2873" y="-84.95" font-family="Times,serif" font-size="14" text-anchor="middle">:app:domain:account</text>
        </g>
        <g stroke="#000" class="edge">
            <path fill="none" d="M3576.53 39.78C3508.48 97.66 3273.2 291.37 3049 400c-32.84 15.91-71.52 28.34-103.87 37.14"/>
            <path d="m2946.44 440.42-10.56-.82 8.77-5.95z"/>
        </g>
        <g class="node" transform="translate(4 544)">
            <ellipse cx="2562" cy="-306" fill="none" stroke="#000" rx="96.39" ry="18"/>
            <text x="2562" y="-300.95" font-family="Times,serif" font-size="14" text-anchor="middle">:app:domain:credential</text>
        </g>
        <g stroke="#000" class="edge">
            <path fill="none" d="M3498.62 23.79C3276.51 26.27 2746.2 36.32 2676 76c-52.21 29.51-84.84 95.29-99.99 133"/>
            <path d="m2579.28 210.25-6.86 8.07.33-10.59z"/>
        </g>
        <g class="node" transform="translate(4 544)">
            <ellipse cx="3942" cy="-90" fill="none" stroke="#000" rx="87.69" ry="18"/>
            <text x="3942" y="-84.95" font-family="Times,serif" font-size="14" text-anchor="middle">:app:domain:holiday</text>
        </g>
        <g stroke="#000" class="edge">
            <path fill="none" d="M3688.58 28.01C3808.01 35.44 4003.1 51.23 4025 76c90.98 102.91-14.89 283.37-60.3 350.7"/>
            <path d="m3967.87 428.27-8.54 6.27 2.77-10.23z"/>
        </g>
        <g class="node" transform="translate(4 544)">
            <ellipse cx="2845" cy="-162" fill="none" stroke="#000" rx="86.67" ry="18"/>
            <text x="2845" y="-156.95" font-family="Times,serif" font-size="14" text-anchor="middle">:app:domain:backup</text>
        </g>
        <g stroke="#000" class="edge">
            <path fill="none" d="M3501.14 26.27C3395.23 31.38 3219.24 44.22 3071 76c-122.31 26.22-267-36.09-267 89v74c0 40.45 5.77 50.78 19 89 2.98 8.62 7.03 17.65 11.05 25.77"/>
            <path d="m2837.06 351.96 1.46 10.49-7.69-7.28z"/>
        </g>
        <g class="node" transform="translate(4 544)">
            <ellipse cx="2618" cy="-234" fill="none" stroke="#000" rx="78.48" ry="18"/>
            <text x="2618" y="-228.95" font-family="Times,serif" font-size="14" text-anchor="middle">:app:domain:fetch</text>
        </g>
        <g stroke="#000" class="edge">
            <path fill="none" d="M3498.72 23.94C3297.06 26.68 2847.4 37.12 2790 76c-73.41 49.72-27.45 113.42-86 180-10.99 12.5-25.61 23.2-39.46 31.65"/>
            <path d="m2666.37 290.64-10.41 2 6.89-8.05z"/>
        </g>
        <g class="node" transform="translate(4 544)">
            <ellipse cx="3557" cy="-162" fill="none" stroke="#000" rx="74.89" ry="18"/>
            <text x="3557" y="-156.95" font-family="Times,serif" font-size="14" text-anchor="middle">:app:domain:fcm</text>
        </g>
        <g stroke="#000" class="edge">
            <path fill="none" d="M3650.46 37.3C3702.6 54.21 3778.3 87.96 3813 148c8.01 13.85 2.31 20.17 0 36-9.66 66.09 5.21 97.77-43 144-10.45 10.02-84.58 27.28-141.62 39.38"/>
            <path d="m3629.21 370.78-10.5-1.37 9.06-5.48z"/>
        </g>
        <g class="node" transform="translate(4 544)">
            <ellipse cx="3224" cy="-378" fill="none" stroke="#000" rx="91.27" ry="18"/>
            <text x="3224" y="-372.95" font-family="Times,serif" font-size="14" text-anchor="middle">:app:domain:calendar</text>
        </g>
        <g stroke="#000" class="edge">
            <path fill="none" d="M3507.19 29.7C3454.47 36.35 3387.5 49.61 3333 76c-32.18 15.58-62.61 43.35-82.35 63.74"/>
            <path d="m3253.33 142.01-9.41 4.86 4.32-9.67z"/>
        </g>
        <g class="node" transform="translate(4 544)">
            <ellipse cx="2277" cy="-162" fill="none" stroke="#000" rx="83.08" ry="18"/>
            <text x="2277" y="-156.95" font-family="Times,serif" font-size="14" text-anchor="middle">:app:domain:buddy</text>
        </g>
        <g stroke="#000" class="edge">
            <path fill="none" d="M3498.43 23.53C3289.34 25.45 2812.1 34.41 2752 76c-72.14 49.92-14.09 123.26-81 180-47.69 40.44-76.23 17.65-136 36-71.16 21.85-152.12 50.97-203.12 69.85"/>
            <path d="m2333.16 365.11-10.59.2 8.15-6.76z"/>
        </g>
        <g class="node" transform="translate(4 544)">
            <ellipse cx="7255" cy="-450" fill="none" stroke="#000" rx="86.15" ry="18"/>
            <text x="7255" y="-444.95" font-family="Times,serif" font-size="14" text-anchor="middle">:app:core:coroutines</text>
        </g>
        <g stroke="#000" class="edge">
            <path fill="none" d="M3693.45 23.55C4229.33 26.73 6806.02 43.57 7159 76c8.91.82 18.23 1.98 27.44 3.32"/>
            <path d="m7186.73 75.83 9.36 4.97-10.42 1.95z"/>
        </g>
        <g class="node" transform="translate(4 544)">
            <ellipse cx="5304" cy="-234" fill="none" stroke="#000" rx="123.52" ry="18"/>
            <text x="5304" y="-228.95" font-family="Times,serif" font-size="14" text-anchor="middle">:app:core:filter-database-room</text>
        </g>
        <g stroke="#000" class="edge">
            <path fill="none" d="M3692.56 24.62C3968.77 29.61 4749.45 46.18 4861 76c167.55 44.79 343.57 159.86 414.53 209.56"/>
            <path d="m5277.45 282.63 6.15 8.63-10.19-2.91z"/>
        </g>
        <g class="node" transform="translate(4 544)">
            <ellipse cx="6713" cy="-234" fill="none" stroke="#000" rx="132.22" ry="18"/>
            <text x="6713" y="-228.95" font-family="Times,serif" font-size="14" text-anchor="middle">:app:core:backup-database-room</text>
        </g>
        <g stroke="#000" class="edge">
            <path fill="none" d="M3693.24 23.73C4156.96 27.39 6126.62 44.72 6253 76c173.76 43.01 357.15 159.5 430.67 209.59"/>
            <path d="m6685.39 282.52 6.26 8.54-10.23-2.77z"/>
        </g>
        <g class="node" transform="translate(4 544)">
            <ellipse cx="5745" cy="-162" fill="none" stroke="#000" rx="158.32" ry="18"/>
            <text x="5745" y="-156.95" font-family="Times,serif" font-size="14" text-anchor="middle">:app:core:account-preferences-datastore</text>
        </g>
        <g stroke="#000" class="edge">
            <path fill="none" d="M3693.13 23.97C3994.06 27.33 4908.3 40.27 5203 76c189.86 23.02 421-102.25 421 89v74c0 52.31 48.38 94.49 84.95 118.9"/>
            <path d="m5710.64 354.83 6.51 8.37-10.3-2.48z"/>
        </g>
        <g class="node" transform="translate(4 544)">
            <ellipse cx="6988" cy="-234" fill="none" stroke="#000" rx="124.54" ry="18"/>
            <text x="6988" y="-228.95" font-family="Times,serif" font-size="14" text-anchor="middle">:app:core:diary-database-room</text>
        </g>
        <g stroke="#000" class="edge">
            <path fill="none" d="M3693.46 23.09c455.5.66 2363.48 6.2 2625.54 52.91 245.08 43.68 520.94 162.77 627.57 211.64"/>
            <path d="m6947.96 284.43 7.61 7.36-10.54-1.01z"/>
        </g>
        <g class="node" transform="translate(4 544)">
            <ellipse cx="4822" cy="-162" fill="none" stroke="#000" rx="95.88" ry="18"/>
            <text x="4822" y="-156.95" font-family="Times,serif" font-size="14" text-anchor="middle">:app:core:diary-service</text>
        </g>
        <g stroke="#000" class="edge">
            <path fill="none" d="M3692.9 24.56C3974.69 30.36 4774 56.4 4774 165v74c0 40.45 3.86 51.49 19 89 3.59 8.9 8.65 17.99 13.73 26.07"/>
            <path d="m4809.65 352.14 2.58 10.27-8.42-6.42z"/>
        </g>
        <g class="node" transform="translate(4 544)">
            <ellipse cx="7271" cy="-90" fill="none" stroke="#000" rx="104.58" ry="18"/>
            <text x="7271" y="-84.95" font-family="Times,serif" font-size="14" text-anchor="middle">:app:core:holiday-service</text>
        </g>
        <g stroke="#000" class="edge">
            <path fill="none" d="M3693.38 23.51C4124.32 25.98 5862.55 38.14 6407 76c164.79 11.46 738-76.19 738 89v146c0 53.61 51.04 95.79 89.16 119.81"/>
            <path d="m7235.52 427.55 6.72 8.19-10.36-2.22z"/>
        </g>
        <g class="node" transform="translate(4 544)">
            <ellipse cx="6079" cy="-162" fill="none" stroke="#000" rx="157.3" ry="18"/>
            <text x="6079" y="-156.95" font-family="Times,serif" font-size="14" text-anchor="middle">:app:core:holiday-preferences-datastore</text>
        </g>
        <g stroke="#000" class="edge">
            <path fill="none" d="M3693.49 23.69C4021.46 26.34 5083.33 37.75 5423 76c202.59 22.81 450-114.87 450 89v74c0 65.77 71.57 103.15 131.14 122.86"/>
            <path d="m6005.19 358.52 8.48 6.36-10.59.31z"/>
        </g>
        <g class="node" transform="translate(4 544)">
            <ellipse cx="6430" cy="-234" fill="none" stroke="#000" rx="133.24" ry="18"/>
            <text x="6430" y="-228.95" font-family="Times,serif" font-size="14" text-anchor="middle">:app:core:holiday-database-room</text>
        </g>
        <g stroke="#000" class="edge">
            <path fill="none" d="M3693.48 22.89C4153.83 22.65 6092.79 24.68 6210 76c99.54 43.58 176.67 154.56 208.33 206.03"/>
            <path d="m6421.26 280.11 2.17 10.37-8.16-6.75z"/>
        </g>
        <g class="node" transform="translate(4 544)">
            <ellipse cx="722" cy="-378" fill="none" stroke="#000" rx="81.55" ry="18"/>
            <text x="722" y="-372.95" font-family="Times,serif" font-size="14" text-anchor="middle">:app:feature:memo</text>
        </g>
        <g stroke="#000" class="edge">
            <path fill="none" d="M3498.51 23.62C3029.02 26.74 1018.33 42.08 890 76c-49.67 13.13-100.74 44.15-132.41 65.85"/>
            <path d="m759.85 144.54-10.2 2.85 6.19-8.59z"/>
        </g>
        <g class="node" transform="translate(4 544)">
            <ellipse cx="1528" cy="-378" fill="none" stroke="#000" rx="68.75" ry="18"/>
            <text x="1528" y="-372.95" font-family="Times,serif" font-size="14" text-anchor="middle">:app:feature:tag</text>
        </g>
        <g stroke="#000" class="edge">
            <path fill="none" d="M3498.46 23.08C3135 23.74 1871.3 29.39 1697 76c-50.01 13.37-101.57 44.48-133.45 66.13"/>
            <path d="m1565.78 144.84-10.22 2.81 6.24-8.56z"/>
        </g>
        <g class="node" transform="translate(4 544)">
            <ellipse cx="1423" cy="-450" fill="none" stroke="#000" rx="88.71" ry="18"/>
            <text x="1423" y="-444.95" font-family="Times,serif" font-size="14" text-anchor="middle">:app:feature:calendar</text>
        </g>
        <g stroke="#000" class="edge">
            <path fill="none" d="M3498.37 23.27C3209.29 24.57 2332.6 32.12 1607 76c-30.01 1.81-62.76 4.65-92 7.49"/>
            <path d="m1515.35 86.97-10.29-2.5 9.61-4.46z"/>
        </g>
        <g class="node" transform="translate(4 544)">
            <ellipse cx="377" cy="-378" fill="none" stroke="#000" rx="80.52" ry="18"/>
            <text x="377" y="-372.95" font-family="Times,serif" font-size="14" text-anchor="middle">:app:feature:buddy</text>
        </g>
        <g stroke="#000" class="edge">
            <path fill="none" d="M3498.57 23.49C2995.09 26.2 705.8 40.41 560 76c-53.85 13.15-110.19 44.54-144.95 66.29"/>
            <path d="m417.01 145.19-10.32 2.42 6.56-8.33z"/>
        </g>
        <g class="node" transform="translate(4 544)">
            <ellipse cx="2023" cy="-378" fill="none" stroke="#000" rx="76.94" ry="18"/>
            <text x="2023" y="-372.95" font-family="Times,serif" font-size="14" text-anchor="middle">:app:feature:more</text>
        </g>
        <g stroke="#000" class="edge">
            <path fill="none" d="M3498.6 23.87C3241.17 26.69 2547.08 37.72 2321 76c-88.42 14.97-187.54 48.68-245.14 70.04"/>
            <path d="m2077.26 149.26-10.59.22 8.14-6.78z"/>
        </g>
        <g class="node" transform="translate(4 544)">
            <ellipse cx="2208" cy="-378" fill="none" stroke="#000" rx="86.15" ry="18"/>
            <text x="2208" y="-372.95" font-family="Times,serif" font-size="14" text-anchor="middle">:app:feature:account</text>
        </g>
        <g stroke="#000" class="edge">
            <path fill="none" d="M3498.7 23.12c-242.31.97-867.82 7.92-1070.7 52.88-64.06 14.2-133.43 46-175.8 67.48"/>
            <path d="m2253.87 146.56-10.5 1.45 7.3-7.68z"/>
        </g>
        <g class="node" transform="translate(4 544)">
            <ellipse cx="5456" cy="-162" fill="none" stroke="#000" rx="112.26" ry="18"/>
            <text x="5456" y="-156.95" font-family="Times,serif" font-size="14" text-anchor="middle">:library:firebase-messaging</text>
        </g>
        <g stroke="#000" class="edge">
            <path fill="none" d="M3693.5 22.71c220.28.26 773.04 6.04 1232.5 53.29 239.34 24.62 534-151.61 534 89v187.31"/>
            <path d="m5463.5 352-3.5 10-3.5-10z"/>
        </g>
        <g stroke="#000" class="edge">
            <path fill="none" d="M1244.22 256.3c.95 7.38 2.08 16.18 3.15 24.45"/>
            <path d="m1250.8 280.03-2.19 10.36-4.75-9.47z"/>
        </g>
        <g stroke="#000" class="edge">
            <path fill="none" d="M1185.43 324c-65.27 12.95-164.57 32.64-227.71 45.16"/>
            <path d="m958.73 372.52-10.49-1.48 9.13-5.38z"/>
        </g>
        <g stroke="#000" class="edge">
            <path fill="none" d="M1330.84 321.3c36.73 7.54 79.51 20.5 113.16 42.7 51.22 33.79 31.26 80.28 86 108 56.4 28.57 977.53 46.67 1263.2 51.62"/>
            <path d="m2792.85 520.11 9.94 3.68-10.06 3.32z"/>
        </g>
        <g stroke="#000" class="edge">
            <path fill="none" d="M1816.81 252.35c-22.13 8.05-46.15 20.56-61.81 39.65-50.75 61.86-59.54 130.09 3 180 40.3 32.17 782.05 47.42 1035.18 51.7"/>
            <path d="m2793.04 520.19 9.94 3.67-10.05 3.33z"/>
        </g>
        <g stroke="#000" class="edge">
            <path fill="none" d="M1683.2 256.48c-8.44 44.09-23.34 160.25 39.8 215.52 40.15 35.14 811.2 48.49 1070.07 51.99"/>
            <path d="m2792.8 520.48 9.95 3.63-10.04 3.37z"/>
        </g>
        <g stroke="#000" class="edge">
            <path fill="none" d="M782.8 256.13c22.94 24.87 65.62 71.12 92.09 99.82"/>
            <path d="m877.31 353.42 4.21 9.72-9.35-4.98z"/>
        </g>
        <g stroke="#000" class="edge">
            <path fill="none" d="M3758.05 183.23c14.94 10.04 34.03 23.5 49.95 36.77 87.88 73.24 96.1 106.78 184 180 21.32 17.76 38.24 11.37 51 36 7.36 14.21 10.24 23.71 0 36-25.2 30.24-125.04 43.28-200.38 48.87"/>
            <path d="m3842.96 524.35-10.22-2.78 9.73-4.2z"/>
        </g>
        <g stroke="#000" class="edge">
            <path fill="none" d="M3740.14 184.31c12.14 32.52 32.21 103.11-3.14 143.69-38.31 43.98-204.85 17-260 36-30.13 10.38-33.26 22.23-62 36-80.32 38.48-100.9 49.22-187 72-91.76 24.28-200.15 38.53-271.95 46.03"/>
            <path d="m2956.66 521.48-10.3-2.46 9.59-4.5z"/>
        </g>
        <g stroke="#000" class="edge">
            <path fill="none" d="m3668.3 173.94-503.03 53.92"/>
            <path d="m3165.83 231.32-10.32-2.41 9.57-4.55z"/>
        </g>
        <g class="node" transform="translate(4 544)">
            <ellipse cx="4568" cy="-162" fill="none" stroke="#000" rx="101.51" ry="18"/>
            <text x="4568" y="-156.95" font-family="Times,serif" font-size="14" text-anchor="middle">:app:core:diary-database</text>
        </g>
        <g stroke="#000" class="edge">
            <path fill="none" d="M3804.31 167.9c143.11 2.63 460.18 12.84 560.69 52.1 76.95 30.05 148.81 98.39 184.14 135.64"/>
            <path d="m4551.61 353.16 4.27 9.7-9.38-4.92z"/>
        </g>
        <g stroke="#000" class="edge">
            <path fill="none" d="M3558.53 256.33c-.69 20.1 1.52 52.86 20.47 71.67 56.36 55.94 124.83-25.55 175 36 30.47 37.37 19.87 97.48 9.72 132.72"/>
            <path d="m3767.09 497.67-6.29 8.53-.4-10.59z"/>
        </g>
        <g stroke="#000" class="edge">
            <path fill="none" d="M3536.83 254.99C3490.36 286.48 3381.66 357.16 3282 400c-51.94 22.32-73.01 7.78-122 36-20.16 11.61-17.43 25.14-38 36-50.88 26.86-114.55 40.11-164.22 46.65"/>
            <path d="m2958.29 522.11-10.35-2.24 9.49-4.71z"/>
        </g>
        <g stroke="#000" class="edge">
            <path fill="none" d="M3505.4 244.82c-116.99 12.46-392.06 41.77-526.18 56.06"/>
            <path d="m2979.68 304.35-10.32-2.42 9.58-4.54z"/>
        </g>
        <g stroke="#000" class="edge">
            <path fill="none" d="M3617.42 241.85c106.06 5.78 339.67 20.88 534.58 50.15 125.44 18.84 269.7 51.96 352.33 72.05"/>
            <path d="m4504.97 360.6 8.89 5.78-10.55 1.02z"/>
        </g>
        <g stroke="#000" class="edge">
            <path fill="none" d="M4117.11 400.35c6.84 19.8 13.87 51.98-3.11 71.65-34.17 39.57-174.65 50.13-269.69 52.65"/>
            <path d="m3844.55 528.14-10.08-3.26 9.92-3.74z"/>
        </g>
        <g stroke="#000" class="edge">
            <path fill="none" d="M4042.71 390.72c-80.99 9.52-221.06 26.75-340.71 45.28-89.25 13.82-110.46 24.17-200 36-52.69 6.96-388.54 34.13-544.99 46.64"/>
            <path d="m2957.36 522.12-10.25-2.69 9.69-4.29z"/>
        </g>
        <g stroke="#000" class="edge">
            <path fill="none" d="M4037.02 387.14c-211.74 12.02-826.26 46.91-1064.28 60.42"/>
            <path d="m2973.05 451.05-10.18-2.92 9.78-4.07z"/>
        </g>
        <g class="node" transform="translate(4 544)">
            <ellipse cx="4626" cy="-90" fill="none" stroke="#000" rx="121.98" ry="18"/>
            <text x="4626" y="-84.95" font-family="Times,serif" font-size="14" text-anchor="middle">:app:core:account-preferences</text>
        </g>
        <g stroke="#000" class="edge">
            <path fill="none" d="m4174.81 391.72 356.18 47.95"/>
            <path d="m4531.26 436.18 9.44 4.8-10.38 2.13z"/>
        </g>
        <g stroke="#000" class="edge">
            <path fill="none" d="M4425.27 184.19c4.96 30.28 11.93 94.58-7.27 143.81-30.9 79.23-50.38 105.1-126 144-75.88 39.03-315.37 49.35-447.79 52.06"/>
            <path d="m3844.5 527.55-10.07-3.3 9.93-3.69z"/>
        </g>
        <g stroke="#000" class="edge">
            <path fill="none" d="M4414.17 184.11C4392.35 229.42 4325.99 352.36 4228 400c-76.09 36.99-295.69 21.28-379 36-62.42 11.03-75.39 26.12-138 36-273.08 43.1-345.19 17-621 36-44.22 3.05-93.56 6.95-133.61 10.25"/>
            <path d="m2956.84 521.73-10.25-2.67 9.68-4.31z"/>
        </g>
        <g stroke="#000" class="edge">
            <path fill="none" d="M4339.89 169.93C4120.4 177.8 3501.74 200.1 2987 220c-107.79 4.17-231.1 9.17-316.28 12.67"/>
            <path d="m2670.87 236.17-10.14-3.09 9.85-3.91z"/>
        </g>
        <g stroke="#000" class="edge">
            <path fill="none" d="M4499.49 173.02c74.44 7.2 180.23 21.58 212.51 46.98 41.28 32.48 15.95 66.38 48 108 8.55 11.1 19.88 21.28 30.73 29.69"/>
            <path d="m4792.51 354.64 5.95 8.77-10.12-3.14z"/>
        </g>
        <g stroke="#000" class="edge">
            <path fill="none" d="M4460.34 182.34c60.5 26.58 176.05 87.54 222.66 181.66 7.1 14.34 6.12 21.22 0 36-4.44 10.73-12.23 20.42-20.49 28.49"/>
            <path d="m4665.09 430.88-9.77 4.11 5.07-9.31z"/>
        </g>
        <g stroke="#000" class="edge">
            <path fill="none" d="M6287.17 396.53c-27.47 9.11-62.51 22.56-91.17 39.47-21.47 12.67-19.65 27.27-43 36-101.13 37.81-1835.08 32.99-1943 36-127.77 3.57-275.63 9.39-367.49 13.21"/>
            <path d="m3842.69 524.7-10.14-3.08 9.85-3.91z"/>
        </g>
        <g stroke="#000" class="edge">
            <path fill="none" d="M6280.62 395.11c-45.13 11.03-106.27 27.57-127.62 40.89-18.42 11.49-13.18 27.14-33 36-76.84 34.35-2945.92 32.15-3030 36-44.79 2.05-94.76 5.95-135.04 9.5"/>
            <path d="m2955.38 520.98-10.27-2.6 9.65-4.37z"/>
        </g>
        <g stroke="#000" class="edge">
            <path fill="none" d="M6280.35 395.15c-10.34 1.97-21.15 3.72-31.35 4.85-386.61 42.75-1361.16 26.02-1750 36-159.74 4.1-345.4 10.05-455.84 13.71"/>
            <path d="m4043.35 453.21-10.11-3.17 9.88-3.83z"/>
        </g>
        <g stroke="#000" class="edge">
            <path fill="none" d="M6399.5 390.64c28.73 3.15 62.75 6.69 93.5 9.36 239.71 20.85 521.36 38.18 672.65 46.91"/>
            <path d="m7165.47 443.39 9.78 4.07-10.18 2.92z"/>
        </g>
        <g class="node" transform="translate(4 544)">
            <ellipse cx="5986" cy="-90" fill="none" stroke="#000" rx="120.96" ry="18"/>
            <text x="5986" y="-84.95" font-family="Times,serif" font-size="14" text-anchor="middle">:app:core:holiday-preferences</text>
        </g>
        <g stroke="#000" class="edge">
            <path fill="none" d="M6277.13 394.4c-56.14 11.46-143.23 29.23-206.78 42.2"/>
            <path d="m6071.15 440.01-10.49-1.43 9.09-5.43z"/>
        </g>
        <g class="node" transform="translate(4 544)">
            <ellipse cx="6311" cy="-90" fill="none" stroke="#000" rx="110.21" ry="18"/>
            <text x="6311" y="-84.95" font-family="Times,serif" font-size="14" text-anchor="middle">:app:core:holiday-database</text>
        </g>
        <g stroke="#000" class="edge">
            <path fill="none" d="M6328.55 400.3c-1.9 7.38-4.16 16.18-6.29 24.45"/>
            <path d="m6325.66 425.62-5.88 8.81-.9-10.56z"/>
        </g>
        <g stroke="#000" class="edge">
            <path fill="none" d="M4911.69 326.18c17.58 8.92 38.02 21.65 52.31 37.82 33.14 37.52 66.64 71.85 32 108-4.99 5.21-869.81 38.76-1153.21 49.61"/>
            <path d="m3842.98 525.11-10.13-3.12 9.86-3.88z"/>
        </g>
        <g stroke="#000" class="edge">
            <path fill="none" d="M4897.02 327.5c37.67 31.45 108.92 100.73 65.98 144.5-36.44 37.15-1821.03 33.43-1873 36-44.61 2.21-94.37 6.1-134.57 9.6"/>
            <path d="m2955.86 521.08-10.27-2.61 9.66-4.37z"/>
        </g>
        <g stroke="#000" class="edge">
            <path fill="none" d="M4803.26 313.51c-308.41 10.65-1508.22 52.09-1858.03 64.17"/>
            <path d="m2945.51 381.17-10.11-3.15 9.87-3.85z"/>
        </g>
        <g stroke="#000" class="edge">
            <path fill="none" d="M4863.9 327.95c-5.69 7.96-12.61 17.64-18.96 26.54"/>
            <path d="m4847.88 356.39-8.66 6.1 2.96-10.17z"/>
        </g>
        <g stroke="#000" class="edge">
            <path fill="none" d="M4823.74 323.03c-49.79 11.47-125.14 28.82-180.44 41.55"/>
            <path d="m4644.18 367.97-10.53-1.17 8.96-5.65z"/>
        </g>
        <g class="node" transform="translate(4 544)">
            <ellipse cx="6607" cy="-162" fill="none" stroke="#000" rx="109.19" ry="18"/>
            <text x="6607" y="-156.95" font-family="Times,serif" font-size="14" text-anchor="middle">:app:core:backup-database</text>
        </g>
        <g stroke="#000" class="edge">
            <path fill="none" d="M4928.02 323.12c10.22 1.97 20.9 3.73 30.98 4.88 644.04 73.32 810.82-.31 1458 36 29.78 1.67 62.08 4.21 91.62 6.82"/>
            <path d="m6508.64 367.31 9.65 4.38-10.27 2.59z"/>
        </g>
        <g stroke="#000" class="edge">
            <path fill="none" d="M4294.61 256.35c10.36 43.3 30.18 156.83-28.61 215.65-29.24 29.26-284.06 43.92-422.82 49.79"/>
            <path d="m3843.41 525.29-10.14-3.09 9.85-3.91z"/>
        </g>
        <g stroke="#000" class="edge">
            <path fill="none" d="M4285.51 256.32c-9.87 34.2-36.95 109.96-90.51 143.68-78.71 49.56-325.07 21.88-417 36-72.9 11.2-89 25.45-162 36-231.92 33.51-292.32 18.68-526 36-44.2 3.28-93.55 7.2-133.6 10.45"/>
            <path d="m2956.85 521.92-10.25-2.67 9.68-4.3z"/>
        </g>
        <g stroke="#000" class="edge">
            <path fill="none" d="M4224.51 240.24C4018.29 244.38 3363.9 259.37 2823 292c-39.12 2.36-82.46 5.91-118.84 9.15"/>
            <path d="m2704.88 304.6-10.27-2.59 9.65-4.38z"/>
        </g>
        <g stroke="#000" class="edge">
            <path fill="none" d="M4336.16 251.23c95.63 25.33 315.56 83.6 425.22 112.65"/>
            <path d="m4762.05 360.44 8.77 5.94-10.56.82z"/>
        </g>
        <g stroke="#000" class="edge">
            <path fill="none" d="M4312.04 255.4c26.52 19.2 72.85 51.09 115.96 72.6 26.82 13.38 57.87 25.23 84.27 34.32"/>
            <path d="m4513.1 358.91 8.35 6.52-10.59.11z"/>
        </g>
        <g stroke="#000" class="edge">
            <path fill="none" d="M5035.54 328.42c9.72 34.36 24.93 110.41-18.54 143.58-5.85 4.46-888.67 38.66-1174.69 49.63"/>
            <path d="m3842.81 525.11-10.12-3.11 9.85-3.89z"/>
        </g>
        <g stroke="#000" class="edge">
            <path fill="none" d="M5031.07 328.44c1.01 34.06-2.26 109.08-47.07 143.56-41.71 32.09-1841.44 33.41-1894 36-44.61 2.2-94.37 6.09-134.57 9.6"/>
            <path d="m2955.86 521.07-10.27-2.61 9.66-4.36z"/>
        </g>
        <g stroke="#000" class="edge">
            <path fill="none" d="M4985.94 322.97c-8.86 2.01-18.15 3.82-26.94 5.03-16.34 2.24-1012.49 38.88-1313.06 49.89"/>
            <path d="m3646.33 381.38-10.12-3.13 9.86-3.87z"/>
        </g>
        <g stroke="#000" class="edge">
            <path fill="none" d="M4991.15 324.33c-31.12 10.68-75.16 25.79-109.93 37.72"/>
            <path d="m4882.77 365.22-10.59-.06 8.32-6.56z"/>
        </g>
        <g stroke="#000" class="edge">
            <path fill="none" d="M5083.16 319.65c72.22 11.76 202.27 32.93 289.09 47.06"/>
            <path d="m5372.6 363.23 9.31 5.06-10.43 1.85z"/>
        </g>
        <g stroke="#000" class="edge">
            <path fill="none" d="M3955.15 111.77c9.15 9.8 19.92 22.85 26.85 36.23 18.85 36.37 24 48.03 24 89v74c0 40.45-.06 53.33 19 89 10.52 19.68 26.61 15.32 35 36 6.02 14.82 10.3 23.76 0 36-27.32 32.45-136.66 45.03-216.87 49.91"/>
            <path d="m3843.71 525.38-10.18-2.92 9.78-4.06z"/>
        </g>
        <g stroke="#000" class="edge">
            <path fill="none" d="M3931.74 112.26c-16.05 42.1-62.48 151.35-133.74 215.74-55.76 50.39-82.23 46.71-153 72-61.72 22.06-80.74 15.54-143 36-40.15 13.19-46.99 25.82-88 36-43.22 10.73-318.52 34.76-457.28 46.41"/>
            <path d="m2957.12 521.89-10.26-2.65 9.68-4.32z"/>
        </g>
        <g stroke="red" stroke-width="2" class="edge">
            <path fill="none" d="M3867 102c-129.51 12.77-403.94 39.83-547.36 53.96"/>
            <path fill="red" d="m3321.59 159.29-10.29-2.5 9.61-4.47z"/>
        </g>
        <g class="node" transform="translate(4 544)">
            <ellipse cx="5188" cy="-162" fill="none" stroke="#000" rx="100.48" ry="18"/>
            <text x="5188" y="-156.95" font-family="Times,serif" font-size="14" text-anchor="middle">:app:core:filter-database</text>
        </g>
        <g stroke="#000" class="edge">
            <path fill="none" d="M4014.54 98.39c110.94 5.73 322.63 19.77 500.46 49.61 264.49 44.39 351.63 13.63 586 144 28.47 15.84 54.33 42.95 71.14 63.1"/>
            <path d="m5174.67 352.65 3.58 9.97-9.02-5.55z"/>
        </g>
        <g stroke="#000" class="edge">
            <path fill="none" d="M3718.71 319.41c27.18 7.12 56.76 20.28 73.29 44.59 27.95 41.11.73 100.23-19.83 134.21"/>
            <path d="m3775.16 500.03-8.28 6.6 2.36-10.33z"/>
        </g>
        <g stroke="#000" class="edge">
            <path fill="none" d="M3604.14 321.93c-43.67 9.44-106.54 24.33-160.14 42.07-39.34 13.02-47.41 20.92-86 36-87.21 34.09-107.68 47.3-198 72-70.18 19.19-152.03 33.69-209.61 42.63"/>
            <path d="m2951.13 518.06-10.42-1.94 9.36-4.98z"/>
        </g>
        <g stroke="#000" class="edge">
            <path fill="none" d="m3589.71 314.47-1217.4 61.89"/>
            <path d="m2372.78 379.84-10.16-2.99 9.81-4z"/>
        </g>
        <g stroke="#000" class="edge">
            <path fill="none" d="M3727.71 313c165.8 5.11 596.65 20.44 955.29 51 17.84 1.52 36.9 3.52 55.09 5.61"/>
            <path d="m4738.26 366.11 9.52 4.64-10.34 2.31z"/>
        </g>
        <g stroke="#000" class="edge">
            <path fill="none" d="M3058.33 255.72c-12.7 10.1-28.84 23.46-42.33 36.28-15.73 14.96-13.87 25.75-33 36-91.19 48.88-127.83 19.68-230 36-98.27 15.69-122.63 20.96-221 36-111.84 17.1-142.7 6.78-252 36-41.62 11.13-48.56 24.24-90 36-79.33 22.52-173.16 37.12-235.38 45.18"/>
            <path d="m1955.25 520.63-10.37-2.21 9.48-4.74z"/>
        </g>
        <g stroke="#000" class="edge">
            <path fill="none" d="M3139.11 251.18C3282.19 280.77 3636.14 354.74 3645 364c33.7 35.21-8.77 67.95 19 108 9.74 14.04 24.51 24.93 39.28 33.08"/>
            <path d="m3704.8 501.93 7.3 7.67-10.5-1.44z"/>
        </g>
        <g stroke="#000" class="edge">
            <path fill="none" d="M3080.15 256.27c-.36 18.33-2.43 47.9-11.15 71.73-26.25 71.78-37.77 92.23-94 144-14.75 13.58-33.62 24.85-50.86 33.46"/>
            <path d="m2926.12 508.39-10.53 1.17 7.5-7.48z"/>
        </g>
        <g stroke="red" stroke-width="2" class="edge">
            <path fill="none" d="M3041.16 254.36c-26.62 10.53-62.1 24.56-90.44 35.77"/>
            <path fill="red" d="m2953.64 292.74-10.59.42 8.01-6.93z"/>
        </g>
        <g stroke="#000" class="edge">
            <path fill="none" d="M3076.15 256.3c-4.81 18.9-14.37 49.43-30.15 71.7-32.73 46.19-87.86 82.31-126.21 103.59"/>
            <path d="m2921.72 434.52-10.46 1.7 7.12-7.85z"/>
        </g>
        <g stroke="#000" class="edge">
            <path fill="none" d="M3071.87 256.31c-10.28 20.07-29.83 52.81-55.87 71.69-26.32 19.08-59.77 31.47-89.81 39.43"/>
            <path d="m2927.32 370.75-10.55-.96 8.84-5.83z"/>
        </g>
        <g class="node" transform="translate(4 544)">
            <ellipse cx="4286" cy="-18" fill="none" stroke="#000" rx="71.31" ry="18"/>
            <text x="4286" y="-12.95" font-family="Times,serif" font-size="14" text-anchor="middle">:app:core:model</text>
        </g>
        <g stroke="#000" class="edge">
            <path fill="none" d="M3160.35 243.69C3401.83 258.39 4109.66 306.01 4195 364c47.32 32.15 74.51 96.36 86.86 133.23"/>
            <path d="m4285.05 495.7-.29 10.59-6.38-8.46z"/>
        </g>
        <g class="node" transform="translate(4 544)">
            <ellipse cx="3180" cy="-18" fill="none" stroke="#000" rx="85.13" ry="18"/>
            <text x="3180" y="-12.95" font-family="Times,serif" font-size="14" text-anchor="middle">:common:exception</text>
        </g>
        <g stroke="#000" class="edge">
            <path fill="none" d="M3100.51 255.95c10.31 9.57 22.14 22.34 29.49 36.05 36.12 67.38 48.21 158.37 52.16 204.14"/>
            <path d="m3185.64 495.79-2.71 10.24-4.26-9.69z"/>
        </g>
        <g stroke="#000" class="edge">
            <path fill="none" d="M2845.77 321.02C2732.2 341.11 2470.45 388.5 2252 436c-110.24 23.97-238.12 56.05-309.79 74.43"/>
            <path d="m1943.22 513.78-10.56-.9 8.82-5.88z"/>
        </g>
        <g stroke="#000" class="edge">
            <path fill="none" d="M2952.12 323.35c146.02 36.72 577.29 145.17 739.37 185.93"/>
            <path d="m3691.91 505.78 8.85 5.83-10.55.96z"/>
        </g>
        <g stroke="#000" class="edge">
            <path fill="none" d="M2840.48 318.92c-30.42 7.01-65.16 20.21-87.48 45.08-21.96 24.47-13.2 39.34-17 72-1.85 15.89-9.11 22.85 0 36 15.11 21.82 40.4 34.67 65.42 42.23"/>
            <path d="m2802.29 510.84 8.72 6.01-10.56.74z"/>
        </g>
        <g stroke="#000" class="edge">
            <path fill="none" d="M2921.17 327.78c9.04 9.61 19.04 22.47 23.83 36.22 5.26 15.11 7.02 21.62 0 36-5.89 12.07-16.01 22.18-26.66 30.24"/>
            <path d="m2920.38 433.08-10.21 2.84 6.21-8.59z"/>
        </g>
        <g stroke="red" stroke-width="2" class="edge">
            <path fill="none" d="M2889.93 327.95c-6.21 8.04-13.77 17.85-20.7 26.82"/>
            <path fill="red" d="m2873.05 355.55-8.87 5.78 3.33-10.06z"/>
        </g>
        <g stroke="#000" class="edge">
            <path fill="none" d="M2972.42 314.62c131.46 7.15 425.7 24.57 672.58 49.38 61.87 6.22 499.13 44.71 555 72 29.45 14.39 55.14 42.22 71.44 62.95"/>
            <path d="m4274.07 496.62 3.27 10.08-8.84-5.84z"/>
        </g>
        <g stroke="#000" class="edge">
            <path fill="none" d="M2924.58 327.44c49.43 37.64 170.97 130.2 228.4 173.94"/>
            <path d="m3154.92 498.45 5.83 8.84-10.07-3.27z"/>
        </g>
        <g stroke="#000" class="edge">
            <path fill="none" d="M2794.21 460.85c-190.61 13.46-657.82 46.46-836.82 59.11"/>
            <path d="m1957.75 523.44-10.22-2.79 9.73-4.19z"/>
        </g>
        <g stroke="#000" class="edge">
            <path fill="none" d="M2958.33 461.49c165.93 13.25 542.06 43.27 710.88 56.74"/>
            <path d="m3669.31 514.73 9.69 4.28-10.24 2.7z"/>
        </g>
        <g stroke="#000" class="edge">
            <path fill="none" d="M2877 472.3v24.16"/>
            <path d="m2880.5 496.38-3.5 10-3.5-10z"/>
        </g>
        <g stroke="red" stroke-width="2" class="edge">
            <path fill="none" d="M2962.47 459.23c253.56 12.57 999.26 49.51 1246.7 61.77"/>
            <path fill="red" d="m4207.74 517.42 9.81 3.99-10.16 3z"/>
        </g>
        <g stroke="#000" class="edge">
            <path fill="none" d="M2934.38 468.08c51.72 11.8 127.78 29.14 182.34 41.58"/>
            <path d="m3117.23 506.19 8.97 5.63-10.53 1.19z"/>
        </g>
        <g stroke="#000" class="edge">
            <path fill="none" d="M2475.38 244.51c-138.49 8.99-390.7 27.78-427.38 47.49-83.32 44.78-132.78 153.43-152.3 204.97"/>
            <path d="m1899.03 498.04-6.73 8.18.16-10.6z"/>
        </g>
        <g stroke="#000" class="edge">
            <path fill="none" d="M2499.04 251.26c-98.42 19.58-274.38 61-310.04 112.74-9.08 13.17-10.05 23.55 0 36 47.7 59.08 95.59 10.21 167 36 32.53 11.75 35.58 27.1 69 36 15.01 4 944.35 38.74 1239.84 49.7"/>
            <path d="m3664.96 518.2 9.86 3.87-10.12 3.13z"/>
        </g>
        <g stroke="#000" class="edge">
            <path fill="none" d="M2485.74 248.26c-21.96 2.52-45.77 5.25-67.74 7.74-71.32 8.1-262.03-4.92-321 36-70.92 49.22-132.12 117.09-73 180 26.1 27.77 559.8 45.1 769.47 50.87"/>
            <path d="m2793.29 519.36 9.91 3.77-10.1 3.23z"/>
        </g>
        <g stroke="#000" class="edge">
            <path fill="none" d="M2614.07 253.98c28.26 9.5 64.33 22.84 94.93 38.02 38.77 19.24 80.27 46.56 107.93 65.84"/>
            <path d="m2818.71 354.82 6.16 8.61-10.19-2.89z"/>
        </g>
        <g stroke="#000" class="edge">
            <path fill="none" d="M2579.84 256.3c6.45 8.06 14.24 17.81 21.37 26.72"/>
            <path d="m2603.86 280.72 3.51 9.99-8.98-5.62z"/>
        </g>
        <g stroke="#000" class="edge">
            <path fill="none" d="M2645.64 248.49c83.98 10.15 220.1 27.03 337.36 43.51 182.56 25.65 396.92 59.69 506.14 77.31"/>
            <path d="m3489.52 365.83 9.32 5.05-10.43 1.86z"/>
        </g>
        <g stroke="#000" class="edge">
            <path fill="none" d="M2552.29 256.11c-12.82 18.2-28.43 47.66-17.29 71.89 41.09 89.34 76.32 108.43 168 144 118.05 45.8 1012.46 31.6 1139 36 127.99 4.45 276.52 10.2 366.32 13.75"/>
            <path d="m4208.41 518.25 9.86 3.89-10.13 3.1z"/>
        </g>
        <g stroke="#000" class="edge">
            <path fill="none" d="M2494.76 250.45c-12.89 1.95-26.21 3.88-38.76 5.55-71.15 9.48-267.29-11.62-321 36-36.36 32.23-46.18 69.15-17 108 105.05 139.89 643.85 94.57 841 108 44.48 3.03 93.87 6.73 135.03 9.9"/>
            <path d="m3094.19 514.4 9.7 4.26-10.24 2.72z"/>
        </g>
        <g stroke="#000" class="edge">
            <path fill="none" d="M3860.11 457.92c-339.8 11.55-1586.84 53.92-1901.59 64.62"/>
            <path d="m1958.91 526.02-10.11-3.15 9.87-3.84z"/>
        </g>
        <g stroke="#000" class="edge">
            <path fill="none" d="M3904.34 470.19c-29.11 10.61-68.14 24.84-99.15 36.15"/>
            <path d="m3806.61 509.55-10.6.13 8.2-6.71z"/>
        </g>
        <g stroke="#000" class="edge">
            <path fill="none" d="M3874.16 464.71c-21.85 2.69-45.96 5.39-68.16 7.29-317.46 27.22-398.05 15.32-716 36-44.4 2.89-93.95 6.8-134.08 10.15"/>
            <path d="m2956.36 521.62-10.26-2.65 9.67-4.33z"/>
        </g>
        <g stroke="#000" class="edge">
            <path fill="none" d="m4006.71 467.35 218.18 44.4"/>
            <path d="m4225.26 508.25 9.1 5.43-10.5 1.43z"/>
        </g>
        <g stroke="#000" class="edge">
            <path fill="none" d="M3873.03 464.36c-21.56 2.63-45.23 5.39-67.03 7.64-188.77 19.5-410.3 37.12-531.47 46.31"/>
            <path d="m3274.87 521.79-10.24-2.73 9.71-4.25z"/>
        </g>
        <g stroke="#000" class="edge">
            <path fill="none" d="M2782.49 393.88C2676.35 411.13 2462.06 445.52 2280 472c-114.74 16.69-248.55 34.3-327 44.43"/>
            <path d="m1953.71 519.87-10.37-2.19 9.47-4.75z"/>
        </g>
        <g stroke="#000" class="edge">
            <path fill="none" d="M2914.87 393.96C3017.88 411.04 3223.4 444.85 3398 472c96.27 14.97 207.32 31.36 279.44 41.89"/>
            <path d="m3677.79 510.41 9.39 4.9-10.4 2.02z"/>
        </g>
        <g stroke="#000" class="edge">
            <path fill="none" d="M2797.41 396.85c-19.63 8.05-39.99 20.44-51.41 39.15-8.33 13.66-8.94 22.73 0 36 13.62 20.2 36.37 32.7 59.13 40.44"/>
            <path d="m2805.94 509.02 8.52 6.3-10.58.39z"/>
        </g>
        <g stroke="red" stroke-width="2" class="edge">
            <path fill="none" d="M2855.92 400.3c3.02 7.55 6.63 16.58 10.01 25.02"/>
            <path fill="red" d="m2868.57 422.5.46 10.59-6.96-7.99z"/>
        </g>
        <g stroke="#000" class="edge">
            <path fill="none" d="M2934.48 385.31C3189.72 392.4 3935.3 414.72 4043 436c19.93 3.94 131.95 45.57 198.08 70.48"/>
            <path d="m4242.14 503.14 8.12 6.8-10.59-.25z"/>
        </g>
        <g stroke="#000" class="edge">
            <path fill="none" d="M2816.16 399.01c-14.18 8.79-29.29 21.16-37.16 36.99-7.12 14.33-10.55 23.97 0 36 10.4 11.85 201.77 32.81 317.68 44.51"/>
            <path d="m3096.89 513.01 9.6 4.48-10.3 2.48z"/>
        </g>
        <g stroke="#000" class="edge">
            <path fill="none" d="M2546.06 314.78c-89.15 5.65-240.98 19.06-368.06 49.22-91.51 21.72-119.08 22.41-199 72-27.83 17.27-54.28 43.93-71.8 63.58"/>
            <path d="m1910.01 501.68-9.21 5.23 3.94-9.84z"/>
        </g>
        <g stroke="#000" class="edge">
            <path fill="none" d="M2597.92 327.44c-11.37 9.26-23.77 21.9-29.92 36.56-6.19 14.75-8.33 22.34 0 36 4.56 7.47 131.55 69.73 140 72 45.83 12.33 712.81 39.81 957.15 49.52"/>
            <path d="m3665.09 518.01 9.86 3.9-10.13 3.1z"/>
        </g>
        <g stroke="#000" class="edge">
            <path fill="none" d="M2545.91 314.92C2428 321.77 2212.21 337.77 2189 364c-10.6 11.98-8.52 22.46 0 36 63.48 100.88 434.36 120.55 603.72 124.23"/>
            <path d="m2792.63 520.73 9.93 3.7-10.07 3.3z"/>
        </g>
        <g stroke="#000" class="edge">
            <path fill="none" d="M2636.66 328.03c17.87 19.8 49.86 52.29 83.34 71.97 27.49 16.16 60.61 28.26 89.32 36.79"/>
            <path d="m2809.99 433.34 8.65 6.13-10.58.6z"/>
        </g>
        <g stroke="#000" class="edge">
            <path fill="none" d="M2667.66 325.08c35.47 10.94 84.9 26.18 123.2 37.99"/>
            <path d="m2791.88 359.72 8.52 6.29-10.59.4z"/>
        </g>
        <g stroke="#000" class="edge">
            <path fill="none" d="M2628.33 328.29c7.66 19.17 22 50.21 41.67 71.71 39.18 42.84 53.69 54.35 109 72 112.59 35.92 944.9 31.76 1063 36 127.98 4.6 276.52 10.31 366.32 13.8"/>
            <path d="m4208.41 518.3 9.86 3.89-10.13 3.11z"/>
        </g>
        <g stroke="#000" class="edge">
            <path fill="none" d="M2577.71 325.26c-18.14 8.27-37.29 20.71-47.71 38.74-8.01 13.85-8.33 22.34 0 36 36.45 59.73 72.93 52.07 140 72 39.57 11.76 287.99 34.01 424.45 45.58"/>
            <path d="m3094.51 514.08 9.67 4.33-10.26 2.64z"/>
        </g>
        <g stroke="#000" class="edge">
            <path fill="none" d="M3504.76 394.2c-99.65 19.36-313.95 58.83-496.76 77.8-393.84 40.86-868.75 50.25-1048.38 52.38"/>
            <path d="m1959.77 527.88-10.04-3.39 9.96-3.61z"/>
        </g>
        <g stroke="#000" class="edge">
            <path fill="none" d="M3569.8 400.28c10.83 19.73 30.93 51.85 56.2 71.72 19.91 15.66 45.11 27.4 67.87 35.8"/>
            <path d="m3694.77 504.41 8.27 6.63-10.6-.03z"/>
        </g>
        <g stroke="#000" class="edge">
            <path fill="none" d="M3531.21 398.81C3491.2 419.29 3417.32 454.42 3350 472c-72.25 18.86-278.23 37.51-393.11 46.84"/>
            <path d="m2957.48 522.3-10.25-2.68 9.69-4.29z"/>
        </g>
        <g stroke="#000" class="edge">
            <path fill="none" d="M3493.23 389.94c-124.24 12.71-388.42 39.75-527.06 53.93"/>
            <path d="m2966.6 447.35-10.31-2.46 9.59-4.5z"/>
        </g>
        <g stroke="#000" class="edge">
            <path fill="none" d="M3632.78 387.5c146.72 9.48 471.21 32 519.22 48.5 41.96 14.43 83.91 44.21 110.35 65.34"/>
            <path d="m4264.32 498.43 5.54 9.03-9.96-3.6z"/>
        </g>
        <g stroke="#000" class="edge">
            <path fill="none" d="M3547.57 400.13c-17.09 20.53-48.63 54.35-83.57 71.87-57.82 28.99-129.62 42.19-186.03 48.17"/>
            <path d="m3278.34 523.65-10.29-2.49 9.6-4.47z"/>
        </g>
        <g stroke="#000" class="edge">
            <path fill="none" d="M3224.72 184.21c-4.01 18.54-11.89 48.53-24.72 71.79-56.47 102.43-107.15 99.49-192 180-15.75 14.94-13.35 26.78-33 36-91.31 42.85-785.53 51.09-1015.36 52.64"/>
            <path d="m1959.94 528.14-10.03-3.43 9.98-3.57z"/>
        </g>
        <g stroke="#000" class="edge">
            <path fill="none" d="M3262.73 183.01c22.4 10.4 52.14 24.33 78.27 36.99 96.59 46.79 116.78 67.06 216 108 47.16 19.46 69.81 3.34 109 36 42.62 35.52 67.97 97.22 79.83 133.04"/>
            <path d="m3749.07 495.67-.31 10.59-6.36-8.48z"/>
        </g>
        <g stroke="#000" class="edge">
            <path fill="none" d="M3236.11 184.35c18.24 41.84 57.17 149.72 7.89 215.65-33.85 45.28-68.3 18.34-122 36-68.54 22.54-146.74 51.53-195.98 70.19"/>
            <path d="m2927.37 509.42-10.6.28 8.11-6.83z"/>
        </g>
        <g stroke="red" stroke-width="2" class="edge">
            <path fill="none" d="M3194.05 183.06c-20.85 9.86-47.77 22.59-70.22 33.21"/>
            <path fill="red" d="m3126.81 218.73-10.53 1.11 7.54-7.44z"/>
        </g>
        <g stroke="#000" class="edge">
            <path fill="none" d="M3143.57 173.19c-48.37 6.48-108.76 19.73-156.57 46.81-27.29 15.46-51.04 42.68-66.26 62.96"/>
            <path d="m2923.78 284.75-8.71 6.03 3.04-10.15z"/>
        </g>
        <g stroke="#000" class="edge">
            <path fill="none" d="M3219.45 184.09c-9.8 18.71-27.03 49.08-46.45 71.91-63.28 74.39-82.78 92.88-166 144-22.69 13.94-49.7 25.63-73.2 34.46"/>
            <path d="m2935.29 437.64-10.59.15 8.19-6.72z"/>
        </g>
        <g stroke="#000" class="edge">
            <path fill="none" d="M3308.69 174.71C3518.67 196.05 4076.21 261.16 4227 364c32.4 22.09 36.63 35.51 51 72 7.57 19.21 10.52 42.37 11.6 60.24"/>
            <path d="m4293.09 496.01-3.07 10.14-3.92-9.85z"/>
        </g>
        <g stroke="#000" class="edge">
            <path fill="none" d="M3273.74 181.92c17.7 8.27 36.11 20.52 46.26 38.08 24.02 41.56 14.28 62.17 0 108-21.77 69.86-77.93 136.82-110.88 171.81"/>
            <path d="m3211.77 502.11-9.44 4.8 4.39-9.64z"/>
        </g>
        <g stroke="#000" class="edge">
            <path fill="none" d="M2218.51 394.13C2174.07 403 2113.39 417.08 2062 436c-50.45 18.58-105.21 47.84-140.03 67.7"/>
            <path d="m1923.99 506.57-10.41 1.96 6.92-8.02z"/>
        </g>
        <g stroke="#000" class="edge">
            <path fill="none" d="M2330.05 396.88c29.5 9.24 67.35 22.7 98.95 39.12 24.62 12.79 24.74 27.06 51 36 14.05 4.78 899.06 38.76 1185.56 49.65"/>
            <path d="m3665.35 518.14 9.86 3.88-10.13 3.12z"/>
        </g>
        <g stroke="#000" class="edge">
            <path fill="none" d="M2297.99 399.81c22.26 20.88 63.48 55.74 106.01 72.19 69.37 26.82 275.04 42.13 391.04 48.85"/>
            <path d="m2795.03 517.35 9.78 4.06-10.18 2.92z"/>
        </g>
        <g stroke="#000" class="edge">
            <path fill="none" d="M2352.6 391.41c109.96 12.91 320.07 37.59 438.22 51.47"/>
            <path d="m2790.93 439.37 9.52 4.64-10.34 2.31z"/>
        </g>
        <g stroke="#000" class="edge">
            <path fill="none" d="M2330.08 396.86c81.96 22.91 243.47 66.96 301.92 75.14 266.41 37.28 941.15 26.9 1210 36 127.99 4.33 276.52 10.12 366.32 13.7"/>
            <path d="m4208.42 518.2 9.85 3.9-10.13 3.1z"/>
        </g>
        <g stroke="#000" class="edge">
            <path fill="none" d="M2315.32 398.62c21.28 10.03 48.99 23.69 72.68 37.38 24.97 14.43 26.7 26.69 54 36 109 37.18 402.14 27.66 517 36 44.37 3.22 93.66 6.93 134.77 10.06"/>
            <path d="m3093.92 514.56 9.7 4.25-10.23 2.73z"/>
        </g>
        <g stroke="#000" class="edge">
            <path fill="none" d="M5311.95 328.19c3.44 19.66 5.6 51.7-10.95 71.81-75.65 91.92-140.41 53.43-258 72-29.64 4.68-913.63 38.69-1200.24 49.62"/>
            <path d="m3843.23 525.11-10.12-3.12 9.86-3.88z"/>
        </g>
        <g stroke="#000" class="edge">
            <path fill="none" d="M5279.92 327.95c-15.21 9.18-34.21 20.64-50.65 30.56"/>
            <path d="m5231.09 361.5-10.37 2.17 6.75-8.16z"/>
        </g>
        <g class="node" transform="translate(4 544)">
            <ellipse cx="6954" cy="-162" fill="none" stroke="#000" rx="80.01" ry="18"/>
            <text x="6954" y="-156.95" font-family="Times,serif" font-size="14" text-anchor="middle">:library:koin-room</text>
        </g>
        <g stroke="#000" class="edge">
            <path fill="none" d="M5430.46 312.71C5747.75 317.52 6591.09 332.93 6869 364c6.98.78 14.22 1.8 21.44 2.96"/>
            <path d="m6890.94 363.5 9.27 5.13-10.45 1.77z"/>
        </g>
        <g class="node" transform="translate(4 544)">
            <ellipse cx="6795" cy="-162" fill="none" stroke="#000" rx="60.56" ry="18"/>
            <text x="6795" y="-156.95" font-family="Times,serif" font-size="14" text-anchor="middle">:library:room</text>
        </g>
        <g stroke="#000" class="edge">
            <path fill="none" d="M5430.84 312.41C5728.09 316.34 6480.03 329.48 6729 364c5.01.7 10.19 1.6 15.35 2.62"/>
            <path d="m6745.05 363.19 9.04 5.51-10.51 1.33z"/>
        </g>
        <g stroke="#000" class="edge">
            <path fill="none" d="M6810.8 323.05c94.82 12.63 228.47 31.88 236.2 40.95 10.38 12.18 10.61 24.02 0 36-162.32 183.37 20.6 31.86-2837 108-127.78 3.4-275.63 9.27-367.49 13.14"/>
            <path d="m3842.69 524.64-10.14-3.08 9.84-3.92z"/>
        </g>
        <g stroke="#000" class="edge">
            <path fill="none" d="M6691.07 328.12c-13.58 8.97-30.39 20.07-45.1 29.79"/>
            <path d="m6648.2 360.63-10.27 2.59 6.41-8.43z"/>
        </g>
        <g stroke="#000" class="edge">
            <path fill="none" d="M6771.39 326.8c38.11 11.07 89.01 25.85 128.02 37.18"/>
            <path d="m6900.25 360.58 8.63 6.15-10.58.57z"/>
        </g>
        <g stroke="#000" class="edge">
            <path fill="none" d="M6736.85 327.95c10.32 8.81 23.11 19.72 34.39 29.36"/>
            <path d="m6773.41 354.56 5.34 9.15-9.88-3.83z"/>
        </g>
        <g stroke="#000" class="edge">
            <path fill="none" d="M5637.47 395.15c-18.83 1.8-38.2 3.51-56.47 4.85-346.99 25.52-435.01 10.58-782 36-20.1 1.47-41.51 3.37-62.1 5.36"/>
            <path d="m4737.35 444.83-10.29-2.5 9.61-4.46z"/>
        </g>
        <g class="node" transform="translate(4 544)">
            <ellipse cx="5716" cy="-90" fill="none" stroke="#000" rx="93.32" ry="18"/>
            <text x="5716" y="-84.95" font-family="Times,serif" font-size="14" text-anchor="middle">:library:koin-datastore</text>
        </g>
        <g stroke="#000" class="edge">
            <path fill="none" d="M5741.83 400.3c-3.12 7.55-6.87 16.58-10.36 25.02"/>
            <path d="m5734.73 426.6-7.06 7.9.59-10.58z"/>
        </g>
        <g stroke="#000" class="edge">
            <path fill="none" d="M7027.75 327.61c14.32 8.66 29.28 20.76 37.25 36.39 24.94 48.92-10.43 84.39-60 108-70.1 33.39-2717.38 34.05-2795 36-127.78 3.2-275.63 9.12-367.49 13.06"/>
            <path d="m3842.69 524.56-10.14-3.07 9.84-3.93z"/>
        </g>
        <g stroke="#000" class="edge">
            <path fill="none" d="M6905.64 323.37c-15.82 1.86-32.2 3.52-47.64 4.63-947.48 67.88-1189.11-25.91-2137 36-18.89 1.23-39.08 3.14-58.3 5.23"/>
            <path d="m4663.35 372.68-10.33-2.36 9.55-4.59z"/>
        </g>
        <g stroke="#000" class="edge">
            <path fill="none" d="M6983.6 328.3c-3.71 7.63-8.16 16.78-12.29 25.3"/>
            <path d="m6974.49 355.07-7.52 7.46 1.22-10.52z"/>
        </g>
        <g stroke="#000" class="edge">
            <path fill="none" d="M6947.24 327.24c-30.09 10.91-69.69 25.27-100.4 36.41"/>
            <path d="m6848.4 366.81-10.59.11 8.2-6.69z"/>
        </g>
        <g stroke="#000" class="edge">
            <path fill="none" d="M4782.99 398.36c-28.53 10.19-66.25 23.66-97.09 34.68"/>
            <path d="m4687.32 436.25-10.6.06 8.24-6.66z"/>
        </g>
        <g stroke="#000" class="edge">
            <path fill="none" d="M4898.76 394.06c24.56 7.59 49.46 20.38 64.24 41.94 9.05 13.2 10.86 24.25 0 36-39.3 42.51-418.84 50.97-590.01 52.62"/>
            <path d="m4373.08 528.12-10.03-3.41 9.96-3.59z"/>
        </g>
        <g stroke="#000" class="edge">
            <path fill="none" d="M4816 400.14c-14.11 23.53-39.86 63.85-55 71.86-53.81 28.45-1034.17 33.93-1095 36-134.43 4.58-289.94 10.11-387.14 13.59"/>
            <path d="m3279.22 525.08-10.12-3.14 9.87-3.86z"/>
        </g>
        <g class="node" transform="translate(4 544)">
            <ellipse cx="4877" cy="-90" fill="none" stroke="#000" rx="72.85" ry="18"/>
            <text x="4877" y="-84.95" font-family="Times,serif" font-size="14" text-anchor="middle">:common:model</text>
        </g>
        <g stroke="#000" class="edge">
            <path fill="none" d="M4839.6 400.3c6.32 8.06 13.98 17.81 20.99 26.72"/>
            <path d="m4863.2 424.68 3.43 10.03-8.93-5.71z"/>
        </g>
        <g stroke="#000" class="edge">
            <path fill="none" d="M7200.89 467.03c-14.83 2-30.33 3.8-44.89 4.97-561.81 45.15-2373.17 51.89-2783.03 52.85"/>
            <path d="m4373.06 528.35-10.01-3.48 9.99-3.52z"/>
        </g>
        <g stroke="#000" class="edge">
            <path fill="none" d="M5979.57 395.93c-39.12 7.82-82.99 20.28-119.57 40.07-20.46 11.07-16.45 27.25-38 36-70.32 28.56-2656.19 32.48-2732 36-44.78 2.08-94.76 5.98-135.03 9.53"/>
            <path d="m2955.38 521-10.27-2.59 9.65-4.38z"/>
        </g>
        <g stroke="#000" class="edge">
            <path fill="none" d="M6060.49 399.95c-11.68 8.79-26.14 19.67-38.92 29.29"/>
            <path d="m6023.93 431.84-10.09 3.22 5.88-8.81z"/>
        </g>
        <g stroke="#000" class="edge">
            <path fill="none" d="M6005.13 398.02c-61.98 11.95-148.19 28.57-209.55 40.41"/>
            <path d="m5796.39 441.83-10.48-1.54 9.15-5.33z"/>
        </g>
        <g stroke="#000" class="edge">
            <path fill="none" d="M6440.97 328.4c12.07 33.31 32.02 106.11-6.97 143.6-44.54 42.82-2162.24 34.35-2224 36-127.78 3.42-275.63 9.28-367.49 13.15"/>
            <path d="m3842.69 524.64-10.14-3.07 9.84-3.92z"/>
        </g>
        <g stroke="#000" class="edge">
            <path fill="none" d="M6434.95 328.15c.2 19.33-2.26 50.78-17.95 71.85-10.51 14.11-25.88 24.79-41.52 32.73"/>
            <path d="m6377.12 435.82-10.54 1.09 7.56-7.42z"/>
        </g>
        <g stroke="#000" class="edge">
            <path fill="none" d="M6531.1 322.66c123.09 14.81 321.41 38.76 337.9 41.34 6.37 1 12.99 2.11 19.6 3.28"/>
            <path d="m6888.98 363.79 9.22 5.22-10.46 1.67z"/>
        </g>
        <g stroke="#000" class="edge">
            <path fill="none" d="M6516.6 324.46c59.29 10 140.99 24.47 212.4 39.54 4.54.96 9.24 2 13.95 3.07"/>
            <path d="m6743.49 363.6 8.94 5.68-10.53 1.14z"/>
        </g>
        <g stroke="#000" class="edge">
            <path fill="none" d="M794.25 176.26c95.35 12.93 268 36.36 368.78 50.03"/>
            <path d="m1163.41 222.81 9.44 4.81-10.38 2.12z"/>
        </g>
        <g stroke="#000" class="edge">
            <path fill="none" d="M682.64 181.48C664.9 189.8 646.17 202.21 636 220c-7.94 13.89-10.82 24.21 0 36 33.24 36.23 334.92 47.75 503.05 51.37"/>
            <path d="m1138.98 303.87 9.93 3.71-10.07 3.29z"/>
        </g>
        <g stroke="#000" class="edge">
            <path fill="none" d="M807.64 167.61c177 2.09 609.07 11.34 968.36 52.39 7.38.84 15.06 1.9 22.7 3.08"/>
            <path d="m1799.03 219.59 9.32 5.05-10.43 1.86z"/>
        </g>
        <g stroke="#000" class="edge">
            <path fill="none" d="M676.44 180.64c-19.57 8.09-40.07 20.55-51.44 39.36-8.28 13.69-8.64 22.54 0 36 45.72 71.22 143.26 102.38 208.49 115.65"/>
            <path d="m833.84 368.15 9.15 5.34-10.49 1.53z"/>
        </g>
        <g stroke="#000" class="edge">
            <path fill="none" d="M647.02 170.99C573.35 176.56 471.13 189.66 446 220c-51.04 61.6-54.07 121.04 0 180 93.1 101.53 1085.92 120.85 1366.52 124.29"/>
            <path d="m1812.3 520.79 9.96 3.62-10.05 3.38z"/>
        </g>
        <g stroke="#000" class="edge">
            <path fill="none" d="M802.61 172.58c176.84 12.88 612.5 44.62 798.25 58.15"/>
            <path d="m1600.96 227.22 9.72 4.22-10.23 2.77z"/>
        </g>
        <g stroke="#000" class="edge">
            <path fill="none" d="M671.1 179.67c-21.31 7.88-43.57 20.46-56.1 40.33-8.54 13.53-3.93 20.49 0 36 28.16 111.13 102.37 117.89 214 144 112.68 26.35 923.41 66.52 1039 72 626.17 29.68 783.42 16.81 1410 36 135.02 4.13 291.55 9.91 387.16 13.56"/>
            <path d="m3665.14 518.05 9.86 3.88-10.13 3.12z"/>
        </g>
        <g stroke="#000" class="edge">
            <path fill="none" d="M650.94 173.28C587.85 180.31 504.73 194.24 484 220c-30.09 37.4-28.2 69.16 0 108 60.69 83.6 119.98 50.4 221 72 294.6 63 373.5 50.66 674 72 537.66 38.18 1185.93 49.27 1413.85 52.12"/>
            <path d="m2792.56 520.61 9.95 3.63-10.04 3.37z"/>
        </g>
        <g stroke="#000" class="edge">
            <path fill="none" d="M736.13 184.3c4.57 7.8 10.07 17.19 15.16 25.87"/>
            <path d="m754.18 208.19 2.04 10.4-8.08-6.86z"/>
        </g>
        <g stroke="#000" class="edge">
            <path fill="none" d="M807.07 168.79c266.7 5.99 1141.05 26.34 1863.93 51.21 108.54 3.73 233.23 9.07 316.12 12.76"/>
            <path d="m2987.19 229.26 9.83 3.94-10.15 3.05z"/>
        </g>
        <g stroke="#000" class="edge">
            <path fill="none" d="M702.77 183.52C678.7 202.55 647.4 234.01 669 256c39.72 40.43 1983.4 33.02 2040 36 38.84 2.04 81.96 5.68 117.65 9.07"/>
            <path d="m2826.85 297.57 9.61 4.45-10.29 2.52z"/>
        </g>
        <g stroke="#000" class="edge">
            <path fill="none" d="M1482.81 178.87c-48.58 11.73-123.13 29.72-176.41 42.58"/>
            <path d="m1307.39 224.82-10.54-1.06 8.9-5.75z"/>
        </g>
        <g stroke="#000" class="edge">
            <path fill="none" d="M1482.28 178.69c-31.91 8.71-73.54 22.38-107.28 41.31-21.74 12.2-22.98 21.15-43 36-14.15 10.49-30.29 21.28-44.42 30.36"/>
            <path d="m1289.76 289.12-10.31 2.41 6.56-8.32z"/>
        </g>
        <g stroke="#000" class="edge">
            <path fill="none" d="M1584.6 177.86c57.8 11.94 150.98 31.18 215.28 44.45"/>
            <path d="m1800.56 218.88 9.09 5.45-10.5 1.41z"/>
        </g>
        <g stroke="#000" class="edge">
            <path fill="none" d="M1503.55 182.77c-16.24 9.67-36.49 22.92-52.55 37.23-46.65 41.56-35.02 78.32-90 108-66.08 35.67-279.76 47.48-392.25 51.27"/>
            <path d="m969.15 382.76-10.11-3.17 9.88-3.82z"/>
        </g>
        <g stroke="#000" class="edge">
            <path fill="none" d="M1513.59 183.76c-9.21 9.61-19.46 22.47-24.59 36.24-39.16 104.98-80.89 167.78-7 252 21.52 24.52 221.8 41.22 332.04 48.64"/>
            <path d="m1814.14 517.14 9.75 4.16-10.21 2.83z"/>
        </g>
        <g stroke="#000" class="edge">
            <path fill="none" d="M1565.25 182.02c22.5 10.16 52.47 23.69 77.05 34.79"/>
            <path d="m1643.41 213.47 7.67 7.31-10.55-.93z"/>
        </g>
        <g stroke="#000" class="edge">
            <path fill="none" d="M1532.58 184.47c1.54 19.61 6.81 51.33 24.42 71.53 157.99 181.25 261.36 163.52 496 216 132.89 29.72 1088.9 31.57 1225 36 135.01 4.39 291.54 10.1 387.15 13.66"/>
            <path d="m3665.13 518.16 9.86 3.87-10.12 3.12z"/>
        </g>
        <g stroke="#000" class="edge">
            <path fill="none" d="M1527.3 184.24c-4.15 18.32-8.38 47.86-.3 71.76 38.71 114.44 57.94 160.05 165 216 96.73 50.55 845.86 53.72 1100.56 53.32"/>
            <path d="m2792.43 521.82 10 3.48-9.99 3.52z"/>
        </g>
        <g stroke="#000" class="edge">
            <path fill="none" d="M1464.68 170.34C1344.24 176.75 1084.09 192.65 866 220c-7.7.97-15.72 2.11-23.71 3.34"/>
            <path d="m842.97 226.78-10.43-1.89 9.33-5.03z"/>
        </g>
        <g stroke="#000" class="edge">
            <path fill="none" d="M1599.51 170.05c247.22 11.18 1103.44 49.9 1387.85 62.76"/>
            <path d="m2987.1 229.3 9.83 3.94-10.14 3.05z"/>
        </g>
        <g stroke="#000" class="edge">
            <path fill="none" d="M1539.02 184.13c9.72 21.21 29.5 56.43 58.98 71.87 54.7 28.66 1049.36 32.3 1111 36 38.83 2.33 81.94 6 117.64 9.33"/>
            <path d="m2826.82 297.83 9.63 4.43-10.28 2.54z"/>
        </g>
        <g stroke="#000" class="edge">
            <path fill="none" d="M1405.05 111.85c-32.91 25.26-95.16 73.04-132.49 101.7"/>
            <path d="m1274.9 216.16-10.07 3.31 5.81-8.86z"/>
        </g>
        <g stroke="#000" class="edge">
            <path fill="none" d="M1356.59 105.24C1290.94 118.95 1196.66 150.2 1152 220c-8.62 13.48-8.22 22.27 0 36 8.75 14.61 23.06 25.42 38.11 33.33"/>
            <path d="m1191.2 285.97 7.5 7.48-10.53-1.18z"/>
        </g>
        <g stroke="#000" class="edge">
            <path fill="none" d="M1487.18 107.54c43.66 9.63 103.91 24.04 155.82 40.46 64.14 20.29 136.14 49.52 181.75 68.87"/>
            <path d="m1825.98 213.59 7.82 7.14-10.57-.7z"/>
        </g>
        <g stroke="#000" class="edge">
            <path fill="none" d="M1338.3 95.84C1077.14 98.72 327 110.29 291 148c-62.31 65.29 13.84 138.53 94 180 75.3 38.96 319.96 49.28 442.18 52.02"/>
            <path d="m827.18 376.52 9.92 3.71-10.07 3.28z"/>
        </g>
        <g stroke="#000" class="edge">
            <path fill="none" d="M1338.15 95.39C1103.35 97.02 470.43 105.35 266 148c-104.87 21.88-224-18.13-224 89v146c0 44.13 6.86 65.17 44 89 73.68 47.28 1396.91 52.4 1726.25 52.94"/>
            <path d="m1812.03 521.44 10 3.51-10.01 3.49z"/>
        </g>
        <g stroke="#000" class="edge">
            <path fill="none" d="M1496.56 105.38c35.95 7.69 79.32 20.76 113.44 42.62 25.02 16.03 46.46 42.57 60.32 62.5"/>
            <path d="m1673.16 208.45 2.67 10.25-8.48-6.35z"/>
        </g>
        <g stroke="#000" class="edge">
            <path fill="none" d="M1515.81 94.35c211.6-.72 732.32 2.76 791.19 53.65 36.66 31.69 41.93 67.71 15 108-23.25 34.79-53.6 10.78-87 36-43.31 32.71-88.35 63.69-57 108 27.77 39.24 57.55 17.69 102 36 34.56 14.24 39.7 27.11 76 36 7.98 1.95 1002.02 38.5 1308.85 49.74"/>
            <path d="m3664.96 518.24 9.87 3.86-10.12 3.14z"/>
        </g>
        <g stroke="#000" class="edge">
            <path fill="none" d="M1429.33 112.34c9.74 64.29 53.66 288.92 199.67 359.66 52.31 25.34 892.51 45.41 1164.07 51.27"/>
            <path d="m2792.98 519.76 9.92 3.72-10.08 3.28z"/>
        </g>
        <g stroke="#000" class="edge">
            <path fill="none" d="M1347.68 102.43c-76.37 8.04-194.81 22.85-295.68 45.57-82.73 18.63-176.11 49.8-232.74 69.87"/>
            <path d="m820.45 221.16-10.59.06 8.24-6.66z"/>
        </g>
        <g stroke="#000" class="edge">
            <path fill="none" d="M1515.8 95.03c325.82.5 1455.13 5.67 1812.2 52.97 135.93 18.01 174.23 17.39 300 72 53.26 23.12 61.75 38.26 109 72 65.39 46.69 139.31 105 179.36 137.07"/>
            <path d="m3918.53 426.33 5.61 8.98-9.99-3.52z"/>
        </g>
        <g stroke="#000" class="edge">
            <path fill="none" d="M1513.56 98.36c300.04 11.67 1294.52 50.32 1614.4 62.75"/>
            <path d="m3127.68 157.6 9.86 3.88-10.13 3.11z"/>
        </g>
        <g class="node" transform="translate(4 544)">
            <ellipse cx="986" cy="-306" fill="none" stroke="#000" rx="115.33" ry="18"/>
            <text x="986" y="-300.95" font-family="Times,serif" font-size="14" text-anchor="middle">:app:core:calendar-compose</text>
        </g>
        <g stroke="#000" class="edge">
            <path fill="none" d="M1342.27 99.71c-63.43 5.84-151.3 18.94-223.27 48.29-38.37 15.65-76.74 44.17-101.53 64.72"/>
            <path d="m1020.03 215.14-9.9 3.77 5.38-9.12z"/>
        </g>
        <g stroke="#000" class="edge">
            <path fill="none" d="M457.18 172.25C631.62 184.3 1049.98 213.44 1114 220c16.22 1.66 33.55 3.75 50.05 5.89"/>
            <path d="m1164.37 222.4 9.45 4.78-10.37 2.16z"/>
        </g>
        <g stroke="#000" class="edge">
            <path fill="none" d="M406.12 183.42C439.66 204.4 501.62 239.91 560 256c106.23 29.28 414.19 43.79 580.83 49.68"/>
            <path d="m1140.7 302.18 9.87 3.84-10.11 3.15z"/>
        </g>
        <g stroke="#000" class="edge">
            <path fill="none" d="M456.26 172.74c50.52 3.67 118.6 8.3 178.74 11.26 506.75 24.94 636.39-16.83 1141 36 7.5.79 15.3 1.82 23.06 2.99"/>
            <path d="m1799.55 219.53 9.33 5.03-10.43 1.88z"/>
        </g>
        <g stroke="#000" class="edge">
            <path fill="none" d="M360.3 183.79c-20.57 18.72-46.61 49.36-28.3 72.21 61.58 76.87 359.91 109.27 496.93 120.26"/>
            <path d="m828.89 372.75 9.7 4.27-10.25 2.71z"/>
        </g>
        <g stroke="#000" class="edge">
            <path fill="none" d="M305.47 172.53C233.73 179.31 132.71 193.35 104 220c-30.03 27.87-24 48.03-24 89v74c0 203 246.4 65.19 448 89 252.13 29.78 1040.06 46.95 1284.76 51.66"/>
            <path d="m1812.55 520.16 9.93 3.69-10.06 3.3z"/>
        </g>
        <g stroke="#000" class="edge">
            <path fill="none" d="M456.84 172.4c50.47 3.52 118.27 8.09 178.16 11.6 186.52 10.94 745.56 38.18 963.57 48.73"/>
            <path d="m1598.61 229.23 9.82 3.98-10.16 3.01z"/>
        </g>
        <g stroke="#000" class="edge">
            <path fill="none" d="M332.36 180.68C276.95 199.59 194 239.5 194 309v74c0 115.65 921.51 83.04 1037 89 908.71 46.93 1137.4 11.76 2047 36 135.24 3.6 292.02 9.54 387.58 13.36"/>
            <path d="m3665.56 517.86 9.86 3.9-10.14 3.09z"/>
        </g>
        <g stroke="#000" class="edge">
            <path fill="none" d="M313.09 175.96C261.37 184.34 196.35 198.77 180 220c-68.36 88.72-78.41 172.03 0 252 2.93 2.99 2156.88 43.01 2612.84 51.44"/>
            <path d="m2792.8 519.94 9.94 3.69-10.07 3.31z"/>
        </g>
        <g stroke="#000" class="edge">
            <path fill="none" d="M442.16 178.09c67.54 12.25 176.33 31.98 249.18 45.19"/>
            <path d="m691.56 219.76 9.21 5.23-10.46 1.66z"/>
        </g>
        <g stroke="#000" class="edge">
            <path fill="none" d="M354.13 183.43c-12.24 9.1-25.46 21.61-32.13 36.57-22.63 50.75 14.4 81.05 63 108 174.82 96.96 244.96 53.37 444 72 384.7 36 1591.55 49.07 1947.95 52.2"/>
            <path d="m2776.78 448.7 9.97 3.59-10.03 3.41z"/>
        </g>
        <g stroke="#000" class="edge">
            <path fill="none" d="M392.51 184.22c15.06 20.96 43.58 55.56 77.49 71.78 155.53 74.39 1368.33 112.94 1717.34 122.56"/>
            <path d="m2187.23 375.06 9.9 3.77-10.09 3.23z"/>
        </g>
        <g stroke="#000" class="edge">
            <path fill="none" d="M1955.95 173.34c-144.61 12.89-472.62 42.14-628.55 56.04"/>
            <path d="m1327.8 232.86-10.27-2.6 9.65-4.37z"/>
        </g>
        <g stroke="#000" class="edge">
            <path fill="none" d="M2020.81 184.26c-8.53 21.01-26.09 55.65-53.81 71.74-13.02 7.56-414.5 33.91-610.46 46.37"/>
            <path d="m1356.8 305.87-10.21-2.86 9.76-4.13z"/>
        </g>
        <g stroke="#000" class="edge">
            <path fill="none" d="M1992.38 182.54c-22.29 9.99-51.5 23.1-75.68 33.95"/>
            <path d="m1918.27 219.62-10.55.9 7.69-7.28z"/>
        </g>
        <g stroke="#000" class="edge">
            <path fill="none" d="M2026.74 184.22c-1.33 20.62-6.95 54.54-28.74 71.78-75.72 59.91-337.47 21.97-433 36-76.41 11.22-93.72 23.89-170 36-152.15 24.16-332.29 40.3-428.43 47.92"/>
            <path d="m967.02 379.4-10.24-2.71 9.7-4.27z"/>
        </g>
        <g stroke="#000" class="edge">
            <path fill="none" d="M2032.04 184.17c4.7 19.94 8.61 52.55-9.04 71.83-40.57 44.33-209.38 22.79-268 36-102.43 23.08-144.52 4.57-225 72-27.73 23.24-29.3 36.88-38 72-3.85 15.53-10.53 23.96 0 36 20.85 23.84 214.37 40.74 322.22 48.4"/>
            <path d="m1814.42 516.9 9.73 4.19-10.22 2.8z"/>
        </g>
        <g stroke="#000" class="edge">
            <path fill="none" d="M1970.47 178.64c-59.05 12.16-151.72 31.23-214.91 44.24"/>
            <path d="m1756.5 226.27-10.5-1.42 9.08-5.44z"/>
        </g>
        <g stroke="#000" class="edge">
            <path fill="none" d="M2041.85 183.89c14.17 18.27 31.63 48.02 19.15 72.11-12.76 24.63-38.24 11.37-51 36-10.84 20.92 3.64 99.94 10 108 54.39 68.95 97.99 54.27 184 72 233.89 48.2 835.34 27.74 1074 36 135 4.67 291.54 10.3 387.15 13.77"/>
            <path d="m3665.12 518.27 9.87 3.86-10.12 3.13z"/>
        </g>
        <g stroke="#000" class="edge">
            <path fill="none" d="M2037.4 184.18c10.41 19.64 22.62 51.67 5.6 71.82-61.66 73.02-137.21-23.51-212 36-63.15 50.25-82.02 123.9-24 180 35.27 34.1 739.46 48 985.8 51.83"/>
            <path d="m2792.72 520.32 9.94 3.66-10.05 3.34z"/>
        </g>
        <g stroke="#000" class="edge">
            <path fill="none" d="M1951.78 170.18C1703.08 180.71 919.94 214.16 866 220c-7.99.86-16.3 1.97-24.57 3.2"/>
            <path d="m842.13 226.63-10.42-1.92 9.34-5z"/>
        </g>
        <g stroke="#000" class="edge">
            <path fill="none" d="M2085.39 178.07c80.49 15.28 216 41.06 218.61 41.93 171.9 57.55 195.96 117.18 366 180 43.58 16.1 94.05 29.13 134.25 38.24"/>
            <path d="m2804.83 434.78 8.99 5.6-10.52 1.24z"/>
        </g>
        <g stroke="#000" class="edge">
            <path fill="none" d="M2084.03 178.39c10.92 2 22.28 3.97 32.97 5.61 121.65 18.65 262.72 34.33 353.78 43.69"/>
            <path d="m2471.09 224.2 9.59 4.5-10.3 2.47z"/>
        </g>
        <g stroke="#000" class="edge">
            <path fill="none" d="M2149.57 178.79c-12.1 1.98-24.7 3.83-36.57 5.21-149.23 17.3-589.98 39.6-781.01 48.78"/>
            <path d="m1332.27 236.27-10.16-3.02 9.82-3.98z"/>
        </g>
        <g stroke="#000" class="edge">
            <path fill="none" d="M2181.86 183.22c-40.5 20.92-115.34 56.56-183.86 72.78-117.76 27.88-459.28 43.24-636.85 49.54"/>
            <path d="m1361.33 309.04-10.12-3.15 9.87-3.85z"/>
        </g>
        <g stroke="#000" class="edge">
            <path fill="none" d="m2152.21 179.27-210.31 43.17"/>
            <path d="m1942.99 225.8-10.5-1.42 9.09-5.44z"/>
        </g>
        <g stroke="#000" class="edge">
            <path fill="none" d="M2190.71 183.64C2163 204.33 2112.28 239 2063 256c-15.06 5.2-553.16 70.29-569 72-190.78 20.55-416.54 39.04-527.47 47.74"/>
            <path d="m966.94 379.22-10.24-2.71 9.69-4.27z"/>
        </g>
        <g stroke="#000" class="edge">
            <path fill="none" d="M2198.69 184.11c-17.28 20.85-49.55 55.33-85.69 71.89-57.43 26.31-240.25-11.42-282 36-52.31 59.41 3.65 159.38 35.74 206.68"/>
            <path d="m1869.48 496.49 2.83 10.21-8.58-6.21z"/>
        </g>
        <g stroke="#000" class="edge">
            <path fill="none" d="M2148.45 178.53c-11.76 1.96-23.96 3.87-35.45 5.47-149.63 20.79-188.59 13.65-338 36-6.41.96-13.06 2.05-19.71 3.22"/>
            <path d="m1756.11 226.63-10.46-1.67 9.22-5.22z"/>
        </g>
        <g stroke="#000" class="edge">
            <path fill="none" d="M2257.26 181.7c17.85 8.27 36.5 20.59 46.74 38.3 8.01 13.85 10.58 23.99 0 36-83.81 95.14-199.19-59.14-283 36-20.5 23.28 10.76 98.41 21 108 53.82 50.43 90.55 17.71 162 36 55.59 14.23 67.34 26.87 124 36 16.57 2.67 1027.99 38.84 1337.19 49.84"/>
            <path d="m3664.94 518.33 9.87 3.86-10.12 3.14z"/>
        </g>
        <g stroke="#000" class="edge">
            <path fill="none" d="M2205.71 184.39c-8.5 20.79-25.78 54.89-52.71 71.61-108.09 67.12-189.12-48.77-284 36-60.77 54.3-91.15 120.93-35 180 32.87 34.58 717.09 48.13 959.1 51.85"/>
            <path d="m2792.82 520.35 9.95 3.65-10.05 3.35z"/>
        </g>
        <g stroke="#000" class="edge">
            <path fill="none" d="M2150.4 178.96c-12.35 2.01-25.25 3.83-37.4 5.04-551.71 55.06-695.29-19.06-1247 36-8.05.8-16.44 1.87-24.77 3.09"/>
            <path d="m841.84 226.54-10.41-1.95 9.35-4.97z"/>
        </g>
        <g stroke="#000" class="edge">
            <path fill="none" d="M2297.95 167.54c115.8 2.3 314.21 12.2 373.05 52.46 29.86 20.43 22.71 39.21 38 72 21.9 46.98 7.66 71.04 44 108 15.79 16.07 37.23 27.54 57.84 35.61"/>
            <path d="m2811.91 432.27 8.18 6.73-10.59-.16z"/>
        </g>
        <g stroke="#000" class="edge">
            <path fill="none" d="m2272.85 179.03 217.62 43.04"/>
            <path d="m2490.84 218.57 9.13 5.37-10.49 1.5z"/>
        </g>
        <g class="node" transform="translate(4 544)">
            <ellipse cx="5456" cy="-90" fill="none" stroke="#000" rx="106.11" ry="18"/>
            <text x="5456" y="-84.95" font-family="Times,serif" font-size="14" text-anchor="middle">:library:firebase-common</text>
        </g>
        <g stroke="#000" class="edge">
            <path fill="none" d="M5460 400.3v24.16"/>
            <path d="m5463.5 424.38-3.5 10-3.5-10z"/>
        </g>
        <g stroke="#000" class="edge">
            <path fill="none" d="M4548.02 399.78c-14.39 10.23-32.97 23.7-49.02 36.22-19.65 15.33-21.16 23.98-43 36-31.77 17.48-70.18 30.21-102.05 38.81"/>
            <path d="m4354.99 514.15-10.56-.86 8.79-5.91z"/>
        </g>
        <g stroke="#000" class="edge">
            <path fill="none" d="M6236.76 467.04c-15.15 1.96-30.93 3.74-45.76 4.96-361.2 29.71-1500.93 47.44-1818.27 51.89"/>
            <path d="m4372.91 527.39-10.05-3.36 9.95-3.64z"/>
        </g>
        <g stroke="#000" class="edge">
            <path fill="none" d="M6597.38 400c-18.35 21.42-53.27 57.22-92.38 72-101.39 38.3-1741.48 50.24-2132.01 52.55"/>
            <path d="m4373.06 528.05-10.02-3.44 9.98-3.56z"/>
        </g>
        <g stroke="#000" class="edge">
            <path fill="none" d="M6759.05 395.93c-66.54 20.82-204.68 60.95-325.05 76.07-368.68 46.31-2972.8 19.21-3344 36-44.79 2.03-94.76 5.93-135.04 9.48"/>
            <path d="m2955.38 520.96-10.27-2.6 9.65-4.37z"/>
        </g>
        <g stroke="#000" class="edge">
            <path fill="none" d="M1046.31 254.1c40.95 10.98 96.48 25.88 139.37 37.38"/>
            <path d="m1186.36 288.04 8.76 5.97-10.57.79z"/>
        </g>
        <g stroke="#000" class="edge">
            <path fill="none" d="M978.72 256.41c-15.88 24.51-44.96 69.4-63.54 98.07"/>
            <path d="m918.28 356.13-8.37 6.49 2.5-10.3z"/>
        </g>
        <g stroke="#000" class="edge">
            <path fill="none" d="M1016.1 255.91c29.62 18.82 79.69 49.55 124.9 72.09 74.9 37.34 266.24 126.12 348 144 126.93 27.75 1023.83 46.34 1304.35 51.52"/>
            <path d="m2793.21 520.02 9.94 3.68-10.07 3.32z"/>
        </g>
    </g>
</svg>
