<svg xmlns="http://www.w3.org/2000/svg" width="7264pt" height="620pt" viewBox="0 0 7263.58 620">
    <g class="graph">
        <path fill="#fff" d="M0 620V0h7263.58v620z"/>
        <g class="node" transform="translate(4 616)">
            <ellipse cx="880.58" cy="-594" fill="none" stroke="#000" rx="74.89" ry="18"/>
            <text x="880.58" y="-588.95" font-family="Times,serif" font-size="14" text-anchor="middle">:app:platform:ios</text>
        </g>
        <g class="node" transform="translate(4 616)">
            <ellipse cx="3870.58" cy="-522" fill="none" stroke="#000" rx="97.41" ry="18"/>
            <text x="3870.58" y="-516.95" font-family="Times,serif" font-size="14" text-anchor="middle">:app:platform:common</text>
        </g>
        <g stroke="red" stroke-width="2" class="edge">
            <path fill="none" d="M958.86 24.74c403.37 9.44 2329.96 54.55 2808.13 65.74"/>
            <path fill="red" d="m3765.41 86.94 9.91 3.74-10.08 3.26z"/>
        </g>
        <g class="node" transform="translate(4 616)">
            <ellipse cx="937.58" cy="-450" fill="none" stroke="#000" rx="86.15" ry="18"/>
            <text x="937.58" y="-444.95" font-family="Times,serif" font-size="14" text-anchor="middle">:app:core:coroutines</text>
        </g>
        <g stroke="#000" class="edge">
            <path fill="none" d="M891.57 40.41c9.71 24.19 27.38 68.23 38.91 96.94"/>
            <path d="m933.67 135.9.48 10.58-6.98-7.97z"/>
        </g>
        <g class="node" transform="translate(4 616)">
            <ellipse cx="2077.58" cy="-162" fill="none" stroke="#000" rx="95.88" ry="18"/>
            <text x="2077.58" y="-156.95" font-family="Times,serif" font-size="14" text-anchor="middle">:app:core:diary-service</text>
        </g>
        <g stroke="#000" class="edge">
            <path fill="none" d="M871.85 40.18c-22.53 32.6-63.59 103.77-25.27 143.82 62.74 65.57 728.67 11.29 816 36 158.39 44.83 322.13 159.45 388.41 209.28"/>
            <path d="m2052.99 426.4 5.86 8.83-10.09-3.25z"/>
        </g>
        <g class="node" transform="translate(4 616)">
            <ellipse cx="104.58" cy="-90" fill="none" stroke="#000" rx="104.58" ry="18"/>
            <text x="104.58" y="-84.95" font-family="Times,serif" font-size="14" text-anchor="middle">:app:core:holiday-service</text>
        </g>
        <g stroke="#000" class="edge">
            <path fill="none" d="M813.32 27.93C614.74 42.63 69.58 89.82 69.58 165v218c0 41.08 15.36 86.53 26.8 114.68"/>
            <path d="m99.46 495.96.64 10.57-7.1-7.86z"/>
        </g>
        <g stroke="#000" class="edge">
            <path fill="none" d="M3777.11 94.86c-433.3-.3-2187.59 1.73-2735.53 53.14-8.75.82-17.9 1.97-26.94 3.28"/>
            <path d="m1015.18 154.74-10.42-1.94 9.36-4.98z"/>
        </g>
        <g stroke="#000" class="edge">
            <path fill="none" d="M3776.99 94.9c-295.26.25-1176.12 5.12-1458.41 53.1-130.82 22.24-285-43.7-285 89v74c0 41.58 18.7 86.58 32.76 114.53"/>
            <path d="m2069.42 423.88 1.52 10.48-7.73-7.25z"/>
        </g>
        <g stroke="#000" class="edge">
            <path fill="none" d="M3776.83 94.69c-481.34-1.25-2581.52-3.42-2707.25 53.31-19.78 8.93-14.06 25.4-33 36-73.49 41.11-103.38 19.79-186 36-321.94 63.17-502.08-97.63-724 144-32.9 35.83-29.56 96.73-23.94 132.47"/>
            <path d="m106.05 495.61-1.72 10.46-5.18-9.25z"/>
        </g>
        <g class="node" transform="translate(4 616)">
            <ellipse cx="6228.58" cy="-306" fill="none" stroke="#000" rx="81.04" ry="18"/>
            <text x="6228.58" y="-300.95" font-family="Times,serif" font-size="14" text-anchor="middle">:app:core:compose</text>
        </g>
        <g stroke="#000" class="edge">
            <path fill="none" d="M3971.84 95.63c339.51 2.54 1470.93 13.75 1831.74 52.37 172.22 18.44 244.05-31.41 383 72 19.83 14.76 31.82 40.56 38.56 60.59"/>
            <path d="m6228.49 279.56-.41 10.59-6.29-8.53z"/>
        </g>
        <g class="node" transform="translate(4 616)">
            <ellipse cx="6413.58" cy="-162" fill="none" stroke="#000" rx="101" ry="18"/>
            <text x="6413.58" y="-156.95" font-family="Times,serif" font-size="14" text-anchor="middle">:app:core:design-system</text>
        </g>
        <g stroke="#000" class="edge">
            <path fill="none" d="M3972.24 94.95c495.3 0 2708 2.79 2757.34 53.05 83.52 85.09 8.46 187.78-92 252-35.63 22.77-80.18 35.77-119.86 43.18"/>
            <path d="m6518.34 446.62-10.46-1.71 9.25-5.18z"/>
        </g>
        <g class="node" transform="translate(4 616)">
            <ellipse cx="5522.58" cy="-306" fill="none" stroke="#000" rx="86.67" ry="18"/>
            <text x="5522.58" y="-300.95" font-family="Times,serif" font-size="14" text-anchor="middle">:app:core:navigation</text>
        </g>
        <g stroke="#000" class="edge">
            <path fill="none" d="M3970.92 96.89c251.27 5.28 922.31 21.77 1142.66 51.11 144.07 19.18 190.76 3.59 319 72 29.4 15.69 56.28 43.06 73.7 63.32"/>
            <path d="m5508.89 280.99 3.73 9.91-9.1-5.42z"/>
        </g>
        <g class="node" transform="translate(4 616)">
            <ellipse cx="6542.58" cy="-90" fill="none" stroke="#000" rx="59.54" ry="18"/>
            <text x="6542.58" y="-84.95" font-family="Times,serif" font-size="14" text-anchor="middle">:library:color</text>
        </g>
        <g stroke="#000" class="edge">
            <path fill="none" d="M3971.67 95.8c470.64 4.01 2503.53 22.9 2784.91 52.2 209.29 21.79 465-121.42 465 89v74c0 152.89-158.61 113.71-304 161-101.37 32.97-224.95 45.45-300.79 50.16"/>
            <path d="m6617.2 525.64-10.19-2.9 9.78-4.09z"/>
        </g>
        <g class="node" transform="translate(4 616)">
            <ellipse cx="5254.58" cy="-18" fill="none" stroke="#000" rx="62.1" ry="18"/>
            <text x="5254.58" y="-12.95" font-family="Times,serif" font-size="14" text-anchor="middle">:library:kotlin</text>
        </g>
        <g stroke="#000" class="edge">
            <path fill="none" d="M3972.04 95.04c495.41.4 2722.95 4.89 3027.54 52.96 120.64 19.04 260-33.14 260 89v218c0 53.48-32.38 66.7-81 89-85.25 39.1-1503.97 50.41-1846.17 52.58"/>
            <path d="m5332.47 600.08-10.02-3.44 9.98-3.56z"/>
        </g>
        <g class="node" transform="translate(4 616)">
            <ellipse cx="5821.58" cy="-306" fill="none" stroke="#000" rx="79.5" ry="18"/>
            <text x="5821.58" y="-300.95" font-family="Times,serif" font-size="14" text-anchor="middle">:library:navigation</text>
        </g>
        <g stroke="#000" class="edge">
            <path fill="none" d="M3971.93 95.82c270.72 2.76 1028.68 13.77 1274.65 52.18 103.07 16.1 398.39 105.28 522.74 143.55"/>
            <path d="m5770.12 288.14 8.53 6.29-10.59.4z"/>
        </g>
        <g class="node" transform="translate(4 616)">
            <ellipse cx="3344.58" cy="-18" fill="none" stroke="#000" rx="78.99" ry="18"/>
            <text x="3344.58" y="-12.95" font-family="Times,serif" font-size="14" text-anchor="middle">:library:coroutines</text>
        </g>
        <g stroke="#000" class="edge">
            <path fill="none" d="M3777.23 95.65c-413.69 2.99-2014.79 16.77-2237.65 52.35-134.82 21.52-294-47.52-294 89v74c0 106.93-32.47 179.29 60 233 86.49 50.24 1700.08 31.51 1800 36 52.69 2.37 111.71 6.46 158.4 10.04"/>
            <path d="m3264.05 586.54 9.7 4.26-10.24 2.72z"/>
        </g>
        <g class="node" transform="translate(4 616)">
            <ellipse cx="4700.58" cy="-18" fill="none" stroke="#000" rx="72.85" ry="18"/>
            <text x="4700.58" y="-12.95" font-family="Times,serif" font-size="14" text-anchor="middle">:library:datetime</text>
        </g>
        <g stroke="#000" class="edge">
            <path fill="none" d="M3971.83 95.61c190.21 2.1 604.76 11.38 740.75 52.39 61.38 18.51 76.7 29.84 125 72 122.98 107.35 278.12 199.11 173 324-27.98 33.24-142.01 45.63-222.66 50.25"/>
            <path d="m4788.46 597.73-10.17-2.96 9.79-4.03z"/>
        </g>
        <g class="node" transform="translate(4 616)">
            <ellipse cx="6454.58" cy="-306" fill="none" stroke="#000" rx="89.23" ry="18"/>
            <text x="6454.58" y="-300.95" font-family="Times,serif" font-size="14" text-anchor="middle">:library:shimmer-m3</text>
        </g>
        <g stroke="#000" class="edge">
            <path fill="none" d="M3971.95 95.9c387.34 3.81 1807.57 19.84 2006.63 52.1 165.83 26.87 351.59 103.36 435.09 140.4"/>
            <path d="m6414.97 285.14 7.7 7.28-10.56-.89z"/>
        </g>
        <g class="node" transform="translate(4 616)">
            <ellipse cx="1578.58" cy="-378" fill="none" stroke="#000" rx="71.31" ry="18"/>
            <text x="1578.58" y="-372.95" font-family="Times,serif" font-size="14" text-anchor="middle">:app:data:memo</text>
        </g>
        <g stroke="#000" class="edge">
            <path fill="none" d="M3777.15 95.27c-414.18 1.4-2011.99 9.6-2109.57 52.73-29.19 12.9-53.25 41.04-68.23 62.25"/>
            <path d="m1602.29 212.15-8.51 6.31 2.72-10.24z"/>
        </g>
        <g class="node" transform="translate(4 616)">
            <ellipse cx="2885.58" cy="-306" fill="none" stroke="#000" rx="58.52" ry="18"/>
            <text x="2885.58" y="-300.95" font-family="Times,serif" font-size="14" text-anchor="middle">:app:data:tag</text>
        </g>
        <g stroke="#000" class="edge">
            <path fill="none" d="M3778.31 97.34c-205.84 5.54-675.43 21.26-741.73 50.66-62.15 27.56-109.45 95.7-132.15 133.91"/>
            <path d="m2907.49 283.62-8.04 6.91 1.98-10.41z"/>
        </g>
        <g class="node" transform="translate(4 616)">
            <ellipse cx="3261.58" cy="-162" fill="none" stroke="#000" rx="75.92" ry="18"/>
            <text x="3261.58" y="-156.95" font-family="Times,serif" font-size="14" text-anchor="middle">:app:data:account</text>
        </g>
        <g stroke="#000" class="edge">
            <path fill="none" d="M3780.61 99.08c-162.09 9.62-477.03 40.81-477.03 137.92v74c0 40.82-14.84 86.07-25.97 114.28"/>
            <path d="m3280.86 426.57-7.02 7.94.54-10.59z"/>
        </g>
        <g class="node" transform="translate(4 616)">
            <ellipse cx="2229.58" cy="-378" fill="none" stroke="#000" rx="83.6" ry="18"/>
            <text x="2229.58" y="-372.95" font-family="Times,serif" font-size="14" text-anchor="middle">:app:data:credential</text>
        </g>
        <g stroke="#000" class="edge">
            <path fill="none" d="M3777.54 96.17c-304.98 4.01-1231.75 18.8-1362.96 51.83-54.32 13.68-111.42 45.01-146.63 66.59"/>
            <path d="m2270.25 217.29-10.34 2.31 6.64-8.25z"/>
        </g>
        <g class="node" transform="translate(4 616)">
            <ellipse cx="2712.58" cy="-162" fill="none" stroke="#000" rx="74.89" ry="18"/>
            <text x="2712.58" y="-156.95" font-family="Times,serif" font-size="14" text-anchor="middle">:app:data:holiday</text>
        </g>
        <g stroke="#000" class="edge">
            <path fill="none" d="M3778.12 96.91c-198.94 4.56-648.68 18.26-798.54 51.09-106.26 23.28-228-19.78-228 89v74c0 40.62-13.67 85.92-23.92 114.19"/>
            <path d="m2730.98 426.3-6.79 8.13.24-10.59z"/>
        </g>
        <g class="node" transform="translate(4 616)">
            <ellipse cx="1381.58" cy="-234" fill="none" stroke="#000" rx="73.87" ry="18"/>
            <text x="1381.58" y="-228.95" font-family="Times,serif" font-size="14" text-anchor="middle">:app:data:backup</text>
        </g>
        <g stroke="#000" class="edge">
            <path fill="none" d="M3777.35 95.86c-419.01 3.88-2054.08 20.96-2158.77 52.14-58.15 17.32-71.56 30.69-116 72-43.81 40.72-81.86 99.98-101.92 134.09"/>
            <path d="m1403.83 355.61-8.04 6.9 1.98-10.41z"/>
        </g>
        <g class="node" transform="translate(4 616)">
            <ellipse cx="2262.58" cy="-306" fill="none" stroke="#000" rx="65.68" ry="18"/>
            <text x="2262.58" y="-300.95" font-family="Times,serif" font-size="14" text-anchor="middle">:app:data:fetch</text>
        </g>
        <g stroke="#000" class="edge">
            <path fill="none" d="M3777.26 95.79c-291.58 2.77-1145.35 14.09-1264.68 52.21-89.65 28.64-177.78 99.54-220.06 136.97"/>
            <path d="m2295.11 287.35-9.78 4.07 5.11-9.29z"/>
        </g>
        <g class="node" transform="translate(4 616)">
            <ellipse cx="3209.58" cy="-234" fill="none" stroke="#000" rx="62.1" ry="18"/>
            <text x="3209.58" y="-228.95" font-family="Times,serif" font-size="14" text-anchor="middle">:app:data:fcm</text>
        </g>
        <g stroke="#000" class="edge">
            <path fill="none" d="M3779.06 97.97c-156.05 5.67-452.12 20.26-489.48 50.03-63.17 50.35-74.44 154.16-76.05 204.45"/>
            <path d="m3217.03 352.3-3.7 9.93-3.3-10.07z"/>
        </g>
        <g class="node" transform="translate(4 616)">
            <ellipse cx="3119.58" cy="-450" fill="none" stroke="#000" rx="78.48" ry="18"/>
            <text x="3119.58" y="-444.95" font-family="Times,serif" font-size="14" text-anchor="middle">:app:data:calendar</text>
        </g>
        <g stroke="red" stroke-width="2" class="edge">
            <path fill="none" d="M3783.09 100.52c-124.56 7.98-354.35 24.36-549.51 47.48-11.9 1.41-24.49 3.13-36.74 4.94"/>
            <path fill="red" d="m3199.12 156.13-10.41-1.97 9.37-4.95z"/>
        </g>
        <g class="node" transform="translate(4 616)">
            <ellipse cx="4241.58" cy="-234" fill="none" stroke="#000" rx="70.29" ry="18"/>
            <text x="4241.58" y="-228.95" font-family="Times,serif" font-size="14" text-anchor="middle">:app:data:buddy</text>
        </g>
        <g stroke="#000" class="edge">
            <path fill="none" d="M3896.4 111.82c63.18 48.7 246.34 189.9 318.98 245.9"/>
            <path d="m4217.5 354.93 5.78 8.88-10.06-3.33z"/>
        </g>
        <g class="node" transform="translate(4 616)">
            <ellipse cx="3989.58" cy="-306" fill="none" stroke="#000" rx="84.11" ry="18"/>
            <text x="3989.58" y="-300.95" font-family="Times,serif" font-size="14" text-anchor="middle">:app:domain:memo</text>
        </g>
        <g stroke="#000" class="edge">
            <path fill="none" d="M3890.44 111.8c8.95 10.02 19.95 23.27 28.14 36.2 27.89 44.05 51.65 100.14 64.57 133.15"/>
            <path d="m3986.39 279.8.33 10.59-6.86-8.07z"/>
        </g>
        <g class="node" transform="translate(4 616)">
            <ellipse cx="3723.58" cy="-234" fill="none" stroke="#000" rx="71.31" ry="18"/>
            <text x="3723.58" y="-228.95" font-family="Times,serif" font-size="14" text-anchor="middle">:app:domain:tag</text>
        </g>
        <g stroke="#000" class="edge">
            <path fill="none" d="M3829.47 110.31c-45.63 18.19-113.62 53.38-143.89 109.69-23.55 43.81 3.58 101.52 23.87 134.62"/>
            <path d="m3712.23 352.46 2.42 10.32-8.33-6.56z"/>
        </g>
        <g class="node" transform="translate(4 616)">
            <ellipse cx="4183.58" cy="-90" fill="none" stroke="#000" rx="88.71" ry="18"/>
            <text x="4183.58" y="-84.95" font-family="Times,serif" font-size="14" text-anchor="middle">:app:domain:account</text>
        </g>
        <g stroke="#000" class="edge">
            <path fill="none" d="M3959.51 103.17c135.15 15.39 384.07 54.5 384.07 133.83v74c0 40.45 1.12 53.91-19 89-24.75 43.16-69.53 79.75-101.15 101.99"/>
            <path d="m4225.55 504.78-10.23 2.78 6.26-8.55z"/>
        </g>
        <g class="node" transform="translate(4 616)">
            <ellipse cx="4751.58" cy="-306" fill="none" stroke="#000" rx="96.39" ry="18"/>
            <text x="4751.58" y="-300.95" font-family="Times,serif" font-size="14" text-anchor="middle">:app:domain:credential</text>
        </g>
        <g stroke="#000" class="edge">
            <path fill="none" d="M3970.06 97.99c185.53 6.37 581.51 22.97 637.52 50.01 61.1 29.5 109.01 96.26 132.38 133.9"/>
            <path d="m4742.91 280.02 2.19 10.37-8.17-6.74z"/>
        </g>
        <g class="node" transform="translate(4 616)">
            <ellipse cx="4796.58" cy="-90" fill="none" stroke="#000" rx="87.69" ry="18"/>
            <text x="4796.58" y="-84.95" font-family="Times,serif" font-size="14" text-anchor="middle">:app:domain:holiday</text>
        </g>
        <g stroke="#000" class="edge">
            <path fill="none" d="M3972.12 95.4c179.11 1.76 553.27 10.55 675.46 52.6 108.05 37.19 159.41 43.08 213 144 36.62 68.97-12.24 161.45-41.26 206.34"/>
            <path d="m4822.23 500.27-8.45 6.39 2.62-10.26z"/>
        </g>
        <g class="node" transform="translate(4 616)">
            <ellipse cx="3914.58" cy="-162" fill="none" stroke="#000" rx="86.67" ry="18"/>
            <text x="3914.58" y="-156.95" font-family="Times,serif" font-size="14" text-anchor="middle">:app:domain:backup</text>
        </g>
        <g stroke="#000" class="edge">
            <path fill="none" d="M3876.32 112.27c3.93 38.67 13.97 135.18 24.26 215.73 4.23 33.08 9.78 70.98 13.6 96.29"/>
            <path d="m3917.63 423.72-1.96 10.42-4.96-9.37z"/>
        </g>
        <g class="node" transform="translate(4 616)">
            <ellipse cx="4483.58" cy="-234" fill="none" stroke="#000" rx="78.48" ry="18"/>
            <text x="4483.58" y="-228.95" font-family="Times,serif" font-size="14" text-anchor="middle">:app:domain:fetch</text>
        </g>
        <g stroke="#000" class="edge">
            <path fill="none" d="M3972.15 95.34c122.53 2.16 324.18 12.04 385.43 52.66 73.62 48.82 109.7 154.21 123.31 204.79"/>
            <path d="m4484.26 351.82-.9 10.56-5.88-8.81z"/>
        </g>
        <g class="node" transform="translate(4 616)">
            <ellipse cx="3544.58" cy="-162" fill="none" stroke="#000" rx="74.89" ry="18"/>
            <text x="3544.58" y="-156.95" font-family="Times,serif" font-size="14" text-anchor="middle">:app:domain:fcm</text>
        </g>
        <g stroke="#000" class="edge">
            <path fill="none" d="M3800.78 105.99c-30.88 7.62-65.5 20.45-91.2 42.01-90.75 76.12-137.38 216.71-153.89 276.69"/>
            <path d="m3559.13 425.35-5.96 8.75-.8-10.56z"/>
        </g>
        <g class="node" transform="translate(4 616)">
            <ellipse cx="3781.58" cy="-378" fill="none" stroke="#000" rx="91.27" ry="18"/>
            <text x="3781.58" y="-372.95" font-family="Times,serif" font-size="14" text-anchor="middle">:app:domain:calendar</text>
        </g>
        <g stroke="#000" class="edge">
            <path fill="none" d="M3863.84 112.13c-15.3 24.41-43.52 69.44-61.57 98.23"/>
            <path d="m3805.43 211.91-8.27 6.62 2.34-10.33z"/>
        </g>
        <g class="node" transform="translate(4 616)">
            <ellipse cx="4596.58" cy="-162" fill="none" stroke="#000" rx="83.08" ry="18"/>
            <text x="4596.58" y="-156.95" font-family="Times,serif" font-size="14" text-anchor="middle">:app:domain:buddy</text>
        </g>
        <g stroke="#000" class="edge">
            <path fill="none" d="M3972.3 94.18c196.58 1 621.28 17.65 621.28 142.82v74c0 39.31 2.71 84.66 4.76 113.33"/>
            <path d="m4601.81 423.78-2.76 10.24-4.23-9.72z"/>
        </g>
        <g class="node" transform="translate(4 616)">
            <ellipse cx="1089.58" cy="-234" fill="none" stroke="#000" rx="123.52" ry="18"/>
            <text x="1089.58" y="-228.95" font-family="Times,serif" font-size="14" text-anchor="middle">:app:core:filter-database-room</text>
        </g>
        <g stroke="#000" class="edge">
            <path fill="none" d="M3777.08 95.36c-471.47 1.95-2494.46 12.61-2545.5 52.64-65.15 51.1 2.08 114.07-48 180-9.8 12.9-23.71 23.25-37.68 31.26"/>
            <path d="m1147.58 362.33-10.47 1.63 7.16-7.8z"/>
        </g>
        <g class="node" transform="translate(4 616)">
            <ellipse cx="815.58" cy="-234" fill="none" stroke="#000" rx="132.22" ry="18"/>
            <text x="815.58" y="-228.95" font-family="Times,serif" font-size="14" text-anchor="middle">:app:core:backup-database-room</text>
        </g>
        <g stroke="#000" class="edge">
            <path fill="none" d="M3777.15 95.38C3302.5 97.4 1252.98 108.41 1200.58 148c-66.74 50.43 8.02 124.99-55 180-8.55 7.47-131.32 25.98-223.7 39.02"/>
            <path d="m922.38 370.48-10.39-2.07 9.42-4.86z"/>
        </g>
        <g class="node" transform="translate(4 616)">
            <ellipse cx="1767.58" cy="-162" fill="none" stroke="#000" rx="158.32" ry="18"/>
            <text x="1767.58" y="-156.95" font-family="Times,serif" font-size="14" text-anchor="middle">:app:core:account-preferences-datastore</text>
        </g>
        <g stroke="#000" class="edge">
            <path fill="none" d="M3777.09 95.1c-328.59.75-1393.97 6.78-1733.51 52.9-164.17 22.3-362-76.68-362 89v74c0 46.88 35.43 90.83 61.83 117.08"/>
            <path d="m1745.73 425.45 4.78 9.46-9.63-4.41z"/>
        </g>
        <g class="node" transform="translate(4 616)">
            <ellipse cx="540.58" cy="-234" fill="none" stroke="#000" rx="124.54" ry="18"/>
            <text x="540.58" y="-228.95" font-family="Times,serif" font-size="14" text-anchor="middle">:app:core:diary-database-room</text>
        </g>
        <g stroke="#000" class="edge">
            <path fill="none" d="M3777.28 95.4c-477.58 2.12-2552.87 13.61-2606.7 52.6-68.64 49.72 4.01 128.11-63 180-37.82 29.29-381.43 30.99-429 36a2527 2527 0 0 0-33.45 3.77"/>
            <path d="m645.75 371.23-10.35-2.28 9.51-4.67z"/>
        </g>
        <g class="node" transform="translate(4 616)">
            <ellipse cx="2462.58" cy="-162" fill="none" stroke="#000" rx="157.3" ry="18"/>
            <text x="2462.58" y="-156.95" font-family="Times,serif" font-size="14" text-anchor="middle">:app:core:holiday-preferences-datastore</text>
        </g>
        <g stroke="#000" class="edge">
            <path fill="none" d="M3777.09 95.05C3467.45 96.48 2526.58 111.18 2526.58 237v74c0 42.9-23.53 87.76-41.12 115.3"/>
            <path d="m2488.57 427.94-8.43 6.42 2.59-10.27z"/>
        </g>
        <g class="node" transform="translate(4 616)">
            <ellipse cx="264.58" cy="-234" fill="none" stroke="#000" rx="133.24" ry="18"/>
            <text x="264.58" y="-228.95" font-family="Times,serif" font-size="14" text-anchor="middle">:app:core:holiday-database-room</text>
        </g>
        <g stroke="#000" class="edge">
            <path fill="none" d="M3777.24 95.65c-472.25 3.32-2507.47 19.5-2637.66 52.35-33.92 8.56-37.24 23.74-70 36-248.45 92.97-556.74 154.54-708.18 181.48"/>
            <path d="m362.27 368.88-10.46-1.71 9.24-5.19z"/>
        </g>
        <g class="node" transform="translate(4 616)">
            <ellipse cx="6091.58" cy="-378" fill="none" stroke="#000" rx="81.55" ry="18"/>
            <text x="6091.58" y="-372.95" font-family="Times,serif" font-size="14" text-anchor="middle">:app:feature:memo</text>
        </g>
        <g stroke="#000" class="edge">
            <path fill="none" d="M3972.07 95.4c327.34 1.72 1385.53 10.47 1723.51 52.6 122.63 15.29 263.01 50.81 340.59 72.06"/>
            <path d="m6036.98 216.65 8.71 6.04-10.57.71z"/>
        </g>
        <g class="node" transform="translate(4 616)">
            <ellipse cx="5350.58" cy="-378" fill="none" stroke="#000" rx="68.75" ry="18"/>
            <text x="5350.58" y="-372.95" font-family="Times,serif" font-size="14" text-anchor="middle">:app:feature:tag</text>
        </g>
        <g stroke="#000" class="edge">
            <path fill="none" d="M3971.14 96.79c238.21 4.86 849.13 20.03 1050.44 51.21 101.6 15.74 216.82 50.44 281.61 71.56"/>
            <path d="m5304.07 216.17 8.41 6.44-10.6.21z"/>
        </g>
        <g class="node" transform="translate(4 616)">
            <ellipse cx="6603.58" cy="-450" fill="none" stroke="#000" rx="88.71" ry="18"/>
            <text x="6603.58" y="-444.95" font-family="Times,serif" font-size="14" text-anchor="middle">:app:feature:calendar</text>
        </g>
        <g stroke="#000" class="edge">
            <path fill="none" d="M3971.99 95.39c412.03 1.88 2013.55 11.73 2516.59 52.61 13.08 1.06 26.92 2.63 40.35 4.39"/>
            <path d="m6529.15 148.89 9.44 4.81-10.38 2.12z"/>
        </g>
        <g class="node" transform="translate(4 616)">
            <ellipse cx="5122.58" cy="-378" fill="none" stroke="#000" rx="80.52" ry="18"/>
            <text x="5122.58" y="-372.95" font-family="Times,serif" font-size="14" text-anchor="middle">:app:feature:buddy</text>
        </g>
        <g stroke="#000" class="edge">
            <path fill="none" d="M3970.98 97.11c249.62 5.83 904.23 23.54 998.6 50.89 47.52 13.77 96.15 44.42 126.44 65.88"/>
            <path d="m5097.9 210.92 6.06 8.69-10.16-3.02z"/>
        </g>
        <g class="node" transform="translate(4 616)">
            <ellipse cx="5748.58" cy="-378" fill="none" stroke="#000" rx="76.94" ry="18"/>
            <text x="5748.58" y="-372.95" font-family="Times,serif" font-size="14" text-anchor="middle">:app:feature:more</text>
        </g>
        <g stroke="#000" class="edge">
            <path fill="none" d="M3971.81 96c360.84 3.97 1606.45 19.93 1684.77 52 31.88 13.05 59.66 41.85 77.02 63.17"/>
            <path d="m5736.24 208.86 3.43 10.02-8.94-5.7z"/>
        </g>
        <g class="node" transform="translate(4 616)">
            <ellipse cx="6568.58" cy="-378" fill="none" stroke="#000" rx="86.15" ry="18"/>
            <text x="6568.58" y="-372.95" font-family="Times,serif" font-size="14" text-anchor="middle">:app:feature:account</text>
        </g>
        <g stroke="#000" class="edge">
            <path fill="none" d="M3971.93 95.79c449.9 3.83 2311.11 21.48 2430.65 52.21 51.17 13.15 104.18 44.17 137.12 65.86"/>
            <path d="m6541.64 210.95 6.35 8.47-10.25-2.66z"/>
        </g>
        <g class="node" transform="translate(4 616)">
            <ellipse cx="5455.58" cy="-162" fill="none" stroke="#000" rx="112.26" ry="18"/>
            <text x="5455.58" y="-156.95" font-family="Times,serif" font-size="14" text-anchor="middle">:library:firebase-messaging</text>
        </g>
        <g stroke="#000" class="edge">
            <path fill="none" d="M3972.23 94.97c492.73.08 2684.46 3.21 2733.35 53.03 72.74 74.12-50.82 146.16-149 180-171.26 59.03-225.91 16.43-406 36-214.26 23.29-465.01 57.27-597.66 75.78"/>
            <path d="m5553.51 443.23-10.39-2.08 9.42-4.85z"/>
        </g>
        <g class="node" transform="translate(4 616)">
            <ellipse cx="3021.58" cy="-18" fill="none" stroke="#000" rx="71.31" ry="18"/>
            <text x="3021.58" y="-12.95" font-family="Times,serif" font-size="14" text-anchor="middle">:app:core:model</text>
        </g>
        <g stroke="#000" class="edge">
            <path fill="none" d="M2081.36 472.27c.77 20.68 5.53 54.65 27.22 71.73 64.63 50.89 620.75 54.17 834.13 53.54"/>
            <path d="m2942.61 594.04 10.01 3.46-9.99 3.54z"/>
        </g>
        <g class="node" transform="translate(4 616)">
            <ellipse cx="3914.58" cy="-18" fill="none" stroke="#000" rx="85.13" ry="18"/>
            <text x="3914.58" y="-12.95" font-family="Times,serif" font-size="14" text-anchor="middle">:common:exception</text>
        </g>
        <g stroke="#000" class="edge">
            <path fill="none" d="M2134.78 469.41c38.37 10.48 91.36 25.13 137.8 38.59 53.07 15.39 64.49 26.97 119 36 229.24 37.96 812.78 27.9 1045 36 134.43 4.69 289.94 10.18 387.14 13.63"/>
            <path d="m3823.61 590.13 9.87 3.85-10.12 3.14z"/>
        </g>
        <g class="node" transform="translate(4 616)">
            <ellipse cx="1935.58" cy="-90" fill="none" stroke="#000" rx="121.98" ry="18"/>
            <text x="1935.58" y="-84.95" font-family="Times,serif" font-size="14" text-anchor="middle">:app:core:account-preferences</text>
        </g>
        <g stroke="#000" class="edge">
            <path fill="none" d="M2048.64 471.24c-19.34 9.53-44.04 21.71-65.04 32.06"/>
            <path d="m1985.2 506.42-10.52 1.28 7.42-7.56z"/>
        </g>
        <g class="node" transform="translate(4 616)">
            <ellipse cx="2186.58" cy="-90" fill="none" stroke="#000" rx="72.85" ry="18"/>
            <text x="2186.58" y="-84.95" font-family="Times,serif" font-size="14" text-anchor="middle">:common:model</text>
        </g>
        <g stroke="#000" class="edge">
            <path fill="none" d="M2107.69 471.77c14.5 9.31 32.72 21.01 48.38 31.07"/>
            <path d="m2157.64 499.69 6.52 8.34-10.3-2.45z"/>
        </g>
        <g stroke="#000" class="edge">
            <path fill="none" d="M183 538.98c15.05 2.02 30.79 3.84 45.58 5.02 547.55 43.81 2311.21 51.58 2714.38 52.79"/>
            <path d="m2942.71 593.29 9.99 3.53-10.01 3.47z"/>
        </g>
        <g stroke="#000" class="edge">
            <path fill="none" d="M6292.65 322.5c68.35 13.37 171.32 34.5 176.93 41.5 16.08 20.07-2.29 45.66-21.49 64.24"/>
            <path d="m6450.48 430.8-9.75 4.17 5.02-9.33z"/>
        </g>
        <g stroke="#000" class="edge">
            <path fill="none" d="M6296.25 321.48c70.11 11.98 175.01 31.37 190.33 42.52 42.32 30.82 54.81 95.05 58.49 132.4"/>
            <path d="m6548.52 495.74-2.67 10.25-4.3-9.68z"/>
        </g>
        <g stroke="#000" class="edge">
            <path fill="none" d="M6205.43 327.37c-16.25 10.09-37.12 23.55-54.85 36.63-20.06 14.79-22.91 21.25-43 36-47.86 35.13-168.42 126.05-225 144-26.09 8.28-831.32 39.74-1095.18 49.85"/>
            <path d="m4787.63 597.34-10.13-3.11 9.86-3.88z"/>
        </g>
        <g stroke="#000" class="edge">
            <path fill="none" d="M6195.25 326.24c-118.53 48.1-485.94 194.87-611.67 217.76-253.97 46.24-2065.11 24.68-2323 36-52.46 2.3-111.4 6.57-157.13 10.25"/>
            <path d="m3103.88 593.73-10.25-2.68 9.68-4.3z"/>
        </g>
        <g class="node" transform="translate(4 616)">
            <ellipse cx="6270.58" cy="-234" fill="none" stroke="#000" rx="115.33" ry="18"/>
            <text x="6270.58" y="-228.95" font-family="Times,serif" font-size="14" text-anchor="middle">:app:core:calendar-compose</text>
        </g>
        <g stroke="#000" class="edge">
            <path fill="none" d="M6242.96 328.3c4.68 7.8 10.31 17.19 15.52 25.87"/>
            <path d="m6261.39 352.22 2.15 10.38-8.15-6.78z"/>
        </g>
        <g stroke="#000" class="edge">
            <path fill="none" d="M6448.15 471.59c18.06 9.8 41.09 22.29 60.33 32.73"/>
            <path d="m6509.98 501.16 7.12 7.84-10.46-1.69z"/>
        </g>
        <g stroke="#000" class="edge">
            <path fill="none" d="M6370.66 470.39c-66.25 20.94-191.39 57.64-301.08 73.61-31.83 4.63-990.27 39.49-1281.73 50"/>
            <path d="m4788.16 597.49-10.12-3.13 9.87-3.86z"/>
        </g>
        <g stroke="#000" class="edge">
            <path fill="none" d="M5548.66 327.77c51.51 41.01 170.46 147.99 105.92 216.23-14.83 15.67-638.47 41.08-867.1 49.88"/>
            <path d="m4787.88 597.37-10.13-3.12 9.86-3.88z"/>
        </g>
        <g stroke="#000" class="edge">
            <path fill="none" d="M5830.74 328.17c11.85 43.37 35.64 157.99-24.16 215.83-9.15 8.85-764.05 39.59-1018.98 49.73"/>
            <path d="m4787.85 597.22-10.13-3.1 9.85-3.89z"/>
        </g>
        <g stroke="#000" class="edge">
            <path fill="none" d="M6522.83 322.81c23.15 7.69 46.95 20.36 60.75 41.19 27.41 41.39.84 100.41-19.25 134.3"/>
            <path d="m6567.4 500-8.23 6.68 2.27-10.35z"/>
        </g>
        <g stroke="#000" class="edge">
            <path fill="none" d="M1578.85 256.42c-12.1 58.53-47.16 246.74-7.27 287.58 29.78 30.49 1491.42 34.01 1534 36 52.69 2.46 111.71 6.56 158.39 10.11"/>
            <path d="m3264.05 586.61 9.7 4.26-10.24 2.72z"/>
        </g>
        <g stroke="#000" class="edge">
            <path fill="none" d="M1582.5 256.28c-.11 61.6 1.09 267.9 22.08 287.72 24.32 22.97 2374.56 35.34 2408 36 219.56 4.34 478.26 11.14 608.35 14.69"/>
            <path d="m4620.94 591.18 9.9 3.78-10.09 3.22z"/>
        </g>
        <g stroke="#000" class="edge">
            <path fill="none" d="M1653.05 241.19c105.85 3.28 312.18 9.63 487.53 14.81 673.92 19.9 1485.74 42.72 1758.47 50.36"/>
            <path d="m3899.06 302.86 9.89 3.78-10.09 3.21z"/>
        </g>
        <g class="node" transform="translate(4 616)">
            <ellipse cx="1413.58" cy="-162" fill="none" stroke="#000" rx="101.51" ry="18"/>
            <text x="1413.58" y="-156.95" font-family="Times,serif" font-size="14" text-anchor="middle">:app:core:diary-database</text>
        </g>
        <g stroke="#000" class="edge">
            <path fill="none" d="M1571.72 256.06c-19.41 30.08-61.88 94.06-103.14 143.94-7.81 9.45-16.94 19.26-25.29 27.84"/>
            <path d="m1445.85 430.22-9.52 4.65 4.54-9.57z"/>
        </g>
        <g stroke="#000" class="edge">
            <path fill="none" d="M2888.03 328.39c-2.92 44.94-3.56 164.92 66.55 215.61 24.58 17.77 201.16 36.13 309.42 45.88"/>
            <path d="m3264.07 586.38 9.65 4.37-10.27 2.6z"/>
        </g>
        <g stroke="#000" class="edge">
            <path fill="none" d="M2907.21 327.49C2942.75 359.85 3026.67 432 3109.58 472c109.15 52.66 143.23 53.47 263 72 122.74 18.99 976.23 43.4 1248.64 50.79"/>
            <path d="m4621.18 591.28 9.9 3.77-10.09 3.23z"/>
        </g>
        <g stroke="#000" class="edge">
            <path fill="none" d="M2945.54 315.67c145.47 12.16 535.84 44.76 703.63 58.78"/>
            <path d="m3649.43 370.96 9.68 4.32-10.26 2.66z"/>
        </g>
        <g stroke="#000" class="edge">
            <path fill="none" d="M2834.56 316.31c-219.54 21.18-1034.72 99.81-1318.68 127.21"/>
            <path d="m1516.58 446.97-10.29-2.53 9.62-4.44z"/>
        </g>
        <g stroke="#000" class="edge">
            <path fill="none" d="M3269.23 472.39c4.46 18.7 13.2 48.81 27.35 71.61 6.37 10.27 15.05 20.12 23.49 28.49"/>
            <path d="m3322.39 569.86 4.85 9.42-9.66-4.33z"/>
        </g>
        <g stroke="#000" class="edge">
            <path fill="none" d="M3313.87 468.29c75.6 20.2 226.83 58.13 357.71 75.71 350.05 47.02 771.97 53.08 948.7 53.36"/>
            <path d="m4620.05 593.86 10 3.5-10.01 3.5z"/>
        </g>
        <g stroke="#000" class="edge">
            <path fill="none" d="M3335.56 461.19c38.13 3.31 86.16 7.41 129.02 10.81 225.45 17.89 490.64 36.78 628.69 46.45"/>
            <path d="m4093.36 514.95 9.73 4.19-10.22 2.79z"/>
        </g>
        <g stroke="#000" class="edge">
            <path fill="none" d="M3190.9 457.89c-221.18 8.63-870.62 34.63-1082.32 50.11-20.1 1.47-41.51 3.37-62.11 5.36"/>
            <path d="m2046.93 516.83-10.29-2.51 9.61-4.46z"/>
        </g>
        <g stroke="#000" class="edge">
            <path fill="none" d="M2203.76 255.14c-15.02 9.26-32.64 21.99-45.18 36.86-34.29 40.64-57.21 99.14-68.59 133.29"/>
            <path d="m2093.44 426-6.41 8.44-.25-10.59z"/>
        </g>
        <g stroke="#000" class="edge">
            <path fill="none" d="M2215.41 255.78c-9.04 9.61-19.04 22.47-23.83 36.22-5.26 15.11-3.05 20.29 0 36 22.34 115.24 41.75 175.7 152 216 79.61 29.1 677.38 31.04 762 36 52.36 3.07 111.02 7.15 157.59 10.55"/>
            <path d="m3263.2 587.04 9.72 4.22-10.23 2.76z"/>
        </g>
        <g stroke="#000" class="edge">
            <path fill="none" d="M2287.32 252.14c20.66 7.95 42.16 20.45 54.26 39.86 43.39 69.63-86.17 111.5-41 180 1.4 2.12 165.52 71.46 168 72 167.68 36.46 1372.45 31.89 1544 36 219.39 5.25 477.91 11.66 608.09 14.9"/>
            <path d="m4620.68 591.4 9.91 3.75-10.08 3.25z"/>
        </g>
        <g stroke="#000" class="edge">
            <path fill="none" d="M2316.06 241.29c374.36 10.39 1913.54 53.11 2333.34 64.76"/>
            <path d="m4649.18 302.55 9.9 3.77-10.09 3.22z"/>
        </g>
        <g stroke="#000" class="edge">
            <path fill="none" d="M2197.38 254.61c-20.41 9.53-45.92 22.68-66.8 37.39-76.62 53.95-100.59 67.01-154 144-12.89 18.59-22.49 42.36-28.67 60.66"/>
            <path d="m1951.28 497.62-6.4 8.45-.27-10.59z"/>
        </g>
        <g stroke="#000" class="edge">
            <path fill="none" d="M2663.94 467.2c-10.35 1.96-21.15 3.7-31.36 4.8-523.91 56.5-1845.09 2.87-2371 36-19.49 1.23-40.32 3.14-60.13 5.25"/>
            <path d="m202.06 516.7-10.32-2.4 9.57-4.56z"/>
        </g>
        <g stroke="#000" class="edge">
            <path fill="none" d="M2739.68 471.52c30.29 20.74 85.83 55.64 138.9 72.48 69.4 22.03 268.2 38.97 383.81 47.3"/>
            <path d="m3262.42 587.8 9.73 4.2-10.23 2.78z"/>
        </g>
        <g stroke="#000" class="edge">
            <path fill="none" d="M2759.61 469.08c65.74 20.79 195.53 58.93 308.97 74.92 77.39 10.91 1230.16 42.21 1552.7 50.8"/>
            <path d="m4620.99 591.29 9.9 3.76-10.09 3.24z"/>
        </g>
        <g stroke="#000" class="edge">
            <path fill="none" d="M2790.11 457.79c91.49 3.44 252.51 9.44 390.47 14.21 491.08 17 613.89 19.89 1105 36 145.43 4.77 313.95 10.34 417.52 13.77"/>
            <path d="m4703.08 518.27 9.88 3.83-10.11 3.16z"/>
        </g>
        <g class="node" transform="translate(4 616)">
            <ellipse cx="2620.58" cy="-90" fill="none" stroke="#000" rx="120.96" ry="18"/>
            <text x="2620.58" y="-84.95" font-family="Times,serif" font-size="14" text-anchor="middle">:app:core:holiday-preferences</text>
        </g>
        <g stroke="#000" class="edge">
            <path fill="none" d="M2694.78 471.59c-11.63 8.85-26.15 19.89-38.96 29.64"/>
            <path d="m2658.15 503.86-10.08 3.27 5.84-8.84z"/>
        </g>
        <g class="node" transform="translate(4 616)">
            <ellipse cx="376.58" cy="-90" fill="none" stroke="#000" rx="110.21" ry="18"/>
            <text x="376.58" y="-84.95" font-family="Times,serif" font-size="14" text-anchor="middle">:app:core:holiday-database</text>
        </g>
        <g stroke="#000" class="edge">
            <path fill="none" d="M2663.93 467.13c-10.34 1.96-21.15 3.73-31.35 4.87-211.7 23.73-1694.31 45.46-2131.16 51.4"/>
            <path d="m501.61 526.9-10.04-3.36 9.95-3.64z"/>
        </g>
        <g stroke="#000" class="edge">
            <path fill="none" d="M1454.17 389.07c104.57 9.36 310.12 28.22 484.41 46.93 17.13 1.84 35.4 3.92 52.95 5.98"/>
            <path d="m1991.92 438.5 9.52 4.65-10.34 2.3z"/>
        </g>
        <g stroke="#000" class="edge">
            <path fill="none" d="M1332.24 394.81c-22.11 7.81-45.6 20.56-58.66 41.19-8.56 13.52-9.41 23.06 0 36 105.12 144.6 312.35 37.89 1832 108 52.69 2.43 111.71 6.53 158.39 10.09"/>
            <path d="m3264.05 586.59 9.7 4.25-10.24 2.73z"/>
        </g>
        <g stroke="#000" class="edge">
            <path fill="none" d="M1348.63 398.05c-15.97 8.58-33.04 21.05-42.05 37.95-7.53 14.12-9.72 23.29 0 36 18.53 24.24 234.79 67.74 265 72 268.6 37.86 2169.8 30.67 2441 36 219.56 4.32 478.26 11.13 608.35 14.68"/>
            <path d="m4620.94 591.18 9.9 3.77-10.09 3.23z"/>
        </g>
        <g stroke="#000" class="edge">
            <path fill="none" d="M1459.32 383.78c282.03 3.19 1319.43 16.79 2173.26 52.22 64.63 2.68 137.39 7.03 193.36 10.65"/>
            <path d="m3825.99 443.15 9.75 4.14-10.2 2.84z"/>
        </g>
        <g stroke="#000" class="edge">
            <path fill="none" d="M1393.49 400.3c3.49 7.63 7.67 16.78 11.57 25.3"/>
            <path d="m1408.16 423.97.97 10.55-7.34-7.64z"/>
        </g>
        <g class="node" transform="translate(4 616)">
            <ellipse cx="814.58" cy="-162" fill="none" stroke="#000" rx="109.19" ry="18"/>
            <text x="814.58" y="-156.95" font-family="Times,serif" font-size="14" text-anchor="middle">:app:core:backup-database</text>
        </g>
        <g stroke="#000" class="edge">
            <path fill="none" d="M1320.81 391c-99.26 12.25-289.66 35.76-405.38 50.04"/>
            <path d="m915.98 444.5-10.35-2.25 9.49-4.7z"/>
        </g>
        <g stroke="#000" class="edge">
            <path fill="none" d="M2245.36 327.29c-32.55 24.98-94.97 72.9-132.65 101.81"/>
            <path d="m2114.96 431.79-10.06 3.31 5.8-8.87z"/>
        </g>
        <g stroke="#000" class="edge">
            <path fill="none" d="M2261.19 328.16c-8.74 31.35-22.3 98.82 6.39 143.84 20.08 31.52 44 16.69 76 36 22.83 13.78 22.92 26.93 48 36 149.4 54.02 555.42 26.46 714 36 52.36 3.15 111.02 7.24 157.58 10.62"/>
            <path d="m3263.2 587.11 9.72 4.22-10.23 2.76z"/>
        </g>
        <g stroke="#000" class="edge">
            <path fill="none" d="M2316.44 321.97c94.65 20.97 306.78 68.73 484.14 114.03 174.26 44.51 212.23 80.67 390 108 70.98 10.91 1123.17 41.79 1430.38 50.62"/>
            <path d="m4621.03 591.12 9.89 3.78-10.09 3.21z"/>
        </g>
        <g stroke="#000" class="edge">
            <path fill="none" d="M2331.51 313.13c103.62 3.37 312.76 10.03 490.07 14.87 667.94 18.23 836.17-6.69 1503 36 27.33 1.75 57.15 4.59 83.72 7.45"/>
            <path d="m4408.41 367.94 9.56 4.57-10.32 2.39z"/>
        </g>
        <g stroke="#000" class="edge">
            <path fill="none" d="M2211.53 320.21c-145.01 24.25-538.16 90.01-710.78 118.88"/>
            <path d="m1501.39 442.53-10.44-1.8 9.28-5.1z"/>
        </g>
        <g stroke="#000" class="edge">
            <path fill="none" d="M3152.65 386.13c-146.73 7.61-531.29 28.11-852.07 49.87-39.74 2.7-83.5 6.02-121.39 9.01"/>
            <path d="m2179.9 448.47-10.24-2.7 9.69-4.28z"/>
        </g>
        <g stroke="#000" class="edge">
            <path fill="none" d="M3184.29 398.3c-13.86 8.95-29.02 21.67-36.71 37.7-6.92 14.43-7.77 22.01 0 36 30.53 54.93 96.31 88.84 144.34 107.24"/>
            <path d="m3292.9 575.88 8.17 6.75-10.6-.19z"/>
        </g>
        <g stroke="#000" class="edge">
            <path fill="none" d="M3198.21 399.84c-15.74 19.33-35.56 51.06-17.63 72.16 32.08 37.75 172.67 21.37 220 36 36.09 11.16 40.31 27.01 77 36 110.19 27 885.27 45.74 1143.51 51.29"/>
            <path d="m4620.83 591.78 9.92 3.72-10.07 3.28z"/>
        </g>
        <g stroke="#000" class="edge">
            <path fill="none" d="M3263.01 393.33c58.03 12.13 154.54 32.29 219.09 45.78"/>
            <path d="m3482.81 435.68 9.08 5.47-10.51 1.38z"/>
        </g>
        <g stroke="#000" class="edge">
            <path fill="none" d="M3274.67 385.58c84 3.51 239.9 9.87 372.91 14.42 636.49 21.77 1398.93 42.24 1690.51 49.86"/>
            <path d="m5338.1 446.36 9.91 3.76-10.09 3.24z"/>
        </g>
        <g stroke="#000" class="edge">
            <path fill="none" d="M3117.76 184.44c-3.11 10.23-6.61 23.48-8.18 35.56-14.51 111.75-26.3 153.25 28 252 19.14 34.82 20.89 48.59 53 72 25.6 18.67 58.21 31.06 87.15 39.13"/>
            <path d="m3278.39 579.69 8.77 5.94-10.57.82z"/>
        </g>
        <g stroke="#000" class="edge">
            <path fill="none" d="M3123.58 184.49V383c0 44.53 11.49 60.87 46 89 45.8 37.34 71.63 18.24 128 36 46.25 14.57 55.36 26.92 103 36 119.17 22.72 951.64 44.52 1220.49 51.04"/>
            <path d="m4620.88 591.53 9.91 3.74-10.08 3.26z"/>
        </g>
        <g stroke="red" stroke-width="2" class="edge">
            <path fill="none" d="M3193.8 174.42c120.85 12.78 367.99 38.92 501.47 53.03"/>
            <path fill="red" d="m3694.06 223.8 9.57 4.53-10.31 2.43z"/>
        </g>
        <g class="node" transform="translate(4 616)">
            <ellipse cx="1079.58" cy="-162" fill="none" stroke="#000" rx="100.48" ry="18"/>
            <text x="1079.58" y="-156.95" font-family="Times,serif" font-size="14" text-anchor="middle">:app:core:filter-database</text>
        </g>
        <g stroke="#000" class="edge">
            <path fill="none" d="M3045.28 168.13c-166.84 3.09-569.49 14.16-904.7 51.87-375.54 42.24-477.68 30.06-838 144-35.64 11.27-41.56 21.49-76 36-28.52 12.01-60.81 24.11-87.48 33.7"/>
            <path d="m1140.44 436.94-10.6.07 8.24-6.66z"/>
        </g>
        <g stroke="#000" class="edge">
            <path fill="none" d="M4176.56 386c-86.29 3.67-238.53 9.91-368.98 14-669.64 20.99-837.89 2.06-1507 36-40.3 2.04-84.69 5.3-122.92 8.42"/>
            <path d="m2178.29 447.88-10.25-2.66 9.68-4.31z"/>
        </g>
        <g stroke="#000" class="edge">
            <path fill="none" d="M4211.78 398.17c-44.45 19.44-125.35 53.11-197.2 73.83-207.93 59.96-460.91 98.29-586.84 115.12"/>
            <path d="m3428.56 590.54-10.37-2.16 9.45-4.78z"/>
        </g>
        <g stroke="#000" class="edge">
            <path fill="none" d="M4308.74 390.16c118.8 13.52 365.35 41.81 383.84 45.84 6.39 1.39 220.15 66.72 224 72 37.97 52.08-56.29 73.87-131.09 82.86"/>
            <path d="m4785.98 594.33-10.33-2.35 9.55-4.61z"/>
        </g>
        <g stroke="#000" class="edge">
            <path fill="none" d="M4299.88 393.71c61.55 12.13 162.08 31.96 229.78 45.31"/>
            <path d="m4530.02 435.52 9.14 5.37-10.49 1.5z"/>
        </g>
        <g stroke="#000" class="edge">
            <path fill="none" d="M4076.63 313.51c167.78 6.89 557.79 32.13 870.95 122.49 84.77 24.46 107.28 30.24 185 72 35.35 19 72.49 46.25 97.21 65.58"/>
            <path d="m5231.77 570.69 5.67 8.94-10.01-3.45z"/>
        </g>
        <g stroke="#000" class="edge">
            <path fill="none" d="M3921.14 319.53c-135.35 17.1-420.12 58.93-499.56 116.47-31.97 23.16-35.6 36.1-52 72-8.78 19.22-14.11 42.5-17.2 60.44"/>
            <path d="m3355.87 568.79-5.01 9.33-1.9-10.42z"/>
        </g>
        <g stroke="#000" class="edge">
            <path fill="none" d="M4022.43 327.24c33.91 18.77 92.18 49.98 144.15 72.76 173.25 75.93 385.99 147.76 483.94 179.68"/>
            <path d="m4651.46 576.31 8.42 6.42-10.59.23z"/>
        </g>
        <g stroke="red" stroke-width="2" class="edge">
            <path fill="none" d="M3941.98 324.58c-44.53 11.72-108.83 28.64-155.39 40.89"/>
            <path fill="red" d="m3788.95 368.47-10.56-.84 8.78-5.93z"/>
        </g>
        <g stroke="#000" class="edge">
            <path fill="none" d="M3995.35 328.48c2.65 19.05 9.06 49.71 24.23 71.52.6.86 87.77 65.54 136.29 101.51"/>
            <path d="m4157.86 498.62 5.95 8.77-10.12-3.15z"/>
        </g>
        <g stroke="#000" class="edge">
            <path fill="none" d="M3973.57 327.85c-10.29 9.64-22.26 22.5-29.99 36.15-10.59 18.7-16.94 42.19-20.59 60.33"/>
            <path d="m3926.44 424.96-5.25 9.2-1.64-10.46z"/>
        </g>
        <g stroke="#000" class="edge">
            <path fill="none" d="M3910.53 313.42c-200.05 6.22-697.33 24.16-767.95 50.58-98.58 36.87-141.41 49.62-188 144-7.08 14.35-7.17 21.7 0 36 6.42 12.8 17.56 23.3 29.14 31.48"/>
            <path d="m2985.29 572.33 6.46 8.39-10.29-2.53z"/>
        </g>
        <g stroke="#000" class="edge">
            <path fill="none" d="M3992.72 328.33c-.47 18.13-.03 47.3 5.86 71.67 4.11 17.02 12.36 18.87 16 36 3.32 15.65 5.15 20.85 0 36-13.56 39.92-45.57 77.07-68.91 100.32"/>
            <path d="m3948.21 574.73-9.62 4.45 4.74-9.47z"/>
        </g>
        <g stroke="#000" class="edge">
            <path fill="none" d="M3741.63 400.14c17.17 19.91 48.03 52.49 80.95 71.86 22.53 13.26 198.27 67.39 224 72 56.18 10.07 886.39 41.09 1139.38 50.36"/>
            <path d="m5185.83 590.85 9.86 3.87-10.12 3.13z"/>
        </g>
        <g stroke="#000" class="edge">
            <path fill="none" d="M3656.15 383.48c-56.11 3.49-134.12 15.48-191.57 52.52-50.91 32.82-86.6 96.5-103.97 133.17"/>
            <path d="m3363.8 570.61-7.36 7.63 1-10.55z"/>
        </g>
        <g stroke="#000" class="edge">
            <path fill="none" d="M3729.36 400.16c2.58 18.78 8.62 49.21 22.22 71.84 24.14 40.16 33.96 53.49 77 72 71.52 30.76 587.21 46.19 792.25 51.16"/>
            <path d="m4620.7 591.65 9.91 3.74-10.08 3.26z"/>
        </g>
        <g stroke="#000" class="edge">
            <path fill="none" d="M3793.08 389.57c59.08 7.21 147.77 21.27 221.5 46.43 49.9 17.03 103.26 46.38 137.32 66.69"/>
            <path d="m4153.35 499.48 6.75 8.16-10.37-2.17z"/>
        </g>
        <g stroke="red" stroke-width="2" class="edge">
            <path fill="none" d="M3766.69 397.33c28.8 10.56 68.26 25.02 99.74 36.56"/>
            <path fill="red" d="m3866.18 430.07 8.18 6.73-10.59-.16z"/>
        </g>
        <g stroke="#000" class="edge">
            <path fill="none" d="M3656.53 384.29c-128.19 3.25-392.63 14.4-475.95 51.71-63.71 28.53-114.43 96.48-138.95 134.35"/>
            <path d="m3044.81 571.88-8.31 6.58 2.39-10.33z"/>
        </g>
        <g stroke="#000" class="edge">
            <path fill="none" d="M3718.74 400.21c-8.33 18.82-17.8 49.29-5.16 71.79 30.93 55.08 97.07 88.75 145.9 107.06"/>
            <path d="m3860.61 575.74 8.21 6.7-10.59-.11z"/>
        </g>
        <g stroke="#000" class="edge">
            <path fill="none" d="M4270.73 532.43c203.85 13.33 725.72 47.44 916.57 59.91"/>
            <path d="m5187.31 588.83 9.75 4.15-10.2 2.84z"/>
        </g>
        <g stroke="#000" class="edge">
            <path fill="none" d="M4109.18 534.69c-31.28 3.01-67.64 6.42-100.6 9.31-206.27 18.08-449.02 36.95-574.8 46.56"/>
            <path d="m3434.1 594.04-10.24-2.73 9.7-4.25z"/>
        </g>
        <g stroke="#000" class="edge">
            <path fill="none" d="M4259.74 536.77c97.89 13.25 271.88 36.81 370.76 50.2"/>
            <path d="m4630.94 583.5 9.44 4.81-10.38 2.12z"/>
        </g>
        <g stroke="red" stroke-width="2" class="edge">
            <path fill="none" d="M4102.56 531.43c-163.25 8.6-531.92 28.49-841.98 48.57-52.02 3.37-110.49 7.6-156.1 10.99"/>
            <path fill="red" d="m3106.43 594.36-10.23-2.75 9.71-4.23z"/>
        </g>
        <g stroke="#000" class="edge">
            <path fill="none" d="M4134.43 540.83c-43.85 11.41-106.18 27.63-152.59 39.71"/>
            <path d="m3982.72 583.92-10.56-.86 8.8-5.91z"/>
        </g>
        <g stroke="#000" class="edge">
            <path fill="none" d="M4813.66 324.71c90.82 23.9 267.94 80.71 382.92 183.29 19.8 17.66 36.59 42.85 47.68 61.92"/>
            <path d="m5247.22 568.05 1.86 10.43-7.96-7z"/>
        </g>
        <g stroke="#000" class="edge">
            <path fill="none" d="M4758.02 328.14c1.34 10.36 2.88 23.84 3.56 35.86 2.85 50.52 3.39 76.24-36 108-50.35 40.6-78.81 18.25-141 36-51.09 14.58-61.69 26.67-114 36-50.52 9.01-776.66 39.04-1033.11 49.43"/>
            <path d="m3437.63 596.92-10.13-3.09 9.85-3.9z"/>
        </g>
        <g stroke="#000" class="edge">
            <path fill="none" d="M4814.16 324.64c26.28 8.23 56.46 20.81 79.42 39.36 70.2 56.72 151.64 110.56 94 180-25.13 30.27-126.36 43.36-200.6 48.94"/>
            <path d="m4787.5 596.41-10.22-2.77 9.72-4.21z"/>
        </g>
        <g stroke="#000" class="edge">
            <path fill="none" d="M4663.42 315.6c-141.49 7.69-405.48 24.68-496.84 48.4-38.13 9.9-44.17 22.02-81 36-34.85 13.23-74.61 25.94-106.58 35.59"/>
            <path d="m3980.07 438.93-10.59-.49 8.58-6.22z"/>
        </g>
        <g stroke="#000" class="edge">
            <path fill="none" d="M4701.02 325.25c-44.11 11.52-106.2 27.74-152.05 39.71"/>
            <path d="m4550.01 368.31-10.56-.86 8.79-5.91z"/>
        </g>
        <g stroke="#000" class="edge">
            <path fill="none" d="M4663.76 315.78c-129.32 7.29-372.31 23.06-578.18 48.22-169.53 20.72-367.32 56.54-468.99 75.81"/>
            <path d="m3617.53 443.2-10.47-1.57 9.17-5.31z"/>
        </g>
        <g stroke="#000" class="edge">
            <path fill="none" d="M4754.23 328.29c-3.59 33.45-16.48 106.96-61.65 143.71-74.13 60.32-118.45 16.47-212 36-65 13.57-79.23 26.84-145 36-473.47 65.96-597.62 10.75-1075 36-52.25 2.76-110.95 7.01-156.62 10.57"/>
            <path d="m3104.4 594.04-10.25-2.7 9.7-4.28z"/>
        </g>
        <g stroke="#000" class="edge">
            <path fill="none" d="M4775.92 327.92c9.77 9.47 20.46 22.16 25.66 36.08 16.79 44.97 28.09 69.08 0 108-3.72 5.15-210.78 70.74-217 72-199.8 40.48-439.16 50.36-569.6 52.57"/>
            <path d="m4015.42 600.07-10.05-3.35 9.94-3.65z"/>
        </g>
        <g stroke="#000" class="edge">
            <path fill="none" d="M4869.15 537.48c87.64 13.4 238.3 36.42 324.28 49.56"/>
            <path d="m5193.75 583.55 9.36 4.97-10.42 1.95z"/>
        </g>
        <g stroke="#000" class="edge">
            <path fill="none" d="M4737.36 538.81c-12.8 2.03-26.19 3.9-38.78 5.19-62.64 6.42-970.23 39.37-1261.05 49.82"/>
            <path d="m3437.84 597.31-10.12-3.14 9.87-3.86z"/>
        </g>
        <g stroke="#000" class="edge">
            <path fill="none" d="M4777.83 543.59c-12.44 9.07-28.03 20.44-41.63 30.35"/>
            <path d="m4738.53 576.57-10.14 3.07 6.02-8.72z"/>
        </g>
        <g stroke="#000" class="edge">
            <path fill="none" d="M4717.19 531.8c-66.7 3.71-162.64 8.79-246.61 12.2-537.57 21.84-672.68 8.58-1210 36-52.25 2.67-110.96 6.91-156.62 10.49"/>
            <path d="m3104.39 593.97-10.24-2.7 9.69-4.28z"/>
        </g>
        <g stroke="#000" class="edge">
            <path fill="none" d="M4736.51 538.66c-12.55 2-25.63 3.9-37.93 5.34-246.35 28.83-538.44 43.51-685.45 49.55"/>
            <path d="m4013.59 597.03-10.14-3.09 9.85-3.9z"/>
        </g>
        <g stroke="#000" class="edge">
            <path fill="none" d="M3963.43 469.75c25.32 9.25 57.03 22.42 83.15 38.25 21.32 12.92 19.77 26.96 43 36 25.64 9.98 845.28 41.03 1096.52 50.34"/>
            <path d="m5185.9 590.83 9.86 3.87-10.12 3.12z"/>
        </g>
        <g stroke="#000" class="edge">
            <path fill="none" d="M3864.44 468.49c-105.99 26.4-340.33 84.78-452.98 112.84"/>
            <path d="m3412.31 584.73-10.55-.98 8.86-5.81z"/>
        </g>
        <g stroke="#000" class="edge">
            <path fill="none" d="M3937.96 472c25.31 21.08 71.92 56.15 118.62 72 102.15 34.67 413.02 47.12 563.97 51.19"/>
            <path d="m4620.6 591.69 9.91 3.77-10.09 3.23z"/>
        </g>
        <g stroke="red" stroke-width="2" class="edge">
            <path fill="none" d="M3971.08 468.66c43.74 11.38 106.19 27.63 152.79 39.76"/>
            <path fill="red" d="m4123.02 504.58 8.8 5.91-10.56.87z"/>
        </g>
        <g stroke="#000" class="edge">
            <path fill="none" d="M3836.81 460.26c-164.23 10.75-523.19 35.29-578.23 47.74-18.72 4.23-123.21 45.27-185.73 70.12"/>
            <path d="m3074.44 581.25-10.59.45 8-6.95z"/>
        </g>
        <g stroke="#000" class="edge">
            <path fill="none" d="M3912.76 472.44c-3.11 10.23-6.61 23.48-8.18 35.56-2.06 15.87-2.06 20.13 0 36 1.05 8.12 2.98 16.76 5.07 24.66"/>
            <path d="m3912.97 567.53-.63 10.57-6.1-8.65z"/>
        </g>
        <g stroke="#000" class="edge">
            <path fill="none" d="M4557.94 390.19c96.17 10.23 263.48 29.54 322.64 45.81 129.26 35.55 272.46 105.68 339.47 140.45"/>
            <path d="m5221.55 573.29 7.24 7.73-10.48-1.53z"/>
        </g>
        <g stroke="#000" class="edge">
            <path fill="none" d="M4470.49 399.8c-19.09 18.46-51.22 48.61-80.91 72.2-44.02 34.97-50.83 53.73-104 72-39.69 13.64-622.47 39.66-848.41 49.29"/>
            <path d="m3437.36 596.79-10.14-3.08 9.84-3.92z"/>
        </g>
        <g stroke="#000" class="edge">
            <path fill="none" d="M4557.56 390.31c121.63 14.35 363.63 50.81 411.02 117.69 47.77 67.41-85.73 84.48-179.88 88.39"/>
            <path d="m4789.06 599.87-10.12-3.13 9.87-3.86z"/>
        </g>
        <g stroke="#000" class="edge">
            <path fill="none" d="M4458.99 399.23c-17.44 10.14-40.03 23.72-59.41 36.77-22.12 14.9-24.32 23.73-48 36-30.29 15.69-66.12 27.92-96.56 36.65"/>
            <path d="m4256.11 511.99-10.58-.68 8.69-6.07z"/>
        </g>
        <g stroke="#000" class="edge">
            <path fill="none" d="M4419.51 391.37c-104.24 12.83-303.2 37.3-416.48 51.24"/>
            <path d="m4003.52 446.08-10.35-2.26 9.49-4.69z"/>
        </g>
        <g stroke="#000" class="edge">
            <path fill="none" d="M4430.98 394.79c-88.55 18.19-265.34 53.47-416.4 77.21-339.27 53.31-746.83 99.08-912.94 116.97"/>
            <path d="m3102.39 592.41-10.31-2.41 9.56-4.55z"/>
        </g>
        <g stroke="#000" class="edge">
            <path fill="none" d="M4487.5 400.29c-.95 19.45-5.23 51.02-21.92 71.71-45.68 56.62-77.36 50.95-147 72-101.67 30.74-223.22 43.66-305.44 49.08"/>
            <path d="m4013.52 596.56-10.2-2.86 9.76-4.12z"/>
        </g>
        <g stroke="#000" class="edge">
            <path fill="none" d="M3600.37 467.35c86.18 19.98 264.76 58.94 418.21 76.65 58.1 6.71 909.93 40.17 1167.05 50.17"/>
            <path d="m5185.69 590.67 9.86 3.89-10.13 3.11z"/>
        </g>
        <g stroke="#000" class="edge">
            <path fill="none" d="M3538.39 472.24c-12.41 19.69-35.06 51.78-61.81 71.76-20.54 15.35-46.18 27.1-69.1 35.6"/>
            <path d="m3408.85 582.83-10.6.05 8.25-6.65z"/>
        </g>
        <g stroke="#000" class="edge">
            <path fill="none" d="M3581.33 470.58c45.69 20.91 131.68 57.28 209.25 73.42 157.15 32.7 635.27 46.79 830.06 51.28"/>
            <path d="m4620.51 591.78 9.92 3.73-10.08 3.27z"/>
        </g>
        <g stroke="#000" class="edge">
            <path fill="none" d="M3615.76 462.36c116.17 12.73 354.55 38.84 483.8 53"/>
            <path d="m4099.9 511.87 9.56 4.57-10.32 2.39z"/>
        </g>
        <g stroke="#000" class="edge">
            <path fill="none" d="M3480.5 461.81c-90.21 9.55-244.24 27.82-297.92 46.19-46.28 15.84-94.49 45.45-125.08 66.16"/>
            <path d="m3059.69 576.9-10.23 2.78 6.26-8.55z"/>
        </g>
        <g stroke="#000" class="edge">
            <path fill="none" d="M3553.64 472.18c7.01 20.58 21.75 54.45 46.94 71.82 35.98 24.8 146.38 39.07 227.03 46.42"/>
            <path d="m3827.63 586.91 9.65 4.37-10.27 2.6z"/>
        </g>
        <g stroke="#000" class="edge">
            <path fill="none" d="M3877.02 238.51c224.78-.41 799.36 3.63 983.56 53.49 33.48 9.06 248.03 124.92 277 144 42.2 27.8 58.63 30.87 88 72 13.02 18.24 21.52 42.22 26.63 60.69"/>
            <path d="m5255.55 567.62-.9 10.56-5.88-8.81z"/>
        </g>
        <g stroke="#000" class="edge">
            <path fill="none" d="M3727.05 252.13c-87.27 22.57-251.12 76.98-343.47 183.87-32.12 37.17-36.9 96.93-36.56 132.24"/>
            <path d="m3350.52 568.04-3.24 10.08-3.76-9.9z"/>
        </g>
        <g stroke="#000" class="edge">
            <path fill="none" d="M3788.84 256.36c4.48 24.11 12.68 69.11 18.74 107.64 7.53 47.87-14.15 69.28 15 108 47.39 62.95 85.58 52.82 162 72 118.42 29.72 473.6 44.9 636.59 50.46"/>
            <path d="m4621.18 590.96 9.87 3.83-10.11 3.16z"/>
        </g>
        <g stroke="red" stroke-width="2" class="edge">
            <path fill="none" d="M3830.46 254.1c31.89 10.74 74.9 25.21 108.75 36.6"/>
            <path fill="red" d="m3938.62 286.81 8.36 6.51-10.59.13z"/>
        </g>
        <g stroke="#000" class="edge">
            <path fill="none" d="M3778.41 256.17c-4.32 10.37-9.92 23.85-14.83 35.83-8.4 20.5-17.78 43.7-24.86 61.27"/>
            <path d="m3741.98 354.55-6.98 7.97.49-10.59z"/>
        </g>
        <g stroke="#000" class="edge">
            <path fill="none" d="M3870.4 245.01c77 7.01 183.38 21.11 216.18 46.99 65.55 51.72 89.39 154.43 97.36 204.39"/>
            <path d="m4187.37 495.71-1.99 10.4-4.93-9.38z"/>
        </g>
        <g stroke="#000" class="edge">
            <path fill="none" d="M3694.06 238.69c-143.85 2.9-428.51 22.57-642.48 125.31-71.64 34.4-92.78 65.64-106 144-2.66 15.78-7.57 21.9 0 36 7.42 13.82 20.2 24.64 33.4 32.8"/>
            <path d="m2980.32 573.54 6.96 7.99-10.42-1.91z"/>
        </g>
        <g stroke="#000" class="edge">
            <path fill="none" d="M3753.4 255.22c-46.32 25.87-124.34 80.2-105.82 144.78 20.81 72.55 29.85 98.41 90 144 28.25 21.41 64.98 34.19 97.96 41.81"/>
            <path d="m3836.05 582.34 9.03 5.54-10.51 1.3z"/>
        </g>
        <g stroke="#000" class="edge">
            <path fill="none" d="M4668.71 464.65c64.23 9.51 163 25.23 247.87 43.35 102.87 21.97 221.36 54.43 288.39 73.48"/>
            <path d="m5205.57 578.01 8.65 6.11-10.57.62z"/>
        </g>
        <g stroke="#000" class="edge">
            <path fill="none" d="M4567.16 470.82c-46.16 21-132.6 57.28-210.58 73.18-88.6 18.07-689.52 41.45-919.09 49.84"/>
            <path d="m3437.82 597.33-10.12-3.14 9.86-3.86z"/>
        </g>
        <g stroke="#000" class="edge">
            <path fill="none" d="M4668.02 464.81c85.34 12.74 222.18 34.38 229.56 43.19 37.98 45.36-47.31 68.81-116.36 80"/>
            <path d="m4781.77 591.46-10.42-1.93 9.35-4.99z"/>
        </g>
        <g stroke="#000" class="edge">
            <path fill="none" d="m4536.5 465.86-271.03 45.94"/>
            <path d="m4266.14 515.23-10.44-1.78 9.27-5.12z"/>
        </g>
        <g stroke="#000" class="edge">
            <path fill="none" d="M4533.28 464.86c-49.73 8.42-118.6 22.48-176.7 43.14-33.34 11.85-36.74 27.17-71 36-220.71 56.87-797.41 23.78-1025 36-52.25 2.81-110.95 7.05-156.62 10.6"/>
            <path d="m3104.4 594.08-10.24-2.71 9.69-4.27z"/>
        </g>
        <g stroke="#000" class="edge">
            <path fill="none" d="M4576.55 471.59c-31.49 20.8-89.18 55.76-143.97 72.41-76.45 23.23-295.36 39.79-421.47 47.72"/>
            <path d="m4011.66 595.19-10.19-2.87 9.76-4.12z"/>
        </g>
        <g stroke="#000" class="edge">
            <path fill="none" d="M1027.03 397.52c-20.32 7.89-40.44 19.99-52.45 38.48-8.71 13.42-9.42 23.06 0 36 118.81 163.21-74.54 10.11 2131 108 52.69 2.34 111.72 6.43 158.4 10.02"/>
            <path d="m3264.05 586.51 9.7 4.27-10.24 2.71z"/>
        </g>
        <g stroke="#000" class="edge">
            <path fill="none" d="M1091.11 400.3c-1.06 7.38-2.31 16.18-3.49 24.45"/>
            <path d="m1091.12 424.99-4.88 9.41-2.05-10.4z"/>
        </g>
        <g class="node" transform="translate(4 616)">
            <ellipse cx="429.58" cy="-162" fill="none" stroke="#000" rx="80.01" ry="18"/>
            <text x="429.58" y="-156.95" font-family="Times,serif" font-size="14" text-anchor="middle">:library:koin-room</text>
        </g>
        <g stroke="#000" class="edge">
            <path fill="none" d="M1004.93 394.9c-14.79 1.82-30 3.59-44.35 5.1-194.26 20.39-244.46 9.64-438 36-6.75.92-13.77 2.01-20.76 3.2"/>
            <path d="m502.83 442.58-10.46-1.72 9.25-5.18z"/>
        </g>
        <g class="node" transform="translate(4 616)">
            <ellipse cx="588.58" cy="-162" fill="none" stroke="#000" rx="60.56" ry="18"/>
            <text x="588.58" y="-156.95" font-family="Times,serif" font-size="14" text-anchor="middle">:library:room</text>
        </g>
        <g stroke="#000" class="edge">
            <path fill="none" d="M1003.36 394.59C923.65 404.97 804.3 420.85 700.58 436c-14.52 2.12-30.11 4.51-44.82 6.81"/>
            <path d="m656.65 446.22-10.42-1.9 9.33-5.02z"/>
        </g>
        <g stroke="#000" class="edge">
            <path fill="none" d="M752.09 397.89c-20 7.89-39.69 19.9-51.51 38.11-8.71 13.42-9.9 23.43 0 36 84.59 107.37 163.41 54.73 299 72 464.32 59.14 1638.37 15.66 2106 36 52.69 2.29 111.72 6.39 158.4 9.98"/>
            <path d="m3264.06 586.48 9.7 4.26-10.25 2.72z"/>
        </g>
        <g stroke="#000" class="edge">
            <path fill="none" d="M819.33 400.3c-.1 7.29-.23 15.97-.34 24.16"/>
            <path d="m822.49 424.43-3.64 9.95-3.36-10.05z"/>
        </g>
        <g stroke="#000" class="edge">
            <path fill="none" d="M740.74 396.8c-59.88 10.55-144.25 25.55-218.16 39.2-5.99 1.11-12.21 2.27-18.45 3.44"/>
            <path d="m504.89 442.86-10.48-1.58 9.18-5.3z"/>
        </g>
        <g stroke="#000" class="edge">
            <path fill="none" d="M767.79 398.97c-37.04 11.42-86.68 26.73-123.66 38.13"/>
            <path d="m645.6 440.31-10.58-.4 8.52-6.29z"/>
        </g>
        <g stroke="#000" class="edge">
            <path fill="none" d="M1811.82 471.77c23.44 9.76 53.19 22.16 78.09 32.53"/>
            <path d="m1890.97 500.95 7.88 7.08-10.58-.62z"/>
        </g>
        <g class="node" transform="translate(4 616)">
            <ellipse cx="1702.58" cy="-90" fill="none" stroke="#000" rx="93.32" ry="18"/>
            <text x="1702.58" y="-84.95" font-family="Times,serif" font-size="14" text-anchor="middle">:library:koin-datastore</text>
        </g>
        <g stroke="#000" class="edge">
            <path fill="none" d="M1755.51 472.3c-7.63 8.23-16.91 18.22-25.33 27.28"/>
            <path d="m1732.86 501.84-9.37 4.95 4.24-9.71z"/>
        </g>
        <g stroke="#000" class="edge">
            <path fill="none" d="M451.2 394.21c-69 11.96-144.84 35.24-106.62 77.79 24.98 27.81 631.69 69.68 669 72 928.12 57.81 1162.96-4.46 2092 36 52.69 2.29 111.72 6.39 158.4 9.98"/>
            <path d="m3264.06 586.48 9.7 4.26-10.25 2.72z"/>
        </g>
        <g stroke="#000" class="edge">
            <path fill="none" d="M633.52 395c15.02 1.82 30.47 3.57 45.06 5 227.9 22.42 285.6 19.37 514 36 39.92 2.91 83.81 6.2 122.14 9.11"/>
            <path d="m1314.69 441.6 9.71 4.24-10.24 2.74z"/>
        </g>
        <g stroke="#000" class="edge">
            <path fill="none" d="M517.71 399.95c-14.67 9.24-33 20.81-48.81 30.78"/>
            <path d="m471.04 433.51-10.32 2.38 6.59-8.3z"/>
        </g>
        <g stroke="#000" class="edge">
            <path fill="none" d="M556.44 400.3c5.41 7.89 11.93 17.4 17.94 26.15"/>
            <path d="m577.23 424.42 2.76 10.23-8.54-6.27z"/>
        </g>
        <g stroke="#000" class="edge">
            <path fill="none" d="M2466.47 472.41c.92 20.82 5.97 54.94 28.11 71.59 33.71 25.35 1475.83 34.98 1518 36 219.39 5.3 477.91 11.69 608.09 14.92"/>
            <path d="m4620.68 591.41 9.91 3.75-10.08 3.25z"/>
        </g>
        <g stroke="#000" class="edge">
            <path fill="none" d="M2504.83 471.95c21.7 9.61 49.05 21.73 72.13 31.95"/>
            <path d="m2578.12 500.59 7.73 7.25-10.56-.85z"/>
        </g>
        <g stroke="#000" class="edge">
            <path fill="none" d="M2327.91 462.74c-133.4 8.26-340.61 23.21-519.33 45.26-7.75.96-15.81 2.08-23.86 3.28"/>
            <path d="m1785.31 514.73-10.42-1.93 9.35-4.99z"/>
        </g>
        <g stroke="#000" class="edge">
            <path fill="none" d="M260.73 400.22c-13.72 32.99-37.19 105.26.85 143.78 27.76 28.11 2804.53 34.37 2844 36 52.8 2.18 111.94 6.28 158.66 9.91"/>
            <path d="m3264.33 586.41 9.7 4.27-10.25 2.7z"/>
        </g>
        <g stroke="#000" class="edge">
            <path fill="none" d="M274.24 400.42c6.77 18.99 19.47 49.62 37.34 71.58 9.01 11.08 20.78 21.2 32.03 29.56"/>
            <path d="m345.52 498.63 6.12 8.65-10.17-2.95z"/>
        </g>
        <g stroke="#000" class="edge">
            <path fill="none" d="M307.68 399.59c23.77 10.08 54.25 23.01 79.27 33.63"/>
            <path d="m388.07 429.89 7.83 7.13-10.57-.69z"/>
        </g>
        <g stroke="#000" class="edge">
            <path fill="none" d="M341.25 397.51c50.87 10.32 120.36 24.73 181.33 38.49 4.34.98 8.82 2.01 13.32 3.07"/>
            <path d="m536.67 435.66 8.93 5.71-10.54 1.1z"/>
        </g>
        <g stroke="#000" class="edge">
            <path fill="none" d="M6127.01 255.06c19.06 9.74 43.59 22.27 64.21 32.81"/>
            <path d="m6192.63 284.66 7.32 7.67-10.5-1.44z"/>
        </g>
        <g stroke="#000" class="edge">
            <path fill="none" d="M6169.09 246.2c46.23 6.88 105.92 20.19 153.49 45.8 20.48 11.03 17.79 24.47 38 36 50.59 28.85 90.93-10.5 126 36 9.63 12.77 7.07 21.65 0 36-5.94 12.05-16.08 22.13-26.79 30.14"/>
            <path d="m6461.8 433.01-10.22 2.79 6.25-8.55z"/>
        </g>
        <g stroke="#000" class="edge">
            <path fill="none" d="M6025.52 247.62c-104.82 12.89-302.16 37.17-414.7 51.02"/>
            <path d="m5611.39 302.09-10.35-2.25 9.5-4.7z"/>
        </g>
        <g stroke="#000" class="edge">
            <path fill="none" d="M6177.04 240.16c115 3.01 317.86 13.73 379.54 51.84 69.88 43.18 75.69 105.08 42 180-4.92 10.93-13.12 20.92-21.58 29.2"/>
            <path d="m6579.43 503.71-9.74 4.16 5.03-9.33z"/>
        </g>
        <g stroke="#000" class="edge">
            <path fill="none" d="M6175.47 241.96c248.54 11.74 978.16 66.62 750.11 302.04-28.11 29.02-1274.86 47.73-1593.48 52.04"/>
            <path d="m5332.28 599.54-10.05-3.36 9.96-3.64z"/>
        </g>
        <g stroke="#000" class="edge">
            <path fill="none" d="M6044.16 252.33c-44.62 11.57-109.32 28.34-156.75 40.64"/>
            <path d="m5888.37 296.34-10.55-.88 8.8-5.9z"/>
        </g>
        <g stroke="#000" class="edge">
            <path fill="none" d="M6077.61 255.84c-60.2 55.07-262.52 229.67-468.03 288.16-95.4 27.15-1685.85 33.23-1785 36-135.23 3.78-292.02 9.67-387.58 13.43"/>
            <path d="m3437.3 596.92-10.13-3.1 9.85-3.89z"/>
        </g>
        <g stroke="#000" class="edge">
            <path fill="none" d="M6100.99 256.35c4.8 18.67 9.52 48.76-1.41 71.65-4.11 8.61-258.08 212.61-267 216-24.38 9.27-788.03 39.77-1044.75 49.78"/>
            <path d="m4788 597.28-10.13-3.11 9.85-3.89z"/>
        </g>
        <g stroke="#000" class="edge">
            <path fill="none" d="M6155.52 250.56c62.85 12.12 161.7 31.18 229.3 44.22"/>
            <path d="m6385.16 291.28 9.16 5.33-10.48 1.54z"/>
        </g>
        <g stroke="#000" class="edge">
            <path fill="none" d="M6019.43 244.78c-51.12 3.7-119.99 8.33-180.85 11.22-175.05 8.3-1398.16 41.12-1750.33 50.49"/>
            <path d="m4088.44 309.98-10.09-3.23 9.9-3.76z"/>
        </g>
        <g stroke="#000" class="edge">
            <path fill="none" d="M6070.86 255.55c-33.66 21.48-96.57 57.91-156.28 72.45-188.75 45.95-1553.82 30.24-1748 36-124.89 3.7-269.71 9.63-357.81 13.42"/>
            <path d="m3809.17 380.9-10.14-3.06 9.84-3.93z"/>
        </g>
        <g stroke="#000" class="edge">
            <path fill="none" d="M5419.5 244.18c155.76 12.41 550.77 43.91 726.5 57.92"/>
            <path d="m6146.05 298.59 9.69 4.28-10.24 2.7z"/>
        </g>
        <g stroke="#000" class="edge">
            <path fill="none" d="M5363.39 256.17c11.96 21.26 35.55 56.52 67.19 71.83 96.89 46.87 885.6-33.24 968 36 17.21 14.46 21.16 40.34 21.27 60.48"/>
            <path d="m6423.35 424.42-3.78 9.9-3.21-10.1z"/>
        </g>
        <g stroke="#000" class="edge">
            <path fill="none" d="M5390.64 253.67c25.41 10.35 59.74 24.32 87.54 35.63"/>
            <path d="m5479.14 285.91 7.94 7.02-10.58-.53z"/>
        </g>
        <g stroke="#000" class="edge">
            <path fill="none" d="M5355.69 256.24c2.33 20.65 9.55 54.59 31.89 71.76 66.9 51.42 294.81 21.88 378 36 198.1 33.61 241.98 68.58 439 108 95.71 19.15 207.67 35.34 276.72 44.61"/>
            <path d="m6481.47 513.11 9.45 4.79-10.38 2.14z"/>
        </g>
        <g stroke="#000" class="edge">
            <path fill="none" d="M5350.22 256.39c-3.79 19.55-6.5 51.2 9.36 71.61 32.6 41.96 64.22 17.43 114 36 157.63 58.8 446.09 55.44 333 180-31.34 34.51-333.17 47.2-475.02 51.29"/>
            <path d="m5332 598.78-10.09-3.22 9.9-3.78z"/>
        </g>
        <g stroke="#000" class="edge">
            <path fill="none" d="M5413.28 247.72c84.95 12.63 242.24 36.01 336.06 49.95"/>
            <path d="m5749.59 294.17 9.38 4.93-10.41 1.99z"/>
        </g>
        <g stroke="#000" class="edge">
            <path fill="none" d="M5319.71 253.98c-90.04 38.44-338.06 142.85-549.13 218.02-100.51 35.79-123.93 53.48-229 72-54.13 9.54-837.33 39.65-1104.48 49.7"/>
            <path d="m3437.55 597.18-10.13-3.12 9.86-3.87z"/>
        </g>
        <g stroke="#000" class="edge">
            <path fill="none" d="M5346.27 256.21c-7.9 19.08-16.67 50.05-2.69 71.79 62.62 97.35 172.36 11.97 237 108 26.81 39.84 35.92 73.04 3 108-13.56 14.4-580.15 40.18-796.35 49.51"/>
            <path d="m4787.62 596.99-10.14-3.06 9.84-3.93z"/>
        </g>
        <g stroke="#000" class="edge">
            <path fill="none" d="M5421.44 242.65c218.15 11.89 895.51 48.85 901.14 49.35 17.11 1.54 35.38 3.56 52.8 5.67"/>
            <path d="m6375.69 294.18 9.5 4.7-10.36 2.25z"/>
        </g>
        <g stroke="#000" class="edge">
            <path fill="none" d="M5295.25 247.35c-24.33 3.16-52.81 6.5-78.67 8.65-419.37 34.86-921.66 47.5-1127.71 51.44"/>
            <path d="m4089.08 310.94-10.07-3.31 9.94-3.69z"/>
        </g>
        <g stroke="#000" class="edge">
            <path fill="none" d="M5295.61 247.52c-24.41 3.2-53.03 6.53-79.03 8.48-145.87 10.95-1174.32-.37-1316 36-52.41 13.45-106.97 44.92-140.46 66.58"/>
            <path d="m3762.38 361.29-10.28 2.57 6.43-8.42z"/>
        </g>
        <g stroke="#000" class="edge">
            <path fill="none" d="M6563.78 182c-30 10.39-70.63 24.69-106.2 38-61.37 22.97-131.49 50.99-176.92 69.38"/>
            <path d="m6282.22 292.53-10.58.51 7.95-7z"/>
        </g>
        <g stroke="#000" class="edge">
            <path fill="none" d="M6644.42 182.71c15.34 8.61 31.55 20.91 40.16 37.29 35.63 67.78-31.39 141.49-80 180-26.26 20.8-60.29 33.44-92.1 41.12"/>
            <path d="m6513.34 444.52-10.52-1.22 8.98-5.61z"/>
        </g>
        <g stroke="#000" class="edge">
            <path fill="none" d="M6518.75 166.32c-202.97-.65-695.34 3.22-852.17 53.68-42.67 13.73-85.21 43.66-112 65.02"/>
            <path d="m5556.92 287.63-9.96 3.59 5.55-9.02z"/>
        </g>
        <g stroke="#000" class="edge">
            <path fill="none" d="M6693.55 170.71c92.71 5.53 232.85 18.77 276.03 49.29 66.35 46.9 78.27 113.2 32 180-44.35 64.03-273.89 101.91-389.01 117.16"/>
            <path d="m6613.33 520.59-10.36-2.18 9.46-4.76z"/>
        </g>
        <g stroke="#000" class="edge">
            <path fill="none" d="M6696.76 166.28c128.45.6 357.54 8.28 424.82 53.72 106.05 71.62 47.62 314.11 38 324-32.42 33.34-1481.17 49.06-1827.3 52.34"/>
            <path d="m5332.46 599.84-10.03-3.41 9.97-3.59z"/>
        </g>
        <g stroke="#000" class="edge">
            <path fill="none" d="M6521.25 170.63c-142.82 6.67-421.9 22.68-516.67 49.37-52.9 14.9-108.86 45.43-143.84 66.54"/>
            <path d="m5862.67 289.47-10.36 2.23 6.7-8.2z"/>
        </g>
        <g stroke="#000" class="edge">
            <path fill="none" d="M6678.07 177.31c15.63 2.25 32.13 4.58 47.51 6.69 61.28 8.41 224.84 1.24 276 36 66.71 45.32 68.88 113.67 23 180-94.29 136.31-180.21 118.61-344 144-313.61 48.61-2538.73 28.34-2856 36-135.24 3.27-292.03 9.3-387.59 13.23"/>
            <path d="m3437.3 596.72-10.14-3.08 9.85-3.91z"/>
        </g>
        <g stroke="#000" class="edge">
            <path fill="none" d="M6696.65 166.17c120.8.65 328.29 8.6 386.93 53.83 60.71 46.83 62 84.32 62 161v74c0 24.21 113.81 19.33-182 89-192.12 45.25-1578.7 30.53-1776 36-140.44 3.89-303.8 9.97-400.01 13.7"/>
            <path d="m4787.81 597.2-10.12-3.11 9.85-3.89z"/>
        </g>
        <g stroke="#000" class="edge">
            <path fill="none" d="M6545.42 179.1c-24.45 7.78-50.71 20.44-67.84 40.9-13.96 16.68-18.4 41.15-19.52 60.21"/>
            <path d="m6461.56 280.14-3.79 9.89-3.21-10.09z"/>
        </g>
        <g stroke="#000" class="edge">
            <path fill="none" d="M6646.24 182.42c57.83 25.58 156.69 80.47 123.34 145.58-49.94 97.49-96.27 108.84-200 144-128.02 43.39-1080.89 31.92-1216 36-159.49 4.81-344.85 10.54-455.35 13.96"/>
            <path d="m4898.4 525.46-10.1-3.19 9.89-3.81z"/>
        </g>
        <g stroke="#000" class="edge">
            <path fill="none" d="M6520.03 169.17c-415.76 10.31-2189.01 54.3-2633.23 65.32"/>
            <path d="m3887.21 237.98-10.09-3.25 9.91-3.75z"/>
        </g>
        <g stroke="#000" class="edge">
            <path fill="none" d="M6635.21 183.57c12.35 9.05 25.63 21.48 32.37 36.43 6.58 14.59 7.64 21.94 0 36-28.07 51.67-56.41 50.16-111 72-54.95 21.98-119.63 34.98-173.17 42.59"/>
            <path d="m6384.04 374.04-10.38-2.11 9.43-4.83z"/>
        </g>
        <g stroke="#000" class="edge">
            <path fill="none" d="M5195.57 247.66c25.43 2.97 54.5 6.1 81.01 8.34 42.71 3.6 637.23 35.81 866.62 48.18"/>
            <path d="m6143.19 300.68 9.8 4.03-10.18 2.96z"/>
        </g>
        <g stroke="#000" class="edge">
            <path fill="none" d="M5146.16 255.92c25.54 20.98 72.54 55.96 119.42 72.08 162.93 56.04 214.64 18.06 386 36 243.24 25.47 529.39 59.91 673.34 77.55"/>
            <path d="m6325.3 438.07 9.5 4.69-10.35 2.26z"/>
        </g>
        <g stroke="#000" class="edge">
            <path fill="none" d="M5188.64 249.86c70.69 12.37 186.22 32.59 262.17 45.88"/>
            <path d="m5450.98 292.22 9.25 5.17-10.46 1.72z"/>
        </g>
        <g stroke="#000" class="edge">
            <path fill="none" d="M5134.3 256.24c10.2 20.64 30.23 54.58 58.28 71.76 82.53 50.53 763.12 130.84 859 144 152.22 20.89 331.73 38.32 427.23 47.03"/>
            <path d="m6478.88 515.52 9.64 4.39-10.27 2.58z"/>
        </g>
        <g stroke="#000" class="edge">
            <path fill="none" d="M5128.14 256.46c2.41 19.04 8.47 49.69 23.44 71.54 11.3 16.5 133.27 91.12 144 108 26 40.89 33.33 63.14 15 108-4.5 11.01-12.51 20.96-20.91 29.2"/>
            <path d="m5292.13 575.69-9.76 4.13 5.06-9.31z"/>
        </g>
        <g stroke="#000" class="edge">
            <path fill="none" d="M5196.76 247.2c25.16 2.87 53.75 6.06 79.82 8.8 164.7 17.28 357.43 35.4 465.15 45.34"/>
            <path d="m5742.02 297.85 9.63 4.41-10.28 2.56z"/>
        </g>
        <g stroke="#000" class="edge">
            <path fill="none" d="M5100.26 255.47C5023.6 303.23 4800.89 440.4 4721.58 472c-126.98 50.6-163.7 52.55-299 72-96.13 13.82-745.62 40.19-985.34 49.58"/>
            <path d="m3437.44 597.07-10.13-3.1 9.86-3.89z"/>
        </g>
        <g stroke="#000" class="edge">
            <path fill="none" d="M5124.23 256.16c-1.79 18.51-2.51 48.45 7.35 71.84 16.87 40 32.37 44.55 66 72 24.09 19.67 44.68 8.94 60 36 7.88 13.92 7.26 21.74 0 36-24.69 48.48-48.33 52.2-99 72-65.92 25.76-260.39 41.35-372.27 48.44"/>
            <path d="m4786.79 595.92-10.19-2.87 9.76-4.12z"/>
        </g>
        <g stroke="#000" class="edge">
            <path fill="none" d="M5194.8 247.88c25.6 3.02 54.99 6.14 81.78 8.12 463.9 34.22 582.3-.89 1046 36 17.22 1.37 35.61 3.33 53.12 5.44"/>
            <path d="m6376.06 293.95 9.5 4.7-10.35 2.25z"/>
        </g>
        <g stroke="#000" class="edge">
            <path fill="none" d="M5048.03 242.45c-98.95 5.46-273.79 18.83-420.45 49.55-103.59 21.7-139.64 12.24-227 72-50.87 34.8-37.76 70.92-87 108-19.63 14.78-44 26.28-66.06 34.73"/>
            <path d="m4248.92 509.94-10.59.17 8.18-6.74z"/>
        </g>
        <g stroke="#000" class="edge">
            <path fill="none" d="M5093.65 254.68c-14.48 8.78-30 21.23-38.07 37.32-35.94 71.67 62.88 118.03 12 180-21.8 26.55-104.98 40.04-172.77 46.74"/>
            <path d="m4895.44 522.2-10.29-2.55 9.63-4.42z"/>
        </g>
        <g stroke="#000" class="edge">
            <path fill="none" d="M5048.78 243.04c-127.09 7.27-368.17 24.16-398.2 48.96-20.49 16.92-37.07 90.83-44.98 132.38"/>
            <path d="m4609.06 424.97-5.26 9.19-1.63-10.47z"/>
        </g>
        <g stroke="#000" class="edge">
            <path fill="none" d="M5163.04 254.32c51.31 20.77 148.2 57.18 234.54 73.68 72.2 13.8 532.96 36.87 756.15 47.42"/>
            <path d="m6153.82 371.92 9.82 3.97-10.15 3.03z"/>
        </g>
        <g stroke="#000" class="edge">
            <path fill="none" d="M5816.32 248.3c87.48 12.75 244.61 35.67 338.78 49.4"/>
            <path d="m6155.37 294.2 9.39 4.91-10.4 2.02z"/>
        </g>
        <g stroke="#000" class="edge">
            <path fill="none" d="M5814.05 249.2c55.18 9.59 138.23 25.09 209.53 42.8 53.63 13.32 64.94 24.54 119 36 63.31 13.42 246.16-12.51 289 36 14.61 16.54 8.86 41.88.76 61.3"/>
            <path d="m6435.56 426.67-7.36 7.62 1-10.55z"/>
        </g>
        <g stroke="#000" class="edge">
            <path fill="none" d="M5707.39 253c-35.41 10.96-84.91 26.3-123.17 38.15"/>
            <path d="m5585.28 294.48-10.59-.38 8.52-6.3z"/>
        </g>
        <g stroke="#000" class="edge">
            <path fill="none" d="M5808.74 250.66c39.57 9.09 93.39 23.19 138.84 41.34 78.3 31.26 254.68 151.42 334 180 65.52 23.61 144.16 37.66 198.67 45.3"/>
            <path d="m6480.57 513.81 9.43 4.82-10.38 2.11z"/>
        </g>
        <g stroke="#000" class="edge">
            <path fill="none" d="M5825.6 244.03c32.77 6.34 68.57 19.82 88.98 47.97 54.96 75.81 153.87 72.64-83 252-39.04 29.56-354.39 44.93-499.9 50.51"/>
            <path d="m5331.87 598-10.12-3.12 9.86-3.87z"/>
        </g>
        <g stroke="#000" class="edge">
            <path fill="none" d="M5770.25 255.95c8.81 8.44 19.64 18.83 29.37 28.16"/>
            <path d="m5801.93 281.47 4.8 9.45-9.64-4.39z"/>
        </g>
        <g stroke="#000" class="edge">
            <path fill="none" d="M5743.67 256.17c-32.83 63.14-145.93 279.29-160.09 287.83-41.85 25.24-1710.15 34.63-1759 36-135.23 3.8-292.02 9.68-387.58 13.44"/>
            <path d="m3437.3 596.93-10.13-3.1 9.85-3.89z"/>
        </g>
        <g stroke="#000" class="edge">
            <path fill="none" d="M5747.12 256.11c-3.23 10.34-7.31 23.82-10.54 35.89-29.75 111.12 29.15 178.11-59 252-16.97 14.23-657.58 40.66-889.92 49.79"/>
            <path d="m4787.89 597.29-10.13-3.11 9.86-3.89z"/>
        </g>
        <g stroke="#000" class="edge">
            <path fill="none" d="M5824.19 244.93c108.09 9.11 319.31 27.56 498.39 47.07 16.69 1.82 34.51 3.93 51.56 6.02"/>
            <path d="m6374.23 294.51 9.49 4.7-10.35 2.24z"/>
        </g>
        <g stroke="#000" class="edge">
            <path fill="none" d="M5723.68 255.14c-17.27 10-39.42 23.46-58.1 36.86-20.26 14.52-20.01 26.37-43 36-458.78 192.26-626.02 11.51-1114 108-54.21 10.72-65.82 20.99-119 36-45.51 12.85-97.08 26.36-136.73 36.53"/>
            <path d="m4253.76 511.91-10.55-.91 8.82-5.87z"/>
        </g>
        <g stroke="#000" class="edge">
            <path fill="none" d="M5679.67 244.12c-175.7 12.33-622.8 43.73-823.68 57.83"/>
            <path d="m4856.3 305.44-10.22-2.79 9.73-4.2z"/>
        </g>
        <g stroke="#000" class="edge">
            <path fill="none" d="M6512.97 251.27c-58.9 12.13-148.94 30.67-211.02 43.45"/>
            <path d="m6302.68 298.14-10.5-1.41 9.09-5.45z"/>
        </g>
        <g stroke="#000" class="edge">
            <path fill="none" d="M6580.35 256.26c13.02 31.82 34.88 100.42 3.23 143.74-15.77 21.59-40.44 34.59-65.97 42.36"/>
            <path d="m6518.66 445.7-10.57-.73 8.71-6.02z"/>
        </g>
        <g stroke="#000" class="edge">
            <path fill="none" d="M6490.37 243.73c-149.89 8.74-477.65 28.34-753.79 48.27-39.34 2.84-82.81 6.3-119.94 9.36"/>
            <path d="m5617.1 304.84-10.26-2.67 9.68-4.31z"/>
        </g>
        <g stroke="#000" class="edge">
            <path fill="none" d="M6653.93 244.18c32.68 6.57 67.35 20.19 87.65 47.82 23.94 32.59 81.17 69.87-6 180-15.7 19.83-76.73 34.48-125.25 43.3"/>
            <path d="m6611.19 518.7-10.46-1.71 9.24-5.19z"/>
        </g>
        <g stroke="#000" class="edge">
            <path fill="none" d="M6657.47 241.58c92.74 4.5 233.53 16.82 274.11 50.42 86.54 71.65 112.5 188.22 20 252-67.48 46.53-1301.99 52.21-1619.2 52.9"/>
            <path d="m5332.57 600.4-10.01-3.48 9.99-3.52z"/>
        </g>
        <g stroke="#000" class="edge">
            <path fill="none" d="M6495.1 246.26c-141.41 13.25-440.16 41.25-585.95 54.91"/>
            <path d="m5909.86 304.62-10.28-2.55 9.63-4.42z"/>
        </g>
        <g stroke="#000" class="edge">
            <path fill="none" d="M6655.1 243.45c39.09 6.15 83.81 19.64 114.48 48.55 24.54 23.14 18.6 38.7 24 72 18.02 111.06-68.6 153.75-178 180-150.79 36.19-2635.98 32.23-2791 36-135.24 3.29-292.03 9.32-387.59 13.24"/>
            <path d="m3437.3 596.73-10.14-3.09 9.85-3.9z"/>
        </g>
        <g stroke="#000" class="edge">
            <path fill="none" d="M6643.89 248.41c92.1 12.49 241.63 34.09 249.69 43.59 21.82 25.72 120.75 126.09-6 252-33.51 33.29-1652.79 34.67-1700 36-140.44 3.96-303.8 10.01-400.01 13.73"/>
            <path d="m4787.81 597.22-10.12-3.11 9.85-3.89z"/>
        </g>
        <g stroke="#000" class="edge">
            <path fill="none" d="M6545.85 255.41c-15.18 9.33-34.4 21.13-50.94 31.28"/>
            <path d="m6497.18 289.41-10.36 2.25 6.7-8.22z"/>
        </g>
        <g stroke="#000" class="edge">
            <path fill="none" d="M6588.62 256.15c7.97 9.73 16.78 22.58 20.96 35.85 6.13 19.5-.48 98.51-5 108-20.13 42.31-33.59 54.37-77 72-93.9 38.14-1722.68 33.33-1824 36-145.52 3.83-314.08 9.64-417.88 13.38"/>
            <path d="m4285.93 524.88-10.11-3.14 9.86-3.86z"/>
        </g>
        <g stroke="#000" class="edge">
            <path fill="none" d="M6489.01 242.85c-78.18 3.56-198.21 8.92-302.43 13.15-495.83 20.1-1088.43 41.08-1325.45 49.34"/>
            <path d="m4861.4 308.84-10.12-3.15 9.88-3.85z"/>
        </g>
        <g class="node" transform="translate(4 616)">
            <ellipse cx="5464.58" cy="-90" fill="none" stroke="#000" rx="106.11" ry="18"/>
            <text x="5464.58" y="-84.95" font-family="Times,serif" font-size="14" text-anchor="middle">:library:firebase-common</text>
        </g>
        <g stroke="#000" class="edge">
            <path fill="none" d="M5461.8 472.3c.95 7.38 2.08 16.18 3.15 24.45"/>
            <path d="m5468.38 496.03-2.19 10.36-4.75-9.47z"/>
        </g>
        <g stroke="#000" class="edge">
            <path fill="none" d="M6308.47 399.59c19.64 9.61 44.58 21.82 65.65 32.14"/>
            <path d="m6375.62 428.57 7.45 7.54-10.52-1.26z"/>
        </g>
        <g stroke="#000" class="edge">
            <path fill="none" d="M6276.1 400.15c2.74 20.23 10.36 53.44 31.48 71.85 25.41 22.15 111.09 37.2 172.6 45.44"/>
            <path d="m6480.4 513.94 9.46 4.77-10.37 2.17z"/>
        </g>
        <g stroke="#000" class="edge">
            <path fill="none" d="M6250.27 400.07c-51.11 34.79-174.67 113.21-291.69 143.93-28.36 7.44-895.71 39.84-1171.01 49.97"/>
            <path d="m4788.1 597.45-10.12-3.13 9.86-3.87z"/>
        </g>
        <g stroke="#000" class="edge">
            <path fill="none" d="M1426.73 472.2c12.4 21.28 36.74 56.57 68.85 71.8 65.75 31.19 1139.12 47.81 1447.66 51.96"/>
            <path d="m2942.86 592.45 9.95 3.63-10.05 3.37z"/>
        </g>
        <g stroke="#000" class="edge">
            <path fill="none" d="M458.48 539.08c15.25 1.96 31.15 3.74 46.1 4.92 489.85 38.6 2059.14 50.26 2438.07 52.54"/>
            <path d="m2942.55 593.04 9.98 3.56-10.02 3.44z"/>
        </g>
        <g stroke="#000" class="edge">
            <path fill="none" d="M891.16 467.81c117.08 20.07 355.07 58.48 558.42 76.19 569.27 49.58 1257.93 53.54 1492.86 53.32"/>
            <path d="m2942.43 593.82 10 3.48-9.99 3.52z"/>
        </g>
        <g stroke="#000" class="edge">
            <path fill="none" d="M644.12 463.86c17.84 2.87 37.99 5.89 56.46 8.14 368.88 44.92 461.87 53.29 833 72 1100.5 55.48 1377.32 14.47 2479 36 219.56 4.29 478.26 11.12 608.35 14.67"/>
            <path d="m4620.94 591.17 9.9 3.78-10.09 3.22z"/>
        </g>
    </g>
</svg>
