<svg xmlns="http://www.w3.org/2000/svg" width="550pt" height="188pt" viewBox="0 0 550.36 188">
    <g class="graph">
        <path fill="#fff" d="M0 188V0h550.36v188z"/>
        <g class="node" transform="translate(4 184)">
            <ellipse cx="299.51" cy="-162" fill="none" stroke="#000" rx="136.31" ry="18"/>
            <text x="299.51" y="-156.95" font-family="Times,serif" font-size="14" text-anchor="middle">:app:core:diary-database-memory</text>
        </g>
        <g class="node" transform="translate(4 184)">
            <ellipse cx="101.51" cy="-90" fill="none" stroke="#000" rx="101.51" ry="18"/>
            <text x="101.51" y="-84.95" font-family="Times,serif" font-size="14" text-anchor="middle">:app:core:diary-database</text>
        </g>
        <g stroke="red" stroke-width="2" class="edge">
            <path fill="none" d="M257.34 39.32c-29.03 10.27-66.64 23.56-97.16 34.35"/>
            <path fill="red" d="m163.16 76.33-10.6.03 8.27-6.63z"/>
        </g>
        <g class="node" transform="translate(4 184)">
            <ellipse cx="299.51" cy="-90" fill="none" stroke="#000" rx="78.99" ry="18"/>
            <text x="299.51" y="-84.95" font-family="Times,serif" font-size="14" text-anchor="middle">:library:coroutines</text>
        </g>
        <g stroke="#000" class="edge">
            <path fill="none" d="M303.51 40.3v24.16"/>
            <path d="m307.01 64.38-3.5 10-3.5-10z"/>
        </g>
        <g class="node" transform="translate(4 184)">
            <ellipse cx="469.51" cy="-90" fill="none" stroke="#000" rx="72.85" ry="18"/>
            <text x="469.51" y="-84.95" font-family="Times,serif" font-size="14" text-anchor="middle">:library:datetime</text>
        </g>
        <g stroke="#000" class="edge">
            <path fill="none" d="M343.8 39.59c24.85 10.23 56.83 23.4 82.82 34.1"/>
            <path d="m427.67 70.34 7.92 7.05-10.58-.58z"/>
        </g>
        <g class="node" transform="translate(4 184)">
            <ellipse cx="101.51" cy="-18" fill="none" stroke="#000" rx="71.31" ry="18"/>
            <text x="101.51" y="-12.95" font-family="Times,serif" font-size="14" text-anchor="middle">:app:core:model</text>
        </g>
        <g stroke="red" stroke-width="2" class="edge">
            <path fill="none" d="M105.51 112.3v24.16"/>
            <path fill="red" d="m109.01 134.87-3.5 10-3.5-10z"/>
        </g>
    </g>
</svg>
