<svg xmlns="http://www.w3.org/2000/svg" width="1246pt" height="332pt" viewBox="0 0 1245.97 332">
    <g class="graph">
        <path fill="#fff" d="M0 332V0h1245.97v332z"/>
        <g class="node" transform="translate(4 328)">
            <ellipse cx="443.99" cy="-306" fill="none" stroke="#000" rx="65.68" ry="18"/>
            <text x="443.99" y="-300.95" font-family="Times,serif" font-size="14" text-anchor="middle">:app:data:fetch</text>
        </g>
        <g class="node" transform="translate(4 328)">
            <ellipse cx="78.99" cy="-18" fill="none" stroke="#000" rx="78.99" ry="18"/>
            <text x="78.99" y="-12.95" font-family="Times,serif" font-size="14" text-anchor="middle">:library:coroutines</text>
        </g>
        <g stroke="#000" class="edge">
            <path fill="none" d="M402.44 35.38C373.2 44.37 335.02 58.09 303.99 76c-86.65 50-109.66 66.57-173 144-15.26 18.65-27.96 42.9-36.45 61.37"/>
            <path d="m97.8 282.66-7.26 7.71.86-10.56z"/>
        </g>
        <g class="node" transform="translate(4 328)">
            <ellipse cx="248.99" cy="-18" fill="none" stroke="#000" rx="72.85" ry="18"/>
            <text x="248.99" y="-12.95" font-family="Times,serif" font-size="14" text-anchor="middle">:library:datetime</text>
        </g>
        <g stroke="#000" class="edge">
            <path fill="none" d="M416.25 38.02C377.19 58.01 311.23 96.86 271.99 148c-30.47 39.72-38.01 58.3-32 108 .99 8.22 2.82 16.99 4.8 25"/>
            <path d="m248.14 279.98-.81 10.56-5.95-8.76z"/>
        </g>
        <g class="node" transform="translate(4 328)">
            <ellipse cx="802.99" cy="-162" fill="none" stroke="#000" rx="101.51" ry="18"/>
            <text x="802.99" y="-156.95" font-family="Times,serif" font-size="14" text-anchor="middle">:app:core:diary-database</text>
        </g>
        <g stroke="#000" class="edge">
            <path fill="none" d="M484.39 37.4c64.39 25.47 198.51 78.52 271.91 107.55"/>
            <path d="m757.25 141.56 8.01 6.94-10.58-.43z"/>
        </g>
        <g class="node" transform="translate(4 328)">
            <ellipse cx="902.99" cy="-90" fill="none" stroke="#000" rx="95.88" ry="18"/>
            <text x="902.99" y="-84.95" font-family="Times,serif" font-size="14" text-anchor="middle">:app:core:diary-service</text>
        </g>
        <g stroke="#000" class="edge">
            <path fill="none" d="M507.67 29.91C622.64 44.57 867.94 82.9 917.99 148c13.25 17.23 8.77 42.14 1.97 61.22"/>
            <path d="m923.31 210.28-6.95 8 .44-10.59z"/>
        </g>
        <g class="node" transform="translate(4 328)">
            <ellipse cx="443.99" cy="-234" fill="none" stroke="#000" rx="78.48" ry="18"/>
            <text x="443.99" y="-228.95" font-family="Times,serif" font-size="14" text-anchor="middle">:app:domain:fetch</text>
        </g>
        <g stroke="red" stroke-width="2" class="edge">
            <path fill="none" d="M447.99 40.3v24.16"/>
            <path fill="red" d="m451.49 62.87-3.5 10-3.5-10z"/>
        </g>
        <g class="node" transform="translate(4 328)">
            <ellipse cx="740.99" cy="-18" fill="none" stroke="#000" rx="71.31" ry="18"/>
            <text x="740.99" y="-12.95" font-family="Times,serif" font-size="14" text-anchor="middle">:app:core:model</text>
        </g>
        <g stroke="#000" class="edge">
            <path fill="none" d="M799.39 184.41c-10.57 24.19-29.79 68.23-42.33 96.94"/>
            <path d="m760.27 282.74-7.2 7.76.79-10.56z"/>
        </g>
        <g stroke="#000" class="edge">
            <path fill="none" d="M869.82 255.06c-23.62 10.21-54.36 23.49-79.42 34.32"/>
            <path d="m792 292.5-10.57.75 7.79-7.18z"/>
        </g>
        <g class="node" transform="translate(4 328)">
            <ellipse cx="566.99" cy="-18" fill="none" stroke="#000" rx="85.13" ry="18"/>
            <text x="566.99" y="-12.95" font-family="Times,serif" font-size="14" text-anchor="middle">:common:exception</text>
        </g>
        <g stroke="#000" class="edge">
            <path fill="none" d="M844.58 252c-57.71 12.02-143.37 29.87-203.43 42.38"/>
            <path d="m642.23 297.73-10.5-1.38 9.08-5.47z"/>
        </g>
        <g class="node" transform="translate(4 328)">
            <ellipse cx="1115.99" cy="-18" fill="none" stroke="#000" rx="121.98" ry="18"/>
            <text x="1115.99" y="-12.95" font-family="Times,serif" font-size="14" text-anchor="middle">:app:core:account-preferences</text>
        </g>
        <g stroke="#000" class="edge">
            <path fill="none" d="M953.21 254.19c31.57 10.38 73.69 24.22 107.7 35.39"/>
            <path d="m1061.8 286.19 8.41 6.45-10.6.2z"/>
        </g>
        <g class="node" transform="translate(4 328)">
            <ellipse cx="902.99" cy="-18" fill="none" stroke="#000" rx="72.85" ry="18"/>
            <text x="902.99" y="-12.95" font-family="Times,serif" font-size="14" text-anchor="middle">:common:model</text>
        </g>
        <g stroke="#000" class="edge">
            <path fill="none" d="M906.99 256.3v24.16"/>
            <path d="m910.49 280.38-3.5 10-3.5-10z"/>
        </g>
        <g stroke="#000" class="edge">
            <path fill="none" d="M389.34 106.26c-35.42 8.32-80.65 21.73-117.35 41.74-67.51 36.8-132.71 100.49-166.03 135.72"/>
            <path d="m108.61 286.01-9.39 4.92 4.27-9.7z"/>
        </g>
        <g stroke="#000" class="edge">
            <path fill="none" d="M400.72 108.82C352.19 125.93 279.84 160.39 250.99 220c-9.06 18.72-8.04 42.34-5.04 60.54"/>
            <path d="m249.34 279.65-1.51 10.48-5.36-9.14z"/>
        </g>
        <g stroke="#000" class="edge">
            <path fill="none" d="M496.2 108.6c26.84 8.85 60.12 21.99 86.79 39.4 58.83 38.39 113.82 100.76 142.11 135.52"/>
            <path d="m727.55 280.98 3.53 9.99-8.99-5.61z"/>
        </g>
        <g stroke="#000" class="edge">
            <path fill="none" d="M502.07 107.39c21.94 7.89 45.27 20.54 58.92 40.61 26.9 39.57 22.35 98.03 16.34 132.55"/>
            <path d="m580.8 281.04-5.32 9.16-1.55-10.48z"/>
        </g>
        <g class="node" transform="translate(4 328)">
            <ellipse cx="401.99" cy="-18" fill="none" stroke="#000" rx="62.1" ry="18"/>
            <text x="401.99" y="-12.95" font-family="Times,serif" font-size="14" text-anchor="middle">:library:kotlin</text>
        </g>
        <g stroke="#000" class="edge">
            <path fill="none" d="M494.4 108.9c18.85 8.19 38.7 20.66 49.59 39.1 8.13 13.78 5.45 20.96 0 36-17.08 47.17-64.16 83.08-98.6 104.06"/>
            <path d="m447.3 290.99-10.39 2.07 6.84-8.1z"/>
        </g>
        <g class="node" transform="translate(4 328)">
            <ellipse cx="365.99" cy="-90" fill="none" stroke="#000" rx="88.71" ry="18"/>
            <text x="365.99" y="-84.95" font-family="Times,serif" font-size="14" text-anchor="middle">:app:domain:account</text>
        </g>
        <g stroke="#000" class="edge">
            <path fill="none" d="M401.57 108.9c-18.84 8.19-38.69 20.66-49.58 39.1-11 18.64-5.03 42.88 2.88 61.36"/>
            <path d="m358.03 207.84 1.1 10.54-7.44-7.55z"/>
        </g>
        <g class="node" transform="translate(4 328)">
            <ellipse cx="443.99" cy="-162" fill="none" stroke="#000" rx="86.67" ry="18"/>
            <text x="443.99" y="-156.95" font-family="Times,serif" font-size="14" text-anchor="middle">:app:domain:backup</text>
        </g>
        <g stroke="red" stroke-width="2" class="edge">
            <path fill="none" d="M447.99 112.3v24.16"/>
            <path fill="red" d="m451.49 134.87-3.5 10-3.5-10z"/>
        </g>
        <g stroke="#000" class="edge">
            <path fill="none" d="M314.65 252.5c-48.15 11.74-117.94 28.76-168.32 41.05"/>
            <path d="m147.27 296.92-10.55-1.03 8.89-5.77z"/>
        </g>
        <g stroke="#000" class="edge">
            <path fill="none" d="M342.56 255.41c-15.81 9.46-35.89 21.47-53.02 31.72"/>
            <path d="m291.52 290.02-10.38 2.14 6.79-8.14z"/>
        </g>
        <g stroke="red" stroke-width="2" class="edge">
            <path fill="none" d="M436.3 250.3c59.86 10.34 150.31 26.33 228.69 41.7 5.21 1.02 10.61 2.11 16.02 3.22"/>
            <path fill="red" d="m680.06 291.45 9.08 5.45-10.5 1.4z"/>
        </g>
        <g stroke="#000" class="edge">
            <path fill="none" d="M413.11 254.02c30.47 10.61 71.52 24.9 104.12 36.26"/>
            <path d="m518.22 286.92 8.29 6.59-10.59.02z"/>
        </g>
        <g stroke="#000" class="edge">
            <path fill="none" d="M378.89 256.3c3.97 7.72 8.73 16.99 13.16 25.59"/>
            <path d="m395.04 280.06 1.46 10.49-7.69-7.29z"/>
        </g>
        <g stroke="#000" class="edge">
            <path fill="none" d="M388.26 179.39c-39.65 9.11-92.45 22.97-137.27 40.61-47.32 18.62-98.53 47.07-131.81 66.76"/>
            <path d="m121.13 289.67-10.38 2.13 6.79-8.13z"/>
        </g>
        <g stroke="#000" class="edge">
            <path fill="none" d="M367.91 173.22c-34.01 6.7-71.38 20.14-95.92 46.78-14.82 16.09-19.17 40.81-20.04 60.12"/>
            <path d="m255.45 280.13-3.62 9.96-3.37-10.05z"/>
        </g>
        <g stroke="#000" class="edge">
            <path fill="none" d="M481.48 183.01c54.38 26 161.79 77.36 221.31 105.81"/>
            <path d="m704.09 285.57 7.52 7.47-10.54-1.16z"/>
        </g>
        <g stroke="#000" class="edge">
            <path fill="none" d="M462.83 184.13c21.33 24.63 60.83 70.23 85.74 98.99"/>
            <path d="m551.21 280.82 3.9 9.85-9.19-5.27z"/>
        </g>
        <g stroke="#000" class="edge">
            <path fill="none" d="M458.09 184.08c9.5 18.44 20.77 48.33 9.9 71.92-5.59 12.14-15.49 22.53-25.75 30.81"/>
            <path d="m444.55 289.46-10.11 3.17 5.92-8.79z"/>
        </g>
        <g stroke="red" stroke-width="2" class="edge">
            <path fill="none" d="M429.11 183.95c-9.51 8.53-21.22 19.04-31.7 28.44"/>
            <path fill="red" d="m401 213.87-9.78 4.08 5.1-9.29z"/>
        </g>
    </g>
</svg>
