<svg xmlns="http://www.w3.org/2000/svg" width="1188" height="260pt" viewBox="0 0 891.41 260">
    <g class="graph">
        <path fill="#fff" d="M0 260V0h891.41v260z"/>
        <g class="node" transform="translate(4 256)">
            <ellipse cx="467.31" cy="-234" fill="none" stroke="#000" rx="96.39" ry="18"/>
            <text x="467.31" y="-228.95" font-family="Times,serif" font-size="14" text-anchor="middle">:app:domain:credential</text>
        </g>
        <g class="node" transform="translate(4 256)">
            <ellipse cx="71.31" cy="-18" fill="none" stroke="#000" rx="71.31" ry="18"/>
            <text x="71.31" y="-12.95" font-family="Times,serif" font-size="14" text-anchor="middle">:app:core:model</text>
        </g>
        <g stroke="#000" class="edge">
            <path fill="none" d="M397.65 33.93C290.06 51.7 98.83 90.7 63.31 148c-11.34 18.3-6.95 42.76-.51 61.41"/>
            <path d="m65.97 207.89.33 10.59-6.86-8.07z"/>
        </g>
        <g class="node" transform="translate(4 256)">
            <ellipse cx="435.31" cy="-18" fill="none" stroke="#000" rx="85.13" ry="18"/>
            <text x="435.31" y="-12.95" font-family="Times,serif" font-size="14" text-anchor="middle">:common:exception</text>
        </g>
        <g stroke="#000" class="edge">
            <path fill="none" d="M383.34 29.61c-30.66 7.04-62.1 20.62-81.03 46.39-22.34 30.43 27.74 105.58 30 108 13.75 14.67 32.43 25.83 50.34 34.04"/>
            <path d="m383.88 214.75 7.79 7.18-10.57-.75z"/>
        </g>
        <g class="node" transform="translate(4 256)">
            <ellipse cx="662.31" cy="-18" fill="none" stroke="#000" rx="78.99" ry="18"/>
            <text x="662.31" y="-12.95" font-family="Times,serif" font-size="14" text-anchor="middle">:library:coroutines</text>
        </g>
        <g stroke="#000" class="edge">
            <path fill="none" d="M567.75 23.29C663.95 25.87 802.22 36.6 836.31 76c47.85 55.29-55.48 112.37-121.15 141.43"/>
            <path d="m716.93 220.47-10.57.77 7.78-7.19z"/>
        </g>
        <g class="node" transform="translate(4 256)">
            <ellipse cx="233.31" cy="-18" fill="none" stroke="#000" rx="72.85" ry="18"/>
            <text x="233.31" y="-12.95" font-family="Times,serif" font-size="14" text-anchor="middle">:library:datetime</text>
        </g>
        <g stroke="#000" class="edge">
            <path fill="none" d="M389.06 31.7C319.02 44.16 223.68 74.45 184.31 148c-7.55 14.11-6.12 21.22 0 36 4.56 11 12.63 20.91 21.12 29.1"/>
            <path d="m207.68 210.42 5.13 9.27-9.79-4.05z"/>
        </g>
        <g class="node" transform="translate(4 256)">
            <ellipse cx="821.31" cy="-18" fill="none" stroke="#000" rx="62.1" ry="18"/>
            <text x="821.31" y="-12.95" font-family="Times,serif" font-size="14" text-anchor="middle">:library:kotlin</text>
        </g>
        <g stroke="#000" class="edge">
            <path fill="none" d="M567.88 22.41C669.46 24.09 819.62 33.91 856.31 76c32.86 37.69 6.03 99.46-14.05 134.52"/>
            <path d="m845.47 211.97-8.12 6.8 2.11-10.38z"/>
        </g>
        <g class="node" transform="translate(4 256)">
            <ellipse cx="553.31" cy="-162" fill="none" stroke="#000" rx="78.48" ry="18"/>
            <text x="553.31" y="-156.95" font-family="Times,serif" font-size="14" text-anchor="middle">:app:domain:fetch</text>
        </g>
        <g stroke="red" stroke-width="2" class="edge">
            <path fill="none" d="M492.13 39.95c10.77 8.77 24.11 19.62 35.9 29.22"/>
            <path fill="red" d="m528.79 65.27 5.55 9.03-9.97-3.6z"/>
        </g>
        <g class="node" transform="translate(4 256)">
            <ellipse cx="736.31" cy="-162" fill="none" stroke="#000" rx="86.67" ry="18"/>
            <text x="736.31" y="-156.95" font-family="Times,serif" font-size="14" text-anchor="middle">:app:domain:backup</text>
        </g>
        <g stroke="#000" class="edge">
            <path fill="none" d="M526.07 37.25c43.71 11.37 105.01 27.32 150.84 39.25"/>
            <path d="m677.65 73.08 8.8 5.9-10.56.87z"/>
        </g>
        <g class="node" transform="translate(4 256)">
            <ellipse cx="382.31" cy="-162" fill="none" stroke="#000" rx="74.89" ry="18"/>
            <text x="382.31" y="-156.95" font-family="Times,serif" font-size="14" text-anchor="middle">:app:domain:fcm</text>
        </g>
        <g stroke="#000" class="edge">
            <path fill="none" d="M450.74 39.95c-10.65 8.77-23.83 19.62-35.49 29.22"/>
            <path d="m417.81 71.59-9.94 3.66 5.49-9.06z"/>
        </g>
        <g stroke="#000" class="edge">
            <path fill="none" d="M498.98 106.42c-78.35 15.34-208.13 40.81-210.67 41.58-61.33 18.65-129.17 48.74-171.44 68.69"/>
            <path d="m118.59 219.74-10.53 1.14 7.52-7.46z"/>
        </g>
        <g stroke="#000" class="edge">
            <path fill="none" d="M557.52 112.49c-.64 19.35-4.34 50.55-20.21 71.51-10.87 14.36-26.8 25.28-42.66 33.37"/>
            <path d="m496.19 220.52-10.54 1.12 7.54-7.45z"/>
        </g>
        <g stroke="#000" class="edge">
            <path fill="none" d="M596.61 109.84c17.7 8.59 37.35 21.13 49.7 38.16 12.66 17.46 17.51 41.53 19.28 60.23"/>
            <path d="m669.07 207.9-2.82 10.22-4.16-9.75z"/>
        </g>
        <g stroke="#000" class="edge">
            <path fill="none" d="M498.26 106.28C444.13 117.2 368.41 134.09 341.31 148c-31.63 16.24-61.81 43.9-81.44 64.08"/>
            <path d="m262.61 214.28-9.43 4.84 4.35-9.66z"/>
        </g>
        <g stroke="#000" class="edge">
            <path fill="none" d="M614.3 106.79c70.17 14.63 180.59 38.04 184.01 41.21 16.59 15.34 23.11 40.51 25.61 60.17"/>
            <path d="m827.4 207.77-2.53 10.29-4.44-9.62z"/>
        </g>
        <g class="node" transform="translate(4 256)">
            <ellipse cx="435.31" cy="-90" fill="none" stroke="#000" rx="88.71" ry="18"/>
            <text x="435.31" y="-84.95" font-family="Times,serif" font-size="14" text-anchor="middle">:app:domain:account</text>
        </g>
        <g stroke="red" stroke-width="2" class="edge">
            <path fill="none" d="M529.94 111.24c-15.82 9.38-35.95 21.32-53.22 31.57"/>
            <path fill="red" d="m479.93 144.97-10.39 2.1 6.82-8.12z"/>
        </g>
        <g stroke="#000" class="edge">
            <path fill="none" d="M677.14 106.71c-10.93 1.88-22.2 3.72-32.83 5.29-134.15 19.83-170.67 6.33-303 36-5.4 1.21-137.64 45.71-213.58 71.31"/>
            <path d="m128.98 222.58-10.59-.12 8.35-6.51z"/>
        </g>
        <g stroke="#000" class="edge">
            <path fill="none" d="M719.52 111.83c-25.07 19.61-69.12 51.91-111.21 72.17-32.47 15.63-70.62 28.05-102.45 36.93"/>
            <path d="m506.91 224.27-10.57-.74 8.73-6.01z"/>
        </g>
        <g stroke="#000" class="edge">
            <path fill="none" d="M739.87 112.46c-1.16 18.76-5.02 48.93-17.56 71.54-6 10.82-14.97 20.74-23.98 29"/>
            <path d="m700.78 215.51-9.86 3.88 5.28-9.18z"/>
        </g>
        <g stroke="#000" class="edge">
            <path fill="none" d="M699.48 110.33c-26.27 10.13-61.03 24.01-91.17 37.67-32.22 14.61-37.44 24.8-71 36-21.35 7.13-146.98 28.21-228.75 41.54"/>
            <path d="m309.26 228.97-10.43-1.85 9.31-5.06z"/>
        </g>
        <g stroke="#000" class="edge">
            <path fill="none" d="M787.98 109.46c18.47 8.18 37.69 20.51 48.33 38.54 10.88 18.43 6.9 42.73.89 61.28"/>
            <path d="m840.53 210.36-6.71 8.2.13-10.59z"/>
        </g>
        <g stroke="#000" class="edge">
            <path fill="none" d="M684.05 108.08c-50.12 11.66-123.57 28.74-176.92 41.15"/>
            <path d="m508.07 152.6-10.53-1.14 8.95-5.68z"/>
        </g>
        <g stroke="#000" class="edge">
            <path fill="none" d="M312.65 97.53C232.08 102 110.35 114.28 80.31 148c-14.32 16.08-14.55 40.97-11.78 60.34"/>
            <path d="m71.96 207.61-1.68 10.46-5.21-9.22z"/>
        </g>
        <g stroke="#000" class="edge">
            <path fill="none" d="M367.42 111.77c-18.09 18.17-40.65 47.84-26.11 72.23 8.94 14.99 23.75 26 39.19 33.97"/>
            <path d="m381.76 214.7 7.55 7.43-10.54-1.1z"/>
        </g>
        <g stroke="#000" class="edge">
            <path fill="none" d="M434.24 108.24c30.37 9.25 70.02 22.94 103.07 39.76 36.34 18.49 74.34 45.83 99.6 65.32"/>
            <path d="m639.02 210.53 5.73 8.91-10.04-3.39z"/>
        </g>
        <g stroke="#000" class="edge">
            <path fill="none" d="M323.39 104.04c-49.73 8.58-113.32 23.26-129.08 43.96-14.89 19.57.36 45.12 16.68 63.82"/>
            <path d="m213.44 209.32 4.24 9.71-9.37-4.95z"/>
        </g>
        <g stroke="#000" class="edge">
            <path fill="none" d="M436.89 107.61c39.34 10.1 95.17 25.06 143.42 40.39 69.97 22.23 149.65 52.02 198.63 70.87"/>
            <path d="m780.03 215.54 8.07 6.87-10.59-.34z"/>
        </g>
        <g stroke="#000" class="edge">
            <path fill="none" d="M399.14 111.95c6.1 8.04 13.52 17.85 20.32 26.82"/>
            <path d="m422.07 136.43 3.25 10.09-8.83-5.86z"/>
        </g>
        <g stroke="red" stroke-width="2" class="edge">
            <path fill="none" d="M374.37 178.65c-57.62 10.44-144.05 26.38-219.06 41.35-5.21 1.04-10.6 2.14-16.02 3.26"/>
            <path fill="red" d="m141.67 226.34-10.5-1.39 9.07-5.47z"/>
        </g>
        <g stroke="#000" class="edge">
            <path fill="none" d="M439.31 184.3v24.16"/>
            <path d="m442.81 208.38-3.5 10-3.5-10z"/>
        </g>
        <g stroke="#000" class="edge">
            <path fill="none" d="M486.62 181.59c35.84 11.05 85.2 26.27 123.12 37.97"/>
            <path d="m610.64 216.17 8.53 6.29-10.59.4z"/>
        </g>
        <g stroke="#000" class="edge">
            <path fill="none" d="M395.98 182.02c-31.25 10.82-73.57 25.49-106.64 36.95"/>
            <path d="m290.53 222.26-10.59-.03 8.3-6.58z"/>
        </g>
        <g stroke="#000" class="edge">
            <path fill="none" d="M509.32 177.37c64 9.82 161.17 25.56 244.99 42.63 4.61.94 9.38 1.96 14.16 3.03"/>
            <path d="m769.14 219.59 8.97 5.64-10.53 1.18z"/>
        </g>
    </g>
</svg>
