<svg xmlns="http://www.w3.org/2000/svg" width="1964" height="332pt" viewBox="0 0 1473.21 332">
    <g class="graph">
        <path fill="#fff" d="M0 332V0h1473.21v332z"/>
        <g class="node" transform="translate(4 328)">
            <ellipse cx="502.23" cy="-306" fill="none" stroke="#000" rx="81.55" ry="18"/>
            <text x="502.23" y="-300.95" font-family="Times,serif" font-size="14" text-anchor="middle">:app:feature:memo</text>
        </g>
        <g class="node" transform="translate(4 328)">
            <ellipse cx="317.23" cy="-234" fill="none" stroke="#000" rx="81.04" ry="18"/>
            <text x="317.23" y="-228.95" font-family="Times,serif" font-size="14" text-anchor="middle">:app:core:compose</text>
        </g>
        <g stroke="#000" class="edge">
            <path fill="none" d="M466.54 38.02c-27.71 10.48-64.92 24.56-94.75 35.85"/>
            <path d="m373.17 77.09-10.59.26 8.12-6.81z"/>
        </g>
        <g class="node" transform="translate(4 328)">
            <ellipse cx="335.23" cy="-162" fill="none" stroke="#000" rx="101" ry="18"/>
            <text x="335.23" y="-156.95" font-family="Times,serif" font-size="14" text-anchor="middle">:app:core:design-system</text>
        </g>
        <g stroke="#000" class="edge">
            <path fill="none" d="M489.28 40.04C470.7 58.44 439.72 88.3 411.23 112c-12.27 10.2-26.3 20.76-38.69 29.74"/>
            <path d="m374.83 144.4-10.16 2.98 6.08-8.67z"/>
        </g>
        <g class="node" transform="translate(4 328)">
            <ellipse cx="450.23" cy="-90" fill="none" stroke="#000" rx="86.67" ry="18"/>
            <text x="450.23" y="-84.95" font-family="Times,serif" font-size="14" text-anchor="middle">:app:core:navigation</text>
        </g>
        <g stroke="#000" class="edge">
            <path fill="none" d="M501.57 40.16C498.79 50.52 495.23 64 492.23 76c-11.61 46.4-24.2 100.57-31.58 132.76"/>
            <path d="m464.16 209.13-5.64 8.97-1.19-10.53z"/>
        </g>
        <g class="node" transform="translate(4 328)">
            <ellipse cx="206.23" cy="-90" fill="none" stroke="#000" rx="59.54" ry="18"/>
            <text x="206.23" y="-84.95" font-family="Times,serif" font-size="14" text-anchor="middle">:library:color</text>
        </g>
        <g stroke="#000" class="edge">
            <path fill="none" d="M428.77 27.97c-71.7 6.3-171.1 19.92-197.54 48.03-33.5 35.59-31.26 96.83-26.32 132.65"/>
            <path d="m208.33 207.83-1.92 10.42-5-9.34z"/>
        </g>
        <g class="node" transform="translate(4 328)">
            <ellipse cx="832.23" cy="-18" fill="none" stroke="#000" rx="62.1" ry="18"/>
            <text x="832.23" y="-12.95" font-family="Times,serif" font-size="14" text-anchor="middle">:library:kotlin</text>
        </g>
        <g stroke="#000" class="edge">
            <path fill="none" d="M537.65 38.91C578.36 60.38 650.37 101.37 703.23 148c47.26 41.69 91.66 101 115.3 134.78"/>
            <path d="m821.23 280.53 2.81 10.22-8.57-6.23z"/>
        </g>
        <g class="node" transform="translate(4 328)">
            <ellipse cx="610.23" cy="-162" fill="none" stroke="#000" rx="79.5" ry="18"/>
            <text x="610.23" y="-156.95" font-family="Times,serif" font-size="14" text-anchor="middle">:library:navigation</text>
        </g>
        <g stroke="#000" class="edge">
            <path fill="none" d="M519.25 40.13c18.65 24.52 53.12 69.84 75 98.61"/>
            <path d="m596.97 136.53 3.27 10.08-8.84-5.84z"/>
        </g>
        <g class="node" transform="translate(4 328)">
            <ellipse cx="1386.23" cy="-18" fill="none" stroke="#000" rx="78.99" ry="18"/>
            <text x="1386.23" y="-12.95" font-family="Times,serif" font-size="14" text-anchor="middle">:library:coroutines</text>
        </g>
        <g stroke="#000" class="edge">
            <path fill="none" d="M587.72 23.69c166.99 2.24 542.47 11.77 663.51 52.31 88.85 29.76 129.07 53.67 154 144 5.53 20.07 1.28 43.29-4.09 60.98"/>
            <path d="m1404.52 281.91-6.5 8.37-.14-10.6z"/>
        </g>
        <g class="node" transform="translate(4 328)">
            <ellipse cx="623.23" cy="-18" fill="none" stroke="#000" rx="72.85" ry="18"/>
            <text x="623.23" y="-12.95" font-family="Times,serif" font-size="14" text-anchor="middle">:library:datetime</text>
        </g>
        <g stroke="#000" class="edge">
            <path fill="none" d="M505.18 40.25c-1.18 30.36-.72 94.77 20.05 143.75 4.82 11.37 51.43 66.43 79.95 99.57"/>
            <path d="m607.82 281.27 3.88 9.86-9.18-5.29z"/>
        </g>
        <g class="node" transform="translate(4 328)">
            <ellipse cx="89.23" cy="-162" fill="none" stroke="#000" rx="89.23" ry="18"/>
            <text x="89.23" y="-156.95" font-family="Times,serif" font-size="14" text-anchor="middle">:library:shimmer-m3</text>
        </g>
        <g stroke="#000" class="edge">
            <path fill="none" d="M425.29 24.99C360.56 29.31 268.93 41.68 196.23 76c-31.98 15.09-61.77 42.95-81 63.49"/>
            <path d="m118.01 141.64-9.33 5.03 4.16-9.75z"/>
        </g>
        <g class="node" transform="translate(4 328)">
            <ellipse cx="889.23" cy="-234" fill="none" stroke="#000" rx="84.11" ry="18"/>
            <text x="889.23" y="-228.95" font-family="Times,serif" font-size="14" text-anchor="middle">:app:domain:memo</text>
        </g>
        <g stroke="red" stroke-width="2" class="edge">
            <path fill="none" d="M567.97 34.17c68.41 12.37 178.65 32.31 251.52 45.49"/>
            <path fill="red" d="m818.22 75.88 9.21 5.22-10.46 1.66z"/>
        </g>
        <g class="node" transform="translate(4 328)">
            <ellipse cx="1167.23" cy="-234" fill="none" stroke="#000" rx="71.31" ry="18"/>
            <text x="1167.23" y="-228.95" font-family="Times,serif" font-size="14" text-anchor="middle">:app:domain:tag</text>
        </g>
        <g stroke="#000" class="edge">
            <path fill="none" d="M578.66 30.62c126.62 13.33 387.02 40.74 516.29 54.35"/>
            <path d="m1095.21 81.48 9.58 4.53-10.32 2.43z"/>
        </g>
        <g stroke="#000" class="edge">
            <path fill="none" d="M325.67 112.3c1.9 7.38 4.16 16.18 6.29 24.45"/>
            <path d="m335.35 135.87-.9 10.56-5.88-8.81z"/>
        </g>
        <g stroke="#000" class="edge">
            <path fill="none" d="m308.65 183.59-60.32 32.73"/>
            <path d="M250.16 219.31 239.7 221l7.12-7.84z"/>
        </g>
        <g stroke="#000" class="edge">
            <path fill="none" d="M337.72 184.36c-.71 20.12 1.48 52.91 20.51 71.64 26.26 25.86 119.21 39.83 188.53 46.83"/>
            <path d="m546.99 299.33 9.61 4.46-10.29 2.51z"/>
        </g>
        <g stroke="#000" class="edge">
            <path fill="none" d="M492.62 254.54c25.75 10.41 59.84 24.21 87.26 35.3"/>
            <path d="m581.06 286.54 7.96 7-10.59-.51z"/>
        </g>
        <g stroke="#000" class="edge">
            <path fill="none" d="M615.82 184.41c2.19 23.98 6.17 67.45 8.8 96.17"/>
            <path d="m628.09 280.1-2.57 10.28-4.4-9.64z"/>
        </g>
        <g stroke="#000" class="edge">
            <path fill="none" d="M120.95 183.59c16.05 9.6 36.4 21.78 53.63 32.08"/>
            <path d="m176.22 212.57 6.78 8.14-10.38-2.13z"/>
        </g>
        <g stroke="#000" class="edge">
            <path fill="none" d="M879.55 111.89c-17.5 22.87-46.82 65.72-57.32 108.11-4.98 20.08-1.08 43.17 3.86 60.79"/>
            <path d="m829.42 279.73-.38 10.59-6.3-8.52z"/>
        </g>
        <g stroke="#000" class="edge">
            <path fill="none" d="M974.93 98.64c61.55 5.29 146.77 18.17 215.3 49.36 73.23 33.34 142.64 99.72 177.19 135.96"/>
            <path d="m1369.71 281.28 4.3 9.68-9.4-4.88z"/>
        </g>
        <g stroke="#000" class="edge">
            <path fill="none" d="M850.4 109.91C801.39 128.83 721.32 165.7 670.23 220c-16.34 17.37-27.61 42.1-34.5 61.09"/>
            <path d="m639.11 282.01-6.54 8.33-.09-10.59z"/>
        </g>
        <g class="node" transform="translate(4 328)">
            <ellipse cx="1218.23" cy="-18" fill="none" stroke="#000" rx="71.31" ry="18"/>
            <text x="1218.23" y="-12.95" font-family="Times,serif" font-size="14" text-anchor="middle">:app:core:model</text>
        </g>
        <g stroke="#000" class="edge">
            <path fill="none" d="M968.7 102.22c68.52 7.91 163.21 22.64 192.53 45.78 40.89 32.28 54.38 95.23 58.82 132.13"/>
            <path d="m1223.53 279.75-2.45 10.31-4.52-9.59z"/>
        </g>
        <g class="node" transform="translate(4 328)">
            <ellipse cx="1021.23" cy="-18" fill="none" stroke="#000" rx="85.13" ry="18"/>
            <text x="1021.23" y="-12.95" font-family="Times,serif" font-size="14" text-anchor="middle">:common:exception</text>
        </g>
        <g stroke="#000" class="edge">
            <path fill="none" d="M897.43 112.39c8.16 31.14 28.42 97.49 62.8 143.61 8.27 11.11 19.38 21.28 30.06 29.67"/>
            <path d="m992.38 282.87 5.9 8.8-10.1-3.2z"/>
        </g>
        <g class="node" transform="translate(4 328)">
            <ellipse cx="1063.23" cy="-90" fill="none" stroke="#000" rx="88.71" ry="18"/>
            <text x="1063.23" y="-84.95" font-family="Times,serif" font-size="14" text-anchor="middle">:app:domain:account</text>
        </g>
        <g stroke="#000" class="edge">
            <path fill="none" d="M904.83 112.06c13.71 19.23 38.01 50.61 64.4 71.94 15.44 12.49 34.26 23.48 51.27 32.18"/>
            <path d="m1022.04 213.04 7.41 7.57-10.51-1.3z"/>
        </g>
        <g class="node" transform="translate(4 328)">
            <ellipse cx="1061.23" cy="-162" fill="none" stroke="#000" rx="86.67" ry="18"/>
            <text x="1061.23" y="-156.95" font-family="Times,serif" font-size="14" text-anchor="middle">:app:domain:backup</text>
        </g>
        <g stroke="red" stroke-width="2" class="edge">
            <path fill="none" d="M930.97 110.36c25.14 10.23 58.42 23.78 85.56 34.82"/>
            <path fill="red" d="m1016.23 141.28 7.94 7.01-10.58-.53z"/>
        </g>
        <g stroke="#000" class="edge">
            <path fill="none" d="M1106.99 102.2c-41.66 6.92-95.79 20.27-137.76 45.8-54.84 33.36-97.43 97.57-118.5 134.01"/>
            <path d="m853.84 283.63-7.96 6.99 1.86-10.43z"/>
        </g>
        <g stroke="#000" class="edge">
            <path fill="none" d="M1225.79 105.86c31.56 8.08 70.93 21.38 101.44 42.14 34.66 23.6 46.12 32.79 61 72 7.26 19.14 7.54 42.29 6.12 60.19"/>
            <path d="m1397.84 280.53-4.52 9.59-2.45-10.31z"/>
        </g>
        <g stroke="#000" class="edge">
            <path fill="none" d="M1108.68 103.07C1057.23 110.93 983 125.1 921.23 148c-99.97 37.05-207.42 103.52-260.45 138.33"/>
            <path d="m662.76 289.22-10.27 2.6 6.41-8.44z"/>
        </g>
        <g stroke="#000" class="edge">
            <path fill="none" d="M1233.61 103.14c27.68 7.06 57.75 20.25 74.62 44.86 31.51 45.98-20.89 104.78-56.76 137.08"/>
            <path d="m1254.18 287.36-9.83 3.96 5.22-9.22z"/>
        </g>
        <g stroke="#000" class="edge">
            <path fill="none" d="M1176.81 112.29c9.3 32.48 23.67 103.01-11.58 143.71-16.38 18.91-40.24 31.09-63.63 38.93"/>
            <path d="m1102.94 298.18-10.58-.39 8.52-6.3z"/>
        </g>
        <g stroke="#000" class="edge">
            <path fill="none" d="M1173.67 112.28c1.78 19.16 1.8 50.2-12.44 71.72-9.41 14.22-24.01 25.02-38.92 33.05"/>
            <path d="m1123.87 220.18-10.51 1.31 7.4-7.58z"/>
        </g>
        <g stroke="#000" class="edge">
            <path fill="none" d="m1146.64 111.24-47.04 31.06"/>
            <path d="m1101.95 144.94-10.27 2.59 6.41-8.43z"/>
        </g>
        <g stroke="#000" class="edge">
            <path fill="none" d="M1019.36 253.5c-38.09 11.55-91.33 27.68-130.59 39.58"/>
            <path d="m889.87 296.4-10.59-.45 8.56-6.25z"/>
        </g>
        <g stroke="#000" class="edge">
            <path fill="none" d="M1126.09 251.76c55.73 12.07 139.3 30.19 197.46 42.79"/>
            <path d="m1323.95 291.06 9.03 5.53-10.51 1.31z"/>
        </g>
        <g stroke="#000" class="edge">
            <path fill="none" d="M998.96 249.86c-81.61 12.98-217.54 34.61-300.46 47.8"/>
            <path d="m699.09 301.11-10.43-1.88 9.33-5.03z"/>
        </g>
        <g stroke="red" stroke-width="2" class="edge">
            <path fill="none" d="M1102.4 254.88c22.48 10.16 51.83 23.41 75.85 34.26"/>
            <path fill="red" d="m1178.09 285.23 7.67 7.3-10.55-.92z"/>
        </g>
        <g stroke="#000" class="edge">
            <path fill="none" d="M1056.84 256.3c-4.68 7.8-10.31 17.19-15.52 25.87"/>
            <path d="m1044.41 283.82-8.14 6.78 2.14-10.38z"/>
        </g>
        <g stroke="#000" class="edge">
            <path fill="none" d="M1030.45 182.88c-20.8 9.91-47.52 23.36-70.22 37.12-33.76 20.46-70.22 47.25-94.81 66.07"/>
            <path d="m867.87 288.6-10.06 3.34 5.78-8.88z"/>
        </g>
        <g stroke="#000" class="edge">
            <path fill="none" d="M1104.05 182.52c25.69 10.38 60.06 24.46 90.18 37.48 52.63 22.75 112.58 50.2 152.16 68.55"/>
            <path d="m1347.78 285.33 7.6 7.38-10.55-1.03z"/>
        </g>
        <g stroke="#000" class="edge">
            <path fill="none" d="M1020 181.66c-81.33 26.37-251.89 81.66-339.03 109.92"/>
            <path d="m682.29 294.83-10.59-.25 8.43-6.41z"/>
        </g>
        <g stroke="#000" class="edge">
            <path fill="none" d="M1104.73 182.23c19.71 8.94 43.01 21.66 60.5 37.77 18.93 17.43 34.22 42.48 44.18 61.56"/>
            <path d="m1212.48 279.88 1.36 10.5-7.61-7.37z"/>
        </g>
        <g stroke="#000" class="edge">
            <path fill="none" d="M1017.55 181.46c-18.46 8.18-37.68 20.51-48.32 38.54-8.14 13.78-6.33 21.3 0 36 4.81 11.18 13.27 21.11 22.18 29.26"/>
            <path d="m993.45 282.4 5.38 9.13-9.9-3.78z"/>
        </g>
        <g stroke="red" stroke-width="2" class="edge">
            <path fill="none" d="M1065.72 184.3c.21 7.29.46 15.97.69 24.16"/>
            <path fill="red" d="m1069.86 206.77-3.21 10.1-3.78-9.9z"/>
        </g>
    </g>
</svg>
