<svg xmlns="http://www.w3.org/2000/svg" width="7295pt" height="620pt" viewBox="0 0 7295.48 620">
    <g class="graph">
        <path fill="#fff" d="M0 620V0h7295.48v620z"/>
        <g class="node" transform="translate(4 616)">
            <ellipse cx="330.48" cy="-594" fill="none" stroke="#000" rx="74.89" ry="18"/>
            <text x="330.48" y="-588.95" font-family="Times,serif" font-size="14" text-anchor="middle">:app:platform:ios</text>
        </g>
        <g class="node" transform="translate(4 616)">
            <ellipse cx="3528.48" cy="-522" fill="none" stroke="#000" rx="97.41" ry="18"/>
            <text x="3528.48" y="-516.95" font-family="Times,serif" font-size="14" text-anchor="middle">:app:platform:common</text>
        </g>
        <g stroke="red" stroke-width="2" class="edge">
            <path fill="none" d="M408.82 24.63c422.08 9.24 2515.79 55.06 3016.13 66.02"/>
            <path fill="red" d="m3423.17 87.11 9.92 3.71-10.08 3.28z"/>
        </g>
        <g class="node" transform="translate(4 616)">
            <ellipse cx="387.48" cy="-450" fill="none" stroke="#000" rx="86.15" ry="18"/>
            <text x="387.48" y="-444.95" font-family="Times,serif" font-size="14" text-anchor="middle">:app:core:coroutines</text>
        </g>
        <g stroke="#000" class="edge">
            <path fill="none" d="M341.47 40.41c9.71 24.19 27.38 68.23 38.91 96.94"/>
            <path d="m383.57 135.9.47 10.58-6.97-7.97z"/>
        </g>
        <g class="node" transform="translate(4 616)">
            <ellipse cx="2285.48" cy="-162" fill="none" stroke="#000" rx="95.88" ry="18"/>
            <text x="2285.48" y="-156.95" font-family="Times,serif" font-size="14" text-anchor="middle">:app:core:diary-service</text>
        </g>
        <g stroke="#000" class="edge">
            <path fill="none" d="M322 39.94C299.9 72.15 259.55 142.66 296.48 184c59.33 66.42 1505.15 165.31 1593 180 118.78 19.87 255.38 52.38 334.29 72.12"/>
            <path d="m2224.2 432.62 8.85 5.83-10.55.96z"/>
        </g>
        <g class="node" transform="translate(4 616)">
            <ellipse cx="1527.48" cy="-90" fill="none" stroke="#000" rx="104.58" ry="18"/>
            <text x="1527.48" y="-84.95" font-family="Times,serif" font-size="14" text-anchor="middle">:app:core:holiday-service</text>
        </g>
        <g stroke="#000" class="edge">
            <path fill="none" d="M311.95 39.57c-10.91 9.38-23.02 22.09-29.47 36.43-19.71 43.82-29.6 66.72-5 108 103.21 173.24 208.06 151.15 399 216 95.89 32.57 134.18-8.82 225 36 20.86 10.3 16.79 26.43 38 36 42.71 19.27 322.84 37.88 481.98 47.06"/>
            <path d="m1421.41 515.55 9.78 4.07-10.18 2.92z"/>
        </g>
        <g stroke="#000" class="edge">
            <path fill="none" d="M3434.76 94.72c-453.05-1.01-2352.14-1.8-2943.28 53.28-8.76.82-17.9 1.96-26.95 3.27"/>
            <path d="m465.07 154.73-10.41-1.94 9.35-4.98z"/>
        </g>
        <g stroke="#000" class="edge">
            <path fill="none" d="M3435.41 96.11c-289.5 4.59-1126.93 27.64-1126.93 140.89v74c0 39.61-7.36 84.89-12.91 113.46"/>
            <path d="m2299.02 425.02-5.4 9.11-1.46-10.5z"/>
        </g>
        <g stroke="#000" class="edge">
            <path fill="none" d="M3435.14 95.09c-278.27.81-1073.56 7.19-1329.66 52.91-125.22 22.36-272-38.2-272 89v74c0 46.97-17.08 64.25-57 89-62.51 38.76-279.91-18.76-329 36-10.68 11.91-7.73 21.99 0 36 7.3 13.24 19.44 23.62 32.27 31.56"/>
            <path d="m1481.33 500.43 6.97 7.98-10.43-1.89z"/>
        </g>
        <g class="node" transform="translate(4 616)">
            <ellipse cx="6088.48" cy="-306" fill="none" stroke="#000" rx="81.04" ry="18"/>
            <text x="6088.48" y="-300.95" font-family="Times,serif" font-size="14" text-anchor="middle">:app:core:compose</text>
        </g>
        <g stroke="#000" class="edge">
            <path fill="none" d="M3629.76 95.73c352.67 2.93 1563.49 15.51 1948.72 52.27 194.64 18.58 262.55-22 434 72 26.77 14.68 49.17 41.83 63.39 62.3"/>
            <path d="m6078.68 280.21 2.66 10.26-8.47-6.36z"/>
        </g>
        <g class="node" transform="translate(4 616)">
            <ellipse cx="6068.48" cy="-234" fill="none" stroke="#000" rx="101" ry="18"/>
            <text x="6068.48" y="-228.95" font-family="Times,serif" font-size="14" text-anchor="middle">:app:core:design-system</text>
        </g>
        <g stroke="#000" class="edge">
            <path fill="none" d="M3629.75 95.99c402.47 4.26 1926.31 22.25 2139.73 52.01 192.53 26.85 312.98-22.69 413 144 8.23 13.72 8.51 22.45 0 36-9.72 15.46-25.34 26.52-41.81 34.38"/>
            <path d="m6142.31 365.49-10.56.78 7.77-7.2z"/>
        </g>
        <g class="node" transform="translate(4 616)">
            <ellipse cx="5344.48" cy="-306" fill="none" stroke="#000" rx="86.67" ry="18"/>
            <text x="5344.48" y="-300.95" font-family="Times,serif" font-size="14" text-anchor="middle">:app:core:navigation</text>
        </g>
        <g stroke="#000" class="edge">
            <path fill="none" d="M3629.83 95.79c281.76 2.74 1094.63 13.82 1357.65 52.21 126.29 18.43 168.32 6.73 278 72 26.52 15.79 49.8 42.54 64.9 62.6"/>
            <path d="m5333.16 280.47 3.07 10.14-8.72-6.01z"/>
        </g>
        <g class="node" transform="translate(4 616)">
            <ellipse cx="6371.48" cy="-162" fill="none" stroke="#000" rx="59.54" ry="18"/>
            <text x="6371.48" y="-156.95" font-family="Times,serif" font-size="14" text-anchor="middle">:library:color</text>
        </g>
        <g stroke="#000" class="edge">
            <path fill="none" d="M3630.19 95.14c454.14.91 2361.61 7.39 2956.29 52.86 236.58 18.09 372.94-106.74 529 72 188.74 216.17-449.28 233.91-668.61 233.78"/>
            <path d="m6447.02 457.28-10-3.52 10.01-3.48z"/>
        </g>
        <g class="node" transform="translate(4 616)">
            <ellipse cx="5429.48" cy="-18" fill="none" stroke="#000" rx="62.1" ry="18"/>
            <text x="5429.48" y="-12.95" font-family="Times,serif" font-size="14" text-anchor="middle">:library:kotlin</text>
        </g>
        <g stroke="#000" class="edge">
            <path fill="none" d="M3629.77 95.5c512.75 2.79 2890.31 17.54 3216.71 52.5 200.54 21.48 445-112.69 445 89v218c0 64.98-54.79 67.18-116 89-158.54 56.51-1357.42 54.83-1668.47 53.42"/>
            <path d="m5507.39 600.92-9.98-3.55 10.01-3.45z"/>
        </g>
        <g class="node" transform="translate(4 616)">
            <ellipse cx="5643.48" cy="-306" fill="none" stroke="#000" rx="79.5" ry="18"/>
            <text x="5643.48" y="-300.95" font-family="Times,serif" font-size="14" text-anchor="middle">:library:navigation</text>
        </g>
        <g stroke="#000" class="edge">
            <path fill="none" d="M3630.18 95.06c297.24.68 1187.67 6.63 1473.3 52.94 187.27 30.36 400.71 106.19 494.92 141.87"/>
            <path d="m5599.5 286.54 8.1 6.83-10.59-.29z"/>
        </g>
        <g class="node" transform="translate(4 616)">
            <ellipse cx="3139.48" cy="-18" fill="none" stroke="#000" rx="78.99" ry="18"/>
            <text x="3139.48" y="-12.95" font-family="Times,serif" font-size="14" text-anchor="middle">:library:coroutines</text>
        </g>
        <g stroke="#000" class="edge">
            <path fill="none" d="M3435.15 95.41C2937.34 97.66 693.66 109.9 551.48 148c-31.9 8.55-36 20.21-65 36-208.52 113.52-348.99 48.34-471 252-26.31 43.91-3.9 81.66 40 108 65.95 39.57 2495.42 50.79 2997.7 52.69"/>
            <path d="m3052.83 593.18 9.99 3.54-10.02 3.46z"/>
        </g>
        <g class="node" transform="translate(4 616)">
            <ellipse cx="4549.48" cy="-18" fill="none" stroke="#000" rx="72.85" ry="18"/>
            <text x="4549.48" y="-12.95" font-family="Times,serif" font-size="14" text-anchor="middle">:library:datetime</text>
        </g>
        <g stroke="#000" class="edge">
            <path fill="none" d="M3628.8 96.99c244.48 5.44 876.12 22.15 966.68 51.01 56.73 18.08 65.86 35.61 113 72 146.81 113.34 385.62 184.85 263 324-21.86 24.8-221.19 41-336.52 48.38"/>
            <path d="m4635.44 595.86-10.2-2.87 9.76-4.12z"/>
        </g>
        <g class="node" transform="translate(4 616)">
            <ellipse cx="6352.48" cy="-306" fill="none" stroke="#000" rx="89.23" ry="18"/>
            <text x="6352.48" y="-300.95" font-family="Times,serif" font-size="14" text-anchor="middle">:library:shimmer-m3</text>
        </g>
        <g stroke="#000" class="edge">
            <path fill="none" d="M3629.82 95.64c479.03 3.33 2565.28 19.67 2623.66 52.36 51.29 28.73 80.92 94.81 94.3 132.78"/>
            <path d="m6351.06 279.56-.12 10.59-6.51-8.36z"/>
        </g>
        <g class="node" transform="translate(4 616)">
            <ellipse cx="3177.48" cy="-378" fill="none" stroke="#000" rx="71.31" ry="18"/>
            <text x="3177.48" y="-372.95" font-family="Times,serif" font-size="14" text-anchor="middle">:app:data:memo</text>
        </g>
        <g stroke="#000" class="edge">
            <path fill="none" d="M3455.14 105.31c-45.08 7.88-102.21 21.16-149.66 42.69-36.59 16.6-73.34 44.76-97.22 64.96"/>
            <path d="m3210.77 215.41-9.86 3.88 5.3-9.18z"/>
        </g>
        <g class="node" transform="translate(4 616)">
            <ellipse cx="3478.48" cy="-306" fill="none" stroke="#000" rx="58.52" ry="18"/>
            <text x="3478.48" y="-300.95" font-family="Times,serif" font-size="14" text-anchor="middle">:app:data:tag</text>
        </g>
        <g stroke="#000" class="edge">
            <path fill="none" d="M3518.58 112.06c-7.27 9.89-15.58 22.93-20.1 35.94-15.39 44.23-17.52 99.12-17.14 132.04"/>
            <path d="m3484.84 279.93-3.28 10.07-3.72-9.92z"/>
        </g>
        <g class="node" transform="translate(4 616)">
            <ellipse cx="812.48" cy="-162" fill="none" stroke="#000" rx="75.92" ry="18"/>
            <text x="812.48" y="-156.95" font-family="Times,serif" font-size="14" text-anchor="middle">:app:data:account</text>
        </g>
        <g stroke="#000" class="edge">
            <path fill="none" d="M3434.72 94.54C2927.57 92.8 619.48 92.78 619.48 237v74c0 46.97 20.52 59.41 57 89 21.53 17.47 49.44 29.59 74.67 37.77"/>
            <path d="m752.16 434.43 8.53 6.28-10.59.41z"/>
        </g>
        <g class="node" transform="translate(4 616)">
            <ellipse cx="2138.48" cy="-378" fill="none" stroke="#000" rx="83.6" ry="18"/>
            <text x="2138.48" y="-372.95" font-family="Times,serif" font-size="14" text-anchor="middle">:app:data:credential</text>
        </g>
        <g stroke="#000" class="edge">
            <path fill="none" d="M3435.48 96.46c-272.63 4.49-1032.92 19.73-1141 51.54-46.33 13.63-93.34 44.31-122.56 65.82"/>
            <path d="m2174.39 216.34-10.1 3.2 5.9-8.8z"/>
        </g>
        <g class="node" transform="translate(4 616)">
            <ellipse cx="1527.48" cy="-162" fill="none" stroke="#000" rx="74.89" ry="18"/>
            <text x="1527.48" y="-156.95" font-family="Times,serif" font-size="14" text-anchor="middle">:app:data:holiday</text>
        </g>
        <g stroke="#000" class="edge">
            <path fill="none" d="M3435.01 94.33c-263.68-1.09-986.79.96-1218.53 53.67-78.82 17.93-98.85 28.56-167 72-101.41 64.63-93.57 128.02-202 180-21.37 10.24-154.22 30.32-240.73 42.61"/>
            <path d="m1607.28 446.07-10.39-2.06 9.41-4.87z"/>
        </g>
        <g class="node" transform="translate(4 616)">
            <ellipse cx="2511.48" cy="-234" fill="none" stroke="#000" rx="73.87" ry="18"/>
            <text x="2511.48" y="-228.95" font-family="Times,serif" font-size="14" text-anchor="middle">:app:data:backup</text>
        </g>
        <g stroke="#000" class="edge">
            <path fill="none" d="M3437.08 98.03c-148.74 5.6-428.71 19.83-523.6 49.97-150.62 47.83-305.56 160.41-368.64 209.46"/>
            <path d="m2547.09 360.15-10.03 3.41 5.71-8.92z"/>
        </g>
        <g class="node" transform="translate(4 616)">
            <ellipse cx="2413.48" cy="-306" fill="none" stroke="#000" rx="65.68" ry="18"/>
            <text x="2413.48" y="-300.95" font-family="Times,serif" font-size="14" text-anchor="middle">:app:data:fetch</text>
        </g>
        <g stroke="#000" class="edge">
            <path fill="none" d="M3434.85 94.51c-197.11.04-635.89 5.71-777.37 53.49-87.25 29.46-172.75 99.43-214.17 136.68"/>
            <path d="m2445.79 287.16-9.75 4.15 5.04-9.33z"/>
        </g>
        <g class="node" transform="translate(4 616)">
            <ellipse cx="3049.48" cy="-234" fill="none" stroke="#000" rx="62.1" ry="18"/>
            <text x="3049.48" y="-228.95" font-family="Times,serif" font-size="14" text-anchor="middle">:app:data:fcm</text>
        </g>
        <g stroke="#000" class="edge">
            <path fill="none" d="M3449.91 103.86c-58.44 7.79-138.09 21.51-205.43 44.14-67.45 22.67-97.32 17.44-143 72-32.08 38.31-42.72 97.44-46.25 132.37"/>
            <path d="m3058.73 352.48-4.35 9.66-2.62-10.27z"/>
        </g>
        <g class="node" transform="translate(4 616)">
            <ellipse cx="3581.48" cy="-450" fill="none" stroke="#000" rx="78.48" ry="18"/>
            <text x="3581.48" y="-444.95" font-family="Times,serif" font-size="14" text-anchor="middle">:app:data:calendar</text>
        </g>
        <g stroke="red" stroke-width="2" class="edge">
            <path fill="none" d="M3545.58 112.3c6.03 7.97 13.32 17.6 20.01 26.44"/>
            <path fill="red" d="m3567.45 135.4 3.25 10.08-8.83-5.86z"/>
        </g>
        <g class="node" transform="translate(4 616)">
            <ellipse cx="2861.48" cy="-234" fill="none" stroke="#000" rx="70.29" ry="18"/>
            <text x="2861.48" y="-228.95" font-family="Times,serif" font-size="14" text-anchor="middle">:app:data:buddy</text>
        </g>
        <g stroke="#000" class="edge">
            <path fill="none" d="M3437.07 98.12c-155.46 5.9-449.94 20.8-487.59 49.88-64.61 49.9-79.59 153.93-83.02 204.36"/>
            <path d="m2869.97 352.38-4.06 9.79-2.93-10.18z"/>
        </g>
        <g class="node" transform="translate(4 616)">
            <ellipse cx="4433.48" cy="-306" fill="none" stroke="#000" rx="84.11" ry="18"/>
            <text x="4433.48" y="-300.95" font-family="Times,serif" font-size="14" text-anchor="middle">:app:domain:memo</text>
        </g>
        <g stroke="#000" class="edge">
            <path fill="none" d="M3602.82 106.8c57.42 9.96 140.57 25.14 212.66 41.2 207.62 46.26 451.07 112.94 561.76 143.95"/>
            <path d="m4378.03 288.53 8.68 6.07-10.57.67z"/>
        </g>
        <g class="node" transform="translate(4 616)">
            <ellipse cx="4610.48" cy="-234" fill="none" stroke="#000" rx="71.31" ry="18"/>
            <text x="4610.48" y="-228.95" font-family="Times,serif" font-size="14" text-anchor="middle">:app:domain:tag</text>
        </g>
        <g stroke="#000" class="edge">
            <path fill="none" d="M3612.54 104.52c75.16 9.39 190.57 25 289.94 43.48 281.53 52.35 379.47 1.75 628 144 27.09 15.51 50.76 42.54 66.01 62.75"/>
            <path d="m4599.31 352.69 3.07 10.14-8.72-6.02z"/>
        </g>
        <g class="node" transform="translate(4 616)">
            <ellipse cx="4704.48" cy="-90" fill="none" stroke="#000" rx="88.71" ry="18"/>
            <text x="4704.48" y="-84.95" font-family="Times,serif" font-size="14" text-anchor="middle">:app:domain:account</text>
        </g>
        <g stroke="#000" class="edge">
            <path fill="none" d="M3629.84 95.8c214.5 2.5 721.97 12.53 888.64 52.2 77.44 18.43 113.46 10.5 164 72 62.26 75.76 36.25 118.33 45 216 1.42 15.94 2.74 20.24 0 36-1.46 8.38-4.12 17.18-7 25.16"/>
            <path d="m4723.8 498.28-6.88 8.05.35-10.58z"/>
        </g>
        <g class="node" transform="translate(4 616)">
            <ellipse cx="3887.48" cy="-306" fill="none" stroke="#000" rx="96.39" ry="18"/>
            <text x="3887.48" y="-300.95" font-family="Times,serif" font-size="14" text-anchor="middle">:app:domain:credential</text>
        </g>
        <g stroke="#000" class="edge">
            <path fill="none" d="M3627.4 98.51c49.43 5.75 108.83 19.16 154.08 49.49 49.43 33.14 82.85 96.7 98.93 133.26"/>
            <path d="m3883.56 279.71.69 10.58-7.13-7.83z"/>
        </g>
        <g class="node" transform="translate(4 616)">
            <ellipse cx="3597.48" cy="-90" fill="none" stroke="#000" rx="87.69" ry="18"/>
            <text x="3597.48" y="-84.95" font-family="Times,serif" font-size="14" text-anchor="middle">:app:domain:holiday</text>
        </g>
        <g stroke="#000" class="edge">
            <path fill="none" d="M3512.56 112.05c-41.67 37.84-131.53 132.14-98.08 215.95 30.75 77.08 107.59 141.28 152.62 173.88"/>
            <path d="m3568.85 498.83 6.12 8.65-10.18-2.95z"/>
        </g>
        <g class="node" transform="translate(4 616)">
            <ellipse cx="4176.48" cy="-162" fill="none" stroke="#000" rx="86.67" ry="18"/>
            <text x="4176.48" y="-156.95" font-family="Times,serif" font-size="14" text-anchor="middle">:app:domain:backup</text>
        </g>
        <g stroke="#000" class="edge">
            <path fill="none" d="M3623.92 100.46c37.25 6.64 78.14 20.24 106.56 47.54 60.41 58.04-4.5 122.04 56 180 45.15 43.26 77.33 14.38 136 36 34.69 12.79 40.45 22.81 75 36 38.06 14.53 81.86 27.35 117.06 36.74"/>
            <path d="m4115.41 433.35 8.78 5.93-10.57.84z"/>
        </g>
        <g class="node" transform="translate(4 616)">
            <ellipse cx="3831.48" cy="-234" fill="none" stroke="#000" rx="78.48" ry="18"/>
            <text x="3831.48" y="-228.95" font-family="Times,serif" font-size="14" text-anchor="middle">:app:domain:fetch</text>
        </g>
        <g stroke="#000" class="edge">
            <path fill="none" d="M3616.37 103.37c31.73 7.2 65.78 20.43 89.11 44.63 57.46 59.61-.7 113.04 48 180 9.46 13.02 23.19 23.67 36.71 31.92"/>
            <path d="m3791.69 356.74 6.93 8.01-10.41-1.93z"/>
        </g>
        <g class="node" transform="translate(4 616)">
            <ellipse cx="3318.48" cy="-162" fill="none" stroke="#000" rx="74.89" ry="18"/>
            <text x="3318.48" y="-156.95" font-family="Times,serif" font-size="14" text-anchor="middle">:app:domain:fcm</text>
        </g>
        <g stroke="#000" class="edge">
            <path fill="none" d="M3470.87 108.27c-62.91 17.61-151.39 55.4-151.39 128.73v74c0 39.27 1.16 84.63 2.03 113.31"/>
            <path d="m3325 423.9-3.18 10.1-3.81-9.88z"/>
        </g>
        <g class="node" transform="translate(4 616)">
            <ellipse cx="4578.48" cy="-378" fill="none" stroke="#000" rx="91.27" ry="18"/>
            <text x="4578.48" y="-372.95" font-family="Times,serif" font-size="14" text-anchor="middle">:app:domain:calendar</text>
        </g>
        <g stroke="#000" class="edge">
            <path fill="none" d="M3628.92 96.94c224.97 5.01 771.29 20.24 848.56 51.06 33.6 13.4 64.17 42.07 83.55 63.27"/>
            <path d="m4563.61 208.9 4.02 9.8-9.26-5.16z"/>
        </g>
        <g class="node" transform="translate(4 616)">
            <ellipse cx="3760.48" cy="-162" fill="none" stroke="#000" rx="83.08" ry="18"/>
            <text x="3760.48" y="-156.95" font-family="Times,serif" font-size="14" text-anchor="middle">:app:domain:buddy</text>
        </g>
        <g stroke="#000" class="edge">
            <path fill="none" d="M3602.22 106.85c25.48 7.69 52.39 20.35 70.26 41.15 26.35 30.68 19 48.55 19 89v74c0 44.63 28.88 89.3 50.31 116.29"/>
            <path d="m3744.4 424.96 3.63 9.95-9.05-5.51z"/>
        </g>
        <g class="node" transform="translate(4 616)">
            <ellipse cx="805.48" cy="-234" fill="none" stroke="#000" rx="123.52" ry="18"/>
            <text x="805.48" y="-228.95" font-family="Times,serif" font-size="14" text-anchor="middle">:app:core:filter-database-room</text>
        </g>
        <g stroke="#000" class="edge">
            <path fill="none" d="M3435.26 95.96c-374.58 3.91-1712.81 20.02-1900.78 52.04-262.94 44.79-561.71 163.69-676.54 212.07"/>
            <path d="m859.38 363.27-10.58.67 7.85-7.12z"/>
        </g>
        <g class="node" transform="translate(4 616)">
            <ellipse cx="1079.48" cy="-234" fill="none" stroke="#000" rx="132.22" ry="18"/>
            <text x="1079.48" y="-228.95" font-family="Times,serif" font-size="14" text-anchor="middle">:app:core:backup-database-room</text>
        </g>
        <g stroke="#000" class="edge">
            <path fill="none" d="M3435.3 95.77c-358.43 3.12-1594.55 16.38-1767.82 52.23-213.58 44.19-449.51 161.33-542.8 210.63"/>
            <path d="m1126.34 361.71-10.47 1.6 7.19-7.78z"/>
        </g>
        <g class="node" transform="translate(4 616)">
            <ellipse cx="522.48" cy="-162" fill="none" stroke="#000" rx="158.32" ry="18"/>
            <text x="522.48" y="-156.95" font-family="Times,serif" font-size="14" text-anchor="middle">:app:core:account-preferences-datastore</text>
        </g>
        <g stroke="#000" class="edge">
            <path fill="none" d="M3435.39 95.74C2960.82 99.49 902.71 117.45 770.48 148c-90.47 20.9-189-3.85-189 89v74c0 42.43-21.62 87.47-37.75 115.17"/>
            <path d="m546.81 427.84-8.16 6.76 2.16-10.37z"/>
        </g>
        <g class="node" transform="translate(4 616)">
            <ellipse cx="1354.48" cy="-234" fill="none" stroke="#000" rx="124.54" ry="18"/>
            <text x="1354.48" y="-228.95" font-family="Times,serif" font-size="14" text-anchor="middle">:app:core:diary-database-room</text>
        </g>
        <g stroke="#000" class="edge">
            <path fill="none" d="M3434.85 95.16c-347.18.93-1509.79 7.45-1670.37 52.84-154.67 43.72-312.68 158.95-376.55 209.11"/>
            <path d="m1390.4 359.62-10.01 3.46 5.66-8.95z"/>
        </g>
        <g class="node" transform="translate(4 616)">
            <ellipse cx="188.48" cy="-162" fill="none" stroke="#000" rx="157.3" ry="18"/>
            <text x="188.48" y="-156.95" font-family="Times,serif" font-size="14" text-anchor="middle">:app:core:holiday-preferences-datastore</text>
        </g>
        <g stroke="#000" class="edge">
            <path fill="none" d="M3435.07 95.48C2933.32 98.14 661.48 112.12 598.48 148c-40.41 23.01-55 42.5-55 89v74c0 56.61-158.86 101.32-262.84 124.52"/>
            <path d="m281.5 438.91-10.52-1.27 9.02-5.56z"/>
        </g>
        <g class="node" transform="translate(4 616)">
            <ellipse cx="1630.48" cy="-234" fill="none" stroke="#000" rx="133.24" ry="18"/>
            <text x="1630.48" y="-228.95" font-family="Times,serif" font-size="14" text-anchor="middle">:app:core:holiday-database-room</text>
        </g>
        <g stroke="#000" class="edge">
            <path fill="none" d="M3435.24 95.75c-352.06 3.02-1543.31 15.87-1615.76 52.25-88.81 44.59-148.62 153.75-172.86 205.25"/>
            <path d="m1649.85 354.6-7.36 7.63 1-10.55z"/>
        </g>
        <g class="node" transform="translate(4 616)">
            <ellipse cx="5170.48" cy="-378" fill="none" stroke="#000" rx="81.55" ry="18"/>
            <text x="5170.48" y="-372.95" font-family="Times,serif" font-size="14" text-anchor="middle">:app:feature:memo</text>
        </g>
        <g stroke="#000" class="edge">
            <path fill="none" d="M3629.96 95.11c271.98.89 1035.3 7.49 1281.52 52.89 78.55 14.49 165.61 47.51 217.24 69"/>
            <path d="m5129.93 213.71 7.86 7.11-10.57-.65z"/>
        </g>
        <g class="node" transform="translate(4 616)">
            <ellipse cx="5589.48" cy="-378" fill="none" stroke="#000" rx="68.75" ry="18"/>
            <text x="5589.48" y="-372.95" font-family="Times,serif" font-size="14" text-anchor="middle">:app:feature:tag</text>
        </g>
        <g stroke="#000" class="edge">
            <path fill="none" d="M3629.83 95.62c357.62 2.57 1586.87 14.13 1758.65 52.38 61.53 13.7 127.54 45.86 167.55 67.53"/>
            <path d="m5557.7 212.46 7.08 7.88-10.45-1.75z"/>
        </g>
        <g class="node" transform="translate(4 616)">
            <ellipse cx="6461.48" cy="-450" fill="none" stroke="#000" rx="88.71" ry="18"/>
            <text x="6461.48" y="-444.95" font-family="Times,serif" font-size="14" text-anchor="middle">:app:feature:calendar</text>
        </g>
        <g stroke="#000" class="edge">
            <path fill="none" d="M3630.02 95.49c429.71 2.38 2156.46 14.16 2697.46 52.51 18.14 1.29 37.56 3.29 55.94 5.47"/>
            <path d="m6383.7 149.98 9.5 4.69-10.35 2.26z"/>
        </g>
        <g class="node" transform="translate(4 616)">
            <ellipse cx="6578.48" cy="-378" fill="none" stroke="#000" rx="80.52" ry="18"/>
            <text x="6578.48" y="-372.95" font-family="Times,serif" font-size="14" text-anchor="middle">:app:feature:buddy</text>
        </g>
        <g stroke="#000" class="edge">
            <path fill="none" d="M3629.98 95.05c512.72.47 2875.56 5.23 2933.5 52.95 17.35 14.29 21.28 40.19 21.35 60.38"/>
            <path d="m6588.33 208.36-3.8 9.89-3.19-10.1z"/>
        </g>
        <g class="node" transform="translate(4 616)">
            <ellipse cx="5922.48" cy="-378" fill="none" stroke="#000" rx="76.94" ry="18"/>
            <text x="5922.48" y="-372.95" font-family="Times,serif" font-size="14" text-anchor="middle">:app:feature:more</text>
        </g>
        <g stroke="#000" class="edge">
            <path fill="none" d="M3629.97 95.64c338.99 2.55 1465.23 13.78 1824.51 52.36 147.89 15.88 318.83 52.84 408.91 73.79"/>
            <path d="m5864.08 218.36 8.94 5.69-10.53 1.13z"/>
        </g>
        <g class="node" transform="translate(4 616)">
            <ellipse cx="4984.48" cy="-378" fill="none" stroke="#000" rx="86.15" ry="18"/>
            <text x="4984.48" y="-372.95" font-family="Times,serif" font-size="14" text-anchor="middle">:app:feature:account</text>
        </g>
        <g stroke="#000" class="edge">
            <path fill="none" d="M3630 95.58c287.99 2.17 1121.86 11.92 1237.48 52.42 37.97 13.3 74.12 42.9 96.86 64.32"/>
            <path d="m4966.52 209.56 4.76 9.46-9.63-4.43z"/>
        </g>
        <g class="node" transform="translate(4 616)">
            <ellipse cx="2923.48" cy="-162" fill="none" stroke="#000" rx="112.26" ry="18"/>
            <text x="2923.48" y="-156.95" font-family="Times,serif" font-size="14" text-anchor="middle">:library:firebase-messaging</text>
        </g>
        <g stroke="#000" class="edge">
            <path fill="none" d="M3438.52 99.16c-161.61 9.75-475.04 41.12-475.04 137.84v74c0 40.68-14.06 85.97-24.61 114.22"/>
            <path d="m2942.17 426.39-6.86 8.07.33-10.59z"/>
        </g>
        <g class="node" transform="translate(4 616)">
            <ellipse cx="3367.48" cy="-18" fill="none" stroke="#000" rx="71.31" ry="18"/>
            <text x="3367.48" y="-12.95" font-family="Times,serif" font-size="14" text-anchor="middle">:app:core:model</text>
        </g>
        <g stroke="#000" class="edge">
            <path fill="none" d="M2336.31 470.06c66.11 20.55 190.96 56.79 300.17 73.94 261.72 41.1 331.16 12.02 595 36 21.7 1.97 45.23 4.63 66.7 7.25"/>
            <path d="m3298.54 583.77 9.49 4.71-10.35 2.24z"/>
        </g>
        <g class="node" transform="translate(4 616)">
            <ellipse cx="4017.48" cy="-18" fill="none" stroke="#000" rx="85.13" ry="18"/>
            <text x="4017.48" y="-12.95" font-family="Times,serif" font-size="14" text-anchor="middle">:common:exception</text>
        </g>
        <g stroke="#000" class="edge">
            <path fill="none" d="M2357.39 467.04c55.65 10.6 129.41 26.55 156.09 40.96 20.46 11.06 16.54 27 38 36 15.9 6.67 1052.08 39.83 1374.99 50.02"/>
            <path d="m3926.26 590.51 9.88 3.81-10.1 3.19z"/>
        </g>
        <g class="node" transform="translate(4 616)">
            <ellipse cx="1058.48" cy="-90" fill="none" stroke="#000" rx="121.98" ry="18"/>
            <text x="1058.48" y="-84.95" font-family="Times,serif" font-size="14" text-anchor="middle">:app:core:account-preferences</text>
        </g>
        <g stroke="#000" class="edge">
            <path fill="none" d="M2212.76 465.11c-21.42 2.56-44.73 5.08-66.28 6.89-23.57 1.97-677.36 33.47-958 46.95"/>
            <path d="m1188.7 522.45-10.16-3.02 9.82-3.97z"/>
        </g>
        <g class="node" transform="translate(4 616)">
            <ellipse cx="2285.48" cy="-90" fill="none" stroke="#000" rx="72.85" ry="18"/>
            <text x="2285.48" y="-84.95" font-family="Times,serif" font-size="14" text-anchor="middle">:common:model</text>
        </g>
        <g stroke="#000" class="edge">
            <path fill="none" d="M2289.48 472.3v24.16"/>
            <path d="m2292.98 496.38-3.5 10-3.5-10z"/>
        </g>
        <g stroke="#000" class="edge">
            <path fill="none" d="M1613.4 537.5c22.66 2.54 47.29 4.96 70.08 6.5 686.62 46.29 861.6-13.54 1548 36 22.14 1.6 46.17 4.2 67.96 6.89"/>
            <path d="m3299.63 583.38 9.48 4.73-10.36 2.22z"/>
        </g>
        <g stroke="#000" class="edge">
            <path fill="none" d="M6087.53 328.3c-2.13 7.46-4.68 16.38-7.06 24.73"/>
            <path d="m6083.89 353.79-6.11 8.65-.62-10.58z"/>
        </g>
        <g stroke="#000" class="edge">
            <path fill="none" d="M6132.34 396.83c53.94 12.46 132.7 30.66 185.84 42.93"/>
            <path d="m6318.68 436.29 8.95 5.66-10.53 1.16z"/>
        </g>
        <g stroke="#000" class="edge">
            <path fill="none" d="M6041.23 399.45c-42.82 22.89-121.7 66.3-185.75 108.55-22.26 14.68-22.89 27.03-48 36-55.04 19.65-898.57 43.59-1170.33 50.83"/>
            <path d="m4637.4 598.32-10.09-3.23 9.91-3.77z"/>
        </g>
        <g stroke="#000" class="edge">
            <path fill="none" d="M5365.48 328.14c8.61 9.71 18.4 22.56 24 35.86 31.21 74.19 75.13 121.35 20 180-26.21 27.88-562.41 45.16-772.56 50.89"/>
            <path d="m4637.26 598.38-10.09-3.23 9.91-3.77z"/>
        </g>
        <g stroke="#000" class="edge">
            <path fill="none" d="M5644.24 328.38c-9.39 44.91-41.2 164.83-120.76 215.62-73.62 47-663.22 52.64-885.56 53.08"/>
            <path d="m4638.18 600.58-10.01-3.48 10-3.52z"/>
        </g>
        <g stroke="#000" class="edge">
            <path fill="none" d="M6358.81 328.41c3.2 23.98 9.02 67.45 12.86 96.17"/>
            <path d="m6375.13 424.01-2.14 10.38-4.8-9.45z"/>
        </g>
        <g stroke="#000" class="edge">
            <path fill="none" d="M3176.55 256.43c-11.74 42.53-41.01 155.23-50.07 251.57-1.5 15.93-2.48 20.19 0 36 1.28 8.21 3.62 16.89 6.16 24.79"/>
            <path d="m3135.95 567.64-.04 10.59-6.58-8.3z"/>
        </g>
        <g stroke="#000" class="edge">
            <path fill="none" d="M3179.62 256.18c-3.69 43.92-6.58 160.67 58.86 215.82 87.72 73.94 406.42-1.06 515 36 27.29 9.32 26.7 26.67 54 36 61.41 21 482.03 41.53 663.24 49.51"/>
            <path d="m4470.69 590.01 9.84 3.93-10.15 3.06z"/>
        </g>
        <g stroke="#000" class="edge">
            <path fill="none" d="M3250.34 242.84c211.9 11.81 854.34 47.61 1094.89 61.02"/>
            <path d="m4345.42 300.36 9.79 4.06-10.18 2.93z"/>
        </g>
        <g class="node" transform="translate(4 616)">
            <ellipse cx="2615.48" cy="-162" fill="none" stroke="#000" rx="101.51" ry="18"/>
            <text x="2615.48" y="-156.95" font-family="Times,serif" font-size="14" text-anchor="middle">:app:core:diary-database</text>
        </g>
        <g stroke="#000" class="edge">
            <path fill="none" d="M3123.55 248.93c-86.07 16.19-251.39 52.86-380.07 115.07-35.76 17.28-72.14 44.83-96.17 64.7"/>
            <path d="m2649.8 431.18-9.91 3.75 5.41-9.11z"/>
        </g>
        <g stroke="#000" class="edge">
            <path fill="none" d="M3434.95 320.92c-79.86 19.6-238.09 71.81-297.47 187.08-9.6 18.63-7.38 42.44-3.14 60.75"/>
            <path d="m3137.72 567.84-.81 10.57-5.95-8.76z"/>
        </g>
        <g stroke="#000" class="edge">
            <path fill="none" d="M3504.96 326.94c14.18 10.25 32.73 24.05 48.52 37.06 55.12 45.41 54.1 78.17 119 108 116.8 53.69 160.49 13.15 287 36 68.32 12.34 83.64 23.85 152 36 125.93 22.39 273.76 37.98 362.55 46.21"/>
            <path d="m4474.21 586.71 9.64 4.4-10.28 2.57z"/>
        </g>
        <g stroke="#000" class="edge">
            <path fill="none" d="M3539.39 314.52c186.42 11.53 779.12 48.18 995.25 61.54"/>
            <path d="m4534.6 372.55 9.76 4.11-10.2 2.88z"/>
        </g>
        <g stroke="#000" class="edge">
            <path fill="none" d="M3432.32 319.67c-19.01 3.02-40.88 6.19-60.84 8.33-129.51 13.87-464.01-12.22-585 36-23.16 9.23-21.76 22.96-43 36-21.35 13.1-46.52 24.51-68.58 33.35"/>
            <path d="m2676.35 436.54-10.59.39 8.04-6.9z"/>
        </g>
        <g stroke="#000" class="edge">
            <path fill="none" d="M825.25 472.24c11.93 21.33 35.48 56.67 67.23 71.76 98.97 47.05 1752.28 52.34 2160.45 52.93"/>
            <path d="m3052.84 593.43 10 3.51-10 3.49z"/>
        </g>
        <g stroke="#000" class="edge">
            <path fill="none" d="M838.27 471.66c13.6 10.41 31.45 24.12 47.21 36.34 20.51 15.91 21.5 27.4 46 36 83.45 29.3 3095.57 33.78 3184 36 124.08 3.11 267.84 9.16 355.84 13.14"/>
            <path d="m4471.22 589.63 9.83 3.95-10.15 3.04z"/>
        </g>
        <g stroke="#000" class="edge">
            <path fill="none" d="M877.63 464.98c19.69 2.8 41.64 5.5 61.85 7.02 611.43 46.06 2145.9 26.84 2759 36 333.68 4.99 729.36 11.95 910.49 15.2"/>
            <path d="m4608.88 519.7 9.93 3.68-10.06 3.32z"/>
        </g>
        <g stroke="#000" class="edge">
            <path fill="none" d="M863.91 468.5c37.81 10.76 91.17 25.94 133.06 37.86"/>
            <path d="m997.78 502.95 8.66 6.11-10.57.63z"/>
        </g>
        <g stroke="#000" class="edge">
            <path fill="none" d="M2154.26 256.15c25.59 37.25 86.4 125.78 116.99 170.31"/>
            <path d="m2274 424.3 2.78 10.22-8.54-6.26z"/>
        </g>
        <g stroke="#000" class="edge">
            <path fill="none" d="M2086.05 251.58c-34.21 8.81-78.13 22.26-114.57 40.42-36.77 18.32-111.56 93.53-150 108-78.15 29.41-306.83-13.59-374 36-40.08 29.59-64.69 72.24-30 108 28.72 29.62 1284.81 47.49 1635.76 51.92"/>
            <path d="m3053.13 592.42 9.95 3.62-10.04 3.37z"/>
        </g>
        <g stroke="#000" class="edge">
            <path fill="none" d="M2143.31 256.45c3.24 59.5 17.27 252.62 64.17 287.55 42.51 31.67 1855.01 34.47 1908 36 123.88 3.57 267.41 9.48 355.45 13.31"/>
            <path d="m4470.83 589.8 9.84 3.93-10.15 3.06z"/>
        </g>
        <g stroke="#000" class="edge">
            <path fill="none" d="M2224.62 241.74c216.76 7.31 822.12 28.22 1325.86 50.26 80.07 3.5 170.7 8.05 238.38 11.56"/>
            <path d="m3788.63 300.04 9.81 4.02-10.17 2.97z"/>
        </g>
        <g stroke="#000" class="edge">
            <path fill="none" d="M2076.92 249.44c-42.22 8.21-97.58 21.78-143.44 42.56-77.15 34.96-77.47 78.89-157 108-151.84 55.57-202.75 8.11-362 36-54.28 9.51-198.6 47.54-284.66 70.7"/>
            <path d="m1130.88 510.04-10.57-.78 8.75-5.98z"/>
        </g>
        <g stroke="#000" class="edge">
            <path fill="none" d="M1531.48 472.3v24.16"/>
            <path d="m1534.98 496.38-3.5 10-3.5-10z"/>
        </g>
        <g stroke="#000" class="edge">
            <path fill="none" d="M1571.15 469.72c22.72 9.33 51.22 22.58 74.33 38.28 19.24 13.07 16.54 27 38 36 125.77 52.78 1071.01 54.28 1369.77 53.42"/>
            <path d="m3052.93 593.92 10.01 3.47-9.99 3.53z"/>
        </g>
        <g stroke="#000" class="edge">
            <path fill="none" d="M1596.06 463.37c77.39 10.13 210.98 27.9 325.42 44.63 102.37 14.97 126.92 27.03 230 36 434.87 37.84 1527.66 23.53 1964 36 123.88 3.54 267.41 9.46 355.45 13.29"/>
            <path d="m4470.83 589.78 9.84 3.94-10.15 3.06z"/>
        </g>
        <g stroke="#000" class="edge">
            <path fill="none" d="M1596.77 463.1c28.96 3.3 63.49 6.81 94.71 8.9 90.95 6.08 1434.31 40.81 1811.92 50.49"/>
            <path d="m3503.4 518.99 9.91 3.76-10.09 3.24z"/>
        </g>
        <g class="node" transform="translate(4 616)">
            <ellipse cx="555.48" cy="-90" fill="none" stroke="#000" rx="120.96" ry="18"/>
            <text x="555.48" y="-84.95" font-family="Times,serif" font-size="14" text-anchor="middle">:app:core:holiday-preferences</text>
        </g>
        <g stroke="#000" class="edge">
            <path fill="none" d="M1460.4 460.12c-165.58 11.92-578.41 41.65-782.65 56.36"/>
            <path d="m678.13 519.96-10.23-2.77 9.72-4.21z"/>
        </g>
        <g class="node" transform="translate(4 616)">
            <ellipse cx="1798.48" cy="-90" fill="none" stroke="#000" rx="110.21" ry="18"/>
            <text x="1798.48" y="-84.95" font-family="Times,serif" font-size="14" text-anchor="middle">:app:core:holiday-database</text>
        </g>
        <g stroke="#000" class="edge">
            <path fill="none" d="M1581.18 467.84c42.87 11.07 105.19 27.17 152.78 39.46"/>
            <path d="m1734.83 503.91 8.81 5.89-10.56.89z"/>
        </g>
        <g stroke="#000" class="edge">
            <path fill="none" d="M2471.1 396.75c-35.14 10.88-84.51 26.17-122.92 38.07"/>
            <path d="m2349.7 438.01-10.59-.38 8.52-6.31z"/>
        </g>
        <g stroke="#000" class="edge">
            <path fill="none" d="M2498.14 399.85c-16.86 18.5-37.87 48.7-22.66 72.15 42.63 65.77 85.29 51.67 161 72 142.31 38.22 313.98 49.14 416.62 52.11"/>
            <path d="m3052.93 592.6 9.9 3.77-10.09 3.23z"/>
        </g>
        <g stroke="#000" class="edge">
            <path fill="none" d="M2508.1 400.39c-6.89 19.26-14.15 50.37.38 71.61 12.45 18.21 163.37 67.66 185 72 154.95 31.13 1264.03 30.94 1422 36 123.87 3.97 267.4 9.77 355.44 13.46"/>
            <path d="m4470.82 589.96 9.84 3.91-10.14 3.08z"/>
        </g>
        <g stroke="#000" class="edge">
            <path fill="none" d="M2585.63 387.96c54.7 3.73 132.57 8.75 200.85 12.04 475.27 22.9 594.61 15.53 1070 36 77.5 3.34 165.4 8 230.06 11.6"/>
            <path d="m4086.63 444.1 9.79 4.06-10.18 2.93z"/>
        </g>
        <g stroke="#000" class="edge">
            <path fill="none" d="M2539.86 399.41c13.49 9.08 30.48 20.52 45.3 30.49"/>
            <path d="m2586.93 426.87 6.34 8.49-10.25-2.68z"/>
        </g>
        <g class="node" transform="translate(4 616)">
            <ellipse cx="2024.48" cy="-162" fill="none" stroke="#000" rx="109.19" ry="18"/>
            <text x="2024.48" y="-156.95" font-family="Times,serif" font-size="14" text-anchor="middle">:app:core:backup-database</text>
        </g>
        <g stroke="#000" class="edge">
            <path fill="none" d="M2453.3 391.94c-84.35 12.12-235.69 33.88-333.11 47.88"/>
            <path d="m2120.77 443.27-10.4-2.04 9.4-4.89z"/>
        </g>
        <g stroke="#000" class="edge">
            <path fill="none" d="M2402.29 327.85c-22.32 24.76-64.16 71.18-90.14 99.99"/>
            <path d="m2314.95 429.97-9.29 5.08 4.09-9.77z"/>
        </g>
        <g stroke="#000" class="edge">
            <path fill="none" d="M2364.55 320.97c-90.34 16.92-280.14 52.05-441.07 79.03-106.48 17.85-302.19-10.03-232 72 33.63 39.31 179.17 26.35 230 36 72.03 13.68 88.34 26.14 161 36 356.71 48.43 786.27 53.82 970.22 53.65"/>
            <path d="m3052.67 594.15 10.01 3.48-10 3.52z"/>
        </g>
        <g stroke="#000" class="edge">
            <path fill="none" d="M2417.59 328.24c.75 18.58 3.78 48.59 14.89 71.76 18.5 38.61 32.21 43.32 64 72 20.33 18.34 29.14 18.26 50 36 17.23 14.66 15.19 27.1 36 36 78.31 33.52 1447.85 33.35 1533 36 123.87 3.86 267.4 9.69 355.44 13.42"/>
            <path d="m4470.82 589.91 9.84 3.92-10.14 3.07z"/>
        </g>
        <g stroke="#000" class="edge">
            <path fill="none" d="M2481.62 314.17c228.69 11.29 1004.32 49.57 1266.46 62.52"/>
            <path d="m3748.1 373.18 9.82 3.99-10.16 3z"/>
        </g>
        <g stroke="#000" class="edge">
            <path fill="none" d="M2481.92 314.06c38.91 5.27 86.59 18.34 116.56 49.94 15.19 16.03 20.08 40.92 21.36 60.31"/>
            <path d="m2623.33 423.91-3.14 10.12-3.85-9.87z"/>
        </g>
        <g stroke="#000" class="edge">
            <path fill="none" d="M3000.92 392c-17.88 2.85-37.99 5.82-56.44 8-27.13 3.21-380.35 31.29-556.5 45.22"/>
            <path d="m2388.39 448.7-10.25-2.7 9.7-4.28z"/>
        </g>
        <g stroke="#000" class="edge">
            <path fill="none" d="M3057.27 400.29c3.19 19.17 5.26 50.2-8.79 71.71-19.36 29.62-52.49 5.85-71 36-8.38 13.63-9.44 23.08 0 36 18.59 25.46 49.55 38.97 79.73 46.05"/>
            <path d="m3057.72 586.58 9.07 5.48-10.51 1.37z"/>
        </g>
        <g stroke="#000" class="edge">
            <path fill="none" d="M3068.51 399.74c20.16 21.15 58.16 56.65 98.97 72.26 220.93 84.49 301.4-20.91 531 36 38.23 9.48 42.76 26.51 81 36 65.74 16.32 506.08 39.72 691.72 48.99"/>
            <path d="m4471.19 589.49 9.81 3.99-10.16 3z"/>
        </g>
        <g stroke="#000" class="edge">
            <path fill="none" d="M3098.5 394.72c44.91 11.68 114.19 29.71 163.8 42.62"/>
            <path d="m3262.94 433.89 8.79 5.91-10.56.86z"/>
        </g>
        <g stroke="#000" class="edge">
            <path fill="none" d="M3025.51 398.54c-17.08 9.49-39.21 21.78-58.11 32.28"/>
            <path d="m2969.33 433.75-10.45 1.8 7.05-7.91z"/>
        </g>
        <g stroke="#000" class="edge">
            <path fill="none" d="M3584.89 184.07c-1.71 30.65-8.37 96.23-34.41 143.93-43.37 79.44-64.37 100.98-144 144-69.1 37.33-103.8-1.13-173 36-28.72 15.41-54.36 42.83-70.86 63.17"/>
            <path d="m3165.58 573.08-8.94 5.69 3.44-10.02z"/>
        </g>
        <g stroke="#000" class="edge">
            <path fill="none" d="M3592.79 184.16c19.12 42.86 74.77 155.46 155.69 215.84 40.55 30.26 60.56 18.41 108 36 39.62 14.69 47.19 25.04 88 36 113.51 30.49 146.81 12.6 262 36 60.01 12.19 73.72 20.64 133 36 51.18 13.26 109.45 27.65 152.24 38.08"/>
            <path d="m4492.45 578.65 8.89 5.77-10.55 1.04z"/>
        </g>
        <g stroke="red" stroke-width="2" class="edge">
            <path fill="none" d="M3659.6 172.2c177.85 12.49 628.69 44.15 826.9 58.06"/>
            <path fill="red" d="m4485 226.65 9.73 4.19-10.22 2.79z"/>
        </g>
        <g class="node" transform="translate(4 616)">
            <ellipse cx="1796.48" cy="-162" fill="none" stroke="#000" rx="100.48" ry="18"/>
            <text x="1796.48" y="-156.95" font-family="Times,serif" font-size="14" text-anchor="middle">:app:core:filter-database</text>
        </g>
        <g stroke="#000" class="edge">
            <path fill="none" d="M3538.77 180.84c-62.75 18.37-177.9 51.25-277.29 75.16-230.35 55.41-291.17 54.68-522 108-63.02 14.56-77.06 26.26-141 36-302.71 46.1-383.42 4.58-688 36-8.95.92-18.29 2.07-27.57 3.34"/>
            <path d="m1883.53 442.78-10.39-2.06 9.41-4.87z"/>
        </g>
        <g stroke="#000" class="edge">
            <path fill="none" d="M2803.01 390.59c-102.27 12.43-305.84 37.17-423.63 51.48"/>
            <path d="m2380.11 445.51-10.35-2.27 9.5-4.68z"/>
        </g>
        <g stroke="#000" class="edge">
            <path fill="none" d="M2835.25 398.68c-18.35 9.94-41.98 23.49-61.77 37.32-20.44 14.28-22.75 21.47-43 36-24.96 17.91-43.97 9.21-59 36-7.84 13.95-10.67 24.07 0 36 25.04 28.01 253.64 43 383.28 49.31"/>
            <path d="m3054.89 589.81 9.82 3.98-10.16 3.02z"/>
        </g>
        <g stroke="#000" class="edge">
            <path fill="none" d="M2846.87 399.7c-11.61 10.44-26.88 24.15-40.39 36.3-17.79 15.99-20.67 21.92-40 36-25.76 18.76-46.11 8.39-62 36-7.99 13.87-11.17 24.54 0 36 27.36 28.08 1371.81 34.74 1411 36 123.87 3.98 267.4 9.78 355.44 13.47"/>
            <path d="m4470.82 589.96 9.84 3.92-10.14 3.07z"/>
        </g>
        <g stroke="#000" class="edge">
            <path fill="none" d="M2923.99 392.4c18.65 2.75 39.4 5.57 58.49 7.6 248.75 26.46 543.5 42.25 689.91 49.05"/>
            <path d="m3672.19 445.53 9.82 3.96-10.15 3.04z"/>
        </g>
        <g stroke="#000" class="edge">
            <path fill="none" d="M4510.79 319.1c75.86 8.91 197.61 24.68 301.69 44.9 251.84 48.93 349-3.38 559 144 22.21 15.59 39.06 41.83 49.55 61.79"/>
            <path d="m5424.04 567.98 1.34 10.51-7.6-7.38z"/>
        </g>
        <g stroke="#000" class="edge">
            <path fill="none" d="M4418.8 327.99c-11.22 10.3-25.72 23.77-38.32 36.01-32.25 31.31-40.04 39.43-71 72-14.96 15.73-13.66 26.15-33 36-126.36 64.34-178.31 6.51-317 36-51.98 11.05-61.78 26.21-114 36-242.52 45.48-308.25 13.91-554 36-22.27 2-46.37 4.59-68.53 7.14"/>
            <path d="m3223.4 590.61-10.34-2.32 9.53-4.63z"/>
        </g>
        <g stroke="#000" class="edge">
            <path fill="none" d="M4521 312.75c121.54 7.82 340.51 43.39 412.48 195.25 6.85 14.46 10.5 23.93 0 36-37.53 43.12-195.55 52.25-295.62 53.58"/>
            <path d="m4638.11 601.07-10.04-3.39 9.96-3.61z"/>
        </g>
        <g stroke="red" stroke-width="2" class="edge">
            <path fill="none" d="M4476.32 326.36c26.62 10.53 62.1 24.56 90.44 35.77"/>
            <path fill="red" d="m4566.41 358.23 8.01 6.93-10.58-.42z"/>
        </g>
        <g stroke="#000" class="edge">
            <path fill="none" d="M4454.79 328.06c18.98 18.42 50.6 48.29 79.69 71.94 46.56 37.86 103.54 77.64 139.31 101.89"/>
            <path d="m4675.71 498.96 6.33 8.5-10.25-2.69z"/>
        </g>
        <g stroke="#000" class="edge">
            <path fill="none" d="M4360.57 317.42c-40.43 6.57-88.95 19.84-125.09 46.58-20.95 15.49-35.69 41.57-44.6 61.5"/>
            <path d="m4194.22 426.58-7.11 7.86.66-10.58z"/>
        </g>
        <g stroke="#000" class="edge">
            <path fill="none" d="M4428.98 328.37c-17.41 33.6-60.48 107.36-119.5 143.63-8.46 5.2-340.18 70.55-350 72-180.39 26.6-394 41.82-507.57 48.64"/>
            <path d="m3452.27 596.12-10.19-2.9 9.78-4.09z"/>
        </g>
        <g stroke="#000" class="edge">
            <path fill="none" d="M4449.26 328.23c15.12 23.24 40.54 66.5 50.22 107.77 10.98 46.86 26 73.94-8 108-26.03 26.07-246.53 41.64-376.06 48.61"/>
            <path d="m4115.63 596.1-10.17-2.96 9.8-4.03z"/>
        </g>
        <g stroke="#000" class="edge">
            <path fill="none" d="M4684.12 386.43c83.63 5.36 227.62 18.53 347.36 49.57 137.4 35.62 290.79 106.28 361.85 140.91"/>
            <path d="m5394.81 573.74 7.44 7.54-10.52-1.26z"/>
        </g>
        <g stroke="#000" class="edge">
            <path fill="none" d="M4556.57 392.83c-46.88 8.81-114.25 23.39-171.09 43.17-35.3 12.28-40.56 24.15-76 36-37.66 12.59-310.63 66.92-350 72-294.88 38.06-371.73 11.02-668 36-22.39 1.89-46.62 4.45-68.87 7.01"/>
            <path d="m3223.02 590.49-10.34-2.31 9.52-4.64z"/>
        </g>
        <g stroke="#000" class="edge">
            <path fill="none" d="M4662.46 395.68c77.61 21.61 224.88 67.6 253.02 112.32 8.52 13.54 10.46 23.89 0 36-35.13 40.64-181.84 50.71-277.37 52.87"/>
            <path d="m4638.31 600.37-10.07-3.3 9.93-3.7z"/>
        </g>
        <g stroke="#000" class="edge">
            <path fill="none" d="M4625.81 400.13c16.17 24.41 45.98 69.44 65.03 98.23"/>
            <path d="m4693.66 496.28 2.6 10.27-8.44-6.41z"/>
        </g>
        <g stroke="red" stroke-width="2" class="edge">
            <path fill="none" d="M4555.49 392.51c-76.85 12.4-211.47 34.11-296.78 47.87"/>
            <path fill="red" d="m4260.94 443.57-10.43-1.87 9.32-5.04z"/>
        </g>
        <g stroke="#000" class="edge">
            <path fill="none" d="M4578.69 397.86c-44.81 18.39-124.09 50.2-193.21 74.14-103.63 35.89-128.15 52.14-236 72-250.04 46.03-551.89 53.05-694.99 53.52"/>
            <path d="m3454.74 601.02-10.01-3.48 9.99-3.52z"/>
        </g>
        <g stroke="#000" class="edge">
            <path fill="none" d="M4656.9 396.8c46.29 17.62 118.01 52.98 149.58 111.2 7.62 14.07 10.92 24.31 0 36-23.23 24.85-485.77 43.12-689.75 50"/>
            <path d="m4117.07 597.49-10.12-3.16 9.88-3.83z"/>
        </g>
        <g stroke="#000" class="edge">
            <path fill="none" d="M4787.1 534.59c142.48 13.76 441.13 42.59 576.73 55.69"/>
            <path d="m5364.14 586.79 9.62 4.44-10.29 2.53z"/>
        </g>
        <g stroke="#000" class="edge">
            <path fill="none" d="M4621.48 529.86c-287.75 9.53-1198.02 40.11-1330 50.14-22.62 1.72-47.1 4.25-69.53 6.85"/>
            <path d="m3222.63 590.29-10.34-2.31 9.52-4.64z"/>
        </g>
        <g stroke="#000" class="edge">
            <path fill="none" d="M4673.3 542.88c-22.4 10.12-51.62 23.32-75.6 34.15"/>
            <path d="m4599.38 580.11-10.56.93 7.68-7.31z"/>
        </g>
        <g stroke="red" stroke-width="2" class="edge">
            <path fill="none" d="M4623.32 531.46c-242.5 12.69-934.43 48.92-1171.22 61.32"/>
            <path fill="red" d="m3454.03 596.18-10.17-2.97 9.8-4.02z"/>
        </g>
        <g stroke="#000" class="edge">
            <path fill="none" d="M4630.67 534.93c-129.33 13.18-387.64 39.5-522.58 53.24"/>
            <path d="m4108.82 591.62-10.31-2.47 9.6-4.5z"/>
        </g>
        <g stroke="#000" class="edge">
            <path fill="none" d="M3975.22 319.26c86.68 9.03 225.88 24.91 345.26 44.74 407.16 67.65 891.62 180.21 1055.55 219.2"/>
            <path d="m5376.43 579.7 8.92 5.72-10.54 1.09z"/>
        </g>
        <g stroke="#000" class="edge">
            <path fill="none" d="M3822.73 322.85c-42.53 8.6-97.7 22.1-144.25 41.15-58.27 23.85-71.01 35.07-122 72-19.64 14.22-19 25.81-41 36-99.48 46.05-145.41-11.92-244 36-20.93 10.17-19.42 22.01-38 36-15.48 11.65-33.71 22.81-49.71 31.85"/>
            <path d="m3185.92 578.67-10.45 1.79 7.05-7.91z"/>
        </g>
        <g stroke="#000" class="edge">
            <path fill="none" d="M3968.68 321.11c68.73 9.48 171.88 24.86 260.8 42.89 16.19 3.28 566.83 130.98 577 144 48.58 62.2-78.09 81.05-169.23 86.69"/>
            <path d="m4637.46 598.18-10.18-2.93 9.78-4.06z"/>
        </g>
        <g stroke="#000" class="edge">
            <path fill="none" d="M3924.63 327.29c52.48 25.79 154.68 76 212.77 104.54"/>
            <path d="m4138.92 428.68 7.43 7.55-10.52-1.27z"/>
        </g>
        <g stroke="#000" class="edge">
            <path fill="none" d="M3877.63 328.3c-6.44 8.06-14.24 17.81-21.37 26.72"/>
            <path d="m3859.09 357.09-8.98 5.62 3.51-9.99z"/>
        </g>
        <g stroke="#000" class="edge">
            <path fill="none" d="M3809.35 319.8c-66.91 8.23-163.45 22.54-245.87 44.2-69.99 18.39-148.05 49.21-195.86 69.33"/>
            <path d="m3369.28 436.43-10.57.68 7.84-7.13z"/>
        </g>
        <g stroke="#000" class="edge">
            <path fill="none" d="M3844.24 326.13c-28.29 9.65-64.68 23.08-95.76 37.87-135.15 64.3-282.58 165.4-345.6 210.26"/>
            <path d="m3405.26 576.86-10.17 2.97 6.1-8.66z"/>
        </g>
        <g stroke="#000" class="edge">
            <path fill="none" d="M3987.55 312.34c91.05 7.02 223.34 33.41 288.93 123.66 54.86 75.5-90.31 123.92-183.55 146.36"/>
            <path d="m4093.84 585.74-10.53-1.12 8.93-5.69z"/>
        </g>
        <g stroke="#000" class="edge">
            <path fill="none" d="M3687.08 530.27c311.98 11.92 1384.95 52.92 1674.12 63.97"/>
            <path d="m5360.99 590.73 9.86 3.88-10.12 3.11z"/>
        </g>
        <g stroke="#000" class="edge">
            <path fill="none" d="M3532.91 537.48c-84.27 12.88-226.79 34.66-314.06 48"/>
            <path d="m3219.61 588.9-10.41-1.94 9.35-4.98z"/>
        </g>
        <g stroke="#000" class="edge">
            <path fill="none" d="M3673.7 536.55c21.75 2.66 45.71 5.39 67.78 7.45 266.29 24.84 582.8 41.93 729.62 49.14"/>
            <path d="m4470.9 589.63 9.82 3.98-10.16 3.01z"/>
        </g>
        <g stroke="#000" class="edge">
            <path fill="none" d="M3553.82 541.5c-37.16 11.31-88.82 27.03-127.66 38.86"/>
            <path d="m3427.6 583.58-10.59-.44 8.55-6.26z"/>
        </g>
        <g stroke="#000" class="edge">
            <path fill="none" d="M3668.03 538.09c75.44 12.58 198.2 33.03 277.37 46.23"/>
            <path d="m3945.49 580.79 9.29 5.09-10.44 1.81z"/>
        </g>
        <g stroke="#000" class="edge">
            <path fill="none" d="M4239.82 467.51c113.62 23.92 352.29 74.01 370.66 76.49 275.09 37.14 605.53 48.42 749.72 51.71"/>
            <path d="m5360.06 592.21 9.92 3.72-10.07 3.28z"/>
        </g>
        <g stroke="#000" class="edge">
            <path fill="none" d="M4097.83 459.81c-180.63 10.68-599.57 36.33-663.35 48.19-23.41 4.35-158.15 46.71-235.82 71.39"/>
            <path d="m3200.13 582.59-10.59-.3 8.47-6.37z"/>
        </g>
        <g stroke="#000" class="edge">
            <path fill="none" d="M4239.66 467.57c39.65 9.23 92.66 23.15 137.82 40.43 49.77 19.05 104.07 47.83 139 67.47"/>
            <path d="m4517.95 572.28 6.97 7.97-10.42-1.88z"/>
        </g>
        <g stroke="red" stroke-width="2" class="edge">
            <path fill="none" d="M4255.07 463.4c84.96 9.77 227.88 26.86 350.41 44.6 8.29 1.2 16.95 2.52 25.57 3.88"/>
            <path fill="red" d="m4630.01 508.17 9.32 5.04-10.42 1.87z"/>
        </g>
        <g stroke="#000" class="edge">
            <path fill="none" d="M4097.07 459.17c-168.44 8.76-537.92 29.86-592.59 48.83-40.68 14.11-80.85 43.75-106.22 64.95"/>
            <path d="m3400.64 575.52-9.87 3.83 5.33-9.15z"/>
        </g>
        <g stroke="#000" class="edge">
            <path fill="none" d="M4161.61 471.85c-27.97 24.98-80.6 71.98-112.79 100.73"/>
            <path d="m4051.23 575.12-9.79 4.05 5.13-9.27z"/>
        </g>
        <g stroke="#000" class="edge">
            <path fill="none" d="M3887.33 395.8c35.97 9.51 84.66 23.66 126.15 40.2 32.86 13.1 37.11 25.81 71 36 133.67 40.19 180.36-10.43 312 36 28.25 9.97 28.45 26.9 57 36 85.53 27.27 694.39 45.56 906.97 51.17"/>
            <path d="m5360.36 591.67 9.91 3.76-10.09 3.24z"/>
        </g>
        <g stroke="#000" class="edge">
            <path fill="none" d="M3761.49 388.27c-96.01 7.67-257.66 23.67-312.01 47.73-22.8 10.09-22.02 22.54-43 36-70.22 45.04-159.18 83.95-213.55 105.92"/>
            <path d="m3194.52 581.05-10.58.47 7.98-6.97z"/>
        </g>
        <g stroke="#000" class="edge">
            <path fill="none" d="M3866.4 398.84c41.14 20.33 116.64 55.13 185.08 73.16 124.74 32.86 163.35 2.79 288 36 40.04 10.67 47.74 20.07 86 36 26.88 11.19 56.97 23.65 81.22 33.68"/>
            <path d="m4507.74 574.33 7.91 7.05-10.58-.58z"/>
        </g>
        <g stroke="#000" class="edge">
            <path fill="none" d="M3907.15 389.75c87.47 8.68 239.75 25.15 369.33 46.25 129.65 21.11 279.53 53.89 364.3 73.23"/>
            <path d="m4641.36 505.77 8.97 5.64-10.53 1.18z"/>
        </g>
        <g stroke="#000" class="edge">
            <path fill="none" d="M3892.83 394.64c59.29 12.03 151.97 30.83 216.03 43.83"/>
            <path d="m4109.49 435.03 9.11 5.41-10.5 1.45z"/>
        </g>
        <g stroke="#000" class="edge">
            <path fill="none" d="M3777.79 394.48c-118.7 24.18-381.26 80.82-406.31 113.52-13 16.96-11.96 41.57-8.25 60.62"/>
            <path d="m3366.6 567.63-1.16 10.53-5.66-8.95z"/>
        </g>
        <g stroke="#000" class="edge">
            <path fill="none" d="M3850.38 400.15c32.67 37.58 110.68 127.34 149.04 171.48"/>
            <path d="m4001.85 569.08 3.91 9.84-9.2-5.25z"/>
        </g>
        <g stroke="#000" class="edge">
            <path fill="none" d="M3394.27 459.47c118.11 7.69 360.71 24.9 565.21 48.53 108.45 12.53 134.31 25.64 243 36 437.71 41.73 966.14 50.62 1157.42 52.5"/>
            <path d="m5359.71 593 9.97 3.59-10.03 3.41z"/>
        </g>
        <g stroke="#000" class="edge">
            <path fill="none" d="M3266.5 466.22c-42.32 9.66-95.54 24.71-110.02 41.78-13.99 16.49-16.65 41.18-16.14 60.37"/>
            <path d="m3143.83 568.07-2.91 10.19-4.08-9.77z"/>
        </g>
        <g stroke="#000" class="edge">
            <path fill="none" d="M3390.4 461.97c93.85 9.74 268.43 28.22 417.08 46.03 122.82 14.72 153.19 21.07 276 36 138.3 16.82 299.74 34.62 392.89 44.72"/>
            <path d="m4476.59 585.22 9.57 4.56-10.32 2.4z"/>
        </g>
        <g stroke="#000" class="edge">
            <path fill="none" d="M3395.04 458.66c231.75 11.71 954.19 48.2 1216.79 61.46"/>
            <path d="m4611.91 516.62 9.81 4-10.17 2.99z"/>
        </g>
        <g stroke="#000" class="edge">
            <path fill="none" d="M3264.23 465.74c-55.96 12.95-127.79 38.13-96.75 78.26 16.08 20.8 78.39 34.95 129.96 43.36"/>
            <path d="m3297.77 583.87 9.33 5.01-10.42 1.9z"/>
        </g>
        <g stroke="#000" class="edge">
            <path fill="none" d="M3348.42 471.37c34.28 20.74 97.21 55.81 156.06 72.63 142.5 40.74 314.99 51.02 420.31 53.16"/>
            <path d="m3924.58 593.65 9.94 3.68-10.07 3.32z"/>
        </g>
        <g stroke="#000" class="edge">
            <path fill="none" d="M4649.95 250.51c129.03 23.56 417.91 83.8 642.53 185.49 53.23 24.1 74.02 25.96 110 72 13.78 17.64 21.68 41.85 26.06 60.56"/>
            <path d="m5431.93 567.68-1.37 10.51-5.48-9.06z"/>
        </g>
        <g stroke="#000" class="edge">
            <path fill="none" d="M4496.97 244.69c-72.28 6.5-177.91 20-266.49 47.31-250.02 77.07-279.03 185.27-532 252-175.59 46.32-226.34 17.64-407 36-22.13 2.25-46.1 4.91-68.17 7.44"/>
            <path d="m3223.8 590.91-10.33-2.33 9.53-4.62z"/>
        </g>
        <g stroke="#000" class="edge">
            <path fill="none" d="M4614.15 255.3c72.87 37.93 249.75 132.53 296.33 180.7 35.57 36.8 73.71 69.49 40 108-20.46 23.37-205.76 39.94-315.83 47.81"/>
            <path d="m4634.99 595.3-10.22-2.79 9.73-4.2z"/>
        </g>
        <g stroke="red" stroke-width="2" class="edge">
            <path fill="none" d="M4549.21 255.06c-20.26 9.78-46.38 22.39-68.26 32.95"/>
            <path fill="red" d="m4483.84 290.5-10.53 1.2 7.49-7.5z"/>
        </g>
        <g stroke="#000" class="edge">
            <path fill="none" d="M4586.4 256.41c5.43 24.09 15.29 67.84 21.76 96.56"/>
            <path d="m4611.5 351.89-1.21 10.52-5.62-8.98z"/>
        </g>
        <g stroke="#000" class="edge">
            <path fill="none" d="M4593.43 256.06c12.41 18.69 33.82 49.05 56.05 71.94 17.84 18.38 32.91 13.42 45 36 22.4 41.86 21.3 98.73 17.98 132.47"/>
            <path d="m4715.96 496.74-4.61 9.54-2.35-10.33z"/>
        </g>
        <g stroke="#000" class="edge">
            <path fill="none" d="M4504.08 247.58c-54.46 7.62-128.01 21.24-189.6 44.42-221.47 83.35-240.91 189.01-469 252-133.84 36.96-295.72 48.24-391.47 51.63"/>
            <path d="m3454.28 599.12-10.11-3.17 9.88-3.83z"/>
        </g>
        <g stroke="#000" class="edge">
            <path fill="none" d="M4504.43 247.59c-60.3 8.2-137.2 22.58-159.95 44.41-85.83 82.33 5.87 181.63-90 252-39.7 29.14-92.67 42.65-138.08 48.76"/>
            <path d="m4116.89 596.23-10.35-2.26 9.5-4.69z"/>
        </g>
        <g stroke="#000" class="edge">
            <path fill="none" d="M3837.73 462.79c87.78 9.57 239.24 26.81 368.75 45.21 97.66 13.88 120.93 25.39 219 36 348.71 37.71 768.31 48.85 934.8 51.92"/>
            <path d="m5359.9 592.41 9.93 3.68-10.06 3.32z"/>
        </g>
        <g stroke="#000" class="edge">
            <path fill="none" d="M3688.96 461.84c-117.97 11-336.04 32.76-369.48 46.16-24.76 9.92-24.84 22.8-48 36-23.65 13.48-51.41 25.4-75.01 34.5"/>
            <path d="m3197.95 581.68-10.59.27 8.11-6.81z"/>
        </g>
        <g stroke="#000" class="edge">
            <path fill="none" d="M3833.84 464.2c70.21 9.64 181.8 25.85 277.64 43.8 72.49 13.58 89.75 21.14 162 36 71.89 14.79 154.49 30.24 211.25 40.61"/>
            <path d="m4485.03 581.11 9.21 5.24-10.47 1.65z"/>
        </g>
        <g stroke="#000" class="edge">
            <path fill="none" d="M3842.13 460.76c172.37 12.78 586.37 43.48 772.69 57.3"/>
            <path d="m4615 514.56 9.71 4.23-10.23 2.75z"/>
        </g>
        <g stroke="#000" class="edge">
            <path fill="none" d="M3688.16 461.48c-101.63 9.31-271.16 27.45-292.68 46.52-16.95 15.01-22.49 40.6-24.07 60.5"/>
            <path d="m3374.92 568.39-3.96 9.82-3.03-10.15z"/>
        </g>
        <g stroke="#000" class="edge">
            <path fill="none" d="M3785.49 471.58c24.83 19.07 67.83 50.58 107.99 72.42 23.81 12.96 51.48 24.78 74.98 33.96"/>
            <path d="m3969.44 574.58 8.08 6.86-10.59-.32z"/>
        </g>
        <g stroke="#000" class="edge">
            <path fill="none" d="M685.68 382.33c-209.41.16-615.25 6.64-659.2 53.67-10.93 11.69-8.83 22.65 0 36 45.01 68.11 89.15 54.95 169 72 142.92 30.52 2377.32 48.77 2857.54 52.35"/>
            <path d="m3052.88 592.85 9.98 3.57-10.03 3.43z"/>
        </g>
        <g stroke="#000" class="edge">
            <path fill="none" d="M896.66 395.08c15.25 1.84 30.98 3.58 45.82 4.92 298.31 27.01 374.25 14.29 673 36 28.54 2.07 59.52 4.75 87.81 7.37"/>
            <path d="m1703.27 439.85 9.63 4.41-10.28 2.56z"/>
        </g>
        <g class="node" transform="translate(4 616)">
            <ellipse cx="1164.48" cy="-162" fill="none" stroke="#000" rx="80.01" ry="18"/>
            <text x="1164.48" y="-156.95" font-family="Times,serif" font-size="14" text-anchor="middle">:library:koin-room</text>
        </g>
        <g stroke="#000" class="edge">
            <path fill="none" d="M881.26 397c63.12 12.3 154.44 30.11 217.07 42.32"/>
            <path d="m1098.66 435.82 9.14 5.35-10.48 1.52z"/>
        </g>
        <g class="node" transform="translate(4 616)">
            <ellipse cx="1005.48" cy="-162" fill="none" stroke="#000" rx="60.56" ry="18"/>
            <text x="1005.48" y="-156.95" font-family="Times,serif" font-size="14" text-anchor="middle">:library:room</text>
        </g>
        <g stroke="#000" class="edge">
            <path fill="none" d="M855.61 399.15c31.51 11.03 73.19 25.61 105.22 36.82"/>
            <path d="m961.58 432.53 8.28 6.61h-10.59z"/>
        </g>
        <g stroke="#000" class="edge">
            <path fill="none" d="M991.99 395.3c-102.86 14.05-256.24 35.73-260.51 40.7-10.44 12.13-7.78 22.02 0 36 29.49 53.03 57.84 54.69 116 72 107.28 31.93 1793.39 48.63 2205.6 52.24"/>
            <path d="m3052.84 592.74 9.97 3.59-10.03 3.41z"/>
        </g>
        <g stroke="#000" class="edge">
            <path fill="none" d="M1176.67 395.14c15.93 1.81 32.33 3.52 47.81 4.86 303.73 26.26 381.57 6.41 685 36 9.91.97 20.27 2.16 30.55 3.47"/>
            <path d="m1940.18 435.96 9.46 4.77-10.37 2.17z"/>
        </g>
        <g stroke="#000" class="edge">
            <path fill="none" d="M1104.05 399.95c10.65 8.77 23.83 19.62 35.49 29.22"/>
            <path d="m1141.43 426.19 5.49 9.06-9.94-3.66z"/>
        </g>
        <g stroke="#000" class="edge">
            <path fill="none" d="M1065.18 400.3c-9 8.52-20.01 18.94-29.86 28.25"/>
            <path d="m1037.82 431.01-9.67 4.33 4.86-9.42z"/>
        </g>
        <g stroke="#000" class="edge">
            <path fill="none" d="M627.61 468.21c95.77 12.5 238.75 31.18 334.32 43.66"/>
            <path d="m962.38 508.4 9.46 4.76-10.37 2.18z"/>
        </g>
        <g class="node" transform="translate(4 616)">
            <ellipse cx="320.48" cy="-90" fill="none" stroke="#000" rx="93.32" ry="18"/>
            <text x="320.48" y="-84.95" font-family="Times,serif" font-size="14" text-anchor="middle">:library:koin-datastore</text>
        </g>
        <g stroke="#000" class="edge">
            <path fill="none" d="M478.61 471.59c-29.85 10.34-68.35 23.68-99.41 34.45"/>
            <path d="m380.58 509.26-10.6-.03 8.31-6.58z"/>
        </g>
        <g stroke="#000" class="edge">
            <path fill="none" d="M1352.89 400.34c-9.5 33.22-24.21 105.86 14.59 143.66 30.48 29.7 1328.71 47.58 1685.88 51.95"/>
            <path d="m3053.19 592.45 9.95 3.62-10.04 3.38z"/>
        </g>
        <g stroke="#000" class="edge">
            <path fill="none" d="M1445.94 395.2c15.48 1.84 31.46 3.55 46.54 4.8 399.82 33.28 501.45 12.88 902 36 40.4 2.33 84.83 5.55 123.46 8.56"/>
            <path d="m2518 441.05 9.69 4.27-10.24 2.71z"/>
        </g>
        <g stroke="#000" class="edge">
            <path fill="none" d="M1314.41 399.24c-28.32 10.43-65.2 24.02-94.8 34.92"/>
            <path d="m1221.07 437.35-10.59.17 8.17-6.74z"/>
        </g>
        <g stroke="#000" class="edge">
            <path fill="none" d="M1281.59 396.53c-56.15 10.14-134.05 24.75-202.11 39.47-4.54.98-9.24 2.04-13.94 3.12"/>
            <path d="m1066.59 442.47-10.53-1.13 8.93-5.69z"/>
        </g>
        <g stroke="#000" class="edge">
            <path fill="none" d="M192.71 472.14c1.32 20.88 7.06 55.39 29.77 71.86 43.77 31.75 3838.94 34.7 3893 36 124.08 2.98 267.84 9.06 355.84 13.09"/>
            <path d="m4471.22 589.58 9.83 3.95-10.15 3.04z"/>
        </g>
        <g stroke="#000" class="edge">
            <path fill="none" d="M271.21 470.02c60.27 11.49 143.23 27.32 204.68 39.04"/>
            <path d="m476.45 505.6 9.17 5.31-10.48 1.57z"/>
        </g>
        <g stroke="#000" class="edge">
            <path fill="none" d="M224.43 471.95c17.85 9.46 40.28 21.35 59.37 31.48"/>
            <path d="m285.19 500.21 7.2 7.77-10.48-1.59z"/>
        </g>
        <g stroke="#000" class="edge">
            <path fill="none" d="M1545.03 395.74c-70.13 10.9-157.66 26.9-168.55 40.26-14.1 17.28-7.93 93.3 8 108 30.94 28.55 1313.42 47.24 1668.63 51.87"/>
            <path d="m3053.13 592.37 9.96 3.63-10.05 3.37z"/>
        </g>
        <g stroke="#000" class="edge">
            <path fill="none" d="M1634.6 400.29c1.07 19.74 5.73 51.87 23.88 71.71 15.75 17.23 37.6 28.88 59.53 36.74"/>
            <path d="m1718.92 505.36 8.39 6.47-10.59.17z"/>
        </g>
        <g stroke="#000" class="edge">
            <path fill="none" d="M1547.64 396.04c-87.1 13.09-219.93 33.04-303.03 45.52"/>
            <path d="m1245.38 444.99-10.41-1.98 9.37-4.94z"/>
        </g>
        <g stroke="#000" class="edge">
            <path fill="none" d="M1538.66 394.9c-15.43 1.79-31.24 3.55-46.18 5.1-183.28 18.95-231.18 6.17-413 36-4.93.81-10.02 1.78-15.1 2.84"/>
            <path d="m1065.33 442.21-10.52-1.26 9.01-5.57z"/>
        </g>
        <g stroke="#000" class="edge">
            <path fill="none" d="M5250.38 244.79c169.08 12.89 575.88 43.91 754.96 57.57"/>
            <path d="m6005.59 298.86 9.71 4.25-10.24 2.73z"/>
        </g>
        <g stroke="#000" class="edge">
            <path fill="none" d="M5186.92 256.11c17.5 23.49 49.06 63.76 65.56 71.89 15.78 7.78 494.51 35.06 713.06 47.15"/>
            <path d="m5965.72 371.66 9.79 4.04-10.18 2.95z"/>
        </g>
        <g stroke="#000" class="edge">
            <path fill="none" d="M5212.66 254.36c25.44 10.23 59.1 23.78 86.55 34.82"/>
            <path d="m5300.4 285.89 7.97 6.98-10.58-.49z"/>
        </g>
        <g stroke="#000" class="edge">
            <path fill="none" d="M5176.55 256.37c3.49 20.77 12.61 54.84 35.93 71.63 80.14 57.72 344.92 24.29 443 36 101.86 12.16 126.3 22.5 228 36 151.04 20.05 328.94 37.75 423.99 46.74"/>
            <path d="m6307.79 443.26 9.62 4.42-10.28 2.55z"/>
        </g>
        <g stroke="#000" class="edge">
            <path fill="none" d="M5170.23 256.39c-3.78 20.16-6.2 52.98 12.25 71.61 56.4 56.99 292.49-8.78 359 36 69.72 46.94 107.57 112.13 58 180-21.5 29.43-59.52 42.9-93.76 48.91"/>
            <path d="m5506.68 596.3-10.42-1.92 9.35-4.99z"/>
        </g>
        <g stroke="#000" class="edge">
            <path fill="none" d="M5240.74 248.81c86.89 12.86 239 35.37 330.55 48.91"/>
            <path d="m5571.54 294.22 9.38 4.93-10.4 2z"/>
        </g>
        <g stroke="#000" class="edge">
            <path fill="none" d="M5162.73 256.27c-38.49 54.87-167.36 225.3-323.25 287.73-79.86 31.98-1462.18 30.09-1548 36-22.85 1.57-47.6 4.09-70.2 6.72"/>
            <path d="m3221.88 590.17-10.34-2.3 9.51-4.65z"/>
        </g>
        <g stroke="#000" class="edge">
            <path fill="none" d="M5168.18 256.42c-5.63 18.2-11.97 47.43-4.7 71.58 31.56 104.96 193.64 135.74 119 216-43.1 46.34-461.64 52.64-644.37 53.17"/>
            <path d="m4638.21 600.67-10.01-3.48 9.99-3.52z"/>
        </g>
        <g stroke="#000" class="edge">
            <path fill="none" d="M5253.5 242.95c221.39 11.1 837.51 42.18 928.98 49.05 27.8 2.09 58.04 4.87 85.41 7.57"/>
            <path d="m6267.91 296.05 9.6 4.48-10.3 2.49z"/>
        </g>
        <g stroke="#000" class="edge">
            <path fill="none" d="M5115.88 250.86c-10.75 1.92-21.89 3.73-32.4 5.14-196.04 26.28-427.4 41.46-553.17 48.39"/>
            <path d="m4530.53 307.88-10.18-2.95 9.79-4.04z"/>
        </g>
        <g stroke="#000" class="edge">
            <path fill="none" d="M5114.65 250.62c-64.28 12.61-162.21 32.15-199.17 41.38-87.6 21.87-187.9 52.71-247.76 71.75"/>
            <path d="m4669.06 367-10.59-.3 8.46-6.37z"/>
        </g>
        <g stroke="#000" class="edge">
            <path fill="none" d="M5653.17 247.37c90.17 12.65 261.18 36.64 361.16 50.67"/>
            <path d="m6014.65 294.55 9.42 4.85-10.39 2.08z"/>
        </g>
        <g stroke="#000" class="edge">
            <path fill="none" d="M5650.95 248.28c51.52 8.97 128.88 24.1 194.53 43.72 64.01 19.14 135.39 48.51 180.71 68.22"/>
            <path d="m6027.42 356.94 7.76 7.22-10.56-.81z"/>
        </g>
        <g stroke="#000" class="edge">
            <path fill="none" d="M5548.25 251.92c-39.17 11.19-96.17 27.48-139.27 39.79"/>
            <path d="m5410.1 295.03-10.58-.61 8.66-6.12z"/>
        </g>
        <g stroke="#000" class="edge">
            <path fill="none" d="M5643.04 250.84c35.83 9.29 85.02 23.58 126.44 41.16 90.48 38.4 99.66 77.18 193 108 115.71 38.21 258.11 49.08 341.88 52.05"/>
            <path d="m6304.38 448.54 9.89 3.83-10.11 3.17z"/>
        </g>
        <g stroke="#000" class="edge">
            <path fill="none" d="M5655.94 245.82c29.56 6.71 62.31 19.99 80.54 46.18 21.74 31.24 59.77 148.75-43 252-26.04 26.16-121.34 40.33-189 47.28"/>
            <path d="m5504.84 594.76-10.3-2.5 9.61-4.46z"/>
        </g>
        <g stroke="#000" class="edge">
            <path fill="none" d="M5606.55 255.95c6.3 8.16 13.99 18.14 21 27.23"/>
            <path d="m5630.26 280.96 3.34 10.05-8.88-5.78z"/>
        </g>
        <g stroke="#000" class="edge">
            <path fill="none" d="M5575.97 255.73c-21.19 19.52-58.63 51.72-95.49 72.27-244.64 136.36-316.77 164.15-592 216-348.85 65.71-1242.86 11.72-1597 36-22.85 1.57-47.6 4.08-70.2 6.7"/>
            <path d="m3221.88 590.16-10.34-2.3 9.51-4.65z"/>
        </g>
        <g stroke="#000" class="edge">
            <path fill="none" d="M5581.57 255.84c-7.05 10.25-15.97 23.72-23.09 36.16-62.08 108.3-20.06 182.88-124 252-65.28 43.4-589.11 51.28-796.71 52.7"/>
            <path d="m4637.88 600.2-10.02-3.44 9.97-3.56z"/>
        </g>
        <g stroke="#000" class="edge">
            <path fill="none" d="M5657.99 244.64c108.37 9.52 333.84 29.47 524.49 47.36 27.23 2.56 56.86 5.42 83.81 8.06"/>
            <path d="m6266.55 296.56 9.61 4.46-10.29 2.51z"/>
        </g>
        <g stroke="#000" class="edge">
            <path fill="none" d="M5527.17 243.01c-196.05 11.88-773.31 46.83-998.37 60.46"/>
            <path d="m4529.08 306.96-10.19-2.89 9.77-4.1z"/>
        </g>
        <g stroke="#000" class="edge">
            <path fill="none" d="M5558.95 253.78c-21.29 9.7-48.76 23.33-71.47 38.22-20.85 13.67-19.86 26.75-43 36-34.38 13.75-546.64 39.5-748.82 49.18"/>
            <path d="m4695.91 380.68-10.15-3.02 9.82-3.98z"/>
        </g>
        <g stroke="#000" class="edge">
            <path fill="none" d="M6424.85 182.47c-68.66 26.13-207.43 78.97-282.11 107.39"/>
            <path d="m6144.21 293.05-10.59.29 8.1-6.83z"/>
        </g>
        <g stroke="#000" class="edge">
            <path fill="none" d="M6470.51 184.27c8.37 32.76 20.85 104.19-16.03 143.73-35.68 38.25-170.08 49.55-269.42 52.55"/>
            <path d="m6185.34 384.05-10.09-3.23 9.9-3.77z"/>
        </g>
        <g stroke="#000" class="edge">
            <path fill="none" d="M6376.43 167.09c-204.15.99-700.68 8.09-860.95 52.91-49.9 13.95-101.69 44.48-134.11 65.88"/>
            <path d="m5383.47 288.69-10.26 2.66 6.36-8.48z"/>
        </g>
        <g stroke="#000" class="edge">
            <path fill="none" d="M6550.67 171.41c137.06 10.42 383.49 44.87 303.81 156.59-47.8 67.02-292.3 103.73-412.34 117.97"/>
            <path d="m6442.77 449.42-10.34-2.32 9.53-4.63z"/>
        </g>
        <g stroke="#000" class="edge">
            <path fill="none" d="M6553.7 168.69c181.8 4.16 585.55 17.16 637.78 51.31 64.18 41.96 62 84.32 62 161v74c0 82.15-82.77 67.31-162 89-153.93 42.13-1284.22 51.04-1584.78 52.67"/>
            <path d="m5507.06 600.17-10.02-3.45 9.98-3.55z"/>
        </g>
        <g stroke="#000" class="edge">
            <path fill="none" d="M6379.32 170.62c-146.88 6.77-439.48 23.12-538.84 49.38-57.15 15.1-118.34 46.15-156.15 67.28"/>
            <path d="m5686.52 290.06-10.43 1.88 6.98-7.97z"/>
        </g>
        <g stroke="#000" class="edge">
            <path fill="none" d="M6535.35 177.41c15.51 2.24 31.87 4.54 47.13 6.59 65.02 8.72 243.29-6.81 293 36 62.02 53.42 29.36 134.98-39 180-96.57 63.59-135.97 52.85-250 72-150.55 25.29-1219.45 66.57-1372 72-854.28 30.4-1070.08-20.84-1923 36-22.85 1.52-47.6 4.03-70.2 6.65"/>
            <path d="m3221.87 590.1-10.34-2.29 9.52-4.66z"/>
        </g>
        <g stroke="#000" class="edge">
            <path fill="none" d="M6554.18 167.71c169.07 2.27 524.03 11.86 561.3 52.29 79.28 86.01 19.5 184.44-76 252-179.34 126.87-270.15 53.05-489 72-96.54 8.36-1546.7 42.52-1913.3 51.06"/>
            <path d="m4637.47 598.55-10.08-3.26 9.91-3.74z"/>
        </g>
        <g stroke="#000" class="edge">
            <path fill="none" d="M6454.39 184.15c-11.98 18.25-31.93 47.73-50.91 71.85-7.34 9.32-15.83 19.15-23.55 27.77"/>
            <path d="m6382.57 286.07-9.32 5.06 4.13-9.76z"/>
        </g>
        <g stroke="#000" class="edge">
            <path fill="none" d="M6535.68 177.3c15.42 2.23 31.65 4.56 46.8 6.7 58.41 8.24 216.25.02 263 36 39.47 30.39 53.31 63.98 30 108-72.61 137.09-423.48 143.1-431 144-34.81 4.14-2247.35 42.68-2744.55 51.3"/>
            <path d="m3700.08 526.79-10.06-3.32 9.94-3.67z"/>
        </g>
        <g stroke="#000" class="edge">
            <path fill="none" d="M6378.11 169.3c-238.18 6.43-918.9 25.7-1484.63 50.7-71.46 3.16-152.09 7.59-213.35 11.14"/>
            <path d="m4680.62 234.61-10.19-2.91 9.78-4.07z"/>
        </g>
        <g class="node" transform="translate(4 616)">
            <ellipse cx="6726.48" cy="-306" fill="none" stroke="#000" rx="115.33" ry="18"/>
            <text x="6726.48" y="-300.95" font-family="Times,serif" font-size="14" text-anchor="middle">:app:core:calendar-compose</text>
        </g>
        <g stroke="#000" class="edge">
            <path fill="none" d="M6546.27 173.73c40.89 6.68 89.5 19.96 126.21 46.27 21.5 15.41 37.11 41.49 46.69 61.45"/>
            <path d="m6722.29 279.87.95 10.55-7.32-7.66z"/>
        </g>
        <g stroke="#000" class="edge">
            <path fill="none" d="M6515.88 248.51c-89.89 12.85-249.77 35.69-345.25 49.32"/>
            <path d="m6171.21 301.29-10.39-2.05 9.4-4.88z"/>
        </g>
        <g stroke="#000" class="edge">
            <path fill="none" d="M6566.83 255.97c-21.9 23.34-61.05 63.42-79.35 72.03-53.03 24.96-204.1 39.51-308.55 46.86"/>
            <path d="m6179.44 378.33-10.22-2.8 9.74-4.18z"/>
        </g>
        <g stroke="#000" class="edge">
            <path fill="none" d="M6503.74 242.29c-171.75 7.36-592.9 26.33-945.26 49.71-39.36 2.61-82.83 6.04-119.96 9.13"/>
            <path d="m5438.98 304.61-10.26-2.66 9.68-4.32z"/>
        </g>
        <g stroke="#000" class="edge">
            <path fill="none" d="M6582.55 256.22c-.72 19.11-4.33 50.09-19.07 71.78-34.92 51.35-98.63 87.02-142.11 106.75"/>
            <path d="m6422.99 437.85-10.56.84 7.74-7.24z"/>
        </g>
        <g stroke="#000" class="edge">
            <path fill="none" d="M6661.11 242.42c112.38 5.84 312.59 20.1 378.37 49.58 54.29 24.33 100 29.5 100 89v74c0 59.5-44.75 66.92-100 89-71.9 28.73-1227.04 47.49-1532.43 51.96"/>
            <path d="m5507.26 599.46-10.05-3.35 9.95-3.65z"/>
        </g>
        <g stroke="#000" class="edge">
            <path fill="none" d="M6507.15 244.64c-171.89 12.87-592.16 44.33-773.76 57.93"/>
            <path d="m5733.78 306.05-10.24-2.74 9.72-4.24z"/>
        </g>
        <g stroke="#000" class="edge">
            <path fill="none" d="M6661.03 242.36c76.49 5.11 184.98 17.9 211.45 49.64 10.24 12.29 7.83 22.05 0 36-81.93 145.96-182.93 116.27-348 144-267.27 44.9-949.33 9.14-1219 36-94.67 9.43-116.3 27.03-211 36-797.92 75.61-1003.32-17.79-1803 36-22.85 1.54-47.6 4.04-70.2 6.67"/>
            <path d="m3221.88 590.12-10.35-2.3 9.52-4.65z"/>
        </g>
        <g stroke="#000" class="edge">
            <path fill="none" d="M6660.71 242.55c96.39 5.62 253.46 19.2 302.77 49.45 41.09 25.21 62 40.79 62 89v74c0 213.58-743.85 75.37-957 89-544.99 34.84-1201.82 48.02-1431.15 51.77"/>
            <path d="m4637.65 599.26-10.05-3.34 9.94-3.66z"/>
        </g>
        <g stroke="#000" class="edge">
            <path fill="none" d="M6536.74 253.17c-35.22 10.9-84.14 26.06-122.13 37.82"/>
            <path d="m6415.73 294.31-10.59-.38 8.52-6.31z"/>
        </g>
        <g stroke="#000" class="edge">
            <path fill="none" d="M6659.9 243.37c71.53 5.86 170.29 19.16 194.58 48.63 10.17 12.35 9.25 22.95 0 36-27.92 39.39-362.53 135.2-410 144-273.9 50.76-974.59 27.1-1253 36-133.31 4.26-287.29 9.78-384.87 13.36"/>
            <path d="m4806.92 524.85-10.12-3.13 9.86-3.86z"/>
        </g>
        <g stroke="#000" class="edge">
            <path fill="none" d="M6575.61 256.39c-9.03 20.47-26.87 53.9-53.13 71.61-128.08 86.34-186.53 54.6-340 72-463.32 52.54-1632 19.63-2098 36-77.63 2.73-165.77 7.54-229.86 11.34"/>
            <path d="m3855.05 450.83-10.19-2.9 9.77-4.09z"/>
        </g>
        <g stroke="#000" class="edge">
            <path fill="none" d="M5962.5 254.19c24.3 10.25 56.62 23.88 82.95 34.98"/>
            <path d="m6046.7 285.9 7.86 7.11-10.58-.66z"/>
        </g>
        <g stroke="#000" class="edge">
            <path fill="none" d="M5939.21 256.02c14.35 18.66 38.87 48.98 63.27 71.98 11.02 10.4 24.04 20.71 35.84 29.44"/>
            <path d="m6040.2 354.48 6.04 8.7-10.15-3.03z"/>
        </g>
        <g stroke="#000" class="edge">
            <path fill="none" d="M5859.32 247.13c-105.65 12.8-310.55 37.61-426.16 51.61"/>
            <path d="m5433.77 302.2-10.35-2.28 9.51-4.67z"/>
        </g>
        <g stroke="#000" class="edge">
            <path fill="none" d="M5998.75 244.47c53.01 6.22 125.58 19.46 183.73 47.53 70.64 34.1 137.24 99.7 170.64 135.74"/>
            <path d="m6355.69 425.37 4.17 9.75-9.33-5.03z"/>
        </g>
        <g stroke="#000" class="edge">
            <path fill="none" d="M6002.87 240.86c216.3 5.59 819.47 23.58 851.61 51.14 30.7 26.33 19 48.55 19 89v74c0 138.75-1072.43 143.77-1366.31 142.55"/>
            <path d="m5507.31 601.05-9.98-3.55 10.01-3.45z"/>
        </g>
        <g stroke="#000" class="edge">
            <path fill="none" d="M5875.3 251.84c-46.51 11.67-115.26 28.92-165.07 41.42"/>
            <path d="m5711.29 296.6-10.55-.96 8.85-5.83z"/>
        </g>
        <g stroke="#000" class="edge">
            <path fill="none" d="M5906.27 255.79c-24.86 19.87-69.04 52.73-111.79 72.21-168.74 76.88-622.43 189.84-806 216-373.43 53.2-1320.67 10.45-1697 36-22.85 1.55-47.6 4.06-70.2 6.69"/>
            <path d="m3221.88 590.14-10.35-2.3 9.52-4.65z"/>
        </g>
        <g stroke="#000" class="edge">
            <path fill="none" d="M5930.06 256.47c2.92 19.05 4.68 49.71-8.58 71.53-97.93 161.07-184.57 161.45-365 216-170.77 51.62-709.29 54.58-918.62 53.69"/>
            <path d="m4638.14 601.19-9.98-3.54 10.01-3.46z"/>
        </g>
        <g stroke="#000" class="edge">
            <path fill="none" d="M5988.08 249.03c76.16 12.4 205.88 33.51 289.32 47.1"/>
            <path d="m6277.8 292.65 9.3 5.06-10.43 1.84z"/>
        </g>
        <g stroke="#000" class="edge">
            <path fill="none" d="M5898.1 255.04c-36.37 19.9-101.86 53.57-161.62 72.96-91.06 29.54-728.67 143.91-951.42 183.46"/>
            <path d="m4785.77 514.89-10.45-1.7 9.23-5.2z"/>
        </g>
        <g stroke="#000" class="edge">
            <path fill="none" d="M5854.25 244.58c-51.03 3.75-121.06 8.53-182.77 11.42-589.35 27.63-737.32 16.94-1327 36-119.5 3.86-256.69 9.13-348.5 12.77"/>
            <path d="m3996.38 308.26-10.14-3.1 9.86-3.9z"/>
        </g>
        <g stroke="#000" class="edge">
            <path fill="none" d="M5049.63 251.1c11.23 1.89 22.86 3.63 33.85 4.9 45.22 5.21 680.63 36.83 919.28 48.59"/>
            <path d="m6002.84 301.09 9.81 3.99-10.16 3z"/>
        </g>
        <g stroke="#000" class="edge">
            <path fill="none" d="M5019.73 255.12c42.4 20.98 121.07 56.86 192.75 72.88 139.44 31.16 549.7 45.33 748.92 50.51"/>
            <path d="m5961.34 375.01 9.9 3.76-10.08 3.24z"/>
        </g>
        <g stroke="#000" class="edge">
            <path fill="none" d="M5049.95 250.95c62.46 12.15 159.19 30.96 225.51 43.85"/>
            <path d="m5276.02 291.34 9.14 5.35-10.48 1.53z"/>
        </g>
        <g stroke="#000" class="edge">
            <path fill="none" d="M5016.29 255.35c36.7 20.71 103.96 55.76 166.19 72.65 154.75 42 202.1 2.87 359 36 50.33 10.63 59.53 26.05 110 36 235.85 46.51 522.17 53.13 652.82 53.49"/>
            <path d="m6304.19 449.99 10 3.51-10.01 3.49z"/>
        </g>
        <g stroke="#000" class="edge">
            <path fill="none" d="M5001.46 256.07c16.87 20.8 48.42 55.24 84.02 71.93 188.57 88.42 315.6-45.84 456 108 32.9 36.06 47.12 67.41 20 108-14.32 21.42-39.06 34.19-62.99 41.8"/>
            <path d="m5499.62 589.12-10.58-.59 8.64-6.14z"/>
        </g>
        <g stroke="#000" class="edge">
            <path fill="none" d="M5050.45 250.86c10.98 1.88 22.32 3.68 33.03 5.14 90.19 12.29 344.82 34.51 478.94 45.88"/>
            <path d="m5562.66 298.39 9.67 4.33-10.26 2.65z"/>
        </g>
        <g stroke="#000" class="edge">
            <path fill="none" d="M4958.87 255.33c-14.59 9.23-31.54 21.88-43.39 36.67-76.31 95.23-7.82 183.79-109 252-69.81 47.06-1431.01 30.19-1515 36-22.85 1.58-47.6 4.1-70.2 6.72"/>
            <path d="m3221.88 590.18-10.34-2.3 9.51-4.65z"/>
        </g>
        <g stroke="#000" class="edge">
            <path fill="none" d="M4984.53 256.35c-3.32 18.94-5.74 49.52 6.95 71.65 75.74 132.12 369.56 104.35 266 216-41.35 44.57-441.42 51.89-619.38 52.93"/>
            <path d="m4638.23 600.43-10.02-3.45 9.99-3.55z"/>
        </g>
        <g stroke="#000" class="edge">
            <path fill="none" d="M5049.11 251.19c11.37 1.91 23.2 3.63 34.37 4.81 486.02 51.18 611.32 4.22 1099 36 28.08 1.83 58.65 4.56 86.22 7.31"/>
            <path d="m6268.8 295.8 9.6 4.49-10.3 2.48z"/>
        </g>
        <g stroke="#000" class="edge">
            <path fill="none" d="M4939.91 253.29c-21.44 8.36-45.56 20.87-62.43 38.71-59.45 62.83-16.58 115.31-74 180-12.04 13.56-28.4 24.4-44.16 32.65"/>
            <path d="m4760.98 507.74-10.51 1.3 7.41-7.58z"/>
        </g>
        <g stroke="#000" class="edge">
            <path fill="none" d="M4906.92 244.2c-196.96 12.57-698.19 44.56-914.04 58.33"/>
            <path d="m3993.28 306.01-10.2-2.86 9.76-4.13z"/>
        </g>
        <g class="node" transform="translate(4 616)">
            <ellipse cx="2815.48" cy="-90" fill="none" stroke="#000" rx="106.11" ry="18"/>
            <text x="2815.48" y="-84.95" font-family="Times,serif" font-size="14" text-anchor="middle">:library:firebase-common</text>
        </g>
        <g stroke="#000" class="edge">
            <path fill="none" d="M2901.33 471.95c-13.93 9.02-31.26 20.26-46.39 30.06"/>
            <path d="m2856.94 504.89-10.29 2.5 6.49-8.38z"/>
        </g>
        <g stroke="#000" class="edge">
            <path fill="none" d="M2624.14 472.24c6.68 20.97 21.15 55.59 47.34 71.76 53.05 32.76 497.91 30.24 560 36 21.69 2.01 45.23 4.68 66.7 7.31"/>
            <path d="m3298.53 583.82 9.5 4.71-10.36 2.24z"/>
        </g>
        <g stroke="#000" class="edge">
            <path fill="none" d="M1898.51 535.15c40.41 3.18 87.95 6.6 130.97 8.85 533.73 27.96 669.05-4.25 1202 36 22.03 1.66 45.94 4.27 67.65 6.94"/>
            <path d="m3299.28 583.43 9.48 4.72-10.36 2.23z"/>
        </g>
        <g stroke="#000" class="edge">
            <path fill="none" d="M2044.9 471.97c21.96 21.4 63.19 57.18 106.58 72.03 113.59 38.89 960.29 26.75 1080 36 22.03 1.7 45.93 4.32 67.65 6.99"/>
            <path d="m3299.27 583.48 9.49 4.72-10.36 2.23z"/>
        </g>
        <g stroke="#000" class="edge">
            <path fill="none" d="M1051.87 467.29c73.61 20.65 230.16 61.53 365.61 76.71 297.94 33.39 2398.29 28.19 2698 36 123.89 3.23 267.41 9.23 355.45 13.17"/>
            <path d="m4470.84 589.66 9.83 3.95-10.15 3.04z"/>
        </g>
        <g stroke="#000" class="edge">
            <path fill="none" d="M6637.25 320.92c-124.24 13.21-342.97 36.48-468.65 49.85"/>
            <path d="m6169.29 374.22-10.31-2.42 9.57-4.54z"/>
        </g>
        <g stroke="#000" class="edge">
            <path fill="none" d="M6710.9 328.04c-24.12 20.12-67.14 53.22-109.42 71.96-51.74 22.93-114.72 36.65-161.04 44.37"/>
            <path d="m6441.26 447.78-10.43-1.87 9.32-5.04z"/>
        </g>
        <g stroke="#000" class="edge">
            <path fill="none" d="M6717.92 328.39c-15.14 19.84-42.34 52.05-72.44 71.61-79.58 51.7-108.65 50.2-201 72-260.97 61.6-331.73 50.49-599 72-454.89 36.61-1002.02 48.5-1208.07 51.84"/>
            <path d="m4637.66 599.34-10.05-3.34 9.94-3.66z"/>
        </g>
    </g>
</svg>
