<svg xmlns="http://www.w3.org/2000/svg" width="2852" height="404pt" viewBox="0 0 2139.23 404">
    <g class="graph">
        <path fill="#fff" d="M0 404V0h2139.23v404z"/>
        <g class="node" transform="translate(4 400)">
            <ellipse cx="729.23" cy="-378" fill="none" stroke="#000" rx="88.71" ry="18"/>
            <text x="729.23" y="-372.95" font-family="Times,serif" font-size="14" text-anchor="middle">:app:feature:calendar</text>
        </g>
        <g class="node" transform="translate(4 400)">
            <ellipse cx="563.23" cy="-306" fill="none" stroke="#000" rx="81.04" ry="18"/>
            <text x="563.23" y="-300.95" font-family="Times,serif" font-size="14" text-anchor="middle">:app:core:compose</text>
        </g>
        <g stroke="#000" class="edge">
            <path fill="none" d="M695.97 38.71c-24.19 10.2-55.93 23.59-81.84 34.51"/>
            <path d="m615.75 76.34-10.57.66 7.85-7.11z"/>
        </g>
        <g class="node" transform="translate(4 400)">
            <ellipse cx="563.23" cy="-234" fill="none" stroke="#000" rx="101" ry="18"/>
            <text x="563.23" y="-228.95" font-family="Times,serif" font-size="14" text-anchor="middle">:app:core:design-system</text>
        </g>
        <g stroke="#000" class="edge">
            <path fill="none" d="M721.23 40.23c-13.88 19.1-38.17 50.09-64 71.77-14.02 11.76-30.97 22.48-46.36 31.16"/>
            <path d="m612.8 146.09-10.45 1.74 7.09-7.88z"/>
        </g>
        <g class="node" transform="translate(4 400)">
            <ellipse cx="863.23" cy="-162" fill="none" stroke="#000" rx="86.67" ry="18"/>
            <text x="863.23" y="-156.95" font-family="Times,serif" font-size="14" text-anchor="middle">:app:core:navigation</text>
        </g>
        <g stroke="#000" class="edge">
            <path fill="none" d="M743.96 40.15c23.28 37.17 78.53 125.41 106.47 170.03"/>
            <path d="m853.29 208.15 2.34 10.33-8.27-6.61z"/>
        </g>
        <g class="node" transform="translate(4 400)">
            <ellipse cx="233.23" cy="-162" fill="none" stroke="#000" rx="59.54" ry="18"/>
            <text x="233.23" y="-156.95" font-family="Times,serif" font-size="14" text-anchor="middle">:library:color</text>
        </g>
        <g stroke="#000" class="edge">
            <path fill="none" d="M646.1 25.93C509.23 31.45 256.54 45.66 229.23 76c-32.62 36.22-17.16 97.67-3.94 133.26"/>
            <path d="m228.5 207.84.39 10.59-6.91-8.03z"/>
        </g>
        <g class="node" transform="translate(4 400)">
            <ellipse cx="1960.23" cy="-18" fill="none" stroke="#000" rx="62.1" ry="18"/>
            <text x="1960.23" y="-12.95" font-family="Times,serif" font-size="14" text-anchor="middle">:library:kotlin</text>
        </g>
        <g stroke="#000" class="edge">
            <path fill="none" d="M822.26 22.64c308.5-.08 1312.97 9.83 1312.97 142.36v74c0 63.23-70.05 103.69-120.48 124.62"/>
            <path d="m2016.31 366.77-10.59.46 7.99-6.96z"/>
        </g>
        <g class="node" transform="translate(4 400)">
            <ellipse cx="797.23" cy="-90" fill="none" stroke="#000" rx="79.5" ry="18"/>
            <text x="797.23" y="-84.95" font-family="Times,serif" font-size="14" text-anchor="middle">:library:navigation</text>
        </g>
        <g stroke="#000" class="edge">
            <path fill="none" d="M733.98 40.47c2.15 39.49 10.03 138.21 37.25 215.53 3.15 8.98 7.8 18.19 12.5 26.37"/>
            <path d="m786.63 280.41 2.18 10.37-8.17-6.75z"/>
        </g>
        <g class="node" transform="translate(4 400)">
            <ellipse cx="1801.23" cy="-18" fill="none" stroke="#000" rx="78.99" ry="18"/>
            <text x="1801.23" y="-12.95" font-family="Times,serif" font-size="14" text-anchor="middle">:library:coroutines</text>
        </g>
        <g stroke="#000" class="edge">
            <path fill="none" d="M821.77 23.67c228.91 3.19 834.14 21.42 1001.46 124.33 71.7 44.11 98.68 105.75 59 180-7.08 13.23-19.08 23.82-31.53 31.94"/>
            <path d="m1852.83 362.74-10.37 2.16 6.76-8.16z"/>
        </g>
        <g class="node" transform="translate(4 400)">
            <ellipse cx="943.23" cy="-18" fill="none" stroke="#000" rx="72.85" ry="18"/>
            <text x="943.23" y="-12.95" font-family="Times,serif" font-size="14" text-anchor="middle">:library:datetime</text>
        </g>
        <g stroke="#000" class="edge">
            <path fill="none" d="M724.86 40.21C701.62 90.76 642.45 240.74 712.23 328c19.42 24.29 95.61 38.25 156.04 45.68"/>
            <path d="m868.33 370.16 9.52 4.65-10.35 2.3z"/>
        </g>
        <g class="node" transform="translate(4 400)">
            <ellipse cx="89.23" cy="-234" fill="none" stroke="#000" rx="89.23" ry="18"/>
            <text x="89.23" y="-228.95" font-family="Times,serif" font-size="14" text-anchor="middle">:library:shimmer-m3</text>
        </g>
        <g stroke="#000" class="edge">
            <path fill="none" d="M645.54 25.25C514.57 29.68 274.83 42.26 196.23 76c-32.88 14.11-62.89 42.65-81.93 63.63"/>
            <path d="m117.08 141.77-9.24 5.18 3.99-9.81z"/>
        </g>
        <g class="node" transform="translate(4 400)">
            <ellipse cx="349.23" cy="-306" fill="none" stroke="#000" rx="115.33" ry="18"/>
            <text x="349.23" y="-300.95" font-family="Times,serif" font-size="14" text-anchor="middle">:app:core:calendar-compose</text>
        </g>
        <g stroke="#000" class="edge">
            <path fill="none" d="M669.19 34.8c-63.94 11.78-162.54 29.94-232.57 42.84"/>
            <path d="m437.59 81.02-10.47-1.63 9.21-5.26z"/>
        </g>
        <g class="node" transform="translate(4 400)">
            <ellipse cx="1407.23" cy="-306" fill="none" stroke="#000" rx="91.27" ry="18"/>
            <text x="1407.23" y="-300.95" font-family="Times,serif" font-size="14" text-anchor="middle">:app:domain:calendar</text>
        </g>
        <g stroke="red" stroke-width="2" class="edge">
            <path fill="none" d="M811 31.03c126.24 13.03 375.09 38.73 509.31 52.58"/>
            <path fill="red" d="m1319.14 79.97 9.59 4.51-10.3 2.46z"/>
        </g>
        <g class="node" transform="translate(4 400)">
            <ellipse cx="1325.23" cy="-90" fill="none" stroke="#000" rx="87.69" ry="18"/>
            <text x="1325.23" y="-84.95" font-family="Times,serif" font-size="14" text-anchor="middle">:app:domain:holiday</text>
        </g>
        <g stroke="#000" class="edge">
            <path fill="none" d="M766.55 38.99c101.27 48.6 405.42 194.55 519.14 249.12"/>
            <path d="m1286.91 284.81 7.5 7.48-10.53-1.17z"/>
        </g>
        <g stroke="#000" class="edge">
            <path fill="none" d="M567.23 112.3v24.16"/>
            <path d="m570.73 136.38-3.5 10-3.5-10z"/>
        </g>
        <g stroke="#000" class="edge">
            <path fill="none" d="M503.99 180.41c-60.04 12.74-149.58 31.73-208.08 44.14"/>
            <path d="m297 227.9-10.51-1.35 9.05-5.5z"/>
        </g>
        <g stroke="#000" class="edge">
            <path fill="none" d="M574.02 184.39c14.11 33.64 49.92 107.46 105.21 143.61 30.97 20.25 123.78 35.51 191.52 44.34"/>
            <path d="m870.83 368.82 9.48 4.74-10.36 2.2z"/>
        </g>
        <g stroke="#000" class="edge">
            <path fill="none" d="M876.88 256.13c13.69 24.31 38.9 69.05 55.13 97.86"/>
            <path d="m934.94 352.06 1.86 10.43-7.96-6.99z"/>
        </g>
        <g stroke="#000" class="edge">
            <path fill="none" d="M833.99 326.71c20.83 9.99 48.02 23.02 70.53 33.81"/>
            <path d="m905.95 357.33 7.51 7.48-10.53-1.17z"/>
        </g>
        <g stroke="#000" class="edge">
            <path fill="none" d="M126.26 183.06c20.93 10.17 48.15 23.41 70.39 34.22"/>
            <path d="m197.97 214.03 7.47 7.52-10.53-1.23z"/>
        </g>
        <g stroke="#000" class="edge">
            <path fill="none" d="M401.52 110.8c32.03 10.48 74.24 24.28 108.04 35.34"/>
            <path d="m510.36 142.72 8.41 6.43-10.59.22z"/>
        </g>
        <g stroke="#000" class="edge">
            <path fill="none" d="M339.23 112.13c-20.22 24.76-57.77 70.73-81.24 99.45"/>
            <path d="m260.9 213.55-9.04 5.53 3.62-9.96z"/>
        </g>
        <g stroke="#000" class="edge">
            <path fill="none" d="M367.65 112.03C406.05 156.09 516 274.15 635.23 328c72.74 32.86 163.4 45.49 228.21 50.27"/>
            <path d="m863.58 374.77 9.74 4.18-10.22 2.81z"/>
        </g>
        <g stroke="#000" class="edge">
            <path fill="none" d="M1499.45 98.84c104.05 5.81 269.72 19.49 323.78 49.16 79.59 43.69 119.11 152.95 133.89 204.82"/>
            <path d="m1960.48 351.81-.74 10.57-6.02-8.73z"/>
        </g>
        <g stroke="#000" class="edge">
            <path fill="none" d="M1502.53 95.22c76.07 3.19 185.78 14.9 273.7 52.78 47.36 20.4 68.53 25.58 91 72 6.5 13.45 7.91 86.81-2 108-5.42 11.57-14.67 21.66-24.31 29.84"/>
            <path d="m1843.27 360.45-10.03 3.42 5.7-8.93z"/>
        </g>
        <g stroke="#000" class="edge">
            <path fill="none" d="M1342.86 106.32c-97.17 19.8-273.9 70.18-368.63 185.68-14.1 17.18-20.84 41.62-24.07 60.54"/>
            <path d="m953.65 352.87-4.89 9.4-2.04-10.4z"/>
        </g>
        <g class="node" transform="translate(4 400)">
            <ellipse cx="1190.23" cy="-18" fill="none" stroke="#000" rx="71.31" ry="18"/>
            <text x="1190.23" y="-12.95" font-family="Times,serif" font-size="14" text-anchor="middle">:app:core:model</text>
        </g>
        <g stroke="#000" class="edge">
            <path fill="none" d="M1372.59 110.62c-60.34 26.79-174.87 87.81-221.36 181.38-7.13 14.33-5.35 20.92 0 36 3.56 10.06 9.95 19.6 16.72 27.75"/>
            <path d="m1170.54 353.4 4.08 9.78-9.28-5.1z"/>
        </g>
        <g class="node" transform="translate(4 400)">
            <ellipse cx="1538.23" cy="-18" fill="none" stroke="#000" rx="85.13" ry="18"/>
            <text x="1538.23" y="-12.95" font-family="Times,serif" font-size="14" text-anchor="middle">:common:exception</text>
        </g>
        <g stroke="#000" class="edge">
            <path fill="none" d="M1408.94 112.4c-1.83 18.19-3.13 47.4 3.29 71.6 18.76 70.77 36.76 84.91 80 144 7.17 9.8 15.99 19.7 24.22 28.25"/>
            <path d="m1518.8 353.65 4.53 9.57-9.51-4.65z"/>
        </g>
        <g class="node" transform="translate(4 400)">
            <ellipse cx="1596.23" cy="-90" fill="none" stroke="#000" rx="88.71" ry="18"/>
            <text x="1596.23" y="-84.95" font-family="Times,serif" font-size="14" text-anchor="middle">:app:domain:account</text>
        </g>
        <g stroke="#000" class="edge">
            <path fill="none" d="M1411.36 112.44c.92 19.02 4.72 49.66 18.87 71.56 30.56 47.31 85.74 82.89 124.93 103.75"/>
            <path d="m1556.65 284.58 7.27 7.71-10.49-1.49z"/>
        </g>
        <g class="node" transform="translate(4 400)">
            <ellipse cx="1519.23" cy="-234" fill="none" stroke="#000" rx="84.11" ry="18"/>
            <text x="1519.23" y="-228.95" font-family="Times,serif" font-size="14" text-anchor="middle">:app:domain:memo</text>
        </g>
        <g stroke="red" stroke-width="2" class="edge">
            <path fill="none" d="M1437.77 111.59c14.78 9.24 33.4 20.87 49.48 30.92"/>
            <path fill="red" d="m1487.68 138.66 6.63 8.27-10.34-2.34z"/>
        </g>
        <g class="node" transform="translate(4 400)">
            <ellipse cx="1692.23" cy="-234" fill="none" stroke="#000" rx="71.31" ry="18"/>
            <text x="1692.23" y="-228.95" font-family="Times,serif" font-size="14" text-anchor="middle">:app:domain:tag</text>
        </g>
        <g stroke="#000" class="edge">
            <path fill="none" d="M1466.85 108.66c48.5 11.91 118.7 29.16 168.64 41.42"/>
            <path d="m1636.11 146.63 8.88 5.79-10.55 1.01z"/>
        </g>
        <g stroke="#000" class="edge">
            <path fill="none" d="M1406.72 318.72c29.85 2.94 64.26 6.31 95.51 9.28 173.72 16.53 218.81 7.61 391 36 4.91.81 9.99 1.77 15.07 2.82"/>
            <path d="m1908.85 363.36 9.02 5.55-10.51 1.29z"/>
        </g>
        <g stroke="#000" class="edge">
            <path fill="none" d="M1398.95 321.25c88.03 12.95 238.96 35.14 329.99 48.53"/>
            <path d="m1729.4 366.31 9.39 4.92-10.4 2.01z"/>
        </g>
        <g stroke="#000" class="edge">
            <path fill="none" d="M1265.29 322.72c-69.15 12.67-178.97 32.79-249.78 45.77"/>
            <path d="m1016.45 371.87-10.46-1.64 9.2-5.24z"/>
        </g>
        <g stroke="#000" class="edge">
            <path fill="none" d="M1297.91 327.24c-18.83 9.76-43.01 22.3-63.28 32.81"/>
            <path d="m1236.27 363.14-10.49 1.5 7.27-7.71z"/>
        </g>
        <g stroke="#000" class="edge">
            <path fill="none" d="M1374.4 325.85c32.87 10.8 77.56 25.48 112.56 36.99"/>
            <path d="m1487.64 359.38 8.41 6.44-10.6.21z"/>
        </g>
        <g stroke="#000" class="edge">
            <path fill="none" d="M1667.64 322.09c59.52 10.05 148.56 25.74 225.59 41.91 4.53.95 9.22 1.98 13.92 3.04"/>
            <path d="m1907.66 363.57 8.96 5.65-10.53 1.17z"/>
        </g>
        <g stroke="#000" class="edge">
            <path fill="none" d="M1644.2 326.02c31.64 10.8 74.46 25.42 107.99 36.87"/>
            <path d="m1752.96 359.45 8.33 6.55-10.59.08z"/>
        </g>
        <g stroke="#000" class="edge">
            <path fill="none" d="M1523.08 319.27c-125.68 13.47-373.15 40-498.78 53.47"/>
            <path d="m1024.72 376.21-10.31-2.41 9.57-4.55z"/>
        </g>
        <g stroke="red" stroke-width="2" class="edge">
            <path fill="none" d="M1534.09 322.4c-74.59 12.86-195.33 33.68-271.01 46.73"/>
            <path fill="red" d="m1265.22 372.31-10.45-1.75 9.26-5.15z"/>
        </g>
        <g stroke="#000" class="edge">
            <path fill="none" d="M1586.19 327.95c-6.84 8.25-15.21 18.35-22.8 27.51"/>
            <path d="m1566.18 357.58-9.08 5.47 3.69-9.94z"/>
        </g>
        <g stroke="#000" class="edge">
            <path fill="none" d="M1585.5 178.5c79.93 14.83 208.96 39.01 213.73 41.5 63.5 33.17 118.87 98.67 146.43 135.07"/>
            <path d="m1948.3 352.76 3.16 10.11-8.77-5.93z"/>
        </g>
        <g stroke="#000" class="edge">
            <path fill="none" d="M1585.66 178.4c72.14 13.44 181.89 34.81 188.57 41.6 34.58 35.21 36.54 96.59 34.2 132.53"/>
            <path d="m1811.94 352.48-4.3 9.68-2.67-10.25z"/>
        </g>
        <g stroke="#000" class="edge">
            <path fill="none" d="M1440.77 169.72c-110.16 4.85-298.45 17.74-358.54 50.28-57.18 30.96-100.18 96.86-121.03 134.03"/>
            <path d="m964.51 355.28-7.87 7.09 1.72-10.45z"/>
        </g>
        <g stroke="#000" class="edge">
            <path fill="none" d="M1440.3 169.49c-85.82 7.55-215.99 33.98-279.07 122.51-13.52 18.97-2.05 44.13 10.94 62.85"/>
            <path d="m1174.9 352.67 3.17 10.11-8.78-5.93z"/>
        </g>
        <g stroke="#000" class="edge">
            <path fill="none" d="M1516 184.41c-11.39 30.07-30.61 93.34-13.77 143.59 3.26 9.74 9.1 19.12 15.32 27.22"/>
            <path d="m1520.24 352.98 3.7 9.92-9.08-5.45z"/>
        </g>
        <g stroke="#000" class="edge">
            <path fill="none" d="M1525.76 184.37c3.28 18.69 10.23 48.79 23.47 71.63 5.95 10.28 14.31 20.08 22.54 28.4"/>
            <path d="m1573.99 281.68 4.78 9.46-9.63-4.41z"/>
        </g>
        <g class="node" transform="translate(4 400)">
            <ellipse cx="1674.23" cy="-162" fill="none" stroke="#000" rx="86.67" ry="18"/>
            <text x="1674.23" y="-156.95" font-family="Times,serif" font-size="14" text-anchor="middle">:app:domain:backup</text>
        </g>
        <g stroke="red" stroke-width="2" class="edge">
            <path fill="none" d="M1558.01 182.71c22.08 9.97 50.89 22.98 74.77 33.77"/>
            <path fill="red" d="m1632.59 212.55 7.67 7.3-10.55-.92z"/>
        </g>
        <g stroke="#000" class="edge">
            <path fill="none" d="M1764.8 171.37c69.39 5.99 169.85 19.54 194.43 48.63 31.29 37.04 22.48 97.77 13.54 133.1"/>
            <path d="m1976.2 353.85-6.01 8.73-.75-10.57z"/>
        </g>
        <g stroke="#000" class="edge">
            <path fill="none" d="M1762 173.27c30.58 6.59 64.31 19.92 83.23 46.73 27.67 39.22 15.24 62.49 0 108-3.27 9.74-9.11 19.12-15.33 27.22"/>
            <path d="m1832.59 357.45-9.08 5.45 3.7-9.92z"/>
        </g>
        <g stroke="#000" class="edge">
            <path fill="none" d="M1644.28 178.75c-9.31 1.91-18.95 3.74-28.05 5.25-240.61 39.82-318.03 2.7-538 108-37.55 17.97-76.51 45.82-102.07 65.57"/>
            <path d="m978.59 360.11-10.03 3.41 5.72-8.92z"/>
        </g>
        <g stroke="#000" class="edge">
            <path fill="none" d="M1643.92 178.57c-123.9 27.64-426.04 96.44-440.69 113.43-14.12 16.36-15.55 41.23-13.91 60.52"/>
            <path d="m1192.76 351.84-2.29 10.34-4.66-9.52z"/>
        </g>
        <g stroke="#000" class="edge">
            <path fill="none" d="M1732.31 181.94c15.89 8.61 32.95 21.13 41.92 38.06 7.48 14.14 5.32 20.91 0 36-13.67 38.75-23.96 49-58 72-28.68 19.37-64.69 31.87-96.49 39.83"/>
            <path d="m1620.69 371.2-10.54-1.09 8.92-5.72z"/>
        </g>
        <g stroke="#000" class="edge">
            <path fill="none" d="M1642.86 178.26c-22.76 7.73-47.14 20.58-60.63 41.74-11.77 18.44-5.49 43.04 2.73 61.7"/>
            <path d="m1588.03 280.03 1.21 10.52-7.51-7.47z"/>
        </g>
        <g stroke="#000" class="edge">
            <path fill="none" d="M1691.78 184.3c-1.9 7.38-4.16 16.18-6.29 24.45"/>
            <path d="m1688.88 209.62-5.88 8.81-.9-10.56z"/>
        </g>
        <g stroke="#000" class="edge">
            <path fill="none" d="M1710.75 255.15c52.52 26.07 155.85 77.38 213.03 105.77"/>
            <path d="m1925.14 357.68 7.4 7.59-10.52-1.32z"/>
        </g>
        <g stroke="#000" class="edge">
            <path fill="none" d="M1695.82 255.8c10.52 10.23 24 23.7 35.41 36.2 18.79 20.61 38.96 45.03 53.49 63.08"/>
            <path d="m1787.3 352.7 3.52 10-8.99-5.62z"/>
        </g>
        <g stroke="#000" class="edge">
            <path fill="none" d="M1594.05 242.71c-95.68 5.52-256.08 18.76-390.82 49.29-75.46 17.1-159.6 48.95-210.14 69.55"/>
            <path d="m994.5 364.75-10.58.57 7.92-7.04z"/>
        </g>
        <g stroke="#000" class="edge">
            <path fill="none" d="M1602.59 247.02c-125.31 13.41-363.02 39.48-370.36 44.98-19.23 14.4-28.83 40.46-33.56 60.68"/>
            <path d="m1202.13 353.19-5.42 9.1-1.44-10.49z"/>
        </g>
        <g stroke="#000" class="edge">
            <path fill="none" d="M1689.58 256.34c11 19.21 23.96 50.29 8.65 71.66-16.11 22.48-42.3 35.54-68.66 43.09"/>
            <path d="m1630.71 374.41-10.55-.88 8.8-5.9z"/>
        </g>
        <g stroke="red" stroke-width="2" class="edge">
            <path fill="none" d="M1659.34 255.95c-9.51 8.53-21.22 19.04-31.7 28.44"/>
            <path fill="red" d="m1631.24 285.87-9.78 4.08 5.1-9.29z"/>
        </g>
    </g>
</svg>
