<svg xmlns="http://www.w3.org/2000/svg" width="6832pt" height="548pt" viewBox="0 0 6832.22 548">
    <g class="graph">
        <path fill="#fff" d="M0 548V0h6832.22v548z"/>
        <g class="node" transform="translate(4 544)">
            <ellipse cx="3305" cy="-522" fill="none" stroke="#000" rx="97.41" ry="18"/>
            <text x="3305" y="-516.95" font-family="Times,serif" font-size="14" text-anchor="middle">:app:platform:common</text>
        </g>
        <g class="node" transform="translate(4 544)">
            <ellipse cx="889" cy="-306" fill="none" stroke="#000" rx="81.04" ry="18"/>
            <text x="889" y="-300.95" font-family="Times,serif" font-size="14" text-anchor="middle">:app:core:compose</text>
        </g>
        <g stroke="#000" class="edge">
            <path fill="none" d="M3211.47 23.17C2827.66 24.16 1432.8 30.85 1240 76c-121.28 28.4-251.11 101.61-311.86 138.72"/>
            <path d="m930.29 217.51-10.35 2.26 6.67-8.22z"/>
        </g>
        <g class="node" transform="translate(4 544)">
            <ellipse cx="950" cy="-234" fill="none" stroke="#000" rx="101" ry="18"/>
            <text x="950" y="-228.95" font-family="Times,serif" font-size="14" text-anchor="middle">:app:core:design-system</text>
        </g>
        <g stroke="#000" class="edge">
            <path fill="none" d="M3211.37 23.14C2814.48 23.99 1333.47 30.25 1129 76c-38.64 8.65-304.38 110.82-326 144-8.73 13.41-9.25 22.95 0 36 13.87 19.57 35.56 31.97 58.21 39.8"/>
            <path d="m862.08 292.41 8.5 6.33-10.59.35z"/>
        </g>
        <g class="node" transform="translate(4 544)">
            <ellipse cx="1537" cy="-306" fill="none" stroke="#000" rx="86.67" ry="18"/>
            <text x="1537" y="-300.95" font-family="Times,serif" font-size="14" text-anchor="middle">:app:core:navigation</text>
        </g>
        <g stroke="#000" class="edge">
            <path fill="none" d="M3211.73 24.05C2906.58 27.69 1980.68 41.47 1850 76c-108.74 28.73-222.52 100.65-276.66 137.87"/>
            <path d="m1575.39 216.71-10.21 2.83 6.22-8.58z"/>
        </g>
        <g class="node" transform="translate(4 544)">
            <ellipse cx="1170" cy="-162" fill="none" stroke="#000" rx="59.54" ry="18"/>
            <text x="1170" y="-156.95" font-family="Times,serif" font-size="14" text-anchor="middle">:library:color</text>
        </g>
        <g stroke="#000" class="edge">
            <path fill="none" d="M3211.42 23.05C2754.24 23.55 835.38 28.46 572 76c-95.03 17.15-139.96.62-205 72-54.58 59.89-40.9 139.02 29 180 60.11 35.24 526.61 48.07 707.06 51.75"/>
            <path d="m1103.08 376.25 9.93 3.7-10.07 3.3z"/>
        </g>
        <g class="node" transform="translate(4 544)">
            <ellipse cx="1593" cy="-18" fill="none" stroke="#000" rx="62.1" ry="18"/>
            <text x="1593" y="-12.95" font-family="Times,serif" font-size="14" text-anchor="middle">:library:kotlin</text>
        </g>
        <g stroke="#000" class="edge">
            <path fill="none" d="M3211.56 23.76C2738.05 27.58 688.53 45.76 405 76 223.47 95.36 4-17.56 4 165v218c0 46.27 14.08 65.61 54 89 63.81 37.38 1167.3 49.74 1465.33 52.4"/>
            <path d="m1523.36 520.9 9.96 3.59-10.03 3.41z"/>
        </g>
        <g class="node" transform="translate(4 544)">
            <ellipse cx="1721" cy="-306" fill="none" stroke="#000" rx="79.5" ry="18"/>
            <text x="1721" y="-300.95" font-family="Times,serif" font-size="14" text-anchor="middle">:library:navigation</text>
        </g>
        <g stroke="#000" class="edge">
            <path fill="none" d="M3212.31 24.58C2960.99 29.08 2291.46 43.83 2072 76c-128.84 18.89-176.64-1.69-284 72-22.49 15.44-39.62 41.7-50.3 61.7"/>
            <path d="m1740.91 211.11-7.65 7.32 1.41-10.5z"/>
        </g>
        <g class="node" transform="translate(4 544)">
            <ellipse cx="3674" cy="-18" fill="none" stroke="#000" rx="78.99" ry="18"/>
            <text x="3674" y="-12.95" font-family="Times,serif" font-size="14" text-anchor="middle">:library:coroutines</text>
        </g>
        <g stroke="#000" class="edge">
            <path fill="none" d="M3396.38 30.32c72.94 7.66 169.8 21.96 200.62 45.68 36.47 28.06 87.48-5.99 169 360 3.48 15.62 7.87 22.07 0 36-8.13 14.38-21.89 25.29-36.15 33.37"/>
            <path d="m3731.79 508.3-10.49 1.51 7.26-7.72z"/>
        </g>
        <g class="node" transform="translate(4 544)">
            <ellipse cx="2611" cy="-18" fill="none" stroke="#000" rx="72.85" ry="18"/>
            <text x="2611" y="-12.95" font-family="Times,serif" font-size="14" text-anchor="middle">:library:datetime</text>
        </g>
        <g stroke="#000" class="edge">
            <path fill="none" d="M3211.9 24.02C2893.19 27.67 1891.35 41.78 1750 76c-145.69 35.27-224.76 17.38-305 144-8.56 13.51-6.87 21.55 0 36 32.6 68.62 194.2 188.44 265 216 75.25 29.29 611.45 45.68 821.2 51.03"/>
            <path d="m2531.02 519.52 9.9 3.75-10.08 3.25z"/>
        </g>
        <g class="node" transform="translate(4 544)">
            <ellipse cx="1077" cy="-306" fill="none" stroke="#000" rx="89.23" ry="18"/>
            <text x="1077" y="-300.95" font-family="Times,serif" font-size="14" text-anchor="middle">:library:shimmer-m3</text>
        </g>
        <g stroke="#000" class="edge">
            <path fill="none" d="M3211.58 23.53C2841.71 25.83 1536.01 36.67 1354 76c-80.6 17.42-101.05 28.34-171 72-29.18 18.21-58.33 44.68-77.95 64.02"/>
            <path d="m1107.61 214.42-9.54 4.6 4.59-9.55z"/>
        </g>
        <g class="node" transform="translate(4 544)">
            <ellipse cx="3424" cy="-378" fill="none" stroke="#000" rx="71.31" ry="18"/>
            <text x="3424" y="-372.95" font-family="Times,serif" font-size="14" text-anchor="middle">:app:data:memo</text>
        </g>
        <g stroke="#000" class="edge">
            <path fill="none" d="M3323.35 40.13c20.75 24.76 59.28 70.73 83.35 99.45"/>
            <path d="m3409.25 137.18 3.74 9.91-9.1-5.41z"/>
        </g>
        <g class="node" transform="translate(4 544)">
            <ellipse cx="3246" cy="-306" fill="none" stroke="#000" rx="58.52" ry="18"/>
            <text x="3246" y="-300.95" font-family="Times,serif" font-size="14" text-anchor="middle">:app:data:tag</text>
        </g>
        <g stroke="#000" class="edge">
            <path fill="none" d="M3304.27 40.15c-10.14 36.78-34.06 123.56-46.48 168.61"/>
            <path d="m3261.19 209.6-6.04 8.71-.71-10.57z"/>
        </g>
        <g class="node" transform="translate(4 544)">
            <ellipse cx="3627" cy="-162" fill="none" stroke="#000" rx="75.92" ry="18"/>
            <text x="3627" y="-156.95" font-family="Times,serif" font-size="14" text-anchor="middle">:app:data:account</text>
        </g>
        <g stroke="#000" class="edge">
            <path fill="none" d="M3401.83 27.65C3492.52 37.79 3617 69.17 3617 165v74c0 39.45 5.42 84.77 9.51 113.39"/>
            <path d="m3629.94 351.66-1.99 10.41-4.93-9.38z"/>
        </g>
        <g class="node" transform="translate(4 544)">
            <ellipse cx="3949" cy="-378" fill="none" stroke="#000" rx="83.6" ry="18"/>
            <text x="3949" y="-372.95" font-family="Times,serif" font-size="14" text-anchor="middle">:app:data:credential</text>
        </g>
        <g stroke="#000" class="edge">
            <path fill="none" d="M3405.29 25.3C3569.21 30.07 3888.68 43.47 3928 76c17.49 14.47 23.29 40.12 24.97 60.18"/>
            <path d="m3956.46 135.83-2.99 10.16-4-9.81z"/>
        </g>
        <g class="node" transform="translate(4 544)">
            <ellipse cx="5962" cy="-162" fill="none" stroke="#000" rx="74.89" ry="18"/>
            <text x="5962" y="-156.95" font-family="Times,serif" font-size="14" text-anchor="middle">:app:data:holiday</text>
        </g>
        <g stroke="#000" class="edge">
            <path fill="none" d="M3406.67 23.26C3872.94 25.1 5850 40.29 5850 165v74c0 51.5 46.33 94.62 80.43 119.39"/>
            <path d="m5932.26 355.4 6.18 8.61-10.2-2.88z"/>
        </g>
        <g class="node" transform="translate(4 544)">
            <ellipse cx="4654" cy="-234" fill="none" stroke="#000" rx="73.87" ry="18"/>
            <text x="4654" y="-228.95" font-family="Times,serif" font-size="14" text-anchor="middle">:app:data:backup</text>
        </g>
        <g stroke="#000" class="edge">
            <path fill="none" d="M3406.06 24.18c287.4 3.86 1117 17.9 1163.94 51.82 66.69 48.2 82.86 153.5 86.76 204.37"/>
            <path d="m4660.25 280.06-2.85 10.21-4.13-9.76z"/>
        </g>
        <g class="node" transform="translate(4 544)">
            <ellipse cx="4191" cy="-306" fill="none" stroke="#000" rx="65.68" ry="18"/>
            <text x="4191" y="-300.95" font-family="Times,serif" font-size="14" text-anchor="middle">:app:data:fetch</text>
        </g>
        <g stroke="#000" class="edge">
            <path fill="none" d="M3405.5 25.08C3599.13 29.92 4021.51 44.02 4079 76c53.57 29.8 88.71 95.95 105.16 133.53"/>
            <path d="m4187.23 207.79.67 10.58-7.12-7.85z"/>
        </g>
        <g class="node" transform="translate(4 544)">
            <ellipse cx="4061" cy="-234" fill="none" stroke="#000" rx="62.1" ry="18"/>
            <text x="4061" y="-228.95" font-family="Times,serif" font-size="14" text-anchor="middle">:app:data:fcm</text>
        </g>
        <g stroke="#000" class="edge">
            <path fill="none" d="M3406.07 24.34C3560.6 27.58 3855 38.61 3952 76c49.1 18.93 67.97 26.26 94 72 23.55 41.4 24.27 98.41 22.05 132.31"/>
            <path d="m4071.55 280.49-4.29 9.68-2.69-10.24z"/>
        </g>
        <g class="node" transform="translate(4 544)">
            <ellipse cx="3837" cy="-450" fill="none" stroke="#000" rx="78.48" ry="18"/>
            <text x="3837" y="-444.95" font-family="Times,serif" font-size="14" text-anchor="middle">:app:data:calendar</text>
        </g>
        <g stroke="red" stroke-width="2" class="edge">
            <path fill="none" d="M3392.74 31.5C3481.43 40.88 3625.4 57.16 3749 76c7.34 1.12 14.98 2.38 22.6 3.7"/>
            <path fill="red" d="m3770.47 75.94 9.24 5.19-10.46 1.71z"/>
        </g>
        <g class="node" transform="translate(4 544)">
            <ellipse cx="2946" cy="-306" fill="none" stroke="#000" rx="84.11" ry="18"/>
            <text x="2946" y="-300.95" font-family="Times,serif" font-size="14" text-anchor="middle">:app:domain:memo</text>
        </g>
        <g stroke="#000" class="edge">
            <path fill="none" d="M3213.02 25.38C3162.01 30.76 3100.43 44.16 3054 76c-48.25 33.09-79.28 96.66-93.98 133.25"/>
            <path d="m2963.4 210.2-6.88 8.06.36-10.59z"/>
        </g>
        <g class="node" transform="translate(4 544)">
            <ellipse cx="2708" cy="-234" fill="none" stroke="#000" rx="71.31" ry="18"/>
            <text x="2708" y="-228.95" font-family="Times,serif" font-size="14" text-anchor="middle">:app:domain:tag</text>
        </g>
        <g stroke="#000" class="edge">
            <path fill="none" d="M3217.96 28.66C3070.18 40.02 2788.74 71.4 2731 148c-29.02 38.5-27.71 97.57-23.67 132.43"/>
            <path d="m2710.78 279.81-2.15 10.38-4.79-9.45z"/>
        </g>
        <g class="node" transform="translate(4 544)">
            <ellipse cx="2622" cy="-90" fill="none" stroke="#000" rx="88.71" ry="18"/>
            <text x="2622" y="-84.95" font-family="Times,serif" font-size="14" text-anchor="middle">:app:domain:account</text>
        </g>
        <g stroke="#000" class="edge">
            <path fill="none" d="M3212.26 24.72C3080.64 28.4 2853.05 39.94 2779 76c-104.4 50.84-116.38 103.99-147 216-12.29 44.98-11.12 99.65-8.81 132.32"/>
            <path d="m2626.67 423.94-2.68 10.24-4.29-9.68z"/>
        </g>
        <g class="node" transform="translate(4 544)">
            <ellipse cx="2333" cy="-306" fill="none" stroke="#000" rx="96.39" ry="18"/>
            <text x="2333" y="-300.95" font-family="Times,serif" font-size="14" text-anchor="middle">:app:domain:credential</text>
        </g>
        <g stroke="#000" class="edge">
            <path fill="none" d="M3213.67 26.04C3018.26 32.75 2585.37 50.33 2523 76c-71.36 29.37-134.65 97.48-165.71 135.02"/>
            <path d="m2360.08 213.14-9.02 5.55 3.59-9.97z"/>
        </g>
        <g class="node" transform="translate(4 544)">
            <ellipse cx="3387" cy="-90" fill="none" stroke="#000" rx="87.69" ry="18"/>
            <text x="3387" y="-84.95" font-family="Times,serif" font-size="14" text-anchor="middle">:app:domain:holiday</text>
        </g>
        <g stroke="#000" class="edge">
            <path fill="none" d="M3372.64 35.98C3436.99 53.25 3527 90.7 3527 165v74c0 79.19-67.16 152.76-107.09 189.5"/>
            <path d="m3422.26 431.1-9.77 4.08 5.09-9.29z"/>
        </g>
        <g class="node" transform="translate(4 544)">
            <ellipse cx="3028" cy="-162" fill="none" stroke="#000" rx="86.67" ry="18"/>
            <text x="3028" y="-156.95" font-family="Times,serif" font-size="14" text-anchor="middle">:app:domain:backup</text>
        </g>
        <g stroke="#000" class="edge">
            <path fill="none" d="M3236.37 34.34C3165.4 50.03 3068 85.96 3068 165v74c0 40.68-14.06 85.97-24.6 114.22"/>
            <path d="m3046.7 354.39-6.87 8.07.34-10.59z"/>
        </g>
        <g class="node" transform="translate(4 544)">
            <ellipse cx="3227" cy="-234" fill="none" stroke="#000" rx="78.48" ry="18"/>
            <text x="3227" y="-228.95" font-family="Times,serif" font-size="14" text-anchor="middle">:app:domain:fetch</text>
        </g>
        <g stroke="#000" class="edge">
            <path fill="none" d="M3315.38 40.21c13.91 40.64 42.67 144.5 2.62 215.79-8.02 14.28-21.63 25.17-35.73 33.25"/>
            <path d="m3284.31 292.13-10.48 1.56 7.22-7.76z"/>
        </g>
        <g class="node" transform="translate(4 544)">
            <ellipse cx="2354" cy="-162" fill="none" stroke="#000" rx="74.89" ry="18"/>
            <text x="2354" y="-156.95" font-family="Times,serif" font-size="14" text-anchor="middle">:app:domain:fcm</text>
        </g>
        <g stroke="#000" class="edge">
            <path fill="none" d="M3213.55 25.87C3032.38 31.94 2651.94 47.88 2599 76c-31.02 16.48-171 207.9-222.18 278.8"/>
            <path d="m2379.78 356.68-8.69 6.07 3.01-10.16z"/>
        </g>
        <g class="node" transform="translate(4 544)">
            <ellipse cx="2827" cy="-378" fill="none" stroke="#000" rx="91.27" ry="18"/>
            <text x="2827" y="-372.95" font-family="Times,serif" font-size="14" text-anchor="middle">:app:domain:calendar</text>
        </g>
        <g stroke="#000" class="edge">
            <path fill="none" d="M3217.36 28.31C3149.79 34.46 3056.53 47.67 2979 76c-43.52 15.9-88.43 45.04-117.19 65.63"/>
            <path d="m2864.07 144.32-10.14 3.05 6.02-8.71z"/>
        </g>
        <g class="node" transform="translate(4 544)">
            <ellipse cx="6208" cy="-450" fill="none" stroke="#000" rx="86.15" ry="18"/>
            <text x="6208" y="-444.95" font-family="Times,serif" font-size="14" text-anchor="middle">:app:core:coroutines</text>
        </g>
        <g stroke="#000" class="edge">
            <path fill="none" d="M3406.51 22.89C3837.06 22.69 5570.32 25.12 6112 76c8.75.82 17.89 1.97 26.94 3.29"/>
            <path d="m6139.46 75.82 9.36 4.98-10.42 1.94z"/>
        </g>
        <g class="node" transform="translate(4 544)">
            <ellipse cx="5192" cy="-234" fill="none" stroke="#000" rx="123.52" ry="18"/>
            <text x="5192" y="-228.95" font-family="Times,serif" font-size="14" text-anchor="middle">:app:core:filter-database-room</text>
        </g>
        <g stroke="#000" class="edge">
            <path fill="none" d="M3406.47 22.83c260.19.21 966.73 5.3 1194.53 53.17 217.13 45.63 458.16 162.18 553.21 210.98"/>
            <path d="m5155.66 283.79 7.28 7.69-10.5-1.47z"/>
        </g>
        <g class="node" transform="translate(4 544)">
            <ellipse cx="6692" cy="-234" fill="none" stroke="#000" rx="132.22" ry="18"/>
            <text x="6692" y="-228.95" font-family="Times,serif" font-size="14" text-anchor="middle">:app:core:backup-database-room</text>
        </g>
        <g stroke="#000" class="edge">
            <path fill="none" d="M3406.25 23.56C3879.25 26.48 5921.91 41.04 6052 76c31.89 8.57 34.8 22.63 65 36 179.51 79.49 401.76 146.92 511.36 178.25"/>
            <path d="m6629.14 286.83 8.66 6.1-10.58.63z"/>
        </g>
        <g class="node" transform="translate(4 544)">
            <ellipse cx="5378" cy="-162" fill="none" stroke="#000" rx="158.32" ry="18"/>
            <text x="5378" y="-156.95" font-family="Times,serif" font-size="14" text-anchor="middle">:app:core:account-preferences-datastore</text>
        </g>
        <g stroke="#000" class="edge">
            <path fill="none" d="M3405.75 24.55C3812.76 31.71 5365 65.52 5365 165v74c0 39.54 6.58 84.84 11.55 113.43"/>
            <path d="m5379.97 351.64-1.68 10.46-5.21-9.22z"/>
        </g>
        <g class="node" transform="translate(4 544)">
            <ellipse cx="6417" cy="-234" fill="none" stroke="#000" rx="124.54" ry="18"/>
            <text x="6417" y="-228.95" font-family="Times,serif" font-size="14" text-anchor="middle">:app:core:diary-database-room</text>
        </g>
        <g stroke="#000" class="edge">
            <path fill="none" d="M3406.35 23.37C3885.37 25.36 5971.31 36.29 6025 76c67.69 50.06-5.12 125.44 59 180 9.07 7.72 139.83 26.67 235.75 39.68"/>
            <path d="m6320.03 292.19 9.44 4.81-10.37 2.13z"/>
        </g>
        <g class="node" transform="translate(4 544)">
            <ellipse cx="4553" cy="-162" fill="none" stroke="#000" rx="95.88" ry="18"/>
            <text x="4553" y="-156.95" font-family="Times,serif" font-size="14" text-anchor="middle">:app:core:diary-service</text>
        </g>
        <g stroke="#000" class="edge">
            <path fill="none" d="M3406.33 23.9C3699.81 27.9 4556 49.45 4556 165v74c0 39.26.39 84.63.68 113.31"/>
            <path d="m4560.18 351.96-3.4 10.04-3.6-9.96z"/>
        </g>
        <g class="node" transform="translate(4 544)">
            <ellipse cx="5770" cy="-90" fill="none" stroke="#000" rx="104.58" ry="18"/>
            <text x="5770" y="-84.95" font-family="Times,serif" font-size="14" text-anchor="middle">:app:core:holiday-service</text>
        </g>
        <g stroke="#000" class="edge">
            <path fill="none" d="M3406.72 23.1c372.84.72 1705.99 6.57 2127.28 52.9 202.65 22.29 450-114.87 450 89v74c0 40.45-2.61 54.81 19 89 14.06 22.24 35.35 12.41 47 36 7.08 14.35 10.19 23.67 0 36-6.19 7.49-111.49 26.17-190.2 39.22"/>
            <path d="m5860.82 442.6-10.44-1.82 9.3-5.08z"/>
        </g>
        <g class="node" transform="translate(4 544)">
            <ellipse cx="5712" cy="-162" fill="none" stroke="#000" rx="157.3" ry="18"/>
            <text x="5712" y="-156.95" font-family="Times,serif" font-size="14" text-anchor="middle">:app:core:holiday-preferences-datastore</text>
        </g>
        <g stroke="#000" class="edge">
            <path fill="none" d="M3406.08 23.97C3837.54 28.89 5560 55.39 5560 165v74c0 57.25 58.17 97.53 103.47 120.22"/>
            <path d="m5664.94 356.04 7.48 7.5-10.53-1.19z"/>
        </g>
        <g class="node" transform="translate(4 544)">
            <ellipse cx="6141" cy="-234" fill="none" stroke="#000" rx="133.24" ry="18"/>
            <text x="6141" y="-228.95" font-family="Times,serif" font-size="14" text-anchor="middle">:app:core:holiday-database-room</text>
        </g>
        <g stroke="#000" class="edge">
            <path fill="none" d="M3406.61 23.33C3883.31 25.12 5946.01 35.24 5998 76c65.16 51.09-3.41 115.1 48 180 10.68 13.48 25.74 23.96 40.91 31.91"/>
            <path d="m6088.05 284.57 7.44 7.54-10.52-1.26z"/>
        </g>
        <g class="node" transform="translate(4 544)">
            <ellipse cx="1270" cy="-378" fill="none" stroke="#000" rx="81.55" ry="18"/>
            <text x="1270" y="-372.95" font-family="Times,serif" font-size="14" text-anchor="middle">:app:feature:memo</text>
        </g>
        <g stroke="#000" class="edge">
            <path fill="none" d="M3211.49 23.23C2852.6 24.43 1617.07 31.78 1446 76c-51.85 13.4-105.76 44.58-139.1 66.23"/>
            <path d="m1309.19 144.91-10.27 2.59 6.41-8.43z"/>
        </g>
        <g class="node" transform="translate(4 544)">
            <ellipse cx="763" cy="-378" fill="none" stroke="#000" rx="68.75" ry="18"/>
            <text x="763" y="-372.95" font-family="Times,serif" font-size="14" text-anchor="middle">:app:feature:tag</text>
        </g>
        <g stroke="#000" class="edge">
            <path fill="none" d="M3211.67 23.49C2773.39 25.91 999.56 38.03 888 76c-38.31 13.04-74.63 42.97-97.3 64.53"/>
            <path d="m793.39 142.79-9.61 4.48 4.72-9.49z"/>
        </g>
        <g class="node" transform="translate(4 544)">
            <ellipse cx="666" cy="-450" fill="none" stroke="#000" rx="88.71" ry="18"/>
            <text x="666" y="-444.95" font-family="Times,serif" font-size="14" text-anchor="middle">:app:feature:calendar</text>
        </g>
        <g stroke="#000" class="edge">
            <path fill="none" d="M3211.57 23.78C2811.1 27.18 1290.35 42.1 811 76c-18.83 1.33-39 3.39-58.03 5.61"/>
            <path d="M753.45 85.08 743.1 82.8l9.51-4.67z"/>
        </g>
        <g class="node" transform="translate(4 544)">
            <ellipse cx="2072" cy="-378" fill="none" stroke="#000" rx="76.94" ry="18"/>
            <text x="2072" y="-372.95" font-family="Times,serif" font-size="14" text-anchor="middle">:app:feature:more</text>
        </g>
        <g stroke="#000" class="edge">
            <path fill="none" d="M3211.18 22.15c-166.77.01-516.32 6.39-807.18 53.85-98.95 16.14-211.05 50.07-275.25 71.06"/>
            <path d="m2130.13 150.28-10.59-.19 8.4-6.45z"/>
        </g>
        <g class="node" transform="translate(4 544)">
            <ellipse cx="1879" cy="-378" fill="none" stroke="#000" rx="86.15" ry="18"/>
            <text x="1879" y="-372.95" font-family="Times,serif" font-size="14" text-anchor="middle">:app:feature:account</text>
        </g>
        <g stroke="#000" class="edge">
            <path fill="none" d="M3212.97 25.44C2987.81 31.55 2431.01 48.96 2246 76c-109.55 16.01-234.32 50.21-305.36 71.25"/>
            <path d="m1941.75 150.57-10.59-.5 8.59-6.21z"/>
        </g>
        <g class="node" transform="translate(4 544)">
            <ellipse cx="4289" cy="-162" fill="none" stroke="#000" rx="112.26" ry="18"/>
            <text x="4289" y="-156.95" font-family="Times,serif" font-size="14" text-anchor="middle">:library:firebase-messaging</text>
        </g>
        <g stroke="#000" class="edge">
            <path fill="none" d="M3404.81 25.73C3604.14 31.92 4050.34 48.66 4114 76c86.7 37.23 112.12 60.47 156 144 22.22 42.3 25.11 99.02 24.52 132.62"/>
            <path d="m4298.03 352.48-3.81 9.89-3.19-10.1z"/>
        </g>
        <g stroke="#000" class="edge">
            <path fill="none" d="M907.77 255.95c7.08 8.13 15.73 18.05 23.62 27.11"/>
            <path d="m934.02 280.75 3.93 9.83-9.21-5.24z"/>
        </g>
        <g stroke="#000" class="edge">
            <path fill="none" d="M1002.01 326.28c35.86 11.41 84.78 26.97 121.27 38.58"/>
            <path d="m1124.27 361.51 8.47 6.36-10.59.31z"/>
        </g>
        <g stroke="#000" class="edge">
            <path fill="none" d="M976.11 327.97c28.24 20.7 79.39 55.04 128.89 72.03 117.84 40.45 155.29 14.46 278 36 72.65 12.75 88.91 26.14 162 36 364.51 49.17 804.38 54 985.65 53.65"/>
            <path d="m2530.44 522.15 10 3.48-9.99 3.52z"/>
        </g>
        <g stroke="#000" class="edge">
            <path fill="none" d="M1551.69 256.31C1580.76 301.59 1666.34 423.38 1774 472c67.77 30.6 558.3 46.02 757.38 51.08"/>
            <path d="m2531.22 519.57 9.91 3.75-10.09 3.25z"/>
        </g>
        <g stroke="#000" class="edge">
            <path fill="none" d="M1725.43 256.43c2.14 44.51 14.58 162.55 85.57 215.57 56.63 42.29 524.92 50.84 719.61 52.57"/>
            <path d="m2530.43 521.06 9.97 3.59-10.03 3.41z"/>
        </g>
        <g stroke="#000" class="edge">
            <path fill="none" d="M1092.22 256.13c16.07 24.54 45.8 69.93 64.64 98.7"/>
            <path d="m1159.65 352.7 2.55 10.29-8.41-6.45z"/>
        </g>
        <g stroke="#000" class="edge">
            <path fill="none" d="M3431.52 184.18C3441.33 227.56 3473.2 342.2 3546 400c52.68 41.83 105.48-16.92 147 36 13.57 17.29 7.77 42.35-.25 61.47"/>
            <path d="m3696.04 498.69-7.37 7.61 1.02-10.55z"/>
        </g>
        <g stroke="#000" class="edge">
            <path fill="none" d="M3419.8 184.07c-23.1 45.79-93.73 170.91-195.8 215.93-83.04 36.63-120-4.92-201 36-20.76 10.49-16.97 26.06-38 36-116.63 55.1-160.74 14.89-288 36-5.68.94-11.57 2-17.46 3.12"/>
            <path d="m2680.23 514.55-10.49-1.53 9.15-5.34z"/>
        </g>
        <g stroke="#000" class="edge">
            <path fill="none" d="M3367.46 175.87c-85.94 12.58-243.4 35.64-338.45 49.56"/>
            <path d="m3029.64 228.87-10.4-2.01 9.39-4.91z"/>
        </g>
        <g class="node" transform="translate(4 544)">
            <ellipse cx="4768" cy="-162" fill="none" stroke="#000" rx="101.51" ry="18"/>
            <text x="4768" y="-156.95" font-family="Times,serif" font-size="14" text-anchor="middle">:app:core:diary-database</text>
        </g>
        <g stroke="#000" class="edge">
            <path fill="none" d="M3497.83 170.29c188.33 9.04 697.53 34.56 772.17 49.71 94.64 19.21 114.01 39.65 205 72 44.51 15.83 54.93 21.85 100 36 42.29 13.28 90.31 26.24 128.35 36.02"/>
            <path d="m4704.02 360.58 8.83 5.87-10.56.91z"/>
        </g>
        <g stroke="#000" class="edge">
            <path fill="none" d="M3292.2 250.81c28.51 8.99 66.35 22.92 96.8 41.19 62.67 37.6 58.81 74.97 124 108 65.02 32.94 112.89-19.62 160 36 13.92 16.43 14.18 41.29 11.53 60.56"/>
            <path d="m3688.01 496.97-5.16 9.25-1.74-10.45z"/>
        </g>
        <g stroke="#000" class="edge">
            <path fill="none" d="M3206.19 250.36c-22.09 8.01-47.28 21.06-62.19 41.64-28.47 39.29 17.53 72.92-16 108-57.88 60.55-105.7 9.02-185 36-33.87 11.52-38.2 24.28-72 36-74.61 25.88-96.67 19.98-174 36-5.47 1.13-11.14 2.31-16.83 3.49"/>
            <path d="m2681.24 514.84-10.51-1.4 9.09-5.45z"/>
        </g>
        <g stroke="#000" class="edge">
            <path fill="none" d="M3196.94 245.9c-96.65 12.58-301.56 39.24-411.53 53.55"/>
            <path d="m2785.96 302.91-10.36-2.18 9.46-4.77z"/>
        </g>
        <g stroke="#000" class="edge">
            <path fill="none" d="M3308.17 240.94c141.81 5.07 516.52 20.49 827.83 51.06 117.41 11.53 409.25 54.99 526 72 7.95 1.16 16.23 2.39 24.5 3.64"/>
            <path d="m4686.91 364.16 9.36 4.96-10.41 1.96z"/>
        </g>
        <g stroke="#000" class="edge">
            <path fill="none" d="M3687.73 394.3c23.09 7.68 47.54 20.49 61.27 41.7 8.69 13.43 7.17 21.7 0 36-6.3 12.57-17.16 22.92-28.51 31.03"/>
            <path d="m3722.47 505.92-10.27 2.57 6.43-8.42z"/>
        </g>
        <g stroke="#000" class="edge">
            <path fill="none" d="M3559.88 388.7c-145.7 11.82-466.41 38.61-488.88 47.3-24.87 9.62-23.2 26.19-48 36-135.55 53.63-182.03 13.18-326 36-5.92.94-12.07 2.02-18.21 3.16"/>
            <path d="m2679.77 514.54-10.49-1.54 9.16-5.33z"/>
        </g>
        <g stroke="#000" class="edge">
            <path fill="none" d="M3559.13 388.01c-178.05 12.4-639.53 44.54-839 58.43"/>
            <path d="m2720.54 449.92-10.22-2.79 9.74-4.19z"/>
        </g>
        <g class="node" transform="translate(4 544)">
            <ellipse cx="4529" cy="-90" fill="none" stroke="#000" rx="121.98" ry="18"/>
            <text x="4529" y="-84.95" font-family="Times,serif" font-size="14" text-anchor="middle">:app:core:account-preferences</text>
        </g>
        <g stroke="#000" class="edge">
            <path fill="none" d="M3705.01 386.6c137.51 7.01 441.64 24.08 696.99 49.4 10.59 1.05 21.64 2.28 32.64 3.58"/>
            <path d="m4435.05 436.11 9.51 4.68-10.35 2.27z"/>
        </g>
        <g stroke="#000" class="edge">
            <path fill="none" d="M3958.71 184.45c15.55 51.21 52.87 202.8-19.71 287.55-22.5 26.27-107.82 39.94-174.87 46.76"/>
            <path d="m3764.49 522.24-10.29-2.51 9.61-4.46z"/>
        </g>
        <g stroke="#000" class="edge">
            <path fill="none" d="M3942.03 184.27C3912.21 229.44 3824.61 350.99 3716 400c-102.95 46.46-395.4 18.59-507 36-66.89 10.43-81.26 24.64-148 36-160.26 27.28-203.3 11.47-364 36-5.93.91-12.08 1.96-18.22 3.09"/>
            <path d="m2679.75 514.47-10.48-1.55 9.16-5.32z"/>
        </g>
        <g stroke="#000" class="edge">
            <path fill="none" d="M3871.48 170.53c-269.29 11.67-1130.2 48.96-1430.2 61.95"/>
            <path d="m2441.65 235.97-10.15-3.06 9.84-3.93z"/>
        </g>
        <g stroke="#000" class="edge">
            <path fill="none" d="M4035.21 169.8c72.71 4.7 180.63 17.19 268.79 50.2 88.76 33.24 179.23 100.62 224.08 136.78"/>
            <path d="m4530.23 354.01 5.54 9.03-9.96-3.6z"/>
        </g>
        <g stroke="#000" class="edge">
            <path fill="none" d="M4028.56 174.04c80.14 8.45 200.7 24.24 241.44 45.96 19.42 10.35 18.55 20.32 34 36 8.05 8.17 139.05 136.83 148 144 13.3 10.66 28.77 21.18 42.6 30.01"/>
            <path d="m4496.44 427.04 6.61 8.28-10.33-2.35z"/>
        </g>
        <g stroke="#000" class="edge">
            <path fill="none" d="M5910.93 394.46c-9.63 1.92-19.56 3.83-28.93 5.54-98.34 17.92-131.1-5.57-222 36-22.67 10.37-19.66 27.24-43 36-89.22 33.48-1619.81 31.39-1715 36-46.39 2.25-98.09 6.08-140.12 9.54"/>
            <path d="m3762.34 521.01-10.26-2.65 9.68-4.32z"/>
        </g>
        <g stroke="#000" class="edge">
            <path fill="none" d="M5911.42 394.58c-9.77 1.92-19.88 3.81-29.42 5.42-117.2 19.8-159.68-19.09-265 36-19.23 10.06-13.19 27.14-33 36-73.21 32.75-2807.27 27.32-2887 36-6.48.71-13.21 1.69-19.9 2.82"/>
            <path d="m2677.89 514.24-10.46-1.65 9.2-5.24z"/>
        </g>
        <g stroke="#000" class="edge">
            <path fill="none" d="M5913.35 395.15c-10.34 1.96-21.15 3.72-31.35 4.85-377.77 41.86-1330 27.86-1710 36-245.63 5.26-534.71 11.59-682.75 14.84"/>
            <path d="m3489.56 454.33-10.08-3.28 9.92-3.72z"/>
        </g>
        <g stroke="#000" class="edge">
            <path fill="none" d="M5926.22 397.5c-28.4 10.36-66.93 24.4-98.11 35.77"/>
            <path d="m5829.42 436.52-10.59.14 8.2-6.72z"/>
        </g>
        <g class="node" transform="translate(4 544)">
            <ellipse cx="5450" cy="-90" fill="none" stroke="#000" rx="120.96" ry="18"/>
            <text x="5450" y="-84.95" font-family="Times,serif" font-size="14" text-anchor="middle">:app:core:holiday-preferences</text>
        </g>
        <g stroke="#000" class="edge">
            <path fill="none" d="M5911.44 394.68c-9.78 1.91-19.89 3.77-29.44 5.32-129.51 21.03-162.8 19.8-293 36-10.9 1.36-22.3 2.78-33.64 4.2"/>
            <path d="m5555.9 443.66-10.36-2.23 9.49-4.71z"/>
        </g>
        <g class="node" transform="translate(4 544)">
            <ellipse cx="6003" cy="-90" fill="none" stroke="#000" rx="110.21" ry="18"/>
            <text x="6003" y="-84.95" font-family="Times,serif" font-size="14" text-anchor="middle">:app:core:holiday-database</text>
        </g>
        <g stroke="#000" class="edge">
            <path fill="none" d="M5976.13 400.3c4.57 7.8 10.07 17.19 15.16 25.87"/>
            <path d="m5994.18 424.19 2.04 10.4-8.08-6.86z"/>
        </g>
        <g stroke="#000" class="edge">
            <path fill="none" d="M4714.18 322.09c75.41 14.95 200.21 39.93 201.82 41.91 30.33 37.2 33.33 73.46 0 108-39.15 40.56-957.72 32.87-1014 36-46.28 2.58-97.87 6.43-139.86 9.81"/>
            <path d="m3762.6 521.28-10.25-2.68 9.68-4.29z"/>
        </g>
        <g stroke="#000" class="edge">
            <path fill="none" d="M4713.33 322.25c64.88 13.45 164.32 35 169.67 41.75 17.85 22.54-6.67 99.68-17 108-46.94 37.79-2109.11 29.35-2169 36-6.39.71-13.01 1.68-19.61 2.8"/>
            <path d="m2678.33 514.19-10.46-1.65 9.21-5.24z"/>
        </g>
        <g stroke="#000" class="edge">
            <path fill="none" d="M4585.51 314.12c-262.4 11.3-1162.7 50.06-1458.5 62.79"/>
            <path d="m3127.56 380.39-10.14-3.07 9.84-3.92z"/>
        </g>
        <g stroke="#000" class="edge">
            <path fill="none" d="M4634.32 327.41c-13.11 9.08-29.6 20.52-43.99 30.49"/>
            <path d="m4592.69 360.52-10.21 2.82 6.22-8.57z"/>
        </g>
        <g stroke="#000" class="edge">
            <path fill="none" d="M4684.44 327.24c15.18 9.31 34.45 21.15 51.06 31.35"/>
            <path d="m4736.93 355.36 6.69 8.21-10.35-2.25z"/>
        </g>
        <g class="node" transform="translate(4 544)">
            <ellipse cx="6278" cy="-162" fill="none" stroke="#000" rx="109.19" ry="18"/>
            <text x="6278" y="-156.95" font-family="Times,serif" font-size="14" text-anchor="middle">:app:core:backup-database</text>
        </g>
        <g stroke="#000" class="edge">
            <path fill="none" d="M4730.42 314.16c81.03 3.51 216.2 9.28 332.58 13.84 438.62 17.2 548.7 11.96 987 36 40.65 2.23 85.25 5.34 124.4 8.29"/>
            <path d="m6174.61 368.8 9.7 4.24-10.23 2.74z"/>
        </g>
        <g stroke="#000" class="edge">
            <path fill="none" d="M4192.27 256.45c-8.09 45.07-36.49 165.37-115.27 215.55-26.01 16.57-205.82 35.48-314.99 45.63"/>
            <path d="m3762.48 521.11-10.28-2.57 9.64-4.41z"/>
        </g>
        <g stroke="#000" class="edge">
            <path fill="none" d="M4187.91 256.38c-9.1 20.14-26.75 52.95-51.91 71.62-89.43 66.36-130.35 52.55-240 72-131.96 23.41-477.46-13.51-602 36-23.16 9.21-19.86 26.73-43 36-114.53 45.87-431.75 19.44-554 36-6.28.85-12.79 1.9-19.28 3.07"/>
            <path d="m2678.83 514.42-10.48-1.59 9.18-5.29z"/>
        </g>
        <g stroke="#000" class="edge">
            <path fill="none" d="M4132.12 243.57c-167.56 12.16-625.01 45.38-815.79 59.23"/>
            <path d="m3316.71 306.29-10.23-2.77 9.72-4.22z"/>
        </g>
        <g stroke="#000" class="edge">
            <path fill="none" d="M4231.37 253.27c64.94 25.47 200.95 78.82 274.99 107.86"/>
            <path d="m4507.37 357.77 8.03 6.91-10.58-.39z"/>
        </g>
        <g stroke="#000" class="edge">
            <path fill="none" d="M4247.94 249.04c45.61 9.25 112.93 24.35 170.06 42.96 39.4 12.83 46.36 23.92 86 36 34.1 10.39 120.54 26.85 186.11 38.67"/>
            <path d="m4690.55 363.19 9.22 5.22-10.46 1.67z"/>
        </g>
        <g stroke="#000" class="edge">
            <path fill="none" d="M4069.89 328.28c8.13 32.77 20.08 104.23-16.89 143.72-19.51 20.84-185.14 37.8-289.65 46.55"/>
            <path d="m3763.94 522.01-10.25-2.66 9.68-4.32z"/>
        </g>
        <g stroke="#000" class="edge">
            <path fill="none" d="M4033.66 326c-45 20.74-131.07 57.51-208.66 74-122.84 26.11-446.18-7.49-564 36-25.02 9.23-23.01 26.69-48 36-107.71 40.12-402.13 20.3-516 36-6.03.83-12.28 1.85-18.52 2.96"/>
            <path d="m2679.27 514.37-10.47-1.59 9.18-5.29z"/>
        </g>
        <g stroke="#000" class="edge">
            <path fill="none" d="M4003.74 313.51c-258.68 10.61-1262.06 51.76-1561.14 64.02"/>
            <path d="m2443.06 381.01-10.13-3.08 9.84-3.91z"/>
        </g>
        <g stroke="#000" class="edge">
            <path fill="none" d="M4120.01 318.83c85.23 12.12 249.89 35.55 350.95 49.93"/>
            <path d="m4471.45 365.29 9.41 4.88-10.4 2.05z"/>
        </g>
        <g stroke="#000" class="edge">
            <path fill="none" d="M4106.55 323.76c34.99 10.74 85.52 26.25 125.16 38.42"/>
            <path d="m4232.59 358.79 8.54 6.28-10.59.41z"/>
        </g>
        <g stroke="#000" class="edge">
            <path fill="none" d="M3844.86 112.3c14.32 66.15 61.45 302.24 18.14 359.7-13.7 18.18-65.23 32.02-110.44 40.99"/>
            <path d="m3753.5 516.38-10.48-1.55 9.16-5.33z"/>
        </g>
        <g stroke="#000" class="edge">
            <path fill="none" d="M3839.93 112.25C3835.6 165.61 3814.5 328.69 3716 400c-45.39 32.86-447.61 27.52-503 36-68.62 10.51-83.52 24.56-152 36-160.34 26.79-203.3 11.47-364 36-5.93.91-12.08 1.96-18.22 3.09"/>
            <path d="m2679.75 514.47-10.48-1.55 9.16-5.32z"/>
        </g>
        <g stroke="red" stroke-width="2" class="edge">
            <path fill="none" d="M3766.73 100.15c-179.87 12.46-638.79 44.27-839.41 58.17"/>
            <path fill="red" d="m2929.17 161.7-10.22-2.8 9.74-4.18z"/>
        </g>
        <g class="node" transform="translate(4 544)">
            <ellipse cx="5064" cy="-162" fill="none" stroke="#000" rx="100.48" ry="18"/>
            <text x="5064" y="-156.95" font-family="Times,serif" font-size="14" text-anchor="middle">:app:core:filter-database</text>
        </g>
        <g stroke="#000" class="edge">
            <path fill="none" d="M3898.62 106.56C4041.69 135.51 4424.49 214.34 4741 292c92.64 22.73 199.09 52.36 264.7 71.04"/>
            <path d="m5006.56 359.65 8.65 6.11-10.57.62z"/>
        </g>
        <g stroke="#000" class="edge">
            <path fill="none" d="M2883.83 249.51c-64.38 10.35-164.94 26.84-251.83 42.49-319.88 57.6-401.23 66.96-717 144-94.05 22.95-202.38 54.34-265.24 73.06"/>
            <path d="m1650.98 512.35-10.59-.49 8.58-6.22z"/>
        </g>
        <g stroke="#000" class="edge">
            <path fill="none" d="M3024.37 246.64c100.19 10.75 268.89 30.69 293.63 45.36 51.61 30.6 29.96 76.46 81 108 76.08 47.02 119.77-7.36 198 36 26.85 14.88 49.57 42.01 64.05 62.41"/>
            <path d="m3663.86 496.33 2.76 10.23-8.54-6.28z"/>
        </g>
        <g stroke="#000" class="edge">
            <path fill="none" d="M2936.89 256.23C2904.54 297.8 2816.82 405.14 2724 472c-18.52 13.34-40.93 24.9-60.59 33.78"/>
            <path d="m2665.06 508.88-10.56.82 7.74-7.23z"/>
        </g>
        <g stroke="red" stroke-width="2" class="edge">
            <path fill="none" d="M2901.84 253.17c-38.7 11.38-93.1 27.38-133.76 39.34"/>
            <path fill="red" d="m2770.75 295.37-10.58-.54 8.61-6.18z"/>
        </g>
        <g stroke="#000" class="edge">
            <path fill="none" d="M2927.24 255.81c-24.84 18.2-65.93 47.89-102.24 72.19-55.64 37.24-121.71 78.09-161.98 102.63"/>
            <path d="m2665.01 433.52-10.36 2.2 6.72-8.19z"/>
        </g>
        <g stroke="#000" class="edge">
            <path fill="none" d="M2959.89 256.13c14.04 24.31 39.88 69.05 56.51 97.86"/>
            <path d="m3019.35 352.09 1.97 10.41-8.03-6.91z"/>
        </g>
        <g class="node" transform="translate(4 544)">
            <ellipse cx="3978" cy="-18" fill="none" stroke="#000" rx="71.31" ry="18"/>
            <text x="3978" y="-12.95" font-family="Times,serif" font-size="14" text-anchor="middle">:app:core:model</text>
        </g>
        <g stroke="#000" class="edge">
            <path fill="none" d="M3024.27 246.81C3199.39 265.79 3633.76 316.28 3772 364c63.54 21.93 80.6 29.9 133 72 22.75 18.28 44.09 43.88 58.51 62.93"/>
            <path d="m3966.16 496.62 3.13 10.12-8.76-5.95z"/>
        </g>
        <g class="node" transform="translate(4 544)">
            <ellipse cx="2787" cy="-18" fill="none" stroke="#000" rx="85.13" ry="18"/>
            <text x="2787" y="-12.95" font-family="Times,serif" font-size="14" text-anchor="middle">:common:exception</text>
        </g>
        <g stroke="#000" class="edge">
            <path fill="none" d="M2950.1 256.25c-.39 18.32-2.5 47.87-11.1 71.75-25.57 70.98-86.15 137.66-121.37 172.27"/>
            <path d="m2820.39 502.48-9.62 4.43 4.75-9.46z"/>
        </g>
        <g stroke="#000" class="edge">
            <path fill="none" d="M2645.5 316.98c-88.36 8.35-249.2 25.01-385.5 47.02-156.35 25.25-195.16 34.38-349 72-92.94 22.73-199.89 54.19-261.93 72.98"/>
            <path d="m1650.43 512.23-10.59-.44 8.55-6.26z"/>
        </g>
        <g stroke="#000" class="edge">
            <path fill="none" d="M2714.12 328.14c3.59 20.88 12.99 55.4 36.88 71.86 135.03 93.03 588.56-33.67 737 36 19.65 9.22 14.81 24.16 33 36 26.93 17.54 60.26 29.86 89.27 38.19"/>
            <path d="m3610.99 506.75 8.71 6.03-10.57.72z"/>
        </g>
        <g stroke="#000" class="edge">
            <path fill="none" d="M2642.63 314.43c-117.33 6.5-344.62 22.49-368.63 49.57-38.45 43.39 44.84 100.67 57 108 34.04 20.54 134.82 35.96 206.63 44.73"/>
            <path d="m2537.88 513.24 9.51 4.66-10.35 2.29z"/>
        </g>
        <g stroke="#000" class="edge">
            <path fill="none" d="M2699.53 327.88c-7.4 10.26-16.83 23.73-24.53 36.12-12.56 20.19-25.47 43.79-34.89 61.62"/>
            <path d="m2643.31 427.05-7.74 7.24 1.54-10.49z"/>
        </g>
        <g stroke="red" stroke-width="2" class="edge">
            <path fill="none" d="M2764.48 322.48c54.06 11.82 138.58 30.31 198.13 43.34"/>
            <path fill="red" d="m2961.82 362.06 9.02 5.56-10.52 1.28z"/>
        </g>
        <g stroke="#000" class="edge">
            <path fill="none" d="M2742.18 326.58c42.13 20.9 121.54 57.26 193.82 73.42 253.35 56.64 325.45 3.43 583 36 144.9 18.32 312.73 54.34 401.14 74.48"/>
            <path d="m3920.86 507.06 8.97 5.64-10.53 1.18z"/>
        </g>
        <g stroke="#000" class="edge">
            <path fill="none" d="M2671.43 325.14c-68.42 26-194.51 84.45-143.43 146.86 3.06 3.74 112.84 24.94 189.59 39.36"/>
            <path d="m2717.98 507.88 9.19 5.28-10.48 1.59z"/>
        </g>
        <g stroke="#000" class="edge">
            <path fill="none" d="M2543.1 460.64c-196.88 13.39-689.88 46.93-874.66 59.5"/>
            <path d="m1668.7 523.63-10.21-2.81 9.74-4.17z"/>
        </g>
        <g stroke="#000" class="edge">
            <path fill="none" d="M2709.43 460.55c195.93 13.04 683.88 45.51 882.45 58.72"/>
            <path d="m3591.86 515.76 9.75 4.16-10.22 2.82z"/>
        </g>
        <g stroke="#000" class="edge">
            <path fill="none" d="M2623.28 472.3c-1.16 7.38-2.54 16.18-3.84 24.45"/>
            <path d="m2622.93 497.07-5.01 9.33-1.9-10.42z"/>
        </g>
        <g stroke="red" stroke-width="2" class="edge">
            <path fill="none" d="M2712.93 458.09c190.75 6.99 660.3 25.33 1053.07 49.91 45.81 2.87 97.03 6.86 138.09 10.26"/>
            <path fill="red" d="m3902.69 514.63 9.68 4.32-10.26 2.66z"/>
        </g>
        <g stroke="#000" class="edge">
            <path fill="none" d="M2663.03 470.71c23.78 10.09 54.88 23.28 80.47 34.14"/>
            <path d="m2744.86 501.62 7.84 7.13-10.57-.68z"/>
        </g>
        <g stroke="#000" class="edge">
            <path fill="none" d="M2253.64 247.33c-70.63 8.12-174.22 22.5-262.64 44.67-186.52 46.76-296.94-12.98-408 144-12.61 17.83-7.31 42.68.13 61.59"/>
            <path d="m1586.25 495.99.78 10.56-7.2-7.77z"/>
        </g>
        <g stroke="#000" class="edge">
            <path fill="none" d="M2288.32 253.91c-18.15 8.18-36.87 20.38-47.32 38.09-43.16 73.12-12.77 143.73 64 180 57.99 27.4 987.94 46.17 1283.54 51.47"/>
            <path d="m3588.17 519.97 9.94 3.67-10.06 3.32z"/>
        </g>
        <g stroke="#000" class="edge">
            <path fill="none" d="M2259.83 249.08c-93.27 12.56-238.84 33.51-246.83 42.92-31.08 36.58-17.06 63.13 0 108 15.22 40.02 25.85 52.57 64 72 77.2 39.33 322.85 49.5 453.85 52.11"/>
            <path d="m2530.56 520.6 9.93 3.69-10.07 3.31z"/>
        </g>
        <g stroke="#000" class="edge">
            <path fill="none" d="M2429.64 243.3c92.75 5.81 239.02 19.1 362.36 48.7 69.96 16.79 147.41 47.94 194.91 68.57"/>
            <path d="m2988.3 357.36 7.76 7.22-10.57-.81z"/>
        </g>
        <g stroke="#000" class="edge">
            <path fill="none" d="M2424.35 245.84c171.9 13.46 552.14 43.23 721.91 56.52"/>
            <path d="m3146.42 298.87 9.7 4.27-10.25 2.71z"/>
        </g>
        <g stroke="#000" class="edge">
            <path fill="none" d="M2339.58 256.41c3.54 23.98 9.97 67.45 14.22 96.17"/>
            <path d="m2357.25 351.99-2 10.4-4.93-9.38z"/>
        </g>
        <g stroke="#000" class="edge">
            <path fill="none" d="M2320.52 255.78c-28.13 30.74-79.37 97.24-46.52 144.22 53.42 76.4 105.44 54.48 197 72 282.76 54.11 1007.52 20.7 1295 36 46.01 2.45 97.44 6.45 138.57 9.95"/>
            <path d="m3904.71 514.45 9.66 4.34-10.26 2.63z"/>
        </g>
        <g stroke="#000" class="edge">
            <path fill="none" d="M2258.36 248.73c-52.58 8.3-115.01 22.28-131.36 43.27-43.09 55.32-32.79 112.09 64 180 46.14 32.37 450.08 28.97 506 36 7.16.9 14.6 1.98 22.01 3.16"/>
            <path d="m2719.43 507.69 9.29 5.08-10.43 1.82z"/>
        </g>
        <g stroke="#000" class="edge">
            <path fill="none" d="M3305.38 458.34c-307.06 11.98-1349.84 52.67-1635.5 63.82"/>
            <path d="m1670.08 525.65-10.13-3.11 9.86-3.88z"/>
        </g>
        <g stroke="#000" class="edge">
            <path fill="none" d="M3446 468.41c48.12 11.74 118.02 28.79 168.51 41.1"/>
            <path d="m3615.25 506.09 8.89 5.77-10.55 1.03z"/>
        </g>
        <g stroke="#000" class="edge">
            <path fill="none" d="M3327.21 466.68c-12.63 2.02-25.81 3.91-38.21 5.32-261.92 29.71-330.72 1.15-592 36-6.28.84-12.79 1.88-19.28 3.04"/>
            <path d="m2678.82 514.39-10.47-1.59 9.18-5.29z"/>
        </g>
        <g stroke="#000" class="edge">
            <path fill="none" d="M3465.55 463.83c113.4 13.43 328.03 38.85 441.61 52.31"/>
            <path d="m3907.47 512.65 9.52 4.65-10.34 2.3z"/>
        </g>
        <g stroke="#000" class="edge">
            <path fill="none" d="M3326.06 466.41c-12.29 2-25.05 3.95-37.06 5.59-142.88 19.49-309.66 35.97-409.39 45.16"/>
            <path d="m2880.16 520.63-10.27-2.57 9.63-4.4z"/>
        </g>
        <g stroke="#000" class="edge">
            <path fill="none" d="M2978.13 396.44c-40.18 10.24-96.3 25.01-145.13 39.56-48.89 14.57-58.83 26.72-109 36-203.17 37.6-836.9 49.22-1053.53 52.15"/>
            <path d="m1670.8 527.64-10.04-3.36 9.95-3.64z"/>
        </g>
        <g stroke="#000" class="edge">
            <path fill="none" d="M3111.85 389.32c128.86 10.56 372.06 32.05 409.15 46.68 24.81 9.79 25.24 22.11 48 36 19.94 12.17 43.09 23.76 62.92 32.97"/>
            <path d="m3633.23 501.73 7.64 7.34-10.55-.98z"/>
        </g>
        <g stroke="#000" class="edge">
            <path fill="none" d="M2980.38 396.83c-29.97 9.06-67.89 22.35-99.38 39.17-23.52 12.56-23.88 24.62-48 36-14 6.61-94.71 25.45-153.86 38.79"/>
            <path d="m2680 514.18-10.52-1.22 8.99-5.61z"/>
        </g>
        <g stroke="red" stroke-width="2" class="edge">
            <path fill="none" d="M2966.77 394.25c-71.89 12.39-187.43 32.31-263.73 45.47"/>
            <path fill="red" d="m2705.51 442.84-10.45-1.75 9.26-5.15z"/>
        </g>
        <g stroke="#000" class="edge">
            <path fill="none" d="M3117.72 385.18c170.13 4.94 544.8 19.15 669.28 50.82 58.1 14.78 120.3 46.21 158.43 67.47"/>
            <path d="m3946.75 500.2 6.99 7.97-10.43-1.88z"/>
        </g>
        <g stroke="#000" class="edge">
            <path fill="none" d="M3004.35 399.29c-43.28 25.5-127.13 74.91-175.83 103.6"/>
            <path d="m2830.39 505.85-10.39 2.06 6.84-8.09z"/>
        </g>
        <g stroke="#000" class="edge">
            <path fill="none" d="M3216.48 328.05c-18.41 20.46-52.17 54.21-88.48 71.95-73.69 36.01-100.83 18.66-181 36-68.7 14.86-84.37 26.4-154 36-218.69 30.14-897.99 46.75-1122.87 51.54"/>
            <path d="m1670.4 527.03-10.07-3.29 9.92-3.71z"/>
        </g>
        <g stroke="#000" class="edge">
            <path fill="none" d="M3243.15 327.98c15.84 20.71 45.6 55.05 79.85 72.02 95.07 47.11 138.17-5.07 236 36 24.59 10.32 26.65 20.02 48 36 12.95 9.69 27.25 20.37 39.6 29.58"/>
            <path d="m3648.47 498.61 5.92 8.79-10.1-3.18z"/>
        </g>
        <g stroke="#000" class="edge">
            <path fill="none" d="M3229.82 328.29c-2.37 20.38-9.47 53.72-30.82 71.71-70.41 59.32-119.53-.62-204 36-24.47 10.61-23.37 25.78-48 36-103.69 43.02-139.43 16.6-250 36-5.67 1-11.55 2.09-17.44 3.23"/>
            <path d="m2680.26 514.66-10.49-1.49 9.13-5.38z"/>
        </g>
        <g stroke="#000" class="edge">
            <path fill="none" d="M3166.1 320.44c-60.07 9.26-151.68 24.72-230.1 43.56-53.73 12.91-65.93 20.61-119 36-42.87 12.43-91.32 25.87-128.7 36.1"/>
            <path d="m2689.6 439.38-10.57-.74 8.72-6.02z"/>
        </g>
        <g stroke="#000" class="edge">
            <path fill="none" d="M3189.28 325.67c-30.2 10.63-71.28 25.08-103.89 36.55"/>
            <path d="m3086.71 365.46-10.59.02 8.27-6.62z"/>
        </g>
        <g stroke="#000" class="edge">
            <path fill="none" d="M3303.43 317.35c125.62 11.24 374.18 34.6 412.57 46.65 94.92 29.79 191.04 100.13 237.43 137.2"/>
            <path d="m3955.54 498.4 5.58 9.01-9.98-3.56z"/>
        </g>
        <g stroke="#000" class="edge">
            <path fill="none" d="M3238.34 328.32c6.97 19.48 14.29 51.07-1.34 71.68-43.91 57.9-248.11 96.35-364.39 113.95"/>
            <path d="m2873.2 517.4-10.41-1.98 9.37-4.94z"/>
        </g>
        <g stroke="#000" class="edge">
            <path fill="none" d="M2303.21 394.62c-83.57 17.57-247.98 51.62-388.21 77.38-87.37 16.05-188.64 32.57-252.99 42.81"/>
            <path d="m1662.75 518.24-10.43-1.89 9.33-5.03z"/>
        </g>
        <g stroke="#000" class="edge">
            <path fill="none" d="M2376.7 399.9c24.9 21.33 71.31 57.02 118.3 72.1 102.9 33.01 834.73 47.55 1093.01 51.69"/>
            <path d="m3587.76 520.19 9.94 3.65-10.05 3.34z"/>
        </g>
        <g stroke="#000" class="edge">
            <path fill="none" d="M2347.97 400.12c-10.02 19.58-21.71 51.56-4.97 71.88 23.78 28.86 118.95 42.21 190.06 48.25"/>
            <path d="m2533.06 516.74 9.68 4.29-10.25 2.68z"/>
        </g>
        <g stroke="#000" class="edge">
            <path fill="none" d="M2407.47 395.92c43.54 11.37 107.22 28.01 154.62 40.39"/>
            <path d="m2562.9 432.9 8.79 5.91-10.56.86z"/>
        </g>
        <g stroke="#000" class="edge">
            <path fill="none" d="M2395.42 398.01c23.37 9.85 53.81 23.54 79.58 37.99 24.84 13.93 25.91 27.24 53 36 130.93 42.36 1100.59 28.6 1238 36 46.01 2.48 97.44 6.48 138.57 9.97"/>
            <path d="m3904.71 514.47 9.66 4.34-10.26 2.64z"/>
        </g>
        <g stroke="#000" class="edge">
            <path fill="none" d="M2357.11 400.36c-.01 20.43 3.42 53.84 23.89 71.64 53.34 46.37 246.08 25.71 316 36 6.84 1.01 13.94 2.14 21.04 3.32"/>
            <path d="m2718.4 507.83 9.26 5.14-10.44 1.76z"/>
        </g>
        <g stroke="#000" class="edge">
            <path fill="none" d="M2740.91 169.31c-117.89 4.31-330.5 16.51-508.91 50.69-109.79 21.03-138.57 27.22-241 72-142.32 62.23-297.01 165.27-362.2 210.52"/>
            <path d="m1630.93 505.3-10.21 2.85 6.2-8.59z"/>
        </g>
        <g stroke="#000" class="edge">
            <path fill="none" d="M2886.38 180.71c42.8 10.63 103.49 25.77 156.62 39.29 61.84 15.74 76.91 21.27 139 36 73.88 17.52 100 .28 167 36 30.51 16.27 81.45 91.81 112 108 68.62 36.37 109.2-11.04 171 36 19.67 14.97 31.67 40.75 38.47 60.72"/>
            <path d="m3673.8 495.65-.37 10.58-6.32-8.5z"/>
        </g>
        <g stroke="#000" class="edge">
            <path fill="none" d="M2767.3 179.27c-136.08 27.67-447.65 99.2-507.3 184.73-19.24 27.59 20.5 105.03 24 108 36.46 30.96 162.56 44.01 248.15 49.39"/>
            <path d="m2532.14 517.88 9.78 4.1-10.2 2.89z"/>
        </g>
        <g stroke="red" stroke-width="2" class="edge">
            <path fill="none" d="M2859.2 183.59c15.97 9.39 36.15 21.26 53.43 31.43"/>
            <path fill="red" d="m2912.96 211.15 6.84 8.09-10.39-2.06z"/>
        </g>
        <g stroke="#000" class="edge">
            <path fill="none" d="M2816.65 184.13c-20.75 24.76-59.28 70.73-83.35 99.45"/>
            <path d="m2736.11 285.68-9.1 5.41 3.74-9.91z"/>
        </g>
        <g stroke="#000" class="edge">
            <path fill="none" d="M2831.56 184.47c.09 32.17-4.19 101.31-39.56 143.53-25.56 30.51-49.47 13.07-82 36-3.57 2.52-37.2 38.51-60.81 63.94"/>
            <path d="m2652.02 430.04-9.36 4.95 4.23-9.71z"/>
        </g>
        <g stroke="#000" class="edge">
            <path fill="none" d="M2917.42 172.04c97.87 6.71 261.78 21.01 400.58 47.96 231.21 44.9 291.36 56.41 510 144 63.49 25.43 95.06 17.21 136 72 12.85 17.2 17.12 41.28 18.31 60.06"/>
            <path d="m3985.8 495.88-3.15 10.11-3.84-9.87z"/>
        </g>
        <g stroke="#000" class="edge">
            <path fill="none" d="M2791.63 182.61C2728.26 209.77 2603.98 271.79 2537 364c-19.91 27.41-19.37 38.6-25 72-2.66 15.78-10.2 23.68 0 36 1.66 2 122.45 24.41 204.53 39.44"/>
            <path d="m2717.15 508 9.2 5.24-10.46 1.64z"/>
        </g>
        <g stroke="#000" class="edge">
            <path fill="none" d="M5197.17 328.39c.35 19.84-2.22 52.05-20.17 71.61-9.27 10.1-222.48 69.74-236 72-227.88 38.03-808.32 23.26-1039 36-46.28 2.56-97.87 6.4-139.87 9.79"/>
            <path d="m3762.6 521.27-10.25-2.68 9.68-4.3z"/>
        </g>
        <g stroke="#000" class="edge">
            <path fill="none" d="M5165.34 327.77c-17.1 9.35-38.6 21.11-57.05 31.19"/>
            <path d="m5110.19 361.92-10.45 1.72 7.09-7.87z"/>
        </g>
        <g class="node" transform="translate(4 544)">
            <ellipse cx="6485" cy="-162" fill="none" stroke="#000" rx="80.01" ry="18"/>
            <text x="6485" y="-156.95" font-family="Times,serif" font-size="14" text-anchor="middle">:library:koin-room</text>
        </g>
        <g stroke="#000" class="edge">
            <path fill="none" d="M5319.53 310.56c218.63.52 687.7 7.53 1080.47 53.44 6.97.82 14.22 1.86 21.43 3.04"/>
            <path d="m6421.94 363.57 9.26 5.14-10.45 1.76z"/>
        </g>
        <g class="node" transform="translate(4 544)">
            <ellipse cx="6644" cy="-162" fill="none" stroke="#000" rx="60.56" ry="18"/>
            <text x="6644" y="-156.95" font-family="Times,serif" font-size="14" text-anchor="middle">:library:room</text>
        </g>
        <g stroke="#000" class="edge">
            <path fill="none" d="M5318.68 312.56C5609.95 316.78 6336.77 330.43 6578 364c5.01.7 10.19 1.6 15.35 2.62"/>
            <path d="m6594.05 363.19 9.04 5.52-10.51 1.33z"/>
        </g>
        <g stroke="#000" class="edge">
            <path fill="none" d="M6713.91 328.26c17.37 18.85 38.83 49.35 22.09 71.74-67.7 90.56-132.21 55.06-244 72-284.56 43.13-2302.48 23.1-2590 36-46.49 2.09-98.3 5.92-140.37 9.42"/>
            <path d="m3762.08 520.89-10.26-2.65 9.67-4.32z"/>
        </g>
        <g stroke="#000" class="edge">
            <path fill="none" d="M6615.19 324.66c-71.4 12.08-175.19 29.62-247.9 41.92"/>
            <path d="m6368.28 369.96-10.45-1.78 9.28-5.12z"/>
        </g>
        <g stroke="#000" class="edge">
            <path fill="none" d="M6647.99 327.24c-31.44 10.63-72.58 24.54-105.13 35.55"/>
            <path d="m6544.2 366.03-10.59-.11 8.35-6.52z"/>
        </g>
        <g stroke="#000" class="edge">
            <path fill="none" d="M6684.13 328.3c-5.4 7.89-11.92 17.4-17.93 26.15"/>
            <path d="m6669.13 356.38-8.55 6.27 2.77-10.23z"/>
        </g>
        <g stroke="#000" class="edge">
            <path fill="none" d="M5257.61 393.46c-26.59 2.19-54.53 4.47-80.61 6.54-211.05 16.75-264.1 17.4-475 36-19.49 1.72-40.23 3.69-60.26 5.66"/>
            <path d="m4642.17 445.14-10.29-2.5 9.6-4.47z"/>
        </g>
        <g class="node" transform="translate(4 544)">
            <ellipse cx="5180" cy="-90" fill="none" stroke="#000" rx="93.32" ry="18"/>
            <text x="5180" y="-84.95" font-family="Times,serif" font-size="14" text-anchor="middle">:library:koin-datastore</text>
        </g>
        <g stroke="#000" class="edge">
            <path fill="none" d="M5335.08 399.59c-29.13 10.3-66.67 23.57-97.04 34.31"/>
            <path d="m5239.23 437.19-10.6.03 8.26-6.63z"/>
        </g>
        <g stroke="#000" class="edge">
            <path fill="none" d="M6506.22 323.48c85.3 12.91 204.9 32.3 211.78 40.52 10.27 12.27 10.36 23.81 0 36-128.93 151.63-243.74 54.44-442 72-525.56 46.54-1846.93 12.03-2374 36-46.48 2.11-98.29 5.95-140.37 9.44"/>
            <path d="m3762.08 520.92-10.26-2.65 9.67-4.33z"/>
        </g>
        <g stroke="#000" class="edge">
            <path fill="none" d="M6334.27 323.28c-15.7 1.86-31.96 3.54-47.27 4.72-588.71 45.21-738.58 1.25-1328 36-29.3 1.73-61.13 4.34-90.08 7.01"/>
            <path d="m4869.35 374.48-10.28-2.55 9.63-4.42z"/>
        </g>
        <g stroke="#000" class="edge">
            <path fill="none" d="M6437.81 328.3c8.19 8.43 18.19 18.73 27.16 27.97"/>
            <path d="m6467.34 353.68 4.46 9.61-9.48-4.73z"/>
        </g>
        <g stroke="#000" class="edge">
            <path fill="none" d="M6472.23 326.8c37.13 11.45 87.14 26.87 124.33 38.34"/>
            <path d="m6597.2 361.67 8.52 6.29-10.59.4z"/>
        </g>
        <g stroke="#000" class="edge">
            <path fill="none" d="M4551.07 400.3c-2.56 7.46-5.62 16.38-8.48 24.73"/>
            <path d="m4545.91 426.14-6.55 8.32-.07-10.59z"/>
        </g>
        <g stroke="#000" class="edge">
            <path fill="none" d="M4627.72 394.56c90.61 14.89 236.35 39.15 238.28 41.44 10.31 12.23 10.97 24.35 0 36-27.25 28.93-587.44 45.71-801.68 51.09"/>
            <path d="m4064.45 526.58-10.08-3.25 9.91-3.74z"/>
        </g>
        <g stroke="#000" class="edge">
            <path fill="none" d="M4612.22 397.03c19.86 8 40.19 20.3 51.78 38.97 8.44 13.59 11.15 24.53 0 36-7.83 8.05-1396.64 41.67-1777.42 50.74"/>
            <path d="m2886.93 526.23-10.08-3.26 9.92-3.74z"/>
        </g>
        <g class="node" transform="translate(4 544)">
            <ellipse cx="4780" cy="-90" fill="none" stroke="#000" rx="72.85" ry="18"/>
            <text x="4780" y="-84.95" font-family="Times,serif" font-size="14" text-anchor="middle">:common:model</text>
        </g>
        <g stroke="#000" class="edge">
            <path fill="none" d="M4605.42 397.93c36.26 11.18 85.92 26.5 123.66 38.13"/>
            <path d="m4729.92 432.66 8.52 6.29-10.59.4z"/>
        </g>
        <g stroke="#000" class="edge">
            <path fill="none" d="M5699.24 466.96c-14.64 1.98-29.89 3.79-44.24 5.04-608.79 52.97-1346.28 54.68-1590.25 53.6"/>
            <path d="m4065 529.1-9.98-3.55 10.02-3.45z"/>
        </g>
        <g stroke="#000" class="edge">
            <path fill="none" d="M5602.17 394.79C5495.48 406.43 5348.76 424.15 5324 436c-20.98 10.04-16.45 27.24-38 36-133.26 54.18-2446.01 20.33-2589 36-6.48.71-13.21 1.69-19.89 2.83"/>
            <path d="m2677.89 514.25-10.46-1.65 9.2-5.24z"/>
        </g>
        <g stroke="#000" class="edge">
            <path fill="none" d="M5655.89 399.06c-39.85 10.65-92.24 24.64-133.66 35.71"/>
            <path d="m5523.16 438.14-10.56-.8 8.75-5.96z"/>
        </g>
        <g stroke="#000" class="edge">
            <path fill="none" d="M5608.01 395.46c-85.98 10.16-209.34 25.28-317.01 40.54-8.51 1.21-17.39 2.52-26.24 3.87"/>
            <path d="m5265.51 443.3-10.42-1.93 9.35-4.99z"/>
        </g>
        <g stroke="#000" class="edge">
            <path fill="none" d="M6149.33 328.31c7.21 33.5 17.18 107.08-23.33 143.69-45.84 41.42-2162.28 33.16-2224 36-46.48 2.14-98.29 5.98-140.37 9.46"/>
            <path d="m3762.08 520.94-10.26-2.65 9.68-4.33z"/>
        </g>
        <g stroke="#000" class="edge">
            <path fill="none" d="M6135.39 328.41c-11.02 18.99-30.42 49.61-52.39 71.59-11.15 11.15-24.9 21.53-37.63 30.1"/>
            <path d="m6047.46 432.92-10.29 2.53 6.46-8.39z"/>
        </g>
        <g stroke="#000" class="edge">
            <path fill="none" d="M6216.69 325.59c59.76 12.16 144.33 29.37 203.31 41.37"/>
            <path d="m6420.49 363.49 9.1 5.42-10.49 1.44z"/>
        </g>
        <g stroke="#000" class="edge">
            <path fill="none" d="M6241.96 322.73C6367.07 337.88 6569.78 362.5 6578 364c4.84.88 9.84 1.89 14.84 2.97"/>
            <path d="m6593.27 363.48 8.98 5.61-10.52 1.22z"/>
        </g>
        <g stroke="#000" class="edge">
            <path fill="none" d="M1212.38 178.1c-58.91 10.65-150.24 27.22-229.38 41.9-6.21 1.15-12.66 2.36-19.12 3.57"/>
            <path d="m964.98 226.92-10.47-1.59 9.18-5.29z"/>
        </g>
        <g stroke="#000" class="edge">
            <path fill="none" d="M1257.05 183.79c-24.79 24.42-68.99 67.35-78.05 72.21-39.69 21.28-87.81 34.08-129.35 41.76"/>
            <path d="m1050.34 301.19-10.45-1.71 9.24-5.19z"/>
        </g>
        <g stroke="#000" class="edge">
            <path fill="none" d="M1325.16 180.41c43.46 11.4 106.01 27.8 152.6 40.01"/>
            <path d="m1478.39 216.97 8.79 5.92-10.56.85z"/>
        </g>
        <g stroke="#000" class="edge">
            <path fill="none" d="m1265.99 184.15-79.19 169.46"/>
            <path d="m1190.1 354.82-7.41 7.58 1.07-10.55z"/>
        </g>
        <g stroke="#000" class="edge">
            <path fill="none" d="M1276.35 184.42c8.04 52.45 39.43 210.08 134.65 287.58 32.71 26.62 78.09 39.88 115.85 46.48"/>
            <path d="m1526.97 514.95 9.32 5.05-10.43 1.86z"/>
        </g>
        <g stroke="#000" class="edge">
            <path fill="none" d="M1342.72 176.08c73.12 9.88 192.08 26.6 294.28 43.92 6.04 1.02 12.3 2.14 18.58 3.28"/>
            <path d="m1656.17 219.83 9.19 5.27-10.47 1.61z"/>
        </g>
        <g stroke="#000" class="edge">
            <path fill="none" d="M1294.57 183.87c12.08 10.15 27.46 23.5 40.43 36.13 15.55 15.14 14.52 24.61 33 36 300.03 184.92 414.79 161.57 763 216 143.59 22.45 1149.17 44.8 1457.4 51.19"/>
            <path d="m3588.07 519.69 9.92 3.7-10.07 3.29z"/>
        </g>
        <g stroke="#000" class="edge">
            <path fill="none" d="M1283.33 184.15c10.91 19.03 30.36 49.96 52.67 71.85 123.27 120.95 159.2 161.28 323 216 81.46 27.21 654.5 45.03 872.28 50.89"/>
            <path d="m2531.21 519.38 9.91 3.77-10.09 3.23z"/>
        </g>
        <g stroke="#000" class="edge">
            <path fill="none" d="m1233.07 181.85-99.16 35.96"/>
            <path d="m1135.22 221.06-10.59.12 8.21-6.7z"/>
        </g>
        <g stroke="#000" class="edge">
            <path fill="none" d="M1353.71 170.33c278.27 11.62 1205.75 50.36 1503.45 62.79"/>
            <path d="m2856.97 229.61 9.85 3.92-10.14 3.08z"/>
        </g>
        <g stroke="#000" class="edge">
            <path fill="none" d="M1301.56 183.24c40.41 23.46 114.1 64.93 143.44 72.76 113.7 30.35 921.36 46.98 1184.41 51.63"/>
            <path d="m2629.33 304.13 9.93 3.67-10.06 3.33z"/>
        </g>
        <g stroke="#000" class="edge">
            <path fill="none" d="M795.28 182.71c17.34 9.63 39.79 22.11 58.8 32.67"/>
            <path d="m855.58 212.21 7.04 7.91-10.44-1.79z"/>
        </g>
        <g stroke="#000" class="edge">
            <path fill="none" d="M751.02 183.9c-16.07 19.09-36.2 50.34-19.02 72.1 16.1 20.4 73.99 33.81 126.61 42.03"/>
            <path d="m858.88 294.54 9.36 4.95-10.41 1.97z"/>
        </g>
        <g stroke="#000" class="edge">
            <path fill="none" d="M831.33 172.82c137.98 12.48 462.63 41.84 620.43 56.11"/>
            <path d="m1451.68 225.41 9.64 4.38-10.27 2.59z"/>
        </g>
        <g stroke="#000" class="edge">
            <path fill="none" d="M747.14 183.45c-9.9 9.52-20.85 22.4-26.14 36.55-5.6 14.99-7.96 22.12 0 36 31.51 54.95 63.17 51.2 123 72 108.52 37.74 143.02 15.12 256 36 5.69 1.05 11.6 2.24 17.49 3.49"/>
            <path d="m1118.23 364.07 9.02 5.56-10.51 1.28z"/>
        </g>
        <g stroke="#000" class="edge">
            <path fill="none" d="M698.75 169.09C566.37 173.86 285.12 187.71 256 220c-52.07 57.75-225.75 21.3 38 252 46.51 40.69 961.71 50.52 1229.81 52.54"/>
            <path d="m1523.47 521.04 9.97 3.57-10.02 3.43z"/>
        </g>
        <g stroke="#000" class="edge">
            <path fill="none" d="M834.62 169.98C1010.97 177.93 1482 200.39 1637 220c6.53.83 13.3 1.84 20.06 2.96"/>
            <path d="m1657.63 219.51 9.25 5.17-10.46 1.73z"/>
        </g>
        <g stroke="#000" class="edge">
            <path fill="none" d="M700.73 171.02C592.29 178.29 386.75 195.19 365 220c-10.55 12.03-9.03 22.79 0 36 94.35 137.97 484.63 115.35 740 144 337.17 37.83 421.36 51.03 760 72 340.92 21.11 1406.03 44.5 1723.09 51.15"/>
            <path d="m3588.06 519.65 9.92 3.71-10.07 3.29z"/>
        </g>
        <g stroke="#000" class="edge">
            <path fill="none" d="M699.51 169.67C575.26 175.29 320.54 190.32 294 220c-10.67 11.93-7.23 21.72 0 36 67.64 133.62 335.85 187.05 484 216 86.89 16.98 1404.28 44.36 1752.9 51.34"/>
            <path d="m2530.96 519.84 9.92 3.7-10.06 3.3z"/>
        </g>
        <g stroke="#000" class="edge">
            <path fill="none" d="M818.15 178.4c52.65 11.74 135.03 30.1 193.52 43.14"/>
            <path d="m1012.19 218.07 9 5.6-10.53 1.24z"/>
        </g>
        <g stroke="#000" class="edge">
            <path fill="none" d="M768.48 184.18c2.82 20.91 10.97 55.47 34.52 71.82 75.93 52.74 1469.1 53.81 1826.17 53.21"/>
            <path d="m2628.91 305.71 10.01 3.49-9.99 3.51z"/>
        </g>
        <g stroke="#000" class="edge">
            <path fill="none" d="M743.75 104.22c33.8 7.3 72.61 20.38 101.25 43.78 19.2 15.69 31.83 41.17 39.29 60.85"/>
            <path d="m887.57 207.63.02 10.6-6.62-8.27z"/>
        </g>
        <g stroke="#000" class="edge">
            <path fill="none" d="M669.79 112.4c.64 33.64 7.27 107.48 51.21 143.6 21.81 17.93 86.3 31.78 141.92 40.81"/>
            <path d="m863.45 293.35 9.33 5.03-10.43 1.89z"/>
        </g>
        <g stroke="#000" class="edge">
            <path fill="none" d="M759.05 95.07c162.09 1.24 498.49 9.19 605.95 52.93 23.09 9.4 21.6 23.23 43 36 23.51 14.03 51.4 25.8 75.56 34.65"/>
            <path d="m1484.7 215.34 8.24 6.66-10.59-.06z"/>
        </g>
        <g stroke="#000" class="edge">
            <path fill="none" d="M596.43 104.46C487.58 121.67 302.81 165.06 365 256c105.82 154.74 531.48 78.16 735 108 6.03.88 12.3 2 18.52 3.25"/>
            <path d="m1119.07 363.78 9.06 5.49-10.51 1.36z"/>
        </g>
        <g stroke="#000" class="edge">
            <path fill="none" d="M582.27 97.22C424.28 102 104.68 115.59 66 148c-31.4 26.31-24 48.03-24 89v146c0 100.96 110.49 66.87 209 89 245.25 55.09 1027.68 55.03 1272.23 53.6"/>
            <path d="m1522.93 522.1 10.02 3.44-9.98 3.56z"/>
        </g>
        <g stroke="#000" class="edge">
            <path fill="none" d="M758.72 95.85C896.95 98.43 1171.67 108.58 1401 148c97.14 16.7 207.21 50.13 270.81 70.93"/>
            <path d="m1672.53 215.48 8.4 6.45-10.59.2z"/>
        </g>
        <g stroke="#000" class="edge">
            <path fill="none" d="M594.86 103.91C491.53 116.45 316.99 138.8 306 148c-89.24 74.68-33.65 201.12 71 252 104.77 50.94 929.63 66.63 1046 72 109.7 5.06 1758.91 41.95 2165.11 51"/>
            <path d="m3588.05 519.5 9.92 3.72-10.08 3.28z"/>
        </g>
        <g stroke="#000" class="edge">
            <path fill="none" d="M582.47 97.49C440.03 102.47 170.93 116.02 142 148c-54.85 60.63-24.35 127.11 38 180 154.34 130.92 232.67 108.94 432 144 95.72 16.84 1551.06 44.67 1919 51.47"/>
            <path d="m2530.89 519.97 9.93 3.68-10.06 3.31z"/>
        </g>
        <g stroke="#000" class="edge">
            <path fill="none" d="M728.43 107.82C769.37 117.39 825.1 131.6 873 148c58.11 19.9 122.85 48.7 164.43 68.1"/>
            <path d="m1038.8 212.88 7.57 7.42-10.54-1.09z"/>
        </g>
        <g stroke="#000" class="edge">
            <path fill="none" d="M593 103.18c-76.43 9.04-187.55 25.01-226 44.82-51.5 26.54-99.65 56.56-73 108 132.37 255.47 313.86 113.28 811 144 718.36 44.39 899.47 18.83 1619 36 202.2 4.82 438.86 10.98 568.92 14.4"/>
            <path d="m3292.98 446.9 9.9 3.76-10.09 3.24z"/>
        </g>
        <g stroke="#000" class="edge">
            <path fill="none" d="M757.05 97.82c343.78 11.14 1606 52.02 1973.15 63.91"/>
            <path d="m2730.19 158.23 9.88 3.82-10.11 3.18z"/>
        </g>
        <g class="node" transform="translate(4 544)">
            <ellipse cx="485" cy="-306" fill="none" stroke="#000" rx="115.33" ry="18"/>
            <text x="485" y="-300.95" font-family="Times,serif" font-size="14" text-anchor="middle">:app:core:calendar-compose</text>
        </g>
        <g stroke="#000" class="edge">
            <path fill="none" d="M648.53 111.85c-32.03 25.12-92.45 72.53-129.05 101.23"/>
            <path d="m521.95 215.6-10.03 3.42 5.71-8.93z"/>
        </g>
        <g stroke="#000" class="edge">
            <path fill="none" d="M2018.4 178.33c-13.22 2.23-27.26 4.3-40.4 5.67-440.12 45.92-555.23-13.21-995 36-7.14.8-14.55 1.84-21.93 3.03"/>
            <path d="m961.87 226.44-10.44-1.79 9.28-5.11z"/>
        </g>
        <g stroke="#000" class="edge">
            <path fill="none" d="M2044.74 182.77c-43.2 20.95-124.19 57.17-197.74 73.23-74.71 16.31-563.02 38.9-784.31 48.45"/>
            <path d="m1063.05 307.93-10.14-3.06 9.84-3.93z"/>
        </g>
        <g stroke="#000" class="edge">
            <path fill="none" d="M2017.02 177.89c-12.84 2.18-26.36 4.35-39.02 6.11-151.38 21.07-190.68 14.52-342 36-6.91.98-14.09 2.09-21.27 3.27"/>
            <path d="m1615.43 226.7-10.44-1.8 9.28-5.1z"/>
        </g>
        <g stroke="#000" class="edge">
            <path fill="none" d="M2053.39 183.56c-29.96 20.95-85.23 56.25-138.39 72.44-177.53 54.07-233.31 3.36-416 36-99.42 17.76-212.55 52.04-275.68 72.48"/>
            <path d="m1224.53 367.77-10.59-.23 8.42-6.43z"/>
        </g>
        <g stroke="#000" class="edge">
            <path fill="none" d="M2061.08 183.96c-19.28 20.7-54.91 55.02-93.08 72.04-98.11 43.74-137.91-.33-239 36-58.53 21.03-77.24 26.83-120 72-34.98 36.95-49.5 58.43-38 108 2.06 8.89 5.83 18 9.87 26.11"/>
            <path d="m1583.87 496.28 1.64 10.47-7.81-7.16z"/>
        </g>
        <g stroke="#000" class="edge">
            <path fill="none" d="M2018.82 178.4c-61.33 12.23-158.75 31.66-224.43 44.76"/>
            <path d="m1795.3 226.55-10.5-1.48 9.13-5.39z"/>
        </g>
        <g stroke="#000" class="edge">
            <path fill="none" d="M2079.68 184.23c12.56 54.02 59.26 220.48 170.32 287.77 28.71 17.4 1030.3 43.28 1338.6 50.85"/>
            <path d="m3588.29 519.34 9.91 3.74-10.09 3.26z"/>
        </g>
        <g stroke="#000" class="edge">
            <path fill="none" d="M2062.73 183.78c-22.03 28.28-64.47 84.64-71.73 108.22-24 77.97-30.06 132.13 36 180 39.95 28.95 352.47 44.34 504.92 50.18"/>
            <path d="m2531.68 518.67 9.86 3.88-10.12 3.12z"/>
        </g>
        <g stroke="#000" class="edge">
            <path fill="none" d="M2017.86 178.2c-13.07 2.2-26.91 4.3-39.86 5.8-152.39 17.66-600.09 39.47-799.38 48.63"/>
            <path d="m1178.96 236.11-10.15-3.03 9.83-3.96z"/>
        </g>
        <g stroke="#000" class="edge">
            <path fill="none" d="M2153.14 167.41c109.9 2.06 304.4 11.59 359.86 52.59 42.24 31.23 25.21 60.68 48 108 16.44 34.13 36.78 72.71 50.28 97.87"/>
            <path d="m2614.24 423.98 1.66 10.47-7.82-7.15z"/>
        </g>
        <g stroke="#000" class="edge">
            <path fill="none" d="M2125.09 180.17c41.75 11.19 101.99 27.35 147.59 39.58"/>
            <path d="m2273.42 216.32 8.75 5.98-10.56.79z"/>
        </g>
        <g stroke="#000" class="edge">
            <path fill="none" d="M1797.36 168.4c-160.38 3.43-516.68 14.87-814.36 51.6-6.94.86-14.15 1.92-21.33 3.09"/>
            <path d="m962.38 226.52-10.45-1.76 9.27-5.14z"/>
        </g>
        <g stroke="#000" class="edge">
            <path fill="none" d="M1875.19 184.38c-10.53 21.13-31.46 55.9-61.19 71.62-4.12 2.18-524.78 33.19-753.87 46.74"/>
            <path d="m1060.48 306.22-10.19-2.9 9.78-4.08z"/>
        </g>
        <g stroke="#000" class="edge">
            <path fill="none" d="m1823.04 179.27-210.93 43.17"/>
            <path d="m1613.16 225.8-10.5-1.42 9.1-5.44z"/>
        </g>
        <g stroke="#000" class="edge">
            <path fill="none" d="M1881.35 184.37c-2.98 20.78-11.31 54.86-34.35 71.63-90.07 65.55-392.74 5.91-500 36-52.09 14.61-106.73 45.79-140.33 67.07"/>
            <path d="m1208.93 361.78-10.3 2.46 6.52-8.35z"/>
        </g>
        <g stroke="#000" class="edge">
            <path fill="none" d="M1887.03 184.44c3.54 20.19 5.58 53.05-13.03 71.56-59.35 59.05-299.93-1.06-375 36-39.2 19.35-50.72 31.43-67 72-17.88 44.55-29.31 69.24-1 108 21.5 29.43 59.52 42.9 93.75 48.91"/>
            <path d="m1524.87 517.39 9.35 4.99-10.42 1.92z"/>
        </g>
        <g stroke="#000" class="edge">
            <path fill="none" d="M1847.54 182.71c-22.74 10.08-52.49 23.26-76.99 34.11"/>
            <path d="m1772.01 220-10.56.85 7.73-7.25z"/>
        </g>
        <g stroke="#000" class="edge">
            <path fill="none" d="M1894 184.17c36.08 54.57 157.29 224.21 308 287.83 32.06 13.53 1071.54 42.24 1386.46 50.64"/>
            <path d="m3588.39 519.14 9.9 3.76-10.09 3.24z"/>
        </g>
        <g stroke="#000" class="edge">
            <path fill="none" d="M1887.77 184.03c2.66 10.32 5.73 23.8 7.23 35.97 9.77 79.42-31.27 108.17 4 180 22.42 45.67 41.79 53.02 89 72 96.38 38.75 395.56 49.17 543.06 51.97"/>
            <path d="m2530.83 520.47 9.93 3.68-10.06 3.32z"/>
        </g>
        <g stroke="#000" class="edge">
            <path fill="none" d="m1804.64 173.84-631.72 55.14"/>
            <path d="m1173.54 232.44-10.27-2.62 9.66-4.36z"/>
        </g>
        <g stroke="#000" class="edge">
            <path fill="none" d="M1947.96 178.15c13.85 2.15 28.41 4.23 42.04 5.85 100.06 11.91 363.91-12.92 452 36 86.96 48.29 68.82 104 133 180 7.91 9.37 17.06 19.16 25.41 27.75"/>
            <path d="m2602.82 425.21 4.53 9.58-9.52-4.67z"/>
        </g>
        <g stroke="#000" class="edge">
            <path fill="none" d="M1950.06 177.72c13.23 2.09 27.02 4.27 39.94 6.28 89.74 13.98 192.59 29.65 262.87 40.3"/>
            <path d="m2253.01 220.78 9.36 4.95-10.41 1.97z"/>
        </g>
        <g class="node" transform="translate(4 544)">
            <ellipse cx="4283" cy="-90" fill="none" stroke="#000" rx="106.11" ry="18"/>
            <text x="4283" y="-84.95" font-family="Times,serif" font-size="14" text-anchor="middle">:library:firebase-common</text>
        </g>
        <g stroke="#000" class="edge">
            <path fill="none" d="M4291.52 400.3c-.63 7.29-1.37 15.97-2.07 24.16"/>
            <path d="m4292.94 424.72-4.34 9.67-2.64-10.26z"/>
        </g>
        <g stroke="#000" class="edge">
            <path fill="none" d="M4831.2 396.99c20.3 7.93 40.89 20.2 52.8 39.01 8.56 13.52 10.98 24.36 0 36-27.9 29.59-602.7 46.02-819.88 51.19"/>
            <path d="m4064.41 526.69-10.08-3.26 9.91-3.74z"/>
        </g>
        <g stroke="#000" class="edge">
            <path fill="none" d="M5930.33 467.26c-14.05 1.88-28.61 3.57-42.33 4.74-362.16 30.8-1505.49 47.76-1823.32 51.96"/>
            <path d="m4064.84 527.46-10.04-3.37 9.95-3.63z"/>
        </g>
        <g stroke="#000" class="edge">
            <path fill="none" d="M6265.6 400.03c-21.94 21.46-63.14 57.31-106.6 71.97-100.82 34.01-1708.38 49.19-2094.22 52.36"/>
            <path d="m4064.99 527.86-10.03-3.42 9.97-3.58z"/>
        </g>
        <g stroke="#000" class="edge">
            <path fill="none" d="M6603.31 394.42c-8.39 1.98-17.09 3.93-25.31 5.58-199.44 40.04-249.3 54.89-452 72-759.34 64.11-2671.35-45.73-3429 36-6.48.7-13.21 1.68-19.9 2.81"/>
            <path d="m2677.89 514.22-10.47-1.64 9.21-5.24z"/>
        </g>
        <g stroke="#000" class="edge">
            <path fill="none" d="M570 251.19c83.17 12.52 212.16 31.94 297.35 44.77"/>
            <path d="m867.68 292.47 9.37 4.95-10.41 1.97z"/>
        </g>
        <g stroke="#000" class="edge">
            <path fill="none" d="M506.89 256.06C530.31 277.2 573.61 312.34 618 328c202.58 71.49 269.6 3.86 482 36 6.03.91 12.29 2.05 18.51 3.3"/>
            <path d="m1119.06 363.84 9.06 5.5-10.51 1.35z"/>
        </g>
        <g stroke="#000" class="edge">
            <path fill="none" d="M495.79 256.2c9.09 20.6 27.25 54.5 54.21 71.8 316.2 202.92 459.44 103.84 833 144 429.62 46.18 947.6 52.49 1147.57 53.09"/>
            <path d="m2530.35 521.59 9.99 3.52-10.01 3.48z"/>
        </g>
    </g>
</svg>
