<svg xmlns="http://www.w3.org/2000/svg" width="1187pt" height="188pt" viewBox="0 0 1186.95 188">
    <g class="graph">
        <path fill="#fff" d="M0 188V0h1186.95v188z"/>
        <g class="node" transform="translate(4 184)">
            <ellipse cx="472.99" cy="-162" fill="none" stroke="#000" rx="74.89" ry="18"/>
            <text x="472.99" y="-156.95" font-family="Times,serif" font-size="14" text-anchor="middle">:app:data:holiday</text>
        </g>
        <g class="node" transform="translate(4 184)">
            <ellipse cx="78.99" cy="-18" fill="none" stroke="#000" rx="78.99" ry="18"/>
            <text x="78.99" y="-12.95" font-family="Times,serif" font-size="14" text-anchor="middle">:library:coroutines</text>
        </g>
        <g stroke="#000" class="edge">
            <path fill="none" d="M416.27 32.86C370.04 41.4 305.33 55.62 250.99 76c-47.89 17.96-99.37 46.79-132.53 66.75"/>
            <path d="m120.43 145.64-10.36 2.21 6.72-8.19z"/>
        </g>
        <g class="node" transform="translate(4 184)">
            <ellipse cx="248.99" cy="-18" fill="none" stroke="#000" rx="72.85" ry="18"/>
            <text x="248.99" y="-12.95" font-family="Times,serif" font-size="14" text-anchor="middle">:library:datetime</text>
        </g>
        <g stroke="#000" class="edge">
            <path fill="none" d="M413.59 31.97C360.87 40.73 291.45 55.7 271.99 76c-15.3 15.97-19.55 41.07-20.26 60.56"/>
            <path d="m255.23 136.33-3.54 9.99-3.46-10.02z"/>
        </g>
        <g class="node" transform="translate(4 184)">
            <ellipse cx="1057.99" cy="-90" fill="none" stroke="#000" rx="120.96" ry="18"/>
            <text x="1057.99" y="-84.95" font-family="Times,serif" font-size="14" text-anchor="middle">:app:core:holiday-preferences</text>
        </g>
        <g stroke="#000" class="edge">
            <path fill="none" d="M543.71 30.48c88.72 10 250.36 28.47 388.28 45.52 9.95 1.23 20.33 2.54 30.69 3.87"/>
            <path d="m962.93 76.37 9.47 4.75-10.37 2.19z"/>
        </g>
        <g class="node" transform="translate(4 184)">
            <ellipse cx="580.99" cy="-90" fill="none" stroke="#000" rx="110.21" ry="18"/>
            <text x="580.99" y="-84.95" font-family="Times,serif" font-size="14" text-anchor="middle">:app:core:holiday-database</text>
        </g>
        <g stroke="red" stroke-width="2" class="edge">
            <path fill="none" d="M502.31 39.41c14.15 9.17 31.99 20.74 47.48 30.78"/>
            <path fill="red" d="m550.05 66.18 6.49 8.38-10.3-2.5z"/>
        </g>
        <g class="node" transform="translate(4 184)">
            <ellipse cx="813.99" cy="-90" fill="none" stroke="#000" rx="104.58" ry="18"/>
            <text x="813.99" y="-84.95" font-family="Times,serif" font-size="14" text-anchor="middle">:app:core:holiday-service</text>
        </g>
        <g stroke="#000" class="edge">
            <path fill="none" d="M532.54 34.4c56.79 11.66 145.43 29.86 208.87 42.88"/>
            <path d="m741.97 73.82 9.1 5.44-10.5 1.42z"/>
        </g>
        <g class="node" transform="translate(4 184)">
            <ellipse cx="364.99" cy="-90" fill="none" stroke="#000" rx="87.69" ry="18"/>
            <text x="364.99" y="-84.95" font-family="Times,serif" font-size="14" text-anchor="middle">:app:domain:holiday</text>
        </g>
        <g stroke="#000" class="edge">
            <path fill="none" d="M451.67 39.41c-14.25 9.24-32.26 20.91-47.82 31"/>
            <path d="m406.09 73.12-10.29 2.51 6.48-8.38z"/>
        </g>
        <g class="node" transform="translate(4 184)">
            <ellipse cx="740.99" cy="-18" fill="none" stroke="#000" rx="71.31" ry="18"/>
            <text x="740.99" y="-12.95" font-family="Times,serif" font-size="14" text-anchor="middle">:app:core:model</text>
        </g>
        <g stroke="red" stroke-width="2" class="edge">
            <path fill="none" d="M622.1 111.24c23.16 10.13 53.13 23.24 77.67 33.98"/>
            <path fill="red" d="m699.74 141.38 7.76 7.22-10.57-.8z"/>
        </g>
        <g stroke="#000" class="edge">
            <path fill="none" d="M800.32 111.95c-8.88 8.51-19.8 18.98-29.59 28.37"/>
            <path d="m773.23 142.77-9.64 4.39 4.8-9.44z"/>
        </g>
        <g stroke="#000" class="edge">
            <path fill="none" d="M314.18 108.41c-47.95 11.74-117.61 28.79-167.92 41.1"/>
            <path d="m147.21 152.88-10.54-1.02 8.88-5.78z"/>
        </g>
        <g stroke="#000" class="edge">
            <path fill="none" d="M341.79 111.41c-15.67 9.46-35.57 21.47-52.56 31.72"/>
            <path d="m291.28 145.98-10.37 2.17 6.75-8.16z"/>
        </g>
        <g stroke="#000" class="edge">
            <path fill="none" d="M433.96 106.38c73.29 12.88 187.86 33.17 231.03 41.62 5.21 1.02 10.61 2.11 16.03 3.21"/>
            <path d="m681.54 147.75 9.09 5.45-10.51 1.4z"/>
        </g>
        <g class="node" transform="translate(4 184)">
            <ellipse cx="566.99" cy="-18" fill="none" stroke="#000" rx="85.13" ry="18"/>
            <text x="566.99" y="-12.95" font-family="Times,serif" font-size="14" text-anchor="middle">:common:exception</text>
        </g>
        <g stroke="#000" class="edge">
            <path fill="none" d="M412.32 110.02c30.73 10.64 72.16 25 104.98 36.38"/>
            <path d="m518.34 143.05 8.3 6.58-10.59.04z"/>
        </g>
        <g class="node" transform="translate(4 184)">
            <ellipse cx="401.99" cy="-18" fill="none" stroke="#000" rx="62.1" ry="18"/>
            <text x="401.99" y="-12.95" font-family="Times,serif" font-size="14" text-anchor="middle">:library:kotlin</text>
        </g>
        <g stroke="#000" class="edge">
            <path fill="none" d="M378.14 112.3c4.07 7.72 8.97 16.99 13.52 25.59"/>
            <path d="m394.66 136.08 1.58 10.48-7.77-7.21z"/>
        </g>
    </g>
</svg>
