<svg xmlns="http://www.w3.org/2000/svg" width="1438pt" height="404pt" viewBox="0 0 1437.98 404">
    <g class="graph">
        <path fill="#fff" d="M0 404V0h1437.98v404z"/>
        <g class="node" transform="translate(4 400)">
            <ellipse cx="575" cy="-378" fill="none" stroke="#000" rx="83.6" ry="18"/>
            <text x="575" y="-372.95" font-family="Times,serif" font-size="14" text-anchor="middle">:app:data:credential</text>
        </g>
        <g class="node" transform="translate(4 400)">
            <ellipse cx="124" cy="-18" fill="none" stroke="#000" rx="78.99" ry="18"/>
            <text x="124" y="-12.95" font-family="Times,serif" font-size="14" text-anchor="middle">:library:coroutines</text>
        </g>
        <g stroke="#000" class="edge">
            <path fill="none" d="M497.23 26.24C338.48 34.76 4 64.62 4 165v74c0 52.88 49.39 95.57 85.83 119.87"/>
            <path d="m91.46 355.76 6.51 8.36-10.3-2.48z"/>
        </g>
        <g class="node" transform="translate(4 400)">
            <ellipse cx="294" cy="-18" fill="none" stroke="#000" rx="72.85" ry="18"/>
            <text x="294" y="-12.95" font-family="Times,serif" font-size="14" text-anchor="middle">:library:datetime</text>
        </g>
        <g stroke="#000" class="edge">
            <path fill="none" d="M520.74 35.29C456.44 51.46 353.19 85.44 286 148c-59.71 55.59-65.88 104.08-36 180 4.18 10.63 11.56 20.47 19.3 28.71"/>
            <path d="m271.64 354.1 4.65 9.52-9.57-4.54z"/>
        </g>
        <g class="node" transform="translate(4 400)">
            <ellipse cx="1308" cy="-234" fill="none" stroke="#000" rx="121.98" ry="18"/>
            <text x="1308" y="-228.95" font-family="Times,serif" font-size="14" text-anchor="middle">:app:core:account-preferences</text>
        </g>
        <g stroke="#000" class="edge">
            <path fill="none" d="M661.08 25.82C799.81 31.35 1074.48 45.8 1166 76c43.82 14.46 88.25 44.17 116.39 65.28"/>
            <path d="m1284.26 138.3 5.83 8.86-10.07-3.29z"/>
        </g>
        <g class="node" transform="translate(4 400)">
            <ellipse cx="1057" cy="-306" fill="none" stroke="#000" rx="95.88" ry="18"/>
            <text x="1057" y="-300.95" font-family="Times,serif" font-size="14" text-anchor="middle">:app:core:diary-service</text>
        </g>
        <g stroke="#000" class="edge">
            <path fill="none" d="M646.78 32.84c86.21 12.52 235.13 34.15 328.96 47.78"/>
            <path d="m976.01 77.12 9.39 4.9-10.4 2.03z"/>
        </g>
        <g class="node" transform="translate(4 400)">
            <ellipse cx="575" cy="-306" fill="none" stroke="#000" rx="96.39" ry="18"/>
            <text x="575" y="-300.95" font-family="Times,serif" font-size="14" text-anchor="middle">:app:domain:credential</text>
        </g>
        <g stroke="red" stroke-width="2" class="edge">
            <path fill="none" d="M579 40.3v24.16"/>
            <path fill="red" d="m582.5 62.87-3.5 10-3.5-10z"/>
        </g>
        <g stroke="#000" class="edge">
            <path fill="none" d="M1113.01 109.5c38.49 10.74 91.22 25.44 132.73 37.02"/>
            <path d="m1246.43 143.08 8.69 6.06-10.57.68z"/>
        </g>
        <g class="node" transform="translate(4 400)">
            <ellipse cx="811" cy="-18" fill="none" stroke="#000" rx="71.31" ry="18"/>
            <text x="811" y="-12.95" font-family="Times,serif" font-size="14" text-anchor="middle">:app:core:model</text>
        </g>
        <g stroke="#000" class="edge">
            <path fill="none" d="M1029.77 111.35c-16.22 9.4-35.74 22.2-50.77 36.65-67 64.4-123.98 159.76-149.57 205.96"/>
            <path d="m832.63 355.4-7.87 7.09 1.73-10.45z"/>
        </g>
        <g class="node" transform="translate(4 400)">
            <ellipse cx="989" cy="-18" fill="none" stroke="#000" rx="85.13" ry="18"/>
            <text x="989" y="-12.95" font-family="Times,serif" font-size="14" text-anchor="middle">:common:exception</text>
        </g>
        <g stroke="#000" class="edge">
            <path fill="none" d="M1101.03 110.62c16.06 8.48 32.89 20.71 41.97 37.38 7.65 14.05 4.52 20.65 0 36-21.38 72.53-84.2 138.39-121.41 172.51"/>
            <path d="m1024.06 358.99-9.77 4.09 5.09-9.29z"/>
        </g>
        <g class="node" transform="translate(4 400)">
            <ellipse cx="1057" cy="-234" fill="none" stroke="#000" rx="72.85" ry="18"/>
            <text x="1057" y="-228.95" font-family="Times,serif" font-size="14" text-anchor="middle">:common:model</text>
        </g>
        <g stroke="#000" class="edge">
            <path fill="none" d="M1061 112.3v24.16"/>
            <path d="m1064.5 136.38-3.5 10-3.5-10z"/>
        </g>
        <g stroke="#000" class="edge">
            <path fill="none" d="M494.56 102.96C420.55 111.23 319.69 126.08 286 148c-78.1 50.83-127.5 155.17-147.64 205.14"/>
            <path d="m141.66 354.33-6.92 8.03.4-10.58z"/>
        </g>
        <g stroke="#000" class="edge">
            <path fill="none" d="M489.9 101.19C412.65 111.97 305.94 141.18 258 220c-6.21 10.21-7.32 80.34 2 108 3.27 9.72 8.99 19.19 15 27.38"/>
            <path d="m277.69 353.13 3.45 10.02-8.95-5.68z"/>
        </g>
        <g stroke="#000" class="edge">
            <path fill="none" d="M614.9 110.92c18.72 9.28 41.34 22.1 59.1 37.08 62.82 52.99 78.34 70.95 116 144 9.85 19.1 16.23 42.57 20.08 60.61"/>
            <path d="m813.5 351.87-1.49 10.49-5.37-9.13z"/>
        </g>
        <g stroke="#000" class="edge">
            <path fill="none" d="M623.8 110.39c25.4 9.46 57.35 22.62 84.2 37.61 95 53.05 115.68 72.84 198 144 23.18 20.04 47.37 45.18 64.34 63.63"/>
            <path d="m972.89 353.23 4.15 9.75-9.32-5.04z"/>
        </g>
        <g class="node" transform="translate(4 400)">
            <ellipse cx="652" cy="-18" fill="none" stroke="#000" rx="62.1" ry="18"/>
            <text x="652" y="-12.95" font-family="Times,serif" font-size="14" text-anchor="middle">:library:kotlin</text>
        </g>
        <g stroke="#000" class="edge">
            <path fill="none" d="M602.76 111.63C631.01 132.99 676.74 172.96 696 220c18.19 44.43 17.79 62.66 2 108-3.57 10.26-10.05 20.03-16.86 28.32"/>
            <path d="m683.98 358.38-9.25 5.17 4.01-9.81z"/>
        </g>
        <g class="node" transform="translate(4 400)">
            <ellipse cx="522" cy="-234" fill="none" stroke="#000" rx="78.48" ry="18"/>
            <text x="522" y="-228.95" font-family="Times,serif" font-size="14" text-anchor="middle">:app:domain:fetch</text>
        </g>
        <g stroke="red" stroke-width="2" class="edge">
            <path fill="none" d="M565.9 112.3c-6.03 7.97-13.32 17.6-20.01 26.44"/>
            <path fill="red" d="m549.6 139.62-8.82 5.86 3.24-10.08z"/>
        </g>
        <g class="node" transform="translate(4 400)">
            <ellipse cx="575" cy="-162" fill="none" stroke="#000" rx="86.67" ry="18"/>
            <text x="575" y="-156.95" font-family="Times,serif" font-size="14" text-anchor="middle">:app:domain:backup</text>
        </g>
        <g stroke="#000" class="edge">
            <path fill="none" d="M593.4 111.9c7.43 9.84 15.72 22.88 19.6 36.1 4.5 15.35 4.5 20.65 0 36-2.76 9.4-7.75 18.71-13.07 26.84"/>
            <path d="m602.9 212.71-8.63 6.16 2.9-10.19z"/>
        </g>
        <g class="node" transform="translate(4 400)">
            <ellipse cx="357" cy="-162" fill="none" stroke="#000" rx="74.89" ry="18"/>
            <text x="357" y="-156.95" font-family="Times,serif" font-size="14" text-anchor="middle">:app:domain:fcm</text>
        </g>
        <g stroke="#000" class="edge">
            <path fill="none" d="M523.46 109.14c-27.01 8.54-59.05 21.23-84.46 38.86-24.41 16.93-46.12 43.12-60.4 62.72"/>
            <path d="m381.53 212.63-8.64 6.14 2.93-10.18z"/>
        </g>
        <g stroke="#000" class="edge">
            <path fill="none" d="M447.89 168.48C391.53 172.72 315.55 185.24 258 220c-54.44 32.88-95.75 97.27-116.06 133.88"/>
            <path d="m145.1 355.38-7.83 7.13 1.68-10.46z"/>
        </g>
        <g stroke="#000" class="edge">
            <path fill="none" d="M452.26 172.61C386.97 179.3 298.76 193.12 277 220c-30.86 38.12-10.07 98.8 6.42 133.76"/>
            <path d="m286.38 351.86 1.28 10.51-7.56-7.42z"/>
        </g>
        <g stroke="#000" class="edge">
            <path fill="none" d="M589.66 176.93c33.91 7.62 74.98 20.76 106.34 43.07 49.67 35.33 87.13 97.8 105.8 133.65"/>
            <path d="m804.89 352.02 1.41 10.5-7.65-7.33z"/>
        </g>
        <g stroke="#000" class="edge">
            <path fill="none" d="M586.14 177.88c41.22 8.61 96.59 22.48 142.86 42.12 89.45 37.98 184.41 102.75 232.35 137.43"/>
            <path d="m963.33 354.55 6.02 8.71-10.14-3.06z"/>
        </g>
        <g stroke="#000" class="edge">
            <path fill="none" d="M596.4 174.32c29.31 6.92 60.63 20.22 78.6 45.68 28.04 39.74 9.57 99.18-5.4 133.63"/>
            <path d="m672.89 354.85-7.33 7.65.96-10.55z"/>
        </g>
        <g stroke="red" stroke-width="2" class="edge">
            <path fill="none" d="M538.83 183.95c6.09 8.04 13.52 17.85 20.31 26.82"/>
            <path fill="red" d="m560.85 207.23 3.24 10.08-8.82-5.86z"/>
        </g>
        <g class="node" transform="translate(4 400)">
            <ellipse cx="459" cy="-90" fill="none" stroke="#000" rx="88.71" ry="18"/>
            <text x="459" y="-84.95" font-family="Times,serif" font-size="14" text-anchor="middle">:app:domain:account</text>
        </g>
        <g stroke="#000" class="edge">
            <path fill="none" d="M509.03 183.73c-9 9.79-19.52 22.84-26.03 36.27-9.25 19.08-14.29 42.55-17 60.59"/>
            <path d="m469.49 280.88-4.79 9.45-2.15-10.37z"/>
        </g>
        <g stroke="#000" class="edge">
            <path fill="none" d="M520.36 251.58C477.07 261.34 416.91 275.89 365 292c-66.79 20.73-142.1 50.07-189.55 69.31"/>
            <path d="m176.87 364.51-10.58.53 7.94-7.01z"/>
        </g>
        <g stroke="#000" class="edge">
            <path fill="none" d="M580.71 256.33c.94 20.08-.87 52.84-19.71 71.67-25.4 25.38-115.59 39.41-183.32 46.56"/>
            <path d="m378.4 378-10.3-2.46 9.59-4.5z"/>
        </g>
        <g stroke="#000" class="edge">
            <path fill="none" d="M606.07 255.29c42.5 25.57 124.93 75.17 172.56 103.83"/>
            <path d="m780.18 355.97 6.77 8.15-10.38-2.16z"/>
        </g>
        <g stroke="#000" class="edge">
            <path fill="none" d="M648.45 249.11C697.81 257.5 765.16 271.42 822 292c48.77 17.65 101.15 46.55 134.91 66.6"/>
            <path d="m958.69 355.59 6.77 8.15-10.37-2.15z"/>
        </g>
        <g stroke="#000" class="edge">
            <path fill="none" d="m588.29 256.13 53.06 97.86"/>
            <path d="m644.27 352.02 1.69 10.46-7.85-7.12z"/>
        </g>
        <g stroke="red" stroke-width="2" class="edge">
            <path fill="none" d="M551.8 255.41c-15.45 9.33-35.01 21.13-51.83 31.28"/>
            <path fill="red" d="m503.39 288.71-10.37 2.17 6.75-8.16z"/>
        </g>
        <g stroke="#000" class="edge">
            <path fill="none" d="M334.27 255.29c-41.76 25.45-122.57 74.7-169.7 103.42"/>
            <path d="m166.43 361.68-10.36 2.21 6.71-8.19z"/>
        </g>
        <g stroke="#000" class="edge">
            <path fill="none" d="M330.23 254.87c-13.77 8.89-28.61 21.38-36.23 37.13-9.07 18.73-7.5 42.35-3.97 60.55"/>
            <path d="m293.41 351.62-1.2 10.53-5.63-8.98z"/>
        </g>
        <g stroke="#000" class="edge">
            <path fill="none" d="M412.28 251.42C452.87 261.53 510.87 276.6 561 292c10.06 3.09 131.87 45.95 203.08 71.04"/>
            <path d="m764.93 359.63 8.27 6.63-10.59-.02z"/>
        </g>
        <g stroke="#000" class="edge">
            <path fill="none" d="M418.78 249.86C472.56 260.13 554.88 276.27 626 292c106.86 23.63 230.41 54.29 303.44 72.76"/>
            <path d="m929.98 361.28 8.83 5.85-10.55.94z"/>
        </g>
        <g stroke="#000" class="edge">
            <path fill="none" d="M356.03 256.38c-4.5 19.83-8.12 52.05 8.97 71.62 28.01 32.08 141.85 44.84 218.57 49.84"/>
            <path d="m583.33 374.32 9.76 4.11-10.2 2.88z"/>
        </g>
        <g stroke="#000" class="edge">
            <path fill="none" d="M384.91 255.41c13.34 9.15 30.15 20.69 44.75 30.71"/>
            <path d="m431.37 283.05 6.26 8.54-10.22-2.77z"/>
        </g>
        <g stroke="#000" class="edge">
            <path fill="none" d="M402.72 323.6c-58.25 12.17-146.36 30.58-207.01 43.25"/>
            <path d="m196.71 370.22-10.51-1.38 9.08-5.47z"/>
        </g>
        <g stroke="#000" class="edge">
            <path fill="none" d="M425.97 326.71c-24.3 10.31-56.26 23.87-82.16 34.85"/>
            <path d="m345.46 364.67-10.58.68 7.84-7.13z"/>
        </g>
        <g stroke="red" stroke-width="2" class="edge">
            <path fill="none" d="M524.72 323.27c62.87 12.51 160.01 31.82 224.36 44.62"/>
            <path fill="red" d="m748.21 364.15 9.12 5.38-10.49 1.48z"/>
        </g>
        <g stroke="#000" class="edge">
            <path fill="none" d="M540.02 319.28C626.55 328.85 771.1 345.67 895 364c7.66 1.13 15.65 2.39 23.61 3.7"/>
            <path d="m919.03 364.22 9.29 5.1-10.44 1.8z"/>
        </g>
        <g stroke="#000" class="edge">
            <path fill="none" d="M504.88 326.19c30.25 10.97 71.17 25.81 102.8 37.29"/>
            <path d="m608.82 360.16 8.21 6.7-10.6-.11z"/>
        </g>
    </g>
</svg>
