<svg xmlns="http://www.w3.org/2000/svg" width="5821pt" height="476pt" viewBox="0 0 5820.58 476">
    <g class="graph">
        <path fill="#fff" d="M0 476V0h5820.58v476z"/>
        <g class="node" transform="translate(4 472)">
            <ellipse cx="3005.58" cy="-450" fill="none" stroke="#000" rx="74.89" ry="18"/>
            <text x="3005.58" y="-444.95" font-family="Times,serif" font-size="14" text-anchor="middle">:app:platform:ios</text>
        </g>
        <g class="node" transform="translate(4 472)">
            <ellipse cx="2586.58" cy="-378" fill="none" stroke="#000" rx="97.41" ry="18"/>
            <text x="2586.58" y="-372.95" font-family="Times,serif" font-size="14" text-anchor="middle">:app:platform:common</text>
        </g>
        <g stroke="red" stroke-width="2" class="edge">
            <path fill="none" d="M2949.55 33.03c-72.83 12.17-195.96 32.74-277.36 46.34"/>
            <path fill="red" d="m2674.42 82.54-10.44-1.8 9.29-5.1z"/>
        </g>
        <g class="node" transform="translate(4 472)">
            <ellipse cx="580.58" cy="-306" fill="none" stroke="#000" rx="86.15" ry="18"/>
            <text x="580.58" y="-300.95" font-family="Times,serif" font-size="14" text-anchor="middle">:app:core:coroutines</text>
        </g>
        <g stroke="#000" class="edge">
            <path fill="none" d="M2935.04 23.9C2645.31 28.06 1566.4 49.67 684.58 148c-8.55.95-17.48 2.16-26.34 3.49"/>
            <path d="M659.02 154.92 648.6 153l9.34-5z"/>
        </g>
        <g class="node" transform="translate(4 472)">
            <ellipse cx="4043.58" cy="-162" fill="none" stroke="#000" rx="124.54" ry="18"/>
            <text x="4043.58" y="-156.95" font-family="Times,serif" font-size="14" text-anchor="middle">:app:core:diary-database-room</text>
        </g>
        <g stroke="#000" class="edge">
            <path fill="none" d="M3059.44 35.86c40.92 10.6 100.34 26.13 152.14 40.14 287.46 77.77 629.37 174.34 770.3 214.32"/>
            <path d="m3982.76 286.93 8.67 6.1-10.58.64z"/>
        </g>
        <g class="node" transform="translate(4 472)">
            <ellipse cx="666.58" cy="-162" fill="none" stroke="#000" rx="95.88" ry="18"/>
            <text x="666.58" y="-156.95" font-family="Times,serif" font-size="14" text-anchor="middle">:app:core:diary-service</text>
        </g>
        <g stroke="#000" class="edge">
            <path fill="none" d="M2934.84 23.73C2525.67 28.11 572.55 53.89 489.58 148c-49.73 56.41 58.33 112.57 128 141.3"/>
            <path d="m618.62 285.95 7.96 6.99-10.58-.5z"/>
        </g>
        <g class="node" transform="translate(4 472)">
            <ellipse cx="3268.58" cy="-162" fill="none" stroke="#000" rx="158.32" ry="18"/>
            <text x="3268.58" y="-156.95" font-family="Times,serif" font-size="14" text-anchor="middle">:app:core:account-preferences-datastore</text>
        </g>
        <g stroke="#000" class="edge">
            <path fill="none" d="M3025.24 40.03c44.39 48.27 171.2 186.17 223.91 243.5"/>
            <path d="m3251.45 280.85 4.19 9.73-9.34-4.99z"/>
        </g>
        <g class="node" transform="translate(4 472)">
            <ellipse cx="5057.58" cy="-162" fill="none" stroke="#000" rx="157.3" ry="18"/>
            <text x="5057.58" y="-156.95" font-family="Times,serif" font-size="14" text-anchor="middle">:app:core:holiday-preferences-datastore</text>
        </g>
        <g stroke="#000" class="edge">
            <path fill="none" d="M3084.25 24.31C3483.38 31.64 5350.29 69.99 5442.58 148c37.06 31.32 47.96 71.49 16 108-16.95 19.36-147.01 34.05-253.72 43"/>
            <path d="m5205.39 302.47-10.26-2.67 9.68-4.31z"/>
        </g>
        <g class="node" transform="translate(4 472)">
            <ellipse cx="3767.58" cy="-162" fill="none" stroke="#000" rx="133.24" ry="18"/>
            <text x="3767.58" y="-156.95" font-family="Times,serif" font-size="14" text-anchor="middle">:app:core:holiday-database-room</text>
        </g>
        <g stroke="#000" class="edge">
            <path fill="none" d="M3048.94 37.77c126.51 47.49 522.9 196.26 668.39 250.87"/>
            <path d="m3718.23 285.24 8.13 6.79-10.59-.24z"/>
        </g>
        <g class="node" transform="translate(4 472)">
            <ellipse cx="104.58" cy="-90" fill="none" stroke="#000" rx="104.58" ry="18"/>
            <text x="104.58" y="-84.95" font-family="Times,serif" font-size="14" text-anchor="middle">:app:core:holiday-service</text>
        </g>
        <g stroke="#000" class="edge">
            <path fill="none" d="M2934.65 23.76C2556.63 27.7 867.84 46.81 635.58 76c-173.82 21.85-384-86.19-384 89v74c0 55.76-55.41 97.12-97.25 120.41"/>
            <path d="m156.09 362.43-10.46 1.65 7.15-7.82z"/>
        </g>
        <g stroke="#000" class="edge">
            <path fill="none" d="M2493.95 96.89c-362.37 7.19-1629 33.36-1809.37 51.11-8.69.85-17.76 2.02-26.74 3.33"/>
            <path d="m658.45 154.78-10.41-1.94 9.35-4.98z"/>
        </g>
        <g stroke="#000" class="edge">
            <path fill="none" d="M2492.76 94.56c-306.39-.81-1244.87 1.15-1544.18 53.44-102.18 17.85-140.15 8.29-222 72-20.45 15.91-35.44 41.54-44.73 61.22"/>
            <path d="m685.05 282.63-7.28 7.7.89-10.55z"/>
        </g>
        <g stroke="#000" class="edge">
            <path fill="none" d="M2493.49 96.03C2141.9 100.01 947 115.78 778.58 148c-45.99 8.8-54.89 20.31-99 36-183.55 65.29-229.71 80.84-414 144-33.09 11.34-70.15 23.86-99.96 33.88"/>
            <path d="m167.02 365.11-10.6-.13 8.37-6.51z"/>
        </g>
        <g class="node" transform="translate(4 472)">
            <ellipse cx="4781.58" cy="-162" fill="none" stroke="#000" rx="101" ry="18"/>
            <text x="4781.58" y="-156.95" font-family="Times,serif" font-size="14" text-anchor="middle">:app:core:design-system</text>
        </g>
        <g stroke="#000" class="edge">
            <path fill="none" d="M2688.06 95.28c490.64 1.63 2668.73 11.17 2724.52 52.72 39.36 29.32 56.53 72.16 23 108-41.08 43.91-480.23 29.4-540 36-8.81.97-17.99 2.14-27.13 3.41"/>
            <path d="m4869.24 298.83-10.39-2.05 9.41-4.88z"/>
        </g>
        <g class="node" transform="translate(4 472)">
            <ellipse cx="5317.58" cy="-234" fill="none" stroke="#000" rx="86.67" ry="18"/>
            <text x="5317.58" y="-228.95" font-family="Times,serif" font-size="14" text-anchor="middle">:app:core:navigation</text>
        </g>
        <g stroke="#000" class="edge">
            <path fill="none" d="M2687.76 95.91c361.7 3.63 1629.86 18.52 2032.82 52.09 191.56 15.96 414.96 54.3 527.78 75.07"/>
            <path d="m5248.9 219.61 9.2 5.26-10.47 1.62z"/>
        </g>
        <g class="node" transform="translate(4 472)">
            <ellipse cx="5283.58" cy="-90" fill="none" stroke="#000" rx="82.57" ry="18"/>
            <text x="5283.58" y="-84.95" font-family="Times,serif" font-size="14" text-anchor="middle">:app:core:resources</text>
        </g>
        <g stroke="#000" class="edge">
            <path fill="none" d="M2688.15 95.45c493.64 2.43 2694.74 15.35 2754.43 52.55 73.41 45.75 127.83 112.29 74 180-17.98 22.61-86.1 36.42-143.41 44.25"/>
            <path d="m5373.75 375.71-10.38-2.17 9.46-4.77z"/>
        </g>
        <g class="node" transform="translate(4 472)">
            <ellipse cx="4481.58" cy="-90" fill="none" stroke="#000" rx="59.54" ry="18"/>
            <text x="4481.58" y="-84.95" font-family="Times,serif" font-size="14" text-anchor="middle">:library:color</text>
        </g>
        <g stroke="#000" class="edge">
            <path fill="none" d="M2675.09 103.33c316.86 31.44 1424.05 143.5 1576.49 188.67 34.68 10.28 39.51 22.31 73 36 35.45 14.49 76.47 27.95 108.23 37.68"/>
            <path d="m4433.63 362.27 8.56 6.25-10.59.45z"/>
        </g>
        <g class="node" transform="translate(4 472)">
            <ellipse cx="4310.58" cy="-18" fill="none" stroke="#000" rx="62.1" ry="18"/>
            <text x="4310.58" y="-12.95" font-family="Times,serif" font-size="14" text-anchor="middle">:library:kotlin</text>
        </g>
        <g stroke="#000" class="edge">
            <path fill="none" d="M2688.07 95.2c476.11 1.17 2545.35 8.77 2829.51 52.8 137.02 21.23 299-49.65 299 89v74c0 150.62-178.2 65.69-327 89-213.78 33.49-878.94 47.86-1101.56 51.81"/>
            <path d="m4388.38 455.3-10.06-3.32 9.94-3.68z"/>
        </g>
        <g class="node" transform="translate(4 472)">
            <ellipse cx="5133.58" cy="-234" fill="none" stroke="#000" rx="79.5" ry="18"/>
            <text x="5133.58" y="-228.95" font-family="Times,serif" font-size="14" text-anchor="middle">:library:navigation</text>
        </g>
        <g stroke="#000" class="edge">
            <path fill="none" d="M2687.91 95.97c345.88 3.72 1514.81 18.5 1887.67 52.03 179.18 16.11 387.84 54.34 493.36 75.06"/>
            <path d="m5069.44 219.6 9.13 5.37-10.49 1.49z"/>
        </g>
        <g class="node" transform="translate(4 472)">
            <ellipse cx="1992.58" cy="-18" fill="none" stroke="#000" rx="78.99" ry="18"/>
            <text x="1992.58" y="-12.95" font-family="Times,serif" font-size="14" text-anchor="middle">:library:coroutines</text>
        </g>
        <g stroke="#000" class="edge">
            <path fill="none" d="M2494.04 96.95c-263.91 5.66-984.72 23.47-1088.46 51.05-67.62 17.98-92.86 20.3-140 72-54.34 59.59-80.4 123.34-23 180 46.3 45.71 473.39 52.4 663.48 53.1"/>
            <path d="m1905.9 449.6 9.99 3.53-10.01 3.47z"/>
        </g>
        <g class="node" transform="translate(4 472)">
            <ellipse cx="3216.58" cy="-18" fill="none" stroke="#000" rx="72.85" ry="18"/>
            <text x="3216.58" y="-12.95" font-family="Times,serif" font-size="14" text-anchor="middle">:library:datetime</text>
        </g>
        <g stroke="#000" class="edge">
            <path fill="none" d="M2688.06 95.71c497 3.75 2727.83 22.22 2792.52 52.29 38.56 17.92 48.04 32.2 63 72 30.19 80.35 8.16 144.52-70 180-25.18 11.43-1763.92 44.02-2169.21 51.47"/>
            <path d="m3304.63 454.97-10.07-3.32 9.94-3.68z"/>
        </g>
        <g class="node" transform="translate(4 472)">
            <ellipse cx="4242.58" cy="-234" fill="none" stroke="#000" rx="89.23" ry="18"/>
            <text x="4242.58" y="-228.95" font-family="Times,serif" font-size="14" text-anchor="middle">:library:shimmer-m3</text>
        </g>
        <g stroke="#000" class="edge">
            <path fill="none" d="M2687.49 96.26c352.67 4.83 1548.52 23.28 1576.09 51.74 15.61 16.11 8.55 41.89-.76 61.56"/>
            <path d="m4265.94 211.15-7.7 7.27 1.48-10.49z"/>
        </g>
        <g class="node" transform="translate(4 472)">
            <ellipse cx="1559.58" cy="-306" fill="none" stroke="#000" rx="71.31" ry="18"/>
            <text x="1559.58" y="-300.95" font-family="Times,serif" font-size="14" text-anchor="middle">:app:data:memo</text>
        </g>
        <g stroke="red" stroke-width="2" class="edge">
            <path fill="none" d="M2493.32 95.53c-172.1 2.04-541.25 11.31-849.74 52.47-5.98.8-12.18 1.8-18.36 2.92"/>
            <path fill="red" d="m1627.61 154.02-10.48-1.56 9.17-5.31z"/>
        </g>
        <g class="node" transform="translate(4 472)">
            <ellipse cx="1758.58" cy="-162" fill="none" stroke="#000" rx="75.92" ry="18"/>
            <text x="1758.58" y="-156.95" font-family="Times,serif" font-size="14" text-anchor="middle">:app:data:account</text>
        </g>
        <g stroke="#000" class="edge">
            <path fill="none" d="M2520.57 106.88c-53.07 9.56-127.59 24.16-191.99 41.12-149.64 39.41-181.81 66.93-331 108-55.81 15.36-119.96 29.6-167.12 39.45"/>
            <path d="m1831.44 298.82-10.5-1.4 9.08-5.45z"/>
        </g>
        <g class="node" transform="translate(4 472)">
            <ellipse cx="1732.58" cy="-306" fill="none" stroke="#000" rx="83.6" ry="18"/>
            <text x="1732.58" y="-300.95" font-family="Times,serif" font-size="14" text-anchor="middle">:app:data:credential</text>
        </g>
        <g stroke="#000" class="edge">
            <path fill="none" d="M2496.59 99.05c-141.84 6.7-418.9 22.1-653.01 48.95-10.47 1.2-21.49 2.69-32.3 4.29"/>
            <path d="m1812.01 155.71-10.41-1.96 9.37-4.96z"/>
        </g>
        <g class="node" transform="translate(4 472)">
            <ellipse cx="2470.58" cy="-162" fill="none" stroke="#000" rx="74.89" ry="18"/>
            <text x="2470.58" y="-156.95" font-family="Times,serif" font-size="14" text-anchor="middle">:app:data:holiday</text>
        </g>
        <g stroke="#000" class="edge">
            <path fill="none" d="M2581.28 112.15c-20.11 37.1-67.78 125.04-92.01 169.75"/>
            <path d="m2492.48 283.31-7.84 7.13 1.69-10.46z"/>
        </g>
        <g class="node" transform="translate(4 472)">
            <ellipse cx="1012.58" cy="-234" fill="none" stroke="#000" rx="73.87" ry="18"/>
            <text x="1012.58" y="-228.95" font-family="Times,serif" font-size="14" text-anchor="middle">:app:data:backup</text>
        </g>
        <g stroke="#000" class="edge">
            <path fill="none" d="M2493.68 96.51c-319.73 5.23-1324.51 23.81-1388.1 51.49-30.06 13.08-55.45 41.4-71.33 62.6"/>
            <path d="m1037.22 212.47-8.69 6.06 3.01-10.16z"/>
        </g>
        <g class="node" transform="translate(4 472)">
            <ellipse cx="849.58" cy="-234" fill="none" stroke="#000" rx="65.68" ry="18"/>
            <text x="849.58" y="-228.95" font-family="Times,serif" font-size="14" text-anchor="middle">:app:data:fetch</text>
        </g>
        <g stroke="#000" class="edge">
            <path fill="none" d="M2494.38 97.31c-325.57 7.95-1369.62 34.58-1439.8 50.69-60.44 13.87-125.13 45.99-164.32 67.6"/>
            <path d="m892.14 218.56-10.44 1.82 7.02-7.93z"/>
        </g>
        <g class="node" transform="translate(4 472)">
            <ellipse cx="2387.58" cy="-234" fill="none" stroke="#000" rx="62.1" ry="18"/>
            <text x="2387.58" y="-228.95" font-family="Times,serif" font-size="14" text-anchor="middle">:app:data:fcm</text>
        </g>
        <g stroke="#000" class="edge">
            <path fill="none" d="M2566.97 111.85c-35.67 25.45-103.37 73.76-143.42 102.34"/>
            <path d="m2425.64 216.99-10.17 2.96 6.11-8.66z"/>
        </g>
        <g class="node" transform="translate(4 472)">
            <ellipse cx="1900.58" cy="-234" fill="none" stroke="#000" rx="84.11" ry="18"/>
            <text x="1900.58" y="-228.95" font-family="Times,serif" font-size="14" text-anchor="middle">:app:domain:memo</text>
        </g>
        <g stroke="#000" class="edge">
            <path fill="none" d="M2493.59 96.32c-143.72 3.19-405.49 14.14-491.01 51.68-31.72 13.92-60.05 42.29-78 63.28"/>
            <path d="m1927.36 213.41-9.07 5.46 3.69-9.93z"/>
        </g>
        <g class="node" transform="translate(4 472)">
            <ellipse cx="1423.58" cy="-90" fill="none" stroke="#000" rx="88.71" ry="18"/>
            <text x="1423.58" y="-84.95" font-family="Times,serif" font-size="14" text-anchor="middle">:app:domain:account</text>
        </g>
        <g stroke="#000" class="edge">
            <path fill="none" d="M2493.86 96.45c-262.65 4.35-972.12 19.06-1010.28 51.55-62.26 53-16.37 101.15-38 180-2.27 8.28-5.12 17.16-7.88 25.24"/>
            <path d="m1441.05 354.27-6.61 8.28.01-10.6z"/>
        </g>
        <g class="node" transform="translate(4 472)">
            <ellipse cx="1664.58" cy="-234" fill="none" stroke="#000" rx="96.39" ry="18"/>
            <text x="1664.58" y="-228.95" font-family="Times,serif" font-size="14" text-anchor="middle">:app:domain:credential</text>
        </g>
        <g stroke="#000" class="edge">
            <path fill="none" d="M2493.38 96.23c-126.57 3.15-354.17 14.11-544.8 51.77-22.21 4.39-148.26 45.49-223.45 70.27"/>
            <path d="m1726.45 221.52-10.59-.19 8.4-6.46z"/>
        </g>
        <g class="node" transform="translate(4 472)">
            <ellipse cx="2498.58" cy="-90" fill="none" stroke="#000" rx="87.69" ry="18"/>
            <text x="2498.58" y="-84.95" font-family="Times,serif" font-size="14" text-anchor="middle">:app:domain:holiday</text>
        </g>
        <g stroke="#000" class="edge">
            <path fill="none" d="M2591.96 112.23c2.46 40.26 4.22 142.59-33.38 215.77-5.61 10.92-14.39 20.81-23.34 29.02"/>
            <path d="m2537.72 359.51-9.87 3.85 5.31-9.17z"/>
        </g>
        <g class="node" transform="translate(4 472)">
            <ellipse cx="1345.58" cy="-162" fill="none" stroke="#000" rx="86.67" ry="18"/>
            <text x="1345.58" y="-156.95" font-family="Times,serif" font-size="14" text-anchor="middle">:app:domain:backup</text>
        </g>
        <g stroke="#000" class="edge">
            <path fill="none" d="M2492.89 94.41c-259.72-.87-953.55 1.77-1042.31 53.59-50.48 29.48-79.47 95.27-92.53 132.99"/>
            <path d="m1361.44 281.89-6.46 8.4-.19-10.6z"/>
        </g>
        <g class="node" transform="translate(4 472)">
            <ellipse cx="1048.58" cy="-162" fill="none" stroke="#000" rx="78.48" ry="18"/>
            <text x="1048.58" y="-156.95" font-family="Times,serif" font-size="14" text-anchor="middle">:app:domain:fetch</text>
        </g>
        <g stroke="#000" class="edge">
            <path fill="none" d="M2493.26 95.7c-315.56 2.65-1293.33 13.92-1348.68 52.3-42.73 29.63-17.37 63.95-45 108-6.11 9.74-14.03 19.44-21.62 27.83"/>
            <path d="m1080.69 286.03-9.39 4.9 4.29-9.69z"/>
        </g>
        <g class="node" transform="translate(4 472)">
            <ellipse cx="1965.58" cy="-162" fill="none" stroke="#000" rx="74.89" ry="18"/>
            <text x="1965.58" y="-156.95" font-family="Times,serif" font-size="14" text-anchor="middle">:app:domain:fcm</text>
        </g>
        <g stroke="#000" class="edge">
            <path fill="none" d="M2545.92 110.39c-112.06 38.61-404.67 139.45-524.27 180.67"/>
            <path d="m2022.99 294.3-10.59-.06 8.31-6.56z"/>
        </g>
        <g class="node" transform="translate(4 472)">
            <ellipse cx="5317.58" cy="-306" fill="none" stroke="#000" rx="81.55" ry="18"/>
            <text x="5317.58" y="-300.95" font-family="Times,serif" font-size="14" text-anchor="middle">:app:feature:memo</text>
        </g>
        <g stroke="#000" class="edge">
            <path fill="none" d="M2688.11 95.31c412.53 1.54 2015.98 10.23 2519.47 52.69 13.01 1.1 26.79 2.74 40.1 4.58"/>
            <path d="m5247.83 149.06 9.4 4.88-10.39 2.05z"/>
        </g>
        <g class="node" transform="translate(4 472)">
            <ellipse cx="4473.58" cy="-306" fill="none" stroke="#000" rx="88.71" ry="18"/>
            <text x="4473.58" y="-300.95" font-family="Times,serif" font-size="14" text-anchor="middle">:app:feature:calendar</text>
        </g>
        <g stroke="#000" class="edge">
            <path fill="none" d="M2687.82 95.89c260.76 2.85 997.3 13.93 1608.76 52.11 30.31 1.89 63.4 4.76 92.9 7.61"/>
            <path d="m4389.48 152.09 9.61 4.46-10.29 2.51z"/>
        </g>
        <g class="node" transform="translate(4 472)">
            <ellipse cx="4173.58" cy="-306" fill="none" stroke="#000" rx="76.94" ry="18"/>
            <text x="4173.58" y="-300.95" font-family="Times,serif" font-size="14" text-anchor="middle">:app:feature:more</text>
        </g>
        <g stroke="#000" class="edge">
            <path fill="none" d="M2687.57 96.4c287.26 4.46 1130.58 19.95 1404.01 51.6 6.75.78 13.75 1.81 20.73 2.97"/>
            <path d="m4112.46 147.44 9.24 5.18-10.45 1.71z"/>
        </g>
        <g class="node" transform="translate(4 472)">
            <ellipse cx="3992.58" cy="-306" fill="none" stroke="#000" rx="86.15" ry="18"/>
            <text x="3992.58" y="-300.95" font-family="Times,serif" font-size="14" text-anchor="middle">:app:feature:account</text>
        </g>
        <g stroke="#000" class="edge">
            <path fill="none" d="M2683.65 99.63c254.93 12.7 962.54 47.93 1218.77 60.68"/>
            <path d="m3902.22 156.8 9.81 3.99-10.16 3z"/>
        </g>
        <g class="node" transform="translate(4 472)">
            <ellipse cx="2979.58" cy="-162" fill="none" stroke="#000" rx="112.26" ry="18"/>
            <text x="2979.58" y="-156.95" font-family="Times,serif" font-size="14" text-anchor="middle">:library:firebase-messaging</text>
        </g>
        <g stroke="#000" class="edge">
            <path fill="none" d="M2675.06 103.33c45.04 7.13 100.16 20.33 144.52 44.67 62.29 34.18 117.28 98.72 144.98 134.84"/>
            <path d="m2967.18 280.5 3.23 10.09-8.82-5.88z"/>
        </g>
        <g stroke="#000" class="edge">
            <path fill="none" d="M4124.96 324.48c61.2 13.79 130.79 38.47 94.62 75.52-18.95 19.41-1719.27 45.61-2133.01 51.7"/>
            <path d="m2086.85 455.19-10.05-3.35 9.95-3.65z"/>
        </g>
        <g class="node" transform="translate(4 472)">
            <ellipse cx="4126.58" cy="-90" fill="none" stroke="#000" rx="80.01" ry="18"/>
            <text x="4126.58" y="-84.95" font-family="Times,serif" font-size="14" text-anchor="middle">:library:koin-room</text>
        </g>
        <g stroke="#000" class="edge">
            <path fill="none" d="M4067.67 327.95c10.3 8.68 23.02 19.41 34.32 28.94"/>
            <path d="m4104.13 354.11 5.39 9.13-9.91-3.78z"/>
        </g>
        <g class="node" transform="translate(4 472)">
            <ellipse cx="328.58" cy="-90" fill="none" stroke="#000" rx="101.51" ry="18"/>
            <text x="328.58" y="-84.95" font-family="Times,serif" font-size="14" text-anchor="middle">:app:core:diary-database</text>
        </g>
        <g stroke="#000" class="edge">
            <path fill="none" d="M3961.58 323.4c-15.93 1.88-32.44 3.54-48 4.6-760.93 52.08-2670.76-11.29-3432 36-19.01 1.18-39.32 3.07-58.63 5.18"/>
            <path d="m423.54 372.63-10.33-2.36 9.55-4.59z"/>
        </g>
        <g class="node" transform="translate(4 472)">
            <ellipse cx="3967.58" cy="-90" fill="none" stroke="#000" rx="60.56" ry="18"/>
            <text x="3967.58" y="-84.95" font-family="Times,serif" font-size="14" text-anchor="middle">:library:room</text>
        </g>
        <g stroke="#000" class="edge">
            <path fill="none" d="M4029.18 327.95c-9.4 8.66-21.01 19.35-31.34 28.86"/>
            <path d="m4000.39 359.23-9.73 4.2 4.98-9.35z"/>
        </g>
        <g class="node" transform="translate(4 472)">
            <ellipse cx="774.58" cy="-18" fill="none" stroke="#000" rx="71.31" ry="18"/>
            <text x="774.58" y="-12.95" font-family="Times,serif" font-size="14" text-anchor="middle">:app:core:model</text>
        </g>
        <g stroke="#000" class="edge">
            <path fill="none" d="M597.95 322.12c-46.98 8.85-101.98 22.9-116.37 41.88-9.67 12.75-10.27 23.73 0 36 27 32.25 137.01 44.89 215.26 49.84"/>
            <path d="m696.85 446.33 9.78 4.09-10.2 2.9z"/>
        </g>
        <g class="node" transform="translate(4 472)">
            <ellipse cx="1097.58" cy="-18" fill="none" stroke="#000" rx="85.13" ry="18"/>
            <text x="1097.58" y="-12.95" font-family="Times,serif" font-size="14" text-anchor="middle">:common:exception</text>
        </g>
        <g stroke="#000" class="edge">
            <path fill="none" d="M696.89 327.79c32.53 20.03 90.17 53.2 143.69 72.21 57.84 20.55 125.88 34.04 177.99 42.26"/>
            <path d="m1018.93 438.78 9.35 4.98-10.42 1.93z"/>
        </g>
        <g class="node" transform="translate(4 472)">
            <ellipse cx="1652.58" cy="-90" fill="none" stroke="#000" rx="121.98" ry="18"/>
            <text x="1652.58" y="-84.95" font-family="Times,serif" font-size="14" text-anchor="middle">:app:core:account-preferences</text>
        </g>
        <g stroke="#000" class="edge">
            <path fill="none" d="M760.95 316.26c204.38 11.93 690.14 40.61 764.63 47.74 10.79 1.03 22.05 2.26 33.26 3.58"/>
            <path d="m1558.99 364.08 9.51 4.67-10.35 2.28z"/>
        </g>
        <g class="node" transform="translate(4 472)">
            <ellipse cx="559.58" cy="-90" fill="none" stroke="#000" rx="72.85" ry="18"/>
            <text x="559.58" y="-84.95" font-family="Times,serif" font-size="14" text-anchor="middle">:common:model</text>
        </g>
        <g stroke="#000" class="edge">
            <path fill="none" d="M644.95 327.77c-14.1 9.22-31.78 20.79-47.06 30.78"/>
            <path d="m599.81 361.48-10.28 2.54 6.45-8.4z"/>
        </g>
        <g stroke="#000" class="edge">
            <path fill="none" d="M3161.96 323.21c-19.11 1.82-38.81 3.51-57.38 4.79-129.27 8.9-988.39 37.8-1318.83 48.75"/>
            <path d="m1786.32 380.23-10.11-3.17 9.88-3.83z"/>
        </g>
        <g class="node" transform="translate(4 472)">
            <ellipse cx="3605.58" cy="-90" fill="none" stroke="#000" rx="93.32" ry="18"/>
            <text x="3605.58" y="-84.95" font-family="Times,serif" font-size="14" text-anchor="middle">:library:koin-datastore</text>
        </g>
        <g stroke="#000" class="edge">
            <path fill="none" d="M3346.54 326.36c56.49 11.74 133.94 27.82 190.16 39.5"/>
            <path d="m3537.09 362.37 9.08 5.46-10.5 1.39z"/>
        </g>
        <g stroke="#000" class="edge">
            <path fill="none" d="M5007.41 327.37c-72.51 21.09-205.49 56.91-321.83 72.63-269.78 36.45-1111.71 48.99-1381.16 52.13"/>
            <path d="m3304.72 455.63-10.04-3.39 9.96-3.61z"/>
        </g>
        <g stroke="#000" class="edge">
            <path fill="none" d="M4951.84 323.27c-18.75 1.8-38.05 3.47-56.26 4.73-441.01 30.53-552.42 15.15-994 36-64.3 3.04-136.52 7.23-193.05 10.7"/>
            <path d="m3708.78 378.19-10.19-2.88 9.76-4.11z"/>
        </g>
        <g class="node" transform="translate(4 472)">
            <ellipse cx="3067.58" cy="-90" fill="none" stroke="#000" rx="120.96" ry="18"/>
            <text x="3067.58" y="-84.95" font-family="Times,serif" font-size="14" text-anchor="middle">:app:core:holiday-preferences</text>
        </g>
        <g stroke="#000" class="edge">
            <path fill="none" d="M4953.19 323.36c-19.17 1.82-38.96 3.48-57.61 4.64-717.9 44.68-899.69-1.6-1618 36-30.8 1.61-64.14 4.06-94.84 6.6"/>
            <path d="m3183.33 374.06-10.26-2.65 9.67-4.33z"/>
        </g>
        <g stroke="#000" class="edge">
            <path fill="none" d="M3816.27 327.2c16.32 8.33 33.04 20.3 42.31 36.8 7.84 13.95 11.15 24.53 0 36-31.21 32.11-1402.67 48.33-1771.49 52.12"/>
            <path d="m2087.24 455.62-10.03-3.4 9.96-3.6z"/>
        </g>
        <g stroke="#000" class="edge">
            <path fill="none" d="M3845.09 325.33c62.96 12.28 153.02 29.84 215.06 41.94"/>
            <path d="m4060.77 363.82 9.15 5.35-10.49 1.52z"/>
        </g>
        <g stroke="#000" class="edge">
            <path fill="none" d="M3818.22 327.32c31.39 10.99 72.7 25.45 104.53 36.59"/>
            <path d="m3923.88 360.6 8.28 6.6h-10.6z"/>
        </g>
        <g class="node" transform="translate(4 472)">
            <ellipse cx="2282.58" cy="-90" fill="none" stroke="#000" rx="110.21" ry="18"/>
            <text x="2282.58" y="-84.95" font-family="Times,serif" font-size="14" text-anchor="middle">:app:core:holiday-database</text>
        </g>
        <g stroke="#000" class="edge">
            <path fill="none" d="M3650.18 317.69c-62.84 3.35-140.83 7.31-210.6 10.31-459.41 19.76-575.96-4.57-1034 36-10 .89-20.44 2.04-30.81 3.33"/>
            <path d="m2375.44 370.77-10.36-2.19 9.47-4.75z"/>
        </g>
        <g stroke="#000" class="edge">
            <path fill="none" d="M183.57 394.87c12.67 1.83 25.7 3.62 38.01 5.13 170 20.86 370.06 38.13 478.13 46.86"/>
            <path d="m699.95 443.36 9.69 4.29-10.25 2.69z"/>
        </g>
        <g stroke="#000" class="edge">
            <path fill="none" d="M4859.51 322.62c12.05 1.84 24.4 3.69 36.07 5.38 107.53 15.58 231.88 32.14 311.18 42.53"/>
            <path d="m5207.17 367.05 9.46 4.77-10.37 2.17z"/>
        </g>
        <g stroke="#000" class="edge">
            <path fill="none" d="M4725.95 324.91c-53.33 12.45-130.96 30.56-183.45 42.81"/>
            <path d="m4543.38 371.11-10.53-1.14 8.94-5.68z"/>
        </g>
        <g stroke="#000" class="edge">
            <path fill="none" d="M4764.35 327.96c-28.19 21.39-80.42 57.15-131.77 72.04-127.09 36.85-1042.94 49.23-1327.72 52.21"/>
            <path d="m3304.93 455.71-10.03-3.39 9.96-3.61z"/>
        </g>
        <g stroke="#000" class="edge">
            <path fill="none" d="M5347.6 255.52c12.62 9.27 26.96 21.91 35.98 36.48 25.61 41.38 51.99 73.18 18 108-18.65 19.11-1698.02 45.7-2096.76 51.74"/>
            <path d="m3304.96 455.24-10.05-3.35 9.95-3.65z"/>
        </g>
        <g stroke="#000" class="edge">
            <path fill="none" d="M5196.38 250.46c59.83 12.12 145.41 30.94 157.2 41.54 36.71 33.01 60.48 72.66 26 108-18.45 18.91-1679.06 45.62-2074.96 51.72"/>
            <path d="m3304.84 455.22-10.05-3.34 9.95-3.66z"/>
        </g>
        <g stroke="#000" class="edge">
            <path fill="none" d="M4328.13 245.45c38.29 6.66 82.43 20 114.45 46.55 18.66 15.48 29.82 40.98 36.07 60.72"/>
            <path d="m4481.95 351.53-.58 10.58-6.14-8.63z"/>
        </g>
        <g stroke="#000" class="edge">
            <path fill="none" d="M1499.95 174.33c-46.92 7.16-111.36 20.76-163.37 45.67-46.83 22.43-69.26 25.32-92 72-11.37 23.33 7.58 103.98 12 108 47.05 42.84 462.4 51.12 649.42 52.67"/>
            <path d="m1905.95 449.17 9.98 3.58-10.03 3.42z"/>
        </g>
        <g stroke="#000" class="edge">
            <path fill="none" d="M1614.15 179.07c9.72 1.94 19.85 3.71 29.43 4.93 361.43 46.02 458.6-17.5 819 36 127.53 18.93 162.61 20.96 281 72 27.51 11.86 28.62 26.39 57 36 84.74 28.69 334.03-23.33 401 36 16.73 14.82 20.77 40.43 21.04 60.39"/>
            <path d="m3226.12 424.21-3.7 9.92-3.3-10.06z"/>
        </g>
        <g stroke="red" stroke-width="2" class="edge">
            <path fill="none" d="M1616.5 178.32c9.03 1.91 18.32 3.86 27.08 5.68 64.21 13.34 137.39 28.17 189.89 38.74"/>
            <path fill="red" d="m1832.6 219 9.12 5.4-10.5 1.46z"/>
        </g>
        <g stroke="#000" class="edge">
            <path fill="none" d="M1491.83 166.12c-145.53-.6-485.36 4.04-765.25 53.88-110.48 19.67-144.83 15.87-242 72-20.15 11.64-18.76 22.93-38 36-18.9 12.84-41.41 24.04-61.41 32.8"/>
            <path d="m386.63 363.98-10.57.7 7.82-7.14z"/>
        </g>
        <g stroke="#000" class="edge">
            <path fill="none" d="M1771.49 328.29c11.19 20.06 32.22 52.78 59.09 71.71 27.42 19.32 62.23 31.85 92.89 39.84"/>
            <path d="m1924.21 436.42 8.87 5.8-10.55.99z"/>
        </g>
        <g stroke="#000" class="edge">
            <path fill="none" d="M1801.98 325.74c57.6 20.78 168.63 58 266.6 74.26 205.64 34.14 838.95 47.81 1068.13 51.72"/>
            <path d="m3136.51 448.21 9.94 3.67-10.06 3.33z"/>
        </g>
        <g stroke="#000" class="edge">
            <path fill="none" d="M1706.88 322.64c-57.04 11.92-145.92 30.49-208.05 43.47"/>
            <path d="m1499.93 369.46-10.51-1.38 9.07-5.47z"/>
        </g>
        <g stroke="#000" class="edge">
            <path fill="none" d="M1737.73 327.41c-13.66 9.02-30.82 20.35-45.84 30.27"/>
            <path d="m1693.92 360.54-10.27 2.59 6.41-8.44z"/>
        </g>
        <g stroke="#000" class="edge">
            <path fill="none" d="M1677.73 179.03c-11.3 1.95-23.06 3.73-34.15 4.97-95.6 10.67-775.16 1.63-865 36-18.35 7.02-56.61 40.69-82.31 64.53"/>
            <path d="m698.88 286.88-9.69 4.28 4.91-9.39z"/>
        </g>
        <g stroke="#000" class="edge">
            <path fill="none" d="M1675.13 178.57c-124.18 24-395.47 79.74-421.55 113.43-9.79 12.65-3.32 20.35 0 36 7.27 34.26 3.37 51.84 32 72 49.66 34.97 441.18 47.47 621.11 51.4"/>
            <path d="m1906.53 447.9 9.93 3.71-10.08 3.29z"/>
        </g>
        <g stroke="#000" class="edge">
            <path fill="none" d="M1819.23 168.96c219.09 5.55 803.68 22.85 886.35 51.04 80.16 27.33 77.43 79 157 108 78.03 28.44 316.17-25.49 372 36 14.92 16.44 8.99 42.01.75 61.53"/>
            <path d="m3238.52 426.97-7.39 7.59 1.04-10.54z"/>
        </g>
        <g stroke="#000" class="edge">
            <path fill="none" d="M1720.12 183.95c-8.19 8.42-18.24 18.77-27.29 28.08"/>
            <path d="m1695.42 214.39-9.48 4.74 4.46-9.62z"/>
        </g>
        <g stroke="#000" class="edge">
            <path fill="none" d="M1673.48 178.21c-43.76 9.21-96.5 23.67-109.9 41.79-33.67 45.53 22.48 104.27 61.16 136.73"/>
            <path d="m1626.95 354.01 5.53 9.04-9.96-3.62z"/>
        </g>
        <g stroke="#000" class="edge">
            <path fill="none" d="M2401.58 314.41c-83.94 3.81-225.9 9.93-348 13.59-814.01 24.43-1020.53-32.72-1832 36-9.55.81-19.52 1.92-29.42 3.19"/>
            <path d="m192.93 370.61-10.37-2.14 9.44-4.79z"/>
        </g>
        <g stroke="#000" class="edge">
            <path fill="none" d="M2400.36 313.04c-64.26 4.23-158.31 16.45-232.78 50.96-22.61 10.48-21.68 23.08-43 36-23.01 13.94-50.35 25.82-73.85 34.78"/>
            <path d="m2052.25 437.95-10.59.2 8.15-6.76z"/>
        </g>
        <g stroke="#000" class="edge">
            <path fill="none" d="M2516.62 325.26c24.99 9.33 56.82 22.75 82.96 38.74 21.26 13.01 19.99 26.43 43 36 87.04 36.21 355.63 47.8 493.88 51.42"/>
            <path d="m3136.38 447.92 9.91 3.75-10.09 3.24z"/>
        </g>
        <g stroke="#000" class="edge">
            <path fill="none" d="M2481.5 328.3c3.02 7.55 6.63 16.58 10.01 25.02"/>
            <path d="m2494.71 351.91.47 10.58-6.97-7.98z"/>
        </g>
        <g stroke="#000" class="edge">
            <path fill="none" d="M2541.55 318.45c89.9 10.05 254.56 28.65 395.03 45.55 10.99 1.32 22.49 2.73 33.93 4.15"/>
            <path d="m2970.92 364.67 9.49 4.71-10.35 2.24z"/>
        </g>
        <g stroke="#000" class="edge">
            <path fill="none" d="M2435.17 325.67c-27.64 10.3-64.92 24.18-95.23 35.46"/>
            <path d="m2341.55 364.27-10.59.21 8.15-6.77z"/>
        </g>
        <g stroke="#000" class="edge">
            <path fill="none" d="M960.99 250.25c-58.51 11.83-150.94 30.53-215.77 43.65"/>
            <path d="m746.23 297.26-10.49-1.44 9.11-5.42z"/>
        </g>
        <g stroke="#000" class="edge">
            <path fill="none" d="M994.07 255.48c-10.81 9.36-22.67 22.07-28.49 36.52-19.91 49.41 5.24 82.47 52 108 76.77 41.91 661.3 50.69 888.8 52.52"/>
            <path d="m1906.11 449.02 9.97 3.57-10.03 3.43z"/>
        </g>
        <g stroke="#000" class="edge">
            <path fill="none" d="M1089.72 241.29c309.13 9.69 1493.08 47.04 1501.86 50.71 21.46 8.97 20.81 20.32 38 36 17.92 16.34 23.08 19.66 41 36 17.19 15.68 16.86 26.29 38 36 74.21 34.1 303.49 46.53 428.55 50.84"/>
            <path d="m3137.14 447.34 9.87 3.83-10.11 3.17z"/>
        </g>
        <g stroke="#000" class="edge">
            <path fill="none" d="M1071.19 250.48c56.72 11.92 145.67 30.62 207.71 43.66"/>
            <path d="m1279.61 290.71 9.06 5.49-10.5 1.37z"/>
        </g>
        <g stroke="#000" class="edge">
            <path fill="none" d="M961.79 250.39c-10.97 2.05-22.43 4.04-33.21 5.61-160.43 23.4-213.54-26.83-363 36-22.98 9.66-20.94 24.39-43 36-33.5 17.63-73.49 29.92-108.13 38.19"/>
            <path d="m415.42 369.56-10.53-1.17 8.96-5.65z"/>
        </g>
        <g stroke="#000" class="edge">
            <path fill="none" d="M816.55 253.17c-27.07 10.35-64.14 24.53-94.14 36.01"/>
            <path d="m723.71 292.43-10.59.3 8.08-6.84z"/>
        </g>
        <g stroke="#000" class="edge">
            <path fill="none" d="M860.04 256.33c13.94 34.54 50.4 111.44 109.54 143.67 81.02 44.16 700.97 51.56 936.55 52.77"/>
            <path d="m1905.9 449.27 9.98 3.55-10.02 3.45z"/>
        </g>
        <g stroke="#000" class="edge">
            <path fill="none" d="M901.56 250.72c10.49 2.13 21.58 4.07 32.02 5.28 89.69 10.43 1542.75-1.27 1625 36 19.77 8.96 17.23 21.09 33 36 18.36 17.36 25.39 18.91 44 36 16.44 15.09 14.88 26.34 35 36 80.14 38.49 332.54 49.03 465.76 51.91"/>
            <path d="m3136.24 448.41 9.92 3.7-10.07 3.3z"/>
        </g>
        <g stroke="#000" class="edge">
            <path fill="none" d="M892.9 252.83c30.76 10.82 73.82 25.97 107.48 37.81"/>
            <path d="m1001.24 287.23 8.28 6.62-10.6-.01z"/>
        </g>
        <g stroke="#000" class="edge">
            <path fill="none" d="M795.96 247c-85.8 12.13-239.62 34.85-263.38 45-24.52 10.47-24.47 23.46-48 36-27.22 14.5-59.22 26.35-86.81 35.14"/>
            <path d="m399.06 366.4-10.58-.38 8.51-6.31z"/>
        </g>
        <g stroke="#000" class="edge">
            <path fill="none" d="M2330.5 241.79c-77.44 3.51-215.08 9.61-332.92 14.21-458.6 17.89-573.54 14.8-1032 36-64.62 2.99-137.15 7.16-194.12 10.62"/>
            <path d="m771.98 306.09-10.19-2.88 9.77-4.1z"/>
        </g>
        <g stroke="#000" class="edge">
            <path fill="none" d="M2356.5 253.17c-51.97 21.48-151.87 64.71-231.92 110.83-34.73 20.01-72.11 46.65-97.45 65.55"/>
            <path d="m2029.34 432.27-10.1 3.21 5.89-8.81z"/>
        </g>
        <g stroke="#000" class="edge">
            <path fill="none" d="M2453.3 240.85c65.13 3.88 169.59 15.67 252.28 51.15 24.51 10.52 24.66 23.11 48 36 78.32 43.26 101.93 47.55 188 72 68.58 19.48 148.71 33.86 205.45 42.69"/>
            <path d="m3147.21 439.18 9.36 4.98-10.42 1.94z"/>
        </g>
        <g stroke="#000" class="edge">
            <path fill="none" d="M2338.56 247.79c-75.24 12.48-213.18 35.37-297.43 49.34"/>
            <path d="m2041.8 300.57-10.44-1.82 9.29-5.09z"/>
        </g>
        <g stroke="#000" class="edge">
            <path fill="none" d="M2448.34 245.71c100.5 11.89 310.9 36.76 435.88 51.54"/>
            <path d="m2884.28 293.73 9.52 4.65-10.34 2.31z"/>
        </g>
        <g stroke="#000" class="edge">
            <path fill="none" d="M1985.87 242.85c83.84 3.84 218.39 9.67 334.71 13.15 105.19 3.15 1796.61-3.88 1894 36 21.53 8.82 64.08 52.02 76 72 11.03 18.49 17.09 42.12 20.37 60.39"/>
            <path d="m4314.36 423.59-1.88 10.43-5.03-9.33z"/>
        </g>
        <g stroke="#000" class="edge">
            <path fill="none" d="M1978.09 247.07c28.39 7.12 58.16 20.37 75.49 44.93 29.85 42.3-7.53 101.78-34.32 135.34"/>
            <path d="m2022.08 429.43-9.06 5.48 3.66-9.94z"/>
        </g>
        <g stroke="#000" class="edge">
            <path fill="none" d="M1987.33 241.6c184.72 6.24 619.23 23.6 680.25 50.4 21.3 9.36 19.55 21.83 38 36 48.42 37.19 59.48 51.52 117 72 103.96 37.01 231.54 48.51 313.77 51.91"/>
            <path d="m3136.27 448.4 9.86 3.87-10.12 3.12z"/>
        </g>
        <g stroke="#000" class="edge">
            <path fill="none" d="M1841.69 250.32c-71.1 13.04-179.3 33.68-197.11 41.68-24.32 10.93-24.27 23.84-48 36-31.45 16.12-68.73 28.45-100.27 37.15"/>
            <path d="m1497.45 368.47-10.57-.79 8.75-5.98z"/>
        </g>
        <g stroke="red" stroke-width="2" class="edge">
            <path fill="none" d="M1834.22 248.19c-19.63 2.55-40.96 5.3-60.64 7.81-117.79 15-254.04 31.97-339.62 42.57"/>
            <path fill="red" d="m1436.11 301.83-10.36-2.24 9.49-4.71z"/>
        </g>
        <g stroke="#000" class="edge">
            <path fill="none" d="M1836.71 248.92c-20.27 2.66-42.57 5.29-63.13 7.08-179.06 15.58-633.35-6.46-808 36-37.1 9.02-42.5 21.94-78 36-47.04 18.63-78.19-4.88-108 36-12.53 17.18-11.88 41.62-8.59 60.54"/>
            <path d="m774.4 423.78-1.37 10.51-5.48-9.07z"/>
        </g>
        <g stroke="#000" class="edge">
            <path fill="none" d="M1835.73 248.69c-63.48 9.41-160.13 24.94-243.15 43.31-59.16 13.09-205.48 52.96-263 72-63.49 21.02-135.09 49.83-180.83 68.91"/>
            <path d="m1150.24 436.08-10.58.64 7.87-7.09z"/>
        </g>
        <g stroke="#000" class="edge">
            <path fill="none" d="M1489.6 395.23c11.9 1.93 24.29 3.65 35.98 4.77 69.55 6.65 2281.27 44.4 2715.45 51.76"/>
            <path d="m4241.01 448.26 9.94 3.66-10.06 3.33z"/>
        </g>
        <g stroke="#000" class="edge">
            <path fill="none" d="M1492.07 394.75c11.15 1.87 22.65 3.7 33.51 5.25 135.42 19.35 293.58 35.92 387.84 45.16"/>
            <path d="m1913.47 441.65 9.62 4.45-10.3 2.51z"/>
        </g>
        <g stroke="#000" class="edge">
            <path fill="none" d="M1489.87 395.16c11.82 1.92 24.11 3.66 35.71 4.84 317.76 32.37 1314.5 47.94 1611 51.94"/>
            <path d="m3136.62 448.44 9.95 3.63-10.05 3.37z"/>
        </g>
        <g stroke="red" stroke-width="2" class="edge">
            <path fill="none" d="M1350.58 391.3c-125.19 13.51-371.4 40.06-495.97 53.5"/>
            <path fill="red" d="m856.64 448.1-10.32-2.41 9.57-4.55z"/>
        </g>
        <g stroke="#000" class="edge">
            <path fill="none" d="M1368.17 395.76c-55.65 11.95-138.79 29.8-197.39 42.38"/>
            <path d="m1171.75 441.51-10.51-1.32 9.05-5.52z"/>
        </g>
        <g stroke="#000" class="edge">
            <path fill="none" d="M1744.14 249.46c21.73 2.6 45.49 5.07 67.44 6.54 65.69 4.39 2310.65 7.49 2370 36 7.76 3.73 77.25 90.6 112.58 135.15"/>
            <path d="m4296.74 424.77 3.46 10.01-8.95-5.67z"/>
        </g>
        <g stroke="#000" class="edge">
            <path fill="none" d="M1738.92 250.7c34.57 7.95 75.76 20.86 108.66 41.3 15.25 9.48 88.89 92.36 126.62 135.36"/>
            <path d="m1976.71 424.92 3.96 9.83-9.22-5.22z"/>
        </g>
        <g stroke="#000" class="edge">
            <path fill="none" d="M1745.29 249.18c21.42 2.56 44.73 5.07 66.29 6.82 90.68 7.37 734.25.47 818 36 21.42 9.08 20.81 20.32 38 36 17.92 16.34 22.88 19.89 41 36 17.87 15.89 18.18 26.2 40 36 67.51 30.34 272.45 44.19 388.87 49.76"/>
            <path d="m3137.44 446.25 9.83 3.97-10.16 3.03z"/>
        </g>
        <g stroke="#000" class="edge">
            <path fill="none" d="M1607.83 252.33c-53.98 11.85-132.83 29.15-189.19 41.52"/>
            <path d="m1419.68 297.2-10.52-1.27 9.02-5.57z"/>
        </g>
        <g stroke="#000" class="edge">
            <path fill="none" d="M1587.73 248.19c-118.26 13.44-337.13 38.31-455 51.7"/>
            <path d="m1133.48 303.33-10.33-2.35 9.54-4.61z"/>
        </g>
        <g stroke="#000" class="edge">
            <path fill="none" d="M1727.33 252.66c51.43 11.96 125.98 29.3 178.77 41.58"/>
            <path d="m1906.6 290.76 8.94 5.67-10.53 1.15z"/>
        </g>
        <g stroke="#000" class="edge">
            <path fill="none" d="M1572.6 240.34c-137.74 3.24-399.01 14.24-618.02 51.66-30.18 5.16-247.39 47.68-266 72-9.72 12.71-7.94 22.11 0 36 8.48 14.84 22.92 25.93 37.77 34.03"/>
            <path d="m727.9 430.89 7.38 7.6-10.51-1.34z"/>
        </g>
        <g stroke="#000" class="edge">
            <path fill="none" d="M1571.95 239.16c-183.1 1.32-566 9.32-606.37 52.84-18.41 19.84 5.52 94.14 17 108 13.57 16.38 33.24 27.88 52.69 35.88"/>
            <path d="m1036.5 432.6 8.1 6.83-10.59-.29z"/>
        </g>
        <g stroke="#000" class="edge">
            <path fill="none" d="M2586.31 387.68c66.7 3.64 162.45 8.66 246.27 12.32 540.8 23.6 1192.96 44.18 1408.76 50.79"/>
            <path d="m4241.4 447.29 9.89 3.8-10.1 3.2z"/>
        </g>
        <g stroke="#000" class="edge">
            <path fill="none" d="M2438.47 394.65c-10.96 1.87-22.24 3.73-32.89 5.35-113.74 17.33-245.84 33.79-328.44 43.64"/>
            <path d="m2077.67 447.1-10.35-2.3 9.52-4.65z"/>
        </g>
        <g stroke="#000" class="edge">
            <path fill="none" d="M2567.22 394.57c12.37 1.99 25.25 3.9 37.36 5.43 190.92 24.09 416.54 40.43 534.63 48.06"/>
            <path d="m3139.38 444.57 9.75 4.13-10.2 2.85z"/>
        </g>
        <g stroke="#000" class="edge">
            <path fill="none" d="M2440.93 395.21c-11.7 1.92-23.87 3.64-35.35 4.79-618.46 61.82-777.24 4.98-1398 36-50.36 2.52-106.87 6.7-151.14 10.28"/>
            <path d="m856.92 449.75-10.25-2.67 9.68-4.3z"/>
        </g>
        <g stroke="#000" class="edge">
            <path fill="none" d="M2440.66 395.11c-11.62 1.92-23.69 3.67-35.08 4.89-234.33 25.18-948.93 44.44-1208.49 50.77"/>
            <path d="m1197.41 454.26-10.08-3.26 9.91-3.74z"/>
        </g>
        <g stroke="#000" class="edge">
            <path fill="none" d="M1432.12 315.77c66.32 3.71 161.85 8.79 245.46 12.23 131.39 5.4 1061.59-14.53 1183 36 21.48 8.94 16.55 26.99 38 36 62.32 26.19 1061.73 46.48 1342.91 51.69"/>
            <path d="m4241.32 448.19 9.93 3.68-10.06 3.32z"/>
        </g>
        <g stroke="#000" class="edge">
            <path fill="none" d="M1327.41 327.81c-22.47 19-51.25 50.17-30.83 72.19 40.61 43.8 429.54 51.6 609.48 52.85"/>
            <path d="m1905.86 449.35 9.97 3.56-10.02 3.44z"/>
        </g>
        <g stroke="#000" class="edge">
            <path fill="none" d="M1337.76 328.2c-12.15 19.97-26.84 52.61-8.18 71.8 15.97 16.43 1442.37 44.51 1806.92 51.43"/>
            <path d="m3136.55 447.93 9.94 3.69-10.07 3.31z"/>
        </g>
        <g stroke="red" stroke-width="2" class="edge">
            <path fill="none" d="M1368.46 327.95c9.51 8.53 21.22 19.04 31.7 28.44"/>
            <path fill="red" d="m1401.24 352.66 5.11 9.29-9.78-4.08z"/>
        </g>
        <g stroke="#000" class="edge">
            <path fill="none" d="M1285.96 322.54c-52.83 9.92-129.82 25.18-196.38 41.46-90.83 22.22-195.07 53.18-256.85 72.12"/>
            <path d="m834.11 439.36-10.59-.41 8.53-6.28z"/>
        </g>
        <g stroke="#000" class="edge">
            <path fill="none" d="M1271.15 317.92c-62.67 7.29-143.42 21.27-164.57 46.08-13.97 16.38-14.23 41.24-11.56 60.53"/>
            <path d="m1098.44 423.75-1.73 10.45-5.17-9.25z"/>
        </g>
        <g stroke="#000" class="edge">
            <path fill="none" d="M1123.67 318.02c38.43 3.54 86.73 7.58 129.91 9.98 597.51 33.23 749.57-12.96 1346 36 116.71 9.58 144.34 25.85 261 36 527.56 45.88 1166.15 52.16 1380.13 52.93"/>
            <path d="m4240.58 449.43 9.99 3.53-10.01 3.47z"/>
        </g>
        <g stroke="#000" class="edge">
            <path fill="none" d="M1040.28 328.08c-12.68 19.86-28.19 52.39-9.7 71.92 29.86 31.54 642.21 46.71 876.19 51.38"/>
            <path d="m1906.52 447.87 9.93 3.7-10.07 3.3z"/>
        </g>
        <g stroke="#000" class="edge">
            <path fill="none" d="M1087.56 326.54c49.74 21.22 144.26 58.34 229.02 73.46 180.31 32.16 1474.52 48.35 1819.62 52.13"/>
            <path d="m3136.11 448.62 9.96 3.61-10.03 3.39z"/>
        </g>
        <g stroke="#000" class="edge">
            <path fill="none" d="M1112 322.09c65.18 12.17 169.92 31.72 240.68 44.93"/>
            <path d="m1353.06 363.53 9.18 5.27-10.47 1.61z"/>
        </g>
        <g stroke="#000" class="edge">
            <path fill="none" d="M992.98 322.02c-71.71 13.5-183.43 35.38-190.4 41.98-16.26 15.4-21.92 40.56-23.7 60.21"/>
            <path d="m782.38 424.31-4.08 9.77-2.91-10.19z"/>
        </g>
        <g stroke="#000" class="edge">
            <path fill="none" d="M1025.26 327.34c-12.44 9.07-25.88 21.58-32.68 36.66-6.58 14.59-8.49 22.44 0 36 10.17 16.25 26.91 27.65 44.25 35.59"/>
            <path d="m1037.8 432.2 7.87 7.09-10.57-.63z"/>
        </g>
        <g stroke="#000" class="edge">
            <path fill="none" d="M2043.06 313.93c212.64 8.64 815.97 34.41 855.52 50.07 23.17 9.18 19.74 27.04 43 36 121.32 46.75 1031.73 52.31 1299.28 52.93"/>
            <path d="m4240.85 449.43 9.99 3.52-10 3.48z"/>
        </g>
        <g stroke="#000" class="edge">
            <path fill="none" d="M1972.89 328.41c4.56 23.98 12.82 67.45 18.29 96.17"/>
            <path d="m1994.61 423.92-1.57 10.48-5.3-9.17z"/>
        </g>
        <g stroke="#000" class="edge">
            <path fill="none" d="M1996.61 327.09c37.08 21.14 106.48 57.38 170.97 72.91 183.13 44.11 752.43 51.55 968.59 52.77"/>
            <path d="m3135.93 449.27 9.98 3.56-10.02 3.44z"/>
        </g>
        <g stroke="#000" class="edge">
            <path fill="none" d="M1906.62 320.11c-18.97 2.65-39.84 5.48-59.04 7.89-142.88 17.94-179.44 15.68-322 36-7.21 1.03-14.7 2.18-22.19 3.38"/>
            <path d="m1504 370.83-10.44-1.83 9.3-5.08z"/>
        </g>
        <g stroke="#000" class="edge">
            <path fill="none" d="M1944.65 327.33c-33.93 21.22-97.27 57.37-157.07 72.67-168.1 43.01-606.8 25.58-780 36-50.15 3.02-106.43 7.18-150.64 10.64"/>
            <path d="m857.43 450.11-10.24-2.71 9.7-4.27z"/>
        </g>
        <g stroke="#000" class="edge">
            <path fill="none" d="M1961.03 328.38c-11.44 21.12-33.89 55.89-64.45 71.62-60.78 31.27-501.66 45.85-699.43 50.87"/>
            <path d="m1197.5 454.36-10.08-3.25 9.91-3.75z"/>
        </g>
        <g stroke="#000" class="edge">
            <path fill="none" d="M5368.5 181.12c18.69 8.19 38.29 20.6 49.08 38.88 8.13 13.78 10.92 24.3 0 36-39.67 42.5-464.22 29.55-522 36-8.81.98-17.99 2.16-27.13 3.43"/>
            <path d="m4869.25 298.85-10.4-2.05 9.41-4.88z"/>
        </g>
        <g stroke="#000" class="edge">
            <path fill="none" d="M5321.58 184.3v24.16"/>
            <path d="m5325.08 208.38-3.5 10-3.5-10z"/>
        </g>
        <g stroke="#000" class="edge">
            <path fill="none" d="M5391.09 175.81c52.7 8.28 118.81 22.65 135.49 44.19 9.8 12.65 3.85 20.47 0 36-8.7 35.12-9.67 49.49-38 72-31.89 25.34-74.72 38.64-112.66 45.59"/>
            <path d="m5376.78 376.99-10.44-1.78 9.27-5.12z"/>
        </g>
        <g stroke="#000" class="edge">
            <path fill="none" d="M5377.93 179.3c21.87 7.83 44.74 20.46 57.65 40.7 8.6 13.49 9.28 22.97 0 36-56.74 79.69-112.17 52.35-208 72-127.26 26.1-512.71 43.91-671.98 50.34"/>
            <path d="m4556.17 381.82-10.13-3.1 9.85-3.9z"/>
        </g>
        <g stroke="#000" class="edge">
            <path fill="none" d="M5402.5 168.94c84.27 3.92 208.13 15.73 238.08 51.06 10.34 12.21 7.58 21.91 0 36-55.01 102.26-107.62 107.94-218 144-97.72 31.93-803.22 47.47-1034.67 51.74"/>
            <path d="m4388.17 455.24-10.06-3.32 9.93-3.68z"/>
        </g>
        <g stroke="#000" class="edge">
            <path fill="none" d="M5282.11 182.02c-27.65 10.52-64.82 24.66-94.54 35.96"/>
            <path d="m5188.99 221.19-10.59.28 8.1-6.83z"/>
        </g>
        <g stroke="#000" class="edge">
            <path fill="none" d="M5239.77 166.13c-143.92-.13-451.2 5.93-705.19 53.87-52.21 9.86-61.69 26.71-114 36-43.31 7.69-760.61 4.2-791 36-11.05 11.57-9.76 23.32 0 36 38.14 49.55 97.86-13.55 136 36 9.76 12.68 11.14 24.52 0 36-29.51 30.41-1322.52 47.77-1678.89 51.99"/>
            <path d="m2086.97 455.48-10.04-3.38 9.96-3.62z"/>
        </g>
        <g stroke="#000" class="edge">
            <path fill="none" d="M5393.91 174.62c57.47 7.72 131.16 21.94 149.67 45.38 59.57 75.47-29.4 147.81-120 180-50.81 18.06-1721.83 45.43-2118.94 51.69"/>
            <path d="m3304.83 455.19-10.05-3.34 9.94-3.66z"/>
        </g>
        <g stroke="#000" class="edge">
            <path fill="none" d="M5244.13 171.95c-145.49 9.32-469.59 30.13-742.55 48.05-52.98 3.48-112.14 7.42-160.13 10.63"/>
            <path d="m4341.85 234.11-10.21-2.82 9.74-4.16z"/>
        </g>
        <g stroke="#000" class="edge">
            <path fill="none" d="M5240.72 169.02c-136.9 3.39-423.09 10.29-665.14 14.98-1002.16 19.42-1253.05 7.53-2255 36-111.22 3.16-239.09 8.67-323.37 12.55"/>
            <path d="m1997.53 236.04-10.15-3.03 9.82-3.96z"/>
        </g>
        <g stroke="#000" class="edge">
            <path fill="none" d="M4565.71 168.31c89.19 3.41 218.31 14.79 249.87 51.69 15.14 17.7 4.04 43.36-8.73 62.59"/>
            <path d="m4809.88 284.36-8.65 6.12 2.95-10.18z"/>
        </g>
        <g stroke="#000" class="edge">
            <path fill="none" d="M4564.37 170.14c139.85 5.73 423.54 20.15 662.21 49.86 7.18.89 14.63 1.97 22.07 3.14"/>
            <path d="m5249.09 219.67 9.31 5.06-10.44 1.84z"/>
        </g>
        <g stroke="#000" class="edge">
            <path fill="none" d="M4541.23 178.89c10.14 1.78 20.52 3.55 30.35 5.11 116.08 18.46 145.8 18.29 262 36 95.78 14.6 119.13 21.99 215 36 63.82 9.33 245.31-12.35 288 36 16.98 19.24-1.16 45.35-19.99 64.31"/>
            <path d="m5319.05 358.81-9.66 4.36 4.83-9.43z"/>
        </g>
        <g stroke="#000" class="edge">
            <path fill="none" d="M4471.76 184.44c-3.11 10.23-6.61 23.48-8.18 35.56-2.06 15.87-1.39 20.06 0 36 .42 4.79 10.52 61.29 16.88 96.66"/>
            <path d="m4483.86 351.8-1.67 10.46-5.22-9.22z"/>
        </g>
        <g stroke="#000" class="edge">
            <path fill="none" d="M4565.76 168.73c228.26 4.91 822.82 20.59 851.82 51.27 10.99 11.63.99 20.03 0 36-4.02 64.55 27.31 101-21 144-37.67 33.52-771.76 48.08-1008.84 51.92"/>
            <path d="m4388.06 455.41-10.05-3.34 9.94-3.66z"/>
        </g>
        <g stroke="#000" class="edge">
            <path fill="none" d="M4560.79 172.55c110.59 7.9 311.92 24.04 482.79 47.45 7.71 1.06 15.74 2.29 23.73 3.62"/>
            <path d="m5067.77 220.14 9.27 5.13-10.44 1.77z"/>
        </g>
        <g stroke="#000" class="edge">
            <path fill="none" d="M4465.11 184.21c-16.56 21.3-48.02 56.61-84.53 71.79-80.52 33.49-723.77-27.06-784 36-11.05 11.57-9.92 23.44 0 36 42.75 54.15 108.24-18.15 151 36 9.91 12.56 11.14 24.52 0 36-29.18 30.07-1306.28 47.65-1660.65 51.96"/>
            <path d="m2087.02 455.46-10.05-3.38 9.96-3.62z"/>
        </g>
        <g stroke="#000" class="edge">
            <path fill="none" d="M4487.34 184.08c26.91 48.19 98.16 183.74 67.24 215.92-43.39 45.14-964.21 51.84-1250.1 52.83"/>
            <path d="m3304.89 456.33-10.01-3.47 9.99-3.53z"/>
        </g>
        <g stroke="#000" class="edge">
            <path fill="none" d="M4429.72 181.5c-36.24 10.99-86.2 26.12-124.78 37.81"/>
            <path d="m4306.42 222.53-10.59-.45 8.56-6.25z"/>
        </g>
        <g stroke="#000" class="edge">
            <path fill="none" d="M4398.38 174.44c-40.32 3.5-90.13 7.37-134.8 9.56-862.67 42.22-1079.68 10.37-1943 36-111.21 3.3-239.08 8.78-323.37 12.62"/>
            <path d="m1997.53 236.11-10.15-3.04 9.83-3.95z"/>
        </g>
        <g stroke="#000" class="edge">
            <path fill="none" d="M4447.22 183.23c-17.83 9.93-40.53 23.28-59.64 36.77-20.36 14.37-19.78 26.95-43 36-162.93 63.46-613.66 6.46-786 36-54.46 9.34-64.59 26.37-119 36-81.07 14.34-618.17 39.07-840.7 48.85"/>
            <path d="m2599.22 380.34-10.14-3.06 9.83-3.93z"/>
        </g>
        <g class="node" transform="translate(4 472)">
            <ellipse cx="4654.58" cy="-234" fill="none" stroke="#000" rx="115.33" ry="18"/>
            <text x="4654.58" y="-228.95" font-family="Times,serif" font-size="14" text-anchor="middle">:app:core:calendar-compose</text>
        </g>
        <g stroke="#000" class="edge">
            <path fill="none" d="M4517.3 182.36c26.11 10.1 60.57 23.43 88.91 34.39"/>
            <path d="m4607.27 213.4 8.07 6.88-10.59-.35z"/>
        </g>
        <g stroke="#000" class="edge">
            <path fill="none" d="M4248.9 173.1c159.76 13.67 532.54 45.7 533.68 46.9 14.95 15.78 14.38 41.08 10.83 60.67"/>
            <path d="m4796.88 281.22-5.55 9.02-1.29-10.51z"/>
        </g>
        <g stroke="#000" class="edge">
            <path fill="none" d="M4247.64 173.62c38.85 3.48 88.04 7.6 131.94 10.38 376.03 23.8 472.48-5.28 847 36 7.44.82 15.18 1.87 22.88 3.05"/>
            <path d="m5249.87 219.57 9.32 5.04-10.43 1.87z"/>
        </g>
        <g stroke="#000" class="edge">
            <path fill="none" d="M4248.61 173.22c38.71 3.33 87.46 7.42 130.97 10.78 227.44 17.57 290.06-16.74 512 36 40.31 9.58 45.89 25.59 86 36 69.48 18.04 273.15-17.51 321 36 14.73 16.47 9.74 42.04 2.38 61.55"/>
            <path d="m5304.28 354.68-7.09 7.87.63-10.58z"/>
        </g>
        <g stroke="#000" class="edge">
            <path fill="none" d="M4163.31 184.02c-14.55 19.48-32.64 51.37-14.73 71.98 75.38 86.72 154.41-17.67 256 36 7.49 3.96 37.97 38.58 59.32 63.46"/>
            <path d="m4466.47 353.08 3.84 9.87-9.16-5.32z"/>
        </g>
        <g stroke="#000" class="edge">
            <path fill="none" d="M4248.6 173.34c38.7 3.36 87.46 7.45 130.98 10.66 252.71 18.63 320.88-15.43 569 36 46.25 9.59 54.11 24.8 100 36 150.33 36.68 277.15-37.07 331 108 5.57 15 11.03 24.41 0 36-34.15 35.9-756.21 48.82-991.56 52.09"/>
            <path d="m4388.42 455.59-10.05-3.37 9.95-3.63z"/>
        </g>
        <g stroke="#000" class="edge">
            <path fill="none" d="M4248.12 173.4c38.78 3.4 87.75 7.5 131.46 10.6 277.99 19.69 348.52 10.19 626 36 17.73 1.65 36.75 3.85 54.67 6.11"/>
            <path d="m5060.57 222.62 9.47 4.75-10.36 2.2z"/>
        </g>
        <g stroke="#000" class="edge">
            <path fill="none" d="M4120.14 178.35c-153.06 30.29-559.31 110.9-561.56 113.65-10.13 12.38-10.08 23.58 0 36 48.93 60.31 122.06-24.31 171 36 10.08 12.42 11.14 24.51 0 36-28.85 29.74-1290.73 47.54-1642.7 51.93"/>
            <path d="m2087.05 455.43-10.04-3.38 9.95-3.62z"/>
        </g>
        <g stroke="#000" class="edge">
            <path fill="none" d="M4160.24 183.86c-16.87 18.51-37.89 48.7-22.66 72.14 21.47 33.03 51.79 9.56 81 36 38.06 34.46 76.37 70.78 41 108-32.72 34.44-713.55 48.07-955 51.83"/>
            <path d="m3304.99 455.33-10.05-3.35 9.94-3.65z"/>
        </g>
        <g stroke="#000" class="edge">
            <path fill="none" d="M4194.28 183.95c8.31 8.42 18.51 18.77 27.69 28.08"/>
            <path d="m4224.44 209.55 4.53 9.58-9.51-4.66z"/>
        </g>
        <g stroke="#000" class="edge">
            <path fill="none" d="M4123.67 179.15c-10.59 1.97-21.65 3.72-32.09 4.85-782.71 84.66-985.44-15.86-1771 36-1.12.07-641.97 71.56-643 72-22.92 9.8-20.82 24.63-43 36-23.55 12.08-85.17 27.16-135.1 38.14"/>
            <path d="m1500.37 369.53-10.52-1.29 9.03-5.55z"/>
        </g>
        <g stroke="#000" class="edge">
            <path fill="none" d="M4123.67 179.19c-10.59 1.96-21.65 3.7-32.09 4.81-503.91 53.35-1774.41 2.05-2280 36-18.18 1.22-37.6 3.12-56.07 5.22"/>
            <path d="m1755.98 228.69-10.33-2.32 9.52-4.63z"/>
        </g>
        <g stroke="#000" class="edge">
            <path fill="none" d="M4017.76 183.61c28.1 20.99 80.09 56.34 130.82 72.39 95.09 30.08 370.7 44.05 526.44 49.7"/>
            <path d="m4675.1 302.2 9.87 3.86-10.12 3.14z"/>
        </g>
        <g stroke="#000" class="edge">
            <path fill="none" d="M4057.21 179.2c11.38 1.91 23.2 3.63 34.37 4.8 501.95 52.59 633.05-16.59 1135 36 7.5.79 15.3 1.82 23.06 2.99"/>
            <path d="m5250.13 219.53 9.33 5.03-10.43 1.88z"/>
        </g>
        <g stroke="#000" class="edge">
            <path fill="none" d="M4057.48 179.1c11.3 1.91 23.03 3.65 34.1 4.9 84.23 9.49 684.02 2.77 762 36 21.4 9.12 16.83 26.35 38 36 74.96 34.18 305.29-16.24 369 36 17.66 14.48 24.05 40.13 26.23 60.18"/>
            <path d="m5290.29 351.76-2.73 10.24-4.25-9.71z"/>
        </g>
        <g stroke="#000" class="edge">
            <path fill="none" d="M4017.65 183.93c26.43 20.33 73.86 53.95 119.93 72.07 80.39 31.61 109.88 6.3 191 36 24.51 8.97 83.62 43.97 121.91 67.31"/>
            <path d="m4452.22 356.26 6.7 8.21-10.35-2.24z"/>
        </g>
        <g stroke="#000" class="edge">
            <path fill="none" d="M4057.74 179.1c11.22 1.89 22.85 3.64 33.84 4.9 152.76 17.58 542.43-3.63 691 36 34.18 9.12 37.02 26.13 71 36 80.18 23.28 317.86-25.8 374 36 116.06 127.77-603.27 154.46-839.61 159.75"/>
            <path d="m4388.34 455.24-10.07-3.28 9.92-3.71z"/>
        </g>
        <g stroke="#000" class="edge">
            <path fill="none" d="M4057.48 179.13c11.3 1.9 23.03 3.64 34.1 4.87 353.72 39.43 444.66 15.73 800 36 53.21 3.04 112.84 7.14 160.06 10.55"/>
            <path d="m5051.83 227.06 9.72 4.21-10.23 2.77z"/>
        </g>
        <g stroke="#000" class="edge">
            <path fill="none" d="M3910.31 166.78c-114.35 1.44-308.06 10.37-362.73 53.22-38.94 30.52-58.58 69.91-27 108 55.14 66.5 135.86-30.5 191 36 10.21 12.32 11.14 24.51 0 36-28.52 29.41-1275.22 47.42-1624.75 51.9"/>
            <path d="m2087.07 455.4-10.04-3.38 9.95-3.62z"/>
        </g>
        <g stroke="#000" class="edge">
            <path fill="none" d="M4006.06 184.3c11.86 20.06 33.98 52.79 61.52 71.7 43.8 30.07 70.25 5.84 114 36 44.69 30.8 94.37 68.64 57 108-31.97 33.68-696.12 47.76-934.09 51.74"/>
            <path d="m3304.72 455.24-10.06-3.34 9.94-3.66z"/>
        </g>
        <g stroke="#000" class="edge">
            <path fill="none" d="M4046.57 181c39.76 11.13 95.6 26.77 138.17 38.69"/>
            <path d="m4185.68 216.31 8.68 6.07-10.57.67z"/>
        </g>
        <g stroke="#000" class="edge">
            <path fill="none" d="M3910.27 167.36c-393.2 1.88-2000.23 12.02-2098.69 52.64-21.51 8.87-17.36 25.27-38 36-71.22 37.04-101.39 9.03-177 36-48.4 17.27-100.13 46.24-133.43 66.42"/>
            <path d="m1465.08 361.35-10.35 2.24 6.69-8.21z"/>
        </g>
        <g stroke="#000" class="edge">
            <path fill="none" d="M3910.34 167.57c-355.25 2.56-1706.61 14.66-2131.76 52.43-9.72.86-19.89 2.05-29.94 3.39"/>
            <path d="m1749.25 226.84-10.39-2.08 9.42-4.85z"/>
        </g>
        <g class="node" transform="translate(4 472)">
            <ellipse cx="3388.58" cy="-90" fill="none" stroke="#000" rx="106.11" ry="18"/>
            <text x="3388.58" y="-84.95" font-family="Times,serif" font-size="14" text-anchor="middle">:library:firebase-common</text>
        </g>
        <g stroke="#000" class="edge">
            <path fill="none" d="M3058.12 323.76c70.79 12.11 177.05 30.3 250.73 42.91"/>
            <path d="m3309.17 363.17 9.26 5.14-10.44 1.76z"/>
        </g>
        <g stroke="#000" class="edge">
            <path fill="none" d="M406.73 394.64c83.74 13.14 219.04 34.38 301.28 47.28"/>
            <path d="m708.42 438.45 9.34 5-10.43 1.91z"/>
        </g>
        <g stroke="#000" class="edge">
            <path fill="none" d="M3926.57 394.31c-9.83 2.16-20.22 4.21-29.99 5.69-212.12 32.18-464.83 45.4-592.83 50.35"/>
            <path d="m3304.15 453.84-10.13-3.12 9.86-3.88z"/>
        </g>
        <g stroke="#000" class="edge">
            <path fill="none" d="M2181.47 387.67c-78.49 3.47-188.4 8.27-284.89 12.33-395.09 16.61-494.21 13.36-889 36-50.16 2.88-106.43 7.04-150.64 10.53"/>
            <path d="m857.43 450-10.24-2.7 9.69-4.28z"/>
        </g>
        <g stroke="#000" class="edge">
            <path fill="none" d="M4689 255.77c16.89 9.3 38.1 21 56.35 31.05"/>
            <path d="m4747.01 283.75 7.07 7.89-10.44-1.76z"/>
        </g>
        <g stroke="#000" class="edge">
            <path fill="none" d="M4656.32 256.32c-1.58 20.39-.59 53.76 19.26 71.68 37.62 33.95 356.72 46.7 518.6 51.02"/>
            <path d="m5194.14 375.52 9.91 3.76-10.09 3.24z"/>
        </g>
        <g stroke="#000" class="edge">
            <path fill="none" d="M4637.71 256.13c-30.85 25.32-88.73 72.83-123.52 101.39"/>
            <path d="m4516.57 360.09-9.95 3.64 5.51-9.05z"/>
        </g>
        <g stroke="#000" class="edge">
            <path fill="none" d="M4657.57 256.3c-3.03 34.15-15.1 109.84-62.99 143.7-52.74 37.3-998.83 49.41-1289.66 52.27"/>
            <path d="m3305.17 455.77-10.04-3.41 9.97-3.59z"/>
        </g>
    </g>
</svg>
